<?xml version="1.0" encoding="UTF-8" standalone="no"?>
<!DOCTYPE svg PUBLIC "-//W3C//DTD SVG 1.1//EN"
 "http://www.w3.org/Graphics/SVG/1.1/DTD/svg11.dtd">
<!-- Generated by graphviz version 2.38.0 (20140413.2041)
 -->
<!-- Title: boost::graph_traits&lt; DGtal::Object&lt; TDigitalTopology, TDigitalSet &gt; &gt;::adjacency_iterator Pages: 1 -->
<svg width="399pt" height="61pt"
 viewBox="0.00 0.00 399.00 61.00" xmlns="http://www.w3.org/2000/svg" xmlns:xlink="http://www.w3.org/1999/xlink">
<g id="graph0" class="graph" transform="scale(1 1) rotate(0) translate(4 57)">
<title>boost::graph_traits&lt; DGtal::Object&lt; TDigitalTopology, TDigitalSet &gt; &gt;::adjacency_iterator</title>
<polygon fill="white" stroke="none" points="-4,4 -4,-57 395,-57 395,4 -4,4"/>
<!-- Node0 -->
<g id="node1" class="node"><title>Node0</title>
<polygon fill="#bfbfbf" stroke="black" points="209,-0.5 209,-52.5 391,-52.5 391,-0.5 209,-0.5"/>
<text text-anchor="start" x="217" y="-40.5" font-family="FreeSans" font-size="10.00">boost::graph_traits</text>
<text text-anchor="start" x="217" y="-29.5" font-family="FreeSans" font-size="10.00">&lt; DGtal::Object&lt; TDigitalTopology,</text>
<text text-anchor="start" x="217" y="-18.5" font-family="FreeSans" font-size="10.00"> TDigitalSet &gt; &gt;::adjacency</text>
<text text-anchor="middle" x="300" y="-7.5" font-family="FreeSans" font-size="10.00">_iterator</text>
</g>
<!-- Node1 -->
<g id="node2" class="node"><title>Node1</title>
<polygon fill="white" stroke="#bfbfbf" points="0,-0.5 0,-52.5 173,-52.5 173,-0.5 0,-0.5"/>
<text text-anchor="start" x="8" y="-40.5" font-family="FreeSans" font-size="10.00">boost::iterator_facade</text>
<text text-anchor="start" x="8" y="-29.5" font-family="FreeSans" font-size="10.00">&lt; adjacency_iterator,</text>
<text text-anchor="start" x="8" y="-18.5" font-family="FreeSans" font-size="10.00"> Vertex, bidirectional</text>
<text text-anchor="middle" x="86.5" y="-7.5" font-family="FreeSans" font-size="10.00">_traversal_tag, const Vertex &amp; &gt;</text>
</g>
<!-- Node1&#45;&gt;Node0 -->
<g id="edge1" class="edge"><title>Node1&#45;&gt;Node0</title>
<path fill="none" stroke="midnightblue" d="M183.419,-26.5C191.826,-26.5 200.317,-26.5 208.676,-26.5"/>
<polygon fill="midnightblue" stroke="midnightblue" points="183.22,-23.0001 173.22,-26.5 183.22,-30.0001 183.22,-23.0001"/>
</g>
</g>
</svg>
