<?xml version="1.0" encoding="UTF-8" standalone="no"?>
<!DOCTYPE svg PUBLIC "-//W3C//DTD SVG 1.1//EN"
 "http://www.w3.org/Graphics/SVG/1.1/DTD/svg11.dtd">
<!-- Generated by graphviz version 2.38.0 (20140413.2041)
 -->
<!-- Title: DGtal::OneBalancedWordComputer&lt; TConstIterator, TInteger &gt;::CodeHandler&lt; TIterator, iterator_type &gt; Pages: 1 -->
<svg width="503pt" height="61pt"
 viewBox="0.00 0.00 503.00 61.00" xmlns="http://www.w3.org/2000/svg" xmlns:xlink="http://www.w3.org/1999/xlink">
<g id="graph0" class="graph" transform="scale(1 1) rotate(0) translate(4 57)">
<title>DGtal::OneBalancedWordComputer&lt; TConstIterator, TInteger &gt;::CodeHandler&lt; TIterator, iterator_type &gt;</title>
<polygon fill="white" stroke="none" points="-4,4 -4,-57 499,-57 499,4 -4,4"/>
<!-- Node0 -->
<g id="node1" class="node"><title>Node0</title>
<polygon fill="#bfbfbf" stroke="black" points="0,-0.5 0,-52.5 185,-52.5 185,-0.5 0,-0.5"/>
<text text-anchor="start" x="8" y="-40.5" font-family="FreeSans" font-size="10.00">DGtal::OneBalancedWordComputer</text>
<text text-anchor="start" x="8" y="-29.5" font-family="FreeSans" font-size="10.00">&lt; TConstIterator, TInteger</text>
<text text-anchor="start" x="8" y="-18.5" font-family="FreeSans" font-size="10.00"> &gt;::CodeHandler&lt; TIterator,</text>
<text text-anchor="middle" x="92.5" y="-7.5" font-family="FreeSans" font-size="10.00"> iterator_type &gt;</text>
</g>
<!-- Node1 -->
<g id="node2" class="node"><title>Node1</title>
<g id="a_node2"><a xlink:href="classDGtal_1_1OneBalancedWordComputer_1_1CodeHandler.html" target="_top" xlink:title="DGtal::OneBalancedWordComputer\l\&lt; TConstIterator, TInteger\l \&gt;::CodeHandler\&lt; ConstIterator \&gt;">
<polygon fill="white" stroke="black" points="310,-6 310,-47 495,-47 495,-6 310,-6"/>
<text text-anchor="start" x="318" y="-35" font-family="FreeSans" font-size="10.00">DGtal::OneBalancedWordComputer</text>
<text text-anchor="start" x="318" y="-24" font-family="FreeSans" font-size="10.00">&lt; TConstIterator, TInteger</text>
<text text-anchor="middle" x="402.5" y="-13" font-family="FreeSans" font-size="10.00"> &gt;::CodeHandler&lt; ConstIterator &gt;</text>
</a>
</g>
</g>
<!-- Node0&#45;&gt;Node1 -->
<g id="edge1" class="edge"><title>Node0&#45;&gt;Node1</title>
<path fill="none" stroke="orange" stroke-dasharray="5,2" d="M195.362,-26.5C232.286,-26.5 273.744,-26.5 309.745,-26.5"/>
<polygon fill="orange" stroke="orange" points="195.076,-23.0001 185.076,-26.5 195.076,-30.0001 195.076,-23.0001"/>
<text text-anchor="middle" x="247.5" y="-29.5" font-family="FreeSans" font-size="10.00"> &lt; ConstIterator &gt;</text>
</g>
</g>
</svg>
