<?xml version="1.0" encoding="UTF-8" standalone="no"?>
<!DOCTYPE svg PUBLIC "-//W3C//DTD SVG 1.1//EN"
 "http://www.w3.org/Graphics/SVG/1.1/DTD/svg11.dtd">
<!-- Generated by graphviz version 2.36.0 (20140111.2315)
 -->
<!-- Title: DGtal::ImageContainerByITKImage&lt; TDomain, TValue &gt; Pages: 1 -->
<svg width="269pt" height="198pt"
 viewBox="0.00 0.00 269.00 198.00" xmlns="http://www.w3.org/2000/svg" xmlns:xlink="http://www.w3.org/1999/xlink">
<g id="graph0" class="graph" transform="scale(1 1) rotate(0) translate(4 194)">
<title>DGtal::ImageContainerByITKImage&lt; TDomain, TValue &gt;</title>
<polygon fill="white" stroke="none" points="-4,4 -4,-194 265,-194 265,4 -4,4"/>
<!-- Node1 -->
<g id="node1" class="node"><title>Node1</title>
<polygon fill="#bfbfbf" stroke="black" points="0,-1 0,-31 182,-31 182,-1 0,-1"/>
<text text-anchor="start" x="8" y="-19" font-family="FreeSans" font-size="10.00">DGtal::ImageContainerByITKImage</text>
<text text-anchor="middle" x="91" y="-8" font-family="FreeSans" font-size="10.00">&lt; TDomain, TValue &gt;</text>
</g>
<!-- Node2 -->
<g id="node2" class="node"><title>Node2</title>
<polygon fill="white" stroke="#bfbfbf" points="14.5,-91.5 14.5,-110.5 73.5,-110.5 73.5,-91.5 14.5,-91.5"/>
<text text-anchor="middle" x="44" y="-98.5" font-family="FreeSans" font-size="10.00">TDomain</text>
</g>
<!-- Node2&#45;&gt;Node1 -->
<g id="edge1" class="edge"><title>Node2&#45;&gt;Node1</title>
<path fill="none" stroke="#9a32cd" stroke-dasharray="5,2" d="M48.3249,-81.5246C51.089,-71.7363 55.2479,-59.755 61,-50 65.0114,-43.197 70.5888,-36.5763 75.8475,-31.0727"/>
<polygon fill="#9a32cd" stroke="#9a32cd" points="44.884,-80.8524 45.7862,-91.4087 51.6639,-82.5938 44.884,-80.8524"/>
<text text-anchor="middle" x="89" y="-53.5" font-family="FreeSans" font-size="10.00"> myDomain</text>
</g>
<!-- Node3 -->
<g id="node3" class="node"><title>Node3</title>
<g id="a_node3"><a xlink:href="classDGtal_1_1PointVector.html" target="_top" xlink:title="Aim: Implements basic operations that will be used in Point and Vector classes. ">
<polygon fill="white" stroke="black" points="92,-80.5 92,-121.5 218,-121.5 218,-80.5 92,-80.5"/>
<text text-anchor="start" x="100" y="-109.5" font-family="FreeSans" font-size="10.00">DGtal::PointVector</text>
<text text-anchor="start" x="100" y="-98.5" font-family="FreeSans" font-size="10.00">&lt; dim, TEuclideanRing,</text>
<text text-anchor="middle" x="155" y="-87.5" font-family="FreeSans" font-size="10.00"> TContainer &gt;</text>
</a>
</g>
</g>
<!-- Node3&#45;&gt;Node1 -->
<g id="edge2" class="edge"><title>Node3&#45;&gt;Node1</title>
<path fill="none" stroke="#9a32cd" stroke-dasharray="5,2" d="M134.055,-72.2628C128.534,-64.9991 122.563,-57.1892 117,-50 112.179,-43.7702 106.798,-36.9235 102.188,-31.0892"/>
<polygon fill="#9a32cd" stroke="#9a32cd" points="131.448,-74.6172 140.281,-80.4689 137.025,-70.3866 131.448,-74.6172"/>
<text text-anchor="middle" x="164" y="-53.5" font-family="FreeSans" font-size="10.00"> myDomainShift</text>
</g>
<!-- Node3&#45;&gt;Node3 -->
<g id="edge4" class="edge"><title>Node3&#45;&gt;Node3</title>
<path fill="none" stroke="#9a32cd" stroke-dasharray="5,2" d="M228.09,-106.937C233.012,-105.566 236,-103.588 236,-101 236,-96.9609 228.719,-94.405 218.168,-93.3321"/>
<polygon fill="#9a32cd" stroke="#9a32cd" points="227.418,-103.501 218.168,-108.668 228.621,-110.397 227.418,-103.501"/>
<text text-anchor="middle" x="248.5" y="-98.5" font-family="FreeSans" font-size="10.00"> zero</text>
</g>
<!-- Node4 -->
<g id="node4" class="node"><title>Node4</title>
<polygon fill="white" stroke="#bfbfbf" points="121,-170.5 121,-189.5 189,-189.5 189,-170.5 121,-170.5"/>
<text text-anchor="middle" x="155" y="-177.5" font-family="FreeSans" font-size="10.00">TContainer</text>
</g>
<!-- Node4&#45;&gt;Node3 -->
<g id="edge3" class="edge"><title>Node4&#45;&gt;Node3</title>
<path fill="none" stroke="#9a32cd" stroke-dasharray="5,2" d="M155,-160.149C155,-148.503 155,-133.581 155,-121.768"/>
<polygon fill="#9a32cd" stroke="#9a32cd" points="151.5,-160.465 155,-170.465 158.5,-160.465 151.5,-160.465"/>
<text text-anchor="middle" x="177" y="-143.5" font-family="FreeSans" font-size="10.00"> myArray</text>
</g>
</g>
</svg>
