<?xml version="1.0" encoding="UTF-8" standalone="no"?>
<!DOCTYPE svg PUBLIC "-//W3C//DTD SVG 1.1//EN"
 "http://www.w3.org/Graphics/SVG/1.1/DTD/svg11.dtd">
<!-- Generated by graphviz version 2.38.0 (20140413.2041)
 -->
<!-- Title: DGtal::MelkmanConvexHull&lt; TPoint, TOrientationFunctor &gt; Pages: 1 -->
<svg width="255pt" height="139pt"
 viewBox="0.00 0.00 255.00 139.00" xmlns="http://www.w3.org/2000/svg" xmlns:xlink="http://www.w3.org/1999/xlink">
<g id="graph0" class="graph" transform="scale(1 1) rotate(0) translate(4 135)">
<title>DGtal::MelkmanConvexHull&lt; TPoint, TOrientationFunctor &gt;</title>
<polygon fill="white" stroke="none" points="-4,4 -4,-135 251,-135 251,4 -4,4"/>
<!-- Node0 -->
<g id="node1" class="node"><title>Node0</title>
<polygon fill="#bfbfbf" stroke="black" points="-1.42109e-14,-100.5 -1.42109e-14,-130.5 168,-130.5 168,-100.5 -1.42109e-14,-100.5"/>
<text text-anchor="start" x="8" y="-118.5" font-family="FreeSans" font-size="10.00">DGtal::MelkmanConvexHull</text>
<text text-anchor="middle" x="84" y="-107.5" font-family="FreeSans" font-size="10.00">&lt; TPoint, TOrientationFunctor &gt;</text>
</g>
<!-- Node1 -->
<g id="node2" class="node"><title>Node1</title>
<g id="a_node2"><a xlink:href="classDGtal_1_1MelkmanConvexHull.html" target="_top" xlink:title="DGtal::MelkmanConvexHull\l\&lt; InputPoint, DGtal::InHalfPlane\lBySimple3x3Matrix \&gt;">
<polygon fill="white" stroke="black" points="-1.42109e-14,-0.5 -1.42109e-14,-41.5 168,-41.5 168,-0.5 -1.42109e-14,-0.5"/>
<text text-anchor="start" x="8" y="-29.5" font-family="FreeSans" font-size="10.00">DGtal::MelkmanConvexHull</text>
<text text-anchor="start" x="8" y="-18.5" font-family="FreeSans" font-size="10.00">&lt; InputPoint, DGtal::InHalfPlane</text>
<text text-anchor="middle" x="84" y="-7.5" font-family="FreeSans" font-size="10.00">BySimple3x3Matrix &gt;</text>
</a>
</g>
</g>
<!-- Node0&#45;&gt;Node1 -->
<g id="edge1" class="edge"><title>Node0&#45;&gt;Node1</title>
<path fill="none" stroke="orange" stroke-dasharray="5,2" d="M84,-90.2821C84,-75.1384 84,-55.8824 84,-41.6823"/>
<polygon fill="orange" stroke="orange" points="80.5001,-90.4512 84,-100.451 87.5001,-90.4513 80.5001,-90.4512"/>
<text text-anchor="start" x="84" y="-74" font-family="FreeSans" font-size="10.00"> &lt; InputPoint, DGtal</text>
<text text-anchor="middle" x="165.5" y="-63" font-family="FreeSans" font-size="10.00">::InHalfPlaneBySimple3x3Matrix &gt;</text>
</g>
</g>
</svg>
