<?xml version="1.0" encoding="UTF-8" standalone="no"?>
<!DOCTYPE svg PUBLIC "-//W3C//DTD SVG 1.1//EN"
 "http://www.w3.org/Graphics/SVG/1.1/DTD/svg11.dtd">
<!-- Generated by graphviz version 2.38.0 (20140413.2041)
 -->
<!-- Title: DGtal::GridCurve&lt; TKSpace &gt; Pages: 1 -->
<!--zoomable 563 -->
<svg id="main" version="1.1" xmlns="http://www.w3.org/2000/svg" xmlns:xlink="http://www.w3.org/1999/xlink" xml:space="preserve" onload="init(evt)">
<style type="text/css"><![CDATA[
.edge:hover path { stroke: red; }
.edge:hover polygon { stroke: red; fill: red; }
]]></style>
<script type="text/javascript"><![CDATA[
var edges = document.getElementsByTagName('g');
if (edges && edges.length) {
  for (var i=0;i<edges.length;i++) {
    if (edges[i].id.substr(0,4)=='edge') {
      edges[i].setAttribute('class','edge');
    }
  }
}
]]></script>
        <defs>
                <circle id="rim" cx="0" cy="0" r="7"/>
                <circle id="rim2" cx="0" cy="0" r="3.5"/>
                <g id="zoomPlus">
                        <use xlink:href="#rim" fill="#404040">
                                <set attributeName="fill" to="#808080" begin="zoomplus.mouseover" end="zoomplus.mouseout"/>
                        </use>
                        <path d="M-4,0h8M0,-4v8" fill="none" stroke="white" stroke-width="1.5" pointer-events="none"/>
                </g>
                <g id="zoomMin">
                        <use xlink:href="#rim" fill="#404040">
                                <set attributeName="fill" to="#808080" begin="zoomminus.mouseover" end="zoomminus.mouseout"/>
                        </use>
                        <path d="M-4,0h8" fill="none" stroke="white" stroke-width="1.5" pointer-events="none"/>
                </g>
                <g id="dirArrow">
                        <path fill="none" stroke="white" stroke-width="1.5" d="M0,-3.0v7 M-2.5,-0.5L0,-3.0L2.5,-0.5"/>
                </g>
               <g id="resetDef">
                       <use xlink:href="#rim2" fill="#404040">
                               <set attributeName="fill" to="#808080" begin="reset.mouseover" end="reset.mouseout"/>
                       </use>
               </g>
        </defs>

<script type="text/javascript">
var viewWidth = 290;
var viewHeight = 563;
var sectionId = 'dynsection-0';
</script>
<script xlink:href="svgpan.js"/>
<svg id="graph" class="graph">
<g id="viewport">
<title>DGtal::GridCurve&lt; TKSpace &gt;</title>
<polygon fill="white" stroke="none" points="-4,4 -4,-559 286,-559 286,4 -4,4"/>
<!-- Node1 -->
<g id="node1" class="node"><title>Node1</title>
<polygon fill="#bfbfbf" stroke="black" points="71.5,-0.5 71.5,-19.5 232.5,-19.5 232.5,-0.5 71.5,-0.5"/>
<text text-anchor="middle" x="152" y="-7.5" font-family="FreeSans" font-size="10.00">DGtal::GridCurve&lt; TKSpace &gt;</text>
</g>
<!-- Node2 -->
<g id="node2" class="node"><title>Node2</title>
<polygon fill="white" stroke="#bfbfbf" points="95,-67.5 95,-86.5 209,-86.5 209,-67.5 95,-67.5"/>
<text text-anchor="middle" x="152" y="-74.5" font-family="FreeSans" font-size="10.00">std::vector&lt; SCell &gt;</text>
</g>
<!-- Node2&#45;&gt;Node1 -->
<g id="edge1" class="edge"><title>Node2&#45;&gt;Node1</title>
<path fill="none" stroke="#9a32cd" stroke-dasharray="5,2" d="M152,-57.037C152,-44.6703 152,-29.1198 152,-19.6273"/>
<polygon fill="#9a32cd" stroke="#9a32cd" points="148.5,-57.2338 152,-67.2338 155.5,-57.2338 148.5,-57.2338"/>
<text text-anchor="middle" x="176" y="-41" font-family="FreeSans" font-size="10.00"> mySCells</text>
</g>
<!-- Node3 -->
<g id="node3" class="node"><title>Node3</title>
<g id="a_node3"><a xlink:href="structDGtal_1_1SignedKhalimskyCell.html" target="_top" xlink:title="Represents a signed cell in a cellular grid space by its Khalimsky coordinates and a boolean value...">
<polygon fill="white" stroke="black" points="0,-134.5 0,-164.5 148,-164.5 148,-134.5 0,-134.5"/>
<text text-anchor="start" x="8" y="-152.5" font-family="FreeSans" font-size="10.00">DGtal::SignedKhalimskyCell</text>
<text text-anchor="middle" x="74" y="-141.5" font-family="FreeSans" font-size="10.00">&lt; dim, TInteger &gt;</text>
</a>
</g>
</g>
<!-- Node3&#45;&gt;Node2 -->
<g id="edge2" class="edge"><title>Node3&#45;&gt;Node2</title>
<path fill="none" stroke="#9a32cd" stroke-dasharray="5,2" d="M97.2223,-127.511C112.211,-113.963 130.94,-97.0348 142.161,-86.8932"/>
<polygon fill="#9a32cd" stroke="#9a32cd" points="94.8563,-124.931 89.7845,-134.233 99.5501,-130.124 94.8563,-124.931"/>
<text text-anchor="middle" x="144.5" y="-108" font-family="FreeSans" font-size="10.00"> elements</text>
</g>
<!-- Node4 -->
<g id="node4" class="node"><title>Node4</title>
<g id="a_node4"><a xlink:href="structDGtal_1_1SignedKhalimskyPreCell.html" target="_top" xlink:title="DGtal::SignedKhalimskyPre\lCell\&lt; dim, Integer \&gt;">
<polygon fill="white" stroke="black" points="1,-212.5 1,-242.5 147,-242.5 147,-212.5 1,-212.5"/>
<text text-anchor="start" x="9" y="-230.5" font-family="FreeSans" font-size="10.00">DGtal::SignedKhalimskyPre</text>
<text text-anchor="middle" x="74" y="-219.5" font-family="FreeSans" font-size="10.00">Cell&lt; dim, Integer &gt;</text>
</a>
</g>
</g>
<!-- Node4&#45;&gt;Node3 -->
<g id="edge3" class="edge"><title>Node4&#45;&gt;Node3</title>
<path fill="none" stroke="#9a32cd" stroke-dasharray="5,2" d="M74,-202.09C74,-189.757 74,-175.224 74,-164.731"/>
<polygon fill="#9a32cd" stroke="#9a32cd" points="70.5001,-202.205 74,-212.205 77.5001,-202.205 70.5001,-202.205"/>
<text text-anchor="middle" x="103" y="-186" font-family="FreeSans" font-size="10.00"> mySPreCell</text>
</g>
<!-- Node5 -->
<g id="node5" class="node"><title>Node5</title>
<g id="a_node5"><a xlink:href="classDGtal_1_1PointVector.html" target="_top" xlink:title="DGtal::PointVector\l\&lt; dim, Integer \&gt;">
<polygon fill="white" stroke="black" points="52,-368.5 52,-398.5 156,-398.5 156,-368.5 52,-368.5"/>
<text text-anchor="start" x="60" y="-386.5" font-family="FreeSans" font-size="10.00">DGtal::PointVector</text>
<text text-anchor="middle" x="104" y="-375.5" font-family="FreeSans" font-size="10.00">&lt; dim, Integer &gt;</text>
</a>
</g>
</g>
<!-- Node5&#45;&gt;Node4 -->
<g id="edge4" class="edge"><title>Node5&#45;&gt;Node4</title>
<path fill="none" stroke="#9a32cd" stroke-dasharray="5,2" d="M86.5277,-360.158C78.9334,-349.048 70.8927,-335.021 67,-321 59.5037,-293.999 65.4315,-260.97 69.9981,-242.581"/>
<polygon fill="#9a32cd" stroke="#9a32cd" points="83.7597,-362.304 92.4347,-368.386 89.4462,-358.221 83.7597,-362.304"/>
<text text-anchor="middle" x="97" y="-303" font-family="FreeSans" font-size="10.00"> coordinates</text>
</g>
<!-- Node8 -->
<g id="node8" class="node"><title>Node8</title>
<g id="a_node8"><a xlink:href="structDGtal_1_1SignedKhalimskyPreCell.html" target="_top" xlink:title="Represents a signed cell in an unbounded cellular grid space by its Khalimsky coordinates and a boole...">
<polygon fill="white" stroke="black" points="136,-290.5 136,-320.5 282,-320.5 282,-290.5 136,-290.5"/>
<text text-anchor="start" x="144" y="-308.5" font-family="FreeSans" font-size="10.00">DGtal::SignedKhalimskyPre</text>
<text text-anchor="middle" x="209" y="-297.5" font-family="FreeSans" font-size="10.00">Cell&lt; dim, TInteger &gt;</text>
</a>
</g>
</g>
<!-- Node5&#45;&gt;Node8 -->
<g id="edge11" class="edge"><title>Node5&#45;&gt;Node8</title>
<path fill="none" stroke="#9a32cd" stroke-dasharray="5,2" d="M132.169,-362.111C150.233,-349.036 173.232,-332.39 189.339,-320.731"/>
<polygon fill="#9a32cd" stroke="#9a32cd" points="129.798,-359.506 123.75,-368.205 133.903,-365.177 129.798,-359.506"/>
<text text-anchor="middle" x="193" y="-342" font-family="FreeSans" font-size="10.00"> coordinates</text>
</g>
<!-- Node6 -->
<g id="node6" class="node"><title>Node6</title>
<polygon fill="white" stroke="#bfbfbf" points="32,-535.5 32,-554.5 100,-554.5 100,-535.5 32,-535.5"/>
<text text-anchor="middle" x="66" y="-542.5" font-family="FreeSans" font-size="10.00">TContainer</text>
</g>
<!-- Node6&#45;&gt;Node5 -->
<g id="edge5" class="edge"><title>Node6&#45;&gt;Node5</title>
<path fill="none" stroke="#9a32cd" stroke-dasharray="5,2" d="M53.5814,-527.027C40.6495,-507.125 23.8472,-473.377 36,-446 44.9769,-425.777 64.2529,-409.384 79.9973,-398.624"/>
<polygon fill="#9a32cd" stroke="#9a32cd" points="50.7579,-529.098 59.3039,-535.361 56.5284,-525.136 50.7579,-529.098"/>
<text text-anchor="middle" x="58" y="-464.5" font-family="FreeSans" font-size="10.00"> myArray</text>
</g>
<!-- Node7 -->
<g id="node7" class="node"><title>Node7</title>
<g id="a_node7"><a xlink:href="classDGtal_1_1PointVector.html" target="_top" xlink:title="Aim: Implements basic operations that will be used in Point and Vector classes. ">
<polygon fill="white" stroke="black" points="89,-446.5 89,-487.5 215,-487.5 215,-446.5 89,-446.5"/>
<text text-anchor="start" x="97" y="-475.5" font-family="FreeSans" font-size="10.00">DGtal::PointVector</text>
<text text-anchor="start" x="97" y="-464.5" font-family="FreeSans" font-size="10.00">&lt; dim, TEuclideanRing,</text>
<text text-anchor="middle" x="152" y="-453.5" font-family="FreeSans" font-size="10.00"> TContainer &gt;</text>
</a>
</g>
</g>
<!-- Node6&#45;&gt;Node7 -->
<g id="edge7" class="edge"><title>Node6&#45;&gt;Node7</title>
<path fill="none" stroke="#9a32cd" stroke-dasharray="5,2" d="M83.4331,-528.594C96.7939,-516.787 115.325,-500.41 129.755,-487.658"/>
<polygon fill="#9a32cd" stroke="#9a32cd" points="81.0409,-526.037 75.8653,-535.282 85.6763,-531.282 81.0409,-526.037"/>
<text text-anchor="middle" x="131" y="-509" font-family="FreeSans" font-size="10.00"> myArray</text>
</g>
<!-- Node7&#45;&gt;Node5 -->
<g id="edge6" class="edge"><title>Node7&#45;&gt;Node5</title>
<path fill="none" stroke="#9a32cd" stroke-dasharray="5,2" d="M112.378,-438.933C109.47,-435.569 106.927,-431.92 105,-428 100.534,-418.916 100.469,-407.423 101.422,-398.533"/>
<polygon fill="#9a32cd" stroke="#9a32cd" points="110.158,-441.663 119.706,-446.256 115.106,-436.712 110.158,-441.663"/>
<text text-anchor="middle" x="117.5" y="-420" font-family="FreeSans" font-size="10.00"> zero</text>
</g>
<!-- Node7&#45;&gt;Node5 -->
<g id="edge9" class="edge"><title>Node7&#45;&gt;Node5</title>
<path fill="none" stroke="orange" stroke-dasharray="5,2" d="M140.375,-436.861C137.31,-430.169 133.789,-423.202 130,-417 126.158,-410.71 121.25,-404.273 116.735,-398.805"/>
<polygon fill="orange" stroke="orange" points="137.307,-438.583 144.517,-446.347 143.722,-435.782 137.307,-438.583"/>
<text text-anchor="middle" x="178" y="-420" font-family="FreeSans" font-size="10.00"> &lt; dim, Integer &gt;</text>
</g>
<!-- Node7&#45;&gt;Node7 -->
<g id="edge8" class="edge"><title>Node7&#45;&gt;Node7</title>
<path fill="none" stroke="#9a32cd" stroke-dasharray="5,2" d="M225.09,-472.937C230.012,-471.566 233,-469.588 233,-467 233,-462.961 225.719,-460.405 215.168,-459.332"/>
<polygon fill="#9a32cd" stroke="#9a32cd" points="224.418,-469.501 215.168,-474.668 225.621,-476.397 224.418,-469.501"/>
<text text-anchor="middle" x="245.5" y="-464.5" font-family="FreeSans" font-size="10.00"> zero</text>
</g>
<!-- Node8&#45;&gt;Node4 -->
<g id="edge10" class="edge"><title>Node8&#45;&gt;Node4</title>
<path fill="none" stroke="orange" stroke-dasharray="5,2" d="M174.933,-285.321C151.283,-272.008 120.308,-254.57 98.9418,-242.541"/>
<polygon fill="orange" stroke="orange" points="173.493,-288.527 183.924,-290.383 176.927,-282.427 173.493,-288.527"/>
<text text-anchor="middle" x="192" y="-264" font-family="FreeSans" font-size="10.00"> &lt; dim, Integer &gt;</text>
</g>
<!-- Node9 -->
<g id="node9" class="node"><title>Node9</title>
<g id="a_node9"><a xlink:title="STL class. ">
<polygon fill="white" stroke="#bfbfbf" points="166.5,-140 166.5,-159 261.5,-159 261.5,-140 166.5,-140"/>
<text text-anchor="middle" x="214" y="-147" font-family="FreeSans" font-size="10.00">std::vector&lt; T &gt;</text>
</a>
</g>
</g>
<!-- Node9&#45;&gt;Node2 -->
<g id="edge12" class="edge"><title>Node9&#45;&gt;Node2</title>
<path fill="none" stroke="orange" stroke-dasharray="5,2" d="M199.75,-132.296C187.28,-118.117 169.644,-98.0626 159.665,-86.7154"/>
<polygon fill="orange" stroke="orange" points="197.165,-134.657 206.398,-139.855 202.422,-130.035 197.165,-134.657"/>
<text text-anchor="middle" x="210" y="-108" font-family="FreeSans" font-size="10.00"> &lt; SCell &gt;</text>
</g>
<!-- Node10 -->
<g id="node10" class="node"><title>Node10</title>
<polygon fill="white" stroke="#bfbfbf" points="199.5,-218 199.5,-237 228.5,-237 228.5,-218 199.5,-218"/>
<text text-anchor="middle" x="214" y="-225" font-family="FreeSans" font-size="10.00">T</text>
</g>
<!-- Node10&#45;&gt;Node9 -->
<g id="edge13" class="edge"><title>Node10&#45;&gt;Node9</title>
<path fill="none" stroke="#9a32cd" stroke-dasharray="5,2" d="M214,-207.724C214,-192.197 214,-170.858 214,-159.116"/>
<polygon fill="#9a32cd" stroke="#9a32cd" points="210.5,-207.782 214,-217.782 217.5,-207.782 210.5,-207.782"/>
<text text-anchor="middle" x="238.5" y="-186" font-family="FreeSans" font-size="10.00"> elements</text>
</g>
</g>
</svg>
        <g id="navigator" transform="translate(0 0)" fill="#404254">
                <rect fill="#f2f5e9" fill-opacity="0.5" stroke="#606060" stroke-width=".5" x="0" y="0" width="60" height="60"/>
                <use id="zoomplus" xlink:href="#zoomPlus" x="17" y="9" onmousedown="handleZoom(evt,'in')"/>
                <use id="zoomminus" xlink:href="#zoomMin" x="42" y="9" onmousedown="handleZoom(evt,'out')"/>
                <use id="reset" xlink:href="#resetDef" x="30" y="36" onmousedown="handleReset()"/>
                <g id="arrowUp" xlink:href="#dirArrow" transform="translate(30 24)" onmousedown="handlePan(0,-1)">
                  <use xlink:href="#rim" fill="#404040">
                        <set attributeName="fill" to="#808080" begin="arrowUp.mouseover" end="arrowUp.mouseout"/>
                  </use>
                  <path fill="none" stroke="white" stroke-width="1.5" d="M0,-3.0v7 M-2.5,-0.5L0,-3.0L2.5,-0.5"/>
                </g>
                <g id="arrowRight" xlink:href="#dirArrow" transform="rotate(90) translate(36 -43)" onmousedown="handlePan(1,0)">
                  <use xlink:href="#rim" fill="#404040">
                        <set attributeName="fill" to="#808080" begin="arrowRight.mouseover" end="arrowRight.mouseout"/>
                  </use>
                  <path fill="none" stroke="white" stroke-width="1.5" d="M0,-3.0v7 M-2.5,-0.5L0,-3.0L2.5,-0.5"/>
                </g>
                <g id="arrowDown" xlink:href="#dirArrow" transform="rotate(180) translate(-30 -48)" onmousedown="handlePan(0,1)">
                  <use xlink:href="#rim" fill="#404040">
                        <set attributeName="fill" to="#808080" begin="arrowDown.mouseover" end="arrowDown.mouseout"/>
                  </use>
                  <path fill="none" stroke="white" stroke-width="1.5" d="M0,-3.0v7 M-2.5,-0.5L0,-3.0L2.5,-0.5"/>
                </g>
                <g id="arrowLeft" xlink:href="#dirArrow" transform="rotate(270) translate(-36 17)" onmousedown="handlePan(-1,0)">
                  <use xlink:href="#rim" fill="#404040">
                        <set attributeName="fill" to="#808080" begin="arrowLeft.mouseover" end="arrowLeft.mouseout"/>
                  </use>
                  <path fill="none" stroke="white" stroke-width="1.5" d="M0,-3.0v7 M-2.5,-0.5L0,-3.0L2.5,-0.5"/>
                </g>
        </g>
        <svg viewBox="0 0 15 15" width="100%" height="30px" preserveAspectRatio="xMaxYMin meet">
         <g id="arrow_out" transform="scale(0.3 0.3)">
          <a xlink:href="classDGtal_1_1GridCurve__coll__graph_org.svg" target="_base">
           <rect id="button" ry="5" rx="5" y="6" x="6" height="38" width="38"
                fill="#f2f5e9" fill-opacity="0.5" stroke="#606060" stroke-width="1.0"/>
           <path id="arrow"
             d="M 11.500037,31.436501 C 11.940474,20.09759 22.043105,11.32322 32.158766,21.979434 L 37.068811,17.246167 C 37.068811,17.246167 37.088388,32 37.088388,32 L 22.160133,31.978069 C 22.160133,31.978069 26.997745,27.140456 26.997745,27.140456 C 18.528582,18.264221 13.291696,25.230495 11.500037,31.436501 z"
             style="fill:#404040;"/>
          </a>
         </g>
        </svg>
</svg>
