<?xml version="1.0" encoding="UTF-8" standalone="no"?>
<!DOCTYPE svg PUBLIC "-//W3C//DTD SVG 1.1//EN"
 "http://www.w3.org/Graphics/SVG/1.1/DTD/svg11.dtd">
<!-- Generated by graphviz version 2.36.0 (20140111.2315)
 -->
<!-- Title: DGtal::ModuloComputer&lt; TInteger &gt; Pages: 1 -->
<svg width="1238pt" height="87pt"
 viewBox="0.00 0.00 1238.00 87.00" xmlns="http://www.w3.org/2000/svg" xmlns:xlink="http://www.w3.org/1999/xlink">
<g id="graph0" class="graph" transform="scale(1 1) rotate(0) translate(4 83)">
<title>DGtal::ModuloComputer&lt; TInteger &gt;</title>
<polygon fill="white" stroke="none" points="-4,4 -4,-83 1234,-83 1234,4 -4,4"/>
<!-- Node1 -->
<g id="node1" class="node"><title>Node1</title>
<polygon fill="#bfbfbf" stroke="black" points="1098,-26 1098,-56 1230,-56 1230,-26 1098,-26"/>
<text text-anchor="start" x="1106" y="-44" font-family="FreeSans" font-size="10.00">DGtal::ModuloComputer</text>
<text text-anchor="middle" x="1164" y="-33" font-family="FreeSans" font-size="10.00">&lt; TInteger &gt;</text>
</g>
<!-- Node2 -->
<g id="node2" class="node"><title>Node2</title>
<g id="a_node2"><a xlink:href="structDGtal_1_1NumberTraits.html" target="_top" xlink:title="DGtal::NumberTraits\l\&lt; TInteger \&gt;">
<polygon fill="white" stroke="black" points="938.5,-26 938.5,-56 1051.5,-56 1051.5,-26 938.5,-26"/>
<text text-anchor="start" x="946.5" y="-44" font-family="FreeSans" font-size="10.00">DGtal::NumberTraits</text>
<text text-anchor="middle" x="995" y="-33" font-family="FreeSans" font-size="10.00">&lt; TInteger &gt;</text>
</a>
</g>
</g>
<!-- Node2&#45;&gt;Node1 -->
<g id="edge1" class="edge"><title>Node2&#45;&gt;Node1</title>
<path fill="none" stroke="#9a32cd" stroke-dasharray="5,2" d="M1061.85,-41C1073.67,-41 1085.99,-41 1097.8,-41"/>
<polygon fill="#9a32cd" stroke="#9a32cd" points="1061.61,-37.5001 1051.61,-41 1061.61,-44.5001 1061.61,-37.5001"/>
<text text-anchor="middle" x="1075" y="-44" font-family="FreeSans" font-size="10.00"> k</text>
</g>
<!-- Node3 -->
<g id="node3" class="node"><title>Node3</title>
<g id="a_node3"><a xlink:href="structDGtal_1_1NumberTraitsImpl.html" target="_top" xlink:title="DGtal::NumberTraitsImpl\l\&lt; std::decay\&lt; TInteger\l \&gt;::type \&gt;">
<polygon fill="white" stroke="black" points="542,-37.5 542,-78.5 676,-78.5 676,-37.5 542,-37.5"/>
<text text-anchor="start" x="550" y="-66.5" font-family="FreeSans" font-size="10.00">DGtal::NumberTraitsImpl</text>
<text text-anchor="start" x="550" y="-55.5" font-family="FreeSans" font-size="10.00">&lt; std::decay&lt; TInteger</text>
<text text-anchor="middle" x="609" y="-44.5" font-family="FreeSans" font-size="10.00"> &gt;::type &gt;</text>
</a>
</g>
</g>
<!-- Node3&#45;&gt;Node2 -->
<g id="edge2" class="edge"><title>Node3&#45;&gt;Node2</title>
<path fill="none" stroke="midnightblue" d="M686.259,-54.6239C760.682,-51.3292 872.119,-46.3958 938.492,-43.4574"/>
<polygon fill="midnightblue" stroke="midnightblue" points="685.847,-51.1387 676.012,-55.0776 686.157,-58.1318 685.847,-51.1387"/>
</g>
<!-- Node4 -->
<g id="node4" class="node"><title>Node4</title>
<g id="a_node4"><a xlink:href="structDGtal_1_1NumberTraitsImpl.html" target="_top" xlink:title="Aim: The traits class for all models of Cinteger (implementation) ">
<polygon fill="white" stroke="black" points="94,-21 94,-51 228,-51 228,-21 94,-21"/>
<text text-anchor="start" x="102" y="-39" font-family="FreeSans" font-size="10.00">DGtal::NumberTraitsImpl</text>
<text text-anchor="middle" x="161" y="-28" font-family="FreeSans" font-size="10.00">&lt; T, Enable &gt;</text>
</a>
</g>
</g>
<!-- Node4&#45;&gt;Node3 -->
<g id="edge3" class="edge"><title>Node4&#45;&gt;Node3</title>
<path fill="none" stroke="orange" stroke-dasharray="5,2" d="M238.44,-39.7706C323.832,-43.9827 460.681,-50.7332 541.711,-54.7302"/>
<polygon fill="orange" stroke="orange" points="238.449,-36.2669 228.289,-39.2699 238.105,-43.2584 238.449,-36.2669"/>
<text text-anchor="start" x="246.5" y="-60" font-family="FreeSans" font-size="10.00"> &lt; std::decay&lt; TInteger</text>
<text text-anchor="middle" x="304" y="-49" font-family="FreeSans" font-size="10.00"> &gt;::type &gt;</text>
</g>
<!-- Node7 -->
<g id="node7" class="node"><title>Node7</title>
<g id="a_node7"><a xlink:href="structDGtal_1_1NumberTraitsImpl.html" target="_top" xlink:title="DGtal::NumberTraitsImpl\l\&lt; std::decay\&lt; T \&gt;::type \&gt;">
<polygon fill="white" stroke="black" points="380.5,-0 380.5,-30 523.5,-30 523.5,-0 380.5,-0"/>
<text text-anchor="start" x="388.5" y="-18" font-family="FreeSans" font-size="10.00">DGtal::NumberTraitsImpl</text>
<text text-anchor="middle" x="452" y="-7" font-family="FreeSans" font-size="10.00">&lt; std::decay&lt; T &gt;::type &gt;</text>
</a>
</g>
</g>
<!-- Node4&#45;&gt;Node7 -->
<g id="edge7" class="edge"><title>Node4&#45;&gt;Node7</title>
<path fill="none" stroke="orange" stroke-dasharray="5,2" d="M223.438,-18.8138C230.986,-17.2447 238.635,-15.9067 246,-15 290.331,-9.54259 340.465,-9.436 380.057,-10.7455"/>
<polygon fill="orange" stroke="orange" points="222.61,-15.4122 213.604,-20.993 224.125,-22.2464 222.61,-15.4122"/>
<text text-anchor="start" x="255" y="-29" font-family="FreeSans" font-size="10.00"> &lt; std::decay&lt; T &gt;::</text>
<text text-anchor="middle" x="304" y="-18" font-family="FreeSans" font-size="10.00">type &gt;</text>
</g>
<!-- Node5 -->
<g id="node5" class="node"><title>Node5</title>
<polygon fill="white" stroke="#bfbfbf" points="0.5,-26.5 0.5,-45.5 29.5,-45.5 29.5,-26.5 0.5,-26.5"/>
<text text-anchor="middle" x="15" y="-33.5" font-family="FreeSans" font-size="10.00">T</text>
</g>
<!-- Node5&#45;&gt;Node4 -->
<g id="edge4" class="edge"><title>Node5&#45;&gt;Node4</title>
<path fill="none" stroke="#9a32cd" stroke-dasharray="5,2" d="M39.8009,-36C54.6136,-36 74.4598,-36 93.7517,-36"/>
<polygon fill="#9a32cd" stroke="#9a32cd" points="39.5472,-32.5001 29.5472,-36 39.5471,-39.5001 39.5472,-32.5001"/>
<text text-anchor="middle" x="62" y="-50" font-family="FreeSans" font-size="10.00"> ONE</text>
<text text-anchor="middle" x="62" y="-39" font-family="FreeSans" font-size="10.00">ZERO</text>
</g>
<!-- Node6 -->
<g id="node6" class="node"><title>Node6</title>
<g id="a_node6"><a xlink:href="structDGtal_1_1NumberTraits.html" target="_top" xlink:title="Aim: The traits class for all models of Cinteger. ">
<polygon fill="white" stroke="black" points="694.5,-9.5 694.5,-28.5 835.5,-28.5 835.5,-9.5 694.5,-9.5"/>
<text text-anchor="middle" x="765" y="-16.5" font-family="FreeSans" font-size="10.00">DGtal::NumberTraits&lt; T &gt;</text>
</a>
</g>
</g>
<!-- Node6&#45;&gt;Node2 -->
<g id="edge5" class="edge"><title>Node6&#45;&gt;Node2</title>
<path fill="none" stroke="orange" stroke-dasharray="5,2" d="M845.882,-25.1807C869.741,-27.1786 895.946,-29.5228 920,-32 925.922,-32.6099 932.105,-33.2911 938.264,-33.9985"/>
<polygon fill="orange" stroke="orange" points="846.068,-21.6843 835.813,-24.3463 845.49,-28.6603 846.068,-21.6843"/>
<text text-anchor="middle" x="887" y="-35" font-family="FreeSans" font-size="10.00"> &lt; TInteger &gt;</text>
</g>
<!-- Node7&#45;&gt;Node6 -->
<g id="edge6" class="edge"><title>Node7&#45;&gt;Node6</title>
<path fill="none" stroke="midnightblue" d="M533.657,-16.0374C583.43,-16.6776 646.638,-17.4905 694.245,-18.1028"/>
<polygon fill="midnightblue" stroke="midnightblue" points="533.615,-12.5367 523.571,-15.9077 533.525,-19.5361 533.615,-12.5367"/>
</g>
</g>
</svg>
