<?xml version="1.0" encoding="UTF-8" standalone="no"?>
<!DOCTYPE svg PUBLIC "-//W3C//DTD SVG 1.1//EN"
 "http://www.w3.org/Graphics/SVG/1.1/DTD/svg11.dtd">
<!-- Generated by graphviz version 2.38.0 (20140413.2041)
 -->
<!-- Title: DGtal::PowerMap&lt; TWeightImage, TPowerSeparableMetric, TImageContainer &gt; Pages: 1 -->
<!--zoomable 230 -->
<svg id="main" version="1.1" xmlns="http://www.w3.org/2000/svg" xmlns:xlink="http://www.w3.org/1999/xlink" xml:space="preserve" onload="init(evt)">
<style type="text/css"><![CDATA[
.edge:hover path { stroke: red; }
.edge:hover polygon { stroke: red; fill: red; }
]]></style>
<script type="text/javascript"><![CDATA[
var edges = document.getElementsByTagName('g');
if (edges && edges.length) {
  for (var i=0;i<edges.length;i++) {
    if (edges[i].id.substr(0,4)=='edge') {
      edges[i].setAttribute('class','edge');
    }
  }
}
]]></script>
        <defs>
                <circle id="rim" cx="0" cy="0" r="7"/>
                <circle id="rim2" cx="0" cy="0" r="3.5"/>
                <g id="zoomPlus">
                        <use xlink:href="#rim" fill="#404040">
                                <set attributeName="fill" to="#808080" begin="zoomplus.mouseover" end="zoomplus.mouseout"/>
                        </use>
                        <path d="M-4,0h8M0,-4v8" fill="none" stroke="white" stroke-width="1.5" pointer-events="none"/>
                </g>
                <g id="zoomMin">
                        <use xlink:href="#rim" fill="#404040">
                                <set attributeName="fill" to="#808080" begin="zoomminus.mouseover" end="zoomminus.mouseout"/>
                        </use>
                        <path d="M-4,0h8" fill="none" stroke="white" stroke-width="1.5" pointer-events="none"/>
                </g>
                <g id="dirArrow">
                        <path fill="none" stroke="white" stroke-width="1.5" d="M0,-3.0v7 M-2.5,-0.5L0,-3.0L2.5,-0.5"/>
                </g>
               <g id="resetDef">
                       <use xlink:href="#rim2" fill="#404040">
                               <set attributeName="fill" to="#808080" begin="reset.mouseover" end="reset.mouseout"/>
                       </use>
               </g>
        </defs>

<script type="text/javascript">
var viewWidth = 963;
var viewHeight = 230;
var sectionId = 'dynsection-1';
</script>
<script xlink:href="svgpan.js"/>
<svg id="graph" class="graph">
<g id="viewport">
<title>DGtal::PowerMap&lt; TWeightImage, TPowerSeparableMetric, TImageContainer &gt;</title>
<polygon fill="white" stroke="none" points="-4,4 -4,-226 959,-226 959,4 -4,4"/>
<!-- Node3 -->
<g id="node1" class="node"><title>Node3</title>
<polygon fill="#bfbfbf" stroke="black" points="788,-105.5 788,-146.5 955,-146.5 955,-105.5 788,-105.5"/>
<text text-anchor="start" x="796" y="-134.5" font-family="FreeSans" font-size="10.00">DGtal::PowerMap&lt; TWeight</text>
<text text-anchor="start" x="796" y="-123.5" font-family="FreeSans" font-size="10.00">Image, TPowerSeparableMetric,</text>
<text text-anchor="middle" x="871.5" y="-112.5" font-family="FreeSans" font-size="10.00"> TImageContainer &gt;</text>
</g>
<!-- Node4 -->
<g id="node2" class="node"><title>Node4</title>
<g id="a_node2"><a xlink:href="classDGtal_1_1CountedPtr.html" target="_top" xlink:title="DGtal::CountedPtr\&lt;\l OutputImage \&gt;">
<polygon fill="white" stroke="black" points="524.5,-178 524.5,-208 636.5,-208 636.5,-178 524.5,-178"/>
<text text-anchor="start" x="532.5" y="-196" font-family="FreeSans" font-size="10.00">DGtal::CountedPtr&lt;</text>
<text text-anchor="middle" x="580.5" y="-185" font-family="FreeSans" font-size="10.00"> OutputImage &gt;</text>
</a>
</g>
</g>
<!-- Node4&#45;&gt;Node3 -->
<g id="edge1" class="edge"><title>Node4&#45;&gt;Node3</title>
<path fill="none" stroke="#9a32cd" stroke-dasharray="5,2" d="M646.719,-182.374C683.196,-175.975 729.366,-167.114 770,-157 782.314,-153.935 795.35,-150.249 807.807,-146.506"/>
<polygon fill="#9a32cd" stroke="#9a32cd" points="645.955,-178.954 636.701,-184.113 647.152,-185.851 645.955,-178.954"/>
<text text-anchor="middle" x="719.5" y="-180" font-family="FreeSans" font-size="10.00"> myImagePtr</text>
</g>
<!-- Node5 -->
<g id="node3" class="node"><title>Node5</title>
<g id="a_node3"><a xlink:href="structDGtal_1_1CountedPtr_1_1Counter.html" target="_top" xlink:title="DGtal::CountedPtr\&lt;\l T \&gt;::Counter">
<polygon fill="white" stroke="black" points="0,-183 0,-213 112,-213 112,-183 0,-183"/>
<text text-anchor="start" x="8" y="-201" font-family="FreeSans" font-size="10.00">DGtal::CountedPtr&lt;</text>
<text text-anchor="middle" x="56" y="-190" font-family="FreeSans" font-size="10.00"> T &gt;::Counter</text>
</a>
</g>
</g>
<!-- Node5&#45;&gt;Node4 -->
<g id="edge2" class="edge"><title>Node5&#45;&gt;Node4</title>
<path fill="none" stroke="#9a32cd" stroke-dasharray="5,2" d="M122.339,-208.333C124.923,-208.587 127.484,-208.811 130,-209 155.263,-210.893 161.667,-209.125 187,-209 322.56,-208.333 356.857,-216.653 492,-206 502.411,-205.179 513.465,-203.877 524.085,-202.408"/>
<polygon fill="#9a32cd" stroke="#9a32cd" points="122.629,-204.844 112.305,-207.222 121.859,-211.801 122.629,-204.844"/>
<text text-anchor="middle" x="270.5" y="-214" font-family="FreeSans" font-size="10.00"> myCounter</text>
</g>
<!-- Node6 -->
<g id="node4" class="node"><title>Node6</title>
<g id="a_node4"><a xlink:href="classDGtal_1_1CountedPtr.html" target="_top" xlink:title="Aim: Smart pointer based on reference counts. ">
<polygon fill="white" stroke="black" points="205,-178.5 205,-197.5 336,-197.5 336,-178.5 205,-178.5"/>
<text text-anchor="middle" x="270.5" y="-185.5" font-family="FreeSans" font-size="10.00">DGtal::CountedPtr&lt; T &gt;</text>
</a>
</g>
</g>
<!-- Node5&#45;&gt;Node6 -->
<g id="edge4" class="edge"><title>Node5&#45;&gt;Node6</title>
<path fill="none" stroke="#9a32cd" stroke-dasharray="5,2" d="M122.233,-194.93C148.501,-193.694 178.72,-192.272 204.921,-191.039"/>
<polygon fill="#9a32cd" stroke="#9a32cd" points="121.825,-191.445 112,-195.412 122.154,-198.438 121.825,-191.445"/>
<text text-anchor="middle" x="158.5" y="-197" font-family="FreeSans" font-size="10.00"> myCounter</text>
</g>
<!-- Node6&#45;&gt;Node4 -->
<g id="edge3" class="edge"><title>Node6&#45;&gt;Node4</title>
<path fill="none" stroke="orange" stroke-dasharray="5,2" d="M346.101,-189.211C401.052,-190.103 474.568,-191.297 524.297,-192.104"/>
<polygon fill="orange" stroke="orange" points="346.122,-185.711 336.067,-189.048 346.009,-192.71 346.122,-185.711"/>
<text text-anchor="middle" x="423" y="-194" font-family="FreeSans" font-size="10.00"> &lt; OutputImage &gt;</text>
</g>
<!-- Node7 -->
<g id="node5" class="node"><title>Node7</title>
<polygon fill="white" stroke="#bfbfbf" points="510,-139.5 510,-158.5 651,-158.5 651,-139.5 510,-139.5"/>
<text text-anchor="middle" x="580.5" y="-146.5" font-family="FreeSans" font-size="10.00">std::vector&lt; Dimension &gt;</text>
</g>
<!-- Node7&#45;&gt;Node3 -->
<g id="edge5" class="edge"><title>Node7&#45;&gt;Node3</title>
<path fill="none" stroke="#9a32cd" stroke-dasharray="5,2" d="M661.186,-142.658C700.592,-139.522 748.11,-135.74 787.904,-132.573"/>
<polygon fill="#9a32cd" stroke="#9a32cd" points="660.781,-139.179 651.09,-143.462 661.337,-146.157 660.781,-139.179"/>
<text text-anchor="middle" x="719.5" y="-145" font-family="FreeSans" font-size="10.00"> myPeriodicityIndex</text>
</g>
<!-- Node8 -->
<g id="node6" class="node"><title>Node8</title>
<g id="a_node6"><a xlink:title="STL class. ">
<polygon fill="white" stroke="#bfbfbf" points="223,-137.5 223,-156.5 318,-156.5 318,-137.5 223,-137.5"/>
<text text-anchor="middle" x="270.5" y="-144.5" font-family="FreeSans" font-size="10.00">std::vector&lt; T &gt;</text>
</a>
</g>
</g>
<!-- Node8&#45;&gt;Node7 -->
<g id="edge6" class="edge"><title>Node8&#45;&gt;Node7</title>
<path fill="none" stroke="orange" stroke-dasharray="5,2" d="M328.511,-147.37C379.757,-147.703 455.167,-148.193 509.944,-148.548"/>
<polygon fill="orange" stroke="orange" points="328.301,-143.869 318.279,-147.304 328.256,-150.869 328.301,-143.869"/>
<text text-anchor="middle" x="423" y="-152" font-family="FreeSans" font-size="10.00"> &lt; Dimension &gt;</text>
</g>
<!-- Node9 -->
<g id="node7" class="node"><title>Node9</title>
<polygon fill="white" stroke="#bfbfbf" points="41.5,-126.5 41.5,-145.5 70.5,-145.5 70.5,-126.5 41.5,-126.5"/>
<text text-anchor="middle" x="56" y="-133.5" font-family="FreeSans" font-size="10.00">T</text>
</g>
<!-- Node9&#45;&gt;Node8 -->
<g id="edge7" class="edge"><title>Node9&#45;&gt;Node8</title>
<path fill="none" stroke="#9a32cd" stroke-dasharray="5,2" d="M80.6233,-137.223C114.878,-138.996 179.037,-142.317 222.99,-144.592"/>
<polygon fill="#9a32cd" stroke="#9a32cd" points="80.7837,-133.727 70.6161,-136.705 80.4218,-140.717 80.7837,-133.727"/>
<text text-anchor="middle" x="158.5" y="-146" font-family="FreeSans" font-size="10.00"> elements</text>
</g>
<!-- Node11 -->
<g id="node9" class="node"><title>Node11</title>
<g id="a_node9"><a xlink:title="STL class. ">
<polygon fill="white" stroke="#bfbfbf" points="225.5,-96.5 225.5,-115.5 315.5,-115.5 315.5,-96.5 225.5,-96.5"/>
<text text-anchor="middle" x="270.5" y="-103.5" font-family="FreeSans" font-size="10.00">std::array&lt; T &gt;</text>
</a>
</g>
</g>
<!-- Node9&#45;&gt;Node11 -->
<g id="edge10" class="edge"><title>Node9&#45;&gt;Node11</title>
<path fill="none" stroke="#9a32cd" stroke-dasharray="5,2" d="M80.6945,-132.343C94.9713,-130.161 113.521,-127.364 130,-125 161.937,-120.419 198.028,-115.511 225.498,-111.831"/>
<polygon fill="#9a32cd" stroke="#9a32cd" points="80.0684,-128.898 70.715,-133.874 81.1302,-135.817 80.0684,-128.898"/>
<text text-anchor="middle" x="158.5" y="-128" font-family="FreeSans" font-size="10.00"> elements</text>
</g>
<!-- Node10 -->
<g id="node8" class="node"><title>Node10</title>
<polygon fill="white" stroke="#bfbfbf" points="515.5,-90 515.5,-120 645.5,-120 645.5,-90 515.5,-90"/>
<text text-anchor="start" x="523.5" y="-108" font-family="FreeSans" font-size="10.00">std::array&lt; bool, Space</text>
<text text-anchor="middle" x="580.5" y="-97" font-family="FreeSans" font-size="10.00">::dimension &gt;</text>
</g>
<!-- Node10&#45;&gt;Node3 -->
<g id="edge8" class="edge"><title>Node10&#45;&gt;Node3</title>
<path fill="none" stroke="#9a32cd" stroke-dasharray="5,2" d="M655.781,-106.675C690.521,-107.837 732.425,-109.778 770,-113 775.785,-113.496 781.748,-114.08 787.747,-114.721"/>
<polygon fill="#9a32cd" stroke="#9a32cd" points="655.821,-103.174 645.714,-106.353 655.597,-110.171 655.821,-103.174"/>
<text text-anchor="middle" x="719.5" y="-116" font-family="FreeSans" font-size="10.00"> myPeriodicitySpec</text>
</g>
<!-- Node11&#45;&gt;Node10 -->
<g id="edge9" class="edge"><title>Node11&#45;&gt;Node10</title>
<path fill="none" stroke="orange" stroke-dasharray="5,2" d="M325.836,-105.824C378.784,-105.652 459.287,-105.39 515.353,-105.208"/>
<polygon fill="orange" stroke="orange" points="325.617,-102.324 315.629,-105.857 325.64,-109.324 325.617,-102.324"/>
<text text-anchor="middle" x="423" y="-109" font-family="FreeSans" font-size="10.00"> &lt; bool, Space::dimension &gt;</text>
</g>
<!-- Node12 -->
<g id="node10" class="node"><title>Node12</title>
<g id="a_node10"><a xlink:href="classDGtal_1_1PointVector.html" target="_top" xlink:title="Aim: Implements basic operations that will be used in Point and Vector classes. ">
<polygon fill="white" stroke="black" points="517.5,-0.5 517.5,-41.5 643.5,-41.5 643.5,-0.5 517.5,-0.5"/>
<text text-anchor="start" x="525.5" y="-29.5" font-family="FreeSans" font-size="10.00">DGtal::PointVector</text>
<text text-anchor="start" x="525.5" y="-18.5" font-family="FreeSans" font-size="10.00">&lt; dim, TEuclideanRing,</text>
<text text-anchor="middle" x="580.5" y="-7.5" font-family="FreeSans" font-size="10.00"> TContainer &gt;</text>
</a>
</g>
</g>
<!-- Node12&#45;&gt;Node3 -->
<g id="edge11" class="edge"><title>Node12&#45;&gt;Node3</title>
<path fill="none" stroke="#9a32cd" stroke-dasharray="5,2" d="M653.435,-29.3742C689.401,-35.1718 733.027,-44.6919 770,-60 797.579,-71.4189 825.706,-90.6745 845.163,-105.449"/>
<polygon fill="#9a32cd" stroke="#9a32cd" points="653.924,-25.9082 643.506,-27.836 652.852,-32.8257 653.924,-25.9082"/>
<text text-anchor="middle" x="719.5" y="-96" font-family="FreeSans" font-size="10.00"> myLowerBoundCopy</text>
<text text-anchor="middle" x="719.5" y="-85" font-family="FreeSans" font-size="10.00">myInfinity</text>
<text text-anchor="middle" x="719.5" y="-74" font-family="FreeSans" font-size="10.00">myDomainExtent</text>
<text text-anchor="middle" x="719.5" y="-63" font-family="FreeSans" font-size="10.00">myUpperBoundCopy</text>
</g>
<!-- Node12&#45;&gt;Node12 -->
<g id="edge13" class="edge"><title>Node12&#45;&gt;Node12</title>
<path fill="none" stroke="#9a32cd" stroke-dasharray="5,2" d="M556.758,-51.8561C560.289,-56.6966 568.203,-60 580.5,-60 600.176,-60 608.63,-51.5433 605.863,-41.8644"/>
<polygon fill="#9a32cd" stroke="#9a32cd" points="560.193,-51.1747 555.137,-41.8644 553.284,-52.2959 560.193,-51.1747"/>
<text text-anchor="middle" x="580.5" y="-63" font-family="FreeSans" font-size="10.00"> zero</text>
</g>
<!-- Node13 -->
<g id="node11" class="node"><title>Node13</title>
<polygon fill="white" stroke="#bfbfbf" points="236.5,-11.5 236.5,-30.5 304.5,-30.5 304.5,-11.5 236.5,-11.5"/>
<text text-anchor="middle" x="270.5" y="-18.5" font-family="FreeSans" font-size="10.00">TContainer</text>
</g>
<!-- Node13&#45;&gt;Node12 -->
<g id="edge12" class="edge"><title>Node13&#45;&gt;Node12</title>
<path fill="none" stroke="#9a32cd" stroke-dasharray="5,2" d="M314.807,-21C367.628,-21 457.292,-21 517.439,-21"/>
<polygon fill="#9a32cd" stroke="#9a32cd" points="314.754,-17.5001 304.754,-21 314.754,-24.5001 314.754,-17.5001"/>
<text text-anchor="middle" x="423" y="-24" font-family="FreeSans" font-size="10.00"> myArray</text>
</g>
</g>
</svg>
        <g id="navigator" transform="translate(0 0)" fill="#404254">
                <rect fill="#f2f5e9" fill-opacity="0.5" stroke="#606060" stroke-width=".5" x="0" y="0" width="60" height="60"/>
                <use id="zoomplus" xlink:href="#zoomPlus" x="17" y="9" onmousedown="handleZoom(evt,'in')"/>
                <use id="zoomminus" xlink:href="#zoomMin" x="42" y="9" onmousedown="handleZoom(evt,'out')"/>
                <use id="reset" xlink:href="#resetDef" x="30" y="36" onmousedown="handleReset()"/>
                <g id="arrowUp" xlink:href="#dirArrow" transform="translate(30 24)" onmousedown="handlePan(0,-1)">
                  <use xlink:href="#rim" fill="#404040">
                        <set attributeName="fill" to="#808080" begin="arrowUp.mouseover" end="arrowUp.mouseout"/>
                  </use>
                  <path fill="none" stroke="white" stroke-width="1.5" d="M0,-3.0v7 M-2.5,-0.5L0,-3.0L2.5,-0.5"/>
                </g>
                <g id="arrowRight" xlink:href="#dirArrow" transform="rotate(90) translate(36 -43)" onmousedown="handlePan(1,0)">
                  <use xlink:href="#rim" fill="#404040">
                        <set attributeName="fill" to="#808080" begin="arrowRight.mouseover" end="arrowRight.mouseout"/>
                  </use>
                  <path fill="none" stroke="white" stroke-width="1.5" d="M0,-3.0v7 M-2.5,-0.5L0,-3.0L2.5,-0.5"/>
                </g>
                <g id="arrowDown" xlink:href="#dirArrow" transform="rotate(180) translate(-30 -48)" onmousedown="handlePan(0,1)">
                  <use xlink:href="#rim" fill="#404040">
                        <set attributeName="fill" to="#808080" begin="arrowDown.mouseover" end="arrowDown.mouseout"/>
                  </use>
                  <path fill="none" stroke="white" stroke-width="1.5" d="M0,-3.0v7 M-2.5,-0.5L0,-3.0L2.5,-0.5"/>
                </g>
                <g id="arrowLeft" xlink:href="#dirArrow" transform="rotate(270) translate(-36 17)" onmousedown="handlePan(-1,0)">
                  <use xlink:href="#rim" fill="#404040">
                        <set attributeName="fill" to="#808080" begin="arrowLeft.mouseover" end="arrowLeft.mouseout"/>
                  </use>
                  <path fill="none" stroke="white" stroke-width="1.5" d="M0,-3.0v7 M-2.5,-0.5L0,-3.0L2.5,-0.5"/>
                </g>
        </g>
        <svg viewBox="0 0 15 15" width="100%" height="30px" preserveAspectRatio="xMaxYMin meet">
         <g id="arrow_out" transform="scale(0.3 0.3)">
          <a xlink:href="classDGtal_1_1PowerMap__coll__graph_org.svg" target="_base">
           <rect id="button" ry="5" rx="5" y="6" x="6" height="38" width="38"
                fill="#f2f5e9" fill-opacity="0.5" stroke="#606060" stroke-width="1.0"/>
           <path id="arrow"
             d="M 11.500037,31.436501 C 11.940474,20.09759 22.043105,11.32322 32.158766,21.979434 L 37.068811,17.246167 C 37.068811,17.246167 37.088388,32 37.088388,32 L 22.160133,31.978069 C 22.160133,31.978069 26.997745,27.140456 26.997745,27.140456 C 18.528582,18.264221 13.291696,25.230495 11.500037,31.436501 z"
             style="fill:#404040;"/>
          </a>
         </g>
        </svg>
</svg>
