<?xml version="1.0" encoding="UTF-8" standalone="no"?>
<!DOCTYPE svg PUBLIC "-//W3C//DTD SVG 1.1//EN"
 "http://www.w3.org/Graphics/SVG/1.1/DTD/svg11.dtd">
<!-- Generated by graphviz version 2.38.0 (20140413.2041)
 -->
<!-- Title: DGtal::GraphVisitorRange&lt; TGraphVisitor &gt; Pages: 1 -->
<svg width="268pt" height="262pt"
 viewBox="0.00 0.00 268.00 262.00" xmlns="http://www.w3.org/2000/svg" xmlns:xlink="http://www.w3.org/1999/xlink">
<g id="graph0" class="graph" transform="scale(1 1) rotate(0) translate(4 258)">
<title>DGtal::GraphVisitorRange&lt; TGraphVisitor &gt;</title>
<polygon fill="white" stroke="none" points="-4,4 -4,-258 264,-258 264,4 -4,4"/>
<!-- Node1 -->
<g id="node1" class="node"><title>Node1</title>
<polygon fill="#bfbfbf" stroke="black" points="0,-0.5 0,-30.5 139,-30.5 139,-0.5 0,-0.5"/>
<text text-anchor="start" x="8" y="-18.5" font-family="FreeSans" font-size="10.00">DGtal::GraphVisitorRange</text>
<text text-anchor="middle" x="69.5" y="-7.5" font-family="FreeSans" font-size="10.00">&lt; TGraphVisitor &gt;</text>
</g>
<!-- Node2 -->
<g id="node2" class="node"><title>Node2</title>
<g id="a_node2"><a xlink:href="classDGtal_1_1CountedPtr.html" target="_top" xlink:title="DGtal::CountedPtr\&lt;\l GraphVisitor \&gt;">
<polygon fill="white" stroke="black" points="13.5,-78.5 13.5,-108.5 125.5,-108.5 125.5,-78.5 13.5,-78.5"/>
<text text-anchor="start" x="21.5" y="-96.5" font-family="FreeSans" font-size="10.00">DGtal::CountedPtr&lt;</text>
<text text-anchor="middle" x="69.5" y="-85.5" font-family="FreeSans" font-size="10.00"> GraphVisitor &gt;</text>
</a>
</g>
</g>
<!-- Node2&#45;&gt;Node1 -->
<g id="edge1" class="edge"><title>Node2&#45;&gt;Node1</title>
<path fill="none" stroke="#9a32cd" stroke-dasharray="5,2" d="M69.5,-68.0898C69.5,-55.7565 69.5,-41.2237 69.5,-30.7309"/>
<polygon fill="#9a32cd" stroke="#9a32cd" points="66.0001,-68.2049 69.5,-78.205 73.0001,-68.205 66.0001,-68.2049"/>
<text text-anchor="middle" x="94" y="-52" font-family="FreeSans" font-size="10.00"> myVisitor</text>
</g>
<!-- Node3 -->
<g id="node3" class="node"><title>Node3</title>
<g id="a_node3"><a xlink:href="structDGtal_1_1CountedPtr_1_1Counter.html" target="_top" xlink:title="DGtal::CountedPtr\&lt;\l T \&gt;::Counter">
<polygon fill="white" stroke="black" points="40.5,-223.5 40.5,-253.5 152.5,-253.5 152.5,-223.5 40.5,-223.5"/>
<text text-anchor="start" x="48.5" y="-241.5" font-family="FreeSans" font-size="10.00">DGtal::CountedPtr&lt;</text>
<text text-anchor="middle" x="96.5" y="-230.5" font-family="FreeSans" font-size="10.00"> T &gt;::Counter</text>
</a>
</g>
</g>
<!-- Node3&#45;&gt;Node2 -->
<g id="edge2" class="edge"><title>Node3&#45;&gt;Node2</title>
<path fill="none" stroke="#9a32cd" stroke-dasharray="5,2" d="M80.6952,-214.561C73.9773,-203.447 66.9152,-189.588 63.5,-176 57.6899,-152.884 62.0895,-125.009 65.8008,-108.576"/>
<polygon fill="#9a32cd" stroke="#9a32cd" points="77.8553,-216.618 86.1698,-223.185 83.7651,-212.866 77.8553,-216.618"/>
<text text-anchor="middle" x="92" y="-163.5" font-family="FreeSans" font-size="10.00"> myCounter</text>
</g>
<!-- Node4 -->
<g id="node4" class="node"><title>Node4</title>
<g id="a_node4"><a xlink:href="classDGtal_1_1CountedPtr.html" target="_top" xlink:title="Aim: Smart pointer based on reference counts. ">
<polygon fill="white" stroke="black" points="129,-156.5 129,-175.5 260,-175.5 260,-156.5 129,-156.5"/>
<text text-anchor="middle" x="194.5" y="-163.5" font-family="FreeSans" font-size="10.00">DGtal::CountedPtr&lt; T &gt;</text>
</a>
</g>
</g>
<!-- Node3&#45;&gt;Node4 -->
<g id="edge4" class="edge"><title>Node3&#45;&gt;Node4</title>
<path fill="none" stroke="#9a32cd" stroke-dasharray="5,2" d="M124.695,-217.217C143.809,-203.467 168.111,-185.984 182.419,-175.691"/>
<polygon fill="#9a32cd" stroke="#9a32cd" points="122.406,-214.552 116.332,-223.233 126.493,-220.235 122.406,-214.552"/>
<text text-anchor="middle" x="182" y="-197" font-family="FreeSans" font-size="10.00"> myCounter</text>
</g>
<!-- Node4&#45;&gt;Node2 -->
<g id="edge3" class="edge"><title>Node4&#45;&gt;Node2</title>
<path fill="none" stroke="orange" stroke-dasharray="5,2" d="M170.212,-151.302C148.39,-138.994 116.483,-120.998 94.4577,-108.576"/>
<polygon fill="orange" stroke="orange" points="168.743,-154.491 179.173,-156.355 172.182,-148.394 168.743,-154.491"/>
<text text-anchor="middle" x="185" y="-130" font-family="FreeSans" font-size="10.00"> &lt; GraphVisitor &gt;</text>
</g>
</g>
</svg>
