<?xml version="1.0" encoding="UTF-8" standalone="no"?>
<!DOCTYPE svg PUBLIC "-//W3C//DTD SVG 1.1//EN"
 "http://www.w3.org/Graphics/SVG/1.1/DTD/svg11.dtd">
<!-- Generated by graphviz version 2.36.0 (20140111.2315)
 -->
<!-- Title: DGtal::VoxelComplex&lt; TKSpace, TCellContainer &gt; Pages: 1 -->
<!--zoomable 136 -->
<svg id="main" version="1.1" xmlns="http://www.w3.org/2000/svg" xmlns:xlink="http://www.w3.org/1999/xlink" xml:space="preserve" onload="init(evt)">
<style type="text/css"><![CDATA[
.edge:hover path { stroke: red; }
.edge:hover polygon { stroke: red; fill: red; }
]]></style>
<script type="text/javascript"><![CDATA[
var edges = document.getElementsByTagName('g');
if (edges && edges.length) {
  for (var i=0;i<edges.length;i++) {
    if (edges[i].id.substr(0,4)=='edge') {
      edges[i].setAttribute('class','edge');
    }
  }
}
]]></script>
        <defs>
                <circle id="rim" cx="0" cy="0" r="7"/>
                <circle id="rim2" cx="0" cy="0" r="3.5"/>
                <g id="zoomPlus">
                        <use xlink:href="#rim" fill="#404040">
                                <set attributeName="fill" to="#808080" begin="zoomplus.mouseover" end="zoomplus.mouseout"/>
                        </use>
                        <path d="M-4,0h8M0,-4v8" fill="none" stroke="white" stroke-width="1.5" pointer-events="none"/>
                </g>
                <g id="zoomMin">
                        <use xlink:href="#rim" fill="#404040">
                                <set attributeName="fill" to="#808080" begin="zoomminus.mouseover" end="zoomminus.mouseout"/>
                        </use>
                        <path d="M-4,0h8" fill="none" stroke="white" stroke-width="1.5" pointer-events="none"/>
                </g>
                <g id="dirArrow">
                        <path fill="none" stroke="white" stroke-width="1.5" d="M0,-3.0v7 M-2.5,-0.5L0,-3.0L2.5,-0.5"/>
                </g>
               <g id="resetDef">
                       <use xlink:href="#rim2" fill="#404040">
                               <set attributeName="fill" to="#808080" begin="reset.mouseover" end="reset.mouseout"/>
                       </use>
               </g>
        </defs>

<script type="text/javascript">
var viewWidth = 1058;
var viewHeight = 136;
var sectionId = 'dynsection-1';
</script>
<script xlink:href="svgpan.js"/>
<svg id="graph" class="graph">
<g id="viewport">
<title>DGtal::VoxelComplex&lt; TKSpace, TCellContainer &gt;</title>
<polygon fill="white" stroke="none" points="-4,4 -4,-132 1054,-132 1054,4 -4,4"/>
<!-- Node4 -->
<g id="node1" class="node"><title>Node4</title>
<polygon fill="#bfbfbf" stroke="black" points="894.5,-49 894.5,-79 1049.5,-79 1049.5,-49 894.5,-49"/>
<text text-anchor="start" x="902.5" y="-67" font-family="FreeSans" font-size="10.00">DGtal::VoxelComplex</text>
<text text-anchor="middle" x="972" y="-56" font-family="FreeSans" font-size="10.00">&lt; TKSpace, TCellContainer &gt;</text>
</g>
<!-- Node5 -->
<g id="node2" class="node"><title>Node5</title>
<g id="a_node2"><a xlink:href="classDGtal_1_1CubicalComplex.html" target="_top" xlink:title="Aim: This class represents an arbitrary cubical complex living in some Khalimsky space. Cubical complexes are sets of cells of different dimensions related together with incidence relations. Two cells in a cubical complex are incident if and only if they are incident in the surrounding Khalimsky space. In other words, cubical complexes are defined here as subsets of Khalimsky spaces. ">
<polygon fill="white" stroke="black" points="610.5,-98 610.5,-128 765.5,-128 765.5,-98 610.5,-98"/>
<text text-anchor="start" x="618.5" y="-116" font-family="FreeSans" font-size="10.00">DGtal::CubicalComplex</text>
<text text-anchor="middle" x="688" y="-105" font-family="FreeSans" font-size="10.00">&lt; TKSpace, TCellContainer &gt;</text>
</a>
</g>
</g>
<!-- Node5&#45;&gt;Node4 -->
<g id="edge1" class="edge"><title>Node5&#45;&gt;Node4</title>
<path fill="none" stroke="midnightblue" d="M775.686,-97.9375C813.58,-91.3532 857.651,-83.6954 894.33,-77.3221"/>
<polygon fill="midnightblue" stroke="midnightblue" points="774.938,-94.5149 765.685,-99.6753 776.137,-101.412 774.938,-94.5149"/>
</g>
<!-- Node6 -->
<g id="node3" class="node"><title>Node6</title>
<polygon fill="white" stroke="#bfbfbf" points="326,-103.5 326,-122.5 454,-122.5 454,-103.5 326,-103.5"/>
<text text-anchor="middle" x="390" y="-110.5" font-family="FreeSans" font-size="10.00">std::vector&lt; CellMap &gt;</text>
</g>
<!-- Node6&#45;&gt;Node5 -->
<g id="edge2" class="edge"><title>Node6&#45;&gt;Node5</title>
<path fill="none" stroke="#9a32cd" stroke-dasharray="5,2" d="M464.282,-113C508.694,-113 565.276,-113 610.294,-113"/>
<polygon fill="#9a32cd" stroke="#9a32cd" points="464.136,-109.5 454.136,-113 464.136,-116.5 464.136,-109.5"/>
<text text-anchor="middle" x="539" y="-116" font-family="FreeSans" font-size="10.00"> myCells</text>
</g>
<!-- Node7 -->
<g id="node4" class="node"><title>Node7</title>
<g id="a_node4"><a xlink:title="STL class. ">
<polygon fill="white" stroke="#bfbfbf" points="116.5,-103.5 116.5,-122.5 211.5,-122.5 211.5,-103.5 116.5,-103.5"/>
<text text-anchor="middle" x="164" y="-110.5" font-family="FreeSans" font-size="10.00">std::vector&lt; T &gt;</text>
</a>
</g>
</g>
<!-- Node7&#45;&gt;Node6 -->
<g id="edge3" class="edge"><title>Node7&#45;&gt;Node6</title>
<path fill="none" stroke="orange" stroke-dasharray="5,2" d="M221.692,-113C253.428,-113 293.074,-113 325.806,-113"/>
<polygon fill="orange" stroke="orange" points="221.685,-109.5 211.685,-113 221.685,-116.5 221.685,-109.5"/>
<text text-anchor="middle" x="262" y="-116" font-family="FreeSans" font-size="10.00"> &lt; CellMap &gt;</text>
</g>
<!-- Node8 -->
<g id="node5" class="node"><title>Node8</title>
<polygon fill="white" stroke="#bfbfbf" points="0.5,-103.5 0.5,-122.5 29.5,-122.5 29.5,-103.5 0.5,-103.5"/>
<text text-anchor="middle" x="15" y="-110.5" font-family="FreeSans" font-size="10.00">T</text>
</g>
<!-- Node8&#45;&gt;Node7 -->
<g id="edge4" class="edge"><title>Node8&#45;&gt;Node7</title>
<path fill="none" stroke="#9a32cd" stroke-dasharray="5,2" d="M39.6309,-113C60.2375,-113 90.7416,-113 116.261,-113"/>
<polygon fill="#9a32cd" stroke="#9a32cd" points="39.566,-109.5 29.5659,-113 39.5659,-116.5 39.566,-109.5"/>
<text text-anchor="middle" x="73" y="-116" font-family="FreeSans" font-size="10.00"> elements</text>
</g>
<!-- Node9 -->
<g id="node6" class="node"><title>Node9</title>
<g id="a_node6"><a xlink:href="classDGtal_1_1CountedPtrOrPtr.html" target="_top" xlink:title="DGtal::CountedPtrOrPtr\l\&lt; PointToMaskMap \&gt;">
<polygon fill="white" stroke="black" points="624,-49 624,-79 752,-79 752,-49 624,-49"/>
<text text-anchor="start" x="632" y="-67" font-family="FreeSans" font-size="10.00">DGtal::CountedPtrOrPtr</text>
<text text-anchor="middle" x="688" y="-56" font-family="FreeSans" font-size="10.00">&lt; PointToMaskMap &gt;</text>
</a>
</g>
</g>
<!-- Node9&#45;&gt;Node4 -->
<g id="edge5" class="edge"><title>Node9&#45;&gt;Node4</title>
<path fill="none" stroke="#9a32cd" stroke-dasharray="5,2" d="M762.378,-64C802.946,-64 853.3,-64 894.374,-64"/>
<polygon fill="#9a32cd" stroke="#9a32cd" points="762.286,-60.5001 752.286,-64 762.286,-67.5001 762.286,-60.5001"/>
<text text-anchor="middle" x="830" y="-67" font-family="FreeSans" font-size="10.00"> myPointToMaskPtr</text>
</g>
<!-- Node10 -->
<g id="node7" class="node"><title>Node10</title>
<g id="a_node7"><a xlink:href="classDGtal_1_1CountedPtrOrPtr.html" target="_top" xlink:title="Aim: Smart or simple pointer on T. It can be a smart pointer based on reference counts or a simple po...">
<polygon fill="white" stroke="black" points="312,-28.5 312,-47.5 468,-47.5 468,-28.5 312,-28.5"/>
<text text-anchor="middle" x="390" y="-35.5" font-family="FreeSans" font-size="10.00">DGtal::CountedPtrOrPtr&lt; T &gt;</text>
</a>
</g>
</g>
<!-- Node10&#45;&gt;Node9 -->
<g id="edge6" class="edge"><title>Node10&#45;&gt;Node9</title>
<path fill="none" stroke="orange" stroke-dasharray="5,2" d="M478.465,-45.6827C525.01,-49.7712 581.207,-54.7074 623.53,-58.425"/>
<polygon fill="orange" stroke="orange" points="478.652,-42.1858 468.384,-44.7972 478.039,-49.1589 478.652,-42.1858"/>
<text text-anchor="middle" x="539" y="-59" font-family="FreeSans" font-size="10.00"> &lt; PointToMaskMap &gt;</text>
</g>
<!-- Node11 -->
<g id="node8" class="node"><title>Node11</title>
<g id="a_node8"><a xlink:href="classDGtal_1_1CountedPtrOrPtr.html" target="_top" xlink:title="DGtal::CountedPtrOrPtr\l\&lt; ConfigMap \&gt;">
<polygon fill="white" stroke="black" points="624,-0 624,-30 752,-30 752,-0 624,-0"/>
<text text-anchor="start" x="632" y="-18" font-family="FreeSans" font-size="10.00">DGtal::CountedPtrOrPtr</text>
<text text-anchor="middle" x="688" y="-7" font-family="FreeSans" font-size="10.00">&lt; ConfigMap &gt;</text>
</a>
</g>
</g>
<!-- Node10&#45;&gt;Node11 -->
<g id="edge8" class="edge"><title>Node10&#45;&gt;Node11</title>
<path fill="none" stroke="orange" stroke-dasharray="5,2" d="M459.233,-27.0948C468.218,-25.9084 477.319,-24.8319 486,-24 532.072,-19.5852 584.298,-17.3295 623.965,-16.1804"/>
<polygon fill="orange" stroke="orange" points="458.598,-23.649 449.165,-28.4738 459.548,-30.5842 458.598,-23.649"/>
<text text-anchor="middle" x="539" y="-27" font-family="FreeSans" font-size="10.00"> &lt; ConfigMap &gt;</text>
</g>
<!-- Node11&#45;&gt;Node4 -->
<g id="edge7" class="edge"><title>Node11&#45;&gt;Node4</title>
<path fill="none" stroke="#9a32cd" stroke-dasharray="5,2" d="M762.378,-27.7501C802.946,-34.7992 853.3,-43.5486 894.374,-50.6856"/>
<polygon fill="#9a32cd" stroke="#9a32cd" points="762.738,-24.2602 752.286,-25.9966 761.539,-31.1569 762.738,-24.2602"/>
<text text-anchor="middle" x="830" y="-50" font-family="FreeSans" font-size="10.00"> myTablePtr</text>
</g>
</g>
</svg>
        <g id="navigator" transform="translate(0 0)" fill="#404254">
                <rect fill="#f2f5e9" fill-opacity="0.5" stroke="#606060" stroke-width=".5" x="0" y="0" width="60" height="60"/>
                <use id="zoomplus" xlink:href="#zoomPlus" x="17" y="9" onmousedown="handleZoom(evt,'in')"/>
                <use id="zoomminus" xlink:href="#zoomMin" x="42" y="9" onmousedown="handleZoom(evt,'out')"/>
                <use id="reset" xlink:href="#resetDef" x="30" y="36" onmousedown="handleReset()"/>
                <g id="arrowUp" xlink:href="#dirArrow" transform="translate(30 24)" onmousedown="handlePan(0,-1)">
                  <use xlink:href="#rim" fill="#404040">
                        <set attributeName="fill" to="#808080" begin="arrowUp.mouseover" end="arrowUp.mouseout"/>
                  </use>
                  <path fill="none" stroke="white" stroke-width="1.5" d="M0,-3.0v7 M-2.5,-0.5L0,-3.0L2.5,-0.5"/>
                </g>
                <g id="arrowRight" xlink:href="#dirArrow" transform="rotate(90) translate(36 -43)" onmousedown="handlePan(1,0)">
                  <use xlink:href="#rim" fill="#404040">
                        <set attributeName="fill" to="#808080" begin="arrowRight.mouseover" end="arrowRight.mouseout"/>
                  </use>
                  <path fill="none" stroke="white" stroke-width="1.5" d="M0,-3.0v7 M-2.5,-0.5L0,-3.0L2.5,-0.5"/>
                </g>
                <g id="arrowDown" xlink:href="#dirArrow" transform="rotate(180) translate(-30 -48)" onmousedown="handlePan(0,1)">
                  <use xlink:href="#rim" fill="#404040">
                        <set attributeName="fill" to="#808080" begin="arrowDown.mouseover" end="arrowDown.mouseout"/>
                  </use>
                  <path fill="none" stroke="white" stroke-width="1.5" d="M0,-3.0v7 M-2.5,-0.5L0,-3.0L2.5,-0.5"/>
                </g>
                <g id="arrowLeft" xlink:href="#dirArrow" transform="rotate(270) translate(-36 17)" onmousedown="handlePan(-1,0)">
                  <use xlink:href="#rim" fill="#404040">
                        <set attributeName="fill" to="#808080" begin="arrowLeft.mouseover" end="arrowLeft.mouseout"/>
                  </use>
                  <path fill="none" stroke="white" stroke-width="1.5" d="M0,-3.0v7 M-2.5,-0.5L0,-3.0L2.5,-0.5"/>
                </g>
        </g>
        <svg viewBox="0 0 15 15" width="100%" height="30px" preserveAspectRatio="xMaxYMin meet">
         <g id="arrow_out" transform="scale(0.3 0.3)">
          <a xlink:href="classDGtal_1_1VoxelComplex__coll__graph_org.svg" target="_base">
           <rect id="button" ry="5" rx="5" y="6" x="6" height="38" width="38"
                fill="#f2f5e9" fill-opacity="0.5" stroke="#606060" stroke-width="1.0"/>
           <path id="arrow"
             d="M 11.500037,31.436501 C 11.940474,20.09759 22.043105,11.32322 32.158766,21.979434 L 37.068811,17.246167 C 37.068811,17.246167 37.088388,32 37.088388,32 L 22.160133,31.978069 C 22.160133,31.978069 26.997745,27.140456 26.997745,27.140456 C 18.528582,18.264221 13.291696,25.230495 11.500037,31.436501 z"
             style="fill:#404040;"/>
          </a>
         </g>
        </svg>
</svg>
