<?xml version="1.0" encoding="UTF-8" standalone="no"?>
<!DOCTYPE svg PUBLIC "-//W3C//DTD SVG 1.1//EN"
 "http://www.w3.org/Graphics/SVG/1.1/DTD/svg11.dtd">
<!-- Generated by graphviz version 2.38.0 (20140413.2041)
 -->
<!-- Title: DGtal::LightSternBrocot&lt; TInteger, TQuotient, TMap &gt; Pages: 1 -->
<svg width="211pt" height="239pt"
 viewBox="0.00 0.00 211.00 239.00" xmlns="http://www.w3.org/2000/svg" xmlns:xlink="http://www.w3.org/1999/xlink">
<g id="graph0" class="graph" transform="scale(1 1) rotate(0) translate(4 235)">
<title>DGtal::LightSternBrocot&lt; TInteger, TQuotient, TMap &gt;</title>
<polygon fill="white" stroke="none" points="-4,4 -4,-235 207,-235 207,4 -4,4"/>
<!-- Node1 -->
<g id="node1" class="node"><title>Node1</title>
<polygon fill="#bfbfbf" stroke="black" points="0,-0.5 0,-41.5 131,-41.5 131,-0.5 0,-0.5"/>
<text text-anchor="start" x="8" y="-29.5" font-family="FreeSans" font-size="10.00">DGtal::LightSternBrocot</text>
<text text-anchor="start" x="8" y="-18.5" font-family="FreeSans" font-size="10.00">&lt; TInteger, TQuotient,</text>
<text text-anchor="middle" x="65.5" y="-7.5" font-family="FreeSans" font-size="10.00"> TMap &gt;</text>
</g>
<!-- Node1&#45;&gt;Node1 -->
<g id="edge4" class="edge"><title>Node1&#45;&gt;Node1</title>
<path fill="none" stroke="#9a32cd" stroke-dasharray="5,2" d="M141.167,-28.1775C146.049,-26.5005 149,-24.108 149,-21 149,-16.1484 141.811,-13.0404 131.307,-11.6759"/>
<polygon fill="#9a32cd" stroke="#9a32cd" points="140.334,-24.7768 131.307,-30.3241 141.823,-31.6166 140.334,-24.7768"/>
<text text-anchor="middle" x="172.5" y="-18.5" font-family="FreeSans" font-size="10.00"> singleton</text>
</g>
<!-- Node2 -->
<g id="node2" class="node"><title>Node2</title>
<g id="a_node2"><a xlink:href="structDGtal_1_1LightSternBrocot_1_1Node.html" target="_top" xlink:title="DGtal::LightSternBrocot\l\&lt; TInteger, TQuotient,\l TMap \&gt;::Node">
<polygon fill="white" stroke="black" points="0,-111.5 0,-152.5 131,-152.5 131,-111.5 0,-111.5"/>
<text text-anchor="start" x="8" y="-140.5" font-family="FreeSans" font-size="10.00">DGtal::LightSternBrocot</text>
<text text-anchor="start" x="8" y="-129.5" font-family="FreeSans" font-size="10.00">&lt; TInteger, TQuotient,</text>
<text text-anchor="middle" x="65.5" y="-118.5" font-family="FreeSans" font-size="10.00"> TMap &gt;::Node</text>
</a>
</g>
</g>
<!-- Node2&#45;&gt;Node1 -->
<g id="edge1" class="edge"><title>Node2&#45;&gt;Node1</title>
<path fill="none" stroke="#9a32cd" stroke-dasharray="5,2" d="M65.5,-101.051C65.5,-82.0988 65.5,-58.1392 65.5,-41.5922"/>
<polygon fill="#9a32cd" stroke="#9a32cd" points="62.0001,-101.261 65.5,-111.261 69.0001,-101.261 62.0001,-101.261"/>
<text text-anchor="middle" x="107.5" y="-85" font-family="FreeSans" font-size="10.00"> myZeroOverOne</text>
<text text-anchor="middle" x="107.5" y="-74" font-family="FreeSans" font-size="10.00">myOneOverOne</text>
<text text-anchor="middle" x="107.5" y="-63" font-family="FreeSans" font-size="10.00">myOneOverZero</text>
</g>
<!-- Node2&#45;&gt;Node2 -->
<g id="edge2" class="edge"><title>Node2&#45;&gt;Node2</title>
<path fill="none" stroke="#9a32cd" stroke-dasharray="5,2" d="M141.167,-138.646C146.049,-137.093 149,-134.878 149,-132 149,-127.508 141.811,-124.63 131.307,-123.367"/>
<polygon fill="#9a32cd" stroke="#9a32cd" points="140.419,-135.226 131.307,-140.633 141.802,-142.088 140.419,-135.226"/>
<text text-anchor="middle" x="176" y="-129.5" font-family="FreeSans" font-size="10.00"> ascendant</text>
</g>
<!-- Node3 -->
<g id="node3" class="node"><title>Node3</title>
<polygon fill="white" stroke="#bfbfbf" points="37.5,-211.5 37.5,-230.5 93.5,-230.5 93.5,-211.5 37.5,-211.5"/>
<text text-anchor="middle" x="65.5" y="-218.5" font-family="FreeSans" font-size="10.00">TInteger</text>
</g>
<!-- Node3&#45;&gt;Node2 -->
<g id="edge3" class="edge"><title>Node3&#45;&gt;Node2</title>
<path fill="none" stroke="#9a32cd" stroke-dasharray="5,2" d="M65.5,-201.2C65.5,-186.879 65.5,-167.215 65.5,-152.68"/>
<polygon fill="#9a32cd" stroke="#9a32cd" points="62.0001,-201.34 65.5,-211.34 69.0001,-201.34 62.0001,-201.34"/>
<text text-anchor="middle" x="70.5" y="-185" font-family="FreeSans" font-size="10.00"> p</text>
<text text-anchor="middle" x="70.5" y="-174" font-family="FreeSans" font-size="10.00">q</text>
</g>
</g>
</svg>
