<?xml version="1.0" encoding="UTF-8" standalone="no"?>
<!DOCTYPE svg PUBLIC "-//W3C//DTD SVG 1.1//EN"
 "http://www.w3.org/Graphics/SVG/1.1/DTD/svg11.dtd">
<!-- Generated by graphviz version 2.38.0 (20140413.2041)
 -->
<!-- Title: DGtal::ArithmeticalDSL&lt; TCoordinate, TInteger, adjacency &gt; Pages: 1 -->
<svg width="674pt" height="147pt"
 viewBox="0.00 0.00 674.00 147.00" xmlns="http://www.w3.org/2000/svg" xmlns:xlink="http://www.w3.org/1999/xlink">
<g id="graph0" class="graph" transform="scale(1 1) rotate(0) translate(4 143)">
<title>DGtal::ArithmeticalDSL&lt; TCoordinate, TInteger, adjacency &gt;</title>
<polygon fill="white" stroke="none" points="-4,4 -4,-143 670,-143 670,4 -4,4"/>
<!-- Node0 -->
<g id="node1" class="node"><title>Node0</title>
<polygon fill="#bfbfbf" stroke="black" points="0,-49 0,-90 133,-90 133,-49 0,-49"/>
<text text-anchor="start" x="8" y="-78" font-family="FreeSans" font-size="10.00">DGtal::ArithmeticalDSL</text>
<text text-anchor="start" x="8" y="-67" font-family="FreeSans" font-size="10.00">&lt; TCoordinate, TInteger,</text>
<text text-anchor="middle" x="66.5" y="-56" font-family="FreeSans" font-size="10.00"> adjacency &gt;</text>
</g>
<!-- Node1 -->
<g id="node2" class="node"><title>Node1</title>
<g id="a_node2"><a xlink:href="classDGtal_1_1ArithmeticalDSL.html" target="_top" xlink:title="DGtal::ArithmeticalDSL\l\&lt; TCoordinate, TInteger, 4 \&gt;">
<polygon fill="white" stroke="black" points="309,-108.5 309,-138.5 462,-138.5 462,-108.5 309,-108.5"/>
<text text-anchor="start" x="317" y="-126.5" font-family="FreeSans" font-size="10.00">DGtal::ArithmeticalDSL</text>
<text text-anchor="middle" x="385.5" y="-115.5" font-family="FreeSans" font-size="10.00">&lt; TCoordinate, TInteger, 4 &gt;</text>
</a>
</g>
</g>
<!-- Node0&#45;&gt;Node1 -->
<g id="edge1" class="edge"><title>Node0&#45;&gt;Node1</title>
<path fill="none" stroke="orange" stroke-dasharray="5,2" d="M139.129,-92.7227C143.126,-93.7311 147.103,-94.6668 151,-95.5 203.104,-106.638 262.764,-113.697 308.736,-117.941"/>
<polygon fill="orange" stroke="orange" points="139.743,-89.2647 129.18,-90.0833 137.948,-96.0306 139.743,-89.2647"/>
<text text-anchor="middle" x="221" y="-118.5" font-family="FreeSans" font-size="10.00"> &lt; TCoordinate, TInteger, 4 &gt;</text>
</g>
<!-- Node3 -->
<g id="node4" class="node"><title>Node3</title>
<g id="a_node4"><a xlink:href="classDGtal_1_1ArithmeticalDSL.html" target="_top" xlink:title="DGtal::ArithmeticalDSL\l\&lt; Coordinate, Integer,\l adjacency \&gt;">
<polygon fill="white" stroke="black" points="322,-49 322,-90 449,-90 449,-49 322,-49"/>
<text text-anchor="start" x="330" y="-78" font-family="FreeSans" font-size="10.00">DGtal::ArithmeticalDSL</text>
<text text-anchor="start" x="330" y="-67" font-family="FreeSans" font-size="10.00">&lt; Coordinate, Integer,</text>
<text text-anchor="middle" x="385.5" y="-56" font-family="FreeSans" font-size="10.00"> adjacency &gt;</text>
</a>
</g>
</g>
<!-- Node0&#45;&gt;Node3 -->
<g id="edge3" class="edge"><title>Node0&#45;&gt;Node3</title>
<path fill="none" stroke="orange" stroke-dasharray="5,2" d="M143.492,-69.5C198.034,-69.5 270.649,-69.5 321.87,-69.5"/>
<polygon fill="orange" stroke="orange" points="143.183,-66.0001 133.183,-69.5 143.183,-73.0001 143.183,-66.0001"/>
<text text-anchor="start" x="166" y="-83.5" font-family="FreeSans" font-size="10.00"> &lt; Coordinate, Integer,</text>
<text text-anchor="middle" x="221" y="-72.5" font-family="FreeSans" font-size="10.00"> adjacency &gt;</text>
</g>
<!-- Node4 -->
<g id="node5" class="node"><title>Node4</title>
<g id="a_node5"><a xlink:href="classDGtal_1_1ArithmeticalDSL.html" target="_top" xlink:title="DGtal::ArithmeticalDSL\l\&lt; TCoordinate, TInteger, 8 \&gt;">
<polygon fill="white" stroke="black" points="309,-0.5 309,-30.5 462,-30.5 462,-0.5 309,-0.5"/>
<text text-anchor="start" x="317" y="-18.5" font-family="FreeSans" font-size="10.00">DGtal::ArithmeticalDSL</text>
<text text-anchor="middle" x="385.5" y="-7.5" font-family="FreeSans" font-size="10.00">&lt; TCoordinate, TInteger, 8 &gt;</text>
</a>
</g>
</g>
<!-- Node0&#45;&gt;Node4 -->
<g id="edge4" class="edge"><title>Node0&#45;&gt;Node4</title>
<path fill="none" stroke="orange" stroke-dasharray="5,2" d="M142.99,-55.8958C145.693,-55.4224 148.37,-54.9559 151,-54.5 203.645,-45.3753 263.036,-35.4608 308.745,-27.9117"/>
<polygon fill="orange" stroke="orange" points="142.365,-52.452 133.124,-57.633 143.579,-59.3459 142.365,-52.452"/>
<text text-anchor="middle" x="221" y="-57.5" font-family="FreeSans" font-size="10.00"> &lt; TCoordinate, TInteger, 8 &gt;</text>
</g>
<!-- Node2 -->
<g id="node3" class="node"><title>Node2</title>
<g id="a_node3"><a xlink:href="classDGtal_1_1StandardDSL.html" target="_top" xlink:title="Aim: This class is an alias of ArithmeticalDSS for standard DSL. It represents a standard digital str...">
<polygon fill="white" stroke="black" points="512,-108.5 512,-138.5 653,-138.5 653,-108.5 512,-108.5"/>
<text text-anchor="start" x="520" y="-126.5" font-family="FreeSans" font-size="10.00">DGtal::StandardDSL</text>
<text text-anchor="middle" x="582.5" y="-115.5" font-family="FreeSans" font-size="10.00">&lt; TCoordinate, TInteger &gt;</text>
</a>
</g>
</g>
<!-- Node1&#45;&gt;Node2 -->
<g id="edge2" class="edge"><title>Node1&#45;&gt;Node2</title>
<path fill="none" stroke="midnightblue" d="M472.243,-123.5C485.511,-123.5 499.074,-123.5 511.929,-123.5"/>
<polygon fill="midnightblue" stroke="midnightblue" points="472.171,-120 462.171,-123.5 472.171,-127 472.171,-120"/>
</g>
<!-- Node5 -->
<g id="node6" class="node"><title>Node5</title>
<g id="a_node6"><a xlink:href="classDGtal_1_1NaiveDSL.html" target="_top" xlink:title="Aim: This class is an alias of ArithmeticalDSS for naive DSL. It represents a naive digital straight ...">
<polygon fill="white" stroke="black" points="499,-0.5 499,-30.5 666,-30.5 666,-0.5 499,-0.5"/>
<text text-anchor="start" x="507" y="-18.5" font-family="FreeSans" font-size="10.00">DGtal::NaiveDSL&lt; TCoordinate,</text>
<text text-anchor="middle" x="582.5" y="-7.5" font-family="FreeSans" font-size="10.00"> TInteger &gt;</text>
</a>
</g>
</g>
<!-- Node4&#45;&gt;Node5 -->
<g id="edge5" class="edge"><title>Node4&#45;&gt;Node5</title>
<path fill="none" stroke="midnightblue" d="M472.381,-15.5C481.143,-15.5 490.031,-15.5 498.758,-15.5"/>
<polygon fill="midnightblue" stroke="midnightblue" points="472.171,-12.0001 462.171,-15.5 472.171,-19.0001 472.171,-12.0001"/>
</g>
</g>
</svg>
