<?xml version="1.0" encoding="UTF-8" standalone="no"?>
<!DOCTYPE svg PUBLIC "-//W3C//DTD SVG 1.1//EN"
 "http://www.w3.org/Graphics/SVG/1.1/DTD/svg11.dtd">
<!-- Generated by graphviz version 2.38.0 (20140413.2041)
 -->
<!-- Title: DGtal::ConstIteratorAdapter&lt; TIterator, TLightFunctor, TReturnType &gt; Pages: 1 -->
<svg width="369pt" height="83pt"
 viewBox="0.00 0.00 369.00 83.00" xmlns="http://www.w3.org/2000/svg" xmlns:xlink="http://www.w3.org/1999/xlink">
<g id="graph0" class="graph" transform="scale(1 1) rotate(0) translate(4 79)">
<title>DGtal::ConstIteratorAdapter&lt; TIterator, TLightFunctor, TReturnType &gt;</title>
<polygon fill="white" stroke="none" points="-4,4 -4,-79 365,-79 365,4 -4,4"/>
<!-- Node0 -->
<g id="node1" class="node"><title>Node0</title>
<polygon fill="#bfbfbf" stroke="black" points="210,-17 210,-58 361,-58 361,-17 210,-17"/>
<text text-anchor="start" x="218" y="-46" font-family="FreeSans" font-size="10.00">DGtal::ConstIteratorAdapter</text>
<text text-anchor="start" x="218" y="-35" font-family="FreeSans" font-size="10.00">&lt; TIterator, TLightFunctor,</text>
<text text-anchor="middle" x="285.5" y="-24" font-family="FreeSans" font-size="10.00"> TReturnType &gt;</text>
</g>
<!-- Node1 -->
<g id="node2" class="node"><title>Node1</title>
<polygon fill="white" stroke="#bfbfbf" points="0,-0.5 0,-74.5 174,-74.5 174,-0.5 0,-0.5"/>
<text text-anchor="start" x="8" y="-62.5" font-family="FreeSans" font-size="10.00">boost::iterator_adaptor</text>
<text text-anchor="start" x="8" y="-51.5" font-family="FreeSans" font-size="10.00">&lt; ConstIteratorAdapter</text>
<text text-anchor="start" x="8" y="-40.5" font-family="FreeSans" font-size="10.00">&lt; TIterator, TLightFunctor,</text>
<text text-anchor="start" x="8" y="-29.5" font-family="FreeSans" font-size="10.00"> TReturnType &gt;, TIterator,</text>
<text text-anchor="start" x="8" y="-18.5" font-family="FreeSans" font-size="10.00"> TReturnType, boost::use_default,</text>
<text text-anchor="middle" x="87" y="-7.5" font-family="FreeSans" font-size="10.00"> TReturnType &gt;</text>
</g>
<!-- Node1&#45;&gt;Node0 -->
<g id="edge1" class="edge"><title>Node1&#45;&gt;Node0</title>
<path fill="none" stroke="midnightblue" d="M184.234,-37.5C192.814,-37.5 201.414,-37.5 209.773,-37.5"/>
<polygon fill="midnightblue" stroke="midnightblue" points="184.188,-34.0001 174.188,-37.5 184.188,-41.0001 184.188,-34.0001"/>
</g>
</g>
</svg>
