<?xml version="1.0" encoding="UTF-8" standalone="no"?>
<!DOCTYPE svg PUBLIC "-//W3C//DTD SVG 1.1//EN"
 "http://www.w3.org/Graphics/SVG/1.1/DTD/svg11.dtd">
<!-- Generated by graphviz version 2.38.0 (20140413.2041)
 -->
<!-- Title: DGtal::OneBalancedWordComputer&lt; TConstIterator, TInteger &gt;::CodeHandler&lt; TIterator, BidirectionalCategory &gt; Pages: 1 -->
<svg width="193pt" height="273pt"
 viewBox="0.00 0.00 193.00 273.00" xmlns="http://www.w3.org/2000/svg" xmlns:xlink="http://www.w3.org/1999/xlink">
<g id="graph0" class="graph" transform="scale(1 1) rotate(0) translate(4 269)">
<title>DGtal::OneBalancedWordComputer&lt; TConstIterator, TInteger &gt;::CodeHandler&lt; TIterator, BidirectionalCategory &gt;</title>
<polygon fill="white" stroke="none" points="-4,4 -4,-269 189,-269 189,4 -4,4"/>
<!-- Node1 -->
<g id="node1" class="node"><title>Node1</title>
<polygon fill="#bfbfbf" stroke="black" points="-1.42109e-14,-0.5 -1.42109e-14,-52.5 185,-52.5 185,-0.5 -1.42109e-14,-0.5"/>
<text text-anchor="start" x="8" y="-40.5" font-family="FreeSans" font-size="10.00">DGtal::OneBalancedWordComputer</text>
<text text-anchor="start" x="8" y="-29.5" font-family="FreeSans" font-size="10.00">&lt; TConstIterator, TInteger</text>
<text text-anchor="start" x="8" y="-18.5" font-family="FreeSans" font-size="10.00"> &gt;::CodeHandler&lt; TIterator,</text>
<text text-anchor="middle" x="92.5" y="-7.5" font-family="FreeSans" font-size="10.00"> BidirectionalCategory &gt;</text>
</g>
<!-- Node2 -->
<g id="node2" class="node"><title>Node2</title>
<polygon fill="white" stroke="#bfbfbf" points="35,-111.5 35,-130.5 150,-130.5 150,-111.5 35,-111.5"/>
<text text-anchor="middle" x="92.5" y="-118.5" font-family="FreeSans" font-size="10.00">std::vector&lt; Code &gt;</text>
</g>
<!-- Node2&#45;&gt;Node1 -->
<g id="edge1" class="edge"><title>Node2&#45;&gt;Node1</title>
<path fill="none" stroke="#9a32cd" stroke-dasharray="5,2" d="M92.5,-101.145C92.5,-87.1595 92.5,-67.9481 92.5,-52.6538"/>
<polygon fill="#9a32cd" stroke="#9a32cd" points="89.0001,-101.464 92.5,-111.464 96.0001,-101.464 89.0001,-101.464"/>
<text text-anchor="middle" x="125.5" y="-85" font-family="FreeSans" font-size="10.00"> myPosCodes</text>
<text text-anchor="middle" x="125.5" y="-74" font-family="FreeSans" font-size="10.00">myNegCodes</text>
</g>
<!-- Node3 -->
<g id="node3" class="node"><title>Node3</title>
<g id="a_node3"><a xlink:title="STL class. ">
<polygon fill="white" stroke="#bfbfbf" points="45,-178.5 45,-197.5 140,-197.5 140,-178.5 45,-178.5"/>
<text text-anchor="middle" x="92.5" y="-185.5" font-family="FreeSans" font-size="10.00">std::vector&lt; T &gt;</text>
</a>
</g>
</g>
<!-- Node3&#45;&gt;Node2 -->
<g id="edge2" class="edge"><title>Node3&#45;&gt;Node2</title>
<path fill="none" stroke="orange" stroke-dasharray="5,2" d="M92.5,-168.037C92.5,-155.67 92.5,-140.12 92.5,-130.627"/>
<polygon fill="orange" stroke="orange" points="89.0001,-168.234 92.5,-178.234 96.0001,-168.234 89.0001,-168.234"/>
<text text-anchor="middle" x="118" y="-152" font-family="FreeSans" font-size="10.00"> &lt; Code &gt;</text>
</g>
<!-- Node4 -->
<g id="node4" class="node"><title>Node4</title>
<polygon fill="white" stroke="#bfbfbf" points="78,-245.5 78,-264.5 107,-264.5 107,-245.5 78,-245.5"/>
<text text-anchor="middle" x="92.5" y="-252.5" font-family="FreeSans" font-size="10.00">T</text>
</g>
<!-- Node4&#45;&gt;Node3 -->
<g id="edge3" class="edge"><title>Node4&#45;&gt;Node3</title>
<path fill="none" stroke="#9a32cd" stroke-dasharray="5,2" d="M92.5,-235.037C92.5,-222.67 92.5,-207.12 92.5,-197.627"/>
<polygon fill="#9a32cd" stroke="#9a32cd" points="89.0001,-235.234 92.5,-245.234 96.0001,-235.234 89.0001,-235.234"/>
<text text-anchor="middle" x="117" y="-219" font-family="FreeSans" font-size="10.00"> elements</text>
</g>
</g>
</svg>
