<?xml version="1.0" encoding="UTF-8" standalone="no"?>
<!DOCTYPE svg PUBLIC "-//W3C//DTD SVG 1.1//EN"
 "http://www.w3.org/Graphics/SVG/1.1/DTD/svg11.dtd">
<!-- Generated by graphviz version 2.38.0 (20140413.2041)
 -->
<!-- Title: DGtal::ReverseDistanceTransformation&lt; TWeightImage, TPSeparableMetric, TImageContainer &gt; Pages: 1 -->
<svg width="256pt" height="229pt"
 viewBox="0.00 0.00 256.00 229.00" xmlns="http://www.w3.org/2000/svg" xmlns:xlink="http://www.w3.org/1999/xlink">
<g id="graph0" class="graph" transform="scale(1 1) rotate(0) translate(4 225)">
<title>DGtal::ReverseDistanceTransformation&lt; TWeightImage, TPSeparableMetric, TImageContainer &gt;</title>
<polygon fill="white" stroke="none" points="-4,4 -4,-225 252,-225 252,4 -4,4"/>
<!-- Node0 -->
<g id="node1" class="node"><title>Node0</title>
<polygon fill="#bfbfbf" stroke="black" points="0,-0.5 0,-41.5 200,-41.5 200,-0.5 0,-0.5"/>
<text text-anchor="start" x="8" y="-29.5" font-family="FreeSans" font-size="10.00">DGtal::ReverseDistanceTransformation</text>
<text text-anchor="start" x="8" y="-18.5" font-family="FreeSans" font-size="10.00">&lt; TWeightImage, TPSeparableMetric,</text>
<text text-anchor="middle" x="100" y="-7.5" font-family="FreeSans" font-size="10.00"> TImageContainer &gt;</text>
</g>
<!-- Node1 -->
<g id="node2" class="node"><title>Node1</title>
<g id="a_node2"><a xlink:href="classDGtal_1_1PowerMap.html" target="_top" xlink:title="DGtal::PowerMap\&lt; TWeight\lImage, TPSeparableMetric,\l TImageContainer \&gt;">
<polygon fill="white" stroke="black" points="27,-79.5 27,-120.5 173,-120.5 173,-79.5 27,-79.5"/>
<text text-anchor="start" x="35" y="-108.5" font-family="FreeSans" font-size="10.00">DGtal::PowerMap&lt; TWeight</text>
<text text-anchor="start" x="35" y="-97.5" font-family="FreeSans" font-size="10.00">Image, TPSeparableMetric,</text>
<text text-anchor="middle" x="100" y="-86.5" font-family="FreeSans" font-size="10.00"> TImageContainer &gt;</text>
</a>
</g>
</g>
<!-- Node1&#45;&gt;Node0 -->
<g id="edge1" class="edge"><title>Node1&#45;&gt;Node0</title>
<path fill="none" stroke="midnightblue" d="M100,-68.9057C100,-59.7917 100,-50.017 100,-41.7622"/>
<polygon fill="midnightblue" stroke="midnightblue" points="96.5001,-69.1706 100,-79.1706 103.5,-69.1706 96.5001,-69.1706"/>
</g>
<!-- Node2 -->
<g id="node3" class="node"><title>Node2</title>
<g id="a_node3"><a xlink:href="classDGtal_1_1PowerMap.html" target="_top" xlink:title="Aim: Implementation of the linear in time Power map construction. ">
<polygon fill="white" stroke="black" points="16.5,-179.5 16.5,-220.5 183.5,-220.5 183.5,-179.5 16.5,-179.5"/>
<text text-anchor="start" x="24.5" y="-208.5" font-family="FreeSans" font-size="10.00">DGtal::PowerMap&lt; TWeight</text>
<text text-anchor="start" x="24.5" y="-197.5" font-family="FreeSans" font-size="10.00">Image, TPowerSeparableMetric,</text>
<text text-anchor="middle" x="100" y="-186.5" font-family="FreeSans" font-size="10.00"> TImageContainer &gt;</text>
</a>
</g>
</g>
<!-- Node2&#45;&gt;Node1 -->
<g id="edge2" class="edge"><title>Node2&#45;&gt;Node1</title>
<path fill="none" stroke="orange" stroke-dasharray="5,2" d="M100,-168.925C100,-153.286 100,-134.61 100,-120.802"/>
<polygon fill="orange" stroke="orange" points="96.5001,-169.168 100,-179.168 103.5,-169.168 96.5001,-169.168"/>
<text text-anchor="start" x="100" y="-153" font-family="FreeSans" font-size="10.00"> &lt; TWeightImage, TPSeparable</text>
<text text-anchor="middle" x="174" y="-142" font-family="FreeSans" font-size="10.00">Metric, TImageContainer &gt;</text>
</g>
</g>
</svg>
