<?xml version="1.0" encoding="UTF-8" standalone="no"?>
<!DOCTYPE svg PUBLIC "-//W3C//DTD SVG 1.1//EN"
 "http://www.w3.org/Graphics/SVG/1.1/DTD/svg11.dtd">
<!-- Generated by graphviz version 2.38.0 (20140413.2041)
 -->
<!-- Title: DGtal::TrueDigitalSurfaceLocalEstimator&lt; TKSpace, TShape, TGeometricFunctor &gt; Pages: 1 -->
<!--zoomable 227 -->
<svg id="main" version="1.1" xmlns="http://www.w3.org/2000/svg" xmlns:xlink="http://www.w3.org/1999/xlink" xml:space="preserve" onload="init(evt)">
<style type="text/css"><![CDATA[
.edge:hover path { stroke: red; }
.edge:hover polygon { stroke: red; fill: red; }
]]></style>
<script type="text/javascript"><![CDATA[
var edges = document.getElementsByTagName('g');
if (edges && edges.length) {
  for (var i=0;i<edges.length;i++) {
    if (edges[i].id.substr(0,4)=='edge') {
      edges[i].setAttribute('class','edge');
    }
  }
}
]]></script>
        <defs>
                <circle id="rim" cx="0" cy="0" r="7"/>
                <circle id="rim2" cx="0" cy="0" r="3.5"/>
                <g id="zoomPlus">
                        <use xlink:href="#rim" fill="#404040">
                                <set attributeName="fill" to="#808080" begin="zoomplus.mouseover" end="zoomplus.mouseout"/>
                        </use>
                        <path d="M-4,0h8M0,-4v8" fill="none" stroke="white" stroke-width="1.5" pointer-events="none"/>
                </g>
                <g id="zoomMin">
                        <use xlink:href="#rim" fill="#404040">
                                <set attributeName="fill" to="#808080" begin="zoomminus.mouseover" end="zoomminus.mouseout"/>
                        </use>
                        <path d="M-4,0h8" fill="none" stroke="white" stroke-width="1.5" pointer-events="none"/>
                </g>
                <g id="dirArrow">
                        <path fill="none" stroke="white" stroke-width="1.5" d="M0,-3.0v7 M-2.5,-0.5L0,-3.0L2.5,-0.5"/>
                </g>
               <g id="resetDef">
                       <use xlink:href="#rim2" fill="#404040">
                               <set attributeName="fill" to="#808080" begin="reset.mouseover" end="reset.mouseout"/>
                       </use>
               </g>
        </defs>

<script type="text/javascript">
var viewWidth = 1230;
var viewHeight = 227;
var sectionId = 'dynsection-0';
</script>
<script xlink:href="svgpan.js"/>
<svg id="graph" class="graph">
<g id="viewport">
<title>DGtal::TrueDigitalSurfaceLocalEstimator&lt; TKSpace, TShape, TGeometricFunctor &gt;</title>
<polygon fill="white" stroke="none" points="-4,4 -4,-223 1226,-223 1226,4 -4,4"/>
<!-- Node1 -->
<g id="node1" class="node"><title>Node1</title>
<polygon fill="#bfbfbf" stroke="black" points="1058,-68 1058,-109 1222,-109 1222,-68 1058,-68"/>
<text text-anchor="start" x="1066" y="-97" font-family="FreeSans" font-size="10.00">DGtal::TrueDigitalSurface</text>
<text text-anchor="start" x="1066" y="-86" font-family="FreeSans" font-size="10.00">LocalEstimator&lt; TKSpace,</text>
<text text-anchor="middle" x="1140" y="-75" font-family="FreeSans" font-size="10.00"> TShape, TGeometricFunctor &gt;</text>
</g>
<!-- Node2 -->
<g id="node2" class="node"><title>Node2</title>
<g id="a_node2"><a xlink:href="classDGtal_1_1CowPtr.html" target="_top" xlink:title="DGtal::CowPtr\&lt; Geometric\lFunctor \&gt;">
<polygon fill="white" stroke="black" points="801.5,-147.5 801.5,-177.5 945.5,-177.5 945.5,-147.5 801.5,-147.5"/>
<text text-anchor="start" x="809.5" y="-165.5" font-family="FreeSans" font-size="10.00">DGtal::CowPtr&lt; Geometric</text>
<text text-anchor="middle" x="873.5" y="-154.5" font-family="FreeSans" font-size="10.00">Functor &gt;</text>
</a>
</g>
</g>
<!-- Node2&#45;&gt;Node1 -->
<g id="edge1" class="edge"><title>Node2&#45;&gt;Node1</title>
<path fill="none" stroke="#9a32cd" stroke-dasharray="5,2" d="M945.002,-144.998C974.454,-137.475 1008.97,-128.382 1040,-119.5 1051.34,-116.253 1063.36,-112.638 1074.97,-109.057"/>
<polygon fill="#9a32cd" stroke="#9a32cd" points="944.049,-141.629 935.221,-147.486 945.775,-148.413 944.049,-141.629"/>
<text text-anchor="middle" x="1006" y="-141.5" font-family="FreeSans" font-size="10.00"> myFct</text>
</g>
<!-- Node3 -->
<g id="node3" class="node"><title>Node3</title>
<g id="a_node3"><a xlink:href="classDGtal_1_1CountedPtr.html" target="_top" xlink:title="DGtal::CountedPtr\&lt;\l GeometricFunctor \&gt;">
<polygon fill="white" stroke="black" points="506.5,-188.5 506.5,-218.5 622.5,-218.5 622.5,-188.5 506.5,-188.5"/>
<text text-anchor="start" x="514.5" y="-206.5" font-family="FreeSans" font-size="10.00">DGtal::CountedPtr&lt;</text>
<text text-anchor="middle" x="564.5" y="-195.5" font-family="FreeSans" font-size="10.00"> GeometricFunctor &gt;</text>
</a>
</g>
</g>
<!-- Node3&#45;&gt;Node2 -->
<g id="edge2" class="edge"><title>Node3&#45;&gt;Node2</title>
<path fill="none" stroke="#9a32cd" stroke-dasharray="5,2" d="M633.044,-195.046C674.111,-189.844 727.6,-182.957 775,-176.5 783.557,-175.334 792.532,-174.084 801.427,-172.827"/>
<polygon fill="#9a32cd" stroke="#9a32cd" points="632.364,-191.604 622.883,-196.331 633.243,-198.549 632.364,-191.604"/>
<text text-anchor="middle" x="719" y="-193.5" font-family="FreeSans" font-size="10.00"> myPtr</text>
</g>
<!-- Node4 -->
<g id="node4" class="node"><title>Node4</title>
<g id="a_node4"><a xlink:href="structDGtal_1_1CountedPtr_1_1Counter.html" target="_top" xlink:title="DGtal::CountedPtr\&lt;\l T \&gt;::Counter">
<polygon fill="white" stroke="black" points="0,-183.5 0,-213.5 112,-213.5 112,-183.5 0,-183.5"/>
<text text-anchor="start" x="8" y="-201.5" font-family="FreeSans" font-size="10.00">DGtal::CountedPtr&lt;</text>
<text text-anchor="middle" x="56" y="-190.5" font-family="FreeSans" font-size="10.00"> T &gt;::Counter</text>
</a>
</g>
</g>
<!-- Node4&#45;&gt;Node3 -->
<g id="edge3" class="edge"><title>Node4&#45;&gt;Node3</title>
<path fill="none" stroke="#9a32cd" stroke-dasharray="5,2" d="M122.386,-202.25C124.957,-202.345 127.502,-202.429 130,-202.5 264.85,-206.347 423.391,-205.297 506.333,-204.322"/>
<polygon fill="#9a32cd" stroke="#9a32cd" points="122.525,-198.753 112.39,-201.841 122.239,-205.747 122.525,-198.753"/>
<text text-anchor="middle" x="270.5" y="-207.5" font-family="FreeSans" font-size="10.00"> myCounter</text>
</g>
<!-- Node5 -->
<g id="node5" class="node"><title>Node5</title>
<g id="a_node5"><a xlink:href="classDGtal_1_1CountedPtr.html" target="_top" xlink:title="Aim: Smart pointer based on reference counts. ">
<polygon fill="white" stroke="black" points="205,-161 205,-180 336,-180 336,-161 205,-161"/>
<text text-anchor="middle" x="270.5" y="-168" font-family="FreeSans" font-size="10.00">DGtal::CountedPtr&lt; T &gt;</text>
</a>
</g>
</g>
<!-- Node4&#45;&gt;Node5 -->
<g id="edge5" class="edge"><title>Node4&#45;&gt;Node5</title>
<path fill="none" stroke="#9a32cd" stroke-dasharray="5,2" d="M122.233,-189.905C148.501,-186.443 178.72,-182.462 204.921,-179.009"/>
<polygon fill="#9a32cd" stroke="#9a32cd" points="121.457,-186.476 112,-191.253 122.372,-193.416 121.457,-186.476"/>
<text text-anchor="middle" x="158.5" y="-192.5" font-family="FreeSans" font-size="10.00"> myCounter</text>
</g>
<!-- Node5&#45;&gt;Node3 -->
<g id="edge4" class="edge"><title>Node5&#45;&gt;Node3</title>
<path fill="none" stroke="orange" stroke-dasharray="5,2" d="M346.342,-178.317C382.506,-182.162 426.525,-186.94 466,-191.5 479.045,-193.007 493.064,-194.693 506.29,-196.314"/>
<polygon fill="orange" stroke="orange" points="346.674,-174.833 336.36,-177.258 345.935,-181.794 346.674,-174.833"/>
<text text-anchor="middle" x="410" y="-194.5" font-family="FreeSans" font-size="10.00"> &lt; GeometricFunctor &gt;</text>
</g>
<!-- Node6 -->
<g id="node6" class="node"><title>Node6</title>
<g id="a_node6"><a xlink:href="classDGtal_1_1CowPtr.html" target="_top" xlink:title="Aim: Copy on write shared pointer. ">
<polygon fill="white" stroke="black" points="509.5,-150 509.5,-169 619.5,-169 619.5,-150 509.5,-150"/>
<text text-anchor="middle" x="564.5" y="-157" font-family="FreeSans" font-size="10.00">DGtal::CowPtr&lt; T &gt;</text>
</a>
</g>
</g>
<!-- Node6&#45;&gt;Node2 -->
<g id="edge6" class="edge"><title>Node6&#45;&gt;Node2</title>
<path fill="none" stroke="orange" stroke-dasharray="5,2" d="M629.749,-160.128C679.872,-160.618 749.449,-161.298 801.27,-161.804"/>
<polygon fill="orange" stroke="orange" points="629.713,-156.627 619.679,-160.029 629.644,-163.627 629.713,-156.627"/>
<text text-anchor="middle" x="719" y="-165.5" font-family="FreeSans" font-size="10.00"> &lt; GeometricFunctor &gt;</text>
</g>
<!-- Node7 -->
<g id="node7" class="node"><title>Node7</title>
<g id="a_node7"><a xlink:href="structDGtal_1_1CanonicSCellEmbedder.html" target="_top" xlink:title="DGtal::CanonicSCellEmbedder\l\&lt; KSpace \&gt;">
<polygon fill="white" stroke="black" points="793,-98.5 793,-128.5 954,-128.5 954,-98.5 793,-98.5"/>
<text text-anchor="start" x="801" y="-116.5" font-family="FreeSans" font-size="10.00">DGtal::CanonicSCellEmbedder</text>
<text text-anchor="middle" x="873.5" y="-105.5" font-family="FreeSans" font-size="10.00">&lt; KSpace &gt;</text>
</a>
</g>
</g>
<!-- Node7&#45;&gt;Node1 -->
<g id="edge7" class="edge"><title>Node7&#45;&gt;Node1</title>
<path fill="none" stroke="#9a32cd" stroke-dasharray="5,2" d="M964.33,-105.009C994.552,-102.153 1028.08,-98.9838 1057.62,-96.1922"/>
<polygon fill="#9a32cd" stroke="#9a32cd" points="963.844,-101.54 954.217,-105.965 964.502,-108.509 963.844,-101.54"/>
<text text-anchor="middle" x="1006" y="-107.5" font-family="FreeSans" font-size="10.00"> myEmbedder</text>
</g>
<!-- Node8 -->
<g id="node8" class="node"><title>Node8</title>
<g id="a_node8"><a xlink:href="structDGtal_1_1CanonicSCellEmbedder.html" target="_top" xlink:title="Aim: A trivial embedder for signed cell, which corresponds to the canonic injection of cell centroids...">
<polygon fill="white" stroke="black" points="484,-98.5 484,-128.5 645,-128.5 645,-98.5 484,-98.5"/>
<text text-anchor="start" x="492" y="-116.5" font-family="FreeSans" font-size="10.00">DGtal::CanonicSCellEmbedder</text>
<text text-anchor="middle" x="564.5" y="-105.5" font-family="FreeSans" font-size="10.00">&lt; TKSpace &gt;</text>
</a>
</g>
</g>
<!-- Node8&#45;&gt;Node7 -->
<g id="edge8" class="edge"><title>Node8&#45;&gt;Node7</title>
<path fill="none" stroke="orange" stroke-dasharray="5,2" d="M655.368,-113.5C698.881,-113.5 750.683,-113.5 792.774,-113.5"/>
<polygon fill="orange" stroke="orange" points="655.359,-110 645.359,-113.5 655.359,-117 655.359,-110"/>
<text text-anchor="middle" x="719" y="-116.5" font-family="FreeSans" font-size="10.00"> &lt; KSpace &gt;</text>
</g>
<!-- Node9 -->
<g id="node9" class="node"><title>Node9</title>
<g id="a_node9"><a xlink:href="classDGtal_1_1CountedConstPtrOrConstPtr.html" target="_top" xlink:title="DGtal::CountedConstPtrOr\lConstPtr\&lt; KSpace \&gt;">
<polygon fill="white" stroke="black" points="802,-49.5 802,-79.5 945,-79.5 945,-49.5 802,-49.5"/>
<text text-anchor="start" x="810" y="-67.5" font-family="FreeSans" font-size="10.00">DGtal::CountedConstPtrOr</text>
<text text-anchor="middle" x="873.5" y="-56.5" font-family="FreeSans" font-size="10.00">ConstPtr&lt; KSpace &gt;</text>
</a>
</g>
</g>
<!-- Node9&#45;&gt;Node1 -->
<g id="edge9" class="edge"><title>Node9&#45;&gt;Node1</title>
<path fill="none" stroke="#9a32cd" stroke-dasharray="5,2" d="M955.201,-69.568C982.186,-71.4714 1012.41,-73.8295 1040,-76.5 1045.86,-77.0672 1051.91,-77.6954 1057.99,-78.3584"/>
<polygon fill="#9a32cd" stroke="#9a32cd" points="955.248,-66.0629 945.029,-68.8611 954.762,-73.0461 955.248,-66.0629"/>
<text text-anchor="middle" x="1006" y="-79.5" font-family="FreeSans" font-size="10.00"> myKSpace</text>
</g>
<!-- Node10 -->
<g id="node10" class="node"><title>Node10</title>
<g id="a_node10"><a xlink:href="classDGtal_1_1CountedConstPtrOrConstPtr.html" target="_top" xlink:title="Aim: Smart or simple const pointer on T. It can be a smart pointer based on reference counts or a sim...">
<polygon fill="white" stroke="black" points="493,-29.5 493,-59.5 636,-59.5 636,-29.5 493,-29.5"/>
<text text-anchor="start" x="501" y="-47.5" font-family="FreeSans" font-size="10.00">DGtal::CountedConstPtrOr</text>
<text text-anchor="middle" x="564.5" y="-36.5" font-family="FreeSans" font-size="10.00">ConstPtr&lt; T &gt;</text>
</a>
</g>
</g>
<!-- Node10&#45;&gt;Node9 -->
<g id="edge10" class="edge"><title>Node10&#45;&gt;Node9</title>
<path fill="none" stroke="orange" stroke-dasharray="5,2" d="M646.421,-49.7717C694.699,-52.9169 755.42,-56.8726 801.773,-59.8924"/>
<polygon fill="orange" stroke="orange" points="646.524,-46.2711 636.317,-49.1135 646.069,-53.2563 646.524,-46.2711"/>
<text text-anchor="middle" x="719" y="-61.5" font-family="FreeSans" font-size="10.00"> &lt; KSpace &gt;</text>
</g>
<!-- Node11 -->
<g id="node11" class="node"><title>Node11</title>
<g id="a_node11"><a xlink:href="classDGtal_1_1CountedConstPtrOrConstPtr.html" target="_top" xlink:title="DGtal::CountedConstPtrOr\lConstPtr\&lt; Shape \&gt;">
<polygon fill="white" stroke="black" points="802,-0.5 802,-30.5 945,-30.5 945,-0.5 802,-0.5"/>
<text text-anchor="start" x="810" y="-18.5" font-family="FreeSans" font-size="10.00">DGtal::CountedConstPtrOr</text>
<text text-anchor="middle" x="873.5" y="-7.5" font-family="FreeSans" font-size="10.00">ConstPtr&lt; Shape &gt;</text>
</a>
</g>
</g>
<!-- Node10&#45;&gt;Node11 -->
<g id="edge12" class="edge"><title>Node10&#45;&gt;Node11</title>
<path fill="none" stroke="orange" stroke-dasharray="5,2" d="M646.421,-36.856C694.699,-32.2955 755.42,-26.5597 801.773,-22.181"/>
<polygon fill="orange" stroke="orange" points="645.944,-33.3854 636.317,-37.8104 646.602,-40.3544 645.944,-33.3854"/>
<text text-anchor="middle" x="719" y="-38.5" font-family="FreeSans" font-size="10.00"> &lt; Shape &gt;</text>
</g>
<!-- Node11&#45;&gt;Node1 -->
<g id="edge11" class="edge"><title>Node11&#45;&gt;Node1</title>
<path fill="none" stroke="#9a32cd" stroke-dasharray="5,2" d="M949.502,-32.9076C977.96,-39.8195 1010.59,-48.1146 1040,-56.5 1052.25,-59.9916 1065.26,-63.9869 1077.68,-67.9438"/>
<polygon fill="#9a32cd" stroke="#9a32cd" points="950.164,-29.467 939.622,-30.5226 948.522,-36.2715 950.164,-29.467"/>
<text text-anchor="middle" x="1006" y="-59.5" font-family="FreeSans" font-size="10.00"> myShape</text>
</g>
</g>
</svg>
        <g id="navigator" transform="translate(0 0)" fill="#404254">
                <rect fill="#f2f5e9" fill-opacity="0.5" stroke="#606060" stroke-width=".5" x="0" y="0" width="60" height="60"/>
                <use id="zoomplus" xlink:href="#zoomPlus" x="17" y="9" onmousedown="handleZoom(evt,'in')"/>
                <use id="zoomminus" xlink:href="#zoomMin" x="42" y="9" onmousedown="handleZoom(evt,'out')"/>
                <use id="reset" xlink:href="#resetDef" x="30" y="36" onmousedown="handleReset()"/>
                <g id="arrowUp" xlink:href="#dirArrow" transform="translate(30 24)" onmousedown="handlePan(0,-1)">
                  <use xlink:href="#rim" fill="#404040">
                        <set attributeName="fill" to="#808080" begin="arrowUp.mouseover" end="arrowUp.mouseout"/>
                  </use>
                  <path fill="none" stroke="white" stroke-width="1.5" d="M0,-3.0v7 M-2.5,-0.5L0,-3.0L2.5,-0.5"/>
                </g>
                <g id="arrowRight" xlink:href="#dirArrow" transform="rotate(90) translate(36 -43)" onmousedown="handlePan(1,0)">
                  <use xlink:href="#rim" fill="#404040">
                        <set attributeName="fill" to="#808080" begin="arrowRight.mouseover" end="arrowRight.mouseout"/>
                  </use>
                  <path fill="none" stroke="white" stroke-width="1.5" d="M0,-3.0v7 M-2.5,-0.5L0,-3.0L2.5,-0.5"/>
                </g>
                <g id="arrowDown" xlink:href="#dirArrow" transform="rotate(180) translate(-30 -48)" onmousedown="handlePan(0,1)">
                  <use xlink:href="#rim" fill="#404040">
                        <set attributeName="fill" to="#808080" begin="arrowDown.mouseover" end="arrowDown.mouseout"/>
                  </use>
                  <path fill="none" stroke="white" stroke-width="1.5" d="M0,-3.0v7 M-2.5,-0.5L0,-3.0L2.5,-0.5"/>
                </g>
                <g id="arrowLeft" xlink:href="#dirArrow" transform="rotate(270) translate(-36 17)" onmousedown="handlePan(-1,0)">
                  <use xlink:href="#rim" fill="#404040">
                        <set attributeName="fill" to="#808080" begin="arrowLeft.mouseover" end="arrowLeft.mouseout"/>
                  </use>
                  <path fill="none" stroke="white" stroke-width="1.5" d="M0,-3.0v7 M-2.5,-0.5L0,-3.0L2.5,-0.5"/>
                </g>
        </g>
        <svg viewBox="0 0 15 15" width="100%" height="30px" preserveAspectRatio="xMaxYMin meet">
         <g id="arrow_out" transform="scale(0.3 0.3)">
          <a xlink:href="classDGtal_1_1TrueDigitalSurfaceLocalEstimator__coll__graph_org.svg" target="_base">
           <rect id="button" ry="5" rx="5" y="6" x="6" height="38" width="38"
                fill="#f2f5e9" fill-opacity="0.5" stroke="#606060" stroke-width="1.0"/>
           <path id="arrow"
             d="M 11.500037,31.436501 C 11.940474,20.09759 22.043105,11.32322 32.158766,21.979434 L 37.068811,17.246167 C 37.068811,17.246167 37.088388,32 37.088388,32 L 22.160133,31.978069 C 22.160133,31.978069 26.997745,27.140456 26.997745,27.140456 C 18.528582,18.264221 13.291696,25.230495 11.500037,31.436501 z"
             style="fill:#404040;"/>
          </a>
         </g>
        </svg>
</svg>
