<?xml version="1.0" encoding="UTF-8" standalone="no"?>
<!DOCTYPE svg PUBLIC "-//W3C//DTD SVG 1.1//EN"
 "http://www.w3.org/Graphics/SVG/1.1/DTD/svg11.dtd">
<!-- Generated by graphviz version 2.38.0 (20140413.2041)
 -->
<!-- Title: DGtal::InHalfPlaneBySimple3x3Matrix&lt; TPoint, TInteger &gt; Pages: 1 -->
<svg width="301pt" height="418pt"
 viewBox="0.00 0.00 300.50 418.00" xmlns="http://www.w3.org/2000/svg" xmlns:xlink="http://www.w3.org/1999/xlink">
<g id="graph0" class="graph" transform="scale(1 1) rotate(0) translate(4 414)">
<title>DGtal::InHalfPlaneBySimple3x3Matrix&lt; TPoint, TInteger &gt;</title>
<polygon fill="white" stroke="none" points="-4,4 -4,-414 296.5,-414 296.5,4 -4,4"/>
<!-- Node2 -->
<g id="node1" class="node"><title>Node2</title>
<polygon fill="#bfbfbf" stroke="black" points="19,-0.5 19,-30.5 184,-30.5 184,-0.5 19,-0.5"/>
<text text-anchor="start" x="27" y="-18.5" font-family="FreeSans" font-size="10.00">DGtal::InHalfPlaneBySimple3x3</text>
<text text-anchor="middle" x="101.5" y="-7.5" font-family="FreeSans" font-size="10.00">Matrix&lt; TPoint, TInteger &gt;</text>
</g>
<!-- Node3 -->
<g id="node2" class="node"><title>Node3</title>
<g id="a_node2"><a xlink:href="classDGtal_1_1SimpleMatrix.html" target="_top" xlink:title="DGtal::SimpleMatrix\l\&lt; Integer, 3, 3 \&gt;">
<polygon fill="white" stroke="black" points="45.5,-78.5 45.5,-108.5 157.5,-108.5 157.5,-78.5 45.5,-78.5"/>
<text text-anchor="start" x="53.5" y="-96.5" font-family="FreeSans" font-size="10.00">DGtal::SimpleMatrix</text>
<text text-anchor="middle" x="101.5" y="-85.5" font-family="FreeSans" font-size="10.00">&lt; Integer, 3, 3 &gt;</text>
</a>
</g>
</g>
<!-- Node3&#45;&gt;Node2 -->
<g id="edge1" class="edge"><title>Node3&#45;&gt;Node2</title>
<path fill="none" stroke="#9a32cd" stroke-dasharray="5,2" d="M101.5,-68.0898C101.5,-55.7565 101.5,-41.2237 101.5,-30.7309"/>
<polygon fill="#9a32cd" stroke="#9a32cd" points="98.0001,-68.2049 101.5,-78.205 105,-68.205 98.0001,-68.2049"/>
<text text-anchor="middle" x="125.5" y="-52" font-family="FreeSans" font-size="10.00"> myMatrix</text>
</g>
<!-- Node4 -->
<g id="node3" class="node"><title>Node4</title>
<polygon fill="white" stroke="#bfbfbf" points="0,-245.5 0,-275.5 133,-275.5 133,-245.5 0,-245.5"/>
<text text-anchor="start" x="8" y="-263.5" font-family="FreeSans" font-size="10.00">std::array&lt; Component,</text>
<text text-anchor="middle" x="66.5" y="-252.5" font-family="FreeSans" font-size="10.00"> M *N &gt;</text>
</g>
<!-- Node4&#45;&gt;Node3 -->
<g id="edge2" class="edge"><title>Node4&#45;&gt;Node3</title>
<path fill="none" stroke="#9a32cd" stroke-dasharray="5,2" d="M60.0747,-235.558C55.4634,-214.209 51.3609,-182.35 59.5,-156 65.0711,-137.964 77.9484,-120.497 87.9863,-108.816"/>
<polygon fill="#9a32cd" stroke="#9a32cd" points="56.6945,-236.474 62.3989,-245.402 63.5072,-234.865 56.6945,-236.474"/>
<text text-anchor="middle" x="102.5" y="-174.5" font-family="FreeSans" font-size="10.00"> myCofactorCoefs</text>
<text text-anchor="middle" x="102.5" y="-163.5" font-family="FreeSans" font-size="10.00">myValues</text>
</g>
<!-- Node7 -->
<g id="node6" class="node"><title>Node7</title>
<g id="a_node6"><a xlink:href="classDGtal_1_1SimpleMatrix.html" target="_top" xlink:title="Aim: implements basic MxN Matrix services (M,N&gt;=1). ">
<polygon fill="white" stroke="black" points="154.5,-156.5 154.5,-186.5 292.5,-186.5 292.5,-156.5 154.5,-156.5"/>
<text text-anchor="start" x="162.5" y="-174.5" font-family="FreeSans" font-size="10.00">DGtal::SimpleMatrix</text>
<text text-anchor="middle" x="223.5" y="-163.5" font-family="FreeSans" font-size="10.00">&lt; TComponent, TM, TN &gt;</text>
</a>
</g>
</g>
<!-- Node4&#45;&gt;Node7 -->
<g id="edge6" class="edge"><title>Node4&#45;&gt;Node7</title>
<path fill="none" stroke="#9a32cd" stroke-dasharray="5,2" d="M101.145,-240.302C130.491,-224.04 171.877,-201.106 198.197,-186.521"/>
<polygon fill="#9a32cd" stroke="#9a32cd" points="99.1246,-237.42 92.0742,-245.328 102.517,-243.543 99.1246,-237.42"/>
<text text-anchor="middle" x="206.5" y="-219" font-family="FreeSans" font-size="10.00"> myCofactorCoefs</text>
<text text-anchor="middle" x="206.5" y="-208" font-family="FreeSans" font-size="10.00">myValues</text>
</g>
<!-- Node5 -->
<g id="node4" class="node"><title>Node5</title>
<g id="a_node4"><a xlink:title="STL class. ">
<polygon fill="white" stroke="#bfbfbf" points="21.5,-323.5 21.5,-342.5 111.5,-342.5 111.5,-323.5 21.5,-323.5"/>
<text text-anchor="middle" x="66.5" y="-330.5" font-family="FreeSans" font-size="10.00">std::array&lt; T &gt;</text>
</a>
</g>
</g>
<!-- Node5&#45;&gt;Node4 -->
<g id="edge3" class="edge"><title>Node5&#45;&gt;Node4</title>
<path fill="none" stroke="orange" stroke-dasharray="5,2" d="M66.5,-313.236C66.5,-301.408 66.5,-286.383 66.5,-275.576"/>
<polygon fill="orange" stroke="orange" points="63.0001,-313.355 66.5,-323.355 70.0001,-313.355 63.0001,-313.355"/>
<text text-anchor="middle" x="122.5" y="-297" font-family="FreeSans" font-size="10.00"> &lt; Component, M *N &gt;</text>
</g>
<!-- Node6 -->
<g id="node5" class="node"><title>Node6</title>
<polygon fill="white" stroke="#bfbfbf" points="52,-390.5 52,-409.5 81,-409.5 81,-390.5 52,-390.5"/>
<text text-anchor="middle" x="66.5" y="-397.5" font-family="FreeSans" font-size="10.00">T</text>
</g>
<!-- Node6&#45;&gt;Node5 -->
<g id="edge4" class="edge"><title>Node6&#45;&gt;Node5</title>
<path fill="none" stroke="#9a32cd" stroke-dasharray="5,2" d="M66.5,-380.037C66.5,-367.67 66.5,-352.12 66.5,-342.627"/>
<polygon fill="#9a32cd" stroke="#9a32cd" points="63.0001,-380.234 66.5,-390.234 70.0001,-380.234 63.0001,-380.234"/>
<text text-anchor="middle" x="91" y="-364" font-family="FreeSans" font-size="10.00"> elements</text>
</g>
<!-- Node7&#45;&gt;Node3 -->
<g id="edge5" class="edge"><title>Node7&#45;&gt;Node3</title>
<path fill="none" stroke="orange" stroke-dasharray="5,2" d="M192.144,-150.967C170.846,-137.699 143.178,-120.463 124.04,-108.541"/>
<polygon fill="orange" stroke="orange" points="190.5,-154.066 200.839,-156.383 194.201,-148.125 190.5,-154.066"/>
<text text-anchor="middle" x="211.5" y="-130" font-family="FreeSans" font-size="10.00"> &lt; Integer, 3, 3 &gt;</text>
</g>
</g>
</svg>
