<?xml version="1.0" encoding="UTF-8" standalone="no"?>
<!DOCTYPE svg PUBLIC "-//W3C//DTD SVG 1.1//EN"
 "http://www.w3.org/Graphics/SVG/1.1/DTD/svg11.dtd">
<!-- Generated by graphviz version 2.38.0 (20140413.2041)
 -->
<!-- Title: DGtal::experimental::ChamferNorm2D&lt; TSpace &gt; Pages: 1 -->
<!--zoomable 117 -->
<svg id="main" version="1.1" xmlns="http://www.w3.org/2000/svg" xmlns:xlink="http://www.w3.org/1999/xlink" xml:space="preserve" onload="init(evt)">
<style type="text/css"><![CDATA[
.edge:hover path { stroke: red; }
.edge:hover polygon { stroke: red; fill: red; }
]]></style>
<script type="text/javascript"><![CDATA[
var edges = document.getElementsByTagName('g');
if (edges && edges.length) {
  for (var i=0;i<edges.length;i++) {
    if (edges[i].id.substr(0,4)=='edge') {
      edges[i].setAttribute('class','edge');
    }
  }
}
]]></script>
        <defs>
                <circle id="rim" cx="0" cy="0" r="7"/>
                <circle id="rim2" cx="0" cy="0" r="3.5"/>
                <g id="zoomPlus">
                        <use xlink:href="#rim" fill="#404040">
                                <set attributeName="fill" to="#808080" begin="zoomplus.mouseover" end="zoomplus.mouseout"/>
                        </use>
                        <path d="M-4,0h8M0,-4v8" fill="none" stroke="white" stroke-width="1.5" pointer-events="none"/>
                </g>
                <g id="zoomMin">
                        <use xlink:href="#rim" fill="#404040">
                                <set attributeName="fill" to="#808080" begin="zoomminus.mouseover" end="zoomminus.mouseout"/>
                        </use>
                        <path d="M-4,0h8" fill="none" stroke="white" stroke-width="1.5" pointer-events="none"/>
                </g>
                <g id="dirArrow">
                        <path fill="none" stroke="white" stroke-width="1.5" d="M0,-3.0v7 M-2.5,-0.5L0,-3.0L2.5,-0.5"/>
                </g>
               <g id="resetDef">
                       <use xlink:href="#rim2" fill="#404040">
                               <set attributeName="fill" to="#808080" begin="reset.mouseover" end="reset.mouseout"/>
                       </use>
               </g>
        </defs>

<script type="text/javascript">
var viewWidth = 829;
var viewHeight = 117;
var sectionId = 'dynsection-0';
</script>
<script xlink:href="svgpan.js"/>
<svg id="graph" class="graph">
<g id="viewport">
<title>DGtal::experimental::ChamferNorm2D&lt; TSpace &gt;</title>
<polygon fill="white" stroke="none" points="-4,4 -4,-113 825,-113 825,4 -4,4"/>
<!-- Node1 -->
<g id="node1" class="node"><title>Node1</title>
<polygon fill="#bfbfbf" stroke="black" points="659,-46 659,-76 821,-76 821,-46 659,-46"/>
<text text-anchor="start" x="667" y="-64" font-family="FreeSans" font-size="10.00">DGtal::experimental</text>
<text text-anchor="middle" x="740" y="-53" font-family="FreeSans" font-size="10.00">::ChamferNorm2D&lt; TSpace &gt;</text>
</g>
<!-- Node2 -->
<g id="node2" class="node"><title>Node2</title>
<g id="a_node2"><a xlink:href="structDGtal_1_1experimental_1_1ChamferNorm2D_1_1LessThanAngular.html" target="_top" xlink:title="DGtal::experimental\l::ChamferNorm2D\&lt; TSpace\l \&gt;::LessThanAngular">
<polygon fill="white" stroke="black" points="372,-64.5 372,-105.5 523,-105.5 523,-64.5 372,-64.5"/>
<text text-anchor="start" x="380" y="-93.5" font-family="FreeSans" font-size="10.00">DGtal::experimental</text>
<text text-anchor="start" x="380" y="-82.5" font-family="FreeSans" font-size="10.00">::ChamferNorm2D&lt; TSpace</text>
<text text-anchor="middle" x="447.5" y="-71.5" font-family="FreeSans" font-size="10.00"> &gt;::LessThanAngular</text>
</a>
</g>
</g>
<!-- Node2&#45;&gt;Node1 -->
<g id="edge1" class="edge"><title>Node2&#45;&gt;Node1</title>
<path fill="none" stroke="#9a32cd" stroke-dasharray="5,2" d="M533.471,-77.98C573.048,-74.7103 619.883,-70.841 658.842,-67.6224"/>
<polygon fill="#9a32cd" stroke="#9a32cd" points="532.989,-74.5078 523.311,-78.8194 533.565,-81.4841 532.989,-74.5078"/>
<text text-anchor="middle" x="591" y="-80" font-family="FreeSans" font-size="10.00"> myLessThanAngular</text>
</g>
<!-- Node3 -->
<g id="node3" class="node"><title>Node3</title>
<polygon fill="white" stroke="#bfbfbf" points="387,-26.5 387,-45.5 508,-45.5 508,-26.5 387,-26.5"/>
<text text-anchor="middle" x="447.5" y="-33.5" font-family="FreeSans" font-size="10.00">std::vector&lt; Vector &gt;</text>
</g>
<!-- Node3&#45;&gt;Node1 -->
<g id="edge2" class="edge"><title>Node3&#45;&gt;Node1</title>
<path fill="none" stroke="#9a32cd" stroke-dasharray="5,2" d="M518.151,-36.0974C554.802,-36.7631 600.434,-38.5607 641,-43 648.308,-43.7998 655.891,-44.8301 663.455,-45.9923"/>
<polygon fill="#9a32cd" stroke="#9a32cd" points="518.118,-32.5965 508.064,-35.9384 518.007,-39.5956 518.118,-32.5965"/>
<text text-anchor="middle" x="591" y="-57" font-family="FreeSans" font-size="10.00"> myDirections</text>
<text text-anchor="middle" x="591" y="-46" font-family="FreeSans" font-size="10.00">myNormals</text>
</g>
<!-- Node4 -->
<g id="node4" class="node"><title>Node4</title>
<g id="a_node4"><a xlink:href="classDGtal_1_1PointVector.html" target="_top" xlink:title="Aim: Implements basic operations that will be used in Point and Vector classes. ">
<polygon fill="white" stroke="black" points="153,-38.5 153,-79.5 279,-79.5 279,-38.5 153,-38.5"/>
<text text-anchor="start" x="161" y="-67.5" font-family="FreeSans" font-size="10.00">DGtal::PointVector</text>
<text text-anchor="start" x="161" y="-56.5" font-family="FreeSans" font-size="10.00">&lt; dim, TEuclideanRing,</text>
<text text-anchor="middle" x="216" y="-45.5" font-family="FreeSans" font-size="10.00"> TContainer &gt;</text>
</a>
</g>
</g>
<!-- Node4&#45;&gt;Node3 -->
<g id="edge3" class="edge"><title>Node4&#45;&gt;Node3</title>
<path fill="none" stroke="#9a32cd" stroke-dasharray="5,2" d="M289.11,-51.7733C320.505,-48.627 356.864,-44.9832 386.721,-41.9909"/>
<polygon fill="#9a32cd" stroke="#9a32cd" points="288.707,-48.296 279.106,-52.7759 289.405,-55.2612 288.707,-48.296"/>
<text text-anchor="middle" x="325.5" y="-53" font-family="FreeSans" font-size="10.00"> elements</text>
</g>
<!-- Node4&#45;&gt;Node4 -->
<g id="edge5" class="edge"><title>Node4&#45;&gt;Node4</title>
<path fill="none" stroke="#9a32cd" stroke-dasharray="5,2" d="M198.107,-89.8561C200.768,-94.6966 206.732,-98 216,-98 230.828,-98 237.2,-89.5433 235.114,-79.8644"/>
<polygon fill="#9a32cd" stroke="#9a32cd" points="201.574,-89.3656 196.886,-79.8644 194.625,-90.2153 201.574,-89.3656"/>
<text text-anchor="middle" x="216" y="-101" font-family="FreeSans" font-size="10.00"> zero</text>
</g>
<!-- Node5 -->
<g id="node5" class="node"><title>Node5</title>
<polygon fill="white" stroke="#bfbfbf" points="0,-49.5 0,-68.5 68,-68.5 68,-49.5 0,-49.5"/>
<text text-anchor="middle" x="34" y="-56.5" font-family="FreeSans" font-size="10.00">TContainer</text>
</g>
<!-- Node5&#45;&gt;Node4 -->
<g id="edge4" class="edge"><title>Node5&#45;&gt;Node4</title>
<path fill="none" stroke="#9a32cd" stroke-dasharray="5,2" d="M78.1809,-59C100.491,-59 128.12,-59 152.696,-59"/>
<polygon fill="#9a32cd" stroke="#9a32cd" points="78.0148,-55.5001 68.0148,-59 78.0147,-62.5001 78.0148,-55.5001"/>
<text text-anchor="middle" x="110.5" y="-62" font-family="FreeSans" font-size="10.00"> myArray</text>
</g>
<!-- Node6 -->
<g id="node6" class="node"><title>Node6</title>
<g id="a_node6"><a xlink:title="STL class. ">
<polygon fill="white" stroke="#bfbfbf" points="168.5,-0.5 168.5,-19.5 263.5,-19.5 263.5,-0.5 168.5,-0.5"/>
<text text-anchor="middle" x="216" y="-7.5" font-family="FreeSans" font-size="10.00">std::vector&lt; T &gt;</text>
</a>
</g>
</g>
<!-- Node6&#45;&gt;Node3 -->
<g id="edge6" class="edge"><title>Node6&#45;&gt;Node3</title>
<path fill="none" stroke="orange" stroke-dasharray="5,2" d="M274.047,-16.4629C308.353,-20.3494 351.96,-25.2896 386.741,-29.2299"/>
<polygon fill="orange" stroke="orange" points="274.05,-12.9409 263.719,-15.2928 273.262,-19.8964 274.05,-12.9409"/>
<text text-anchor="middle" x="325.5" y="-28" font-family="FreeSans" font-size="10.00"> &lt; Vector &gt;</text>
</g>
<!-- Node7 -->
<g id="node7" class="node"><title>Node7</title>
<polygon fill="white" stroke="#bfbfbf" points="19.5,-0.5 19.5,-19.5 48.5,-19.5 48.5,-0.5 19.5,-0.5"/>
<text text-anchor="middle" x="34" y="-7.5" font-family="FreeSans" font-size="10.00">T</text>
</g>
<!-- Node7&#45;&gt;Node6 -->
<g id="edge7" class="edge"><title>Node7&#45;&gt;Node6</title>
<path fill="none" stroke="#9a32cd" stroke-dasharray="5,2" d="M58.8771,-10C86.6945,-10 133.312,-10 168.38,-10"/>
<polygon fill="#9a32cd" stroke="#9a32cd" points="58.5293,-6.5001 48.5293,-10 58.5292,-13.5001 58.5293,-6.5001"/>
<text text-anchor="middle" x="110.5" y="-13" font-family="FreeSans" font-size="10.00"> elements</text>
</g>
</g>
</svg>
        <g id="navigator" transform="translate(0 0)" fill="#404254">
                <rect fill="#f2f5e9" fill-opacity="0.5" stroke="#606060" stroke-width=".5" x="0" y="0" width="60" height="60"/>
                <use id="zoomplus" xlink:href="#zoomPlus" x="17" y="9" onmousedown="handleZoom(evt,'in')"/>
                <use id="zoomminus" xlink:href="#zoomMin" x="42" y="9" onmousedown="handleZoom(evt,'out')"/>
                <use id="reset" xlink:href="#resetDef" x="30" y="36" onmousedown="handleReset()"/>
                <g id="arrowUp" xlink:href="#dirArrow" transform="translate(30 24)" onmousedown="handlePan(0,-1)">
                  <use xlink:href="#rim" fill="#404040">
                        <set attributeName="fill" to="#808080" begin="arrowUp.mouseover" end="arrowUp.mouseout"/>
                  </use>
                  <path fill="none" stroke="white" stroke-width="1.5" d="M0,-3.0v7 M-2.5,-0.5L0,-3.0L2.5,-0.5"/>
                </g>
                <g id="arrowRight" xlink:href="#dirArrow" transform="rotate(90) translate(36 -43)" onmousedown="handlePan(1,0)">
                  <use xlink:href="#rim" fill="#404040">
                        <set attributeName="fill" to="#808080" begin="arrowRight.mouseover" end="arrowRight.mouseout"/>
                  </use>
                  <path fill="none" stroke="white" stroke-width="1.5" d="M0,-3.0v7 M-2.5,-0.5L0,-3.0L2.5,-0.5"/>
                </g>
                <g id="arrowDown" xlink:href="#dirArrow" transform="rotate(180) translate(-30 -48)" onmousedown="handlePan(0,1)">
                  <use xlink:href="#rim" fill="#404040">
                        <set attributeName="fill" to="#808080" begin="arrowDown.mouseover" end="arrowDown.mouseout"/>
                  </use>
                  <path fill="none" stroke="white" stroke-width="1.5" d="M0,-3.0v7 M-2.5,-0.5L0,-3.0L2.5,-0.5"/>
                </g>
                <g id="arrowLeft" xlink:href="#dirArrow" transform="rotate(270) translate(-36 17)" onmousedown="handlePan(-1,0)">
                  <use xlink:href="#rim" fill="#404040">
                        <set attributeName="fill" to="#808080" begin="arrowLeft.mouseover" end="arrowLeft.mouseout"/>
                  </use>
                  <path fill="none" stroke="white" stroke-width="1.5" d="M0,-3.0v7 M-2.5,-0.5L0,-3.0L2.5,-0.5"/>
                </g>
        </g>
        <svg viewBox="0 0 15 15" width="100%" height="30px" preserveAspectRatio="xMaxYMin meet">
         <g id="arrow_out" transform="scale(0.3 0.3)">
          <a xlink:href="classDGtal_1_1experimental_1_1ChamferNorm2D__coll__graph_org.svg" target="_base">
           <rect id="button" ry="5" rx="5" y="6" x="6" height="38" width="38"
                fill="#f2f5e9" fill-opacity="0.5" stroke="#606060" stroke-width="1.0"/>
           <path id="arrow"
             d="M 11.500037,31.436501 C 11.940474,20.09759 22.043105,11.32322 32.158766,21.979434 L 37.068811,17.246167 C 37.068811,17.246167 37.088388,32 37.088388,32 L 22.160133,31.978069 C 22.160133,31.978069 26.997745,27.140456 26.997745,27.140456 C 18.528582,18.264221 13.291696,25.230495 11.500037,31.436501 z"
             style="fill:#404040;"/>
          </a>
         </g>
        </svg>
</svg>
