<?xml version="1.0" encoding="UTF-8" standalone="no"?>
<!DOCTYPE svg PUBLIC "-//W3C//DTD SVG 1.1//EN"
 "http://www.w3.org/Graphics/SVG/1.1/DTD/svg11.dtd">
<!-- Generated by graphviz version 2.38.0 (20140413.2041)
 -->
<!-- Title: DGtal::VoxelComplex&lt; TKSpace, TCellContainer &gt; Pages: 1 -->
<svg width="276pt" height="185pt"
 viewBox="0.00 0.00 276.00 185.00" xmlns="http://www.w3.org/2000/svg" xmlns:xlink="http://www.w3.org/1999/xlink">
<g id="graph0" class="graph" transform="scale(1 1) rotate(0) translate(4 181)">
<title>DGtal::VoxelComplex&lt; TKSpace, TCellContainer &gt;</title>
<polygon fill="white" stroke="none" points="-4,4 -4,-181 272,-181 272,4 -4,4"/>
<!-- Node0 -->
<g id="node1" class="node"><title>Node0</title>
<polygon fill="#bfbfbf" stroke="black" points="60,-78.5 60,-108.5 215,-108.5 215,-78.5 60,-78.5"/>
<text text-anchor="start" x="68" y="-96.5" font-family="FreeSans" font-size="10.00">DGtal::VoxelComplex</text>
<text text-anchor="middle" x="137.5" y="-85.5" font-family="FreeSans" font-size="10.00">&lt; TKSpace, TCellContainer &gt;</text>
</g>
<!-- Node2 -->
<g id="node3" class="node"><title>Node2</title>
<g id="a_node3"><a xlink:href="classDGtal_1_1VoxelComplex.html" target="_top" xlink:title="DGtal::VoxelComplex\l\&lt; KSpace, FixtureMap \&gt;">
<polygon fill="white" stroke="black" points="0,-0.5 0,-30.5 133,-30.5 133,-0.5 0,-0.5"/>
<text text-anchor="start" x="8" y="-18.5" font-family="FreeSans" font-size="10.00">DGtal::VoxelComplex</text>
<text text-anchor="middle" x="66.5" y="-7.5" font-family="FreeSans" font-size="10.00">&lt; KSpace, FixtureMap &gt;</text>
</a>
</g>
</g>
<!-- Node0&#45;&gt;Node2 -->
<g id="edge2" class="edge"><title>Node0&#45;&gt;Node2</title>
<path fill="none" stroke="orange" stroke-dasharray="5,2" d="M79.9074,-72.9034C75.0762,-69.2907 70.7906,-65.0273 67.5,-60 61.8737,-51.4041 61.9431,-39.6644 63.2444,-30.5473"/>
<polygon fill="orange" stroke="orange" points="78.1649,-75.9436 88.4736,-78.389 81.9399,-70.0487 78.1649,-75.9436"/>
<text text-anchor="middle" x="127.5" y="-52" font-family="FreeSans" font-size="10.00"> &lt; KSpace, FixtureMap &gt;</text>
</g>
<!-- Node3 -->
<g id="node4" class="node"><title>Node3</title>
<g id="a_node4"><a xlink:href="classDGtal_1_1VoxelComplex.html" target="_top" xlink:title="DGtal::VoxelComplex\l\&lt; KSpace \&gt;">
<polygon fill="white" stroke="black" points="151,-0.5 151,-30.5 268,-30.5 268,-0.5 151,-0.5"/>
<text text-anchor="start" x="159" y="-18.5" font-family="FreeSans" font-size="10.00">DGtal::VoxelComplex</text>
<text text-anchor="middle" x="209.5" y="-7.5" font-family="FreeSans" font-size="10.00">&lt; KSpace &gt;</text>
</a>
</g>
</g>
<!-- Node0&#45;&gt;Node3 -->
<g id="edge3" class="edge"><title>Node0&#45;&gt;Node3</title>
<path fill="none" stroke="orange" stroke-dasharray="5,2" d="M172.986,-72.8443C178.23,-69.0106 183.28,-64.7029 187.5,-60 195.187,-51.4335 200.915,-39.692 204.597,-30.5667"/>
<polygon fill="orange" stroke="orange" points="170.998,-69.9639 164.677,-78.467 174.921,-75.7612 170.998,-69.9639"/>
<text text-anchor="middle" x="225.5" y="-52" font-family="FreeSans" font-size="10.00"> &lt; KSpace &gt;</text>
</g>
<!-- Node1 -->
<g id="node2" class="node"><title>Node1</title>
<g id="a_node2"><a xlink:href="classDGtal_1_1CubicalComplex.html" target="_top" xlink:title="Aim: This class represents an arbitrary cubical complex living in some Khalimsky space. Cubical complexes are sets of cells of different dimensions related together with incidence relations. Two cells in a cubical complex are incident if and only if they are incident in the surrounding Khalimsky space. In other words, cubical complexes are defined here as subsets of Khalimsky spaces. ">
<polygon fill="white" stroke="black" points="60,-146.5 60,-176.5 215,-176.5 215,-146.5 60,-146.5"/>
<text text-anchor="start" x="68" y="-164.5" font-family="FreeSans" font-size="10.00">DGtal::CubicalComplex</text>
<text text-anchor="middle" x="137.5" y="-153.5" font-family="FreeSans" font-size="10.00">&lt; TKSpace, TCellContainer &gt;</text>
</a>
</g>
</g>
<!-- Node1&#45;&gt;Node0 -->
<g id="edge1" class="edge"><title>Node1&#45;&gt;Node0</title>
<path fill="none" stroke="midnightblue" d="M137.5,-136.032C137.5,-126.861 137.5,-116.745 137.5,-108.793"/>
<polygon fill="midnightblue" stroke="midnightblue" points="134,-136.179 137.5,-146.179 141,-136.179 134,-136.179"/>
</g>
</g>
</svg>
