<?xml version="1.0" encoding="UTF-8" standalone="no"?>
<!DOCTYPE svg PUBLIC "-//W3C//DTD SVG 1.1//EN"
 "http://www.w3.org/Graphics/SVG/1.1/DTD/svg11.dtd">
<!-- Generated by graphviz version 2.38.0 (20140413.2041)
 -->
<!-- Title: DGtal::ChordGenericNaivePlaneComputer&lt; TSpace, TInputPoint, TInternalScalar &gt; Pages: 1 -->
<svg width="1757pt" height="242pt"
 viewBox="0.00 0.00 1757.00 242.00" xmlns="http://www.w3.org/2000/svg" xmlns:xlink="http://www.w3.org/1999/xlink">
<g id="graph0" class="graph" transform="scale(1 1) rotate(0) translate(4 238)">
<title>DGtal::ChordGenericNaivePlaneComputer&lt; TSpace, TInputPoint, TInternalScalar &gt;</title>
<polygon fill="white" stroke="none" points="-4,4 -4,-238 1753,-238 1753,4 -4,4"/>
<!-- Node1 -->
<g id="node1" class="node"><title>Node1</title>
<polygon fill="#bfbfbf" stroke="black" points="1588,-44.5 1588,-85.5 1749,-85.5 1749,-44.5 1588,-44.5"/>
<text text-anchor="start" x="1596" y="-73.5" font-family="FreeSans" font-size="10.00">DGtal::ChordGenericNaive</text>
<text text-anchor="start" x="1596" y="-62.5" font-family="FreeSans" font-size="10.00">PlaneComputer&lt; TSpace,</text>
<text text-anchor="middle" x="1668.5" y="-51.5" font-family="FreeSans" font-size="10.00"> TInputPoint, TInternalScalar &gt;</text>
</g>
<!-- Node2 -->
<g id="node2" class="node"><title>Node2</title>
<g id="a_node2"><a xlink:href="classDGtal_1_1ChordNaivePlaneComputer.html" target="_top" xlink:title="DGtal::ChordNaivePlaneComputer\l\&lt; Space, InputPoint, InternalScalar \&gt;">
<polygon fill="white" stroke="black" points="1285,-83 1285,-113 1480,-113 1480,-83 1285,-83"/>
<text text-anchor="start" x="1293" y="-101" font-family="FreeSans" font-size="10.00">DGtal::ChordNaivePlaneComputer</text>
<text text-anchor="middle" x="1382.5" y="-90" font-family="FreeSans" font-size="10.00">&lt; Space, InputPoint, InternalScalar &gt;</text>
</a>
</g>
</g>
<!-- Node2&#45;&gt;Node1 -->
<g id="edge1" class="edge"><title>Node2&#45;&gt;Node1</title>
<path fill="none" stroke="#9a32cd" stroke-dasharray="5,2" d="M1490.01,-85.6243C1522.4,-81.8604 1557.42,-77.7906 1587.73,-74.2687"/>
<polygon fill="#9a32cd" stroke="#9a32cd" points="1489.57,-82.1508 1480.05,-86.7817 1490.38,-89.104 1489.57,-82.1508"/>
<text text-anchor="middle" x="1534" y="-88" font-family="FreeSans" font-size="10.00"> myComputers</text>
</g>
<!-- Node3 -->
<g id="node3" class="node"><title>Node3</title>
<polygon fill="white" stroke="#bfbfbf" points="679.5,-61.5 679.5,-80.5 802.5,-80.5 802.5,-61.5 679.5,-61.5"/>
<text text-anchor="middle" x="741" y="-68.5" font-family="FreeSans" font-size="10.00">std::set&lt; InputPoint &gt;</text>
</g>
<!-- Node3&#45;&gt;Node2 -->
<g id="edge2" class="edge"><title>Node3&#45;&gt;Node2</title>
<path fill="none" stroke="#9a32cd" stroke-dasharray="5,2" d="M812.842,-70.1355C893.73,-69.5524 1030,-69.7997 1147,-76 1192.43,-78.4073 1242.66,-82.8771 1284.94,-87.1621"/>
<polygon fill="#9a32cd" stroke="#9a32cd" points="812.746,-66.6361 802.773,-70.2145 812.801,-73.6359 812.746,-66.6361"/>
<text text-anchor="middle" x="1041.5" y="-79" font-family="FreeSans" font-size="10.00"> myPointSet</text>
</g>
<!-- Node10 -->
<g id="node10" class="node"><title>Node10</title>
<g id="a_node10"><a xlink:href="classDGtal_1_1ChordNaivePlaneComputer.html" target="_top" xlink:title="Aim: A class that contains the chord&#45;based algorithm for recognizing pieces of digital planes of give...">
<polygon fill="white" stroke="black" points="936,-97 936,-127 1147,-127 1147,-97 936,-97"/>
<text text-anchor="start" x="944" y="-115" font-family="FreeSans" font-size="10.00">DGtal::ChordNaivePlaneComputer</text>
<text text-anchor="middle" x="1041.5" y="-104" font-family="FreeSans" font-size="10.00">&lt; TSpace, TInputPoint, TInternalScalar &gt;</text>
</a>
</g>
</g>
<!-- Node3&#45;&gt;Node10 -->
<g id="edge13" class="edge"><title>Node3&#45;&gt;Node10</title>
<path fill="none" stroke="#9a32cd" stroke-dasharray="5,2" d="M812.867,-80.7338C849.548,-85.7721 895.049,-92.0218 935.706,-97.6062"/>
<polygon fill="#9a32cd" stroke="#9a32cd" points="813.149,-77.2398 802.766,-79.3464 812.196,-84.1747 813.149,-77.2398"/>
<text text-anchor="middle" x="888.5" y="-99" font-family="FreeSans" font-size="10.00"> myPointSet</text>
</g>
<!-- Node4 -->
<g id="node4" class="node"><title>Node4</title>
<g id="a_node4"><a xlink:title="STL class. ">
<polygon fill="white" stroke="#bfbfbf" points="432,-61.5 432,-80.5 513,-80.5 513,-61.5 432,-61.5"/>
<text text-anchor="middle" x="472.5" y="-68.5" font-family="FreeSans" font-size="10.00">std::set&lt; K &gt;</text>
</a>
</g>
</g>
<!-- Node4&#45;&gt;Node3 -->
<g id="edge3" class="edge"><title>Node4&#45;&gt;Node3</title>
<path fill="none" stroke="orange" stroke-dasharray="5,2" d="M523.326,-71C567.53,-71 632.223,-71 679.408,-71"/>
<polygon fill="orange" stroke="orange" points="523.11,-67.5001 513.11,-71 523.11,-74.5001 523.11,-67.5001"/>
<text text-anchor="middle" x="586" y="-74" font-family="FreeSans" font-size="10.00"> &lt; InputPoint &gt;</text>
</g>
<!-- Node5 -->
<g id="node5" class="node"><title>Node5</title>
<polygon fill="white" stroke="#bfbfbf" points="196.5,-61.5 196.5,-80.5 225.5,-80.5 225.5,-61.5 196.5,-61.5"/>
<text text-anchor="middle" x="211" y="-68.5" font-family="FreeSans" font-size="10.00">K</text>
</g>
<!-- Node5&#45;&gt;Node4 -->
<g id="edge4" class="edge"><title>Node5&#45;&gt;Node4</title>
<path fill="none" stroke="#9a32cd" stroke-dasharray="5,2" d="M235.745,-71C280.344,-71 377.054,-71 431.74,-71"/>
<polygon fill="#9a32cd" stroke="#9a32cd" points="235.587,-67.5001 225.586,-71 235.586,-74.5001 235.587,-67.5001"/>
<text text-anchor="middle" x="344" y="-74" font-family="FreeSans" font-size="10.00"> keys</text>
</g>
<!-- Node6 -->
<g id="node6" class="node"><title>Node6</title>
<g id="a_node6"><a xlink:href="structDGtal_1_1ChordNaivePlaneComputer_1_1State.html" target="_top" xlink:title="DGtal::ChordNaivePlaneComputer\l\&lt; TSpace, TInputPoint, TInternalScalar\l \&gt;::State">
<polygon fill="white" stroke="black" points="641,-176.5 641,-217.5 841,-217.5 841,-176.5 641,-176.5"/>
<text text-anchor="start" x="649" y="-205.5" font-family="FreeSans" font-size="10.00">DGtal::ChordNaivePlaneComputer</text>
<text text-anchor="start" x="649" y="-194.5" font-family="FreeSans" font-size="10.00">&lt; TSpace, TInputPoint, TInternalScalar</text>
<text text-anchor="middle" x="741" y="-183.5" font-family="FreeSans" font-size="10.00"> &gt;::State</text>
</a>
</g>
</g>
<!-- Node6&#45;&gt;Node2 -->
<g id="edge5" class="edge"><title>Node6&#45;&gt;Node2</title>
<path fill="none" stroke="#9a32cd" stroke-dasharray="5,2" d="M851.351,-200.075C873.447,-199.831 896.493,-198.956 918,-197 1075.05,-182.719 1113.79,-170.334 1267,-133 1290.22,-127.341 1315.69,-119.703 1336.69,-113.007"/>
<polygon fill="#9a32cd" stroke="#9a32cd" points="851.25,-196.575 841.274,-200.143 851.298,-203.575 851.25,-196.575"/>
<text text-anchor="middle" x="1041.5" y="-209" font-family="FreeSans" font-size="10.00"> _state</text>
<text text-anchor="middle" x="1041.5" y="-198" font-family="FreeSans" font-size="10.00">myState</text>
</g>
<!-- Node6&#45;&gt;Node10 -->
<g id="edge14" class="edge"><title>Node6&#45;&gt;Node10</title>
<path fill="none" stroke="#9a32cd" stroke-dasharray="5,2" d="M849.392,-174.073C872.171,-168.627 895.981,-162.495 918,-156 946.61,-147.56 978.285,-136.126 1002.26,-127.029"/>
<polygon fill="#9a32cd" stroke="#9a32cd" points="848.283,-170.738 839.356,-176.444 849.893,-177.55 848.283,-170.738"/>
<text text-anchor="middle" x="888.5" y="-185" font-family="FreeSans" font-size="10.00"> _state</text>
<text text-anchor="middle" x="888.5" y="-174" font-family="FreeSans" font-size="10.00">myState</text>
</g>
<!-- Node7 -->
<g id="node7" class="node"><title>Node7</title>
<g id="a_node7"><a xlink:href="classDGtal_1_1PointVector.html" target="_top" xlink:title="DGtal::PointVector\l\&lt; 3, InternalScalar \&gt;">
<polygon fill="white" stroke="black" points="414,-182 414,-212 531,-212 531,-182 414,-182"/>
<text text-anchor="start" x="422" y="-200" font-family="FreeSans" font-size="10.00">DGtal::PointVector</text>
<text text-anchor="middle" x="472.5" y="-189" font-family="FreeSans" font-size="10.00">&lt; 3, InternalScalar &gt;</text>
</a>
</g>
</g>
<!-- Node7&#45;&gt;Node6 -->
<g id="edge6" class="edge"><title>Node7&#45;&gt;Node6</title>
<path fill="none" stroke="#9a32cd" stroke-dasharray="5,2" d="M541.33,-197C571.539,-197 607.715,-197 640.869,-197"/>
<polygon fill="#9a32cd" stroke="#9a32cd" points="541.327,-193.5 531.327,-197 541.326,-200.5 541.327,-193.5"/>
<text text-anchor="middle" x="586" y="-200" font-family="FreeSans" font-size="10.00"> N</text>
</g>
<!-- Node8 -->
<g id="node8" class="node"><title>Node8</title>
<polygon fill="white" stroke="#bfbfbf" points="0,-211.5 0,-230.5 68,-230.5 68,-211.5 0,-211.5"/>
<text text-anchor="middle" x="34" y="-218.5" font-family="FreeSans" font-size="10.00">TContainer</text>
</g>
<!-- Node8&#45;&gt;Node7 -->
<g id="edge7" class="edge"><title>Node8&#45;&gt;Node7</title>
<path fill="none" stroke="#9a32cd" stroke-dasharray="5,2" d="M78.3566,-221.473C99.3833,-221.68 125.007,-221.898 148,-222 203.999,-222.248 218.111,-225.523 274,-222 321.256,-219.021 374.496,-212.071 413.781,-206.253"/>
<polygon fill="#9a32cd" stroke="#9a32cd" points="78.1626,-217.971 68.1278,-221.37 78.0919,-224.971 78.1626,-217.971"/>
<text text-anchor="middle" x="211" y="-226" font-family="FreeSans" font-size="10.00"> myArray</text>
</g>
<!-- Node9 -->
<g id="node9" class="node"><title>Node9</title>
<g id="a_node9"><a xlink:href="classDGtal_1_1PointVector.html" target="_top" xlink:title="Aim: Implements basic operations that will be used in Point and Vector classes. ">
<polygon fill="white" stroke="black" points="148,-142.5 148,-183.5 274,-183.5 274,-142.5 148,-142.5"/>
<text text-anchor="start" x="156" y="-171.5" font-family="FreeSans" font-size="10.00">DGtal::PointVector</text>
<text text-anchor="start" x="156" y="-160.5" font-family="FreeSans" font-size="10.00">&lt; dim, TEuclideanRing,</text>
<text text-anchor="middle" x="211" y="-149.5" font-family="FreeSans" font-size="10.00"> TContainer &gt;</text>
</a>
</g>
</g>
<!-- Node8&#45;&gt;Node9 -->
<g id="edge9" class="edge"><title>Node8&#45;&gt;Node9</title>
<path fill="none" stroke="#9a32cd" stroke-dasharray="5,2" d="M73.4757,-208.248C95.3137,-201.01 123.167,-191.779 148.013,-183.544"/>
<polygon fill="#9a32cd" stroke="#9a32cd" points="72.2888,-204.954 63.8977,-211.422 74.4911,-211.599 72.2888,-204.954"/>
<text text-anchor="middle" x="108" y="-206" font-family="FreeSans" font-size="10.00"> myArray</text>
</g>
<!-- Node9&#45;&gt;Node7 -->
<g id="edge8" class="edge"><title>Node9&#45;&gt;Node7</title>
<path fill="none" stroke="#9a32cd" stroke-dasharray="5,2" d="M284.401,-173.949C286.965,-174.309 289.504,-174.66 292,-175 332.597,-180.532 378.449,-186.141 413.649,-190.31"/>
<polygon fill="#9a32cd" stroke="#9a32cd" points="284.822,-170.474 274.429,-172.53 283.836,-177.404 284.822,-170.474"/>
<text text-anchor="middle" x="344" y="-190" font-family="FreeSans" font-size="10.00"> zero</text>
</g>
<!-- Node9&#45;&gt;Node7 -->
<g id="edge11" class="edge"><title>Node9&#45;&gt;Node7</title>
<path fill="none" stroke="orange" stroke-dasharray="5,2" d="M284.432,-155.27C318.641,-153.477 359.813,-154.02 396,-162 413.636,-165.889 432.05,-174.325 446.277,-181.94"/>
<polygon fill="orange" stroke="orange" points="283.824,-151.801 274.052,-155.896 284.245,-158.788 283.824,-151.801"/>
<text text-anchor="middle" x="344" y="-165" font-family="FreeSans" font-size="10.00"> &lt; 3, InternalScalar &gt;</text>
</g>
<!-- Node9&#45;&gt;Node9 -->
<g id="edge10" class="edge"><title>Node9&#45;&gt;Node9</title>
<path fill="none" stroke="#9a32cd" stroke-dasharray="5,2" d="M193.452,-193.856C196.061,-198.697 201.911,-202 211,-202 225.543,-202 231.792,-193.543 229.747,-183.864"/>
<polygon fill="#9a32cd" stroke="#9a32cd" points="196.919,-193.376 192.253,-183.864 189.969,-194.21 196.919,-193.376"/>
<text text-anchor="middle" x="211" y="-205" font-family="FreeSans" font-size="10.00"> zero</text>
</g>
<!-- Node10&#45;&gt;Node2 -->
<g id="edge12" class="edge"><title>Node10&#45;&gt;Node2</title>
<path fill="none" stroke="orange" stroke-dasharray="5,2" d="M1157.57,-107.248C1198.96,-105.539 1245.19,-103.629 1284.84,-101.992"/>
<polygon fill="orange" stroke="orange" points="1157.29,-103.756 1147.44,-107.666 1157.58,-110.75 1157.29,-103.756"/>
<text text-anchor="start" x="1165" y="-121" font-family="FreeSans" font-size="10.00"> &lt; Space, InputPoint,</text>
<text text-anchor="middle" x="1216" y="-110" font-family="FreeSans" font-size="10.00"> InternalScalar &gt;</text>
</g>
<!-- Node11 -->
<g id="node11" class="node"><title>Node11</title>
<polygon fill="white" stroke="#bfbfbf" points="697,-113.5 697,-132.5 785,-132.5 785,-113.5 697,-113.5"/>
<text text-anchor="middle" x="741" y="-120.5" font-family="FreeSans" font-size="10.00">TInternalScalar</text>
</g>
<!-- Node11&#45;&gt;Node10 -->
<g id="edge15" class="edge"><title>Node11&#45;&gt;Node10</title>
<path fill="none" stroke="#9a32cd" stroke-dasharray="5,2" d="M795.156,-121.041C834.139,-119.605 888.338,-117.607 935.882,-115.855"/>
<polygon fill="#9a32cd" stroke="#9a32cd" points="794.95,-117.546 785.086,-121.412 795.208,-124.542 794.95,-117.546"/>
<text text-anchor="middle" x="888.5" y="-144" font-family="FreeSans" font-size="10.00"> myWidth0</text>
<text text-anchor="middle" x="888.5" y="-133" font-family="FreeSans" font-size="10.00">myWidth1</text>
<text text-anchor="middle" x="888.5" y="-122" font-family="FreeSans" font-size="10.00">_d</text>
</g>
<!-- Node12 -->
<g id="node12" class="node"><title>Node12</title>
<polygon fill="white" stroke="#bfbfbf" points="1312,-28.5 1312,-47.5 1453,-47.5 1453,-28.5 1312,-28.5"/>
<text text-anchor="middle" x="1382.5" y="-35.5" font-family="FreeSans" font-size="10.00">std::vector&lt; Dimension &gt;</text>
</g>
<!-- Node12&#45;&gt;Node1 -->
<g id="edge16" class="edge"><title>Node12&#45;&gt;Node1</title>
<path fill="none" stroke="#9a32cd" stroke-dasharray="5,2" d="M1463.32,-38.1095C1496.42,-38.9033 1535.16,-40.8022 1570,-45 1575.83,-45.7028 1581.84,-46.5718 1587.86,-47.5503"/>
<polygon fill="#9a32cd" stroke="#9a32cd" points="1463.31,-34.6086 1453.24,-37.8973 1463.16,-41.6071 1463.31,-34.6086"/>
<text text-anchor="middle" x="1534" y="-59" font-family="FreeSans" font-size="10.00"> _axesToErase</text>
<text text-anchor="middle" x="1534" y="-48" font-family="FreeSans" font-size="10.00">myAxes</text>
</g>
<!-- Node13 -->
<g id="node13" class="node"><title>Node13</title>
<g id="a_node13"><a xlink:title="STL class. ">
<polygon fill="white" stroke="#bfbfbf" points="994,-0.5 994,-19.5 1089,-19.5 1089,-0.5 994,-0.5"/>
<text text-anchor="middle" x="1041.5" y="-7.5" font-family="FreeSans" font-size="10.00">std::vector&lt; T &gt;</text>
</a>
</g>
</g>
<!-- Node13&#45;&gt;Node12 -->
<g id="edge17" class="edge"><title>Node13&#45;&gt;Node12</title>
<path fill="none" stroke="orange" stroke-dasharray="5,2" d="M1099.46,-14.7046C1158.01,-19.5404 1249.24,-27.0755 1311.99,-32.2592"/>
<polygon fill="orange" stroke="orange" points="1099.53,-11.199 1089.28,-13.8639 1098.96,-18.1753 1099.53,-11.199"/>
<text text-anchor="middle" x="1216" y="-32" font-family="FreeSans" font-size="10.00"> &lt; Dimension &gt;</text>
</g>
<!-- Node14 -->
<g id="node14" class="node"><title>Node14</title>
<polygon fill="white" stroke="#bfbfbf" points="726.5,-0.5 726.5,-19.5 755.5,-19.5 755.5,-0.5 726.5,-0.5"/>
<text text-anchor="middle" x="741" y="-7.5" font-family="FreeSans" font-size="10.00">T</text>
</g>
<!-- Node14&#45;&gt;Node13 -->
<g id="edge18" class="edge"><title>Node14&#45;&gt;Node13</title>
<path fill="none" stroke="#9a32cd" stroke-dasharray="5,2" d="M765.911,-10C815.295,-10 929.32,-10 993.826,-10"/>
<polygon fill="#9a32cd" stroke="#9a32cd" points="765.602,-6.5001 755.602,-10 765.602,-13.5001 765.602,-6.5001"/>
<text text-anchor="middle" x="888.5" y="-13" font-family="FreeSans" font-size="10.00"> elements</text>
</g>
</g>
</svg>
