<?xml version="1.0" encoding="UTF-8" standalone="no"?>
<!DOCTYPE svg PUBLIC "-//W3C//DTD SVG 1.1//EN"
 "http://www.w3.org/Graphics/SVG/1.1/DTD/svg11.dtd">
<!-- Generated by graphviz version 2.38.0 (20140413.2041)
 -->
<!-- Title: DGtal::IntegerSequenceIterator&lt; TInteger &gt; Pages: 1 -->
<svg width="477pt" height="100pt"
 viewBox="0.00 0.00 477.00 99.50" xmlns="http://www.w3.org/2000/svg" xmlns:xlink="http://www.w3.org/1999/xlink">
<g id="graph0" class="graph" transform="scale(1 1) rotate(0) translate(4 95.5)">
<title>DGtal::IntegerSequenceIterator&lt; TInteger &gt;</title>
<polygon fill="white" stroke="none" points="-4,4 -4,-95.5 473,-95.5 473,4 -4,4"/>
<!-- Node2 -->
<g id="node1" class="node"><title>Node2</title>
<polygon fill="#bfbfbf" stroke="black" points="302,-22 302,-52 469,-52 469,-22 302,-22"/>
<text text-anchor="start" x="310" y="-40" font-family="FreeSans" font-size="10.00">DGtal::IntegerSequenceIterator</text>
<text text-anchor="middle" x="385.5" y="-29" font-family="FreeSans" font-size="10.00">&lt; TInteger &gt;</text>
</g>
<!-- Node3 -->
<g id="node2" class="node"><title>Node3</title>
<polygon fill="white" stroke="#bfbfbf" points="0,-39 0,-91 208,-91 208,-39 0,-39"/>
<text text-anchor="start" x="8" y="-79" font-family="FreeSans" font-size="10.00">boost::iterator_facade</text>
<text text-anchor="start" x="8" y="-68" font-family="FreeSans" font-size="10.00">&lt; IntegerSequenceIterator</text>
<text text-anchor="start" x="8" y="-57" font-family="FreeSans" font-size="10.00">&lt; TInteger &gt;, TInteger const,</text>
<text text-anchor="middle" x="104" y="-46" font-family="FreeSans" font-size="10.00"> boost::random_access_traversal_tag &gt;</text>
</g>
<!-- Node3&#45;&gt;Node2 -->
<g id="edge1" class="edge"><title>Node3&#45;&gt;Node2</title>
<path fill="none" stroke="midnightblue" d="M218.467,-53.633C246.314,-50.8433 275.606,-47.9089 301.702,-45.2947"/>
<polygon fill="midnightblue" stroke="midnightblue" points="217.883,-50.1739 208.281,-54.6534 218.58,-57.1391 217.883,-50.1739"/>
</g>
<!-- Node4 -->
<g id="node3" class="node"><title>Node4</title>
<polygon fill="white" stroke="#bfbfbf" points="76,-0.5 76,-19.5 132,-19.5 132,-0.5 76,-0.5"/>
<text text-anchor="middle" x="104" y="-7.5" font-family="FreeSans" font-size="10.00">TInteger</text>
</g>
<!-- Node4&#45;&gt;Node2 -->
<g id="edge2" class="edge"><title>Node4&#45;&gt;Node2</title>
<path fill="none" stroke="#9a32cd" stroke-dasharray="5,2" d="M142.02,-13.5762C182.521,-17.4886 248.734,-23.8849 301.745,-29.0057"/>
<polygon fill="#9a32cd" stroke="#9a32cd" points="142.344,-10.0912 132.054,-12.6134 141.671,-17.0588 142.344,-10.0912"/>
<text text-anchor="middle" x="255" y="-30" font-family="FreeSans" font-size="10.00"> myNumber</text>
</g>
</g>
</svg>
