<?xml version="1.0" encoding="UTF-8" standalone="no"?>
<!DOCTYPE svg PUBLIC "-//W3C//DTD SVG 1.1//EN"
 "http://www.w3.org/Graphics/SVG/1.1/DTD/svg11.dtd">
<!-- Generated by graphviz version 2.38.0 (20140413.2041)
 -->
<!-- Title: DGtal::ImplicitDigitalSurface&lt; TKSpace, TPointPredicate &gt;::Tracker Pages: 1 -->
<svg width="2089pt" height="221pt"
 viewBox="0.00 0.00 2089.00 221.29" xmlns="http://www.w3.org/2000/svg" xmlns:xlink="http://www.w3.org/1999/xlink">
<g id="graph0" class="graph" transform="scale(1 1) rotate(0) translate(4 217.29)">
<title>DGtal::ImplicitDigitalSurface&lt; TKSpace, TPointPredicate &gt;::Tracker</title>
<polygon fill="white" stroke="none" points="-4,4 -4,-217.29 2085,-217.29 2085,4 -4,4"/>
<!-- Node1 -->
<g id="node1" class="node"><title>Node1</title>
<polygon fill="#bfbfbf" stroke="black" points="1931,-88.7904 1931,-129.79 2081,-129.79 2081,-88.7904 1931,-88.7904"/>
<text text-anchor="start" x="1939" y="-117.79" font-family="FreeSans" font-size="10.00">DGtal::ImplicitDigitalSurface</text>
<text text-anchor="start" x="1939" y="-106.79" font-family="FreeSans" font-size="10.00">&lt; TKSpace, TPointPredicate</text>
<text text-anchor="middle" x="2006" y="-95.7904" font-family="FreeSans" font-size="10.00"> &gt;::Tracker</text>
</g>
<!-- Node2 -->
<g id="node2" class="node"><title>Node2</title>
<g id="a_node2"><a xlink:href="classDGtal_1_1SurfelNeighborhood.html" target="_top" xlink:title="DGtal::SurfelNeighborhood\l\&lt; KSpace \&gt;">
<polygon fill="white" stroke="black" points="1656,-68.2904 1656,-98.2904 1801,-98.2904 1801,-68.2904 1656,-68.2904"/>
<text text-anchor="start" x="1664" y="-86.2904" font-family="FreeSans" font-size="10.00">DGtal::SurfelNeighborhood</text>
<text text-anchor="middle" x="1728.5" y="-75.2904" font-family="FreeSans" font-size="10.00">&lt; KSpace &gt;</text>
</a>
</g>
</g>
<!-- Node2&#45;&gt;Node1 -->
<g id="edge1" class="edge"><title>Node2&#45;&gt;Node1</title>
<path fill="none" stroke="#9a32cd" stroke-dasharray="5,2" d="M1811.16,-90.9969C1849.09,-94.5763 1893.86,-98.8015 1930.81,-102.289"/>
<polygon fill="#9a32cd" stroke="#9a32cd" points="1811.45,-87.5089 1801.17,-90.0538 1810.79,-94.4779 1811.45,-87.5089"/>
<text text-anchor="middle" x="1870" y="-103.29" font-family="FreeSans" font-size="10.00"> myNeighborhood</text>
</g>
<!-- Node3 -->
<g id="node3" class="node"><title>Node3</title>
<g id="a_node3"><a xlink:href="structDGtal_1_1SignedKhalimskyCell.html" target="_top" xlink:title="Represents a signed cell in a cellular grid space by its Khalimsky coordinates and a boolean value...">
<polygon fill="white" stroke="black" points="1160,-120.29 1160,-150.29 1308,-150.29 1308,-120.29 1160,-120.29"/>
<text text-anchor="start" x="1168" y="-138.29" font-family="FreeSans" font-size="10.00">DGtal::SignedKhalimskyCell</text>
<text text-anchor="middle" x="1234" y="-127.29" font-family="FreeSans" font-size="10.00">&lt; dim, TInteger &gt;</text>
</a>
</g>
</g>
<!-- Node3&#45;&gt;Node2 -->
<g id="edge2" class="edge"><title>Node3&#45;&gt;Node2</title>
<path fill="none" stroke="#9a32cd" stroke-dasharray="5,2" d="M1318.39,-129.376C1398.48,-123.247 1522.79,-112.562 1630,-98.2904 1638.4,-97.1718 1647.2,-95.9249 1655.93,-94.6413"/>
<polygon fill="#9a32cd" stroke="#9a32cd" points="1318.06,-125.89 1308.36,-130.137 1318.59,-132.87 1318.06,-125.89"/>
<text text-anchor="middle" x="1477.5" y="-125.29" font-family="FreeSans" font-size="10.00"> mySurfel</text>
</g>
<!-- Node11 -->
<g id="node11" class="node"><title>Node11</title>
<g id="a_node11"><a xlink:href="classDGtal_1_1SurfelNeighborhood.html" target="_top" xlink:title="Aim: This helper class is useful to compute the neighboring surfels of a given surfel, especially over a digital surface or over an object boundary. Two signed surfels are incident if they share a common n&#45;2 cell. This class uses a SurfelAdjacency so as to determine adjacent surfels (either looking for them from interior to exterior or inversely). ">
<polygon fill="white" stroke="black" points="1405,-68.2904 1405,-98.2904 1550,-98.2904 1550,-68.2904 1405,-68.2904"/>
<text text-anchor="start" x="1413" y="-86.2904" font-family="FreeSans" font-size="10.00">DGtal::SurfelNeighborhood</text>
<text text-anchor="middle" x="1477.5" y="-75.2904" font-family="FreeSans" font-size="10.00">&lt; TKSpace &gt;</text>
</a>
</g>
</g>
<!-- Node3&#45;&gt;Node11 -->
<g id="edge15" class="edge"><title>Node3&#45;&gt;Node11</title>
<path fill="none" stroke="#9a32cd" stroke-dasharray="5,2" d="M1296.49,-117.587C1306.32,-114.99 1316.41,-112.463 1326,-110.29 1351.5,-104.513 1379.66,-99.1837 1404.65,-94.8138"/>
<polygon fill="#9a32cd" stroke="#9a32cd" points="1295.52,-114.223 1286.77,-120.196 1297.33,-120.983 1295.52,-114.223"/>
<text text-anchor="middle" x="1356.5" y="-113.29" font-family="FreeSans" font-size="10.00"> mySurfel</text>
</g>
<!-- Node13 -->
<g id="node13" class="node"><title>Node13</title>
<polygon fill="white" stroke="#bfbfbf" points="1418.5,-164.79 1418.5,-183.79 1536.5,-183.79 1536.5,-164.79 1418.5,-164.79"/>
<text text-anchor="middle" x="1477.5" y="-171.79" font-family="FreeSans" font-size="10.00">std::vector&lt; Surfel &gt;</text>
</g>
<!-- Node3&#45;&gt;Node13 -->
<g id="edge19" class="edge"><title>Node3&#45;&gt;Node13</title>
<path fill="none" stroke="#9a32cd" stroke-dasharray="5,2" d="M1318.19,-148.725C1351.12,-154.043 1388.19,-160.03 1418.18,-164.873"/>
<polygon fill="#9a32cd" stroke="#9a32cd" points="1318.54,-145.237 1308.11,-147.098 1317.43,-152.147 1318.54,-145.237"/>
<text text-anchor="middle" x="1356.5" y="-163.29" font-family="FreeSans" font-size="10.00"> elements</text>
</g>
<!-- Node4 -->
<g id="node4" class="node"><title>Node4</title>
<g id="a_node4"><a xlink:href="structDGtal_1_1SignedKhalimskyPreCell.html" target="_top" xlink:title="DGtal::SignedKhalimskyPre\lCell\&lt; dim, Integer \&gt;">
<polygon fill="white" stroke="black" points="860,-120.29 860,-150.29 1006,-150.29 1006,-120.29 860,-120.29"/>
<text text-anchor="start" x="868" y="-138.29" font-family="FreeSans" font-size="10.00">DGtal::SignedKhalimskyPre</text>
<text text-anchor="middle" x="933" y="-127.29" font-family="FreeSans" font-size="10.00">Cell&lt; dim, Integer &gt;</text>
</a>
</g>
</g>
<!-- Node4&#45;&gt;Node3 -->
<g id="edge3" class="edge"><title>Node4&#45;&gt;Node3</title>
<path fill="none" stroke="#9a32cd" stroke-dasharray="5,2" d="M1016.4,-135.29C1061.37,-135.29 1116.57,-135.29 1159.99,-135.29"/>
<polygon fill="#9a32cd" stroke="#9a32cd" points="1016.38,-131.791 1006.38,-135.29 1016.38,-138.791 1016.38,-131.791"/>
<text text-anchor="middle" x="1083" y="-138.29" font-family="FreeSans" font-size="10.00"> mySPreCell</text>
</g>
<!-- Node5 -->
<g id="node5" class="node"><title>Node5</title>
<g id="a_node5"><a xlink:href="classDGtal_1_1PointVector.html" target="_top" xlink:title="DGtal::PointVector\l\&lt; dim, Integer \&gt;">
<polygon fill="white" stroke="black" points="394,-126.29 394,-156.29 498,-156.29 498,-126.29 394,-126.29"/>
<text text-anchor="start" x="402" y="-144.29" font-family="FreeSans" font-size="10.00">DGtal::PointVector</text>
<text text-anchor="middle" x="446" y="-133.29" font-family="FreeSans" font-size="10.00">&lt; dim, Integer &gt;</text>
</a>
</g>
</g>
<!-- Node5&#45;&gt;Node4 -->
<g id="edge4" class="edge"><title>Node5&#45;&gt;Node4</title>
<path fill="none" stroke="#9a32cd" stroke-dasharray="5,2" d="M508.229,-141.726C585.882,-142.108 723.901,-142.213 842,-139.29 847.785,-139.147 853.778,-138.962 859.798,-138.75"/>
<polygon fill="#9a32cd" stroke="#9a32cd" points="508.16,-138.226 498.142,-141.674 508.123,-145.226 508.16,-138.226"/>
<text text-anchor="middle" x="667" y="-145.29" font-family="FreeSans" font-size="10.00"> coordinates</text>
</g>
<!-- Node8 -->
<g id="node8" class="node"><title>Node8</title>
<g id="a_node8"><a xlink:href="structDGtal_1_1SignedKhalimskyPreCell.html" target="_top" xlink:title="Represents a signed cell in an unbounded cellular grid space by its Khalimsky coordinates and a boole...">
<polygon fill="white" stroke="black" points="594,-87.2904 594,-117.29 740,-117.29 740,-87.2904 594,-87.2904"/>
<text text-anchor="start" x="602" y="-105.29" font-family="FreeSans" font-size="10.00">DGtal::SignedKhalimskyPre</text>
<text text-anchor="middle" x="667" y="-94.2904" font-family="FreeSans" font-size="10.00">Cell&lt; dim, TInteger &gt;</text>
</a>
</g>
</g>
<!-- Node5&#45;&gt;Node8 -->
<g id="edge11" class="edge"><title>Node5&#45;&gt;Node8</title>
<path fill="none" stroke="#9a32cd" stroke-dasharray="5,2" d="M508.003,-130.427C534.576,-125.695 565.926,-120.112 593.665,-115.172"/>
<polygon fill="#9a32cd" stroke="#9a32cd" points="507.301,-126.997 498.069,-132.196 508.528,-133.888 507.301,-126.997"/>
<text text-anchor="middle" x="546" y="-132.29" font-family="FreeSans" font-size="10.00"> coordinates</text>
</g>
<!-- Node6 -->
<g id="node6" class="node"><title>Node6</title>
<polygon fill="white" stroke="#bfbfbf" points="0,-155.79 0,-174.79 68,-174.79 68,-155.79 0,-155.79"/>
<text text-anchor="middle" x="34" y="-162.79" font-family="FreeSans" font-size="10.00">TContainer</text>
</g>
<!-- Node6&#45;&gt;Node5 -->
<g id="edge5" class="edge"><title>Node6&#45;&gt;Node5</title>
<path fill="none" stroke="#9a32cd" stroke-dasharray="5,2" d="M78.3566,-165.764C99.3833,-165.971 125.007,-166.189 148,-166.29 203.999,-166.538 218.147,-170.352 274,-166.29 314.547,-163.342 360.078,-156.511 393.957,-150.733"/>
<polygon fill="#9a32cd" stroke="#9a32cd" points="78.1626,-162.262 68.1278,-165.661 78.0919,-169.261 78.1626,-162.262"/>
<text text-anchor="middle" x="211" y="-171.29" font-family="FreeSans" font-size="10.00"> myArray</text>
</g>
<!-- Node7 -->
<g id="node7" class="node"><title>Node7</title>
<g id="a_node7"><a xlink:href="classDGtal_1_1PointVector.html" target="_top" xlink:title="Aim: Implements basic operations that will be used in Point and Vector classes. ">
<polygon fill="white" stroke="black" points="148,-86.7904 148,-127.79 274,-127.79 274,-86.7904 148,-86.7904"/>
<text text-anchor="start" x="156" y="-115.79" font-family="FreeSans" font-size="10.00">DGtal::PointVector</text>
<text text-anchor="start" x="156" y="-104.79" font-family="FreeSans" font-size="10.00">&lt; dim, TEuclideanRing,</text>
<text text-anchor="middle" x="211" y="-93.7904" font-family="FreeSans" font-size="10.00"> TContainer &gt;</text>
</a>
</g>
</g>
<!-- Node6&#45;&gt;Node7 -->
<g id="edge7" class="edge"><title>Node6&#45;&gt;Node7</title>
<path fill="none" stroke="#9a32cd" stroke-dasharray="5,2" d="M73.4757,-152.538C95.3137,-145.301 123.167,-136.069 148.013,-127.835"/>
<polygon fill="#9a32cd" stroke="#9a32cd" points="72.2888,-149.245 63.8977,-155.713 74.4911,-155.889 72.2888,-149.245"/>
<text text-anchor="middle" x="108" y="-151.29" font-family="FreeSans" font-size="10.00"> myArray</text>
</g>
<!-- Node7&#45;&gt;Node5 -->
<g id="edge6" class="edge"><title>Node7&#45;&gt;Node5</title>
<path fill="none" stroke="#9a32cd" stroke-dasharray="5,2" d="M283.942,-118.103C286.662,-118.505 289.356,-118.902 292,-119.29 325.985,-124.283 364.235,-129.783 393.989,-134.035"/>
<polygon fill="#9a32cd" stroke="#9a32cd" points="284.418,-114.635 274.012,-116.63 283.391,-121.559 284.418,-114.635"/>
<text text-anchor="middle" x="334" y="-135.29" font-family="FreeSans" font-size="10.00"> zero</text>
</g>
<!-- Node7&#45;&gt;Node5 -->
<g id="edge9" class="edge"><title>Node7&#45;&gt;Node5</title>
<path fill="none" stroke="orange" stroke-dasharray="5,2" d="M284.333,-99.4487C313.203,-98.2277 346.522,-99.2416 376,-106.29 392.33,-110.195 409.163,-118.631 422.116,-126.243"/>
<polygon fill="orange" stroke="orange" points="284.127,-95.9546 274.321,-99.9676 284.489,-102.945 284.127,-95.9546"/>
<text text-anchor="middle" x="334" y="-109.29" font-family="FreeSans" font-size="10.00"> &lt; dim, Integer &gt;</text>
</g>
<!-- Node7&#45;&gt;Node7 -->
<g id="edge8" class="edge"><title>Node7&#45;&gt;Node7</title>
<path fill="none" stroke="#9a32cd" stroke-dasharray="5,2" d="M193.452,-138.146C196.061,-142.987 201.911,-146.29 211,-146.29 225.543,-146.29 231.792,-137.834 229.747,-128.155"/>
<polygon fill="#9a32cd" stroke="#9a32cd" points="196.919,-137.667 192.253,-128.155 189.969,-138.501 196.919,-137.667"/>
<text text-anchor="middle" x="211" y="-149.29" font-family="FreeSans" font-size="10.00"> zero</text>
</g>
<!-- Node8&#45;&gt;Node4 -->
<g id="edge10" class="edge"><title>Node8&#45;&gt;Node4</title>
<path fill="none" stroke="orange" stroke-dasharray="5,2" d="M750.363,-112.586C785.468,-116.974 826.056,-122.047 859.948,-126.284"/>
<polygon fill="orange" stroke="orange" points="750.496,-109.075 740.139,-111.308 749.628,-116.021 750.496,-109.075"/>
<text text-anchor="middle" x="800" y="-127.29" font-family="FreeSans" font-size="10.00"> &lt; dim, Integer &gt;</text>
</g>
<!-- Node9 -->
<g id="node9" class="node"><title>Node9</title>
<g id="a_node9"><a xlink:href="classDGtal_1_1SurfelAdjacency.html" target="_top" xlink:title="DGtal::SurfelAdjacency\l\&lt; KSpace::dimension \&gt;">
<polygon fill="white" stroke="black" points="1168.5,-23.2904 1168.5,-53.2904 1299.5,-53.2904 1299.5,-23.2904 1168.5,-23.2904"/>
<text text-anchor="start" x="1176.5" y="-41.2904" font-family="FreeSans" font-size="10.00">DGtal::SurfelAdjacency</text>
<text text-anchor="middle" x="1234" y="-30.2904" font-family="FreeSans" font-size="10.00">&lt; KSpace::dimension &gt;</text>
</a>
</g>
</g>
<!-- Node9&#45;&gt;Node2 -->
<g id="edge12" class="edge"><title>Node9&#45;&gt;Node2</title>
<path fill="none" stroke="#9a32cd" stroke-dasharray="5,2" d="M1307.13,-21.117C1337.2,-14.7882 1372.6,-8.40599 1405,-5.29043 1469.15,0.878176 1485.99,2.20613 1550,-5.29043 1586.3,-9.54151 1596.18,-10.4412 1630,-24.2904 1658.2,-35.8372 1687.75,-54.8425 1706.83,-68.1543"/>
<polygon fill="#9a32cd" stroke="#9a32cd" points="1306.2,-17.7381 1297.15,-23.2564 1307.66,-24.5826 1306.2,-17.7381"/>
<text text-anchor="middle" x="1477.5" y="-8.29043" font-family="FreeSans" font-size="10.00"> mySurfelAdj</text>
</g>
<!-- Node9&#45;&gt;Node11 -->
<g id="edge16" class="edge"><title>Node9&#45;&gt;Node11</title>
<path fill="none" stroke="#9a32cd" stroke-dasharray="5,2" d="M1309.79,-52.2273C1340.06,-57.8669 1374.85,-64.35 1404.8,-69.9298"/>
<polygon fill="#9a32cd" stroke="#9a32cd" points="1310.19,-48.7407 1299.72,-50.3496 1308.91,-55.6223 1310.19,-48.7407"/>
<text text-anchor="middle" x="1356.5" y="-69.2904" font-family="FreeSans" font-size="10.00"> mySurfelAdj</text>
</g>
<!-- Node12 -->
<g id="node12" class="node"><title>Node12</title>
<g id="a_node12"><a xlink:href="classDGtal_1_1ImplicitDigitalSurface.html" target="_top" xlink:title="Aim: A model of CDigitalSurfaceContainer which defines the digital surface as the boundary of an impl...">
<polygon fill="white" stroke="black" points="1648,-117.29 1648,-147.29 1809,-147.29 1809,-117.29 1648,-117.29"/>
<text text-anchor="start" x="1656" y="-135.29" font-family="FreeSans" font-size="10.00">DGtal::ImplicitDigitalSurface</text>
<text text-anchor="middle" x="1728.5" y="-124.29" font-family="FreeSans" font-size="10.00">&lt; TKSpace, TPointPredicate &gt;</text>
</a>
</g>
</g>
<!-- Node9&#45;&gt;Node12 -->
<g id="edge22" class="edge"><title>Node9&#45;&gt;Node12</title>
<path fill="none" stroke="#9a32cd" stroke-dasharray="5,2" d="M1309.78,-33.1183C1374.15,-30.3949 1469.15,-30.5192 1550,-47.2904 1587.5,-55.0685 1600.47,-54.9151 1630,-79.2904 1641.41,-88.7072 1636.24,-98.3129 1648,-107.29 1653.06,-111.154 1658.73,-114.427 1664.65,-117.2"/>
<polygon fill="#9a32cd" stroke="#9a32cd" points="1309.55,-29.6251 1299.72,-33.5777 1309.87,-36.6178 1309.55,-29.6251"/>
<text text-anchor="middle" x="1477.5" y="-50.2904" font-family="FreeSans" font-size="10.00"> mySurfelAdjacency</text>
</g>
<!-- Node10 -->
<g id="node10" class="node"><title>Node10</title>
<g id="a_node10"><a xlink:href="classDGtal_1_1SurfelAdjacency.html" target="_top" xlink:title="Aim: Represent adjacencies between surfel elements, telling if it follows an interior to exterior ord...">
<polygon fill="white" stroke="black" points="870,-23.2904 870,-53.2904 996,-53.2904 996,-23.2904 870,-23.2904"/>
<text text-anchor="start" x="878" y="-41.2904" font-family="FreeSans" font-size="10.00">DGtal::SurfelAdjacency</text>
<text text-anchor="middle" x="933" y="-30.2904" font-family="FreeSans" font-size="10.00">&lt; dim &gt;</text>
</a>
</g>
</g>
<!-- Node10&#45;&gt;Node9 -->
<g id="edge13" class="edge"><title>Node10&#45;&gt;Node9</title>
<path fill="none" stroke="orange" stroke-dasharray="5,2" d="M1006.61,-38.2904C1056.03,-38.2904 1120.83,-38.2904 1168.44,-38.2904"/>
<polygon fill="orange" stroke="orange" points="1006.32,-34.7905 996.316,-38.2904 1006.32,-41.7905 1006.32,-34.7905"/>
<text text-anchor="middle" x="1083" y="-41.2904" font-family="FreeSans" font-size="10.00"> &lt; KSpace::dimension &gt;</text>
</g>
<!-- Node11&#45;&gt;Node2 -->
<g id="edge14" class="edge"><title>Node11&#45;&gt;Node2</title>
<path fill="none" stroke="orange" stroke-dasharray="5,2" d="M1560.48,-83.2904C1591.3,-83.2904 1626.08,-83.2904 1655.89,-83.2904"/>
<polygon fill="orange" stroke="orange" points="1560.19,-79.7905 1550.19,-83.2904 1560.19,-86.7905 1560.19,-79.7905"/>
<text text-anchor="middle" x="1599" y="-86.2904" font-family="FreeSans" font-size="10.00"> &lt; KSpace &gt;</text>
</g>
<!-- Node12&#45;&gt;Node1 -->
<g id="edge17" class="edge"><title>Node12&#45;&gt;Node1</title>
<path fill="none" stroke="#9a32cd" stroke-dasharray="5,2" d="M1819.21,-124.801C1855.27,-121.791 1896.34,-118.362 1930.69,-115.494"/>
<polygon fill="#9a32cd" stroke="#9a32cd" points="1818.86,-121.318 1809.19,-125.638 1819.44,-128.294 1818.86,-121.318"/>
<text text-anchor="middle" x="1870" y="-127.29" font-family="FreeSans" font-size="10.00"> mySurface</text>
</g>
<!-- Node13&#45;&gt;Node12 -->
<g id="edge18" class="edge"><title>Node13&#45;&gt;Node12</title>
<path fill="none" stroke="#9a32cd" stroke-dasharray="5,2" d="M1546.93,-163.133C1572.95,-158.856 1602.85,-153.897 1630,-149.29 1635.84,-148.299 1641.88,-147.266 1647.96,-146.22"/>
<polygon fill="#9a32cd" stroke="#9a32cd" points="1546.09,-159.724 1536.79,-164.798 1547.23,-166.631 1546.09,-159.724"/>
<text text-anchor="middle" x="1599" y="-162.29" font-family="FreeSans" font-size="10.00"> mySurfels</text>
</g>
<!-- Node14 -->
<g id="node14" class="node"><title>Node14</title>
<g id="a_node14"><a xlink:title="STL class. ">
<polygon fill="white" stroke="#bfbfbf" points="1186.5,-192.79 1186.5,-211.79 1281.5,-211.79 1281.5,-192.79 1186.5,-192.79"/>
<text text-anchor="middle" x="1234" y="-199.79" font-family="FreeSans" font-size="10.00">std::vector&lt; T &gt;</text>
</a>
</g>
</g>
<!-- Node14&#45;&gt;Node13 -->
<g id="edge20" class="edge"><title>Node14&#45;&gt;Node13</title>
<path fill="none" stroke="orange" stroke-dasharray="5,2" d="M1291.95,-195.687C1329.96,-191.28 1379.81,-185.501 1418.12,-181.06"/>
<polygon fill="orange" stroke="orange" points="1291.09,-192.263 1281.56,-196.892 1291.9,-199.217 1291.09,-192.263"/>
<text text-anchor="middle" x="1356.5" y="-195.29" font-family="FreeSans" font-size="10.00"> &lt; Surfel &gt;</text>
</g>
<!-- Node15 -->
<g id="node15" class="node"><title>Node15</title>
<polygon fill="white" stroke="#bfbfbf" points="918.5,-192.79 918.5,-211.79 947.5,-211.79 947.5,-192.79 918.5,-192.79"/>
<text text-anchor="middle" x="933" y="-199.79" font-family="FreeSans" font-size="10.00">T</text>
</g>
<!-- Node15&#45;&gt;Node14 -->
<g id="edge21" class="edge"><title>Node15&#45;&gt;Node14</title>
<path fill="none" stroke="#9a32cd" stroke-dasharray="5,2" d="M957.64,-202.29C1006.94,-202.29 1121.5,-202.29 1186.25,-202.29"/>
<polygon fill="#9a32cd" stroke="#9a32cd" points="957.624,-198.791 947.624,-202.29 957.624,-205.791 957.624,-198.791"/>
<text text-anchor="middle" x="1083" y="-205.29" font-family="FreeSans" font-size="10.00"> elements</text>
</g>
</g>
</svg>
