<?xml version="1.0" encoding="UTF-8" standalone="no"?>
<!DOCTYPE svg PUBLIC "-//W3C//DTD SVG 1.1//EN"
 "http://www.w3.org/Graphics/SVG/1.1/DTD/svg11.dtd">
<!-- Generated by graphviz version 2.38.0 (20140413.2041)
 -->
<!-- Title: DGtal::DigitalSetBySTLSet&lt; TDomain, TCompare &gt; Pages: 1 -->
<!--zoomable 210 -->
<svg id="main" version="1.1" xmlns="http://www.w3.org/2000/svg" xmlns:xlink="http://www.w3.org/1999/xlink" xml:space="preserve" onload="init(evt)">
<style type="text/css"><![CDATA[
.edge:hover path { stroke: red; }
.edge:hover polygon { stroke: red; fill: red; }
]]></style>
<script type="text/javascript"><![CDATA[
var edges = document.getElementsByTagName('g');
if (edges && edges.length) {
  for (var i=0;i<edges.length;i++) {
    if (edges[i].id.substr(0,4)=='edge') {
      edges[i].setAttribute('class','edge');
    }
  }
}
]]></script>
        <defs>
                <circle id="rim" cx="0" cy="0" r="7"/>
                <circle id="rim2" cx="0" cy="0" r="3.5"/>
                <g id="zoomPlus">
                        <use xlink:href="#rim" fill="#404040">
                                <set attributeName="fill" to="#808080" begin="zoomplus.mouseover" end="zoomplus.mouseout"/>
                        </use>
                        <path d="M-4,0h8M0,-4v8" fill="none" stroke="white" stroke-width="1.5" pointer-events="none"/>
                </g>
                <g id="zoomMin">
                        <use xlink:href="#rim" fill="#404040">
                                <set attributeName="fill" to="#808080" begin="zoomminus.mouseover" end="zoomminus.mouseout"/>
                        </use>
                        <path d="M-4,0h8" fill="none" stroke="white" stroke-width="1.5" pointer-events="none"/>
                </g>
                <g id="dirArrow">
                        <path fill="none" stroke="white" stroke-width="1.5" d="M0,-3.0v7 M-2.5,-0.5L0,-3.0L2.5,-0.5"/>
                </g>
               <g id="resetDef">
                       <use xlink:href="#rim2" fill="#404040">
                               <set attributeName="fill" to="#808080" begin="reset.mouseover" end="reset.mouseout"/>
                       </use>
               </g>
        </defs>

<script type="text/javascript">
var viewWidth = 1101;
var viewHeight = 210;
var sectionId = 'dynsection-0';
</script>
<script xlink:href="svgpan.js"/>
<svg id="graph" class="graph">
<g id="viewport">
<title>DGtal::DigitalSetBySTLSet&lt; TDomain, TCompare &gt;</title>
<polygon fill="white" stroke="none" points="-4,4 -4,-205.5 1097,-205.5 1097,4 -4,4"/>
<!-- Node1 -->
<g id="node1" class="node"><title>Node1</title>
<polygon fill="#bfbfbf" stroke="black" points="951,-88 951,-118 1093,-118 1093,-88 951,-88"/>
<text text-anchor="start" x="959" y="-106" font-family="FreeSans" font-size="10.00">DGtal::DigitalSetBySTLSet</text>
<text text-anchor="middle" x="1022" y="-95" font-family="FreeSans" font-size="10.00">&lt; TDomain, TCompare &gt;</text>
</g>
<!-- Node2 -->
<g id="node2" class="node"><title>Node2</title>
<g id="a_node2"><a xlink:href="classDGtal_1_1CowPtr.html" target="_top" xlink:title="DGtal::CowPtr\&lt; Domain \&gt;">
<polygon fill="white" stroke="black" points="710,-127.5 710,-146.5 853,-146.5 853,-127.5 710,-127.5"/>
<text text-anchor="middle" x="781.5" y="-134.5" font-family="FreeSans" font-size="10.00">DGtal::CowPtr&lt; Domain &gt;</text>
</a>
</g>
</g>
<!-- Node2&#45;&gt;Node1 -->
<g id="edge1" class="edge"><title>Node2&#45;&gt;Node1</title>
<path fill="none" stroke="#9a32cd" stroke-dasharray="5,2" d="M859.474,-126.027C888.874,-121.836 922.212,-117.083 950.934,-112.988"/>
<polygon fill="#9a32cd" stroke="#9a32cd" points="858.659,-122.608 849.253,-127.484 859.647,-129.537 858.659,-122.608"/>
<text text-anchor="middle" x="905" y="-126" font-family="FreeSans" font-size="10.00"> myDomain</text>
</g>
<!-- Node3 -->
<g id="node3" class="node"><title>Node3</title>
<g id="a_node3"><a xlink:href="classDGtal_1_1CountedPtr.html" target="_top" xlink:title="DGtal::CountedPtr\&lt;\l Domain \&gt;">
<polygon fill="white" stroke="black" points="443,-166 443,-196 555,-196 555,-166 443,-166"/>
<text text-anchor="start" x="451" y="-184" font-family="FreeSans" font-size="10.00">DGtal::CountedPtr&lt;</text>
<text text-anchor="middle" x="499" y="-173" font-family="FreeSans" font-size="10.00"> Domain &gt;</text>
</a>
</g>
</g>
<!-- Node3&#45;&gt;Node2 -->
<g id="edge2" class="edge"><title>Node3&#45;&gt;Node2</title>
<path fill="none" stroke="#9a32cd" stroke-dasharray="5,2" d="M565.616,-170.815C601.235,-165.274 646.038,-158.287 686,-152 697.241,-150.232 709.232,-148.336 720.767,-146.507"/>
<polygon fill="#9a32cd" stroke="#9a32cd" points="564.693,-167.416 555.35,-172.411 565.769,-174.333 564.693,-167.416"/>
<text text-anchor="middle" x="633" y="-171" font-family="FreeSans" font-size="10.00"> myPtr</text>
</g>
<!-- Node4 -->
<g id="node4" class="node"><title>Node4</title>
<g id="a_node4"><a xlink:href="structDGtal_1_1CountedPtr_1_1Counter.html" target="_top" xlink:title="DGtal::CountedPtr\&lt;\l T \&gt;::Counter">
<polygon fill="white" stroke="black" points="0,-171 0,-201 112,-201 112,-171 0,-171"/>
<text text-anchor="start" x="8" y="-189" font-family="FreeSans" font-size="10.00">DGtal::CountedPtr&lt;</text>
<text text-anchor="middle" x="56" y="-178" font-family="FreeSans" font-size="10.00"> T &gt;::Counter</text>
</a>
</g>
</g>
<!-- Node4&#45;&gt;Node3 -->
<g id="edge3" class="edge"><title>Node4&#45;&gt;Node3</title>
<path fill="none" stroke="#9a32cd" stroke-dasharray="5,2" d="M122.386,-189.758C124.957,-189.85 127.502,-189.932 130,-190 204.394,-192.037 328.683,-190.926 418,-187 426.07,-186.645 434.59,-186.143 442.942,-185.579"/>
<polygon fill="#9a32cd" stroke="#9a32cd" points="122.523,-186.261 112.39,-189.354 122.241,-193.255 122.523,-186.261"/>
<text text-anchor="middle" x="270.5" y="-193" font-family="FreeSans" font-size="10.00"> myCounter</text>
</g>
<!-- Node5 -->
<g id="node5" class="node"><title>Node5</title>
<g id="a_node5"><a xlink:href="classDGtal_1_1CountedPtr.html" target="_top" xlink:title="Aim: Smart pointer based on reference counts. ">
<polygon fill="white" stroke="black" points="205,-148.5 205,-167.5 336,-167.5 336,-148.5 205,-148.5"/>
<text text-anchor="middle" x="270.5" y="-155.5" font-family="FreeSans" font-size="10.00">DGtal::CountedPtr&lt; T &gt;</text>
</a>
</g>
</g>
<!-- Node4&#45;&gt;Node5 -->
<g id="edge5" class="edge"><title>Node4&#45;&gt;Node5</title>
<path fill="none" stroke="#9a32cd" stroke-dasharray="5,2" d="M122.233,-177.405C148.501,-173.943 178.72,-169.962 204.921,-166.509"/>
<polygon fill="#9a32cd" stroke="#9a32cd" points="121.457,-173.976 112,-178.753 122.372,-180.916 121.457,-173.976"/>
<text text-anchor="middle" x="158.5" y="-179" font-family="FreeSans" font-size="10.00"> myCounter</text>
</g>
<!-- Node5&#45;&gt;Node3 -->
<g id="edge4" class="edge"><title>Node5&#45;&gt;Node3</title>
<path fill="none" stroke="orange" stroke-dasharray="5,2" d="M346.175,-165.583C377.733,-168.787 413.83,-172.453 442.907,-175.406"/>
<polygon fill="orange" stroke="orange" points="346.405,-162.088 336.103,-164.56 345.698,-169.053 346.405,-162.088"/>
<text text-anchor="middle" x="386" y="-175" font-family="FreeSans" font-size="10.00"> &lt; Domain &gt;</text>
</g>
<!-- Node6 -->
<g id="node6" class="node"><title>Node6</title>
<g id="a_node6"><a xlink:href="classDGtal_1_1CowPtr.html" target="_top" xlink:title="Aim: Copy on write shared pointer. ">
<polygon fill="white" stroke="black" points="444,-127.5 444,-146.5 554,-146.5 554,-127.5 444,-127.5"/>
<text text-anchor="middle" x="499" y="-134.5" font-family="FreeSans" font-size="10.00">DGtal::CowPtr&lt; T &gt;</text>
</a>
</g>
</g>
<!-- Node6&#45;&gt;Node2 -->
<g id="edge6" class="edge"><title>Node6&#45;&gt;Node2</title>
<path fill="none" stroke="orange" stroke-dasharray="5,2" d="M564.251,-137C607.704,-137 665.102,-137 709.843,-137"/>
<polygon fill="orange" stroke="orange" points="564.083,-133.5 554.083,-137 564.083,-140.5 564.083,-133.5"/>
<text text-anchor="middle" x="633" y="-140" font-family="FreeSans" font-size="10.00"> &lt; Domain &gt;</text>
</g>
<!-- Node7 -->
<g id="node7" class="node"><title>Node7</title>
<polygon fill="white" stroke="#bfbfbf" points="704,-44 704,-74 859,-74 859,-44 704,-44"/>
<text text-anchor="start" x="712" y="-62" font-family="FreeSans" font-size="10.00">std::set&lt; DGtal::PointVector,</text>
<text text-anchor="middle" x="781.5" y="-51" font-family="FreeSans" font-size="10.00"> Compare &gt;</text>
</g>
<!-- Node7&#45;&gt;Node1 -->
<g id="edge7" class="edge"><title>Node7&#45;&gt;Node1</title>
<path fill="none" stroke="#9a32cd" stroke-dasharray="5,2" d="M869.412,-75.0341C896.193,-79.9747 925.327,-85.3496 950.833,-90.0551"/>
<polygon fill="#9a32cd" stroke="#9a32cd" points="869.745,-71.5365 859.276,-73.1641 868.475,-78.4203 869.745,-71.5365"/>
<text text-anchor="middle" x="905" y="-90" font-family="FreeSans" font-size="10.00"> mySet</text>
</g>
<!-- Node8 -->
<g id="node8" class="node"><title>Node8</title>
<g id="a_node8"><a xlink:href="classDGtal_1_1PointVector.html" target="_top" xlink:title="Aim: Implements basic operations that will be used in Point and Vector classes. ">
<polygon fill="white" stroke="black" points="436,-38.5 436,-79.5 562,-79.5 562,-38.5 436,-38.5"/>
<text text-anchor="start" x="444" y="-67.5" font-family="FreeSans" font-size="10.00">DGtal::PointVector</text>
<text text-anchor="start" x="444" y="-56.5" font-family="FreeSans" font-size="10.00">&lt; dim, TEuclideanRing,</text>
<text text-anchor="middle" x="499" y="-45.5" font-family="FreeSans" font-size="10.00"> TContainer &gt;</text>
</a>
</g>
</g>
<!-- Node8&#45;&gt;Node7 -->
<g id="edge8" class="edge"><title>Node8&#45;&gt;Node7</title>
<path fill="none" stroke="#9a32cd" stroke-dasharray="5,2" d="M572.286,-59C612.639,-59 662.89,-59 703.916,-59"/>
<polygon fill="#9a32cd" stroke="#9a32cd" points="572.252,-55.5001 562.252,-59 572.252,-62.5001 572.252,-55.5001"/>
<text text-anchor="middle" x="633" y="-62" font-family="FreeSans" font-size="10.00"> keys</text>
</g>
<!-- Node8&#45;&gt;Node8 -->
<g id="edge10" class="edge"><title>Node8&#45;&gt;Node8</title>
<path fill="none" stroke="#9a32cd" stroke-dasharray="5,2" d="M479.731,-89.8561C482.597,-94.6966 489.02,-98 499,-98 514.969,-98 521.83,-89.5433 519.585,-79.8644"/>
<polygon fill="#9a32cd" stroke="#9a32cd" points="483.191,-89.3218 478.415,-79.8644 476.251,-90.2358 483.191,-89.3218"/>
<text text-anchor="middle" x="499" y="-101" font-family="FreeSans" font-size="10.00"> zero</text>
</g>
<!-- Node9 -->
<g id="node9" class="node"><title>Node9</title>
<polygon fill="white" stroke="#bfbfbf" points="236.5,-49.5 236.5,-68.5 304.5,-68.5 304.5,-49.5 236.5,-49.5"/>
<text text-anchor="middle" x="270.5" y="-56.5" font-family="FreeSans" font-size="10.00">TContainer</text>
</g>
<!-- Node9&#45;&gt;Node8 -->
<g id="edge9" class="edge"><title>Node9&#45;&gt;Node8</title>
<path fill="none" stroke="#9a32cd" stroke-dasharray="5,2" d="M315.076,-59C349.32,-59 397.464,-59 435.766,-59"/>
<polygon fill="#9a32cd" stroke="#9a32cd" points="314.921,-55.5001 304.921,-59 314.921,-62.5001 314.921,-55.5001"/>
<text text-anchor="middle" x="386" y="-62" font-family="FreeSans" font-size="10.00"> myArray</text>
</g>
<!-- Node10 -->
<g id="node10" class="node"><title>Node10</title>
<g id="a_node10"><a xlink:title="STL class. ">
<polygon fill="white" stroke="#bfbfbf" points="458.5,-0.5 458.5,-19.5 539.5,-19.5 539.5,-0.5 458.5,-0.5"/>
<text text-anchor="middle" x="499" y="-7.5" font-family="FreeSans" font-size="10.00">std::set&lt; K &gt;</text>
</a>
</g>
</g>
<!-- Node10&#45;&gt;Node7 -->
<g id="edge11" class="edge"><title>Node10&#45;&gt;Node7</title>
<path fill="none" stroke="orange" stroke-dasharray="5,2" d="M550.01,-14.1938C587.634,-17.8292 640.344,-23.9464 686,-33 700.688,-35.9126 716.444,-39.8951 730.799,-43.8677"/>
<polygon fill="orange" stroke="orange" points="550.1,-10.6869 539.816,-13.2338 549.444,-17.6561 550.1,-10.6869"/>
<text text-anchor="start" x="580" y="-47" font-family="FreeSans" font-size="10.00"> &lt; DGtal::PointVector,</text>
<text text-anchor="middle" x="633" y="-36" font-family="FreeSans" font-size="10.00"> Compare &gt;</text>
</g>
<!-- Node11 -->
<g id="node11" class="node"><title>Node11</title>
<polygon fill="white" stroke="#bfbfbf" points="256,-0.5 256,-19.5 285,-19.5 285,-0.5 256,-0.5"/>
<text text-anchor="middle" x="270.5" y="-7.5" font-family="FreeSans" font-size="10.00">K</text>
</g>
<!-- Node11&#45;&gt;Node10 -->
<g id="edge12" class="edge"><title>Node11&#45;&gt;Node10</title>
<path fill="none" stroke="#9a32cd" stroke-dasharray="5,2" d="M295.65,-10C334.463,-10 411.122,-10 458.138,-10"/>
<polygon fill="#9a32cd" stroke="#9a32cd" points="295.328,-6.5001 285.328,-10 295.328,-13.5001 295.328,-6.5001"/>
<text text-anchor="middle" x="386" y="-13" font-family="FreeSans" font-size="10.00"> keys</text>
</g>
</g>
</svg>
        <g id="navigator" transform="translate(0 0)" fill="#404254">
                <rect fill="#f2f5e9" fill-opacity="0.5" stroke="#606060" stroke-width=".5" x="0" y="0" width="60" height="60"/>
                <use id="zoomplus" xlink:href="#zoomPlus" x="17" y="9" onmousedown="handleZoom(evt,'in')"/>
                <use id="zoomminus" xlink:href="#zoomMin" x="42" y="9" onmousedown="handleZoom(evt,'out')"/>
                <use id="reset" xlink:href="#resetDef" x="30" y="36" onmousedown="handleReset()"/>
                <g id="arrowUp" xlink:href="#dirArrow" transform="translate(30 24)" onmousedown="handlePan(0,-1)">
                  <use xlink:href="#rim" fill="#404040">
                        <set attributeName="fill" to="#808080" begin="arrowUp.mouseover" end="arrowUp.mouseout"/>
                  </use>
                  <path fill="none" stroke="white" stroke-width="1.5" d="M0,-3.0v7 M-2.5,-0.5L0,-3.0L2.5,-0.5"/>
                </g>
                <g id="arrowRight" xlink:href="#dirArrow" transform="rotate(90) translate(36 -43)" onmousedown="handlePan(1,0)">
                  <use xlink:href="#rim" fill="#404040">
                        <set attributeName="fill" to="#808080" begin="arrowRight.mouseover" end="arrowRight.mouseout"/>
                  </use>
                  <path fill="none" stroke="white" stroke-width="1.5" d="M0,-3.0v7 M-2.5,-0.5L0,-3.0L2.5,-0.5"/>
                </g>
                <g id="arrowDown" xlink:href="#dirArrow" transform="rotate(180) translate(-30 -48)" onmousedown="handlePan(0,1)">
                  <use xlink:href="#rim" fill="#404040">
                        <set attributeName="fill" to="#808080" begin="arrowDown.mouseover" end="arrowDown.mouseout"/>
                  </use>
                  <path fill="none" stroke="white" stroke-width="1.5" d="M0,-3.0v7 M-2.5,-0.5L0,-3.0L2.5,-0.5"/>
                </g>
                <g id="arrowLeft" xlink:href="#dirArrow" transform="rotate(270) translate(-36 17)" onmousedown="handlePan(-1,0)">
                  <use xlink:href="#rim" fill="#404040">
                        <set attributeName="fill" to="#808080" begin="arrowLeft.mouseover" end="arrowLeft.mouseout"/>
                  </use>
                  <path fill="none" stroke="white" stroke-width="1.5" d="M0,-3.0v7 M-2.5,-0.5L0,-3.0L2.5,-0.5"/>
                </g>
        </g>
        <svg viewBox="0 0 15 15" width="100%" height="30px" preserveAspectRatio="xMaxYMin meet">
         <g id="arrow_out" transform="scale(0.3 0.3)">
          <a xlink:href="classDGtal_1_1DigitalSetBySTLSet__coll__graph_org.svg" target="_base">
           <rect id="button" ry="5" rx="5" y="6" x="6" height="38" width="38"
                fill="#f2f5e9" fill-opacity="0.5" stroke="#606060" stroke-width="1.0"/>
           <path id="arrow"
             d="M 11.500037,31.436501 C 11.940474,20.09759 22.043105,11.32322 32.158766,21.979434 L 37.068811,17.246167 C 37.068811,17.246167 37.088388,32 37.088388,32 L 22.160133,31.978069 C 22.160133,31.978069 26.997745,27.140456 26.997745,27.140456 C 18.528582,18.264221 13.291696,25.230495 11.500037,31.436501 z"
             style="fill:#404040;"/>
          </a>
         </g>
        </svg>
</svg>
