<?xml version="1.0" encoding="UTF-8" standalone="no"?>
<!DOCTYPE svg PUBLIC "-//W3C//DTD SVG 1.1//EN"
 "http://www.w3.org/Graphics/SVG/1.1/DTD/svg11.dtd">
<!-- Generated by graphviz version 2.38.0 (20140413.2041)
 -->
<!-- Title: DGtal::RosenProffittLocalLengthEstimator&lt; TConstIterator &gt; Pages: 1 -->
<svg width="194pt" height="106pt"
 viewBox="0.00 0.00 194.00 106.00" xmlns="http://www.w3.org/2000/svg" xmlns:xlink="http://www.w3.org/1999/xlink">
<g id="graph0" class="graph" transform="scale(1 1) rotate(0) translate(4 102)">
<title>DGtal::RosenProffittLocalLengthEstimator&lt; TConstIterator &gt;</title>
<polygon fill="white" stroke="none" points="-4,4 -4,-102 190,-102 190,4 -4,4"/>
<!-- Node0 -->
<g id="node1" class="node"><title>Node0</title>
<polygon fill="#bfbfbf" stroke="black" points="-1.42109e-14,-0.5 -1.42109e-14,-30.5 186,-30.5 186,-0.5 -1.42109e-14,-0.5"/>
<text text-anchor="start" x="8" y="-18.5" font-family="FreeSans" font-size="10.00">DGtal::RosenProffittLocal</text>
<text text-anchor="middle" x="93" y="-7.5" font-family="FreeSans" font-size="10.00">LengthEstimator&lt; TConstIterator &gt;</text>
</g>
<!-- Node1 -->
<g id="node2" class="node"><title>Node1</title>
<g id="a_node2"><a xlink:href="classDGtal_1_1TwoStepLocalLengthEstimator.html" target="_top" xlink:title="Aim: a simple model of CGlobalCurveEstimator that compute the length of a curve using the l_1 metric ...">
<polygon fill="white" stroke="black" points="16.5,-67.5 16.5,-97.5 169.5,-97.5 169.5,-67.5 16.5,-67.5"/>
<text text-anchor="start" x="24.5" y="-85.5" font-family="FreeSans" font-size="10.00">DGtal::TwoStepLocalLength</text>
<text text-anchor="middle" x="93" y="-74.5" font-family="FreeSans" font-size="10.00">Estimator&lt; TConstIterator &gt;</text>
</a>
</g>
</g>
<!-- Node1&#45;&gt;Node0 -->
<g id="edge1" class="edge"><title>Node1&#45;&gt;Node0</title>
<path fill="none" stroke="midnightblue" d="M93,-57.1081C93,-48.1539 93,-38.3227 93,-30.5765"/>
<polygon fill="midnightblue" stroke="midnightblue" points="89.5001,-57.3959 93,-67.396 96.5001,-57.396 89.5001,-57.3959"/>
</g>
</g>
</svg>
