<?xml version="1.0" encoding="UTF-8" standalone="no"?>
<!DOCTYPE svg PUBLIC "-//W3C//DTD SVG 1.1//EN"
 "http://www.w3.org/Graphics/SVG/1.1/DTD/svg11.dtd">
<!-- Generated by graphviz version 2.38.0 (20140413.2041)
 -->
<!-- Title: DGtal::CellGeometry&lt; TKSpace &gt; Pages: 1 -->
<svg width="1607pt" height="337pt"
 viewBox="0.00 0.00 1607.00 337.00" xmlns="http://www.w3.org/2000/svg" xmlns:xlink="http://www.w3.org/1999/xlink">
<g id="graph0" class="graph" transform="scale(1 1) rotate(0) translate(4 333)">
<title>DGtal::CellGeometry&lt; TKSpace &gt;</title>
<polygon fill="white" stroke="none" points="-4,4 -4,-333 1603,-333 1603,4 -4,4"/>
<!-- Node1 -->
<g id="node1" class="node"><title>Node1</title>
<polygon fill="#bfbfbf" stroke="black" points="1484,-113 1484,-143 1599,-143 1599,-113 1484,-113"/>
<text text-anchor="start" x="1492" y="-131" font-family="FreeSans" font-size="10.00">DGtal::CellGeometry</text>
<text text-anchor="middle" x="1541.5" y="-120" font-family="FreeSans" font-size="10.00">&lt; TKSpace &gt;</text>
</g>
<!-- Node2 -->
<g id="node2" class="node"><title>Node2</title>
<g id="a_node2"><a xlink:href="structDGtal_1_1UnorderedSetByBlock.html" target="_top" xlink:title="DGtal::UnorderedSetByBlock\l\&lt; PointVector\&lt; dim, Integer\l \&gt;, DGtal::Splitter\&lt; PointVector\l\&lt; dim, Integer \&gt;, uint64_t \&gt; \&gt;">
<polygon fill="white" stroke="black" points="1227,-102 1227,-154 1394,-154 1394,-102 1227,-102"/>
<text text-anchor="start" x="1235" y="-142" font-family="FreeSans" font-size="10.00">DGtal::UnorderedSetByBlock</text>
<text text-anchor="start" x="1235" y="-131" font-family="FreeSans" font-size="10.00">&lt; PointVector&lt; dim, Integer</text>
<text text-anchor="start" x="1235" y="-120" font-family="FreeSans" font-size="10.00"> &gt;, DGtal::Splitter&lt; PointVector</text>
<text text-anchor="middle" x="1310.5" y="-109" font-family="FreeSans" font-size="10.00">&lt; dim, Integer &gt;, uint64_t &gt; &gt;</text>
</a>
</g>
</g>
<!-- Node2&#45;&gt;Node1 -->
<g id="edge1" class="edge"><title>Node2&#45;&gt;Node1</title>
<path fill="none" stroke="#9a32cd" stroke-dasharray="5,2" d="M1404.38,-128C1431.26,-128 1459.79,-128 1483.75,-128"/>
<polygon fill="#9a32cd" stroke="#9a32cd" points="1404.17,-124.5 1394.17,-128 1404.17,-131.5 1404.17,-124.5"/>
<text text-anchor="middle" x="1439" y="-131" font-family="FreeSans" font-size="10.00"> myKPoints</text>
</g>
<!-- Node3 -->
<g id="node3" class="node"><title>Node3</title>
<polygon fill="white" stroke="#bfbfbf" points="836,-69 836,-187 1055,-187 1055,-69 836,-69"/>
<text text-anchor="start" x="844" y="-175" font-family="FreeSans" font-size="10.00">std::unordered_map</text>
<text text-anchor="start" x="844" y="-164" font-family="FreeSans" font-size="10.00">&lt; PointVector&lt; dim,</text>
<text text-anchor="start" x="844" y="-153" font-family="FreeSans" font-size="10.00"> Integer &gt;, Word, std</text>
<text text-anchor="start" x="844" y="-142" font-family="FreeSans" font-size="10.00">::hash&lt; PointVector&lt; dim,</text>
<text text-anchor="start" x="844" y="-131" font-family="FreeSans" font-size="10.00"> Integer &gt; &gt;, std::equal</text>
<text text-anchor="start" x="844" y="-120" font-family="FreeSans" font-size="10.00">_to&lt; PointVector&lt; dim, Integer</text>
<text text-anchor="start" x="844" y="-109" font-family="FreeSans" font-size="10.00"> &gt; &gt;, std::allocator&lt; std::pair</text>
<text text-anchor="start" x="844" y="-98" font-family="FreeSans" font-size="10.00">&lt; const PointVector&lt; dim, Integer</text>
<text text-anchor="start" x="844" y="-87" font-family="FreeSans" font-size="10.00"> &gt;, typename DGtal::Splitter&lt; PointVector</text>
<text text-anchor="middle" x="945.5" y="-76" font-family="FreeSans" font-size="10.00">&lt; dim, Integer &gt;, uint64_t &gt; ::Word &gt; &gt; &gt;</text>
</g>
<!-- Node3&#45;&gt;Node2 -->
<g id="edge2" class="edge"><title>Node3&#45;&gt;Node2</title>
<path fill="none" stroke="#9a32cd" stroke-dasharray="5,2" d="M1065.52,-128C1118.34,-128 1179.2,-128 1226.93,-128"/>
<polygon fill="#9a32cd" stroke="#9a32cd" points="1065.41,-124.5 1055.41,-128 1065.41,-131.5 1065.41,-124.5"/>
<text text-anchor="middle" x="1141" y="-131" font-family="FreeSans" font-size="10.00"> my_elements</text>
</g>
<!-- Node4 -->
<g id="node4" class="node"><title>Node4</title>
<g id="a_node4"><a xlink:href="classDGtal_1_1PointVector.html" target="_top" xlink:title="DGtal::PointVector\l\&lt; dim, Integer \&gt;">
<polygon fill="white" stroke="black" points="541.5,-65 541.5,-95 645.5,-95 645.5,-65 541.5,-65"/>
<text text-anchor="start" x="549.5" y="-83" font-family="FreeSans" font-size="10.00">DGtal::PointVector</text>
<text text-anchor="middle" x="593.5" y="-72" font-family="FreeSans" font-size="10.00">&lt; dim, Integer &gt;</text>
</a>
</g>
</g>
<!-- Node4&#45;&gt;Node3 -->
<g id="edge3" class="edge"><title>Node4&#45;&gt;Node3</title>
<path fill="none" stroke="#9a32cd" stroke-dasharray="5,2" d="M655.801,-86.6652C700.765,-91.734 763.263,-99.1543 818,-107 823.84,-107.837 829.826,-108.726 835.866,-109.647"/>
<polygon fill="#9a32cd" stroke="#9a32cd" points="655.953,-83.1604 645.625,-85.5244 655.173,-90.1168 655.953,-83.1604"/>
<text text-anchor="middle" x="765.5" y="-110" font-family="FreeSans" font-size="10.00"> keys</text>
</g>
<!-- Node5 -->
<g id="node5" class="node"><title>Node5</title>
<polygon fill="white" stroke="#bfbfbf" points="0,-68.5 0,-87.5 68,-87.5 68,-68.5 0,-68.5"/>
<text text-anchor="middle" x="34" y="-75.5" font-family="FreeSans" font-size="10.00">TContainer</text>
</g>
<!-- Node5&#45;&gt;Node4 -->
<g id="edge4" class="edge"><title>Node5&#45;&gt;Node4</title>
<path fill="none" stroke="#9a32cd" stroke-dasharray="5,2" d="M78.0805,-81.7245C156.758,-88.003 328.96,-99.3251 474,-92 496.097,-90.884 520.424,-88.6045 541.257,-86.3291"/>
<polygon fill="#9a32cd" stroke="#9a32cd" points="78.31,-78.2317 68.0597,-80.9115 77.7438,-85.2088 78.31,-78.2317"/>
<text text-anchor="middle" x="216" y="-96" font-family="FreeSans" font-size="10.00"> myArray</text>
</g>
<!-- Node6 -->
<g id="node6" class="node"><title>Node6</title>
<g id="a_node6"><a xlink:href="classDGtal_1_1PointVector.html" target="_top" xlink:title="Aim: Implements basic operations that will be used in Point and Vector classes. ">
<polygon fill="white" stroke="black" points="153,-0.5 153,-41.5 279,-41.5 279,-0.5 153,-0.5"/>
<text text-anchor="start" x="161" y="-29.5" font-family="FreeSans" font-size="10.00">DGtal::PointVector</text>
<text text-anchor="start" x="161" y="-18.5" font-family="FreeSans" font-size="10.00">&lt; dim, TEuclideanRing,</text>
<text text-anchor="middle" x="216" y="-7.5" font-family="FreeSans" font-size="10.00"> TContainer &gt;</text>
</a>
</g>
</g>
<!-- Node5&#45;&gt;Node6 -->
<g id="edge6" class="edge"><title>Node5&#45;&gt;Node6</title>
<path fill="none" stroke="#9a32cd" stroke-dasharray="5,2" d="M74.8184,-65.3908C97.6546,-58.1594 126.826,-48.9217 152.639,-40.7478"/>
<polygon fill="#9a32cd" stroke="#9a32cd" points="73.6047,-62.1038 65.128,-68.4595 75.718,-68.7772 73.6047,-62.1038"/>
<text text-anchor="middle" x="110.5" y="-65" font-family="FreeSans" font-size="10.00"> myArray</text>
</g>
<!-- Node6&#45;&gt;Node4 -->
<g id="edge5" class="edge"><title>Node6&#45;&gt;Node4</title>
<path fill="none" stroke="#9a32cd" stroke-dasharray="5,2" d="M289.473,-15.7119C342.353,-14.4241 414.821,-18.0907 474,-41 483.451,-44.6588 482.885,-50.5695 492,-55 507.362,-62.4668 525.163,-67.8346 541.476,-71.633"/>
<polygon fill="#9a32cd" stroke="#9a32cd" points="289.054,-12.2231 279.168,-16.0313 289.271,-19.2197 289.054,-12.2231"/>
<text text-anchor="middle" x="385.5" y="-44" font-family="FreeSans" font-size="10.00"> zero</text>
</g>
<!-- Node6&#45;&gt;Node4 -->
<g id="edge8" class="edge"><title>Node6&#45;&gt;Node4</title>
<path fill="none" stroke="orange" stroke-dasharray="5,2" d="M273.188,-44.9837C281.078,-47.6983 289.168,-50.1489 297,-52 381.127,-71.8823 481.885,-77.7307 541.355,-79.4001"/>
<polygon fill="orange" stroke="orange" points="274.289,-41.6601 263.694,-41.564 271.917,-48.2458 274.289,-41.6601"/>
<text text-anchor="middle" x="385.5" y="-80" font-family="FreeSans" font-size="10.00"> &lt; dim, Integer &gt;</text>
</g>
<!-- Node6&#45;&gt;Node6 -->
<g id="edge7" class="edge"><title>Node6&#45;&gt;Node6</title>
<path fill="none" stroke="#9a32cd" stroke-dasharray="5,2" d="M198.107,-51.8561C200.768,-56.6966 206.732,-60 216,-60 230.828,-60 237.2,-51.5433 235.114,-41.8644"/>
<polygon fill="#9a32cd" stroke="#9a32cd" points="201.574,-51.3656 196.886,-41.8644 194.625,-52.2153 201.574,-51.3656"/>
<text text-anchor="middle" x="216" y="-63" font-family="FreeSans" font-size="10.00"> zero</text>
</g>
<!-- Node7 -->
<g id="node7" class="node"><title>Node7</title>
<g id="a_node7"><a xlink:title="STL class. ">
<polygon fill="white" stroke="#bfbfbf" points="159,-151 159,-181 273,-181 273,-151 159,-151"/>
<text text-anchor="start" x="167" y="-169" font-family="FreeSans" font-size="10.00">std::unordered_map</text>
<text text-anchor="middle" x="216" y="-158" font-family="FreeSans" font-size="10.00">&lt; K, T &gt;</text>
</a>
</g>
</g>
<!-- Node7&#45;&gt;Node3 -->
<g id="edge9" class="edge"><title>Node7&#45;&gt;Node3</title>
<path fill="none" stroke="orange" stroke-dasharray="5,2" d="M283.095,-158.834C338.746,-153.078 420.482,-145.274 492,-141 609.285,-133.991 743.904,-130.735 835.613,-129.239"/>
<polygon fill="orange" stroke="orange" points="282.599,-155.366 273.015,-159.883 283.324,-162.329 282.599,-155.366"/>
<text text-anchor="start" x="492" y="-232" font-family="FreeSans" font-size="10.00"> &lt; PointVector&lt; dim,</text>
<text text-anchor="start" x="492" y="-221" font-family="FreeSans" font-size="10.00"> Integer &gt;, Word, std</text>
<text text-anchor="start" x="492" y="-210" font-family="FreeSans" font-size="10.00">::hash&lt; PointVector&lt; dim,</text>
<text text-anchor="start" x="492" y="-199" font-family="FreeSans" font-size="10.00"> Integer &gt; &gt;, std::equal</text>
<text text-anchor="start" x="492" y="-188" font-family="FreeSans" font-size="10.00">_to&lt; PointVector&lt; dim, Integer</text>
<text text-anchor="start" x="492" y="-177" font-family="FreeSans" font-size="10.00"> &gt; &gt;, std::allocator&lt; std::pair</text>
<text text-anchor="start" x="492" y="-166" font-family="FreeSans" font-size="10.00">&lt; const PointVector&lt; dim, Integer</text>
<text text-anchor="start" x="492" y="-155" font-family="FreeSans" font-size="10.00"> &gt;, typename DGtal::Splitter&lt; PointVector</text>
<text text-anchor="middle" x="593.5" y="-144" font-family="FreeSans" font-size="10.00">&lt; dim, Integer &gt;, uint64_t &gt; ::Word &gt; &gt; &gt;</text>
</g>
<!-- Node13 -->
<g id="node13" class="node"><title>Node13</title>
<polygon fill="white" stroke="#bfbfbf" points="515.5,-287.5 515.5,-328.5 671.5,-328.5 671.5,-287.5 515.5,-287.5"/>
<text text-anchor="start" x="523.5" y="-316.5" font-family="FreeSans" font-size="10.00">std::unordered_map</text>
<text text-anchor="start" x="523.5" y="-305.5" font-family="FreeSans" font-size="10.00">&lt; Key, Word, Hash, KeyEqual,</text>
<text text-anchor="middle" x="593.5" y="-294.5" font-family="FreeSans" font-size="10.00"> UnorderedMapAllocator &gt;</text>
</g>
<!-- Node7&#45;&gt;Node13 -->
<g id="edge16" class="edge"><title>Node7&#45;&gt;Node13</title>
<path fill="none" stroke="orange" stroke-dasharray="5,2" d="M260.111,-185.073C313.838,-208.49 408.741,-248.696 492,-278 501.189,-281.234 510.927,-284.427 520.582,-287.454"/>
<polygon fill="orange" stroke="orange" points="261.455,-181.841 250.89,-181.043 258.651,-188.255 261.455,-181.841"/>
<text text-anchor="start" x="297" y="-283" font-family="FreeSans" font-size="10.00"> &lt; Key, Word, Hash,</text>
<text text-anchor="middle" x="385.5" y="-272" font-family="FreeSans" font-size="10.00"> KeyEqual, UnorderedMapAllocator &gt;</text>
</g>
<!-- Node8 -->
<g id="node8" class="node"><title>Node8</title>
<polygon fill="white" stroke="#bfbfbf" points="19.5,-170.5 19.5,-189.5 48.5,-189.5 48.5,-170.5 19.5,-170.5"/>
<text text-anchor="middle" x="34" y="-177.5" font-family="FreeSans" font-size="10.00">K</text>
</g>
<!-- Node8&#45;&gt;Node7 -->
<g id="edge10" class="edge"><title>Node8&#45;&gt;Node7</title>
<path fill="none" stroke="#9a32cd" stroke-dasharray="5,2" d="M58.6624,-178.16C83.9886,-176.19 125.073,-172.994 158.77,-170.373"/>
<polygon fill="#9a32cd" stroke="#9a32cd" points="58.2277,-174.683 48.5293,-178.948 58.7706,-181.662 58.2277,-174.683"/>
<text text-anchor="middle" x="110.5" y="-179" font-family="FreeSans" font-size="10.00"> keys</text>
</g>
<!-- Node9 -->
<g id="node9" class="node"><title>Node9</title>
<polygon fill="white" stroke="#bfbfbf" points="19.5,-132.5 19.5,-151.5 48.5,-151.5 48.5,-132.5 19.5,-132.5"/>
<text text-anchor="middle" x="34" y="-139.5" font-family="FreeSans" font-size="10.00">T</text>
</g>
<!-- Node9&#45;&gt;Node7 -->
<g id="edge11" class="edge"><title>Node9&#45;&gt;Node7</title>
<path fill="none" stroke="#9a32cd" stroke-dasharray="5,2" d="M58.6624,-145.155C83.9886,-148.532 125.073,-154.01 158.77,-158.503"/>
<polygon fill="#9a32cd" stroke="#9a32cd" points="58.9041,-141.656 48.5293,-143.804 57.9789,-148.595 58.9041,-141.656"/>
<text text-anchor="middle" x="110.5" y="-158" font-family="FreeSans" font-size="10.00"> elements</text>
</g>
<!-- Node10 -->
<g id="node10" class="node"><title>Node10</title>
<g id="a_node10"><a xlink:href="structDGtal_1_1Splitter.html" target="_top" xlink:title="DGtal::Splitter\&lt; PointVector\l\&lt; dim, Integer \&gt;, uint64_t \&gt;">
<polygon fill="white" stroke="black" points="869,-18 869,-48 1022,-48 1022,-18 869,-18"/>
<text text-anchor="start" x="877" y="-36" font-family="FreeSans" font-size="10.00">DGtal::Splitter&lt; PointVector</text>
<text text-anchor="middle" x="945.5" y="-25" font-family="FreeSans" font-size="10.00">&lt; dim, Integer &gt;, uint64_t &gt;</text>
</a>
</g>
</g>
<!-- Node10&#45;&gt;Node2 -->
<g id="edge12" class="edge"><title>Node10&#45;&gt;Node2</title>
<path fill="none" stroke="#9a32cd" stroke-dasharray="5,2" d="M1020.6,-50.4471C1032.13,-53.2513 1043.9,-56.1648 1055,-59 1112.55,-73.694 1177.14,-91.218 1226.85,-104.929"/>
<polygon fill="#9a32cd" stroke="#9a32cd" points="1021.09,-46.9655 1010.55,-48.0157 1019.44,-53.7692 1021.09,-46.9655"/>
<text text-anchor="middle" x="1141" y="-103" font-family="FreeSans" font-size="10.00"> my_splitter</text>
</g>
<!-- Node11 -->
<g id="node11" class="node"><title>Node11</title>
<g id="a_node11"><a xlink:href="structDGtal_1_1Splitter.html" target="_top" xlink:title="DGtal::Splitter\&lt; TElement,\l TWord \&gt;">
<polygon fill="white" stroke="black" points="522,-16 522,-46 665,-46 665,-16 522,-16"/>
<text text-anchor="start" x="530" y="-34" font-family="FreeSans" font-size="10.00">DGtal::Splitter&lt; TElement,</text>
<text text-anchor="middle" x="593.5" y="-23" font-family="FreeSans" font-size="10.00"> TWord &gt;</text>
</a>
</g>
</g>
<!-- Node11&#45;&gt;Node10 -->
<g id="edge13" class="edge"><title>Node11&#45;&gt;Node10</title>
<path fill="none" stroke="orange" stroke-dasharray="5,2" d="M675.606,-31.4635C733.901,-31.7966 811.944,-32.2425 868.932,-32.5682"/>
<polygon fill="orange" stroke="orange" points="675.348,-27.962 665.328,-31.4047 675.308,-34.9619 675.348,-27.962"/>
<text text-anchor="start" x="713" y="-47" font-family="FreeSans" font-size="10.00"> &lt; PointVector&lt; dim,</text>
<text text-anchor="middle" x="765.5" y="-36" font-family="FreeSans" font-size="10.00"> Integer &gt;, uint64_t &gt;</text>
</g>
<!-- Node12 -->
<g id="node12" class="node"><title>Node12</title>
<g id="a_node12"><a xlink:href="structDGtal_1_1UnorderedSetByBlock.html" target="_top" xlink:title="DGtal::UnorderedSetByBlock\l\&lt; Key, TSplitter, Hash,\l KeyEqual, UnorderedMapAllocator \&gt;">
<polygon fill="white" stroke="black" points="849,-238.5 849,-279.5 1042,-279.5 1042,-238.5 849,-238.5"/>
<text text-anchor="start" x="857" y="-267.5" font-family="FreeSans" font-size="10.00">DGtal::UnorderedSetByBlock</text>
<text text-anchor="start" x="857" y="-256.5" font-family="FreeSans" font-size="10.00">&lt; Key, TSplitter, Hash,</text>
<text text-anchor="middle" x="945.5" y="-245.5" font-family="FreeSans" font-size="10.00"> KeyEqual, UnorderedMapAllocator &gt;</text>
</a>
</g>
</g>
<!-- Node12&#45;&gt;Node2 -->
<g id="edge14" class="edge"><title>Node12&#45;&gt;Node2</title>
<path fill="none" stroke="orange" stroke-dasharray="5,2" d="M1013.14,-234.95C1076.69,-212.018 1172.11,-177.58 1237.41,-154.017"/>
<polygon fill="orange" stroke="orange" points="1011.84,-231.7 1003.62,-238.387 1014.21,-238.285 1011.84,-231.7"/>
<text text-anchor="start" x="1073" y="-248" font-family="FreeSans" font-size="10.00"> &lt; PointVector&lt; dim,</text>
<text text-anchor="start" x="1073" y="-237" font-family="FreeSans" font-size="10.00"> Integer &gt;, DGtal::Splitter</text>
<text text-anchor="start" x="1073" y="-226" font-family="FreeSans" font-size="10.00">&lt; PointVector&lt; dim, Integer</text>
<text text-anchor="middle" x="1141" y="-215" font-family="FreeSans" font-size="10.00"> &gt;, uint64_t &gt; &gt;</text>
</g>
<!-- Node13&#45;&gt;Node12 -->
<g id="edge15" class="edge"><title>Node13&#45;&gt;Node12</title>
<path fill="none" stroke="#9a32cd" stroke-dasharray="5,2" d="M681.711,-295.79C732.477,-288.683 796.546,-279.714 848.712,-272.41"/>
<polygon fill="#9a32cd" stroke="#9a32cd" points="681.16,-292.333 671.742,-297.186 682.131,-299.266 681.16,-292.333"/>
<text text-anchor="middle" x="765.5" y="-293" font-family="FreeSans" font-size="10.00"> my_elements</text>
</g>
<!-- Node14 -->
<g id="node14" class="node"><title>Node14</title>
<polygon fill="white" stroke="#bfbfbf" points="565.5,-249.5 565.5,-268.5 621.5,-268.5 621.5,-249.5 565.5,-249.5"/>
<text text-anchor="middle" x="593.5" y="-256.5" font-family="FreeSans" font-size="10.00">TSplitter</text>
</g>
<!-- Node14&#45;&gt;Node12 -->
<g id="edge17" class="edge"><title>Node14&#45;&gt;Node12</title>
<path fill="none" stroke="#9a32cd" stroke-dasharray="5,2" d="M631.949,-259C683.249,-259 777.156,-259 848.691,-259"/>
<polygon fill="#9a32cd" stroke="#9a32cd" points="631.673,-255.5 621.673,-259 631.673,-262.5 631.673,-255.5"/>
<text text-anchor="middle" x="765.5" y="-262" font-family="FreeSans" font-size="10.00"> my_splitter</text>
</g>
</g>
</svg>
