<?xml version="1.0" encoding="UTF-8" standalone="no"?>
<!DOCTYPE svg PUBLIC "-//W3C//DTD SVG 1.1//EN"
 "http://www.w3.org/Graphics/SVG/1.1/DTD/svg11.dtd">
<!-- Generated by graphviz version 2.36.0 (20140111.2315)
 -->
<!-- Title: DGtal::Trace Pages: 1 -->
<svg width="497pt" height="372pt"
 viewBox="0.00 0.00 497.00 372.00" xmlns="http://www.w3.org/2000/svg" xmlns:xlink="http://www.w3.org/1999/xlink">
<g id="graph0" class="graph" transform="scale(1 1) rotate(0) translate(4 368)">
<title>DGtal::Trace</title>
<polygon fill="white" stroke="none" points="-4,4 -4,-368 493,-368 493,4 -4,4"/>
<!-- Node1 -->
<g id="node1" class="node"><title>Node1</title>
<polygon fill="#bfbfbf" stroke="black" points="217,-0.5 217,-19.5 291,-19.5 291,-0.5 217,-0.5"/>
<text text-anchor="middle" x="254" y="-7.5" font-family="FreeSans" font-size="10.00">DGtal::Trace</text>
</g>
<!-- Node2 -->
<g id="node2" class="node"><title>Node2</title>
<polygon fill="white" stroke="#bfbfbf" points="187,-74.5 187,-93.5 321,-93.5 321,-74.5 187,-74.5"/>
<text text-anchor="middle" x="254" y="-81.5" font-family="FreeSans" font-size="10.00">std::stack&lt; std::string &gt;</text>
</g>
<!-- Node2&#45;&gt;Node1 -->
<g id="edge1" class="edge"><title>Node2&#45;&gt;Node1</title>
<path fill="none" stroke="#9a32cd" stroke-dasharray="5,2" d="M254,-64.1562C254,-49.7123 254,-30.4594 254,-19.531"/>
<polygon fill="#9a32cd" stroke="#9a32cd" points="250.5,-64.4579 254,-74.4579 257.5,-64.4579 250.5,-64.4579"/>
<text text-anchor="middle" x="296.5" y="-41.5" font-family="FreeSans" font-size="10.00"> myKeywordStack</text>
</g>
<!-- Node3 -->
<g id="node3" class="node"><title>Node3</title>
<g id="a_node3"><a xlink:title="STL class. ">
<polygon fill="white" stroke="#bfbfbf" points="280.5,-148.5 280.5,-167.5 345.5,-167.5 345.5,-148.5 280.5,-148.5"/>
<text text-anchor="middle" x="313" y="-155.5" font-family="FreeSans" font-size="10.00">std::string</text>
</a>
</g>
</g>
<!-- Node3&#45;&gt;Node2 -->
<g id="edge2" class="edge"><title>Node3&#45;&gt;Node2</title>
<path fill="none" stroke="#9a32cd" stroke-dasharray="5,2" d="M307.643,-138.413C305.109,-131.571 301.609,-124.028 297,-118 289.341,-107.983 277.919,-99.4107 268.771,-93.5156"/>
<polygon fill="#9a32cd" stroke="#9a32cd" points="304.427,-139.842 310.849,-148.268 311.084,-137.676 304.427,-139.842"/>
<text text-anchor="middle" x="329.5" y="-121.5" font-family="FreeSans" font-size="10.00"> elements</text>
</g>
<!-- Node4 -->
<g id="node4" class="node"><title>Node4</title>
<g id="a_node4"><a xlink:title="STL class. ">
<polygon fill="white" stroke="#bfbfbf" points="244.5,-217 244.5,-247 347.5,-247 347.5,-217 244.5,-217"/>
<text text-anchor="start" x="252.5" y="-235" font-family="FreeSans" font-size="10.00">std::basic_string&lt;</text>
<text text-anchor="middle" x="296" y="-224" font-family="FreeSans" font-size="10.00"> char &gt;</text>
</a>
</g>
</g>
<!-- Node4&#45;&gt;Node3 -->
<g id="edge3" class="edge"><title>Node4&#45;&gt;Node3</title>
<path fill="none" stroke="midnightblue" d="M301.74,-206.688C304.913,-193.253 308.66,-177.38 310.932,-167.759"/>
<polygon fill="midnightblue" stroke="midnightblue" points="298.25,-206.238 299.359,-216.775 305.063,-207.847 298.25,-206.238"/>
</g>
<!-- Node5 -->
<g id="node5" class="node"><title>Node5</title>
<g id="a_node5"><a xlink:title="STL class. ">
<polygon fill="white" stroke="#bfbfbf" points="126.5,-148.5 126.5,-167.5 217.5,-167.5 217.5,-148.5 126.5,-148.5"/>
<text text-anchor="middle" x="172" y="-155.5" font-family="FreeSans" font-size="10.00">std::stack&lt; T &gt;</text>
</a>
</g>
</g>
<!-- Node5&#45;&gt;Node2 -->
<g id="edge4" class="edge"><title>Node5&#45;&gt;Node2</title>
<path fill="none" stroke="orange" stroke-dasharray="5,2" d="M189.663,-141.491C206.378,-126.815 230.852,-105.325 244.284,-93.531"/>
<polygon fill="orange" stroke="orange" points="186.934,-139.23 181.728,-148.458 191.552,-144.49 186.934,-139.23"/>
<text text-anchor="middle" x="253" y="-121.5" font-family="FreeSans" font-size="10.00"> &lt; std::string &gt;</text>
</g>
<!-- Node7 -->
<g id="node7" class="node"><title>Node7</title>
<polygon fill="white" stroke="#bfbfbf" points="55.5,-69 55.5,-99 162.5,-99 162.5,-69 55.5,-69"/>
<text text-anchor="start" x="63.5" y="-87" font-family="FreeSans" font-size="10.00">std::stack&lt; DGtal::</text>
<text text-anchor="middle" x="109" y="-76" font-family="FreeSans" font-size="10.00">Clock *&gt;</text>
</g>
<!-- Node5&#45;&gt;Node7 -->
<g id="edge8" class="edge"><title>Node5&#45;&gt;Node7</title>
<path fill="none" stroke="orange" stroke-dasharray="5,2" d="M125.258,-143.881C119.257,-140.305 113.869,-135.763 110,-130 103.99,-121.046 104.169,-108.669 105.611,-99.1615"/>
<polygon fill="orange" stroke="orange" points="123.873,-147.103 134.381,-148.461 127.014,-140.847 123.873,-147.103"/>
<text text-anchor="middle" x="155" y="-121.5" font-family="FreeSans" font-size="10.00"> &lt; DGtal::Clock *&gt;</text>
</g>
<!-- Node6 -->
<g id="node6" class="node"><title>Node6</title>
<polygon fill="white" stroke="#bfbfbf" points="157.5,-222.5 157.5,-241.5 186.5,-241.5 186.5,-222.5 157.5,-222.5"/>
<text text-anchor="middle" x="172" y="-229.5" font-family="FreeSans" font-size="10.00">T</text>
</g>
<!-- Node6&#45;&gt;Node5 -->
<g id="edge5" class="edge"><title>Node6&#45;&gt;Node5</title>
<path fill="none" stroke="#9a32cd" stroke-dasharray="5,2" d="M172,-212.156C172,-197.712 172,-178.459 172,-167.531"/>
<polygon fill="#9a32cd" stroke="#9a32cd" points="168.5,-212.458 172,-222.458 175.5,-212.458 168.5,-212.458"/>
<text text-anchor="middle" x="196.5" y="-189.5" font-family="FreeSans" font-size="10.00"> elements</text>
</g>
<!-- Node7&#45;&gt;Node1 -->
<g id="edge6" class="edge"><title>Node7&#45;&gt;Node1</title>
<path fill="none" stroke="#9a32cd" stroke-dasharray="5,2" d="M136.805,-63.067C149.318,-54.6442 164.509,-45.1515 179,-38 193.892,-30.6506 211.302,-24.2587 225.598,-19.5414"/>
<polygon fill="#9a32cd" stroke="#9a32cd" points="134.479,-60.4179 128.215,-68.9623 138.44,-66.1895 134.479,-60.4179"/>
<text text-anchor="middle" x="214.5" y="-41.5" font-family="FreeSans" font-size="10.00"> myClockStack</text>
</g>
<!-- Node8 -->
<g id="node8" class="node"><title>Node8</title>
<g id="a_node8"><a xlink:href="classDGtal_1_1Clock.html" target="_top" xlink:title="DGtal::Clock">
<polygon fill="white" stroke="black" points="-0.5,-148.5 -0.5,-167.5 74.5,-167.5 74.5,-148.5 -0.5,-148.5"/>
<text text-anchor="middle" x="37" y="-155.5" font-family="FreeSans" font-size="10.00">DGtal::Clock</text>
</a>
</g>
</g>
<!-- Node8&#45;&gt;Node7 -->
<g id="edge7" class="edge"><title>Node8&#45;&gt;Node7</title>
<path fill="none" stroke="#9a32cd" stroke-dasharray="5,2" d="M41.8819,-138.363C44.3732,-131.413 47.9689,-123.808 53,-118 59.5756,-110.408 68.3475,-104.107 76.9939,-99.1158"/>
<polygon fill="#9a32cd" stroke="#9a32cd" points="38.3923,-137.808 38.8282,-148.394 45.0889,-139.847 38.3923,-137.808"/>
<text text-anchor="middle" x="77.5" y="-121.5" font-family="FreeSans" font-size="10.00"> elements</text>
</g>
<!-- Node9 -->
<g id="node9" class="node"><title>Node9</title>
<g id="a_node9"><a xlink:href="classDGtal_1_1TraceWriter.html" target="_top" xlink:title="Virtual Class to implement trace writers. ">
<polygon fill="white" stroke="black" points="342.5,-74.5 342.5,-93.5 443.5,-93.5 443.5,-74.5 342.5,-74.5"/>
<text text-anchor="middle" x="393" y="-81.5" font-family="FreeSans" font-size="10.00">DGtal::TraceWriter</text>
</a>
</g>
</g>
<!-- Node9&#45;&gt;Node1 -->
<g id="edge9" class="edge"><title>Node9&#45;&gt;Node1</title>
<path fill="none" stroke="#9a32cd" stroke-dasharray="5,2" d="M378.793,-67.0628C369.458,-57.4469 356.509,-45.6216 343,-38 327.109,-29.0342 307.906,-22.7229 291.411,-18.4695"/>
<polygon fill="#9a32cd" stroke="#9a32cd" points="376.335,-69.5583 385.717,-74.4797 381.452,-64.7815 376.335,-69.5583"/>
<text text-anchor="middle" x="383" y="-41.5" font-family="FreeSans" font-size="10.00"> myWriter</text>
</g>
<!-- Node10 -->
<g id="node10" class="node"><title>Node10</title>
<g id="a_node10"><a xlink:title="STL class. ">
<polygon fill="white" stroke="#bfbfbf" points="368,-148.5 368,-167.5 446,-167.5 446,-148.5 368,-148.5"/>
<text text-anchor="middle" x="407" y="-155.5" font-family="FreeSans" font-size="10.00">std::ostream</text>
</a>
</g>
</g>
<!-- Node10&#45;&gt;Node9 -->
<g id="edge10" class="edge"><title>Node10&#45;&gt;Node9</title>
<path fill="none" stroke="#9a32cd" stroke-dasharray="5,2" d="M403.419,-138.584C400.602,-124.094 396.805,-104.568 394.659,-93.531"/>
<polygon fill="#9a32cd" stroke="#9a32cd" points="399.995,-139.31 405.339,-148.458 406.866,-137.974 399.995,-139.31"/>
<text text-anchor="middle" x="445" y="-121.5" font-family="FreeSans" font-size="10.00"> myOutputStream</text>
</g>
<!-- Node11 -->
<g id="node11" class="node"><title>Node11</title>
<g id="a_node11"><a xlink:title="STL class. ">
<polygon fill="white" stroke="#bfbfbf" points="366,-217 366,-247 474,-247 474,-217 366,-217"/>
<text text-anchor="start" x="374" y="-235" font-family="FreeSans" font-size="10.00">std::basic_ostream</text>
<text text-anchor="middle" x="420" y="-224" font-family="FreeSans" font-size="10.00">&lt; char &gt;</text>
</a>
</g>
</g>
<!-- Node11&#45;&gt;Node10 -->
<g id="edge11" class="edge"><title>Node11&#45;&gt;Node10</title>
<path fill="none" stroke="midnightblue" d="M415.61,-206.688C413.184,-193.253 410.319,-177.38 408.581,-167.759"/>
<polygon fill="midnightblue" stroke="midnightblue" points="412.21,-207.556 417.432,-216.775 419.099,-206.312 412.21,-207.556"/>
</g>
<!-- Node12 -->
<g id="node12" class="node"><title>Node12</title>
<g id="a_node12"><a xlink:title="STL class. ">
<polygon fill="white" stroke="#bfbfbf" points="357,-286.5 357,-305.5 483,-305.5 483,-286.5 357,-286.5"/>
<text text-anchor="middle" x="420" y="-293.5" font-family="FreeSans" font-size="10.00">std::basic_ios&lt; Char &gt;</text>
</a>
</g>
</g>
<!-- Node12&#45;&gt;Node11 -->
<g id="edge12" class="edge"><title>Node12&#45;&gt;Node11</title>
<path fill="none" stroke="midnightblue" d="M420,-276.183C420,-266.886 420,-255.851 420,-247.263"/>
<polygon fill="midnightblue" stroke="midnightblue" points="416.5,-276.379 420,-286.379 423.5,-276.379 416.5,-276.379"/>
</g>
<!-- Node13 -->
<g id="node13" class="node"><title>Node13</title>
<g id="a_node13"><a xlink:title="STL class. ">
<polygon fill="white" stroke="#bfbfbf" points="380,-344.5 380,-363.5 460,-363.5 460,-344.5 380,-344.5"/>
<text text-anchor="middle" x="420" y="-351.5" font-family="FreeSans" font-size="10.00">std::ios_base</text>
</a>
</g>
</g>
<!-- Node13&#45;&gt;Node12 -->
<g id="edge13" class="edge"><title>Node13&#45;&gt;Node12</title>
<path fill="none" stroke="midnightblue" d="M420,-333.953C420,-324.287 420,-313.031 420,-305.505"/>
<polygon fill="midnightblue" stroke="midnightblue" points="416.5,-334.25 420,-344.25 423.5,-334.25 416.5,-334.25"/>
</g>
</g>
</svg>
