<?xml version="1.0" encoding="UTF-8" standalone="no"?>
<!DOCTYPE svg PUBLIC "-//W3C//DTD SVG 1.1//EN"
 "http://www.w3.org/Graphics/SVG/1.1/DTD/svg11.dtd">
<!-- Generated by graphviz version 2.38.0 (20140413.2041)
 -->
<!-- Title: DGtal::NGon2D&lt; TSpace &gt; Pages: 1 -->
<svg width="517pt" height="129pt"
 viewBox="0.00 0.00 517.00 128.50" xmlns="http://www.w3.org/2000/svg" xmlns:xlink="http://www.w3.org/1999/xlink">
<g id="graph0" class="graph" transform="scale(1 1) rotate(0) translate(4 124.5)">
<title>DGtal::NGon2D&lt; TSpace &gt;</title>
<polygon fill="white" stroke="none" points="-4,4 -4,-124.5 513,-124.5 513,4 -4,4"/>
<!-- Node2 -->
<g id="node1" class="node"><title>Node2</title>
<polygon fill="#bfbfbf" stroke="black" points="361,-67.5 361,-86.5 509,-86.5 509,-67.5 361,-67.5"/>
<text text-anchor="middle" x="435" y="-74.5" font-family="FreeSans" font-size="10.00">DGtal::NGon2D&lt; TSpace &gt;</text>
</g>
<!-- Node3 -->
<g id="node2" class="node"><title>Node3</title>
<g id="a_node2"><a xlink:href="classDGtal_1_1StarShaped2D.html" target="_top" xlink:title="DGtal::StarShaped2D\l\&lt; TSpace \&gt;">
<polygon fill="white" stroke="black" points="151,-90 151,-120 271,-120 271,-90 151,-90"/>
<text text-anchor="start" x="159" y="-108" font-family="FreeSans" font-size="10.00">DGtal::StarShaped2D</text>
<text text-anchor="middle" x="211" y="-97" font-family="FreeSans" font-size="10.00">&lt; TSpace &gt;</text>
</a>
</g>
</g>
<!-- Node3&#45;&gt;Node2 -->
<g id="edge1" class="edge"><title>Node3&#45;&gt;Node2</title>
<path fill="none" stroke="midnightblue" d="M281.41,-96.2456C306.611,-93.0671 335.155,-89.4669 360.683,-86.2472"/>
<polygon fill="midnightblue" stroke="midnightblue" points="280.684,-92.8094 271.2,-97.5333 281.56,-99.7544 280.684,-92.8094"/>
</g>
<!-- Node4 -->
<g id="node3" class="node"><title>Node4</title>
<g id="a_node3"><a xlink:href="classDGtal_1_1PointVector.html" target="_top" xlink:title="Aim: Implements basic operations that will be used in Point and Vector classes. ">
<polygon fill="white" stroke="black" points="148,-0.5 148,-41.5 274,-41.5 274,-0.5 148,-0.5"/>
<text text-anchor="start" x="156" y="-29.5" font-family="FreeSans" font-size="10.00">DGtal::PointVector</text>
<text text-anchor="start" x="156" y="-18.5" font-family="FreeSans" font-size="10.00">&lt; dim, TEuclideanRing,</text>
<text text-anchor="middle" x="211" y="-7.5" font-family="FreeSans" font-size="10.00"> TContainer &gt;</text>
</a>
</g>
</g>
<!-- Node4&#45;&gt;Node2 -->
<g id="edge2" class="edge"><title>Node4&#45;&gt;Node2</title>
<path fill="none" stroke="#9a32cd" stroke-dasharray="5,2" d="M283.985,-39.1584C321.389,-48.5936 365.564,-59.737 396.249,-67.4773"/>
<polygon fill="#9a32cd" stroke="#9a32cd" points="284.687,-35.7259 274.135,-36.6736 282.975,-42.5133 284.687,-35.7259"/>
<text text-anchor="middle" x="317.5" y="-57" font-family="FreeSans" font-size="10.00"> myCenter</text>
</g>
<!-- Node4&#45;&gt;Node4 -->
<g id="edge4" class="edge"><title>Node4&#45;&gt;Node4</title>
<path fill="none" stroke="#9a32cd" stroke-dasharray="5,2" d="M193.452,-51.8561C196.061,-56.6966 201.911,-60 211,-60 225.543,-60 231.792,-51.5433 229.747,-41.8644"/>
<polygon fill="#9a32cd" stroke="#9a32cd" points="196.919,-51.3765 192.253,-41.8644 189.969,-52.2101 196.919,-51.3765"/>
<text text-anchor="middle" x="211" y="-63" font-family="FreeSans" font-size="10.00"> zero</text>
</g>
<!-- Node5 -->
<g id="node4" class="node"><title>Node5</title>
<polygon fill="white" stroke="#bfbfbf" points="0,-11.5 0,-30.5 68,-30.5 68,-11.5 0,-11.5"/>
<text text-anchor="middle" x="34" y="-18.5" font-family="FreeSans" font-size="10.00">TContainer</text>
</g>
<!-- Node5&#45;&gt;Node4 -->
<g id="edge3" class="edge"><title>Node5&#45;&gt;Node4</title>
<path fill="none" stroke="#9a32cd" stroke-dasharray="5,2" d="M78.5018,-21C99.4065,-21 124.84,-21 147.749,-21"/>
<polygon fill="#9a32cd" stroke="#9a32cd" points="78.3281,-17.5001 68.3281,-21 78.328,-24.5001 78.3281,-17.5001"/>
<text text-anchor="middle" x="108" y="-24" font-family="FreeSans" font-size="10.00"> myArray</text>
</g>
</g>
</svg>
