<?xml version="1.0" encoding="UTF-8" standalone="no"?>
<!DOCTYPE svg PUBLIC "-//W3C//DTD SVG 1.1//EN"
 "http://www.w3.org/Graphics/SVG/1.1/DTD/svg11.dtd">
<!-- Generated by graphviz version 2.36.0 (20140111.2315)
 -->
<!-- Title: DGtal::ImplicitDigitalSurface&lt; TKSpace, TPointPredicate &gt;::Tracker Pages: 1 -->
<svg width="2092pt" height="221pt"
 viewBox="0.00 0.00 2092.00 221.32" xmlns="http://www.w3.org/2000/svg" xmlns:xlink="http://www.w3.org/1999/xlink">
<g id="graph0" class="graph" transform="scale(1 1) rotate(0) translate(4 217.318)">
<title>DGtal::ImplicitDigitalSurface&lt; TKSpace, TPointPredicate &gt;::Tracker</title>
<polygon fill="white" stroke="none" points="-4,4 -4,-217.318 2088,-217.318 2088,4 -4,4"/>
<!-- Node1 -->
<g id="node1" class="node"><title>Node1</title>
<polygon fill="#bfbfbf" stroke="black" points="1934,-88.8181 1934,-129.818 2084,-129.818 2084,-88.8181 1934,-88.8181"/>
<text text-anchor="start" x="1942" y="-117.818" font-family="FreeSans" font-size="10.00">DGtal::ImplicitDigitalSurface</text>
<text text-anchor="start" x="1942" y="-106.818" font-family="FreeSans" font-size="10.00">&lt; TKSpace, TPointPredicate</text>
<text text-anchor="middle" x="2009" y="-95.8181" font-family="FreeSans" font-size="10.00"> &gt;::Tracker</text>
</g>
<!-- Node2 -->
<g id="node2" class="node"><title>Node2</title>
<g id="a_node2"><a xlink:href="classDGtal_1_1SurfelNeighborhood.html" target="_top" xlink:title="DGtal::SurfelNeighborhood\l\&lt; KSpace \&gt;">
<polygon fill="white" stroke="black" points="1658.5,-68.3181 1658.5,-98.3181 1803.5,-98.3181 1803.5,-68.3181 1658.5,-68.3181"/>
<text text-anchor="start" x="1666.5" y="-86.3181" font-family="FreeSans" font-size="10.00">DGtal::SurfelNeighborhood</text>
<text text-anchor="middle" x="1731" y="-75.3181" font-family="FreeSans" font-size="10.00">&lt; KSpace &gt;</text>
</a>
</g>
</g>
<!-- Node2&#45;&gt;Node1 -->
<g id="edge1" class="edge"><title>Node2&#45;&gt;Node1</title>
<path fill="none" stroke="#9a32cd" stroke-dasharray="5,2" d="M1813.81,-91.0245C1851.8,-94.604 1896.66,-98.8292 1933.68,-102.317"/>
<polygon fill="#9a32cd" stroke="#9a32cd" points="1814.08,-87.5348 1803.8,-90.0814 1813.42,-94.5039 1814.08,-87.5348"/>
<text text-anchor="middle" x="1873" y="-103.318" font-family="FreeSans" font-size="10.00"> myNeighborhood</text>
</g>
<!-- Node3 -->
<g id="node3" class="node"><title>Node3</title>
<g id="a_node3"><a xlink:href="structDGtal_1_1SignedKhalimskyCell.html" target="_top" xlink:title="Represents a signed cell in a cellular grid space by its Khalimsky coordinates and a boolean value...">
<polygon fill="white" stroke="black" points="1160,-120.318 1160,-150.318 1308,-150.318 1308,-120.318 1160,-120.318"/>
<text text-anchor="start" x="1168" y="-138.318" font-family="FreeSans" font-size="10.00">DGtal::SignedKhalimskyCell</text>
<text text-anchor="middle" x="1234" y="-127.318" font-family="FreeSans" font-size="10.00">&lt; dim, TInteger &gt;</text>
</a>
</g>
</g>
<!-- Node3&#45;&gt;Node2 -->
<g id="edge2" class="edge"><title>Node3&#45;&gt;Node2</title>
<path fill="none" stroke="#9a32cd" stroke-dasharray="5,2" d="M1318.44,-129.445C1398.92,-123.331 1524.08,-112.642 1632,-98.3181 1640.53,-97.1858 1649.47,-95.9236 1658.33,-94.6254"/>
<polygon fill="#9a32cd" stroke="#9a32cd" points="1318.07,-125.963 1308.36,-130.204 1318.6,-132.943 1318.07,-125.963"/>
<text text-anchor="middle" x="1479" y="-125.318" font-family="FreeSans" font-size="10.00"> mySurfel</text>
</g>
<!-- Node11 -->
<g id="node11" class="node"><title>Node11</title>
<g id="a_node11"><a xlink:href="classDGtal_1_1SurfelNeighborhood.html" target="_top" xlink:title="Aim: This helper class is useful to compute the neighboring surfels of a given surfel, especially over a digital surface or over an object boundary. Two signed surfels are incident if they share a common n&#45;2 cell. This class uses a SurfelAdjacency so as to determine adjacent surfels (either looking for them from interior to exterior or inversely). ">
<polygon fill="white" stroke="black" points="1406.5,-68.3181 1406.5,-98.3181 1551.5,-98.3181 1551.5,-68.3181 1406.5,-68.3181"/>
<text text-anchor="start" x="1414.5" y="-86.3181" font-family="FreeSans" font-size="10.00">DGtal::SurfelNeighborhood</text>
<text text-anchor="middle" x="1479" y="-75.3181" font-family="FreeSans" font-size="10.00">&lt; TKSpace &gt;</text>
</a>
</g>
</g>
<!-- Node3&#45;&gt;Node11 -->
<g id="edge15" class="edge"><title>Node3&#45;&gt;Node11</title>
<path fill="none" stroke="#9a32cd" stroke-dasharray="5,2" d="M1296.48,-117.6C1306.32,-115.005 1316.41,-112.482 1326,-110.318 1352.01,-104.447 1380.77,-99.0616 1406.2,-94.6705"/>
<polygon fill="#9a32cd" stroke="#9a32cd" points="1295.52,-114.236 1286.76,-120.208 1297.33,-120.996 1295.52,-114.236"/>
<text text-anchor="middle" x="1357" y="-113.318" font-family="FreeSans" font-size="10.00"> mySurfel</text>
</g>
<!-- Node13 -->
<g id="node13" class="node"><title>Node13</title>
<polygon fill="white" stroke="#bfbfbf" points="1420,-164.818 1420,-183.818 1538,-183.818 1538,-164.818 1420,-164.818"/>
<text text-anchor="middle" x="1479" y="-171.818" font-family="FreeSans" font-size="10.00">std::vector&lt; Surfel &gt;</text>
</g>
<!-- Node3&#45;&gt;Node13 -->
<g id="edge19" class="edge"><title>Node3&#45;&gt;Node13</title>
<path fill="none" stroke="#9a32cd" stroke-dasharray="5,2" d="M1318.46,-148.713C1351.89,-154.078 1389.59,-160.129 1419.95,-165.001"/>
<polygon fill="#9a32cd" stroke="#9a32cd" points="1318.67,-145.201 1308.24,-147.072 1317.56,-152.113 1318.67,-145.201"/>
<text text-anchor="middle" x="1357" y="-163.318" font-family="FreeSans" font-size="10.00"> elements</text>
</g>
<!-- Node4 -->
<g id="node4" class="node"><title>Node4</title>
<g id="a_node4"><a xlink:href="structDGtal_1_1SignedKhalimskyPreCell.html" target="_top" xlink:title="DGtal::SignedKhalimskyPre\lCell\&lt; dim, Integer \&gt;">
<polygon fill="white" stroke="black" points="860,-120.318 860,-150.318 1006,-150.318 1006,-120.318 860,-120.318"/>
<text text-anchor="start" x="868" y="-138.318" font-family="FreeSans" font-size="10.00">DGtal::SignedKhalimskyPre</text>
<text text-anchor="middle" x="933" y="-127.318" font-family="FreeSans" font-size="10.00">Cell&lt; dim, Integer &gt;</text>
</a>
</g>
</g>
<!-- Node4&#45;&gt;Node3 -->
<g id="edge3" class="edge"><title>Node4&#45;&gt;Node3</title>
<path fill="none" stroke="#9a32cd" stroke-dasharray="5,2" d="M1016.4,-135.318C1061.37,-135.318 1116.57,-135.318 1159.99,-135.318"/>
<polygon fill="#9a32cd" stroke="#9a32cd" points="1016.38,-131.818 1006.38,-135.318 1016.38,-138.818 1016.38,-131.818"/>
<text text-anchor="middle" x="1083" y="-138.318" font-family="FreeSans" font-size="10.00"> mySPreCell</text>
</g>
<!-- Node5 -->
<g id="node5" class="node"><title>Node5</title>
<g id="a_node5"><a xlink:href="classDGtal_1_1PointVector.html" target="_top" xlink:title="DGtal::PointVector\l\&lt; dim, Integer \&gt;">
<polygon fill="white" stroke="black" points="394,-126.318 394,-156.318 498,-156.318 498,-126.318 394,-126.318"/>
<text text-anchor="start" x="402" y="-144.318" font-family="FreeSans" font-size="10.00">DGtal::PointVector</text>
<text text-anchor="middle" x="446" y="-133.318" font-family="FreeSans" font-size="10.00">&lt; dim, Integer &gt;</text>
</a>
</g>
</g>
<!-- Node5&#45;&gt;Node4 -->
<g id="edge4" class="edge"><title>Node5&#45;&gt;Node4</title>
<path fill="none" stroke="#9a32cd" stroke-dasharray="5,2" d="M508.229,-141.754C585.882,-142.135 723.901,-142.24 842,-139.318 847.785,-139.175 853.778,-138.99 859.798,-138.777"/>
<polygon fill="#9a32cd" stroke="#9a32cd" points="508.16,-138.254 498.142,-141.701 508.123,-145.254 508.16,-138.254"/>
<text text-anchor="middle" x="667" y="-145.318" font-family="FreeSans" font-size="10.00"> coordinates</text>
</g>
<!-- Node8 -->
<g id="node8" class="node"><title>Node8</title>
<g id="a_node8"><a xlink:href="structDGtal_1_1SignedKhalimskyPreCell.html" target="_top" xlink:title="Represents a signed cell in an unbounded cellular grid space by its Khalimsky coordinates and a boole...">
<polygon fill="white" stroke="black" points="594,-87.3181 594,-117.318 740,-117.318 740,-87.3181 594,-87.3181"/>
<text text-anchor="start" x="602" y="-105.318" font-family="FreeSans" font-size="10.00">DGtal::SignedKhalimskyPre</text>
<text text-anchor="middle" x="667" y="-94.3181" font-family="FreeSans" font-size="10.00">Cell&lt; dim, TInteger &gt;</text>
</a>
</g>
</g>
<!-- Node5&#45;&gt;Node8 -->
<g id="edge11" class="edge"><title>Node5&#45;&gt;Node8</title>
<path fill="none" stroke="#9a32cd" stroke-dasharray="5,2" d="M508.003,-130.455C534.576,-125.722 565.926,-120.14 593.665,-115.2"/>
<polygon fill="#9a32cd" stroke="#9a32cd" points="507.301,-127.024 498.069,-132.224 508.528,-133.916 507.301,-127.024"/>
<text text-anchor="middle" x="546" y="-132.318" font-family="FreeSans" font-size="10.00"> coordinates</text>
</g>
<!-- Node6 -->
<g id="node6" class="node"><title>Node6</title>
<polygon fill="white" stroke="#bfbfbf" points="0,-155.818 0,-174.818 68,-174.818 68,-155.818 0,-155.818"/>
<text text-anchor="middle" x="34" y="-162.818" font-family="FreeSans" font-size="10.00">TContainer</text>
</g>
<!-- Node6&#45;&gt;Node5 -->
<g id="edge5" class="edge"><title>Node6&#45;&gt;Node5</title>
<path fill="none" stroke="#9a32cd" stroke-dasharray="5,2" d="M78.3566,-165.791C99.3833,-165.998 125.007,-166.216 148,-166.318 203.999,-166.566 218.147,-170.379 274,-166.318 314.547,-163.37 360.078,-156.539 393.957,-150.761"/>
<polygon fill="#9a32cd" stroke="#9a32cd" points="78.1626,-162.289 68.1278,-165.688 78.0919,-169.289 78.1626,-162.289"/>
<text text-anchor="middle" x="211" y="-171.318" font-family="FreeSans" font-size="10.00"> myArray</text>
</g>
<!-- Node7 -->
<g id="node7" class="node"><title>Node7</title>
<g id="a_node7"><a xlink:href="classDGtal_1_1PointVector.html" target="_top" xlink:title="Aim: Implements basic operations that will be used in Point and Vector classes. ">
<polygon fill="white" stroke="black" points="148,-86.8181 148,-127.818 274,-127.818 274,-86.8181 148,-86.8181"/>
<text text-anchor="start" x="156" y="-115.818" font-family="FreeSans" font-size="10.00">DGtal::PointVector</text>
<text text-anchor="start" x="156" y="-104.818" font-family="FreeSans" font-size="10.00">&lt; dim, TEuclideanRing,</text>
<text text-anchor="middle" x="211" y="-93.8181" font-family="FreeSans" font-size="10.00"> TContainer &gt;</text>
</a>
</g>
</g>
<!-- Node6&#45;&gt;Node7 -->
<g id="edge7" class="edge"><title>Node6&#45;&gt;Node7</title>
<path fill="none" stroke="#9a32cd" stroke-dasharray="5,2" d="M73.4757,-152.566C95.3137,-145.328 123.167,-136.097 148.013,-127.862"/>
<polygon fill="#9a32cd" stroke="#9a32cd" points="72.2888,-149.272 63.8977,-155.741 74.4911,-155.917 72.2888,-149.272"/>
<text text-anchor="middle" x="108" y="-151.318" font-family="FreeSans" font-size="10.00"> myArray</text>
</g>
<!-- Node7&#45;&gt;Node5 -->
<g id="edge6" class="edge"><title>Node7&#45;&gt;Node5</title>
<path fill="none" stroke="#9a32cd" stroke-dasharray="5,2" d="M283.942,-118.13C286.662,-118.533 289.356,-118.93 292,-119.318 325.985,-124.31 364.235,-129.81 393.989,-134.062"/>
<polygon fill="#9a32cd" stroke="#9a32cd" points="284.418,-114.663 274.012,-116.658 283.391,-121.587 284.418,-114.663"/>
<text text-anchor="middle" x="334" y="-135.318" font-family="FreeSans" font-size="10.00"> zero</text>
</g>
<!-- Node7&#45;&gt;Node5 -->
<g id="edge9" class="edge"><title>Node7&#45;&gt;Node5</title>
<path fill="none" stroke="orange" stroke-dasharray="5,2" d="M284.333,-99.4764C313.203,-98.2554 346.522,-99.2693 376,-106.318 392.33,-110.223 409.163,-118.659 422.116,-126.27"/>
<polygon fill="orange" stroke="orange" points="284.127,-95.9823 274.321,-99.9952 284.489,-102.973 284.127,-95.9823"/>
<text text-anchor="middle" x="334" y="-109.318" font-family="FreeSans" font-size="10.00"> &lt; dim, Integer &gt;</text>
</g>
<!-- Node7&#45;&gt;Node7 -->
<g id="edge8" class="edge"><title>Node7&#45;&gt;Node7</title>
<path fill="none" stroke="#9a32cd" stroke-dasharray="5,2" d="M193.766,-137.919C196.515,-142.342 202.259,-145.318 211,-145.318 225.344,-145.318 231.619,-137.302 229.826,-128.034"/>
<polygon fill="#9a32cd" stroke="#9a32cd" points="197.22,-137.35 192.174,-128.034 190.309,-138.464 197.22,-137.35"/>
<text text-anchor="middle" x="211" y="-148.318" font-family="FreeSans" font-size="10.00"> zero</text>
</g>
<!-- Node8&#45;&gt;Node4 -->
<g id="edge10" class="edge"><title>Node8&#45;&gt;Node4</title>
<path fill="none" stroke="orange" stroke-dasharray="5,2" d="M750.363,-112.613C785.468,-117.002 826.056,-122.075 859.948,-126.312"/>
<polygon fill="orange" stroke="orange" points="750.496,-109.103 740.139,-111.335 749.628,-116.049 750.496,-109.103"/>
<text text-anchor="middle" x="800" y="-127.318" font-family="FreeSans" font-size="10.00"> &lt; dim, Integer &gt;</text>
</g>
<!-- Node9 -->
<g id="node9" class="node"><title>Node9</title>
<g id="a_node9"><a xlink:href="classDGtal_1_1SurfelAdjacency.html" target="_top" xlink:title="DGtal::SurfelAdjacency\l\&lt; KSpace::dimension \&gt;">
<polygon fill="white" stroke="black" points="1168.5,-23.3181 1168.5,-53.3181 1299.5,-53.3181 1299.5,-23.3181 1168.5,-23.3181"/>
<text text-anchor="start" x="1176.5" y="-41.3181" font-family="FreeSans" font-size="10.00">DGtal::SurfelAdjacency</text>
<text text-anchor="middle" x="1234" y="-30.3181" font-family="FreeSans" font-size="10.00">&lt; KSpace::dimension &gt;</text>
</a>
</g>
</g>
<!-- Node9&#45;&gt;Node2 -->
<g id="edge12" class="edge"><title>Node9&#45;&gt;Node2</title>
<path fill="none" stroke="#9a32cd" stroke-dasharray="5,2" d="M1307.56,-21.1445C1337.81,-14.8157 1373.42,-8.43347 1406,-5.31808 1470.59,0.857728 1487.55,2.23018 1552,-5.31808 1588.3,-9.56917 1598.17,-10.5071 1632,-24.3181 1660.32,-35.8762 1690.03,-54.8792 1709.21,-68.1874"/>
<polygon fill="#9a32cd" stroke="#9a32cd" points="1306.57,-17.7765 1297.52,-23.2839 1308.03,-24.6227 1306.57,-17.7765"/>
<text text-anchor="middle" x="1479" y="-8.31808" font-family="FreeSans" font-size="10.00"> mySurfelAdj</text>
</g>
<!-- Node9&#45;&gt;Node11 -->
<g id="edge16" class="edge"><title>Node9&#45;&gt;Node11</title>
<path fill="none" stroke="#9a32cd" stroke-dasharray="5,2" d="M1309.99,-52.2046C1340.59,-57.8718 1375.83,-64.3976 1406.11,-70.0046"/>
<polygon fill="#9a32cd" stroke="#9a32cd" points="1310.27,-48.6976 1299.8,-50.3181 1309,-55.5806 1310.27,-48.6976"/>
<text text-anchor="middle" x="1357" y="-69.3181" font-family="FreeSans" font-size="10.00"> mySurfelAdj</text>
</g>
<!-- Node12 -->
<g id="node12" class="node"><title>Node12</title>
<g id="a_node12"><a xlink:href="classDGtal_1_1ImplicitDigitalSurface.html" target="_top" xlink:title="Aim: A model of CDigitalSurfaceContainer which defines the digital surface as the boundary of an impl...">
<polygon fill="white" stroke="black" points="1650.5,-117.318 1650.5,-147.318 1811.5,-147.318 1811.5,-117.318 1650.5,-117.318"/>
<text text-anchor="start" x="1658.5" y="-135.318" font-family="FreeSans" font-size="10.00">DGtal::ImplicitDigitalSurface</text>
<text text-anchor="middle" x="1731" y="-124.318" font-family="FreeSans" font-size="10.00">&lt; TKSpace, TPointPredicate &gt;</text>
</a>
</g>
</g>
<!-- Node9&#45;&gt;Node12 -->
<g id="edge22" class="edge"><title>Node9&#45;&gt;Node12</title>
<path fill="none" stroke="#9a32cd" stroke-dasharray="5,2" d="M1309.64,-33.1219C1374.43,-30.3407 1470.38,-30.3948 1552,-47.3181 1589.5,-55.0928 1602.47,-54.9427 1632,-79.3181 1643.41,-88.7349 1638.23,-98.3511 1650,-107.318 1655.09,-111.199 1660.8,-114.484 1666.75,-117.264"/>
<polygon fill="#9a32cd" stroke="#9a32cd" points="1309.35,-29.6317 1299.52,-33.5905 1309.67,-36.6243 1309.35,-29.6317"/>
<text text-anchor="middle" x="1479" y="-50.3181" font-family="FreeSans" font-size="10.00"> mySurfelAdjacency</text>
</g>
<!-- Node10 -->
<g id="node10" class="node"><title>Node10</title>
<g id="a_node10"><a xlink:href="classDGtal_1_1SurfelAdjacency.html" target="_top" xlink:title="Aim: Represent adjacencies between surfel elements, telling if it follows an interior to exterior ord...">
<polygon fill="white" stroke="black" points="870,-23.3181 870,-53.3181 996,-53.3181 996,-23.3181 870,-23.3181"/>
<text text-anchor="start" x="878" y="-41.3181" font-family="FreeSans" font-size="10.00">DGtal::SurfelAdjacency</text>
<text text-anchor="middle" x="933" y="-30.3181" font-family="FreeSans" font-size="10.00">&lt; dim &gt;</text>
</a>
</g>
</g>
<!-- Node10&#45;&gt;Node9 -->
<g id="edge13" class="edge"><title>Node10&#45;&gt;Node9</title>
<path fill="none" stroke="orange" stroke-dasharray="5,2" d="M1006.61,-38.3181C1056.03,-38.3181 1120.83,-38.3181 1168.44,-38.3181"/>
<polygon fill="orange" stroke="orange" points="1006.32,-34.8182 996.316,-38.3181 1006.32,-41.8182 1006.32,-34.8182"/>
<text text-anchor="middle" x="1083" y="-41.3181" font-family="FreeSans" font-size="10.00"> &lt; KSpace::dimension &gt;</text>
</g>
<!-- Node11&#45;&gt;Node2 -->
<g id="edge14" class="edge"><title>Node11&#45;&gt;Node2</title>
<path fill="none" stroke="orange" stroke-dasharray="5,2" d="M1562.02,-83.3181C1593.13,-83.3181 1628.27,-83.3181 1658.35,-83.3181"/>
<polygon fill="orange" stroke="orange" points="1561.64,-79.8182 1551.64,-83.3181 1561.64,-86.8182 1561.64,-79.8182"/>
<text text-anchor="middle" x="1601" y="-86.3181" font-family="FreeSans" font-size="10.00"> &lt; KSpace &gt;</text>
</g>
<!-- Node12&#45;&gt;Node1 -->
<g id="edge17" class="edge"><title>Node12&#45;&gt;Node1</title>
<path fill="none" stroke="#9a32cd" stroke-dasharray="5,2" d="M1821.88,-124.828C1858,-121.818 1899.15,-118.389 1933.55,-115.522"/>
<polygon fill="#9a32cd" stroke="#9a32cd" points="1821.51,-121.347 1811.83,-125.666 1822.09,-128.323 1821.51,-121.347"/>
<text text-anchor="middle" x="1873" y="-127.318" font-family="FreeSans" font-size="10.00"> mySurface</text>
</g>
<!-- Node13&#45;&gt;Node12 -->
<g id="edge18" class="edge"><title>Node13&#45;&gt;Node12</title>
<path fill="none" stroke="#9a32cd" stroke-dasharray="5,2" d="M1548.32,-163.211C1574.5,-158.921 1604.65,-153.94 1632,-149.318 1637.96,-148.311 1644.12,-147.262 1650.32,-146.2"/>
<polygon fill="#9a32cd" stroke="#9a32cd" points="1547.43,-159.811 1538.12,-164.881 1548.56,-166.719 1547.43,-159.811"/>
<text text-anchor="middle" x="1601" y="-162.318" font-family="FreeSans" font-size="10.00"> mySurfels</text>
</g>
<!-- Node14 -->
<g id="node14" class="node"><title>Node14</title>
<g id="a_node14"><a xlink:title="STL class. ">
<polygon fill="white" stroke="#bfbfbf" points="1186.5,-192.818 1186.5,-211.818 1281.5,-211.818 1281.5,-192.818 1186.5,-192.818"/>
<text text-anchor="middle" x="1234" y="-199.818" font-family="FreeSans" font-size="10.00">std::vector&lt; T &gt;</text>
</a>
</g>
</g>
<!-- Node14&#45;&gt;Node13 -->
<g id="edge20" class="edge"><title>Node14&#45;&gt;Node13</title>
<path fill="none" stroke="orange" stroke-dasharray="5,2" d="M1291.56,-195.801C1330,-191.371 1380.73,-185.526 1419.56,-181.052"/>
<polygon fill="orange" stroke="orange" points="1291.1,-192.331 1281.57,-196.953 1291.9,-199.285 1291.1,-192.331"/>
<text text-anchor="middle" x="1357" y="-195.318" font-family="FreeSans" font-size="10.00"> &lt; Surfel &gt;</text>
</g>
<!-- Node15 -->
<g id="node15" class="node"><title>Node15</title>
<polygon fill="white" stroke="#bfbfbf" points="918.5,-192.818 918.5,-211.818 947.5,-211.818 947.5,-192.818 918.5,-192.818"/>
<text text-anchor="middle" x="933" y="-199.818" font-family="FreeSans" font-size="10.00">T</text>
</g>
<!-- Node15&#45;&gt;Node14 -->
<g id="edge21" class="edge"><title>Node15&#45;&gt;Node14</title>
<path fill="none" stroke="#9a32cd" stroke-dasharray="5,2" d="M957.64,-202.318C1006.94,-202.318 1121.5,-202.318 1186.25,-202.318"/>
<polygon fill="#9a32cd" stroke="#9a32cd" points="957.624,-198.818 947.624,-202.318 957.624,-205.818 957.624,-198.818"/>
<text text-anchor="middle" x="1083" y="-205.318" font-family="FreeSans" font-size="10.00"> elements</text>
</g>
</g>
</svg>
