<?xml version="1.0" encoding="UTF-8" standalone="no"?>
<!DOCTYPE svg PUBLIC "-//W3C//DTD SVG 1.1//EN"
 "http://www.w3.org/Graphics/SVG/1.1/DTD/svg11.dtd">
<!-- Generated by graphviz version 2.38.0 (20140413.2041)
 -->
<!-- Title: DGtal::Trace Pages: 1 -->
<svg width="498pt" height="365pt"
 viewBox="0.00 0.00 497.50 365.00" xmlns="http://www.w3.org/2000/svg" xmlns:xlink="http://www.w3.org/1999/xlink">
<g id="graph0" class="graph" transform="scale(1 1) rotate(0) translate(4 361)">
<title>DGtal::Trace</title>
<polygon fill="white" stroke="none" points="-4,4 -4,-361 493.5,-361 493.5,4 -4,4"/>
<!-- Node1 -->
<g id="node1" class="node"><title>Node1</title>
<polygon fill="#bfbfbf" stroke="black" points="217.5,-0.5 217.5,-19.5 291.5,-19.5 291.5,-0.5 217.5,-0.5"/>
<text text-anchor="middle" x="254.5" y="-7.5" font-family="FreeSans" font-size="10.00">DGtal::Trace</text>
</g>
<!-- Node2 -->
<g id="node2" class="node"><title>Node2</title>
<polygon fill="white" stroke="#bfbfbf" points="187.5,-73 187.5,-92 321.5,-92 321.5,-73 187.5,-73"/>
<text text-anchor="middle" x="254.5" y="-80" font-family="FreeSans" font-size="10.00">std::stack&lt; std::string &gt;</text>
</g>
<!-- Node2&#45;&gt;Node1 -->
<g id="edge1" class="edge"><title>Node2&#45;&gt;Node1</title>
<path fill="none" stroke="#9a32cd" stroke-dasharray="5,2" d="M254.5,-62.442C254.5,-48.5305 254.5,-30.3203 254.5,-19.7154"/>
<polygon fill="#9a32cd" stroke="#9a32cd" points="251,-62.8553 254.5,-72.8553 258,-62.8553 251,-62.8553"/>
<text text-anchor="middle" x="297" y="-41" font-family="FreeSans" font-size="10.00"> myKeywordStack</text>
</g>
<!-- Node3 -->
<g id="node3" class="node"><title>Node3</title>
<g id="a_node3"><a xlink:title="STL class. ">
<polygon fill="white" stroke="#bfbfbf" points="281,-145.5 281,-164.5 346,-164.5 346,-145.5 281,-145.5"/>
<text text-anchor="middle" x="313.5" y="-152.5" font-family="FreeSans" font-size="10.00">std::string</text>
</a>
</g>
</g>
<!-- Node3&#45;&gt;Node2 -->
<g id="edge2" class="edge"><title>Node3&#45;&gt;Node2</title>
<path fill="none" stroke="#9a32cd" stroke-dasharray="5,2" d="M308.087,-135.873C305.547,-129.205 302.057,-121.859 297.5,-116 289.916,-106.25 278.721,-97.9138 269.655,-92.1258"/>
<polygon fill="#9a32cd" stroke="#9a32cd" points="304.813,-137.116 311.314,-145.482 311.448,-134.888 304.813,-137.116"/>
<text text-anchor="middle" x="329" y="-119" font-family="FreeSans" font-size="10.00"> elements</text>
</g>
<!-- Node4 -->
<g id="node4" class="node"><title>Node4</title>
<g id="a_node4"><a xlink:title="STL class. ">
<polygon fill="white" stroke="#bfbfbf" points="245,-212.5 245,-242.5 348,-242.5 348,-212.5 245,-212.5"/>
<text text-anchor="start" x="253" y="-230.5" font-family="FreeSans" font-size="10.00">std::basic_string&lt;</text>
<text text-anchor="middle" x="296.5" y="-219.5" font-family="FreeSans" font-size="10.00"> char &gt;</text>
</a>
</g>
</g>
<!-- Node4&#45;&gt;Node3 -->
<g id="edge3" class="edge"><title>Node4&#45;&gt;Node3</title>
<path fill="none" stroke="midnightblue" d="M302.293,-202.477C305.418,-189.515 309.09,-174.29 311.356,-164.893"/>
<polygon fill="midnightblue" stroke="midnightblue" points="298.882,-201.691 299.94,-212.233 305.687,-203.332 298.882,-201.691"/>
</g>
<!-- Node5 -->
<g id="node5" class="node"><title>Node5</title>
<g id="a_node5"><a xlink:title="STL class. ">
<polygon fill="white" stroke="#bfbfbf" points="127,-145.5 127,-164.5 218,-164.5 218,-145.5 127,-145.5"/>
<text text-anchor="middle" x="172.5" y="-152.5" font-family="FreeSans" font-size="10.00">std::stack&lt; T &gt;</text>
</a>
</g>
</g>
<!-- Node5&#45;&gt;Node2 -->
<g id="edge4" class="edge"><title>Node5&#45;&gt;Node2</title>
<path fill="none" stroke="orange" stroke-dasharray="5,2" d="M190.43,-138.585C206.963,-124.37 230.918,-103.775 244.363,-92.2154"/>
<polygon fill="orange" stroke="orange" points="187.856,-136.182 182.555,-145.355 192.419,-141.49 187.856,-136.182"/>
<text text-anchor="middle" x="253.5" y="-119" font-family="FreeSans" font-size="10.00"> &lt; std::string &gt;</text>
</g>
<!-- Node7 -->
<g id="node7" class="node"><title>Node7</title>
<polygon fill="white" stroke="#bfbfbf" points="56,-67.5 56,-97.5 163,-97.5 163,-67.5 56,-67.5"/>
<text text-anchor="start" x="64" y="-85.5" font-family="FreeSans" font-size="10.00">std::stack&lt; DGtal::</text>
<text text-anchor="middle" x="109.5" y="-74.5" font-family="FreeSans" font-size="10.00">Clock *&gt;</text>
</g>
<!-- Node5&#45;&gt;Node7 -->
<g id="edge8" class="edge"><title>Node5&#45;&gt;Node7</title>
<path fill="none" stroke="orange" stroke-dasharray="5,2" d="M125.762,-140.879C119.761,-137.303 114.371,-132.762 110.5,-127 104.771,-118.472 104.847,-106.728 106.177,-97.5921"/>
<polygon fill="orange" stroke="orange" points="124.378,-144.1 134.885,-145.458 127.518,-137.844 124.378,-144.1"/>
<text text-anchor="middle" x="155.5" y="-119" font-family="FreeSans" font-size="10.00"> &lt; DGtal::Clock *&gt;</text>
</g>
<!-- Node6 -->
<g id="node6" class="node"><title>Node6</title>
<polygon fill="white" stroke="#bfbfbf" points="158,-218 158,-237 187,-237 187,-218 158,-218"/>
<text text-anchor="middle" x="172.5" y="-225" font-family="FreeSans" font-size="10.00">T</text>
</g>
<!-- Node6&#45;&gt;Node5 -->
<g id="edge5" class="edge"><title>Node6&#45;&gt;Node5</title>
<path fill="none" stroke="#9a32cd" stroke-dasharray="5,2" d="M172.5,-207.442C172.5,-193.53 172.5,-175.32 172.5,-164.715"/>
<polygon fill="#9a32cd" stroke="#9a32cd" points="169,-207.855 172.5,-217.855 176,-207.855 169,-207.855"/>
<text text-anchor="middle" x="197" y="-186" font-family="FreeSans" font-size="10.00"> elements</text>
</g>
<!-- Node7&#45;&gt;Node1 -->
<g id="edge6" class="edge"><title>Node7&#45;&gt;Node1</title>
<path fill="none" stroke="#9a32cd" stroke-dasharray="5,2" d="M138.201,-61.7601C150.569,-53.7609 165.406,-44.8221 179.5,-38 194.572,-30.7046 212.152,-24.2737 226.501,-19.5199"/>
<polygon fill="#9a32cd" stroke="#9a32cd" points="136.103,-58.951 129.677,-67.3749 139.954,-64.7967 136.103,-58.951"/>
<text text-anchor="middle" x="215" y="-41" font-family="FreeSans" font-size="10.00"> myClockStack</text>
</g>
<!-- Node8 -->
<g id="node8" class="node"><title>Node8</title>
<g id="a_node8"><a xlink:href="classDGtal_1_1Clock.html" target="_top" xlink:title="DGtal::Clock">
<polygon fill="white" stroke="black" points="0,-145.5 0,-164.5 75,-164.5 75,-145.5 0,-145.5"/>
<text text-anchor="middle" x="37.5" y="-152.5" font-family="FreeSans" font-size="10.00">DGtal::Clock</text>
</a>
</g>
</g>
<!-- Node8&#45;&gt;Node7 -->
<g id="edge7" class="edge"><title>Node8&#45;&gt;Node7</title>
<path fill="none" stroke="#9a32cd" stroke-dasharray="5,2" d="M42.5443,-135.569C45.0401,-128.864 48.5963,-121.572 53.5,-116 60.0355,-108.574 68.695,-102.414 77.2461,-97.5255"/>
<polygon fill="#9a32cd" stroke="#9a32cd" points="39.148,-134.699 39.4539,-145.29 45.8191,-136.82 39.148,-134.699"/>
<text text-anchor="middle" x="78" y="-119" font-family="FreeSans" font-size="10.00"> elements</text>
</g>
<!-- Node9 -->
<g id="node9" class="node"><title>Node9</title>
<g id="a_node9"><a xlink:href="classDGtal_1_1TraceWriter.html" target="_top" xlink:title="Virtual Class to implement trace writers. ">
<polygon fill="white" stroke="black" points="343,-73 343,-92 444,-92 444,-73 343,-73"/>
<text text-anchor="middle" x="393.5" y="-80" font-family="FreeSans" font-size="10.00">DGtal::TraceWriter</text>
</a>
</g>
</g>
<!-- Node9&#45;&gt;Node1 -->
<g id="edge9" class="edge"><title>Node9&#45;&gt;Node1</title>
<path fill="none" stroke="#9a32cd" stroke-dasharray="5,2" d="M378.585,-65.5082C369.266,-56.3339 356.582,-45.2367 343.5,-38 327.534,-29.1682 308.322,-22.8726 291.841,-18.5949"/>
<polygon fill="#9a32cd" stroke="#9a32cd" points="376.342,-68.2217 385.833,-72.9302 381.35,-63.3307 376.342,-68.2217"/>
<text text-anchor="middle" x="382.5" y="-41" font-family="FreeSans" font-size="10.00"> myWriter</text>
</g>
<!-- Node10 -->
<g id="node10" class="node"><title>Node10</title>
<g id="a_node10"><a xlink:title="STL class. ">
<polygon fill="white" stroke="#bfbfbf" points="368.5,-145.5 368.5,-164.5 446.5,-164.5 446.5,-145.5 368.5,-145.5"/>
<text text-anchor="middle" x="407.5" y="-152.5" font-family="FreeSans" font-size="10.00">std::ostream</text>
</a>
</g>
</g>
<!-- Node10&#45;&gt;Node9 -->
<g id="edge10" class="edge"><title>Node10&#45;&gt;Node9</title>
<path fill="none" stroke="#9a32cd" stroke-dasharray="5,2" d="M403.798,-135.358C401.025,-121.395 397.358,-102.926 395.231,-92.2154"/>
<polygon fill="#9a32cd" stroke="#9a32cd" points="400.402,-136.229 405.783,-145.355 407.268,-134.865 400.402,-136.229"/>
<text text-anchor="middle" x="445.5" y="-119" font-family="FreeSans" font-size="10.00"> myOutputStream</text>
</g>
<!-- Node11 -->
<g id="node11" class="node"><title>Node11</title>
<g id="a_node11"><a xlink:title="STL class. ">
<polygon fill="white" stroke="#bfbfbf" points="366.5,-212.5 366.5,-242.5 474.5,-242.5 474.5,-212.5 366.5,-212.5"/>
<text text-anchor="start" x="374.5" y="-230.5" font-family="FreeSans" font-size="10.00">std::basic_ostream</text>
<text text-anchor="middle" x="420.5" y="-219.5" font-family="FreeSans" font-size="10.00">&lt; char &gt;</text>
</a>
</g>
</g>
<!-- Node11&#45;&gt;Node10 -->
<g id="edge11" class="edge"><title>Node11&#45;&gt;Node10</title>
<path fill="none" stroke="midnightblue" d="M415.999,-202.091C413.625,-189.214 410.856,-174.197 409.14,-164.893"/>
<polygon fill="midnightblue" stroke="midnightblue" points="412.614,-203.034 417.869,-212.233 419.498,-201.764 412.614,-203.034"/>
</g>
<!-- Node12 -->
<g id="node12" class="node"><title>Node12</title>
<g id="a_node12"><a xlink:title="STL class. ">
<polygon fill="white" stroke="#bfbfbf" points="357.5,-280.5 357.5,-299.5 483.5,-299.5 483.5,-280.5 357.5,-280.5"/>
<text text-anchor="middle" x="420.5" y="-287.5" font-family="FreeSans" font-size="10.00">std::basic_ios&lt; Char &gt;</text>
</a>
</g>
</g>
<!-- Node12&#45;&gt;Node11 -->
<g id="edge12" class="edge"><title>Node12&#45;&gt;Node11</title>
<path fill="none" stroke="midnightblue" d="M420.5,-270.215C420.5,-261.356 420.5,-250.958 420.5,-242.759"/>
<polygon fill="midnightblue" stroke="midnightblue" points="417,-270.332 420.5,-280.332 424,-270.332 417,-270.332"/>
</g>
<!-- Node13 -->
<g id="node13" class="node"><title>Node13</title>
<g id="a_node13"><a xlink:title="STL class. ">
<polygon fill="white" stroke="#bfbfbf" points="380.5,-337.5 380.5,-356.5 460.5,-356.5 460.5,-337.5 380.5,-337.5"/>
<text text-anchor="middle" x="420.5" y="-344.5" font-family="FreeSans" font-size="10.00">std::ios_base</text>
</a>
</g>
</g>
<!-- Node13&#45;&gt;Node12 -->
<g id="edge13" class="edge"><title>Node13&#45;&gt;Node12</title>
<path fill="none" stroke="midnightblue" d="M420.5,-327.117C420.5,-317.817 420.5,-307.056 420.5,-299.715"/>
<polygon fill="midnightblue" stroke="midnightblue" points="417,-327.406 420.5,-337.406 424,-327.406 417,-327.406"/>
</g>
</g>
</svg>
