<?xml version="1.0" encoding="UTF-8" standalone="no"?>
<!DOCTYPE svg PUBLIC "-//W3C//DTD SVG 1.1//EN"
 "http://www.w3.org/Graphics/SVG/1.1/DTD/svg11.dtd">
<!-- Generated by graphviz version 2.38.0 (20140413.2041)
 -->
<!-- Title: DGtal::ImageToConstantFunctor&lt; Image, PointPredicate, TValue &gt; Pages: 1 -->
<svg width="288pt" height="407pt"
 viewBox="0.00 0.00 287.50 407.00" xmlns="http://www.w3.org/2000/svg" xmlns:xlink="http://www.w3.org/1999/xlink">
<g id="graph0" class="graph" transform="scale(1 1) rotate(0) translate(4 403)">
<title>DGtal::ImageToConstantFunctor&lt; Image, PointPredicate, TValue &gt;</title>
<polygon fill="white" stroke="none" points="-4,4 -4,-403 283.5,-403 283.5,4 -4,4"/>
<!-- Node1 -->
<g id="node1" class="node"><title>Node1</title>
<polygon fill="#bfbfbf" stroke="black" points="69.5,-0.5 69.5,-41.5 237.5,-41.5 237.5,-0.5 69.5,-0.5"/>
<text text-anchor="start" x="77.5" y="-29.5" font-family="FreeSans" font-size="10.00">DGtal::ImageToConstantFunctor</text>
<text text-anchor="start" x="77.5" y="-18.5" font-family="FreeSans" font-size="10.00">&lt; Image, PointPredicate,</text>
<text text-anchor="middle" x="153.5" y="-7.5" font-family="FreeSans" font-size="10.00"> TValue &gt;</text>
</g>
<!-- Node2 -->
<g id="node2" class="node"><title>Node2</title>
<g id="a_node2"><a xlink:href="classDGtal_1_1Image.html" target="_top" xlink:title="Aim: implements association bewteen points lying in a digital domain and values. ">
<polygon fill="white" stroke="black" points="61.5,-89.5 61.5,-108.5 245.5,-108.5 245.5,-89.5 61.5,-89.5"/>
<text text-anchor="middle" x="153.5" y="-96.5" font-family="FreeSans" font-size="10.00">DGtal::Image&lt; TImageContainer &gt;</text>
</a>
</g>
</g>
<!-- Node2&#45;&gt;Node1 -->
<g id="edge1" class="edge"><title>Node2&#45;&gt;Node1</title>
<path fill="none" stroke="#9a32cd" stroke-dasharray="5,2" d="M153.5,-79.1372C153.5,-67.7291 153.5,-53.2071 153.5,-41.6584"/>
<polygon fill="#9a32cd" stroke="#9a32cd" points="150,-79.2818 153.5,-89.2818 157,-79.2819 150,-79.2818"/>
<text text-anchor="middle" x="178" y="-63" font-family="FreeSans" font-size="10.00"> myImage</text>
</g>
<!-- Node3 -->
<g id="node3" class="node"><title>Node3</title>
<g id="a_node3"><a xlink:href="classDGtal_1_1CowPtr.html" target="_top" xlink:title="DGtal::CowPtr\&lt; TImageContainer \&gt;">
<polygon fill="white" stroke="black" points="60,-156.5 60,-175.5 247,-175.5 247,-156.5 60,-156.5"/>
<text text-anchor="middle" x="153.5" y="-163.5" font-family="FreeSans" font-size="10.00">DGtal::CowPtr&lt; TImageContainer &gt;</text>
</a>
</g>
</g>
<!-- Node3&#45;&gt;Node2 -->
<g id="edge2" class="edge"><title>Node3&#45;&gt;Node2</title>
<path fill="none" stroke="#9a32cd" stroke-dasharray="5,2" d="M153.5,-146.037C153.5,-133.67 153.5,-118.12 153.5,-108.627"/>
<polygon fill="#9a32cd" stroke="#9a32cd" points="150,-146.234 153.5,-156.234 157,-146.234 150,-146.234"/>
<text text-anchor="middle" x="194.5" y="-130" font-family="FreeSans" font-size="10.00"> myImagePointer</text>
</g>
<!-- Node4 -->
<g id="node4" class="node"><title>Node4</title>
<g id="a_node4"><a xlink:href="classDGtal_1_1CountedPtr.html" target="_top" xlink:title="DGtal::CountedPtr\&lt;\l TImageContainer \&gt;">
<polygon fill="white" stroke="black" points="0,-223.5 0,-253.5 113,-253.5 113,-223.5 0,-223.5"/>
<text text-anchor="start" x="8" y="-241.5" font-family="FreeSans" font-size="10.00">DGtal::CountedPtr&lt;</text>
<text text-anchor="middle" x="56.5" y="-230.5" font-family="FreeSans" font-size="10.00"> TImageContainer &gt;</text>
</a>
</g>
</g>
<!-- Node4&#45;&gt;Node3 -->
<g id="edge3" class="edge"><title>Node4&#45;&gt;Node3</title>
<path fill="none" stroke="#9a32cd" stroke-dasharray="5,2" d="M84.4068,-217.217C103.326,-203.467 127.38,-185.984 141.542,-175.691"/>
<polygon fill="#9a32cd" stroke="#9a32cd" points="82.1608,-214.523 76.1294,-223.233 86.2763,-220.185 82.1608,-214.523"/>
<text text-anchor="middle" x="130.5" y="-197" font-family="FreeSans" font-size="10.00"> myPtr</text>
</g>
<!-- Node5 -->
<g id="node5" class="node"><title>Node5</title>
<g id="a_node5"><a xlink:href="structDGtal_1_1CountedPtr_1_1Counter.html" target="_top" xlink:title="DGtal::CountedPtr\&lt;\l T \&gt;::Counter">
<polygon fill="white" stroke="black" points="27.5,-368.5 27.5,-398.5 139.5,-398.5 139.5,-368.5 27.5,-368.5"/>
<text text-anchor="start" x="35.5" y="-386.5" font-family="FreeSans" font-size="10.00">DGtal::CountedPtr&lt;</text>
<text text-anchor="middle" x="83.5" y="-375.5" font-family="FreeSans" font-size="10.00"> T &gt;::Counter</text>
</a>
</g>
</g>
<!-- Node5&#45;&gt;Node4 -->
<g id="edge4" class="edge"><title>Node5&#45;&gt;Node4</title>
<path fill="none" stroke="#9a32cd" stroke-dasharray="5,2" d="M67.2214,-359.625C60.3009,-348.525 53.0243,-334.659 49.5,-321 43.5393,-297.898 48.4167,-270.018 52.4742,-253.581"/>
<polygon fill="#9a32cd" stroke="#9a32cd" points="64.453,-361.787 72.8606,-368.233 70.3084,-357.951 64.453,-361.787"/>
<text text-anchor="middle" x="78" y="-308.5" font-family="FreeSans" font-size="10.00"> myCounter</text>
</g>
<!-- Node6 -->
<g id="node6" class="node"><title>Node6</title>
<g id="a_node6"><a xlink:href="classDGtal_1_1CountedPtr.html" target="_top" xlink:title="Aim: Smart pointer based on reference counts. ">
<polygon fill="white" stroke="black" points="116,-301.5 116,-320.5 247,-320.5 247,-301.5 116,-301.5"/>
<text text-anchor="middle" x="181.5" y="-308.5" font-family="FreeSans" font-size="10.00">DGtal::CountedPtr&lt; T &gt;</text>
</a>
</g>
</g>
<!-- Node5&#45;&gt;Node6 -->
<g id="edge6" class="edge"><title>Node5&#45;&gt;Node6</title>
<path fill="none" stroke="#9a32cd" stroke-dasharray="5,2" d="M111.695,-362.217C130.809,-348.467 155.111,-330.984 169.419,-320.691"/>
<polygon fill="#9a32cd" stroke="#9a32cd" points="109.406,-359.552 103.332,-368.233 113.493,-365.235 109.406,-359.552"/>
<text text-anchor="middle" x="170" y="-342" font-family="FreeSans" font-size="10.00"> myCounter</text>
</g>
<!-- Node6&#45;&gt;Node4 -->
<g id="edge5" class="edge"><title>Node6&#45;&gt;Node4</title>
<path fill="none" stroke="orange" stroke-dasharray="5,2" d="M157.212,-296.302C135.39,-283.994 103.483,-265.998 81.4577,-253.576"/>
<polygon fill="orange" stroke="orange" points="155.743,-299.491 166.173,-301.355 159.182,-293.394 155.743,-299.491"/>
<text text-anchor="middle" x="184.5" y="-275" font-family="FreeSans" font-size="10.00"> &lt; TImageContainer &gt;</text>
</g>
<!-- Node7 -->
<g id="node7" class="node"><title>Node7</title>
<g id="a_node7"><a xlink:href="classDGtal_1_1CowPtr.html" target="_top" xlink:title="Aim: Copy on write shared pointer. ">
<polygon fill="white" stroke="black" points="131.5,-229 131.5,-248 241.5,-248 241.5,-229 131.5,-229"/>
<text text-anchor="middle" x="186.5" y="-236" font-family="FreeSans" font-size="10.00">DGtal::CowPtr&lt; T &gt;</text>
</a>
</g>
</g>
<!-- Node7&#45;&gt;Node3 -->
<g id="edge7" class="edge"><title>Node7&#45;&gt;Node3</title>
<path fill="none" stroke="orange" stroke-dasharray="5,2" d="M178.16,-219.682C171.582,-205.63 162.692,-186.638 157.58,-175.715"/>
<polygon fill="orange" stroke="orange" points="175.044,-221.282 182.454,-228.855 181.384,-218.315 175.044,-221.282"/>
<text text-anchor="middle" x="225.5" y="-197" font-family="FreeSans" font-size="10.00"> &lt; TImageContainer &gt;</text>
</g>
</g>
</svg>
