<?xml version="1.0" encoding="UTF-8" standalone="no"?>
<!DOCTYPE svg PUBLIC "-//W3C//DTD SVG 1.1//EN"
 "http://www.w3.org/Graphics/SVG/1.1/DTD/svg11.dtd">
<!-- Generated by graphviz version 2.38.0 (20140413.2041)
 -->
<!-- Title: DGtal::detail::PosIndepScaleIndepSCEstimator&lt; TSegmentComputer, Functor, ReturnType &gt; Pages: 1 -->
<!--zoomable 182 -->
<svg id="main" version="1.1" xmlns="http://www.w3.org/2000/svg" xmlns:xlink="http://www.w3.org/1999/xlink" xml:space="preserve" onload="init(evt)">
<style type="text/css"><![CDATA[
.edge:hover path { stroke: red; }
.edge:hover polygon { stroke: red; fill: red; }
]]></style>
<script type="text/javascript"><![CDATA[
var edges = document.getElementsByTagName('g');
if (edges && edges.length) {
  for (var i=0;i<edges.length;i++) {
    if (edges[i].id.substr(0,4)=='edge') {
      edges[i].setAttribute('class','edge');
    }
  }
}
]]></script>
        <defs>
                <circle id="rim" cx="0" cy="0" r="7"/>
                <circle id="rim2" cx="0" cy="0" r="3.5"/>
                <g id="zoomPlus">
                        <use xlink:href="#rim" fill="#404040">
                                <set attributeName="fill" to="#808080" begin="zoomplus.mouseover" end="zoomplus.mouseout"/>
                        </use>
                        <path d="M-4,0h8M0,-4v8" fill="none" stroke="white" stroke-width="1.5" pointer-events="none"/>
                </g>
                <g id="zoomMin">
                        <use xlink:href="#rim" fill="#404040">
                                <set attributeName="fill" to="#808080" begin="zoomminus.mouseover" end="zoomminus.mouseout"/>
                        </use>
                        <path d="M-4,0h8" fill="none" stroke="white" stroke-width="1.5" pointer-events="none"/>
                </g>
                <g id="dirArrow">
                        <path fill="none" stroke="white" stroke-width="1.5" d="M0,-3.0v7 M-2.5,-0.5L0,-3.0L2.5,-0.5"/>
                </g>
               <g id="resetDef">
                       <use xlink:href="#rim2" fill="#404040">
                               <set attributeName="fill" to="#808080" begin="reset.mouseover" end="reset.mouseout"/>
                       </use>
               </g>
        </defs>

<script type="text/javascript">
var viewWidth = 887;
var viewHeight = 182;
var sectionId = 'dynsection-0';
</script>
<script xlink:href="svgpan.js"/>
<svg id="graph" class="graph">
<g id="viewport">
<title>DGtal::detail::PosIndepScaleIndepSCEstimator&lt; TSegmentComputer, Functor, ReturnType &gt;</title>
<polygon fill="white" stroke="none" points="-4,4 -4,-177.5 883,-177.5 883,4 -4,4"/>
<!-- Node0 -->
<g id="node1" class="node"><title>Node0</title>
<polygon fill="#bfbfbf" stroke="black" points="0,-60.5 0,-101.5 215,-101.5 215,-60.5 0,-60.5"/>
<text text-anchor="start" x="8" y="-89.5" font-family="FreeSans" font-size="10.00">DGtal::detail::PosIndepScale</text>
<text text-anchor="start" x="8" y="-78.5" font-family="FreeSans" font-size="10.00">IndepSCEstimator&lt; TSegmentComputer,</text>
<text text-anchor="middle" x="107.5" y="-67.5" font-family="FreeSans" font-size="10.00"> Functor, ReturnType &gt;</text>
</g>
<!-- Node1 -->
<g id="node2" class="node"><title>Node1</title>
<g id="a_node2"><a xlink:href="classDGtal_1_1detail_1_1PosIndepScaleIndepSCEstimator.html" target="_top" xlink:title="DGtal::detail::PosIndepScale\lIndepSCEstimator\&lt; DSSComputer,\l detail::TangentVectorFromDSS\l\&lt; DSSComputer \&gt; \&gt;">
<polygon fill="white" stroke="black" points="427.5,-121 427.5,-173 613.5,-173 613.5,-121 427.5,-121"/>
<text text-anchor="start" x="435.5" y="-161" font-family="FreeSans" font-size="10.00">DGtal::detail::PosIndepScale</text>
<text text-anchor="start" x="435.5" y="-150" font-family="FreeSans" font-size="10.00">IndepSCEstimator&lt; DSSComputer,</text>
<text text-anchor="start" x="435.5" y="-139" font-family="FreeSans" font-size="10.00"> detail::TangentVectorFromDSS</text>
<text text-anchor="middle" x="520.5" y="-128" font-family="FreeSans" font-size="10.00">&lt; DSSComputer &gt; &gt;</text>
</a>
</g>
</g>
<!-- Node0&#45;&gt;Node1 -->
<g id="edge1" class="edge"><title>Node0&#45;&gt;Node1</title>
<path fill="none" stroke="orange" stroke-dasharray="5,2" d="M179.414,-104.578C196.783,-109.656 215.432,-114.532 233,-118 297.252,-130.682 370.768,-137.979 427.242,-142.081"/>
<polygon fill="orange" stroke="orange" points="179.936,-101.081 169.353,-101.574 177.934,-107.788 179.936,-101.081"/>
<text text-anchor="start" x="250" y="-163" font-family="FreeSans" font-size="10.00"> &lt; DSSComputer, detail</text>
<text text-anchor="start" x="250" y="-152" font-family="FreeSans" font-size="10.00">::TangentVectorFromDSS</text>
<text text-anchor="middle" x="310" y="-141" font-family="FreeSans" font-size="10.00">&lt; DSSComputer &gt; &gt;</text>
</g>
<!-- Node3 -->
<g id="node4" class="node"><title>Node3</title>
<g id="a_node4"><a xlink:href="classDGtal_1_1detail_1_1PosIndepScaleIndepSCEstimator.html" target="_top" xlink:title="DGtal::detail::PosIndepScale\lIndepSCEstimator\&lt; DSSComputer,\l detail::NormalizedTangentVectorFromDSS \&gt;">
<polygon fill="white" stroke="black" points="405,-60.5 405,-101.5 636,-101.5 636,-60.5 405,-60.5"/>
<text text-anchor="start" x="413" y="-89.5" font-family="FreeSans" font-size="10.00">DGtal::detail::PosIndepScale</text>
<text text-anchor="start" x="413" y="-78.5" font-family="FreeSans" font-size="10.00">IndepSCEstimator&lt; DSSComputer,</text>
<text text-anchor="middle" x="520.5" y="-67.5" font-family="FreeSans" font-size="10.00"> detail::NormalizedTangentVectorFromDSS &gt;</text>
</a>
</g>
</g>
<!-- Node0&#45;&gt;Node3 -->
<g id="edge3" class="edge"><title>Node0&#45;&gt;Node3</title>
<path fill="none" stroke="orange" stroke-dasharray="5,2" d="M225.155,-81C281.416,-81 348.68,-81 404.697,-81"/>
<polygon fill="orange" stroke="orange" points="225.145,-77.5001 215.145,-81 225.145,-84.5001 225.145,-77.5001"/>
<text text-anchor="start" x="233" y="-106" font-family="FreeSans" font-size="10.00"> &lt; DSSComputer, detail</text>
<text text-anchor="start" x="233" y="-95" font-family="FreeSans" font-size="10.00">::NormalizedTangentVectorFrom</text>
<text text-anchor="middle" x="310" y="-84" font-family="FreeSans" font-size="10.00">DSS &gt;</text>
</g>
<!-- Node5 -->
<g id="node6" class="node"><title>Node5</title>
<g id="a_node6"><a xlink:href="classDGtal_1_1detail_1_1PosIndepScaleIndepSCEstimator.html" target="_top" xlink:title="DGtal::detail::PosIndepScale\lIndepSCEstimator\&lt; DSSComputer,\l detail::TangentAngleFromDSS \&gt;">
<polygon fill="white" stroke="black" points="427.5,-0.5 427.5,-41.5 613.5,-41.5 613.5,-0.5 427.5,-0.5"/>
<text text-anchor="start" x="435.5" y="-29.5" font-family="FreeSans" font-size="10.00">DGtal::detail::PosIndepScale</text>
<text text-anchor="start" x="435.5" y="-18.5" font-family="FreeSans" font-size="10.00">IndepSCEstimator&lt; DSSComputer,</text>
<text text-anchor="middle" x="520.5" y="-7.5" font-family="FreeSans" font-size="10.00"> detail::TangentAngleFromDSS &gt;</text>
</a>
</g>
</g>
<!-- Node0&#45;&gt;Node5 -->
<g id="edge5" class="edge"><title>Node0&#45;&gt;Node5</title>
<path fill="none" stroke="orange" stroke-dasharray="5,2" d="M212.601,-58.5565C219.492,-57.2882 226.338,-56.0887 233,-55 297.633,-44.4369 370.98,-35.7947 427.28,-29.8667"/>
<polygon fill="orange" stroke="orange" points="211.668,-55.1704 202.488,-60.4589 212.962,-62.0497 211.668,-55.1704"/>
<text text-anchor="start" x="246.5" y="-69" font-family="FreeSans" font-size="10.00"> &lt; DSSComputer, detail</text>
<text text-anchor="middle" x="310" y="-58" font-family="FreeSans" font-size="10.00">::TangentAngleFromDSS &gt;</text>
</g>
<!-- Node2 -->
<g id="node3" class="node"><title>Node2</title>
<g id="a_node3"><a xlink:href="classDGtal_1_1TangentVectorFromDSSEstimator.html" target="_top" xlink:title="DGtal::TangentVectorFrom\lDSSEstimator\&lt; DSSComputer \&gt;">
<polygon fill="white" stroke="black" points="688,-132 688,-162 864,-162 864,-132 688,-132"/>
<text text-anchor="start" x="696" y="-150" font-family="FreeSans" font-size="10.00">DGtal::TangentVectorFrom</text>
<text text-anchor="middle" x="776" y="-139" font-family="FreeSans" font-size="10.00">DSSEstimator&lt; DSSComputer &gt;</text>
</a>
</g>
</g>
<!-- Node1&#45;&gt;Node2 -->
<g id="edge2" class="edge"><title>Node1&#45;&gt;Node2</title>
<path fill="none" stroke="midnightblue" d="M623.757,-147C645.022,-147 667.242,-147 687.9,-147"/>
<polygon fill="midnightblue" stroke="midnightblue" points="623.736,-143.5 613.736,-147 623.736,-150.5 623.736,-143.5"/>
</g>
<!-- Node4 -->
<g id="node5" class="node"><title>Node4</title>
<g id="a_node5"><a xlink:href="classDGtal_1_1TangentFromDSSEstimator.html" target="_top" xlink:title="DGtal::TangentFromDSSEstimator\l\&lt; DSSComputer \&gt;">
<polygon fill="white" stroke="black" points="686.5,-66 686.5,-96 865.5,-96 865.5,-66 686.5,-66"/>
<text text-anchor="start" x="694.5" y="-84" font-family="FreeSans" font-size="10.00">DGtal::TangentFromDSSEstimator</text>
<text text-anchor="middle" x="776" y="-73" font-family="FreeSans" font-size="10.00">&lt; DSSComputer &gt;</text>
</a>
</g>
</g>
<!-- Node3&#45;&gt;Node4 -->
<g id="edge4" class="edge"><title>Node3&#45;&gt;Node4</title>
<path fill="none" stroke="midnightblue" d="M646.353,-81C659.896,-81 673.468,-81 686.45,-81"/>
<polygon fill="midnightblue" stroke="midnightblue" points="646.013,-77.5001 636.013,-81 646.013,-84.5001 646.013,-77.5001"/>
</g>
<!-- Node6 -->
<g id="node7" class="node"><title>Node6</title>
<g id="a_node7"><a xlink:href="classDGtal_1_1TangentAngleFromDSSEstimator.html" target="_top" xlink:title="DGtal::TangentAngleFromDSSEstimator\l\&lt; DSSComputer \&gt;">
<polygon fill="white" stroke="black" points="673,-6 673,-36 879,-36 879,-6 673,-6"/>
<text text-anchor="start" x="681" y="-24" font-family="FreeSans" font-size="10.00">DGtal::TangentAngleFromDSSEstimator</text>
<text text-anchor="middle" x="776" y="-13" font-family="FreeSans" font-size="10.00">&lt; DSSComputer &gt;</text>
</a>
</g>
</g>
<!-- Node5&#45;&gt;Node6 -->
<g id="edge6" class="edge"><title>Node5&#45;&gt;Node6</title>
<path fill="none" stroke="midnightblue" d="M623.756,-21C639.979,-21 656.758,-21 672.976,-21"/>
<polygon fill="midnightblue" stroke="midnightblue" points="623.736,-17.5001 613.736,-21 623.736,-24.5001 623.736,-17.5001"/>
</g>
</g>
</svg>
        <g id="navigator" transform="translate(0 0)" fill="#404254">
                <rect fill="#f2f5e9" fill-opacity="0.5" stroke="#606060" stroke-width=".5" x="0" y="0" width="60" height="60"/>
                <use id="zoomplus" xlink:href="#zoomPlus" x="17" y="9" onmousedown="handleZoom(evt,'in')"/>
                <use id="zoomminus" xlink:href="#zoomMin" x="42" y="9" onmousedown="handleZoom(evt,'out')"/>
                <use id="reset" xlink:href="#resetDef" x="30" y="36" onmousedown="handleReset()"/>
                <g id="arrowUp" xlink:href="#dirArrow" transform="translate(30 24)" onmousedown="handlePan(0,-1)">
                  <use xlink:href="#rim" fill="#404040">
                        <set attributeName="fill" to="#808080" begin="arrowUp.mouseover" end="arrowUp.mouseout"/>
                  </use>
                  <path fill="none" stroke="white" stroke-width="1.5" d="M0,-3.0v7 M-2.5,-0.5L0,-3.0L2.5,-0.5"/>
                </g>
                <g id="arrowRight" xlink:href="#dirArrow" transform="rotate(90) translate(36 -43)" onmousedown="handlePan(1,0)">
                  <use xlink:href="#rim" fill="#404040">
                        <set attributeName="fill" to="#808080" begin="arrowRight.mouseover" end="arrowRight.mouseout"/>
                  </use>
                  <path fill="none" stroke="white" stroke-width="1.5" d="M0,-3.0v7 M-2.5,-0.5L0,-3.0L2.5,-0.5"/>
                </g>
                <g id="arrowDown" xlink:href="#dirArrow" transform="rotate(180) translate(-30 -48)" onmousedown="handlePan(0,1)">
                  <use xlink:href="#rim" fill="#404040">
                        <set attributeName="fill" to="#808080" begin="arrowDown.mouseover" end="arrowDown.mouseout"/>
                  </use>
                  <path fill="none" stroke="white" stroke-width="1.5" d="M0,-3.0v7 M-2.5,-0.5L0,-3.0L2.5,-0.5"/>
                </g>
                <g id="arrowLeft" xlink:href="#dirArrow" transform="rotate(270) translate(-36 17)" onmousedown="handlePan(-1,0)">
                  <use xlink:href="#rim" fill="#404040">
                        <set attributeName="fill" to="#808080" begin="arrowLeft.mouseover" end="arrowLeft.mouseout"/>
                  </use>
                  <path fill="none" stroke="white" stroke-width="1.5" d="M0,-3.0v7 M-2.5,-0.5L0,-3.0L2.5,-0.5"/>
                </g>
        </g>
        <svg viewBox="0 0 15 15" width="100%" height="30px" preserveAspectRatio="xMaxYMin meet">
         <g id="arrow_out" transform="scale(0.3 0.3)">
          <a xlink:href="classDGtal_1_1detail_1_1PosIndepScaleIndepSCEstimator__inherit__graph_org.svg" target="_base">
           <rect id="button" ry="5" rx="5" y="6" x="6" height="38" width="38"
                fill="#f2f5e9" fill-opacity="0.5" stroke="#606060" stroke-width="1.0"/>
           <path id="arrow"
             d="M 11.500037,31.436501 C 11.940474,20.09759 22.043105,11.32322 32.158766,21.979434 L 37.068811,17.246167 C 37.068811,17.246167 37.088388,32 37.088388,32 L 22.160133,31.978069 C 22.160133,31.978069 26.997745,27.140456 26.997745,27.140456 C 18.528582,18.264221 13.291696,25.230495 11.500037,31.436501 z"
             style="fill:#404040;"/>
          </a>
         </g>
        </svg>
</svg>
