<?xml version="1.0" encoding="UTF-8" standalone="no"?>
<!DOCTYPE svg PUBLIC "-//W3C//DTD SVG 1.1//EN"
 "http://www.w3.org/Graphics/SVG/1.1/DTD/svg11.dtd">
<!-- Generated by graphviz version 2.36.0 (20140111.2315)
 -->
<!-- Title: DGtal::ArithDSSIterator&lt; TInteger, connectivity &gt; Pages: 1 -->
<svg width="234pt" height="300pt"
 viewBox="0.00 0.00 234.24 300.00" xmlns="http://www.w3.org/2000/svg" xmlns:xlink="http://www.w3.org/1999/xlink">
<g id="graph0" class="graph" transform="scale(1 1) rotate(0) translate(4 296)">
<title>DGtal::ArithDSSIterator&lt; TInteger, connectivity &gt;</title>
<polygon fill="white" stroke="none" points="-4,4 -4,-296 230.245,-296 230.245,4 -4,4"/>
<!-- Node1 -->
<g id="node1" class="node"><title>Node1</title>
<polygon fill="#bfbfbf" stroke="black" points="74.7447,-1 74.7447,-31 215.745,-31 215.745,-1 74.7447,-1"/>
<text text-anchor="start" x="82.7447" y="-19" font-family="FreeSans" font-size="10.00">DGtal::ArithDSSIterator</text>
<text text-anchor="middle" x="145.245" y="-8" font-family="FreeSans" font-size="10.00">&lt; TInteger, connectivity &gt;</text>
</g>
<!-- Node2 -->
<g id="node2" class="node"><title>Node2</title>
<g id="a_node2"><a xlink:href="classDGtal_1_1PointVector.html" target="_top" xlink:title="DGtal::PointVector\l\&lt; 2, Integer \&gt;">
<polygon fill="white" stroke="black" points="20.2447,-103 20.2447,-133 124.245,-133 124.245,-103 20.2447,-103"/>
<text text-anchor="start" x="28.2447" y="-121" font-family="FreeSans" font-size="10.00">DGtal::PointVector</text>
<text text-anchor="middle" x="72.2447" y="-110" font-family="FreeSans" font-size="10.00">&lt; 2, Integer &gt;</text>
</a>
</g>
</g>
<!-- Node2&#45;&gt;Node1 -->
<g id="edge1" class="edge"><title>Node2&#45;&gt;Node1</title>
<path fill="none" stroke="#9a32cd" stroke-dasharray="5,2" d="M88.7385,-94.4058C102.866,-75.0534 122.779,-47.7746 134.805,-31.301"/>
<polygon fill="#9a32cd" stroke="#9a32cd" points="85.7731,-92.5319 82.7038,-102.672 91.4269,-96.6592 85.7731,-92.5319"/>
<text text-anchor="middle" x="132.745" y="-64.5" font-family="FreeSans" font-size="10.00"> myP</text>
</g>
<!-- Node3 -->
<g id="node3" class="node"><title>Node3</title>
<polygon fill="white" stroke="#bfbfbf" points="0.244728,-272.5 0.244728,-291.5 68.2447,-291.5 68.2447,-272.5 0.244728,-272.5"/>
<text text-anchor="middle" x="34.2447" y="-279.5" font-family="FreeSans" font-size="10.00">TContainer</text>
</g>
<!-- Node3&#45;&gt;Node2 -->
<g id="edge2" class="edge"><title>Node3&#45;&gt;Node2</title>
<path fill="none" stroke="#9a32cd" stroke-dasharray="5,2" d="M21.8446,-263.871C8.93022,-243.782 -7.85546,-209.706 4.24473,-182 13.3268,-161.205 33.0329,-144.205 48.9048,-133.129"/>
<polygon fill="#9a32cd" stroke="#9a32cd" points="19.0442,-265.978 27.559,-272.282 24.8344,-262.044 19.0442,-265.978"/>
<text text-anchor="middle" x="26.2447" y="-200.5" font-family="FreeSans" font-size="10.00"> myArray</text>
</g>
<!-- Node4 -->
<g id="node4" class="node"><title>Node4</title>
<g id="a_node4"><a xlink:href="classDGtal_1_1PointVector.html" target="_top" xlink:title="Aim: Implements basic operations that will be used in Point and Vector classes. ">
<polygon fill="white" stroke="black" points="57.2447,-182.5 57.2447,-223.5 183.245,-223.5 183.245,-182.5 57.2447,-182.5"/>
<text text-anchor="start" x="65.2447" y="-211.5" font-family="FreeSans" font-size="10.00">DGtal::PointVector</text>
<text text-anchor="start" x="65.2447" y="-200.5" font-family="FreeSans" font-size="10.00">&lt; dim, TEuclideanRing,</text>
<text text-anchor="middle" x="120.245" y="-189.5" font-family="FreeSans" font-size="10.00"> TContainer &gt;</text>
</a>
</g>
</g>
<!-- Node3&#45;&gt;Node4 -->
<g id="edge4" class="edge"><title>Node3&#45;&gt;Node4</title>
<path fill="none" stroke="#9a32cd" stroke-dasharray="5,2" d="M51.362,-265.674C64.7964,-253.646 83.5987,-236.811 98.1657,-223.768"/>
<polygon fill="#9a32cd" stroke="#9a32cd" points="48.8923,-263.187 43.7768,-272.465 53.5617,-268.402 48.8923,-263.187"/>
<text text-anchor="middle" x="99.2447" y="-245.5" font-family="FreeSans" font-size="10.00"> myArray</text>
</g>
<!-- Node4&#45;&gt;Node2 -->
<g id="edge3" class="edge"><title>Node4&#45;&gt;Node2</title>
<path fill="none" stroke="#9a32cd" stroke-dasharray="5,2" d="M80.6192,-174.935C77.7122,-171.571 75.1703,-167.92 73.2447,-164 68.5595,-154.461 68.5701,-142.357 69.6095,-133.105"/>
<polygon fill="#9a32cd" stroke="#9a32cd" points="78.3992,-177.664 87.9465,-182.258 83.3476,-172.713 78.3992,-177.664"/>
<text text-anchor="middle" x="85.7447" y="-155.5" font-family="FreeSans" font-size="10.00"> zero</text>
</g>
<!-- Node4&#45;&gt;Node2 -->
<g id="edge6" class="edge"><title>Node4&#45;&gt;Node2</title>
<path fill="none" stroke="orange" stroke-dasharray="5,2" d="M109.018,-173.114C105.866,-166.032 102.206,-158.595 98.2447,-152 94.3389,-145.497 89.3155,-138.832 84.7272,-133.209"/>
<polygon fill="orange" stroke="orange" points="105.849,-174.605 112.982,-182.439 112.291,-171.867 105.849,-174.605"/>
<text text-anchor="middle" x="141.245" y="-155.5" font-family="FreeSans" font-size="10.00"> &lt; 2, Integer &gt;</text>
</g>
<!-- Node4&#45;&gt;Node4 -->
<g id="edge5" class="edge"><title>Node4&#45;&gt;Node4</title>
<path fill="none" stroke="#9a32cd" stroke-dasharray="5,2" d="M193.335,-208.937C198.257,-207.566 201.245,-205.588 201.245,-203 201.245,-198.961 193.964,-196.405 183.413,-195.332"/>
<polygon fill="#9a32cd" stroke="#9a32cd" points="192.662,-205.501 183.413,-210.668 193.866,-212.397 192.662,-205.501"/>
<text text-anchor="middle" x="213.745" y="-200.5" font-family="FreeSans" font-size="10.00"> zero</text>
</g>
<!-- Node5 -->
<g id="node5" class="node"><title>Node5</title>
<polygon fill="white" stroke="#bfbfbf" points="142.245,-108.5 142.245,-127.5 198.245,-127.5 198.245,-108.5 142.245,-108.5"/>
<text text-anchor="middle" x="170.245" y="-115.5" font-family="FreeSans" font-size="10.00">TInteger</text>
</g>
<!-- Node5&#45;&gt;Node1 -->
<g id="edge7" class="edge"><title>Node5&#45;&gt;Node1</title>
<path fill="none" stroke="#9a32cd" stroke-dasharray="5,2" d="M165.67,-98.7C160.808,-79.2542 153.225,-48.9216 148.795,-31.2015"/>
<polygon fill="#9a32cd" stroke="#9a32cd" points="162.292,-99.6215 168.113,-108.474 169.083,-97.9237 162.292,-99.6215"/>
<text text-anchor="middle" x="177.745" y="-75.5" font-family="FreeSans" font-size="10.00"> myMu</text>
<text text-anchor="middle" x="177.745" y="-64.5" font-family="FreeSans" font-size="10.00">myA</text>
<text text-anchor="middle" x="177.745" y="-53.5" font-family="FreeSans" font-size="10.00">myB</text>
</g>
</g>
</svg>
