<?xml version="1.0" encoding="UTF-8" standalone="no"?>
<!DOCTYPE svg PUBLIC "-//W3C//DTD SVG 1.1//EN"
 "http://www.w3.org/Graphics/SVG/1.1/DTD/svg11.dtd">
<!-- Generated by graphviz version 2.38.0 (20140413.2041)
 -->
<!-- Title: DGtal::LabelledMap&lt; TData, L, TWord, N, M &gt;::ConstIterator Pages: 1 -->
<!--zoomable 128 -->
<svg id="main" version="1.1" xmlns="http://www.w3.org/2000/svg" xmlns:xlink="http://www.w3.org/1999/xlink" xml:space="preserve" onload="init(evt)">
<style type="text/css"><![CDATA[
.edge:hover path { stroke: red; }
.edge:hover polygon { stroke: red; fill: red; }
]]></style>
<script type="text/javascript"><![CDATA[
var edges = document.getElementsByTagName('g');
if (edges && edges.length) {
  for (var i=0;i<edges.length;i++) {
    if (edges[i].id.substr(0,4)=='edge') {
      edges[i].setAttribute('class','edge');
    }
  }
}
]]></script>
        <defs>
                <circle id="rim" cx="0" cy="0" r="7"/>
                <circle id="rim2" cx="0" cy="0" r="3.5"/>
                <g id="zoomPlus">
                        <use xlink:href="#rim" fill="#404040">
                                <set attributeName="fill" to="#808080" begin="zoomplus.mouseover" end="zoomplus.mouseout"/>
                        </use>
                        <path d="M-4,0h8M0,-4v8" fill="none" stroke="white" stroke-width="1.5" pointer-events="none"/>
                </g>
                <g id="zoomMin">
                        <use xlink:href="#rim" fill="#404040">
                                <set attributeName="fill" to="#808080" begin="zoomminus.mouseover" end="zoomminus.mouseout"/>
                        </use>
                        <path d="M-4,0h8" fill="none" stroke="white" stroke-width="1.5" pointer-events="none"/>
                </g>
                <g id="dirArrow">
                        <path fill="none" stroke="white" stroke-width="1.5" d="M0,-3.0v7 M-2.5,-0.5L0,-3.0L2.5,-0.5"/>
                </g>
               <g id="resetDef">
                       <use xlink:href="#rim2" fill="#404040">
                               <set attributeName="fill" to="#808080" begin="reset.mouseover" end="reset.mouseout"/>
                       </use>
               </g>
        </defs>

<script type="text/javascript">
var viewWidth = 549;
var viewHeight = 128;
var sectionId = 'dynsection-0';
</script>
<script xlink:href="svgpan.js"/>
<svg id="graph" class="graph">
<g id="viewport">
<title>DGtal::LabelledMap&lt; TData, L, TWord, N, M &gt;::ConstIterator</title>
<polygon fill="white" stroke="none" points="-4,4 -4,-123.5 545,-123.5 545,4 -4,4"/>
<!-- Node1 -->
<g id="node1" class="node"><title>Node1</title>
<polygon fill="#bfbfbf" stroke="black" points="422,-24 422,-65 541,-65 541,-24 422,-24"/>
<text text-anchor="start" x="430" y="-53" font-family="FreeSans" font-size="10.00">DGtal::LabelledMap</text>
<text text-anchor="start" x="430" y="-42" font-family="FreeSans" font-size="10.00">&lt; TData, L, TWord, N,</text>
<text text-anchor="middle" x="481.5" y="-31" font-family="FreeSans" font-size="10.00"> M &gt;::ConstIterator</text>
</g>
<!-- Node2 -->
<g id="node2" class="node"><title>Node2</title>
<g id="a_node2"><a xlink:href="classDGtal_1_1LabelledMap_1_1BlockConstIterator.html" target="_top" xlink:title="DGtal::LabelledMap\l\&lt; TData, L, TWord, N,\l M \&gt;::BlockConstIterator">
<polygon fill="white" stroke="black" points="197,-49 197,-90 331,-90 331,-49 197,-49"/>
<text text-anchor="start" x="205" y="-78" font-family="FreeSans" font-size="10.00">DGtal::LabelledMap</text>
<text text-anchor="start" x="205" y="-67" font-family="FreeSans" font-size="10.00">&lt; TData, L, TWord, N,</text>
<text text-anchor="middle" x="264" y="-56" font-family="FreeSans" font-size="10.00"> M &gt;::BlockConstIterator</text>
</a>
</g>
</g>
<!-- Node2&#45;&gt;Node1 -->
<g id="edge1" class="edge"><title>Node2&#45;&gt;Node1</title>
<path fill="none" stroke="#9a32cd" stroke-dasharray="5,2" d="M341.128,-60.6684C367.634,-57.5935 396.941,-54.1937 421.813,-51.3083"/>
<polygon fill="#9a32cd" stroke="#9a32cd" points="340.652,-57.2001 331.122,-61.8293 341.458,-64.1535 340.652,-57.2001"/>
<text text-anchor="middle" x="376.5" y="-61.5" font-family="FreeSans" font-size="10.00"> myBlockIt</text>
</g>
<!-- Node3 -->
<g id="node3" class="node"><title>Node3</title>
<g id="a_node3"><a xlink:href="structDGtal_1_1LabelledMap_1_1____AnyBlock.html" target="_top" xlink:title="DGtal::LabelledMap\l\&lt; TData, L, TWord, N,\l M \&gt;::__AnyBlock">
<polygon fill="white" stroke="black" points="0,-49 0,-90 119,-90 119,-49 0,-49"/>
<text text-anchor="start" x="8" y="-78" font-family="FreeSans" font-size="10.00">DGtal::LabelledMap</text>
<text text-anchor="start" x="8" y="-67" font-family="FreeSans" font-size="10.00">&lt; TData, L, TWord, N,</text>
<text text-anchor="middle" x="59.5" y="-56" font-family="FreeSans" font-size="10.00"> M &gt;::__AnyBlock</text>
</a>
</g>
</g>
<!-- Node3&#45;&gt;Node2 -->
<g id="edge2" class="edge"><title>Node3&#45;&gt;Node2</title>
<path fill="none" stroke="#9a32cd" stroke-dasharray="5,2" d="M129.243,-69.5C151.048,-69.5 175.102,-69.5 196.729,-69.5"/>
<polygon fill="#9a32cd" stroke="#9a32cd" points="129.071,-66.0001 119.071,-69.5 129.071,-73.0001 129.071,-66.0001"/>
<text text-anchor="middle" x="158" y="-72.5" font-family="FreeSans" font-size="10.00"> myNext</text>
</g>
<!-- Node3&#45;&gt;Node3 -->
<g id="edge3" class="edge"><title>Node3&#45;&gt;Node3</title>
<path fill="none" stroke="#9a32cd" stroke-dasharray="5,2" d="M42.6397,-100.356C45.147,-105.197 50.7671,-108.5 59.5,-108.5 73.4727,-108.5 79.4765,-100.043 77.5116,-90.3644"/>
<polygon fill="#9a32cd" stroke="#9a32cd" points="46.1102,-99.898 41.4884,-90.3644 39.1562,-100.699 46.1102,-99.898"/>
<text text-anchor="middle" x="59.5" y="-111.5" font-family="FreeSans" font-size="10.00"> next</text>
</g>
<!-- Node4 -->
<g id="node4" class="node"><title>Node4</title>
<g id="a_node4"><a xlink:href="classDGtal_1_1Labels_1_1ConstEnumerator.html" target="_top" xlink:title="DGtal::Labels\&lt; L, TWord\l \&gt;::ConstEnumerator">
<polygon fill="white" stroke="black" points="198.5,-0.5 198.5,-30.5 329.5,-30.5 329.5,-0.5 198.5,-0.5"/>
<text text-anchor="start" x="206.5" y="-18.5" font-family="FreeSans" font-size="10.00">DGtal::Labels&lt; L, TWord</text>
<text text-anchor="middle" x="264" y="-7.5" font-family="FreeSans" font-size="10.00"> &gt;::ConstEnumerator</text>
</a>
</g>
</g>
<!-- Node4&#45;&gt;Node1 -->
<g id="edge4" class="edge"><title>Node4&#45;&gt;Node1</title>
<path fill="none" stroke="#9a32cd" stroke-dasharray="5,2" d="M339.78,-25.5632C366.62,-29.1751 396.481,-33.1934 421.765,-36.596"/>
<polygon fill="#9a32cd" stroke="#9a32cd" points="340.035,-22.066 329.657,-24.201 339.101,-29.0035 340.035,-22.066"/>
<text text-anchor="middle" x="376.5" y="-35.5" font-family="FreeSans" font-size="10.00"> myLabelsIt</text>
</g>
<!-- Node5 -->
<g id="node5" class="node"><title>Node5</title>
<polygon fill="white" stroke="#bfbfbf" points="37,-6 37,-25 82,-25 82,-6 37,-6"/>
<text text-anchor="middle" x="59.5" y="-13" font-family="FreeSans" font-size="10.00">TWord</text>
</g>
<!-- Node5&#45;&gt;Node4 -->
<g id="edge5" class="edge"><title>Node5&#45;&gt;Node4</title>
<path fill="none" stroke="#9a32cd" stroke-dasharray="5,2" d="M92.3068,-15.5C120.658,-15.5 163.026,-15.5 198.458,-15.5"/>
<polygon fill="#9a32cd" stroke="#9a32cd" points="92.1711,-12.0001 82.171,-15.5 92.171,-19.0001 92.1711,-12.0001"/>
<text text-anchor="middle" x="158" y="-18.5" font-family="FreeSans" font-size="10.00"> myWord</text>
</g>
</g>
</svg>
        <g id="navigator" transform="translate(0 0)" fill="#404254">
                <rect fill="#f2f5e9" fill-opacity="0.5" stroke="#606060" stroke-width=".5" x="0" y="0" width="60" height="60"/>
                <use id="zoomplus" xlink:href="#zoomPlus" x="17" y="9" onmousedown="handleZoom(evt,'in')"/>
                <use id="zoomminus" xlink:href="#zoomMin" x="42" y="9" onmousedown="handleZoom(evt,'out')"/>
                <use id="reset" xlink:href="#resetDef" x="30" y="36" onmousedown="handleReset()"/>
                <g id="arrowUp" xlink:href="#dirArrow" transform="translate(30 24)" onmousedown="handlePan(0,-1)">
                  <use xlink:href="#rim" fill="#404040">
                        <set attributeName="fill" to="#808080" begin="arrowUp.mouseover" end="arrowUp.mouseout"/>
                  </use>
                  <path fill="none" stroke="white" stroke-width="1.5" d="M0,-3.0v7 M-2.5,-0.5L0,-3.0L2.5,-0.5"/>
                </g>
                <g id="arrowRight" xlink:href="#dirArrow" transform="rotate(90) translate(36 -43)" onmousedown="handlePan(1,0)">
                  <use xlink:href="#rim" fill="#404040">
                        <set attributeName="fill" to="#808080" begin="arrowRight.mouseover" end="arrowRight.mouseout"/>
                  </use>
                  <path fill="none" stroke="white" stroke-width="1.5" d="M0,-3.0v7 M-2.5,-0.5L0,-3.0L2.5,-0.5"/>
                </g>
                <g id="arrowDown" xlink:href="#dirArrow" transform="rotate(180) translate(-30 -48)" onmousedown="handlePan(0,1)">
                  <use xlink:href="#rim" fill="#404040">
                        <set attributeName="fill" to="#808080" begin="arrowDown.mouseover" end="arrowDown.mouseout"/>
                  </use>
                  <path fill="none" stroke="white" stroke-width="1.5" d="M0,-3.0v7 M-2.5,-0.5L0,-3.0L2.5,-0.5"/>
                </g>
                <g id="arrowLeft" xlink:href="#dirArrow" transform="rotate(270) translate(-36 17)" onmousedown="handlePan(-1,0)">
                  <use xlink:href="#rim" fill="#404040">
                        <set attributeName="fill" to="#808080" begin="arrowLeft.mouseover" end="arrowLeft.mouseout"/>
                  </use>
                  <path fill="none" stroke="white" stroke-width="1.5" d="M0,-3.0v7 M-2.5,-0.5L0,-3.0L2.5,-0.5"/>
                </g>
        </g>
        <svg viewBox="0 0 15 15" width="100%" height="30px" preserveAspectRatio="xMaxYMin meet">
         <g id="arrow_out" transform="scale(0.3 0.3)">
          <a xlink:href="classDGtal_1_1LabelledMap_1_1ConstIterator__coll__graph_org.svg" target="_base">
           <rect id="button" ry="5" rx="5" y="6" x="6" height="38" width="38"
                fill="#f2f5e9" fill-opacity="0.5" stroke="#606060" stroke-width="1.0"/>
           <path id="arrow"
             d="M 11.500037,31.436501 C 11.940474,20.09759 22.043105,11.32322 32.158766,21.979434 L 37.068811,17.246167 C 37.068811,17.246167 37.088388,32 37.088388,32 L 22.160133,31.978069 C 22.160133,31.978069 26.997745,27.140456 26.997745,27.140456 C 18.528582,18.264221 13.291696,25.230495 11.500037,31.436501 z"
             style="fill:#404040;"/>
          </a>
         </g>
        </svg>
</svg>
