<?xml version="1.0" encoding="UTF-8" standalone="no"?>
<!DOCTYPE svg PUBLIC "-//W3C//DTD SVG 1.1//EN"
 "http://www.w3.org/Graphics/SVG/1.1/DTD/svg11.dtd">
<!-- Generated by graphviz version 2.38.0 (20140413.2041)
 -->
<!-- Title: DGtal::LightImplicitDigitalSurface&lt; TKSpace, TPointPredicate &gt; Pages: 1 -->
<!--zoomable 195 -->
<svg id="main" version="1.1" xmlns="http://www.w3.org/2000/svg" xmlns:xlink="http://www.w3.org/1999/xlink" xml:space="preserve" onload="init(evt)">
<style type="text/css"><![CDATA[
.edge:hover path { stroke: red; }
.edge:hover polygon { stroke: red; fill: red; }
]]></style>
<script type="text/javascript"><![CDATA[
var edges = document.getElementsByTagName('g');
if (edges && edges.length) {
  for (var i=0;i<edges.length;i++) {
    if (edges[i].id.substr(0,4)=='edge') {
      edges[i].setAttribute('class','edge');
    }
  }
}
]]></script>
        <defs>
                <circle id="rim" cx="0" cy="0" r="7"/>
                <circle id="rim2" cx="0" cy="0" r="3.5"/>
                <g id="zoomPlus">
                        <use xlink:href="#rim" fill="#404040">
                                <set attributeName="fill" to="#808080" begin="zoomplus.mouseover" end="zoomplus.mouseout"/>
                        </use>
                        <path d="M-4,0h8M0,-4v8" fill="none" stroke="white" stroke-width="1.5" pointer-events="none"/>
                </g>
                <g id="zoomMin">
                        <use xlink:href="#rim" fill="#404040">
                                <set attributeName="fill" to="#808080" begin="zoomminus.mouseover" end="zoomminus.mouseout"/>
                        </use>
                        <path d="M-4,0h8" fill="none" stroke="white" stroke-width="1.5" pointer-events="none"/>
                </g>
                <g id="dirArrow">
                        <path fill="none" stroke="white" stroke-width="1.5" d="M0,-3.0v7 M-2.5,-0.5L0,-3.0L2.5,-0.5"/>
                </g>
               <g id="resetDef">
                       <use xlink:href="#rim2" fill="#404040">
                               <set attributeName="fill" to="#808080" begin="reset.mouseover" end="reset.mouseout"/>
                       </use>
               </g>
        </defs>

<script type="text/javascript">
var viewWidth = 2278;
var viewHeight = 195;
var sectionId = 'dynsection-0';
</script>
<script xlink:href="svgpan.js"/>
<svg id="graph" class="graph">
<g id="viewport">
<title>DGtal::LightImplicitDigitalSurface&lt; TKSpace, TPointPredicate &gt;</title>
<polygon fill="white" stroke="none" points="-4,4 -4,-190.5 2274,-190.5 2274,4 -4,4"/>
<!-- Node1 -->
<g id="node1" class="node"><title>Node1</title>
<polygon fill="#bfbfbf" stroke="black" points="1602,-0.5 1602,-30.5 1799,-30.5 1799,-0.5 1602,-0.5"/>
<text text-anchor="start" x="1610" y="-18.5" font-family="FreeSans" font-size="10.00">DGtal::LightImplicitDigital</text>
<text text-anchor="middle" x="1700.5" y="-7.5" font-family="FreeSans" font-size="10.00">Surface&lt; TKSpace, TPointPredicate &gt;</text>
</g>
<!-- Node8 -->
<g id="node8" class="node"><title>Node8</title>
<g id="a_node8"><a xlink:href="classDGtal_1_1LightImplicitDigitalSurface_1_1Tracker.html" target="_top" xlink:title="DGtal::LightImplicitDigital\lSurface\&lt; TKSpace, TPointPredicate\l \&gt;::Tracker">
<polygon fill="white" stroke="black" points="2084,-42 2084,-83 2270,-83 2270,-42 2084,-42"/>
<text text-anchor="start" x="2092" y="-71" font-family="FreeSans" font-size="10.00">DGtal::LightImplicitDigital</text>
<text text-anchor="start" x="2092" y="-60" font-family="FreeSans" font-size="10.00">Surface&lt; TKSpace, TPointPredicate</text>
<text text-anchor="middle" x="2177" y="-49" font-family="FreeSans" font-size="10.00"> &gt;::Tracker</text>
</a>
</g>
</g>
<!-- Node1&#45;&gt;Node8 -->
<g id="edge19" class="edge"><title>Node1&#45;&gt;Node8</title>
<path fill="none" stroke="#9a32cd" stroke-dasharray="5,2" d="M1792.77,-32.9056C1794.87,-33.4288 1796.95,-33.9604 1799,-34.5 1807.16,-36.6443 1808.72,-38.8952 1817,-40.5 1906.5,-57.85 2010.68,-62.5658 2083.69,-63.4151"/>
<polygon fill="#9a32cd" stroke="#9a32cd" points="1793.35,-29.4473 1782.81,-30.5208 1791.72,-36.2546 1793.35,-29.4473"/>
<text text-anchor="middle" x="1889.5" y="-61.5" font-family="FreeSans" font-size="10.00"> mySurface</text>
</g>
<!-- Node2 -->
<g id="node2" class="node"><title>Node2</title>
<g id="a_node2"><a xlink:href="structDGtal_1_1SignedKhalimskyCell.html" target="_top" xlink:title="Represents a signed cell in a cellular grid space by its Khalimsky coordinates and a boolean value...">
<polygon fill="white" stroke="black" points="1160,-127.5 1160,-157.5 1308,-157.5 1308,-127.5 1160,-127.5"/>
<text text-anchor="start" x="1168" y="-145.5" font-family="FreeSans" font-size="10.00">DGtal::SignedKhalimskyCell</text>
<text text-anchor="middle" x="1234" y="-134.5" font-family="FreeSans" font-size="10.00">&lt; dim, TInteger &gt;</text>
</a>
</g>
</g>
<!-- Node2&#45;&gt;Node1 -->
<g id="edge1" class="edge"><title>Node2&#45;&gt;Node1</title>
<path fill="none" stroke="#9a32cd" stroke-dasharray="5,2" d="M1312.18,-125.237C1406.92,-103.945 1558.24,-69.569 1584,-61.5 1612.01,-52.7262 1642.86,-40.2922 1665.62,-30.5631"/>
<polygon fill="#9a32cd" stroke="#9a32cd" points="1311.33,-121.84 1302.34,-127.446 1312.87,-128.67 1311.33,-121.84"/>
<text text-anchor="middle" x="1373.5" y="-125.5" font-family="FreeSans" font-size="10.00"> mySurfel</text>
</g>
<!-- Node9 -->
<g id="node9" class="node"><title>Node9</title>
<g id="a_node9"><a xlink:href="classDGtal_1_1SurfelNeighborhood.html" target="_top" xlink:title="DGtal::SurfelNeighborhood\l\&lt; KSpace \&gt;">
<polygon fill="white" stroke="black" points="1817,-98.5 1817,-128.5 1962,-128.5 1962,-98.5 1817,-98.5"/>
<text text-anchor="start" x="1825" y="-116.5" font-family="FreeSans" font-size="10.00">DGtal::SurfelNeighborhood</text>
<text text-anchor="middle" x="1889.5" y="-105.5" font-family="FreeSans" font-size="10.00">&lt; KSpace &gt;</text>
</a>
</g>
</g>
<!-- Node2&#45;&gt;Node9 -->
<g id="edge13" class="edge"><title>Node2&#45;&gt;Node9</title>
<path fill="none" stroke="#9a32cd" stroke-dasharray="5,2" d="M1318.4,-153.847C1320.96,-154.084 1323.5,-154.302 1326,-154.5 1535.62,-171.058 1592.79,-185.638 1799,-144.5 1816.9,-140.929 1836.1,-134.627 1852.12,-128.633"/>
<polygon fill="#9a32cd" stroke="#9a32cd" points="1318.73,-150.363 1308.44,-152.854 1318.04,-157.329 1318.73,-150.363"/>
<text text-anchor="middle" x="1511.5" y="-174.5" font-family="FreeSans" font-size="10.00"> mySurfel</text>
</g>
<!-- Node12 -->
<g id="node12" class="node"><title>Node12</title>
<g id="a_node12"><a xlink:href="classDGtal_1_1SurfelNeighborhood.html" target="_top" xlink:title="Aim: This helper class is useful to compute the neighboring surfels of a given surfel, especially over a digital surface or over an object boundary. Two signed surfels are incident if they share a common n&#45;2 cell. This class uses a SurfelAdjacency so as to determine adjacent surfels (either looking for them from interior to exterior or inversely). ">
<polygon fill="white" stroke="black" points="1439,-118.5 1439,-148.5 1584,-148.5 1584,-118.5 1439,-118.5"/>
<text text-anchor="start" x="1447" y="-136.5" font-family="FreeSans" font-size="10.00">DGtal::SurfelNeighborhood</text>
<text text-anchor="middle" x="1511.5" y="-125.5" font-family="FreeSans" font-size="10.00">&lt; TKSpace &gt;</text>
</a>
</g>
</g>
<!-- Node2&#45;&gt;Node12 -->
<g id="edge17" class="edge"><title>Node2&#45;&gt;Node12</title>
<path fill="none" stroke="#9a32cd" stroke-dasharray="5,2" d="M1318.25,-139.78C1356.75,-138.523 1402.02,-137.044 1438.96,-135.837"/>
<polygon fill="#9a32cd" stroke="#9a32cd" points="1317.99,-136.287 1308.11,-140.112 1318.21,-143.283 1317.99,-136.287"/>
<text text-anchor="middle" x="1373.5" y="-142.5" font-family="FreeSans" font-size="10.00"> mySurfel</text>
</g>
<!-- Node3 -->
<g id="node3" class="node"><title>Node3</title>
<g id="a_node3"><a xlink:href="structDGtal_1_1SignedKhalimskyPreCell.html" target="_top" xlink:title="DGtal::SignedKhalimskyPre\lCell\&lt; dim, Integer \&gt;">
<polygon fill="white" stroke="black" points="860,-127.5 860,-157.5 1006,-157.5 1006,-127.5 860,-127.5"/>
<text text-anchor="start" x="868" y="-145.5" font-family="FreeSans" font-size="10.00">DGtal::SignedKhalimskyPre</text>
<text text-anchor="middle" x="933" y="-134.5" font-family="FreeSans" font-size="10.00">Cell&lt; dim, Integer &gt;</text>
</a>
</g>
</g>
<!-- Node3&#45;&gt;Node2 -->
<g id="edge2" class="edge"><title>Node3&#45;&gt;Node2</title>
<path fill="none" stroke="#9a32cd" stroke-dasharray="5,2" d="M1016.4,-142.5C1061.37,-142.5 1116.57,-142.5 1159.99,-142.5"/>
<polygon fill="#9a32cd" stroke="#9a32cd" points="1016.38,-139 1006.38,-142.5 1016.38,-146 1016.38,-139"/>
<text text-anchor="middle" x="1083" y="-145.5" font-family="FreeSans" font-size="10.00"> mySPreCell</text>
</g>
<!-- Node4 -->
<g id="node4" class="node"><title>Node4</title>
<g id="a_node4"><a xlink:href="classDGtal_1_1PointVector.html" target="_top" xlink:title="DGtal::PointVector\l\&lt; dim, Integer \&gt;">
<polygon fill="white" stroke="black" points="394,-133.5 394,-163.5 498,-163.5 498,-133.5 394,-133.5"/>
<text text-anchor="start" x="402" y="-151.5" font-family="FreeSans" font-size="10.00">DGtal::PointVector</text>
<text text-anchor="middle" x="446" y="-140.5" font-family="FreeSans" font-size="10.00">&lt; dim, Integer &gt;</text>
</a>
</g>
</g>
<!-- Node4&#45;&gt;Node3 -->
<g id="edge3" class="edge"><title>Node4&#45;&gt;Node3</title>
<path fill="none" stroke="#9a32cd" stroke-dasharray="5,2" d="M508.229,-148.936C585.882,-149.317 723.901,-149.422 842,-146.5 847.785,-146.357 853.778,-146.172 859.798,-145.959"/>
<polygon fill="#9a32cd" stroke="#9a32cd" points="508.16,-145.436 498.142,-148.883 508.123,-152.436 508.16,-145.436"/>
<text text-anchor="middle" x="667" y="-152.5" font-family="FreeSans" font-size="10.00"> coordinates</text>
</g>
<!-- Node7 -->
<g id="node7" class="node"><title>Node7</title>
<g id="a_node7"><a xlink:href="structDGtal_1_1SignedKhalimskyPreCell.html" target="_top" xlink:title="Represents a signed cell in an unbounded cellular grid space by its Khalimsky coordinates and a boole...">
<polygon fill="white" stroke="black" points="594,-94.5 594,-124.5 740,-124.5 740,-94.5 594,-94.5"/>
<text text-anchor="start" x="602" y="-112.5" font-family="FreeSans" font-size="10.00">DGtal::SignedKhalimskyPre</text>
<text text-anchor="middle" x="667" y="-101.5" font-family="FreeSans" font-size="10.00">Cell&lt; dim, TInteger &gt;</text>
</a>
</g>
</g>
<!-- Node4&#45;&gt;Node7 -->
<g id="edge10" class="edge"><title>Node4&#45;&gt;Node7</title>
<path fill="none" stroke="#9a32cd" stroke-dasharray="5,2" d="M508.003,-137.637C534.576,-132.904 565.926,-127.321 593.665,-122.382"/>
<polygon fill="#9a32cd" stroke="#9a32cd" points="507.301,-134.206 498.069,-139.405 508.528,-141.098 507.301,-134.206"/>
<text text-anchor="middle" x="546" y="-139.5" font-family="FreeSans" font-size="10.00"> coordinates</text>
</g>
<!-- Node5 -->
<g id="node5" class="node"><title>Node5</title>
<polygon fill="white" stroke="#bfbfbf" points="0,-163 0,-182 68,-182 68,-163 0,-163"/>
<text text-anchor="middle" x="34" y="-170" font-family="FreeSans" font-size="10.00">TContainer</text>
</g>
<!-- Node5&#45;&gt;Node4 -->
<g id="edge4" class="edge"><title>Node5&#45;&gt;Node4</title>
<path fill="none" stroke="#9a32cd" stroke-dasharray="5,2" d="M78.3566,-172.973C99.3833,-173.18 125.007,-173.398 148,-173.5 203.999,-173.748 218.147,-177.561 274,-173.5 314.547,-170.552 360.078,-163.721 393.957,-157.943"/>
<polygon fill="#9a32cd" stroke="#9a32cd" points="78.1626,-169.471 68.1278,-172.87 78.0919,-176.471 78.1626,-169.471"/>
<text text-anchor="middle" x="211" y="-178.5" font-family="FreeSans" font-size="10.00"> myArray</text>
</g>
<!-- Node6 -->
<g id="node6" class="node"><title>Node6</title>
<g id="a_node6"><a xlink:href="classDGtal_1_1PointVector.html" target="_top" xlink:title="Aim: Implements basic operations that will be used in Point and Vector classes. ">
<polygon fill="white" stroke="black" points="148,-94 148,-135 274,-135 274,-94 148,-94"/>
<text text-anchor="start" x="156" y="-123" font-family="FreeSans" font-size="10.00">DGtal::PointVector</text>
<text text-anchor="start" x="156" y="-112" font-family="FreeSans" font-size="10.00">&lt; dim, TEuclideanRing,</text>
<text text-anchor="middle" x="211" y="-101" font-family="FreeSans" font-size="10.00"> TContainer &gt;</text>
</a>
</g>
</g>
<!-- Node5&#45;&gt;Node6 -->
<g id="edge6" class="edge"><title>Node5&#45;&gt;Node6</title>
<path fill="none" stroke="#9a32cd" stroke-dasharray="5,2" d="M73.4757,-159.748C95.3137,-152.51 123.167,-143.279 148.013,-135.044"/>
<polygon fill="#9a32cd" stroke="#9a32cd" points="72.2888,-156.454 63.8977,-162.922 74.4911,-163.099 72.2888,-156.454"/>
<text text-anchor="middle" x="108" y="-158.5" font-family="FreeSans" font-size="10.00"> myArray</text>
</g>
<!-- Node6&#45;&gt;Node4 -->
<g id="edge5" class="edge"><title>Node6&#45;&gt;Node4</title>
<path fill="none" stroke="#9a32cd" stroke-dasharray="5,2" d="M284.272,-108.169C313.133,-107.388 346.462,-108.705 376,-115.5 391.529,-119.072 407.661,-126.546 420.418,-133.48"/>
<polygon fill="#9a32cd" stroke="#9a32cd" points="284.133,-104.671 274.264,-108.527 284.383,-111.667 284.133,-104.671"/>
<text text-anchor="middle" x="334" y="-118.5" font-family="FreeSans" font-size="10.00"> zero</text>
</g>
<!-- Node6&#45;&gt;Node4 -->
<g id="edge8" class="edge"><title>Node6&#45;&gt;Node4</title>
<path fill="none" stroke="orange" stroke-dasharray="5,2" d="M283.942,-125.312C286.662,-125.715 289.356,-126.112 292,-126.5 325.985,-131.492 364.235,-136.992 393.989,-141.244"/>
<polygon fill="orange" stroke="orange" points="284.418,-121.845 274.012,-123.84 283.391,-128.769 284.418,-121.845"/>
<text text-anchor="middle" x="334" y="-142.5" font-family="FreeSans" font-size="10.00"> &lt; dim, Integer &gt;</text>
</g>
<!-- Node6&#45;&gt;Node6 -->
<g id="edge7" class="edge"><title>Node6&#45;&gt;Node6</title>
<path fill="none" stroke="#9a32cd" stroke-dasharray="5,2" d="M193.452,-145.356C196.061,-150.197 201.911,-153.5 211,-153.5 225.543,-153.5 231.792,-145.043 229.747,-135.364"/>
<polygon fill="#9a32cd" stroke="#9a32cd" points="196.919,-144.876 192.253,-135.364 189.969,-145.71 196.919,-144.876"/>
<text text-anchor="middle" x="211" y="-156.5" font-family="FreeSans" font-size="10.00"> zero</text>
</g>
<!-- Node7&#45;&gt;Node3 -->
<g id="edge9" class="edge"><title>Node7&#45;&gt;Node3</title>
<path fill="none" stroke="orange" stroke-dasharray="5,2" d="M750.363,-119.795C785.468,-124.184 826.056,-129.257 859.948,-133.494"/>
<polygon fill="orange" stroke="orange" points="750.496,-116.285 740.139,-118.517 749.628,-123.231 750.496,-116.285"/>
<text text-anchor="middle" x="800" y="-134.5" font-family="FreeSans" font-size="10.00"> &lt; dim, Integer &gt;</text>
</g>
<!-- Node8&#45;&gt;Node1 -->
<g id="edge11" class="edge"><title>Node8&#45;&gt;Node1</title>
<path fill="none" stroke="#9a32cd" stroke-dasharray="5,2" d="M2073.53,-44.5821C2038.28,-38.9822 1998.5,-33.2855 1962,-29.5 1908.28,-23.9283 1848.08,-20.5096 1799.1,-18.447"/>
<polygon fill="#9a32cd" stroke="#9a32cd" points="2073.4,-48.1061 2083.83,-46.2357 2074.51,-41.1946 2073.4,-48.1061"/>
<text text-anchor="middle" x="1889.5" y="-32.5" font-family="FreeSans" font-size="10.00"> myTracker</text>
</g>
<!-- Node9&#45;&gt;Node8 -->
<g id="edge12" class="edge"><title>Node9&#45;&gt;Node8</title>
<path fill="none" stroke="#9a32cd" stroke-dasharray="5,2" d="M1972.3,-98.8881C2007.1,-92.6706 2047.86,-85.3898 2083.74,-78.9813"/>
<polygon fill="#9a32cd" stroke="#9a32cd" points="1971.4,-95.4923 1962.18,-100.696 1972.63,-102.383 1971.4,-95.4923"/>
<text text-anchor="middle" x="2023" y="-100.5" font-family="FreeSans" font-size="10.00"> myNeighborhood</text>
</g>
<!-- Node10 -->
<g id="node10" class="node"><title>Node10</title>
<g id="a_node10"><a xlink:href="classDGtal_1_1SurfelAdjacency.html" target="_top" xlink:title="DGtal::SurfelAdjacency\l\&lt; KSpace::dimension \&gt;">
<polygon fill="white" stroke="black" points="1168.5,-26.5 1168.5,-56.5 1299.5,-56.5 1299.5,-26.5 1168.5,-26.5"/>
<text text-anchor="start" x="1176.5" y="-44.5" font-family="FreeSans" font-size="10.00">DGtal::SurfelAdjacency</text>
<text text-anchor="middle" x="1234" y="-33.5" font-family="FreeSans" font-size="10.00">&lt; KSpace::dimension &gt;</text>
</a>
</g>
</g>
<!-- Node10&#45;&gt;Node1 -->
<g id="edge20" class="edge"><title>Node10&#45;&gt;Node1</title>
<path fill="none" stroke="#9a32cd" stroke-dasharray="5,2" d="M1290.75,-23.6819C1302.29,-20.7039 1314.45,-18.0736 1326,-16.5 1419,-3.83048 1526.24,-5.16869 1601.89,-8.72445"/>
<polygon fill="#9a32cd" stroke="#9a32cd" points="1289.54,-20.3828 1280.8,-26.3706 1291.37,-27.1404 1289.54,-20.3828"/>
<text text-anchor="middle" x="1373.5" y="-19.5" font-family="FreeSans" font-size="10.00"> mySurfelAdjacency</text>
</g>
<!-- Node10&#45;&gt;Node9 -->
<g id="edge14" class="edge"><title>Node10&#45;&gt;Node9</title>
<path fill="none" stroke="#9a32cd" stroke-dasharray="5,2" d="M1309.93,-46.3119C1343.88,-48.7045 1384.5,-51.864 1421,-55.5 1561.59,-69.5037 1725.32,-91.0188 1816.94,-103.531"/>
<polygon fill="#9a32cd" stroke="#9a32cd" points="1309.85,-42.7973 1299.63,-45.5942 1309.36,-49.7804 1309.85,-42.7973"/>
<text text-anchor="middle" x="1511.5" y="-76.5" font-family="FreeSans" font-size="10.00"> mySurfelAdj</text>
</g>
<!-- Node10&#45;&gt;Node12 -->
<g id="edge18" class="edge"><title>Node10&#45;&gt;Node12</title>
<path fill="none" stroke="#9a32cd" stroke-dasharray="5,2" d="M1309.99,-52.1582C1352.44,-58.7881 1400.95,-67.5387 1421,-75.5 1447.67,-86.0891 1474.86,-105.118 1492.16,-118.484"/>
<polygon fill="#9a32cd" stroke="#9a32cd" points="1310.33,-48.6697 1299.92,-50.6061 1309.27,-55.5881 1310.33,-48.6697"/>
<text text-anchor="middle" x="1373.5" y="-78.5" font-family="FreeSans" font-size="10.00"> mySurfelAdj</text>
</g>
<!-- Node11 -->
<g id="node11" class="node"><title>Node11</title>
<g id="a_node11"><a xlink:href="classDGtal_1_1SurfelAdjacency.html" target="_top" xlink:title="Aim: Represent adjacencies between surfel elements, telling if it follows an interior to exterior ord...">
<polygon fill="white" stroke="black" points="870,-26.5 870,-56.5 996,-56.5 996,-26.5 870,-26.5"/>
<text text-anchor="start" x="878" y="-44.5" font-family="FreeSans" font-size="10.00">DGtal::SurfelAdjacency</text>
<text text-anchor="middle" x="933" y="-33.5" font-family="FreeSans" font-size="10.00">&lt; dim &gt;</text>
</a>
</g>
</g>
<!-- Node11&#45;&gt;Node10 -->
<g id="edge15" class="edge"><title>Node11&#45;&gt;Node10</title>
<path fill="none" stroke="orange" stroke-dasharray="5,2" d="M1006.61,-41.5C1056.03,-41.5 1120.83,-41.5 1168.44,-41.5"/>
<polygon fill="orange" stroke="orange" points="1006.32,-38.0001 996.316,-41.5 1006.32,-45.0001 1006.32,-38.0001"/>
<text text-anchor="middle" x="1083" y="-44.5" font-family="FreeSans" font-size="10.00"> &lt; KSpace::dimension &gt;</text>
</g>
<!-- Node12&#45;&gt;Node9 -->
<g id="edge16" class="edge"><title>Node12&#45;&gt;Node9</title>
<path fill="none" stroke="orange" stroke-dasharray="5,2" d="M1594.12,-129.159C1660.51,-125.627 1753.29,-120.692 1816.84,-117.312"/>
<polygon fill="orange" stroke="orange" points="1593.91,-125.665 1584.11,-129.691 1594.28,-132.655 1593.91,-125.665"/>
<text text-anchor="middle" x="1700.5" y="-132.5" font-family="FreeSans" font-size="10.00"> &lt; KSpace &gt;</text>
</g>
</g>
</svg>
        <g id="navigator" transform="translate(0 0)" fill="#404254">
                <rect fill="#f2f5e9" fill-opacity="0.5" stroke="#606060" stroke-width=".5" x="0" y="0" width="60" height="60"/>
                <use id="zoomplus" xlink:href="#zoomPlus" x="17" y="9" onmousedown="handleZoom(evt,'in')"/>
                <use id="zoomminus" xlink:href="#zoomMin" x="42" y="9" onmousedown="handleZoom(evt,'out')"/>
                <use id="reset" xlink:href="#resetDef" x="30" y="36" onmousedown="handleReset()"/>
                <g id="arrowUp" xlink:href="#dirArrow" transform="translate(30 24)" onmousedown="handlePan(0,-1)">
                  <use xlink:href="#rim" fill="#404040">
                        <set attributeName="fill" to="#808080" begin="arrowUp.mouseover" end="arrowUp.mouseout"/>
                  </use>
                  <path fill="none" stroke="white" stroke-width="1.5" d="M0,-3.0v7 M-2.5,-0.5L0,-3.0L2.5,-0.5"/>
                </g>
                <g id="arrowRight" xlink:href="#dirArrow" transform="rotate(90) translate(36 -43)" onmousedown="handlePan(1,0)">
                  <use xlink:href="#rim" fill="#404040">
                        <set attributeName="fill" to="#808080" begin="arrowRight.mouseover" end="arrowRight.mouseout"/>
                  </use>
                  <path fill="none" stroke="white" stroke-width="1.5" d="M0,-3.0v7 M-2.5,-0.5L0,-3.0L2.5,-0.5"/>
                </g>
                <g id="arrowDown" xlink:href="#dirArrow" transform="rotate(180) translate(-30 -48)" onmousedown="handlePan(0,1)">
                  <use xlink:href="#rim" fill="#404040">
                        <set attributeName="fill" to="#808080" begin="arrowDown.mouseover" end="arrowDown.mouseout"/>
                  </use>
                  <path fill="none" stroke="white" stroke-width="1.5" d="M0,-3.0v7 M-2.5,-0.5L0,-3.0L2.5,-0.5"/>
                </g>
                <g id="arrowLeft" xlink:href="#dirArrow" transform="rotate(270) translate(-36 17)" onmousedown="handlePan(-1,0)">
                  <use xlink:href="#rim" fill="#404040">
                        <set attributeName="fill" to="#808080" begin="arrowLeft.mouseover" end="arrowLeft.mouseout"/>
                  </use>
                  <path fill="none" stroke="white" stroke-width="1.5" d="M0,-3.0v7 M-2.5,-0.5L0,-3.0L2.5,-0.5"/>
                </g>
        </g>
        <svg viewBox="0 0 15 15" width="100%" height="30px" preserveAspectRatio="xMaxYMin meet">
         <g id="arrow_out" transform="scale(0.3 0.3)">
          <a xlink:href="classDGtal_1_1LightImplicitDigitalSurface__coll__graph_org.svg" target="_base">
           <rect id="button" ry="5" rx="5" y="6" x="6" height="38" width="38"
                fill="#f2f5e9" fill-opacity="0.5" stroke="#606060" stroke-width="1.0"/>
           <path id="arrow"
             d="M 11.500037,31.436501 C 11.940474,20.09759 22.043105,11.32322 32.158766,21.979434 L 37.068811,17.246167 C 37.068811,17.246167 37.088388,32 37.088388,32 L 22.160133,31.978069 C 22.160133,31.978069 26.997745,27.140456 26.997745,27.140456 C 18.528582,18.264221 13.291696,25.230495 11.500037,31.436501 z"
             style="fill:#404040;"/>
          </a>
         </g>
        </svg>
</svg>
