<?xml version="1.0" encoding="UTF-8" standalone="no"?>
<!DOCTYPE svg PUBLIC "-//W3C//DTD SVG 1.1//EN"
 "http://www.w3.org/Graphics/SVG/1.1/DTD/svg11.dtd">
<!-- Generated by graphviz version 2.38.0 (20140413.2041)
 -->
<!-- Title: DGtal::functors::MongeJetFittingGaussianCurvatureEstimator&lt; TSurfel, TEmbedder &gt; Pages: 1 -->
<svg width="191pt" height="251pt"
 viewBox="0.00 0.00 191.00 251.00" xmlns="http://www.w3.org/2000/svg" xmlns:xlink="http://www.w3.org/1999/xlink">
<g id="graph0" class="graph" transform="scale(1 1) rotate(0) translate(4 247)">
<title>DGtal::functors::MongeJetFittingGaussianCurvatureEstimator&lt; TSurfel, TEmbedder &gt;</title>
<polygon fill="white" stroke="none" points="-4,4 -4,-247 187,-247 187,4 -4,4"/>
<!-- Node1 -->
<g id="node1" class="node"><title>Node1</title>
<polygon fill="#bfbfbf" stroke="black" points="0,-0.5 0,-41.5 183,-41.5 183,-0.5 0,-0.5"/>
<text text-anchor="start" x="8" y="-29.5" font-family="FreeSans" font-size="10.00">DGtal::functors::MongeJet</text>
<text text-anchor="start" x="8" y="-18.5" font-family="FreeSans" font-size="10.00">FittingGaussianCurvatureEstimator</text>
<text text-anchor="middle" x="91.5" y="-7.5" font-family="FreeSans" font-size="10.00">&lt; TSurfel, TEmbedder &gt;</text>
</g>
<!-- Node2 -->
<g id="node2" class="node"><title>Node2</title>
<polygon fill="white" stroke="#bfbfbf" points="21.5,-89.5 21.5,-108.5 161.5,-108.5 161.5,-89.5 21.5,-89.5"/>
<text text-anchor="middle" x="91.5" y="-96.5" font-family="FreeSans" font-size="10.00">std::vector&lt; CGALPoint &gt;</text>
</g>
<!-- Node2&#45;&gt;Node1 -->
<g id="edge1" class="edge"><title>Node2&#45;&gt;Node1</title>
<path fill="none" stroke="#9a32cd" stroke-dasharray="5,2" d="M91.5,-79.1372C91.5,-67.7291 91.5,-53.2071 91.5,-41.6584"/>
<polygon fill="#9a32cd" stroke="#9a32cd" points="88.0001,-79.2818 91.5,-89.2818 95.0001,-79.2819 88.0001,-79.2818"/>
<text text-anchor="middle" x="115.5" y="-63" font-family="FreeSans" font-size="10.00"> myPoints</text>
</g>
<!-- Node3 -->
<g id="node3" class="node"><title>Node3</title>
<g id="a_node3"><a xlink:title="STL class. ">
<polygon fill="white" stroke="#bfbfbf" points="44,-156.5 44,-175.5 139,-175.5 139,-156.5 44,-156.5"/>
<text text-anchor="middle" x="91.5" y="-163.5" font-family="FreeSans" font-size="10.00">std::vector&lt; T &gt;</text>
</a>
</g>
</g>
<!-- Node3&#45;&gt;Node2 -->
<g id="edge2" class="edge"><title>Node3&#45;&gt;Node2</title>
<path fill="none" stroke="orange" stroke-dasharray="5,2" d="M91.5,-146.037C91.5,-133.67 91.5,-118.12 91.5,-108.627"/>
<polygon fill="orange" stroke="orange" points="88.0001,-146.234 91.5,-156.234 95.0001,-146.234 88.0001,-146.234"/>
<text text-anchor="middle" x="129.5" y="-130" font-family="FreeSans" font-size="10.00"> &lt; CGALPoint &gt;</text>
</g>
<!-- Node4 -->
<g id="node4" class="node"><title>Node4</title>
<polygon fill="white" stroke="#bfbfbf" points="77,-223.5 77,-242.5 106,-242.5 106,-223.5 77,-223.5"/>
<text text-anchor="middle" x="91.5" y="-230.5" font-family="FreeSans" font-size="10.00">T</text>
</g>
<!-- Node4&#45;&gt;Node3 -->
<g id="edge3" class="edge"><title>Node4&#45;&gt;Node3</title>
<path fill="none" stroke="#9a32cd" stroke-dasharray="5,2" d="M91.5,-213.037C91.5,-200.67 91.5,-185.12 91.5,-175.627"/>
<polygon fill="#9a32cd" stroke="#9a32cd" points="88.0001,-213.234 91.5,-223.234 95.0001,-213.234 88.0001,-213.234"/>
<text text-anchor="middle" x="116" y="-197" font-family="FreeSans" font-size="10.00"> elements</text>
</g>
</g>
</svg>
