<?xml version="1.0" encoding="UTF-8" standalone="no"?>
<!DOCTYPE svg PUBLIC "-//W3C//DTD SVG 1.1//EN"
 "http://www.w3.org/Graphics/SVG/1.1/DTD/svg11.dtd">
<!-- Generated by graphviz version 2.38.0 (20140413.2041)
 -->
<!-- Title: DGtal::LightExplicitDigitalSurface&lt; TKSpace, TSurfelPredicate &gt;::Tracker Pages: 1 -->
<!--zoomable 201 -->
<svg id="main" version="1.1" xmlns="http://www.w3.org/2000/svg" xmlns:xlink="http://www.w3.org/1999/xlink" xml:space="preserve" onload="init(evt)">
<style type="text/css"><![CDATA[
.edge:hover path { stroke: red; }
.edge:hover polygon { stroke: red; fill: red; }
]]></style>
<script type="text/javascript"><![CDATA[
var edges = document.getElementsByTagName('g');
if (edges && edges.length) {
  for (var i=0;i<edges.length;i++) {
    if (edges[i].id.substr(0,4)=='edge') {
      edges[i].setAttribute('class','edge');
    }
  }
}
]]></script>
        <defs>
                <circle id="rim" cx="0" cy="0" r="7"/>
                <circle id="rim2" cx="0" cy="0" r="3.5"/>
                <g id="zoomPlus">
                        <use xlink:href="#rim" fill="#404040">
                                <set attributeName="fill" to="#808080" begin="zoomplus.mouseover" end="zoomplus.mouseout"/>
                        </use>
                        <path d="M-4,0h8M0,-4v8" fill="none" stroke="white" stroke-width="1.5" pointer-events="none"/>
                </g>
                <g id="zoomMin">
                        <use xlink:href="#rim" fill="#404040">
                                <set attributeName="fill" to="#808080" begin="zoomminus.mouseover" end="zoomminus.mouseout"/>
                        </use>
                        <path d="M-4,0h8" fill="none" stroke="white" stroke-width="1.5" pointer-events="none"/>
                </g>
                <g id="dirArrow">
                        <path fill="none" stroke="white" stroke-width="1.5" d="M0,-3.0v7 M-2.5,-0.5L0,-3.0L2.5,-0.5"/>
                </g>
               <g id="resetDef">
                       <use xlink:href="#rim2" fill="#404040">
                               <set attributeName="fill" to="#808080" begin="reset.mouseover" end="reset.mouseout"/>
                       </use>
               </g>
        </defs>

<script type="text/javascript">
var viewWidth = 2405;
var viewHeight = 201;
var sectionId = 'dynsection-0';
</script>
<script xlink:href="svgpan.js"/>
<svg id="graph" class="graph">
<g id="viewport">
<title>DGtal::LightExplicitDigitalSurface&lt; TKSpace, TSurfelPredicate &gt;::Tracker</title>
<polygon fill="white" stroke="none" points="-4,4 -4,-197 2401,-197 2401,4 -4,4"/>
<!-- Node1 -->
<g id="node1" class="node"><title>Node1</title>
<polygon fill="#bfbfbf" stroke="black" points="1915,-70.5 1915,-111.5 2105,-111.5 2105,-70.5 1915,-70.5"/>
<text text-anchor="start" x="1923" y="-99.5" font-family="FreeSans" font-size="10.00">DGtal::LightExplicitDigital</text>
<text text-anchor="start" x="1923" y="-88.5" font-family="FreeSans" font-size="10.00">Surface&lt; TKSpace, TSurfelPredicate</text>
<text text-anchor="middle" x="2010" y="-77.5" font-family="FreeSans" font-size="10.00"> &gt;::Tracker</text>
</g>
<!-- Node2 -->
<g id="node2" class="node"><title>Node2</title>
<g id="a_node2"><a xlink:href="classDGtal_1_1LightExplicitDigitalSurface.html" target="_top" xlink:title="Aim: A model of CDigitalSurfaceContainer which defines the digital surface as connected surfels...">
<polygon fill="white" stroke="black" points="2196,-76 2196,-106 2397,-106 2397,-76 2196,-76"/>
<text text-anchor="start" x="2204" y="-94" font-family="FreeSans" font-size="10.00">DGtal::LightExplicitDigital</text>
<text text-anchor="middle" x="2296.5" y="-83" font-family="FreeSans" font-size="10.00">Surface&lt; TKSpace, TSurfelPredicate &gt;</text>
</a>
</g>
</g>
<!-- Node1&#45;&gt;Node2 -->
<g id="edge12" class="edge"><title>Node1&#45;&gt;Node2</title>
<path fill="none" stroke="#9a32cd" stroke-dasharray="5,2" d="M2115.21,-76.5767C2117.83,-76.3644 2120.43,-76.1713 2123,-76 2146.55,-74.4303 2171.87,-75.2337 2195.67,-77.1024"/>
<polygon fill="#9a32cd" stroke="#9a32cd" points="2114.67,-73.1112 2105.02,-77.485 2115.29,-80.0836 2114.67,-73.1112"/>
<text text-anchor="middle" x="2150.5" y="-79" font-family="FreeSans" font-size="10.00"> myTracker</text>
</g>
<!-- Node2&#45;&gt;Node1 -->
<g id="edge1" class="edge"><title>Node2&#45;&gt;Node1</title>
<path fill="none" stroke="#9a32cd" stroke-dasharray="5,2" d="M2185.5,-91C2159.04,-91 2131.01,-91 2105.34,-91"/>
<polygon fill="#9a32cd" stroke="#9a32cd" points="2185.56,-94.5001 2195.56,-91 2185.56,-87.5001 2185.56,-94.5001"/>
<text text-anchor="middle" x="2150.5" y="-94" font-family="FreeSans" font-size="10.00"> mySurface</text>
</g>
<!-- Node3 -->
<g id="node3" class="node"><title>Node3</title>
<g id="a_node3"><a xlink:href="structDGtal_1_1SignedKhalimskyCell.html" target="_top" xlink:title="Represents a signed cell in a cellular grid space by its Khalimsky coordinates and a boolean value...">
<polygon fill="white" stroke="black" points="1160,-128 1160,-158 1308,-158 1308,-128 1160,-128"/>
<text text-anchor="start" x="1168" y="-146" font-family="FreeSans" font-size="10.00">DGtal::SignedKhalimskyCell</text>
<text text-anchor="middle" x="1234" y="-135" font-family="FreeSans" font-size="10.00">&lt; dim, TInteger &gt;</text>
</a>
</g>
</g>
<!-- Node3&#45;&gt;Node2 -->
<g id="edge2" class="edge"><title>Node3&#45;&gt;Node2</title>
<path fill="none" stroke="#9a32cd" stroke-dasharray="5,2" d="M1304.58,-160.286C1352.57,-170.715 1418.02,-182 1476.5,-182 1476.5,-182 1476.5,-182 2011,-182 2109.53,-182 2218.52,-131.873 2268.17,-106.027"/>
<polygon fill="#9a32cd" stroke="#9a32cd" points="1305.13,-156.824 1294.61,-158.078 1303.62,-163.658 1305.13,-156.824"/>
<text text-anchor="middle" x="1720.5" y="-185" font-family="FreeSans" font-size="10.00"> mySurfel</text>
</g>
<!-- Node11 -->
<g id="node11" class="node"><title>Node11</title>
<g id="a_node11"><a xlink:href="classDGtal_1_1SurfelNeighborhood.html" target="_top" xlink:title="DGtal::SurfelNeighborhood\l\&lt; KSpace \&gt;">
<polygon fill="white" stroke="black" points="1648,-76 1648,-106 1793,-106 1793,-76 1648,-76"/>
<text text-anchor="start" x="1656" y="-94" font-family="FreeSans" font-size="10.00">DGtal::SurfelNeighborhood</text>
<text text-anchor="middle" x="1720.5" y="-83" font-family="FreeSans" font-size="10.00">&lt; KSpace &gt;</text>
</a>
</g>
</g>
<!-- Node3&#45;&gt;Node11 -->
<g id="edge16" class="edge"><title>Node3&#45;&gt;Node11</title>
<path fill="none" stroke="#9a32cd" stroke-dasharray="5,2" d="M1318.06,-137.434C1398.17,-131.544 1522.72,-121.013 1630,-106 1635.77,-105.192 1641.75,-104.304 1647.74,-103.377"/>
<polygon fill="#9a32cd" stroke="#9a32cd" points="1317.75,-133.948 1308.03,-138.165 1318.26,-140.929 1317.75,-133.948"/>
<text text-anchor="middle" x="1477.5" y="-134" font-family="FreeSans" font-size="10.00"> mySurfel</text>
</g>
<!-- Node12 -->
<g id="node12" class="node"><title>Node12</title>
<g id="a_node12"><a xlink:href="classDGtal_1_1SurfelNeighborhood.html" target="_top" xlink:title="Aim: This helper class is useful to compute the neighboring surfels of a given surfel, especially over a digital surface or over an object boundary. Two signed surfels are incident if they share a common n&#45;2 cell. This class uses a SurfelAdjacency so as to determine adjacent surfels (either looking for them from interior to exterior or inversely). ">
<polygon fill="white" stroke="black" points="1405,-76 1405,-106 1550,-106 1550,-76 1405,-76"/>
<text text-anchor="start" x="1413" y="-94" font-family="FreeSans" font-size="10.00">DGtal::SurfelNeighborhood</text>
<text text-anchor="middle" x="1477.5" y="-83" font-family="FreeSans" font-size="10.00">&lt; TKSpace &gt;</text>
</a>
</g>
</g>
<!-- Node3&#45;&gt;Node12 -->
<g id="edge19" class="edge"><title>Node3&#45;&gt;Node12</title>
<path fill="none" stroke="#9a32cd" stroke-dasharray="5,2" d="M1296.49,-125.296C1306.32,-122.7 1316.41,-120.172 1326,-118 1351.5,-112.222 1379.66,-106.893 1404.65,-102.523"/>
<polygon fill="#9a32cd" stroke="#9a32cd" points="1295.52,-121.932 1286.77,-127.905 1297.33,-128.693 1295.52,-121.932"/>
<text text-anchor="middle" x="1356.5" y="-121" font-family="FreeSans" font-size="10.00"> mySurfel</text>
</g>
<!-- Node4 -->
<g id="node4" class="node"><title>Node4</title>
<g id="a_node4"><a xlink:href="structDGtal_1_1SignedKhalimskyPreCell.html" target="_top" xlink:title="DGtal::SignedKhalimskyPre\lCell\&lt; dim, Integer \&gt;">
<polygon fill="white" stroke="black" points="860,-128 860,-158 1006,-158 1006,-128 860,-128"/>
<text text-anchor="start" x="868" y="-146" font-family="FreeSans" font-size="10.00">DGtal::SignedKhalimskyPre</text>
<text text-anchor="middle" x="933" y="-135" font-family="FreeSans" font-size="10.00">Cell&lt; dim, Integer &gt;</text>
</a>
</g>
</g>
<!-- Node4&#45;&gt;Node3 -->
<g id="edge3" class="edge"><title>Node4&#45;&gt;Node3</title>
<path fill="none" stroke="#9a32cd" stroke-dasharray="5,2" d="M1016.4,-143C1061.37,-143 1116.57,-143 1159.99,-143"/>
<polygon fill="#9a32cd" stroke="#9a32cd" points="1016.38,-139.5 1006.38,-143 1016.38,-146.5 1016.38,-139.5"/>
<text text-anchor="middle" x="1083" y="-146" font-family="FreeSans" font-size="10.00"> mySPreCell</text>
</g>
<!-- Node5 -->
<g id="node5" class="node"><title>Node5</title>
<g id="a_node5"><a xlink:href="classDGtal_1_1PointVector.html" target="_top" xlink:title="DGtal::PointVector\l\&lt; dim, Integer \&gt;">
<polygon fill="white" stroke="black" points="394,-134 394,-164 498,-164 498,-134 394,-134"/>
<text text-anchor="start" x="402" y="-152" font-family="FreeSans" font-size="10.00">DGtal::PointVector</text>
<text text-anchor="middle" x="446" y="-141" font-family="FreeSans" font-size="10.00">&lt; dim, Integer &gt;</text>
</a>
</g>
</g>
<!-- Node5&#45;&gt;Node4 -->
<g id="edge4" class="edge"><title>Node5&#45;&gt;Node4</title>
<path fill="none" stroke="#9a32cd" stroke-dasharray="5,2" d="M508.229,-149.436C585.882,-149.817 723.901,-149.922 842,-147 847.785,-146.857 853.778,-146.672 859.798,-146.459"/>
<polygon fill="#9a32cd" stroke="#9a32cd" points="508.16,-145.936 498.142,-149.383 508.123,-152.936 508.16,-145.936"/>
<text text-anchor="middle" x="667" y="-153" font-family="FreeSans" font-size="10.00"> coordinates</text>
</g>
<!-- Node8 -->
<g id="node8" class="node"><title>Node8</title>
<g id="a_node8"><a xlink:href="structDGtal_1_1SignedKhalimskyPreCell.html" target="_top" xlink:title="Represents a signed cell in an unbounded cellular grid space by its Khalimsky coordinates and a boole...">
<polygon fill="white" stroke="black" points="594,-95 594,-125 740,-125 740,-95 594,-95"/>
<text text-anchor="start" x="602" y="-113" font-family="FreeSans" font-size="10.00">DGtal::SignedKhalimskyPre</text>
<text text-anchor="middle" x="667" y="-102" font-family="FreeSans" font-size="10.00">Cell&lt; dim, TInteger &gt;</text>
</a>
</g>
</g>
<!-- Node5&#45;&gt;Node8 -->
<g id="edge11" class="edge"><title>Node5&#45;&gt;Node8</title>
<path fill="none" stroke="#9a32cd" stroke-dasharray="5,2" d="M508.003,-138.137C534.576,-133.404 565.926,-127.821 593.665,-122.882"/>
<polygon fill="#9a32cd" stroke="#9a32cd" points="507.301,-134.706 498.069,-139.905 508.528,-141.598 507.301,-134.706"/>
<text text-anchor="middle" x="546" y="-140" font-family="FreeSans" font-size="10.00"> coordinates</text>
</g>
<!-- Node6 -->
<g id="node6" class="node"><title>Node6</title>
<polygon fill="white" stroke="#bfbfbf" points="0,-163.5 0,-182.5 68,-182.5 68,-163.5 0,-163.5"/>
<text text-anchor="middle" x="34" y="-170.5" font-family="FreeSans" font-size="10.00">TContainer</text>
</g>
<!-- Node6&#45;&gt;Node5 -->
<g id="edge5" class="edge"><title>Node6&#45;&gt;Node5</title>
<path fill="none" stroke="#9a32cd" stroke-dasharray="5,2" d="M78.3566,-173.473C99.3833,-173.68 125.007,-173.898 148,-174 203.999,-174.248 218.147,-178.061 274,-174 314.547,-171.052 360.078,-164.221 393.957,-158.443"/>
<polygon fill="#9a32cd" stroke="#9a32cd" points="78.1626,-169.971 68.1278,-173.37 78.0919,-176.971 78.1626,-169.971"/>
<text text-anchor="middle" x="211" y="-179" font-family="FreeSans" font-size="10.00"> myArray</text>
</g>
<!-- Node7 -->
<g id="node7" class="node"><title>Node7</title>
<g id="a_node7"><a xlink:href="classDGtal_1_1PointVector.html" target="_top" xlink:title="Aim: Implements basic operations that will be used in Point and Vector classes. ">
<polygon fill="white" stroke="black" points="148,-94.5 148,-135.5 274,-135.5 274,-94.5 148,-94.5"/>
<text text-anchor="start" x="156" y="-123.5" font-family="FreeSans" font-size="10.00">DGtal::PointVector</text>
<text text-anchor="start" x="156" y="-112.5" font-family="FreeSans" font-size="10.00">&lt; dim, TEuclideanRing,</text>
<text text-anchor="middle" x="211" y="-101.5" font-family="FreeSans" font-size="10.00"> TContainer &gt;</text>
</a>
</g>
</g>
<!-- Node6&#45;&gt;Node7 -->
<g id="edge7" class="edge"><title>Node6&#45;&gt;Node7</title>
<path fill="none" stroke="#9a32cd" stroke-dasharray="5,2" d="M73.4757,-160.248C95.3137,-153.01 123.167,-143.779 148.013,-135.544"/>
<polygon fill="#9a32cd" stroke="#9a32cd" points="72.2888,-156.954 63.8977,-163.422 74.4911,-163.599 72.2888,-156.954"/>
<text text-anchor="middle" x="108" y="-159" font-family="FreeSans" font-size="10.00"> myArray</text>
</g>
<!-- Node7&#45;&gt;Node5 -->
<g id="edge6" class="edge"><title>Node7&#45;&gt;Node5</title>
<path fill="none" stroke="#9a32cd" stroke-dasharray="5,2" d="M283.942,-125.812C286.662,-126.215 289.356,-126.612 292,-127 325.985,-131.992 364.235,-137.492 393.989,-141.744"/>
<polygon fill="#9a32cd" stroke="#9a32cd" points="284.418,-122.345 274.012,-124.34 283.391,-129.269 284.418,-122.345"/>
<text text-anchor="middle" x="334" y="-143" font-family="FreeSans" font-size="10.00"> zero</text>
</g>
<!-- Node7&#45;&gt;Node5 -->
<g id="edge9" class="edge"><title>Node7&#45;&gt;Node5</title>
<path fill="none" stroke="orange" stroke-dasharray="5,2" d="M284.333,-107.158C313.203,-105.937 346.522,-106.951 376,-114 392.33,-117.905 409.163,-126.341 422.116,-133.952"/>
<polygon fill="orange" stroke="orange" points="284.127,-103.664 274.321,-107.677 284.489,-110.655 284.127,-103.664"/>
<text text-anchor="middle" x="334" y="-117" font-family="FreeSans" font-size="10.00"> &lt; dim, Integer &gt;</text>
</g>
<!-- Node7&#45;&gt;Node7 -->
<g id="edge8" class="edge"><title>Node7&#45;&gt;Node7</title>
<path fill="none" stroke="#9a32cd" stroke-dasharray="5,2" d="M193.452,-145.856C196.061,-150.697 201.911,-154 211,-154 225.543,-154 231.792,-145.543 229.747,-135.864"/>
<polygon fill="#9a32cd" stroke="#9a32cd" points="196.919,-145.376 192.253,-135.864 189.969,-146.21 196.919,-145.376"/>
<text text-anchor="middle" x="211" y="-157" font-family="FreeSans" font-size="10.00"> zero</text>
</g>
<!-- Node8&#45;&gt;Node4 -->
<g id="edge10" class="edge"><title>Node8&#45;&gt;Node4</title>
<path fill="none" stroke="orange" stroke-dasharray="5,2" d="M750.363,-120.295C785.468,-124.684 826.056,-129.757 859.948,-133.994"/>
<polygon fill="orange" stroke="orange" points="750.496,-116.785 740.139,-119.017 749.628,-123.731 750.496,-116.785"/>
<text text-anchor="middle" x="800" y="-135" font-family="FreeSans" font-size="10.00"> &lt; dim, Integer &gt;</text>
</g>
<!-- Node9 -->
<g id="node9" class="node"><title>Node9</title>
<g id="a_node9"><a xlink:href="classDGtal_1_1SurfelAdjacency.html" target="_top" xlink:title="DGtal::SurfelAdjacency\l\&lt; KSpace::dimension \&gt;">
<polygon fill="white" stroke="black" points="1168.5,-31 1168.5,-61 1299.5,-61 1299.5,-31 1168.5,-31"/>
<text text-anchor="start" x="1176.5" y="-49" font-family="FreeSans" font-size="10.00">DGtal::SurfelAdjacency</text>
<text text-anchor="middle" x="1234" y="-38" font-family="FreeSans" font-size="10.00">&lt; KSpace::dimension &gt;</text>
</a>
</g>
</g>
<!-- Node9&#45;&gt;Node2 -->
<g id="edge13" class="edge"><title>Node9&#45;&gt;Node2</title>
<path fill="none" stroke="#9a32cd" stroke-dasharray="5,2" d="M1294.13,-28.2985C1342.66,-15.3364 1413.41,-0 1476.5,-0 1476.5,-0 1476.5,-0 2011,-0 2109.53,-0 2218.52,-50.1266 2268.17,-75.9732"/>
<polygon fill="#9a32cd" stroke="#9a32cd" points="1293.16,-24.9359 1284.43,-30.9379 1295,-31.6905 1293.16,-24.9359"/>
<text text-anchor="middle" x="1720.5" y="-3" font-family="FreeSans" font-size="10.00"> mySurfelAdjacency</text>
</g>
<!-- Node9&#45;&gt;Node11 -->
<g id="edge17" class="edge"><title>Node9&#45;&gt;Node11</title>
<path fill="none" stroke="#9a32cd" stroke-dasharray="5,2" d="M1309.5,-44.3504C1373.51,-43.8344 1468.14,-45.219 1550,-55 1587.49,-59.4793 1628.96,-68.2186 1661.49,-75.9647"/>
<polygon fill="#9a32cd" stroke="#9a32cd" points="1309.47,-40.8505 1299.5,-44.4486 1309.53,-47.8502 1309.47,-40.8505"/>
<text text-anchor="middle" x="1477.5" y="-58" font-family="FreeSans" font-size="10.00"> mySurfelAdj</text>
</g>
<!-- Node9&#45;&gt;Node12 -->
<g id="edge20" class="edge"><title>Node9&#45;&gt;Node12</title>
<path fill="none" stroke="#9a32cd" stroke-dasharray="5,2" d="M1309.79,-59.9369C1340.06,-65.5764 1374.85,-72.0596 1404.8,-77.6394"/>
<polygon fill="#9a32cd" stroke="#9a32cd" points="1310.19,-56.4503 1299.72,-58.0592 1308.91,-63.3319 1310.19,-56.4503"/>
<text text-anchor="middle" x="1356.5" y="-77" font-family="FreeSans" font-size="10.00"> mySurfelAdj</text>
</g>
<!-- Node10 -->
<g id="node10" class="node"><title>Node10</title>
<g id="a_node10"><a xlink:href="classDGtal_1_1SurfelAdjacency.html" target="_top" xlink:title="Aim: Represent adjacencies between surfel elements, telling if it follows an interior to exterior ord...">
<polygon fill="white" stroke="black" points="870,-31 870,-61 996,-61 996,-31 870,-31"/>
<text text-anchor="start" x="878" y="-49" font-family="FreeSans" font-size="10.00">DGtal::SurfelAdjacency</text>
<text text-anchor="middle" x="933" y="-38" font-family="FreeSans" font-size="10.00">&lt; dim &gt;</text>
</a>
</g>
</g>
<!-- Node10&#45;&gt;Node9 -->
<g id="edge14" class="edge"><title>Node10&#45;&gt;Node9</title>
<path fill="none" stroke="orange" stroke-dasharray="5,2" d="M1006.61,-46C1056.03,-46 1120.83,-46 1168.44,-46"/>
<polygon fill="orange" stroke="orange" points="1006.32,-42.5001 996.316,-46 1006.32,-49.5001 1006.32,-42.5001"/>
<text text-anchor="middle" x="1083" y="-49" font-family="FreeSans" font-size="10.00"> &lt; KSpace::dimension &gt;</text>
</g>
<!-- Node11&#45;&gt;Node1 -->
<g id="edge15" class="edge"><title>Node11&#45;&gt;Node1</title>
<path fill="none" stroke="#9a32cd" stroke-dasharray="5,2" d="M1803.41,-91C1838.14,-91 1878.83,-91 1914.79,-91"/>
<polygon fill="#9a32cd" stroke="#9a32cd" points="1803.31,-87.5001 1793.31,-91 1803.31,-94.5001 1803.31,-87.5001"/>
<text text-anchor="middle" x="1854" y="-94" font-family="FreeSans" font-size="10.00"> myNeighborhood</text>
</g>
<!-- Node12&#45;&gt;Node11 -->
<g id="edge18" class="edge"><title>Node12&#45;&gt;Node11</title>
<path fill="none" stroke="orange" stroke-dasharray="5,2" d="M1560.43,-91C1588.76,-91 1620.26,-91 1647.7,-91"/>
<polygon fill="orange" stroke="orange" points="1560.16,-87.5001 1550.16,-91 1560.16,-94.5001 1560.16,-87.5001"/>
<text text-anchor="middle" x="1599" y="-94" font-family="FreeSans" font-size="10.00"> &lt; KSpace &gt;</text>
</g>
</g>
</svg>
        <g id="navigator" transform="translate(0 0)" fill="#404254">
                <rect fill="#f2f5e9" fill-opacity="0.5" stroke="#606060" stroke-width=".5" x="0" y="0" width="60" height="60"/>
                <use id="zoomplus" xlink:href="#zoomPlus" x="17" y="9" onmousedown="handleZoom(evt,'in')"/>
                <use id="zoomminus" xlink:href="#zoomMin" x="42" y="9" onmousedown="handleZoom(evt,'out')"/>
                <use id="reset" xlink:href="#resetDef" x="30" y="36" onmousedown="handleReset()"/>
                <g id="arrowUp" xlink:href="#dirArrow" transform="translate(30 24)" onmousedown="handlePan(0,-1)">
                  <use xlink:href="#rim" fill="#404040">
                        <set attributeName="fill" to="#808080" begin="arrowUp.mouseover" end="arrowUp.mouseout"/>
                  </use>
                  <path fill="none" stroke="white" stroke-width="1.5" d="M0,-3.0v7 M-2.5,-0.5L0,-3.0L2.5,-0.5"/>
                </g>
                <g id="arrowRight" xlink:href="#dirArrow" transform="rotate(90) translate(36 -43)" onmousedown="handlePan(1,0)">
                  <use xlink:href="#rim" fill="#404040">
                        <set attributeName="fill" to="#808080" begin="arrowRight.mouseover" end="arrowRight.mouseout"/>
                  </use>
                  <path fill="none" stroke="white" stroke-width="1.5" d="M0,-3.0v7 M-2.5,-0.5L0,-3.0L2.5,-0.5"/>
                </g>
                <g id="arrowDown" xlink:href="#dirArrow" transform="rotate(180) translate(-30 -48)" onmousedown="handlePan(0,1)">
                  <use xlink:href="#rim" fill="#404040">
                        <set attributeName="fill" to="#808080" begin="arrowDown.mouseover" end="arrowDown.mouseout"/>
                  </use>
                  <path fill="none" stroke="white" stroke-width="1.5" d="M0,-3.0v7 M-2.5,-0.5L0,-3.0L2.5,-0.5"/>
                </g>
                <g id="arrowLeft" xlink:href="#dirArrow" transform="rotate(270) translate(-36 17)" onmousedown="handlePan(-1,0)">
                  <use xlink:href="#rim" fill="#404040">
                        <set attributeName="fill" to="#808080" begin="arrowLeft.mouseover" end="arrowLeft.mouseout"/>
                  </use>
                  <path fill="none" stroke="white" stroke-width="1.5" d="M0,-3.0v7 M-2.5,-0.5L0,-3.0L2.5,-0.5"/>
                </g>
        </g>
        <svg viewBox="0 0 15 15" width="100%" height="30px" preserveAspectRatio="xMaxYMin meet">
         <g id="arrow_out" transform="scale(0.3 0.3)">
          <a xlink:href="classDGtal_1_1LightExplicitDigitalSurface_1_1Tracker__coll__graph_org.svg" target="_base">
           <rect id="button" ry="5" rx="5" y="6" x="6" height="38" width="38"
                fill="#f2f5e9" fill-opacity="0.5" stroke="#606060" stroke-width="1.0"/>
           <path id="arrow"
             d="M 11.500037,31.436501 C 11.940474,20.09759 22.043105,11.32322 32.158766,21.979434 L 37.068811,17.246167 C 37.068811,17.246167 37.088388,32 37.088388,32 L 22.160133,31.978069 C 22.160133,31.978069 26.997745,27.140456 26.997745,27.140456 C 18.528582,18.264221 13.291696,25.230495 11.500037,31.436501 z"
             style="fill:#404040;"/>
          </a>
         </g>
        </svg>
</svg>
