<?xml version="1.0" encoding="UTF-8" standalone="no"?>
<!DOCTYPE svg PUBLIC "-//W3C//DTD SVG 1.1//EN"
 "http://www.w3.org/Graphics/SVG/1.1/DTD/svg11.dtd">
<!-- Generated by graphviz version 2.38.0 (20140413.2041)
 -->
<!-- Title: DGtal::functors::MongeJetFittingNormalVectorEstimator&lt; TSurfel, TEmbedder &gt; Pages: 1 -->
<svg width="166pt" height="251pt"
 viewBox="0.00 0.00 166.00 251.00" xmlns="http://www.w3.org/2000/svg" xmlns:xlink="http://www.w3.org/1999/xlink">
<g id="graph0" class="graph" transform="scale(1 1) rotate(0) translate(4 247)">
<title>DGtal::functors::MongeJetFittingNormalVectorEstimator&lt; TSurfel, TEmbedder &gt;</title>
<polygon fill="white" stroke="none" points="-4,4 -4,-247 162,-247 162,4 -4,4"/>
<!-- Node1 -->
<g id="node1" class="node"><title>Node1</title>
<polygon fill="#bfbfbf" stroke="black" points="-1.42109e-14,-0.5 -1.42109e-14,-41.5 158,-41.5 158,-0.5 -1.42109e-14,-0.5"/>
<text text-anchor="start" x="8" y="-29.5" font-family="FreeSans" font-size="10.00">DGtal::functors::MongeJet</text>
<text text-anchor="start" x="8" y="-18.5" font-family="FreeSans" font-size="10.00">FittingNormalVectorEstimator</text>
<text text-anchor="middle" x="79" y="-7.5" font-family="FreeSans" font-size="10.00">&lt; TSurfel, TEmbedder &gt;</text>
</g>
<!-- Node2 -->
<g id="node2" class="node"><title>Node2</title>
<polygon fill="white" stroke="#bfbfbf" points="9,-89.5 9,-108.5 149,-108.5 149,-89.5 9,-89.5"/>
<text text-anchor="middle" x="79" y="-96.5" font-family="FreeSans" font-size="10.00">std::vector&lt; CGALPoint &gt;</text>
</g>
<!-- Node2&#45;&gt;Node1 -->
<g id="edge1" class="edge"><title>Node2&#45;&gt;Node1</title>
<path fill="none" stroke="#9a32cd" stroke-dasharray="5,2" d="M79,-79.1372C79,-67.7291 79,-53.2071 79,-41.6584"/>
<polygon fill="#9a32cd" stroke="#9a32cd" points="75.5001,-79.2818 79,-89.2818 82.5001,-79.2819 75.5001,-79.2818"/>
<text text-anchor="middle" x="103" y="-63" font-family="FreeSans" font-size="10.00"> myPoints</text>
</g>
<!-- Node3 -->
<g id="node3" class="node"><title>Node3</title>
<g id="a_node3"><a xlink:title="STL class. ">
<polygon fill="white" stroke="#bfbfbf" points="31.5,-156.5 31.5,-175.5 126.5,-175.5 126.5,-156.5 31.5,-156.5"/>
<text text-anchor="middle" x="79" y="-163.5" font-family="FreeSans" font-size="10.00">std::vector&lt; T &gt;</text>
</a>
</g>
</g>
<!-- Node3&#45;&gt;Node2 -->
<g id="edge2" class="edge"><title>Node3&#45;&gt;Node2</title>
<path fill="none" stroke="orange" stroke-dasharray="5,2" d="M79,-146.037C79,-133.67 79,-118.12 79,-108.627"/>
<polygon fill="orange" stroke="orange" points="75.5001,-146.234 79,-156.234 82.5001,-146.234 75.5001,-146.234"/>
<text text-anchor="middle" x="117" y="-130" font-family="FreeSans" font-size="10.00"> &lt; CGALPoint &gt;</text>
</g>
<!-- Node4 -->
<g id="node4" class="node"><title>Node4</title>
<polygon fill="white" stroke="#bfbfbf" points="64.5,-223.5 64.5,-242.5 93.5,-242.5 93.5,-223.5 64.5,-223.5"/>
<text text-anchor="middle" x="79" y="-230.5" font-family="FreeSans" font-size="10.00">T</text>
</g>
<!-- Node4&#45;&gt;Node3 -->
<g id="edge3" class="edge"><title>Node4&#45;&gt;Node3</title>
<path fill="none" stroke="#9a32cd" stroke-dasharray="5,2" d="M79,-213.037C79,-200.67 79,-185.12 79,-175.627"/>
<polygon fill="#9a32cd" stroke="#9a32cd" points="75.5001,-213.234 79,-223.234 82.5001,-213.234 75.5001,-213.234"/>
<text text-anchor="middle" x="103.5" y="-197" font-family="FreeSans" font-size="10.00"> elements</text>
</g>
</g>
</svg>
