<?xml version="1.0" encoding="UTF-8" standalone="no"?>
<!DOCTYPE svg PUBLIC "-//W3C//DTD SVG 1.1//EN"
 "http://www.w3.org/Graphics/SVG/1.1/DTD/svg11.dtd">
<!-- Generated by graphviz version 2.38.0 (20140413.2041)
 -->
<!-- Title: DGtal::LambdaMST3DBy2D&lt; Iterator3D, LambdaFunctor, CONNECTIVITY &gt; Pages: 1 -->
<svg width="863pt" height="62pt"
 viewBox="0.00 0.00 863.00 62.00" xmlns="http://www.w3.org/2000/svg" xmlns:xlink="http://www.w3.org/1999/xlink">
<g id="graph0" class="graph" transform="scale(1 1) rotate(0) translate(4 58)">
<title>DGtal::LambdaMST3DBy2D&lt; Iterator3D, LambdaFunctor, CONNECTIVITY &gt;</title>
<polygon fill="white" stroke="none" points="-4,4 -4,-58 859,-58 859,4 -4,4"/>
<!-- Node0 -->
<g id="node1" class="node"><title>Node0</title>
<polygon fill="#bfbfbf" stroke="black" points="695,-0.5 695,-41.5 855,-41.5 855,-0.5 695,-0.5"/>
<text text-anchor="start" x="703" y="-29.5" font-family="FreeSans" font-size="10.00">DGtal::LambdaMST3DBy2D</text>
<text text-anchor="start" x="703" y="-18.5" font-family="FreeSans" font-size="10.00">&lt; Iterator3D, LambdaFunctor,</text>
<text text-anchor="middle" x="775" y="-7.5" font-family="FreeSans" font-size="10.00"> CONNECTIVITY &gt;</text>
</g>
<!-- Node1 -->
<g id="node2" class="node"><title>Node1</title>
<g id="a_node2"><a xlink:href="classDGtal_1_1LambdaMST3DBy2DEstimator.html" target="_top" xlink:title="DGtal::LambdaMST3DBy2DEstimator\l\&lt; Iterator3D, TangentFromDSS3DBy2DFunctor,\l LambdaFunctor, CONNECTIVITY \&gt;">
<polygon fill="white" stroke="black" points="416,-0.5 416,-41.5 658,-41.5 658,-0.5 416,-0.5"/>
<text text-anchor="start" x="424" y="-29.5" font-family="FreeSans" font-size="10.00">DGtal::LambdaMST3DBy2DEstimator</text>
<text text-anchor="start" x="424" y="-18.5" font-family="FreeSans" font-size="10.00">&lt; Iterator3D, TangentFromDSS3DBy2DFunctor,</text>
<text text-anchor="middle" x="537" y="-7.5" font-family="FreeSans" font-size="10.00"> LambdaFunctor, CONNECTIVITY &gt;</text>
</a>
</g>
</g>
<!-- Node1&#45;&gt;Node0 -->
<g id="edge1" class="edge"><title>Node1&#45;&gt;Node0</title>
<path fill="none" stroke="midnightblue" d="M668.33,-21C677.388,-21 686.347,-21 694.992,-21"/>
<polygon fill="midnightblue" stroke="midnightblue" points="668.074,-17.5001 658.074,-21 668.074,-24.5001 668.074,-17.5001"/>
</g>
<!-- Node2 -->
<g id="node3" class="node"><title>Node2</title>
<g id="a_node3"><a xlink:href="classDGtal_1_1LambdaMST3DBy2DEstimator.html" target="_top" xlink:title="DGtal::LambdaMST3DBy2DEstimator\l\&lt; Iterator3D, Functor, LambdaFunctor,\l CONNECTIVITY \&gt;">
<polygon fill="white" stroke="black" points="0,-0.5 0,-41.5 201,-41.5 201,-0.5 0,-0.5"/>
<text text-anchor="start" x="8" y="-29.5" font-family="FreeSans" font-size="10.00">DGtal::LambdaMST3DBy2DEstimator</text>
<text text-anchor="start" x="8" y="-18.5" font-family="FreeSans" font-size="10.00">&lt; Iterator3D, Functor, LambdaFunctor,</text>
<text text-anchor="middle" x="100.5" y="-7.5" font-family="FreeSans" font-size="10.00"> CONNECTIVITY &gt;</text>
</a>
</g>
</g>
<!-- Node2&#45;&gt;Node1 -->
<g id="edge2" class="edge"><title>Node2&#45;&gt;Node1</title>
<path fill="none" stroke="orange" stroke-dasharray="5,2" d="M211.447,-21C273.814,-21 351.934,-21 415.903,-21"/>
<polygon fill="orange" stroke="orange" points="211.183,-17.5001 201.183,-21 211.183,-24.5001 211.183,-17.5001"/>
<text text-anchor="start" x="219" y="-46" font-family="FreeSans" font-size="10.00"> &lt; Iterator3D, TangentFrom</text>
<text text-anchor="start" x="219" y="-35" font-family="FreeSans" font-size="10.00">DSS3DBy2DFunctor, LambdaFunctor,</text>
<text text-anchor="middle" x="308.5" y="-24" font-family="FreeSans" font-size="10.00"> CONNECTIVITY &gt;</text>
</g>
</g>
</svg>
