<?xml version="1.0" encoding="UTF-8" standalone="no"?>
<!DOCTYPE svg PUBLIC "-//W3C//DTD SVG 1.1//EN"
 "http://www.w3.org/Graphics/SVG/1.1/DTD/svg11.dtd">
<!-- Generated by graphviz version 2.38.0 (20140413.2041)
 -->
<!-- Title: boost::graph_traits&lt; DGtal::Object&lt; TDigitalTopology, TDigitalSet &gt; &gt;::out_edge_iterator Pages: 1 -->
<svg width="375pt" height="61pt"
 viewBox="0.00 0.00 375.00 61.00" xmlns="http://www.w3.org/2000/svg" xmlns:xlink="http://www.w3.org/1999/xlink">
<g id="graph0" class="graph" transform="scale(1 1) rotate(0) translate(4 57)">
<title>boost::graph_traits&lt; DGtal::Object&lt; TDigitalTopology, TDigitalSet &gt; &gt;::out_edge_iterator</title>
<polygon fill="white" stroke="none" points="-4,4 -4,-57 371,-57 371,4 -4,4"/>
<!-- Node0 -->
<g id="node1" class="node"><title>Node0</title>
<polygon fill="#bfbfbf" stroke="black" points="182,-6 182,-47 367,-47 367,-6 182,-6"/>
<text text-anchor="start" x="190" y="-35" font-family="FreeSans" font-size="10.00">boost::graph_traits</text>
<text text-anchor="start" x="190" y="-24" font-family="FreeSans" font-size="10.00">&lt; DGtal::Object&lt; TDigitalTopology,</text>
<text text-anchor="middle" x="274.5" y="-13" font-family="FreeSans" font-size="10.00"> TDigitalSet &gt; &gt;::out_edge_iterator</text>
</g>
<!-- Node1 -->
<g id="node2" class="node"><title>Node1</title>
<polygon fill="white" stroke="#bfbfbf" points="0,-0.5 0,-52.5 146,-52.5 146,-0.5 0,-0.5"/>
<text text-anchor="start" x="8" y="-40.5" font-family="FreeSans" font-size="10.00">boost::iterator_facade</text>
<text text-anchor="start" x="8" y="-29.5" font-family="FreeSans" font-size="10.00">&lt; out_edge_iterator, Edge,</text>
<text text-anchor="start" x="8" y="-18.5" font-family="FreeSans" font-size="10.00"> bidirectional_traversal</text>
<text text-anchor="middle" x="73" y="-7.5" font-family="FreeSans" font-size="10.00">_tag, const Edge &amp; &gt;</text>
</g>
<!-- Node1&#45;&gt;Node0 -->
<g id="edge1" class="edge"><title>Node1&#45;&gt;Node0</title>
<path fill="none" stroke="midnightblue" d="M156.209,-26.5C164.644,-26.5 173.251,-26.5 181.779,-26.5"/>
<polygon fill="midnightblue" stroke="midnightblue" points="156.024,-23.0001 146.024,-26.5 156.024,-30.0001 156.024,-23.0001"/>
</g>
</g>
</svg>
