<?xml version="1.0" encoding="UTF-8" standalone="no"?>
<!DOCTYPE svg PUBLIC "-//W3C//DTD SVG 1.1//EN"
 "http://www.w3.org/Graphics/SVG/1.1/DTD/svg11.dtd">
<!-- Generated by graphviz version 2.36.0 (20140111.2315)
 -->
<!-- Title: DGtal::FrechetShortcut&lt; TIterator, TInteger &gt; Pages: 1 -->
<svg width="1306pt" height="188pt"
 viewBox="0.00 0.00 1306.00 188.00" xmlns="http://www.w3.org/2000/svg" xmlns:xlink="http://www.w3.org/1999/xlink">
<g id="graph0" class="graph" transform="scale(1 1) rotate(0) translate(4 184)">
<title>DGtal::FrechetShortcut&lt; TIterator, TInteger &gt;</title>
<polygon fill="white" stroke="none" points="-4,4 -4,-184 1302,-184 1302,4 -4,4"/>
<!-- Node2 -->
<g id="node1" class="node"><title>Node2</title>
<polygon fill="#bfbfbf" stroke="black" points="1172,-28 1172,-58 1298,-58 1298,-28 1172,-28"/>
<text text-anchor="start" x="1180" y="-46" font-family="FreeSans" font-size="10.00">DGtal::FrechetShortcut</text>
<text text-anchor="middle" x="1235" y="-35" font-family="FreeSans" font-size="10.00">&lt; TIterator, TInteger &gt;</text>
</g>
<!-- Node3 -->
<g id="node2" class="node"><title>Node3</title>
<polygon fill="white" stroke="#bfbfbf" points="910.5,-60 910.5,-90 1071.5,-90 1071.5,-60 910.5,-60"/>
<text text-anchor="start" x="918.5" y="-78" font-family="FreeSans" font-size="10.00">std::vector&lt; DGtal</text>
<text text-anchor="middle" x="991" y="-67" font-family="FreeSans" font-size="10.00">::FrechetShortcut::Backpath &gt;</text>
</g>
<!-- Node3&#45;&gt;Node2 -->
<g id="edge1" class="edge"><title>Node3&#45;&gt;Node2</title>
<path fill="none" stroke="#9a32cd" stroke-dasharray="5,2" d="M1081.61,-63.1508C1111.54,-59.1924 1144.23,-54.87 1171.63,-51.247"/>
<polygon fill="#9a32cd" stroke="#9a32cd" points="1081.03,-59.6969 1071.58,-64.4777 1081.95,-66.6365 1081.03,-59.6969"/>
<text text-anchor="middle" x="1122" y="-65" font-family="FreeSans" font-size="10.00"> myBackpath</text>
</g>
<!-- Node4 -->
<g id="node3" class="node"><title>Node4</title>
<g id="a_node3"><a xlink:href="classDGtal_1_1FrechetShortcut_1_1Backpath.html" target="_top" xlink:title="DGtal::FrechetShortcut\l\&lt; TIterator, TInteger\l \&gt;::Backpath">
<polygon fill="white" stroke="black" points="698,-87.5 698,-128.5 824,-128.5 824,-87.5 698,-87.5"/>
<text text-anchor="start" x="706" y="-116.5" font-family="FreeSans" font-size="10.00">DGtal::FrechetShortcut</text>
<text text-anchor="start" x="706" y="-105.5" font-family="FreeSans" font-size="10.00">&lt; TIterator, TInteger</text>
<text text-anchor="middle" x="761" y="-94.5" font-family="FreeSans" font-size="10.00"> &gt;::Backpath</text>
</a>
</g>
</g>
<!-- Node4&#45;&gt;Node3 -->
<g id="edge2" class="edge"><title>Node4&#45;&gt;Node3</title>
<path fill="none" stroke="#9a32cd" stroke-dasharray="5,2" d="M834.2,-97.55C858.453,-94.0397 885.636,-90.1053 910.423,-86.5177"/>
<polygon fill="#9a32cd" stroke="#9a32cd" points="833.396,-94.1298 824.001,-99.0262 834.399,-101.058 833.396,-94.1298"/>
<text text-anchor="middle" x="867" y="-100" font-family="FreeSans" font-size="10.00"> elements</text>
</g>
<!-- Node5 -->
<g id="node4" class="node"><title>Node5</title>
<polygon fill="white" stroke="#bfbfbf" points="440.5,-138.5 440.5,-157.5 497.5,-157.5 497.5,-138.5 440.5,-138.5"/>
<text text-anchor="middle" x="469" y="-145.5" font-family="FreeSans" font-size="10.00">TIterator</text>
</g>
<!-- Node5&#45;&gt;Node4 -->
<g id="edge3" class="edge"><title>Node5&#45;&gt;Node4</title>
<path fill="none" stroke="#9a32cd" stroke-dasharray="5,2" d="M507.651,-143.914C549.736,-139.212 619.876,-130.977 680,-122 685.718,-121.146 691.656,-120.207 697.597,-119.231"/>
<polygon fill="#9a32cd" stroke="#9a32cd" points="507.131,-140.45 497.578,-145.031 507.903,-147.407 507.131,-140.45"/>
<text text-anchor="middle" x="618" y="-141" font-family="FreeSans" font-size="10.00"> myIt</text>
</g>
<!-- Node6 -->
<g id="node5" class="node"><title>Node6</title>
<polygon fill="white" stroke="#bfbfbf" points="400.5,-89 400.5,-119 537.5,-119 537.5,-89 400.5,-89"/>
<text text-anchor="start" x="408.5" y="-107" font-family="FreeSans" font-size="10.00">std::map&lt; ConstIterator,</text>
<text text-anchor="middle" x="469" y="-96" font-family="FreeSans" font-size="10.00"> occulter_attributes &gt;</text>
</g>
<!-- Node6&#45;&gt;Node4 -->
<g id="edge4" class="edge"><title>Node6&#45;&gt;Node4</title>
<path fill="none" stroke="#9a32cd" stroke-dasharray="5,2" d="M547.763,-105.073C594.748,-105.721 653.831,-106.536 697.72,-107.141"/>
<polygon fill="#9a32cd" stroke="#9a32cd" points="547.673,-101.571 537.626,-104.933 547.577,-108.57 547.673,-101.571"/>
<text text-anchor="middle" x="618" y="-110" font-family="FreeSans" font-size="10.00"> myOcculters</text>
</g>
<!-- Node7 -->
<g id="node6" class="node"><title>Node7</title>
<g id="a_node6"><a xlink:href="structDGtal_1_1FrechetShortcut_1_1Backpath_1_1occulter__attributes.html" target="_top" xlink:title="DGtal::FrechetShortcut\l\&lt; TIterator, TInteger\l \&gt;::Backpath::occulter\l_attributes">
<polygon fill="white" stroke="black" points="116,-128 116,-180 242,-180 242,-128 116,-128"/>
<text text-anchor="start" x="124" y="-168" font-family="FreeSans" font-size="10.00">DGtal::FrechetShortcut</text>
<text text-anchor="start" x="124" y="-157" font-family="FreeSans" font-size="10.00">&lt; TIterator, TInteger</text>
<text text-anchor="start" x="124" y="-146" font-family="FreeSans" font-size="10.00"> &gt;::Backpath::occulter</text>
<text text-anchor="middle" x="179" y="-135" font-family="FreeSans" font-size="10.00">_attributes</text>
</a>
</g>
</g>
<!-- Node7&#45;&gt;Node6 -->
<g id="edge5" class="edge"><title>Node7&#45;&gt;Node6</title>
<path fill="none" stroke="#9a32cd" stroke-dasharray="5,2" d="M252.436,-147.865C291.127,-143.878 339.425,-137.764 382,-129 394.793,-126.367 408.449,-122.77 421.026,-119.125"/>
<polygon fill="#9a32cd" stroke="#9a32cd" points="251.904,-144.401 242.304,-148.883 252.604,-151.366 251.904,-144.401"/>
<text text-anchor="middle" x="321" y="-150" font-family="FreeSans" font-size="10.00"> elements</text>
</g>
<!-- Node8 -->
<g id="node7" class="node"><title>Node8</title>
<g id="a_node7"><a xlink:title="STL class. ">
<polygon fill="white" stroke="#bfbfbf" points="129.5,-89.5 129.5,-108.5 228.5,-108.5 228.5,-89.5 129.5,-89.5"/>
<text text-anchor="middle" x="179" y="-96.5" font-family="FreeSans" font-size="10.00">std::map&lt; K, T &gt;</text>
</a>
</g>
</g>
<!-- Node8&#45;&gt;Node6 -->
<g id="edge6" class="edge"><title>Node8&#45;&gt;Node6</title>
<path fill="none" stroke="orange" stroke-dasharray="5,2" d="M238.529,-100.016C285.409,-100.83 351.229,-101.973 400.362,-102.826"/>
<polygon fill="orange" stroke="orange" points="238.589,-96.5167 228.53,-99.8425 238.467,-103.516 238.589,-96.5167"/>
<text text-anchor="start" x="260" y="-117" font-family="FreeSans" font-size="10.00"> &lt; ConstIterator, occulter</text>
<text text-anchor="middle" x="321" y="-106" font-family="FreeSans" font-size="10.00">_attributes &gt;</text>
</g>
<!-- Node9 -->
<g id="node8" class="node"><title>Node9</title>
<polygon fill="white" stroke="#bfbfbf" points="0.5,-117.5 0.5,-136.5 29.5,-136.5 29.5,-117.5 0.5,-117.5"/>
<text text-anchor="middle" x="15" y="-124.5" font-family="FreeSans" font-size="10.00">K</text>
</g>
<!-- Node9&#45;&gt;Node8 -->
<g id="edge7" class="edge"><title>Node9&#45;&gt;Node8</title>
<path fill="none" stroke="#9a32cd" stroke-dasharray="5,2" d="M39.6088,-122.919C63.0774,-118.863 99.7635,-112.522 129.468,-107.388"/>
<polygon fill="#9a32cd" stroke="#9a32cd" points="38.7912,-119.509 29.5334,-124.661 39.9834,-126.407 38.7912,-119.509"/>
<text text-anchor="middle" x="73" y="-124" font-family="FreeSans" font-size="10.00"> keys</text>
</g>
<!-- Node10 -->
<g id="node9" class="node"><title>Node10</title>
<polygon fill="white" stroke="#bfbfbf" points="0.5,-64.5 0.5,-83.5 29.5,-83.5 29.5,-64.5 0.5,-64.5"/>
<text text-anchor="middle" x="15" y="-71.5" font-family="FreeSans" font-size="10.00">T</text>
</g>
<!-- Node10&#45;&gt;Node8 -->
<g id="edge8" class="edge"><title>Node10&#45;&gt;Node8</title>
<path fill="none" stroke="#9a32cd" stroke-dasharray="5,2" d="M39.6088,-77.6433C63.0774,-81.265 99.7635,-86.9265 129.468,-91.5106"/>
<polygon fill="#9a32cd" stroke="#9a32cd" points="39.9502,-74.1547 29.5334,-76.0885 38.8826,-81.0728 39.9502,-74.1547"/>
<text text-anchor="middle" x="73" y="-90" font-family="FreeSans" font-size="10.00"> elements</text>
</g>
<!-- Node11 -->
<g id="node10" class="node"><title>Node11</title>
<g id="a_node10"><a xlink:title="STL class. ">
<polygon fill="white" stroke="#bfbfbf" points="273.5,-49.5 273.5,-68.5 368.5,-68.5 368.5,-49.5 273.5,-49.5"/>
<text text-anchor="middle" x="321" y="-56.5" font-family="FreeSans" font-size="10.00">std::vector&lt; T &gt;</text>
</a>
</g>
</g>
<!-- Node10&#45;&gt;Node11 -->
<g id="edge10" class="edge"><title>Node10&#45;&gt;Node11</title>
<path fill="none" stroke="#9a32cd" stroke-dasharray="5,2" d="M39.4566,-66.6789C42.312,-66.0031 45.2067,-65.4168 48,-65 126.484,-53.2899 219.098,-54.3653 273.497,-56.4884"/>
<polygon fill="#9a32cd" stroke="#9a32cd" points="38.2694,-63.3746 29.5384,-69.3761 40.1064,-70.1292 38.2694,-63.3746"/>
<text text-anchor="middle" x="73" y="-68" font-family="FreeSans" font-size="10.00"> elements</text>
</g>
<!-- Node11&#45;&gt;Node3 -->
<g id="edge9" class="edge"><title>Node11&#45;&gt;Node3</title>
<path fill="none" stroke="orange" stroke-dasharray="5,2" d="M378.705,-60.3582C497.707,-63.2085 773.763,-69.8207 910.422,-73.0939"/>
<polygon fill="orange" stroke="orange" points="378.788,-56.8593 368.707,-60.1187 378.62,-63.8573 378.788,-56.8593"/>
<text text-anchor="start" x="556" y="-82" font-family="FreeSans" font-size="10.00"> &lt; DGtal::FrechetShortcut</text>
<text text-anchor="middle" x="618" y="-71" font-family="FreeSans" font-size="10.00">::Backpath &gt;</text>
</g>
<!-- Node12 -->
<g id="node11" class="node"><title>Node12</title>
<g id="a_node11"><a xlink:href="classDGtal_1_1FrechetShortcut_1_1Cone.html" target="_top" xlink:title="DGtal::FrechetShortcut\l\&lt; TIterator, TInteger\l \&gt;::Cone">
<polygon fill="white" stroke="black" points="928,-0.5 928,-41.5 1054,-41.5 1054,-0.5 928,-0.5"/>
<text text-anchor="start" x="936" y="-29.5" font-family="FreeSans" font-size="10.00">DGtal::FrechetShortcut</text>
<text text-anchor="start" x="936" y="-18.5" font-family="FreeSans" font-size="10.00">&lt; TIterator, TInteger</text>
<text text-anchor="middle" x="991" y="-7.5" font-family="FreeSans" font-size="10.00"> &gt;::Cone</text>
</a>
</g>
</g>
<!-- Node12&#45;&gt;Node2 -->
<g id="edge11" class="edge"><title>Node12&#45;&gt;Node2</title>
<path fill="none" stroke="#9a32cd" stroke-dasharray="5,2" d="M1064.15,-24.8318C1092.23,-26.6024 1124.65,-28.9897 1154,-32 1159.72,-32.5865 1165.66,-33.2674 1171.6,-33.9972"/>
<polygon fill="#9a32cd" stroke="#9a32cd" points="1064.21,-21.329 1054.01,-24.2073 1063.78,-28.3157 1064.21,-21.329"/>
<text text-anchor="middle" x="1122" y="-35" font-family="FreeSans" font-size="10.00"> myCone</text>
</g>
</g>
</svg>
