<?xml version="1.0" encoding="UTF-8" standalone="no"?>
<!DOCTYPE svg PUBLIC "-//W3C//DTD SVG 1.1//EN"
 "http://www.w3.org/Graphics/SVG/1.1/DTD/svg11.dtd">
<!-- Generated by graphviz version 2.36.0 (20140111.2315)
 -->
<!-- Title: DGtal::AlphaThickSegmentComputer&lt; TInputPoint, TConstIterator &gt; Pages: 1 -->
<!--zoomable 347 -->
<svg id="main" version="1.1" xmlns="http://www.w3.org/2000/svg" xmlns:xlink="http://www.w3.org/1999/xlink" xml:space="preserve" onload="init(evt)">
<style type="text/css"><![CDATA[
.edge:hover path { stroke: red; }
.edge:hover polygon { stroke: red; fill: red; }
]]></style>
<script type="text/javascript"><![CDATA[
var edges = document.getElementsByTagName('g');
if (edges && edges.length) {
  for (var i=0;i<edges.length;i++) {
    if (edges[i].id.substr(0,4)=='edge') {
      edges[i].setAttribute('class','edge');
    }
  }
}
]]></script>
        <defs>
                <circle id="rim" cx="0" cy="0" r="7"/>
                <circle id="rim2" cx="0" cy="0" r="3.5"/>
                <g id="zoomPlus">
                        <use xlink:href="#rim" fill="#404040">
                                <set attributeName="fill" to="#808080" begin="zoomplus.mouseover" end="zoomplus.mouseout"/>
                        </use>
                        <path d="M-4,0h8M0,-4v8" fill="none" stroke="white" stroke-width="1.5" pointer-events="none"/>
                </g>
                <g id="zoomMin">
                        <use xlink:href="#rim" fill="#404040">
                                <set attributeName="fill" to="#808080" begin="zoomminus.mouseover" end="zoomminus.mouseout"/>
                        </use>
                        <path d="M-4,0h8" fill="none" stroke="white" stroke-width="1.5" pointer-events="none"/>
                </g>
                <g id="dirArrow">
                        <path fill="none" stroke="white" stroke-width="1.5" d="M0,-3.0v7 M-2.5,-0.5L0,-3.0L2.5,-0.5"/>
                </g>
               <g id="resetDef">
                       <use xlink:href="#rim2" fill="#404040">
                               <set attributeName="fill" to="#808080" begin="reset.mouseover" end="reset.mouseout"/>
                       </use>
               </g>
        </defs>

<script type="text/javascript">
var viewWidth = 2938;
var viewHeight = 347;
var sectionId = 'dynsection-0';
</script>
<script xlink:href="svgpan.js"/>
<svg id="graph" class="graph">
<g id="viewport">
<title>DGtal::AlphaThickSegmentComputer&lt; TInputPoint, TConstIterator &gt;</title>
<polygon fill="white" stroke="none" points="-4,4 -4,-342.521 2934,-342.521 2934,4 -4,4"/>
<!-- Node1 -->
<g id="node1" class="node"><title>Node1</title>
<polygon fill="#bfbfbf" stroke="black" points="2784.5,-278.021 2784.5,-319.021 2929.5,-319.021 2929.5,-278.021 2784.5,-278.021"/>
<text text-anchor="start" x="2792.5" y="-307.021" font-family="FreeSans" font-size="10.00">DGtal::AlphaThickSegment</text>
<text text-anchor="start" x="2792.5" y="-296.021" font-family="FreeSans" font-size="10.00">Computer&lt; TInputPoint,</text>
<text text-anchor="middle" x="2857" y="-285.021" font-family="FreeSans" font-size="10.00"> TConstIterator &gt;</text>
</g>
<!-- Node2 -->
<g id="node2" class="node"><title>Node2</title>
<polygon fill="white" stroke="#bfbfbf" points="506,-318.021 506,-337.021 644,-337.021 644,-318.021 506,-318.021"/>
<text text-anchor="middle" x="575" y="-325.021" font-family="FreeSans" font-size="10.00">std::vector&lt; InputPoint &gt;</text>
</g>
<!-- Node2&#45;&gt;Node1 -->
<g id="edge1" class="edge"><title>Node2&#45;&gt;Node1</title>
<path fill="none" stroke="#9a32cd" stroke-dasharray="5,2" d="M654.243,-327.521C712.385,-327.521 793.647,-327.521 865,-327.521 865,-327.521 865,-327.521 2590,-327.521 2656.08,-327.521 2730.86,-318.567 2784.26,-310.609"/>
<polygon fill="#9a32cd" stroke="#9a32cd" points="654.027,-324.021 644.027,-327.521 654.027,-331.021 654.027,-324.021"/>
<text text-anchor="middle" x="1647" y="-330.521" font-family="FreeSans" font-size="10.00"> myPointContainer</text>
</g>
<!-- Node3 -->
<g id="node3" class="node"><title>Node3</title>
<g id="a_node3"><a xlink:title="STL class. ">
<polygon fill="white" stroke="#bfbfbf" points="232.5,-316.021 232.5,-335.021 327.5,-335.021 327.5,-316.021 232.5,-316.021"/>
<text text-anchor="middle" x="280" y="-323.021" font-family="FreeSans" font-size="10.00">std::vector&lt; T &gt;</text>
</a>
</g>
</g>
<!-- Node3&#45;&gt;Node2 -->
<g id="edge2" class="edge"><title>Node3&#45;&gt;Node2</title>
<path fill="none" stroke="orange" stroke-dasharray="5,2" d="M337.975,-325.91C386.022,-326.238 454.904,-326.708 505.861,-327.056"/>
<polygon fill="orange" stroke="orange" points="337.774,-322.408 327.751,-325.84 337.727,-329.408 337.774,-322.408"/>
<text text-anchor="middle" x="421" y="-330.521" font-family="FreeSans" font-size="10.00"> &lt; InputPoint &gt;</text>
</g>
<!-- Node4 -->
<g id="node4" class="node"><title>Node4</title>
<polygon fill="white" stroke="#bfbfbf" points="0.5,-199.021 0.5,-218.021 29.5,-218.021 29.5,-199.021 0.5,-199.021"/>
<text text-anchor="middle" x="15" y="-206.021" font-family="FreeSans" font-size="10.00">T</text>
</g>
<!-- Node4&#45;&gt;Node3 -->
<g id="edge3" class="edge"><title>Node4&#45;&gt;Node3</title>
<path fill="none" stroke="#9a32cd" stroke-dasharray="5,2" d="M17.4922,-228.202C20.1462,-248.418 27.5193,-279.17 48,-295.521 100.305,-337.279 181.526,-337.584 232.415,-332.58"/>
<polygon fill="#9a32cd" stroke="#9a32cd" points="20.9689,-227.796 16.45,-218.213 14.0067,-228.523 20.9689,-227.796"/>
<text text-anchor="middle" x="73" y="-324.521" font-family="FreeSans" font-size="10.00"> elements</text>
</g>
<!-- Node8 -->
<g id="node8" class="node"><title>Node8</title>
<g id="a_node8"><a xlink:href="classDGtal_1_1functors_1_1Thresholder.html" target="_top" xlink:title="Aim: A small functor with an operator () that compares one value to a threshold value according to tw...">
<polygon fill="white" stroke="black" points="932.5,-32.5208 932.5,-62.5208 1083.5,-62.5208 1083.5,-32.5208 932.5,-32.5208"/>
<text text-anchor="start" x="940.5" y="-50.5208" font-family="FreeSans" font-size="10.00">DGtal::functors::Thresholder</text>
<text text-anchor="middle" x="1008" y="-39.5208" font-family="FreeSans" font-size="10.00">&lt; T, isLower, isEqual &gt;</text>
</a>
</g>
</g>
<!-- Node4&#45;&gt;Node8 -->
<g id="edge8" class="edge"><title>Node4&#45;&gt;Node8</title>
<path fill="none" stroke="#9a32cd" stroke-dasharray="5,2" d="M18.7263,-188.801C22.388,-168.539 30.5736,-137.003 48,-115.521 84.5425,-70.4743 101.995,-48.5208 160,-48.5208 160,-48.5208 160,-48.5208 732,-48.5208 799.796,-48.5208 876.992,-48.2131 932.301,-47.9391"/>
<polygon fill="#9a32cd" stroke="#9a32cd" points="15.2564,-188.335 17.1275,-198.763 22.168,-189.444 15.2564,-188.335"/>
<text text-anchor="middle" x="421" y="-51.5208" font-family="FreeSans" font-size="10.00"> myT</text>
</g>
<!-- Node12 -->
<g id="node12" class="node"><title>Node12</title>
<g id="a_node12"><a xlink:title="STL class. ">
<polygon fill="white" stroke="#bfbfbf" points="116,-199.021 116,-218.021 206,-218.021 206,-199.021 116,-199.021"/>
<text text-anchor="middle" x="161" y="-206.021" font-family="FreeSans" font-size="10.00">std::array&lt; T &gt;</text>
</a>
</g>
</g>
<!-- Node4&#45;&gt;Node12 -->
<g id="edge13" class="edge"><title>Node4&#45;&gt;Node12</title>
<path fill="none" stroke="#9a32cd" stroke-dasharray="5,2" d="M39.6415,-208.521C60.3039,-208.521 90.8474,-208.521 115.994,-208.521"/>
<polygon fill="#9a32cd" stroke="#9a32cd" points="39.5472,-205.021 29.5472,-208.521 39.5471,-212.021 39.5472,-205.021"/>
<text text-anchor="middle" x="73" y="-211.521" font-family="FreeSans" font-size="10.00"> elements</text>
</g>
<!-- Node15 -->
<g id="node15" class="node"><title>Node15</title>
<polygon fill="white" stroke="#bfbfbf" points="953,-117.021 953,-136.021 1063,-136.021 1063,-117.021 953,-117.021"/>
<text text-anchor="middle" x="1008" y="-124.021" font-family="FreeSans" font-size="10.00">Functor&lt; T, Point &gt;</text>
</g>
<!-- Node4&#45;&gt;Node15 -->
<g id="edge20" class="edge"><title>Node4&#45;&gt;Node15</title>
<path fill="none" stroke="#9a32cd" stroke-dasharray="5,2" d="M27.7428,-190.302C49.6368,-158.808 99.9557,-97.5208 160,-97.5208 160,-97.5208 160,-97.5208 732,-97.5208 809.053,-97.5208 897.583,-108.92 952.912,-117.425"/>
<polygon fill="#9a32cd" stroke="#9a32cd" points="24.7902,-188.421 22.108,-198.67 30.5966,-192.33 24.7902,-188.421"/>
<text text-anchor="middle" x="421" y="-100.521" font-family="FreeSans" font-size="10.00"> radius</text>
</g>
<!-- Node19 -->
<g id="node19" class="node"><title>Node19</title>
<g id="a_node19"><a xlink:title="STL class. ">
<polygon fill="white" stroke="#bfbfbf" points="818.5,-262.021 818.5,-281.021 913.5,-281.021 913.5,-262.021 818.5,-262.021"/>
<text text-anchor="middle" x="866" y="-269.021" font-family="FreeSans" font-size="10.00">std::deque&lt; T &gt;</text>
</a>
</g>
</g>
<!-- Node4&#45;&gt;Node19 -->
<g id="edge28" class="edge"><title>Node4&#45;&gt;Node19</title>
<path fill="none" stroke="#9a32cd" stroke-dasharray="5,2" d="M34.1111,-224.762C60.0408,-246.272 110.139,-281.521 160,-281.521 160,-281.521 160,-281.521 576,-281.521 661.597,-281.521 761.37,-277.085 818.467,-274.122"/>
<polygon fill="#9a32cd" stroke="#9a32cd" points="36.1542,-221.903 26.2794,-218.064 31.6048,-227.223 36.1542,-221.903"/>
<text text-anchor="middle" x="280" y="-284.521" font-family="FreeSans" font-size="10.00"> elements</text>
</g>
<!-- Node5 -->
<g id="node5" class="node"><title>Node5</title>
<g id="a_node5"><a xlink:href="structDGtal_1_1AlphaThickSegmentComputer_1_1State.html" target="_top" xlink:title="DGtal::AlphaThickSegment\lComputer\&lt; TInputPoint,\l TConstIterator \&gt;::State">
<polygon fill="white" stroke="black" points="2516.5,-228.021 2516.5,-269.021 2661.5,-269.021 2661.5,-228.021 2516.5,-228.021"/>
<text text-anchor="start" x="2524.5" y="-257.021" font-family="FreeSans" font-size="10.00">DGtal::AlphaThickSegment</text>
<text text-anchor="start" x="2524.5" y="-246.021" font-family="FreeSans" font-size="10.00">Computer&lt; TInputPoint,</text>
<text text-anchor="middle" x="2589" y="-235.021" font-family="FreeSans" font-size="10.00"> TConstIterator &gt;::State</text>
</a>
</g>
</g>
<!-- Node5&#45;&gt;Node1 -->
<g id="edge4" class="edge"><title>Node5&#45;&gt;Node1</title>
<path fill="none" stroke="#9a32cd" stroke-dasharray="5,2" d="M2671.61,-263.861C2707.58,-270.623 2749.48,-278.498 2784.24,-285.032"/>
<polygon fill="#9a32cd" stroke="#9a32cd" points="2672.11,-260.393 2661.63,-261.986 2670.81,-267.273 2672.11,-260.393"/>
<text text-anchor="middle" x="2723" y="-295.521" font-family="FreeSans" font-size="10.00"> myPreviousState</text>
<text text-anchor="middle" x="2723" y="-284.521" font-family="FreeSans" font-size="10.00">myState</text>
</g>
<!-- Node6 -->
<g id="node6" class="node"><title>Node6</title>
<g id="a_node6"><a xlink:href="classDGtal_1_1MelkmanConvexHull.html" target="_top" xlink:title="DGtal::MelkmanConvexHull\l\&lt; InputPoint, DGtal::InHalfPlane\lBySimple3x3Matrix \&gt;">
<polygon fill="white" stroke="black" points="2248,-152.021 2248,-193.021 2416,-193.021 2416,-152.021 2248,-152.021"/>
<text text-anchor="start" x="2256" y="-181.021" font-family="FreeSans" font-size="10.00">DGtal::MelkmanConvexHull</text>
<text text-anchor="start" x="2256" y="-170.021" font-family="FreeSans" font-size="10.00">&lt; InputPoint, DGtal::InHalfPlane</text>
<text text-anchor="middle" x="2332" y="-159.021" font-family="FreeSans" font-size="10.00">BySimple3x3Matrix &gt;</text>
</a>
</g>
</g>
<!-- Node6&#45;&gt;Node5 -->
<g id="edge5" class="edge"><title>Node6&#45;&gt;Node5</title>
<path fill="none" stroke="#9a32cd" stroke-dasharray="5,2" d="M2411.97,-196.057C2446.2,-206.258 2485.91,-218.093 2518.94,-227.938"/>
<polygon fill="#9a32cd" stroke="#9a32cd" points="2412.59,-192.59 2402.01,-193.088 2410.59,-199.298 2412.59,-192.59"/>
<text text-anchor="middle" x="2466" y="-223.521" font-family="FreeSans" font-size="10.00"> melkmanCH</text>
</g>
<!-- Node7 -->
<g id="node7" class="node"><title>Node7</title>
<g id="a_node7"><a xlink:href="classDGtal_1_1PredicateFromOrientationFunctor2.html" target="_top" xlink:title="DGtal::PredicateFromOrientation\lFunctor2\&lt; Functor, true, false \&gt;">
<polygon fill="white" stroke="black" points="1561,-2.52081 1561,-32.5208 1733,-32.5208 1733,-2.52081 1561,-2.52081"/>
<text text-anchor="start" x="1569" y="-20.5208" font-family="FreeSans" font-size="10.00">DGtal::PredicateFromOrientation</text>
<text text-anchor="middle" x="1647" y="-9.52081" font-family="FreeSans" font-size="10.00">Functor2&lt; Functor, true, false &gt;</text>
</a>
</g>
</g>
<!-- Node7&#45;&gt;Node6 -->
<g id="edge6" class="edge"><title>Node7&#45;&gt;Node6</title>
<path fill="none" stroke="#9a32cd" stroke-dasharray="5,2" d="M1743.56,-14.6036C1862.58,-14.4643 2069.76,-25.8777 2230,-96.5208 2260.52,-109.976 2290.41,-134.246 2309.65,-151.745"/>
<polygon fill="#9a32cd" stroke="#9a32cd" points="1743.37,-11.1042 1733.38,-14.6441 1743.39,-18.1042 1743.37,-11.1042"/>
<text text-anchor="middle" x="1964" y="-44.5208" font-family="FreeSans" font-size="10.00"> myForwardPredicate</text>
</g>
<!-- Node20 -->
<g id="node20" class="node"><title>Node20</title>
<g id="a_node20"><a xlink:href="classDGtal_1_1MelkmanConvexHull.html" target="_top" xlink:title="Aim: This class implements the on&#45;line algorithm of Melkman for the computation of the convex hull of...">
<polygon fill="white" stroke="black" points="1880,-86.5208 1880,-116.521 2048,-116.521 2048,-86.5208 1880,-86.5208"/>
<text text-anchor="start" x="1888" y="-104.521" font-family="FreeSans" font-size="10.00">DGtal::MelkmanConvexHull</text>
<text text-anchor="middle" x="1964" y="-93.5208" font-family="FreeSans" font-size="10.00">&lt; TPoint, TOrientationFunctor &gt;</text>
</a>
</g>
</g>
<!-- Node7&#45;&gt;Node20 -->
<g id="edge32" class="edge"><title>Node7&#45;&gt;Node20</title>
<path fill="none" stroke="#9a32cd" stroke-dasharray="5,2" d="M1743.14,-29.8616C1780.66,-36.0181 1823.83,-44.7251 1862,-56.5208 1887.13,-64.2853 1914.29,-76.627 1934.11,-86.4232"/>
<polygon fill="#9a32cd" stroke="#9a32cd" points="1743.65,-26.3992 1733.22,-28.2718 1742.54,-33.3109 1743.65,-26.3992"/>
<text text-anchor="middle" x="1807" y="-59.5208" font-family="FreeSans" font-size="10.00"> myForwardPredicate</text>
</g>
<!-- Node8&#45;&gt;Node7 -->
<g id="edge7" class="edge"><title>Node8&#45;&gt;Node7</title>
<path fill="none" stroke="#9a32cd" stroke-dasharray="5,2" d="M1082.07,-30.3456C1125.85,-20.9409 1182.79,-10.2594 1234,-5.52081 1346.76,4.91324 1477.55,-2.13814 1560.99,-9.04435"/>
<polygon fill="#9a32cd" stroke="#9a32cd" points="1081.11,-26.9715 1072.09,-32.5166 1082.6,-33.8116 1081.11,-26.9715"/>
<text text-anchor="middle" x="1320" y="-8.52081" font-family="FreeSans" font-size="10.00"> myThresholder</text>
</g>
<!-- Node14 -->
<g id="node14" class="node"><title>Node14</title>
<g id="a_node14"><a xlink:href="classDGtal_1_1PredicateFromOrientationFunctor2.html" target="_top" xlink:title="Aim: Small adapter to models of COrientationFunctor2. It is a model of concepts::CPointPredicate. It is also a ternary predicate on points, useful for basic geometric tasks such as convex hull computation. ">
<polygon fill="white" stroke="black" points="1234,-26.0208 1234,-67.0208 1406,-67.0208 1406,-26.0208 1234,-26.0208"/>
<text text-anchor="start" x="1242" y="-55.0208" font-family="FreeSans" font-size="10.00">DGtal::PredicateFromOrientation</text>
<text text-anchor="start" x="1242" y="-44.0208" font-family="FreeSans" font-size="10.00">Functor2&lt; TOrientationFunctor,</text>
<text text-anchor="middle" x="1320" y="-33.0208" font-family="FreeSans" font-size="10.00"> acceptNeg, acceptZero &gt;</text>
</a>
</g>
</g>
<!-- Node8&#45;&gt;Node14 -->
<g id="edge17" class="edge"><title>Node8&#45;&gt;Node14</title>
<path fill="none" stroke="#9a32cd" stroke-dasharray="5,2" d="M1093.92,-47.2469C1137.41,-47.1066 1190.23,-46.9362 1233.77,-46.7957"/>
<polygon fill="#9a32cd" stroke="#9a32cd" points="1093.64,-43.7477 1083.65,-47.28 1093.66,-50.7476 1093.64,-43.7477"/>
<text text-anchor="middle" x="1159" y="-50.5208" font-family="FreeSans" font-size="10.00"> myThresholder</text>
</g>
<!-- Node17 -->
<g id="node17" class="node"><title>Node17</title>
<g id="a_node17"><a xlink:href="classDGtal_1_1PredicateFromOrientationFunctor2.html" target="_top" xlink:title="DGtal::PredicateFromOrientation\lFunctor2\&lt; Functor, false, false \&gt;">
<polygon fill="white" stroke="black" points="1560.5,-128.521 1560.5,-158.521 1733.5,-158.521 1733.5,-128.521 1560.5,-128.521"/>
<text text-anchor="start" x="1568.5" y="-146.521" font-family="FreeSans" font-size="10.00">DGtal::PredicateFromOrientation</text>
<text text-anchor="middle" x="1647" y="-135.521" font-family="FreeSans" font-size="10.00">Functor2&lt; Functor, false, false &gt;</text>
</a>
</g>
</g>
<!-- Node8&#45;&gt;Node17 -->
<g id="edge22" class="edge"><title>Node8&#45;&gt;Node17</title>
<path fill="none" stroke="#9a32cd" stroke-dasharray="5,2" d="M1093.74,-61.3186C1096.53,-61.7305 1099.29,-62.1324 1102,-62.5208 1297.09,-90.438 1348.27,-81.3336 1542,-117.521 1558.1,-120.528 1575.42,-124.54 1591.22,-128.511"/>
<polygon fill="#9a32cd" stroke="#9a32cd" points="1093.99,-57.8165 1083.58,-59.7894 1092.95,-64.7386 1093.99,-57.8165"/>
<text text-anchor="middle" x="1320" y="-98.5208" font-family="FreeSans" font-size="10.00"> myThresholder</text>
</g>
<!-- Node9 -->
<g id="node9" class="node"><title>Node9</title>
<g id="a_node9"><a xlink:href="classDGtal_1_1InHalfPlaneBySimple3x3Matrix.html" target="_top" xlink:title="Aim: Class that implements an orientation functor, ie. it provides a way to compute the orientation o...">
<polygon fill="white" stroke="black" points="1237.5,-155.521 1237.5,-185.521 1402.5,-185.521 1402.5,-155.521 1237.5,-155.521"/>
<text text-anchor="start" x="1245.5" y="-173.521" font-family="FreeSans" font-size="10.00">DGtal::InHalfPlaneBySimple3x3</text>
<text text-anchor="middle" x="1320" y="-162.521" font-family="FreeSans" font-size="10.00">Matrix&lt; TPoint, TInteger &gt;</text>
</a>
</g>
</g>
<!-- Node9&#45;&gt;Node6 -->
<g id="edge29" class="edge"><title>Node9&#45;&gt;Node6</title>
<path fill="none" stroke="#9a32cd" stroke-dasharray="5,2" d="M1412.83,-177.064C1416.6,-177.237 1420.34,-177.391 1424,-177.521 1709.16,-187.644 1780.67,-179.076 2066,-179.521 2138.89,-179.634 2157.15,-182.042 2230,-179.521 2235.8,-179.32 2241.78,-179.055 2247.8,-178.745"/>
<polygon fill="#9a32cd" stroke="#9a32cd" points="1412.94,-173.565 1402.78,-176.563 1412.59,-180.556 1412.94,-173.565"/>
<text text-anchor="middle" x="1807" y="-185.521" font-family="FreeSans" font-size="10.00"> myDefaultFunctor</text>
</g>
<!-- Node9&#45;&gt;Node7 -->
<g id="edge9" class="edge"><title>Node9&#45;&gt;Node7</title>
<path fill="none" stroke="#9a32cd" stroke-dasharray="5,2" d="M1377.36,-152.233C1440.8,-131.447 1535.89,-99.6019 1542,-93.5208 1559.03,-76.5584 1542.53,-59.0316 1560,-42.5208 1564.07,-38.6759 1568.69,-35.4181 1573.64,-32.6581"/>
<polygon fill="#9a32cd" stroke="#9a32cd" points="1375.89,-149.033 1367.47,-155.468 1378.06,-155.686 1375.89,-149.033"/>
<text text-anchor="middle" x="1483" y="-138.521" font-family="FreeSans" font-size="10.00"> myFunctorPtr</text>
</g>
<!-- Node9&#45;&gt;Node17 -->
<g id="edge23" class="edge"><title>Node9&#45;&gt;Node17</title>
<path fill="none" stroke="#9a32cd" stroke-dasharray="5,2" d="M1412.63,-162.908C1458.99,-159.057 1514.92,-154.411 1560.4,-150.632"/>
<polygon fill="#9a32cd" stroke="#9a32cd" points="1412.27,-159.426 1402.59,-163.742 1412.85,-166.402 1412.27,-159.426"/>
<text text-anchor="middle" x="1483" y="-165.521" font-family="FreeSans" font-size="10.00"> myFunctorPtr</text>
</g>
<!-- Node10 -->
<g id="node10" class="node"><title>Node10</title>
<g id="a_node10"><a xlink:href="classDGtal_1_1SimpleMatrix.html" target="_top" xlink:title="DGtal::SimpleMatrix\l\&lt; Integer, 3, 3 \&gt;">
<polygon fill="white" stroke="black" points="952,-155.521 952,-185.521 1064,-185.521 1064,-155.521 952,-155.521"/>
<text text-anchor="start" x="960" y="-173.521" font-family="FreeSans" font-size="10.00">DGtal::SimpleMatrix</text>
<text text-anchor="middle" x="1008" y="-162.521" font-family="FreeSans" font-size="10.00">&lt; Integer, 3, 3 &gt;</text>
</a>
</g>
</g>
<!-- Node10&#45;&gt;Node9 -->
<g id="edge10" class="edge"><title>Node10&#45;&gt;Node9</title>
<path fill="none" stroke="#9a32cd" stroke-dasharray="5,2" d="M1074.23,-170.521C1121.74,-170.521 1186.41,-170.521 1237.34,-170.521"/>
<polygon fill="#9a32cd" stroke="#9a32cd" points="1074.06,-167.021 1064.06,-170.521 1074.06,-174.021 1074.06,-167.021"/>
<text text-anchor="middle" x="1159" y="-173.521" font-family="FreeSans" font-size="10.00"> myMatrix</text>
</g>
<!-- Node11 -->
<g id="node11" class="node"><title>Node11</title>
<polygon fill="white" stroke="#bfbfbf" points="354.5,-193.521 354.5,-223.521 487.5,-223.521 487.5,-193.521 354.5,-193.521"/>
<text text-anchor="start" x="362.5" y="-211.521" font-family="FreeSans" font-size="10.00">std::array&lt; Component,</text>
<text text-anchor="middle" x="421" y="-200.521" font-family="FreeSans" font-size="10.00"> M *N &gt;</text>
</g>
<!-- Node11&#45;&gt;Node10 -->
<g id="edge11" class="edge"><title>Node11&#45;&gt;Node10</title>
<path fill="none" stroke="#9a32cd" stroke-dasharray="5,2" d="M497.662,-221.462C595.354,-235.561 769.928,-251.858 914,-217.521 939.693,-211.397 966.328,-196.971 984.475,-185.705"/>
<polygon fill="#9a32cd" stroke="#9a32cd" points="497.988,-217.972 487.584,-219.976 496.967,-224.897 497.988,-217.972"/>
<text text-anchor="middle" x="731" y="-252.521" font-family="FreeSans" font-size="10.00"> myCofactorCoefs</text>
<text text-anchor="middle" x="731" y="-241.521" font-family="FreeSans" font-size="10.00">myValues</text>
</g>
<!-- Node13 -->
<g id="node13" class="node"><title>Node13</title>
<g id="a_node13"><a xlink:href="classDGtal_1_1SimpleMatrix.html" target="_top" xlink:title="Aim: implements basic MxN Matrix services (M,N&gt;=1). ">
<polygon fill="white" stroke="black" points="662,-164.521 662,-194.521 800,-194.521 800,-164.521 662,-164.521"/>
<text text-anchor="start" x="670" y="-182.521" font-family="FreeSans" font-size="10.00">DGtal::SimpleMatrix</text>
<text text-anchor="middle" x="731" y="-171.521" font-family="FreeSans" font-size="10.00">&lt; TComponent, TM, TN &gt;</text>
</a>
</g>
</g>
<!-- Node11&#45;&gt;Node13 -->
<g id="edge15" class="edge"><title>Node11&#45;&gt;Node13</title>
<path fill="none" stroke="#9a32cd" stroke-dasharray="5,2" d="M497.707,-196.51C500.505,-196.16 503.276,-195.828 506,-195.521 558.108,-189.638 617.294,-185.52 661.736,-182.936"/>
<polygon fill="#9a32cd" stroke="#9a32cd" points="496.963,-193.078 487.505,-197.851 497.875,-200.018 496.963,-193.078"/>
<text text-anchor="middle" x="575" y="-209.521" font-family="FreeSans" font-size="10.00"> myCofactorCoefs</text>
<text text-anchor="middle" x="575" y="-198.521" font-family="FreeSans" font-size="10.00">myValues</text>
</g>
<!-- Node12&#45;&gt;Node11 -->
<g id="edge12" class="edge"><title>Node12&#45;&gt;Node11</title>
<path fill="none" stroke="orange" stroke-dasharray="5,2" d="M216.217,-208.521C256.475,-208.521 311.577,-208.521 354.333,-208.521"/>
<polygon fill="orange" stroke="orange" points="216.059,-205.021 206.059,-208.521 216.059,-212.021 216.059,-205.021"/>
<text text-anchor="middle" x="280" y="-211.521" font-family="FreeSans" font-size="10.00"> &lt; Component, M *N &gt;</text>
</g>
<!-- Node13&#45;&gt;Node10 -->
<g id="edge14" class="edge"><title>Node13&#45;&gt;Node10</title>
<path fill="none" stroke="orange" stroke-dasharray="5,2" d="M810.232,-172.916C812.852,-172.771 815.447,-172.638 818,-172.521 863.072,-170.451 914.251,-170.027 951.974,-170.079"/>
<polygon fill="orange" stroke="orange" points="809.809,-169.436 800.04,-173.537 810.235,-176.423 809.809,-169.436"/>
<text text-anchor="middle" x="866" y="-175.521" font-family="FreeSans" font-size="10.00"> &lt; Integer, 3, 3 &gt;</text>
</g>
<!-- Node14&#45;&gt;Node7 -->
<g id="edge16" class="edge"><title>Node14&#45;&gt;Node7</title>
<path fill="none" stroke="orange" stroke-dasharray="5,2" d="M1416.61,-37.9895C1462.33,-33.9095 1516.62,-29.0656 1560.9,-25.1145"/>
<polygon fill="orange" stroke="orange" points="1416.04,-34.5264 1406.39,-38.9014 1416.66,-41.4987 1416.04,-34.5264"/>
<text text-anchor="middle" x="1483" y="-40.5208" font-family="FreeSans" font-size="10.00"> &lt; Functor, true, false &gt;</text>
</g>
<!-- Node14&#45;&gt;Node17 -->
<g id="edge24" class="edge"><title>Node14&#45;&gt;Node17</title>
<path fill="none" stroke="orange" stroke-dasharray="5,2" d="M1416.48,-56.0497C1471.43,-62.2838 1531.62,-70.695 1542,-78.5208 1557.57,-90.2546 1545.28,-105.733 1560,-118.521 1564.46,-122.396 1569.49,-125.672 1574.82,-128.441"/>
<polygon fill="orange" stroke="orange" points="1416.63,-52.5438 1406.3,-54.9116 1415.85,-59.5005 1416.63,-52.5438"/>
<text text-anchor="middle" x="1483" y="-81.5208" font-family="FreeSans" font-size="10.00"> &lt; Functor, false, false &gt;</text>
</g>
<!-- Node15&#45;&gt;Node14 -->
<g id="edge18" class="edge"><title>Node15&#45;&gt;Node14</title>
<path fill="none" stroke="#9a32cd" stroke-dasharray="5,2" d="M1056.01,-114.39C1104.58,-101.855 1181.29,-82.06 1239.35,-67.076"/>
<polygon fill="#9a32cd" stroke="#9a32cd" points="1054.89,-111.063 1046.09,-116.95 1056.64,-117.841 1054.89,-111.063"/>
<text text-anchor="middle" x="1159" y="-104.521" font-family="FreeSans" font-size="10.00"> myFunctorPtr</text>
</g>
<!-- Node16 -->
<g id="node16" class="node"><title>Node16</title>
<polygon fill="white" stroke="#bfbfbf" points="700,-126.021 700,-145.021 762,-145.021 762,-126.021 700,-126.021"/>
<text text-anchor="middle" x="731" y="-133.021" font-family="FreeSans" font-size="10.00">MyPointD</text>
</g>
<!-- Node16&#45;&gt;Node15 -->
<g id="edge19" class="edge"><title>Node16&#45;&gt;Node15</title>
<path fill="none" stroke="#9a32cd" stroke-dasharray="5,2" d="M772.482,-134.196C820.244,-132.633 899.847,-130.028 952.873,-128.292"/>
<polygon fill="#9a32cd" stroke="#9a32cd" points="772.097,-130.707 762.216,-134.532 772.326,-137.703 772.097,-130.707"/>
<text text-anchor="middle" x="866" y="-136.521" font-family="FreeSans" font-size="10.00"> center</text>
</g>
<!-- Node18 -->
<g id="node18" class="node"><title>Node18</title>
<polygon fill="white" stroke="#bfbfbf" points="1102,-240.021 1102,-259.021 1216,-259.021 1216,-240.021 1102,-240.021"/>
<text text-anchor="middle" x="1159" y="-247.021" font-family="FreeSans" font-size="10.00">std::deque&lt; Point &gt;</text>
</g>
<!-- Node16&#45;&gt;Node18 -->
<g id="edge26" class="edge"><title>Node16&#45;&gt;Node18</title>
<path fill="none" stroke="#9a32cd" stroke-dasharray="5,2" d="M772.262,-141.52C782.003,-144.331 791.924,-148.459 800,-154.521 812.132,-163.627 805.51,-174.911 818,-183.521 863.299,-214.746 1017.58,-235.055 1101.88,-244.099"/>
<polygon fill="#9a32cd" stroke="#9a32cd" points="772.809,-138.049 762.26,-139.041 771.125,-144.844 772.809,-138.049"/>
<text text-anchor="middle" x="866" y="-219.521" font-family="FreeSans" font-size="10.00"> elements</text>
</g>
<!-- Node17&#45;&gt;Node6 -->
<g id="edge21" class="edge"><title>Node17&#45;&gt;Node6</title>
<path fill="none" stroke="#9a32cd" stroke-dasharray="5,2" d="M1744.1,-147.601C1878.62,-153.313 2120.82,-163.597 2247.94,-168.994"/>
<polygon fill="#9a32cd" stroke="#9a32cd" points="1743.95,-144.092 1733.81,-147.164 1743.65,-151.085 1743.95,-144.092"/>
<text text-anchor="middle" x="1964" y="-163.521" font-family="FreeSans" font-size="10.00"> myBackwardPredicate</text>
</g>
<!-- Node17&#45;&gt;Node20 -->
<g id="edge33" class="edge"><title>Node17&#45;&gt;Node20</title>
<path fill="none" stroke="#9a32cd" stroke-dasharray="5,2" d="M1743.66,-130.766C1787.1,-124.975 1837.99,-118.189 1879.81,-112.613"/>
<polygon fill="#9a32cd" stroke="#9a32cd" points="1743.11,-127.309 1733.66,-132.1 1744.03,-134.247 1743.11,-127.309"/>
<text text-anchor="middle" x="1807" y="-132.521" font-family="FreeSans" font-size="10.00"> myBackwardPredicate</text>
</g>
<!-- Node18&#45;&gt;Node6 -->
<g id="edge25" class="edge"><title>Node18&#45;&gt;Node6</title>
<path fill="none" stroke="#9a32cd" stroke-dasharray="5,2" d="M1212,-260.984C1219.36,-262.336 1226.85,-263.57 1234,-264.521 1343.49,-279.081 1371.55,-280.521 1482,-280.521 1482,-280.521 1482,-280.521 1965,-280.521 2087.23,-280.521 2223.38,-224.424 2289.9,-193.089"/>
<polygon fill="#9a32cd" stroke="#9a32cd" points="1212.58,-257.53 1202.1,-259.082 1211.26,-264.404 1212.58,-257.53"/>
<text text-anchor="middle" x="1647" y="-283.521" font-family="FreeSans" font-size="10.00"> myContainer</text>
</g>
<!-- Node18&#45;&gt;Node20 -->
<g id="edge34" class="edge"><title>Node18&#45;&gt;Node20</title>
<path fill="none" stroke="#9a32cd" stroke-dasharray="5,2" d="M1226.15,-250.213C1391.45,-251.347 1812.88,-250.353 1862,-211.521 1884.17,-193.99 1862.62,-172.813 1880,-150.521 1891.52,-135.741 1908.85,-124.514 1924.7,-116.561"/>
<polygon fill="#9a32cd" stroke="#9a32cd" points="1226.13,-246.713 1216.11,-250.139 1226.08,-253.713 1226.13,-246.713"/>
<text text-anchor="middle" x="1483" y="-253.521" font-family="FreeSans" font-size="10.00"> myContainer</text>
</g>
<!-- Node19&#45;&gt;Node18 -->
<g id="edge27" class="edge"><title>Node19&#45;&gt;Node18</title>
<path fill="none" stroke="orange" stroke-dasharray="5,2" d="M924.034,-267.209C975.487,-263.319 1050.73,-257.631 1101.89,-253.762"/>
<polygon fill="orange" stroke="orange" points="923.462,-263.742 913.754,-267.986 923.99,-270.722 923.462,-263.742"/>
<text text-anchor="middle" x="1008" y="-269.521" font-family="FreeSans" font-size="10.00"> &lt; Point &gt;</text>
</g>
<!-- Node20&#45;&gt;Node6 -->
<g id="edge30" class="edge"><title>Node20&#45;&gt;Node6</title>
<path fill="none" stroke="orange" stroke-dasharray="5,2" d="M2058.32,-99.7195C2109.8,-100.913 2174.37,-106.037 2230,-121.521 2254.03,-128.21 2279.08,-140.814 2298.22,-151.818"/>
<polygon fill="orange" stroke="orange" points="2058.27,-96.218 2048.2,-99.5313 2058.14,-103.217 2058.27,-96.218"/>
<text text-anchor="start" x="2066.5" y="-135.521" font-family="FreeSans" font-size="10.00"> &lt; InputPoint, DGtal</text>
<text text-anchor="middle" x="2148" y="-124.521" font-family="FreeSans" font-size="10.00">::InHalfPlaneBySimple3x3Matrix &gt;</text>
</g>
<!-- Node21 -->
<g id="node21" class="node"><title>Node21</title>
<polygon fill="white" stroke="#bfbfbf" points="1592,-90.0208 1592,-109.021 1702,-109.021 1702,-90.0208 1592,-90.0208"/>
<text text-anchor="middle" x="1647" y="-97.0208" font-family="FreeSans" font-size="10.00">TOrientationFunctor</text>
</g>
<!-- Node21&#45;&gt;Node20 -->
<g id="edge31" class="edge"><title>Node21&#45;&gt;Node20</title>
<path fill="none" stroke="#9a32cd" stroke-dasharray="5,2" d="M1712.3,-98.5663C1754.79,-98.0966 1811.72,-97.7743 1862,-98.5208 1867.79,-98.6068 1873.76,-98.7204 1879.78,-98.8532"/>
<polygon fill="#9a32cd" stroke="#9a32cd" points="1712.05,-95.0688 1702.09,-98.6849 1712.13,-102.068 1712.05,-95.0688"/>
<text text-anchor="middle" x="1807" y="-101.521" font-family="FreeSans" font-size="10.00"> myDefaultFunctor</text>
</g>
<!-- Node22 -->
<g id="node22" class="node"><title>Node22</title>
<polygon fill="white" stroke="#bfbfbf" points="1624,-52.0208 1624,-71.0208 1670,-71.0208 1670,-52.0208 1624,-52.0208"/>
<text text-anchor="middle" x="1647" y="-59.0208" font-family="FreeSans" font-size="10.00">TPoint</text>
</g>
<!-- Node22&#45;&gt;Node20 -->
<g id="edge35" class="edge"><title>Node22&#45;&gt;Node20</title>
<path fill="none" stroke="#9a32cd" stroke-dasharray="5,2" d="M1680.43,-64.103C1722.43,-67.6197 1797.86,-74.5215 1862,-83.5208 1868.44,-84.4242 1875.09,-85.4358 1881.77,-86.5065"/>
<polygon fill="#9a32cd" stroke="#9a32cd" points="1680.5,-60.5974 1670.25,-63.2624 1679.92,-67.5736 1680.5,-60.5974"/>
<text text-anchor="middle" x="1807" y="-86.5208" font-family="FreeSans" font-size="10.00"> myFirstPoint</text>
</g>
</g>
</svg>
        <g id="navigator" transform="translate(0 0)" fill="#404254">
                <rect fill="#f2f5e9" fill-opacity="0.5" stroke="#606060" stroke-width=".5" x="0" y="0" width="60" height="60"/>
                <use id="zoomplus" xlink:href="#zoomPlus" x="17" y="9" onmousedown="handleZoom(evt,'in')"/>
                <use id="zoomminus" xlink:href="#zoomMin" x="42" y="9" onmousedown="handleZoom(evt,'out')"/>
                <use id="reset" xlink:href="#resetDef" x="30" y="36" onmousedown="handleReset()"/>
                <g id="arrowUp" xlink:href="#dirArrow" transform="translate(30 24)" onmousedown="handlePan(0,-1)">
                  <use xlink:href="#rim" fill="#404040">
                        <set attributeName="fill" to="#808080" begin="arrowUp.mouseover" end="arrowUp.mouseout"/>
                  </use>
                  <path fill="none" stroke="white" stroke-width="1.5" d="M0,-3.0v7 M-2.5,-0.5L0,-3.0L2.5,-0.5"/>
                </g>
                <g id="arrowRight" xlink:href="#dirArrow" transform="rotate(90) translate(36 -43)" onmousedown="handlePan(1,0)">
                  <use xlink:href="#rim" fill="#404040">
                        <set attributeName="fill" to="#808080" begin="arrowRight.mouseover" end="arrowRight.mouseout"/>
                  </use>
                  <path fill="none" stroke="white" stroke-width="1.5" d="M0,-3.0v7 M-2.5,-0.5L0,-3.0L2.5,-0.5"/>
                </g>
                <g id="arrowDown" xlink:href="#dirArrow" transform="rotate(180) translate(-30 -48)" onmousedown="handlePan(0,1)">
                  <use xlink:href="#rim" fill="#404040">
                        <set attributeName="fill" to="#808080" begin="arrowDown.mouseover" end="arrowDown.mouseout"/>
                  </use>
                  <path fill="none" stroke="white" stroke-width="1.5" d="M0,-3.0v7 M-2.5,-0.5L0,-3.0L2.5,-0.5"/>
                </g>
                <g id="arrowLeft" xlink:href="#dirArrow" transform="rotate(270) translate(-36 17)" onmousedown="handlePan(-1,0)">
                  <use xlink:href="#rim" fill="#404040">
                        <set attributeName="fill" to="#808080" begin="arrowLeft.mouseover" end="arrowLeft.mouseout"/>
                  </use>
                  <path fill="none" stroke="white" stroke-width="1.5" d="M0,-3.0v7 M-2.5,-0.5L0,-3.0L2.5,-0.5"/>
                </g>
        </g>
        <svg viewBox="0 0 15 15" width="100%" height="30px" preserveAspectRatio="xMaxYMin meet">
         <g id="arrow_out" transform="scale(0.3 0.3)">
          <a xlink:href="classDGtal_1_1AlphaThickSegmentComputer__coll__graph_org.svg" target="_base">
           <rect id="button" ry="5" rx="5" y="6" x="6" height="38" width="38"
                fill="#f2f5e9" fill-opacity="0.5" stroke="#606060" stroke-width="1.0"/>
           <path id="arrow"
             d="M 11.500037,31.436501 C 11.940474,20.09759 22.043105,11.32322 32.158766,21.979434 L 37.068811,17.246167 C 37.068811,17.246167 37.088388,32 37.088388,32 L 22.160133,31.978069 C 22.160133,31.978069 26.997745,27.140456 26.997745,27.140456 C 18.528582,18.264221 13.291696,25.230495 11.500037,31.436501 z"
             style="fill:#404040;"/>
          </a>
         </g>
        </svg>
</svg>
