<?xml version="1.0" encoding="UTF-8" standalone="no"?>
<!DOCTYPE svg PUBLIC "-//W3C//DTD SVG 1.1//EN"
 "http://www.w3.org/Graphics/SVG/1.1/DTD/svg11.dtd">
<!-- Generated by graphviz version 2.38.0 (20140413.2041)
 -->
<!-- Title: DGtal::RandomColorMap Pages: 1 -->
<svg width="1310pt" height="241pt"
 viewBox="0.00 0.00 1310.00 240.50" xmlns="http://www.w3.org/2000/svg" xmlns:xlink="http://www.w3.org/1999/xlink">
<g id="graph0" class="graph" transform="scale(1 1) rotate(0) translate(4 236.5)">
<title>DGtal::RandomColorMap</title>
<polygon fill="white" stroke="none" points="-4,4 -4,-236.5 1306,-236.5 1306,4 -4,4"/>
<!-- Node1 -->
<g id="node1" class="node"><title>Node1</title>
<polygon fill="#bfbfbf" stroke="black" points="1168,-25 1168,-44 1302,-44 1302,-25 1168,-25"/>
<text text-anchor="middle" x="1235" y="-32" font-family="FreeSans" font-size="10.00">DGtal::RandomColorMap</text>
</g>
<!-- Node2 -->
<g id="node2" class="node"><title>Node2</title>
<g id="a_node2"><a xlink:href="classDGtal_1_1GradientColorMap.html" target="_top" xlink:title="DGtal::GradientColorMap\l\&lt; unsigned int \&gt;">
<polygon fill="white" stroke="black" points="916,-46.5 916,-76.5 1052,-76.5 1052,-46.5 916,-46.5"/>
<text text-anchor="start" x="924" y="-64.5" font-family="FreeSans" font-size="10.00">DGtal::GradientColorMap</text>
<text text-anchor="middle" x="984" y="-53.5" font-family="FreeSans" font-size="10.00">&lt; unsigned int &gt;</text>
</a>
</g>
</g>
<!-- Node2&#45;&gt;Node1 -->
<g id="edge1" class="edge"><title>Node2&#45;&gt;Node1</title>
<path fill="none" stroke="#9a32cd" stroke-dasharray="5,2" d="M1062.34,-53.1133C1096.1,-49.4528 1135.29,-45.2038 1167.69,-41.6904"/>
<polygon fill="#9a32cd" stroke="#9a32cd" points="1061.62,-49.6713 1052.05,-54.229 1062.37,-56.6305 1061.62,-49.6713"/>
<text text-anchor="middle" x="1110" y="-55.5" font-family="FreeSans" font-size="10.00"> myGradientMap</text>
</g>
<!-- Node3 -->
<g id="node3" class="node"><title>Node3</title>
<polygon fill="white" stroke="#bfbfbf" points="356,-57.5 356,-87.5 462,-87.5 462,-57.5 356,-57.5"/>
<text text-anchor="start" x="364" y="-75.5" font-family="FreeSans" font-size="10.00">std::vector&lt; DGtal</text>
<text text-anchor="middle" x="409" y="-64.5" font-family="FreeSans" font-size="10.00">::Color &gt;</text>
</g>
<!-- Node3&#45;&gt;Node2 -->
<g id="edge2" class="edge"><title>Node3&#45;&gt;Node2</title>
<path fill="none" stroke="#9a32cd" stroke-dasharray="5,2" d="M472.25,-71.305C580.752,-69.222 803.607,-64.9438 915.609,-62.7937"/>
<polygon fill="#9a32cd" stroke="#9a32cd" points="472.045,-67.8082 462.114,-71.4995 472.18,-74.8069 472.045,-67.8082"/>
<text text-anchor="middle" x="705.5" y="-71.5" font-family="FreeSans" font-size="10.00"> myColors</text>
</g>
<!-- Node7 -->
<g id="node7" class="node"><title>Node7</title>
<g id="a_node7"><a xlink:href="classDGtal_1_1GradientColorMap.html" target="_top" xlink:title="Aim: This class template may be used to (linearly) convert scalar values in a given range into a colo...">
<polygon fill="white" stroke="black" points="620,-91.5 620,-143.5 791,-143.5 791,-91.5 620,-91.5"/>
<text text-anchor="start" x="628" y="-131.5" font-family="FreeSans" font-size="10.00">DGtal::GradientColorMap</text>
<text text-anchor="start" x="628" y="-120.5" font-family="FreeSans" font-size="10.00">&lt; PValue, PDefaultPreset,</text>
<text text-anchor="start" x="628" y="-109.5" font-family="FreeSans" font-size="10.00"> PDefaultFirstColor, PDefaultLast</text>
<text text-anchor="middle" x="705.5" y="-98.5" font-family="FreeSans" font-size="10.00">Color &gt;</text>
</a>
</g>
</g>
<!-- Node3&#45;&gt;Node7 -->
<g id="edge9" class="edge"><title>Node3&#45;&gt;Node7</title>
<path fill="none" stroke="#9a32cd" stroke-dasharray="5,2" d="M472.335,-82.0248C515.236,-88.5802 572.746,-97.3678 619.794,-104.557"/>
<polygon fill="#9a32cd" stroke="#9a32cd" points="472.725,-78.544 462.311,-80.4932 471.668,-85.4637 472.725,-78.544"/>
<text text-anchor="middle" x="541" y="-105.5" font-family="FreeSans" font-size="10.00"> myColors</text>
</g>
<!-- Node4 -->
<g id="node4" class="node"><title>Node4</title>
<g id="a_node4"><a xlink:href="classDGtal_1_1Color.html" target="_top" xlink:title="Structure representing an RGB triple with alpha component. ">
<polygon fill="white" stroke="black" points="137.5,-74 137.5,-93 211.5,-93 211.5,-74 137.5,-74"/>
<text text-anchor="middle" x="174.5" y="-81" font-family="FreeSans" font-size="10.00">DGtal::Color</text>
</a>
</g>
</g>
<!-- Node4&#45;&gt;Node3 -->
<g id="edge3" class="edge"><title>Node4&#45;&gt;Node3</title>
<path fill="none" stroke="#9a32cd" stroke-dasharray="5,2" d="M222.022,-81.299C260.693,-79.4693 315.694,-76.8672 355.849,-74.9674"/>
<polygon fill="#9a32cd" stroke="#9a32cd" points="221.396,-77.8245 211.573,-81.7933 221.727,-84.8167 221.396,-77.8245"/>
<text text-anchor="middle" x="295.5" y="-83.5" font-family="FreeSans" font-size="10.00"> elements</text>
</g>
<!-- Node4&#45;&gt;Node4 -->
<g id="edge4" class="edge"><title>Node4&#45;&gt;Node4</title>
<path fill="none" stroke="#9a32cd" stroke-dasharray="5,2" d="M155.612,-102.9C156.873,-107.815 163.169,-111.5 174.5,-111.5 192.629,-111.5 197.869,-102.065 190.221,-93.2571"/>
<polygon fill="#9a32cd" stroke="#9a32cd" points="158.984,-103.85 158.779,-93.2571 152.333,-101.666 158.984,-103.85"/>
<text text-anchor="middle" x="174.5" y="-224.5" font-family="FreeSans" font-size="10.00"> Yellow</text>
<text text-anchor="middle" x="174.5" y="-213.5" font-family="FreeSans" font-size="10.00">Lime</text>
<text text-anchor="middle" x="174.5" y="-202.5" font-family="FreeSans" font-size="10.00">Navy</text>
<text text-anchor="middle" x="174.5" y="-191.5" font-family="FreeSans" font-size="10.00">Magenta</text>
<text text-anchor="middle" x="174.5" y="-180.5" font-family="FreeSans" font-size="10.00">White</text>
<text text-anchor="middle" x="174.5" y="-169.5" font-family="FreeSans" font-size="10.00">None</text>
<text text-anchor="middle" x="174.5" y="-158.5" font-family="FreeSans" font-size="10.00">Blue</text>
<text text-anchor="middle" x="174.5" y="-147.5" font-family="FreeSans" font-size="10.00">Aqua</text>
<text text-anchor="middle" x="174.5" y="-136.5" font-family="FreeSans" font-size="10.00">Purple</text>
<text text-anchor="middle" x="174.5" y="-125.5" font-family="FreeSans" font-size="10.00">Silver</text>
<text text-anchor="middle" x="174.5" y="-114.5" font-family="FreeSans" font-size="10.00">...</text>
</g>
<!-- Node5 -->
<g id="node5" class="node"><title>Node5</title>
<g id="a_node5"><a xlink:title="STL class. ">
<polygon fill="white" stroke="#bfbfbf" points="127,-21 127,-40 222,-40 222,-21 127,-21"/>
<text text-anchor="middle" x="174.5" y="-28" font-family="FreeSans" font-size="10.00">std::vector&lt; T &gt;</text>
</a>
</g>
</g>
<!-- Node5&#45;&gt;Node3 -->
<g id="edge5" class="edge"><title>Node5&#45;&gt;Node3</title>
<path fill="none" stroke="orange" stroke-dasharray="5,2" d="M232.557,-40.807C270.155,-47.599 319.021,-56.4264 355.629,-63.0395"/>
<polygon fill="orange" stroke="orange" points="232.733,-37.2823 222.27,-38.9488 231.489,-44.1708 232.733,-37.2823"/>
<text text-anchor="middle" x="295.5" y="-62.5" font-family="FreeSans" font-size="10.00"> &lt; DGtal::Color &gt;</text>
</g>
<!-- Node9 -->
<g id="node9" class="node"><title>Node9</title>
<polygon fill="white" stroke="#bfbfbf" points="480,-0.5 480,-30.5 602,-30.5 602,-0.5 480,-0.5"/>
<text text-anchor="start" x="488" y="-18.5" font-family="FreeSans" font-size="10.00">std::vector&lt; unsigned</text>
<text text-anchor="middle" x="541" y="-7.5" font-family="FreeSans" font-size="10.00"> int &gt;</text>
</g>
<!-- Node5&#45;&gt;Node9 -->
<g id="edge11" class="edge"><title>Node5&#45;&gt;Node9</title>
<path fill="none" stroke="orange" stroke-dasharray="5,2" d="M232.44,-28.1568C299.719,-25.3881 411.166,-20.8018 479.825,-17.9764"/>
<polygon fill="orange" stroke="orange" points="231.882,-24.6767 222.034,-28.585 232.17,-31.6708 231.882,-24.6767"/>
<text text-anchor="middle" x="295.5" y="-30.5" font-family="FreeSans" font-size="10.00"> &lt; unsigned int &gt;</text>
</g>
<!-- Node6 -->
<g id="node6" class="node"><title>Node6</title>
<polygon fill="white" stroke="#bfbfbf" points="0,-21 0,-40 29,-40 29,-21 0,-21"/>
<text text-anchor="middle" x="14.5" y="-28" font-family="FreeSans" font-size="10.00">T</text>
</g>
<!-- Node6&#45;&gt;Node5 -->
<g id="edge6" class="edge"><title>Node6&#45;&gt;Node5</title>
<path fill="none" stroke="#9a32cd" stroke-dasharray="5,2" d="M39.5066,-30.5C62.6224,-30.5 98.2047,-30.5 126.894,-30.5"/>
<polygon fill="#9a32cd" stroke="#9a32cd" points="39.2451,-27.0001 29.2451,-30.5 39.245,-34.0001 39.2451,-27.0001"/>
<text text-anchor="middle" x="71.5" y="-33.5" font-family="FreeSans" font-size="10.00"> elements</text>
</g>
<!-- Node7&#45;&gt;Node2 -->
<g id="edge7" class="edge"><title>Node7&#45;&gt;Node2</title>
<path fill="none" stroke="orange" stroke-dasharray="5,2" d="M801.316,-98.2967C838.998,-90.665 881.471,-82.0628 915.871,-75.0957"/>
<polygon fill="orange" stroke="orange" points="800.444,-94.9021 791.338,-100.318 801.834,-101.763 800.444,-94.9021"/>
<text text-anchor="middle" x="853.5" y="-99.5" font-family="FreeSans" font-size="10.00"> &lt; unsigned int &gt;</text>
</g>
<!-- Node8 -->
<g id="node8" class="node"><title>Node8</title>
<polygon fill="white" stroke="#bfbfbf" points="384.5,-119 384.5,-138 433.5,-138 433.5,-119 384.5,-119"/>
<text text-anchor="middle" x="409" y="-126" font-family="FreeSans" font-size="10.00">PValue</text>
</g>
<!-- Node8&#45;&gt;Node7 -->
<g id="edge8" class="edge"><title>Node8&#45;&gt;Node7</title>
<path fill="none" stroke="#9a32cd" stroke-dasharray="5,2" d="M443.714,-127.241C486.335,-125.649 561.215,-122.852 619.836,-120.662"/>
<polygon fill="#9a32cd" stroke="#9a32cd" points="443.465,-123.748 433.602,-127.618 443.726,-130.743 443.465,-123.748"/>
<text text-anchor="middle" x="541" y="-140.5" font-family="FreeSans" font-size="10.00"> myMin</text>
<text text-anchor="middle" x="541" y="-129.5" font-family="FreeSans" font-size="10.00">myMax</text>
</g>
<!-- Node9&#45;&gt;Node1 -->
<g id="edge10" class="edge"><title>Node9&#45;&gt;Node1</title>
<path fill="none" stroke="#9a32cd" stroke-dasharray="5,2" d="M612.361,-17.4319C746.516,-21.1153 1037.15,-29.0951 1167.91,-32.6853"/>
<polygon fill="#9a32cd" stroke="#9a32cd" points="612.292,-13.9288 602.2,-17.1529 612.1,-20.9261 612.292,-13.9288"/>
<text text-anchor="middle" x="853.5" y="-39.5" font-family="FreeSans" font-size="10.00"> myFreeColorIndex</text>
<text text-anchor="middle" x="853.5" y="-28.5" font-family="FreeSans" font-size="10.00">myColorIndex</text>
</g>
</g>
</svg>
