<?xml version="1.0" encoding="UTF-8" standalone="no"?>
<!DOCTYPE svg PUBLIC "-//W3C//DTD SVG 1.1//EN"
 "http://www.w3.org/Graphics/SVG/1.1/DTD/svg11.dtd">
<!-- Generated by graphviz version 2.38.0 (20140413.2041)
 -->
<!-- Title: DGtal::IntegralInvariantVolumeEstimator&lt; TKSpace, TPointPredicate, TVolumeFunctor &gt; Pages: 1 -->
<svg width="1960pt" height="483pt"
 viewBox="0.00 0.00 1960.00 483.00" xmlns="http://www.w3.org/2000/svg" xmlns:xlink="http://www.w3.org/1999/xlink">
<g id="graph0" class="graph" transform="scale(1 1) rotate(0) translate(4 479)">
<title>DGtal::IntegralInvariantVolumeEstimator&lt; TKSpace, TPointPredicate, TVolumeFunctor &gt;</title>
<polygon fill="white" stroke="none" points="-4,4 -4,-479 1956,-479 1956,4 -4,4"/>
<!-- Node1 -->
<g id="node1" class="node"><title>Node1</title>
<polygon fill="#bfbfbf" stroke="black" points="1764,-206 1764,-247 1952,-247 1952,-206 1764,-206"/>
<text text-anchor="start" x="1772" y="-235" font-family="FreeSans" font-size="10.00">DGtal::IntegralInvariant</text>
<text text-anchor="start" x="1772" y="-224" font-family="FreeSans" font-size="10.00">VolumeEstimator&lt; TKSpace,</text>
<text text-anchor="middle" x="1858" y="-213" font-family="FreeSans" font-size="10.00"> TPointPredicate, TVolumeFunctor &gt;</text>
</g>
<!-- Node2 -->
<g id="node2" class="node"><title>Node2</title>
<polygon fill="white" stroke="#bfbfbf" points="1465.5,-396 1465.5,-415 1613.5,-415 1613.5,-396 1465.5,-396"/>
<text text-anchor="middle" x="1539.5" y="-403" font-family="FreeSans" font-size="10.00">std::vector&lt; PairIterators &gt;</text>
</g>
<!-- Node2&#45;&gt;Node1 -->
<g id="edge1" class="edge"><title>Node2&#45;&gt;Node1</title>
<path fill="none" stroke="#9a32cd" stroke-dasharray="5,2" d="M1623.36,-394.584C1662.67,-386.682 1709.02,-373.23 1746,-350.5 1789.32,-323.873 1825.54,-275.249 1843.95,-247.459"/>
<polygon fill="#9a32cd" stroke="#9a32cd" points="1622.69,-391.15 1613.53,-396.476 1624.01,-398.024 1622.69,-391.15"/>
<text text-anchor="middle" x="1702" y="-389.5" font-family="FreeSans" font-size="10.00"> myKernels</text>
</g>
<!-- Node3 -->
<g id="node3" class="node"><title>Node3</title>
<g id="a_node3"><a xlink:title="STL class. ">
<polygon fill="white" stroke="#bfbfbf" points="1103,-404 1103,-423 1198,-423 1198,-404 1103,-404"/>
<text text-anchor="middle" x="1150.5" y="-411" font-family="FreeSans" font-size="10.00">std::vector&lt; T &gt;</text>
</a>
</g>
</g>
<!-- Node3&#45;&gt;Node2 -->
<g id="edge2" class="edge"><title>Node3&#45;&gt;Node2</title>
<path fill="none" stroke="orange" stroke-dasharray="5,2" d="M1208.29,-412.326C1276.35,-410.919 1390.55,-408.558 1465.21,-407.015"/>
<polygon fill="orange" stroke="orange" points="1208.11,-408.829 1198.18,-412.535 1208.25,-415.827 1208.11,-408.829"/>
<text text-anchor="middle" x="1341" y="-413.5" font-family="FreeSans" font-size="10.00"> &lt; PairIterators &gt;</text>
</g>
<!-- Node9 -->
<g id="node9" class="node"><title>Node9</title>
<polygon fill="white" stroke="#bfbfbf" points="1439,-326.5 1439,-356.5 1640,-356.5 1640,-326.5 1439,-326.5"/>
<text text-anchor="start" x="1447" y="-344.5" font-family="FreeSans" font-size="10.00">std::vector&lt; DGtal</text>
<text text-anchor="middle" x="1539.5" y="-333.5" font-family="FreeSans" font-size="10.00">::DigitalSetByAssociativeContainer * &gt;</text>
</g>
<!-- Node3&#45;&gt;Node9 -->
<g id="edge19" class="edge"><title>Node3&#45;&gt;Node9</title>
<path fill="none" stroke="orange" stroke-dasharray="5,2" d="M1189.8,-400.866C1210.67,-394.349 1237.05,-386.699 1261,-381.5 1319.39,-368.826 1385.58,-359.11 1438.68,-352.429"/>
<polygon fill="orange" stroke="orange" points="1188.51,-397.602 1180.03,-403.958 1190.62,-404.276 1188.51,-397.602"/>
<text text-anchor="start" x="1261" y="-395.5" font-family="FreeSans" font-size="10.00"> &lt; DGtal::DigitalSetByAssociative</text>
<text text-anchor="middle" x="1341" y="-384.5" font-family="FreeSans" font-size="10.00">Container * &gt;</text>
</g>
<!-- Node4 -->
<g id="node4" class="node"><title>Node4</title>
<polygon fill="white" stroke="#bfbfbf" points="880,-411 880,-430 909,-430 909,-411 880,-411"/>
<text text-anchor="middle" x="894.5" y="-418" font-family="FreeSans" font-size="10.00">T</text>
</g>
<!-- Node4&#45;&gt;Node3 -->
<g id="edge3" class="edge"><title>Node4&#45;&gt;Node3</title>
<path fill="none" stroke="#9a32cd" stroke-dasharray="5,2" d="M919.215,-419.846C961.031,-418.694 1048.58,-416.281 1102.87,-414.785"/>
<polygon fill="#9a32cd" stroke="#9a32cd" points="919.056,-416.349 909.156,-420.124 919.249,-423.347 919.056,-416.349"/>
<text text-anchor="middle" x="1012" y="-420.5" font-family="FreeSans" font-size="10.00"> elements</text>
</g>
<!-- Node5 -->
<g id="node5" class="node"><title>Node5</title>
<g id="a_node5"><a xlink:href="classDGtal_1_1CountedPtr.html" target="_top" xlink:title="DGtal::CountedPtr\&lt;\l DGtal::DigitalSurfaceConvolver \&gt;">
<polygon fill="white" stroke="black" points="545,-282.5 545,-312.5 723,-312.5 723,-282.5 545,-282.5"/>
<text text-anchor="start" x="553" y="-300.5" font-family="FreeSans" font-size="10.00">DGtal::CountedPtr&lt;</text>
<text text-anchor="middle" x="634" y="-289.5" font-family="FreeSans" font-size="10.00"> DGtal::DigitalSurfaceConvolver &gt;</text>
</a>
</g>
</g>
<!-- Node5&#45;&gt;Node1 -->
<g id="edge4" class="edge"><title>Node5&#45;&gt;Node1</title>
<path fill="none" stroke="#9a32cd" stroke-dasharray="5,2" d="M733.364,-297.5C781.618,-297.5 840.603,-297.5 893.5,-297.5 893.5,-297.5 893.5,-297.5 1540.5,-297.5 1633.42,-297.5 1738.04,-268.005 1800.68,-247.036"/>
<polygon fill="#9a32cd" stroke="#9a32cd" points="733.236,-294 723.236,-297.5 733.236,-301 733.236,-294"/>
<text text-anchor="middle" x="1150.5" y="-300.5" font-family="FreeSans" font-size="10.00"> myConvolver</text>
</g>
<!-- Node6 -->
<g id="node6" class="node"><title>Node6</title>
<g id="a_node6"><a xlink:href="structDGtal_1_1CountedPtr_1_1Counter.html" target="_top" xlink:title="DGtal::CountedPtr\&lt;\l T \&gt;::Counter">
<polygon fill="white" stroke="black" points="0,-181.5 0,-211.5 112,-211.5 112,-181.5 0,-181.5"/>
<text text-anchor="start" x="8" y="-199.5" font-family="FreeSans" font-size="10.00">DGtal::CountedPtr&lt;</text>
<text text-anchor="middle" x="56" y="-188.5" font-family="FreeSans" font-size="10.00"> T &gt;::Counter</text>
</a>
</g>
</g>
<!-- Node6&#45;&gt;Node5 -->
<g id="edge5" class="edge"><title>Node6&#45;&gt;Node5</title>
<path fill="none" stroke="#9a32cd" stroke-dasharray="5,2" d="M86.7101,-217.223C138.237,-251.759 248.773,-319.734 354,-344.5 428.844,-362.115 457.879,-378.177 527,-344.5 538.669,-338.815 534.189,-328.684 545,-321.5 550.144,-318.082 555.763,-315.148 561.593,-312.631"/>
<polygon fill="#9a32cd" stroke="#9a32cd" points="88.6157,-214.287 78.3724,-211.58 84.6921,-220.084 88.6157,-214.287"/>
<text text-anchor="middle" x="270.5" y="-343.5" font-family="FreeSans" font-size="10.00"> myCounter</text>
</g>
<!-- Node7 -->
<g id="node7" class="node"><title>Node7</title>
<g id="a_node7"><a xlink:href="classDGtal_1_1CountedPtr.html" target="_top" xlink:title="Aim: Smart pointer based on reference counts. ">
<polygon fill="white" stroke="black" points="205,-219 205,-238 336,-238 336,-219 205,-219"/>
<text text-anchor="middle" x="270.5" y="-226" font-family="FreeSans" font-size="10.00">DGtal::CountedPtr&lt; T &gt;</text>
</a>
</g>
</g>
<!-- Node6&#45;&gt;Node7 -->
<g id="edge7" class="edge"><title>Node6&#45;&gt;Node7</title>
<path fill="none" stroke="#9a32cd" stroke-dasharray="5,2" d="M122.016,-206.291C148.72,-210.312 179.538,-214.953 206.075,-218.949"/>
<polygon fill="#9a32cd" stroke="#9a32cd" points="122.41,-202.811 112,-204.782 121.368,-209.733 122.41,-202.811"/>
<text text-anchor="middle" x="158.5" y="-218.5" font-family="FreeSans" font-size="10.00"> myCounter</text>
</g>
<!-- Node8 -->
<g id="node8" class="node"><title>Node8</title>
<g id="a_node8"><a xlink:href="classDGtal_1_1CountedPtr.html" target="_top" xlink:title="DGtal::CountedPtr\&lt;\l DGtal::GaussDigitizer \&gt;">
<polygon fill="white" stroke="black" points="567.5,-444.5 567.5,-474.5 700.5,-474.5 700.5,-444.5 567.5,-444.5"/>
<text text-anchor="start" x="575.5" y="-462.5" font-family="FreeSans" font-size="10.00">DGtal::CountedPtr&lt;</text>
<text text-anchor="middle" x="634" y="-451.5" font-family="FreeSans" font-size="10.00"> DGtal::GaussDigitizer &gt;</text>
</a>
</g>
</g>
<!-- Node6&#45;&gt;Node8 -->
<g id="edge9" class="edge"><title>Node6&#45;&gt;Node8</title>
<path fill="none" stroke="#9a32cd" stroke-dasharray="5,2" d="M64.6734,-221.256C81.1956,-269.64 125.249,-375.59 205,-416.5 321.615,-476.32 479.489,-474.33 567.246,-467.164"/>
<polygon fill="#9a32cd" stroke="#9a32cd" points="67.9382,-219.98 61.4779,-211.583 61.2916,-222.176 67.9382,-219.98"/>
<text text-anchor="middle" x="270.5" y="-460.5" font-family="FreeSans" font-size="10.00"> myCounter</text>
</g>
<!-- Node12 -->
<g id="node12" class="node"><title>Node12</title>
<g id="a_node12"><a xlink:href="classDGtal_1_1CountedPtr.html" target="_top" xlink:title="DGtal::CountedPtr\&lt;\l Domain \&gt;">
<polygon fill="white" stroke="black" points="578,-331.5 578,-361.5 690,-361.5 690,-331.5 578,-331.5"/>
<text text-anchor="start" x="586" y="-349.5" font-family="FreeSans" font-size="10.00">DGtal::CountedPtr&lt;</text>
<text text-anchor="middle" x="634" y="-338.5" font-family="FreeSans" font-size="10.00"> Domain &gt;</text>
</a>
</g>
</g>
<!-- Node6&#45;&gt;Node12 -->
<g id="edge15" class="edge"><title>Node6&#45;&gt;Node12</title>
<path fill="none" stroke="#9a32cd" stroke-dasharray="5,2" d="M72.8995,-220.105C97.3556,-254.668 147.453,-318.903 205,-355.5 263.708,-392.835 285.269,-392.703 354,-403.5 429.957,-415.433 460.629,-442.317 527,-403.5 541.086,-395.262 532.185,-381.602 545,-371.5 554.479,-364.027 566.086,-358.788 577.722,-355.115"/>
<polygon fill="#9a32cd" stroke="#9a32cd" points="75.5574,-217.797 66.9705,-211.591 69.813,-221.797 75.5574,-217.797"/>
<text text-anchor="middle" x="270.5" y="-404.5" font-family="FreeSans" font-size="10.00"> myCounter</text>
</g>
<!-- Node15 -->
<g id="node15" class="node"><title>Node15</title>
<g id="a_node15"><a xlink:href="classDGtal_1_1CountedPtr.html" target="_top" xlink:title="DGtal::CountedPtr\&lt;\l DGtal::functors::PointFunctor\lFromPointPredicateAndDomain \&gt;">
<polygon fill="white" stroke="black" points="545.5,-222 545.5,-263 722.5,-263 722.5,-222 545.5,-222"/>
<text text-anchor="start" x="553.5" y="-251" font-family="FreeSans" font-size="10.00">DGtal::CountedPtr&lt;</text>
<text text-anchor="start" x="553.5" y="-240" font-family="FreeSans" font-size="10.00"> DGtal::functors::PointFunctor</text>
<text text-anchor="middle" x="634" y="-229" font-family="FreeSans" font-size="10.00">FromPointPredicateAndDomain &gt;</text>
</a>
</g>
</g>
<!-- Node6&#45;&gt;Node15 -->
<g id="edge21" class="edge"><title>Node6&#45;&gt;Node15</title>
<path fill="none" stroke="#9a32cd" stroke-dasharray="5,2" d="M122.18,-181.631C215.608,-163.522 391.291,-141.545 527,-195.5 537.225,-199.565 535.577,-206.817 545,-212.5 550.805,-216.001 557.074,-219.161 563.499,-221.997"/>
<polygon fill="#9a32cd" stroke="#9a32cd" points="121.428,-178.212 112.3,-183.591 122.79,-185.078 121.428,-178.212"/>
<text text-anchor="middle" x="270.5" y="-171.5" font-family="FreeSans" font-size="10.00"> myCounter</text>
</g>
<!-- Node16 -->
<g id="node16" class="node"><title>Node16</title>
<g id="a_node16"><a xlink:href="classDGtal_1_1CountedPtr.html" target="_top" xlink:title="DGtal::CountedPtr\&lt;\l DGtal::ImplicitBall \&gt;">
<polygon fill="white" stroke="black" points="576.5,-173.5 576.5,-203.5 691.5,-203.5 691.5,-173.5 576.5,-173.5"/>
<text text-anchor="start" x="584.5" y="-191.5" font-family="FreeSans" font-size="10.00">DGtal::CountedPtr&lt;</text>
<text text-anchor="middle" x="634" y="-180.5" font-family="FreeSans" font-size="10.00"> DGtal::ImplicitBall &gt;</text>
</a>
</g>
</g>
<!-- Node6&#45;&gt;Node16 -->
<g id="edge24" class="edge"><title>Node6&#45;&gt;Node16</title>
<path fill="none" stroke="#9a32cd" stroke-dasharray="5,2" d="M94.3332,-176.843C105.597,-171.394 118.128,-165.801 130,-161.5 162.33,-149.787 171.076,-148.122 205,-142.5 346.283,-119.085 388.253,-95.0228 527,-130.5 559.315,-138.763 592.379,-159.136 612.796,-173.388"/>
<polygon fill="#9a32cd" stroke="#9a32cd" points="92.6236,-173.784 85.2113,-181.354 95.7266,-180.058 92.6236,-173.784"/>
<text text-anchor="middle" x="270.5" y="-145.5" font-family="FreeSans" font-size="10.00"> myCounter</text>
</g>
<!-- Node19 -->
<g id="node19" class="node"><title>Node19</title>
<g id="a_node19"><a xlink:href="classDGtal_1_1CountedPtr.html" target="_top" xlink:title="DGtal::CountedPtr\&lt;\l DGtal::FunctorOnCells \&gt;">
<polygon fill="white" stroke="black" points="566.5,-92.5 566.5,-122.5 701.5,-122.5 701.5,-92.5 566.5,-92.5"/>
<text text-anchor="start" x="574.5" y="-110.5" font-family="FreeSans" font-size="10.00">DGtal::CountedPtr&lt;</text>
<text text-anchor="middle" x="634" y="-99.5" font-family="FreeSans" font-size="10.00"> DGtal::FunctorOnCells &gt;</text>
</a>
</g>
</g>
<!-- Node6&#45;&gt;Node19 -->
<g id="edge29" class="edge"><title>Node6&#45;&gt;Node19</title>
<path fill="none" stroke="#9a32cd" stroke-dasharray="5,2" d="M83.5422,-175.187C97.0686,-164.765 114.002,-152.373 130,-142.5 220.219,-86.8219 249.074,-75.6686 354,-60.5 430.098,-49.4989 457.518,-27.5739 527,-60.5 538.416,-65.91 534.439,-75.5667 545,-82.5 551.506,-86.771 558.745,-90.3229 566.198,-93.2745"/>
<polygon fill="#9a32cd" stroke="#9a32cd" points="81.3323,-172.472 75.5992,-181.382 85.6371,-177.992 81.3323,-172.472"/>
<text text-anchor="middle" x="270.5" y="-102.5" font-family="FreeSans" font-size="10.00"> myCounter</text>
</g>
<!-- Node20 -->
<g id="node20" class="node"><title>Node20</title>
<g id="a_node20"><a xlink:href="classDGtal_1_1CountedPtr.html" target="_top" xlink:title="DGtal::CountedPtr\&lt;\l HyperRectDomain\&lt; Space \&gt; \&gt;">
<polygon fill="white" stroke="black" points="549,-43.5 549,-73.5 719,-73.5 719,-43.5 549,-43.5"/>
<text text-anchor="start" x="557" y="-61.5" font-family="FreeSans" font-size="10.00">DGtal::CountedPtr&lt;</text>
<text text-anchor="middle" x="634" y="-50.5" font-family="FreeSans" font-size="10.00"> HyperRectDomain&lt; Space &gt; &gt;</text>
</a>
</g>
</g>
<!-- Node6&#45;&gt;Node20 -->
<g id="edge32" class="edge"><title>Node6&#45;&gt;Node20</title>
<path fill="none" stroke="#9a32cd" stroke-dasharray="5,2" d="M71.5225,-172.237C94.5333,-136.575 143.171,-71.723 205,-48.5 329.2,-1.8503 488.284,-25.1169 573.222,-43.4794"/>
<polygon fill="#9a32cd" stroke="#9a32cd" points="68.3417,-170.72 65.9765,-181.047 74.2657,-174.449 68.3417,-170.72"/>
<text text-anchor="middle" x="270.5" y="-51.5" font-family="FreeSans" font-size="10.00"> myCounter</text>
</g>
<!-- Node7&#45;&gt;Node5 -->
<g id="edge6" class="edge"><title>Node7&#45;&gt;Node5</title>
<path fill="none" stroke="orange" stroke-dasharray="5,2" d="M292.662,-244.043C308.654,-254.892 331.609,-268.616 354,-275.5 388.484,-286.102 476.842,-291.806 544.968,-294.728"/>
<polygon fill="orange" stroke="orange" points="294.308,-240.923 284.107,-238.061 290.297,-246.66 294.308,-240.923"/>
<text text-anchor="middle" x="440.5" y="-297.5" font-family="FreeSans" font-size="10.00"> &lt; DGtal::DigitalSurfaceConvolver &gt;</text>
</g>
<!-- Node7&#45;&gt;Node8 -->
<g id="edge10" class="edge"><title>Node7&#45;&gt;Node8</title>
<path fill="none" stroke="orange" stroke-dasharray="5,2" d="M282.531,-247.297C303.786,-283.41 348.789,-359.313 354,-363.5 388.492,-391.212 503.479,-425.238 574.618,-444.438"/>
<polygon fill="orange" stroke="orange" points="285.303,-245.107 277.218,-238.259 279.268,-248.654 285.303,-245.107"/>
<text text-anchor="middle" x="440.5" y="-431.5" font-family="FreeSans" font-size="10.00"> &lt; DGtal::GaussDigitizer &gt;</text>
</g>
<!-- Node7&#45;&gt;Node12 -->
<g id="edge16" class="edge"><title>Node7&#45;&gt;Node12</title>
<path fill="none" stroke="orange" stroke-dasharray="5,2" d="M284.11,-246.461C298.603,-265.564 324.257,-294.984 354,-309.5 425.685,-344.485 519.4,-349.897 577.898,-349.226"/>
<polygon fill="orange" stroke="orange" points="286.83,-244.253 278.091,-238.262 281.187,-248.395 286.83,-244.253"/>
<text text-anchor="middle" x="440.5" y="-351.5" font-family="FreeSans" font-size="10.00"> &lt; Domain &gt;</text>
</g>
<!-- Node7&#45;&gt;Node15 -->
<g id="edge22" class="edge"><title>Node7&#45;&gt;Node15</title>
<path fill="none" stroke="orange" stroke-dasharray="5,2" d="M346.311,-231.397C404.236,-233.641 484.595,-236.753 545.5,-239.111"/>
<polygon fill="orange" stroke="orange" points="346.257,-227.893 336.129,-231.003 345.986,-234.887 346.257,-227.893"/>
<text text-anchor="start" x="364" y="-263.5" font-family="FreeSans" font-size="10.00"> &lt; DGtal::functors::</text>
<text text-anchor="start" x="364" y="-252.5" font-family="FreeSans" font-size="10.00">PointFunctorFromPointPredicate</text>
<text text-anchor="middle" x="440.5" y="-241.5" font-family="FreeSans" font-size="10.00">AndDomain &gt;</text>
</g>
<!-- Node7&#45;&gt;Node16 -->
<g id="edge25" class="edge"><title>Node7&#45;&gt;Node16</title>
<path fill="none" stroke="orange" stroke-dasharray="5,2" d="M346.358,-218.423C348.936,-218.106 351.489,-217.798 354,-217.5 430.892,-208.38 519.896,-199.402 576.305,-193.907"/>
<polygon fill="orange" stroke="orange" points="345.817,-214.963 336.329,-219.676 346.685,-221.909 345.817,-214.963"/>
<text text-anchor="middle" x="440.5" y="-220.5" font-family="FreeSans" font-size="10.00"> &lt; DGtal::ImplicitBall &gt;</text>
</g>
<!-- Node7&#45;&gt;Node19 -->
<g id="edge30" class="edge"><title>Node7&#45;&gt;Node19</title>
<path fill="none" stroke="orange" stroke-dasharray="5,2" d="M295.876,-213.659C311.951,-204.34 333.709,-192.596 354,-184.5 424.473,-156.383 508.878,-134.646 566.262,-121.545"/>
<polygon fill="orange" stroke="orange" points="293.96,-210.726 287.123,-218.82 297.515,-216.756 293.96,-210.726"/>
<text text-anchor="middle" x="440.5" y="-187.5" font-family="FreeSans" font-size="10.00"> &lt; DGtal::FunctorOnCells &gt;</text>
</g>
<!-- Node7&#45;&gt;Node20 -->
<g id="edge33" class="edge"><title>Node7&#45;&gt;Node20</title>
<path fill="none" stroke="orange" stroke-dasharray="5,2" d="M307.023,-214.411C317.802,-208.52 328.707,-200.639 336,-190.5 358.548,-159.151 326.13,-132.229 354,-105.5 405.05,-56.5403 486.946,-47.7892 548.834,-49.5031"/>
<polygon fill="orange" stroke="orange" points="305.45,-211.284 298.08,-218.896 308.588,-217.541 305.45,-211.284"/>
<text text-anchor="start" x="386" y="-119.5" font-family="FreeSans" font-size="10.00"> &lt; HyperRectDomain&lt;</text>
<text text-anchor="middle" x="440.5" y="-108.5" font-family="FreeSans" font-size="10.00"> Space &gt; &gt;</text>
</g>
<!-- Node8&#45;&gt;Node1 -->
<g id="edge8" class="edge"><title>Node8&#45;&gt;Node1</title>
<path fill="none" stroke="#9a32cd" stroke-dasharray="5,2" d="M710.661,-459.5C762.196,-459.5 831.967,-459.5 893.5,-459.5 893.5,-459.5 893.5,-459.5 1540.5,-459.5 1635.4,-459.5 1669.9,-458.199 1746,-401.5 1800.82,-360.659 1835.41,-284.044 1849.6,-247.254"/>
<polygon fill="#9a32cd" stroke="#9a32cd" points="710.605,-456 700.605,-459.5 710.605,-463 710.605,-456"/>
<text text-anchor="middle" x="1150.5" y="-462.5" font-family="FreeSans" font-size="10.00"> myDigKernel</text>
</g>
<!-- Node9&#45;&gt;Node1 -->
<g id="edge11" class="edge"><title>Node9&#45;&gt;Node1</title>
<path fill="none" stroke="#9a32cd" stroke-dasharray="5,2" d="M1650.42,-335.863C1682.16,-331.493 1716.25,-324.052 1746,-311.5 1781.78,-296.404 1816.2,-266.975 1836.97,-247.026"/>
<polygon fill="#9a32cd" stroke="#9a32cd" points="1649.67,-332.43 1640.2,-337.177 1650.57,-339.373 1649.67,-332.43"/>
<text text-anchor="middle" x="1702" y="-338.5" font-family="FreeSans" font-size="10.00"> myKernelsSet</text>
</g>
<!-- Node10 -->
<g id="node10" class="node"><title>Node10</title>
<g id="a_node10"><a xlink:href="classDGtal_1_1DigitalSetByAssociativeContainer.html" target="_top" xlink:title="Aim: A wrapper class around a STL associative container for storing sets of digital points within som...">
<polygon fill="white" stroke="black" points="1058,-329.5 1058,-359.5 1243,-359.5 1243,-329.5 1058,-329.5"/>
<text text-anchor="start" x="1066" y="-347.5" font-family="FreeSans" font-size="10.00">DGtal::DigitalSetByAssociative</text>
<text text-anchor="middle" x="1150.5" y="-336.5" font-family="FreeSans" font-size="10.00">Container&lt; TDomain, TContainer &gt;</text>
</a>
</g>
</g>
<!-- Node10&#45;&gt;Node9 -->
<g id="edge12" class="edge"><title>Node10&#45;&gt;Node9</title>
<path fill="none" stroke="#9a32cd" stroke-dasharray="5,2" d="M1253.29,-337.774C1255.89,-337.673 1258.46,-337.581 1261,-337.5 1319.99,-335.616 1386.07,-336.451 1438.94,-337.834"/>
<polygon fill="#9a32cd" stroke="#9a32cd" points="1253.03,-334.282 1243.19,-338.206 1253.33,-341.275 1253.03,-334.282"/>
<text text-anchor="middle" x="1341" y="-340.5" font-family="FreeSans" font-size="10.00"> elements</text>
</g>
<!-- Node11 -->
<g id="node11" class="node"><title>Node11</title>
<g id="a_node11"><a xlink:href="classDGtal_1_1CowPtr.html" target="_top" xlink:title="DGtal::CowPtr\&lt; Domain \&gt;">
<polygon fill="white" stroke="black" points="823,-335 823,-354 966,-354 966,-335 823,-335"/>
<text text-anchor="middle" x="894.5" y="-342" font-family="FreeSans" font-size="10.00">DGtal::CowPtr&lt; Domain &gt;</text>
</a>
</g>
</g>
<!-- Node11&#45;&gt;Node10 -->
<g id="edge13" class="edge"><title>Node11&#45;&gt;Node10</title>
<path fill="none" stroke="#9a32cd" stroke-dasharray="5,2" d="M976.394,-344.5C1002.28,-344.5 1031.13,-344.5 1057.73,-344.5"/>
<polygon fill="#9a32cd" stroke="#9a32cd" points="976.253,-341 966.253,-344.5 976.253,-348 976.253,-341"/>
<text text-anchor="middle" x="1012" y="-347.5" font-family="FreeSans" font-size="10.00"> myDomain</text>
</g>
<!-- Node12&#45;&gt;Node11 -->
<g id="edge14" class="edge"><title>Node12&#45;&gt;Node11</title>
<path fill="none" stroke="#9a32cd" stroke-dasharray="5,2" d="M700.397,-345.994C737.715,-345.705 784.518,-345.343 822.7,-345.048"/>
<polygon fill="#9a32cd" stroke="#9a32cd" points="700.11,-342.496 690.138,-346.073 700.164,-349.496 700.11,-342.496"/>
<text text-anchor="middle" x="773" y="-349.5" font-family="FreeSans" font-size="10.00"> myPtr</text>
</g>
<!-- Node13 -->
<g id="node13" class="node"><title>Node13</title>
<g id="a_node13"><a xlink:href="classDGtal_1_1CowPtr.html" target="_top" xlink:title="Aim: Copy on write shared pointer. ">
<polygon fill="white" stroke="black" points="579,-381 579,-400 689,-400 689,-381 579,-381"/>
<text text-anchor="middle" x="634" y="-388" font-family="FreeSans" font-size="10.00">DGtal::CowPtr&lt; T &gt;</text>
</a>
</g>
</g>
<!-- Node13&#45;&gt;Node11 -->
<g id="edge17" class="edge"><title>Node13&#45;&gt;Node11</title>
<path fill="none" stroke="orange" stroke-dasharray="5,2" d="M699.105,-379.888C730.969,-374.531 770.043,-367.838 805,-361.5 817.931,-359.155 831.905,-356.519 844.845,-354.035"/>
<polygon fill="orange" stroke="orange" points="698.31,-376.473 689.027,-381.579 699.468,-383.376 698.31,-376.473"/>
<text text-anchor="middle" x="773" y="-375.5" font-family="FreeSans" font-size="10.00"> &lt; Domain &gt;</text>
</g>
<!-- Node14 -->
<g id="node14" class="node"><title>Node14</title>
<polygon fill="white" stroke="#bfbfbf" points="860.5,-373 860.5,-392 928.5,-392 928.5,-373 860.5,-373"/>
<text text-anchor="middle" x="894.5" y="-380" font-family="FreeSans" font-size="10.00">TContainer</text>
</g>
<!-- Node14&#45;&gt;Node10 -->
<g id="edge18" class="edge"><title>Node14&#45;&gt;Node10</title>
<path fill="none" stroke="#9a32cd" stroke-dasharray="5,2" d="M938.791,-376.023C971.36,-371.151 1017.17,-364.297 1057.76,-358.225"/>
<polygon fill="#9a32cd" stroke="#9a32cd" points="938.078,-372.591 928.706,-377.532 939.114,-379.514 938.078,-372.591"/>
<text text-anchor="middle" x="1012" y="-372.5" font-family="FreeSans" font-size="10.00"> mySet</text>
</g>
<!-- Node15&#45;&gt;Node1 -->
<g id="edge20" class="edge"><title>Node15&#45;&gt;Node1</title>
<path fill="none" stroke="#9a32cd" stroke-dasharray="5,2" d="M732.769,-246.952C781.124,-248.791 840.369,-250.5 893.5,-250.5 893.5,-250.5 893.5,-250.5 1540.5,-250.5 1615.72,-250.5 1700.71,-243.677 1763.66,-237.306"/>
<polygon fill="#9a32cd" stroke="#9a32cd" points="732.751,-243.449 722.623,-246.559 732.479,-250.444 732.751,-243.449"/>
<text text-anchor="middle" x="1150.5" y="-253.5" font-family="FreeSans" font-size="10.00"> myShapePointFunctor</text>
</g>
<!-- Node16&#45;&gt;Node1 -->
<g id="edge23" class="edge"><title>Node16&#45;&gt;Node1</title>
<path fill="none" stroke="#9a32cd" stroke-dasharray="5,2" d="M701.804,-194.508C753.963,-198.683 828.282,-203.5 893.5,-203.5 893.5,-203.5 893.5,-203.5 1540.5,-203.5 1615.84,-203.5 1701,-210.063 1763.99,-216.177"/>
<polygon fill="#9a32cd" stroke="#9a32cd" points="701.928,-191.007 691.677,-193.683 701.36,-197.983 701.928,-191.007"/>
<text text-anchor="middle" x="1150.5" y="-206.5" font-family="FreeSans" font-size="10.00"> myKernel</text>
</g>
<!-- Node17 -->
<g id="node17" class="node"><title>Node17</title>
<g id="a_node17"><a xlink:href="classDGtal_1_1CountedConstPtrOrConstPtr.html" target="_top" xlink:title="DGtal::CountedConstPtrOr\lConstPtr\&lt; PointPredicate \&gt;">
<polygon fill="white" stroke="black" points="1465,-140.5 1465,-170.5 1614,-170.5 1614,-140.5 1465,-140.5"/>
<text text-anchor="start" x="1473" y="-158.5" font-family="FreeSans" font-size="10.00">DGtal::CountedConstPtrOr</text>
<text text-anchor="middle" x="1539.5" y="-147.5" font-family="FreeSans" font-size="10.00">ConstPtr&lt; PointPredicate &gt;</text>
</a>
</g>
</g>
<!-- Node17&#45;&gt;Node1 -->
<g id="edge26" class="edge"><title>Node17&#45;&gt;Node1</title>
<path fill="none" stroke="#9a32cd" stroke-dasharray="5,2" d="M1624.64,-159.266C1662.25,-162.388 1706.83,-168.089 1746,-178.5 1770.55,-185.026 1796.69,-196.106 1817.43,-205.978"/>
<polygon fill="#9a32cd" stroke="#9a32cd" points="1624.47,-155.743 1614.23,-158.453 1623.93,-162.721 1624.47,-155.743"/>
<text text-anchor="middle" x="1702" y="-181.5" font-family="FreeSans" font-size="10.00"> myPointPredicate</text>
</g>
<!-- Node18 -->
<g id="node18" class="node"><title>Node18</title>
<g id="a_node18"><a xlink:href="classDGtal_1_1CountedConstPtrOrConstPtr.html" target="_top" xlink:title="Aim: Smart or simple const pointer on T. It can be a smart pointer based on reference counts or a sim...">
<polygon fill="white" stroke="black" points="1079,-136.5 1079,-166.5 1222,-166.5 1222,-136.5 1079,-136.5"/>
<text text-anchor="start" x="1087" y="-154.5" font-family="FreeSans" font-size="10.00">DGtal::CountedConstPtrOr</text>
<text text-anchor="middle" x="1150.5" y="-143.5" font-family="FreeSans" font-size="10.00">ConstPtr&lt; T &gt;</text>
</a>
</g>
</g>
<!-- Node18&#45;&gt;Node17 -->
<g id="edge27" class="edge"><title>Node18&#45;&gt;Node17</title>
<path fill="none" stroke="orange" stroke-dasharray="5,2" d="M1232.35,-152.336C1300.91,-153.044 1398.41,-154.052 1464.83,-154.739"/>
<polygon fill="orange" stroke="orange" points="1232.07,-148.833 1222.03,-152.229 1232,-155.832 1232.07,-148.833"/>
<text text-anchor="middle" x="1341" y="-157.5" font-family="FreeSans" font-size="10.00"> &lt; PointPredicate &gt;</text>
</g>
<!-- Node19&#45;&gt;Node1 -->
<g id="edge28" class="edge"><title>Node19&#45;&gt;Node1</title>
<path fill="none" stroke="#9a32cd" stroke-dasharray="5,2" d="M711.721,-107.048C763.149,-106.783 832.388,-106.5 893.5,-106.5 893.5,-106.5 893.5,-106.5 1540.5,-106.5 1634.82,-106.5 1659.31,-122.33 1746,-159.5 1775.38,-172.096 1806.32,-191.333 1828.05,-205.968"/>
<polygon fill="#9a32cd" stroke="#9a32cd" points="711.662,-103.548 701.68,-107.1 711.698,-110.548 711.662,-103.548"/>
<text text-anchor="middle" x="1150.5" y="-109.5" font-family="FreeSans" font-size="10.00"> myShapeSpelFunctor</text>
</g>
<!-- Node20&#45;&gt;Node1 -->
<g id="edge31" class="edge"><title>Node20&#45;&gt;Node1</title>
<path fill="none" stroke="#9a32cd" stroke-dasharray="5,2" d="M729.376,-59.0402C778.343,-59.2761 839.137,-59.5 893.5,-59.5 893.5,-59.5 893.5,-59.5 1540.5,-59.5 1635.77,-59.5 1663.58,-72.7107 1746,-120.5 1784.96,-143.089 1820.85,-182.049 1840.75,-205.92"/>
<polygon fill="#9a32cd" stroke="#9a32cd" points="729.13,-55.539 719.113,-58.9897 729.095,-62.539 729.13,-55.539"/>
<text text-anchor="middle" x="1150.5" y="-62.5" font-family="FreeSans" font-size="10.00"> myShapeDomain</text>
</g>
<!-- Node21 -->
<g id="node21" class="node"><title>Node21</title>
<g id="a_node21"><a xlink:href="classDGtal_1_1functors_1_1ConstValueCell.html" target="_top" xlink:title="Aim: Define a simple functor that returns a constant quantity (0 by default). ">
<polygon fill="white" stroke="black" points="1465,-0.5 1465,-30.5 1614,-30.5 1614,-0.5 1465,-0.5"/>
<text text-anchor="start" x="1473" y="-18.5" font-family="FreeSans" font-size="10.00">DGtal::functors::ConstValue</text>
<text text-anchor="middle" x="1539.5" y="-7.5" font-family="FreeSans" font-size="10.00">Cell&lt; TQuantity, TCell &gt;</text>
</a>
</g>
</g>
<!-- Node21&#45;&gt;Node1 -->
<g id="edge34" class="edge"><title>Node21&#45;&gt;Node1</title>
<path fill="none" stroke="#9a32cd" stroke-dasharray="5,2" d="M1624.48,-6.23812C1664.15,-5.91347 1710.47,-11.7546 1746,-34.5 1809.23,-74.9784 1840.54,-165.192 1851.87,-205.886"/>
<polygon fill="#9a32cd" stroke="#9a32cd" points="1624.2,-2.74307 1614.28,-6.45598 1624.35,-9.74147 1624.2,-2.74307"/>
<text text-anchor="middle" x="1702" y="-37.5" font-family="FreeSans" font-size="10.00"> myKernelFunctor</text>
</g>
</g>
</svg>
