<?xml version="1.0" encoding="UTF-8" standalone="no"?>
<!DOCTYPE svg PUBLIC "-//W3C//DTD SVG 1.1//EN"
 "http://www.w3.org/Graphics/SVG/1.1/DTD/svg11.dtd">
<!-- Generated by graphviz version 2.38.0 (20140413.2041)
 -->
<!-- Title: DGtal::LighterSternBrocot&lt; TInteger, TQuotient, TMap &gt; Pages: 1 -->
<svg width="235pt" height="217pt"
 viewBox="0.00 0.00 235.00 217.00" xmlns="http://www.w3.org/2000/svg" xmlns:xlink="http://www.w3.org/1999/xlink">
<g id="graph0" class="graph" transform="scale(1 1) rotate(0) translate(4 213)">
<title>DGtal::LighterSternBrocot&lt; TInteger, TQuotient, TMap &gt;</title>
<polygon fill="white" stroke="none" points="-4,4 -4,-213 231,-213 231,4 -4,4"/>
<!-- Node1 -->
<g id="node1" class="node"><title>Node1</title>
<polygon fill="#bfbfbf" stroke="black" points="0,-0.5 0,-30.5 162,-30.5 162,-0.5 0,-0.5"/>
<text text-anchor="start" x="8" y="-18.5" font-family="FreeSans" font-size="10.00">DGtal::LighterSternBrocot</text>
<text text-anchor="middle" x="81" y="-7.5" font-family="FreeSans" font-size="10.00">&lt; TInteger, TQuotient, TMap &gt;</text>
</g>
<!-- Node1&#45;&gt;Node1 -->
<g id="edge1" class="edge"><title>Node1&#45;&gt;Node1</title>
<path fill="none" stroke="#9a32cd" stroke-dasharray="5,2" d="M172.171,-20.9786C177.084,-19.6385 180,-17.8123 180,-15.5 180,-11.8906 172.894,-9.46558 162.18,-8.22485"/>
<polygon fill="#9a32cd" stroke="#9a32cd" points="171.402,-17.5606 162.18,-22.7751 172.641,-24.4501 171.402,-17.5606"/>
<text text-anchor="middle" x="203.5" y="-13" font-family="FreeSans" font-size="10.00"> singleton</text>
</g>
<!-- Node2 -->
<g id="node2" class="node"><title>Node2</title>
<g id="a_node2"><a xlink:href="structDGtal_1_1LighterSternBrocot_1_1Node.html" target="_top" xlink:title="DGtal::LighterSternBrocot\l\&lt; TInteger, TQuotient,\l TMap \&gt;::Node">
<polygon fill="white" stroke="black" points="11,-89.5 11,-130.5 151,-130.5 151,-89.5 11,-89.5"/>
<text text-anchor="start" x="19" y="-118.5" font-family="FreeSans" font-size="10.00">DGtal::LighterSternBrocot</text>
<text text-anchor="start" x="19" y="-107.5" font-family="FreeSans" font-size="10.00">&lt; TInteger, TQuotient,</text>
<text text-anchor="middle" x="81" y="-96.5" font-family="FreeSans" font-size="10.00"> TMap &gt;::Node</text>
</a>
</g>
</g>
<!-- Node2&#45;&gt;Node1 -->
<g id="edge2" class="edge"><title>Node2&#45;&gt;Node1</title>
<path fill="none" stroke="#9a32cd" stroke-dasharray="5,2" d="M81,-79.2371C81,-62.9556 81,-43.5378 81,-30.6621"/>
<polygon fill="#9a32cd" stroke="#9a32cd" points="77.5001,-79.3831 81,-89.3831 84.5001,-79.3832 77.5001,-79.3831"/>
<text text-anchor="middle" x="121.5" y="-63" font-family="FreeSans" font-size="10.00"> myOneOverOne</text>
<text text-anchor="middle" x="121.5" y="-52" font-family="FreeSans" font-size="10.00">myOneOverZero</text>
</g>
<!-- Node2&#45;&gt;Node2 -->
<g id="edge3" class="edge"><title>Node2&#45;&gt;Node2</title>
<path fill="none" stroke="#9a32cd" stroke-dasharray="5,2" d="M161.078,-116.544C166.024,-114.996 169,-112.815 169,-110 169,-105.605 161.749,-102.756 151.071,-101.451"/>
<polygon fill="#9a32cd" stroke="#9a32cd" points="160.188,-113.152 151.071,-118.549 161.564,-120.016 160.188,-113.152"/>
<text text-anchor="middle" x="192" y="-107.5" font-family="FreeSans" font-size="10.00"> myOrigin</text>
</g>
<!-- Node3 -->
<g id="node3" class="node"><title>Node3</title>
<polygon fill="white" stroke="#bfbfbf" points="53,-189.5 53,-208.5 109,-208.5 109,-189.5 53,-189.5"/>
<text text-anchor="middle" x="81" y="-196.5" font-family="FreeSans" font-size="10.00">TInteger</text>
</g>
<!-- Node3&#45;&gt;Node2 -->
<g id="edge4" class="edge"><title>Node3&#45;&gt;Node2</title>
<path fill="none" stroke="#9a32cd" stroke-dasharray="5,2" d="M81,-179.2C81,-164.879 81,-145.215 81,-130.68"/>
<polygon fill="#9a32cd" stroke="#9a32cd" points="77.5001,-179.34 81,-189.34 84.5001,-179.34 77.5001,-179.34"/>
<text text-anchor="middle" x="86" y="-163" font-family="FreeSans" font-size="10.00"> p</text>
<text text-anchor="middle" x="86" y="-152" font-family="FreeSans" font-size="10.00">q</text>
</g>
</g>
</svg>
