<?xml version="1.0" encoding="UTF-8" standalone="no"?>
<!DOCTYPE svg PUBLIC "-//W3C//DTD SVG 1.1//EN"
 "http://www.w3.org/Graphics/SVG/1.1/DTD/svg11.dtd">
<!-- Generated by graphviz version 2.38.0 (20140413.2041)
 -->
<!-- Title: DGtal::PlaneProbingRNeighborhood&lt; TPredicate &gt; Pages: 1 -->
<svg width="199pt" height="173pt"
 viewBox="0.00 0.00 199.00 173.00" xmlns="http://www.w3.org/2000/svg" xmlns:xlink="http://www.w3.org/1999/xlink">
<g id="graph0" class="graph" transform="scale(1 1) rotate(0) translate(4 169)">
<title>DGtal::PlaneProbingRNeighborhood&lt; TPredicate &gt;</title>
<polygon fill="white" stroke="none" points="-4,4 -4,-169 195,-169 195,4 -4,4"/>
<!-- Node0 -->
<g id="node1" class="node"><title>Node0</title>
<polygon fill="#bfbfbf" stroke="black" points="3,-67.5 3,-97.5 188,-97.5 188,-67.5 3,-67.5"/>
<text text-anchor="start" x="11" y="-85.5" font-family="FreeSans" font-size="10.00">DGtal::PlaneProbingRNeighborhood</text>
<text text-anchor="middle" x="95.5" y="-74.5" font-family="FreeSans" font-size="10.00">&lt; TPredicate &gt;</text>
</g>
<!-- Node2 -->
<g id="node3" class="node"><title>Node2</title>
<g id="a_node3"><a xlink:href="classDGtal_1_1PlaneProbingR1Neighborhood.html" target="_top" xlink:title="Aim: Represent a way to probe the R&#45;neighborhood, with the R1 optimization, see &#160;for details...">
<polygon fill="white" stroke="black" points="0,-0.5 0,-30.5 191,-30.5 191,-0.5 0,-0.5"/>
<text text-anchor="start" x="8" y="-18.5" font-family="FreeSans" font-size="10.00">DGtal::PlaneProbingR1Neighborhood</text>
<text text-anchor="middle" x="95.5" y="-7.5" font-family="FreeSans" font-size="10.00">&lt; TPredicate &gt;</text>
</a>
</g>
</g>
<!-- Node0&#45;&gt;Node2 -->
<g id="edge2" class="edge"><title>Node0&#45;&gt;Node2</title>
<path fill="none" stroke="midnightblue" d="M95.5,-57.1081C95.5,-48.1539 95.5,-38.3227 95.5,-30.5765"/>
<polygon fill="midnightblue" stroke="midnightblue" points="92.0001,-57.3959 95.5,-67.396 99.0001,-57.396 92.0001,-57.3959"/>
</g>
<!-- Node1 -->
<g id="node2" class="node"><title>Node1</title>
<g id="a_node2"><a xlink:href="classDGtal_1_1PlaneProbingNeighborhood.html" target="_top" xlink:title="Aim: A base virtual class that represents a way to probe a neighborhood, used in the plane probing ba...">
<polygon fill="white" stroke="black" points="6,-134.5 6,-164.5 185,-164.5 185,-134.5 6,-134.5"/>
<text text-anchor="start" x="14" y="-152.5" font-family="FreeSans" font-size="10.00">DGtal::PlaneProbingNeighborhood</text>
<text text-anchor="middle" x="95.5" y="-141.5" font-family="FreeSans" font-size="10.00">&lt; TPredicate &gt;</text>
</a>
</g>
</g>
<!-- Node1&#45;&gt;Node0 -->
<g id="edge1" class="edge"><title>Node1&#45;&gt;Node0</title>
<path fill="none" stroke="midnightblue" d="M95.5,-124.108C95.5,-115.154 95.5,-105.323 95.5,-97.5765"/>
<polygon fill="midnightblue" stroke="midnightblue" points="92.0001,-124.396 95.5,-134.396 99.0001,-124.396 92.0001,-124.396"/>
</g>
</g>
</svg>
