<?xml version="1.0" encoding="UTF-8" standalone="no"?>
<!DOCTYPE svg PUBLIC "-//W3C//DTD SVG 1.1//EN"
 "http://www.w3.org/Graphics/SVG/1.1/DTD/svg11.dtd">
<!-- Generated by graphviz version 2.38.0 (20140413.2041)
 -->
<!-- Title: DGtal::StandardDSL&lt; TCoordinate, TInteger &gt; Pages: 1 -->
<svg width="225pt" height="196pt"
 viewBox="0.00 0.00 224.50 196.00" xmlns="http://www.w3.org/2000/svg" xmlns:xlink="http://www.w3.org/1999/xlink">
<g id="graph0" class="graph" transform="scale(1 1) rotate(0) translate(4 192)">
<title>DGtal::StandardDSL&lt; TCoordinate, TInteger &gt;</title>
<polygon fill="white" stroke="none" points="-4,4 -4,-192 220.5,-192 220.5,4 -4,4"/>
<!-- Node0 -->
<g id="node1" class="node"><title>Node0</title>
<polygon fill="#bfbfbf" stroke="black" points="6,-0.5 6,-30.5 147,-30.5 147,-0.5 6,-0.5"/>
<text text-anchor="start" x="14" y="-18.5" font-family="FreeSans" font-size="10.00">DGtal::StandardDSL</text>
<text text-anchor="middle" x="76.5" y="-7.5" font-family="FreeSans" font-size="10.00">&lt; TCoordinate, TInteger &gt;</text>
</g>
<!-- Node1 -->
<g id="node2" class="node"><title>Node1</title>
<g id="a_node2"><a xlink:href="classDGtal_1_1ArithmeticalDSL.html" target="_top" xlink:title="DGtal::ArithmeticalDSL\l\&lt; TCoordinate, TInteger, 4 \&gt;">
<polygon fill="white" stroke="black" points="0,-68.5 0,-98.5 153,-98.5 153,-68.5 0,-68.5"/>
<text text-anchor="start" x="8" y="-86.5" font-family="FreeSans" font-size="10.00">DGtal::ArithmeticalDSL</text>
<text text-anchor="middle" x="76.5" y="-75.5" font-family="FreeSans" font-size="10.00">&lt; TCoordinate, TInteger, 4 &gt;</text>
</a>
</g>
</g>
<!-- Node1&#45;&gt;Node0 -->
<g id="edge1" class="edge"><title>Node1&#45;&gt;Node0</title>
<path fill="none" stroke="midnightblue" d="M76.5,-58.0322C76.5,-48.8606 76.5,-38.7449 76.5,-30.7931"/>
<polygon fill="midnightblue" stroke="midnightblue" points="73.0001,-58.1789 76.5,-68.179 80.0001,-58.179 73.0001,-58.1789"/>
</g>
<!-- Node2 -->
<g id="node3" class="node"><title>Node2</title>
<g id="a_node3"><a xlink:href="classDGtal_1_1ArithmeticalDSL.html" target="_top" xlink:title="Aim: This class represents a naive (resp. standard) digital straight line (DSL), ie. the set of digital points &#160;such that &#160;with , &#160;and &#160;(resp. ). Note that any DSL such that &#160;(resp. ) is simply 8&#45;connected (resp. 4&#45;connected). ">
<polygon fill="white" stroke="black" points="10,-146.5 10,-187.5 143,-187.5 143,-146.5 10,-146.5"/>
<text text-anchor="start" x="18" y="-175.5" font-family="FreeSans" font-size="10.00">DGtal::ArithmeticalDSL</text>
<text text-anchor="start" x="18" y="-164.5" font-family="FreeSans" font-size="10.00">&lt; TCoordinate, TInteger,</text>
<text text-anchor="middle" x="76.5" y="-153.5" font-family="FreeSans" font-size="10.00"> adjacency &gt;</text>
</a>
</g>
</g>
<!-- Node2&#45;&gt;Node1 -->
<g id="edge2" class="edge"><title>Node2&#45;&gt;Node1</title>
<path fill="none" stroke="orange" stroke-dasharray="5,2" d="M76.5,-136.025C76.5,-123.258 76.5,-108.97 76.5,-98.6846"/>
<polygon fill="orange" stroke="orange" points="73.0001,-136.271 76.5,-146.271 80.0001,-136.271 73.0001,-136.271"/>
<text text-anchor="middle" x="146.5" y="-120" font-family="FreeSans" font-size="10.00"> &lt; TCoordinate, TInteger, 4 &gt;</text>
</g>
</g>
</svg>
