<?xml version="1.0" encoding="UTF-8" standalone="no"?>
<!DOCTYPE svg PUBLIC "-//W3C//DTD SVG 1.1//EN"
 "http://www.w3.org/Graphics/SVG/1.1/DTD/svg11.dtd">
<!-- Generated by graphviz version 2.36.0 (20140111.2315)
 -->
<!-- Title: DGtal::COBANaivePlaneComputer&lt; TSpace, TInternalInteger &gt; Pages: 1 -->
<!--zoomable 736 -->
<svg id="main" version="1.1" xmlns="http://www.w3.org/2000/svg" xmlns:xlink="http://www.w3.org/1999/xlink" xml:space="preserve" onload="init(evt)">
<style type="text/css"><![CDATA[
.edge:hover path { stroke: red; }
.edge:hover polygon { stroke: red; fill: red; }
]]></style>
<script type="text/javascript"><![CDATA[
var edges = document.getElementsByTagName('g');
if (edges && edges.length) {
  for (var i=0;i<edges.length;i++) {
    if (edges[i].id.substr(0,4)=='edge') {
      edges[i].setAttribute('class','edge');
    }
  }
}
]]></script>
        <defs>
                <circle id="rim" cx="0" cy="0" r="7"/>
                <circle id="rim2" cx="0" cy="0" r="3.5"/>
                <g id="zoomPlus">
                        <use xlink:href="#rim" fill="#404040">
                                <set attributeName="fill" to="#808080" begin="zoomplus.mouseover" end="zoomplus.mouseout"/>
                        </use>
                        <path d="M-4,0h8M0,-4v8" fill="none" stroke="white" stroke-width="1.5" pointer-events="none"/>
                </g>
                <g id="zoomMin">
                        <use xlink:href="#rim" fill="#404040">
                                <set attributeName="fill" to="#808080" begin="zoomminus.mouseover" end="zoomminus.mouseout"/>
                        </use>
                        <path d="M-4,0h8" fill="none" stroke="white" stroke-width="1.5" pointer-events="none"/>
                </g>
                <g id="dirArrow">
                        <path fill="none" stroke="white" stroke-width="1.5" d="M0,-3.0v7 M-2.5,-0.5L0,-3.0L2.5,-0.5"/>
                </g>
               <g id="resetDef">
                       <use xlink:href="#rim2" fill="#404040">
                               <set attributeName="fill" to="#808080" begin="reset.mouseover" end="reset.mouseout"/>
                       </use>
               </g>
        </defs>

<script type="text/javascript">
var viewWidth = 2652;
var viewHeight = 736;
var sectionId = 'dynsection-1';
</script>
<script xlink:href="svgpan.js"/>
<svg id="graph" class="graph">
<g id="viewport">
<title>DGtal::COBANaivePlaneComputer&lt; TSpace, TInternalInteger &gt;</title>
<polygon fill="white" stroke="none" points="-4,4 -4,-731.911 2648,-731.911 2648,4 -4,4"/>
<!-- Node3 -->
<g id="node1" class="node"><title>Node3</title>
<polygon fill="#bfbfbf" stroke="black" points="2464.5,-163.911 2464.5,-193.911 2643.5,-193.911 2643.5,-163.911 2464.5,-163.911"/>
<text text-anchor="start" x="2472.5" y="-181.911" font-family="FreeSans" font-size="10.00">DGtal::COBANaivePlaneComputer</text>
<text text-anchor="middle" x="2554" y="-170.911" font-family="FreeSans" font-size="10.00">&lt; TSpace, TInternalInteger &gt;</text>
</g>
<!-- Node4 -->
<g id="node2" class="node"><title>Node4</title>
<polygon fill="white" stroke="#bfbfbf" points="1550.5,-58.4107 1550.5,-77.4107 1649.5,-77.4107 1649.5,-58.4107 1550.5,-58.4107"/>
<text text-anchor="middle" x="1600" y="-65.4107" font-family="FreeSans" font-size="10.00">std::set&lt; Point &gt;</text>
</g>
<!-- Node4&#45;&gt;Node3 -->
<g id="edge1" class="edge"><title>Node4&#45;&gt;Node3</title>
<path fill="none" stroke="#9a32cd" stroke-dasharray="5,2" d="M1659.59,-67.4806C1701.49,-67.2096 1759.22,-66.9107 1810,-66.9107 1810,-66.9107 1810,-66.9107 2297,-66.9107 2392.57,-66.9107 2492.65,-133.235 2533.7,-163.806"/>
<polygon fill="#9a32cd" stroke="#9a32cd" points="1659.54,-63.9808 1649.57,-67.5469 1659.59,-70.9806 1659.54,-63.9808"/>
<text text-anchor="middle" x="2083" y="-69.9107" font-family="FreeSans" font-size="10.00"> myPointSet</text>
</g>
<!-- Node5 -->
<g id="node3" class="node"><title>Node5</title>
<g id="a_node3"><a xlink:href="classDGtal_1_1PointVector.html" target="_top" xlink:title="Aim: Implements basic operations that will be used in Point and Vector classes. ">
<polygon fill="white" stroke="black" points="1261,-194.411 1261,-235.411 1387,-235.411 1387,-194.411 1261,-194.411"/>
<text text-anchor="start" x="1269" y="-223.411" font-family="FreeSans" font-size="10.00">DGtal::PointVector</text>
<text text-anchor="start" x="1269" y="-212.411" font-family="FreeSans" font-size="10.00">&lt; dim, TEuclideanRing,</text>
<text text-anchor="middle" x="1324" y="-201.411" font-family="FreeSans" font-size="10.00"> TContainer &gt;</text>
</a>
</g>
</g>
<!-- Node5&#45;&gt;Node3 -->
<g id="edge46" class="edge"><title>Node5&#45;&gt;Node3</title>
<path fill="none" stroke="#9a32cd" stroke-dasharray="5,2" d="M1397.29,-223.192C1400.91,-223.468 1404.49,-223.711 1408,-223.911 1556.21,-232.368 1593.55,-225.466 1742,-225.911 1803.33,-226.094 1818.68,-227.001 1880,-225.911 2105,-221.91 2161.17,-217.53 2386,-207.911 2412.68,-206.769 2419.58,-208.747 2446,-204.911 2463.69,-202.343 2482.73,-198.182 2499.78,-193.935"/>
<polygon fill="#9a32cd" stroke="#9a32cd" points="1397.29,-219.68 1387.03,-222.336 1396.71,-226.656 1397.29,-219.68"/>
<text text-anchor="middle" x="1947" y="-239.911" font-family="FreeSans" font-size="10.00"> _grad</text>
<text text-anchor="middle" x="1947" y="-228.911" font-family="FreeSans" font-size="10.00">myWidth</text>
</g>
<!-- Node5&#45;&gt;Node4 -->
<g id="edge2" class="edge"><title>Node5&#45;&gt;Node4</title>
<path fill="none" stroke="#9a32cd" stroke-dasharray="5,2" d="M1346.27,-186.425C1361.58,-167.71 1383.75,-143.987 1408,-128.911 1452.2,-101.438 1509.91,-85.2491 1550.28,-76.5343"/>
<polygon fill="#9a32cd" stroke="#9a32cd" points="1343.44,-184.361 1339.94,-194.36 1348.91,-188.727 1343.44,-184.361"/>
<text text-anchor="middle" x="1462" y="-131.911" font-family="FreeSans" font-size="10.00"> keys</text>
</g>
<!-- Node5&#45;&gt;Node5 -->
<g id="edge4" class="edge"><title>Node5&#45;&gt;Node5</title>
<path fill="none" stroke="#9a32cd" stroke-dasharray="5,2" d="M1300.68,-245.512C1304.4,-249.934 1312.17,-252.911 1324,-252.911 1343.41,-252.911 1351.9,-244.895 1349.47,-235.627"/>
<polygon fill="#9a32cd" stroke="#9a32cd" points="1304.08,-244.652 1298.53,-235.627 1297.24,-246.143 1304.08,-244.652"/>
<text text-anchor="middle" x="1324" y="-255.911" font-family="FreeSans" font-size="10.00"> zero</text>
</g>
<!-- Node9 -->
<g id="node7" class="node"><title>Node9</title>
<g id="a_node7"><a xlink:href="structDGtal_1_1COBANaivePlaneComputer_1_1State.html" target="_top" xlink:title="DGtal::COBANaivePlaneComputer\l\&lt; TSpace, TInternalInteger\l \&gt;::State">
<polygon fill="white" stroke="black" points="2206.5,-158.411 2206.5,-199.411 2385.5,-199.411 2385.5,-158.411 2206.5,-158.411"/>
<text text-anchor="start" x="2214.5" y="-187.411" font-family="FreeSans" font-size="10.00">DGtal::COBANaivePlaneComputer</text>
<text text-anchor="start" x="2214.5" y="-176.411" font-family="FreeSans" font-size="10.00">&lt; TSpace, TInternalInteger</text>
<text text-anchor="middle" x="2296" y="-165.411" font-family="FreeSans" font-size="10.00"> &gt;::State</text>
</a>
</g>
</g>
<!-- Node5&#45;&gt;Node9 -->
<g id="edge45" class="edge"><title>Node5&#45;&gt;Node9</title>
<path fill="none" stroke="#9a32cd" stroke-dasharray="5,2" d="M1397.26,-212.229C1571.79,-205.752 2015.93,-189.268 2206.24,-182.205"/>
<polygon fill="#9a32cd" stroke="#9a32cd" points="1397.02,-208.735 1387.15,-212.604 1397.28,-215.731 1397.02,-208.735"/>
<text text-anchor="middle" x="1811" y="-213.911" font-family="FreeSans" font-size="10.00"> ptMin</text>
<text text-anchor="middle" x="1811" y="-202.911" font-family="FreeSans" font-size="10.00">ptMax</text>
</g>
<!-- Node10 -->
<g id="node8" class="node"><title>Node10</title>
<g id="a_node8"><a xlink:href="classDGtal_1_1PointVector.html" target="_top" xlink:title="DGtal::PointVector\l\&lt; 3, InternalInteger \&gt;">
<polygon fill="white" stroke="black" points="1539.5,-137.911 1539.5,-167.911 1660.5,-167.911 1660.5,-137.911 1539.5,-137.911"/>
<text text-anchor="start" x="1547.5" y="-155.911" font-family="FreeSans" font-size="10.00">DGtal::PointVector</text>
<text text-anchor="middle" x="1600" y="-144.911" font-family="FreeSans" font-size="10.00">&lt; 3, InternalInteger &gt;</text>
</a>
</g>
</g>
<!-- Node5&#45;&gt;Node10 -->
<g id="edge10" class="edge"><title>Node5&#45;&gt;Node10</title>
<path fill="none" stroke="#9a32cd" stroke-dasharray="5,2" d="M1354.02,-187.666C1368.95,-175.481 1388.16,-162.417 1408,-155.911 1450.39,-142.013 1500.96,-141.891 1539.41,-144.905"/>
<polygon fill="#9a32cd" stroke="#9a32cd" points="1351.56,-185.163 1346.19,-194.297 1356.09,-190.505 1351.56,-185.163"/>
<text text-anchor="middle" x="1462" y="-158.911" font-family="FreeSans" font-size="10.00"> zero</text>
</g>
<!-- Node5&#45;&gt;Node10 -->
<g id="edge11" class="edge"><title>Node5&#45;&gt;Node10</title>
<path fill="none" stroke="orange" stroke-dasharray="5,2" d="M1397.11,-192.714C1400.78,-191.733 1404.43,-190.792 1408,-189.911 1451.61,-179.147 1501.46,-169.581 1539.3,-162.873"/>
<polygon fill="orange" stroke="orange" points="1396.07,-189.369 1387.36,-195.391 1397.93,-196.119 1396.07,-189.369"/>
<text text-anchor="middle" x="1462" y="-192.911" font-family="FreeSans" font-size="10.00"> &lt; 3, InternalInteger &gt;</text>
</g>
<!-- Node11 -->
<g id="node9" class="node"><title>Node11</title>
<g id="a_node9"><a xlink:href="classDGtal_1_1LatticePolytope2D.html" target="_top" xlink:title="DGtal::LatticePolytope2D\l\&lt; InternalSpace2 \&gt;">
<polygon fill="white" stroke="black" points="2014.5,-348.911 2014.5,-378.911 2151.5,-378.911 2151.5,-348.911 2014.5,-348.911"/>
<text text-anchor="start" x="2022.5" y="-366.911" font-family="FreeSans" font-size="10.00">DGtal::LatticePolytope2D</text>
<text text-anchor="middle" x="2083" y="-355.911" font-family="FreeSans" font-size="10.00">&lt; InternalSpace2 &gt;</text>
</a>
</g>
</g>
<!-- Node5&#45;&gt;Node11 -->
<g id="edge40" class="edge"><title>Node5&#45;&gt;Node11</title>
<path fill="none" stroke="#9a32cd" stroke-dasharray="5,2" d="M1370.36,-239.932C1382.28,-245.462 1395.35,-250.643 1408,-253.911 1544.28,-289.117 1584.93,-253.18 1724,-274.911 1836.32,-292.462 1964.99,-328.461 2033.34,-348.888"/>
<polygon fill="#9a32cd" stroke="#9a32cd" points="1371.61,-236.646 1361.08,-235.451 1368.56,-242.95 1371.61,-236.646"/>
<text text-anchor="middle" x="1704" y="-387.911" font-family="FreeSans" font-size="10.00"> _N</text>
<text text-anchor="middle" x="1704" y="-376.911" font-family="FreeSans" font-size="10.00">_A</text>
<text text-anchor="middle" x="1704" y="-365.911" font-family="FreeSans" font-size="10.00">_u</text>
<text text-anchor="middle" x="1704" y="-354.911" font-family="FreeSans" font-size="10.00">_B</text>
<text text-anchor="middle" x="1704" y="-343.911" font-family="FreeSans" font-size="10.00">_v</text>
<text text-anchor="middle" x="1704" y="-332.911" font-family="FreeSans" font-size="10.00">_B1</text>
<text text-anchor="middle" x="1704" y="-321.911" font-family="FreeSans" font-size="10.00">_DV</text>
<text text-anchor="middle" x="1704" y="-310.911" font-family="FreeSans" font-size="10.00">_B2</text>
<text text-anchor="middle" x="1704" y="-299.911" font-family="FreeSans" font-size="10.00">_A1</text>
<text text-anchor="middle" x="1704" y="-288.911" font-family="FreeSans" font-size="10.00">_A2</text>
<text text-anchor="middle" x="1704" y="-277.911" font-family="FreeSans" font-size="10.00">...</text>
</g>
<!-- Node28 -->
<g id="node26" class="node"><title>Node28</title>
<polygon fill="white" stroke="#bfbfbf" points="1547,-463.911 1547,-493.911 1653,-493.911 1653,-463.911 1547,-463.911"/>
<text text-anchor="start" x="1555" y="-481.911" font-family="FreeSans" font-size="10.00">std::vector&lt; DGtal</text>
<text text-anchor="middle" x="1600" y="-470.911" font-family="FreeSans" font-size="10.00">::PointVector &gt;</text>
</g>
<!-- Node5&#45;&gt;Node28 -->
<g id="edge38" class="edge"><title>Node5&#45;&gt;Node28</title>
<path fill="none" stroke="#9a32cd" stroke-dasharray="5,2" d="M1337.68,-244.743C1351.05,-272.497 1374.81,-312.797 1408,-334.911 1448.84,-362.123 1481.55,-322.957 1516,-357.911 1544.94,-387.275 1508.5,-416.514 1534,-448.911 1538.77,-454.966 1545.04,-459.848 1551.8,-463.769"/>
<polygon fill="#9a32cd" stroke="#9a32cd" points="1340.77,-243.093 1333.38,-235.5 1334.42,-246.044 1340.77,-243.093"/>
<text text-anchor="middle" x="1462" y="-360.911" font-family="FreeSans" font-size="10.00"> elements</text>
</g>
<!-- Node29 -->
<g id="node27" class="node"><title>Node29</title>
<g id="a_node27"><a xlink:href="classDGtal_1_1LatticePolytope2D.html" target="_top" xlink:title="Aim: Represents a 2D polytope, i.e. a convex polygon, in the two&#45;dimensional digital plane...">
<polygon fill="white" stroke="black" points="1742.5,-479.911 1742.5,-509.911 1879.5,-509.911 1879.5,-479.911 1742.5,-479.911"/>
<text text-anchor="start" x="1750.5" y="-497.911" font-family="FreeSans" font-size="10.00">DGtal::LatticePolytope2D</text>
<text text-anchor="middle" x="1811" y="-486.911" font-family="FreeSans" font-size="10.00">&lt; TSpace, TSequence &gt;</text>
</a>
</g>
</g>
<!-- Node5&#45;&gt;Node29 -->
<g id="edge44" class="edge"><title>Node5&#45;&gt;Node29</title>
<path fill="none" stroke="#9a32cd" stroke-dasharray="5,2" d="M1348.01,-243.487C1363.22,-260.339 1384.61,-280.531 1408,-291.911 1512.41,-342.701 1579.71,-255.227 1666,-332.911 1688.92,-353.541 1669.84,-372.521 1684,-399.911 1702.56,-435.8 1709.01,-446.58 1742,-469.911 1747.34,-473.688 1753.32,-476.962 1759.45,-479.781"/>
<polygon fill="#9a32cd" stroke="#9a32cd" points="1350.28,-240.762 1341.07,-235.535 1345.01,-245.368 1350.28,-240.762"/>
<text text-anchor="middle" x="1600" y="-445.911" font-family="FreeSans" font-size="10.00"> _N</text>
<text text-anchor="middle" x="1600" y="-434.911" font-family="FreeSans" font-size="10.00">_A</text>
<text text-anchor="middle" x="1600" y="-423.911" font-family="FreeSans" font-size="10.00">_u</text>
<text text-anchor="middle" x="1600" y="-412.911" font-family="FreeSans" font-size="10.00">_B</text>
<text text-anchor="middle" x="1600" y="-401.911" font-family="FreeSans" font-size="10.00">_v</text>
<text text-anchor="middle" x="1600" y="-390.911" font-family="FreeSans" font-size="10.00">_B1</text>
<text text-anchor="middle" x="1600" y="-379.911" font-family="FreeSans" font-size="10.00">_DV</text>
<text text-anchor="middle" x="1600" y="-368.911" font-family="FreeSans" font-size="10.00">_B2</text>
<text text-anchor="middle" x="1600" y="-357.911" font-family="FreeSans" font-size="10.00">_A1</text>
<text text-anchor="middle" x="1600" y="-346.911" font-family="FreeSans" font-size="10.00">_A2</text>
<text text-anchor="middle" x="1600" y="-335.911" font-family="FreeSans" font-size="10.00">...</text>
</g>
<!-- Node6 -->
<g id="node4" class="node"><title>Node6</title>
<polygon fill="white" stroke="#bfbfbf" points="1006,-144.411 1006,-163.411 1074,-163.411 1074,-144.411 1006,-144.411"/>
<text text-anchor="middle" x="1040" y="-151.411" font-family="FreeSans" font-size="10.00">TContainer</text>
</g>
<!-- Node6&#45;&gt;Node5 -->
<g id="edge3" class="edge"><title>Node6&#45;&gt;Node5</title>
<path fill="none" stroke="#9a32cd" stroke-dasharray="5,2" d="M1084.08,-163.229C1131.25,-173.433 1207.32,-189.888 1260.93,-201.485"/>
<polygon fill="#9a32cd" stroke="#9a32cd" points="1084.69,-159.781 1074.18,-161.088 1083.21,-166.623 1084.69,-159.781"/>
<text text-anchor="middle" x="1183" y="-199.911" font-family="FreeSans" font-size="10.00"> myArray</text>
</g>
<!-- Node6&#45;&gt;Node10 -->
<g id="edge9" class="edge"><title>Node6&#45;&gt;Node10</title>
<path fill="none" stroke="#9a32cd" stroke-dasharray="5,2" d="M1084.31,-149.539C1167.9,-141.786 1357.26,-127.554 1516,-139.911 1523.56,-140.499 1531.48,-141.385 1539.29,-142.423"/>
<polygon fill="#9a32cd" stroke="#9a32cd" points="1083.8,-146.071 1074.17,-150.496 1084.46,-153.04 1083.8,-146.071"/>
<text text-anchor="middle" x="1324" y="-140.911" font-family="FreeSans" font-size="10.00"> myArray</text>
</g>
<!-- Node7 -->
<g id="node5" class="node"><title>Node7</title>
<g id="a_node5"><a xlink:title="STL class. ">
<polygon fill="white" stroke="#bfbfbf" points="1283.5,-62.4107 1283.5,-81.4107 1364.5,-81.4107 1364.5,-62.4107 1283.5,-62.4107"/>
<text text-anchor="middle" x="1324" y="-69.4107" font-family="FreeSans" font-size="10.00">std::set&lt; K &gt;</text>
</a>
</g>
</g>
<!-- Node7&#45;&gt;Node4 -->
<g id="edge5" class="edge"><title>Node7&#45;&gt;Node4</title>
<path fill="none" stroke="orange" stroke-dasharray="5,2" d="M1374.85,-65.622C1385.75,-64.4931 1397.25,-63.4918 1408,-62.9107 1456.36,-60.2965 1511.68,-62.2904 1550.3,-64.4866"/>
<polygon fill="orange" stroke="orange" points="1374.18,-62.174 1364.61,-66.7339 1374.93,-69.1331 1374.18,-62.174"/>
<text text-anchor="middle" x="1462" y="-65.9107" font-family="FreeSans" font-size="10.00"> &lt; Point &gt;</text>
</g>
<!-- Node8 -->
<g id="node6" class="node"><title>Node8</title>
<polygon fill="white" stroke="#bfbfbf" points="1025.5,-72.4107 1025.5,-91.4107 1054.5,-91.4107 1054.5,-72.4107 1025.5,-72.4107"/>
<text text-anchor="middle" x="1040" y="-79.4107" font-family="FreeSans" font-size="10.00">K</text>
</g>
<!-- Node8&#45;&gt;Node7 -->
<g id="edge6" class="edge"><title>Node8&#45;&gt;Node7</title>
<path fill="none" stroke="#9a32cd" stroke-dasharray="5,2" d="M1064.74,-81.0689C1113.21,-79.3502 1223.97,-75.4225 1283.47,-73.3125"/>
<polygon fill="#9a32cd" stroke="#9a32cd" points="1064.47,-77.5761 1054.6,-81.4284 1064.72,-84.5717 1064.47,-77.5761"/>
<text text-anchor="middle" x="1183" y="-81.9107" font-family="FreeSans" font-size="10.00"> keys</text>
</g>
<!-- Node9&#45;&gt;Node3 -->
<g id="edge7" class="edge"><title>Node9&#45;&gt;Node3</title>
<path fill="none" stroke="#9a32cd" stroke-dasharray="5,2" d="M2396.05,-178.911C2418.55,-178.911 2442.31,-178.911 2464.34,-178.911"/>
<polygon fill="#9a32cd" stroke="#9a32cd" points="2395.82,-175.411 2385.82,-178.911 2395.82,-182.411 2395.82,-175.411"/>
<text text-anchor="middle" x="2425" y="-192.911" font-family="FreeSans" font-size="10.00"> _state</text>
<text text-anchor="middle" x="2425" y="-181.911" font-family="FreeSans" font-size="10.00">myState</text>
</g>
<!-- Node10&#45;&gt;Node9 -->
<g id="edge8" class="edge"><title>Node10&#45;&gt;Node9</title>
<path fill="none" stroke="#9a32cd" stroke-dasharray="5,2" d="M1670.9,-151.382C1749.87,-150.052 1882.24,-149.019 1996,-153.911 2066.91,-156.96 2147.03,-163.845 2206.48,-169.619"/>
<polygon fill="#9a32cd" stroke="#9a32cd" points="1670.53,-147.888 1660.59,-151.563 1670.65,-154.887 1670.53,-147.888"/>
<text text-anchor="middle" x="1947" y="-167.911" font-family="FreeSans" font-size="10.00"> N</text>
<text text-anchor="middle" x="1947" y="-156.911" font-family="FreeSans" font-size="10.00">centroid</text>
</g>
<!-- Node11&#45;&gt;Node9 -->
<g id="edge12" class="edge"><title>Node11&#45;&gt;Node9</title>
<path fill="none" stroke="#9a32cd" stroke-dasharray="5,2" d="M2108.92,-342.061C2149.99,-306.049 2231.35,-234.721 2271.48,-199.531"/>
<polygon fill="#9a32cd" stroke="#9a32cd" points="2106.48,-339.547 2101.27,-348.771 2111.09,-344.81 2106.48,-339.547"/>
<text text-anchor="middle" x="2179" y="-291.911" font-family="FreeSans" font-size="10.00"> cip</text>
</g>
<!-- Node12 -->
<g id="node10" class="node"><title>Node12</title>
<polygon fill="white" stroke="#bfbfbf" points="972,-22.9107 972,-52.9107 1108,-52.9107 1108,-22.9107 972,-22.9107"/>
<text text-anchor="start" x="980" y="-40.9107" font-family="FreeSans" font-size="10.00">std::list&lt; typename</text>
<text text-anchor="middle" x="1040" y="-29.9107" font-family="FreeSans" font-size="10.00"> InternalSpace2 ::Point &gt;</text>
</g>
<!-- Node12&#45;&gt;Node11 -->
<g id="edge13" class="edge"><title>Node12&#45;&gt;Node11</title>
<path fill="none" stroke="#9a32cd" stroke-dasharray="5,2" d="M1118.15,-23.1513C1238.52,-3.3561 1476.81,22.7634 1666,-37.9107 1777.33,-73.6164 1811.99,-95.8057 1880,-190.911 1896.19,-213.557 1880.76,-229.049 1898,-250.911 1929.2,-290.476 1953.1,-281.488 1996,-307.911 2017.85,-321.365 2042.33,-337.402 2059.56,-348.859"/>
<polygon fill="#9a32cd" stroke="#9a32cd" points="1117.57,-19.7002 1108.28,-24.8037 1118.72,-26.6041 1117.57,-19.7002"/>
<text text-anchor="middle" x="1600" y="-40.9107" font-family="FreeSans" font-size="10.00"> myVertices</text>
</g>
<!-- Node13 -->
<g id="node11" class="node"><title>Node13</title>
<g id="a_node11"><a xlink:href="classDGtal_1_1SpaceND.html" target="_top" xlink:title="Aim: SpaceND is a utility class that defines the fundamental structure of a Digital Space in ND...">
<polygon fill="white" stroke="black" points="729.5,-194.911 729.5,-224.911 856.5,-224.911 856.5,-194.911 729.5,-194.911"/>
<text text-anchor="start" x="737.5" y="-212.911" font-family="FreeSans" font-size="10.00">DGtal::SpaceND&lt; dim,</text>
<text text-anchor="middle" x="793" y="-201.911" font-family="FreeSans" font-size="10.00"> TInteger &gt;</text>
</a>
</g>
</g>
<!-- Node13&#45;&gt;Node12 -->
<g id="edge14" class="edge"><title>Node13&#45;&gt;Node12</title>
<path fill="none" stroke="#9a32cd" stroke-dasharray="5,2" d="M826.15,-189.065C860.008,-166.262 913.872,-127.518 954,-86.9107 963.372,-77.4267 961.323,-70.897 972,-62.9107 977.07,-59.1181 982.78,-55.8445 988.672,-53.0335"/>
<polygon fill="#9a32cd" stroke="#9a32cd" points="823.952,-186.324 817.576,-194.786 827.837,-192.146 823.952,-186.324"/>
<text text-anchor="middle" x="918" y="-151.911" font-family="FreeSans" font-size="10.00"> elements</text>
</g>
<!-- Node19 -->
<g id="node17" class="node"><title>Node19</title>
<g id="a_node17"><a xlink:href="classDGtal_1_1SpaceND.html" target="_top" xlink:title="DGtal::SpaceND\&lt; 2,\l Integer \&gt;">
<polygon fill="white" stroke="black" points="982.5,-367.911 982.5,-397.911 1097.5,-397.911 1097.5,-367.911 982.5,-367.911"/>
<text text-anchor="start" x="990.5" y="-385.911" font-family="FreeSans" font-size="10.00">DGtal::SpaceND&lt; 2,</text>
<text text-anchor="middle" x="1040" y="-374.911" font-family="FreeSans" font-size="10.00"> Integer &gt;</text>
</a>
</g>
</g>
<!-- Node13&#45;&gt;Node19 -->
<g id="edge22" class="edge"><title>Node13&#45;&gt;Node19</title>
<path fill="none" stroke="orange" stroke-dasharray="5,2" d="M823.772,-230.933C873.847,-266.292 973.744,-336.832 1017.56,-367.772"/>
<polygon fill="orange" stroke="orange" points="825.501,-227.87 815.314,-224.961 821.463,-233.588 825.501,-227.87"/>
<text text-anchor="middle" x="918" y="-325.911" font-family="FreeSans" font-size="10.00"> &lt; 2, Integer &gt;</text>
</g>
<!-- Node14 -->
<g id="node12" class="node"><title>Node14</title>
<g id="a_node12"><a xlink:title="STL class. ">
<polygon fill="white" stroke="#bfbfbf" points="286.5,-252.411 286.5,-271.411 365.5,-271.411 365.5,-252.411 286.5,-252.411"/>
<text text-anchor="middle" x="326" y="-259.411" font-family="FreeSans" font-size="10.00">std::list&lt; T &gt;</text>
</a>
</g>
</g>
<!-- Node14&#45;&gt;Node12 -->
<g id="edge15" class="edge"><title>Node14&#45;&gt;Node12</title>
<path fill="none" stroke="orange" stroke-dasharray="5,2" d="M366.714,-249.344C457.79,-220.536 688.736,-147.539 882,-86.9107 918.371,-75.5007 959.504,-62.6657 990.541,-52.9947"/>
<polygon fill="orange" stroke="orange" points="365.55,-246.042 357.071,-252.395 367.661,-252.716 365.55,-246.042"/>
<text text-anchor="start" x="564.5" y="-200.911" font-family="FreeSans" font-size="10.00"> &lt; typename InternalSpace2</text>
<text text-anchor="middle" x="634" y="-189.911" font-family="FreeSans" font-size="10.00"> ::Point &gt;</text>
</g>
<!-- Node15 -->
<g id="node13" class="node"><title>Node15</title>
<polygon fill="white" stroke="#bfbfbf" points="0.5,-518.411 0.5,-537.411 29.5,-537.411 29.5,-518.411 0.5,-518.411"/>
<text text-anchor="middle" x="15" y="-525.411" font-family="FreeSans" font-size="10.00">T</text>
</g>
<!-- Node15&#45;&gt;Node14 -->
<g id="edge16" class="edge"><title>Node15&#45;&gt;Node14</title>
<path fill="none" stroke="#9a32cd" stroke-dasharray="5,2" d="M35.0948,-511.473C93.4084,-461.274 267.987,-310.99 313.859,-271.502"/>
<polygon fill="#9a32cd" stroke="#9a32cd" points="32.6592,-508.952 27.3639,-518.128 37.2261,-514.257 32.6592,-508.952"/>
<text text-anchor="middle" x="73" y="-502.911" font-family="FreeSans" font-size="10.00"> elements</text>
</g>
<!-- Node18 -->
<g id="node16" class="node"><title>Node18</title>
<g id="a_node16"><a xlink:title="STL class. ">
<polygon fill="white" stroke="#bfbfbf" points="745.5,-635.411 745.5,-654.411 840.5,-654.411 840.5,-635.411 745.5,-635.411"/>
<text text-anchor="middle" x="793" y="-642.411" font-family="FreeSans" font-size="10.00">std::vector&lt; T &gt;</text>
</a>
</g>
</g>
<!-- Node15&#45;&gt;Node18 -->
<g id="edge20" class="edge"><title>Node15&#45;&gt;Node18</title>
<path fill="none" stroke="#9a32cd" stroke-dasharray="5,2" d="M32.7491,-544.215C37.375,-547.93 42.6132,-551.491 48,-553.911 138.376,-594.515 169.802,-576.734 268,-589.911 443.653,-613.481 653.572,-632.878 745.276,-640.917"/>
<polygon fill="#9a32cd" stroke="#9a32cd" points="35.0085,-541.542 25.1838,-537.576 30.3911,-546.803 35.0085,-541.542"/>
<text text-anchor="middle" x="326" y="-606.911" font-family="FreeSans" font-size="10.00"> elements</text>
</g>
<!-- Node22 -->
<g id="node20" class="node"><title>Node22</title>
<g id="a_node20"><a xlink:href="structDGtal_1_1NumberTraitsImpl.html" target="_top" xlink:title="Aim: The traits class for all models of Cinteger (implementation) ">
<polygon fill="white" stroke="black" points="116,-512.911 116,-542.911 250,-542.911 250,-512.911 116,-512.911"/>
<text text-anchor="start" x="124" y="-530.911" font-family="FreeSans" font-size="10.00">DGtal::NumberTraitsImpl</text>
<text text-anchor="middle" x="183" y="-519.911" font-family="FreeSans" font-size="10.00">&lt; T, Enable &gt;</text>
</a>
</g>
</g>
<!-- Node15&#45;&gt;Node22 -->
<g id="edge26" class="edge"><title>Node15&#45;&gt;Node22</title>
<path fill="none" stroke="#9a32cd" stroke-dasharray="5,2" d="M39.8576,-527.911C59.7594,-527.911 89.1023,-527.911 115.968,-527.911"/>
<polygon fill="#9a32cd" stroke="#9a32cd" points="39.5845,-524.411 29.5845,-527.911 39.5844,-531.411 39.5845,-524.411"/>
<text text-anchor="middle" x="73" y="-541.911" font-family="FreeSans" font-size="10.00"> ONE</text>
<text text-anchor="middle" x="73" y="-530.911" font-family="FreeSans" font-size="10.00">ZERO</text>
</g>
<!-- Node16 -->
<g id="node14" class="node"><title>Node16</title>
<g id="a_node14"><a xlink:href="classDGtal_1_1IntegerComputer.html" target="_top" xlink:title="DGtal::IntegerComputer\l\&lt; Integer \&gt;">
<polygon fill="white" stroke="black" points="1534.5,-512.911 1534.5,-542.911 1665.5,-542.911 1665.5,-512.911 1534.5,-512.911"/>
<text text-anchor="start" x="1542.5" y="-530.911" font-family="FreeSans" font-size="10.00">DGtal::IntegerComputer</text>
<text text-anchor="middle" x="1600" y="-519.911" font-family="FreeSans" font-size="10.00">&lt; Integer &gt;</text>
</a>
</g>
</g>
<!-- Node16&#45;&gt;Node11 -->
<g id="edge17" class="edge"><title>Node16&#45;&gt;Node11</title>
<path fill="none" stroke="#9a32cd" stroke-dasharray="5,2" d="M1675.64,-542.984C1760.6,-555.844 1900,-563.442 1996,-499.911 2040.96,-470.155 2067.01,-407.966 2077.11,-379.16"/>
<polygon fill="#9a32cd" stroke="#9a32cd" points="1675.98,-539.495 1665.55,-541.394 1674.89,-546.409 1675.98,-539.495"/>
<text text-anchor="middle" x="1811" y="-553.911" font-family="FreeSans" font-size="10.00"> _ic</text>
</g>
<!-- Node16&#45;&gt;Node29 -->
<g id="edge42" class="edge"><title>Node16&#45;&gt;Node29</title>
<path fill="none" stroke="#9a32cd" stroke-dasharray="5,2" d="M1675.85,-516.092C1697.56,-512.665 1721.12,-508.944 1742.36,-505.591"/>
<polygon fill="#9a32cd" stroke="#9a32cd" points="1675.03,-512.678 1665.7,-517.695 1676.12,-519.593 1675.03,-512.678"/>
<text text-anchor="middle" x="1704" y="-516.911" font-family="FreeSans" font-size="10.00"> _ic</text>
</g>
<!-- Node17 -->
<g id="node15" class="node"><title>Node17</title>
<polygon fill="white" stroke="#bfbfbf" points="978,-635.411 978,-654.411 1102,-654.411 1102,-635.411 978,-635.411"/>
<text text-anchor="middle" x="1040" y="-642.411" font-family="FreeSans" font-size="10.00">std::vector&lt; Integer &gt;</text>
</g>
<!-- Node17&#45;&gt;Node16 -->
<g id="edge18" class="edge"><title>Node17&#45;&gt;Node16</title>
<path fill="none" stroke="#9a32cd" stroke-dasharray="5,2" d="M1112.53,-654.78C1184.18,-662.203 1296.88,-667.13 1390,-640.911 1464.84,-619.837 1542.78,-568.531 1578.68,-542.941"/>
<polygon fill="#9a32cd" stroke="#9a32cd" points="1112.58,-651.265 1102.26,-653.67 1111.83,-658.225 1112.58,-651.265"/>
<text text-anchor="middle" x="1324" y="-662.911" font-family="FreeSans" font-size="10.00"> _m_bezout</text>
</g>
<!-- Node25 -->
<g id="node23" class="node"><title>Node25</title>
<g id="a_node23"><a xlink:href="classDGtal_1_1IntegerComputer.html" target="_top" xlink:title="Aim: This class gathers several types and methods to make computation with integers. ">
<polygon fill="white" stroke="black" points="1258.5,-458.911 1258.5,-488.911 1389.5,-488.911 1389.5,-458.911 1258.5,-458.911"/>
<text text-anchor="start" x="1266.5" y="-476.911" font-family="FreeSans" font-size="10.00">DGtal::IntegerComputer</text>
<text text-anchor="middle" x="1324" y="-465.911" font-family="FreeSans" font-size="10.00">&lt; TInteger &gt;</text>
</a>
</g>
</g>
<!-- Node17&#45;&gt;Node25 -->
<g id="edge31" class="edge"><title>Node17&#45;&gt;Node25</title>
<path fill="none" stroke="#9a32cd" stroke-dasharray="5,2" d="M1112.45,-637.089C1155.11,-628.749 1207.2,-611.517 1240,-575.911 1261.76,-552.283 1237.74,-530.838 1258,-505.911 1263.63,-498.981 1271.14,-493.433 1279.05,-489.035"/>
<polygon fill="#9a32cd" stroke="#9a32cd" points="1111.59,-633.687 1102.38,-638.928 1112.85,-640.573 1111.59,-633.687"/>
<text text-anchor="middle" x="1183" y="-636.911" font-family="FreeSans" font-size="10.00"> _m_bezout</text>
</g>
<!-- Node18&#45;&gt;Node17 -->
<g id="edge19" class="edge"><title>Node18&#45;&gt;Node17</title>
<path fill="none" stroke="orange" stroke-dasharray="5,2" d="M851.035,-644.911C889.005,-644.911 938.857,-644.911 977.68,-644.911"/>
<polygon fill="orange" stroke="orange" points="850.659,-641.411 840.659,-644.911 850.659,-648.411 850.659,-641.411"/>
<text text-anchor="middle" x="918" y="-647.911" font-family="FreeSans" font-size="10.00"> &lt; Integer &gt;</text>
</g>
<!-- Node18&#45;&gt;Node28 -->
<g id="edge39" class="edge"><title>Node18&#45;&gt;Node28</title>
<path fill="none" stroke="orange" stroke-dasharray="5,2" d="M829.877,-657.764C926.075,-689.98 1195.62,-765.342 1390,-674.911 1480.09,-633 1453.08,-561.563 1534,-503.911 1539.32,-500.122 1545.28,-496.82 1551.39,-493.967"/>
<polygon fill="orange" stroke="orange" points="830.921,-654.422 820.327,-654.515 828.667,-661.049 830.921,-654.422"/>
<text text-anchor="middle" x="1183" y="-719.911" font-family="FreeSans" font-size="10.00"> &lt; DGtal::PointVector &gt;</text>
</g>
<!-- Node19&#45;&gt;Node16 -->
<g id="edge21" class="edge"><title>Node19&#45;&gt;Node16</title>
<path fill="none" stroke="#9a32cd" stroke-dasharray="5,2" d="M1107.87,-381.285C1179.29,-381.366 1295.04,-386.759 1390,-415.911 1450.24,-434.403 1467.03,-441.256 1516,-480.911 1525.82,-488.861 1523.76,-495.507 1534,-502.911 1539.19,-506.666 1545.02,-509.938 1551,-512.765"/>
<polygon fill="#9a32cd" stroke="#9a32cd" points="1107.66,-377.786 1097.66,-381.31 1107.67,-384.786 1107.66,-377.786"/>
<text text-anchor="middle" x="1324" y="-440.911" font-family="FreeSans" font-size="10.00"> _m_v</text>
<text text-anchor="middle" x="1324" y="-429.911" font-family="FreeSans" font-size="10.00">_m_v0</text>
<text text-anchor="middle" x="1324" y="-418.911" font-family="FreeSans" font-size="10.00">_m_v1</text>
</g>
<!-- Node19&#45;&gt;Node25 -->
<g id="edge36" class="edge"><title>Node19&#45;&gt;Node25</title>
<path fill="none" stroke="#9a32cd" stroke-dasharray="5,2" d="M1107.8,-397.129C1146.87,-406.244 1196.85,-419.286 1240,-434.911 1258.56,-441.633 1278.62,-450.993 1294.36,-458.858"/>
<polygon fill="#9a32cd" stroke="#9a32cd" points="1108.13,-393.613 1097.6,-394.781 1106.56,-400.435 1108.13,-393.613"/>
<text text-anchor="middle" x="1183" y="-459.911" font-family="FreeSans" font-size="10.00"> _m_v</text>
<text text-anchor="middle" x="1183" y="-448.911" font-family="FreeSans" font-size="10.00">_m_v0</text>
<text text-anchor="middle" x="1183" y="-437.911" font-family="FreeSans" font-size="10.00">_m_v1</text>
</g>
<!-- Node20 -->
<g id="node18" class="node"><title>Node20</title>
<g id="a_node18"><a xlink:href="structDGtal_1_1NumberTraits.html" target="_top" xlink:title="DGtal::NumberTraits\l\&lt; Integer \&gt;">
<polygon fill="white" stroke="black" points="983.5,-559.911 983.5,-589.911 1096.5,-589.911 1096.5,-559.911 983.5,-559.911"/>
<text text-anchor="start" x="991.5" y="-577.911" font-family="FreeSans" font-size="10.00">DGtal::NumberTraits</text>
<text text-anchor="middle" x="1040" y="-566.911" font-family="FreeSans" font-size="10.00">&lt; Integer &gt;</text>
</a>
</g>
</g>
<!-- Node20&#45;&gt;Node16 -->
<g id="edge23" class="edge"><title>Node20&#45;&gt;Node16</title>
<path fill="none" stroke="#9a32cd" stroke-dasharray="5,2" d="M1106.9,-589.362C1147.86,-594.767 1200.12,-594.89 1240,-571.911 1253.47,-564.148 1244.63,-549.848 1258,-541.911 1303.03,-515.182 1448.43,-518.688 1534.14,-523.421"/>
<polygon fill="#9a32cd" stroke="#9a32cd" points="1107.15,-585.861 1096.75,-587.885 1106.14,-592.788 1107.15,-585.861"/>
<text text-anchor="middle" x="1324" y="-632.911" font-family="FreeSans" font-size="10.00"> _m_b</text>
<text text-anchor="middle" x="1324" y="-621.911" font-family="FreeSans" font-size="10.00">_m_c0</text>
<text text-anchor="middle" x="1324" y="-610.911" font-family="FreeSans" font-size="10.00">_m_c1</text>
<text text-anchor="middle" x="1324" y="-599.911" font-family="FreeSans" font-size="10.00">_m_c2</text>
<text text-anchor="middle" x="1324" y="-588.911" font-family="FreeSans" font-size="10.00">_m_q</text>
<text text-anchor="middle" x="1324" y="-577.911" font-family="FreeSans" font-size="10.00">_m_a0</text>
<text text-anchor="middle" x="1324" y="-566.911" font-family="FreeSans" font-size="10.00">_m_r</text>
<text text-anchor="middle" x="1324" y="-555.911" font-family="FreeSans" font-size="10.00">_m_a1</text>
<text text-anchor="middle" x="1324" y="-544.911" font-family="FreeSans" font-size="10.00">_m_a</text>
</g>
<!-- Node21 -->
<g id="node19" class="node"><title>Node21</title>
<g id="a_node19"><a xlink:href="structDGtal_1_1NumberTraitsImpl.html" target="_top" xlink:title="DGtal::NumberTraitsImpl\l\&lt; std::decay\&lt; Integer\l \&gt;::type \&gt;">
<polygon fill="white" stroke="black" points="567,-553.411 567,-594.411 701,-594.411 701,-553.411 567,-553.411"/>
<text text-anchor="start" x="575" y="-582.411" font-family="FreeSans" font-size="10.00">DGtal::NumberTraitsImpl</text>
<text text-anchor="start" x="575" y="-571.411" font-family="FreeSans" font-size="10.00">&lt; std::decay&lt; Integer</text>
<text text-anchor="middle" x="634" y="-560.411" font-family="FreeSans" font-size="10.00"> &gt;::type &gt;</text>
</a>
</g>
</g>
<!-- Node21&#45;&gt;Node20 -->
<g id="edge24" class="edge"><title>Node21&#45;&gt;Node20</title>
<path fill="none" stroke="midnightblue" d="M711.678,-574.101C790.998,-574.297 912.939,-574.599 983.438,-574.773"/>
<polygon fill="midnightblue" stroke="midnightblue" points="711.269,-570.6 701.26,-574.075 711.251,-577.6 711.269,-570.6"/>
</g>
<!-- Node22&#45;&gt;Node21 -->
<g id="edge25" class="edge"><title>Node22&#45;&gt;Node21</title>
<path fill="none" stroke="orange" stroke-dasharray="5,2" d="M242.378,-545.535C250.911,-547.632 259.639,-549.518 268,-550.911 371.497,-568.154 493.466,-572.72 566.934,-573.79"/>
<polygon fill="orange" stroke="orange" points="243.041,-542.092 232.485,-542.995 241.3,-548.872 243.041,-542.092"/>
<text text-anchor="start" x="271.5" y="-577.911" font-family="FreeSans" font-size="10.00"> &lt; std::decay&lt; Integer</text>
<text text-anchor="middle" x="326" y="-566.911" font-family="FreeSans" font-size="10.00"> &gt;::type &gt;</text>
</g>
<!-- Node24 -->
<g id="node22" class="node"><title>Node24</title>
<g id="a_node22"><a xlink:href="structDGtal_1_1NumberTraitsImpl.html" target="_top" xlink:title="DGtal::NumberTraitsImpl\l\&lt; std::decay\&lt; T \&gt;::type \&gt;">
<polygon fill="white" stroke="black" points="402.5,-512.911 402.5,-542.911 545.5,-542.911 545.5,-512.911 402.5,-512.911"/>
<text text-anchor="start" x="410.5" y="-530.911" font-family="FreeSans" font-size="10.00">DGtal::NumberTraitsImpl</text>
<text text-anchor="middle" x="474" y="-519.911" font-family="FreeSans" font-size="10.00">&lt; std::decay&lt; T &gt;::type &gt;</text>
</a>
</g>
</g>
<!-- Node22&#45;&gt;Node24 -->
<g id="edge29" class="edge"><title>Node22&#45;&gt;Node24</title>
<path fill="none" stroke="orange" stroke-dasharray="5,2" d="M260.386,-527.911C304.438,-527.911 359.441,-527.911 402.466,-527.911"/>
<polygon fill="orange" stroke="orange" points="260.302,-524.411 250.302,-527.911 260.302,-531.411 260.302,-524.411"/>
<text text-anchor="start" x="277" y="-541.911" font-family="FreeSans" font-size="10.00"> &lt; std::decay&lt; T &gt;::</text>
<text text-anchor="middle" x="326" y="-530.911" font-family="FreeSans" font-size="10.00">type &gt;</text>
</g>
<!-- Node27 -->
<g id="node25" class="node"><title>Node27</title>
<g id="a_node25"><a xlink:href="structDGtal_1_1NumberTraitsImpl.html" target="_top" xlink:title="DGtal::NumberTraitsImpl\l\&lt; std::decay\&lt; TInteger\l \&gt;::type \&gt;">
<polygon fill="white" stroke="black" points="567,-462.411 567,-503.411 701,-503.411 701,-462.411 567,-462.411"/>
<text text-anchor="start" x="575" y="-491.411" font-family="FreeSans" font-size="10.00">DGtal::NumberTraitsImpl</text>
<text text-anchor="start" x="575" y="-480.411" font-family="FreeSans" font-size="10.00">&lt; std::decay&lt; TInteger</text>
<text text-anchor="middle" x="634" y="-469.411" font-family="FreeSans" font-size="10.00"> &gt;::type &gt;</text>
</a>
</g>
</g>
<!-- Node22&#45;&gt;Node27 -->
<g id="edge34" class="edge"><title>Node22&#45;&gt;Node27</title>
<path fill="none" stroke="orange" stroke-dasharray="5,2" d="M235.047,-509.904C245.809,-506.733 257.183,-503.835 268,-501.911 371.236,-483.542 493.281,-480.97 566.836,-481.456"/>
<polygon fill="orange" stroke="orange" points="233.902,-506.594 225.368,-512.873 235.955,-513.286 233.902,-506.594"/>
<text text-anchor="start" x="268.5" y="-515.911" font-family="FreeSans" font-size="10.00"> &lt; std::decay&lt; TInteger</text>
<text text-anchor="middle" x="326" y="-504.911" font-family="FreeSans" font-size="10.00"> &gt;::type &gt;</text>
</g>
<!-- Node23 -->
<g id="node21" class="node"><title>Node23</title>
<g id="a_node21"><a xlink:href="structDGtal_1_1NumberTraits.html" target="_top" xlink:title="Aim: The traits class for all models of Cinteger. ">
<polygon fill="white" stroke="black" points="722.5,-518.411 722.5,-537.411 863.5,-537.411 863.5,-518.411 722.5,-518.411"/>
<text text-anchor="middle" x="793" y="-525.411" font-family="FreeSans" font-size="10.00">DGtal::NumberTraits&lt; T &gt;</text>
</a>
</g>
</g>
<!-- Node23&#45;&gt;Node20 -->
<g id="edge27" class="edge"><title>Node23&#45;&gt;Node20</title>
<path fill="none" stroke="orange" stroke-dasharray="5,2" d="M873.789,-536.498C899.533,-539.903 928.103,-544.355 954,-549.911 966.633,-552.621 980.128,-556.245 992.558,-559.89"/>
<polygon fill="orange" stroke="orange" points="874.064,-533.005 863.699,-535.197 873.169,-539.947 874.064,-533.005"/>
<text text-anchor="middle" x="918" y="-552.911" font-family="FreeSans" font-size="10.00"> &lt; Integer &gt;</text>
</g>
<!-- Node26 -->
<g id="node24" class="node"><title>Node26</title>
<g id="a_node24"><a xlink:href="structDGtal_1_1NumberTraits.html" target="_top" xlink:title="DGtal::NumberTraits\l\&lt; TInteger \&gt;">
<polygon fill="white" stroke="black" points="983.5,-466.911 983.5,-496.911 1096.5,-496.911 1096.5,-466.911 983.5,-466.911"/>
<text text-anchor="start" x="991.5" y="-484.911" font-family="FreeSans" font-size="10.00">DGtal::NumberTraits</text>
<text text-anchor="middle" x="1040" y="-473.911" font-family="FreeSans" font-size="10.00">&lt; TInteger &gt;</text>
</a>
</g>
</g>
<!-- Node23&#45;&gt;Node26 -->
<g id="edge35" class="edge"><title>Node23&#45;&gt;Node26</title>
<path fill="none" stroke="orange" stroke-dasharray="5,2" d="M854.754,-516.504C894.07,-509.122 944.876,-499.583 983.176,-492.392"/>
<polygon fill="orange" stroke="orange" points="853.947,-513.094 844.764,-518.379 855.238,-519.974 853.947,-513.094"/>
<text text-anchor="middle" x="918" y="-512.911" font-family="FreeSans" font-size="10.00"> &lt; TInteger &gt;</text>
</g>
<!-- Node24&#45;&gt;Node23 -->
<g id="edge28" class="edge"><title>Node24&#45;&gt;Node23</title>
<path fill="none" stroke="midnightblue" d="M555.829,-527.911C607.254,-527.911 673.169,-527.911 722.289,-527.911"/>
<polygon fill="midnightblue" stroke="midnightblue" points="555.746,-524.411 545.746,-527.911 555.746,-531.411 555.746,-524.411"/>
</g>
<!-- Node25&#45;&gt;Node16 -->
<g id="edge30" class="edge"><title>Node25&#45;&gt;Node16</title>
<path fill="none" stroke="orange" stroke-dasharray="5,2" d="M1399.8,-482.765C1435.24,-487.597 1478.03,-494.355 1516,-502.911 1528.19,-505.656 1541.19,-509.25 1553.21,-512.852"/>
<polygon fill="orange" stroke="orange" points="1399.9,-479.248 1389.53,-481.391 1398.97,-486.186 1399.9,-479.248"/>
<text text-anchor="middle" x="1462" y="-505.911" font-family="FreeSans" font-size="10.00"> &lt; Integer &gt;</text>
</g>
<!-- Node26&#45;&gt;Node25 -->
<g id="edge32" class="edge"><title>Node26&#45;&gt;Node25</title>
<path fill="none" stroke="#9a32cd" stroke-dasharray="5,2" d="M1106.84,-474.247C1113.31,-473.702 1119.78,-473.239 1126,-472.911 1176.6,-470.24 1189.33,-472.606 1240,-472.911 1245.91,-472.946 1252.05,-472.996 1258.21,-473.055"/>
<polygon fill="#9a32cd" stroke="#9a32cd" points="1106.36,-470.776 1096.71,-475.162 1106.99,-477.747 1106.36,-470.776"/>
<text text-anchor="middle" x="1183" y="-563.911" font-family="FreeSans" font-size="10.00"> _m_b</text>
<text text-anchor="middle" x="1183" y="-552.911" font-family="FreeSans" font-size="10.00">_m_c0</text>
<text text-anchor="middle" x="1183" y="-541.911" font-family="FreeSans" font-size="10.00">_m_c1</text>
<text text-anchor="middle" x="1183" y="-530.911" font-family="FreeSans" font-size="10.00">_m_c2</text>
<text text-anchor="middle" x="1183" y="-519.911" font-family="FreeSans" font-size="10.00">_m_q</text>
<text text-anchor="middle" x="1183" y="-508.911" font-family="FreeSans" font-size="10.00">_m_a0</text>
<text text-anchor="middle" x="1183" y="-497.911" font-family="FreeSans" font-size="10.00">_m_r</text>
<text text-anchor="middle" x="1183" y="-486.911" font-family="FreeSans" font-size="10.00">_m_a1</text>
<text text-anchor="middle" x="1183" y="-475.911" font-family="FreeSans" font-size="10.00">_m_a</text>
</g>
<!-- Node27&#45;&gt;Node26 -->
<g id="edge33" class="edge"><title>Node27&#45;&gt;Node26</title>
<path fill="none" stroke="midnightblue" d="M711.678,-482.721C790.998,-482.525 912.939,-482.223 983.438,-482.048"/>
<polygon fill="midnightblue" stroke="midnightblue" points="711.251,-479.222 701.26,-482.747 711.269,-486.222 711.251,-479.222"/>
</g>
<!-- Node28&#45;&gt;Node11 -->
<g id="edge37" class="edge"><title>Node28&#45;&gt;Node11</title>
<path fill="none" stroke="#9a32cd" stroke-dasharray="5,2" d="M1663.12,-464.058C1755.11,-442.065 1926.6,-401.064 2019.06,-378.959"/>
<polygon fill="#9a32cd" stroke="#9a32cd" points="1662.3,-460.655 1653.39,-466.385 1663.93,-467.463 1662.3,-460.655"/>
<text text-anchor="middle" x="1811" y="-457.911" font-family="FreeSans" font-size="10.00"> _outPts</text>
<text text-anchor="middle" x="1811" y="-446.911" font-family="FreeSans" font-size="10.00">_inPts</text>
</g>
<!-- Node28&#45;&gt;Node29 -->
<g id="edge43" class="edge"><title>Node28&#45;&gt;Node29</title>
<path fill="none" stroke="#9a32cd" stroke-dasharray="5,2" d="M1663.44,-475.852C1682.88,-475.584 1704.36,-475.988 1724,-477.911 1729.91,-478.489 1736.01,-479.286 1742.11,-480.221"/>
<polygon fill="#9a32cd" stroke="#9a32cd" points="1663.11,-472.358 1653.18,-476.057 1663.25,-479.357 1663.11,-472.358"/>
<text text-anchor="middle" x="1704" y="-491.911" font-family="FreeSans" font-size="10.00"> _outPts</text>
<text text-anchor="middle" x="1704" y="-480.911" font-family="FreeSans" font-size="10.00">_inPts</text>
</g>
<!-- Node29&#45;&gt;Node11 -->
<g id="edge41" class="edge"><title>Node29&#45;&gt;Node11</title>
<path fill="none" stroke="orange" stroke-dasharray="5,2" d="M1889.62,-487.31C1923.9,-481.47 1963.66,-471.149 1996,-452.911 2028.94,-434.335 2057.24,-399.235 2071.7,-379.111"/>
<polygon fill="orange" stroke="orange" points="1888.96,-483.871 1879.65,-488.911 1890.07,-490.782 1888.96,-483.871"/>
<text text-anchor="middle" x="1947" y="-487.911" font-family="FreeSans" font-size="10.00"> &lt; InternalSpace2 &gt;</text>
</g>
</g>
</svg>
        <g id="navigator" transform="translate(0 0)" fill="#404254">
                <rect fill="#f2f5e9" fill-opacity="0.5" stroke="#606060" stroke-width=".5" x="0" y="0" width="60" height="60"/>
                <use id="zoomplus" xlink:href="#zoomPlus" x="17" y="9" onmousedown="handleZoom(evt,'in')"/>
                <use id="zoomminus" xlink:href="#zoomMin" x="42" y="9" onmousedown="handleZoom(evt,'out')"/>
                <use id="reset" xlink:href="#resetDef" x="30" y="36" onmousedown="handleReset()"/>
                <g id="arrowUp" xlink:href="#dirArrow" transform="translate(30 24)" onmousedown="handlePan(0,-1)">
                  <use xlink:href="#rim" fill="#404040">
                        <set attributeName="fill" to="#808080" begin="arrowUp.mouseover" end="arrowUp.mouseout"/>
                  </use>
                  <path fill="none" stroke="white" stroke-width="1.5" d="M0,-3.0v7 M-2.5,-0.5L0,-3.0L2.5,-0.5"/>
                </g>
                <g id="arrowRight" xlink:href="#dirArrow" transform="rotate(90) translate(36 -43)" onmousedown="handlePan(1,0)">
                  <use xlink:href="#rim" fill="#404040">
                        <set attributeName="fill" to="#808080" begin="arrowRight.mouseover" end="arrowRight.mouseout"/>
                  </use>
                  <path fill="none" stroke="white" stroke-width="1.5" d="M0,-3.0v7 M-2.5,-0.5L0,-3.0L2.5,-0.5"/>
                </g>
                <g id="arrowDown" xlink:href="#dirArrow" transform="rotate(180) translate(-30 -48)" onmousedown="handlePan(0,1)">
                  <use xlink:href="#rim" fill="#404040">
                        <set attributeName="fill" to="#808080" begin="arrowDown.mouseover" end="arrowDown.mouseout"/>
                  </use>
                  <path fill="none" stroke="white" stroke-width="1.5" d="M0,-3.0v7 M-2.5,-0.5L0,-3.0L2.5,-0.5"/>
                </g>
                <g id="arrowLeft" xlink:href="#dirArrow" transform="rotate(270) translate(-36 17)" onmousedown="handlePan(-1,0)">
                  <use xlink:href="#rim" fill="#404040">
                        <set attributeName="fill" to="#808080" begin="arrowLeft.mouseover" end="arrowLeft.mouseout"/>
                  </use>
                  <path fill="none" stroke="white" stroke-width="1.5" d="M0,-3.0v7 M-2.5,-0.5L0,-3.0L2.5,-0.5"/>
                </g>
        </g>
        <svg viewBox="0 0 15 15" width="100%" height="30px" preserveAspectRatio="xMaxYMin meet">
         <g id="arrow_out" transform="scale(0.3 0.3)">
          <a xlink:href="classDGtal_1_1COBANaivePlaneComputer__coll__graph_org.svg" target="_base">
           <rect id="button" ry="5" rx="5" y="6" x="6" height="38" width="38"
                fill="#f2f5e9" fill-opacity="0.5" stroke="#606060" stroke-width="1.0"/>
           <path id="arrow"
             d="M 11.500037,31.436501 C 11.940474,20.09759 22.043105,11.32322 32.158766,21.979434 L 37.068811,17.246167 C 37.068811,17.246167 37.088388,32 37.088388,32 L 22.160133,31.978069 C 22.160133,31.978069 26.997745,27.140456 26.997745,27.140456 C 18.528582,18.264221 13.291696,25.230495 11.500037,31.436501 z"
             style="fill:#404040;"/>
          </a>
         </g>
        </svg>
</svg>
