<?xml version="1.0" encoding="UTF-8" standalone="no"?>
<!DOCTYPE svg PUBLIC "-//W3C//DTD SVG 1.1//EN"
 "http://www.w3.org/Graphics/SVG/1.1/DTD/svg11.dtd">
<!-- Generated by graphviz version 2.36.0 (20140111.2315)
 -->
<!-- Title: DGtal::COBAGenericStandardPlaneComputer&lt; TSpace, TInternalInteger &gt; Pages: 1 -->
<svg width="2860pt" height="828pt"
 viewBox="0.00 0.00 2860.00 828.00" xmlns="http://www.w3.org/2000/svg" xmlns:xlink="http://www.w3.org/1999/xlink">
<g id="graph0" class="graph" transform="scale(1 1) rotate(0) translate(4 824)">
<title>DGtal::COBAGenericStandardPlaneComputer&lt; TSpace, TInternalInteger &gt;</title>
<polygon fill="white" stroke="none" points="-4,4 -4,-824 2856,-824 2856,4 -4,4"/>
<!-- Node1 -->
<g id="node1" class="node"><title>Node1</title>
<polygon fill="#bfbfbf" stroke="black" points="2694,-49.5 2694,-90.5 2852,-90.5 2852,-49.5 2694,-49.5"/>
<text text-anchor="start" x="2702" y="-78.5" font-family="FreeSans" font-size="10.00">DGtal::COBAGenericStandard</text>
<text text-anchor="start" x="2702" y="-67.5" font-family="FreeSans" font-size="10.00">PlaneComputer&lt; TSpace,</text>
<text text-anchor="middle" x="2773" y="-56.5" font-family="FreeSans" font-size="10.00"> TInternalInteger &gt;</text>
</g>
<!-- Node2 -->
<g id="node2" class="node"><title>Node2</title>
<g id="a_node2"><a xlink:href="classDGtal_1_1COBANaivePlaneComputer.html" target="_top" xlink:title="DGtal::COBANaivePlaneComputer\l\&lt; Space, InternalInteger \&gt;">
<polygon fill="white" stroke="black" points="2406.5,-654 2406.5,-684 2585.5,-684 2585.5,-654 2406.5,-654"/>
<text text-anchor="start" x="2414.5" y="-672" font-family="FreeSans" font-size="10.00">DGtal::COBANaivePlaneComputer</text>
<text text-anchor="middle" x="2496" y="-661" font-family="FreeSans" font-size="10.00">&lt; Space, InternalInteger &gt;</text>
</a>
</g>
</g>
<!-- Node2&#45;&gt;Node1 -->
<g id="edge1" class="edge"><title>Node2&#45;&gt;Node1</title>
<path fill="none" stroke="#9a32cd" stroke-dasharray="5,2" d="M2508.12,-644.78C2553.05,-546.923 2720.74,-181.656 2762.52,-90.6413"/>
<polygon fill="#9a32cd" stroke="#9a32cd" points="2504.93,-643.345 2503.94,-653.894 2511.29,-646.266 2504.93,-643.345"/>
<text text-anchor="middle" x="2640" y="-427" font-family="FreeSans" font-size="10.00"> myComputers</text>
</g>
<!-- Node3 -->
<g id="node3" class="node"><title>Node3</title>
<polygon fill="white" stroke="#bfbfbf" points="1822.5,-738.5 1822.5,-757.5 1921.5,-757.5 1921.5,-738.5 1822.5,-738.5"/>
<text text-anchor="middle" x="1872" y="-745.5" font-family="FreeSans" font-size="10.00">std::set&lt; Point &gt;</text>
</g>
<!-- Node3&#45;&gt;Node2 -->
<g id="edge2" class="edge"><title>Node3&#45;&gt;Node2</title>
<path fill="none" stroke="#9a32cd" stroke-dasharray="5,2" d="M1931.7,-740.68C2027.31,-728.736 2222.63,-704.254 2388,-683 2393.95,-682.236 2400.08,-681.444 2406.26,-680.643"/>
<polygon fill="#9a32cd" stroke="#9a32cd" points="1931.14,-737.223 1921.65,-741.935 1932,-744.169 1931.14,-737.223"/>
<text text-anchor="middle" x="2148" y="-727" font-family="FreeSans" font-size="10.00"> myPointSet</text>
</g>
<!-- Node27 -->
<g id="node27" class="node"><title>Node27</title>
<g id="a_node27"><a xlink:href="classDGtal_1_1COBANaivePlaneComputer.html" target="_top" xlink:title="Aim: A class that contains the COBA algorithm (Emilie Charrier, Lilian Buzer, DGCI2008) for recognizi...">
<polygon fill="white" stroke="black" points="2058.5,-769 2058.5,-799 2237.5,-799 2237.5,-769 2058.5,-769"/>
<text text-anchor="start" x="2066.5" y="-787" font-family="FreeSans" font-size="10.00">DGtal::COBANaivePlaneComputer</text>
<text text-anchor="middle" x="2148" y="-776" font-family="FreeSans" font-size="10.00">&lt; TSpace, TInternalInteger &gt;</text>
</a>
</g>
</g>
<!-- Node3&#45;&gt;Node27 -->
<g id="edge45" class="edge"><title>Node3&#45;&gt;Node27</title>
<path fill="none" stroke="#9a32cd" stroke-dasharray="5,2" d="M1931.76,-755.72C1968.64,-760.565 2016.9,-766.906 2058.37,-772.355"/>
<polygon fill="#9a32cd" stroke="#9a32cd" points="1932.04,-752.227 1921.67,-754.395 1931.13,-759.168 1932.04,-752.227"/>
<text text-anchor="middle" x="2010" y="-772" font-family="FreeSans" font-size="10.00"> myPointSet</text>
</g>
<!-- Node4 -->
<g id="node4" class="node"><title>Node4</title>
<g id="a_node4"><a xlink:href="classDGtal_1_1PointVector.html" target="_top" xlink:title="Aim: Implements basic operations that will be used in Point and Vector classes. ">
<polygon fill="white" stroke="black" points="730,-575.5 730,-616.5 856,-616.5 856,-575.5 730,-575.5"/>
<text text-anchor="start" x="738" y="-604.5" font-family="FreeSans" font-size="10.00">DGtal::PointVector</text>
<text text-anchor="start" x="738" y="-593.5" font-family="FreeSans" font-size="10.00">&lt; dim, TEuclideanRing,</text>
<text text-anchor="middle" x="793" y="-582.5" font-family="FreeSans" font-size="10.00"> TContainer &gt;</text>
</a>
</g>
</g>
<!-- Node4&#45;&gt;Node2 -->
<g id="edge43" class="edge"><title>Node4&#45;&gt;Node2</title>
<path fill="none" stroke="#9a32cd" stroke-dasharray="5,2" d="M855.41,-619.642C864.869,-622.555 874.613,-625.152 884,-627 945.725,-639.15 1698.34,-669 1721,-669 1721,-669 1721,-669 2149,-669 2236.55,-669 2336.56,-669 2406.47,-669"/>
<polygon fill="#9a32cd" stroke="#9a32cd" points="856.274,-616.243 845.682,-616.509 854.128,-622.906 856.274,-616.243"/>
<text text-anchor="middle" x="1593" y="-680" font-family="FreeSans" font-size="10.00"> _grad</text>
<text text-anchor="middle" x="1593" y="-669" font-family="FreeSans" font-size="10.00">myWidth</text>
</g>
<!-- Node4&#45;&gt;Node3 -->
<g id="edge3" class="edge"><title>Node4&#45;&gt;Node3</title>
<path fill="none" stroke="#9a32cd" stroke-dasharray="5,2" d="M816.177,-624.539C832.899,-644.309 857.436,-669.877 884,-686 973.64,-740.409 1004.14,-757 1109,-757 1109,-757 1109,-757 1594,-757 1674.11,-757 1767.19,-753.193 1822.48,-750.531"/>
<polygon fill="#9a32cd" stroke="#9a32cd" points="818.796,-622.213 809.726,-616.737 813.401,-626.674 818.796,-622.213"/>
<text text-anchor="middle" x="1321" y="-760" font-family="FreeSans" font-size="10.00"> keys</text>
</g>
<!-- Node4&#45;&gt;Node4 -->
<g id="edge5" class="edge"><title>Node4&#45;&gt;Node4</title>
<path fill="none" stroke="#9a32cd" stroke-dasharray="5,2" d="M767.994,-626.601C771.982,-631.023 780.317,-634 793,-634 813.812,-634 822.918,-625.984 820.316,-616.716"/>
<polygon fill="#9a32cd" stroke="#9a32cd" points="771.368,-625.657 765.684,-616.716 764.552,-627.25 771.368,-625.657"/>
<text text-anchor="middle" x="793" y="-637" font-family="FreeSans" font-size="10.00"> zero</text>
</g>
<!-- Node8 -->
<g id="node8" class="node"><title>Node8</title>
<g id="a_node8"><a xlink:href="structDGtal_1_1COBANaivePlaneComputer_1_1State.html" target="_top" xlink:title="DGtal::COBANaivePlaneComputer\l\&lt; TSpace, TInternalInteger\l \&gt;::State">
<polygon fill="white" stroke="black" points="1782.5,-598.5 1782.5,-639.5 1961.5,-639.5 1961.5,-598.5 1782.5,-598.5"/>
<text text-anchor="start" x="1790.5" y="-627.5" font-family="FreeSans" font-size="10.00">DGtal::COBANaivePlaneComputer</text>
<text text-anchor="start" x="1790.5" y="-616.5" font-family="FreeSans" font-size="10.00">&lt; TSpace, TInternalInteger</text>
<text text-anchor="middle" x="1872" y="-605.5" font-family="FreeSans" font-size="10.00"> &gt;::State</text>
</a>
</g>
</g>
<!-- Node4&#45;&gt;Node8 -->
<g id="edge42" class="edge"><title>Node4&#45;&gt;Node8</title>
<path fill="none" stroke="#9a32cd" stroke-dasharray="5,2" d="M865.986,-605.335C929.742,-612.792 1025.4,-622 1109,-622 1109,-622 1109,-622 1594,-622 1657,-622 1728.06,-621.214 1782.43,-620.447"/>
<polygon fill="#9a32cd" stroke="#9a32cd" points="866.377,-601.857 856.034,-604.155 865.553,-608.808 866.377,-601.857"/>
<text text-anchor="middle" x="1321" y="-636" font-family="FreeSans" font-size="10.00"> ptMin</text>
<text text-anchor="middle" x="1321" y="-625" font-family="FreeSans" font-size="10.00">ptMax</text>
</g>
<!-- Node9 -->
<g id="node9" class="node"><title>Node9</title>
<g id="a_node9"><a xlink:href="classDGtal_1_1PointVector.html" target="_top" xlink:title="DGtal::PointVector\l\&lt; 3, InternalInteger \&gt;">
<polygon fill="white" stroke="black" points="1049.5,-561 1049.5,-591 1170.5,-591 1170.5,-561 1049.5,-561"/>
<text text-anchor="start" x="1057.5" y="-579" font-family="FreeSans" font-size="10.00">DGtal::PointVector</text>
<text text-anchor="middle" x="1110" y="-568" font-family="FreeSans" font-size="10.00">&lt; 3, InternalInteger &gt;</text>
</a>
</g>
</g>
<!-- Node4&#45;&gt;Node9 -->
<g id="edge13" class="edge"><title>Node4&#45;&gt;Node9</title>
<path fill="none" stroke="#9a32cd" stroke-dasharray="5,2" d="M866.338,-591.407C921.759,-587.888 997.298,-583.092 1049.3,-579.791"/>
<polygon fill="#9a32cd" stroke="#9a32cd" points="865.992,-587.922 856.234,-592.049 866.436,-594.908 865.992,-587.922"/>
<text text-anchor="middle" x="955" y="-593" font-family="FreeSans" font-size="10.00"> zero</text>
</g>
<!-- Node4&#45;&gt;Node9 -->
<g id="edge14" class="edge"><title>Node4&#45;&gt;Node9</title>
<path fill="none" stroke="orange" stroke-dasharray="5,2" d="M855.73,-572.547C865.081,-569.837 874.709,-567.508 884,-566 939.578,-556.981 1003.82,-561.272 1049.4,-566.754"/>
<polygon fill="orange" stroke="orange" points="854.649,-569.217 846.111,-575.489 856.697,-575.911 854.649,-569.217"/>
<text text-anchor="middle" x="955" y="-569" font-family="FreeSans" font-size="10.00"> &lt; 3, InternalInteger &gt;</text>
</g>
<!-- Node13 -->
<g id="node13" class="node"><title>Node13</title>
<g id="a_node13"><a xlink:href="classDGtal_1_1LatticePolytope2D.html" target="_top" xlink:title="DGtal::LatticePolytope2D\l\&lt; InternalSpace2 \&gt;">
<polygon fill="white" stroke="black" points="1524.5,-356 1524.5,-386 1661.5,-386 1661.5,-356 1524.5,-356"/>
<text text-anchor="start" x="1532.5" y="-374" font-family="FreeSans" font-size="10.00">DGtal::LatticePolytope2D</text>
<text text-anchor="middle" x="1593" y="-363" font-family="FreeSans" font-size="10.00">&lt; InternalSpace2 &gt;</text>
</a>
</g>
</g>
<!-- Node4&#45;&gt;Node13 -->
<g id="edge37" class="edge"><title>Node4&#45;&gt;Node13</title>
<path fill="none" stroke="#9a32cd" stroke-dasharray="5,2" d="M846.174,-571.319C858.446,-565.932 871.574,-560.502 884,-556 1010.85,-510.043 1056.69,-536.001 1176,-473 1185.21,-468.137 1184.33,-461.872 1194,-458 1323.02,-406.324 1375.97,-486.075 1506,-437 1534.88,-426.101 1562.05,-402.08 1577.85,-386.222"/>
<polygon fill="#9a32cd" stroke="#9a32cd" points="844.692,-568.148 836.982,-575.414 847.541,-574.542 844.692,-568.148"/>
<text text-anchor="middle" x="1214" y="-571" font-family="FreeSans" font-size="10.00"> _N</text>
<text text-anchor="middle" x="1214" y="-560" font-family="FreeSans" font-size="10.00">_A</text>
<text text-anchor="middle" x="1214" y="-549" font-family="FreeSans" font-size="10.00">_u</text>
<text text-anchor="middle" x="1214" y="-538" font-family="FreeSans" font-size="10.00">_B</text>
<text text-anchor="middle" x="1214" y="-527" font-family="FreeSans" font-size="10.00">_v</text>
<text text-anchor="middle" x="1214" y="-516" font-family="FreeSans" font-size="10.00">_B1</text>
<text text-anchor="middle" x="1214" y="-505" font-family="FreeSans" font-size="10.00">_DV</text>
<text text-anchor="middle" x="1214" y="-494" font-family="FreeSans" font-size="10.00">_B2</text>
<text text-anchor="middle" x="1214" y="-483" font-family="FreeSans" font-size="10.00">_A1</text>
<text text-anchor="middle" x="1214" y="-472" font-family="FreeSans" font-size="10.00">_A2</text>
<text text-anchor="middle" x="1214" y="-461" font-family="FreeSans" font-size="10.00">...</text>
</g>
<!-- Node25 -->
<g id="node25" class="node"><title>Node25</title>
<polygon fill="white" stroke="#bfbfbf" points="1057,-234 1057,-264 1163,-264 1163,-234 1057,-234"/>
<text text-anchor="start" x="1065" y="-252" font-family="FreeSans" font-size="10.00">std::vector&lt; DGtal</text>
<text text-anchor="middle" x="1110" y="-241" font-family="FreeSans" font-size="10.00">::PointVector &gt;</text>
</g>
<!-- Node4&#45;&gt;Node25 -->
<g id="edge35" class="edge"><title>Node4&#45;&gt;Node25</title>
<path fill="none" stroke="#9a32cd" stroke-dasharray="5,2" d="M817.261,-567.266C833.097,-546.394 853.396,-516.859 866,-488 879.72,-456.585 860.961,-438.383 884,-413 928.871,-363.564 981.797,-414.034 1026,-364 1051.57,-335.06 1019.91,-309.183 1044,-279 1048.88,-272.88 1055.3,-267.955 1062.2,-264.008"/>
<polygon fill="#9a32cd" stroke="#9a32cd" points="814.341,-565.321 811.001,-575.376 819.882,-569.599 814.341,-565.321"/>
<text text-anchor="middle" x="955" y="-416" font-family="FreeSans" font-size="10.00"> elements</text>
</g>
<!-- Node26 -->
<g id="node26" class="node"><title>Node26</title>
<g id="a_node26"><a xlink:href="classDGtal_1_1LatticePolytope2D.html" target="_top" xlink:title="Aim: Represents a 2D polytope, i.e. a convex polygon, in the two&#45;dimensional digital plane...">
<polygon fill="white" stroke="black" points="1252.5,-279 1252.5,-309 1389.5,-309 1389.5,-279 1252.5,-279"/>
<text text-anchor="start" x="1260.5" y="-297" font-family="FreeSans" font-size="10.00">DGtal::LatticePolytope2D</text>
<text text-anchor="middle" x="1321" y="-286" font-family="FreeSans" font-size="10.00">&lt; TSpace, TSequence &gt;</text>
</a>
</g>
</g>
<!-- Node4&#45;&gt;Node26 -->
<g id="edge41" class="edge"><title>Node4&#45;&gt;Node26</title>
<path fill="none" stroke="#9a32cd" stroke-dasharray="5,2" d="M814.206,-567.093C830.945,-544.721 856.394,-514.095 884,-493 939.753,-450.397 984.036,-480.236 1026,-424 1055.36,-384.648 1007.79,-348.164 1044,-315 1073.37,-288.101 1180.41,-287.231 1252.23,-289.96"/>
<polygon fill="#9a32cd" stroke="#9a32cd" points="811.33,-565.095 808.23,-575.226 816.971,-569.24 811.33,-565.095"/>
<text text-anchor="middle" x="1110" y="-428" font-family="FreeSans" font-size="10.00"> _N</text>
<text text-anchor="middle" x="1110" y="-417" font-family="FreeSans" font-size="10.00">_A</text>
<text text-anchor="middle" x="1110" y="-406" font-family="FreeSans" font-size="10.00">_u</text>
<text text-anchor="middle" x="1110" y="-395" font-family="FreeSans" font-size="10.00">_B</text>
<text text-anchor="middle" x="1110" y="-384" font-family="FreeSans" font-size="10.00">_v</text>
<text text-anchor="middle" x="1110" y="-373" font-family="FreeSans" font-size="10.00">_B1</text>
<text text-anchor="middle" x="1110" y="-362" font-family="FreeSans" font-size="10.00">_DV</text>
<text text-anchor="middle" x="1110" y="-351" font-family="FreeSans" font-size="10.00">_B2</text>
<text text-anchor="middle" x="1110" y="-340" font-family="FreeSans" font-size="10.00">_A1</text>
<text text-anchor="middle" x="1110" y="-329" font-family="FreeSans" font-size="10.00">_A2</text>
<text text-anchor="middle" x="1110" y="-318" font-family="FreeSans" font-size="10.00">...</text>
</g>
<!-- Node4&#45;&gt;Node27 -->
<g id="edge47" class="edge"><title>Node4&#45;&gt;Node27</title>
<path fill="none" stroke="#9a32cd" stroke-dasharray="5,2" d="M806.453,-626.285C820.72,-657.291 846.998,-704.694 884,-732 967.852,-793.881 1004.79,-798 1109,-798 1109,-798 1109,-798 1873,-798 1934.92,-798 2004.61,-794.39 2058.21,-790.836"/>
<polygon fill="#9a32cd" stroke="#9a32cd" points="809.512,-624.55 802.244,-616.841 803.118,-627.4 809.512,-624.55"/>
<text text-anchor="middle" x="1457" y="-812" font-family="FreeSans" font-size="10.00"> _grad</text>
<text text-anchor="middle" x="1457" y="-801" font-family="FreeSans" font-size="10.00">myWidth</text>
</g>
<!-- Node5 -->
<g id="node5" class="node"><title>Node5</title>
<polygon fill="white" stroke="#bfbfbf" points="468,-586.5 468,-605.5 536,-605.5 536,-586.5 468,-586.5"/>
<text text-anchor="middle" x="502" y="-593.5" font-family="FreeSans" font-size="10.00">TContainer</text>
</g>
<!-- Node5&#45;&gt;Node4 -->
<g id="edge4" class="edge"><title>Node5&#45;&gt;Node4</title>
<path fill="none" stroke="#9a32cd" stroke-dasharray="5,2" d="M546.362,-596C595.102,-596 674.635,-596 729.947,-596"/>
<polygon fill="#9a32cd" stroke="#9a32cd" points="546.152,-592.5 536.152,-596 546.152,-599.5 546.152,-592.5"/>
<text text-anchor="middle" x="645" y="-599" font-family="FreeSans" font-size="10.00"> myArray</text>
</g>
<!-- Node6 -->
<g id="node6" class="node"><title>Node6</title>
<g id="a_node6"><a xlink:title="STL class. ">
<polygon fill="white" stroke="#bfbfbf" points="1552.5,-709.5 1552.5,-728.5 1633.5,-728.5 1633.5,-709.5 1552.5,-709.5"/>
<text text-anchor="middle" x="1593" y="-716.5" font-family="FreeSans" font-size="10.00">std::set&lt; K &gt;</text>
</a>
</g>
</g>
<!-- Node6&#45;&gt;Node3 -->
<g id="edge6" class="edge"><title>Node6&#45;&gt;Node3</title>
<path fill="none" stroke="orange" stroke-dasharray="5,2" d="M1643.71,-721.854C1677.65,-724.034 1723.62,-727.443 1764,-732 1783.13,-734.159 1804.1,-737.154 1822.36,-739.97"/>
<polygon fill="orange" stroke="orange" points="1643.78,-718.351 1633.58,-721.216 1643.34,-725.337 1643.78,-718.351"/>
<text text-anchor="middle" x="1722" y="-735" font-family="FreeSans" font-size="10.00"> &lt; Point &gt;</text>
</g>
<!-- Node7 -->
<g id="node7" class="node"><title>Node7</title>
<polygon fill="white" stroke="#bfbfbf" points="1306.5,-701.5 1306.5,-720.5 1335.5,-720.5 1335.5,-701.5 1306.5,-701.5"/>
<text text-anchor="middle" x="1321" y="-708.5" font-family="FreeSans" font-size="10.00">K</text>
</g>
<!-- Node7&#45;&gt;Node6 -->
<g id="edge7" class="edge"><title>Node7&#45;&gt;Node6</title>
<path fill="none" stroke="#9a32cd" stroke-dasharray="5,2" d="M1345.79,-711.705C1392.27,-713.082 1495.57,-716.143 1552.48,-717.829"/>
<polygon fill="#9a32cd" stroke="#9a32cd" points="1345.86,-708.206 1335.76,-711.408 1345.65,-715.202 1345.86,-708.206"/>
<text text-anchor="middle" x="1457" y="-719" font-family="FreeSans" font-size="10.00"> keys</text>
</g>
<!-- Node8&#45;&gt;Node2 -->
<g id="edge8" class="edge"><title>Node8&#45;&gt;Node2</title>
<path fill="none" stroke="#9a32cd" stroke-dasharray="5,2" d="M1971.84,-620.098C2045.37,-621.569 2148.11,-625.001 2238,-633 2294.21,-638.002 2356.93,-646.727 2406.35,-654.334"/>
<polygon fill="#9a32cd" stroke="#9a32cd" points="1971.73,-616.595 1961.67,-619.903 1971.6,-623.594 1971.73,-616.595"/>
<text text-anchor="middle" x="2148" y="-647" font-family="FreeSans" font-size="10.00"> _state</text>
<text text-anchor="middle" x="2148" y="-636" font-family="FreeSans" font-size="10.00">myState</text>
</g>
<!-- Node8&#45;&gt;Node27 -->
<g id="edge46" class="edge"><title>Node8&#45;&gt;Node27</title>
<path fill="none" stroke="#9a32cd" stroke-dasharray="5,2" d="M1914.4,-645.096C1949.11,-667.65 1999.38,-701.907 2040,-736 2048.67,-743.273 2048.39,-748.036 2058,-754 2067.56,-759.931 2078.43,-764.844 2089.22,-768.858"/>
<polygon fill="#9a32cd" stroke="#9a32cd" points="1916.22,-642.108 1905.93,-639.621 1912.43,-647.987 1916.22,-642.108"/>
<text text-anchor="middle" x="2010" y="-750" font-family="FreeSans" font-size="10.00"> _state</text>
<text text-anchor="middle" x="2010" y="-739" font-family="FreeSans" font-size="10.00">myState</text>
</g>
<!-- Node9&#45;&gt;Node8 -->
<g id="edge9" class="edge"><title>Node9&#45;&gt;Node8</title>
<path fill="none" stroke="#9a32cd" stroke-dasharray="5,2" d="M1181.05,-582.28C1185.43,-582.557 1189.77,-582.802 1194,-583 1332.52,-589.498 1367.48,-579.438 1506,-586 1620.95,-591.446 1649.42,-597.226 1764,-608 1769.95,-608.559 1776.08,-609.151 1782.26,-609.758"/>
<polygon fill="#9a32cd" stroke="#9a32cd" points="1181.02,-578.77 1170.81,-581.58 1180.55,-585.754 1181.02,-578.77"/>
<text text-anchor="middle" x="1457" y="-600" font-family="FreeSans" font-size="10.00"> N</text>
<text text-anchor="middle" x="1457" y="-589" font-family="FreeSans" font-size="10.00">centroid</text>
</g>
<!-- Node10 -->
<g id="node10" class="node"><title>Node10</title>
<polygon fill="white" stroke="#bfbfbf" points="720,-449 720,-479 866,-479 866,-449 720,-449"/>
<text text-anchor="start" x="728" y="-467" font-family="FreeSans" font-size="10.00">std::array&lt; InternalInteger,</text>
<text text-anchor="middle" x="793" y="-456" font-family="FreeSans" font-size="10.00"> dim &gt;</text>
</g>
<!-- Node10&#45;&gt;Node9 -->
<g id="edge10" class="edge"><title>Node10&#45;&gt;Node9</title>
<path fill="none" stroke="#9a32cd" stroke-dasharray="5,2" d="M847.832,-482.427C894.927,-498.636 965.128,-523.009 1026,-545 1040.03,-550.07 1055.35,-555.748 1068.96,-560.846"/>
<polygon fill="#9a32cd" stroke="#9a32cd" points="848.739,-479.038 838.144,-479.096 846.463,-485.658 848.739,-479.038"/>
<text text-anchor="middle" x="955" y="-548" font-family="FreeSans" font-size="10.00"> myArray</text>
</g>
<!-- Node11 -->
<g id="node11" class="node"><title>Node11</title>
<g id="a_node11"><a xlink:title="STL class. ">
<polygon fill="white" stroke="#bfbfbf" points="301,-426.5 301,-445.5 391,-445.5 391,-426.5 301,-426.5"/>
<text text-anchor="middle" x="346" y="-433.5" font-family="FreeSans" font-size="10.00">std::array&lt; T &gt;</text>
</a>
</g>
</g>
<!-- Node11&#45;&gt;Node10 -->
<g id="edge11" class="edge"><title>Node11&#45;&gt;Node10</title>
<path fill="none" stroke="orange" stroke-dasharray="5,2" d="M401.641,-439.438C481.642,-444.472 630.776,-453.856 719.749,-459.454"/>
<polygon fill="orange" stroke="orange" points="401.495,-435.922 391.295,-438.787 401.056,-442.908 401.495,-435.922"/>
<text text-anchor="start" x="458" y="-464" font-family="FreeSans" font-size="10.00"> &lt; InternalInteger,</text>
<text text-anchor="middle" x="502" y="-453" font-family="FreeSans" font-size="10.00"> dim &gt;</text>
</g>
<!-- Node12 -->
<g id="node12" class="node"><title>Node12</title>
<polygon fill="white" stroke="#bfbfbf" points="0.5,-255.5 0.5,-274.5 29.5,-274.5 29.5,-255.5 0.5,-255.5"/>
<text text-anchor="middle" x="15" y="-262.5" font-family="FreeSans" font-size="10.00">T</text>
</g>
<!-- Node12&#45;&gt;Node11 -->
<g id="edge12" class="edge"><title>Node12&#45;&gt;Node11</title>
<path fill="none" stroke="#9a32cd" stroke-dasharray="5,2" d="M20.0705,-284.711C24.5632,-302.834 33.1963,-329.735 48,-349 70.6973,-378.538 81.609,-383.685 116,-398 176.832,-423.321 253.37,-431.798 300.739,-434.619"/>
<polygon fill="#9a32cd" stroke="#9a32cd" points="23.4253,-283.679 17.7901,-274.707 16.6003,-285.235 23.4253,-283.679"/>
<text text-anchor="middle" x="73" y="-394" font-family="FreeSans" font-size="10.00"> elements</text>
</g>
<!-- Node16 -->
<g id="node16" class="node"><title>Node16</title>
<g id="a_node16"><a xlink:title="STL class. ">
<polygon fill="white" stroke="#bfbfbf" points="147.5,-369.5 147.5,-388.5 226.5,-388.5 226.5,-369.5 147.5,-369.5"/>
<text text-anchor="middle" x="187" y="-376.5" font-family="FreeSans" font-size="10.00">std::list&lt; T &gt;</text>
</a>
</g>
</g>
<!-- Node12&#45;&gt;Node16 -->
<g id="edge19" class="edge"><title>Node12&#45;&gt;Node16</title>
<path fill="none" stroke="#9a32cd" stroke-dasharray="5,2" d="M33.1839,-281.446C52.3099,-299.167 84.6653,-327.451 116,-347 130.171,-355.841 147.193,-363.678 160.902,-369.383"/>
<polygon fill="#9a32cd" stroke="#9a32cd" points="35.526,-278.844 25.8385,-274.554 30.7364,-283.949 35.526,-278.844"/>
<text text-anchor="middle" x="73" y="-337" font-family="FreeSans" font-size="10.00"> elements</text>
</g>
<!-- Node19 -->
<g id="node19" class="node"><title>Node19</title>
<g id="a_node19"><a xlink:title="STL class. ">
<polygon fill="white" stroke="#bfbfbf" points="139.5,-60.5 139.5,-79.5 234.5,-79.5 234.5,-60.5 139.5,-60.5"/>
<text text-anchor="middle" x="187" y="-67.5" font-family="FreeSans" font-size="10.00">std::vector&lt; T &gt;</text>
</a>
</g>
</g>
<!-- Node12&#45;&gt;Node19 -->
<g id="edge23" class="edge"><title>Node12&#45;&gt;Node19</title>
<path fill="none" stroke="#9a32cd" stroke-dasharray="5,2" d="M26.353,-246.526C32.2381,-236.562 40.0121,-224.245 48,-214 90.5829,-159.386 150.859,-102.216 175.191,-79.8171"/>
<polygon fill="#9a32cd" stroke="#9a32cd" points="23.3074,-244.801 21.344,-255.212 29.3714,-248.298 23.3074,-244.801"/>
<text text-anchor="middle" x="73" y="-217" font-family="FreeSans" font-size="10.00"> elements</text>
</g>
<!-- Node22 -->
<g id="node22" class="node"><title>Node22</title>
<g id="a_node22"><a xlink:href="structDGtal_1_1NumberTraits.html" target="_top" xlink:title="Aim: The traits class for all models of Cinteger. ">
<polygon fill="white" stroke="black" points="116.5,-177.5 116.5,-196.5 257.5,-196.5 257.5,-177.5 116.5,-177.5"/>
<text text-anchor="middle" x="187" y="-184.5" font-family="FreeSans" font-size="10.00">DGtal::NumberTraits&lt; T &gt;</text>
</a>
</g>
</g>
<!-- Node12&#45;&gt;Node22 -->
<g id="edge28" class="edge"><title>Node12&#45;&gt;Node22</title>
<path fill="none" stroke="#9a32cd" stroke-dasharray="5,2" d="M38.9703,-254.461C72.1497,-239.237 133.01,-211.313 165.032,-196.621"/>
<polygon fill="#9a32cd" stroke="#9a32cd" points="37.2538,-251.397 29.6244,-258.749 40.173,-257.76 37.2538,-251.397"/>
<text text-anchor="middle" x="73" y="-265" font-family="FreeSans" font-size="10.00"> ONE</text>
<text text-anchor="middle" x="73" y="-254" font-family="FreeSans" font-size="10.00">ZERO</text>
</g>
<!-- Node13&#45;&gt;Node8 -->
<g id="edge15" class="edge"><title>Node13&#45;&gt;Node8</title>
<path fill="none" stroke="#9a32cd" stroke-dasharray="5,2" d="M1618.49,-392.922C1671.48,-440.368 1796.19,-552.021 1847.9,-598.321"/>
<polygon fill="#9a32cd" stroke="#9a32cd" points="1620.7,-390.203 1610.91,-386.14 1616.03,-395.418 1620.7,-390.203"/>
<text text-anchor="middle" x="1722" y="-520" font-family="FreeSans" font-size="10.00"> cip</text>
</g>
<!-- Node14 -->
<g id="node14" class="node"><title>Node14</title>
<polygon fill="white" stroke="#bfbfbf" points="434,-370 434,-400 570,-400 570,-370 434,-370"/>
<text text-anchor="start" x="442" y="-388" font-family="FreeSans" font-size="10.00">std::list&lt; typename</text>
<text text-anchor="middle" x="502" y="-377" font-family="FreeSans" font-size="10.00"> InternalSpace2 ::Point &gt;</text>
</g>
<!-- Node14&#45;&gt;Node13 -->
<g id="edge16" class="edge"><title>Node14&#45;&gt;Node13</title>
<path fill="none" stroke="#9a32cd" stroke-dasharray="5,2" d="M580.227,-398.549C705.355,-418.769 960.172,-452.76 1176,-436 1299.71,-426.393 1442.27,-400.947 1524.28,-384.892"/>
<polygon fill="#9a32cd" stroke="#9a32cd" points="580.783,-395.093 570.35,-396.937 579.656,-402.002 580.783,-395.093"/>
<text text-anchor="middle" x="1110" y="-444" font-family="FreeSans" font-size="10.00"> myVertices</text>
</g>
<!-- Node15 -->
<g id="node15" class="node"><title>Node15</title>
<g id="a_node15"><a xlink:href="classDGtal_1_1SpaceND.html" target="_top" xlink:title="Aim: SpaceND is a utility class that defines the fundamental structure of a Digital Space in ND...">
<polygon fill="white" stroke="black" points="123.5,-308 123.5,-338 250.5,-338 250.5,-308 123.5,-308"/>
<text text-anchor="start" x="131.5" y="-326" font-family="FreeSans" font-size="10.00">DGtal::SpaceND&lt; dim,</text>
<text text-anchor="middle" x="187" y="-315" font-family="FreeSans" font-size="10.00"> TInteger &gt;</text>
</a>
</g>
</g>
<!-- Node15&#45;&gt;Node14 -->
<g id="edge17" class="edge"><title>Node15&#45;&gt;Node14</title>
<path fill="none" stroke="#9a32cd" stroke-dasharray="5,2" d="M260.462,-336.026C305.333,-344.25 364.1,-355.308 416,-366 422.072,-367.251 428.38,-368.588 434.691,-369.953"/>
<polygon fill="#9a32cd" stroke="#9a32cd" points="260.995,-332.565 250.529,-334.21 259.736,-339.451 260.995,-332.565"/>
<text text-anchor="middle" x="346" y="-369" font-family="FreeSans" font-size="10.00"> elements</text>
</g>
<!-- Node20 -->
<g id="node20" class="node"><title>Node20</title>
<g id="a_node20"><a xlink:href="classDGtal_1_1SpaceND.html" target="_top" xlink:title="DGtal::SpaceND\&lt; 2,\l Integer \&gt;">
<polygon fill="white" stroke="black" points="444.5,-302 444.5,-332 559.5,-332 559.5,-302 444.5,-302"/>
<text text-anchor="start" x="452.5" y="-320" font-family="FreeSans" font-size="10.00">DGtal::SpaceND&lt; 2,</text>
<text text-anchor="middle" x="502" y="-309" font-family="FreeSans" font-size="10.00"> Integer &gt;</text>
</a>
</g>
</g>
<!-- Node15&#45;&gt;Node20 -->
<g id="edge25" class="edge"><title>Node15&#45;&gt;Node20</title>
<path fill="none" stroke="orange" stroke-dasharray="5,2" d="M261.23,-318.548C266.227,-318.334 271.187,-318.147 276,-318 333.2,-316.249 398.618,-316.175 444.115,-316.431"/>
<polygon fill="orange" stroke="orange" points="260.782,-315.065 250.954,-319.022 261.105,-322.057 260.782,-315.065"/>
<text text-anchor="middle" x="346" y="-321" font-family="FreeSans" font-size="10.00"> &lt; 2, Integer &gt;</text>
</g>
<!-- Node16&#45;&gt;Node14 -->
<g id="edge18" class="edge"><title>Node16&#45;&gt;Node14</title>
<path fill="none" stroke="orange" stroke-dasharray="5,2" d="M236.845,-379.936C289.812,-380.952 374.701,-382.579 433.905,-383.714"/>
<polygon fill="orange" stroke="orange" points="236.759,-376.434 226.694,-379.742 236.625,-383.433 236.759,-376.434"/>
<text text-anchor="start" x="276.5" y="-398" font-family="FreeSans" font-size="10.00"> &lt; typename InternalSpace2</text>
<text text-anchor="middle" x="346" y="-387" font-family="FreeSans" font-size="10.00"> ::Point &gt;</text>
</g>
<!-- Node17 -->
<g id="node17" class="node"><title>Node17</title>
<g id="a_node17"><a xlink:href="classDGtal_1_1IntegerComputer.html" target="_top" xlink:title="DGtal::IntegerComputer\l\&lt; Integer \&gt;">
<polygon fill="white" stroke="black" points="1044.5,-171 1044.5,-201 1175.5,-201 1175.5,-171 1044.5,-171"/>
<text text-anchor="start" x="1052.5" y="-189" font-family="FreeSans" font-size="10.00">DGtal::IntegerComputer</text>
<text text-anchor="middle" x="1110" y="-178" font-family="FreeSans" font-size="10.00">&lt; Integer &gt;</text>
</a>
</g>
</g>
<!-- Node17&#45;&gt;Node13 -->
<g id="edge20" class="edge"><title>Node17&#45;&gt;Node13</title>
<path fill="none" stroke="#9a32cd" stroke-dasharray="5,2" d="M1185.8,-179.857C1270.91,-176.713 1410.46,-183.646 1506,-250 1545.8,-277.638 1573.52,-329.939 1585.44,-355.774"/>
<polygon fill="#9a32cd" stroke="#9a32cd" points="1185.54,-176.364 1175.7,-180.287 1185.84,-183.358 1185.54,-176.364"/>
<text text-anchor="middle" x="1321" y="-201" font-family="FreeSans" font-size="10.00"> _ic</text>
</g>
<!-- Node17&#45;&gt;Node26 -->
<g id="edge39" class="edge"><title>Node17&#45;&gt;Node26</title>
<path fill="none" stroke="#9a32cd" stroke-dasharray="5,2" d="M1156.84,-205.191C1180.43,-215.666 1209.34,-229.448 1234,-244 1242.5,-249.015 1243.65,-251.742 1252,-257 1264.28,-264.734 1278.31,-272.527 1290.41,-278.954"/>
<polygon fill="#9a32cd" stroke="#9a32cd" points="1157.99,-201.869 1147.42,-201.056 1155.17,-208.279 1157.99,-201.869"/>
<text text-anchor="middle" x="1214" y="-247" font-family="FreeSans" font-size="10.00"> _ic</text>
</g>
<!-- Node18 -->
<g id="node18" class="node"><title>Node18</title>
<polygon fill="white" stroke="#bfbfbf" points="440,-80.5 440,-99.5 564,-99.5 564,-80.5 440,-80.5"/>
<text text-anchor="middle" x="502" y="-87.5" font-family="FreeSans" font-size="10.00">std::vector&lt; Integer &gt;</text>
</g>
<!-- Node18&#45;&gt;Node17 -->
<g id="edge21" class="edge"><title>Node18&#45;&gt;Node17</title>
<path fill="none" stroke="#9a32cd" stroke-dasharray="5,2" d="M574.608,-87.225C612.577,-86.6342 659.944,-87.2948 702,-92 833.708,-106.735 984.782,-148.335 1060.45,-170.935"/>
<polygon fill="#9a32cd" stroke="#9a32cd" points="574.093,-83.7341 564.16,-87.4225 574.225,-90.7328 574.093,-83.7341"/>
<text text-anchor="middle" x="793" y="-124" font-family="FreeSans" font-size="10.00"> _m_bezout</text>
</g>
<!-- Node23 -->
<g id="node23" class="node"><title>Node23</title>
<g id="a_node23"><a xlink:href="classDGtal_1_1IntegerComputer.html" target="_top" xlink:title="Aim: This class gathers several types and methods to make computation with integers. ">
<polygon fill="white" stroke="black" points="727.5,-280 727.5,-310 858.5,-310 858.5,-280 727.5,-280"/>
<text text-anchor="start" x="735.5" y="-298" font-family="FreeSans" font-size="10.00">DGtal::IntegerComputer</text>
<text text-anchor="middle" x="793" y="-287" font-family="FreeSans" font-size="10.00">&lt; TInteger &gt;</text>
</a>
</g>
</g>
<!-- Node18&#45;&gt;Node23 -->
<g id="edge30" class="edge"><title>Node18&#45;&gt;Node23</title>
<path fill="none" stroke="#9a32cd" stroke-dasharray="5,2" d="M574.267,-92.8509C627.59,-95.6957 692.833,-100.974 702,-110 751.416,-158.659 678.261,-209.615 720,-265 724.645,-271.164 730.792,-276.071 737.54,-279.974"/>
<polygon fill="#9a32cd" stroke="#9a32cd" points="574.29,-89.3476 564.124,-92.3309 573.932,-96.3384 574.29,-89.3476"/>
<text text-anchor="middle" x="645" y="-113" font-family="FreeSans" font-size="10.00"> _m_bezout</text>
</g>
<!-- Node19&#45;&gt;Node18 -->
<g id="edge22" class="edge"><title>Node19&#45;&gt;Node18</title>
<path fill="none" stroke="orange" stroke-dasharray="5,2" d="M244.817,-73.6305C299.969,-77.1546 383.413,-82.4864 439.956,-86.0995"/>
<polygon fill="orange" stroke="orange" points="244.724,-70.1175 234.521,-72.9726 244.278,-77.1033 244.724,-70.1175"/>
<text text-anchor="middle" x="346" y="-88" font-family="FreeSans" font-size="10.00"> &lt; Integer &gt;</text>
</g>
<!-- Node19&#45;&gt;Node25 -->
<g id="edge36" class="edge"><title>Node19&#45;&gt;Node25</title>
<path fill="none" stroke="orange" stroke-dasharray="5,2" d="M244.889,-69.1217C319.539,-68.2048 454.62,-67.3557 570,-71 628.745,-72.8555 659.356,-38.554 702,-79 753.28,-127.637 668.003,-189.13 720,-237 767.658,-280.876 962.165,-265.756 1056.8,-255.403"/>
<polygon fill="orange" stroke="orange" points="244.72,-65.6235 234.765,-69.2511 244.809,-72.623 244.72,-65.6235"/>
<text text-anchor="middle" x="645" y="-82" font-family="FreeSans" font-size="10.00"> &lt; DGtal::PointVector &gt;</text>
</g>
<!-- Node28 -->
<g id="node28" class="node"><title>Node28</title>
<polygon fill="white" stroke="#bfbfbf" points="884.5,-23.5 884.5,-42.5 1025.5,-42.5 1025.5,-23.5 884.5,-23.5"/>
<text text-anchor="middle" x="955" y="-30.5" font-family="FreeSans" font-size="10.00">std::vector&lt; Dimension &gt;</text>
</g>
<!-- Node19&#45;&gt;Node28 -->
<g id="edge49" class="edge"><title>Node19&#45;&gt;Node28</title>
<path fill="none" stroke="orange" stroke-dasharray="5,2" d="M218.448,-56.5423C235.115,-49.7892 256.326,-42.1757 276,-38 493.915,8.25093 760.168,-11.1484 884.199,-24.4092"/>
<polygon fill="orange" stroke="orange" points="217.094,-53.3145 209.205,-60.3866 219.782,-59.7778 217.094,-53.3145"/>
<text text-anchor="middle" x="502" y="-19" font-family="FreeSans" font-size="10.00"> &lt; Dimension &gt;</text>
</g>
<!-- Node20&#45;&gt;Node17 -->
<g id="edge24" class="edge"><title>Node20&#45;&gt;Node17</title>
<path fill="none" stroke="#9a32cd" stroke-dasharray="5,2" d="M565.177,-334.186C572.814,-335.756 580.551,-337.093 588,-338 638.296,-344.121 651.418,-340.92 702,-338 848.205,-329.559 918.84,-377.819 1026,-278 1044.51,-260.757 1028.06,-243.643 1044,-224 1051.66,-214.561 1062.33,-206.965 1072.82,-201.118"/>
<polygon fill="#9a32cd" stroke="#9a32cd" points="565.745,-330.728 555.227,-332.007 564.247,-337.566 565.745,-330.728"/>
<text text-anchor="middle" x="793" y="-368" font-family="FreeSans" font-size="10.00"> _m_v</text>
<text text-anchor="middle" x="793" y="-357" font-family="FreeSans" font-size="10.00">_m_v0</text>
<text text-anchor="middle" x="793" y="-346" font-family="FreeSans" font-size="10.00">_m_v1</text>
</g>
<!-- Node20&#45;&gt;Node23 -->
<g id="edge33" class="edge"><title>Node20&#45;&gt;Node23</title>
<path fill="none" stroke="#9a32cd" stroke-dasharray="5,2" d="M569.878,-306.974C575.997,-306.234 582.107,-305.559 588,-305 634.42,-300.595 686.978,-298.077 727.12,-296.669"/>
<polygon fill="#9a32cd" stroke="#9a32cd" points="569.091,-303.546 559.61,-308.275 569.971,-310.491 569.091,-303.546"/>
<text text-anchor="middle" x="645" y="-330" font-family="FreeSans" font-size="10.00"> _m_v</text>
<text text-anchor="middle" x="645" y="-319" font-family="FreeSans" font-size="10.00">_m_v0</text>
<text text-anchor="middle" x="645" y="-308" font-family="FreeSans" font-size="10.00">_m_v1</text>
</g>
<!-- Node21 -->
<g id="node21" class="node"><title>Node21</title>
<g id="a_node21"><a xlink:href="structDGtal_1_1NumberTraits.html" target="_top" xlink:title="DGtal::NumberTraits\l\&lt; Integer \&gt;">
<polygon fill="white" stroke="black" points="588.5,-128 588.5,-158 701.5,-158 701.5,-128 588.5,-128"/>
<text text-anchor="start" x="596.5" y="-146" font-family="FreeSans" font-size="10.00">DGtal::NumberTraits</text>
<text text-anchor="middle" x="645" y="-135" font-family="FreeSans" font-size="10.00">&lt; Integer &gt;</text>
</a>
</g>
</g>
<!-- Node21&#45;&gt;Node17 -->
<g id="edge26" class="edge"><title>Node21&#45;&gt;Node17</title>
<path fill="none" stroke="#9a32cd" stroke-dasharray="5,2" d="M712.035,-149.133C800.542,-157.353 956.64,-171.85 1044.41,-180.001"/>
<polygon fill="#9a32cd" stroke="#9a32cd" points="712.129,-145.627 701.849,-148.187 711.482,-152.597 712.129,-145.627"/>
<text text-anchor="middle" x="793" y="-254" font-family="FreeSans" font-size="10.00"> _m_b</text>
<text text-anchor="middle" x="793" y="-243" font-family="FreeSans" font-size="10.00">_m_c0</text>
<text text-anchor="middle" x="793" y="-232" font-family="FreeSans" font-size="10.00">_m_c1</text>
<text text-anchor="middle" x="793" y="-221" font-family="FreeSans" font-size="10.00">_m_c2</text>
<text text-anchor="middle" x="793" y="-210" font-family="FreeSans" font-size="10.00">_m_q</text>
<text text-anchor="middle" x="793" y="-199" font-family="FreeSans" font-size="10.00">_m_a0</text>
<text text-anchor="middle" x="793" y="-188" font-family="FreeSans" font-size="10.00">_m_r</text>
<text text-anchor="middle" x="793" y="-177" font-family="FreeSans" font-size="10.00">_m_a1</text>
<text text-anchor="middle" x="793" y="-166" font-family="FreeSans" font-size="10.00">_m_a</text>
</g>
<!-- Node22&#45;&gt;Node21 -->
<g id="edge27" class="edge"><title>Node22&#45;&gt;Node21</title>
<path fill="none" stroke="orange" stroke-dasharray="5,2" d="M249.119,-175.851C258.115,-174.423 267.284,-173.084 276,-172 386.341,-158.277 516.149,-149.834 588.355,-145.818"/>
<polygon fill="orange" stroke="orange" points="248.376,-172.426 239.071,-177.493 249.505,-179.335 248.376,-172.426"/>
<text text-anchor="middle" x="346" y="-175" font-family="FreeSans" font-size="10.00"> &lt; Integer &gt;</text>
</g>
<!-- Node24 -->
<g id="node24" class="node"><title>Node24</title>
<g id="a_node24"><a xlink:href="structDGtal_1_1NumberTraits.html" target="_top" xlink:title="DGtal::NumberTraits\l\&lt; TInteger \&gt;">
<polygon fill="white" stroke="black" points="445.5,-172 445.5,-202 558.5,-202 558.5,-172 445.5,-172"/>
<text text-anchor="start" x="453.5" y="-190" font-family="FreeSans" font-size="10.00">DGtal::NumberTraits</text>
<text text-anchor="middle" x="502" y="-179" font-family="FreeSans" font-size="10.00">&lt; TInteger &gt;</text>
</a>
</g>
</g>
<!-- Node22&#45;&gt;Node24 -->
<g id="edge32" class="edge"><title>Node22&#45;&gt;Node24</title>
<path fill="none" stroke="orange" stroke-dasharray="5,2" d="M268.016,-187C323.552,-187 396.129,-187 445.418,-187"/>
<polygon fill="orange" stroke="orange" points="267.854,-183.5 257.854,-187 267.854,-190.5 267.854,-183.5"/>
<text text-anchor="middle" x="346" y="-190" font-family="FreeSans" font-size="10.00"> &lt; TInteger &gt;</text>
</g>
<!-- Node23&#45;&gt;Node17 -->
<g id="edge29" class="edge"><title>Node23&#45;&gt;Node17</title>
<path fill="none" stroke="orange" stroke-dasharray="5,2" d="M846.979,-276.668C908.378,-255.421 1008.41,-220.808 1065.47,-201.062"/>
<polygon fill="orange" stroke="orange" points="845.774,-273.381 837.469,-279.958 848.063,-279.996 845.774,-273.381"/>
<text text-anchor="middle" x="955" y="-266" font-family="FreeSans" font-size="10.00"> &lt; Integer &gt;</text>
</g>
<!-- Node24&#45;&gt;Node23 -->
<g id="edge31" class="edge"><title>Node24&#45;&gt;Node23</title>
<path fill="none" stroke="#9a32cd" stroke-dasharray="5,2" d="M568.557,-171.218C611.109,-165.031 665.276,-165.325 702,-195 726.985,-215.19 698.967,-240.72 720,-265 725.32,-271.141 732.101,-276.052 739.366,-279.971"/>
<polygon fill="#9a32cd" stroke="#9a32cd" points="567.882,-167.781 558.562,-172.819 568.99,-174.693 567.882,-167.781"/>
<text text-anchor="middle" x="645" y="-286" font-family="FreeSans" font-size="10.00"> _m_b</text>
<text text-anchor="middle" x="645" y="-275" font-family="FreeSans" font-size="10.00">_m_c0</text>
<text text-anchor="middle" x="645" y="-264" font-family="FreeSans" font-size="10.00">_m_c1</text>
<text text-anchor="middle" x="645" y="-253" font-family="FreeSans" font-size="10.00">_m_c2</text>
<text text-anchor="middle" x="645" y="-242" font-family="FreeSans" font-size="10.00">_m_q</text>
<text text-anchor="middle" x="645" y="-231" font-family="FreeSans" font-size="10.00">_m_a0</text>
<text text-anchor="middle" x="645" y="-220" font-family="FreeSans" font-size="10.00">_m_r</text>
<text text-anchor="middle" x="645" y="-209" font-family="FreeSans" font-size="10.00">_m_a1</text>
<text text-anchor="middle" x="645" y="-198" font-family="FreeSans" font-size="10.00">_m_a</text>
</g>
<!-- Node25&#45;&gt;Node13 -->
<g id="edge34" class="edge"><title>Node25&#45;&gt;Node13</title>
<path fill="none" stroke="#9a32cd" stroke-dasharray="5,2" d="M1173.24,-239.118C1230.61,-232.207 1317.57,-227.335 1390,-247 1466.64,-267.809 1542.54,-327.72 1575.25,-355.948"/>
<polygon fill="#9a32cd" stroke="#9a32cd" points="1172.72,-235.656 1163.24,-240.38 1173.6,-242.601 1172.72,-235.656"/>
<text text-anchor="middle" x="1321" y="-261" font-family="FreeSans" font-size="10.00"> _outPts</text>
<text text-anchor="middle" x="1321" y="-250" font-family="FreeSans" font-size="10.00">_inPts</text>
</g>
<!-- Node25&#45;&gt;Node26 -->
<g id="edge40" class="edge"><title>Node25&#45;&gt;Node26</title>
<path fill="none" stroke="#9a32cd" stroke-dasharray="5,2" d="M1173.21,-254.691C1192.81,-257.124 1214.44,-260.475 1234,-265 1249.5,-268.586 1266.16,-273.857 1280.65,-278.924"/>
<polygon fill="#9a32cd" stroke="#9a32cd" points="1173.51,-251.203 1163.17,-253.502 1172.69,-258.154 1173.51,-251.203"/>
<text text-anchor="middle" x="1214" y="-279" font-family="FreeSans" font-size="10.00"> _outPts</text>
<text text-anchor="middle" x="1214" y="-268" font-family="FreeSans" font-size="10.00">_inPts</text>
</g>
<!-- Node26&#45;&gt;Node13 -->
<g id="edge38" class="edge"><title>Node26&#45;&gt;Node13</title>
<path fill="none" stroke="orange" stroke-dasharray="5,2" d="M1384.42,-311.802C1431.23,-325.152 1494.61,-343.225 1538.97,-355.877"/>
<polygon fill="orange" stroke="orange" points="1385.28,-308.406 1374.7,-309.029 1383.36,-315.138 1385.28,-308.406"/>
<text text-anchor="middle" x="1457" y="-350" font-family="FreeSans" font-size="10.00"> &lt; InternalSpace2 &gt;</text>
</g>
<!-- Node27&#45;&gt;Node2 -->
<g id="edge44" class="edge"><title>Node27&#45;&gt;Node2</title>
<path fill="none" stroke="orange" stroke-dasharray="5,2" d="M2247.84,-782.97C2292.13,-779.57 2344.15,-771.398 2388,-753 2426.11,-737.009 2462.12,-703.628 2481.09,-684.104"/>
<polygon fill="orange" stroke="orange" points="2247.37,-779.494 2237.64,-783.68 2247.86,-786.477 2247.37,-779.494"/>
<text text-anchor="middle" x="2322" y="-784" font-family="FreeSans" font-size="10.00"> &lt; Space, InternalInteger &gt;</text>
</g>
<!-- Node28&#45;&gt;Node1 -->
<g id="edge48" class="edge"><title>Node28&#45;&gt;Node1</title>
<path fill="none" stroke="#9a32cd" stroke-dasharray="5,2" d="M1006.59,-44.6436C1058.19,-55.4904 1140.73,-70 1213,-70 1213,-70 1213,-70 2497,-70 2563.36,-70 2638.73,-70 2693.77,-70"/>
<polygon fill="#9a32cd" stroke="#9a32cd" points="1007.2,-41.1958 996.69,-42.5284 1005.74,-48.0412 1007.2,-41.1958"/>
<text text-anchor="middle" x="1722" y="-84" font-family="FreeSans" font-size="10.00"> myOrthants</text>
<text text-anchor="middle" x="1722" y="-73" font-family="FreeSans" font-size="10.00">_orthantsToErase</text>
</g>
<!-- Node29 -->
<g id="node29" class="node"><title>Node29</title>
<g id="a_node29"><a xlink:href="structDGtal_1_1COBAGenericStandardPlaneComputer_1_1Transform.html" target="_top" xlink:title="DGtal::COBAGenericStandard\lPlaneComputer\&lt; TSpace,\l TInternalInteger \&gt;::Transform">
<polygon fill="white" stroke="black" points="2416.5,-0.5 2416.5,-41.5 2575.5,-41.5 2575.5,-0.5 2416.5,-0.5"/>
<text text-anchor="start" x="2424.5" y="-29.5" font-family="FreeSans" font-size="10.00">DGtal::COBAGenericStandard</text>
<text text-anchor="start" x="2424.5" y="-18.5" font-family="FreeSans" font-size="10.00">PlaneComputer&lt; TSpace,</text>
<text text-anchor="middle" x="2496" y="-7.5" font-family="FreeSans" font-size="10.00"> TInternalInteger &gt;::Transform</text>
</a>
</g>
</g>
<!-- Node29&#45;&gt;Node1 -->
<g id="edge50" class="edge"><title>Node29&#45;&gt;Node1</title>
<path fill="none" stroke="#9a32cd" stroke-dasharray="5,2" d="M2585.83,-30.7446C2614.71,-34.4894 2646.83,-39.2678 2676,-45 2682.76,-46.3282 2689.75,-47.8518 2696.74,-49.4771"/>
<polygon fill="#9a32cd" stroke="#9a32cd" points="2586.12,-27.2535 2575.76,-29.4632 2585.24,-34.1975 2586.12,-27.2535"/>
<text text-anchor="middle" x="2640" y="-48" font-family="FreeSans" font-size="10.00"> myTransforms</text>
</g>
</g>
</svg>
