<?xml version="1.0" encoding="UTF-8" standalone="no"?>
<!DOCTYPE svg PUBLIC "-//W3C//DTD SVG 1.1//EN"
 "http://www.w3.org/Graphics/SVG/1.1/DTD/svg11.dtd">
<!-- Generated by graphviz version 2.38.0 (20140413.2041)
 -->
<!-- Title: DGtal::Mesh&lt; TPoint &gt; Pages: 1 -->
<svg width="927pt" height="359pt"
 viewBox="0.00 0.00 927.00 359.00" xmlns="http://www.w3.org/2000/svg" xmlns:xlink="http://www.w3.org/1999/xlink">
<g id="graph0" class="graph" transform="scale(1 1) rotate(0) translate(4 355)">
<title>DGtal::Mesh&lt; TPoint &gt;</title>
<polygon fill="white" stroke="none" points="-4,4 -4,-355 923,-355 923,4 -4,4"/>
<!-- Node1 -->
<g id="node1" class="node"><title>Node1</title>
<polygon fill="#bfbfbf" stroke="black" points="792,-118.5 792,-137.5 919,-137.5 919,-118.5 792,-118.5"/>
<text text-anchor="middle" x="855.5" y="-125.5" font-family="FreeSans" font-size="10.00">DGtal::Mesh&lt; TPoint &gt;</text>
</g>
<!-- Node2 -->
<g id="node2" class="node"><title>Node2</title>
<polygon fill="white" stroke="#bfbfbf" points="552.5,-138 552.5,-168 658.5,-168 658.5,-138 552.5,-138"/>
<text text-anchor="start" x="560.5" y="-156" font-family="FreeSans" font-size="10.00">std::vector&lt; DGtal</text>
<text text-anchor="middle" x="605.5" y="-145" font-family="FreeSans" font-size="10.00">::Color &gt;</text>
</g>
<!-- Node2&#45;&gt;Node1 -->
<g id="edge1" class="edge"><title>Node2&#45;&gt;Node1</title>
<path fill="none" stroke="#9a32cd" stroke-dasharray="5,2" d="M669.093,-146.69C706.619,-142.907 754.183,-138.113 791.739,-134.327"/>
<polygon fill="#9a32cd" stroke="#9a32cd" points="668.39,-143.243 658.791,-147.729 669.092,-150.208 668.39,-143.243"/>
<text text-anchor="middle" x="733" y="-148" font-family="FreeSans" font-size="10.00"> myFaceColorList</text>
</g>
<!-- Node3 -->
<g id="node3" class="node"><title>Node3</title>
<g id="a_node3"><a xlink:href="classDGtal_1_1Color.html" target="_top" xlink:title="Structure representing an RGB triple with alpha component. ">
<polygon fill="white" stroke="black" points="354,-192.5 354,-211.5 428,-211.5 428,-192.5 354,-192.5"/>
<text text-anchor="middle" x="391" y="-199.5" font-family="FreeSans" font-size="10.00">DGtal::Color</text>
</a>
</g>
</g>
<!-- Node3&#45;&gt;Node1 -->
<g id="edge13" class="edge"><title>Node3&#45;&gt;Node1</title>
<path fill="none" stroke="#9a32cd" stroke-dasharray="5,2" d="M438.224,-201.755C510.997,-200.3 656.132,-193.05 774,-160 794.997,-154.112 818.034,-144.628 834.064,-137.511"/>
<polygon fill="#9a32cd" stroke="#9a32cd" points="437.963,-198.259 428.024,-201.93 438.083,-205.258 437.963,-198.259"/>
<text text-anchor="middle" x="605.5" y="-199" font-family="FreeSans" font-size="10.00"> myDefaultColor</text>
</g>
<!-- Node3&#45;&gt;Node2 -->
<g id="edge2" class="edge"><title>Node3&#45;&gt;Node2</title>
<path fill="none" stroke="#9a32cd" stroke-dasharray="5,2" d="M438.075,-191.376C471.705,-183.621 517.336,-173.099 552.313,-165.034"/>
<polygon fill="#9a32cd" stroke="#9a32cd" points="437.006,-188.03 428.048,-193.688 438.578,-194.851 437.006,-188.03"/>
<text text-anchor="middle" x="494.5" y="-187" font-family="FreeSans" font-size="10.00"> elements</text>
</g>
<!-- Node3&#45;&gt;Node3 -->
<g id="edge3" class="edge"><title>Node3&#45;&gt;Node3</title>
<path fill="none" stroke="#9a32cd" stroke-dasharray="5,2" d="M372.112,-221.4C373.373,-226.315 379.669,-230 391,-230 409.129,-230 414.369,-220.565 406.721,-211.757"/>
<polygon fill="#9a32cd" stroke="#9a32cd" points="375.484,-222.35 375.279,-211.757 368.833,-220.166 375.484,-222.35"/>
<text text-anchor="middle" x="391" y="-343" font-family="FreeSans" font-size="10.00"> Yellow</text>
<text text-anchor="middle" x="391" y="-332" font-family="FreeSans" font-size="10.00">Lime</text>
<text text-anchor="middle" x="391" y="-321" font-family="FreeSans" font-size="10.00">Navy</text>
<text text-anchor="middle" x="391" y="-310" font-family="FreeSans" font-size="10.00">Magenta</text>
<text text-anchor="middle" x="391" y="-299" font-family="FreeSans" font-size="10.00">White</text>
<text text-anchor="middle" x="391" y="-288" font-family="FreeSans" font-size="10.00">None</text>
<text text-anchor="middle" x="391" y="-277" font-family="FreeSans" font-size="10.00">Blue</text>
<text text-anchor="middle" x="391" y="-266" font-family="FreeSans" font-size="10.00">Aqua</text>
<text text-anchor="middle" x="391" y="-255" font-family="FreeSans" font-size="10.00">Purple</text>
<text text-anchor="middle" x="391" y="-244" font-family="FreeSans" font-size="10.00">Silver</text>
<text text-anchor="middle" x="391" y="-233" font-family="FreeSans" font-size="10.00">...</text>
</g>
<!-- Node4 -->
<g id="node4" class="node"><title>Node4</title>
<g id="a_node4"><a xlink:title="STL class. ">
<polygon fill="white" stroke="#bfbfbf" points="114,-82.5 114,-101.5 209,-101.5 209,-82.5 114,-82.5"/>
<text text-anchor="middle" x="161.5" y="-89.5" font-family="FreeSans" font-size="10.00">std::vector&lt; T &gt;</text>
</a>
</g>
</g>
<!-- Node4&#45;&gt;Node2 -->
<g id="edge4" class="edge"><title>Node4&#45;&gt;Node2</title>
<path fill="none" stroke="orange" stroke-dasharray="5,2" d="M202.655,-104.265C210.665,-106.411 219.057,-108.45 227,-110 341.914,-132.432 478.956,-144.429 552.197,-149.678"/>
<polygon fill="orange" stroke="orange" points="203.348,-100.825 192.776,-101.518 201.473,-107.57 203.348,-100.825"/>
<text text-anchor="middle" x="391" y="-144" font-family="FreeSans" font-size="10.00"> &lt; DGtal::Color &gt;</text>
</g>
<!-- Node6 -->
<g id="node6" class="node"><title>Node6</title>
<polygon fill="white" stroke="#bfbfbf" points="331.5,-0.5 331.5,-19.5 450.5,-19.5 450.5,-0.5 331.5,-0.5"/>
<text text-anchor="middle" x="391" y="-7.5" font-family="FreeSans" font-size="10.00">std::vector&lt; TPoint &gt;</text>
</g>
<!-- Node4&#45;&gt;Node6 -->
<g id="edge8" class="edge"><title>Node4&#45;&gt;Node6</title>
<path fill="none" stroke="orange" stroke-dasharray="5,2" d="M183.721,-76.5576C195.892,-68.2982 211.743,-58.5161 227,-52 262.206,-36.9638 304.063,-26.3183 336.546,-19.5071"/>
<polygon fill="orange" stroke="orange" points="181.404,-73.9068 175.203,-82.4974 185.407,-79.6488 181.404,-73.9068"/>
<text text-anchor="middle" x="269.5" y="-55" font-family="FreeSans" font-size="10.00"> &lt; TPoint &gt;</text>
</g>
<!-- Node8 -->
<g id="node8" class="node"><title>Node8</title>
<polygon fill="white" stroke="#bfbfbf" points="537,-96.5 537,-115.5 674,-115.5 674,-96.5 537,-96.5"/>
<text text-anchor="middle" x="605.5" y="-103.5" font-family="FreeSans" font-size="10.00">std::vector&lt; MeshFace &gt;</text>
</g>
<!-- Node4&#45;&gt;Node8 -->
<g id="edge12" class="edge"><title>Node4&#45;&gt;Node8</title>
<path fill="none" stroke="orange" stroke-dasharray="5,2" d="M219.44,-93.8035C300.805,-96.3807 450.074,-101.109 536.928,-103.86"/>
<polygon fill="orange" stroke="orange" points="219.489,-90.3034 209.383,-93.485 219.267,-97.2999 219.489,-90.3034"/>
<text text-anchor="middle" x="391" y="-105" font-family="FreeSans" font-size="10.00"> &lt; MeshFace &gt;</text>
</g>
<!-- Node9 -->
<g id="node9" class="node"><title>Node9</title>
<polygon fill="white" stroke="#bfbfbf" points="330,-39 330,-69 452,-69 452,-39 330,-39"/>
<text text-anchor="start" x="338" y="-57" font-family="FreeSans" font-size="10.00">std::vector&lt; unsigned</text>
<text text-anchor="middle" x="391" y="-46" font-family="FreeSans" font-size="10.00"> int &gt;</text>
</g>
<!-- Node4&#45;&gt;Node9 -->
<g id="edge11" class="edge"><title>Node4&#45;&gt;Node9</title>
<path fill="none" stroke="orange" stroke-dasharray="5,2" d="M218.933,-82.3597C221.66,-81.8989 224.36,-81.4437 227,-81 261.086,-75.2704 299.198,-68.9525 329.993,-63.8696"/>
<polygon fill="orange" stroke="orange" points="218.275,-78.9213 209,-84.0426 219.444,-85.823 218.275,-78.9213"/>
<text text-anchor="middle" x="269.5" y="-84" font-family="FreeSans" font-size="10.00"> &lt; unsigned int &gt;</text>
</g>
<!-- Node5 -->
<g id="node5" class="node"><title>Node5</title>
<polygon fill="white" stroke="#bfbfbf" points="0,-82.5 0,-101.5 29,-101.5 29,-82.5 0,-82.5"/>
<text text-anchor="middle" x="14.5" y="-89.5" font-family="FreeSans" font-size="10.00">T</text>
</g>
<!-- Node5&#45;&gt;Node4 -->
<g id="edge5" class="edge"><title>Node5&#45;&gt;Node4</title>
<path fill="none" stroke="#9a32cd" stroke-dasharray="5,2" d="M39.3057,-92C59.498,-92 89.0617,-92 113.935,-92"/>
<polygon fill="#9a32cd" stroke="#9a32cd" points="39.1413,-88.5001 29.1412,-92 39.1412,-95.5001 39.1413,-88.5001"/>
<text text-anchor="middle" x="71.5" y="-95" font-family="FreeSans" font-size="10.00"> elements</text>
</g>
<!-- Node6&#45;&gt;Node1 -->
<g id="edge6" class="edge"><title>Node6&#45;&gt;Node1</title>
<path fill="none" stroke="#9a32cd" stroke-dasharray="5,2" d="M445.99,-21.7835C502.898,-34.4029 595.057,-55.4048 674,-76 726.539,-89.7068 787.089,-107.58 823.005,-118.403"/>
<polygon fill="#9a32cd" stroke="#9a32cd" points="446.651,-18.3452 436.131,-19.603 445.139,-25.18 446.651,-18.3452"/>
<text text-anchor="middle" x="605.5" y="-79" font-family="FreeSans" font-size="10.00"> myVertexList</text>
</g>
<!-- Node7 -->
<g id="node7" class="node"><title>Node7</title>
<polygon fill="white" stroke="#bfbfbf" points="138.5,-0.5 138.5,-19.5 184.5,-19.5 184.5,-0.5 138.5,-0.5"/>
<text text-anchor="middle" x="161.5" y="-7.5" font-family="FreeSans" font-size="10.00">TPoint</text>
</g>
<!-- Node7&#45;&gt;Node6 -->
<g id="edge7" class="edge"><title>Node7&#45;&gt;Node6</title>
<path fill="none" stroke="#9a32cd" stroke-dasharray="5,2" d="M194.98,-10C230.424,-10 287.9,-10 331.294,-10"/>
<polygon fill="#9a32cd" stroke="#9a32cd" points="194.728,-6.5001 184.728,-10 194.728,-13.5001 194.728,-6.5001"/>
<text text-anchor="middle" x="269.5" y="-13" font-family="FreeSans" font-size="10.00"> elements</text>
</g>
<!-- Node8&#45;&gt;Node1 -->
<g id="edge9" class="edge"><title>Node8&#45;&gt;Node1</title>
<path fill="none" stroke="#9a32cd" stroke-dasharray="5,2" d="M684.516,-107.71C712.766,-108.861 744.877,-110.785 774,-114 784.152,-115.121 794.961,-116.719 805.255,-118.436"/>
<polygon fill="#9a32cd" stroke="#9a32cd" points="684.422,-104.204 674.295,-107.321 684.155,-111.199 684.422,-104.204"/>
<text text-anchor="middle" x="733" y="-117" font-family="FreeSans" font-size="10.00"> myFaceList</text>
</g>
<!-- Node9&#45;&gt;Node8 -->
<g id="edge10" class="edge"><title>Node9&#45;&gt;Node8</title>
<path fill="none" stroke="#9a32cd" stroke-dasharray="5,2" d="M462.143,-67.9295C480.694,-71.8816 500.658,-76.3755 519,-81 537.295,-85.6126 557.571,-91.5066 573.784,-96.4131"/>
<polygon fill="#9a32cd" stroke="#9a32cd" points="462.802,-64.4916 452.295,-65.8536 461.358,-71.3411 462.802,-64.4916"/>
<text text-anchor="middle" x="494.5" y="-84" font-family="FreeSans" font-size="10.00"> elements</text>
</g>
</g>
</svg>
