<?xml version="1.0" encoding="UTF-8" standalone="no"?>
<!DOCTYPE svg PUBLIC "-//W3C//DTD SVG 1.1//EN"
 "http://www.w3.org/Graphics/SVG/1.1/DTD/svg11.dtd">
<!-- Generated by graphviz version 2.38.0 (20140413.2041)
 -->
<!-- Title: DGtal::BreadthFirstVisitor&lt; TGraph, TMarkSet &gt; Pages: 1 -->
<svg width="145pt" height="240pt"
 viewBox="0.00 0.00 145.00 240.00" xmlns="http://www.w3.org/2000/svg" xmlns:xlink="http://www.w3.org/1999/xlink">
<g id="graph0" class="graph" transform="scale(1 1) rotate(0) translate(4 236)">
<title>DGtal::BreadthFirstVisitor&lt; TGraph, TMarkSet &gt;</title>
<polygon fill="white" stroke="none" points="-4,4 -4,-236 141,-236 141,4 -4,4"/>
<!-- Node1 -->
<g id="node1" class="node"><title>Node1</title>
<polygon fill="#bfbfbf" stroke="black" points="0,-0.5 0,-30.5 137,-30.5 137,-0.5 0,-0.5"/>
<text text-anchor="start" x="8" y="-18.5" font-family="FreeSans" font-size="10.00">DGtal::BreadthFirstVisitor</text>
<text text-anchor="middle" x="68.5" y="-7.5" font-family="FreeSans" font-size="10.00">&lt; TGraph, TMarkSet &gt;</text>
</g>
<!-- Node2 -->
<g id="node2" class="node"><title>Node2</title>
<polygon fill="white" stroke="#bfbfbf" points="10.5,-78.5 10.5,-97.5 126.5,-97.5 126.5,-78.5 10.5,-78.5"/>
<text text-anchor="middle" x="68.5" y="-85.5" font-family="FreeSans" font-size="10.00">std::queue&lt; Node &gt;</text>
</g>
<!-- Node2&#45;&gt;Node1 -->
<g id="edge1" class="edge"><title>Node2&#45;&gt;Node1</title>
<path fill="none" stroke="#9a32cd" stroke-dasharray="5,2" d="M68.5,-68.2362C68.5,-56.4079 68.5,-41.3829 68.5,-30.5762"/>
<polygon fill="#9a32cd" stroke="#9a32cd" points="65.0001,-68.3553 68.5,-78.3553 72.0001,-68.3554 65.0001,-68.3553"/>
<text text-anchor="middle" x="93.5" y="-52" font-family="FreeSans" font-size="10.00"> myQueue</text>
</g>
<!-- Node3 -->
<g id="node3" class="node"><title>Node3</title>
<g id="a_node3"><a xlink:title="STL class. ">
<polygon fill="white" stroke="#bfbfbf" points="21,-145.5 21,-164.5 116,-164.5 116,-145.5 21,-145.5"/>
<text text-anchor="middle" x="68.5" y="-152.5" font-family="FreeSans" font-size="10.00">std::queue&lt; T &gt;</text>
</a>
</g>
</g>
<!-- Node3&#45;&gt;Node2 -->
<g id="edge2" class="edge"><title>Node3&#45;&gt;Node2</title>
<path fill="none" stroke="orange" stroke-dasharray="5,2" d="M68.5,-135.037C68.5,-122.67 68.5,-107.12 68.5,-97.6273"/>
<polygon fill="orange" stroke="orange" points="65.0001,-135.234 68.5,-145.234 72.0001,-135.234 65.0001,-135.234"/>
<text text-anchor="middle" x="94.5" y="-119" font-family="FreeSans" font-size="10.00"> &lt; Node &gt;</text>
</g>
<!-- Node4 -->
<g id="node4" class="node"><title>Node4</title>
<polygon fill="white" stroke="#bfbfbf" points="54,-212.5 54,-231.5 83,-231.5 83,-212.5 54,-212.5"/>
<text text-anchor="middle" x="68.5" y="-219.5" font-family="FreeSans" font-size="10.00">T</text>
</g>
<!-- Node4&#45;&gt;Node3 -->
<g id="edge3" class="edge"><title>Node4&#45;&gt;Node3</title>
<path fill="none" stroke="#9a32cd" stroke-dasharray="5,2" d="M68.5,-202.037C68.5,-189.67 68.5,-174.12 68.5,-164.627"/>
<polygon fill="#9a32cd" stroke="#9a32cd" points="65.0001,-202.234 68.5,-212.234 72.0001,-202.234 65.0001,-202.234"/>
<text text-anchor="middle" x="93" y="-186" font-family="FreeSans" font-size="10.00"> elements</text>
</g>
</g>
</svg>
