<?xml version="1.0" encoding="UTF-8" standalone="no"?>
<!DOCTYPE svg PUBLIC "-//W3C//DTD SVG 1.1//EN"
 "http://www.w3.org/Graphics/SVG/1.1/DTD/svg11.dtd">
<!-- Generated by graphviz version 2.38.0 (20140413.2041)
 -->
<!-- Title: DGtal::StandardDSLQ0&lt; TFraction &gt; Pages: 1 -->
<svg width="1795pt" height="354pt"
 viewBox="0.00 0.00 1795.00 354.00" xmlns="http://www.w3.org/2000/svg" xmlns:xlink="http://www.w3.org/1999/xlink">
<g id="graph0" class="graph" transform="scale(1 1) rotate(0) translate(4 350)">
<title>DGtal::StandardDSLQ0&lt; TFraction &gt;</title>
<polygon fill="white" stroke="none" points="-4,4 -4,-350 1791,-350 1791,4 -4,4"/>
<!-- Node1 -->
<g id="node1" class="node"><title>Node1</title>
<polygon fill="#bfbfbf" stroke="black" points="1660,-68 1660,-98 1787,-98 1787,-68 1660,-68"/>
<text text-anchor="start" x="1668" y="-86" font-family="FreeSans" font-size="10.00">DGtal::StandardDSLQ0</text>
<text text-anchor="middle" x="1723.5" y="-75" font-family="FreeSans" font-size="10.00">&lt; TFraction &gt;</text>
</g>
<!-- Node2 -->
<g id="node2" class="node"><title>Node2</title>
<g id="a_node2"><a xlink:href="classDGtal_1_1IntegerComputer.html" target="_top" xlink:title="DGtal::IntegerComputer\l\&lt; Integer \&gt;">
<polygon fill="white" stroke="black" points="1433.5,-100 1433.5,-130 1564.5,-130 1564.5,-100 1433.5,-100"/>
<text text-anchor="start" x="1441.5" y="-118" font-family="FreeSans" font-size="10.00">DGtal::IntegerComputer</text>
<text text-anchor="middle" x="1499" y="-107" font-family="FreeSans" font-size="10.00">&lt; Integer &gt;</text>
</a>
</g>
</g>
<!-- Node2&#45;&gt;Node1 -->
<g id="edge1" class="edge"><title>Node2&#45;&gt;Node1</title>
<path fill="none" stroke="#9a32cd" stroke-dasharray="5,2" d="M1574.69,-104.258C1602.39,-100.275 1633.48,-95.8023 1659.98,-91.9911"/>
<polygon fill="#9a32cd" stroke="#9a32cd" points="1574.05,-100.813 1564.66,-105.701 1575.05,-107.742 1574.05,-100.813"/>
<text text-anchor="middle" x="1615.5" y="-105" font-family="FreeSans" font-size="10.00"> ic</text>
</g>
<!-- Node3 -->
<g id="node3" class="node"><title>Node3</title>
<polygon fill="white" stroke="#bfbfbf" points="961,-47.5 961,-66.5 1085,-66.5 1085,-47.5 961,-47.5"/>
<text text-anchor="middle" x="1023" y="-54.5" font-family="FreeSans" font-size="10.00">std::vector&lt; Integer &gt;</text>
</g>
<!-- Node3&#45;&gt;Node2 -->
<g id="edge2" class="edge"><title>Node3&#45;&gt;Node2</title>
<path fill="none" stroke="#9a32cd" stroke-dasharray="5,2" d="M1095.51,-65.7499C1187.2,-76.97 1344.89,-96.2645 1433.21,-107.072"/>
<polygon fill="#9a32cd" stroke="#9a32cd" points="1095.83,-62.2636 1085.48,-64.523 1094.98,-69.2118 1095.83,-62.2636"/>
<text text-anchor="middle" x="1252.5" y="-97" font-family="FreeSans" font-size="10.00"> _m_bezout</text>
</g>
<!-- Node13 -->
<g id="node13" class="node"><title>Node13</title>
<g id="a_node13"><a xlink:href="classDGtal_1_1IntegerComputer.html" target="_top" xlink:title="Aim: This class gathers several types and methods to make computation with integers. ">
<polygon fill="white" stroke="black" points="1187,-233 1187,-263 1318,-263 1318,-233 1187,-233"/>
<text text-anchor="start" x="1195" y="-251" font-family="FreeSans" font-size="10.00">DGtal::IntegerComputer</text>
<text text-anchor="middle" x="1252.5" y="-240" font-family="FreeSans" font-size="10.00">&lt; TInteger &gt;</text>
</a>
</g>
</g>
<!-- Node3&#45;&gt;Node13 -->
<g id="edge15" class="edge"><title>Node3&#45;&gt;Node13</title>
<path fill="none" stroke="#9a32cd" stroke-dasharray="5,2" d="M1066.87,-70.0042C1097.59,-81.5783 1137.38,-101.616 1160,-133 1182.58,-164.328 1153.24,-188.365 1178,-218 1183.13,-224.135 1189.7,-229.029 1196.81,-232.931"/>
<polygon fill="#9a32cd" stroke="#9a32cd" points="1067.84,-66.6346 1057.25,-66.5401 1065.47,-73.2207 1067.84,-66.6346"/>
<text text-anchor="middle" x="1131.5" y="-136" font-family="FreeSans" font-size="10.00"> _m_bezout</text>
</g>
<!-- Node4 -->
<g id="node4" class="node"><title>Node4</title>
<g id="a_node4"><a xlink:title="STL class. ">
<polygon fill="white" stroke="#bfbfbf" points="276,-50.5 276,-69.5 371,-69.5 371,-50.5 276,-50.5"/>
<text text-anchor="middle" x="323.5" y="-57.5" font-family="FreeSans" font-size="10.00">std::vector&lt; T &gt;</text>
</a>
</g>
</g>
<!-- Node4&#45;&gt;Node3 -->
<g id="edge3" class="edge"><title>Node4&#45;&gt;Node3</title>
<path fill="none" stroke="orange" stroke-dasharray="5,2" d="M381.542,-58.7601C429.233,-57.7886 499.049,-56.5176 560,-56 703.568,-54.7808 872.24,-55.7555 960.718,-56.4521"/>
<polygon fill="orange" stroke="orange" points="381.339,-55.2635 371.413,-58.9688 381.483,-62.262 381.339,-55.2635"/>
<text text-anchor="middle" x="627" y="-59" font-family="FreeSans" font-size="10.00"> &lt; Integer &gt;</text>
</g>
<!-- Node5 -->
<g id="node5" class="node"><title>Node5</title>
<polygon fill="white" stroke="#bfbfbf" points="0,-89.5 0,-108.5 29,-108.5 29,-89.5 0,-89.5"/>
<text text-anchor="middle" x="14.5" y="-96.5" font-family="FreeSans" font-size="10.00">T</text>
</g>
<!-- Node5&#45;&gt;Node4 -->
<g id="edge4" class="edge"><title>Node5&#45;&gt;Node4</title>
<path fill="none" stroke="#9a32cd" stroke-dasharray="5,2" d="M39.0953,-92.6368C41.7505,-92.0313 44.4258,-91.4694 47,-91 126.786,-76.45 220.897,-67.6235 275.909,-63.2896"/>
<polygon fill="#9a32cd" stroke="#9a32cd" points="38.0761,-89.2833 29.2104,-95.0841 39.7585,-96.0782 38.0761,-89.2833"/>
<text text-anchor="middle" x="71.5" y="-94" font-family="FreeSans" font-size="10.00"> elements</text>
</g>
<!-- Node10 -->
<g id="node10" class="node"><title>Node10</title>
<g id="a_node10"><a xlink:href="structDGtal_1_1NumberTraitsImpl.html" target="_top" xlink:title="Aim: The traits class for all models of Cinteger (implementation) ">
<polygon fill="white" stroke="black" points="114,-116 114,-146 248,-146 248,-116 114,-116"/>
<text text-anchor="start" x="122" y="-134" font-family="FreeSans" font-size="10.00">DGtal::NumberTraitsImpl</text>
<text text-anchor="middle" x="181" y="-123" font-family="FreeSans" font-size="10.00">&lt; T, Enable &gt;</text>
</a>
</g>
</g>
<!-- Node5&#45;&gt;Node10 -->
<g id="edge10" class="edge"><title>Node5&#45;&gt;Node10</title>
<path fill="none" stroke="#9a32cd" stroke-dasharray="5,2" d="M39.3274,-103.635C58.8184,-107.427 87.3573,-112.978 113.644,-118.092"/>
<polygon fill="#9a32cd" stroke="#9a32cd" points="39.7266,-100.147 29.2422,-101.673 38.3899,-107.018 39.7266,-100.147"/>
<text text-anchor="middle" x="71.5" y="-129" font-family="FreeSans" font-size="10.00"> ONE</text>
<text text-anchor="middle" x="71.5" y="-118" font-family="FreeSans" font-size="10.00">ZERO</text>
</g>
<!-- Node6 -->
<g id="node6" class="node"><title>Node6</title>
<g id="a_node6"><a xlink:href="classDGtal_1_1SpaceND.html" target="_top" xlink:title="DGtal::SpaceND\&lt; 2,\l Integer \&gt;">
<polygon fill="white" stroke="black" points="965.5,-287 965.5,-317 1080.5,-317 1080.5,-287 965.5,-287"/>
<text text-anchor="start" x="973.5" y="-305" font-family="FreeSans" font-size="10.00">DGtal::SpaceND&lt; 2,</text>
<text text-anchor="middle" x="1023" y="-294" font-family="FreeSans" font-size="10.00"> Integer &gt;</text>
</a>
</g>
</g>
<!-- Node6&#45;&gt;Node2 -->
<g id="edge5" class="edge"><title>Node6&#45;&gt;Node2</title>
<path fill="none" stroke="#9a32cd" stroke-dasharray="5,2" d="M1090.99,-311.071C1095.05,-311.437 1099.08,-311.753 1103,-312 1203.93,-318.363 1233.17,-309.731 1327,-272 1366.18,-256.245 1376.92,-251.457 1409,-224 1442.6,-195.249 1473.18,-152.666 1488.21,-130.182"/>
<polygon fill="#9a32cd" stroke="#9a32cd" points="1091.17,-307.572 1080.88,-310.068 1090.48,-314.538 1091.17,-307.572"/>
<text text-anchor="middle" x="1252.5" y="-338" font-family="FreeSans" font-size="10.00"> _m_v</text>
<text text-anchor="middle" x="1252.5" y="-327" font-family="FreeSans" font-size="10.00">_m_v0</text>
<text text-anchor="middle" x="1252.5" y="-316" font-family="FreeSans" font-size="10.00">_m_v1</text>
</g>
<!-- Node6&#45;&gt;Node13 -->
<g id="edge20" class="edge"><title>Node6&#45;&gt;Node13</title>
<path fill="none" stroke="#9a32cd" stroke-dasharray="5,2" d="M1083.24,-284.215C1089.89,-282.38 1096.57,-280.603 1103,-279 1130.34,-272.177 1160.77,-265.642 1186.93,-260.346"/>
<polygon fill="#9a32cd" stroke="#9a32cd" points="1082.25,-280.858 1073.57,-286.932 1084.14,-287.597 1082.25,-280.858"/>
<text text-anchor="middle" x="1131.5" y="-304" font-family="FreeSans" font-size="10.00"> _m_v</text>
<text text-anchor="middle" x="1131.5" y="-293" font-family="FreeSans" font-size="10.00">_m_v0</text>
<text text-anchor="middle" x="1131.5" y="-282" font-family="FreeSans" font-size="10.00">_m_v1</text>
</g>
<!-- Node7 -->
<g id="node7" class="node"><title>Node7</title>
<g id="a_node7"><a xlink:href="classDGtal_1_1SpaceND.html" target="_top" xlink:title="Aim: SpaceND is a utility class that defines the fundamental structure of a Digital Space in ND...">
<polygon fill="white" stroke="black" points="719,-287 719,-317 846,-317 846,-287 719,-287"/>
<text text-anchor="start" x="727" y="-305" font-family="FreeSans" font-size="10.00">DGtal::SpaceND&lt; dim,</text>
<text text-anchor="middle" x="782.5" y="-294" font-family="FreeSans" font-size="10.00"> TInteger &gt;</text>
</a>
</g>
</g>
<!-- Node7&#45;&gt;Node6 -->
<g id="edge6" class="edge"><title>Node7&#45;&gt;Node6</title>
<path fill="none" stroke="orange" stroke-dasharray="5,2" d="M856.347,-302C891.411,-302 932.816,-302 965.46,-302"/>
<polygon fill="orange" stroke="orange" points="856.163,-298.5 846.163,-302 856.163,-305.5 856.163,-298.5"/>
<text text-anchor="middle" x="907" y="-305" font-family="FreeSans" font-size="10.00"> &lt; 2, Integer &gt;</text>
</g>
<!-- Node8 -->
<g id="node8" class="node"><title>Node8</title>
<g id="a_node8"><a xlink:href="structDGtal_1_1NumberTraits.html" target="_top" xlink:title="DGtal::NumberTraits\l\&lt; Integer \&gt;">
<polygon fill="white" stroke="black" points="966.5,-99 966.5,-129 1079.5,-129 1079.5,-99 966.5,-99"/>
<text text-anchor="start" x="974.5" y="-117" font-family="FreeSans" font-size="10.00">DGtal::NumberTraits</text>
<text text-anchor="middle" x="1023" y="-106" font-family="FreeSans" font-size="10.00">&lt; Integer &gt;</text>
</a>
</g>
</g>
<!-- Node8&#45;&gt;Node2 -->
<g id="edge7" class="edge"><title>Node8&#45;&gt;Node2</title>
<path fill="none" stroke="#9a32cd" stroke-dasharray="5,2" d="M1089.94,-114.139C1180.75,-114.331 1343.27,-114.674 1433.38,-114.864"/>
<polygon fill="#9a32cd" stroke="#9a32cd" points="1089.78,-110.639 1079.77,-114.118 1089.76,-117.639 1089.78,-110.639"/>
<text text-anchor="middle" x="1252.5" y="-206" font-family="FreeSans" font-size="10.00"> _m_b</text>
<text text-anchor="middle" x="1252.5" y="-195" font-family="FreeSans" font-size="10.00">_m_c0</text>
<text text-anchor="middle" x="1252.5" y="-184" font-family="FreeSans" font-size="10.00">_m_c1</text>
<text text-anchor="middle" x="1252.5" y="-173" font-family="FreeSans" font-size="10.00">_m_c2</text>
<text text-anchor="middle" x="1252.5" y="-162" font-family="FreeSans" font-size="10.00">_m_q</text>
<text text-anchor="middle" x="1252.5" y="-151" font-family="FreeSans" font-size="10.00">_m_a0</text>
<text text-anchor="middle" x="1252.5" y="-140" font-family="FreeSans" font-size="10.00">_m_r</text>
<text text-anchor="middle" x="1252.5" y="-129" font-family="FreeSans" font-size="10.00">_m_a1</text>
<text text-anchor="middle" x="1252.5" y="-118" font-family="FreeSans" font-size="10.00">_m_a</text>
</g>
<!-- Node9 -->
<g id="node9" class="node"><title>Node9</title>
<g id="a_node9"><a xlink:href="structDGtal_1_1NumberTraitsImpl.html" target="_top" xlink:title="DGtal::NumberTraitsImpl\l\&lt; std::decay\&lt; Integer\l \&gt;::type \&gt;">
<polygon fill="white" stroke="black" points="560,-74.5 560,-115.5 694,-115.5 694,-74.5 560,-74.5"/>
<text text-anchor="start" x="568" y="-103.5" font-family="FreeSans" font-size="10.00">DGtal::NumberTraitsImpl</text>
<text text-anchor="start" x="568" y="-92.5" font-family="FreeSans" font-size="10.00">&lt; std::decay&lt; Integer</text>
<text text-anchor="middle" x="627" y="-81.5" font-family="FreeSans" font-size="10.00"> &gt;::type &gt;</text>
</a>
</g>
</g>
<!-- Node9&#45;&gt;Node8 -->
<g id="edge8" class="edge"><title>Node9&#45;&gt;Node8</title>
<path fill="none" stroke="midnightblue" d="M704.5,-98.6891C781.394,-102.397 898.06,-108.023 966.494,-111.323"/>
<polygon fill="midnightblue" stroke="midnightblue" points="704.548,-95.1874 694.391,-98.2016 704.211,-102.179 704.548,-95.1874"/>
</g>
<!-- Node10&#45;&gt;Node9 -->
<g id="edge9" class="edge"><title>Node10&#45;&gt;Node9</title>
<path fill="none" stroke="orange" stroke-dasharray="5,2" d="M239.404,-113.399C248.239,-111.239 257.312,-109.328 266,-108 367.698,-92.4553 487.345,-91.5202 559.881,-92.8376"/>
<polygon fill="orange" stroke="orange" points="238.378,-110.049 229.563,-115.926 240.119,-116.829 238.378,-110.049"/>
<text text-anchor="start" x="269" y="-122" font-family="FreeSans" font-size="10.00"> &lt; std::decay&lt; Integer</text>
<text text-anchor="middle" x="323.5" y="-111" font-family="FreeSans" font-size="10.00"> &gt;::type &gt;</text>
</g>
<!-- Node12 -->
<g id="node12" class="node"><title>Node12</title>
<g id="a_node12"><a xlink:href="structDGtal_1_1NumberTraitsImpl.html" target="_top" xlink:title="DGtal::NumberTraitsImpl\l\&lt; std::decay\&lt; T \&gt;::type \&gt;">
<polygon fill="white" stroke="black" points="399,-125 399,-155 542,-155 542,-125 399,-125"/>
<text text-anchor="start" x="407" y="-143" font-family="FreeSans" font-size="10.00">DGtal::NumberTraitsImpl</text>
<text text-anchor="middle" x="470.5" y="-132" font-family="FreeSans" font-size="10.00">&lt; std::decay&lt; T &gt;::type &gt;</text>
</a>
</g>
</g>
<!-- Node10&#45;&gt;Node12 -->
<g id="edge13" class="edge"><title>Node10&#45;&gt;Node12</title>
<path fill="none" stroke="orange" stroke-dasharray="5,2" d="M258.315,-133.389C301.969,-134.756 356.351,-136.458 398.997,-137.793"/>
<polygon fill="orange" stroke="orange" points="258.424,-129.891 248.319,-133.076 258.205,-136.887 258.424,-129.891"/>
<text text-anchor="start" x="274.5" y="-152" font-family="FreeSans" font-size="10.00"> &lt; std::decay&lt; T &gt;::</text>
<text text-anchor="middle" x="323.5" y="-141" font-family="FreeSans" font-size="10.00">type &gt;</text>
</g>
<!-- Node15 -->
<g id="node15" class="node"><title>Node15</title>
<g id="a_node15"><a xlink:href="structDGtal_1_1NumberTraitsImpl.html" target="_top" xlink:title="DGtal::NumberTraitsImpl\l\&lt; std::decay\&lt; TInteger\l \&gt;::type \&gt;">
<polygon fill="white" stroke="black" points="560,-166.5 560,-207.5 694,-207.5 694,-166.5 560,-166.5"/>
<text text-anchor="start" x="568" y="-195.5" font-family="FreeSans" font-size="10.00">DGtal::NumberTraitsImpl</text>
<text text-anchor="start" x="568" y="-184.5" font-family="FreeSans" font-size="10.00">&lt; std::decay&lt; TInteger</text>
<text text-anchor="middle" x="627" y="-173.5" font-family="FreeSans" font-size="10.00"> &gt;::type &gt;</text>
</a>
</g>
</g>
<!-- Node10&#45;&gt;Node15 -->
<g id="edge18" class="edge"><title>Node10&#45;&gt;Node15</title>
<path fill="none" stroke="orange" stroke-dasharray="5,2" d="M223.006,-150.049C236.432,-155.483 251.601,-160.794 266,-164 366.713,-186.423 486.896,-189.511 559.777,-188.863"/>
<polygon fill="orange" stroke="orange" points="224.15,-146.733 213.575,-146.098 221.446,-153.19 224.15,-146.733"/>
<text text-anchor="start" x="266" y="-196" font-family="FreeSans" font-size="10.00"> &lt; std::decay&lt; TInteger</text>
<text text-anchor="middle" x="323.5" y="-185" font-family="FreeSans" font-size="10.00"> &gt;::type &gt;</text>
</g>
<!-- Node11 -->
<g id="node11" class="node"><title>Node11</title>
<g id="a_node11"><a xlink:href="structDGtal_1_1NumberTraits.html" target="_top" xlink:title="Aim: The traits class for all models of Cinteger. ">
<polygon fill="white" stroke="black" points="712,-130.5 712,-149.5 853,-149.5 853,-130.5 712,-130.5"/>
<text text-anchor="middle" x="782.5" y="-137.5" font-family="FreeSans" font-size="10.00">DGtal::NumberTraits&lt; T &gt;</text>
</a>
</g>
</g>
<!-- Node11&#45;&gt;Node8 -->
<g id="edge11" class="edge"><title>Node11&#45;&gt;Node8</title>
<path fill="none" stroke="orange" stroke-dasharray="5,2" d="M863.437,-131.286C897.197,-127.605 935.691,-123.409 966.296,-120.073"/>
<polygon fill="orange" stroke="orange" points="862.687,-127.847 853.125,-132.41 863.446,-134.805 862.687,-127.847"/>
<text text-anchor="middle" x="907" y="-134" font-family="FreeSans" font-size="10.00"> &lt; Integer &gt;</text>
</g>
<!-- Node14 -->
<g id="node14" class="node"><title>Node14</title>
<g id="a_node14"><a xlink:href="structDGtal_1_1NumberTraits.html" target="_top" xlink:title="DGtal::NumberTraits\l\&lt; TInteger \&gt;">
<polygon fill="white" stroke="black" points="966.5,-148 966.5,-178 1079.5,-178 1079.5,-148 966.5,-148"/>
<text text-anchor="start" x="974.5" y="-166" font-family="FreeSans" font-size="10.00">DGtal::NumberTraits</text>
<text text-anchor="middle" x="1023" y="-155" font-family="FreeSans" font-size="10.00">&lt; TInteger &gt;</text>
</a>
</g>
</g>
<!-- Node11&#45;&gt;Node14 -->
<g id="edge19" class="edge"><title>Node11&#45;&gt;Node14</title>
<path fill="none" stroke="orange" stroke-dasharray="5,2" d="M863.437,-147.709C897.197,-150.965 935.691,-154.677 966.296,-157.628"/>
<polygon fill="orange" stroke="orange" points="863.415,-144.191 853.125,-146.714 862.743,-151.158 863.415,-144.191"/>
<text text-anchor="middle" x="907" y="-158" font-family="FreeSans" font-size="10.00"> &lt; TInteger &gt;</text>
</g>
<!-- Node12&#45;&gt;Node11 -->
<g id="edge12" class="edge"><title>Node12&#45;&gt;Node11</title>
<path fill="none" stroke="midnightblue" d="M552.269,-140C601.792,-140 664.549,-140 711.874,-140"/>
<polygon fill="midnightblue" stroke="midnightblue" points="552.232,-136.5 542.232,-140 552.232,-143.5 552.232,-136.5"/>
</g>
<!-- Node13&#45;&gt;Node2 -->
<g id="edge14" class="edge"><title>Node13&#45;&gt;Node2</title>
<path fill="none" stroke="orange" stroke-dasharray="5,2" d="M1303.07,-228.995C1311.16,-225.543 1319.38,-221.819 1327,-218 1382.14,-190.346 1443.28,-151.352 1475.41,-130.157"/>
<polygon fill="orange" stroke="orange" points="1301.56,-225.833 1293.67,-232.911 1304.25,-232.295 1301.56,-225.833"/>
<text text-anchor="middle" x="1377" y="-212" font-family="FreeSans" font-size="10.00"> &lt; Integer &gt;</text>
</g>
<!-- Node14&#45;&gt;Node13 -->
<g id="edge16" class="edge"><title>Node14&#45;&gt;Node13</title>
<path fill="none" stroke="#9a32cd" stroke-dasharray="5,2" d="M1089.79,-147.764C1113.88,-145.879 1140.09,-148.57 1160,-163 1180.82,-178.096 1160.47,-199.177 1178,-218 1183.64,-224.052 1190.67,-228.915 1198.13,-232.814"/>
<polygon fill="#9a32cd" stroke="#9a32cd" points="1089.2,-144.307 1079.61,-148.831 1089.93,-151.269 1089.2,-144.307"/>
<text text-anchor="middle" x="1131.5" y="-254" font-family="FreeSans" font-size="10.00"> _m_b</text>
<text text-anchor="middle" x="1131.5" y="-243" font-family="FreeSans" font-size="10.00">_m_c0</text>
<text text-anchor="middle" x="1131.5" y="-232" font-family="FreeSans" font-size="10.00">_m_c1</text>
<text text-anchor="middle" x="1131.5" y="-221" font-family="FreeSans" font-size="10.00">_m_c2</text>
<text text-anchor="middle" x="1131.5" y="-210" font-family="FreeSans" font-size="10.00">_m_q</text>
<text text-anchor="middle" x="1131.5" y="-199" font-family="FreeSans" font-size="10.00">_m_a0</text>
<text text-anchor="middle" x="1131.5" y="-188" font-family="FreeSans" font-size="10.00">_m_r</text>
<text text-anchor="middle" x="1131.5" y="-177" font-family="FreeSans" font-size="10.00">_m_a1</text>
<text text-anchor="middle" x="1131.5" y="-166" font-family="FreeSans" font-size="10.00">_m_a</text>
</g>
<!-- Node15&#45;&gt;Node14 -->
<g id="edge17" class="edge"><title>Node15&#45;&gt;Node14</title>
<path fill="none" stroke="midnightblue" d="M704.483,-183.611C768.301,-180.605 861.627,-175.799 943,-170 950.554,-169.462 958.508,-168.832 966.343,-168.174"/>
<polygon fill="midnightblue" stroke="midnightblue" points="703.932,-180.132 694.106,-184.096 704.259,-187.125 703.932,-180.132"/>
</g>
<!-- Node16 -->
<g id="node16" class="node"><title>Node16</title>
<g id="a_node16"><a xlink:href="classDGtal_1_1Pattern.html" target="_top" xlink:title="DGtal::Pattern\&lt; Fraction \&gt;">
<polygon fill="white" stroke="black" points="1427,-31.5 1427,-50.5 1571,-50.5 1571,-31.5 1427,-31.5"/>
<text text-anchor="middle" x="1499" y="-38.5" font-family="FreeSans" font-size="10.00">DGtal::Pattern&lt; Fraction &gt;</text>
</a>
</g>
</g>
<!-- Node16&#45;&gt;Node1 -->
<g id="edge21" class="edge"><title>Node16&#45;&gt;Node1</title>
<path fill="none" stroke="#9a32cd" stroke-dasharray="5,2" d="M1560.66,-52.4507C1591.46,-58.2635 1628.82,-65.3166 1659.89,-71.1806"/>
<polygon fill="#9a32cd" stroke="#9a32cd" points="1560.96,-48.9461 1550.49,-50.5305 1559.67,-55.8247 1560.96,-48.9461"/>
<text text-anchor="middle" x="1615.5" y="-70" font-family="FreeSans" font-size="10.00"> myPattern</text>
</g>
<!-- Node17 -->
<g id="node17" class="node"><title>Node17</title>
<g id="a_node17"><a xlink:href="classDGtal_1_1Pattern.html" target="_top" xlink:title="Aim: This class represents a pattern, i.e. the path between two consecutive upper leaning points on a...">
<polygon fill="white" stroke="black" points="1178,-0.5 1178,-19.5 1327,-19.5 1327,-0.5 1178,-0.5"/>
<text text-anchor="middle" x="1252.5" y="-7.5" font-family="FreeSans" font-size="10.00">DGtal::Pattern&lt; TFraction &gt;</text>
</a>
</g>
</g>
<!-- Node17&#45;&gt;Node16 -->
<g id="edge22" class="edge"><title>Node17&#45;&gt;Node16</title>
<path fill="none" stroke="orange" stroke-dasharray="5,2" d="M1337.36,-20.6326C1366.53,-24.3312 1398.95,-28.4414 1426.98,-31.9954"/>
<polygon fill="orange" stroke="orange" points="1337.55,-17.1288 1327.19,-19.3431 1336.67,-24.0732 1337.55,-17.1288"/>
<text text-anchor="middle" x="1377" y="-33" font-family="FreeSans" font-size="10.00"> &lt; Fraction &gt;</text>
</g>
</g>
</svg>
