<?xml version="1.0" encoding="UTF-8" standalone="no"?>
<!DOCTYPE svg PUBLIC "-//W3C//DTD SVG 1.1//EN"
 "http://www.w3.org/Graphics/SVG/1.1/DTD/svg11.dtd">
<!-- Generated by graphviz version 2.36.0 (20140111.2315)
 -->
<!-- Title: DGtal::LightImplicitDigitalSurface&lt; TKSpace, TPointPredicate &gt; Pages: 1 -->
<!--zoomable 194 -->
<svg id="main" version="1.1" xmlns="http://www.w3.org/2000/svg" xmlns:xlink="http://www.w3.org/1999/xlink" xml:space="preserve" onload="init(evt)">
<style type="text/css"><![CDATA[
.edge:hover path { stroke: red; }
.edge:hover polygon { stroke: red; fill: red; }
]]></style>
<script type="text/javascript"><![CDATA[
var edges = document.getElementsByTagName('g');
if (edges && edges.length) {
  for (var i=0;i<edges.length;i++) {
    if (edges[i].id.substr(0,4)=='edge') {
      edges[i].setAttribute('class','edge');
    }
  }
}
]]></script>
        <defs>
                <circle id="rim" cx="0" cy="0" r="7"/>
                <circle id="rim2" cx="0" cy="0" r="3.5"/>
                <g id="zoomPlus">
                        <use xlink:href="#rim" fill="#404040">
                                <set attributeName="fill" to="#808080" begin="zoomplus.mouseover" end="zoomplus.mouseout"/>
                        </use>
                        <path d="M-4,0h8M0,-4v8" fill="none" stroke="white" stroke-width="1.5" pointer-events="none"/>
                </g>
                <g id="zoomMin">
                        <use xlink:href="#rim" fill="#404040">
                                <set attributeName="fill" to="#808080" begin="zoomminus.mouseover" end="zoomminus.mouseout"/>
                        </use>
                        <path d="M-4,0h8" fill="none" stroke="white" stroke-width="1.5" pointer-events="none"/>
                </g>
                <g id="dirArrow">
                        <path fill="none" stroke="white" stroke-width="1.5" d="M0,-3.0v7 M-2.5,-0.5L0,-3.0L2.5,-0.5"/>
                </g>
               <g id="resetDef">
                       <use xlink:href="#rim2" fill="#404040">
                               <set attributeName="fill" to="#808080" begin="reset.mouseover" end="reset.mouseout"/>
                       </use>
               </g>
        </defs>

<script type="text/javascript">
var viewWidth = 2282;
var viewHeight = 194;
var sectionId = 'dynsection-0';
</script>
<script xlink:href="svgpan.js"/>
<svg id="graph" class="graph">
<g id="viewport">
<title>DGtal::LightImplicitDigitalSurface&lt; TKSpace, TPointPredicate &gt;</title>
<polygon fill="white" stroke="none" points="-4,4 -4,-190 2278,-190 2278,4 -4,4"/>
<!-- Node1 -->
<g id="node1" class="node"><title>Node1</title>
<polygon fill="#bfbfbf" stroke="black" points="1604.5,-0 1604.5,-30 1801.5,-30 1801.5,-0 1604.5,-0"/>
<text text-anchor="start" x="1612.5" y="-18" font-family="FreeSans" font-size="10.00">DGtal::LightImplicitDigital</text>
<text text-anchor="middle" x="1703" y="-7" font-family="FreeSans" font-size="10.00">Surface&lt; TKSpace, TPointPredicate &gt;</text>
</g>
<!-- Node8 -->
<g id="node8" class="node"><title>Node8</title>
<g id="a_node8"><a xlink:href="classDGtal_1_1LightImplicitDigitalSurface_1_1Tracker.html" target="_top" xlink:title="DGtal::LightImplicitDigital\lSurface\&lt; TKSpace, TPointPredicate\l \&gt;::Tracker">
<polygon fill="white" stroke="black" points="2088,-41.5 2088,-82.5 2274,-82.5 2274,-41.5 2088,-41.5"/>
<text text-anchor="start" x="2096" y="-70.5" font-family="FreeSans" font-size="10.00">DGtal::LightImplicitDigital</text>
<text text-anchor="start" x="2096" y="-59.5" font-family="FreeSans" font-size="10.00">Surface&lt; TKSpace, TPointPredicate</text>
<text text-anchor="middle" x="2181" y="-48.5" font-family="FreeSans" font-size="10.00"> &gt;::Tracker</text>
</a>
</g>
</g>
<!-- Node1&#45;&gt;Node8 -->
<g id="edge19" class="edge"><title>Node1&#45;&gt;Node8</title>
<path fill="none" stroke="#9a32cd" stroke-dasharray="5,2" d="M1795.48,-32.3382C1797.68,-32.883 1799.85,-33.4371 1802,-34 1810.16,-36.1404 1811.72,-38.3959 1820,-40 1909.9,-57.4203 2014.58,-62.1167 2087.81,-62.9418"/>
<polygon fill="#9a32cd" stroke="#9a32cd" points="1796.27,-28.9282 1785.73,-30.0109 1794.65,-35.737 1796.27,-28.9282"/>
<text text-anchor="middle" x="1893" y="-61" font-family="FreeSans" font-size="10.00"> mySurface</text>
</g>
<!-- Node2 -->
<g id="node2" class="node"><title>Node2</title>
<g id="a_node2"><a xlink:href="structDGtal_1_1SignedKhalimskyCell.html" target="_top" xlink:title="Represents a signed cell in a cellular grid space by its Khalimsky coordinates and a boolean value...">
<polygon fill="white" stroke="black" points="1160,-127 1160,-157 1308,-157 1308,-127 1160,-127"/>
<text text-anchor="start" x="1168" y="-145" font-family="FreeSans" font-size="10.00">DGtal::SignedKhalimskyCell</text>
<text text-anchor="middle" x="1234" y="-134" font-family="FreeSans" font-size="10.00">&lt; dim, TInteger &gt;</text>
</a>
</g>
</g>
<!-- Node2&#45;&gt;Node1 -->
<g id="edge1" class="edge"><title>Node2&#45;&gt;Node1</title>
<path fill="none" stroke="#9a32cd" stroke-dasharray="5,2" d="M1312.62,-124.739C1407.9,-103.45 1560.09,-69.0774 1586,-61 1614.13,-52.2319 1645.11,-39.7975 1667.97,-30.0668"/>
<polygon fill="#9a32cd" stroke="#9a32cd" points="1311.72,-121.353 1302.73,-126.949 1313.25,-128.185 1311.72,-121.353"/>
<text text-anchor="middle" x="1374" y="-125" font-family="FreeSans" font-size="10.00"> mySurfel</text>
</g>
<!-- Node9 -->
<g id="node9" class="node"><title>Node9</title>
<g id="a_node9"><a xlink:href="classDGtal_1_1SurfelNeighborhood.html" target="_top" xlink:title="DGtal::SurfelNeighborhood\l\&lt; KSpace \&gt;">
<polygon fill="white" stroke="black" points="1820.5,-98 1820.5,-128 1965.5,-128 1965.5,-98 1820.5,-98"/>
<text text-anchor="start" x="1828.5" y="-116" font-family="FreeSans" font-size="10.00">DGtal::SurfelNeighborhood</text>
<text text-anchor="middle" x="1893" y="-105" font-family="FreeSans" font-size="10.00">&lt; KSpace &gt;</text>
</a>
</g>
</g>
<!-- Node2&#45;&gt;Node9 -->
<g id="edge13" class="edge"><title>Node2&#45;&gt;Node9</title>
<path fill="none" stroke="#9a32cd" stroke-dasharray="5,2" d="M1318.4,-153.348C1320.96,-153.584 1323.5,-153.803 1326,-154 1536.95,-170.638 1594.45,-185.191 1802,-144 1819.99,-140.429 1839.3,-134.127 1855.41,-128.133"/>
<polygon fill="#9a32cd" stroke="#9a32cd" points="1318.73,-149.864 1308.44,-152.355 1318.04,-156.83 1318.73,-149.864"/>
<text text-anchor="middle" x="1513" y="-174" font-family="FreeSans" font-size="10.00"> mySurfel</text>
</g>
<!-- Node12 -->
<g id="node12" class="node"><title>Node12</title>
<g id="a_node12"><a xlink:href="classDGtal_1_1SurfelNeighborhood.html" target="_top" xlink:title="Aim: This helper class is useful to compute the neighboring surfels of a given surfel, especially over a digital surface or over an object boundary. Two signed surfels are incident if they share a common n&#45;2 cell. This class uses a SurfelAdjacency so as to determine adjacent surfels (either looking for them from interior to exterior or inversely). ">
<polygon fill="white" stroke="black" points="1440.5,-118 1440.5,-148 1585.5,-148 1585.5,-118 1440.5,-118"/>
<text text-anchor="start" x="1448.5" y="-136" font-family="FreeSans" font-size="10.00">DGtal::SurfelNeighborhood</text>
<text text-anchor="middle" x="1513" y="-125" font-family="FreeSans" font-size="10.00">&lt; TKSpace &gt;</text>
</a>
</g>
</g>
<!-- Node2&#45;&gt;Node12 -->
<g id="edge17" class="edge"><title>Node2&#45;&gt;Node12</title>
<path fill="none" stroke="#9a32cd" stroke-dasharray="5,2" d="M1318.39,-139.291C1357.27,-138.027 1403.07,-136.539 1440.37,-135.327"/>
<polygon fill="#9a32cd" stroke="#9a32cd" points="1318.02,-135.801 1308.14,-139.624 1318.25,-142.797 1318.02,-135.801"/>
<text text-anchor="middle" x="1374" y="-142" font-family="FreeSans" font-size="10.00"> mySurfel</text>
</g>
<!-- Node3 -->
<g id="node3" class="node"><title>Node3</title>
<g id="a_node3"><a xlink:href="structDGtal_1_1SignedKhalimskyPreCell.html" target="_top" xlink:title="DGtal::SignedKhalimskyPre\lCell\&lt; dim, Integer \&gt;">
<polygon fill="white" stroke="black" points="860,-127 860,-157 1006,-157 1006,-127 860,-127"/>
<text text-anchor="start" x="868" y="-145" font-family="FreeSans" font-size="10.00">DGtal::SignedKhalimskyPre</text>
<text text-anchor="middle" x="933" y="-134" font-family="FreeSans" font-size="10.00">Cell&lt; dim, Integer &gt;</text>
</a>
</g>
</g>
<!-- Node3&#45;&gt;Node2 -->
<g id="edge2" class="edge"><title>Node3&#45;&gt;Node2</title>
<path fill="none" stroke="#9a32cd" stroke-dasharray="5,2" d="M1016.4,-142C1061.37,-142 1116.57,-142 1159.99,-142"/>
<polygon fill="#9a32cd" stroke="#9a32cd" points="1016.38,-138.5 1006.38,-142 1016.38,-145.5 1016.38,-138.5"/>
<text text-anchor="middle" x="1083" y="-145" font-family="FreeSans" font-size="10.00"> mySPreCell</text>
</g>
<!-- Node4 -->
<g id="node4" class="node"><title>Node4</title>
<g id="a_node4"><a xlink:href="classDGtal_1_1PointVector.html" target="_top" xlink:title="DGtal::PointVector\l\&lt; dim, Integer \&gt;">
<polygon fill="white" stroke="black" points="394,-133 394,-163 498,-163 498,-133 394,-133"/>
<text text-anchor="start" x="402" y="-151" font-family="FreeSans" font-size="10.00">DGtal::PointVector</text>
<text text-anchor="middle" x="446" y="-140" font-family="FreeSans" font-size="10.00">&lt; dim, Integer &gt;</text>
</a>
</g>
</g>
<!-- Node4&#45;&gt;Node3 -->
<g id="edge3" class="edge"><title>Node4&#45;&gt;Node3</title>
<path fill="none" stroke="#9a32cd" stroke-dasharray="5,2" d="M508.229,-148.436C585.882,-148.817 723.901,-148.922 842,-146 847.785,-145.857 853.778,-145.672 859.798,-145.459"/>
<polygon fill="#9a32cd" stroke="#9a32cd" points="508.16,-144.936 498.142,-148.383 508.123,-151.936 508.16,-144.936"/>
<text text-anchor="middle" x="667" y="-152" font-family="FreeSans" font-size="10.00"> coordinates</text>
</g>
<!-- Node7 -->
<g id="node7" class="node"><title>Node7</title>
<g id="a_node7"><a xlink:href="structDGtal_1_1SignedKhalimskyPreCell.html" target="_top" xlink:title="Represents a signed cell in an unbounded cellular grid space by its Khalimsky coordinates and a boole...">
<polygon fill="white" stroke="black" points="594,-94 594,-124 740,-124 740,-94 594,-94"/>
<text text-anchor="start" x="602" y="-112" font-family="FreeSans" font-size="10.00">DGtal::SignedKhalimskyPre</text>
<text text-anchor="middle" x="667" y="-101" font-family="FreeSans" font-size="10.00">Cell&lt; dim, TInteger &gt;</text>
</a>
</g>
</g>
<!-- Node4&#45;&gt;Node7 -->
<g id="edge10" class="edge"><title>Node4&#45;&gt;Node7</title>
<path fill="none" stroke="#9a32cd" stroke-dasharray="5,2" d="M508.003,-137.137C534.576,-132.404 565.926,-126.821 593.665,-121.882"/>
<polygon fill="#9a32cd" stroke="#9a32cd" points="507.301,-133.706 498.069,-138.905 508.528,-140.598 507.301,-133.706"/>
<text text-anchor="middle" x="546" y="-139" font-family="FreeSans" font-size="10.00"> coordinates</text>
</g>
<!-- Node5 -->
<g id="node5" class="node"><title>Node5</title>
<polygon fill="white" stroke="#bfbfbf" points="0,-162.5 0,-181.5 68,-181.5 68,-162.5 0,-162.5"/>
<text text-anchor="middle" x="34" y="-169.5" font-family="FreeSans" font-size="10.00">TContainer</text>
</g>
<!-- Node5&#45;&gt;Node4 -->
<g id="edge4" class="edge"><title>Node5&#45;&gt;Node4</title>
<path fill="none" stroke="#9a32cd" stroke-dasharray="5,2" d="M78.3566,-172.473C99.3833,-172.68 125.007,-172.898 148,-173 203.999,-173.248 218.147,-177.061 274,-173 314.547,-170.052 360.078,-163.221 393.957,-157.443"/>
<polygon fill="#9a32cd" stroke="#9a32cd" points="78.1626,-168.971 68.1278,-172.37 78.0919,-175.971 78.1626,-168.971"/>
<text text-anchor="middle" x="211" y="-178" font-family="FreeSans" font-size="10.00"> myArray</text>
</g>
<!-- Node6 -->
<g id="node6" class="node"><title>Node6</title>
<g id="a_node6"><a xlink:href="classDGtal_1_1PointVector.html" target="_top" xlink:title="Aim: Implements basic operations that will be used in Point and Vector classes. ">
<polygon fill="white" stroke="black" points="148,-93.5 148,-134.5 274,-134.5 274,-93.5 148,-93.5"/>
<text text-anchor="start" x="156" y="-122.5" font-family="FreeSans" font-size="10.00">DGtal::PointVector</text>
<text text-anchor="start" x="156" y="-111.5" font-family="FreeSans" font-size="10.00">&lt; dim, TEuclideanRing,</text>
<text text-anchor="middle" x="211" y="-100.5" font-family="FreeSans" font-size="10.00"> TContainer &gt;</text>
</a>
</g>
</g>
<!-- Node5&#45;&gt;Node6 -->
<g id="edge6" class="edge"><title>Node5&#45;&gt;Node6</title>
<path fill="none" stroke="#9a32cd" stroke-dasharray="5,2" d="M73.4757,-159.248C95.3137,-152.01 123.167,-142.779 148.013,-134.544"/>
<polygon fill="#9a32cd" stroke="#9a32cd" points="72.2888,-155.954 63.8977,-162.422 74.4911,-162.599 72.2888,-155.954"/>
<text text-anchor="middle" x="108" y="-158" font-family="FreeSans" font-size="10.00"> myArray</text>
</g>
<!-- Node6&#45;&gt;Node4 -->
<g id="edge5" class="edge"><title>Node6&#45;&gt;Node4</title>
<path fill="none" stroke="#9a32cd" stroke-dasharray="5,2" d="M284.272,-107.669C313.133,-106.888 346.462,-108.205 376,-115 391.529,-118.572 407.661,-126.046 420.418,-132.98"/>
<polygon fill="#9a32cd" stroke="#9a32cd" points="284.133,-104.171 274.264,-108.027 284.383,-111.167 284.133,-104.171"/>
<text text-anchor="middle" x="334" y="-118" font-family="FreeSans" font-size="10.00"> zero</text>
</g>
<!-- Node6&#45;&gt;Node4 -->
<g id="edge8" class="edge"><title>Node6&#45;&gt;Node4</title>
<path fill="none" stroke="orange" stroke-dasharray="5,2" d="M283.942,-124.812C286.662,-125.215 289.356,-125.612 292,-126 325.985,-130.992 364.235,-136.492 393.989,-140.744"/>
<polygon fill="orange" stroke="orange" points="284.418,-121.345 274.012,-123.34 283.391,-128.269 284.418,-121.345"/>
<text text-anchor="middle" x="334" y="-142" font-family="FreeSans" font-size="10.00"> &lt; dim, Integer &gt;</text>
</g>
<!-- Node6&#45;&gt;Node6 -->
<g id="edge7" class="edge"><title>Node6&#45;&gt;Node6</title>
<path fill="none" stroke="#9a32cd" stroke-dasharray="5,2" d="M193.766,-144.601C196.515,-149.023 202.259,-152 211,-152 225.344,-152 231.619,-143.984 229.826,-134.716"/>
<polygon fill="#9a32cd" stroke="#9a32cd" points="197.22,-144.032 192.174,-134.716 190.309,-145.146 197.22,-144.032"/>
<text text-anchor="middle" x="211" y="-155" font-family="FreeSans" font-size="10.00"> zero</text>
</g>
<!-- Node7&#45;&gt;Node3 -->
<g id="edge9" class="edge"><title>Node7&#45;&gt;Node3</title>
<path fill="none" stroke="orange" stroke-dasharray="5,2" d="M750.363,-119.295C785.468,-123.684 826.056,-128.757 859.948,-132.994"/>
<polygon fill="orange" stroke="orange" points="750.496,-115.785 740.139,-118.017 749.628,-122.731 750.496,-115.785"/>
<text text-anchor="middle" x="800" y="-134" font-family="FreeSans" font-size="10.00"> &lt; dim, Integer &gt;</text>
</g>
<!-- Node8&#45;&gt;Node1 -->
<g id="edge11" class="edge"><title>Node8&#45;&gt;Node1</title>
<path fill="none" stroke="#9a32cd" stroke-dasharray="5,2" d="M2077.53,-44.0757C2042.28,-38.4753 2002.5,-32.7799 1966,-29 1911.74,-23.3811 1850.92,-19.9556 1801.54,-17.9009"/>
<polygon fill="#9a32cd" stroke="#9a32cd" points="2077.4,-47.5997 2087.83,-45.7295 2078.51,-40.6882 2077.4,-47.5997"/>
<text text-anchor="middle" x="1893" y="-32" font-family="FreeSans" font-size="10.00"> myTracker</text>
</g>
<!-- Node9&#45;&gt;Node8 -->
<g id="edge12" class="edge"><title>Node9&#45;&gt;Node8</title>
<path fill="none" stroke="#9a32cd" stroke-dasharray="5,2" d="M1975.96,-98.384C2010.91,-92.152 2051.85,-84.8525 2087.84,-78.434"/>
<polygon fill="#9a32cd" stroke="#9a32cd" points="1975.03,-94.9951 1965.8,-100.196 1976.26,-101.886 1975.03,-94.9951"/>
<text text-anchor="middle" x="2027" y="-100" font-family="FreeSans" font-size="10.00"> myNeighborhood</text>
</g>
<!-- Node10 -->
<g id="node10" class="node"><title>Node10</title>
<g id="a_node10"><a xlink:href="classDGtal_1_1SurfelAdjacency.html" target="_top" xlink:title="DGtal::SurfelAdjacency\l\&lt; KSpace::dimension \&gt;">
<polygon fill="white" stroke="black" points="1168.5,-26 1168.5,-56 1299.5,-56 1299.5,-26 1168.5,-26"/>
<text text-anchor="start" x="1176.5" y="-44" font-family="FreeSans" font-size="10.00">DGtal::SurfelAdjacency</text>
<text text-anchor="middle" x="1234" y="-33" font-family="FreeSans" font-size="10.00">&lt; KSpace::dimension &gt;</text>
</a>
</g>
</g>
<!-- Node10&#45;&gt;Node1 -->
<g id="edge20" class="edge"><title>Node10&#45;&gt;Node1</title>
<path fill="none" stroke="#9a32cd" stroke-dasharray="5,2" d="M1290.75,-23.1818C1302.29,-20.2038 1314.45,-17.5735 1326,-16 1419.79,-3.22448 1527.96,-4.60042 1604.13,-8.19545"/>
<polygon fill="#9a32cd" stroke="#9a32cd" points="1289.54,-19.8826 1280.8,-25.8704 1291.37,-26.6402 1289.54,-19.8826"/>
<text text-anchor="middle" x="1374" y="-19" font-family="FreeSans" font-size="10.00"> mySurfelAdjacency</text>
</g>
<!-- Node10&#45;&gt;Node9 -->
<g id="edge14" class="edge"><title>Node10&#45;&gt;Node9</title>
<path fill="none" stroke="#9a32cd" stroke-dasharray="5,2" d="M1309.93,-45.783C1344.14,-48.1791 1385.15,-51.3493 1422,-55 1563.54,-69.0235 1728.42,-90.5808 1820.46,-103.085"/>
<polygon fill="#9a32cd" stroke="#9a32cd" points="1309.76,-42.2631 1299.54,-45.0646 1309.28,-49.2464 1309.76,-42.2631"/>
<text text-anchor="middle" x="1513" y="-76" font-family="FreeSans" font-size="10.00"> mySurfelAdj</text>
</g>
<!-- Node10&#45;&gt;Node12 -->
<g id="edge18" class="edge"><title>Node10&#45;&gt;Node12</title>
<path fill="none" stroke="#9a32cd" stroke-dasharray="5,2" d="M1309.94,-51.5838C1352.72,-58.2203 1401.76,-67.0044 1422,-75 1448.8,-85.5841 1476.14,-104.614 1493.54,-117.982"/>
<polygon fill="#9a32cd" stroke="#9a32cd" points="1310.2,-48.0836 1299.79,-50.0306 1309.14,-55.003 1310.2,-48.0836"/>
<text text-anchor="middle" x="1374" y="-78" font-family="FreeSans" font-size="10.00"> mySurfelAdj</text>
</g>
<!-- Node11 -->
<g id="node11" class="node"><title>Node11</title>
<g id="a_node11"><a xlink:href="classDGtal_1_1SurfelAdjacency.html" target="_top" xlink:title="Aim: Represent adjacencies between surfel elements, telling if it follows an interior to exterior ord...">
<polygon fill="white" stroke="black" points="870,-26 870,-56 996,-56 996,-26 870,-26"/>
<text text-anchor="start" x="878" y="-44" font-family="FreeSans" font-size="10.00">DGtal::SurfelAdjacency</text>
<text text-anchor="middle" x="933" y="-33" font-family="FreeSans" font-size="10.00">&lt; dim &gt;</text>
</a>
</g>
</g>
<!-- Node11&#45;&gt;Node10 -->
<g id="edge15" class="edge"><title>Node11&#45;&gt;Node10</title>
<path fill="none" stroke="orange" stroke-dasharray="5,2" d="M1006.61,-41C1056.03,-41 1120.83,-41 1168.44,-41"/>
<polygon fill="orange" stroke="orange" points="1006.32,-37.5001 996.316,-41 1006.32,-44.5001 1006.32,-37.5001"/>
<text text-anchor="middle" x="1083" y="-44" font-family="FreeSans" font-size="10.00"> &lt; KSpace::dimension &gt;</text>
</g>
<!-- Node12&#45;&gt;Node9 -->
<g id="edge16" class="edge"><title>Node12&#45;&gt;Node9</title>
<path fill="none" stroke="orange" stroke-dasharray="5,2" d="M1595.63,-128.681C1662.57,-125.139 1756.39,-120.175 1820.43,-116.787"/>
<polygon fill="orange" stroke="orange" points="1595.34,-125.191 1585.54,-129.215 1595.71,-132.181 1595.34,-125.191"/>
<text text-anchor="middle" x="1703" y="-132" font-family="FreeSans" font-size="10.00"> &lt; KSpace &gt;</text>
</g>
</g>
</svg>
        <g id="navigator" transform="translate(0 0)" fill="#404254">
                <rect fill="#f2f5e9" fill-opacity="0.5" stroke="#606060" stroke-width=".5" x="0" y="0" width="60" height="60"/>
                <use id="zoomplus" xlink:href="#zoomPlus" x="17" y="9" onmousedown="handleZoom(evt,'in')"/>
                <use id="zoomminus" xlink:href="#zoomMin" x="42" y="9" onmousedown="handleZoom(evt,'out')"/>
                <use id="reset" xlink:href="#resetDef" x="30" y="36" onmousedown="handleReset()"/>
                <g id="arrowUp" xlink:href="#dirArrow" transform="translate(30 24)" onmousedown="handlePan(0,-1)">
                  <use xlink:href="#rim" fill="#404040">
                        <set attributeName="fill" to="#808080" begin="arrowUp.mouseover" end="arrowUp.mouseout"/>
                  </use>
                  <path fill="none" stroke="white" stroke-width="1.5" d="M0,-3.0v7 M-2.5,-0.5L0,-3.0L2.5,-0.5"/>
                </g>
                <g id="arrowRight" xlink:href="#dirArrow" transform="rotate(90) translate(36 -43)" onmousedown="handlePan(1,0)">
                  <use xlink:href="#rim" fill="#404040">
                        <set attributeName="fill" to="#808080" begin="arrowRight.mouseover" end="arrowRight.mouseout"/>
                  </use>
                  <path fill="none" stroke="white" stroke-width="1.5" d="M0,-3.0v7 M-2.5,-0.5L0,-3.0L2.5,-0.5"/>
                </g>
                <g id="arrowDown" xlink:href="#dirArrow" transform="rotate(180) translate(-30 -48)" onmousedown="handlePan(0,1)">
                  <use xlink:href="#rim" fill="#404040">
                        <set attributeName="fill" to="#808080" begin="arrowDown.mouseover" end="arrowDown.mouseout"/>
                  </use>
                  <path fill="none" stroke="white" stroke-width="1.5" d="M0,-3.0v7 M-2.5,-0.5L0,-3.0L2.5,-0.5"/>
                </g>
                <g id="arrowLeft" xlink:href="#dirArrow" transform="rotate(270) translate(-36 17)" onmousedown="handlePan(-1,0)">
                  <use xlink:href="#rim" fill="#404040">
                        <set attributeName="fill" to="#808080" begin="arrowLeft.mouseover" end="arrowLeft.mouseout"/>
                  </use>
                  <path fill="none" stroke="white" stroke-width="1.5" d="M0,-3.0v7 M-2.5,-0.5L0,-3.0L2.5,-0.5"/>
                </g>
        </g>
        <svg viewBox="0 0 15 15" width="100%" height="30px" preserveAspectRatio="xMaxYMin meet">
         <g id="arrow_out" transform="scale(0.3 0.3)">
          <a xlink:href="classDGtal_1_1LightImplicitDigitalSurface__coll__graph_org.svg" target="_base">
           <rect id="button" ry="5" rx="5" y="6" x="6" height="38" width="38"
                fill="#f2f5e9" fill-opacity="0.5" stroke="#606060" stroke-width="1.0"/>
           <path id="arrow"
             d="M 11.500037,31.436501 C 11.940474,20.09759 22.043105,11.32322 32.158766,21.979434 L 37.068811,17.246167 C 37.068811,17.246167 37.088388,32 37.088388,32 L 22.160133,31.978069 C 22.160133,31.978069 26.997745,27.140456 26.997745,27.140456 C 18.528582,18.264221 13.291696,25.230495 11.500037,31.436501 z"
             style="fill:#404040;"/>
          </a>
         </g>
        </svg>
</svg>
