<?xml version="1.0" encoding="UTF-8" standalone="no"?>
<!DOCTYPE svg PUBLIC "-//W3C//DTD SVG 1.1//EN"
 "http://www.w3.org/Graphics/SVG/1.1/DTD/svg11.dtd">
<!-- Generated by graphviz version 2.38.0 (20140413.2041)
 -->
<!-- Title: DGtal::ArithmeticalDSS&lt; TCoordinate, TInteger, adjacency &gt; Pages: 1 -->
<!--zoomable 222 -->
<svg id="main" version="1.1" xmlns="http://www.w3.org/2000/svg" xmlns:xlink="http://www.w3.org/1999/xlink" xml:space="preserve" onload="init(evt)">
<style type="text/css"><![CDATA[
.edge:hover path { stroke: red; }
.edge:hover polygon { stroke: red; fill: red; }
]]></style>
<script type="text/javascript"><![CDATA[
var edges = document.getElementsByTagName('g');
if (edges && edges.length) {
  for (var i=0;i<edges.length;i++) {
    if (edges[i].id.substr(0,4)=='edge') {
      edges[i].setAttribute('class','edge');
    }
  }
}
]]></script>
        <defs>
                <circle id="rim" cx="0" cy="0" r="7"/>
                <circle id="rim2" cx="0" cy="0" r="3.5"/>
                <g id="zoomPlus">
                        <use xlink:href="#rim" fill="#404040">
                                <set attributeName="fill" to="#808080" begin="zoomplus.mouseover" end="zoomplus.mouseout"/>
                        </use>
                        <path d="M-4,0h8M0,-4v8" fill="none" stroke="white" stroke-width="1.5" pointer-events="none"/>
                </g>
                <g id="zoomMin">
                        <use xlink:href="#rim" fill="#404040">
                                <set attributeName="fill" to="#808080" begin="zoomminus.mouseover" end="zoomminus.mouseout"/>
                        </use>
                        <path d="M-4,0h8" fill="none" stroke="white" stroke-width="1.5" pointer-events="none"/>
                </g>
                <g id="dirArrow">
                        <path fill="none" stroke="white" stroke-width="1.5" d="M0,-3.0v7 M-2.5,-0.5L0,-3.0L2.5,-0.5"/>
                </g>
               <g id="resetDef">
                       <use xlink:href="#rim2" fill="#404040">
                               <set attributeName="fill" to="#808080" begin="reset.mouseover" end="reset.mouseout"/>
                       </use>
               </g>
        </defs>

<script type="text/javascript">
var viewWidth = 1008;
var viewHeight = 222;
var sectionId = 'dynsection-1';
</script>
<script xlink:href="svgpan.js"/>
<svg id="graph" class="graph">
<g id="viewport">
<title>DGtal::ArithmeticalDSS&lt; TCoordinate, TInteger, adjacency &gt;</title>
<polygon fill="white" stroke="none" points="-4,4 -4,-218 1004,-218 1004,4 -4,4"/>
<!-- Node6 -->
<g id="node1" class="node"><title>Node6</title>
<polygon fill="#bfbfbf" stroke="black" points="867,-125.5 867,-166.5 1000,-166.5 1000,-125.5 867,-125.5"/>
<text text-anchor="start" x="875" y="-154.5" font-family="FreeSans" font-size="10.00">DGtal::ArithmeticalDSS</text>
<text text-anchor="start" x="875" y="-143.5" font-family="FreeSans" font-size="10.00">&lt; TCoordinate, TInteger,</text>
<text text-anchor="middle" x="933.5" y="-132.5" font-family="FreeSans" font-size="10.00"> adjacency &gt;</text>
</g>
<!-- Node7 -->
<g id="node2" class="node"><title>Node7</title>
<g id="a_node2"><a xlink:href="classDGtal_1_1PointVector.html" target="_top" xlink:title="Aim: Implements basic operations that will be used in Point and Vector classes. ">
<polygon fill="white" stroke="black" points="148,-105.5 148,-146.5 274,-146.5 274,-105.5 148,-105.5"/>
<text text-anchor="start" x="156" y="-134.5" font-family="FreeSans" font-size="10.00">DGtal::PointVector</text>
<text text-anchor="start" x="156" y="-123.5" font-family="FreeSans" font-size="10.00">&lt; dim, TEuclideanRing,</text>
<text text-anchor="middle" x="211" y="-112.5" font-family="FreeSans" font-size="10.00"> TContainer &gt;</text>
</a>
</g>
</g>
<!-- Node7&#45;&gt;Node6 -->
<g id="edge1" class="edge"><title>Node7&#45;&gt;Node6</title>
<path fill="none" stroke="#9a32cd" stroke-dasharray="5,2" d="M284.374,-136.322C286.945,-136.571 289.493,-136.798 292,-137 521.965,-155.518 580.292,-146.204 811,-147 827.889,-147.058 832.111,-147.101 849,-147 854.799,-146.965 860.824,-146.917 866.864,-146.86"/>
<polygon fill="#9a32cd" stroke="#9a32cd" points="284.69,-132.836 274.378,-135.268 283.955,-139.797 284.69,-132.836"/>
<text text-anchor="middle" x="593" y="-206" font-family="FreeSans" font-size="10.00"> myUl</text>
<text text-anchor="middle" x="593" y="-195" font-family="FreeSans" font-size="10.00">myLf</text>
<text text-anchor="middle" x="593" y="-184" font-family="FreeSans" font-size="10.00">myF</text>
<text text-anchor="middle" x="593" y="-173" font-family="FreeSans" font-size="10.00">myLl</text>
<text text-anchor="middle" x="593" y="-162" font-family="FreeSans" font-size="10.00">myUf</text>
<text text-anchor="middle" x="593" y="-151" font-family="FreeSans" font-size="10.00">myL</text>
</g>
<!-- Node7&#45;&gt;Node7 -->
<g id="edge3" class="edge"><title>Node7&#45;&gt;Node7</title>
<path fill="none" stroke="#9a32cd" stroke-dasharray="5,2" d="M193.452,-156.856C196.061,-161.697 201.911,-165 211,-165 225.543,-165 231.792,-156.543 229.747,-146.864"/>
<polygon fill="#9a32cd" stroke="#9a32cd" points="196.919,-156.376 192.253,-146.864 189.969,-157.21 196.919,-156.376"/>
<text text-anchor="middle" x="211" y="-168" font-family="FreeSans" font-size="10.00"> zero</text>
</g>
<!-- Node9 -->
<g id="node4" class="node"><title>Node9</title>
<g id="a_node4"><a xlink:href="classDGtal_1_1ArithmeticalDSL.html" target="_top" xlink:title="DGtal::ArithmeticalDSL\l\&lt; Coordinate, Integer,\l adjacency \&gt;">
<polygon fill="white" stroke="black" points="666,-95.5 666,-136.5 793,-136.5 793,-95.5 666,-95.5"/>
<text text-anchor="start" x="674" y="-124.5" font-family="FreeSans" font-size="10.00">DGtal::ArithmeticalDSL</text>
<text text-anchor="start" x="674" y="-113.5" font-family="FreeSans" font-size="10.00">&lt; Coordinate, Integer,</text>
<text text-anchor="middle" x="729.5" y="-102.5" font-family="FreeSans" font-size="10.00"> adjacency &gt;</text>
</a>
</g>
</g>
<!-- Node7&#45;&gt;Node9 -->
<g id="edge5" class="edge"><title>Node7&#45;&gt;Node9</title>
<path fill="none" stroke="#9a32cd" stroke-dasharray="5,2" d="M284.228,-124.602C385.943,-122.632 569.691,-119.075 665.906,-117.212"/>
<polygon fill="#9a32cd" stroke="#9a32cd" points="283.976,-121.106 274.045,-124.799 284.111,-128.104 283.976,-121.106"/>
<text text-anchor="middle" x="453.5" y="-125" font-family="FreeSans" font-size="10.00"> myShift</text>
</g>
<!-- Node10 -->
<g id="node5" class="node"><title>Node10</title>
<g id="a_node5"><a xlink:href="classDGtal_1_1ArithmeticalDSL.html" target="_top" xlink:title="Aim: This class represents a naive (resp. standard) digital straight line (DSL), ie. the set of digital points &#160;such that &#160;with , &#160;and &#160;(resp. ). Note that any DSL such that &#160;(resp. ) is simply 8&#45;connected (resp. 4&#45;connected). ">
<polygon fill="white" stroke="black" points="387,-41.5 387,-82.5 520,-82.5 520,-41.5 387,-41.5"/>
<text text-anchor="start" x="395" y="-70.5" font-family="FreeSans" font-size="10.00">DGtal::ArithmeticalDSL</text>
<text text-anchor="start" x="395" y="-59.5" font-family="FreeSans" font-size="10.00">&lt; TCoordinate, TInteger,</text>
<text text-anchor="middle" x="453.5" y="-48.5" font-family="FreeSans" font-size="10.00"> adjacency &gt;</text>
</a>
</g>
</g>
<!-- Node7&#45;&gt;Node10 -->
<g id="edge8" class="edge"><title>Node7&#45;&gt;Node10</title>
<path fill="none" stroke="#9a32cd" stroke-dasharray="5,2" d="M284.075,-103.241C286.747,-102.472 289.395,-101.723 292,-101 322.948,-92.4141 357.537,-83.876 386.657,-76.9873"/>
<polygon fill="#9a32cd" stroke="#9a32cd" points="282.95,-99.9234 274.337,-106.093 284.917,-106.641 282.95,-99.9234"/>
<text text-anchor="middle" x="330.5" y="-104" font-family="FreeSans" font-size="10.00"> myShift</text>
</g>
<!-- Node8 -->
<g id="node3" class="node"><title>Node8</title>
<polygon fill="white" stroke="#bfbfbf" points="0,-116.5 0,-135.5 68,-135.5 68,-116.5 0,-116.5"/>
<text text-anchor="middle" x="34" y="-123.5" font-family="FreeSans" font-size="10.00">TContainer</text>
</g>
<!-- Node8&#45;&gt;Node7 -->
<g id="edge2" class="edge"><title>Node8&#45;&gt;Node7</title>
<path fill="none" stroke="#9a32cd" stroke-dasharray="5,2" d="M78.5018,-126C99.4065,-126 124.84,-126 147.749,-126"/>
<polygon fill="#9a32cd" stroke="#9a32cd" points="78.3281,-122.5 68.3281,-126 78.328,-129.5 78.3281,-122.5"/>
<text text-anchor="middle" x="108" y="-129" font-family="FreeSans" font-size="10.00"> myArray</text>
</g>
<!-- Node9&#45;&gt;Node6 -->
<g id="edge4" class="edge"><title>Node9&#45;&gt;Node6</title>
<path fill="none" stroke="#9a32cd" stroke-dasharray="5,2" d="M803.08,-126.779C823.872,-129.867 846.414,-133.215 866.769,-136.238"/>
<polygon fill="#9a32cd" stroke="#9a32cd" points="803.436,-123.294 793.031,-125.287 802.408,-130.218 803.436,-123.294"/>
<text text-anchor="middle" x="830" y="-135" font-family="FreeSans" font-size="10.00"> myDSL</text>
</g>
<!-- Node10&#45;&gt;Node9 -->
<g id="edge6" class="edge"><title>Node10&#45;&gt;Node9</title>
<path fill="none" stroke="orange" stroke-dasharray="5,2" d="M530.323,-69.9659C566.255,-74.5047 609.616,-81.0915 648,-90 654.724,-91.5606 661.692,-93.4245 668.589,-95.4278"/>
<polygon fill="orange" stroke="orange" points="530.749,-66.4921 520.396,-68.7398 529.891,-73.4393 530.749,-66.4921"/>
<text text-anchor="start" x="538" y="-104" font-family="FreeSans" font-size="10.00"> &lt; Coordinate, Integer,</text>
<text text-anchor="middle" x="593" y="-93" font-family="FreeSans" font-size="10.00"> adjacency &gt;</text>
</g>
<!-- Node11 -->
<g id="node6" class="node"><title>Node11</title>
<polygon fill="white" stroke="#bfbfbf" points="174,-45.5 174,-64.5 248,-64.5 248,-45.5 174,-45.5"/>
<text text-anchor="middle" x="211" y="-52.5" font-family="FreeSans" font-size="10.00">TCoordinate</text>
</g>
<!-- Node11&#45;&gt;Node10 -->
<g id="edge7" class="edge"><title>Node11&#45;&gt;Node10</title>
<path fill="none" stroke="#9a32cd" stroke-dasharray="5,2" d="M258.346,-54.5009C289.616,-54.3594 331.805,-54.5467 369,-56 374.809,-56.227 380.841,-56.5295 386.885,-56.8784"/>
<polygon fill="#9a32cd" stroke="#9a32cd" points="258.162,-51.0018 248.183,-54.5602 258.203,-58.0017 258.162,-51.0018"/>
<text text-anchor="middle" x="330.5" y="-70" font-family="FreeSans" font-size="10.00"> myA</text>
<text text-anchor="middle" x="330.5" y="-59" font-family="FreeSans" font-size="10.00">myB</text>
</g>
<!-- Node12 -->
<g id="node7" class="node"><title>Node12</title>
<polygon fill="white" stroke="#bfbfbf" points="183,-0.5 183,-19.5 239,-19.5 239,-0.5 183,-0.5"/>
<text text-anchor="middle" x="211" y="-7.5" font-family="FreeSans" font-size="10.00">TInteger</text>
</g>
<!-- Node12&#45;&gt;Node10 -->
<g id="edge9" class="edge"><title>Node12&#45;&gt;Node10</title>
<path fill="none" stroke="#9a32cd" stroke-dasharray="5,2" d="M249.354,-11.4215C281.493,-13.3197 328.881,-17.7381 369,-28 382.041,-31.3357 395.743,-36.2673 408.191,-41.3461"/>
<polygon fill="#9a32cd" stroke="#9a32cd" points="249.245,-7.91072 239.071,-10.8696 248.869,-14.9007 249.245,-7.91072"/>
<text text-anchor="middle" x="330.5" y="-42" font-family="FreeSans" font-size="10.00"> myLowerBound</text>
<text text-anchor="middle" x="330.5" y="-31" font-family="FreeSans" font-size="10.00">myUpperBound</text>
</g>
</g>
</svg>
        <g id="navigator" transform="translate(0 0)" fill="#404254">
                <rect fill="#f2f5e9" fill-opacity="0.5" stroke="#606060" stroke-width=".5" x="0" y="0" width="60" height="60"/>
                <use id="zoomplus" xlink:href="#zoomPlus" x="17" y="9" onmousedown="handleZoom(evt,'in')"/>
                <use id="zoomminus" xlink:href="#zoomMin" x="42" y="9" onmousedown="handleZoom(evt,'out')"/>
                <use id="reset" xlink:href="#resetDef" x="30" y="36" onmousedown="handleReset()"/>
                <g id="arrowUp" xlink:href="#dirArrow" transform="translate(30 24)" onmousedown="handlePan(0,-1)">
                  <use xlink:href="#rim" fill="#404040">
                        <set attributeName="fill" to="#808080" begin="arrowUp.mouseover" end="arrowUp.mouseout"/>
                  </use>
                  <path fill="none" stroke="white" stroke-width="1.5" d="M0,-3.0v7 M-2.5,-0.5L0,-3.0L2.5,-0.5"/>
                </g>
                <g id="arrowRight" xlink:href="#dirArrow" transform="rotate(90) translate(36 -43)" onmousedown="handlePan(1,0)">
                  <use xlink:href="#rim" fill="#404040">
                        <set attributeName="fill" to="#808080" begin="arrowRight.mouseover" end="arrowRight.mouseout"/>
                  </use>
                  <path fill="none" stroke="white" stroke-width="1.5" d="M0,-3.0v7 M-2.5,-0.5L0,-3.0L2.5,-0.5"/>
                </g>
                <g id="arrowDown" xlink:href="#dirArrow" transform="rotate(180) translate(-30 -48)" onmousedown="handlePan(0,1)">
                  <use xlink:href="#rim" fill="#404040">
                        <set attributeName="fill" to="#808080" begin="arrowDown.mouseover" end="arrowDown.mouseout"/>
                  </use>
                  <path fill="none" stroke="white" stroke-width="1.5" d="M0,-3.0v7 M-2.5,-0.5L0,-3.0L2.5,-0.5"/>
                </g>
                <g id="arrowLeft" xlink:href="#dirArrow" transform="rotate(270) translate(-36 17)" onmousedown="handlePan(-1,0)">
                  <use xlink:href="#rim" fill="#404040">
                        <set attributeName="fill" to="#808080" begin="arrowLeft.mouseover" end="arrowLeft.mouseout"/>
                  </use>
                  <path fill="none" stroke="white" stroke-width="1.5" d="M0,-3.0v7 M-2.5,-0.5L0,-3.0L2.5,-0.5"/>
                </g>
        </g>
        <svg viewBox="0 0 15 15" width="100%" height="30px" preserveAspectRatio="xMaxYMin meet">
         <g id="arrow_out" transform="scale(0.3 0.3)">
          <a xlink:href="classDGtal_1_1ArithmeticalDSS__coll__graph_org.svg" target="_base">
           <rect id="button" ry="5" rx="5" y="6" x="6" height="38" width="38"
                fill="#f2f5e9" fill-opacity="0.5" stroke="#606060" stroke-width="1.0"/>
           <path id="arrow"
             d="M 11.500037,31.436501 C 11.940474,20.09759 22.043105,11.32322 32.158766,21.979434 L 37.068811,17.246167 C 37.068811,17.246167 37.088388,32 37.088388,32 L 22.160133,31.978069 C 22.160133,31.978069 26.997745,27.140456 26.997745,27.140456 C 18.528582,18.264221 13.291696,25.230495 11.500037,31.436501 z"
             style="fill:#404040;"/>
          </a>
         </g>
        </svg>
</svg>
