<?xml version="1.0" encoding="UTF-8" standalone="no"?>
<!DOCTYPE svg PUBLIC "-//W3C//DTD SVG 1.1//EN"
 "http://www.w3.org/Graphics/SVG/1.1/DTD/svg11.dtd">
<!-- Generated by graphviz version 2.38.0 (20140413.2041)
 -->
<!-- Title: DGtal::Statistic&lt; TQuantity &gt; Pages: 1 -->
<svg width="222pt" height="273pt"
 viewBox="0.00 0.00 221.50 273.00" xmlns="http://www.w3.org/2000/svg" xmlns:xlink="http://www.w3.org/1999/xlink">
<g id="graph0" class="graph" transform="scale(1 1) rotate(0) translate(4 269)">
<title>DGtal::Statistic&lt; TQuantity &gt;</title>
<polygon fill="white" stroke="none" points="-4,4 -4,-269 217.5,-269 217.5,4 -4,4"/>
<!-- Node2 -->
<g id="node1" class="node"><title>Node2</title>
<polygon fill="#bfbfbf" stroke="black" points="0,-0.5 0,-19.5 157,-19.5 157,-0.5 0,-0.5"/>
<text text-anchor="middle" x="78.5" y="-7.5" font-family="FreeSans" font-size="10.00">DGtal::Statistic&lt; TQuantity &gt;</text>
</g>
<!-- Node3 -->
<g id="node2" class="node"><title>Node3</title>
<polygon fill="white" stroke="#bfbfbf" points="0.5,-111.5 0.5,-130.5 62.5,-130.5 62.5,-111.5 0.5,-111.5"/>
<text text-anchor="middle" x="31.5" y="-118.5" font-family="FreeSans" font-size="10.00">TQuantity</text>
</g>
<!-- Node3&#45;&gt;Node2 -->
<g id="edge1" class="edge"><title>Node3&#45;&gt;Node2</title>
<path fill="none" stroke="#9a32cd" stroke-dasharray="5,2" d="M33.8676,-101.406C36.6571,-84.1283 42.3948,-58.1105 53.5,-38 57.3293,-31.0655 63.3144,-24.5141 68.4685,-19.6016"/>
<polygon fill="#9a32cd" stroke="#9a32cd" points="30.3971,-100.951 32.4334,-111.348 37.3254,-101.95 30.3971,-100.951"/>
<text text-anchor="middle" x="78.5" y="-85" font-family="FreeSans" font-size="10.00"> myExp2</text>
<text text-anchor="middle" x="78.5" y="-74" font-family="FreeSans" font-size="10.00">myMin</text>
<text text-anchor="middle" x="78.5" y="-63" font-family="FreeSans" font-size="10.00">myMax</text>
<text text-anchor="middle" x="78.5" y="-52" font-family="FreeSans" font-size="10.00">myMedian</text>
<text text-anchor="middle" x="78.5" y="-41" font-family="FreeSans" font-size="10.00">myExp</text>
</g>
<!-- Node4 -->
<g id="node3" class="node"><title>Node4</title>
<polygon fill="white" stroke="#bfbfbf" points="81,-111.5 81,-130.5 212,-130.5 212,-111.5 81,-111.5"/>
<text text-anchor="middle" x="146.5" y="-118.5" font-family="FreeSans" font-size="10.00">std::vector&lt; Quantity &gt;</text>
</g>
<!-- Node4&#45;&gt;Node2 -->
<g id="edge2" class="edge"><title>Node4&#45;&gt;Node2</title>
<path fill="none" stroke="#9a32cd" stroke-dasharray="5,2" d="M138.765,-102.056C130.991,-84.8994 118.092,-58.6589 103.5,-38 98.9299,-31.5297 92.9216,-24.9928 87.9406,-19.9719"/>
<polygon fill="#9a32cd" stroke="#9a32cd" points="135.667,-103.704 142.913,-111.434 142.069,-100.873 135.667,-103.704"/>
<text text-anchor="middle" x="158.5" y="-63" font-family="FreeSans" font-size="10.00"> myValues</text>
</g>
<!-- Node5 -->
<g id="node4" class="node"><title>Node5</title>
<g id="a_node4"><a xlink:title="STL class. ">
<polygon fill="white" stroke="#bfbfbf" points="99,-178.5 99,-197.5 194,-197.5 194,-178.5 99,-178.5"/>
<text text-anchor="middle" x="146.5" y="-185.5" font-family="FreeSans" font-size="10.00">std::vector&lt; T &gt;</text>
</a>
</g>
</g>
<!-- Node5&#45;&gt;Node4 -->
<g id="edge3" class="edge"><title>Node5&#45;&gt;Node4</title>
<path fill="none" stroke="orange" stroke-dasharray="5,2" d="M146.5,-168.037C146.5,-155.67 146.5,-140.12 146.5,-130.627"/>
<polygon fill="orange" stroke="orange" points="143,-168.234 146.5,-178.234 150,-168.234 143,-168.234"/>
<text text-anchor="middle" x="180" y="-152" font-family="FreeSans" font-size="10.00"> &lt; Quantity &gt;</text>
</g>
<!-- Node6 -->
<g id="node5" class="node"><title>Node6</title>
<polygon fill="white" stroke="#bfbfbf" points="132,-245.5 132,-264.5 161,-264.5 161,-245.5 132,-245.5"/>
<text text-anchor="middle" x="146.5" y="-252.5" font-family="FreeSans" font-size="10.00">T</text>
</g>
<!-- Node6&#45;&gt;Node5 -->
<g id="edge4" class="edge"><title>Node6&#45;&gt;Node5</title>
<path fill="none" stroke="#9a32cd" stroke-dasharray="5,2" d="M146.5,-235.037C146.5,-222.67 146.5,-207.12 146.5,-197.627"/>
<polygon fill="#9a32cd" stroke="#9a32cd" points="143,-235.234 146.5,-245.234 150,-235.234 143,-235.234"/>
<text text-anchor="middle" x="171" y="-219" font-family="FreeSans" font-size="10.00"> elements</text>
</g>
</g>
</svg>
