<?xml version="1.0" encoding="UTF-8" standalone="no"?>
<!DOCTYPE svg PUBLIC "-//W3C//DTD SVG 1.1//EN"
 "http://www.w3.org/Graphics/SVG/1.1/DTD/svg11.dtd">
<!-- Generated by graphviz version 2.38.0 (20140413.2041)
 -->
<!-- Title: DGtal::Image&lt; TImageContainer &gt; Pages: 1 -->
<svg width="288pt" height="318pt"
 viewBox="0.00 0.00 287.50 318.00" xmlns="http://www.w3.org/2000/svg" xmlns:xlink="http://www.w3.org/1999/xlink">
<g id="graph0" class="graph" transform="scale(1 1) rotate(0) translate(4 314)">
<title>DGtal::Image&lt; TImageContainer &gt;</title>
<polygon fill="white" stroke="none" points="-4,4 -4,-314 283.5,-314 283.5,4 -4,4"/>
<!-- Node1 -->
<g id="node1" class="node"><title>Node1</title>
<polygon fill="#bfbfbf" stroke="black" points="61.5,-0.5 61.5,-19.5 245.5,-19.5 245.5,-0.5 61.5,-0.5"/>
<text text-anchor="middle" x="153.5" y="-7.5" font-family="FreeSans" font-size="10.00">DGtal::Image&lt; TImageContainer &gt;</text>
</g>
<!-- Node2 -->
<g id="node2" class="node"><title>Node2</title>
<g id="a_node2"><a xlink:href="classDGtal_1_1CowPtr.html" target="_top" xlink:title="DGtal::CowPtr\&lt; TImageContainer \&gt;">
<polygon fill="white" stroke="black" points="60,-67.5 60,-86.5 247,-86.5 247,-67.5 60,-67.5"/>
<text text-anchor="middle" x="153.5" y="-74.5" font-family="FreeSans" font-size="10.00">DGtal::CowPtr&lt; TImageContainer &gt;</text>
</a>
</g>
</g>
<!-- Node2&#45;&gt;Node1 -->
<g id="edge1" class="edge"><title>Node2&#45;&gt;Node1</title>
<path fill="none" stroke="#9a32cd" stroke-dasharray="5,2" d="M153.5,-57.037C153.5,-44.6703 153.5,-29.1198 153.5,-19.6273"/>
<polygon fill="#9a32cd" stroke="#9a32cd" points="150,-57.2338 153.5,-67.2338 157,-57.2338 150,-57.2338"/>
<text text-anchor="middle" x="194.5" y="-41" font-family="FreeSans" font-size="10.00"> myImagePointer</text>
</g>
<!-- Node3 -->
<g id="node3" class="node"><title>Node3</title>
<g id="a_node3"><a xlink:href="classDGtal_1_1CountedPtr.html" target="_top" xlink:title="DGtal::CountedPtr\&lt;\l TImageContainer \&gt;">
<polygon fill="white" stroke="black" points="0,-134.5 0,-164.5 113,-164.5 113,-134.5 0,-134.5"/>
<text text-anchor="start" x="8" y="-152.5" font-family="FreeSans" font-size="10.00">DGtal::CountedPtr&lt;</text>
<text text-anchor="middle" x="56.5" y="-141.5" font-family="FreeSans" font-size="10.00"> TImageContainer &gt;</text>
</a>
</g>
</g>
<!-- Node3&#45;&gt;Node2 -->
<g id="edge2" class="edge"><title>Node3&#45;&gt;Node2</title>
<path fill="none" stroke="#9a32cd" stroke-dasharray="5,2" d="M84.4068,-128.217C103.326,-114.467 127.38,-96.9842 141.542,-86.6911"/>
<polygon fill="#9a32cd" stroke="#9a32cd" points="82.1608,-125.523 76.1294,-134.233 86.2763,-131.185 82.1608,-125.523"/>
<text text-anchor="middle" x="130.5" y="-108" font-family="FreeSans" font-size="10.00"> myPtr</text>
</g>
<!-- Node4 -->
<g id="node4" class="node"><title>Node4</title>
<g id="a_node4"><a xlink:href="structDGtal_1_1CountedPtr_1_1Counter.html" target="_top" xlink:title="DGtal::CountedPtr\&lt;\l T \&gt;::Counter">
<polygon fill="white" stroke="black" points="27.5,-279.5 27.5,-309.5 139.5,-309.5 139.5,-279.5 27.5,-279.5"/>
<text text-anchor="start" x="35.5" y="-297.5" font-family="FreeSans" font-size="10.00">DGtal::CountedPtr&lt;</text>
<text text-anchor="middle" x="83.5" y="-286.5" font-family="FreeSans" font-size="10.00"> T &gt;::Counter</text>
</a>
</g>
</g>
<!-- Node4&#45;&gt;Node3 -->
<g id="edge3" class="edge"><title>Node4&#45;&gt;Node3</title>
<path fill="none" stroke="#9a32cd" stroke-dasharray="5,2" d="M67.2214,-270.625C60.3009,-259.525 53.0243,-245.659 49.5,-232 43.5393,-208.898 48.4167,-181.018 52.4742,-164.581"/>
<polygon fill="#9a32cd" stroke="#9a32cd" points="64.453,-272.787 72.8606,-279.233 70.3084,-268.951 64.453,-272.787"/>
<text text-anchor="middle" x="78" y="-219.5" font-family="FreeSans" font-size="10.00"> myCounter</text>
</g>
<!-- Node5 -->
<g id="node5" class="node"><title>Node5</title>
<g id="a_node5"><a xlink:href="classDGtal_1_1CountedPtr.html" target="_top" xlink:title="Aim: Smart pointer based on reference counts. ">
<polygon fill="white" stroke="black" points="116,-212.5 116,-231.5 247,-231.5 247,-212.5 116,-212.5"/>
<text text-anchor="middle" x="181.5" y="-219.5" font-family="FreeSans" font-size="10.00">DGtal::CountedPtr&lt; T &gt;</text>
</a>
</g>
</g>
<!-- Node4&#45;&gt;Node5 -->
<g id="edge5" class="edge"><title>Node4&#45;&gt;Node5</title>
<path fill="none" stroke="#9a32cd" stroke-dasharray="5,2" d="M111.695,-273.217C130.809,-259.467 155.111,-241.984 169.419,-231.691"/>
<polygon fill="#9a32cd" stroke="#9a32cd" points="109.406,-270.552 103.332,-279.233 113.493,-276.235 109.406,-270.552"/>
<text text-anchor="middle" x="170" y="-253" font-family="FreeSans" font-size="10.00"> myCounter</text>
</g>
<!-- Node5&#45;&gt;Node3 -->
<g id="edge4" class="edge"><title>Node5&#45;&gt;Node3</title>
<path fill="none" stroke="orange" stroke-dasharray="5,2" d="M157.212,-207.302C135.39,-194.994 103.483,-176.998 81.4577,-164.576"/>
<polygon fill="orange" stroke="orange" points="155.743,-210.491 166.173,-212.355 159.182,-204.394 155.743,-210.491"/>
<text text-anchor="middle" x="184.5" y="-186" font-family="FreeSans" font-size="10.00"> &lt; TImageContainer &gt;</text>
</g>
<!-- Node6 -->
<g id="node6" class="node"><title>Node6</title>
<g id="a_node6"><a xlink:href="classDGtal_1_1CowPtr.html" target="_top" xlink:title="Aim: Copy on write shared pointer. ">
<polygon fill="white" stroke="black" points="131.5,-140 131.5,-159 241.5,-159 241.5,-140 131.5,-140"/>
<text text-anchor="middle" x="186.5" y="-147" font-family="FreeSans" font-size="10.00">DGtal::CowPtr&lt; T &gt;</text>
</a>
</g>
</g>
<!-- Node6&#45;&gt;Node2 -->
<g id="edge6" class="edge"><title>Node6&#45;&gt;Node2</title>
<path fill="none" stroke="orange" stroke-dasharray="5,2" d="M178.16,-130.682C171.582,-116.63 162.692,-97.6384 157.58,-86.7154"/>
<polygon fill="orange" stroke="orange" points="175.044,-132.282 182.454,-139.855 181.384,-129.315 175.044,-132.282"/>
<text text-anchor="middle" x="225.5" y="-108" font-family="FreeSans" font-size="10.00"> &lt; TImageContainer &gt;</text>
</g>
</g>
</svg>
