<?xml version="1.0" encoding="UTF-8" standalone="no"?>
<!DOCTYPE svg PUBLIC "-//W3C//DTD SVG 1.1//EN"
 "http://www.w3.org/Graphics/SVG/1.1/DTD/svg11.dtd">
<!-- Generated by graphviz version 2.38.0 (20140413.2041)
 -->
<!-- Title: DGtal::GradientColorMap&lt; PValue, PDefaultPreset, PDefaultFirstColor, PDefaultLastColor &gt; Pages: 1 -->
<svg width="270pt" height="385pt"
 viewBox="0.00 0.00 269.50 385.00" xmlns="http://www.w3.org/2000/svg" xmlns:xlink="http://www.w3.org/1999/xlink">
<g id="graph0" class="graph" transform="scale(1 1) rotate(0) translate(4 381)">
<title>DGtal::GradientColorMap&lt; PValue, PDefaultPreset, PDefaultFirstColor, PDefaultLastColor &gt;</title>
<polygon fill="white" stroke="none" points="-4,4 -4,-381 265.5,-381 265.5,4 -4,4"/>
<!-- Node4 -->
<g id="node1" class="node"><title>Node4</title>
<polygon fill="#bfbfbf" stroke="black" points="0,-0.5 0,-52.5 171,-52.5 171,-0.5 0,-0.5"/>
<text text-anchor="start" x="8" y="-40.5" font-family="FreeSans" font-size="10.00">DGtal::GradientColorMap</text>
<text text-anchor="start" x="8" y="-29.5" font-family="FreeSans" font-size="10.00">&lt; PValue, PDefaultPreset,</text>
<text text-anchor="start" x="8" y="-18.5" font-family="FreeSans" font-size="10.00"> PDefaultFirstColor, PDefaultLast</text>
<text text-anchor="middle" x="85.5" y="-7.5" font-family="FreeSans" font-size="10.00">Color &gt;</text>
</g>
<!-- Node5 -->
<g id="node2" class="node"><title>Node5</title>
<polygon fill="white" stroke="#bfbfbf" points="23,-117 23,-136 72,-136 72,-117 23,-117"/>
<text text-anchor="middle" x="47.5" y="-124" font-family="FreeSans" font-size="10.00">PValue</text>
</g>
<!-- Node5&#45;&gt;Node4 -->
<g id="edge1" class="edge"><title>Node5&#45;&gt;Node4</title>
<path fill="none" stroke="#9a32cd" stroke-dasharray="5,2" d="M53.5178,-107.12C57.0941,-96.493 61.8311,-82.9091 66.5,-71 68.8462,-65.0155 71.5265,-58.6394 74.1196,-52.6661"/>
<polygon fill="#9a32cd" stroke="#9a32cd" points="50.0901,-106.337 50.2626,-116.93 56.7339,-108.541 50.0901,-106.337"/>
<text text-anchor="middle" x="84" y="-85" font-family="FreeSans" font-size="10.00"> myMin</text>
<text text-anchor="middle" x="84" y="-74" font-family="FreeSans" font-size="10.00">myMax</text>
</g>
<!-- Node6 -->
<g id="node3" class="node"><title>Node6</title>
<polygon fill="white" stroke="#bfbfbf" points="89.5,-111.5 89.5,-141.5 195.5,-141.5 195.5,-111.5 89.5,-111.5"/>
<text text-anchor="start" x="97.5" y="-129.5" font-family="FreeSans" font-size="10.00">std::vector&lt; DGtal</text>
<text text-anchor="middle" x="142.5" y="-118.5" font-family="FreeSans" font-size="10.00">::Color &gt;</text>
</g>
<!-- Node6&#45;&gt;Node4 -->
<g id="edge2" class="edge"><title>Node6&#45;&gt;Node4</title>
<path fill="none" stroke="#9a32cd" stroke-dasharray="5,2" d="M129.285,-102.779C120.535,-87.7352 109.055,-67.9988 100.046,-52.5089"/>
<polygon fill="#9a32cd" stroke="#9a32cd" points="126.28,-104.575 134.333,-111.459 132.331,-101.055 126.28,-104.575"/>
<text text-anchor="middle" x="146" y="-79.5" font-family="FreeSans" font-size="10.00"> myColors</text>
</g>
<!-- Node7 -->
<g id="node4" class="node"><title>Node7</title>
<g id="a_node4"><a xlink:href="classDGtal_1_1Color.html" target="_top" xlink:title="Structure representing an RGB triple with alpha component. ">
<polygon fill="white" stroke="black" points="11.5,-240 11.5,-259 85.5,-259 85.5,-240 11.5,-240"/>
<text text-anchor="middle" x="48.5" y="-247" font-family="FreeSans" font-size="10.00">DGtal::Color</text>
</a>
</g>
</g>
<!-- Node7&#45;&gt;Node6 -->
<g id="edge3" class="edge"><title>Node7&#45;&gt;Node6</title>
<path fill="none" stroke="#9a32cd" stroke-dasharray="5,2" d="M59.1129,-231.087C70.6217,-212.716 89.9753,-183.263 109.5,-160 114.773,-153.718 121.083,-147.282 126.766,-141.813"/>
<polygon fill="#9a32cd" stroke="#9a32cd" points="55.9964,-229.472 53.7124,-239.818 61.9496,-233.154 55.9964,-229.472"/>
<text text-anchor="middle" x="134" y="-163" font-family="FreeSans" font-size="10.00"> elements</text>
</g>
<!-- Node7&#45;&gt;Node7 -->
<g id="edge4" class="edge"><title>Node7&#45;&gt;Node7</title>
<path fill="none" stroke="#9a32cd" stroke-dasharray="5,2" d="M69.9885,-263.227C86.5852,-268.339 103.5,-263.763 103.5,-249.5 103.5,-232.438 79.2943,-229.238 60.3835,-239.902"/>
<polygon fill="#9a32cd" stroke="#9a32cd" points="70.9529,-259.832 60.3835,-259.098 68.1882,-266.263 70.9529,-259.832"/>
<text text-anchor="middle" x="125" y="-302" font-family="FreeSans" font-size="10.00"> Yellow</text>
<text text-anchor="middle" x="125" y="-291" font-family="FreeSans" font-size="10.00">Lime</text>
<text text-anchor="middle" x="125" y="-280" font-family="FreeSans" font-size="10.00">Navy</text>
<text text-anchor="middle" x="125" y="-269" font-family="FreeSans" font-size="10.00">Magenta</text>
<text text-anchor="middle" x="125" y="-258" font-family="FreeSans" font-size="10.00">White</text>
<text text-anchor="middle" x="125" y="-247" font-family="FreeSans" font-size="10.00">None</text>
<text text-anchor="middle" x="125" y="-236" font-family="FreeSans" font-size="10.00">Blue</text>
<text text-anchor="middle" x="125" y="-225" font-family="FreeSans" font-size="10.00">Aqua</text>
<text text-anchor="middle" x="125" y="-214" font-family="FreeSans" font-size="10.00">Purple</text>
<text text-anchor="middle" x="125" y="-203" font-family="FreeSans" font-size="10.00">Silver</text>
<text text-anchor="middle" x="125" y="-192" font-family="FreeSans" font-size="10.00">...</text>
</g>
<!-- Node8 -->
<g id="node5" class="node"><title>Node8</title>
<g id="a_node5"><a xlink:title="STL class. ">
<polygon fill="white" stroke="#bfbfbf" points="165,-240 165,-259 260,-259 260,-240 165,-240"/>
<text text-anchor="middle" x="212.5" y="-247" font-family="FreeSans" font-size="10.00">std::vector&lt; T &gt;</text>
</a>
</g>
</g>
<!-- Node8&#45;&gt;Node6 -->
<g id="edge5" class="edge"><title>Node8&#45;&gt;Node6</title>
<path fill="none" stroke="orange" stroke-dasharray="5,2" d="M202.371,-230.991C188.39,-206.823 163.453,-163.719 150.622,-141.539"/>
<polygon fill="orange" stroke="orange" points="199.429,-232.895 207.466,-239.798 205.488,-229.389 199.429,-232.895"/>
<text text-anchor="middle" x="208.5" y="-163" font-family="FreeSans" font-size="10.00"> &lt; DGtal::Color &gt;</text>
</g>
<!-- Node9 -->
<g id="node6" class="node"><title>Node9</title>
<polygon fill="white" stroke="#bfbfbf" points="198,-357.5 198,-376.5 227,-376.5 227,-357.5 198,-357.5"/>
<text text-anchor="middle" x="212.5" y="-364.5" font-family="FreeSans" font-size="10.00">T</text>
</g>
<!-- Node9&#45;&gt;Node8 -->
<g id="edge6" class="edge"><title>Node9&#45;&gt;Node8</title>
<path fill="none" stroke="#9a32cd" stroke-dasharray="5,2" d="M212.5,-347.164C212.5,-321.865 212.5,-277.935 212.5,-259.282"/>
<polygon fill="#9a32cd" stroke="#9a32cd" points="209,-347.319 212.5,-357.319 216,-347.319 209,-347.319"/>
<text text-anchor="middle" x="237" y="-331" font-family="FreeSans" font-size="10.00"> elements</text>
</g>
</g>
</svg>
