<?xml version="1.0" encoding="UTF-8" standalone="no"?>
<!DOCTYPE svg PUBLIC "-//W3C//DTD SVG 1.1//EN"
 "http://www.w3.org/Graphics/SVG/1.1/DTD/svg11.dtd">
<!-- Generated by graphviz version 2.38.0 (20140413.2041)
 -->
<!-- Title: DGtal::CubicalComplex&lt; TKSpace, TCellContainer &gt; Pages: 1 -->
<svg width="163pt" height="240pt"
 viewBox="0.00 0.00 163.00 240.00" xmlns="http://www.w3.org/2000/svg" xmlns:xlink="http://www.w3.org/1999/xlink">
<g id="graph0" class="graph" transform="scale(1 1) rotate(0) translate(4 236)">
<title>DGtal::CubicalComplex&lt; TKSpace, TCellContainer &gt;</title>
<polygon fill="white" stroke="none" points="-4,4 -4,-236 159,-236 159,4 -4,4"/>
<!-- Node6 -->
<g id="node1" class="node"><title>Node6</title>
<polygon fill="#bfbfbf" stroke="black" points="0,-0.5 0,-30.5 155,-30.5 155,-0.5 0,-0.5"/>
<text text-anchor="start" x="8" y="-18.5" font-family="FreeSans" font-size="10.00">DGtal::CubicalComplex</text>
<text text-anchor="middle" x="77.5" y="-7.5" font-family="FreeSans" font-size="10.00">&lt; TKSpace, TCellContainer &gt;</text>
</g>
<!-- Node7 -->
<g id="node2" class="node"><title>Node7</title>
<polygon fill="white" stroke="#bfbfbf" points="13.5,-78.5 13.5,-97.5 141.5,-97.5 141.5,-78.5 13.5,-78.5"/>
<text text-anchor="middle" x="77.5" y="-85.5" font-family="FreeSans" font-size="10.00">std::vector&lt; CellMap &gt;</text>
</g>
<!-- Node7&#45;&gt;Node6 -->
<g id="edge1" class="edge"><title>Node7&#45;&gt;Node6</title>
<path fill="none" stroke="#9a32cd" stroke-dasharray="5,2" d="M77.5,-68.2362C77.5,-56.4079 77.5,-41.3829 77.5,-30.5762"/>
<polygon fill="#9a32cd" stroke="#9a32cd" points="74.0001,-68.3553 77.5,-78.3553 81.0001,-68.3554 74.0001,-68.3553"/>
<text text-anchor="middle" x="98" y="-52" font-family="FreeSans" font-size="10.00"> myCells</text>
</g>
<!-- Node8 -->
<g id="node3" class="node"><title>Node8</title>
<g id="a_node3"><a xlink:title="STL class. ">
<polygon fill="white" stroke="#bfbfbf" points="30,-145.5 30,-164.5 125,-164.5 125,-145.5 30,-145.5"/>
<text text-anchor="middle" x="77.5" y="-152.5" font-family="FreeSans" font-size="10.00">std::vector&lt; T &gt;</text>
</a>
</g>
</g>
<!-- Node8&#45;&gt;Node7 -->
<g id="edge2" class="edge"><title>Node8&#45;&gt;Node7</title>
<path fill="none" stroke="orange" stroke-dasharray="5,2" d="M77.5,-135.037C77.5,-122.67 77.5,-107.12 77.5,-97.6273"/>
<polygon fill="orange" stroke="orange" points="74.0001,-135.234 77.5,-145.234 81.0001,-135.234 74.0001,-135.234"/>
<text text-anchor="middle" x="109.5" y="-119" font-family="FreeSans" font-size="10.00"> &lt; CellMap &gt;</text>
</g>
<!-- Node9 -->
<g id="node4" class="node"><title>Node9</title>
<polygon fill="white" stroke="#bfbfbf" points="63,-212.5 63,-231.5 92,-231.5 92,-212.5 63,-212.5"/>
<text text-anchor="middle" x="77.5" y="-219.5" font-family="FreeSans" font-size="10.00">T</text>
</g>
<!-- Node9&#45;&gt;Node8 -->
<g id="edge3" class="edge"><title>Node9&#45;&gt;Node8</title>
<path fill="none" stroke="#9a32cd" stroke-dasharray="5,2" d="M77.5,-202.037C77.5,-189.67 77.5,-174.12 77.5,-164.627"/>
<polygon fill="#9a32cd" stroke="#9a32cd" points="74.0001,-202.234 77.5,-212.234 81.0001,-202.234 74.0001,-202.234"/>
<text text-anchor="middle" x="102" y="-186" font-family="FreeSans" font-size="10.00"> elements</text>
</g>
</g>
</svg>
