<?xml version="1.0" encoding="UTF-8" standalone="no"?>
<!DOCTYPE svg PUBLIC "-//W3C//DTD SVG 1.1//EN"
 "http://www.w3.org/Graphics/SVG/1.1/DTD/svg11.dtd">
<!-- Generated by graphviz version 2.38.0 (20140413.2041)
 -->
<!-- Title: DGtal::COBANaivePlaneComputer&lt; TSpace, TInternalInteger &gt; Pages: 1 -->
<svg width="534pt" height="88pt"
 viewBox="0.00 0.00 534.00 88.00" xmlns="http://www.w3.org/2000/svg" xmlns:xlink="http://www.w3.org/1999/xlink">
<g id="graph0" class="graph" transform="scale(1 1) rotate(0) translate(4 84)">
<title>DGtal::COBANaivePlaneComputer&lt; TSpace, TInternalInteger &gt;</title>
<polygon fill="white" stroke="none" points="-4,4 -4,-84 530,-84 530,4 -4,4"/>
<!-- Node0 -->
<g id="node1" class="node"><title>Node0</title>
<polygon fill="#bfbfbf" stroke="black" points="0,-24.5 0,-54.5 179,-54.5 179,-24.5 0,-24.5"/>
<text text-anchor="start" x="8" y="-42.5" font-family="FreeSans" font-size="10.00">DGtal::COBANaivePlaneComputer</text>
<text text-anchor="middle" x="89.5" y="-31.5" font-family="FreeSans" font-size="10.00">&lt; TSpace, TInternalInteger &gt;</text>
</g>
<!-- Node1 -->
<g id="node2" class="node"><title>Node1</title>
<g id="a_node2"><a xlink:href="classDGtal_1_1COBANaivePlaneComputer.html" target="_top" xlink:title="DGtal::COBANaivePlaneComputer\l\&lt; Space, InternalInteger \&gt;">
<polygon fill="white" stroke="black" points="347,-49.5 347,-79.5 526,-79.5 526,-49.5 347,-49.5"/>
<text text-anchor="start" x="355" y="-67.5" font-family="FreeSans" font-size="10.00">DGtal::COBANaivePlaneComputer</text>
<text text-anchor="middle" x="436.5" y="-56.5" font-family="FreeSans" font-size="10.00">&lt; Space, InternalInteger &gt;</text>
</a>
</g>
</g>
<!-- Node0&#45;&gt;Node1 -->
<g id="edge1" class="edge"><title>Node0&#45;&gt;Node1</title>
<path fill="none" stroke="orange" stroke-dasharray="5,2" d="M189.463,-46.6712C239.134,-50.2706 298.813,-54.5952 346.955,-58.0837"/>
<polygon fill="orange" stroke="orange" points="189.573,-43.1701 179.346,-45.9381 189.067,-50.1518 189.573,-43.1701"/>
<text text-anchor="middle" x="263" y="-58.5" font-family="FreeSans" font-size="10.00"> &lt; Space, InternalInteger &gt;</text>
</g>
<!-- Node2 -->
<g id="node3" class="node"><title>Node2</title>
<g id="a_node3"><a xlink:href="classDGtal_1_1COBANaivePlaneComputer.html" target="_top" xlink:title="DGtal::COBANaivePlaneComputer\l\&lt; Z3, InternalInteger \&gt;">
<polygon fill="white" stroke="black" points="347,-0.5 347,-30.5 526,-30.5 526,-0.5 347,-0.5"/>
<text text-anchor="start" x="355" y="-18.5" font-family="FreeSans" font-size="10.00">DGtal::COBANaivePlaneComputer</text>
<text text-anchor="middle" x="436.5" y="-7.5" font-family="FreeSans" font-size="10.00">&lt; Z3, InternalInteger &gt;</text>
</a>
</g>
</g>
<!-- Node0&#45;&gt;Node2 -->
<g id="edge2" class="edge"><title>Node0&#45;&gt;Node2</title>
<path fill="none" stroke="orange" stroke-dasharray="5,2" d="M189.262,-32.0538C191.868,-31.8661 194.451,-31.6812 197,-31.5 246.57,-27.9755 301.952,-24.2474 346.862,-21.2773"/>
<polygon fill="orange" stroke="orange" points="188.839,-28.5752 179.118,-32.7892 189.345,-35.5568 188.839,-28.5752"/>
<text text-anchor="middle" x="263" y="-34.5" font-family="FreeSans" font-size="10.00"> &lt; Z3, InternalInteger &gt;</text>
</g>
</g>
</svg>
