<?xml version="1.0" encoding="UTF-8" standalone="no"?>
<!DOCTYPE svg PUBLIC "-//W3C//DTD SVG 1.1//EN"
 "http://www.w3.org/Graphics/SVG/1.1/DTD/svg11.dtd">
<!-- Generated by graphviz version 2.38.0 (20140413.2041)
 -->
<!-- Title: DGtal::StandardDSS6Computer&lt; TIterator, TInteger, connectivity &gt; Pages: 1 -->
<!--zoomable 320 -->
<svg id="main" version="1.1" xmlns="http://www.w3.org/2000/svg" xmlns:xlink="http://www.w3.org/1999/xlink" xml:space="preserve" onload="init(evt)">
<style type="text/css"><![CDATA[
.edge:hover path { stroke: red; }
.edge:hover polygon { stroke: red; fill: red; }
]]></style>
<script type="text/javascript"><![CDATA[
var edges = document.getElementsByTagName('g');
if (edges && edges.length) {
  for (var i=0;i<edges.length;i++) {
    if (edges[i].id.substr(0,4)=='edge') {
      edges[i].setAttribute('class','edge');
    }
  }
}
]]></script>
        <defs>
                <circle id="rim" cx="0" cy="0" r="7"/>
                <circle id="rim2" cx="0" cy="0" r="3.5"/>
                <g id="zoomPlus">
                        <use xlink:href="#rim" fill="#404040">
                                <set attributeName="fill" to="#808080" begin="zoomplus.mouseover" end="zoomplus.mouseout"/>
                        </use>
                        <path d="M-4,0h8M0,-4v8" fill="none" stroke="white" stroke-width="1.5" pointer-events="none"/>
                </g>
                <g id="zoomMin">
                        <use xlink:href="#rim" fill="#404040">
                                <set attributeName="fill" to="#808080" begin="zoomminus.mouseover" end="zoomminus.mouseout"/>
                        </use>
                        <path d="M-4,0h8" fill="none" stroke="white" stroke-width="1.5" pointer-events="none"/>
                </g>
                <g id="dirArrow">
                        <path fill="none" stroke="white" stroke-width="1.5" d="M0,-3.0v7 M-2.5,-0.5L0,-3.0L2.5,-0.5"/>
                </g>
               <g id="resetDef">
                       <use xlink:href="#rim2" fill="#404040">
                               <set attributeName="fill" to="#808080" begin="reset.mouseover" end="reset.mouseout"/>
                       </use>
               </g>
        </defs>

<script type="text/javascript">
var viewWidth = 2257;
var viewHeight = 320;
var sectionId = 'dynsection-0';
</script>
<script xlink:href="svgpan.js"/>
<svg id="graph" class="graph">
<g id="viewport">
<title>DGtal::StandardDSS6Computer&lt; TIterator, TInteger, connectivity &gt;</title>
<polygon fill="white" stroke="none" points="-4,4 -4,-316 2253,-316 2253,4 -4,4"/>
<!-- Node1 -->
<g id="node1" class="node"><title>Node1</title>
<polygon fill="#bfbfbf" stroke="black" points="2061,-167 2061,-197 2249,-197 2249,-167 2061,-167"/>
<text text-anchor="start" x="2069" y="-185" font-family="FreeSans" font-size="10.00">DGtal::StandardDSS6Computer</text>
<text text-anchor="middle" x="2155" y="-174" font-family="FreeSans" font-size="10.00">&lt; TIterator, TInteger, connectivity &gt;</text>
</g>
<!-- Node2 -->
<g id="node2" class="node"><title>Node2</title>
<g id="a_node2"><a xlink:href="structDGtal_1_1functors_1_1Projector.html" target="_top" xlink:title="DGtal::functors::Projector\l\&lt; SpaceND\&lt; 2, Coordinate \&gt; \&gt;">
<polygon fill="white" stroke="black" points="1799.5,-213 1799.5,-243 1970.5,-243 1970.5,-213 1799.5,-213"/>
<text text-anchor="start" x="1807.5" y="-231" font-family="FreeSans" font-size="10.00">DGtal::functors::Projector</text>
<text text-anchor="middle" x="1885" y="-220" font-family="FreeSans" font-size="10.00">&lt; SpaceND&lt; 2, Coordinate &gt; &gt;</text>
</a>
</g>
</g>
<!-- Node2&#45;&gt;Node1 -->
<g id="edge1" class="edge"><title>Node2&#45;&gt;Node1</title>
<path fill="none" stroke="#9a32cd" stroke-dasharray="5,2" d="M1980.94,-211.704C2008.81,-206.921 2039.15,-201.714 2066.52,-197.014"/>
<polygon fill="#9a32cd" stroke="#9a32cd" points="1980.06,-208.304 1970.8,-213.445 1981.24,-215.203 1980.06,-208.304"/>
<text text-anchor="middle" x="2017" y="-235" font-family="FreeSans" font-size="10.00"> myProjYZ</text>
<text text-anchor="middle" x="2017" y="-224" font-family="FreeSans" font-size="10.00">myProjXY</text>
<text text-anchor="middle" x="2017" y="-213" font-family="FreeSans" font-size="10.00">myProjXZ</text>
</g>
<!-- Node3 -->
<g id="node3" class="node"><title>Node3</title>
<polygon fill="white" stroke="#bfbfbf" points="1197,-219 1197,-249 1325,-249 1325,-219 1197,-219"/>
<text text-anchor="start" x="1205" y="-237" font-family="FreeSans" font-size="10.00">std::array&lt; Dimension,</text>
<text text-anchor="middle" x="1261" y="-226" font-family="FreeSans" font-size="10.00"> dimension &gt;</text>
</g>
<!-- Node3&#45;&gt;Node2 -->
<g id="edge2" class="edge"><title>Node3&#45;&gt;Node2</title>
<path fill="none" stroke="#9a32cd" stroke-dasharray="5,2" d="M1335.26,-233.293C1451.26,-232.174 1676.59,-230.001 1799.33,-228.817"/>
<polygon fill="#9a32cd" stroke="#9a32cd" points="1335.03,-229.795 1325.06,-233.392 1335.1,-236.795 1335.03,-229.795"/>
<text text-anchor="middle" x="1513.5" y="-235" font-family="FreeSans" font-size="10.00"> myDims</text>
</g>
<!-- Node6 -->
<g id="node6" class="node"><title>Node6</title>
<g id="a_node6"><a xlink:href="structDGtal_1_1functors_1_1Projector.html" target="_top" xlink:title="Aim: Functor that maps a point P of dimension i to a point Q of dimension j. The member myDims is an ...">
<polygon fill="white" stroke="black" points="1430,-257.5 1430,-276.5 1597,-276.5 1597,-257.5 1430,-257.5"/>
<text text-anchor="middle" x="1513.5" y="-264.5" font-family="FreeSans" font-size="10.00">DGtal::functors::Projector&lt; S &gt;</text>
</a>
</g>
</g>
<!-- Node3&#45;&gt;Node6 -->
<g id="edge6" class="edge"><title>Node3&#45;&gt;Node6</title>
<path fill="none" stroke="#9a32cd" stroke-dasharray="5,2" d="M1335.25,-243.65C1368.24,-247.996 1407.09,-253.113 1439.99,-257.448"/>
<polygon fill="#9a32cd" stroke="#9a32cd" points="1335.58,-240.163 1325.21,-242.327 1334.67,-247.103 1335.58,-240.163"/>
<text text-anchor="middle" x="1383" y="-255" font-family="FreeSans" font-size="10.00"> myDims</text>
</g>
<!-- Node4 -->
<g id="node4" class="node"><title>Node4</title>
<g id="a_node4"><a xlink:title="STL class. ">
<polygon fill="white" stroke="#bfbfbf" points="899.5,-224.5 899.5,-243.5 989.5,-243.5 989.5,-224.5 899.5,-224.5"/>
<text text-anchor="middle" x="944.5" y="-231.5" font-family="FreeSans" font-size="10.00">std::array&lt; T &gt;</text>
</a>
</g>
</g>
<!-- Node4&#45;&gt;Node3 -->
<g id="edge3" class="edge"><title>Node4&#45;&gt;Node3</title>
<path fill="none" stroke="orange" stroke-dasharray="5,2" d="M999.774,-234C1054.59,-234 1139.21,-234 1196.97,-234"/>
<polygon fill="orange" stroke="orange" points="999.561,-230.5 989.561,-234 999.561,-237.5 999.561,-230.5"/>
<text text-anchor="middle" x="1095.5" y="-237" font-family="FreeSans" font-size="10.00"> &lt; Dimension, dimension &gt;</text>
</g>
<!-- Node5 -->
<g id="node5" class="node"><title>Node5</title>
<polygon fill="white" stroke="#bfbfbf" points="715,-224.5 715,-243.5 744,-243.5 744,-224.5 715,-224.5"/>
<text text-anchor="middle" x="729.5" y="-231.5" font-family="FreeSans" font-size="10.00">T</text>
</g>
<!-- Node5&#45;&gt;Node4 -->
<g id="edge4" class="edge"><title>Node5&#45;&gt;Node4</title>
<path fill="none" stroke="#9a32cd" stroke-dasharray="5,2" d="M754.349,-234C789.305,-234 855.07,-234 899.089,-234"/>
<polygon fill="#9a32cd" stroke="#9a32cd" points="754.148,-230.5 744.148,-234 754.148,-237.5 754.148,-230.5"/>
<text text-anchor="middle" x="835.5" y="-237" font-family="FreeSans" font-size="10.00"> elements</text>
</g>
<!-- Node6&#45;&gt;Node2 -->
<g id="edge5" class="edge"><title>Node6&#45;&gt;Node2</title>
<path fill="none" stroke="orange" stroke-dasharray="5,2" d="M1607.07,-259.126C1657.87,-254.584 1721.96,-248.495 1779,-242 1785.58,-241.251 1792.38,-240.436 1799.22,-239.588"/>
<polygon fill="orange" stroke="orange" points="1606.74,-255.641 1597.09,-260.013 1607.36,-262.614 1606.74,-255.641"/>
<text text-anchor="middle" x="1700" y="-260" font-family="FreeSans" font-size="10.00"> &lt; SpaceND&lt; 2, Coordinate &gt; &gt;</text>
</g>
<!-- Node7 -->
<g id="node7" class="node"><title>Node7</title>
<g id="a_node7"><a xlink:href="classDGtal_1_1ArithmeticalDSSComputer.html" target="_top" xlink:title="DGtal::ArithmeticalDSSComputer\l\&lt; IteratorAdapter, TInteger,\l connectivity \&gt;">
<polygon fill="white" stroke="black" points="1797,-77.5 1797,-118.5 1973,-118.5 1973,-77.5 1797,-77.5"/>
<text text-anchor="start" x="1805" y="-106.5" font-family="FreeSans" font-size="10.00">DGtal::ArithmeticalDSSComputer</text>
<text text-anchor="start" x="1805" y="-95.5" font-family="FreeSans" font-size="10.00">&lt; IteratorAdapter, TInteger,</text>
<text text-anchor="middle" x="1885" y="-84.5" font-family="FreeSans" font-size="10.00"> connectivity &gt;</text>
</a>
</g>
</g>
<!-- Node7&#45;&gt;Node1 -->
<g id="edge7" class="edge"><title>Node7&#45;&gt;Node1</title>
<path fill="none" stroke="#9a32cd" stroke-dasharray="5,2" d="M1982.87,-118.117C2002.92,-123.037 2023.79,-128.718 2043,-135 2070.45,-143.975 2100.56,-156.931 2122.49,-166.969"/>
<polygon fill="#9a32cd" stroke="#9a32cd" points="1983.65,-114.703 1973.1,-115.764 1982.01,-121.509 1983.65,-114.703"/>
<text text-anchor="middle" x="2017" y="-160" font-family="FreeSans" font-size="10.00"> myYZalgo</text>
<text text-anchor="middle" x="2017" y="-149" font-family="FreeSans" font-size="10.00">myXYalgo</text>
<text text-anchor="middle" x="2017" y="-138" font-family="FreeSans" font-size="10.00">myXZalgo</text>
</g>
<!-- Node8 -->
<g id="node8" class="node"><title>Node8</title>
<g id="a_node8"><a xlink:href="classDGtal_1_1ArithmeticalDSS.html" target="_top" xlink:title="DGtal::ArithmeticalDSS\l\&lt; Coordinate, Integer,\l adjacency \&gt;">
<polygon fill="white" stroke="black" points="1197,-87.5 1197,-128.5 1325,-128.5 1325,-87.5 1197,-87.5"/>
<text text-anchor="start" x="1205" y="-116.5" font-family="FreeSans" font-size="10.00">DGtal::ArithmeticalDSS</text>
<text text-anchor="start" x="1205" y="-105.5" font-family="FreeSans" font-size="10.00">&lt; Coordinate, Integer,</text>
<text text-anchor="middle" x="1261" y="-94.5" font-family="FreeSans" font-size="10.00"> adjacency &gt;</text>
</a>
</g>
</g>
<!-- Node8&#45;&gt;Node7 -->
<g id="edge8" class="edge"><title>Node8&#45;&gt;Node7</title>
<path fill="none" stroke="#9a32cd" stroke-dasharray="5,2" d="M1335.3,-96.4643C1363.01,-92.6388 1394.89,-88.8791 1424,-87 1553.54,-78.6387 1703.97,-85.3246 1796.58,-91.3237"/>
<polygon fill="#9a32cd" stroke="#9a32cd" points="1334.7,-93.0135 1325.29,-97.8733 1335.68,-99.9452 1334.7,-93.0135"/>
<text text-anchor="middle" x="1513.5" y="-90" font-family="FreeSans" font-size="10.00"> myDSS</text>
</g>
<!-- Node18 -->
<g id="node18" class="node"><title>Node18</title>
<g id="a_node18"><a xlink:href="classDGtal_1_1ArithmeticalDSSComputer.html" target="_top" xlink:title="Aim: This class is a wrapper around ArithmeticalDSS that is devoted to the dynamic recognition of dig...">
<polygon fill="white" stroke="black" points="1424,-108 1424,-138 1603,-138 1603,-108 1424,-108"/>
<text text-anchor="start" x="1432" y="-126" font-family="FreeSans" font-size="10.00">DGtal::ArithmeticalDSSComputer</text>
<text text-anchor="middle" x="1513.5" y="-115" font-family="FreeSans" font-size="10.00">&lt; TIterator, TInteger, adjacency &gt;</text>
</a>
</g>
</g>
<!-- Node8&#45;&gt;Node18 -->
<g id="edge24" class="edge"><title>Node8&#45;&gt;Node18</title>
<path fill="none" stroke="#9a32cd" stroke-dasharray="5,2" d="M1335.36,-108.973C1358.03,-109.56 1383.06,-110.499 1406,-112 1411.84,-112.382 1417.86,-112.837 1423.92,-113.341"/>
<polygon fill="#9a32cd" stroke="#9a32cd" points="1335.21,-105.469 1325.13,-108.728 1335.05,-112.467 1335.21,-105.469"/>
<text text-anchor="middle" x="1383" y="-115" font-family="FreeSans" font-size="10.00"> myDSS</text>
</g>
<!-- Node9 -->
<g id="node9" class="node"><title>Node9</title>
<g id="a_node9"><a xlink:href="classDGtal_1_1PointVector.html" target="_top" xlink:title="Aim: Implements basic operations that will be used in Point and Vector classes. ">
<polygon fill="white" stroke="black" points="148,-119.5 148,-160.5 274,-160.5 274,-119.5 148,-119.5"/>
<text text-anchor="start" x="156" y="-148.5" font-family="FreeSans" font-size="10.00">DGtal::PointVector</text>
<text text-anchor="start" x="156" y="-137.5" font-family="FreeSans" font-size="10.00">&lt; dim, TEuclideanRing,</text>
<text text-anchor="middle" x="211" y="-126.5" font-family="FreeSans" font-size="10.00"> TContainer &gt;</text>
</a>
</g>
</g>
<!-- Node9&#45;&gt;Node8 -->
<g id="edge9" class="edge"><title>Node9&#45;&gt;Node8</title>
<path fill="none" stroke="#9a32cd" stroke-dasharray="5,2" d="M240.59,-112.522C283.142,-74.6401 367.306,-11 452.5,-11 452.5,-11 452.5,-11 945.5,-11 1048.35,-11 1162.05,-58.9553 1220.5,-87.4288"/>
<polygon fill="#9a32cd" stroke="#9a32cd" points="238.198,-109.966 233.138,-119.274 242.898,-115.153 238.198,-109.966"/>
<text text-anchor="middle" x="729.5" y="-69" font-family="FreeSans" font-size="10.00"> myUl</text>
<text text-anchor="middle" x="729.5" y="-58" font-family="FreeSans" font-size="10.00">myLf</text>
<text text-anchor="middle" x="729.5" y="-47" font-family="FreeSans" font-size="10.00">myF</text>
<text text-anchor="middle" x="729.5" y="-36" font-family="FreeSans" font-size="10.00">myLl</text>
<text text-anchor="middle" x="729.5" y="-25" font-family="FreeSans" font-size="10.00">myUf</text>
<text text-anchor="middle" x="729.5" y="-14" font-family="FreeSans" font-size="10.00">myL</text>
</g>
<!-- Node9&#45;&gt;Node9 -->
<g id="edge11" class="edge"><title>Node9&#45;&gt;Node9</title>
<path fill="none" stroke="#9a32cd" stroke-dasharray="5,2" d="M193.452,-170.856C196.061,-175.697 201.911,-179 211,-179 225.543,-179 231.792,-170.543 229.747,-160.864"/>
<polygon fill="#9a32cd" stroke="#9a32cd" points="196.919,-170.376 192.253,-160.864 189.969,-171.21 196.919,-170.376"/>
<text text-anchor="middle" x="211" y="-182" font-family="FreeSans" font-size="10.00"> zero</text>
</g>
<!-- Node11 -->
<g id="node11" class="node"><title>Node11</title>
<g id="a_node11"><a xlink:href="classDGtal_1_1ArithmeticalDSL.html" target="_top" xlink:title="DGtal::ArithmeticalDSL\l\&lt; Coordinate, Integer,\l adjacency \&gt;">
<polygon fill="white" stroke="black" points="666,-161.5 666,-202.5 793,-202.5 793,-161.5 666,-161.5"/>
<text text-anchor="start" x="674" y="-190.5" font-family="FreeSans" font-size="10.00">DGtal::ArithmeticalDSL</text>
<text text-anchor="start" x="674" y="-179.5" font-family="FreeSans" font-size="10.00">&lt; Coordinate, Integer,</text>
<text text-anchor="middle" x="729.5" y="-168.5" font-family="FreeSans" font-size="10.00"> adjacency &gt;</text>
</a>
</g>
</g>
<!-- Node9&#45;&gt;Node11 -->
<g id="edge13" class="edge"><title>Node9&#45;&gt;Node11</title>
<path fill="none" stroke="#9a32cd" stroke-dasharray="5,2" d="M284.413,-148.059C350.422,-155.179 450.662,-165.425 538,-172 580.602,-175.207 628.641,-177.722 665.821,-179.427"/>
<polygon fill="#9a32cd" stroke="#9a32cd" points="284.439,-144.542 274.12,-146.944 283.685,-151.501 284.439,-144.542"/>
<text text-anchor="middle" x="453.5" y="-174" font-family="FreeSans" font-size="10.00"> myShift</text>
</g>
<!-- Node12 -->
<g id="node12" class="node"><title>Node12</title>
<g id="a_node12"><a xlink:href="classDGtal_1_1ArithmeticalDSL.html" target="_top" xlink:title="Aim: This class represents a naive (resp. standard) digital straight line (DSL), ie. the set of digital points &#160;such that &#160;with , &#160;and &#160;(resp. ). Note that any DSL such that &#160;(resp. ) is simply 8&#45;connected (resp. 4&#45;connected). ">
<polygon fill="white" stroke="black" points="387,-224.5 387,-265.5 520,-265.5 520,-224.5 387,-224.5"/>
<text text-anchor="start" x="395" y="-253.5" font-family="FreeSans" font-size="10.00">DGtal::ArithmeticalDSL</text>
<text text-anchor="start" x="395" y="-242.5" font-family="FreeSans" font-size="10.00">&lt; TCoordinate, TInteger,</text>
<text text-anchor="middle" x="453.5" y="-231.5" font-family="FreeSans" font-size="10.00"> adjacency &gt;</text>
</a>
</g>
</g>
<!-- Node9&#45;&gt;Node12 -->
<g id="edge16" class="edge"><title>Node9&#45;&gt;Node12</title>
<path fill="none" stroke="#9a32cd" stroke-dasharray="5,2" d="M244.842,-167.113C258.738,-177.572 275.507,-188.935 292,-197 321.785,-211.566 356.87,-222.677 386.629,-230.523"/>
<polygon fill="#9a32cd" stroke="#9a32cd" points="246.646,-164.085 236.589,-160.754 242.374,-169.63 246.646,-164.085"/>
<text text-anchor="middle" x="330.5" y="-227" font-family="FreeSans" font-size="10.00"> myShift</text>
</g>
<!-- Node15 -->
<g id="node15" class="node"><title>Node15</title>
<g id="a_node15"><a xlink:href="classDGtal_1_1ArithmeticalDSS.html" target="_top" xlink:title="Aim: This class represents a naive (resp. standard) digital straight segment (DSS), ie. the sequence of simply 8&#45; (resp. 4&#45;)connected digital points contained in a naive (resp. standard) digital straight line (DSL) between two points of it. ">
<polygon fill="white" stroke="black" points="878,-87.5 878,-128.5 1011,-128.5 1011,-87.5 878,-87.5"/>
<text text-anchor="start" x="886" y="-116.5" font-family="FreeSans" font-size="10.00">DGtal::ArithmeticalDSS</text>
<text text-anchor="start" x="886" y="-105.5" font-family="FreeSans" font-size="10.00">&lt; TCoordinate, TInteger,</text>
<text text-anchor="middle" x="944.5" y="-94.5" font-family="FreeSans" font-size="10.00"> adjacency &gt;</text>
</a>
</g>
</g>
<!-- Node9&#45;&gt;Node15 -->
<g id="edge19" class="edge"><title>Node9&#45;&gt;Node15</title>
<path fill="none" stroke="#9a32cd" stroke-dasharray="5,2" d="M284.284,-129.135C350.206,-119.808 450.392,-107.089 538,-102 586.807,-99.165 599.114,-101.504 648,-102 727.017,-102.802 817.902,-104.81 877.781,-106.284"/>
<polygon fill="#9a32cd" stroke="#9a32cd" points="283.411,-125.724 274.005,-130.601 284.399,-132.654 283.411,-125.724"/>
<text text-anchor="middle" x="593" y="-160" font-family="FreeSans" font-size="10.00"> myUl</text>
<text text-anchor="middle" x="593" y="-149" font-family="FreeSans" font-size="10.00">myLf</text>
<text text-anchor="middle" x="593" y="-138" font-family="FreeSans" font-size="10.00">myF</text>
<text text-anchor="middle" x="593" y="-127" font-family="FreeSans" font-size="10.00">myLl</text>
<text text-anchor="middle" x="593" y="-116" font-family="FreeSans" font-size="10.00">myUf</text>
<text text-anchor="middle" x="593" y="-105" font-family="FreeSans" font-size="10.00">myL</text>
</g>
<!-- Node10 -->
<g id="node10" class="node"><title>Node10</title>
<polygon fill="white" stroke="#bfbfbf" points="0,-130.5 0,-149.5 68,-149.5 68,-130.5 0,-130.5"/>
<text text-anchor="middle" x="34" y="-137.5" font-family="FreeSans" font-size="10.00">TContainer</text>
</g>
<!-- Node10&#45;&gt;Node9 -->
<g id="edge10" class="edge"><title>Node10&#45;&gt;Node9</title>
<path fill="none" stroke="#9a32cd" stroke-dasharray="5,2" d="M78.5018,-140C99.4065,-140 124.84,-140 147.749,-140"/>
<polygon fill="#9a32cd" stroke="#9a32cd" points="78.3281,-136.5 68.3281,-140 78.328,-143.5 78.3281,-136.5"/>
<text text-anchor="middle" x="108" y="-143" font-family="FreeSans" font-size="10.00"> myArray</text>
</g>
<!-- Node11&#45;&gt;Node8 -->
<g id="edge12" class="edge"><title>Node11&#45;&gt;Node8</title>
<path fill="none" stroke="#9a32cd" stroke-dasharray="5,2" d="M803.296,-177.218C889.469,-170.794 1037.05,-157.39 1162,-134 1173.33,-131.879 1185.28,-129.141 1196.79,-126.24"/>
<polygon fill="#9a32cd" stroke="#9a32cd" points="802.813,-173.743 793.097,-177.967 803.326,-180.725 802.813,-173.743"/>
<text text-anchor="middle" x="944.5" y="-174" font-family="FreeSans" font-size="10.00"> myDSL</text>
</g>
<!-- Node11&#45;&gt;Node15 -->
<g id="edge20" class="edge"><title>Node11&#45;&gt;Node15</title>
<path fill="none" stroke="#9a32cd" stroke-dasharray="5,2" d="M790.051,-157.778C797.084,-155.08 804.183,-152.432 811,-150 832.592,-142.297 856.405,-134.528 877.818,-127.801"/>
<polygon fill="#9a32cd" stroke="#9a32cd" points="788.589,-154.591 780.532,-161.471 791.121,-161.117 788.589,-154.591"/>
<text text-anchor="middle" x="835.5" y="-153" font-family="FreeSans" font-size="10.00"> myDSL</text>
</g>
<!-- Node12&#45;&gt;Node11 -->
<g id="edge14" class="edge"><title>Node12&#45;&gt;Node11</title>
<path fill="none" stroke="orange" stroke-dasharray="5,2" d="M529.911,-227.661C572.596,-217.847 625.354,-205.716 665.761,-196.425"/>
<polygon fill="orange" stroke="orange" points="529.091,-224.258 520.13,-229.91 530.66,-231.08 529.091,-224.258"/>
<text text-anchor="start" x="538" y="-238" font-family="FreeSans" font-size="10.00"> &lt; Coordinate, Integer,</text>
<text text-anchor="middle" x="593" y="-227" font-family="FreeSans" font-size="10.00"> adjacency &gt;</text>
</g>
<!-- Node13 -->
<g id="node13" class="node"><title>Node13</title>
<polygon fill="white" stroke="#bfbfbf" points="174,-288.5 174,-307.5 248,-307.5 248,-288.5 174,-288.5"/>
<text text-anchor="middle" x="211" y="-295.5" font-family="FreeSans" font-size="10.00">TCoordinate</text>
</g>
<!-- Node13&#45;&gt;Node12 -->
<g id="edge15" class="edge"><title>Node13&#45;&gt;Node12</title>
<path fill="none" stroke="#9a32cd" stroke-dasharray="5,2" d="M258.527,-294.144C290.041,-290.885 332.438,-285.233 369,-276 379.945,-273.236 391.437,-269.528 402.275,-265.638"/>
<polygon fill="#9a32cd" stroke="#9a32cd" points="257.888,-290.69 248.281,-295.159 258.578,-297.656 257.888,-290.69"/>
<text text-anchor="middle" x="330.5" y="-304" font-family="FreeSans" font-size="10.00"> myA</text>
<text text-anchor="middle" x="330.5" y="-293" font-family="FreeSans" font-size="10.00">myB</text>
</g>
<!-- Node14 -->
<g id="node14" class="node"><title>Node14</title>
<polygon fill="white" stroke="#bfbfbf" points="183,-243.5 183,-262.5 239,-262.5 239,-243.5 183,-243.5"/>
<text text-anchor="middle" x="211" y="-250.5" font-family="FreeSans" font-size="10.00">TInteger</text>
</g>
<!-- Node14&#45;&gt;Node12 -->
<g id="edge17" class="edge"><title>Node14&#45;&gt;Node12</title>
<path fill="none" stroke="#9a32cd" stroke-dasharray="5,2" d="M249.353,-251.757C285.985,-250.539 342.611,-248.655 386.782,-247.186"/>
<polygon fill="#9a32cd" stroke="#9a32cd" points="248.999,-248.267 239.121,-252.098 249.232,-255.263 248.999,-248.267"/>
<text text-anchor="middle" x="330.5" y="-264" font-family="FreeSans" font-size="10.00"> myLowerBound</text>
<text text-anchor="middle" x="330.5" y="-253" font-family="FreeSans" font-size="10.00">myUpperBound</text>
</g>
<!-- Node15&#45;&gt;Node8 -->
<g id="edge18" class="edge"><title>Node15&#45;&gt;Node8</title>
<path fill="none" stroke="orange" stroke-dasharray="5,2" d="M1021.21,-108C1074.96,-108 1146.29,-108 1196.95,-108"/>
<polygon fill="orange" stroke="orange" points="1021.05,-104.5 1011.05,-108 1021.05,-111.5 1021.05,-104.5"/>
<text text-anchor="start" x="1040.5" y="-122" font-family="FreeSans" font-size="10.00"> &lt; Coordinate, Integer,</text>
<text text-anchor="middle" x="1095.5" y="-111" font-family="FreeSans" font-size="10.00"> adjacency &gt;</text>
</g>
<!-- Node16 -->
<g id="node16" class="node"><title>Node16</title>
<g id="a_node16"><a xlink:href="classDGtal_1_1IteratorAdapter.html" target="_top" xlink:title="This class adapts any lvalue iterator so that operator* returns a member on the element pointed to by...">
<polygon fill="white" stroke="black" points="1452,-0.5 1452,-41.5 1575,-41.5 1575,-0.5 1452,-0.5"/>
<text text-anchor="start" x="1460" y="-29.5" font-family="FreeSans" font-size="10.00">DGtal::IteratorAdapter</text>
<text text-anchor="start" x="1460" y="-18.5" font-family="FreeSans" font-size="10.00">&lt; TIterator, TFunctor,</text>
<text text-anchor="middle" x="1513.5" y="-7.5" font-family="FreeSans" font-size="10.00"> TReturnType &gt;</text>
</a>
</g>
</g>
<!-- Node16&#45;&gt;Node7 -->
<g id="edge21" class="edge"><title>Node16&#45;&gt;Node7</title>
<path fill="none" stroke="#9a32cd" stroke-dasharray="5,2" d="M1585.29,-18.8463C1639.39,-19.047 1715.24,-23.3492 1779,-42 1805.57,-49.7728 1833.09,-64.7517 1853.29,-77.2632"/>
<polygon fill="#9a32cd" stroke="#9a32cd" points="1585.11,-15.3464 1575.11,-18.8558 1585.12,-22.3464 1585.11,-15.3464"/>
<text text-anchor="middle" x="1700" y="-56" font-family="FreeSans" font-size="10.00"> myBegin</text>
<text text-anchor="middle" x="1700" y="-45" font-family="FreeSans" font-size="10.00">myEnd</text>
</g>
<!-- Node17 -->
<g id="node17" class="node"><title>Node17</title>
<polygon fill="white" stroke="#bfbfbf" points="1180,-0.5 1180,-41.5 1342,-41.5 1342,-0.5 1180,-0.5"/>
<text text-anchor="start" x="1188" y="-29.5" font-family="FreeSans" font-size="10.00">boost::transform_iterator</text>
<text text-anchor="start" x="1188" y="-18.5" font-family="FreeSans" font-size="10.00">&lt; TFunctor, TIterator,</text>
<text text-anchor="middle" x="1261" y="-7.5" font-family="FreeSans" font-size="10.00"> TReturnType &amp;, TReturnType &gt;</text>
</g>
<!-- Node17&#45;&gt;Node16 -->
<g id="edge22" class="edge"><title>Node17&#45;&gt;Node16</title>
<path fill="none" stroke="midnightblue" d="M1352.41,-21C1385.41,-21 1421.91,-21 1451.72,-21"/>
<polygon fill="midnightblue" stroke="midnightblue" points="1352.29,-17.5001 1342.29,-21 1352.29,-24.5001 1352.29,-17.5001"/>
</g>
<!-- Node18&#45;&gt;Node7 -->
<g id="edge23" class="edge"><title>Node18&#45;&gt;Node7</title>
<path fill="none" stroke="orange" stroke-dasharray="5,2" d="M1613.15,-116.326C1670.35,-112.455 1741.73,-107.626 1796.86,-103.896"/>
<polygon fill="orange" stroke="orange" points="1612.75,-112.845 1603,-117.012 1613.22,-119.829 1612.75,-112.845"/>
<text text-anchor="start" x="1641.5" y="-130" font-family="FreeSans" font-size="10.00"> &lt; IteratorAdapter,</text>
<text text-anchor="middle" x="1700" y="-119" font-family="FreeSans" font-size="10.00"> TInteger, connectivity &gt;</text>
</g>
<!-- Node19 -->
<g id="node19" class="node"><title>Node19</title>
<polygon fill="white" stroke="#bfbfbf" points="1232.5,-160.5 1232.5,-179.5 1289.5,-179.5 1289.5,-160.5 1232.5,-160.5"/>
<text text-anchor="middle" x="1261" y="-167.5" font-family="FreeSans" font-size="10.00">TIterator</text>
</g>
<!-- Node19&#45;&gt;Node1 -->
<g id="edge26" class="edge"><title>Node19&#45;&gt;Node1</title>
<path fill="none" stroke="#9a32cd" stroke-dasharray="5,2" d="M1300,-170.511C1431.23,-172.277 1867.78,-178.149 2060.82,-180.746"/>
<polygon fill="#9a32cd" stroke="#9a32cd" points="1299.72,-167.007 1289.67,-170.372 1299.63,-174.007 1299.72,-167.007"/>
<text text-anchor="middle" x="1700" y="-191" font-family="FreeSans" font-size="10.00"> myBegin</text>
<text text-anchor="middle" x="1700" y="-180" font-family="FreeSans" font-size="10.00">myEnd</text>
</g>
<!-- Node19&#45;&gt;Node18 -->
<g id="edge25" class="edge"><title>Node19&#45;&gt;Node18</title>
<path fill="none" stroke="#9a32cd" stroke-dasharray="5,2" d="M1299.64,-159.937C1317.8,-155.3 1339.94,-149.961 1360,-146 1380.62,-141.929 1402.93,-138.192 1423.96,-134.967"/>
<polygon fill="#9a32cd" stroke="#9a32cd" points="1298.54,-156.607 1289.73,-162.498 1300.29,-163.384 1298.54,-156.607"/>
<text text-anchor="middle" x="1383" y="-160" font-family="FreeSans" font-size="10.00"> myBegin</text>
<text text-anchor="middle" x="1383" y="-149" font-family="FreeSans" font-size="10.00">myEnd</text>
</g>
</g>
</svg>
        <g id="navigator" transform="translate(0 0)" fill="#404254">
                <rect fill="#f2f5e9" fill-opacity="0.5" stroke="#606060" stroke-width=".5" x="0" y="0" width="60" height="60"/>
                <use id="zoomplus" xlink:href="#zoomPlus" x="17" y="9" onmousedown="handleZoom(evt,'in')"/>
                <use id="zoomminus" xlink:href="#zoomMin" x="42" y="9" onmousedown="handleZoom(evt,'out')"/>
                <use id="reset" xlink:href="#resetDef" x="30" y="36" onmousedown="handleReset()"/>
                <g id="arrowUp" xlink:href="#dirArrow" transform="translate(30 24)" onmousedown="handlePan(0,-1)">
                  <use xlink:href="#rim" fill="#404040">
                        <set attributeName="fill" to="#808080" begin="arrowUp.mouseover" end="arrowUp.mouseout"/>
                  </use>
                  <path fill="none" stroke="white" stroke-width="1.5" d="M0,-3.0v7 M-2.5,-0.5L0,-3.0L2.5,-0.5"/>
                </g>
                <g id="arrowRight" xlink:href="#dirArrow" transform="rotate(90) translate(36 -43)" onmousedown="handlePan(1,0)">
                  <use xlink:href="#rim" fill="#404040">
                        <set attributeName="fill" to="#808080" begin="arrowRight.mouseover" end="arrowRight.mouseout"/>
                  </use>
                  <path fill="none" stroke="white" stroke-width="1.5" d="M0,-3.0v7 M-2.5,-0.5L0,-3.0L2.5,-0.5"/>
                </g>
                <g id="arrowDown" xlink:href="#dirArrow" transform="rotate(180) translate(-30 -48)" onmousedown="handlePan(0,1)">
                  <use xlink:href="#rim" fill="#404040">
                        <set attributeName="fill" to="#808080" begin="arrowDown.mouseover" end="arrowDown.mouseout"/>
                  </use>
                  <path fill="none" stroke="white" stroke-width="1.5" d="M0,-3.0v7 M-2.5,-0.5L0,-3.0L2.5,-0.5"/>
                </g>
                <g id="arrowLeft" xlink:href="#dirArrow" transform="rotate(270) translate(-36 17)" onmousedown="handlePan(-1,0)">
                  <use xlink:href="#rim" fill="#404040">
                        <set attributeName="fill" to="#808080" begin="arrowLeft.mouseover" end="arrowLeft.mouseout"/>
                  </use>
                  <path fill="none" stroke="white" stroke-width="1.5" d="M0,-3.0v7 M-2.5,-0.5L0,-3.0L2.5,-0.5"/>
                </g>
        </g>
        <svg viewBox="0 0 15 15" width="100%" height="30px" preserveAspectRatio="xMaxYMin meet">
         <g id="arrow_out" transform="scale(0.3 0.3)">
          <a xlink:href="classDGtal_1_1StandardDSS6Computer__coll__graph_org.svg" target="_base">
           <rect id="button" ry="5" rx="5" y="6" x="6" height="38" width="38"
                fill="#f2f5e9" fill-opacity="0.5" stroke="#606060" stroke-width="1.0"/>
           <path id="arrow"
             d="M 11.500037,31.436501 C 11.940474,20.09759 22.043105,11.32322 32.158766,21.979434 L 37.068811,17.246167 C 37.068811,17.246167 37.088388,32 37.088388,32 L 22.160133,31.978069 C 22.160133,31.978069 26.997745,27.140456 26.997745,27.140456 C 18.528582,18.264221 13.291696,25.230495 11.500037,31.436501 z"
             style="fill:#404040;"/>
          </a>
         </g>
        </svg>
</svg>
