<?xml version="1.0" encoding="UTF-8" standalone="no"?>
<!DOCTYPE svg PUBLIC "-//W3C//DTD SVG 1.1//EN"
 "http://www.w3.org/Graphics/SVG/1.1/DTD/svg11.dtd">
<!-- Generated by graphviz version 2.36.0 (20140111.2315)
 -->
<!-- Title: DGtal::ArithmeticalDSSComputer&lt; TIterator, TInteger, adjacency &gt; Pages: 1 -->
<svg width="214pt" height="140pt"
 viewBox="0.00 0.00 214.00 140.00" xmlns="http://www.w3.org/2000/svg" xmlns:xlink="http://www.w3.org/1999/xlink">
<g id="graph0" class="graph" transform="scale(1 1) rotate(0) translate(4 136)">
<title>DGtal::ArithmeticalDSSComputer&lt; TIterator, TInteger, adjacency &gt;</title>
<polygon fill="white" stroke="none" points="-4,4 -4,-136 210,-136 210,4 -4,4"/>
<!-- Node0 -->
<g id="node1" class="node"><title>Node0</title>
<polygon fill="#bfbfbf" stroke="black" points="-0.5,-101 -0.5,-131 178.5,-131 178.5,-101 -0.5,-101"/>
<text text-anchor="start" x="7.5" y="-119" font-family="FreeSans" font-size="10.00">DGtal::ArithmeticalDSSComputer</text>
<text text-anchor="middle" x="89" y="-108" font-family="FreeSans" font-size="10.00">&lt; TIterator, TInteger, adjacency &gt;</text>
</g>
<!-- Node1 -->
<g id="node2" class="node"><title>Node1</title>
<g id="a_node2"><a xlink:href="classDGtal_1_1ArithmeticalDSSComputer.html" target="_top" xlink:title="DGtal::ArithmeticalDSSComputer\l\&lt; IteratorAdapter, TInteger,\l connectivity \&gt;">
<polygon fill="white" stroke="black" points="1,-0.5 1,-41.5 177,-41.5 177,-0.5 1,-0.5"/>
<text text-anchor="start" x="9" y="-29.5" font-family="FreeSans" font-size="10.00">DGtal::ArithmeticalDSSComputer</text>
<text text-anchor="start" x="9" y="-18.5" font-family="FreeSans" font-size="10.00">&lt; IteratorAdapter, TInteger,</text>
<text text-anchor="middle" x="89" y="-7.5" font-family="FreeSans" font-size="10.00"> connectivity &gt;</text>
</a>
</g>
</g>
<!-- Node0&#45;&gt;Node1 -->
<g id="edge1" class="edge"><title>Node0&#45;&gt;Node1</title>
<path fill="none" stroke="orange" stroke-dasharray="5,2" d="M89,-90.6512C89,-75.4256 89,-56.0655 89,-41.7887"/>
<polygon fill="orange" stroke="orange" points="85.5001,-90.8753 89,-100.875 92.5001,-90.8753 85.5001,-90.8753"/>
<text text-anchor="start" x="89" y="-74" font-family="FreeSans" font-size="10.00"> &lt; IteratorAdapter,</text>
<text text-anchor="middle" x="147.5" y="-63" font-family="FreeSans" font-size="10.00"> TInteger, connectivity &gt;</text>
</g>
</g>
</svg>
