<?xml version="1.0" encoding="UTF-8" standalone="no"?>
<!DOCTYPE svg PUBLIC "-//W3C//DTD SVG 1.1//EN"
 "http://www.w3.org/Graphics/SVG/1.1/DTD/svg11.dtd">
<!-- Generated by graphviz version 2.36.0 (20140111.2315)
 -->
<!-- Title: DGtal::ImplicitDigitalSurface&lt; TKSpace, TPointPredicate &gt; Pages: 1 -->
<!--zoomable 142 -->
<svg id="main" version="1.1" xmlns="http://www.w3.org/2000/svg" xmlns:xlink="http://www.w3.org/1999/xlink" xml:space="preserve" onload="init(evt)">
<style type="text/css"><![CDATA[
.edge:hover path { stroke: red; }
.edge:hover polygon { stroke: red; fill: red; }
]]></style>
<script type="text/javascript"><![CDATA[
var edges = document.getElementsByTagName('g');
if (edges && edges.length) {
  for (var i=0;i<edges.length;i++) {
    if (edges[i].id.substr(0,4)=='edge') {
      edges[i].setAttribute('class','edge');
    }
  }
}
]]></script>
        <defs>
                <circle id="rim" cx="0" cy="0" r="7"/>
                <circle id="rim2" cx="0" cy="0" r="3.5"/>
                <g id="zoomPlus">
                        <use xlink:href="#rim" fill="#404040">
                                <set attributeName="fill" to="#808080" begin="zoomplus.mouseover" end="zoomplus.mouseout"/>
                        </use>
                        <path d="M-4,0h8M0,-4v8" fill="none" stroke="white" stroke-width="1.5" pointer-events="none"/>
                </g>
                <g id="zoomMin">
                        <use xlink:href="#rim" fill="#404040">
                                <set attributeName="fill" to="#808080" begin="zoomminus.mouseover" end="zoomminus.mouseout"/>
                        </use>
                        <path d="M-4,0h8" fill="none" stroke="white" stroke-width="1.5" pointer-events="none"/>
                </g>
                <g id="dirArrow">
                        <path fill="none" stroke="white" stroke-width="1.5" d="M0,-3.0v7 M-2.5,-0.5L0,-3.0L2.5,-0.5"/>
                </g>
               <g id="resetDef">
                       <use xlink:href="#rim2" fill="#404040">
                               <set attributeName="fill" to="#808080" begin="reset.mouseover" end="reset.mouseout"/>
                       </use>
               </g>
        </defs>

<script type="text/javascript">
var viewWidth = 1836;
var viewHeight = 142;
var sectionId = 'dynsection-0';
</script>
<script xlink:href="svgpan.js"/>
<svg id="graph" class="graph">
<g id="viewport">
<title>DGtal::ImplicitDigitalSurface&lt; TKSpace, TPointPredicate &gt;</title>
<polygon fill="white" stroke="none" points="-4,4 -4,-138 1832,-138 1832,4 -4,4"/>
<!-- Node1 -->
<g id="node1" class="node"><title>Node1</title>
<polygon fill="#bfbfbf" stroke="black" points="1666.5,-23 1666.5,-53 1827.5,-53 1827.5,-23 1666.5,-23"/>
<text text-anchor="start" x="1674.5" y="-41" font-family="FreeSans" font-size="10.00">DGtal::ImplicitDigitalSurface</text>
<text text-anchor="middle" x="1747" y="-30" font-family="FreeSans" font-size="10.00">&lt; TKSpace, TPointPredicate &gt;</text>
</g>
<!-- Node2 -->
<g id="node2" class="node"><title>Node2</title>
<polygon fill="white" stroke="#bfbfbf" points="1409,-49.5 1409,-68.5 1527,-68.5 1527,-49.5 1409,-49.5"/>
<text text-anchor="middle" x="1468" y="-56.5" font-family="FreeSans" font-size="10.00">std::vector&lt; Surfel &gt;</text>
</g>
<!-- Node2&#45;&gt;Node1 -->
<g id="edge1" class="edge"><title>Node2&#45;&gt;Node1</title>
<path fill="none" stroke="#9a32cd" stroke-dasharray="5,2" d="M1537.29,-53.8225C1576.39,-50.8585 1625.64,-47.1251 1666.47,-44.0293"/>
<polygon fill="#9a32cd" stroke="#9a32cd" points="1536.78,-50.3517 1527.07,-54.5977 1537.3,-57.3317 1536.78,-50.3517"/>
<text text-anchor="middle" x="1600" y="-56" font-family="FreeSans" font-size="10.00"> mySurfels</text>
</g>
<!-- Node3 -->
<g id="node3" class="node"><title>Node3</title>
<g id="a_node3"><a xlink:href="structDGtal_1_1SignedKhalimskyCell.html" target="_top" xlink:title="Represents a signed cell in a cellular grid space by its Khalimsky coordinates and a boolean value...">
<polygon fill="white" stroke="black" points="1100,-88 1100,-118 1248,-118 1248,-88 1100,-88"/>
<text text-anchor="start" x="1108" y="-106" font-family="FreeSans" font-size="10.00">DGtal::SignedKhalimskyCell</text>
<text text-anchor="middle" x="1174" y="-95" font-family="FreeSans" font-size="10.00">&lt; dim, TInteger &gt;</text>
</a>
</g>
</g>
<!-- Node3&#45;&gt;Node2 -->
<g id="edge2" class="edge"><title>Node3&#45;&gt;Node2</title>
<path fill="none" stroke="#9a32cd" stroke-dasharray="5,2" d="M1258.22,-92.2473C1296.57,-87.0882 1342.66,-80.6012 1384,-74 1394.41,-72.3376 1405.53,-70.4238 1416.14,-68.5315"/>
<polygon fill="#9a32cd" stroke="#9a32cd" points="1257.58,-88.8017 1248.14,-93.5977 1258.51,-95.7398 1257.58,-88.8017"/>
<text text-anchor="middle" x="1325" y="-94" font-family="FreeSans" font-size="10.00"> elements</text>
</g>
<!-- Node4 -->
<g id="node4" class="node"><title>Node4</title>
<g id="a_node4"><a xlink:href="structDGtal_1_1SignedKhalimskyPreCell.html" target="_top" xlink:title="DGtal::SignedKhalimskyPre\lCell\&lt; dim, Integer \&gt;">
<polygon fill="white" stroke="black" points="860,-88 860,-118 1006,-118 1006,-88 860,-88"/>
<text text-anchor="start" x="868" y="-106" font-family="FreeSans" font-size="10.00">DGtal::SignedKhalimskyPre</text>
<text text-anchor="middle" x="933" y="-95" font-family="FreeSans" font-size="10.00">Cell&lt; dim, Integer &gt;</text>
</a>
</g>
</g>
<!-- Node4&#45;&gt;Node3 -->
<g id="edge3" class="edge"><title>Node4&#45;&gt;Node3</title>
<path fill="none" stroke="#9a32cd" stroke-dasharray="5,2" d="M1016.29,-103C1043.45,-103 1073.45,-103 1099.88,-103"/>
<polygon fill="#9a32cd" stroke="#9a32cd" points="1016.03,-99.5001 1006.03,-103 1016.03,-106.5 1016.03,-99.5001"/>
<text text-anchor="middle" x="1053" y="-106" font-family="FreeSans" font-size="10.00"> mySPreCell</text>
</g>
<!-- Node5 -->
<g id="node5" class="node"><title>Node5</title>
<g id="a_node5"><a xlink:href="classDGtal_1_1PointVector.html" target="_top" xlink:title="DGtal::PointVector\l\&lt; dim, Integer \&gt;">
<polygon fill="white" stroke="black" points="394,-81 394,-111 498,-111 498,-81 394,-81"/>
<text text-anchor="start" x="402" y="-99" font-family="FreeSans" font-size="10.00">DGtal::PointVector</text>
<text text-anchor="middle" x="446" y="-88" font-family="FreeSans" font-size="10.00">&lt; dim, Integer &gt;</text>
</a>
</g>
</g>
<!-- Node5&#45;&gt;Node4 -->
<g id="edge4" class="edge"><title>Node5&#45;&gt;Node4</title>
<path fill="none" stroke="#9a32cd" stroke-dasharray="5,2" d="M508.312,-100.659C510.908,-100.788 513.48,-100.903 516,-101 636.523,-105.651 776.831,-105.085 859.822,-104.129"/>
<polygon fill="#9a32cd" stroke="#9a32cd" points="508.402,-97.1584 498.223,-100.098 508.014,-104.148 508.402,-97.1584"/>
<text text-anchor="middle" x="667" y="-108" font-family="FreeSans" font-size="10.00"> coordinates</text>
</g>
<!-- Node8 -->
<g id="node8" class="node"><title>Node8</title>
<g id="a_node8"><a xlink:href="structDGtal_1_1SignedKhalimskyPreCell.html" target="_top" xlink:title="Represents a signed cell in an unbounded cellular grid space by its Khalimsky coordinates and a boole...">
<polygon fill="white" stroke="black" points="594,-49 594,-79 740,-79 740,-49 594,-49"/>
<text text-anchor="start" x="602" y="-67" font-family="FreeSans" font-size="10.00">DGtal::SignedKhalimskyPre</text>
<text text-anchor="middle" x="667" y="-56" font-family="FreeSans" font-size="10.00">Cell&lt; dim, TInteger &gt;</text>
</a>
</g>
</g>
<!-- Node5&#45;&gt;Node8 -->
<g id="edge11" class="edge"><title>Node5&#45;&gt;Node8</title>
<path fill="none" stroke="#9a32cd" stroke-dasharray="5,2" d="M508.003,-87.0864C534.576,-83.2034 565.926,-78.6227 593.665,-74.5695"/>
<polygon fill="#9a32cd" stroke="#9a32cd" points="507.458,-83.6287 498.069,-88.5378 508.47,-90.5551 507.458,-83.6287"/>
<text text-anchor="middle" x="546" y="-89" font-family="FreeSans" font-size="10.00"> coordinates</text>
</g>
<!-- Node6 -->
<g id="node6" class="node"><title>Node6</title>
<polygon fill="white" stroke="#bfbfbf" points="0,-110.5 0,-129.5 68,-129.5 68,-110.5 0,-110.5"/>
<text text-anchor="middle" x="34" y="-117.5" font-family="FreeSans" font-size="10.00">TContainer</text>
</g>
<!-- Node6&#45;&gt;Node5 -->
<g id="edge5" class="edge"><title>Node6&#45;&gt;Node5</title>
<path fill="none" stroke="#9a32cd" stroke-dasharray="5,2" d="M78.3566,-120.473C99.3833,-120.68 125.007,-120.898 148,-121 203.999,-121.248 218.147,-125.061 274,-121 314.547,-118.052 360.078,-111.221 393.957,-105.443"/>
<polygon fill="#9a32cd" stroke="#9a32cd" points="78.1626,-116.971 68.1278,-120.37 78.0919,-123.971 78.1626,-116.971"/>
<text text-anchor="middle" x="211" y="-126" font-family="FreeSans" font-size="10.00"> myArray</text>
</g>
<!-- Node7 -->
<g id="node7" class="node"><title>Node7</title>
<g id="a_node7"><a xlink:href="classDGtal_1_1PointVector.html" target="_top" xlink:title="Aim: Implements basic operations that will be used in Point and Vector classes. ">
<polygon fill="white" stroke="black" points="148,-41.5 148,-82.5 274,-82.5 274,-41.5 148,-41.5"/>
<text text-anchor="start" x="156" y="-70.5" font-family="FreeSans" font-size="10.00">DGtal::PointVector</text>
<text text-anchor="start" x="156" y="-59.5" font-family="FreeSans" font-size="10.00">&lt; dim, TEuclideanRing,</text>
<text text-anchor="middle" x="211" y="-48.5" font-family="FreeSans" font-size="10.00"> TContainer &gt;</text>
</a>
</g>
</g>
<!-- Node6&#45;&gt;Node7 -->
<g id="edge7" class="edge"><title>Node6&#45;&gt;Node7</title>
<path fill="none" stroke="#9a32cd" stroke-dasharray="5,2" d="M73.4757,-107.248C95.3137,-100.01 123.167,-90.7789 148.013,-82.5443"/>
<polygon fill="#9a32cd" stroke="#9a32cd" points="72.2888,-103.954 63.8977,-110.422 74.4911,-110.599 72.2888,-103.954"/>
<text text-anchor="middle" x="108" y="-106" font-family="FreeSans" font-size="10.00"> myArray</text>
</g>
<!-- Node7&#45;&gt;Node5 -->
<g id="edge6" class="edge"><title>Node7&#45;&gt;Node5</title>
<path fill="none" stroke="#9a32cd" stroke-dasharray="5,2" d="M283.942,-72.8124C286.662,-73.2145 289.356,-73.6116 292,-74 325.985,-78.9922 364.235,-84.4922 393.989,-88.7441"/>
<polygon fill="#9a32cd" stroke="#9a32cd" points="284.418,-69.3447 274.012,-71.3398 283.391,-76.269 284.418,-69.3447"/>
<text text-anchor="middle" x="334" y="-90" font-family="FreeSans" font-size="10.00"> zero</text>
</g>
<!-- Node7&#45;&gt;Node5 -->
<g id="edge9" class="edge"><title>Node7&#45;&gt;Node5</title>
<path fill="none" stroke="orange" stroke-dasharray="5,2" d="M284.333,-54.1583C313.203,-52.9373 346.522,-53.9512 376,-61 392.33,-64.9048 409.163,-73.341 422.116,-80.9524"/>
<polygon fill="orange" stroke="orange" points="284.127,-50.6642 274.321,-54.6771 284.489,-57.6548 284.127,-50.6642"/>
<text text-anchor="middle" x="334" y="-64" font-family="FreeSans" font-size="10.00"> &lt; dim, Integer &gt;</text>
</g>
<!-- Node7&#45;&gt;Node7 -->
<g id="edge8" class="edge"><title>Node7&#45;&gt;Node7</title>
<path fill="none" stroke="#9a32cd" stroke-dasharray="5,2" d="M193.766,-92.6009C196.515,-97.0235 202.259,-100 211,-100 225.344,-100 231.619,-91.9844 229.826,-82.7163"/>
<polygon fill="#9a32cd" stroke="#9a32cd" points="197.22,-92.0324 192.174,-82.7163 190.309,-93.1457 197.22,-92.0324"/>
<text text-anchor="middle" x="211" y="-103" font-family="FreeSans" font-size="10.00"> zero</text>
</g>
<!-- Node8&#45;&gt;Node4 -->
<g id="edge10" class="edge"><title>Node8&#45;&gt;Node4</title>
<path fill="none" stroke="orange" stroke-dasharray="5,2" d="M750.363,-76.1673C785.468,-81.3532 826.056,-87.3491 859.948,-92.356"/>
<polygon fill="orange" stroke="orange" points="750.543,-72.656 740.139,-74.6569 749.52,-79.5808 750.543,-72.656"/>
<text text-anchor="middle" x="800" y="-93" font-family="FreeSans" font-size="10.00"> &lt; dim, Integer &gt;</text>
</g>
<!-- Node9 -->
<g id="node9" class="node"><title>Node9</title>
<g id="a_node9"><a xlink:title="STL class. ">
<polygon fill="white" stroke="#bfbfbf" points="1126.5,-49.5 1126.5,-68.5 1221.5,-68.5 1221.5,-49.5 1126.5,-49.5"/>
<text text-anchor="middle" x="1174" y="-56.5" font-family="FreeSans" font-size="10.00">std::vector&lt; T &gt;</text>
</a>
</g>
</g>
<!-- Node9&#45;&gt;Node2 -->
<g id="edge12" class="edge"><title>Node9&#45;&gt;Node2</title>
<path fill="none" stroke="orange" stroke-dasharray="5,2" d="M1231.78,-59C1282.77,-59 1357.31,-59 1408.75,-59"/>
<polygon fill="orange" stroke="orange" points="1231.59,-55.5001 1221.59,-59 1231.59,-62.5001 1231.59,-55.5001"/>
<text text-anchor="middle" x="1325" y="-62" font-family="FreeSans" font-size="10.00"> &lt; Surfel &gt;</text>
</g>
<!-- Node10 -->
<g id="node10" class="node"><title>Node10</title>
<polygon fill="white" stroke="#bfbfbf" points="918.5,-49.5 918.5,-68.5 947.5,-68.5 947.5,-49.5 918.5,-49.5"/>
<text text-anchor="middle" x="933" y="-56.5" font-family="FreeSans" font-size="10.00">T</text>
</g>
<!-- Node10&#45;&gt;Node9 -->
<g id="edge13" class="edge"><title>Node10&#45;&gt;Node9</title>
<path fill="none" stroke="#9a32cd" stroke-dasharray="5,2" d="M957.664,-59C996.735,-59 1075.44,-59 1126.11,-59"/>
<polygon fill="#9a32cd" stroke="#9a32cd" points="957.534,-55.5001 947.534,-59 957.534,-62.5001 957.534,-55.5001"/>
<text text-anchor="middle" x="1053" y="-62" font-family="FreeSans" font-size="10.00"> elements</text>
</g>
<!-- Node11 -->
<g id="node11" class="node"><title>Node11</title>
<g id="a_node11"><a xlink:href="classDGtal_1_1SurfelAdjacency.html" target="_top" xlink:title="DGtal::SurfelAdjacency\l\&lt; KSpace::dimension \&gt;">
<polygon fill="white" stroke="black" points="1402.5,-0 1402.5,-30 1533.5,-30 1533.5,-0 1402.5,-0"/>
<text text-anchor="start" x="1410.5" y="-18" font-family="FreeSans" font-size="10.00">DGtal::SurfelAdjacency</text>
<text text-anchor="middle" x="1468" y="-7" font-family="FreeSans" font-size="10.00">&lt; KSpace::dimension &gt;</text>
</a>
</g>
</g>
<!-- Node11&#45;&gt;Node1 -->
<g id="edge14" class="edge"><title>Node11&#45;&gt;Node1</title>
<path fill="none" stroke="#9a32cd" stroke-dasharray="5,2" d="M1543.57,-21.1918C1581.56,-24.3462 1627.77,-28.1831 1666.44,-31.3942"/>
<polygon fill="#9a32cd" stroke="#9a32cd" points="1543.85,-17.703 1533.59,-20.3635 1543.27,-24.679 1543.85,-17.703"/>
<text text-anchor="middle" x="1600" y="-33" font-family="FreeSans" font-size="10.00"> mySurfelAdjacency</text>
</g>
<!-- Node12 -->
<g id="node12" class="node"><title>Node12</title>
<g id="a_node12"><a xlink:href="classDGtal_1_1SurfelAdjacency.html" target="_top" xlink:title="Aim: Represent adjacencies between surfel elements, telling if it follows an interior to exterior ord...">
<polygon fill="white" stroke="black" points="1111,-0 1111,-30 1237,-30 1237,-0 1111,-0"/>
<text text-anchor="start" x="1119" y="-18" font-family="FreeSans" font-size="10.00">DGtal::SurfelAdjacency</text>
<text text-anchor="middle" x="1174" y="-7" font-family="FreeSans" font-size="10.00">&lt; dim &gt;</text>
</a>
</g>
</g>
<!-- Node12&#45;&gt;Node11 -->
<g id="edge15" class="edge"><title>Node12&#45;&gt;Node11</title>
<path fill="none" stroke="orange" stroke-dasharray="5,2" d="M1247.49,-15C1294.97,-15 1356.46,-15 1402.28,-15"/>
<polygon fill="orange" stroke="orange" points="1247.28,-11.5001 1237.28,-15 1247.28,-18.5001 1247.28,-11.5001"/>
<text text-anchor="middle" x="1325" y="-18" font-family="FreeSans" font-size="10.00"> &lt; KSpace::dimension &gt;</text>
</g>
</g>
</svg>
        <g id="navigator" transform="translate(0 0)" fill="#404254">
                <rect fill="#f2f5e9" fill-opacity="0.5" stroke="#606060" stroke-width=".5" x="0" y="0" width="60" height="60"/>
                <use id="zoomplus" xlink:href="#zoomPlus" x="17" y="9" onmousedown="handleZoom(evt,'in')"/>
                <use id="zoomminus" xlink:href="#zoomMin" x="42" y="9" onmousedown="handleZoom(evt,'out')"/>
                <use id="reset" xlink:href="#resetDef" x="30" y="36" onmousedown="handleReset()"/>
                <g id="arrowUp" xlink:href="#dirArrow" transform="translate(30 24)" onmousedown="handlePan(0,-1)">
                  <use xlink:href="#rim" fill="#404040">
                        <set attributeName="fill" to="#808080" begin="arrowUp.mouseover" end="arrowUp.mouseout"/>
                  </use>
                  <path fill="none" stroke="white" stroke-width="1.5" d="M0,-3.0v7 M-2.5,-0.5L0,-3.0L2.5,-0.5"/>
                </g>
                <g id="arrowRight" xlink:href="#dirArrow" transform="rotate(90) translate(36 -43)" onmousedown="handlePan(1,0)">
                  <use xlink:href="#rim" fill="#404040">
                        <set attributeName="fill" to="#808080" begin="arrowRight.mouseover" end="arrowRight.mouseout"/>
                  </use>
                  <path fill="none" stroke="white" stroke-width="1.5" d="M0,-3.0v7 M-2.5,-0.5L0,-3.0L2.5,-0.5"/>
                </g>
                <g id="arrowDown" xlink:href="#dirArrow" transform="rotate(180) translate(-30 -48)" onmousedown="handlePan(0,1)">
                  <use xlink:href="#rim" fill="#404040">
                        <set attributeName="fill" to="#808080" begin="arrowDown.mouseover" end="arrowDown.mouseout"/>
                  </use>
                  <path fill="none" stroke="white" stroke-width="1.5" d="M0,-3.0v7 M-2.5,-0.5L0,-3.0L2.5,-0.5"/>
                </g>
                <g id="arrowLeft" xlink:href="#dirArrow" transform="rotate(270) translate(-36 17)" onmousedown="handlePan(-1,0)">
                  <use xlink:href="#rim" fill="#404040">
                        <set attributeName="fill" to="#808080" begin="arrowLeft.mouseover" end="arrowLeft.mouseout"/>
                  </use>
                  <path fill="none" stroke="white" stroke-width="1.5" d="M0,-3.0v7 M-2.5,-0.5L0,-3.0L2.5,-0.5"/>
                </g>
        </g>
        <svg viewBox="0 0 15 15" width="100%" height="30px" preserveAspectRatio="xMaxYMin meet">
         <g id="arrow_out" transform="scale(0.3 0.3)">
          <a xlink:href="classDGtal_1_1ImplicitDigitalSurface__coll__graph_org.svg" target="_base">
           <rect id="button" ry="5" rx="5" y="6" x="6" height="38" width="38"
                fill="#f2f5e9" fill-opacity="0.5" stroke="#606060" stroke-width="1.0"/>
           <path id="arrow"
             d="M 11.500037,31.436501 C 11.940474,20.09759 22.043105,11.32322 32.158766,21.979434 L 37.068811,17.246167 C 37.068811,17.246167 37.088388,32 37.088388,32 L 22.160133,31.978069 C 22.160133,31.978069 26.997745,27.140456 26.997745,27.140456 C 18.528582,18.264221 13.291696,25.230495 11.500037,31.436501 z"
             style="fill:#404040;"/>
          </a>
         </g>
        </svg>
</svg>
