<?xml version="1.0" encoding="UTF-8" standalone="no"?>
<!DOCTYPE svg PUBLIC "-//W3C//DTD SVG 1.1//EN"
 "http://www.w3.org/Graphics/SVG/1.1/DTD/svg11.dtd">
<!-- Generated by graphviz version 2.38.0 (20140413.2041)
 -->
<!-- Title: DGtal::HyperRectDomain&lt; TSpace &gt; Pages: 1 -->
<!--zoomable 255 -->
<svg id="main" version="1.1" xmlns="http://www.w3.org/2000/svg" xmlns:xlink="http://www.w3.org/1999/xlink" xml:space="preserve" onload="init(evt)">
<style type="text/css"><![CDATA[
.edge:hover path { stroke: red; }
.edge:hover polygon { stroke: red; fill: red; }
]]></style>
<script type="text/javascript"><![CDATA[
var edges = document.getElementsByTagName('g');
if (edges && edges.length) {
  for (var i=0;i<edges.length;i++) {
    if (edges[i].id.substr(0,4)=='edge') {
      edges[i].setAttribute('class','edge');
    }
  }
}
]]></script>
        <defs>
                <circle id="rim" cx="0" cy="0" r="7"/>
                <circle id="rim2" cx="0" cy="0" r="3.5"/>
                <g id="zoomPlus">
                        <use xlink:href="#rim" fill="#404040">
                                <set attributeName="fill" to="#808080" begin="zoomplus.mouseover" end="zoomplus.mouseout"/>
                        </use>
                        <path d="M-4,0h8M0,-4v8" fill="none" stroke="white" stroke-width="1.5" pointer-events="none"/>
                </g>
                <g id="zoomMin">
                        <use xlink:href="#rim" fill="#404040">
                                <set attributeName="fill" to="#808080" begin="zoomminus.mouseover" end="zoomminus.mouseout"/>
                        </use>
                        <path d="M-4,0h8" fill="none" stroke="white" stroke-width="1.5" pointer-events="none"/>
                </g>
                <g id="dirArrow">
                        <path fill="none" stroke="white" stroke-width="1.5" d="M0,-3.0v7 M-2.5,-0.5L0,-3.0L2.5,-0.5"/>
                </g>
               <g id="resetDef">
                       <use xlink:href="#rim2" fill="#404040">
                               <set attributeName="fill" to="#808080" begin="reset.mouseover" end="reset.mouseout"/>
                       </use>
               </g>
        </defs>

<script type="text/javascript">
var viewWidth = 933;
var viewHeight = 255;
var sectionId = 'dynsection-1';
</script>
<script xlink:href="svgpan.js"/>
<svg id="graph" class="graph">
<g id="viewport">
<title>DGtal::HyperRectDomain&lt; TSpace &gt;</title>
<polygon fill="white" stroke="none" points="-4,4 -4,-250.5 929,-250.5 929,4 -4,4"/>
<!-- Node2 -->
<g id="node1" class="node"><title>Node2</title>
<polygon fill="#bfbfbf" stroke="black" points="789,-64 789,-94 925,-94 925,-64 789,-64"/>
<text text-anchor="start" x="797" y="-82" font-family="FreeSans" font-size="10.00">DGtal::HyperRectDomain</text>
<text text-anchor="middle" x="857" y="-71" font-family="FreeSans" font-size="10.00">&lt; TSpace &gt;</text>
</g>
<!-- Node3 -->
<g id="node2" class="node"><title>Node3</title>
<g id="a_node2"><a xlink:href="classDGtal_1_1HyperRectDomain__Iterator.html" target="_top" xlink:title="Iterator for HyperRectDomain. ">
<polygon fill="white" stroke="black" points="307.5,-139 307.5,-169 443.5,-169 443.5,-139 307.5,-139"/>
<text text-anchor="start" x="315.5" y="-157" font-family="FreeSans" font-size="10.00">DGtal::HyperRectDomain</text>
<text text-anchor="middle" x="375.5" y="-146" font-family="FreeSans" font-size="10.00">_Iterator&lt; TPoint &gt;</text>
</a>
</g>
</g>
<!-- Node3&#45;&gt;Node2 -->
<g id="edge1" class="edge"><title>Node3&#45;&gt;Node2</title>
<path fill="none" stroke="#9a32cd" stroke-dasharray="5,2" d="M453.528,-142.837C533.106,-131.175 660.864,-112.091 771,-94 776.767,-93.0528 782.749,-92.046 788.748,-91.0198"/>
<polygon fill="#9a32cd" stroke="#9a32cd" points="452.974,-139.381 443.587,-144.292 453.988,-146.307 452.974,-139.381"/>
<text text-anchor="middle" x="623" y="-141" font-family="FreeSans" font-size="10.00"> myIteratorEnd</text>
<text text-anchor="middle" x="623" y="-130" font-family="FreeSans" font-size="10.00">myIteratorBegin</text>
</g>
<!-- Node4 -->
<g id="node3" class="node"><title>Node4</title>
<polygon fill="white" stroke="#bfbfbf" points="0,-150 0,-246 194,-246 194,-150 0,-150"/>
<text text-anchor="start" x="8" y="-234" font-family="FreeSans" font-size="10.00">boost::iterator_facade</text>
<text text-anchor="start" x="8" y="-223" font-family="FreeSans" font-size="10.00">&lt; HyperRectDomain_Iterator</text>
<text text-anchor="start" x="8" y="-212" font-family="FreeSans" font-size="10.00">&lt; TPoint &gt;, TPoint const,</text>
<text text-anchor="start" x="8" y="-201" font-family="FreeSans" font-size="10.00"> std::random_access_iterator</text>
<text text-anchor="start" x="8" y="-190" font-family="FreeSans" font-size="10.00">_tag, TPoint const &amp;, std::conditional</text>
<text text-anchor="start" x="8" y="-179" font-family="FreeSans" font-size="10.00">&lt; std::is_same&lt; TPoint::Component,</text>
<text text-anchor="start" x="8" y="-168" font-family="FreeSans" font-size="10.00"> BigInteger &gt;::value, BigInteger, std</text>
<text text-anchor="middle" x="97" y="-157" font-family="FreeSans" font-size="10.00">::ptrdiff_t &gt;::type &gt;</text>
</g>
<!-- Node4&#45;&gt;Node3 -->
<g id="edge2" class="edge"><title>Node4&#45;&gt;Node3</title>
<path fill="none" stroke="midnightblue" d="M204.275,-190.096C231.991,-187.155 261.73,-183.216 289,-178 301.266,-175.654 314.329,-172.39 326.458,-169.023"/>
<polygon fill="midnightblue" stroke="midnightblue" points="203.754,-186.631 194.164,-191.134 204.469,-193.594 203.754,-186.631"/>
</g>
<!-- Node5 -->
<g id="node4" class="node"><title>Node5</title>
<polygon fill="white" stroke="#bfbfbf" points="74,-103.5 74,-122.5 120,-122.5 120,-103.5 74,-103.5"/>
<text text-anchor="middle" x="97" y="-110.5" font-family="FreeSans" font-size="10.00">TPoint</text>
</g>
<!-- Node5&#45;&gt;Node3 -->
<g id="edge3" class="edge"><title>Node5&#45;&gt;Node3</title>
<path fill="none" stroke="#9a32cd" stroke-dasharray="5,2" d="M130.095,-117.759C173.244,-124.157 251.03,-135.692 307.279,-144.032"/>
<polygon fill="#9a32cd" stroke="#9a32cd" points="130.565,-114.291 120.16,-116.286 129.538,-121.215 130.565,-114.291"/>
<text text-anchor="middle" x="250.5" y="-166" font-family="FreeSans" font-size="10.00"> mylower</text>
<text text-anchor="middle" x="250.5" y="-155" font-family="FreeSans" font-size="10.00">myupper</text>
<text text-anchor="middle" x="250.5" y="-144" font-family="FreeSans" font-size="10.00">myPoint</text>
</g>
<!-- Node9 -->
<g id="node8" class="node"><title>Node9</title>
<g id="a_node8"><a xlink:href="structDGtal_1_1functors_1_1IsWithinPointPredicate.html" target="_top" xlink:title="Aim: The predicate returns true when the point is within the given bounds. ">
<polygon fill="white" stroke="black" points="307,-90 307,-120 444,-120 444,-90 307,-90"/>
<text text-anchor="start" x="315" y="-108" font-family="FreeSans" font-size="10.00">DGtal::functors::IsWithin</text>
<text text-anchor="middle" x="375.5" y="-97" font-family="FreeSans" font-size="10.00">PointPredicate&lt; TPoint &gt;</text>
</a>
</g>
</g>
<!-- Node5&#45;&gt;Node9 -->
<g id="edge9" class="edge"><title>Node5&#45;&gt;Node9</title>
<path fill="none" stroke="#9a32cd" stroke-dasharray="5,2" d="M130.415,-110.532C153.217,-108.913 184.456,-106.93 212,-106 243.157,-104.948 277.693,-104.618 306.885,-104.583"/>
<polygon fill="#9a32cd" stroke="#9a32cd" points="129.984,-107.054 120.264,-111.268 130.491,-114.036 129.984,-107.054"/>
<text text-anchor="middle" x="250.5" y="-120" font-family="FreeSans" font-size="10.00"> myLowerBound</text>
<text text-anchor="middle" x="250.5" y="-109" font-family="FreeSans" font-size="10.00">myUpperBound</text>
</g>
<!-- Node6 -->
<g id="node5" class="node"><title>Node6</title>
<g id="a_node5"><a xlink:href="structDGtal_1_1functors_1_1IsWithinPointPredicate.html" target="_top" xlink:title="DGtal::functors::IsWithin\lPointPredicate\&lt; Point \&gt;">
<polygon fill="white" stroke="black" points="557,-64 557,-94 689,-94 689,-64 557,-64"/>
<text text-anchor="start" x="565" y="-82" font-family="FreeSans" font-size="10.00">DGtal::functors::IsWithin</text>
<text text-anchor="middle" x="623" y="-71" font-family="FreeSans" font-size="10.00">PointPredicate&lt; Point &gt;</text>
</a>
</g>
</g>
<!-- Node6&#45;&gt;Node2 -->
<g id="edge4" class="edge"><title>Node6&#45;&gt;Node2</title>
<path fill="none" stroke="#9a32cd" stroke-dasharray="5,2" d="M699.269,-79C728.108,-79 760.795,-79 788.828,-79"/>
<polygon fill="#9a32cd" stroke="#9a32cd" points="699.242,-75.5001 689.242,-79 699.242,-82.5001 699.242,-75.5001"/>
<text text-anchor="middle" x="739" y="-82" font-family="FreeSans" font-size="10.00"> myPredicate</text>
</g>
<!-- Node7 -->
<g id="node6" class="node"><title>Node7</title>
<g id="a_node6"><a xlink:href="classDGtal_1_1PointVector.html" target="_top" xlink:title="Aim: Implements basic operations that will be used in Point and Vector classes. ">
<polygon fill="white" stroke="black" points="312.5,-0.5 312.5,-41.5 438.5,-41.5 438.5,-0.5 312.5,-0.5"/>
<text text-anchor="start" x="320.5" y="-29.5" font-family="FreeSans" font-size="10.00">DGtal::PointVector</text>
<text text-anchor="start" x="320.5" y="-18.5" font-family="FreeSans" font-size="10.00">&lt; dim, TEuclideanRing,</text>
<text text-anchor="middle" x="375.5" y="-7.5" font-family="FreeSans" font-size="10.00"> TContainer &gt;</text>
</a>
</g>
</g>
<!-- Node7&#45;&gt;Node2 -->
<g id="edge10" class="edge"><title>Node7&#45;&gt;Node2</title>
<path fill="none" stroke="#9a32cd" stroke-dasharray="5,2" d="M448.907,-18.6742C512.543,-17.7867 607.45,-19.2774 689,-32 732.151,-38.732 779.996,-52.9163 813.375,-63.9511"/>
<polygon fill="#9a32cd" stroke="#9a32cd" points="448.519,-15.18 438.578,-18.843 448.634,-22.179 448.519,-15.18"/>
<text text-anchor="middle" x="623" y="-46" font-family="FreeSans" font-size="10.00"> myLowerBound</text>
<text text-anchor="middle" x="623" y="-35" font-family="FreeSans" font-size="10.00">myUpperBound</text>
</g>
<!-- Node7&#45;&gt;Node6 -->
<g id="edge5" class="edge"><title>Node7&#45;&gt;Node6</title>
<path fill="none" stroke="#9a32cd" stroke-dasharray="5,2" d="M448.824,-38.0868C483.471,-46.2721 524.605,-55.9901 558.088,-63.9006"/>
<polygon fill="#9a32cd" stroke="#9a32cd" points="449.304,-34.6039 438.767,-35.7108 447.695,-41.4164 449.304,-34.6039"/>
<text text-anchor="middle" x="500.5" y="-73" font-family="FreeSans" font-size="10.00"> myLowerBound</text>
<text text-anchor="middle" x="500.5" y="-62" font-family="FreeSans" font-size="10.00">myUpperBound</text>
</g>
<!-- Node7&#45;&gt;Node7 -->
<g id="edge7" class="edge"><title>Node7&#45;&gt;Node7</title>
<path fill="none" stroke="#9a32cd" stroke-dasharray="5,2" d="M354.167,-51.8561C357.339,-56.6966 364.45,-60 375.5,-60 393.18,-60 400.776,-51.5433 398.29,-41.8644"/>
<polygon fill="#9a32cd" stroke="#9a32cd" points="357.616,-51.2548 352.71,-41.8644 350.689,-52.2648 357.616,-51.2548"/>
<text text-anchor="middle" x="375.5" y="-63" font-family="FreeSans" font-size="10.00"> zero</text>
</g>
<!-- Node8 -->
<g id="node7" class="node"><title>Node8</title>
<polygon fill="white" stroke="#bfbfbf" points="63,-11.5 63,-30.5 131,-30.5 131,-11.5 63,-11.5"/>
<text text-anchor="middle" x="97" y="-18.5" font-family="FreeSans" font-size="10.00">TContainer</text>
</g>
<!-- Node8&#45;&gt;Node7 -->
<g id="edge6" class="edge"><title>Node8&#45;&gt;Node7</title>
<path fill="none" stroke="#9a32cd" stroke-dasharray="5,2" d="M141.296,-21C187.226,-21 260.208,-21 312.291,-21"/>
<polygon fill="#9a32cd" stroke="#9a32cd" points="141.078,-17.5001 131.078,-21 141.078,-24.5001 141.078,-17.5001"/>
<text text-anchor="middle" x="250.5" y="-24" font-family="FreeSans" font-size="10.00"> myArray</text>
</g>
<!-- Node9&#45;&gt;Node6 -->
<g id="edge8" class="edge"><title>Node9&#45;&gt;Node6</title>
<path fill="none" stroke="orange" stroke-dasharray="5,2" d="M454.28,-96.7626C487.209,-93.2753 525.148,-89.2572 556.605,-85.9258"/>
<polygon fill="orange" stroke="orange" points="453.81,-93.2928 444.234,-97.8266 454.547,-100.254 453.81,-93.2928"/>
<text text-anchor="middle" x="500.5" y="-99" font-family="FreeSans" font-size="10.00"> &lt; Point &gt;</text>
</g>
</g>
</svg>
        <g id="navigator" transform="translate(0 0)" fill="#404254">
                <rect fill="#f2f5e9" fill-opacity="0.5" stroke="#606060" stroke-width=".5" x="0" y="0" width="60" height="60"/>
                <use id="zoomplus" xlink:href="#zoomPlus" x="17" y="9" onmousedown="handleZoom(evt,'in')"/>
                <use id="zoomminus" xlink:href="#zoomMin" x="42" y="9" onmousedown="handleZoom(evt,'out')"/>
                <use id="reset" xlink:href="#resetDef" x="30" y="36" onmousedown="handleReset()"/>
                <g id="arrowUp" xlink:href="#dirArrow" transform="translate(30 24)" onmousedown="handlePan(0,-1)">
                  <use xlink:href="#rim" fill="#404040">
                        <set attributeName="fill" to="#808080" begin="arrowUp.mouseover" end="arrowUp.mouseout"/>
                  </use>
                  <path fill="none" stroke="white" stroke-width="1.5" d="M0,-3.0v7 M-2.5,-0.5L0,-3.0L2.5,-0.5"/>
                </g>
                <g id="arrowRight" xlink:href="#dirArrow" transform="rotate(90) translate(36 -43)" onmousedown="handlePan(1,0)">
                  <use xlink:href="#rim" fill="#404040">
                        <set attributeName="fill" to="#808080" begin="arrowRight.mouseover" end="arrowRight.mouseout"/>
                  </use>
                  <path fill="none" stroke="white" stroke-width="1.5" d="M0,-3.0v7 M-2.5,-0.5L0,-3.0L2.5,-0.5"/>
                </g>
                <g id="arrowDown" xlink:href="#dirArrow" transform="rotate(180) translate(-30 -48)" onmousedown="handlePan(0,1)">
                  <use xlink:href="#rim" fill="#404040">
                        <set attributeName="fill" to="#808080" begin="arrowDown.mouseover" end="arrowDown.mouseout"/>
                  </use>
                  <path fill="none" stroke="white" stroke-width="1.5" d="M0,-3.0v7 M-2.5,-0.5L0,-3.0L2.5,-0.5"/>
                </g>
                <g id="arrowLeft" xlink:href="#dirArrow" transform="rotate(270) translate(-36 17)" onmousedown="handlePan(-1,0)">
                  <use xlink:href="#rim" fill="#404040">
                        <set attributeName="fill" to="#808080" begin="arrowLeft.mouseover" end="arrowLeft.mouseout"/>
                  </use>
                  <path fill="none" stroke="white" stroke-width="1.5" d="M0,-3.0v7 M-2.5,-0.5L0,-3.0L2.5,-0.5"/>
                </g>
        </g>
        <svg viewBox="0 0 15 15" width="100%" height="30px" preserveAspectRatio="xMaxYMin meet">
         <g id="arrow_out" transform="scale(0.3 0.3)">
          <a xlink:href="classDGtal_1_1HyperRectDomain__coll__graph_org.svg" target="_base">
           <rect id="button" ry="5" rx="5" y="6" x="6" height="38" width="38"
                fill="#f2f5e9" fill-opacity="0.5" stroke="#606060" stroke-width="1.0"/>
           <path id="arrow"
             d="M 11.500037,31.436501 C 11.940474,20.09759 22.043105,11.32322 32.158766,21.979434 L 37.068811,17.246167 C 37.068811,17.246167 37.088388,32 37.088388,32 L 22.160133,31.978069 C 22.160133,31.978069 26.997745,27.140456 26.997745,27.140456 C 18.528582,18.264221 13.291696,25.230495 11.500037,31.436501 z"
             style="fill:#404040;"/>
          </a>
         </g>
        </svg>
</svg>
