<?xml version="1.0" encoding="UTF-8" standalone="no"?>
<!DOCTYPE svg PUBLIC "-//W3C//DTD SVG 1.1//EN"
 "http://www.w3.org/Graphics/SVG/1.1/DTD/svg11.dtd">
<!-- Generated by graphviz version 2.38.0 (20140413.2041)
 -->
<!-- Title: DGtal::experimental::ImageContainerByHashTree&lt; TDomain, TValue, THashKey &gt; Pages: 1 -->
<svg width="774pt" height="267pt"
 viewBox="0.00 0.00 774.00 266.50" xmlns="http://www.w3.org/2000/svg" xmlns:xlink="http://www.w3.org/1999/xlink">
<g id="graph0" class="graph" transform="scale(1 1) rotate(0) translate(4 262.5)">
<title>DGtal::experimental::ImageContainerByHashTree&lt; TDomain, TValue, THashKey &gt;</title>
<polygon fill="white" stroke="none" points="-4,4 -4,-262.5 770,-262.5 770,4 -4,4"/>
<!-- Node1 -->
<g id="node1" class="node"><title>Node1</title>
<polygon fill="#bfbfbf" stroke="black" points="594,-97.5 594,-138.5 766,-138.5 766,-97.5 594,-97.5"/>
<text text-anchor="start" x="602" y="-126.5" font-family="FreeSans" font-size="10.00">DGtal::experimental</text>
<text text-anchor="start" x="602" y="-115.5" font-family="FreeSans" font-size="10.00">::ImageContainerByHashTree</text>
<text text-anchor="middle" x="680" y="-104.5" font-family="FreeSans" font-size="10.00">&lt; TDomain, TValue, THashKey &gt;</text>
</g>
<!-- Node2 -->
<g id="node2" class="node"><title>Node2</title>
<g id="a_node2"><a xlink:href="classDGtal_1_1experimental_1_1ImageContainerByHashTree_1_1Node.html" target="_top" xlink:title="DGtal::experimental\l::ImageContainerByHashTree\l\&lt; TDomain, TValue, THashKey\l \&gt;::Node">
<polygon fill="white" stroke="black" points="341,-177 341,-229 502,-229 502,-177 341,-177"/>
<text text-anchor="start" x="349" y="-217" font-family="FreeSans" font-size="10.00">DGtal::experimental</text>
<text text-anchor="start" x="349" y="-206" font-family="FreeSans" font-size="10.00">::ImageContainerByHashTree</text>
<text text-anchor="start" x="349" y="-195" font-family="FreeSans" font-size="10.00">&lt; TDomain, TValue, THashKey</text>
<text text-anchor="middle" x="421.5" y="-184" font-family="FreeSans" font-size="10.00"> &gt;::Node</text>
</a>
</g>
</g>
<!-- Node2&#45;&gt;Node1 -->
<g id="edge1" class="edge"><title>Node2&#45;&gt;Node1</title>
<path fill="none" stroke="#9a32cd" stroke-dasharray="5,2" d="M510.904,-173.704C545.749,-162.157 584.951,-149.166 616.727,-138.636"/>
<polygon fill="#9a32cd" stroke="#9a32cd" points="509.593,-170.452 501.202,-176.92 511.795,-177.096 509.593,-170.452"/>
<text text-anchor="middle" x="548" y="-173" font-family="FreeSans" font-size="10.00"> myData</text>
</g>
<!-- Node2&#45;&gt;Node2 -->
<g id="edge2" class="edge"><title>Node2&#45;&gt;Node2</title>
<path fill="none" stroke="#9a32cd" stroke-dasharray="5,2" d="M400.284,-238.946C403.708,-244.064 410.78,-247.5 421.5,-247.5 438.234,-247.5 446.079,-239.127 445.033,-229.054"/>
<polygon fill="#9a32cd" stroke="#9a32cd" points="403.656,-237.992 397.967,-229.054 396.84,-239.589 403.656,-237.992"/>
<text text-anchor="middle" x="421.5" y="-250.5" font-family="FreeSans" font-size="10.00"> myNext</text>
</g>
<!-- Node3 -->
<g id="node3" class="node"><title>Node3</title>
<g id="a_node3"><a xlink:href="classDGtal_1_1Morton.html" target="_top" xlink:title="DGtal::Morton\&lt; HashKey,\l DGtal::PointVector \&gt;">
<polygon fill="white" stroke="black" points="352,-128 352,-158 491,-158 491,-128 352,-128"/>
<text text-anchor="start" x="360" y="-146" font-family="FreeSans" font-size="10.00">DGtal::Morton&lt; HashKey,</text>
<text text-anchor="middle" x="421.5" y="-135" font-family="FreeSans" font-size="10.00"> DGtal::PointVector &gt;</text>
</a>
</g>
</g>
<!-- Node3&#45;&gt;Node1 -->
<g id="edge3" class="edge"><title>Node3&#45;&gt;Node1</title>
<path fill="none" stroke="#9a32cd" stroke-dasharray="5,2" d="M501.384,-135.312C530.58,-132.466 563.804,-129.228 593.556,-126.328"/>
<polygon fill="#9a32cd" stroke="#9a32cd" points="500.851,-131.847 491.237,-136.3 501.53,-138.814 500.851,-131.847"/>
<text text-anchor="middle" x="548" y="-136" font-family="FreeSans" font-size="10.00"> myMorton</text>
</g>
<!-- Node4 -->
<g id="node4" class="node"><title>Node4</title>
<g id="a_node4"><a xlink:href="classDGtal_1_1Morton.html" target="_top" xlink:title="Aim: Implements the binary Morton code construction in nD. ">
<polygon fill="white" stroke="black" points="0,-128 0,-158 144,-158 144,-128 0,-128"/>
<text text-anchor="start" x="8" y="-146" font-family="FreeSans" font-size="10.00">DGtal::Morton&lt; THashKey,</text>
<text text-anchor="middle" x="72" y="-135" font-family="FreeSans" font-size="10.00"> TPoint &gt;</text>
</a>
</g>
</g>
<!-- Node4&#45;&gt;Node3 -->
<g id="edge4" class="edge"><title>Node4&#45;&gt;Node3</title>
<path fill="none" stroke="orange" stroke-dasharray="5,2" d="M154.354,-143C214.339,-143 295.044,-143 351.803,-143"/>
<polygon fill="orange" stroke="orange" points="154.16,-139.5 144.16,-143 154.16,-146.5 154.16,-139.5"/>
<text text-anchor="middle" x="242.5" y="-146" font-family="FreeSans" font-size="10.00"> &lt; HashKey, DGtal::PointVector &gt;</text>
</g>
<!-- Node5 -->
<g id="node5" class="node"><title>Node5</title>
<polygon fill="white" stroke="#bfbfbf" points="392,-89.5 392,-108.5 451,-108.5 451,-89.5 392,-89.5"/>
<text text-anchor="middle" x="421.5" y="-96.5" font-family="FreeSans" font-size="10.00">TDomain</text>
</g>
<!-- Node5&#45;&gt;Node1 -->
<g id="edge5" class="edge"><title>Node5&#45;&gt;Node1</title>
<path fill="none" stroke="#9a32cd" stroke-dasharray="5,2" d="M461.51,-99.5945C492.568,-100.292 537.126,-101.793 576,-105 581.838,-105.482 587.854,-106.05 593.908,-106.677"/>
<polygon fill="#9a32cd" stroke="#9a32cd" points="461.189,-96.0872 451.118,-99.3798 461.044,-103.086 461.189,-96.0872"/>
<text text-anchor="middle" x="548" y="-108" font-family="FreeSans" font-size="10.00"> myDomain</text>
</g>
<!-- Node6 -->
<g id="node6" class="node"><title>Node6</title>
<g id="a_node6"><a xlink:href="classDGtal_1_1PointVector.html" target="_top" xlink:title="Aim: Implements basic operations that will be used in Point and Vector classes. ">
<polygon fill="white" stroke="black" points="358.5,-0.5 358.5,-41.5 484.5,-41.5 484.5,-0.5 358.5,-0.5"/>
<text text-anchor="start" x="366.5" y="-29.5" font-family="FreeSans" font-size="10.00">DGtal::PointVector</text>
<text text-anchor="start" x="366.5" y="-18.5" font-family="FreeSans" font-size="10.00">&lt; dim, TEuclideanRing,</text>
<text text-anchor="middle" x="421.5" y="-7.5" font-family="FreeSans" font-size="10.00"> TContainer &gt;</text>
</a>
</g>
</g>
<!-- Node6&#45;&gt;Node1 -->
<g id="edge6" class="edge"><title>Node6&#45;&gt;Node1</title>
<path fill="none" stroke="#9a32cd" stroke-dasharray="5,2" d="M486.322,-45.1355C528.883,-61.2307 584.232,-82.1619 624.681,-97.4584"/>
<polygon fill="#9a32cd" stroke="#9a32cd" points="487.489,-41.8347 476.897,-41.5712 485.013,-48.3822 487.489,-41.8347"/>
<text text-anchor="middle" x="548" y="-82" font-family="FreeSans" font-size="10.00"> myOrigin</text>
</g>
<!-- Node6&#45;&gt;Node6 -->
<g id="edge8" class="edge"><title>Node6&#45;&gt;Node6</title>
<path fill="none" stroke="#9a32cd" stroke-dasharray="5,2" d="M399.822,-51.8561C403.046,-56.6966 410.272,-60 421.5,-60 439.465,-60 447.184,-51.5433 444.658,-41.8644"/>
<polygon fill="#9a32cd" stroke="#9a32cd" points="403.27,-51.2435 398.342,-41.8644 396.346,-52.2694 403.27,-51.2435"/>
<text text-anchor="middle" x="421.5" y="-63" font-family="FreeSans" font-size="10.00"> zero</text>
</g>
<!-- Node7 -->
<g id="node7" class="node"><title>Node7</title>
<polygon fill="white" stroke="#bfbfbf" points="38,-11.5 38,-30.5 106,-30.5 106,-11.5 38,-11.5"/>
<text text-anchor="middle" x="72" y="-18.5" font-family="FreeSans" font-size="10.00">TContainer</text>
</g>
<!-- Node7&#45;&gt;Node6 -->
<g id="edge7" class="edge"><title>Node7&#45;&gt;Node6</title>
<path fill="none" stroke="#9a32cd" stroke-dasharray="5,2" d="M116.042,-21C176.911,-21 288.492,-21 358.349,-21"/>
<polygon fill="#9a32cd" stroke="#9a32cd" points="116.005,-17.5001 106.005,-21 116.005,-24.5001 116.005,-17.5001"/>
<text text-anchor="middle" x="242.5" y="-24" font-family="FreeSans" font-size="10.00"> myArray</text>
</g>
</g>
</svg>
