<?xml version="1.0" encoding="UTF-8" standalone="no"?>
<!DOCTYPE svg PUBLIC "-//W3C//DTD SVG 1.1//EN"
 "http://www.w3.org/Graphics/SVG/1.1/DTD/svg11.dtd">
<!-- Generated by graphviz version 2.36.0 (20140111.2315)
 -->
<!-- Title: DGtal::VoxelComplex&lt; TKSpace, TCellContainer &gt; Pages: 1 -->
<svg width="275pt" height="190pt"
 viewBox="0.00 0.00 275.00 190.00" xmlns="http://www.w3.org/2000/svg" xmlns:xlink="http://www.w3.org/1999/xlink">
<g id="graph0" class="graph" transform="scale(1 1) rotate(0) translate(4 186)">
<title>DGtal::VoxelComplex&lt; TKSpace, TCellContainer &gt;</title>
<polygon fill="white" stroke="none" points="-4,4 -4,-186 271,-186 271,4 -4,4"/>
<!-- Node0 -->
<g id="node1" class="node"><title>Node0</title>
<polygon fill="#bfbfbf" stroke="black" points="59.5,-81 59.5,-111 214.5,-111 214.5,-81 59.5,-81"/>
<text text-anchor="start" x="67.5" y="-99" font-family="FreeSans" font-size="10.00">DGtal::VoxelComplex</text>
<text text-anchor="middle" x="137" y="-88" font-family="FreeSans" font-size="10.00">&lt; TKSpace, TCellContainer &gt;</text>
</g>
<!-- Node2 -->
<g id="node3" class="node"><title>Node2</title>
<g id="a_node3"><a xlink:href="classDGtal_1_1VoxelComplex.html" target="_top" xlink:title="DGtal::VoxelComplex\l\&lt; KSpace, FixtureMap \&gt;">
<polygon fill="white" stroke="black" points="-0.5,-1 -0.5,-31 132.5,-31 132.5,-1 -0.5,-1"/>
<text text-anchor="start" x="7.5" y="-19" font-family="FreeSans" font-size="10.00">DGtal::VoxelComplex</text>
<text text-anchor="middle" x="66" y="-8" font-family="FreeSans" font-size="10.00">&lt; KSpace, FixtureMap &gt;</text>
</a>
</g>
</g>
<!-- Node0&#45;&gt;Node2 -->
<g id="edge2" class="edge"><title>Node0&#45;&gt;Node2</title>
<path fill="none" stroke="orange" stroke-dasharray="5,2" d="M80.1736,-75.576C75.0258,-71.8055 70.459,-67.3231 67,-62 61.1241,-52.9575 61.2926,-40.5875 62.6963,-31.1051"/>
<polygon fill="orange" stroke="orange" points="78.3406,-78.5579 88.6656,-80.9339 82.0758,-72.6377 78.3406,-78.5579"/>
<text text-anchor="middle" x="127" y="-53.5" font-family="FreeSans" font-size="10.00"> &lt; KSpace, FixtureMap &gt;</text>
</g>
<!-- Node3 -->
<g id="node4" class="node"><title>Node3</title>
<g id="a_node4"><a xlink:href="classDGtal_1_1VoxelComplex.html" target="_top" xlink:title="DGtal::VoxelComplex\l\&lt; KSpace \&gt;">
<polygon fill="white" stroke="black" points="150.5,-1 150.5,-31 267.5,-31 267.5,-1 150.5,-1"/>
<text text-anchor="start" x="158.5" y="-19" font-family="FreeSans" font-size="10.00">DGtal::VoxelComplex</text>
<text text-anchor="middle" x="209" y="-8" font-family="FreeSans" font-size="10.00">&lt; KSpace &gt;</text>
</a>
</g>
</g>
<!-- Node0&#45;&gt;Node3 -->
<g id="edge3" class="edge"><title>Node0&#45;&gt;Node3</title>
<path fill="none" stroke="orange" stroke-dasharray="5,2" d="M172.368,-75.1541C177.667,-71.2317 182.764,-66.819 187,-62 194.923,-52.9863 200.697,-40.614 204.336,-31.1234"/>
<polygon fill="orange" stroke="orange" points="170.247,-72.365 163.973,-80.9023 174.201,-78.141 170.247,-72.365"/>
<text text-anchor="middle" x="225" y="-53.5" font-family="FreeSans" font-size="10.00"> &lt; KSpace &gt;</text>
</g>
<!-- Node1 -->
<g id="node2" class="node"><title>Node1</title>
<g id="a_node2"><a xlink:href="classDGtal_1_1CubicalComplex.html" target="_top" xlink:title="Aim: This class represents an arbitrary cubical complex living in some Khalimsky space. Cubical complexes are sets of cells of different dimensions related together with incidence relations. Two cells in a cubical complex are incident if and only if they are incident in the surrounding Khalimsky space. In other words, cubical complexes are defined here as subsets of Khalimsky spaces. ">
<polygon fill="white" stroke="black" points="59.5,-151 59.5,-181 214.5,-181 214.5,-151 59.5,-151"/>
<text text-anchor="start" x="67.5" y="-169" font-family="FreeSans" font-size="10.00">DGtal::CubicalComplex</text>
<text text-anchor="middle" x="137" y="-158" font-family="FreeSans" font-size="10.00">&lt; TKSpace, TCellContainer &gt;</text>
</a>
</g>
</g>
<!-- Node1&#45;&gt;Node0 -->
<g id="edge1" class="edge"><title>Node1&#45;&gt;Node0</title>
<path fill="none" stroke="midnightblue" d="M137,-140.769C137,-130.814 137,-119.638 137,-111.072"/>
<polygon fill="midnightblue" stroke="midnightblue" points="133.5,-140.91 137,-150.91 140.5,-140.91 133.5,-140.91"/>
</g>
</g>
</svg>
