<?xml version="1.0" encoding="UTF-8" standalone="no"?>
<!DOCTYPE svg PUBLIC "-//W3C//DTD SVG 1.1//EN"
 "http://www.w3.org/Graphics/SVG/1.1/DTD/svg11.dtd">
<!-- Generated by graphviz version 2.38.0 (20140413.2041)
 -->
<!-- Title: boost::graph_traits&lt; DGtal::DigitalSurface&lt; TDigitalSurfaceContainer &gt; &gt;::out_edge_iterator Pages: 1 -->
<!--zoomable 182 -->
<svg id="main" version="1.1" xmlns="http://www.w3.org/2000/svg" xmlns:xlink="http://www.w3.org/1999/xlink" xml:space="preserve" onload="init(evt)">
<style type="text/css"><![CDATA[
.edge:hover path { stroke: red; }
.edge:hover polygon { stroke: red; fill: red; }
]]></style>
<script type="text/javascript"><![CDATA[
var edges = document.getElementsByTagName('g');
if (edges && edges.length) {
  for (var i=0;i<edges.length;i++) {
    if (edges[i].id.substr(0,4)=='edge') {
      edges[i].setAttribute('class','edge');
    }
  }
}
]]></script>
        <defs>
                <circle id="rim" cx="0" cy="0" r="7"/>
                <circle id="rim2" cx="0" cy="0" r="3.5"/>
                <g id="zoomPlus">
                        <use xlink:href="#rim" fill="#404040">
                                <set attributeName="fill" to="#808080" begin="zoomplus.mouseover" end="zoomplus.mouseout"/>
                        </use>
                        <path d="M-4,0h8M0,-4v8" fill="none" stroke="white" stroke-width="1.5" pointer-events="none"/>
                </g>
                <g id="zoomMin">
                        <use xlink:href="#rim" fill="#404040">
                                <set attributeName="fill" to="#808080" begin="zoomminus.mouseover" end="zoomminus.mouseout"/>
                        </use>
                        <path d="M-4,0h8" fill="none" stroke="white" stroke-width="1.5" pointer-events="none"/>
                </g>
                <g id="dirArrow">
                        <path fill="none" stroke="white" stroke-width="1.5" d="M0,-3.0v7 M-2.5,-0.5L0,-3.0L2.5,-0.5"/>
                </g>
               <g id="resetDef">
                       <use xlink:href="#rim2" fill="#404040">
                               <set attributeName="fill" to="#808080" begin="reset.mouseover" end="reset.mouseout"/>
                       </use>
               </g>
        </defs>

<script type="text/javascript">
var viewWidth = 879;
var viewHeight = 182;
var sectionId = 'dynsection-1';
</script>
<script xlink:href="svgpan.js"/>
<svg id="graph" class="graph">
<g id="viewport">
<title>boost::graph_traits&lt; DGtal::DigitalSurface&lt; TDigitalSurfaceContainer &gt; &gt;::out_edge_iterator</title>
<polygon fill="white" stroke="none" points="-4,4 -4,-177.5 875,-177.5 875,4 -4,4"/>
<!-- Node2 -->
<g id="node1" class="node"><title>Node2</title>
<polygon fill="#bfbfbf" stroke="black" points="725,-61 725,-113 871,-113 871,-61 725,-61"/>
<text text-anchor="start" x="733" y="-101" font-family="FreeSans" font-size="10.00">boost::graph_traits</text>
<text text-anchor="start" x="733" y="-90" font-family="FreeSans" font-size="10.00">&lt; DGtal::DigitalSurface</text>
<text text-anchor="start" x="733" y="-79" font-family="FreeSans" font-size="10.00">&lt; TDigitalSurfaceContainer</text>
<text text-anchor="middle" x="798" y="-68" font-family="FreeSans" font-size="10.00"> &gt; &gt;::out_edge_iterator</text>
</g>
<!-- Node3 -->
<g id="node2" class="node"><title>Node3</title>
<polygon fill="white" stroke="#bfbfbf" points="486,-121 486,-173 624,-173 624,-121 486,-121"/>
<text text-anchor="start" x="494" y="-161" font-family="FreeSans" font-size="10.00">boost::iterator_facade</text>
<text text-anchor="start" x="494" y="-150" font-family="FreeSans" font-size="10.00">&lt; out_edge_iterator, Arc,</text>
<text text-anchor="start" x="494" y="-139" font-family="FreeSans" font-size="10.00"> bidirectional_traversal</text>
<text text-anchor="middle" x="555" y="-128" font-family="FreeSans" font-size="10.00">_tag, const Arc &amp; &gt;</text>
</g>
<!-- Node3&#45;&gt;Node2 -->
<g id="edge1" class="edge"><title>Node3&#45;&gt;Node2</title>
<path fill="none" stroke="midnightblue" d="M633.85,-127.618C663.088,-120.339 696.171,-112.103 724.867,-104.958"/>
<polygon fill="midnightblue" stroke="midnightblue" points="632.953,-124.235 624.095,-130.047 634.644,-131.027 632.953,-124.235"/>
</g>
<!-- Node4 -->
<g id="node3" class="node"><title>Node4</title>
<g id="a_node3"><a xlink:title="STL iterator class. ">
<polygon fill="white" stroke="#bfbfbf" points="491,-72 491,-102 619,-102 619,-72 491,-72"/>
<text text-anchor="start" x="499" y="-90" font-family="FreeSans" font-size="10.00">std::vector&lt; T &gt;::const</text>
<text text-anchor="middle" x="555" y="-79" font-family="FreeSans" font-size="10.00">_iterator</text>
</a>
</g>
</g>
<!-- Node4&#45;&gt;Node2 -->
<g id="edge2" class="edge"><title>Node4&#45;&gt;Node2</title>
<path fill="none" stroke="#9a32cd" stroke-dasharray="5,2" d="M629.118,-87C659.518,-87 694.705,-87 724.989,-87"/>
<polygon fill="#9a32cd" stroke="#9a32cd" points="629.005,-83.5001 619.005,-87 629.005,-90.5001 629.005,-83.5001"/>
<text text-anchor="middle" x="674.5" y="-90" font-family="FreeSans" font-size="10.00"> myIterator</text>
</g>
<!-- Node5 -->
<g id="node4" class="node"><title>Node5</title>
<g id="a_node4"><a xlink:href="classDGtal_1_1CountedPtr.html" target="_top" xlink:title="DGtal::CountedPtr\&lt;\l OutEdgeContainer \&gt;">
<polygon fill="white" stroke="black" points="495.5,-23 495.5,-53 614.5,-53 614.5,-23 495.5,-23"/>
<text text-anchor="start" x="503.5" y="-41" font-family="FreeSans" font-size="10.00">DGtal::CountedPtr&lt;</text>
<text text-anchor="middle" x="555" y="-30" font-family="FreeSans" font-size="10.00"> OutEdgeContainer &gt;</text>
</a>
</g>
</g>
<!-- Node5&#45;&gt;Node2 -->
<g id="edge3" class="edge"><title>Node5&#45;&gt;Node2</title>
<path fill="none" stroke="#9a32cd" stroke-dasharray="5,2" d="M624.593,-51.9463C655.896,-58.3108 692.977,-65.85 724.714,-72.3028"/>
<polygon fill="#9a32cd" stroke="#9a32cd" points="625.144,-48.4868 614.647,-49.9241 623.749,-55.3464 625.144,-48.4868"/>
<text text-anchor="middle" x="674.5" y="-71" font-family="FreeSans" font-size="10.00"> myOutEdges</text>
</g>
<!-- Node6 -->
<g id="node5" class="node"><title>Node6</title>
<g id="a_node5"><a xlink:href="structDGtal_1_1CountedPtr_1_1Counter.html" target="_top" xlink:title="DGtal::CountedPtr\&lt;\l T \&gt;::Counter">
<polygon fill="white" stroke="black" points="0,-23 0,-53 112,-53 112,-23 0,-23"/>
<text text-anchor="start" x="8" y="-41" font-family="FreeSans" font-size="10.00">DGtal::CountedPtr&lt;</text>
<text text-anchor="middle" x="56" y="-30" font-family="FreeSans" font-size="10.00"> T &gt;::Counter</text>
</a>
</g>
</g>
<!-- Node6&#45;&gt;Node5 -->
<g id="edge4" class="edge"><title>Node6&#45;&gt;Node5</title>
<path fill="none" stroke="#9a32cd" stroke-dasharray="5,2" d="M122.386,-41.7579C124.957,-41.8501 127.502,-41.9316 130,-42 280.166,-46.1111 317.818,-45.4907 468,-42 476.816,-41.7951 486.137,-41.4722 495.261,-41.0965"/>
<polygon fill="#9a32cd" stroke="#9a32cd" points="122.523,-38.2606 112.39,-41.3541 122.241,-45.2549 122.523,-38.2606"/>
<text text-anchor="middle" x="270.5" y="-47" font-family="FreeSans" font-size="10.00"> myCounter</text>
</g>
<!-- Node7 -->
<g id="node6" class="node"><title>Node7</title>
<g id="a_node6"><a xlink:href="classDGtal_1_1CountedPtr.html" target="_top" xlink:title="Aim: Smart pointer based on reference counts. ">
<polygon fill="white" stroke="black" points="205,-0.5 205,-19.5 336,-19.5 336,-0.5 205,-0.5"/>
<text text-anchor="middle" x="270.5" y="-7.5" font-family="FreeSans" font-size="10.00">DGtal::CountedPtr&lt; T &gt;</text>
</a>
</g>
</g>
<!-- Node6&#45;&gt;Node7 -->
<g id="edge6" class="edge"><title>Node6&#45;&gt;Node7</title>
<path fill="none" stroke="#9a32cd" stroke-dasharray="5,2" d="M122.233,-29.4045C148.501,-25.9434 178.72,-21.9616 204.921,-18.5092"/>
<polygon fill="#9a32cd" stroke="#9a32cd" points="121.457,-25.9764 112,-30.7529 122.372,-32.9165 121.457,-25.9764"/>
<text text-anchor="middle" x="158.5" y="-31" font-family="FreeSans" font-size="10.00"> myCounter</text>
</g>
<!-- Node7&#45;&gt;Node5 -->
<g id="edge5" class="edge"><title>Node7&#45;&gt;Node5</title>
<path fill="none" stroke="orange" stroke-dasharray="5,2" d="M346.357,-17.4194C392.959,-22.0384 452.043,-27.8945 495.259,-32.1779"/>
<polygon fill="orange" stroke="orange" points="346.608,-13.9272 336.311,-16.4238 345.917,-20.8931 346.608,-13.9272"/>
<text text-anchor="middle" x="411" y="-31" font-family="FreeSans" font-size="10.00"> &lt; OutEdgeContainer &gt;</text>
</g>
</g>
</svg>
        <g id="navigator" transform="translate(0 0)" fill="#404254">
                <rect fill="#f2f5e9" fill-opacity="0.5" stroke="#606060" stroke-width=".5" x="0" y="0" width="60" height="60"/>
                <use id="zoomplus" xlink:href="#zoomPlus" x="17" y="9" onmousedown="handleZoom(evt,'in')"/>
                <use id="zoomminus" xlink:href="#zoomMin" x="42" y="9" onmousedown="handleZoom(evt,'out')"/>
                <use id="reset" xlink:href="#resetDef" x="30" y="36" onmousedown="handleReset()"/>
                <g id="arrowUp" xlink:href="#dirArrow" transform="translate(30 24)" onmousedown="handlePan(0,-1)">
                  <use xlink:href="#rim" fill="#404040">
                        <set attributeName="fill" to="#808080" begin="arrowUp.mouseover" end="arrowUp.mouseout"/>
                  </use>
                  <path fill="none" stroke="white" stroke-width="1.5" d="M0,-3.0v7 M-2.5,-0.5L0,-3.0L2.5,-0.5"/>
                </g>
                <g id="arrowRight" xlink:href="#dirArrow" transform="rotate(90) translate(36 -43)" onmousedown="handlePan(1,0)">
                  <use xlink:href="#rim" fill="#404040">
                        <set attributeName="fill" to="#808080" begin="arrowRight.mouseover" end="arrowRight.mouseout"/>
                  </use>
                  <path fill="none" stroke="white" stroke-width="1.5" d="M0,-3.0v7 M-2.5,-0.5L0,-3.0L2.5,-0.5"/>
                </g>
                <g id="arrowDown" xlink:href="#dirArrow" transform="rotate(180) translate(-30 -48)" onmousedown="handlePan(0,1)">
                  <use xlink:href="#rim" fill="#404040">
                        <set attributeName="fill" to="#808080" begin="arrowDown.mouseover" end="arrowDown.mouseout"/>
                  </use>
                  <path fill="none" stroke="white" stroke-width="1.5" d="M0,-3.0v7 M-2.5,-0.5L0,-3.0L2.5,-0.5"/>
                </g>
                <g id="arrowLeft" xlink:href="#dirArrow" transform="rotate(270) translate(-36 17)" onmousedown="handlePan(-1,0)">
                  <use xlink:href="#rim" fill="#404040">
                        <set attributeName="fill" to="#808080" begin="arrowLeft.mouseover" end="arrowLeft.mouseout"/>
                  </use>
                  <path fill="none" stroke="white" stroke-width="1.5" d="M0,-3.0v7 M-2.5,-0.5L0,-3.0L2.5,-0.5"/>
                </g>
        </g>
        <svg viewBox="0 0 15 15" width="100%" height="30px" preserveAspectRatio="xMaxYMin meet">
         <g id="arrow_out" transform="scale(0.3 0.3)">
          <a xlink:href="classboost_1_1graph__traits_3_01DGtal_1_1DigitalSurface_3_01TDigitalSurfaceContainer_01_4_01_4_18111735ddf21edc6b0684e30738e8460_org.svg" target="_base">
           <rect id="button" ry="5" rx="5" y="6" x="6" height="38" width="38"
                fill="#f2f5e9" fill-opacity="0.5" stroke="#606060" stroke-width="1.0"/>
           <path id="arrow"
             d="M 11.500037,31.436501 C 11.940474,20.09759 22.043105,11.32322 32.158766,21.979434 L 37.068811,17.246167 C 37.068811,17.246167 37.088388,32 37.088388,32 L 22.160133,31.978069 C 22.160133,31.978069 26.997745,27.140456 26.997745,27.140456 C 18.528582,18.264221 13.291696,25.230495 11.500037,31.436501 z"
             style="fill:#404040;"/>
          </a>
         </g>
        </svg>
</svg>
