<?xml version="1.0" encoding="UTF-8" standalone="no"?>
<!DOCTYPE svg PUBLIC "-//W3C//DTD SVG 1.1//EN"
 "http://www.w3.org/Graphics/SVG/1.1/DTD/svg11.dtd">
<!-- Generated by graphviz version 2.38.0 (20140413.2041)
 -->
<!-- Title: DGtal::IteratorCompletion&lt; TDerived &gt; Pages: 1 -->
<svg width="739pt" height="102pt"
 viewBox="0.00 0.00 739.00 101.50" xmlns="http://www.w3.org/2000/svg" xmlns:xlink="http://www.w3.org/1999/xlink">
<g id="graph0" class="graph" transform="scale(1 1) rotate(0) translate(4 97.5)">
<title>DGtal::IteratorCompletion&lt; TDerived &gt;</title>
<polygon fill="white" stroke="none" points="-4,4 -4,-97.5 735,-97.5 735,4 -4,4"/>
<!-- Node0 -->
<g id="node1" class="node"><title>Node0</title>
<polygon fill="#bfbfbf" stroke="black" points="0,-29.5 0,-59.5 140,-59.5 140,-29.5 0,-29.5"/>
<text text-anchor="start" x="8" y="-47.5" font-family="FreeSans" font-size="10.00">DGtal::IteratorCompletion</text>
<text text-anchor="middle" x="70" y="-36.5" font-family="FreeSans" font-size="10.00">&lt; TDerived &gt;</text>
</g>
<!-- Node1 -->
<g id="node2" class="node"><title>Node1</title>
<g id="a_node2"><a xlink:href="classDGtal_1_1IteratorCompletion.html" target="_top" xlink:title="DGtal::IteratorCompletion\l\&lt; ArrayImageAdapter\&lt; TArrayIterator,\l HyperRectDomain\&lt; TSpace \&gt; \&gt; \&gt;">
<polygon fill="white" stroke="black" points="308,-49 308,-90 509,-90 509,-49 308,-49"/>
<text text-anchor="start" x="316" y="-78" font-family="FreeSans" font-size="10.00">DGtal::IteratorCompletion</text>
<text text-anchor="start" x="316" y="-67" font-family="FreeSans" font-size="10.00">&lt; ArrayImageAdapter&lt; TArrayIterator,</text>
<text text-anchor="middle" x="408.5" y="-56" font-family="FreeSans" font-size="10.00"> HyperRectDomain&lt; TSpace &gt; &gt; &gt;</text>
</a>
</g>
</g>
<!-- Node0&#45;&gt;Node1 -->
<g id="edge1" class="edge"><title>Node0&#45;&gt;Node1</title>
<path fill="none" stroke="orange" stroke-dasharray="5,2" d="M150.466,-50.4039C197.579,-53.9041 257.709,-58.3714 307.963,-62.105"/>
<polygon fill="orange" stroke="orange" points="150.547,-46.9003 140.315,-49.6497 150.028,-53.8811 150.547,-46.9003"/>
<text text-anchor="start" x="158" y="-85.5" font-family="FreeSans" font-size="10.00"> &lt; ArrayImageAdapter</text>
<text text-anchor="start" x="158" y="-74.5" font-family="FreeSans" font-size="10.00">&lt; TArrayIterator, HyperRect</text>
<text text-anchor="middle" x="224" y="-63.5" font-family="FreeSans" font-size="10.00">Domain&lt; TSpace &gt; &gt; &gt;</text>
</g>
<!-- Node3 -->
<g id="node4" class="node"><title>Node3</title>
<g id="a_node4"><a xlink:href="classDGtal_1_1IteratorCompletion.html" target="_top" xlink:title="DGtal::IteratorCompletion\l\&lt; MyImage\&lt; T, N \&gt; \&gt;">
<polygon fill="white" stroke="black" points="338.5,-0.5 338.5,-30.5 478.5,-30.5 478.5,-0.5 338.5,-0.5"/>
<text text-anchor="start" x="346.5" y="-18.5" font-family="FreeSans" font-size="10.00">DGtal::IteratorCompletion</text>
<text text-anchor="middle" x="408.5" y="-7.5" font-family="FreeSans" font-size="10.00">&lt; MyImage&lt; T, N &gt; &gt;</text>
</a>
</g>
</g>
<!-- Node0&#45;&gt;Node3 -->
<g id="edge3" class="edge"><title>Node0&#45;&gt;Node3</title>
<path fill="none" stroke="orange" stroke-dasharray="5,2" d="M150.353,-36.2142C152.932,-35.9695 155.486,-35.7308 158,-35.5 218.907,-29.9093 288.26,-24.4204 338.361,-20.6115"/>
<polygon fill="orange" stroke="orange" points="149.935,-32.7382 140.318,-37.1835 150.608,-39.7058 149.935,-32.7382"/>
<text text-anchor="middle" x="224" y="-38.5" font-family="FreeSans" font-size="10.00"> &lt; MyImage&lt; T, N &gt; &gt;</text>
</g>
<!-- Node2 -->
<g id="node3" class="node"><title>Node2</title>
<g id="a_node3"><a xlink:href="classDGtal_1_1ArrayImageAdapter_3_01TArrayIterator_00_01HyperRectDomain_3_01TSpace_01_4_01_4.html" target="_top" xlink:title="Aim: Image adapter for generic arrays with sub&#45;domain view capability. ">
<polygon fill="white" stroke="black" points="546,-49 546,-90 731,-90 731,-49 546,-49"/>
<text text-anchor="start" x="554" y="-78" font-family="FreeSans" font-size="10.00">DGtal::ArrayImageAdapter</text>
<text text-anchor="start" x="554" y="-67" font-family="FreeSans" font-size="10.00">&lt; TArrayIterator, HyperRectDomain</text>
<text text-anchor="middle" x="638.5" y="-56" font-family="FreeSans" font-size="10.00">&lt; TSpace &gt; &gt;</text>
</a>
</g>
</g>
<!-- Node1&#45;&gt;Node2 -->
<g id="edge2" class="edge"><title>Node1&#45;&gt;Node2</title>
<path fill="none" stroke="midnightblue" d="M519.237,-69.5C528.175,-69.5 537.148,-69.5 545.935,-69.5"/>
<polygon fill="midnightblue" stroke="midnightblue" points="519.172,-66.0001 509.172,-69.5 519.172,-73.0001 519.172,-66.0001"/>
</g>
<!-- Node4 -->
<g id="node5" class="node"><title>Node4</title>
<g id="a_node5"><a xlink:title="[includes] ">
<polygon fill="white" stroke="#bfbfbf" points="588,-6 588,-25 689,-25 689,-6 588,-6"/>
<text text-anchor="middle" x="638.5" y="-13" font-family="FreeSans" font-size="10.00">MyImage&lt; T, N &gt;</text>
</a>
</g>
</g>
<!-- Node3&#45;&gt;Node4 -->
<g id="edge4" class="edge"><title>Node3&#45;&gt;Node4</title>
<path fill="none" stroke="midnightblue" d="M488.609,-15.5C521.587,-15.5 558.876,-15.5 587.888,-15.5"/>
<polygon fill="midnightblue" stroke="midnightblue" points="488.526,-12.0001 478.526,-15.5 488.526,-19.0001 488.526,-12.0001"/>
</g>
</g>
</svg>
