<?xml version="1.0" encoding="UTF-8" standalone="no"?>
<!DOCTYPE svg PUBLIC "-//W3C//DTD SVG 1.1//EN"
 "http://www.w3.org/Graphics/SVG/1.1/DTD/svg11.dtd">
<!-- Generated by graphviz version 2.38.0 (20140413.2041)
 -->
<!-- Title: DGtal::HyperRectDomain_ReverseIterator&lt; TIterator &gt; Pages: 1 -->
<svg width="479pt" height="122pt"
 viewBox="0.00 0.00 479.00 121.50" xmlns="http://www.w3.org/2000/svg" xmlns:xlink="http://www.w3.org/1999/xlink">
<g id="graph0" class="graph" transform="scale(1 1) rotate(0) translate(4 117.5)">
<title>DGtal::HyperRectDomain_ReverseIterator&lt; TIterator &gt;</title>
<polygon fill="white" stroke="none" points="-4,4 -4,-117.5 475,-117.5 475,4 -4,4"/>
<!-- Node2 -->
<g id="node1" class="node"><title>Node2</title>
<polygon fill="#bfbfbf" stroke="black" points="313,-28 313,-58 471,-58 471,-28 313,-28"/>
<text text-anchor="start" x="321" y="-46" font-family="FreeSans" font-size="10.00">DGtal::HyperRectDomain</text>
<text text-anchor="middle" x="392" y="-35" font-family="FreeSans" font-size="10.00">_ReverseIterator&lt; TIterator &gt;</text>
</g>
<!-- Node3 -->
<g id="node2" class="node"><title>Node3</title>
<polygon fill="white" stroke="#bfbfbf" points="0,-39 0,-113 242,-113 242,-39 0,-39"/>
<text text-anchor="start" x="8" y="-101" font-family="FreeSans" font-size="10.00">boost::iterator_facade</text>
<text text-anchor="start" x="8" y="-90" font-family="FreeSans" font-size="10.00">&lt; HyperRectDomain_ReverseIterator</text>
<text text-anchor="start" x="8" y="-79" font-family="FreeSans" font-size="10.00">&lt; TIterator &gt;, TIterator::Point</text>
<text text-anchor="start" x="8" y="-68" font-family="FreeSans" font-size="10.00"> const, std::random_access_iterator</text>
<text text-anchor="start" x="8" y="-57" font-family="FreeSans" font-size="10.00">_tag, TIterator::Point const &amp;, std</text>
<text text-anchor="middle" x="121" y="-46" font-family="FreeSans" font-size="10.00">::iterator_traits&lt; TIterator &gt;::difference_type &gt;</text>
</g>
<!-- Node3&#45;&gt;Node2 -->
<g id="edge1" class="edge"><title>Node3&#45;&gt;Node2</title>
<path fill="none" stroke="midnightblue" d="M252.457,-59.996C273.108,-57.4626 293.886,-54.9137 312.841,-52.5883"/>
<polygon fill="midnightblue" stroke="midnightblue" points="251.837,-56.5457 242.338,-61.2374 252.69,-63.4936 251.837,-56.5457"/>
</g>
<!-- Node4 -->
<g id="node3" class="node"><title>Node4</title>
<polygon fill="white" stroke="#bfbfbf" points="92.5,-0.5 92.5,-19.5 149.5,-19.5 149.5,-0.5 92.5,-0.5"/>
<text text-anchor="middle" x="121" y="-7.5" font-family="FreeSans" font-size="10.00">TIterator</text>
</g>
<!-- Node4&#45;&gt;Node2 -->
<g id="edge2" class="edge"><title>Node4&#45;&gt;Node2</title>
<path fill="none" stroke="#9a32cd" stroke-dasharray="5,2" d="M159.865,-13.7687C194.944,-17.3527 248.553,-23.0646 295,-29 300.847,-29.7472 306.89,-30.5519 312.966,-31.3842"/>
<polygon fill="#9a32cd" stroke="#9a32cd" points="159.904,-10.2548 149.601,-12.7269 159.197,-17.219 159.904,-10.2548"/>
<text text-anchor="middle" x="277.5" y="-43" font-family="FreeSans" font-size="10.00"> prev</text>
<text text-anchor="middle" x="277.5" y="-32" font-family="FreeSans" font-size="10.00">current</text>
</g>
</g>
</svg>
