<?xml version="1.0" encoding="UTF-8" standalone="no"?>
<!DOCTYPE svg PUBLIC "-//W3C//DTD SVG 1.1//EN"
 "http://www.w3.org/Graphics/SVG/1.1/DTD/svg11.dtd">
<!-- Generated by graphviz version 2.38.0 (20140413.2041)
 -->
<!-- Title: DGtal::Board2D Pages: 1 -->
<svg width="120pt" height="196pt"
 viewBox="0.00 0.00 120.00 196.00" xmlns="http://www.w3.org/2000/svg" xmlns:xlink="http://www.w3.org/1999/xlink">
<g id="graph0" class="graph" transform="scale(1 1) rotate(0) translate(4 192)">
<title>DGtal::Board2D</title>
<polygon fill="white" stroke="none" points="-4,4 -4,-192 116,-192 116,4 -4,4"/>
<!-- Node0 -->
<g id="node1" class="node"><title>Node0</title>
<polygon fill="#bfbfbf" stroke="black" points="10,-0.5 10,-19.5 102,-19.5 102,-0.5 10,-0.5"/>
<text text-anchor="middle" x="56" y="-7.5" font-family="FreeSans" font-size="10.00">DGtal::Board2D</text>
</g>
<!-- Node1 -->
<g id="node2" class="node"><title>Node1</title>
<g id="a_node2"><a xlink:href="classLibBoard_1_1Board.html" target="_top" xlink:title="Class for EPS, FIG or SVG drawings. ">
<polygon fill="white" stroke="black" points="9.5,-56.5 9.5,-75.5 102.5,-75.5 102.5,-56.5 9.5,-56.5"/>
<text text-anchor="middle" x="56" y="-63.5" font-family="FreeSans" font-size="10.00">LibBoard::Board</text>
</a>
</g>
</g>
<!-- Node1&#45;&gt;Node0 -->
<g id="edge1" class="edge"><title>Node1&#45;&gt;Node0</title>
<path fill="none" stroke="midnightblue" d="M56,-45.8045C56,-36.9102 56,-26.7798 56,-19.7511"/>
<polygon fill="midnightblue" stroke="midnightblue" points="52.5001,-46.083 56,-56.083 59.5001,-46.083 52.5001,-46.083"/>
</g>
<!-- Node2 -->
<g id="node3" class="node"><title>Node2</title>
<g id="a_node3"><a xlink:href="structLibBoard_1_1ShapeList.html" target="_top" xlink:title="A group of shapes. ">
<polygon fill="white" stroke="black" points="-7.10543e-15,-112.5 -7.10543e-15,-131.5 112,-131.5 112,-112.5 -7.10543e-15,-112.5"/>
<text text-anchor="middle" x="56" y="-119.5" font-family="FreeSans" font-size="10.00">LibBoard::ShapeList</text>
</a>
</g>
</g>
<!-- Node2&#45;&gt;Node1 -->
<g id="edge2" class="edge"><title>Node2&#45;&gt;Node1</title>
<path fill="none" stroke="midnightblue" d="M56,-101.805C56,-92.9102 56,-82.7798 56,-75.7511"/>
<polygon fill="midnightblue" stroke="midnightblue" points="52.5001,-102.083 56,-112.083 59.5001,-102.083 52.5001,-102.083"/>
</g>
<!-- Node3 -->
<g id="node4" class="node"><title>Node3</title>
<g id="a_node4"><a xlink:href="structLibBoard_1_1Shape.html" target="_top" xlink:title="Abstract structure for a 2D shape. ">
<polygon fill="white" stroke="black" points="8.5,-168.5 8.5,-187.5 103.5,-187.5 103.5,-168.5 8.5,-168.5"/>
<text text-anchor="middle" x="56" y="-175.5" font-family="FreeSans" font-size="10.00">LibBoard::Shape</text>
</a>
</g>
</g>
<!-- Node3&#45;&gt;Node2 -->
<g id="edge3" class="edge"><title>Node3&#45;&gt;Node2</title>
<path fill="none" stroke="midnightblue" d="M56,-157.805C56,-148.91 56,-138.78 56,-131.751"/>
<polygon fill="midnightblue" stroke="midnightblue" points="52.5001,-158.083 56,-168.083 59.5001,-158.083 52.5001,-158.083"/>
</g>
</g>
</svg>
