<?xml version="1.0" encoding="UTF-8" standalone="no"?>
<!DOCTYPE svg PUBLIC "-//W3C//DTD SVG 1.1//EN"
 "http://www.w3.org/Graphics/SVG/1.1/DTD/svg11.dtd">
<!-- Generated by graphviz version 2.38.0 (20140413.2041)
 -->
<!-- Title: DGtal::KhalimskySpaceND&lt; dim, TInteger &gt; Pages: 1 -->
<svg width="1016pt" height="88pt"
 viewBox="0.00 0.00 1016.00 88.00" xmlns="http://www.w3.org/2000/svg" xmlns:xlink="http://www.w3.org/1999/xlink">
<g id="graph0" class="graph" transform="scale(1 1) rotate(0) translate(4 84)">
<title>DGtal::KhalimskySpaceND&lt; dim, TInteger &gt;</title>
<polygon fill="white" stroke="none" points="-4,4 -4,-84 1012,-84 1012,4 -4,4"/>
<!-- Node0 -->
<g id="node1" class="node"><title>Node0</title>
<polygon fill="#bfbfbf" stroke="black" points="529,-24.5 529,-54.5 672,-54.5 672,-24.5 529,-24.5"/>
<text text-anchor="start" x="537" y="-42.5" font-family="FreeSans" font-size="10.00">DGtal::KhalimskySpaceND</text>
<text text-anchor="middle" x="600.5" y="-31.5" font-family="FreeSans" font-size="10.00">&lt; dim, TInteger &gt;</text>
</g>
<!-- Node3 -->
<g id="node4" class="node"><title>Node3</title>
<g id="a_node4"><a xlink:href="classDGtal_1_1KhalimskySpaceND.html" target="_top" xlink:title="DGtal::KhalimskySpaceND\l\&lt; dimAmbient, TInteger \&gt;">
<polygon fill="white" stroke="black" points="851.5,-49.5 851.5,-79.5 994.5,-79.5 994.5,-49.5 851.5,-49.5"/>
<text text-anchor="start" x="859.5" y="-67.5" font-family="FreeSans" font-size="10.00">DGtal::KhalimskySpaceND</text>
<text text-anchor="middle" x="923" y="-56.5" font-family="FreeSans" font-size="10.00">&lt; dimAmbient, TInteger &gt;</text>
</a>
</g>
</g>
<!-- Node0&#45;&gt;Node3 -->
<g id="edge3" class="edge"><title>Node0&#45;&gt;Node3</title>
<path fill="none" stroke="orange" stroke-dasharray="5,2" d="M682.439,-45.8135C734.52,-49.876 801.545,-55.1041 851.449,-58.9968"/>
<polygon fill="orange" stroke="orange" points="682.474,-42.3057 672.232,-45.0173 681.929,-49.2845 682.474,-42.3057"/>
<text text-anchor="middle" x="755" y="-58.5" font-family="FreeSans" font-size="10.00"> &lt; dimAmbient, TInteger &gt;</text>
</g>
<!-- Node4 -->
<g id="node5" class="node"><title>Node4</title>
<g id="a_node5"><a xlink:href="classDGtal_1_1KhalimskySpaceND.html" target="_top" xlink:title="DGtal::KhalimskySpaceND\l\&lt; dimAmbient, DGtal::int32_t \&gt;">
<polygon fill="white" stroke="black" points="838,-0.5 838,-30.5 1008,-30.5 1008,-0.5 838,-0.5"/>
<text text-anchor="start" x="846" y="-18.5" font-family="FreeSans" font-size="10.00">DGtal::KhalimskySpaceND</text>
<text text-anchor="middle" x="923" y="-7.5" font-family="FreeSans" font-size="10.00">&lt; dimAmbient, DGtal::int32_t &gt;</text>
</a>
</g>
</g>
<!-- Node0&#45;&gt;Node4 -->
<g id="edge4" class="edge"><title>Node0&#45;&gt;Node4</title>
<path fill="none" stroke="orange" stroke-dasharray="5,2" d="M674.582,-22.6825C679.781,-21.8336 684.959,-21.09 690,-20.5 738.817,-14.7863 793.795,-13.3829 837.975,-13.4792"/>
<polygon fill="orange" stroke="orange" points="673.833,-19.2604 664.586,-24.4324 675.04,-26.1555 673.833,-19.2604"/>
<text text-anchor="start" x="702" y="-34.5" font-family="FreeSans" font-size="10.00"> &lt; dimAmbient, DGtal</text>
<text text-anchor="middle" x="755" y="-23.5" font-family="FreeSans" font-size="10.00">::int32_t &gt;</text>
</g>
<!-- Node1 -->
<g id="node2" class="node"><title>Node1</title>
<g id="a_node2"><a xlink:href="classDGtal_1_1KhalimskySpaceNDHelper.html" target="_top" xlink:title="DGtal::KhalimskySpaceNDHelper\l\&lt; KhalimskySpaceND\&lt; dim,\l TInteger \&gt; \&gt;">
<polygon fill="white" stroke="black" points="318,-19 318,-60 492,-60 492,-19 318,-19"/>
<text text-anchor="start" x="326" y="-48" font-family="FreeSans" font-size="10.00">DGtal::KhalimskySpaceNDHelper</text>
<text text-anchor="start" x="326" y="-37" font-family="FreeSans" font-size="10.00">&lt; KhalimskySpaceND&lt; dim,</text>
<text text-anchor="middle" x="405" y="-26" font-family="FreeSans" font-size="10.00"> TInteger &gt; &gt;</text>
</a>
</g>
</g>
<!-- Node1&#45;&gt;Node0 -->
<g id="edge1" class="edge"><title>Node1&#45;&gt;Node0</title>
<path fill="none" stroke="#8b1a1a" d="M502.318,-39.5C511.225,-39.5 520.136,-39.5 528.751,-39.5"/>
<polygon fill="#8b1a1a" stroke="#8b1a1a" points="502.281,-36.0001 492.281,-39.5 502.281,-43.0001 502.281,-36.0001"/>
</g>
<!-- Node2 -->
<g id="node3" class="node"><title>Node2</title>
<g id="a_node3"><a xlink:href="classDGtal_1_1KhalimskySpaceNDHelper.html" target="_top" xlink:title="Internal class of KhalimskySpaceND that provides some optimizations depending on the space type...">
<polygon fill="white" stroke="black" points="0,-24.5 0,-54.5 174,-54.5 174,-24.5 0,-24.5"/>
<text text-anchor="start" x="8" y="-42.5" font-family="FreeSans" font-size="10.00">DGtal::KhalimskySpaceNDHelper</text>
<text text-anchor="middle" x="87" y="-31.5" font-family="FreeSans" font-size="10.00">&lt; TKhalimskySpace &gt;</text>
</a>
</g>
</g>
<!-- Node2&#45;&gt;Node1 -->
<g id="edge2" class="edge"><title>Node2&#45;&gt;Node1</title>
<path fill="none" stroke="orange" stroke-dasharray="5,2" d="M184.428,-39.5C226.935,-39.5 276.491,-39.5 317.756,-39.5"/>
<polygon fill="orange" stroke="orange" points="184.348,-36.0001 174.348,-39.5 184.348,-43.0001 184.348,-36.0001"/>
<text text-anchor="start" x="192" y="-53.5" font-family="FreeSans" font-size="10.00"> &lt; KhalimskySpaceND</text>
<text text-anchor="middle" x="246" y="-42.5" font-family="FreeSans" font-size="10.00">&lt; dim, TInteger &gt; &gt;</text>
</g>
</g>
</svg>
