<?xml version="1.0" encoding="UTF-8" standalone="no"?>
<!DOCTYPE svg PUBLIC "-//W3C//DTD SVG 1.1//EN"
 "http://www.w3.org/Graphics/SVG/1.1/DTD/svg11.dtd">
<!-- Generated by graphviz version 2.38.0 (20140413.2041)
 -->
<!-- Title: DGtal::SetOfSurfels&lt; TKSpace, TSurfelSet &gt; Pages: 1 -->
<svg width="730pt" height="99pt"
 viewBox="0.00 0.00 730.00 98.50" xmlns="http://www.w3.org/2000/svg" xmlns:xlink="http://www.w3.org/1999/xlink">
<g id="graph0" class="graph" transform="scale(1 1) rotate(0) translate(4 94.5)">
<title>DGtal::SetOfSurfels&lt; TKSpace, TSurfelSet &gt;</title>
<polygon fill="white" stroke="none" points="-4,4 -4,-94.5 726,-94.5 726,4 -4,4"/>
<!-- Node1 -->
<g id="node1" class="node"><title>Node1</title>
<polygon fill="#bfbfbf" stroke="black" points="586,-29.5 586,-59.5 722,-59.5 722,-29.5 586,-29.5"/>
<text text-anchor="start" x="594" y="-47.5" font-family="FreeSans" font-size="10.00">DGtal::SetOfSurfels</text>
<text text-anchor="middle" x="654" y="-36.5" font-family="FreeSans" font-size="10.00">&lt; TKSpace, TSurfelSet &gt;</text>
</g>
<!-- Node2 -->
<g id="node2" class="node"><title>Node2</title>
<g id="a_node2"><a xlink:href="structDGtal_1_1functors_1_1SurfelSetPredicate.html" target="_top" xlink:title="DGtal::functors::SurfelSet\lPredicate\&lt; SurfelSet, Surfel \&gt;">
<polygon fill="white" stroke="black" points="293,-52.5 293,-82.5 455,-82.5 455,-52.5 293,-52.5"/>
<text text-anchor="start" x="301" y="-70.5" font-family="FreeSans" font-size="10.00">DGtal::functors::SurfelSet</text>
<text text-anchor="middle" x="374" y="-59.5" font-family="FreeSans" font-size="10.00">Predicate&lt; SurfelSet, Surfel &gt;</text>
</a>
</g>
</g>
<!-- Node2&#45;&gt;Node1 -->
<g id="edge1" class="edge"><title>Node2&#45;&gt;Node1</title>
<path fill="none" stroke="#9a32cd" stroke-dasharray="5,2" d="M465.133,-60.043C504.351,-56.7983 549.517,-53.0616 585.733,-50.0653"/>
<polygon fill="#9a32cd" stroke="#9a32cd" points="464.713,-56.5656 455.036,-60.8783 465.291,-63.5418 464.713,-56.5656"/>
<text text-anchor="middle" x="520.5" y="-61.5" font-family="FreeSans" font-size="10.00"> mySurfelPredicate</text>
</g>
<!-- Node3 -->
<g id="node3" class="node"><title>Node3</title>
<g id="a_node3"><a xlink:href="structDGtal_1_1functors_1_1SurfelSetPredicate.html" target="_top" xlink:title="Aim: The predicate returning true iff the point is in the domain given at construction. ">
<polygon fill="white" stroke="black" points="0,-49 0,-90 139,-90 139,-49 0,-49"/>
<text text-anchor="start" x="8" y="-78" font-family="FreeSans" font-size="10.00">DGtal::functors::SurfelSet</text>
<text text-anchor="start" x="8" y="-67" font-family="FreeSans" font-size="10.00">Predicate&lt; TSurfelSet,</text>
<text text-anchor="middle" x="69.5" y="-56" font-family="FreeSans" font-size="10.00"> TSurfel &gt;</text>
</a>
</g>
</g>
<!-- Node3&#45;&gt;Node2 -->
<g id="edge2" class="edge"><title>Node3&#45;&gt;Node2</title>
<path fill="none" stroke="orange" stroke-dasharray="5,2" d="M149.26,-68.9793C193.445,-68.6871 248.439,-68.3235 292.847,-68.0299"/>
<polygon fill="orange" stroke="orange" points="149.119,-65.48 139.142,-69.0462 149.165,-72.4799 149.119,-65.48"/>
<text text-anchor="middle" x="216" y="-71.5" font-family="FreeSans" font-size="10.00"> &lt; SurfelSet, Surfel &gt;</text>
</g>
<!-- Node4 -->
<g id="node4" class="node"><title>Node4</title>
<g id="a_node4"><a xlink:href="classDGtal_1_1SurfelAdjacency.html" target="_top" xlink:title="DGtal::SurfelAdjacency\l\&lt; KSpace::dimension \&gt;">
<polygon fill="white" stroke="black" points="308.5,-2.5 308.5,-32.5 439.5,-32.5 439.5,-2.5 308.5,-2.5"/>
<text text-anchor="start" x="316.5" y="-20.5" font-family="FreeSans" font-size="10.00">DGtal::SurfelAdjacency</text>
<text text-anchor="middle" x="374" y="-9.5" font-family="FreeSans" font-size="10.00">&lt; KSpace::dimension &gt;</text>
</a>
</g>
</g>
<!-- Node4&#45;&gt;Node1 -->
<g id="edge3" class="edge"><title>Node4&#45;&gt;Node1</title>
<path fill="none" stroke="#9a32cd" stroke-dasharray="5,2" d="M449.799,-24.7646C492.12,-28.8749 544.616,-33.9735 585.648,-37.9586"/>
<polygon fill="#9a32cd" stroke="#9a32cd" points="450.119,-21.2794 439.828,-23.7962 449.443,-28.2466 450.119,-21.2794"/>
<text text-anchor="middle" x="520.5" y="-38.5" font-family="FreeSans" font-size="10.00"> mySurfelAdjacency</text>
</g>
<!-- Node5 -->
<g id="node5" class="node"><title>Node5</title>
<g id="a_node5"><a xlink:href="classDGtal_1_1SurfelAdjacency.html" target="_top" xlink:title="Aim: Represent adjacencies between surfel elements, telling if it follows an interior to exterior ord...">
<polygon fill="white" stroke="black" points="6.5,-0.5 6.5,-30.5 132.5,-30.5 132.5,-0.5 6.5,-0.5"/>
<text text-anchor="start" x="14.5" y="-18.5" font-family="FreeSans" font-size="10.00">DGtal::SurfelAdjacency</text>
<text text-anchor="middle" x="69.5" y="-7.5" font-family="FreeSans" font-size="10.00">&lt; dim &gt;</text>
</a>
</g>
</g>
<!-- Node5&#45;&gt;Node4 -->
<g id="edge4" class="edge"><title>Node5&#45;&gt;Node4</title>
<path fill="none" stroke="orange" stroke-dasharray="5,2" d="M142.98,-15.9792C193.345,-16.3122 259.874,-16.7521 308.421,-17.073"/>
<polygon fill="orange" stroke="orange" points="142.834,-12.4783 132.811,-15.912 142.788,-19.4781 142.834,-12.4783"/>
<text text-anchor="middle" x="216" y="-19.5" font-family="FreeSans" font-size="10.00"> &lt; KSpace::dimension &gt;</text>
</g>
</g>
</svg>
