<?xml version="1.0" encoding="UTF-8" standalone="no"?>
<!DOCTYPE svg PUBLIC "-//W3C//DTD SVG 1.1//EN"
 "http://www.w3.org/Graphics/SVG/1.1/DTD/svg11.dtd">
<!-- Generated by graphviz version 2.38.0 (20140413.2041)
 -->
<!-- Title: DGtal::ArithmeticalDSL&lt; TCoordinate, TInteger, adjacency &gt;::ConstIterator Pages: 1 -->
<svg width="792pt" height="249pt"
 viewBox="0.00 0.00 792.00 248.96" xmlns="http://www.w3.org/2000/svg" xmlns:xlink="http://www.w3.org/1999/xlink">
<g id="graph0" class="graph" transform="scale(1 1) rotate(0) translate(4 244.965)">
<title>DGtal::ArithmeticalDSL&lt; TCoordinate, TInteger, adjacency &gt;::ConstIterator</title>
<polygon fill="white" stroke="none" points="-4,4 -4,-244.965 788,-244.965 788,4 -4,4"/>
<!-- Node2 -->
<g id="node1" class="node"><title>Node2</title>
<polygon fill="#bfbfbf" stroke="black" points="636,-106.465 636,-147.465 784,-147.465 784,-106.465 636,-106.465"/>
<text text-anchor="start" x="644" y="-135.465" font-family="FreeSans" font-size="10.00">DGtal::ArithmeticalDSL</text>
<text text-anchor="start" x="644" y="-124.465" font-family="FreeSans" font-size="10.00">&lt; TCoordinate, TInteger,</text>
<text text-anchor="middle" x="710" y="-113.465" font-family="FreeSans" font-size="10.00"> adjacency &gt;::ConstIterator</text>
</g>
<!-- Node3 -->
<g id="node2" class="node"><title>Node3</title>
<polygon fill="white" stroke="#bfbfbf" points="387,-177.465 387,-240.465 548,-240.465 548,-177.465 387,-177.465"/>
<text text-anchor="start" x="395" y="-228.465" font-family="FreeSans" font-size="10.00">boost::iterator_facade</text>
<text text-anchor="start" x="395" y="-217.465" font-family="FreeSans" font-size="10.00">&lt; ConstIterator, Point</text>
<text text-anchor="start" x="395" y="-206.465" font-family="FreeSans" font-size="10.00"> const, boost::random_access</text>
<text text-anchor="start" x="395" y="-195.465" font-family="FreeSans" font-size="10.00">_traversal_tag, Point const,</text>
<text text-anchor="middle" x="467.5" y="-184.465" font-family="FreeSans" font-size="10.00"> Position &gt;</text>
</g>
<!-- Node3&#45;&gt;Node2 -->
<g id="edge1" class="edge"><title>Node3&#45;&gt;Node2</title>
<path fill="none" stroke="midnightblue" d="M557.977,-181.839C577.818,-175.545 598.685,-168.708 618,-161.965 630.785,-157.502 644.466,-152.41 657.234,-147.518"/>
<polygon fill="midnightblue" stroke="midnightblue" points="556.815,-178.536 548.331,-184.882 558.921,-185.211 556.815,-178.536"/>
</g>
<!-- Node4 -->
<g id="node3" class="node"><title>Node4</title>
<g id="a_node3"><a xlink:href="classDGtal_1_1ArithmeticalDSL.html" target="_top" xlink:title="Aim: This class represents a naive (resp. standard) digital straight line (DSL), ie. the set of digital points &#160;such that &#160;with , &#160;and &#160;(resp. ). Note that any DSL such that &#160;(resp. ) is simply 8&#45;connected (resp. 4&#45;connected). ">
<polygon fill="white" stroke="black" points="401,-63.465 401,-104.465 534,-104.465 534,-63.465 401,-63.465"/>
<text text-anchor="start" x="409" y="-92.465" font-family="FreeSans" font-size="10.00">DGtal::ArithmeticalDSL</text>
<text text-anchor="start" x="409" y="-81.465" font-family="FreeSans" font-size="10.00">&lt; TCoordinate, TInteger,</text>
<text text-anchor="middle" x="467.5" y="-70.465" font-family="FreeSans" font-size="10.00"> adjacency &gt;</text>
</a>
</g>
</g>
<!-- Node4&#45;&gt;Node2 -->
<g id="edge2" class="edge"><title>Node4&#45;&gt;Node2</title>
<path fill="none" stroke="#9a32cd" stroke-dasharray="5,2" d="M544.36,-97.5282C573.55,-102.747 606.799,-108.692 635.74,-113.866"/>
<polygon fill="#9a32cd" stroke="#9a32cd" points="544.678,-94.0297 534.218,-95.7149 543.446,-100.92 544.678,-94.0297"/>
<text text-anchor="middle" x="592" y="-112.965" font-family="FreeSans" font-size="10.00"> myDSLPtr</text>
</g>
<!-- Node5 -->
<g id="node4" class="node"><title>Node5</title>
<polygon fill="white" stroke="#bfbfbf" points="174,-67.465 174,-86.465 248,-86.465 248,-67.465 174,-67.465"/>
<text text-anchor="middle" x="211" y="-74.465" font-family="FreeSans" font-size="10.00">TCoordinate</text>
</g>
<!-- Node5&#45;&gt;Node4 -->
<g id="edge3" class="edge"><title>Node5&#45;&gt;Node4</title>
<path fill="none" stroke="#9a32cd" stroke-dasharray="5,2" d="M258.341,-76.5906C289.61,-76.5026 331.798,-76.7028 369,-77.965 379.339,-78.3158 390.287,-78.84 400.966,-79.4352"/>
<polygon fill="#9a32cd" stroke="#9a32cd" points="258.165,-73.0912 248.179,-76.6304 258.193,-80.0911 258.165,-73.0912"/>
<text text-anchor="middle" x="330.5" y="-91.965" font-family="FreeSans" font-size="10.00"> myA</text>
<text text-anchor="middle" x="330.5" y="-80.965" font-family="FreeSans" font-size="10.00">myB</text>
</g>
<!-- Node6 -->
<g id="node5" class="node"><title>Node6</title>
<g id="a_node5"><a xlink:href="classDGtal_1_1PointVector.html" target="_top" xlink:title="Aim: Implements basic operations that will be used in Point and Vector classes. ">
<polygon fill="white" stroke="black" points="148,-116.465 148,-157.465 274,-157.465 274,-116.465 148,-116.465"/>
<text text-anchor="start" x="156" y="-145.465" font-family="FreeSans" font-size="10.00">DGtal::PointVector</text>
<text text-anchor="start" x="156" y="-134.465" font-family="FreeSans" font-size="10.00">&lt; dim, TEuclideanRing,</text>
<text text-anchor="middle" x="211" y="-123.465" font-family="FreeSans" font-size="10.00"> TContainer &gt;</text>
</a>
</g>
</g>
<!-- Node6&#45;&gt;Node2 -->
<g id="edge8" class="edge"><title>Node6&#45;&gt;Node2</title>
<path fill="none" stroke="#9a32cd" stroke-dasharray="5,2" d="M284.277,-135.606C310.909,-135.1 341.327,-134.514 369,-133.965 460.937,-132.14 566.856,-129.945 635.713,-128.505"/>
<polygon fill="#9a32cd" stroke="#9a32cd" points="284.2,-132.107 274.269,-135.796 284.333,-139.106 284.2,-132.107"/>
<text text-anchor="middle" x="467.5" y="-135.965" font-family="FreeSans" font-size="10.00"> myCurrentPoint</text>
</g>
<!-- Node6&#45;&gt;Node4 -->
<g id="edge4" class="edge"><title>Node6&#45;&gt;Node4</title>
<path fill="none" stroke="#9a32cd" stroke-dasharray="5,2" d="M284.386,-121.891C321.048,-114.256 365.225,-105.056 400.886,-97.6291"/>
<polygon fill="#9a32cd" stroke="#9a32cd" points="283.334,-118.534 274.258,-124 284.761,-125.387 283.334,-118.534"/>
<text text-anchor="middle" x="330.5" y="-121.965" font-family="FreeSans" font-size="10.00"> myShift</text>
</g>
<!-- Node6&#45;&gt;Node6 -->
<g id="edge6" class="edge"><title>Node6&#45;&gt;Node6</title>
<path fill="none" stroke="#9a32cd" stroke-dasharray="5,2" d="M193.452,-167.821C196.061,-172.662 201.911,-175.965 211,-175.965 225.543,-175.965 231.792,-167.508 229.747,-157.829"/>
<polygon fill="#9a32cd" stroke="#9a32cd" points="196.919,-167.341 192.253,-157.829 189.969,-168.175 196.919,-167.341"/>
<text text-anchor="middle" x="211" y="-178.965" font-family="FreeSans" font-size="10.00"> zero</text>
</g>
<!-- Node7 -->
<g id="node6" class="node"><title>Node7</title>
<polygon fill="white" stroke="#bfbfbf" points="0,-127.465 0,-146.465 68,-146.465 68,-127.465 0,-127.465"/>
<text text-anchor="middle" x="34" y="-134.465" font-family="FreeSans" font-size="10.00">TContainer</text>
</g>
<!-- Node7&#45;&gt;Node6 -->
<g id="edge5" class="edge"><title>Node7&#45;&gt;Node6</title>
<path fill="none" stroke="#9a32cd" stroke-dasharray="5,2" d="M78.5018,-136.965C99.4065,-136.965 124.84,-136.965 147.749,-136.965"/>
<polygon fill="#9a32cd" stroke="#9a32cd" points="78.3281,-133.465 68.3281,-136.965 78.328,-140.465 78.3281,-133.465"/>
<text text-anchor="middle" x="108" y="-139.965" font-family="FreeSans" font-size="10.00"> myArray</text>
</g>
<!-- Node8 -->
<g id="node7" class="node"><title>Node8</title>
<polygon fill="white" stroke="#bfbfbf" points="183,-6.46497 183,-25.465 239,-25.465 239,-6.46497 183,-6.46497"/>
<text text-anchor="middle" x="211" y="-13.465" font-family="FreeSans" font-size="10.00">TInteger</text>
</g>
<!-- Node8&#45;&gt;Node2 -->
<g id="edge9" class="edge"><title>Node8&#45;&gt;Node2</title>
<path fill="none" stroke="#9a32cd" stroke-dasharray="5,2" d="M249.651,-9.82229C312.93,-0.95956 443.899,11.0736 548,-20.965 603.494,-38.044 657.719,-80.6613 686.905,-106.356"/>
<polygon fill="#9a32cd" stroke="#9a32cd" points="248.758,-6.41531 239.366,-11.3195 249.766,-13.3423 248.758,-6.41531"/>
<text text-anchor="middle" x="467.5" y="-45.965" font-family="FreeSans" font-size="10.00"> myQuantityToAdd</text>
<text text-anchor="middle" x="467.5" y="-34.965" font-family="FreeSans" font-size="10.00">myQuantityToRemove</text>
<text text-anchor="middle" x="467.5" y="-23.965" font-family="FreeSans" font-size="10.00">myCurrentRemainder</text>
</g>
<!-- Node8&#45;&gt;Node4 -->
<g id="edge7" class="edge"><title>Node8&#45;&gt;Node4</title>
<path fill="none" stroke="#9a32cd" stroke-dasharray="5,2" d="M248.985,-23.0459C280.976,-29.4472 328.353,-39.5908 369,-50.965 382.079,-54.6249 395.986,-59.0202 409.075,-63.3916"/>
<polygon fill="#9a32cd" stroke="#9a32cd" points="249.656,-19.6109 239.166,-21.1022 248.296,-26.4776 249.656,-19.6109"/>
<text text-anchor="middle" x="330.5" y="-64.965" font-family="FreeSans" font-size="10.00"> myLowerBound</text>
<text text-anchor="middle" x="330.5" y="-53.965" font-family="FreeSans" font-size="10.00">myUpperBound</text>
</g>
</g>
</svg>
