<?xml version="1.0" encoding="UTF-8" standalone="no"?>
<!DOCTYPE svg PUBLIC "-//W3C//DTD SVG 1.1//EN"
 "http://www.w3.org/Graphics/SVG/1.1/DTD/svg11.dtd">
<!-- Generated by graphviz version 2.38.0 (20140413.2041)
 -->
<!-- Title: DGtal::ArrayImageIterator&lt; TIterableClass &gt; Pages: 1 -->
<svg width="381pt" height="105pt"
 viewBox="0.00 0.00 381.00 105.00" xmlns="http://www.w3.org/2000/svg" xmlns:xlink="http://www.w3.org/1999/xlink">
<g id="graph0" class="graph" transform="scale(1 1) rotate(0) translate(4 101)">
<title>DGtal::ArrayImageIterator&lt; TIterableClass &gt;</title>
<polygon fill="white" stroke="none" points="-4,4 -4,-101 377,-101 377,4 -4,4"/>
<!-- Node0 -->
<g id="node1" class="node"><title>Node0</title>
<polygon fill="#bfbfbf" stroke="black" points="233,-33.5 233,-63.5 373,-63.5 373,-33.5 233,-33.5"/>
<text text-anchor="start" x="241" y="-51.5" font-family="FreeSans" font-size="10.00">DGtal::ArrayImageIterator</text>
<text text-anchor="middle" x="303" y="-40.5" font-family="FreeSans" font-size="10.00">&lt; TIterableClass &gt;</text>
</g>
<!-- Node1 -->
<g id="node2" class="node"><title>Node1</title>
<polygon fill="white" stroke="#bfbfbf" points="0,-0.5 0,-96.5 197,-96.5 197,-0.5 0,-0.5"/>
<text text-anchor="start" x="8" y="-84.5" font-family="FreeSans" font-size="10.00">boost::iterator_facade</text>
<text text-anchor="start" x="8" y="-73.5" font-family="FreeSans" font-size="10.00">&lt; ArrayImageIterator&lt;</text>
<text text-anchor="start" x="8" y="-62.5" font-family="FreeSans" font-size="10.00"> TIterableClass &gt;, TIterableClass</text>
<text text-anchor="start" x="8" y="-51.5" font-family="FreeSans" font-size="10.00">::Value, std::random_access_iterator</text>
<text text-anchor="start" x="8" y="-40.5" font-family="FreeSans" font-size="10.00">_tag, decltype(((TIterableClass *)</text>
<text text-anchor="start" x="8" y="-29.5" font-family="FreeSans" font-size="10.00"> nullptr) &#45;&gt;dereference(TIterableClass</text>
<text text-anchor="start" x="8" y="-18.5" font-family="FreeSans" font-size="10.00">::Point::diagonal(0), TIterableClass::</text>
<text text-anchor="middle" x="98.5" y="-7.5" font-family="FreeSans" font-size="10.00">Point::Coordinate(0))) &gt;</text>
</g>
<!-- Node1&#45;&gt;Node0 -->
<g id="edge1" class="edge"><title>Node1&#45;&gt;Node0</title>
<path fill="none" stroke="midnightblue" d="M207.347,-48.5C215.986,-48.5 224.56,-48.5 232.818,-48.5"/>
<polygon fill="midnightblue" stroke="midnightblue" points="207.191,-45.0001 197.191,-48.5 207.191,-52.0001 207.191,-45.0001"/>
</g>
</g>
</svg>
