<?xml version="1.0" encoding="UTF-8" standalone="no"?>
<!DOCTYPE svg PUBLIC "-//W3C//DTD SVG 1.1//EN"
 "http://www.w3.org/Graphics/SVG/1.1/DTD/svg11.dtd">
<!-- Generated by graphviz version 2.36.0 (20140111.2315)
 -->
<!-- Title: DGtal::IntegerComputer&lt; TInteger &gt; Pages: 1 -->
<!--zoomable 236 -->
<svg id="main" version="1.1" xmlns="http://www.w3.org/2000/svg" xmlns:xlink="http://www.w3.org/1999/xlink" xml:space="preserve" onload="init(evt)">
<style type="text/css"><![CDATA[
.edge:hover path { stroke: red; }
.edge:hover polygon { stroke: red; fill: red; }
]]></style>
<script type="text/javascript"><![CDATA[
var edges = document.getElementsByTagName('g');
if (edges && edges.length) {
  for (var i=0;i<edges.length;i++) {
    if (edges[i].id.substr(0,4)=='edge') {
      edges[i].setAttribute('class','edge');
    }
  }
}
]]></script>
        <defs>
                <circle id="rim" cx="0" cy="0" r="7"/>
                <circle id="rim2" cx="0" cy="0" r="3.5"/>
                <g id="zoomPlus">
                        <use xlink:href="#rim" fill="#404040">
                                <set attributeName="fill" to="#808080" begin="zoomplus.mouseover" end="zoomplus.mouseout"/>
                        </use>
                        <path d="M-4,0h8M0,-4v8" fill="none" stroke="white" stroke-width="1.5" pointer-events="none"/>
                </g>
                <g id="zoomMin">
                        <use xlink:href="#rim" fill="#404040">
                                <set attributeName="fill" to="#808080" begin="zoomminus.mouseover" end="zoomminus.mouseout"/>
                        </use>
                        <path d="M-4,0h8" fill="none" stroke="white" stroke-width="1.5" pointer-events="none"/>
                </g>
                <g id="dirArrow">
                        <path fill="none" stroke="white" stroke-width="1.5" d="M0,-3.0v7 M-2.5,-0.5L0,-3.0L2.5,-0.5"/>
                </g>
               <g id="resetDef">
                       <use xlink:href="#rim2" fill="#404040">
                               <set attributeName="fill" to="#808080" begin="reset.mouseover" end="reset.mouseout"/>
                       </use>
               </g>
        </defs>

<script type="text/javascript">
var viewWidth = 1292;
var viewHeight = 236;
var sectionId = 'dynsection-1';
</script>
<script xlink:href="svgpan.js"/>
<svg id="graph" class="graph">
<g id="viewport">
<title>DGtal::IntegerComputer&lt; TInteger &gt;</title>
<polygon fill="white" stroke="none" points="-4,4 -4,-232 1288,-232 1288,4 -4,4"/>
<!-- Node2 -->
<g id="node1" class="node"><title>Node2</title>
<polygon fill="#bfbfbf" stroke="black" points="1152.5,-56 1152.5,-86 1283.5,-86 1283.5,-56 1152.5,-56"/>
<text text-anchor="start" x="1160.5" y="-74" font-family="FreeSans" font-size="10.00">DGtal::IntegerComputer</text>
<text text-anchor="middle" x="1218" y="-63" font-family="FreeSans" font-size="10.00">&lt; TInteger &gt;</text>
</g>
<!-- Node3 -->
<g id="node2" class="node"><title>Node3</title>
<polygon fill="white" stroke="#bfbfbf" points="569,-172.5 569,-191.5 693,-191.5 693,-172.5 569,-172.5"/>
<text text-anchor="middle" x="631" y="-179.5" font-family="FreeSans" font-size="10.00">std::vector&lt; Integer &gt;</text>
</g>
<!-- Node3&#45;&gt;Node2 -->
<g id="edge1" class="edge"><title>Node3&#45;&gt;Node2</title>
<path fill="none" stroke="#9a32cd" stroke-dasharray="5,2" d="M681.047,-193.694C774.6,-213.341 982.68,-244.09 1134,-171 1171.18,-153.042 1197.62,-109.658 1209.67,-86.3761"/>
<polygon fill="#9a32cd" stroke="#9a32cd" points="681.53,-190.218 671.018,-191.537 680.059,-197.061 681.53,-190.218"/>
<text text-anchor="middle" x="912" y="-220" font-family="FreeSans" font-size="10.00"> _m_bezout</text>
</g>
<!-- Node4 -->
<g id="node3" class="node"><title>Node4</title>
<g id="a_node3"><a xlink:title="STL class. ">
<polygon fill="white" stroke="#bfbfbf" points="278.5,-160.5 278.5,-179.5 373.5,-179.5 373.5,-160.5 278.5,-160.5"/>
<text text-anchor="middle" x="326" y="-167.5" font-family="FreeSans" font-size="10.00">std::vector&lt; T &gt;</text>
</a>
</g>
</g>
<!-- Node4&#45;&gt;Node3 -->
<g id="edge2" class="edge"><title>Node4&#45;&gt;Node3</title>
<path fill="none" stroke="orange" stroke-dasharray="5,2" d="M383.869,-172.252C436.591,-174.34 514.813,-177.438 568.859,-179.579"/>
<polygon fill="orange" stroke="orange" points="383.81,-168.747 373.68,-171.849 383.533,-175.742 383.81,-168.747"/>
<text text-anchor="middle" x="474" y="-181" font-family="FreeSans" font-size="10.00"> &lt; Integer &gt;</text>
</g>
<!-- Node5 -->
<g id="node4" class="node"><title>Node5</title>
<polygon fill="white" stroke="#bfbfbf" points="0.5,-134.5 0.5,-153.5 29.5,-153.5 29.5,-134.5 0.5,-134.5"/>
<text text-anchor="middle" x="15" y="-141.5" font-family="FreeSans" font-size="10.00">T</text>
</g>
<!-- Node5&#45;&gt;Node4 -->
<g id="edge3" class="edge"><title>Node5&#45;&gt;Node4</title>
<path fill="none" stroke="#9a32cd" stroke-dasharray="5,2" d="M39.7145,-145.995C90.6561,-150.282 211.329,-160.435 278.258,-166.067"/>
<polygon fill="#9a32cd" stroke="#9a32cd" points="39.9343,-142.502 29.676,-145.151 39.3473,-149.477 39.9343,-142.502"/>
<text text-anchor="middle" x="73" y="-153" font-family="FreeSans" font-size="10.00"> elements</text>
</g>
<!-- Node8 -->
<g id="node7" class="node"><title>Node8</title>
<g id="a_node7"><a xlink:href="structDGtal_1_1NumberTraitsImpl.html" target="_top" xlink:title="Aim: The traits class for all models of Cinteger (implementation) ">
<polygon fill="white" stroke="black" points="116,-104 116,-134 250,-134 250,-104 116,-104"/>
<text text-anchor="start" x="124" y="-122" font-family="FreeSans" font-size="10.00">DGtal::NumberTraitsImpl</text>
<text text-anchor="middle" x="183" y="-111" font-family="FreeSans" font-size="10.00">&lt; T, Enable &gt;</text>
</a>
</g>
</g>
<!-- Node5&#45;&gt;Node8 -->
<g id="edge7" class="edge"><title>Node5&#45;&gt;Node8</title>
<path fill="none" stroke="#9a32cd" stroke-dasharray="5,2" d="M35.7377,-128.685C39.6169,-126.376 43.7933,-124.326 48,-123 69.4211,-116.249 93.7332,-114.019 115.713,-113.862"/>
<polygon fill="#9a32cd" stroke="#9a32cd" points="33.6954,-125.841 27.3517,-134.327 37.6026,-131.649 33.6954,-125.841"/>
<text text-anchor="middle" x="73" y="-137" font-family="FreeSans" font-size="10.00"> ONE</text>
<text text-anchor="middle" x="73" y="-126" font-family="FreeSans" font-size="10.00">ZERO</text>
</g>
<!-- Node6 -->
<g id="node5" class="node"><title>Node6</title>
<g id="a_node5"><a xlink:href="structDGtal_1_1NumberTraits.html" target="_top" xlink:title="DGtal::NumberTraits\l\&lt; TInteger \&gt;">
<polygon fill="white" stroke="black" points="967.5,-59 967.5,-89 1080.5,-89 1080.5,-59 967.5,-59"/>
<text text-anchor="start" x="975.5" y="-77" font-family="FreeSans" font-size="10.00">DGtal::NumberTraits</text>
<text text-anchor="middle" x="1024" y="-66" font-family="FreeSans" font-size="10.00">&lt; TInteger &gt;</text>
</a>
</g>
</g>
<!-- Node6&#45;&gt;Node2 -->
<g id="edge4" class="edge"><title>Node6&#45;&gt;Node2</title>
<path fill="none" stroke="#9a32cd" stroke-dasharray="5,2" d="M1090.75,-72.1787C1093.88,-72.1134 1096.97,-72.0533 1100,-72 1116.96,-71.7014 1135.3,-71.4912 1152.32,-71.3435"/>
<polygon fill="#9a32cd" stroke="#9a32cd" points="1090.62,-68.6806 1080.7,-72.4025 1090.77,-75.6789 1090.62,-68.6806"/>
<text text-anchor="middle" x="1117" y="-163" font-family="FreeSans" font-size="10.00"> _m_b</text>
<text text-anchor="middle" x="1117" y="-152" font-family="FreeSans" font-size="10.00">_m_c0</text>
<text text-anchor="middle" x="1117" y="-141" font-family="FreeSans" font-size="10.00">_m_c1</text>
<text text-anchor="middle" x="1117" y="-130" font-family="FreeSans" font-size="10.00">_m_c2</text>
<text text-anchor="middle" x="1117" y="-119" font-family="FreeSans" font-size="10.00">_m_q</text>
<text text-anchor="middle" x="1117" y="-108" font-family="FreeSans" font-size="10.00">_m_a0</text>
<text text-anchor="middle" x="1117" y="-97" font-family="FreeSans" font-size="10.00">_m_r</text>
<text text-anchor="middle" x="1117" y="-86" font-family="FreeSans" font-size="10.00">_m_a1</text>
<text text-anchor="middle" x="1117" y="-75" font-family="FreeSans" font-size="10.00">_m_a</text>
</g>
<!-- Node7 -->
<g id="node6" class="node"><title>Node7</title>
<g id="a_node6"><a xlink:href="structDGtal_1_1NumberTraitsImpl.html" target="_top" xlink:title="DGtal::NumberTraitsImpl\l\&lt; std::decay\&lt; TInteger\l \&gt;::type \&gt;">
<polygon fill="white" stroke="black" points="564,-95.5 564,-136.5 698,-136.5 698,-95.5 564,-95.5"/>
<text text-anchor="start" x="572" y="-124.5" font-family="FreeSans" font-size="10.00">DGtal::NumberTraitsImpl</text>
<text text-anchor="start" x="572" y="-113.5" font-family="FreeSans" font-size="10.00">&lt; std::decay&lt; TInteger</text>
<text text-anchor="middle" x="631" y="-102.5" font-family="FreeSans" font-size="10.00"> &gt;::type &gt;</text>
</a>
</g>
</g>
<!-- Node7&#45;&gt;Node6 -->
<g id="edge5" class="edge"><title>Node7&#45;&gt;Node6</title>
<path fill="none" stroke="midnightblue" d="M708.25,-111.889C772.423,-107.855 866.503,-100.594 948,-89 954.31,-88.1023 960.891,-87.0139 967.419,-85.8378"/>
<polygon fill="midnightblue" stroke="midnightblue" points="707.979,-108.399 698.214,-112.509 708.411,-115.386 707.979,-108.399"/>
</g>
<!-- Node8&#45;&gt;Node7 -->
<g id="edge6" class="edge"><title>Node8&#45;&gt;Node7</title>
<path fill="none" stroke="orange" stroke-dasharray="5,2" d="M260.44,-118.486C345.832,-117.911 482.681,-116.991 563.711,-116.446"/>
<polygon fill="orange" stroke="orange" points="260.265,-114.987 250.289,-118.554 260.312,-121.987 260.265,-114.987"/>
<text text-anchor="start" x="268.5" y="-133" font-family="FreeSans" font-size="10.00"> &lt; std::decay&lt; TInteger</text>
<text text-anchor="middle" x="326" y="-122" font-family="FreeSans" font-size="10.00"> &gt;::type &gt;</text>
</g>
<!-- Node10 -->
<g id="node9" class="node"><title>Node10</title>
<g id="a_node9"><a xlink:href="structDGtal_1_1NumberTraitsImpl.html" target="_top" xlink:title="DGtal::NumberTraitsImpl\l\&lt; std::decay\&lt; T \&gt;::type \&gt;">
<polygon fill="white" stroke="black" points="402.5,-59 402.5,-89 545.5,-89 545.5,-59 402.5,-59"/>
<text text-anchor="start" x="410.5" y="-77" font-family="FreeSans" font-size="10.00">DGtal::NumberTraitsImpl</text>
<text text-anchor="middle" x="474" y="-66" font-family="FreeSans" font-size="10.00">&lt; std::decay&lt; T &gt;::type &gt;</text>
</a>
</g>
</g>
<!-- Node8&#45;&gt;Node10 -->
<g id="edge10" class="edge"><title>Node8&#45;&gt;Node10</title>
<path fill="none" stroke="orange" stroke-dasharray="5,2" d="M214.203,-98.6762C229.598,-89.5179 249.035,-79.7153 268,-75 311.692,-64.1366 362.26,-63.7651 402.24,-66.1691"/>
<polygon fill="orange" stroke="orange" points="212.319,-95.726 205.64,-103.951 215.99,-101.686 212.319,-95.726"/>
<text text-anchor="start" x="277" y="-89" font-family="FreeSans" font-size="10.00"> &lt; std::decay&lt; T &gt;::</text>
<text text-anchor="middle" x="326" y="-78" font-family="FreeSans" font-size="10.00">type &gt;</text>
</g>
<!-- Node9 -->
<g id="node8" class="node"><title>Node9</title>
<g id="a_node8"><a xlink:href="structDGtal_1_1NumberTraits.html" target="_top" xlink:title="Aim: The traits class for all models of Cinteger. ">
<polygon fill="white" stroke="black" points="716.5,-64.5 716.5,-83.5 857.5,-83.5 857.5,-64.5 716.5,-64.5"/>
<text text-anchor="middle" x="787" y="-71.5" font-family="FreeSans" font-size="10.00">DGtal::NumberTraits&lt; T &gt;</text>
</a>
</g>
</g>
<!-- Node9&#45;&gt;Node6 -->
<g id="edge8" class="edge"><title>Node9&#45;&gt;Node6</title>
<path fill="none" stroke="orange" stroke-dasharray="5,2" d="M867.581,-74C900.389,-74 937.616,-74 967.409,-74"/>
<polygon fill="orange" stroke="orange" points="867.554,-70.5001 857.554,-74 867.554,-77.5001 867.554,-70.5001"/>
<text text-anchor="middle" x="912" y="-77" font-family="FreeSans" font-size="10.00"> &lt; TInteger &gt;</text>
</g>
<!-- Node10&#45;&gt;Node9 -->
<g id="edge9" class="edge"><title>Node10&#45;&gt;Node9</title>
<path fill="none" stroke="midnightblue" d="M555.657,-74C605.43,-74 668.638,-74 716.245,-74"/>
<polygon fill="midnightblue" stroke="midnightblue" points="555.571,-70.5001 545.571,-74 555.571,-77.5001 555.571,-70.5001"/>
</g>
<!-- Node11 -->
<g id="node10" class="node"><title>Node11</title>
<g id="a_node10"><a xlink:href="classDGtal_1_1SpaceND.html" target="_top" xlink:title="DGtal::SpaceND\&lt; 2,\l Integer \&gt;">
<polygon fill="white" stroke="black" points="966.5,-0 966.5,-30 1081.5,-30 1081.5,-0 966.5,-0"/>
<text text-anchor="start" x="974.5" y="-18" font-family="FreeSans" font-size="10.00">DGtal::SpaceND&lt; 2,</text>
<text text-anchor="middle" x="1024" y="-7" font-family="FreeSans" font-size="10.00"> Integer &gt;</text>
</a>
</g>
</g>
<!-- Node11&#45;&gt;Node2 -->
<g id="edge11" class="edge"><title>Node11&#45;&gt;Node2</title>
<path fill="none" stroke="#9a32cd" stroke-dasharray="5,2" d="M1091.74,-24.7559C1105.84,-27.5079 1120.52,-30.8991 1134,-35 1152.03,-40.4863 1171.4,-48.7394 1186.88,-55.9599"/>
<polygon fill="#9a32cd" stroke="#9a32cd" points="1092.07,-21.258 1081.6,-22.8639 1090.79,-28.1392 1092.07,-21.258"/>
<text text-anchor="middle" x="1117" y="-60" font-family="FreeSans" font-size="10.00"> _m_v</text>
<text text-anchor="middle" x="1117" y="-49" font-family="FreeSans" font-size="10.00">_m_v0</text>
<text text-anchor="middle" x="1117" y="-38" font-family="FreeSans" font-size="10.00">_m_v1</text>
</g>
<!-- Node12 -->
<g id="node11" class="node"><title>Node12</title>
<g id="a_node11"><a xlink:href="classDGtal_1_1SpaceND.html" target="_top" xlink:title="Aim: SpaceND is a utility class that defines the fundamental structure of a Digital Space in ND...">
<polygon fill="white" stroke="black" points="723.5,-0 723.5,-30 850.5,-30 850.5,-0 723.5,-0"/>
<text text-anchor="start" x="731.5" y="-18" font-family="FreeSans" font-size="10.00">DGtal::SpaceND&lt; dim,</text>
<text text-anchor="middle" x="787" y="-7" font-family="FreeSans" font-size="10.00"> TInteger &gt;</text>
</a>
</g>
</g>
<!-- Node12&#45;&gt;Node11 -->
<g id="edge12" class="edge"><title>Node12&#45;&gt;Node11</title>
<path fill="none" stroke="orange" stroke-dasharray="5,2" d="M860.979,-15C894.857,-15 934.528,-15 966.136,-15"/>
<polygon fill="orange" stroke="orange" points="860.667,-11.5001 850.667,-15 860.667,-18.5001 860.667,-11.5001"/>
<text text-anchor="middle" x="912" y="-18" font-family="FreeSans" font-size="10.00"> &lt; 2, Integer &gt;</text>
</g>
</g>
</svg>
        <g id="navigator" transform="translate(0 0)" fill="#404254">
                <rect fill="#f2f5e9" fill-opacity="0.5" stroke="#606060" stroke-width=".5" x="0" y="0" width="60" height="60"/>
                <use id="zoomplus" xlink:href="#zoomPlus" x="17" y="9" onmousedown="handleZoom(evt,'in')"/>
                <use id="zoomminus" xlink:href="#zoomMin" x="42" y="9" onmousedown="handleZoom(evt,'out')"/>
                <use id="reset" xlink:href="#resetDef" x="30" y="36" onmousedown="handleReset()"/>
                <g id="arrowUp" xlink:href="#dirArrow" transform="translate(30 24)" onmousedown="handlePan(0,-1)">
                  <use xlink:href="#rim" fill="#404040">
                        <set attributeName="fill" to="#808080" begin="arrowUp.mouseover" end="arrowUp.mouseout"/>
                  </use>
                  <path fill="none" stroke="white" stroke-width="1.5" d="M0,-3.0v7 M-2.5,-0.5L0,-3.0L2.5,-0.5"/>
                </g>
                <g id="arrowRight" xlink:href="#dirArrow" transform="rotate(90) translate(36 -43)" onmousedown="handlePan(1,0)">
                  <use xlink:href="#rim" fill="#404040">
                        <set attributeName="fill" to="#808080" begin="arrowRight.mouseover" end="arrowRight.mouseout"/>
                  </use>
                  <path fill="none" stroke="white" stroke-width="1.5" d="M0,-3.0v7 M-2.5,-0.5L0,-3.0L2.5,-0.5"/>
                </g>
                <g id="arrowDown" xlink:href="#dirArrow" transform="rotate(180) translate(-30 -48)" onmousedown="handlePan(0,1)">
                  <use xlink:href="#rim" fill="#404040">
                        <set attributeName="fill" to="#808080" begin="arrowDown.mouseover" end="arrowDown.mouseout"/>
                  </use>
                  <path fill="none" stroke="white" stroke-width="1.5" d="M0,-3.0v7 M-2.5,-0.5L0,-3.0L2.5,-0.5"/>
                </g>
                <g id="arrowLeft" xlink:href="#dirArrow" transform="rotate(270) translate(-36 17)" onmousedown="handlePan(-1,0)">
                  <use xlink:href="#rim" fill="#404040">
                        <set attributeName="fill" to="#808080" begin="arrowLeft.mouseover" end="arrowLeft.mouseout"/>
                  </use>
                  <path fill="none" stroke="white" stroke-width="1.5" d="M0,-3.0v7 M-2.5,-0.5L0,-3.0L2.5,-0.5"/>
                </g>
        </g>
        <svg viewBox="0 0 15 15" width="100%" height="30px" preserveAspectRatio="xMaxYMin meet">
         <g id="arrow_out" transform="scale(0.3 0.3)">
          <a xlink:href="classDGtal_1_1IntegerComputer__coll__graph_org.svg" target="_base">
           <rect id="button" ry="5" rx="5" y="6" x="6" height="38" width="38"
                fill="#f2f5e9" fill-opacity="0.5" stroke="#606060" stroke-width="1.0"/>
           <path id="arrow"
             d="M 11.500037,31.436501 C 11.940474,20.09759 22.043105,11.32322 32.158766,21.979434 L 37.068811,17.246167 C 37.068811,17.246167 37.088388,32 37.088388,32 L 22.160133,31.978069 C 22.160133,31.978069 26.997745,27.140456 26.997745,27.140456 C 18.528582,18.264221 13.291696,25.230495 11.500037,31.436501 z"
             style="fill:#404040;"/>
          </a>
         </g>
        </svg>
</svg>
