<?xml version="1.0" encoding="UTF-8" standalone="no"?>
<!DOCTYPE svg PUBLIC "-//W3C//DTD SVG 1.1//EN"
 "http://www.w3.org/Graphics/SVG/1.1/DTD/svg11.dtd">
<!-- Generated by graphviz version 2.38.0 (20140413.2041)
 -->
<!-- Title: DGtal::IndexedListWithBlocks&lt; TValue, N, M &gt;::Iterator Pages: 1 -->
<svg width="206pt" height="117pt"
 viewBox="0.00 0.00 206.00 117.00" xmlns="http://www.w3.org/2000/svg" xmlns:xlink="http://www.w3.org/1999/xlink">
<g id="graph0" class="graph" transform="scale(1 1) rotate(0) translate(4 113)">
<title>DGtal::IndexedListWithBlocks&lt; TValue, N, M &gt;::Iterator</title>
<polygon fill="white" stroke="none" points="-4,4 -4,-113 202,-113 202,4 -4,4"/>
<!-- Node1 -->
<g id="node1" class="node"><title>Node1</title>
<polygon fill="#bfbfbf" stroke="black" points="0,-0.5 0,-30.5 155,-30.5 155,-0.5 0,-0.5"/>
<text text-anchor="start" x="8" y="-18.5" font-family="FreeSans" font-size="10.00">DGtal::IndexedListWithBlocks</text>
<text text-anchor="middle" x="77.5" y="-7.5" font-family="FreeSans" font-size="10.00">&lt; TValue, N, M &gt;::Iterator</text>
</g>
<!-- Node2 -->
<g id="node2" class="node"><title>Node2</title>
<g id="a_node2"><a xlink:href="structDGtal_1_1IndexedListWithBlocks_1_1AnyBlock.html" target="_top" xlink:title="DGtal::IndexedListWithBlocks\l\&lt; TValue, N, M \&gt;::AnyBlock">
<polygon fill="white" stroke="black" points="0,-78.5 0,-108.5 155,-108.5 155,-78.5 0,-78.5"/>
<text text-anchor="start" x="8" y="-96.5" font-family="FreeSans" font-size="10.00">DGtal::IndexedListWithBlocks</text>
<text text-anchor="middle" x="77.5" y="-85.5" font-family="FreeSans" font-size="10.00">&lt; TValue, N, M &gt;::AnyBlock</text>
</a>
</g>
</g>
<!-- Node2&#45;&gt;Node1 -->
<g id="edge1" class="edge"><title>Node2&#45;&gt;Node1</title>
<path fill="none" stroke="#9a32cd" stroke-dasharray="5,2" d="M77.5,-68.0898C77.5,-55.7565 77.5,-41.2237 77.5,-30.7309"/>
<polygon fill="#9a32cd" stroke="#9a32cd" points="74.0001,-68.2049 77.5,-78.205 81.0001,-68.205 74.0001,-68.2049"/>
<text text-anchor="middle" x="98" y="-52" font-family="FreeSans" font-size="10.00"> myNext</text>
</g>
<!-- Node2&#45;&gt;Node2 -->
<g id="edge2" class="edge"><title>Node2&#45;&gt;Node2</title>
<path fill="none" stroke="#9a32cd" stroke-dasharray="5,2" d="M165.106,-98.3135C170.051,-97.149 173,-95.5445 173,-93.5 173,-90.3086 165.815,-88.1893 155.065,-87.1421"/>
<polygon fill="#9a32cd" stroke="#9a32cd" points="164.417,-94.8782 155.065,-99.8579 165.481,-101.797 164.417,-94.8782"/>
<text text-anchor="middle" x="185.5" y="-91" font-family="FreeSans" font-size="10.00"> next</text>
</g>
</g>
</svg>
