<?xml version="1.0" encoding="UTF-8" standalone="no"?>
<!DOCTYPE svg PUBLIC "-//W3C//DTD SVG 1.1//EN"
 "http://www.w3.org/Graphics/SVG/1.1/DTD/svg11.dtd">
<!-- Generated by graphviz version 2.38.0 (20140413.2041)
 -->
<!-- Title: DGtal::functors::IISecondPrincipalDirectionFunctor&lt; TSpace, TMatrix &gt; Pages: 1 -->
<svg width="182pt" height="206pt"
 viewBox="0.00 0.00 181.50 206.00" xmlns="http://www.w3.org/2000/svg" xmlns:xlink="http://www.w3.org/1999/xlink">
<g id="graph0" class="graph" transform="scale(1 1) rotate(0) translate(4 202)">
<title>DGtal::functors::IISecondPrincipalDirectionFunctor&lt; TSpace, TMatrix &gt;</title>
<polygon fill="white" stroke="none" points="-4,4 -4,-202 177.5,-202 177.5,4 -4,4"/>
<!-- Node1 -->
<g id="node1" class="node"><title>Node1</title>
<polygon fill="#bfbfbf" stroke="black" points="0,-0.5 0,-41.5 135,-41.5 135,-0.5 0,-0.5"/>
<text text-anchor="start" x="8" y="-29.5" font-family="FreeSans" font-size="10.00">DGtal::functors::IISecond</text>
<text text-anchor="start" x="8" y="-18.5" font-family="FreeSans" font-size="10.00">PrincipalDirectionFunctor</text>
<text text-anchor="middle" x="67.5" y="-7.5" font-family="FreeSans" font-size="10.00">&lt; TSpace, TMatrix &gt;</text>
</g>
<!-- Node2 -->
<g id="node2" class="node"><title>Node2</title>
<g id="a_node2"><a xlink:href="classDGtal_1_1PointVector.html" target="_top" xlink:title="Aim: Implements basic operations that will be used in Point and Vector classes. ">
<polygon fill="white" stroke="black" points="4.5,-89.5 4.5,-130.5 130.5,-130.5 130.5,-89.5 4.5,-89.5"/>
<text text-anchor="start" x="12.5" y="-118.5" font-family="FreeSans" font-size="10.00">DGtal::PointVector</text>
<text text-anchor="start" x="12.5" y="-107.5" font-family="FreeSans" font-size="10.00">&lt; dim, TEuclideanRing,</text>
<text text-anchor="middle" x="67.5" y="-96.5" font-family="FreeSans" font-size="10.00"> TContainer &gt;</text>
</a>
</g>
</g>
<!-- Node2&#45;&gt;Node1 -->
<g id="edge1" class="edge"><title>Node2&#45;&gt;Node1</title>
<path fill="none" stroke="#9a32cd" stroke-dasharray="5,2" d="M67.5,-78.9407C67.5,-66.6014 67.5,-52.6619 67.5,-41.6635"/>
<polygon fill="#9a32cd" stroke="#9a32cd" points="64.0001,-79.2583 67.5,-89.2584 71.0001,-79.2584 64.0001,-79.2583"/>
<text text-anchor="middle" x="98" y="-63" font-family="FreeSans" font-size="10.00"> eigenValues</text>
</g>
<!-- Node2&#45;&gt;Node2 -->
<g id="edge3" class="edge"><title>Node2&#45;&gt;Node2</title>
<path fill="none" stroke="#9a32cd" stroke-dasharray="5,2" d="M140.59,-115.937C145.512,-114.566 148.5,-112.588 148.5,-110 148.5,-105.961 141.219,-103.405 130.668,-102.332"/>
<polygon fill="#9a32cd" stroke="#9a32cd" points="139.918,-112.501 130.668,-117.668 141.121,-119.397 139.918,-112.501"/>
<text text-anchor="middle" x="161" y="-107.5" font-family="FreeSans" font-size="10.00"> zero</text>
</g>
<!-- Node3 -->
<g id="node3" class="node"><title>Node3</title>
<polygon fill="white" stroke="#bfbfbf" points="33.5,-178.5 33.5,-197.5 101.5,-197.5 101.5,-178.5 33.5,-178.5"/>
<text text-anchor="middle" x="67.5" y="-185.5" font-family="FreeSans" font-size="10.00">TContainer</text>
</g>
<!-- Node3&#45;&gt;Node2 -->
<g id="edge2" class="edge"><title>Node3&#45;&gt;Node2</title>
<path fill="none" stroke="#9a32cd" stroke-dasharray="5,2" d="M67.5,-168.137C67.5,-156.729 67.5,-142.207 67.5,-130.658"/>
<polygon fill="#9a32cd" stroke="#9a32cd" points="64.0001,-168.282 67.5,-178.282 71.0001,-168.282 64.0001,-168.282"/>
<text text-anchor="middle" x="89.5" y="-152" font-family="FreeSans" font-size="10.00"> myArray</text>
</g>
</g>
</svg>
