<?xml version="1.0" encoding="UTF-8" standalone="no"?>
<!DOCTYPE svg PUBLIC "-//W3C//DTD SVG 1.1//EN"
 "http://www.w3.org/Graphics/SVG/1.1/DTD/svg11.dtd">
<!-- Generated by graphviz version 2.38.0 (20140413.2041)
 -->
<!-- Title: DGtal::detail::CurvatureFromDSSBaseEstimator&lt; DSSComputer, Functor &gt; Pages: 1 -->
<svg width="735pt" height="132pt"
 viewBox="0.00 0.00 735.00 132.00" xmlns="http://www.w3.org/2000/svg" xmlns:xlink="http://www.w3.org/1999/xlink">
<g id="graph0" class="graph" transform="scale(1 1) rotate(0) translate(4 128)">
<title>DGtal::detail::CurvatureFromDSSBaseEstimator&lt; DSSComputer, Functor &gt;</title>
<polygon fill="white" stroke="none" points="-4,4 -4,-128 731,-128 731,4 -4,4"/>
<!-- Node0 -->
<g id="node1" class="node"><title>Node0</title>
<polygon fill="#bfbfbf" stroke="black" points="0,-44 0,-85 141,-85 141,-44 0,-44"/>
<text text-anchor="start" x="8" y="-73" font-family="FreeSans" font-size="10.00">DGtal::detail::Curvature</text>
<text text-anchor="start" x="8" y="-62" font-family="FreeSans" font-size="10.00">FromDSSBaseEstimator&lt;</text>
<text text-anchor="middle" x="70.5" y="-51" font-family="FreeSans" font-size="10.00"> DSSComputer, Functor &gt;</text>
</g>
<!-- Node1 -->
<g id="node2" class="node"><title>Node1</title>
<g id="a_node2"><a xlink:href="classDGtal_1_1detail_1_1CurvatureFromDSSBaseEstimator.html" target="_top" xlink:title="DGtal::detail::Curvature\lFromDSSBaseEstimator\&lt;\l DSSComputer, detail::Curvature\lFromDSSLengthAndWidth \&gt;">
<polygon fill="white" stroke="black" points="328,-71.5 328,-123.5 502,-123.5 502,-71.5 328,-71.5"/>
<text text-anchor="start" x="336" y="-111.5" font-family="FreeSans" font-size="10.00">DGtal::detail::Curvature</text>
<text text-anchor="start" x="336" y="-100.5" font-family="FreeSans" font-size="10.00">FromDSSBaseEstimator&lt;</text>
<text text-anchor="start" x="336" y="-89.5" font-family="FreeSans" font-size="10.00"> DSSComputer, detail::Curvature</text>
<text text-anchor="middle" x="415" y="-78.5" font-family="FreeSans" font-size="10.00">FromDSSLengthAndWidth &gt;</text>
</a>
</g>
</g>
<!-- Node0&#45;&gt;Node1 -->
<g id="edge1" class="edge"><title>Node0&#45;&gt;Node1</title>
<path fill="none" stroke="orange" stroke-dasharray="5,2" d="M151.251,-72.1841C204.23,-77.2886 273.749,-83.9867 327.97,-89.211"/>
<polygon fill="orange" stroke="orange" points="151.512,-68.6931 141.223,-71.2178 150.841,-75.6608 151.512,-68.6931"/>
<text text-anchor="start" x="159" y="-111.5" font-family="FreeSans" font-size="10.00"> &lt; DSSComputer, detail</text>
<text text-anchor="start" x="159" y="-100.5" font-family="FreeSans" font-size="10.00">::CurvatureFromDSSLengthAnd</text>
<text text-anchor="middle" x="234.5" y="-89.5" font-family="FreeSans" font-size="10.00">Width &gt;</text>
</g>
<!-- Node3 -->
<g id="node4" class="node"><title>Node3</title>
<g id="a_node4"><a xlink:href="classDGtal_1_1detail_1_1CurvatureFromDSSBaseEstimator.html" target="_top" xlink:title="DGtal::detail::Curvature\lFromDSSBaseEstimator\&lt;\l DSSComputer, detail::Curvature\lFromDSSLength \&gt;">
<polygon fill="white" stroke="black" points="328,-0.5 328,-52.5 502,-52.5 502,-0.5 328,-0.5"/>
<text text-anchor="start" x="336" y="-40.5" font-family="FreeSans" font-size="10.00">DGtal::detail::Curvature</text>
<text text-anchor="start" x="336" y="-29.5" font-family="FreeSans" font-size="10.00">FromDSSBaseEstimator&lt;</text>
<text text-anchor="start" x="336" y="-18.5" font-family="FreeSans" font-size="10.00"> DSSComputer, detail::Curvature</text>
<text text-anchor="middle" x="415" y="-7.5" font-family="FreeSans" font-size="10.00">FromDSSLength &gt;</text>
</a>
</g>
</g>
<!-- Node0&#45;&gt;Node3 -->
<g id="edge3" class="edge"><title>Node0&#45;&gt;Node3</title>
<path fill="none" stroke="orange" stroke-dasharray="5,2" d="M150.965,-47.7099C153.672,-47.2794 156.356,-46.8742 159,-46.5 214.95,-38.5824 278.283,-33.5945 327.835,-30.5799"/>
<polygon fill="orange" stroke="orange" points="150.376,-44.2597 141.094,-49.3685 151.536,-51.1629 150.376,-44.2597"/>
<text text-anchor="start" x="163" y="-60.5" font-family="FreeSans" font-size="10.00"> &lt; DSSComputer, detail</text>
<text text-anchor="middle" x="234.5" y="-49.5" font-family="FreeSans" font-size="10.00">::CurvatureFromDSSLength &gt;</text>
</g>
<!-- Node2 -->
<g id="node3" class="node"><title>Node2</title>
<g id="a_node3"><a xlink:href="classDGtal_1_1CurvatureFromDSSEstimator.html" target="_top" xlink:title="DGtal::CurvatureFromDSSEstimator\l\&lt; DSSComputer \&gt;">
<polygon fill="white" stroke="black" points="539,-82.5 539,-112.5 727,-112.5 727,-82.5 539,-82.5"/>
<text text-anchor="start" x="547" y="-100.5" font-family="FreeSans" font-size="10.00">DGtal::CurvatureFromDSSEstimator</text>
<text text-anchor="middle" x="633" y="-89.5" font-family="FreeSans" font-size="10.00">&lt; DSSComputer &gt;</text>
</a>
</g>
</g>
<!-- Node1&#45;&gt;Node2 -->
<g id="edge2" class="edge"><title>Node1&#45;&gt;Node2</title>
<path fill="none" stroke="midnightblue" d="M512.488,-97.5C521.217,-97.5 530.049,-97.5 538.75,-97.5"/>
<polygon fill="midnightblue" stroke="midnightblue" points="512.3,-94.0001 502.3,-97.5 512.3,-101 512.3,-94.0001"/>
</g>
<!-- Node4 -->
<g id="node5" class="node"><title>Node4</title>
<g id="a_node5"><a xlink:href="classDGtal_1_1CurvatureFromDSSLengthEstimator.html" target="_top" xlink:title="DGtal::CurvatureFromDSSLength\lEstimator\&lt; DSSComputer \&gt;">
<polygon fill="white" stroke="black" points="545.5,-11.5 545.5,-41.5 720.5,-41.5 720.5,-11.5 545.5,-11.5"/>
<text text-anchor="start" x="553.5" y="-29.5" font-family="FreeSans" font-size="10.00">DGtal::CurvatureFromDSSLength</text>
<text text-anchor="middle" x="633" y="-18.5" font-family="FreeSans" font-size="10.00">Estimator&lt; DSSComputer &gt;</text>
</a>
</g>
</g>
<!-- Node3&#45;&gt;Node4 -->
<g id="edge4" class="edge"><title>Node3&#45;&gt;Node4</title>
<path fill="none" stroke="midnightblue" d="M512.37,-26.5C523.401,-26.5 534.594,-26.5 545.484,-26.5"/>
<polygon fill="midnightblue" stroke="midnightblue" points="512.3,-23.0001 502.3,-26.5 512.3,-30.0001 512.3,-23.0001"/>
</g>
</g>
</svg>
