<?xml version="1.0" encoding="UTF-8" standalone="no"?>
<!DOCTYPE svg PUBLIC "-//W3C//DTD SVG 1.1//EN"
 "http://www.w3.org/Graphics/SVG/1.1/DTD/svg11.dtd">
<!-- Generated by graphviz version 2.38.0 (20140413.2041)
 -->
<!-- Title: DGtal::CubicalComplex&lt; TKSpace, TCellContainer &gt; Pages: 1 -->
<svg width="797pt" height="159pt"
 viewBox="0.00 0.00 797.00 159.00" xmlns="http://www.w3.org/2000/svg" xmlns:xlink="http://www.w3.org/1999/xlink">
<g id="graph0" class="graph" transform="scale(1 1) rotate(0) translate(4 155)">
<title>DGtal::CubicalComplex&lt; TKSpace, TCellContainer &gt;</title>
<polygon fill="white" stroke="none" points="-4,4 -4,-155 793,-155 793,4 -4,4"/>
<!-- Node0 -->
<g id="node1" class="node"><title>Node0</title>
<polygon fill="#bfbfbf" stroke="black" points="0,-71.5 0,-101.5 155,-101.5 155,-71.5 0,-71.5"/>
<text text-anchor="start" x="8" y="-89.5" font-family="FreeSans" font-size="10.00">DGtal::CubicalComplex</text>
<text text-anchor="middle" x="77.5" y="-78.5" font-family="FreeSans" font-size="10.00">&lt; TKSpace, TCellContainer &gt;</text>
</g>
<!-- Node1 -->
<g id="node2" class="node"><title>Node1</title>
<g id="a_node2"><a xlink:href="classDGtal_1_1VoxelComplex.html" target="_top" xlink:title="This class represents a voxel complex living in some Khalimsky space. Voxel complexes are derived fro...">
<polygon fill="white" stroke="black" points="336,-71.5 336,-101.5 491,-101.5 491,-71.5 336,-71.5"/>
<text text-anchor="start" x="344" y="-89.5" font-family="FreeSans" font-size="10.00">DGtal::VoxelComplex</text>
<text text-anchor="middle" x="413.5" y="-78.5" font-family="FreeSans" font-size="10.00">&lt; TKSpace, TCellContainer &gt;</text>
</a>
</g>
</g>
<!-- Node0&#45;&gt;Node1 -->
<g id="edge1" class="edge"><title>Node0&#45;&gt;Node1</title>
<path fill="none" stroke="midnightblue" d="M165.166,-86.5C218.042,-86.5 285.023,-86.5 335.942,-86.5"/>
<polygon fill="midnightblue" stroke="midnightblue" points="165.126,-83.0001 155.126,-86.5 165.126,-90.0001 165.126,-83.0001"/>
</g>
<!-- Node4 -->
<g id="node5" class="node"><title>Node4</title>
<g id="a_node5"><a xlink:href="classDGtal_1_1CubicalComplex.html" target="_top" xlink:title="DGtal::CubicalComplex\l\&lt; KSpace, FixtureMap \&gt;">
<polygon fill="white" stroke="black" points="347,-120.5 347,-150.5 480,-150.5 480,-120.5 347,-120.5"/>
<text text-anchor="start" x="355" y="-138.5" font-family="FreeSans" font-size="10.00">DGtal::CubicalComplex</text>
<text text-anchor="middle" x="413.5" y="-127.5" font-family="FreeSans" font-size="10.00">&lt; KSpace, FixtureMap &gt;</text>
</a>
</g>
</g>
<!-- Node0&#45;&gt;Node4 -->
<g id="edge4" class="edge"><title>Node0&#45;&gt;Node4</title>
<path fill="none" stroke="orange" stroke-dasharray="5,2" d="M165.253,-99.3591C167.864,-99.744 170.452,-100.125 173,-100.5 231.827,-109.156 298.794,-118.936 346.929,-125.953"/>
<polygon fill="orange" stroke="orange" points="165.491,-95.8565 155.088,-97.8594 164.47,-102.781 165.491,-95.8565"/>
<text text-anchor="middle" x="241" y="-122.5" font-family="FreeSans" font-size="10.00"> &lt; KSpace, FixtureMap &gt;</text>
</g>
<!-- Node5 -->
<g id="node6" class="node"><title>Node5</title>
<g id="a_node6"><a xlink:href="classDGtal_1_1CubicalComplex.html" target="_top" xlink:title="DGtal::CubicalComplex\l\&lt; KSpace, typename KSpace\l ::template CellMap\&lt; CubicalCell\lData \&gt;::Type \&gt;">
<polygon fill="white" stroke="black" points="327,-0.5 327,-52.5 500,-52.5 500,-0.5 327,-0.5"/>
<text text-anchor="start" x="335" y="-40.5" font-family="FreeSans" font-size="10.00">DGtal::CubicalComplex</text>
<text text-anchor="start" x="335" y="-29.5" font-family="FreeSans" font-size="10.00">&lt; KSpace, typename KSpace</text>
<text text-anchor="start" x="335" y="-18.5" font-family="FreeSans" font-size="10.00"> ::template CellMap&lt; CubicalCell</text>
<text text-anchor="middle" x="413.5" y="-7.5" font-family="FreeSans" font-size="10.00">Data &gt;::Type &gt;</text>
</a>
</g>
</g>
<!-- Node0&#45;&gt;Node5 -->
<g id="edge6" class="edge"><title>Node0&#45;&gt;Node5</title>
<path fill="none" stroke="orange" stroke-dasharray="5,2" d="M119.804,-67.4552C136.06,-60.727 155.093,-53.7771 173,-49.5 223.176,-37.5152 280.679,-31.741 326.762,-28.9744"/>
<polygon fill="orange" stroke="orange" points="118.421,-64.2401 110.583,-71.3691 121.156,-70.6837 118.421,-64.2401"/>
<text text-anchor="start" x="173" y="-74.5" font-family="FreeSans" font-size="10.00"> &lt; KSpace, typename</text>
<text text-anchor="start" x="173" y="-63.5" font-family="FreeSans" font-size="10.00"> KSpace ::template CellMap</text>
<text text-anchor="middle" x="241" y="-52.5" font-family="FreeSans" font-size="10.00">&lt; CubicalCellData &gt;::Type &gt;</text>
</g>
<!-- Node2 -->
<g id="node3" class="node"><title>Node2</title>
<g id="a_node3"><a xlink:href="classDGtal_1_1VoxelComplex.html" target="_top" xlink:title="DGtal::VoxelComplex\l\&lt; KSpace, FixtureMap \&gt;">
<polygon fill="white" stroke="black" points="656,-104.5 656,-134.5 789,-134.5 789,-104.5 656,-104.5"/>
<text text-anchor="start" x="664" y="-122.5" font-family="FreeSans" font-size="10.00">DGtal::VoxelComplex</text>
<text text-anchor="middle" x="722.5" y="-111.5" font-family="FreeSans" font-size="10.00">&lt; KSpace, FixtureMap &gt;</text>
</a>
</g>
</g>
<!-- Node1&#45;&gt;Node2 -->
<g id="edge2" class="edge"><title>Node1&#45;&gt;Node2</title>
<path fill="none" stroke="orange" stroke-dasharray="5,2" d="M501.175,-94.3633C542.619,-98.294 592.913,-103.313 638,-108.5 643.81,-109.169 649.844,-109.897 655.888,-110.649"/>
<polygon fill="orange" stroke="orange" points="501.397,-90.8688 491.112,-93.4138 500.739,-97.8378 501.397,-90.8688"/>
<text text-anchor="middle" x="578" y="-111.5" font-family="FreeSans" font-size="10.00"> &lt; KSpace, FixtureMap &gt;</text>
</g>
<!-- Node3 -->
<g id="node4" class="node"><title>Node3</title>
<g id="a_node4"><a xlink:href="classDGtal_1_1VoxelComplex.html" target="_top" xlink:title="DGtal::VoxelComplex\l\&lt; KSpace \&gt;">
<polygon fill="white" stroke="black" points="664,-43.5 664,-73.5 781,-73.5 781,-43.5 664,-43.5"/>
<text text-anchor="start" x="672" y="-61.5" font-family="FreeSans" font-size="10.00">DGtal::VoxelComplex</text>
<text text-anchor="middle" x="722.5" y="-50.5" font-family="FreeSans" font-size="10.00">&lt; KSpace &gt;</text>
</a>
</g>
</g>
<!-- Node1&#45;&gt;Node3 -->
<g id="edge3" class="edge"><title>Node1&#45;&gt;Node3</title>
<path fill="none" stroke="orange" stroke-dasharray="5,2" d="M501.265,-76.2024C506.926,-75.604 512.542,-75.0307 518,-74.5 567.205,-69.7148 623.212,-65.3937 663.996,-62.4518"/>
<polygon fill="orange" stroke="orange" points="500.62,-72.7516 491.053,-77.3026 501.37,-79.7113 500.62,-72.7516"/>
<text text-anchor="middle" x="578" y="-77.5" font-family="FreeSans" font-size="10.00"> &lt; KSpace &gt;</text>
</g>
<!-- Node4&#45;&gt;Node2 -->
<g id="edge5" class="edge"><title>Node4&#45;&gt;Node2</title>
<path fill="none" stroke="midnightblue" d="M490.614,-131.533C541.333,-128.89 607.316,-125.451 655.75,-122.927"/>
<polygon fill="midnightblue" stroke="midnightblue" points="490.163,-128.052 480.359,-132.068 490.528,-135.042 490.163,-128.052"/>
</g>
<!-- Node5&#45;&gt;Node3 -->
<g id="edge7" class="edge"><title>Node5&#45;&gt;Node3</title>
<path fill="none" stroke="midnightblue" d="M510.257,-36.4812C560.514,-41.7197 620.438,-47.9659 663.603,-52.4652"/>
<polygon fill="midnightblue" stroke="midnightblue" points="510.326,-32.9695 500.017,-35.4138 509.6,-39.9317 510.326,-32.9695"/>
</g>
</g>
</svg>
