<?xml version="1.0" encoding="UTF-8" standalone="no"?>
<!DOCTYPE svg PUBLIC "-//W3C//DTD SVG 1.1//EN"
 "http://www.w3.org/Graphics/SVG/1.1/DTD/svg11.dtd">
<!-- Generated by graphviz version 2.36.0 (20140111.2315)
 -->
<!-- Title: DGtal::FreemanChain&lt; TInteger &gt;::ConstIterator Pages: 1 -->
<svg width="726pt" height="233pt"
 viewBox="0.00 0.00 726.00 233.00" xmlns="http://www.w3.org/2000/svg" xmlns:xlink="http://www.w3.org/1999/xlink">
<g id="graph0" class="graph" transform="scale(1 1) rotate(0) translate(4 229)">
<title>DGtal::FreemanChain&lt; TInteger &gt;::ConstIterator</title>
<polygon fill="white" stroke="none" points="-4,4 -4,-229 722,-229 722,4 -4,4"/>
<!-- Node2 -->
<g id="node1" class="node"><title>Node2</title>
<polygon fill="#bfbfbf" stroke="black" points="570.5,-124 570.5,-154 717.5,-154 717.5,-124 570.5,-124"/>
<text text-anchor="start" x="578.5" y="-142" font-family="FreeSans" font-size="10.00">DGtal::FreemanChain</text>
<text text-anchor="middle" x="644" y="-131" font-family="FreeSans" font-size="10.00">&lt; TInteger &gt;::ConstIterator</text>
</g>
<!-- Node3 -->
<g id="node2" class="node"><title>Node3</title>
<polygon fill="white" stroke="#bfbfbf" points="382.5,-173 382.5,-225 503.5,-225 503.5,-173 382.5,-173"/>
<text text-anchor="start" x="390.5" y="-213" font-family="FreeSans" font-size="10.00">std::iterator&lt; std</text>
<text text-anchor="start" x="390.5" y="-202" font-family="FreeSans" font-size="10.00">::bidirectional_iterator</text>
<text text-anchor="start" x="390.5" y="-191" font-family="FreeSans" font-size="10.00">_tag, Point, int, Point</text>
<text text-anchor="middle" x="443" y="-180" font-family="FreeSans" font-size="10.00"> *, Point &gt;</text>
</g>
<!-- Node3&#45;&gt;Node2 -->
<g id="edge1" class="edge"><title>Node3&#45;&gt;Node2</title>
<path fill="none" stroke="midnightblue" d="M513.578,-178.022C539.77,-170.125 569.011,-161.308 593.063,-154.056"/>
<polygon fill="midnightblue" stroke="midnightblue" points="512.27,-174.76 503.707,-180.998 514.291,-181.462 512.27,-174.76"/>
</g>
<!-- Node4 -->
<g id="node3" class="node"><title>Node4</title>
<g id="a_node3"><a xlink:href="classDGtal_1_1FreemanChain.html" target="_top" xlink:title="DGtal::FreemanChain\l\&lt; TInteger \&gt;">
<polygon fill="white" stroke="black" points="383.5,-124 383.5,-154 502.5,-154 502.5,-124 383.5,-124"/>
<text text-anchor="start" x="391.5" y="-142" font-family="FreeSans" font-size="10.00">DGtal::FreemanChain</text>
<text text-anchor="middle" x="443" y="-131" font-family="FreeSans" font-size="10.00">&lt; TInteger &gt;</text>
</a>
</g>
</g>
<!-- Node4&#45;&gt;Node2 -->
<g id="edge2" class="edge"><title>Node4&#45;&gt;Node2</title>
<path fill="none" stroke="#9a32cd" stroke-dasharray="5,2" d="M512.773,-139C531.358,-139 551.529,-139 570.321,-139"/>
<polygon fill="#9a32cd" stroke="#9a32cd" points="512.63,-135.5 502.63,-139 512.63,-142.5 512.63,-135.5"/>
<text text-anchor="middle" x="537" y="-142" font-family="FreeSans" font-size="10.00"> myFc</text>
</g>
<!-- Node5 -->
<g id="node4" class="node"><title>Node5</title>
<polygon fill="white" stroke="#bfbfbf" points="183,-135.5 183,-154.5 239,-154.5 239,-135.5 183,-135.5"/>
<text text-anchor="middle" x="211" y="-142.5" font-family="FreeSans" font-size="10.00">TInteger</text>
</g>
<!-- Node5&#45;&gt;Node4 -->
<g id="edge3" class="edge"><title>Node5&#45;&gt;Node4</title>
<path fill="none" stroke="#9a32cd" stroke-dasharray="5,2" d="M249.44,-144.023C285.737,-143.076 341.339,-141.626 383.48,-140.527"/>
<polygon fill="#9a32cd" stroke="#9a32cd" points="249.193,-140.528 239.287,-144.288 249.375,-147.526 249.193,-140.528"/>
<text text-anchor="middle" x="328" y="-178" font-family="FreeSans" font-size="10.00"> yn</text>
<text text-anchor="middle" x="328" y="-167" font-family="FreeSans" font-size="10.00">xn</text>
<text text-anchor="middle" x="328" y="-156" font-family="FreeSans" font-size="10.00">y0</text>
<text text-anchor="middle" x="328" y="-145" font-family="FreeSans" font-size="10.00">x0</text>
</g>
<!-- Node6 -->
<g id="node5" class="node"><title>Node6</title>
<g id="a_node5"><a xlink:href="classDGtal_1_1PointVector.html" target="_top" xlink:title="DGtal::PointVector\l\&lt; 2, Integer \&gt;">
<polygon fill="white" stroke="black" points="391,-64 391,-94 495,-94 495,-64 391,-64"/>
<text text-anchor="start" x="399" y="-82" font-family="FreeSans" font-size="10.00">DGtal::PointVector</text>
<text text-anchor="middle" x="443" y="-71" font-family="FreeSans" font-size="10.00">&lt; 2, Integer &gt;</text>
</a>
</g>
</g>
<!-- Node6&#45;&gt;Node2 -->
<g id="edge4" class="edge"><title>Node6&#45;&gt;Node2</title>
<path fill="none" stroke="#9a32cd" stroke-dasharray="5,2" d="M503.795,-97.0286C532.268,-105.614 565.931,-115.763 593.02,-123.931"/>
<polygon fill="#9a32cd" stroke="#9a32cd" points="504.544,-93.5989 493.959,-94.0631 502.523,-100.301 504.544,-93.5989"/>
<text text-anchor="middle" x="537" y="-113" font-family="FreeSans" font-size="10.00"> myXY</text>
</g>
<!-- Node7 -->
<g id="node6" class="node"><title>Node7</title>
<polygon fill="white" stroke="#bfbfbf" points="0,-68.5 0,-87.5 68,-87.5 68,-68.5 0,-68.5"/>
<text text-anchor="middle" x="34" y="-75.5" font-family="FreeSans" font-size="10.00">TContainer</text>
</g>
<!-- Node7&#45;&gt;Node6 -->
<g id="edge5" class="edge"><title>Node7&#45;&gt;Node6</title>
<path fill="none" stroke="#9a32cd" stroke-dasharray="5,2" d="M78.3566,-78.4734C99.3833,-78.6801 125.007,-78.8983 148,-79 233.111,-79.3766 332.083,-79.2626 390.748,-79.1373"/>
<polygon fill="#9a32cd" stroke="#9a32cd" points="78.1626,-74.9714 68.1278,-78.3703 78.0919,-81.971 78.1626,-74.9714"/>
<text text-anchor="middle" x="211" y="-82" font-family="FreeSans" font-size="10.00"> myArray</text>
</g>
<!-- Node8 -->
<g id="node7" class="node"><title>Node8</title>
<g id="a_node7"><a xlink:href="classDGtal_1_1PointVector.html" target="_top" xlink:title="Aim: Implements basic operations that will be used in Point and Vector classes. ">
<polygon fill="white" stroke="black" points="148,0.5 148,-40.5 274,-40.5 274,0.5 148,0.5"/>
<text text-anchor="start" x="156" y="-28.5" font-family="FreeSans" font-size="10.00">DGtal::PointVector</text>
<text text-anchor="start" x="156" y="-17.5" font-family="FreeSans" font-size="10.00">&lt; dim, TEuclideanRing,</text>
<text text-anchor="middle" x="211" y="-6.5" font-family="FreeSans" font-size="10.00"> TContainer &gt;</text>
</a>
</g>
</g>
<!-- Node7&#45;&gt;Node8 -->
<g id="edge7" class="edge"><title>Node7&#45;&gt;Node8</title>
<path fill="none" stroke="#9a32cd" stroke-dasharray="5,2" d="M73.4757,-65.2481C95.3137,-58.0103 123.167,-48.7789 148.013,-40.5443"/>
<polygon fill="#9a32cd" stroke="#9a32cd" points="72.2888,-61.9541 63.8977,-68.4225 74.4911,-68.5987 72.2888,-61.9541"/>
<text text-anchor="middle" x="108" y="-63" font-family="FreeSans" font-size="10.00"> myArray</text>
</g>
<!-- Node8&#45;&gt;Node6 -->
<g id="edge6" class="edge"><title>Node8&#45;&gt;Node6</title>
<path fill="none" stroke="#9a32cd" stroke-dasharray="5,2" d="M283.937,-38.9147C286.659,-39.6205 289.354,-40.3175 292,-41 324.907,-49.487 361.918,-58.8651 390.943,-66.1813"/>
<polygon fill="#9a32cd" stroke="#9a32cd" points="284.563,-35.4611 274.004,-36.3322 282.802,-42.2359 284.563,-35.4611"/>
<text text-anchor="middle" x="328" y="-61" font-family="FreeSans" font-size="10.00"> zero</text>
</g>
<!-- Node8&#45;&gt;Node6 -->
<g id="edge9" class="edge"><title>Node8&#45;&gt;Node6</title>
<path fill="none" stroke="orange" stroke-dasharray="5,2" d="M284.103,-14.7614C309.868,-14.9819 338.755,-17.6862 364,-26 387.792,-33.8354 411.006,-51.2363 425.835,-63.9701"/>
<polygon fill="orange" stroke="orange" points="284.011,-11.2616 274.024,-14.7976 284.036,-18.2616 284.011,-11.2616"/>
<text text-anchor="middle" x="328" y="-29" font-family="FreeSans" font-size="10.00"> &lt; 2, Integer &gt;</text>
</g>
<!-- Node8&#45;&gt;Node8 -->
<g id="edge8" class="edge"><title>Node8&#45;&gt;Node8</title>
<path fill="none" stroke="#9a32cd" stroke-dasharray="5,2" d="M193.766,-50.6009C196.515,-55.0235 202.259,-58 211,-58 225.344,-58 231.619,-49.9844 229.826,-40.7163"/>
<polygon fill="#9a32cd" stroke="#9a32cd" points="197.22,-50.0324 192.174,-40.7163 190.309,-51.1457 197.22,-50.0324"/>
<text text-anchor="middle" x="211" y="-61" font-family="FreeSans" font-size="10.00"> zero</text>
</g>
</g>
</svg>
