<?xml version="1.0" encoding="UTF-8" standalone="no"?>
<!DOCTYPE svg PUBLIC "-//W3C//DTD SVG 1.1//EN"
 "http://www.w3.org/Graphics/SVG/1.1/DTD/svg11.dtd">
<!-- Generated by graphviz version 2.38.0 (20140413.2041)
 -->
<!-- Title: DGtal::Astroid2D&lt; TSpace &gt; Pages: 1 -->
<svg width="163pt" height="163pt"
 viewBox="0.00 0.00 163.00 163.00" xmlns="http://www.w3.org/2000/svg" xmlns:xlink="http://www.w3.org/1999/xlink">
<g id="graph0" class="graph" transform="scale(1 1) rotate(0) translate(4 159)">
<title>DGtal::Astroid2D&lt; TSpace &gt;</title>
<polygon fill="white" stroke="none" points="-4,4 -4,-159 159,-159 159,4 -4,4"/>
<!-- Node0 -->
<g id="node1" class="node"><title>Node0</title>
<polygon fill="#bfbfbf" stroke="black" points="0,-67.5 0,-86.5 155,-86.5 155,-67.5 0,-67.5"/>
<text text-anchor="middle" x="77.5" y="-74.5" font-family="FreeSans" font-size="10.00">DGtal::Astroid2D&lt; TSpace &gt;</text>
</g>
<!-- Node2 -->
<g id="node3" class="node"><title>Node2</title>
<g id="a_node3"><a xlink:href="classDGtal_1_1Astroid2D.html" target="_top" xlink:title="DGtal::Astroid2D\&lt; Space \&gt;">
<polygon fill="white" stroke="black" points="3,-0.5 3,-19.5 152,-19.5 152,-0.5 3,-0.5"/>
<text text-anchor="middle" x="77.5" y="-7.5" font-family="FreeSans" font-size="10.00">DGtal::Astroid2D&lt; Space &gt;</text>
</a>
</g>
</g>
<!-- Node0&#45;&gt;Node2 -->
<g id="edge2" class="edge"><title>Node0&#45;&gt;Node2</title>
<path fill="none" stroke="orange" stroke-dasharray="5,2" d="M77.5,-57.037C77.5,-44.6703 77.5,-29.1198 77.5,-19.6273"/>
<polygon fill="orange" stroke="orange" points="74.0001,-57.2338 77.5,-67.2338 81.0001,-57.2338 74.0001,-57.2338"/>
<text text-anchor="middle" x="105.5" y="-41" font-family="FreeSans" font-size="10.00"> &lt; Space &gt;</text>
</g>
<!-- Node1 -->
<g id="node2" class="node"><title>Node1</title>
<g id="a_node2"><a xlink:href="classDGtal_1_1StarShaped2D.html" target="_top" xlink:title="DGtal::StarShaped2D\l\&lt; TSpace \&gt;">
<polygon fill="white" stroke="black" points="17.5,-124.5 17.5,-154.5 137.5,-154.5 137.5,-124.5 17.5,-124.5"/>
<text text-anchor="start" x="25.5" y="-142.5" font-family="FreeSans" font-size="10.00">DGtal::StarShaped2D</text>
<text text-anchor="middle" x="77.5" y="-131.5" font-family="FreeSans" font-size="10.00">&lt; TSpace &gt;</text>
</a>
</g>
</g>
<!-- Node1&#45;&gt;Node0 -->
<g id="edge1" class="edge"><title>Node1&#45;&gt;Node0</title>
<path fill="none" stroke="midnightblue" d="M77.5,-114.352C77.5,-104.513 77.5,-93.7753 77.5,-86.5399"/>
<polygon fill="midnightblue" stroke="midnightblue" points="74.0001,-114.468 77.5,-124.468 81.0001,-114.468 74.0001,-114.468"/>
</g>
</g>
</svg>
