<?xml version="1.0" encoding="UTF-8" standalone="no"?>
<!DOCTYPE svg PUBLIC "-//W3C//DTD SVG 1.1//EN"
 "http://www.w3.org/Graphics/SVG/1.1/DTD/svg11.dtd">
<!-- Generated by graphviz version 2.36.0 (20140111.2315)
 -->
<!-- Title: DGtal::COBANaivePlaneComputer&lt; TSpace, TInternalInteger &gt; Pages: 1 -->
<!--zoomable 777 -->
<svg id="main" version="1.1" xmlns="http://www.w3.org/2000/svg" xmlns:xlink="http://www.w3.org/1999/xlink" xml:space="preserve" onload="init(evt)">
<style type="text/css"><![CDATA[
.edge:hover path { stroke: red; }
.edge:hover polygon { stroke: red; fill: red; }
]]></style>
<script type="text/javascript"><![CDATA[
var edges = document.getElementsByTagName('g');
if (edges && edges.length) {
  for (var i=0;i<edges.length;i++) {
    if (edges[i].id.substr(0,4)=='edge') {
      edges[i].setAttribute('class','edge');
    }
  }
}
]]></script>
        <defs>
                <circle id="rim" cx="0" cy="0" r="7"/>
                <circle id="rim2" cx="0" cy="0" r="3.5"/>
                <g id="zoomPlus">
                        <use xlink:href="#rim" fill="#404040">
                                <set attributeName="fill" to="#808080" begin="zoomplus.mouseover" end="zoomplus.mouseout"/>
                        </use>
                        <path d="M-4,0h8M0,-4v8" fill="none" stroke="white" stroke-width="1.5" pointer-events="none"/>
                </g>
                <g id="zoomMin">
                        <use xlink:href="#rim" fill="#404040">
                                <set attributeName="fill" to="#808080" begin="zoomminus.mouseover" end="zoomminus.mouseout"/>
                        </use>
                        <path d="M-4,0h8" fill="none" stroke="white" stroke-width="1.5" pointer-events="none"/>
                </g>
                <g id="dirArrow">
                        <path fill="none" stroke="white" stroke-width="1.5" d="M0,-3.0v7 M-2.5,-0.5L0,-3.0L2.5,-0.5"/>
                </g>
               <g id="resetDef">
                       <use xlink:href="#rim2" fill="#404040">
                               <set attributeName="fill" to="#808080" begin="reset.mouseover" end="reset.mouseout"/>
                       </use>
               </g>
        </defs>

<script type="text/javascript">
var viewWidth = 2128;
var viewHeight = 777;
var sectionId = 'dynsection-1';
</script>
<script xlink:href="svgpan.js"/>
<svg id="graph" class="graph">
<g id="viewport">
<title>DGtal::COBANaivePlaneComputer&lt; TSpace, TInternalInteger &gt;</title>
<polygon fill="white" stroke="none" points="-4,4 -4,-773 2124,-773 2124,4 -4,4"/>
<!-- Node3 -->
<g id="node1" class="node"><title>Node3</title>
<polygon fill="#bfbfbf" stroke="black" points="1940.5,-55 1940.5,-85 2119.5,-85 2119.5,-55 1940.5,-55"/>
<text text-anchor="start" x="1948.5" y="-73" font-family="FreeSans" font-size="10.00">DGtal::COBANaivePlaneComputer</text>
<text text-anchor="middle" x="2030" y="-62" font-family="FreeSans" font-size="10.00">&lt; TSpace, TInternalInteger &gt;</text>
</g>
<!-- Node4 -->
<g id="node2" class="node"><title>Node4</title>
<polygon fill="white" stroke="#bfbfbf" points="1026.5,-21.5 1026.5,-40.5 1125.5,-40.5 1125.5,-21.5 1026.5,-21.5"/>
<text text-anchor="middle" x="1076" y="-28.5" font-family="FreeSans" font-size="10.00">std::set&lt; Point &gt;</text>
</g>
<!-- Node4&#45;&gt;Node3 -->
<g id="edge1" class="edge"><title>Node4&#45;&gt;Node3</title>
<path fill="none" stroke="#9a32cd" stroke-dasharray="5,2" d="M1135.59,-31C1177.49,-31 1235.22,-31 1286,-31 1286,-31 1286,-31 1773,-31 1839.42,-31 1914.45,-43.9909 1966.02,-54.9774"/>
<polygon fill="#9a32cd" stroke="#9a32cd" points="1135.57,-27.5001 1125.57,-31 1135.57,-34.5001 1135.57,-27.5001"/>
<text text-anchor="middle" x="1559" y="-34" font-family="FreeSans" font-size="10.00"> myPointSet</text>
</g>
<!-- Node5 -->
<g id="node3" class="node"><title>Node5</title>
<g id="a_node3"><a xlink:href="classDGtal_1_1PointVector.html" target="_top" xlink:title="Aim: Implements basic operations that will be used in Point and Vector classes. ">
<polygon fill="white" stroke="black" points="730,-127.5 730,-168.5 856,-168.5 856,-127.5 730,-127.5"/>
<text text-anchor="start" x="738" y="-156.5" font-family="FreeSans" font-size="10.00">DGtal::PointVector</text>
<text text-anchor="start" x="738" y="-145.5" font-family="FreeSans" font-size="10.00">&lt; dim, TEuclideanRing,</text>
<text text-anchor="middle" x="793" y="-134.5" font-family="FreeSans" font-size="10.00"> TContainer &gt;</text>
</a>
</g>
</g>
<!-- Node5&#45;&gt;Node3 -->
<g id="edge42" class="edge"><title>Node5&#45;&gt;Node3</title>
<path fill="none" stroke="#9a32cd" stroke-dasharray="5,2" d="M830.079,-121.642C845.884,-111.375 865.109,-100.528 884,-94 964.865,-66.0568 989.444,-70 1075,-70 1075,-70 1075,-70 1773,-70 1828.67,-70 1891.14,-70 1940.44,-70"/>
<polygon fill="#9a32cd" stroke="#9a32cd" points="828.046,-118.791 821.674,-127.255 831.934,-124.612 828.046,-118.791"/>
<text text-anchor="middle" x="1423" y="-84" font-family="FreeSans" font-size="10.00"> _grad</text>
<text text-anchor="middle" x="1423" y="-73" font-family="FreeSans" font-size="10.00">myWidth</text>
</g>
<!-- Node5&#45;&gt;Node4 -->
<g id="edge2" class="edge"><title>Node5&#45;&gt;Node4</title>
<path fill="none" stroke="#9a32cd" stroke-dasharray="5,2" d="M810.411,-118.938C825.931,-94.5378 851.641,-61.1498 884,-45 928.475,-22.8032 986.143,-21.7571 1026.43,-24.7282"/>
<polygon fill="#9a32cd" stroke="#9a32cd" points="807.419,-117.121 805.161,-127.472 813.381,-120.789 807.419,-117.121"/>
<text text-anchor="middle" x="938" y="-48" font-family="FreeSans" font-size="10.00"> keys</text>
</g>
<!-- Node5&#45;&gt;Node5 -->
<g id="edge4" class="edge"><title>Node5&#45;&gt;Node5</title>
<path fill="none" stroke="#9a32cd" stroke-dasharray="5,2" d="M768.67,-178.601C772.55,-183.023 780.66,-186 793,-186 813.25,-186 822.109,-177.984 819.578,-168.716"/>
<polygon fill="#9a32cd" stroke="#9a32cd" points="772.052,-177.691 766.422,-168.716 765.227,-179.244 772.052,-177.691"/>
<text text-anchor="middle" x="793" y="-189" font-family="FreeSans" font-size="10.00"> zero</text>
</g>
<!-- Node9 -->
<g id="node7" class="node"><title>Node9</title>
<g id="a_node7"><a xlink:href="structDGtal_1_1COBANaivePlaneComputer_1_1State.html" target="_top" xlink:title="DGtal::COBANaivePlaneComputer\l\&lt; TSpace, TInternalInteger\l \&gt;::State">
<polygon fill="white" stroke="black" points="1682.5,-119.5 1682.5,-160.5 1861.5,-160.5 1861.5,-119.5 1682.5,-119.5"/>
<text text-anchor="start" x="1690.5" y="-148.5" font-family="FreeSans" font-size="10.00">DGtal::COBANaivePlaneComputer</text>
<text text-anchor="start" x="1690.5" y="-137.5" font-family="FreeSans" font-size="10.00">&lt; TSpace, TInternalInteger</text>
<text text-anchor="middle" x="1772" y="-126.5" font-family="FreeSans" font-size="10.00"> &gt;::State</text>
</a>
</g>
</g>
<!-- Node5&#45;&gt;Node9 -->
<g id="edge41" class="edge"><title>Node5&#45;&gt;Node9</title>
<path fill="none" stroke="#9a32cd" stroke-dasharray="5,2" d="M866.442,-152.205C943.807,-156.329 1070.02,-162 1179,-162 1179,-162 1179,-162 1560,-162 1600.33,-162 1644.76,-157.975 1682.41,-153.368"/>
<polygon fill="#9a32cd" stroke="#9a32cd" points="866.497,-148.703 856.323,-151.66 866.12,-155.693 866.497,-148.703"/>
<text text-anchor="middle" x="1287" y="-176" font-family="FreeSans" font-size="10.00"> ptMin</text>
<text text-anchor="middle" x="1287" y="-165" font-family="FreeSans" font-size="10.00">ptMax</text>
</g>
<!-- Node10 -->
<g id="node8" class="node"><title>Node10</title>
<g id="a_node8"><a xlink:href="classDGtal_1_1PointVector.html" target="_top" xlink:title="DGtal::PointVector\l\&lt; 3, InternalInteger \&gt;">
<polygon fill="white" stroke="black" points="1015.5,-102 1015.5,-132 1136.5,-132 1136.5,-102 1015.5,-102"/>
<text text-anchor="start" x="1023.5" y="-120" font-family="FreeSans" font-size="10.00">DGtal::PointVector</text>
<text text-anchor="middle" x="1076" y="-109" font-family="FreeSans" font-size="10.00">&lt; 3, InternalInteger &gt;</text>
</a>
</g>
</g>
<!-- Node5&#45;&gt;Node10 -->
<g id="edge12" class="edge"><title>Node5&#45;&gt;Node10</title>
<path fill="none" stroke="#9a32cd" stroke-dasharray="5,2" d="M835.681,-122.732C850.411,-115.148 867.442,-107.831 884,-104 927.229,-93.9986 977.313,-97.9636 1015.35,-104.048"/>
<polygon fill="#9a32cd" stroke="#9a32cd" points="834.003,-119.661 826.832,-127.46 837.301,-125.835 834.003,-119.661"/>
<text text-anchor="middle" x="938" y="-107" font-family="FreeSans" font-size="10.00"> zero</text>
</g>
<!-- Node5&#45;&gt;Node10 -->
<g id="edge13" class="edge"><title>Node5&#45;&gt;Node10</title>
<path fill="none" stroke="orange" stroke-dasharray="5,2" d="M866.446,-139.943C872.385,-139.285 878.294,-138.631 884,-138 927.934,-133.144 977.556,-127.689 1015.21,-123.556"/>
<polygon fill="orange" stroke="orange" points="866.008,-136.47 856.455,-141.051 866.78,-143.427 866.008,-136.47"/>
<text text-anchor="middle" x="938" y="-141" font-family="FreeSans" font-size="10.00"> &lt; 3, InternalInteger &gt;</text>
</g>
<!-- Node14 -->
<g id="node12" class="node"><title>Node14</title>
<g id="a_node12"><a xlink:href="classDGtal_1_1LatticePolytope2D.html" target="_top" xlink:title="DGtal::LatticePolytope2D\l\&lt; InternalSpace2 \&gt;">
<polygon fill="white" stroke="black" points="1490.5,-420 1490.5,-450 1627.5,-450 1627.5,-420 1490.5,-420"/>
<text text-anchor="start" x="1498.5" y="-438" font-family="FreeSans" font-size="10.00">DGtal::LatticePolytope2D</text>
<text text-anchor="middle" x="1559" y="-427" font-family="FreeSans" font-size="10.00">&lt; InternalSpace2 &gt;</text>
</a>
</g>
</g>
<!-- Node5&#45;&gt;Node14 -->
<g id="edge36" class="edge"><title>Node5&#45;&gt;Node14</title>
<path fill="none" stroke="#9a32cd" stroke-dasharray="5,2" d="M860.193,-171.369C868.141,-173.566 876.203,-175.521 884,-177 1022.26,-203.226 1066.64,-152.071 1200,-197 1348.88,-247.159 1494.97,-375.747 1542.2,-419.871"/>
<polygon fill="#9a32cd" stroke="#9a32cd" points="861.158,-168.004 850.579,-168.583 859.21,-174.728 861.158,-168.004"/>
<text text-anchor="middle" x="1180" y="-310" font-family="FreeSans" font-size="10.00"> _N</text>
<text text-anchor="middle" x="1180" y="-299" font-family="FreeSans" font-size="10.00">_A</text>
<text text-anchor="middle" x="1180" y="-288" font-family="FreeSans" font-size="10.00">_u</text>
<text text-anchor="middle" x="1180" y="-277" font-family="FreeSans" font-size="10.00">_B</text>
<text text-anchor="middle" x="1180" y="-266" font-family="FreeSans" font-size="10.00">_v</text>
<text text-anchor="middle" x="1180" y="-255" font-family="FreeSans" font-size="10.00">_B1</text>
<text text-anchor="middle" x="1180" y="-244" font-family="FreeSans" font-size="10.00">_DV</text>
<text text-anchor="middle" x="1180" y="-233" font-family="FreeSans" font-size="10.00">_B2</text>
<text text-anchor="middle" x="1180" y="-222" font-family="FreeSans" font-size="10.00">_A1</text>
<text text-anchor="middle" x="1180" y="-211" font-family="FreeSans" font-size="10.00">_A2</text>
<text text-anchor="middle" x="1180" y="-200" font-family="FreeSans" font-size="10.00">...</text>
</g>
<!-- Node26 -->
<g id="node24" class="node"><title>Node26</title>
<polygon fill="white" stroke="#bfbfbf" points="1023,-446 1023,-476 1129,-476 1129,-446 1023,-446"/>
<text text-anchor="start" x="1031" y="-464" font-family="FreeSans" font-size="10.00">std::vector&lt; DGtal</text>
<text text-anchor="middle" x="1076" y="-453" font-family="FreeSans" font-size="10.00">::PointVector &gt;</text>
</g>
<!-- Node5&#45;&gt;Node26 -->
<g id="edge34" class="edge"><title>Node5&#45;&gt;Node26</title>
<path fill="none" stroke="#9a32cd" stroke-dasharray="5,2" d="M828.07,-175.39C841.416,-187.567 855.914,-202.807 866,-219 879.375,-240.473 871.928,-250.768 884,-273 926.861,-351.931 939.321,-375.577 1010,-431 1017.34,-436.752 1025.95,-441.709 1034.47,-445.842"/>
<polygon fill="#9a32cd" stroke="#9a32cd" points="830.195,-172.597 820.387,-168.59 825.556,-177.839 830.195,-172.597"/>
<text text-anchor="middle" x="938" y="-419" font-family="FreeSans" font-size="10.00"> elements</text>
</g>
<!-- Node27 -->
<g id="node25" class="node"><title>Node27</title>
<g id="a_node25"><a xlink:href="classDGtal_1_1LatticePolytope2D.html" target="_top" xlink:title="Aim: Represents a 2D polytope, i.e. a convex polygon, in the two&#45;dimensional digital plane...">
<polygon fill="white" stroke="black" points="1218.5,-445 1218.5,-475 1355.5,-475 1355.5,-445 1218.5,-445"/>
<text text-anchor="start" x="1226.5" y="-463" font-family="FreeSans" font-size="10.00">DGtal::LatticePolytope2D</text>
<text text-anchor="middle" x="1287" y="-452" font-family="FreeSans" font-size="10.00">&lt; TSpace, TSequence &gt;</text>
</a>
</g>
</g>
<!-- Node5&#45;&gt;Node27 -->
<g id="edge40" class="edge"><title>Node5&#45;&gt;Node27</title>
<path fill="none" stroke="#9a32cd" stroke-dasharray="5,2" d="M822.431,-175.565C839.116,-190.266 861.328,-207.45 884,-218 990.298,-267.465 1053.42,-196.187 1142,-273 1159.53,-288.2 1147.95,-302.173 1160,-322 1190.66,-372.46 1241.41,-420.922 1268.19,-444.723"/>
<polygon fill="#9a32cd" stroke="#9a32cd" points="824.473,-172.693 814.706,-168.587 819.781,-177.888 824.473,-172.693"/>
<text text-anchor="middle" x="1076" y="-386" font-family="FreeSans" font-size="10.00"> _N</text>
<text text-anchor="middle" x="1076" y="-375" font-family="FreeSans" font-size="10.00">_A</text>
<text text-anchor="middle" x="1076" y="-364" font-family="FreeSans" font-size="10.00">_u</text>
<text text-anchor="middle" x="1076" y="-353" font-family="FreeSans" font-size="10.00">_B</text>
<text text-anchor="middle" x="1076" y="-342" font-family="FreeSans" font-size="10.00">_v</text>
<text text-anchor="middle" x="1076" y="-331" font-family="FreeSans" font-size="10.00">_B1</text>
<text text-anchor="middle" x="1076" y="-320" font-family="FreeSans" font-size="10.00">_DV</text>
<text text-anchor="middle" x="1076" y="-309" font-family="FreeSans" font-size="10.00">_B2</text>
<text text-anchor="middle" x="1076" y="-298" font-family="FreeSans" font-size="10.00">_A1</text>
<text text-anchor="middle" x="1076" y="-287" font-family="FreeSans" font-size="10.00">_A2</text>
<text text-anchor="middle" x="1076" y="-276" font-family="FreeSans" font-size="10.00">...</text>
</g>
<!-- Node6 -->
<g id="node4" class="node"><title>Node6</title>
<polygon fill="white" stroke="#bfbfbf" points="468,-138.5 468,-157.5 536,-157.5 536,-138.5 468,-138.5"/>
<text text-anchor="middle" x="502" y="-145.5" font-family="FreeSans" font-size="10.00">TContainer</text>
</g>
<!-- Node6&#45;&gt;Node5 -->
<g id="edge3" class="edge"><title>Node6&#45;&gt;Node5</title>
<path fill="none" stroke="#9a32cd" stroke-dasharray="5,2" d="M546.362,-148C595.102,-148 674.635,-148 729.947,-148"/>
<polygon fill="#9a32cd" stroke="#9a32cd" points="546.152,-144.5 536.152,-148 546.152,-151.5 546.152,-144.5"/>
<text text-anchor="middle" x="645" y="-151" font-family="FreeSans" font-size="10.00"> myArray</text>
</g>
<!-- Node7 -->
<g id="node5" class="node"><title>Node7</title>
<g id="a_node5"><a xlink:title="STL class. ">
<polygon fill="white" stroke="#bfbfbf" points="752.5,-0.5 752.5,-19.5 833.5,-19.5 833.5,-0.5 752.5,-0.5"/>
<text text-anchor="middle" x="793" y="-7.5" font-family="FreeSans" font-size="10.00">std::set&lt; K &gt;</text>
</a>
</g>
</g>
<!-- Node7&#45;&gt;Node4 -->
<g id="edge5" class="edge"><title>Node7&#45;&gt;Node4</title>
<path fill="none" stroke="orange" stroke-dasharray="5,2" d="M843.683,-7.08502C883.849,-5.48822 941.772,-4.90516 992,-11 1009.07,-13.0712 1027.71,-17.3718 1043,-21.4561"/>
<polygon fill="orange" stroke="orange" points="843.453,-3.59159 833.614,-7.52132 843.756,-10.585 843.453,-3.59159"/>
<text text-anchor="middle" x="938" y="-14" font-family="FreeSans" font-size="10.00"> &lt; Point &gt;</text>
</g>
<!-- Node8 -->
<g id="node6" class="node"><title>Node8</title>
<polygon fill="white" stroke="#bfbfbf" points="487.5,-0.5 487.5,-19.5 516.5,-19.5 516.5,-0.5 487.5,-0.5"/>
<text text-anchor="middle" x="502" y="-7.5" font-family="FreeSans" font-size="10.00">K</text>
</g>
<!-- Node8&#45;&gt;Node7 -->
<g id="edge6" class="edge"><title>Node8&#45;&gt;Node7</title>
<path fill="none" stroke="#9a32cd" stroke-dasharray="5,2" d="M526.609,-10C576.133,-10 691.326,-10 752.378,-10"/>
<polygon fill="#9a32cd" stroke="#9a32cd" points="526.551,-6.5001 516.551,-10 526.551,-13.5001 526.551,-6.5001"/>
<text text-anchor="middle" x="645" y="-13" font-family="FreeSans" font-size="10.00"> keys</text>
</g>
<!-- Node9&#45;&gt;Node3 -->
<g id="edge7" class="edge"><title>Node9&#45;&gt;Node3</title>
<path fill="none" stroke="#9a32cd" stroke-dasharray="5,2" d="M1858.15,-116.717C1896.28,-106.292 1940.13,-94.2997 1973.87,-85.0757"/>
<polygon fill="#9a32cd" stroke="#9a32cd" points="1856.8,-113.457 1848.08,-119.471 1858.65,-120.209 1856.8,-113.457"/>
<text text-anchor="middle" x="1901" y="-124" font-family="FreeSans" font-size="10.00"> _state</text>
<text text-anchor="middle" x="1901" y="-113" font-family="FreeSans" font-size="10.00">myState</text>
</g>
<!-- Node10&#45;&gt;Node9 -->
<g id="edge8" class="edge"><title>Node10&#45;&gt;Node9</title>
<path fill="none" stroke="#9a32cd" stroke-dasharray="5,2" d="M1146.88,-118.086C1225.83,-119.43 1358.17,-122.039 1472,-126 1542.76,-128.462 1622.9,-132.269 1682.38,-135.292"/>
<polygon fill="#9a32cd" stroke="#9a32cd" points="1146.63,-114.581 1136.57,-117.912 1146.51,-121.58 1146.63,-114.581"/>
<text text-anchor="middle" x="1423" y="-140" font-family="FreeSans" font-size="10.00"> N</text>
<text text-anchor="middle" x="1423" y="-129" font-family="FreeSans" font-size="10.00">centroid</text>
</g>
<!-- Node11 -->
<g id="node9" class="node"><title>Node11</title>
<polygon fill="white" stroke="#bfbfbf" points="720,-229 720,-259 866,-259 866,-229 720,-229"/>
<text text-anchor="start" x="728" y="-247" font-family="FreeSans" font-size="10.00">std::array&lt; InternalInteger,</text>
<text text-anchor="middle" x="793" y="-236" font-family="FreeSans" font-size="10.00"> dim &gt;</text>
</g>
<!-- Node11&#45;&gt;Node10 -->
<g id="edge9" class="edge"><title>Node11&#45;&gt;Node10</title>
<path fill="none" stroke="#9a32cd" stroke-dasharray="5,2" d="M836.661,-224.719C892.882,-199.31 990.609,-155.141 1041.71,-132.048"/>
<polygon fill="#9a32cd" stroke="#9a32cd" points="835.009,-221.625 827.338,-228.933 837.892,-228.004 835.009,-221.625"/>
<text text-anchor="middle" x="938" y="-206" font-family="FreeSans" font-size="10.00"> myArray</text>
</g>
<!-- Node12 -->
<g id="node10" class="node"><title>Node12</title>
<g id="a_node10"><a xlink:title="STL class. ">
<polygon fill="white" stroke="#bfbfbf" points="301,-287.5 301,-306.5 391,-306.5 391,-287.5 301,-287.5"/>
<text text-anchor="middle" x="346" y="-294.5" font-family="FreeSans" font-size="10.00">std::array&lt; T &gt;</text>
</a>
</g>
</g>
<!-- Node12&#45;&gt;Node11 -->
<g id="edge10" class="edge"><title>Node12&#45;&gt;Node11</title>
<path fill="none" stroke="orange" stroke-dasharray="5,2" d="M401.641,-290.492C481.642,-280.964 630.776,-263.202 719.749,-252.605"/>
<polygon fill="orange" stroke="orange" points="400.811,-287.066 391.295,-291.724 401.639,-294.017 400.811,-287.066"/>
<text text-anchor="start" x="458" y="-301" font-family="FreeSans" font-size="10.00"> &lt; InternalInteger,</text>
<text text-anchor="middle" x="502" y="-290" font-family="FreeSans" font-size="10.00"> dim &gt;</text>
</g>
<!-- Node13 -->
<g id="node11" class="node"><title>Node13</title>
<polygon fill="white" stroke="#bfbfbf" points="0.5,-395.5 0.5,-414.5 29.5,-414.5 29.5,-395.5 0.5,-395.5"/>
<text text-anchor="middle" x="15" y="-402.5" font-family="FreeSans" font-size="10.00">T</text>
</g>
<!-- Node13&#45;&gt;Node12 -->
<g id="edge11" class="edge"><title>Node13&#45;&gt;Node12</title>
<path fill="none" stroke="#9a32cd" stroke-dasharray="5,2" d="M28.4164,-386.967C33.8295,-380.064 40.6241,-372.528 48,-367 74.4322,-347.188 84.3866,-346.579 116,-337 178.765,-317.982 254.118,-306.991 300.789,-301.499"/>
<polygon fill="#9a32cd" stroke="#9a32cd" points="25.4813,-385.05 22.3589,-395.174 31.1134,-389.207 25.4813,-385.05"/>
<text text-anchor="middle" x="73" y="-370" font-family="FreeSans" font-size="10.00"> elements</text>
</g>
<!-- Node17 -->
<g id="node15" class="node"><title>Node17</title>
<g id="a_node15"><a xlink:title="STL class. ">
<polygon fill="white" stroke="#bfbfbf" points="147.5,-346.5 147.5,-365.5 226.5,-365.5 226.5,-346.5 147.5,-346.5"/>
<text text-anchor="middle" x="187" y="-353.5" font-family="FreeSans" font-size="10.00">std::list&lt; T &gt;</text>
</a>
</g>
</g>
<!-- Node13&#45;&gt;Node17 -->
<g id="edge18" class="edge"><title>Node13&#45;&gt;Node17</title>
<path fill="none" stroke="#9a32cd" stroke-dasharray="5,2" d="M39.4422,-398.243C68.8967,-389.753 119.62,-375.133 152.988,-365.515"/>
<polygon fill="#9a32cd" stroke="#9a32cd" points="38.2639,-394.94 29.6244,-401.073 40.2026,-401.666 38.2639,-394.94"/>
<text text-anchor="middle" x="73" y="-399" font-family="FreeSans" font-size="10.00"> elements</text>
</g>
<!-- Node20 -->
<g id="node18" class="node"><title>Node20</title>
<g id="a_node18"><a xlink:title="STL class. ">
<polygon fill="white" stroke="#bfbfbf" points="139.5,-446.5 139.5,-465.5 234.5,-465.5 234.5,-446.5 139.5,-446.5"/>
<text text-anchor="middle" x="187" y="-453.5" font-family="FreeSans" font-size="10.00">std::vector&lt; T &gt;</text>
</a>
</g>
</g>
<!-- Node13&#45;&gt;Node20 -->
<g id="edge22" class="edge"><title>Node13&#45;&gt;Node20</title>
<path fill="none" stroke="#9a32cd" stroke-dasharray="5,2" d="M39.5712,-412.071C69.4379,-421.031 121.024,-436.507 154.313,-446.494"/>
<polygon fill="#9a32cd" stroke="#9a32cd" points="40.2085,-408.608 29.6244,-409.087 38.197,-415.313 40.2085,-408.608"/>
<text text-anchor="middle" x="73" y="-432" font-family="FreeSans" font-size="10.00"> elements</text>
</g>
<!-- Node23 -->
<g id="node21" class="node"><title>Node23</title>
<g id="a_node21"><a xlink:href="structDGtal_1_1NumberTraits.html" target="_top" xlink:title="Aim: The traits class for all models of Cinteger. ">
<polygon fill="white" stroke="black" points="116.5,-549.5 116.5,-568.5 257.5,-568.5 257.5,-549.5 116.5,-549.5"/>
<text text-anchor="middle" x="187" y="-556.5" font-family="FreeSans" font-size="10.00">DGtal::NumberTraits&lt; T &gt;</text>
</a>
</g>
</g>
<!-- Node13&#45;&gt;Node23 -->
<g id="edge27" class="edge"><title>Node13&#45;&gt;Node23</title>
<path fill="none" stroke="#9a32cd" stroke-dasharray="5,2" d="M29.4316,-422.795C34.9163,-429.67 41.4932,-437.443 48,-444 90.3987,-486.723 147.304,-530.391 172.744,-549.296"/>
<polygon fill="#9a32cd" stroke="#9a32cd" points="32.0581,-420.471 23.1558,-414.726 26.5326,-424.768 32.0581,-420.471"/>
<text text-anchor="middle" x="73" y="-501" font-family="FreeSans" font-size="10.00"> ONE</text>
<text text-anchor="middle" x="73" y="-490" font-family="FreeSans" font-size="10.00">ZERO</text>
</g>
<!-- Node14&#45;&gt;Node9 -->
<g id="edge14" class="edge"><title>Node14&#45;&gt;Node9</title>
<path fill="none" stroke="#9a32cd" stroke-dasharray="5,2" d="M1576.64,-411.735C1616.72,-355.704 1718.09,-213.977 1756.2,-160.685"/>
<polygon fill="#9a32cd" stroke="#9a32cd" points="1573.72,-409.796 1570.75,-419.965 1579.42,-413.868 1573.72,-409.796"/>
<text text-anchor="middle" x="1655" y="-317" font-family="FreeSans" font-size="10.00"> cip</text>
</g>
<!-- Node15 -->
<g id="node13" class="node"><title>Node15</title>
<polygon fill="white" stroke="#bfbfbf" points="434,-381 434,-411 570,-411 570,-381 434,-381"/>
<text text-anchor="start" x="442" y="-399" font-family="FreeSans" font-size="10.00">std::list&lt; typename</text>
<text text-anchor="middle" x="502" y="-388" font-family="FreeSans" font-size="10.00"> InternalSpace2 ::Point &gt;</text>
</g>
<!-- Node15&#45;&gt;Node14 -->
<g id="edge15" class="edge"><title>Node15&#45;&gt;Node14</title>
<path fill="none" stroke="#9a32cd" stroke-dasharray="5,2" d="M580.276,-404.26C638.425,-409.767 720.121,-416 792,-416 792,-416 792,-416 1288,-416 1357.08,-416 1435.85,-422.265 1490.41,-427.6"/>
<polygon fill="#9a32cd" stroke="#9a32cd" points="580.353,-400.751 570.064,-403.277 579.683,-407.719 580.353,-400.751"/>
<text text-anchor="middle" x="1076" y="-419" font-family="FreeSans" font-size="10.00"> myVertices</text>
</g>
<!-- Node16 -->
<g id="node14" class="node"><title>Node16</title>
<g id="a_node14"><a xlink:href="classDGtal_1_1SpaceND.html" target="_top" xlink:title="Aim: SpaceND is a utility class that defines the fundamental structure of a Digital Space in ND...">
<polygon fill="white" stroke="black" points="123.5,-393 123.5,-423 250.5,-423 250.5,-393 123.5,-393"/>
<text text-anchor="start" x="131.5" y="-411" font-family="FreeSans" font-size="10.00">DGtal::SpaceND&lt; dim,</text>
<text text-anchor="middle" x="187" y="-400" font-family="FreeSans" font-size="10.00"> TInteger &gt;</text>
</a>
</g>
</g>
<!-- Node16&#45;&gt;Node15 -->
<g id="edge16" class="edge"><title>Node16&#45;&gt;Node15</title>
<path fill="none" stroke="#9a32cd" stroke-dasharray="5,2" d="M261.179,-398.177C266.189,-397.713 271.165,-397.312 276,-397 329.015,-393.581 389.203,-393.513 433.98,-394.2"/>
<polygon fill="#9a32cd" stroke="#9a32cd" points="260.485,-394.729 250.885,-399.21 261.184,-401.694 260.485,-394.729"/>
<text text-anchor="middle" x="346" y="-400" font-family="FreeSans" font-size="10.00"> elements</text>
</g>
<!-- Node21 -->
<g id="node19" class="node"><title>Node21</title>
<g id="a_node19"><a xlink:href="classDGtal_1_1SpaceND.html" target="_top" xlink:title="DGtal::SpaceND\&lt; 2,\l Integer \&gt;">
<polygon fill="white" stroke="black" points="444.5,-486 444.5,-516 559.5,-516 559.5,-486 444.5,-486"/>
<text text-anchor="start" x="452.5" y="-504" font-family="FreeSans" font-size="10.00">DGtal::SpaceND&lt; 2,</text>
<text text-anchor="middle" x="502" y="-493" font-family="FreeSans" font-size="10.00"> Integer &gt;</text>
</a>
</g>
</g>
<!-- Node16&#45;&gt;Node21 -->
<g id="edge24" class="edge"><title>Node16&#45;&gt;Node21</title>
<path fill="none" stroke="orange" stroke-dasharray="5,2" d="M248.522,-425.983C307.248,-443.431 395.346,-469.608 450.436,-485.976"/>
<polygon fill="orange" stroke="orange" points="249.219,-422.539 238.637,-423.045 247.226,-429.249 249.219,-422.539"/>
<text text-anchor="middle" x="346" y="-476" font-family="FreeSans" font-size="10.00"> &lt; 2, Integer &gt;</text>
</g>
<!-- Node17&#45;&gt;Node15 -->
<g id="edge17" class="edge"><title>Node17&#45;&gt;Node15</title>
<path fill="none" stroke="orange" stroke-dasharray="5,2" d="M236.788,-354.847C283.257,-354.622 354.97,-356.554 416,-368 431.576,-370.921 448.234,-375.96 462.639,-380.965"/>
<polygon fill="orange" stroke="orange" points="236.663,-351.348 226.693,-354.932 236.722,-358.348 236.663,-351.348"/>
<text text-anchor="start" x="276.5" y="-382" font-family="FreeSans" font-size="10.00"> &lt; typename InternalSpace2</text>
<text text-anchor="middle" x="346" y="-371" font-family="FreeSans" font-size="10.00"> ::Point &gt;</text>
</g>
<!-- Node18 -->
<g id="node16" class="node"><title>Node18</title>
<g id="a_node16"><a xlink:href="classDGtal_1_1IntegerComputer.html" target="_top" xlink:title="DGtal::IntegerComputer\l\&lt; Integer \&gt;">
<polygon fill="white" stroke="black" points="1010.5,-556 1010.5,-586 1141.5,-586 1141.5,-556 1010.5,-556"/>
<text text-anchor="start" x="1018.5" y="-574" font-family="FreeSans" font-size="10.00">DGtal::IntegerComputer</text>
<text text-anchor="middle" x="1076" y="-563" font-family="FreeSans" font-size="10.00">&lt; Integer &gt;</text>
</a>
</g>
</g>
<!-- Node18&#45;&gt;Node14 -->
<g id="edge19" class="edge"><title>Node18&#45;&gt;Node14</title>
<path fill="none" stroke="#9a32cd" stroke-dasharray="5,2" d="M1151.76,-563.5C1232.94,-553.541 1365.3,-531.951 1472,-489 1496.53,-479.125 1521.84,-462.283 1538.59,-450.029"/>
<polygon fill="#9a32cd" stroke="#9a32cd" points="1151.14,-560.049 1141.63,-564.715 1151.97,-567 1151.14,-560.049"/>
<text text-anchor="middle" x="1287" y="-556" font-family="FreeSans" font-size="10.00"> _ic</text>
</g>
<!-- Node18&#45;&gt;Node27 -->
<g id="edge38" class="edge"><title>Node18&#45;&gt;Node27</title>
<path fill="none" stroke="#9a32cd" stroke-dasharray="5,2" d="M1110.19,-550.601C1138.42,-533.574 1180.27,-509.093 1218,-490 1228.25,-484.815 1239.59,-479.609 1250.02,-475.024"/>
<polygon fill="#9a32cd" stroke="#9a32cd" points="1108.26,-547.676 1101.52,-555.851 1111.89,-553.662 1108.26,-547.676"/>
<text text-anchor="middle" x="1180" y="-522" font-family="FreeSans" font-size="10.00"> _ic</text>
</g>
<!-- Node19 -->
<g id="node17" class="node"><title>Node19</title>
<polygon fill="white" stroke="#bfbfbf" points="440,-739.5 440,-758.5 564,-758.5 564,-739.5 440,-739.5"/>
<text text-anchor="middle" x="502" y="-746.5" font-family="FreeSans" font-size="10.00">std::vector&lt; Integer &gt;</text>
</g>
<!-- Node19&#45;&gt;Node18 -->
<g id="edge20" class="edge"><title>Node19&#45;&gt;Node18</title>
<path fill="none" stroke="#9a32cd" stroke-dasharray="5,2" d="M574.358,-756.207C578.971,-756.521 583.549,-756.791 588,-757 712.089,-762.827 746.489,-761.9 866,-728 923.961,-711.559 943.834,-714.193 992,-678 1026.21,-652.296 1053.73,-609.059 1066.78,-586.21"/>
<polygon fill="#9a32cd" stroke="#9a32cd" points="574.468,-752.705 564.237,-755.455 573.95,-759.686 574.468,-752.705"/>
<text text-anchor="middle" x="793" y="-761" font-family="FreeSans" font-size="10.00"> _m_bezout</text>
</g>
<!-- Node24 -->
<g id="node22" class="node"><title>Node24</title>
<g id="a_node22"><a xlink:href="classDGtal_1_1IntegerComputer.html" target="_top" xlink:title="Aim: This class gathers several types and methods to make computation with integers. ">
<polygon fill="white" stroke="black" points="727.5,-689 727.5,-719 858.5,-719 858.5,-689 727.5,-689"/>
<text text-anchor="start" x="735.5" y="-707" font-family="FreeSans" font-size="10.00">DGtal::IntegerComputer</text>
<text text-anchor="middle" x="793" y="-696" font-family="FreeSans" font-size="10.00">&lt; TInteger &gt;</text>
</a>
</g>
</g>
<!-- Node19&#45;&gt;Node24 -->
<g id="edge29" class="edge"><title>Node19&#45;&gt;Node24</title>
<path fill="none" stroke="#9a32cd" stroke-dasharray="5,2" d="M574.261,-743.56C612.35,-740.039 659.936,-734.661 702,-727 713.741,-724.862 726.214,-722.038 738.016,-719.103"/>
<polygon fill="#9a32cd" stroke="#9a32cd" points="573.933,-740.075 564.288,-744.459 574.562,-747.047 573.933,-740.075"/>
<text text-anchor="middle" x="645" y="-745" font-family="FreeSans" font-size="10.00"> _m_bezout</text>
</g>
<!-- Node20&#45;&gt;Node19 -->
<g id="edge21" class="edge"><title>Node20&#45;&gt;Node19</title>
<path fill="none" stroke="orange" stroke-dasharray="5,2" d="M203.975,-473.383C218.792,-489.904 241.043,-515.759 258,-540 267.132,-553.055 262.822,-562.046 276,-571 328.042,-606.361 368.358,-550.903 416,-592 436.759,-609.907 422.127,-626.289 434,-651 450.78,-685.925 479.048,-722.406 492.881,-739.322"/>
<polygon fill="orange" stroke="orange" points="206.28,-470.713 196.972,-465.652 201.092,-475.413 206.28,-470.713"/>
<text text-anchor="middle" x="346" y="-595" font-family="FreeSans" font-size="10.00"> &lt; Integer &gt;</text>
</g>
<!-- Node20&#45;&gt;Node26 -->
<g id="edge35" class="edge"><title>Node20&#45;&gt;Node26</title>
<path fill="none" stroke="orange" stroke-dasharray="5,2" d="M244.966,-456.321C406.701,-457.233 867.046,-459.828 1022.78,-460.706"/>
<polygon fill="orange" stroke="orange" points="244.771,-452.82 234.751,-456.264 244.731,-459.82 244.771,-452.82"/>
<text text-anchor="middle" x="645" y="-461" font-family="FreeSans" font-size="10.00"> &lt; DGtal::PointVector &gt;</text>
</g>
<!-- Node21&#45;&gt;Node18 -->
<g id="edge23" class="edge"><title>Node21&#45;&gt;Node18</title>
<path fill="none" stroke="#9a32cd" stroke-dasharray="5,2" d="M569.789,-504.644C608.461,-507.017 658.037,-510.509 702,-515 810.627,-526.096 935.998,-546.496 1010.21,-559.372"/>
<polygon fill="#9a32cd" stroke="#9a32cd" points="569.887,-501.143 559.695,-504.034 569.466,-508.131 569.887,-501.143"/>
<text text-anchor="middle" x="793" y="-560" font-family="FreeSans" font-size="10.00"> _m_v</text>
<text text-anchor="middle" x="793" y="-549" font-family="FreeSans" font-size="10.00">_m_v0</text>
<text text-anchor="middle" x="793" y="-538" font-family="FreeSans" font-size="10.00">_m_v1</text>
</g>
<!-- Node21&#45;&gt;Node24 -->
<g id="edge32" class="edge"><title>Node21&#45;&gt;Node24</title>
<path fill="none" stroke="#9a32cd" stroke-dasharray="5,2" d="M569.662,-510.093C626.57,-518.002 699.626,-528.567 702,-531 746.739,-576.845 681.202,-623.029 720,-674 724.675,-680.142 730.838,-685.036 737.594,-688.934"/>
<polygon fill="#9a32cd" stroke="#9a32cd" points="569.991,-506.605 559.605,-508.7 569.03,-513.539 569.991,-506.605"/>
<text text-anchor="middle" x="645" y="-556" font-family="FreeSans" font-size="10.00"> _m_v</text>
<text text-anchor="middle" x="645" y="-545" font-family="FreeSans" font-size="10.00">_m_v0</text>
<text text-anchor="middle" x="645" y="-534" font-family="FreeSans" font-size="10.00">_m_v1</text>
</g>
<!-- Node22 -->
<g id="node20" class="node"><title>Node22</title>
<g id="a_node20"><a xlink:href="structDGtal_1_1NumberTraits.html" target="_top" xlink:title="DGtal::NumberTraits\l\&lt; Integer \&gt;">
<polygon fill="white" stroke="black" points="588.5,-573 588.5,-603 701.5,-603 701.5,-573 588.5,-573"/>
<text text-anchor="start" x="596.5" y="-591" font-family="FreeSans" font-size="10.00">DGtal::NumberTraits</text>
<text text-anchor="middle" x="645" y="-580" font-family="FreeSans" font-size="10.00">&lt; Integer &gt;</text>
</a>
</g>
</g>
<!-- Node22&#45;&gt;Node18 -->
<g id="edge25" class="edge"><title>Node22&#45;&gt;Node18</title>
<path fill="none" stroke="#9a32cd" stroke-dasharray="5,2" d="M711.812,-581.548C714.577,-581.349 717.315,-581.165 720,-581 821.389,-574.783 939.307,-572.427 1010.49,-571.536"/>
<polygon fill="#9a32cd" stroke="#9a32cd" points="711.429,-578.067 701.73,-582.33 711.971,-585.046 711.429,-578.067"/>
<text text-anchor="middle" x="793" y="-672" font-family="FreeSans" font-size="10.00"> _m_b</text>
<text text-anchor="middle" x="793" y="-661" font-family="FreeSans" font-size="10.00">_m_c0</text>
<text text-anchor="middle" x="793" y="-650" font-family="FreeSans" font-size="10.00">_m_c1</text>
<text text-anchor="middle" x="793" y="-639" font-family="FreeSans" font-size="10.00">_m_c2</text>
<text text-anchor="middle" x="793" y="-628" font-family="FreeSans" font-size="10.00">_m_q</text>
<text text-anchor="middle" x="793" y="-617" font-family="FreeSans" font-size="10.00">_m_a0</text>
<text text-anchor="middle" x="793" y="-606" font-family="FreeSans" font-size="10.00">_m_r</text>
<text text-anchor="middle" x="793" y="-595" font-family="FreeSans" font-size="10.00">_m_a1</text>
<text text-anchor="middle" x="793" y="-584" font-family="FreeSans" font-size="10.00">_m_a</text>
</g>
<!-- Node23&#45;&gt;Node22 -->
<g id="edge26" class="edge"><title>Node23&#45;&gt;Node22</title>
<path fill="none" stroke="orange" stroke-dasharray="5,2" d="M267.78,-558.054C270.553,-558.033 273.3,-558.015 276,-558 338.221,-557.646 353.911,-553.933 416,-558 475.161,-561.875 542.406,-571.35 588.449,-578.623"/>
<polygon fill="orange" stroke="orange" points="267.622,-554.555 257.651,-558.136 267.679,-561.554 267.622,-554.555"/>
<text text-anchor="middle" x="346" y="-561" font-family="FreeSans" font-size="10.00"> &lt; Integer &gt;</text>
</g>
<!-- Node25 -->
<g id="node23" class="node"><title>Node25</title>
<g id="a_node23"><a xlink:href="structDGtal_1_1NumberTraits.html" target="_top" xlink:title="DGtal::NumberTraits\l\&lt; TInteger \&gt;">
<polygon fill="white" stroke="black" points="445.5,-612 445.5,-642 558.5,-642 558.5,-612 445.5,-612"/>
<text text-anchor="start" x="453.5" y="-630" font-family="FreeSans" font-size="10.00">DGtal::NumberTraits</text>
<text text-anchor="middle" x="502" y="-619" font-family="FreeSans" font-size="10.00">&lt; TInteger &gt;</text>
</a>
</g>
</g>
<!-- Node23&#45;&gt;Node25 -->
<g id="edge31" class="edge"><title>Node23&#45;&gt;Node25</title>
<path fill="none" stroke="orange" stroke-dasharray="5,2" d="M210.944,-574.139C228.116,-584.669 252.581,-598.022 276,-605 332.046,-621.698 399.072,-626.412 445.311,-627.434"/>
<polygon fill="orange" stroke="orange" points="212.534,-571.004 202.207,-568.638 208.805,-576.928 212.534,-571.004"/>
<text text-anchor="middle" x="346" y="-629" font-family="FreeSans" font-size="10.00"> &lt; TInteger &gt;</text>
</g>
<!-- Node24&#45;&gt;Node18 -->
<g id="edge28" class="edge"><title>Node24&#45;&gt;Node18</title>
<path fill="none" stroke="orange" stroke-dasharray="5,2" d="M840.898,-684.962C849.296,-681.41 857.938,-677.662 866,-674 931.006,-644.474 1005.72,-606.701 1045.86,-586.088"/>
<polygon fill="orange" stroke="orange" points="839.433,-681.781 831.563,-688.874 842.139,-688.237 839.433,-681.781"/>
<text text-anchor="middle" x="938" y="-666" font-family="FreeSans" font-size="10.00"> &lt; Integer &gt;</text>
</g>
<!-- Node25&#45;&gt;Node24 -->
<g id="edge30" class="edge"><title>Node25&#45;&gt;Node24</title>
<path fill="none" stroke="#9a32cd" stroke-dasharray="5,2" d="M568.856,-617.927C618.394,-612.569 681.173,-609.362 702,-624 721.323,-637.581 703.715,-656.893 720,-674 725.789,-680.081 732.997,-684.976 740.597,-688.903"/>
<polygon fill="#9a32cd" stroke="#9a32cd" points="568.368,-614.46 558.824,-619.06 569.154,-621.416 568.368,-614.46"/>
<text text-anchor="middle" x="645" y="-715" font-family="FreeSans" font-size="10.00"> _m_b</text>
<text text-anchor="middle" x="645" y="-704" font-family="FreeSans" font-size="10.00">_m_c0</text>
<text text-anchor="middle" x="645" y="-693" font-family="FreeSans" font-size="10.00">_m_c1</text>
<text text-anchor="middle" x="645" y="-682" font-family="FreeSans" font-size="10.00">_m_c2</text>
<text text-anchor="middle" x="645" y="-671" font-family="FreeSans" font-size="10.00">_m_q</text>
<text text-anchor="middle" x="645" y="-660" font-family="FreeSans" font-size="10.00">_m_a0</text>
<text text-anchor="middle" x="645" y="-649" font-family="FreeSans" font-size="10.00">_m_r</text>
<text text-anchor="middle" x="645" y="-638" font-family="FreeSans" font-size="10.00">_m_a1</text>
<text text-anchor="middle" x="645" y="-627" font-family="FreeSans" font-size="10.00">_m_a</text>
</g>
<!-- Node26&#45;&gt;Node14 -->
<g id="edge33" class="edge"><title>Node26&#45;&gt;Node14</title>
<path fill="none" stroke="#9a32cd" stroke-dasharray="5,2" d="M1128.06,-478.923C1138.5,-481.865 1149.51,-484.454 1160,-486 1177.59,-488.591 1182.22,-486.114 1200,-486 1321.21,-485.223 1354.55,-495.984 1472,-466 1488.45,-461.799 1506.18,-455.695 1521.23,-450.011"/>
<polygon fill="#9a32cd" stroke="#9a32cd" points="1128.84,-475.504 1118.26,-476.018 1126.85,-482.215 1128.84,-475.504"/>
<text text-anchor="middle" x="1287" y="-501" font-family="FreeSans" font-size="10.00"> _outPts</text>
<text text-anchor="middle" x="1287" y="-490" font-family="FreeSans" font-size="10.00">_inPts</text>
</g>
<!-- Node26&#45;&gt;Node27 -->
<g id="edge39" class="edge"><title>Node26&#45;&gt;Node27</title>
<path fill="none" stroke="#9a32cd" stroke-dasharray="5,2" d="M1139.25,-460.702C1164.15,-460.583 1192.88,-460.446 1218.3,-460.324"/>
<polygon fill="#9a32cd" stroke="#9a32cd" points="1139.18,-457.202 1129.2,-460.75 1139.22,-464.202 1139.18,-457.202"/>
<text text-anchor="middle" x="1180" y="-474" font-family="FreeSans" font-size="10.00"> _outPts</text>
<text text-anchor="middle" x="1180" y="-463" font-family="FreeSans" font-size="10.00">_inPts</text>
</g>
<!-- Node27&#45;&gt;Node14 -->
<g id="edge37" class="edge"><title>Node27&#45;&gt;Node14</title>
<path fill="none" stroke="orange" stroke-dasharray="5,2" d="M1365.86,-452.791C1405.16,-449.152 1452.39,-444.779 1490.19,-441.279"/>
<polygon fill="orange" stroke="orange" points="1365.42,-449.317 1355.78,-453.724 1366.06,-456.287 1365.42,-449.317"/>
<text text-anchor="middle" x="1423" y="-454" font-family="FreeSans" font-size="10.00"> &lt; InternalSpace2 &gt;</text>
</g>
</g>
</svg>
        <g id="navigator" transform="translate(0 0)" fill="#404254">
                <rect fill="#f2f5e9" fill-opacity="0.5" stroke="#606060" stroke-width=".5" x="0" y="0" width="60" height="60"/>
                <use id="zoomplus" xlink:href="#zoomPlus" x="17" y="9" onmousedown="handleZoom(evt,'in')"/>
                <use id="zoomminus" xlink:href="#zoomMin" x="42" y="9" onmousedown="handleZoom(evt,'out')"/>
                <use id="reset" xlink:href="#resetDef" x="30" y="36" onmousedown="handleReset()"/>
                <g id="arrowUp" xlink:href="#dirArrow" transform="translate(30 24)" onmousedown="handlePan(0,-1)">
                  <use xlink:href="#rim" fill="#404040">
                        <set attributeName="fill" to="#808080" begin="arrowUp.mouseover" end="arrowUp.mouseout"/>
                  </use>
                  <path fill="none" stroke="white" stroke-width="1.5" d="M0,-3.0v7 M-2.5,-0.5L0,-3.0L2.5,-0.5"/>
                </g>
                <g id="arrowRight" xlink:href="#dirArrow" transform="rotate(90) translate(36 -43)" onmousedown="handlePan(1,0)">
                  <use xlink:href="#rim" fill="#404040">
                        <set attributeName="fill" to="#808080" begin="arrowRight.mouseover" end="arrowRight.mouseout"/>
                  </use>
                  <path fill="none" stroke="white" stroke-width="1.5" d="M0,-3.0v7 M-2.5,-0.5L0,-3.0L2.5,-0.5"/>
                </g>
                <g id="arrowDown" xlink:href="#dirArrow" transform="rotate(180) translate(-30 -48)" onmousedown="handlePan(0,1)">
                  <use xlink:href="#rim" fill="#404040">
                        <set attributeName="fill" to="#808080" begin="arrowDown.mouseover" end="arrowDown.mouseout"/>
                  </use>
                  <path fill="none" stroke="white" stroke-width="1.5" d="M0,-3.0v7 M-2.5,-0.5L0,-3.0L2.5,-0.5"/>
                </g>
                <g id="arrowLeft" xlink:href="#dirArrow" transform="rotate(270) translate(-36 17)" onmousedown="handlePan(-1,0)">
                  <use xlink:href="#rim" fill="#404040">
                        <set attributeName="fill" to="#808080" begin="arrowLeft.mouseover" end="arrowLeft.mouseout"/>
                  </use>
                  <path fill="none" stroke="white" stroke-width="1.5" d="M0,-3.0v7 M-2.5,-0.5L0,-3.0L2.5,-0.5"/>
                </g>
        </g>
        <svg viewBox="0 0 15 15" width="100%" height="30px" preserveAspectRatio="xMaxYMin meet">
         <g id="arrow_out" transform="scale(0.3 0.3)">
          <a xlink:href="classDGtal_1_1COBANaivePlaneComputer__coll__graph_org.svg" target="_base">
           <rect id="button" ry="5" rx="5" y="6" x="6" height="38" width="38"
                fill="#f2f5e9" fill-opacity="0.5" stroke="#606060" stroke-width="1.0"/>
           <path id="arrow"
             d="M 11.500037,31.436501 C 11.940474,20.09759 22.043105,11.32322 32.158766,21.979434 L 37.068811,17.246167 C 37.068811,17.246167 37.088388,32 37.088388,32 L 22.160133,31.978069 C 22.160133,31.978069 26.997745,27.140456 26.997745,27.140456 C 18.528582,18.264221 13.291696,25.230495 11.500037,31.436501 z"
             style="fill:#404040;"/>
          </a>
         </g>
        </svg>
</svg>
