<?xml version="1.0" encoding="UTF-8" standalone="no"?>
<!DOCTYPE svg PUBLIC "-//W3C//DTD SVG 1.1//EN"
 "http://www.w3.org/Graphics/SVG/1.1/DTD/svg11.dtd">
<!-- Generated by graphviz version 2.38.0 (20140413.2041)
 -->
<!-- Title: DGtal::LabelledMap&lt; TData, L, TWord, N, M &gt;::BlockConstIterator Pages: 1 -->
<svg width="178pt" height="139pt"
 viewBox="0.00 0.00 177.50 139.00" xmlns="http://www.w3.org/2000/svg" xmlns:xlink="http://www.w3.org/1999/xlink">
<g id="graph0" class="graph" transform="scale(1 1) rotate(0) translate(4 135)">
<title>DGtal::LabelledMap&lt; TData, L, TWord, N, M &gt;::BlockConstIterator</title>
<polygon fill="white" stroke="none" points="-4,4 -4,-135 173.5,-135 173.5,4 -4,4"/>
<!-- Node1 -->
<g id="node1" class="node"><title>Node1</title>
<polygon fill="#bfbfbf" stroke="black" points="0,-0.5 0,-41.5 134,-41.5 134,-0.5 0,-0.5"/>
<text text-anchor="start" x="8" y="-29.5" font-family="FreeSans" font-size="10.00">DGtal::LabelledMap</text>
<text text-anchor="start" x="8" y="-18.5" font-family="FreeSans" font-size="10.00">&lt; TData, L, TWord, N,</text>
<text text-anchor="middle" x="67" y="-7.5" font-family="FreeSans" font-size="10.00"> M &gt;::BlockConstIterator</text>
</g>
<!-- Node2 -->
<g id="node2" class="node"><title>Node2</title>
<g id="a_node2"><a xlink:href="structDGtal_1_1LabelledMap_1_1____AnyBlock.html" target="_top" xlink:title="DGtal::LabelledMap\l\&lt; TData, L, TWord, N,\l M \&gt;::__AnyBlock">
<polygon fill="white" stroke="black" points="7.5,-89.5 7.5,-130.5 126.5,-130.5 126.5,-89.5 7.5,-89.5"/>
<text text-anchor="start" x="15.5" y="-118.5" font-family="FreeSans" font-size="10.00">DGtal::LabelledMap</text>
<text text-anchor="start" x="15.5" y="-107.5" font-family="FreeSans" font-size="10.00">&lt; TData, L, TWord, N,</text>
<text text-anchor="middle" x="67" y="-96.5" font-family="FreeSans" font-size="10.00"> M &gt;::__AnyBlock</text>
</a>
</g>
</g>
<!-- Node2&#45;&gt;Node1 -->
<g id="edge1" class="edge"><title>Node2&#45;&gt;Node1</title>
<path fill="none" stroke="#9a32cd" stroke-dasharray="5,2" d="M67,-78.9407C67,-66.6014 67,-52.6619 67,-41.6635"/>
<polygon fill="#9a32cd" stroke="#9a32cd" points="63.5001,-79.2583 67,-89.2584 70.5001,-79.2584 63.5001,-79.2583"/>
<text text-anchor="middle" x="87.5" y="-63" font-family="FreeSans" font-size="10.00"> myNext</text>
</g>
<!-- Node2&#45;&gt;Node2 -->
<g id="edge2" class="edge"><title>Node2&#45;&gt;Node2</title>
<path fill="none" stroke="#9a32cd" stroke-dasharray="5,2" d="M136.983,-115.922C141.662,-114.552 144.5,-112.578 144.5,-110 144.5,-105.875 137.234,-103.297 126.79,-102.266"/>
<polygon fill="#9a32cd" stroke="#9a32cd" points="136.023,-112.537 126.79,-117.734 137.248,-119.429 136.023,-112.537"/>
<text text-anchor="middle" x="157" y="-107.5" font-family="FreeSans" font-size="10.00"> next</text>
</g>
</g>
</svg>
