<?xml version="1.0" encoding="UTF-8" standalone="no"?>
<!DOCTYPE svg PUBLIC "-//W3C//DTD SVG 1.1//EN"
 "http://www.w3.org/Graphics/SVG/1.1/DTD/svg11.dtd">
<!-- Generated by graphviz version 2.38.0 (20140413.2041)
 -->
<!-- Title: DGtal::MultiStatistics Pages: 1 -->
<svg width="130pt" height="229pt"
 viewBox="0.00 0.00 130.00 229.00" xmlns="http://www.w3.org/2000/svg" xmlns:xlink="http://www.w3.org/1999/xlink">
<g id="graph0" class="graph" transform="scale(1 1) rotate(0) translate(4 225)">
<title>DGtal::MultiStatistics</title>
<polygon fill="white" stroke="none" points="-4,4 -4,-225 126,-225 126,4 -4,4"/>
<!-- Node1 -->
<g id="node1" class="node"><title>Node1</title>
<polygon fill="#bfbfbf" stroke="black" points="3,-0.5 3,-19.5 119,-19.5 119,-0.5 3,-0.5"/>
<text text-anchor="middle" x="61" y="-7.5" font-family="FreeSans" font-size="10.00">DGtal::MultiStatistics</text>
</g>
<!-- Node2 -->
<g id="node2" class="node"><title>Node2</title>
<polygon fill="white" stroke="#bfbfbf" points="0,-67.5 0,-86.5 122,-86.5 122,-67.5 0,-67.5"/>
<text text-anchor="middle" x="61" y="-74.5" font-family="FreeSans" font-size="10.00">std::vector&lt; double &gt;</text>
</g>
<!-- Node2&#45;&gt;Node1 -->
<g id="edge1" class="edge"><title>Node2&#45;&gt;Node1</title>
<path fill="none" stroke="#9a32cd" stroke-dasharray="5,2" d="M61,-57.037C61,-44.6703 61,-29.1198 61,-19.6273"/>
<polygon fill="#9a32cd" stroke="#9a32cd" points="57.5001,-57.2338 61,-67.2338 64.5001,-57.2338 57.5001,-57.2338"/>
<text text-anchor="middle" x="86" y="-41" font-family="FreeSans" font-size="10.00"> myValues</text>
</g>
<!-- Node3 -->
<g id="node3" class="node"><title>Node3</title>
<g id="a_node3"><a xlink:title="STL class. ">
<polygon fill="white" stroke="#bfbfbf" points="13.5,-134.5 13.5,-153.5 108.5,-153.5 108.5,-134.5 13.5,-134.5"/>
<text text-anchor="middle" x="61" y="-141.5" font-family="FreeSans" font-size="10.00">std::vector&lt; T &gt;</text>
</a>
</g>
</g>
<!-- Node3&#45;&gt;Node2 -->
<g id="edge2" class="edge"><title>Node3&#45;&gt;Node2</title>
<path fill="none" stroke="orange" stroke-dasharray="5,2" d="M61,-124.037C61,-111.67 61,-96.1198 61,-86.6273"/>
<polygon fill="orange" stroke="orange" points="57.5001,-124.234 61,-134.234 64.5001,-124.234 57.5001,-124.234"/>
<text text-anchor="middle" x="90" y="-108" font-family="FreeSans" font-size="10.00"> &lt; double &gt;</text>
</g>
<!-- Node4 -->
<g id="node4" class="node"><title>Node4</title>
<polygon fill="white" stroke="#bfbfbf" points="46.5,-201.5 46.5,-220.5 75.5,-220.5 75.5,-201.5 46.5,-201.5"/>
<text text-anchor="middle" x="61" y="-208.5" font-family="FreeSans" font-size="10.00">T</text>
</g>
<!-- Node4&#45;&gt;Node3 -->
<g id="edge3" class="edge"><title>Node4&#45;&gt;Node3</title>
<path fill="none" stroke="#9a32cd" stroke-dasharray="5,2" d="M61,-191.037C61,-178.67 61,-163.12 61,-153.627"/>
<polygon fill="#9a32cd" stroke="#9a32cd" points="57.5001,-191.234 61,-201.234 64.5001,-191.234 57.5001,-191.234"/>
<text text-anchor="middle" x="85.5" y="-175" font-family="FreeSans" font-size="10.00"> elements</text>
</g>
</g>
</svg>
