<?xml version="1.0" encoding="UTF-8" standalone="no"?>
<!DOCTYPE svg PUBLIC "-//W3C//DTD SVG 1.1//EN"
 "http://www.w3.org/Graphics/SVG/1.1/DTD/svg11.dtd">
<!-- Generated by graphviz version 2.38.0 (20140413.2041)
 -->
<!-- Title: DGtal::OneItemOutputIterator&lt; T &gt; Pages: 1 -->
<svg width="195pt" height="106pt"
 viewBox="0.00 0.00 195.00 106.00" xmlns="http://www.w3.org/2000/svg" xmlns:xlink="http://www.w3.org/1999/xlink">
<g id="graph0" class="graph" transform="scale(1 1) rotate(0) translate(4 102)">
<title>DGtal::OneItemOutputIterator&lt; T &gt;</title>
<polygon fill="white" stroke="none" points="-4,4 -4,-102 191,-102 191,4 -4,4"/>
<!-- Node2 -->
<g id="node1" class="node"><title>Node2</title>
<polygon fill="#bfbfbf" stroke="black" points="-1.42109e-14,-0.5 -1.42109e-14,-19.5 187,-19.5 187,-0.5 -1.42109e-14,-0.5"/>
<text text-anchor="middle" x="93.5" y="-7.5" font-family="FreeSans" font-size="10.00">DGtal::OneItemOutputIterator&lt; T &gt;</text>
</g>
<!-- Node3 -->
<g id="node2" class="node"><title>Node3</title>
<polygon fill="white" stroke="#bfbfbf" points="30,-56.5 30,-97.5 157,-97.5 157,-56.5 30,-56.5"/>
<text text-anchor="start" x="38" y="-85.5" font-family="FreeSans" font-size="10.00">std::iterator&lt; std</text>
<text text-anchor="start" x="38" y="-74.5" font-family="FreeSans" font-size="10.00">::output_iterator_tag,</text>
<text text-anchor="middle" x="93.5" y="-63.5" font-family="FreeSans" font-size="10.00"> void, void, void, void &gt;</text>
</g>
<!-- Node3&#45;&gt;Node2 -->
<g id="edge1" class="edge"><title>Node3&#45;&gt;Node2</title>
<path fill="none" stroke="midnightblue" d="M93.5,-46.2632C93.5,-36.5592 93.5,-26.5242 93.5,-19.6525"/>
<polygon fill="midnightblue" stroke="midnightblue" points="90.0001,-46.4978 93.5,-56.4979 97.0001,-46.4979 90.0001,-46.4978"/>
</g>
</g>
</svg>
