<?xml version="1.0" encoding="UTF-8" standalone="no"?>
<!DOCTYPE svg PUBLIC "-//W3C//DTD SVG 1.1//EN"
 "http://www.w3.org/Graphics/SVG/1.1/DTD/svg11.dtd">
<!-- Generated by graphviz version 2.36.0 (20140111.2315)
 -->
<!-- Title: DGtal::ShroudsRegularization&lt; TDigitalSurfaceContainer &gt; Pages: 1 -->
<!--zoomable 292 -->
<svg id="main" version="1.1" xmlns="http://www.w3.org/2000/svg" xmlns:xlink="http://www.w3.org/1999/xlink" xml:space="preserve" onload="init(evt)">
<style type="text/css"><![CDATA[
.edge:hover path { stroke: red; }
.edge:hover polygon { stroke: red; fill: red; }
]]></style>
<script type="text/javascript"><![CDATA[
var edges = document.getElementsByTagName('g');
if (edges && edges.length) {
  for (var i=0;i<edges.length;i++) {
    if (edges[i].id.substr(0,4)=='edge') {
      edges[i].setAttribute('class','edge');
    }
  }
}
]]></script>
        <defs>
                <circle id="rim" cx="0" cy="0" r="7"/>
                <circle id="rim2" cx="0" cy="0" r="3.5"/>
                <g id="zoomPlus">
                        <use xlink:href="#rim" fill="#404040">
                                <set attributeName="fill" to="#808080" begin="zoomplus.mouseover" end="zoomplus.mouseout"/>
                        </use>
                        <path d="M-4,0h8M0,-4v8" fill="none" stroke="white" stroke-width="1.5" pointer-events="none"/>
                </g>
                <g id="zoomMin">
                        <use xlink:href="#rim" fill="#404040">
                                <set attributeName="fill" to="#808080" begin="zoomminus.mouseover" end="zoomminus.mouseout"/>
                        </use>
                        <path d="M-4,0h8" fill="none" stroke="white" stroke-width="1.5" pointer-events="none"/>
                </g>
                <g id="dirArrow">
                        <path fill="none" stroke="white" stroke-width="1.5" d="M0,-3.0v7 M-2.5,-0.5L0,-3.0L2.5,-0.5"/>
                </g>
               <g id="resetDef">
                       <use xlink:href="#rim2" fill="#404040">
                               <set attributeName="fill" to="#808080" begin="reset.mouseover" end="reset.mouseout"/>
                       </use>
               </g>
        </defs>

<script type="text/javascript">
var viewWidth = 990;
var viewHeight = 292;
var sectionId = 'dynsection-0';
</script>
<script xlink:href="svgpan.js"/>
<svg id="graph" class="graph">
<g id="viewport">
<title>DGtal::ShroudsRegularization&lt; TDigitalSurfaceContainer &gt;</title>
<polygon fill="white" stroke="none" points="-4,4 -4,-288 986,-288 986,4 -4,4"/>
<!-- Node1 -->
<g id="node1" class="node"><title>Node1</title>
<polygon fill="#bfbfbf" stroke="black" points="824,-116 824,-146 982,-146 982,-116 824,-116"/>
<text text-anchor="start" x="832" y="-134" font-family="FreeSans" font-size="10.00">DGtal::ShroudsRegularization</text>
<text text-anchor="middle" x="903" y="-123" font-family="FreeSans" font-size="10.00">&lt; TDigitalSurfaceContainer &gt;</text>
</g>
<!-- Node2 -->
<g id="node2" class="node"><title>Node2</title>
<polygon fill="white" stroke="#bfbfbf" points="555,-211.5 555,-230.5 689,-230.5 689,-211.5 555,-211.5"/>
<text text-anchor="middle" x="622" y="-218.5" font-family="FreeSans" font-size="10.00">std::vector&lt; RealPoint &gt;</text>
</g>
<!-- Node2&#45;&gt;Node1 -->
<g id="edge1" class="edge"><title>Node2&#45;&gt;Node1</title>
<path fill="none" stroke="#9a32cd" stroke-dasharray="5,2" d="M699.569,-214.65C733.021,-210.205 772.24,-202.686 806,-190 834.567,-179.265 863.967,-159.705 882.576,-146.061"/>
<polygon fill="#9a32cd" stroke="#9a32cd" points="698.869,-211.21 689.385,-215.933 699.744,-218.155 698.869,-211.21"/>
<text text-anchor="middle" x="765" y="-224" font-family="FreeSans" font-size="10.00"> myOutV</text>
<text text-anchor="middle" x="765" y="-213" font-family="FreeSans" font-size="10.00">myInsV</text>
</g>
<!-- Node3 -->
<g id="node3" class="node"><title>Node3</title>
<g id="a_node3"><a xlink:href="classDGtal_1_1PointVector.html" target="_top" xlink:title="Aim: Implements basic operations that will be used in Point and Vector classes. ">
<polygon fill="white" stroke="black" points="209,-213.5 209,-254.5 335,-254.5 335,-213.5 209,-213.5"/>
<text text-anchor="start" x="217" y="-242.5" font-family="FreeSans" font-size="10.00">DGtal::PointVector</text>
<text text-anchor="start" x="217" y="-231.5" font-family="FreeSans" font-size="10.00">&lt; dim, TEuclideanRing,</text>
<text text-anchor="middle" x="272" y="-220.5" font-family="FreeSans" font-size="10.00"> TContainer &gt;</text>
</a>
</g>
</g>
<!-- Node3&#45;&gt;Node2 -->
<g id="edge2" class="edge"><title>Node3&#45;&gt;Node2</title>
<path fill="none" stroke="#9a32cd" stroke-dasharray="5,2" d="M345.268,-231.3C406.98,-228.995 495.008,-225.707 554.883,-223.47"/>
<polygon fill="#9a32cd" stroke="#9a32cd" points="345.078,-227.805 335.215,-231.676 345.339,-234.8 345.078,-227.805"/>
<text text-anchor="middle" x="438" y="-233" font-family="FreeSans" font-size="10.00"> elements</text>
</g>
<!-- Node3&#45;&gt;Node3 -->
<g id="edge4" class="edge"><title>Node3&#45;&gt;Node3</title>
<path fill="none" stroke="#9a32cd" stroke-dasharray="5,2" d="M253.076,-264.601C256.095,-269.023 262.402,-272 272,-272 287.75,-272 294.641,-263.984 292.672,-254.716"/>
<polygon fill="#9a32cd" stroke="#9a32cd" points="256.516,-263.954 251.328,-254.716 249.623,-265.173 256.516,-263.954"/>
<text text-anchor="middle" x="272" y="-275" font-family="FreeSans" font-size="10.00"> zero</text>
</g>
<!-- Node4 -->
<g id="node4" class="node"><title>Node4</title>
<polygon fill="white" stroke="#bfbfbf" points="22,-224.5 22,-243.5 90,-243.5 90,-224.5 22,-224.5"/>
<text text-anchor="middle" x="56" y="-231.5" font-family="FreeSans" font-size="10.00">TContainer</text>
</g>
<!-- Node4&#45;&gt;Node3 -->
<g id="edge3" class="edge"><title>Node4&#45;&gt;Node3</title>
<path fill="none" stroke="#9a32cd" stroke-dasharray="5,2" d="M100.559,-234C131.759,-234 174.222,-234 208.959,-234"/>
<polygon fill="#9a32cd" stroke="#9a32cd" points="100.438,-230.5 90.4375,-234 100.437,-237.5 100.438,-230.5"/>
<text text-anchor="middle" x="159" y="-237" font-family="FreeSans" font-size="10.00"> myArray</text>
</g>
<!-- Node5 -->
<g id="node5" class="node"><title>Node5</title>
<g id="a_node5"><a xlink:title="STL class. ">
<polygon fill="white" stroke="#bfbfbf" points="224.5,-139.5 224.5,-158.5 319.5,-158.5 319.5,-139.5 224.5,-139.5"/>
<text text-anchor="middle" x="272" y="-146.5" font-family="FreeSans" font-size="10.00">std::vector&lt; T &gt;</text>
</a>
</g>
</g>
<!-- Node5&#45;&gt;Node2 -->
<g id="edge5" class="edge"><title>Node5&#45;&gt;Node2</title>
<path fill="none" stroke="orange" stroke-dasharray="5,2" d="M306.031,-162.036C321.085,-167.588 339.251,-173.75 356,-178 422.749,-194.937 500.721,-206.647 554.728,-213.522"/>
<polygon fill="orange" stroke="orange" points="307.225,-158.746 296.633,-158.502 304.761,-165.298 307.225,-158.746"/>
<text text-anchor="middle" x="438" y="-211" font-family="FreeSans" font-size="10.00"> &lt; RealPoint &gt;</text>
</g>
<!-- Node7 -->
<g id="node7" class="node"><title>Node7</title>
<polygon fill="white" stroke="#bfbfbf" points="551.5,-165.5 551.5,-184.5 692.5,-184.5 692.5,-165.5 551.5,-165.5"/>
<text text-anchor="middle" x="622" y="-172.5" font-family="FreeSans" font-size="10.00">std::vector&lt; Dimension &gt;</text>
</g>
<!-- Node5&#45;&gt;Node7 -->
<g id="edge8" class="edge"><title>Node5&#45;&gt;Node7</title>
<path fill="none" stroke="orange" stroke-dasharray="5,2" d="M329.882,-153.043C379.95,-156.626 454.823,-162.044 520,-167 530.173,-167.774 540.92,-168.607 551.46,-169.434"/>
<polygon fill="orange" stroke="orange" points="330.123,-149.552 319.899,-152.329 329.624,-156.534 330.123,-149.552"/>
<text text-anchor="middle" x="438" y="-170" font-family="FreeSans" font-size="10.00"> &lt; Dimension &gt;</text>
</g>
<!-- Node8 -->
<g id="node8" class="node"><title>Node8</title>
<polygon fill="white" stroke="#bfbfbf" points="562,-122.5 562,-141.5 682,-141.5 682,-122.5 562,-122.5"/>
<text text-anchor="middle" x="622" y="-129.5" font-family="FreeSans" font-size="10.00">std::vector&lt; Scalar &gt;</text>
</g>
<!-- Node5&#45;&gt;Node8 -->
<g id="edge10" class="edge"><title>Node5&#45;&gt;Node8</title>
<path fill="none" stroke="orange" stroke-dasharray="5,2" d="M324.038,-137.611C334.555,-135.702 345.596,-134.014 356,-133 426.517,-126.131 508.091,-127.164 561.9,-129.078"/>
<polygon fill="orange" stroke="orange" points="323.321,-134.185 314.152,-139.494 324.631,-141.061 323.321,-134.185"/>
<text text-anchor="middle" x="438" y="-136" font-family="FreeSans" font-size="10.00"> &lt; Scalar &gt;</text>
</g>
<!-- Node12 -->
<g id="node12" class="node"><title>Node12</title>
<polygon fill="white" stroke="#bfbfbf" points="561.5,-84.5 561.5,-103.5 682.5,-103.5 682.5,-84.5 561.5,-84.5"/>
<text text-anchor="middle" x="622" y="-91.5" font-family="FreeSans" font-size="10.00">std::vector&lt; Vertex &gt;</text>
</g>
<!-- Node5&#45;&gt;Node12 -->
<g id="edge16" class="edge"><title>Node5&#45;&gt;Node12</title>
<path fill="none" stroke="orange" stroke-dasharray="5,2" d="M299.415,-134.807C315.338,-126.954 336.292,-117.831 356,-113 425.102,-96.0596 507.14,-92.6357 561.437,-92.5901"/>
<polygon fill="orange" stroke="orange" points="297.538,-131.835 290.206,-139.483 300.707,-138.076 297.538,-131.835"/>
<text text-anchor="middle" x="438" y="-116" font-family="FreeSans" font-size="10.00"> &lt; Vertex &gt;</text>
</g>
<!-- Node6 -->
<g id="node6" class="node"><title>Node6</title>
<polygon fill="white" stroke="#bfbfbf" points="41.5,-139.5 41.5,-158.5 70.5,-158.5 70.5,-139.5 41.5,-139.5"/>
<text text-anchor="middle" x="56" y="-146.5" font-family="FreeSans" font-size="10.00">T</text>
</g>
<!-- Node6&#45;&gt;Node5 -->
<g id="edge6" class="edge"><title>Node6&#45;&gt;Node5</title>
<path fill="none" stroke="#9a32cd" stroke-dasharray="5,2" d="M80.7901,-149C115.286,-149 179.898,-149 224.162,-149"/>
<polygon fill="#9a32cd" stroke="#9a32cd" points="80.7122,-145.5 70.7122,-149 80.7122,-152.5 80.7122,-145.5"/>
<text text-anchor="middle" x="159" y="-152" font-family="FreeSans" font-size="10.00"> elements</text>
</g>
<!-- Node7&#45;&gt;Node1 -->
<g id="edge7" class="edge"><title>Node7&#45;&gt;Node1</title>
<path fill="none" stroke="#9a32cd" stroke-dasharray="5,2" d="M702.954,-175.567C735.22,-174.519 772.639,-171.675 806,-165 826.805,-160.837 849.199,-153.106 867.121,-146.067"/>
<polygon fill="#9a32cd" stroke="#9a32cd" points="702.571,-172.076 692.67,-175.847 702.762,-179.074 702.571,-172.076"/>
<text text-anchor="middle" x="765" y="-178" font-family="FreeSans" font-size="10.00"> myOrthDir</text>
</g>
<!-- Node8&#45;&gt;Node1 -->
<g id="edge9" class="edge"><title>Node8&#45;&gt;Node1</title>
<path fill="none" stroke="#9a32cd" stroke-dasharray="5,2" d="M692.344,-131.751C732.258,-131.608 782.531,-131.428 823.842,-131.28"/>
<polygon fill="#9a32cd" stroke="#9a32cd" points="692.156,-128.252 682.169,-131.788 692.181,-135.252 692.156,-128.252"/>
<text text-anchor="middle" x="765" y="-157" font-family="FreeSans" font-size="10.00"> myNextD</text>
<text text-anchor="middle" x="765" y="-146" font-family="FreeSans" font-size="10.00">myT</text>
<text text-anchor="middle" x="765" y="-135" font-family="FreeSans" font-size="10.00">myPrevD</text>
</g>
<!-- Node9 -->
<g id="node9" class="node"><title>Node9</title>
<g id="a_node9"><a xlink:href="classDGtal_1_1CountedPtr.html" target="_top" xlink:title="DGtal::CountedPtr\&lt;\l DGtal::IndexedDigitalSurface \&gt;">
<polygon fill="white" stroke="black" points="538,-35 538,-65 706,-65 706,-35 538,-35"/>
<text text-anchor="start" x="546" y="-53" font-family="FreeSans" font-size="10.00">DGtal::CountedPtr&lt;</text>
<text text-anchor="middle" x="622" y="-42" font-family="FreeSans" font-size="10.00"> DGtal::IndexedDigitalSurface &gt;</text>
</a>
</g>
</g>
<!-- Node9&#45;&gt;Node1 -->
<g id="edge11" class="edge"><title>Node9&#45;&gt;Node1</title>
<path fill="none" stroke="#9a32cd" stroke-dasharray="5,2" d="M716.415,-61.5717C745.548,-66.5761 777.501,-73.5231 806,-83 831.108,-91.3493 857.899,-105.205 876.781,-115.889"/>
<polygon fill="#9a32cd" stroke="#9a32cd" points="716.676,-58.0672 706.238,-59.8816 715.529,-64.9727 716.676,-58.0672"/>
<text text-anchor="middle" x="765" y="-86" font-family="FreeSans" font-size="10.00"> myPtrIdxSurface</text>
</g>
<!-- Node10 -->
<g id="node10" class="node"><title>Node10</title>
<g id="a_node10"><a xlink:href="structDGtal_1_1CountedPtr_1_1Counter.html" target="_top" xlink:title="DGtal::CountedPtr\&lt;\l T \&gt;::Counter">
<polygon fill="white" stroke="black" points="0,-28 0,-58 112,-58 112,-28 0,-28"/>
<text text-anchor="start" x="8" y="-46" font-family="FreeSans" font-size="10.00">DGtal::CountedPtr&lt;</text>
<text text-anchor="middle" x="56" y="-35" font-family="FreeSans" font-size="10.00"> T &gt;::Counter</text>
</a>
</g>
</g>
<!-- Node10&#45;&gt;Node9 -->
<g id="edge12" class="edge"><title>Node10&#45;&gt;Node9</title>
<path fill="none" stroke="#9a32cd" stroke-dasharray="5,2" d="M122.361,-43.8112C225.299,-45.0888 425.065,-47.5682 537.999,-48.9698"/>
<polygon fill="#9a32cd" stroke="#9a32cd" points="122.148,-40.3084 112.106,-43.6839 122.061,-47.3079 122.148,-40.3084"/>
<text text-anchor="middle" x="272" y="-50" font-family="FreeSans" font-size="10.00"> myCounter</text>
</g>
<!-- Node11 -->
<g id="node11" class="node"><title>Node11</title>
<g id="a_node11"><a xlink:href="classDGtal_1_1CountedPtr.html" target="_top" xlink:title="Aim: Smart pointer based on reference counts. ">
<polygon fill="white" stroke="black" points="206.5,-0.5 206.5,-19.5 337.5,-19.5 337.5,-0.5 206.5,-0.5"/>
<text text-anchor="middle" x="272" y="-7.5" font-family="FreeSans" font-size="10.00">DGtal::CountedPtr&lt; T &gt;</text>
</a>
</g>
</g>
<!-- Node10&#45;&gt;Node11 -->
<g id="edge14" class="edge"><title>Node10&#45;&gt;Node11</title>
<path fill="none" stroke="#9a32cd" stroke-dasharray="5,2" d="M122.385,-32.2024C124.956,-31.7935 127.502,-31.3913 130,-31 154.94,-27.0931 182.39,-22.9657 206.391,-19.4138"/>
<polygon fill="#9a32cd" stroke="#9a32cd" points="121.709,-28.766 112.389,-33.805 122.817,-35.6778 121.709,-28.766"/>
<text text-anchor="middle" x="159" y="-34" font-family="FreeSans" font-size="10.00"> myCounter</text>
</g>
<!-- Node11&#45;&gt;Node9 -->
<g id="edge13" class="edge"><title>Node11&#45;&gt;Node9</title>
<path fill="none" stroke="orange" stroke-dasharray="5,2" d="M347.901,-14.3912C396.985,-17.755 462.473,-23.164 520,-31 528.398,-32.1439 537.156,-33.5174 545.852,-34.9959"/>
<polygon fill="orange" stroke="orange" points="347.897,-10.8831 337.685,-13.7043 347.427,-17.8673 347.897,-10.8831"/>
<text text-anchor="middle" x="438" y="-34" font-family="FreeSans" font-size="10.00"> &lt; DGtal::IndexedDigitalSurface &gt;</text>
</g>
<!-- Node12&#45;&gt;Node1 -->
<g id="edge15" class="edge"><title>Node12&#45;&gt;Node1</title>
<path fill="none" stroke="#9a32cd" stroke-dasharray="5,2" d="M693.031,-95.487C727.265,-97.002 768.969,-100.019 806,-106 820.962,-108.416 836.981,-112.126 851.563,-115.953"/>
<polygon fill="#9a32cd" stroke="#9a32cd" points="692.794,-91.9745 682.66,-95.0635 692.509,-98.9687 692.794,-91.9745"/>
<text text-anchor="middle" x="765" y="-120" font-family="FreeSans" font-size="10.00"> myPrev</text>
<text text-anchor="middle" x="765" y="-109" font-family="FreeSans" font-size="10.00">myNext</text>
</g>
</g>
</svg>
        <g id="navigator" transform="translate(0 0)" fill="#404254">
                <rect fill="#f2f5e9" fill-opacity="0.5" stroke="#606060" stroke-width=".5" x="0" y="0" width="60" height="60"/>
                <use id="zoomplus" xlink:href="#zoomPlus" x="17" y="9" onmousedown="handleZoom(evt,'in')"/>
                <use id="zoomminus" xlink:href="#zoomMin" x="42" y="9" onmousedown="handleZoom(evt,'out')"/>
                <use id="reset" xlink:href="#resetDef" x="30" y="36" onmousedown="handleReset()"/>
                <g id="arrowUp" xlink:href="#dirArrow" transform="translate(30 24)" onmousedown="handlePan(0,-1)">
                  <use xlink:href="#rim" fill="#404040">
                        <set attributeName="fill" to="#808080" begin="arrowUp.mouseover" end="arrowUp.mouseout"/>
                  </use>
                  <path fill="none" stroke="white" stroke-width="1.5" d="M0,-3.0v7 M-2.5,-0.5L0,-3.0L2.5,-0.5"/>
                </g>
                <g id="arrowRight" xlink:href="#dirArrow" transform="rotate(90) translate(36 -43)" onmousedown="handlePan(1,0)">
                  <use xlink:href="#rim" fill="#404040">
                        <set attributeName="fill" to="#808080" begin="arrowRight.mouseover" end="arrowRight.mouseout"/>
                  </use>
                  <path fill="none" stroke="white" stroke-width="1.5" d="M0,-3.0v7 M-2.5,-0.5L0,-3.0L2.5,-0.5"/>
                </g>
                <g id="arrowDown" xlink:href="#dirArrow" transform="rotate(180) translate(-30 -48)" onmousedown="handlePan(0,1)">
                  <use xlink:href="#rim" fill="#404040">
                        <set attributeName="fill" to="#808080" begin="arrowDown.mouseover" end="arrowDown.mouseout"/>
                  </use>
                  <path fill="none" stroke="white" stroke-width="1.5" d="M0,-3.0v7 M-2.5,-0.5L0,-3.0L2.5,-0.5"/>
                </g>
                <g id="arrowLeft" xlink:href="#dirArrow" transform="rotate(270) translate(-36 17)" onmousedown="handlePan(-1,0)">
                  <use xlink:href="#rim" fill="#404040">
                        <set attributeName="fill" to="#808080" begin="arrowLeft.mouseover" end="arrowLeft.mouseout"/>
                  </use>
                  <path fill="none" stroke="white" stroke-width="1.5" d="M0,-3.0v7 M-2.5,-0.5L0,-3.0L2.5,-0.5"/>
                </g>
        </g>
        <svg viewBox="0 0 15 15" width="100%" height="30px" preserveAspectRatio="xMaxYMin meet">
         <g id="arrow_out" transform="scale(0.3 0.3)">
          <a xlink:href="classDGtal_1_1ShroudsRegularization__coll__graph_org.svg" target="_base">
           <rect id="button" ry="5" rx="5" y="6" x="6" height="38" width="38"
                fill="#f2f5e9" fill-opacity="0.5" stroke="#606060" stroke-width="1.0"/>
           <path id="arrow"
             d="M 11.500037,31.436501 C 11.940474,20.09759 22.043105,11.32322 32.158766,21.979434 L 37.068811,17.246167 C 37.068811,17.246167 37.088388,32 37.088388,32 L 22.160133,31.978069 C 22.160133,31.978069 26.997745,27.140456 26.997745,27.140456 C 18.528582,18.264221 13.291696,25.230495 11.500037,31.436501 z"
             style="fill:#404040;"/>
          </a>
         </g>
        </svg>
</svg>
