<?xml version="1.0" encoding="UTF-8" standalone="no"?>
<!DOCTYPE svg PUBLIC "-//W3C//DTD SVG 1.1//EN"
 "http://www.w3.org/Graphics/SVG/1.1/DTD/svg11.dtd">
<!-- Generated by graphviz version 2.38.0 (20140413.2041)
 -->
<!-- Title: DGtal::Display3D&lt; Space, KSpace &gt; Pages: 1 -->
<svg width="1232pt" height="313pt"
 viewBox="0.00 0.00 1232.00 313.00" xmlns="http://www.w3.org/2000/svg" xmlns:xlink="http://www.w3.org/1999/xlink">
<g id="graph0" class="graph" transform="scale(1 1) rotate(0) translate(4 309)">
<title>DGtal::Display3D&lt; Space, KSpace &gt;</title>
<polygon fill="white" stroke="none" points="-4,4 -4,-309 1228,-309 1228,4 -4,4"/>
<!-- Node0 -->
<g id="node1" class="node"><title>Node0</title>
<polygon fill="#bfbfbf" stroke="black" points="0,-132.5 0,-162.5 142,-162.5 142,-132.5 0,-132.5"/>
<text text-anchor="start" x="8" y="-150.5" font-family="FreeSans" font-size="10.00">DGtal::Display3D&lt; Space,</text>
<text text-anchor="middle" x="71" y="-139.5" font-family="FreeSans" font-size="10.00"> KSpace &gt;</text>
</g>
<!-- Node1 -->
<g id="node2" class="node"><title>Node1</title>
<g id="a_node2"><a xlink:href="classDGtal_1_1Board3D.html" target="_top" xlink:title="The class Board3D is a type of Display3D which export the figures in the format OBJ/MTL when calling ...">
<polygon fill="white" stroke="black" points="314,-274.5 314,-304.5 450,-304.5 450,-274.5 314,-274.5"/>
<text text-anchor="start" x="322" y="-292.5" font-family="FreeSans" font-size="10.00">DGtal::Board3D&lt; Space,</text>
<text text-anchor="middle" x="382" y="-281.5" font-family="FreeSans" font-size="10.00"> KSpace &gt;</text>
</a>
</g>
</g>
<!-- Node0&#45;&gt;Node1 -->
<g id="edge1" class="edge"><title>Node0&#45;&gt;Node1</title>
<path fill="none" stroke="midnightblue" d="M92.4992,-170.137C109.161,-187.288 134.08,-210.257 160,-224.5 208.194,-250.982 268.373,-267.768 313.759,-277.634"/>
<polygon fill="midnightblue" stroke="midnightblue" points="94.876,-167.557 85.4506,-162.718 89.8013,-172.379 94.876,-167.557"/>
</g>
<!-- Node2 -->
<g id="node3" class="node"><title>Node2</title>
<g id="a_node3"><a xlink:href="classDGtal_1_1Board3DTo2D.html" target="_top" xlink:title="Class for PDF, PNG, PS, EPS, SVG export drawings with Cairo with 3D&#45;&gt;2D projection. ">
<polygon fill="white" stroke="black" points="324.5,-225.5 324.5,-255.5 439.5,-255.5 439.5,-225.5 324.5,-225.5"/>
<text text-anchor="start" x="332.5" y="-243.5" font-family="FreeSans" font-size="10.00">DGtal::Board3DTo2D</text>
<text text-anchor="middle" x="382" y="-232.5" font-family="FreeSans" font-size="10.00">&lt; Space, KSpace &gt;</text>
</a>
</g>
</g>
<!-- Node0&#45;&gt;Node2 -->
<g id="edge2" class="edge"><title>Node0&#45;&gt;Node2</title>
<path fill="none" stroke="midnightblue" d="M104.796,-167.904C120.92,-177.175 140.944,-187.59 160,-194.5 214.159,-214.14 278.989,-226.392 324.378,-233.265"/>
<polygon fill="midnightblue" stroke="midnightblue" points="106.184,-164.661 95.7892,-162.613 102.638,-170.696 106.184,-164.661"/>
</g>
<!-- Node4 -->
<g id="node5" class="node"><title>Node4</title>
<g id="a_node5"><a xlink:href="classDGtal_1_1Viewer3D.html" target="_top" xlink:title="Viewer3D\&lt; Space, KSpace \&gt;">
<polygon fill="white" stroke="black" points="304,-138 304,-157 460,-157 460,-138 304,-138"/>
<text text-anchor="middle" x="382" y="-145" font-family="FreeSans" font-size="10.00">Viewer3D&lt; Space, KSpace &gt;</text>
</a>
</g>
</g>
<!-- Node0&#45;&gt;Node4 -->
<g id="edge4" class="edge"><title>Node0&#45;&gt;Node4</title>
<path fill="none" stroke="midnightblue" d="M152.206,-147.5C198.959,-147.5 257.624,-147.5 303.844,-147.5"/>
<polygon fill="midnightblue" stroke="midnightblue" points="152.117,-144 142.117,-147.5 152.117,-151 152.117,-144"/>
</g>
<!-- Node5 -->
<g id="node6" class="node"><title>Node5</title>
<g id="a_node6"><a xlink:href="classDGtal_1_1Display3D.html" target="_top" xlink:title="DGtal::Display3D\&lt; TSpace,\l TKSpace \&gt;">
<polygon fill="white" stroke="black" points="308.5,-88.5 308.5,-118.5 455.5,-118.5 455.5,-88.5 308.5,-88.5"/>
<text text-anchor="start" x="316.5" y="-106.5" font-family="FreeSans" font-size="10.00">DGtal::Display3D&lt; TSpace,</text>
<text text-anchor="middle" x="382" y="-95.5" font-family="FreeSans" font-size="10.00"> TKSpace &gt;</text>
</a>
</g>
</g>
<!-- Node0&#45;&gt;Node5 -->
<g id="edge5" class="edge"><title>Node0&#45;&gt;Node5</title>
<path fill="none" stroke="orange" stroke-dasharray="5,2" d="M151.972,-133.733C154.679,-133.31 157.361,-132.898 160,-132.5 209.457,-125.043 265.308,-117.723 308.49,-112.303"/>
<polygon fill="orange" stroke="orange" points="151.417,-130.277 142.09,-135.304 152.515,-137.19 151.417,-130.277"/>
<text text-anchor="middle" x="223" y="-135.5" font-family="FreeSans" font-size="10.00"> &lt; TSpace, TKSpace &gt;</text>
</g>
<!-- Node9 -->
<g id="node10" class="node"><title>Node9</title>
<g id="a_node10"><a xlink:href="classDGtal_1_1Display3D.html" target="_top" xlink:title="DGtal::Display3D\&lt; DGtal\l::SpaceND, DGtal::KhalimskySpaceND \&gt;">
<polygon fill="white" stroke="black" points="478,-44.5 478,-74.5 689,-74.5 689,-44.5 478,-44.5"/>
<text text-anchor="start" x="486" y="-62.5" font-family="FreeSans" font-size="10.00">DGtal::Display3D&lt; DGtal</text>
<text text-anchor="middle" x="583.5" y="-51.5" font-family="FreeSans" font-size="10.00">::SpaceND, DGtal::KhalimskySpaceND &gt;</text>
</a>
</g>
</g>
<!-- Node0&#45;&gt;Node9 -->
<g id="edge9" class="edge"><title>Node0&#45;&gt;Node9</title>
<path fill="none" stroke="orange" stroke-dasharray="5,2" d="M97.2154,-125.854C113.881,-112.882 136.853,-97.4153 160,-89.5 264.022,-53.9292 390.638,-49.6729 477.983,-52.2877"/>
<polygon fill="orange" stroke="orange" points="94.7185,-123.37 89.1074,-132.357 99.0982,-128.831 94.7185,-123.37"/>
<text text-anchor="start" x="160" y="-103.5" font-family="FreeSans" font-size="10.00"> &lt; DGtal::SpaceND, DGtal</text>
<text text-anchor="middle" x="223" y="-92.5" font-family="FreeSans" font-size="10.00">::KhalimskySpaceND &gt;</text>
</g>
<!-- Node10 -->
<g id="node11" class="node"><title>Node10</title>
<g id="a_node11"><a xlink:href="classDGtal_1_1Display3D.html" target="_top" xlink:title="DGtal::Display3D\&lt; Sp,\l KSp \&gt;">
<polygon fill="white" stroke="black" points="319.5,-0.5 319.5,-30.5 444.5,-30.5 444.5,-0.5 319.5,-0.5"/>
<text text-anchor="start" x="327.5" y="-18.5" font-family="FreeSans" font-size="10.00">DGtal::Display3D&lt; Sp,</text>
<text text-anchor="middle" x="382" y="-7.5" font-family="FreeSans" font-size="10.00"> KSp &gt;</text>
</a>
</g>
</g>
<!-- Node0&#45;&gt;Node10 -->
<g id="edge11" class="edge"><title>Node0&#45;&gt;Node10</title>
<path fill="none" stroke="orange" stroke-dasharray="5,2" d="M81.9806,-122.802C95.1108,-93.9531 121.17,-47.5051 160,-26.5 208.656,-0.179847 272.499,0.0106029 319.05,-4.8606"/>
<polygon fill="orange" stroke="orange" points="78.6703,-121.637 77.8757,-132.202 85.0853,-124.438 78.6703,-121.637"/>
<text text-anchor="middle" x="223" y="-29.5" font-family="FreeSans" font-size="10.00"> &lt; Sp, KSp &gt;</text>
</g>
<!-- Node11 -->
<g id="node12" class="node"><title>Node11</title>
<g id="a_node12"><a xlink:href="classDGtal_1_1Display3D.html" target="_top" xlink:title="DGtal::Display3D\&lt; S,\l KS \&gt;">
<polygon fill="white" stroke="black" points="322.5,-176.5 322.5,-206.5 441.5,-206.5 441.5,-176.5 322.5,-176.5"/>
<text text-anchor="start" x="330.5" y="-194.5" font-family="FreeSans" font-size="10.00">DGtal::Display3D&lt; S,</text>
<text text-anchor="middle" x="382" y="-183.5" font-family="FreeSans" font-size="10.00"> KS &gt;</text>
</a>
</g>
</g>
<!-- Node0&#45;&gt;Node11 -->
<g id="edge12" class="edge"><title>Node0&#45;&gt;Node11</title>
<path fill="none" stroke="orange" stroke-dasharray="5,2" d="M152.261,-160.347C154.871,-160.74 157.456,-161.125 160,-161.5 214.969,-169.602 277.754,-178.048 322.32,-183.905"/>
<polygon fill="orange" stroke="orange" points="152.52,-156.846 142.107,-158.801 151.466,-163.766 152.52,-156.846"/>
<text text-anchor="middle" x="223" y="-182.5" font-family="FreeSans" font-size="10.00"> &lt; S, KS &gt;</text>
</g>
<!-- Node3 -->
<g id="node4" class="node"><title>Node3</title>
<g id="a_node4"><a xlink:href="classDGtal_1_1Board3DTo2D.html" target="_top" xlink:title="DGtal::Board3DTo2D\l\&lt; S, KS \&gt;">
<polygon fill="white" stroke="black" points="721.5,-196.5 721.5,-226.5 836.5,-226.5 836.5,-196.5 721.5,-196.5"/>
<text text-anchor="start" x="729.5" y="-214.5" font-family="FreeSans" font-size="10.00">DGtal::Board3DTo2D</text>
<text text-anchor="middle" x="779" y="-203.5" font-family="FreeSans" font-size="10.00">&lt; S, KS &gt;</text>
</a>
</g>
</g>
<!-- Node2&#45;&gt;Node3 -->
<g id="edge3" class="edge"><title>Node2&#45;&gt;Node3</title>
<path fill="none" stroke="orange" stroke-dasharray="5,2" d="M450.031,-235.579C526.279,-229.981 649.473,-220.936 721.191,-215.671"/>
<polygon fill="orange" stroke="orange" points="449.311,-232.122 439.594,-236.345 449.823,-239.103 449.311,-232.122"/>
<text text-anchor="middle" x="583.5" y="-235.5" font-family="FreeSans" font-size="10.00"> &lt; S, KS &gt;</text>
</g>
<!-- Node6 -->
<g id="node7" class="node"><title>Node6</title>
<g id="a_node7"><a xlink:href="classDGtal_1_1Viewer3D.html" target="_top" xlink:title="DGtal::Viewer3D\&lt; TSpace,\l TKSpace \&gt;">
<polygon fill="white" stroke="black" points="707,-88.5 707,-118.5 851,-118.5 851,-88.5 707,-88.5"/>
<text text-anchor="start" x="715" y="-106.5" font-family="FreeSans" font-size="10.00">DGtal::Viewer3D&lt; TSpace,</text>
<text text-anchor="middle" x="779" y="-95.5" font-family="FreeSans" font-size="10.00"> TKSpace &gt;</text>
</a>
</g>
</g>
<!-- Node5&#45;&gt;Node6 -->
<g id="edge6" class="edge"><title>Node5&#45;&gt;Node6</title>
<path fill="none" stroke="midnightblue" d="M466.207,-103.5C537.549,-103.5 639.227,-103.5 706.846,-103.5"/>
<polygon fill="midnightblue" stroke="midnightblue" points="465.909,-100 455.909,-103.5 465.909,-107 465.909,-100"/>
</g>
<!-- Node7 -->
<g id="node8" class="node"><title>Node7</title>
<g id="a_node8"><a xlink:href="classDGtal_1_1Viewer3D.html" target="_top" xlink:title="DGtal::Viewer3D\&lt; DGtal\l::SpaceND, DGtal::KhalimskySpaceND \&gt;">
<polygon fill="white" stroke="black" points="1013,-59.5 1013,-89.5 1224,-89.5 1224,-59.5 1013,-59.5"/>
<text text-anchor="start" x="1021" y="-77.5" font-family="FreeSans" font-size="10.00">DGtal::Viewer3D&lt; DGtal</text>
<text text-anchor="middle" x="1118.5" y="-66.5" font-family="FreeSans" font-size="10.00">::SpaceND, DGtal::KhalimskySpaceND &gt;</text>
</a>
</g>
</g>
<!-- Node6&#45;&gt;Node7 -->
<g id="edge7" class="edge"><title>Node6&#45;&gt;Node7</title>
<path fill="none" stroke="orange" stroke-dasharray="5,2" d="M861.381,-94.2375C863.949,-93.9831 866.494,-93.7365 869,-93.5 916.169,-89.0482 968.451,-84.9286 1012.84,-81.6715"/>
<polygon fill="orange" stroke="orange" points="860.98,-90.7601 851.385,-95.2531 861.688,-97.7242 860.98,-90.7601"/>
<text text-anchor="start" x="869" y="-107.5" font-family="FreeSans" font-size="10.00"> &lt; DGtal::SpaceND, DGtal</text>
<text text-anchor="middle" x="932" y="-96.5" font-family="FreeSans" font-size="10.00">::KhalimskySpaceND &gt;</text>
</g>
<!-- Node8 -->
<g id="node9" class="node"><title>Node8</title>
<g id="a_node9"><a xlink:href="classDGtal_1_1Viewer3D.html" target="_top" xlink:title="DGtal::Viewer3D\&lt; Space,\l KSpace \&gt;">
<polygon fill="white" stroke="black" points="1049,-122.5 1049,-152.5 1188,-152.5 1188,-122.5 1049,-122.5"/>
<text text-anchor="start" x="1057" y="-140.5" font-family="FreeSans" font-size="10.00">DGtal::Viewer3D&lt; Space,</text>
<text text-anchor="middle" x="1118.5" y="-129.5" font-family="FreeSans" font-size="10.00"> KSpace &gt;</text>
</a>
</g>
</g>
<!-- Node6&#45;&gt;Node8 -->
<g id="edge8" class="edge"><title>Node6&#45;&gt;Node8</title>
<path fill="none" stroke="orange" stroke-dasharray="5,2" d="M861.374,-114.625C863.945,-114.927 866.492,-115.22 869,-115.5 929.692,-122.275 998.913,-128.26 1048.86,-132.271"/>
<polygon fill="orange" stroke="orange" points="861.721,-111.142 851.373,-113.415 860.88,-118.091 861.721,-111.142"/>
<text text-anchor="middle" x="932" y="-130.5" font-family="FreeSans" font-size="10.00"> &lt; Space, KSpace &gt;</text>
</g>
<!-- Node9&#45;&gt;Node7 -->
<g id="edge10" class="edge"><title>Node9&#45;&gt;Node7</title>
<path fill="none" stroke="midnightblue" d="M699.187,-62.7276C792.229,-65.346 922.313,-69.0069 1012.62,-71.5483"/>
<polygon fill="midnightblue" stroke="midnightblue" points="699.262,-59.2284 689.168,-62.4456 699.065,-66.2256 699.262,-59.2284"/>
</g>
<!-- Node11&#45;&gt;Node3 -->
<g id="edge13" class="edge"><title>Node11&#45;&gt;Node3</title>
<path fill="none" stroke="midnightblue" d="M451.712,-194.979C528.087,-198.846 650.024,-205.02 721.214,-208.625"/>
<polygon fill="midnightblue" stroke="midnightblue" points="451.873,-191.483 441.709,-194.473 451.519,-198.474 451.873,-191.483"/>
</g>
</g>
</svg>
