<?xml version="1.0" encoding="UTF-8" standalone="no"?>
<!DOCTYPE svg PUBLIC "-//W3C//DTD SVG 1.1//EN"
 "http://www.w3.org/Graphics/SVG/1.1/DTD/svg11.dtd">
<!-- Generated by graphviz version 2.38.0 (20140413.2041)
 -->
<!-- Title: DGtal::LambdaMST2D&lt; DSSSegmentationComputer, LambdaFunction &gt; Pages: 1 -->
<svg width="2588pt" height="133pt"
 viewBox="0.00 0.00 2588.00 132.50" xmlns="http://www.w3.org/2000/svg" xmlns:xlink="http://www.w3.org/1999/xlink">
<g id="graph0" class="graph" transform="scale(1 1) rotate(0) translate(4 128.5)">
<title>DGtal::LambdaMST2D&lt; DSSSegmentationComputer, LambdaFunction &gt;</title>
<polygon fill="white" stroke="none" points="-4,4 -4,-128.5 2584,-128.5 2584,4 -4,4"/>
<!-- Node3 -->
<g id="node1" class="node"><title>Node3</title>
<polygon fill="#bfbfbf" stroke="black" points="2412,-36 2412,-77 2580,-77 2580,-36 2412,-36"/>
<text text-anchor="start" x="2420" y="-65" font-family="FreeSans" font-size="10.00">DGtal::LambdaMST2D</text>
<text text-anchor="start" x="2420" y="-54" font-family="FreeSans" font-size="10.00">&lt; DSSSegmentationComputer,</text>
<text text-anchor="middle" x="2496" y="-43" font-family="FreeSans" font-size="10.00"> LambdaFunction &gt;</text>
</g>
<!-- Node4 -->
<g id="node2" class="node"><title>Node4</title>
<g id="a_node2"><a xlink:href="classDGtal_1_1LambdaMST2DEstimator.html" target="_top" xlink:title="DGtal::LambdaMST2DEstimator\l\&lt; Z2i::Space, DSSSegmentationComputer,\l TangentFromDSS2DFunctor\&lt; DSSSegmentationComputer\l::SegmentComputer, LambdaFunction \&gt; \&gt;">
<polygon fill="white" stroke="black" points="2076,-30.5 2076,-82.5 2375,-82.5 2375,-30.5 2076,-30.5"/>
<text text-anchor="start" x="2084" y="-70.5" font-family="FreeSans" font-size="10.00">DGtal::LambdaMST2DEstimator</text>
<text text-anchor="start" x="2084" y="-59.5" font-family="FreeSans" font-size="10.00">&lt; Z2i::Space, DSSSegmentationComputer,</text>
<text text-anchor="start" x="2084" y="-48.5" font-family="FreeSans" font-size="10.00"> TangentFromDSS2DFunctor&lt; DSSSegmentationComputer</text>
<text text-anchor="middle" x="2225.5" y="-37.5" font-family="FreeSans" font-size="10.00">::SegmentComputer, LambdaFunction &gt; &gt;</text>
</a>
</g>
</g>
<!-- Node4&#45;&gt;Node3 -->
<g id="edge1" class="edge"><title>Node4&#45;&gt;Node3</title>
<path fill="none" stroke="midnightblue" d="M2385.45,-56.5C2394.42,-56.5 2403.23,-56.5 2411.72,-56.5"/>
<polygon fill="midnightblue" stroke="midnightblue" points="2385.28,-53.0001 2375.28,-56.5 2385.28,-60.0001 2385.28,-53.0001"/>
</g>
<!-- Node5 -->
<g id="node3" class="node"><title>Node5</title>
<g id="a_node3"><a xlink:href="classDGtal_1_1InHalfPlaneBySimple3x3Matrix.html" target="_top" xlink:title="DGtal::InHalfPlaneBySimple3x3\lMatrix\&lt; Point, double \&gt;">
<polygon fill="white" stroke="black" points="1350,-32.5 1350,-62.5 1515,-62.5 1515,-32.5 1350,-32.5"/>
<text text-anchor="start" x="1358" y="-50.5" font-family="FreeSans" font-size="10.00">DGtal::InHalfPlaneBySimple3x3</text>
<text text-anchor="middle" x="1432.5" y="-39.5" font-family="FreeSans" font-size="10.00">Matrix&lt; Point, double &gt;</text>
</a>
</g>
</g>
<!-- Node5&#45;&gt;Node4 -->
<g id="edge2" class="edge"><title>Node5&#45;&gt;Node4</title>
<path fill="none" stroke="#9a32cd" stroke-dasharray="5,2" d="M1525.35,-46.3248C1555.79,-45.9875 1589.85,-45.6661 1621,-45.5 1696.11,-45.0994 1714.89,-44.5495 1790,-45.5 1885.07,-46.7032 1991.81,-49.3868 2075.71,-51.8019"/>
<polygon fill="#9a32cd" stroke="#9a32cd" points="1525.14,-42.8269 1515.18,-46.4396 1525.22,-49.8264 1525.14,-42.8269"/>
<text text-anchor="middle" x="1705.5" y="-48.5" font-family="FreeSans" font-size="10.00"> myFunctor</text>
</g>
<!-- Node12 -->
<g id="node10" class="node"><title>Node12</title>
<g id="a_node10"><a xlink:href="classDGtal_1_1LambdaMST2DEstimator.html" target="_top" xlink:title="DGtal::LambdaMST2DEstimator\l\&lt; TSpace, TSegmentation,\l Functor \&gt;">
<polygon fill="white" stroke="black" points="1621,-66 1621,-107 1790,-107 1790,-66 1621,-66"/>
<text text-anchor="start" x="1629" y="-95" font-family="FreeSans" font-size="10.00">DGtal::LambdaMST2DEstimator</text>
<text text-anchor="start" x="1629" y="-84" font-family="FreeSans" font-size="10.00">&lt; TSpace, TSegmentation,</text>
<text text-anchor="middle" x="1705.5" y="-73" font-family="FreeSans" font-size="10.00"> Functor &gt;</text>
</a>
</g>
</g>
<!-- Node5&#45;&gt;Node12 -->
<g id="edge13" class="edge"><title>Node5&#45;&gt;Node12</title>
<path fill="none" stroke="#9a32cd" stroke-dasharray="5,2" d="M1525.09,-60.6803C1556.01,-65.1304 1590.35,-70.0729 1620.65,-74.4324"/>
<polygon fill="#9a32cd" stroke="#9a32cd" points="1525.57,-57.2144 1515.18,-59.2542 1524.58,-64.143 1525.57,-57.2144"/>
<text text-anchor="middle" x="1568" y="-75.5" font-family="FreeSans" font-size="10.00"> myFunctor</text>
</g>
<!-- Node6 -->
<g id="node4" class="node"><title>Node6</title>
<g id="a_node4"><a xlink:href="classDGtal_1_1SimpleMatrix.html" target="_top" xlink:title="DGtal::SimpleMatrix\l\&lt; Integer, 3, 3 \&gt;">
<polygon fill="white" stroke="black" points="865,-39.5 865,-69.5 977,-69.5 977,-39.5 865,-39.5"/>
<text text-anchor="start" x="873" y="-57.5" font-family="FreeSans" font-size="10.00">DGtal::SimpleMatrix</text>
<text text-anchor="middle" x="921" y="-46.5" font-family="FreeSans" font-size="10.00">&lt; Integer, 3, 3 &gt;</text>
</a>
</g>
</g>
<!-- Node6&#45;&gt;Node5 -->
<g id="edge3" class="edge"><title>Node6&#45;&gt;Node5</title>
<path fill="none" stroke="#9a32cd" stroke-dasharray="5,2" d="M987.085,-54.6831C1067.96,-54.7587 1210.19,-54.3934 1332,-51.5 1337.79,-51.3625 1343.77,-51.1924 1349.79,-51.0008"/>
<polygon fill="#9a32cd" stroke="#9a32cd" points="987.056,-51.1832 977.051,-54.6712 987.047,-58.1832 987.056,-51.1832"/>
<text text-anchor="middle" x="1143.5" y="-58.5" font-family="FreeSans" font-size="10.00"> myMatrix</text>
</g>
<!-- Node11 -->
<g id="node9" class="node"><title>Node11</title>
<g id="a_node9"><a xlink:href="classDGtal_1_1InHalfPlaneBySimple3x3Matrix.html" target="_top" xlink:title="Aim: Class that implements an orientation functor, ie. it provides a way to compute the orientation o...">
<polygon fill="white" stroke="black" points="1061,-0.5 1061,-30.5 1226,-30.5 1226,-0.5 1061,-0.5"/>
<text text-anchor="start" x="1069" y="-18.5" font-family="FreeSans" font-size="10.00">DGtal::InHalfPlaneBySimple3x3</text>
<text text-anchor="middle" x="1143.5" y="-7.5" font-family="FreeSans" font-size="10.00">Matrix&lt; TPoint, TInteger &gt;</text>
</a>
</g>
</g>
<!-- Node6&#45;&gt;Node11 -->
<g id="edge10" class="edge"><title>Node6&#45;&gt;Node11</title>
<path fill="none" stroke="#9a32cd" stroke-dasharray="5,2" d="M987.083,-42.9888C1010.14,-38.9106 1036.38,-34.2689 1060.66,-29.9758"/>
<polygon fill="#9a32cd" stroke="#9a32cd" points="986.31,-39.571 977.073,-44.7593 987.529,-46.464 986.31,-39.571"/>
<text text-anchor="middle" x="1019" y="-44.5" font-family="FreeSans" font-size="10.00"> myMatrix</text>
</g>
<!-- Node7 -->
<g id="node5" class="node"><title>Node7</title>
<polygon fill="white" stroke="#bfbfbf" points="352,-40.5 352,-70.5 485,-70.5 485,-40.5 352,-40.5"/>
<text text-anchor="start" x="360" y="-58.5" font-family="FreeSans" font-size="10.00">std::array&lt; Component,</text>
<text text-anchor="middle" x="418.5" y="-47.5" font-family="FreeSans" font-size="10.00"> M *N &gt;</text>
</g>
<!-- Node7&#45;&gt;Node6 -->
<g id="edge4" class="edge"><title>Node7&#45;&gt;Node6</title>
<path fill="none" stroke="#9a32cd" stroke-dasharray="5,2" d="M495.268,-60.2352C497.877,-60.335 500.46,-60.424 503,-60.5 566.248,-62.392 730.961,-63.6945 847,-59.5 852.713,-59.2935 858.673,-59.0051 864.617,-58.67"/>
<polygon fill="#9a32cd" stroke="#9a32cd" points="495.261,-56.7318 485.12,-59.801 494.962,-63.7254 495.261,-56.7318"/>
<text text-anchor="middle" x="676" y="-76.5" font-family="FreeSans" font-size="10.00"> myCofactorCoefs</text>
<text text-anchor="middle" x="676" y="-65.5" font-family="FreeSans" font-size="10.00">myValues</text>
</g>
<!-- Node10 -->
<g id="node8" class="node"><title>Node10</title>
<g id="a_node8"><a xlink:href="classDGtal_1_1SimpleMatrix.html" target="_top" xlink:title="Aim: implements basic MxN Matrix services (M,N&gt;=1). ">
<polygon fill="white" stroke="black" points="607,-7.5 607,-37.5 745,-37.5 745,-7.5 607,-7.5"/>
<text text-anchor="start" x="615" y="-25.5" font-family="FreeSans" font-size="10.00">DGtal::SimpleMatrix</text>
<text text-anchor="middle" x="676" y="-14.5" font-family="FreeSans" font-size="10.00">&lt; TComponent, TM, TN &gt;</text>
</a>
</g>
</g>
<!-- Node7&#45;&gt;Node10 -->
<g id="edge8" class="edge"><title>Node7&#45;&gt;Node10</title>
<path fill="none" stroke="#9a32cd" stroke-dasharray="5,2" d="M494.933,-39.7595C497.652,-39.3141 500.347,-38.8922 503,-38.5 537.118,-33.4552 575.292,-29.7141 606.993,-27.1234"/>
<polygon fill="#9a32cd" stroke="#9a32cd" points="494.281,-36.3201 485.019,-41.4641 495.467,-43.2189 494.281,-36.3201"/>
<text text-anchor="middle" x="546" y="-52.5" font-family="FreeSans" font-size="10.00"> myCofactorCoefs</text>
<text text-anchor="middle" x="546" y="-41.5" font-family="FreeSans" font-size="10.00">myValues</text>
</g>
<!-- Node8 -->
<g id="node6" class="node"><title>Node8</title>
<g id="a_node6"><a xlink:title="STL class. ">
<polygon fill="white" stroke="#bfbfbf" points="114,-46 114,-65 204,-65 204,-46 114,-46"/>
<text text-anchor="middle" x="159" y="-53" font-family="FreeSans" font-size="10.00">std::array&lt; T &gt;</text>
</a>
</g>
</g>
<!-- Node8&#45;&gt;Node7 -->
<g id="edge5" class="edge"><title>Node8&#45;&gt;Node7</title>
<path fill="none" stroke="orange" stroke-dasharray="5,2" d="M214.375,-55.5C254.425,-55.5 309.087,-55.5 351.618,-55.5"/>
<polygon fill="orange" stroke="orange" points="214.266,-52.0001 204.266,-55.5 214.266,-59.0001 214.266,-52.0001"/>
<text text-anchor="middle" x="278" y="-58.5" font-family="FreeSans" font-size="10.00"> &lt; Component, M *N &gt;</text>
</g>
<!-- Node9 -->
<g id="node7" class="node"><title>Node9</title>
<polygon fill="white" stroke="#bfbfbf" points="0,-46 0,-65 29,-65 29,-46 0,-46"/>
<text text-anchor="middle" x="14.5" y="-53" font-family="FreeSans" font-size="10.00">T</text>
</g>
<!-- Node9&#45;&gt;Node8 -->
<g id="edge6" class="edge"><title>Node9&#45;&gt;Node8</title>
<path fill="none" stroke="#9a32cd" stroke-dasharray="5,2" d="M39.3503,-55.5C59.5779,-55.5 89.1336,-55.5 113.686,-55.5"/>
<polygon fill="#9a32cd" stroke="#9a32cd" points="39.1635,-52.0001 29.1635,-55.5 39.1635,-59.0001 39.1635,-52.0001"/>
<text text-anchor="middle" x="71.5" y="-58.5" font-family="FreeSans" font-size="10.00"> elements</text>
</g>
<!-- Node10&#45;&gt;Node6 -->
<g id="edge7" class="edge"><title>Node10&#45;&gt;Node6</title>
<path fill="none" stroke="orange" stroke-dasharray="5,2" d="M754.928,-32.7621C790.674,-37.4694 832.219,-42.9404 864.688,-47.2161"/>
<polygon fill="orange" stroke="orange" points="755.384,-29.292 745.012,-31.4563 754.47,-36.2321 755.384,-29.292"/>
<text text-anchor="middle" x="805" y="-47.5" font-family="FreeSans" font-size="10.00"> &lt; Integer, 3, 3 &gt;</text>
</g>
<!-- Node11&#45;&gt;Node5 -->
<g id="edge9" class="edge"><title>Node11&#45;&gt;Node5</title>
<path fill="none" stroke="orange" stroke-dasharray="5,2" d="M1236.46,-25.7539C1272.81,-29.8059 1314.23,-34.425 1349.53,-38.3608"/>
<polygon fill="orange" stroke="orange" points="1236.68,-22.2568 1226.36,-24.6271 1235.91,-29.2137 1236.68,-22.2568"/>
<text text-anchor="middle" x="1288" y="-39.5" font-family="FreeSans" font-size="10.00"> &lt; Point, double &gt;</text>
</g>
<!-- Node12&#45;&gt;Node4 -->
<g id="edge11" class="edge"><title>Node12&#45;&gt;Node4</title>
<path fill="none" stroke="orange" stroke-dasharray="5,2" d="M1800.15,-81.0764C1876.92,-76.6301 1987,-70.2546 2075.81,-65.1114"/>
<polygon fill="orange" stroke="orange" points="1799.79,-77.5909 1790.01,-81.6633 1800.2,-84.5792 1799.79,-77.5909"/>
<text text-anchor="start" x="1808" y="-116.5" font-family="FreeSans" font-size="10.00"> &lt; Z2i::Space, DSSSegmentation</text>
<text text-anchor="start" x="1808" y="-105.5" font-family="FreeSans" font-size="10.00">Computer, TangentFromDSS2DFunctor</text>
<text text-anchor="start" x="1808" y="-94.5" font-family="FreeSans" font-size="10.00">&lt; DSSSegmentationComputer::SegmentComputer,</text>
<text text-anchor="middle" x="1933" y="-83.5" font-family="FreeSans" font-size="10.00"> LambdaFunction &gt; &gt;</text>
</g>
<!-- Node13 -->
<g id="node11" class="node"><title>Node13</title>
<polygon fill="white" stroke="#bfbfbf" points="1387.5,-94 1387.5,-113 1477.5,-113 1477.5,-94 1387.5,-94"/>
<text text-anchor="middle" x="1432.5" y="-101" font-family="FreeSans" font-size="10.00">TSegmentation</text>
</g>
<!-- Node13&#45;&gt;Node12 -->
<g id="edge12" class="edge"><title>Node13&#45;&gt;Node12</title>
<path fill="none" stroke="#9a32cd" stroke-dasharray="5,2" d="M1488.01,-100.08C1526.11,-97.6902 1577.71,-94.4537 1620.97,-91.7398"/>
<polygon fill="#9a32cd" stroke="#9a32cd" points="1487.41,-96.6115 1477.64,-100.731 1487.84,-103.598 1487.41,-96.6115"/>
<text text-anchor="middle" x="1568" y="-100.5" font-family="FreeSans" font-size="10.00"> dssSegments</text>
</g>
</g>
</svg>
