<?xml version="1.0" encoding="UTF-8" standalone="no"?>
<!DOCTYPE svg PUBLIC "-//W3C//DTD SVG 1.1//EN"
 "http://www.w3.org/Graphics/SVG/1.1/DTD/svg11.dtd">
<!-- Generated by graphviz version 2.36.0 (20140111.2315)
 -->
<!-- Title: DGtal::CountedPtr&lt; T &gt; Pages: 1 -->
<svg width="528pt" height="1617pt"
 viewBox="0.00 0.00 528.00 1616.92" xmlns="http://www.w3.org/2000/svg" xmlns:xlink="http://www.w3.org/1999/xlink">
<g id="graph0" class="graph" transform="scale(1 1) rotate(0) translate(4 1612.92)">
<title>DGtal::CountedPtr&lt; T &gt;</title>
<polygon fill="white" stroke="none" points="-4,4 -4,-1612.92 524,-1612.92 524,4 -4,4"/>
<!-- Node0 -->
<g id="node1" class="node"><title>Node0</title>
<polygon fill="#bfbfbf" stroke="black" points="0.5,-800.419 0.5,-819.419 131.5,-819.419 131.5,-800.419 0.5,-800.419"/>
<text text-anchor="middle" x="66" y="-807.419" font-family="FreeSans" font-size="10.00">DGtal::CountedPtr&lt; T &gt;</text>
</g>
<!-- Node1 -->
<g id="node2" class="node"><title>Node1</title>
<g id="a_node2"><a xlink:href="classDGtal_1_1CountedPtr.html" target="_top" xlink:title="DGtal::CountedPtr\&lt;\l Sequence \&gt;">
<polygon fill="white" stroke="black" points="375,-1564.92 375,-1594.92 487,-1594.92 487,-1564.92 375,-1564.92"/>
<text text-anchor="start" x="383" y="-1582.92" font-family="FreeSans" font-size="10.00">DGtal::CountedPtr&lt;</text>
<text text-anchor="middle" x="431" y="-1571.92" font-family="FreeSans" font-size="10.00"> Sequence &gt;</text>
</a>
</g>
</g>
<!-- Node0&#45;&gt;Node1 -->
<g id="edge1" class="edge"><title>Node0&#45;&gt;Node1</title>
<path fill="none" stroke="orange" stroke-dasharray="5,2" d="M67.7719,-829.843C72.3293,-942.599 97.3381,-1497.52 150,-1549.92 208.481,-1608.11 311.528,-1602.62 374.976,-1592.12"/>
<polygon fill="orange" stroke="orange" points="71.2583,-829.428 67.3646,-819.575 64.2638,-829.706 71.2583,-829.428"/>
<text text-anchor="middle" x="237" y="-1600.92" font-family="FreeSans" font-size="10.00"> &lt; Sequence &gt;</text>
</g>
<!-- Node2 -->
<g id="node3" class="node"><title>Node2</title>
<g id="a_node3"><a xlink:href="classDGtal_1_1CountedPtr.html" target="_top" xlink:title="DGtal::CountedPtr\&lt;\l const Domain \&gt;">
<polygon fill="white" stroke="black" points="375,-1515.92 375,-1545.92 487,-1545.92 487,-1515.92 375,-1515.92"/>
<text text-anchor="start" x="383" y="-1533.92" font-family="FreeSans" font-size="10.00">DGtal::CountedPtr&lt;</text>
<text text-anchor="middle" x="431" y="-1522.92" font-family="FreeSans" font-size="10.00"> const Domain &gt;</text>
</a>
</g>
</g>
<!-- Node0&#45;&gt;Node2 -->
<g id="edge2" class="edge"><title>Node0&#45;&gt;Node2</title>
<path fill="none" stroke="orange" stroke-dasharray="5,2" d="M67.8918,-829.71C72.973,-938.274 99.8274,-1458.38 150,-1506.92 180.944,-1536.86 302.316,-1536.92 374.715,-1534.07"/>
<polygon fill="orange" stroke="orange" points="71.3792,-829.353 67.423,-819.524 64.3866,-829.675 71.3792,-829.353"/>
<text text-anchor="middle" x="237" y="-1537.92" font-family="FreeSans" font-size="10.00"> &lt; const Domain &gt;</text>
</g>
<!-- Node3 -->
<g id="node4" class="node"><title>Node3</title>
<g id="a_node4"><a xlink:href="classDGtal_1_1CountedPtr.html" target="_top" xlink:title="DGtal::CountedPtr\&lt;\l StabbingLineComputer\l\&lt; ConstIterator \&gt; \&gt;">
<polygon fill="white" stroke="black" points="366,-1456.42 366,-1497.42 496,-1497.42 496,-1456.42 366,-1456.42"/>
<text text-anchor="start" x="374" y="-1485.42" font-family="FreeSans" font-size="10.00">DGtal::CountedPtr&lt;</text>
<text text-anchor="start" x="374" y="-1474.42" font-family="FreeSans" font-size="10.00"> StabbingLineComputer</text>
<text text-anchor="middle" x="431" y="-1463.42" font-family="FreeSans" font-size="10.00">&lt; ConstIterator &gt; &gt;</text>
</a>
</g>
</g>
<!-- Node0&#45;&gt;Node3 -->
<g id="edge3" class="edge"><title>Node0&#45;&gt;Node3</title>
<path fill="none" stroke="orange" stroke-dasharray="5,2" d="M68.1024,-829.781C74.0408,-933.363 103.681,-1408.54 150,-1452.92 179.858,-1481.52 292.926,-1482.77 365.927,-1480.35"/>
<polygon fill="orange" stroke="orange" points="71.5938,-829.528 67.5349,-819.741 64.6049,-829.923 71.5938,-829.528"/>
<text text-anchor="start" x="174.5" y="-1494.92" font-family="FreeSans" font-size="10.00"> &lt; StabbingLineComputer</text>
<text text-anchor="middle" x="237" y="-1483.92" font-family="FreeSans" font-size="10.00">&lt; ConstIterator &gt; &gt;</text>
</g>
<!-- Node4 -->
<g id="node5" class="node"><title>Node4</title>
<g id="a_node5"><a xlink:href="classDGtal_1_1CountedPtr.html" target="_top" xlink:title="DGtal::CountedPtr\&lt;\l AdjacentVertexContainer \&gt;">
<polygon fill="white" stroke="black" points="356,-1407.92 356,-1437.92 506,-1437.92 506,-1407.92 356,-1407.92"/>
<text text-anchor="start" x="364" y="-1425.92" font-family="FreeSans" font-size="10.00">DGtal::CountedPtr&lt;</text>
<text text-anchor="middle" x="431" y="-1414.92" font-family="FreeSans" font-size="10.00"> AdjacentVertexContainer &gt;</text>
</a>
</g>
</g>
<!-- Node0&#45;&gt;Node4 -->
<g id="edge4" class="edge"><title>Node0&#45;&gt;Node4</title>
<path fill="none" stroke="orange" stroke-dasharray="5,2" d="M66.7757,-829.923C66.1784,-922.481 68.6649,-1308.06 150,-1387.92 203.307,-1440.26 292.466,-1442.66 355.845,-1436.05"/>
<polygon fill="orange" stroke="orange" points="70.2773,-829.732 66.8633,-819.702 63.2776,-829.672 70.2773,-829.732"/>
<text text-anchor="middle" x="237" y="-1440.92" font-family="FreeSans" font-size="10.00"> &lt; AdjacentVertexContainer &gt;</text>
</g>
<!-- Node5 -->
<g id="node6" class="node"><title>Node5</title>
<g id="a_node6"><a xlink:href="classDGtal_1_1CountedPtr.html" target="_top" xlink:title="DGtal::CountedPtr\&lt;\l DrawableWithBoard2D \&gt;">
<polygon fill="white" stroke="black" points="362.5,-1358.92 362.5,-1388.92 499.5,-1388.92 499.5,-1358.92 362.5,-1358.92"/>
<text text-anchor="start" x="370.5" y="-1376.92" font-family="FreeSans" font-size="10.00">DGtal::CountedPtr&lt;</text>
<text text-anchor="middle" x="431" y="-1365.92" font-family="FreeSans" font-size="10.00"> DrawableWithBoard2D &gt;</text>
</a>
</g>
</g>
<!-- Node0&#45;&gt;Node5 -->
<g id="edge5" class="edge"><title>Node0&#45;&gt;Node5</title>
<path fill="none" stroke="orange" stroke-dasharray="5,2" d="M67.0545,-829.919C67.7329,-917.69 75.1576,-1267.62 150,-1339.92 179.363,-1368.29 289.272,-1374.12 362.339,-1374.75"/>
<polygon fill="orange" stroke="orange" points="70.5536,-829.711 66.9985,-819.73 63.5537,-829.75 70.5536,-829.711"/>
<text text-anchor="middle" x="237" y="-1375.92" font-family="FreeSans" font-size="10.00"> &lt; DrawableWithBoard2D &gt;</text>
</g>
<!-- Node6 -->
<g id="node7" class="node"><title>Node6</title>
<g id="a_node7"><a xlink:href="classDGtal_1_1CountedPtr.html" target="_top" xlink:title="DGtal::CountedPtr\&lt;\l DigSurface \&gt;">
<polygon fill="white" stroke="black" points="375,-1309.92 375,-1339.92 487,-1339.92 487,-1309.92 375,-1309.92"/>
<text text-anchor="start" x="383" y="-1327.92" font-family="FreeSans" font-size="10.00">DGtal::CountedPtr&lt;</text>
<text text-anchor="middle" x="431" y="-1316.92" font-family="FreeSans" font-size="10.00"> DigSurface &gt;</text>
</a>
</g>
</g>
<!-- Node0&#45;&gt;Node6 -->
<g id="edge6" class="edge"><title>Node0&#45;&gt;Node6</title>
<path fill="none" stroke="orange" stroke-dasharray="5,2" d="M67.3824,-829.673C69.409,-912.064 81.5869,-1227.05 150,-1291.92 181.346,-1321.64 302.566,-1326.06 374.831,-1325.95"/>
<polygon fill="orange" stroke="orange" points="70.8809,-829.56 67.159,-819.641 63.8826,-829.716 70.8809,-829.56"/>
<text text-anchor="middle" x="237" y="-1327.92" font-family="FreeSans" font-size="10.00"> &lt; DigSurface &gt;</text>
</g>
<!-- Node7 -->
<g id="node8" class="node"><title>Node7</title>
<g id="a_node8"><a xlink:href="classDGtal_1_1CountedPtr.html" target="_top" xlink:title="DGtal::CountedPtr\&lt;\l DGtal::DigitalSurfaceConvolver \&gt;">
<polygon fill="white" stroke="black" points="342,-1260.92 342,-1290.92 520,-1290.92 520,-1260.92 342,-1260.92"/>
<text text-anchor="start" x="350" y="-1278.92" font-family="FreeSans" font-size="10.00">DGtal::CountedPtr&lt;</text>
<text text-anchor="middle" x="431" y="-1267.92" font-family="FreeSans" font-size="10.00"> DGtal::DigitalSurfaceConvolver &gt;</text>
</a>
</g>
</g>
<!-- Node0&#45;&gt;Node7 -->
<g id="edge7" class="edge"><title>Node0&#45;&gt;Node7</title>
<path fill="none" stroke="orange" stroke-dasharray="5,2" d="M67.756,-829.744C71.1449,-907.264 87.6222,-1188.42 150,-1245.92 177.23,-1271.02 270.294,-1276.92 341.734,-1277.55"/>
<polygon fill="orange" stroke="orange" points="71.2416,-829.321 67.3331,-819.473 64.2476,-829.609 71.2416,-829.321"/>
<text text-anchor="middle" x="237" y="-1279.92" font-family="FreeSans" font-size="10.00"> &lt; DGtal::DigitalSurfaceConvolver &gt;</text>
</g>
<!-- Node8 -->
<g id="node9" class="node"><title>Node8</title>
<g id="a_node9"><a xlink:href="classDGtal_1_1CountedPtr.html" target="_top" xlink:title="DGtal::CountedPtr\&lt;\l DGtal::DrawableWithDisplay3D \&gt;">
<polygon fill="white" stroke="black" points="343,-1211.92 343,-1241.92 519,-1241.92 519,-1211.92 343,-1211.92"/>
<text text-anchor="start" x="351" y="-1229.92" font-family="FreeSans" font-size="10.00">DGtal::CountedPtr&lt;</text>
<text text-anchor="middle" x="431" y="-1218.92" font-family="FreeSans" font-size="10.00"> DGtal::DrawableWithDisplay3D &gt;</text>
</a>
</g>
</g>
<!-- Node0&#45;&gt;Node8 -->
<g id="edge8" class="edge"><title>Node0&#45;&gt;Node8</title>
<path fill="none" stroke="orange" stroke-dasharray="5,2" d="M68.1309,-829.789C72.7217,-902.773 92.5451,-1154.42 150,-1204.92 177.835,-1229.38 271.327,-1232.55 342.695,-1231.09"/>
<polygon fill="orange" stroke="orange" points="71.6163,-829.439 67.5215,-819.668 64.6289,-829.86 71.6163,-829.439"/>
<text text-anchor="middle" x="237" y="-1233.92" font-family="FreeSans" font-size="10.00"> &lt; DGtal::DrawableWithDisplay3D &gt;</text>
</g>
<!-- Node9 -->
<g id="node10" class="node"><title>Node9</title>
<g id="a_node10"><a xlink:href="classDGtal_1_1CountedPtr.html" target="_top" xlink:title="DGtal::CountedPtr\&lt;\l DigitalSurfaceContainer \&gt;">
<polygon fill="white" stroke="black" points="359,-1162.92 359,-1192.92 503,-1192.92 503,-1162.92 359,-1162.92"/>
<text text-anchor="start" x="367" y="-1180.92" font-family="FreeSans" font-size="10.00">DGtal::CountedPtr&lt;</text>
<text text-anchor="middle" x="431" y="-1169.92" font-family="FreeSans" font-size="10.00"> DigitalSurfaceContainer &gt;</text>
</a>
</g>
</g>
<!-- Node0&#45;&gt;Node9 -->
<g id="edge9" class="edge"><title>Node0&#45;&gt;Node9</title>
<path fill="none" stroke="orange" stroke-dasharray="5,2" d="M68.9487,-829.717C75.8352,-895.375 101.274,-1104.2 150,-1146.92 206.543,-1196.49 296.165,-1197.7 358.738,-1190.76"/>
<polygon fill="orange" stroke="orange" points="72.4039,-829.1 67.9078,-819.506 65.44,-829.809 72.4039,-829.1"/>
<text text-anchor="middle" x="237" y="-1195.92" font-family="FreeSans" font-size="10.00"> &lt; DigitalSurfaceContainer &gt;</text>
</g>
<!-- Node10 -->
<g id="node11" class="node"><title>Node10</title>
<g id="a_node11"><a xlink:href="classDGtal_1_1CountedPtr.html" target="_top" xlink:title="DGtal::CountedPtr\&lt;\l GraphVisitor \&gt;">
<polygon fill="white" stroke="black" points="375,-1113.92 375,-1143.92 487,-1143.92 487,-1113.92 375,-1113.92"/>
<text text-anchor="start" x="383" y="-1131.92" font-family="FreeSans" font-size="10.00">DGtal::CountedPtr&lt;</text>
<text text-anchor="middle" x="431" y="-1120.92" font-family="FreeSans" font-size="10.00"> GraphVisitor &gt;</text>
</a>
</g>
</g>
<!-- Node0&#45;&gt;Node10 -->
<g id="edge10" class="edge"><title>Node0&#45;&gt;Node10</title>
<path fill="none" stroke="orange" stroke-dasharray="5,2" d="M69.6558,-829.467C78.1814,-889.135 106.845,-1067.03 150,-1102.92 183.033,-1130.39 302.99,-1132.38 374.736,-1130.94"/>
<polygon fill="orange" stroke="orange" points="73.1097,-828.893 68.2598,-819.473 66.177,-829.861 73.1097,-828.893"/>
<text text-anchor="middle" x="237" y="-1134.92" font-family="FreeSans" font-size="10.00"> &lt; GraphVisitor &gt;</text>
</g>
<!-- Node11 -->
<g id="node12" class="node"><title>Node11</title>
<g id="a_node12"><a xlink:href="classDGtal_1_1CountedPtr.html" target="_top" xlink:title="DGtal::CountedPtr\&lt; A1 \&gt;">
<polygon fill="white" stroke="black" points="361.5,-1075.42 361.5,-1094.42 500.5,-1094.42 500.5,-1075.42 361.5,-1075.42"/>
<text text-anchor="middle" x="431" y="-1082.42" font-family="FreeSans" font-size="10.00">DGtal::CountedPtr&lt; A1 &gt;</text>
</a>
</g>
</g>
<!-- Node0&#45;&gt;Node11 -->
<g id="edge11" class="edge"><title>Node0&#45;&gt;Node11</title>
<path fill="none" stroke="orange" stroke-dasharray="5,2" d="M66.8322,-829.738C67.6086,-878.041 76.9715,-1002.1 150,-1059.92 181.616,-1084.95 289.086,-1088.08 361.307,-1087.16"/>
<polygon fill="orange" stroke="orange" points="70.3318,-829.637 66.7826,-819.655 63.3319,-829.672 70.3318,-829.637"/>
<text text-anchor="middle" x="237" y="-1090.92" font-family="FreeSans" font-size="10.00"> &lt; A1 &gt;</text>
</g>
<!-- Node12 -->
<g id="node13" class="node"><title>Node12</title>
<g id="a_node13"><a xlink:href="classDGtal_1_1CountedPtr.html" target="_top" xlink:title="DGtal::CountedPtr\&lt;\l OutputImage \&gt;">
<polygon fill="white" stroke="black" points="375,-1025.92 375,-1055.92 487,-1055.92 487,-1025.92 375,-1025.92"/>
<text text-anchor="start" x="383" y="-1043.92" font-family="FreeSans" font-size="10.00">DGtal::CountedPtr&lt;</text>
<text text-anchor="middle" x="431" y="-1032.92" font-family="FreeSans" font-size="10.00"> OutputImage &gt;</text>
</a>
</g>
</g>
<!-- Node0&#45;&gt;Node12 -->
<g id="edge12" class="edge"><title>Node0&#45;&gt;Node12</title>
<path fill="none" stroke="orange" stroke-dasharray="5,2" d="M68.2264,-829.673C72.0399,-872.316 87.55,-972.849 150,-1018.92 184.481,-1044.36 303.586,-1045.24 374.871,-1043.29"/>
<polygon fill="orange" stroke="orange" points="71.6999,-829.194 67.4452,-819.491 64.7205,-829.729 71.6999,-829.194"/>
<text text-anchor="middle" x="237" y="-1047.92" font-family="FreeSans" font-size="10.00"> &lt; OutputImage &gt;</text>
</g>
<!-- Node13 -->
<g id="node14" class="node"><title>Node13</title>
<g id="a_node14"><a xlink:href="classDGtal_1_1CountedPtr.html" target="_top" xlink:title="DGtal::CountedPtr\&lt;\l DGtal::SignalData\&lt;\l Value \&gt; \&gt;">
<polygon fill="white" stroke="black" points="374.5,-966.419 374.5,-1007.42 487.5,-1007.42 487.5,-966.419 374.5,-966.419"/>
<text text-anchor="start" x="382.5" y="-995.419" font-family="FreeSans" font-size="10.00">DGtal::CountedPtr&lt;</text>
<text text-anchor="start" x="382.5" y="-984.419" font-family="FreeSans" font-size="10.00"> DGtal::SignalData&lt;</text>
<text text-anchor="middle" x="431" y="-973.419" font-family="FreeSans" font-size="10.00"> Value &gt; &gt;</text>
</a>
</g>
</g>
<!-- Node0&#45;&gt;Node13 -->
<g id="edge13" class="edge"><title>Node0&#45;&gt;Node13</title>
<path fill="none" stroke="orange" stroke-dasharray="5,2" d="M72.8132,-829.459C83.0153,-860.046 107.228,-918.651 150,-946.919 217.492,-991.524 314.08,-995.284 374.362,-992.297"/>
<polygon fill="orange" stroke="orange" points="76.036,-828.043 69.68,-819.566 69.3627,-830.156 76.036,-828.043"/>
<text text-anchor="start" x="187" y="-1006.92" font-family="FreeSans" font-size="10.00"> &lt; DGtal::SignalData</text>
<text text-anchor="middle" x="237" y="-995.919" font-family="FreeSans" font-size="10.00">&lt; Value &gt; &gt;</text>
</g>
<!-- Node14 -->
<g id="node15" class="node"><title>Node14</title>
<g id="a_node15"><a xlink:href="classDGtal_1_1CountedPtr.html" target="_top" xlink:title="DGtal::CountedPtr\&lt;\l ShapePointFunctor \&gt;">
<polygon fill="white" stroke="black" points="370.5,-917.919 370.5,-947.919 491.5,-947.919 491.5,-917.919 370.5,-917.919"/>
<text text-anchor="start" x="378.5" y="-935.919" font-family="FreeSans" font-size="10.00">DGtal::CountedPtr&lt;</text>
<text text-anchor="middle" x="431" y="-924.919" font-family="FreeSans" font-size="10.00"> ShapePointFunctor &gt;</text>
</a>
</g>
</g>
<!-- Node0&#45;&gt;Node14 -->
<g id="edge14" class="edge"><title>Node0&#45;&gt;Node14</title>
<path fill="none" stroke="orange" stroke-dasharray="5,2" d="M79.8189,-827.543C94.516,-846.309 120.426,-875.278 150,-889.919 220.19,-924.667 311.406,-932.823 370.327,-934.025"/>
<polygon fill="orange" stroke="orange" points="82.5428,-825.342 73.7098,-819.492 76.9665,-829.574 82.5428,-825.342"/>
<text text-anchor="middle" x="237" y="-934.919" font-family="FreeSans" font-size="10.00"> &lt; ShapePointFunctor &gt;</text>
</g>
<!-- Node15 -->
<g id="node16" class="node"><title>Node15</title>
<g id="a_node16"><a xlink:href="classDGtal_1_1CountedPtr.html" target="_top" xlink:title="DGtal::CountedPtr\&lt;\l DGtal::GaussDigitizer \&gt;">
<polygon fill="white" stroke="black" points="364.5,-868.919 364.5,-898.919 497.5,-898.919 497.5,-868.919 364.5,-868.919"/>
<text text-anchor="start" x="372.5" y="-886.919" font-family="FreeSans" font-size="10.00">DGtal::CountedPtr&lt;</text>
<text text-anchor="middle" x="431" y="-875.919" font-family="FreeSans" font-size="10.00"> DGtal::GaussDigitizer &gt;</text>
</a>
</g>
</g>
<!-- Node0&#45;&gt;Node15 -->
<g id="edge15" class="edge"><title>Node0&#45;&gt;Node15</title>
<path fill="none" stroke="orange" stroke-dasharray="5,2" d="M96.9409,-823.786C112.477,-830.474 131.939,-838.077 150,-842.919 222.011,-862.223 307.036,-873.047 364.343,-878.662"/>
<polygon fill="orange" stroke="orange" points="97.9152,-820.391 87.3529,-819.562 95.0926,-826.797 97.9152,-820.391"/>
<text text-anchor="middle" x="237" y="-877.919" font-family="FreeSans" font-size="10.00"> &lt; DGtal::GaussDigitizer &gt;</text>
</g>
<!-- Node16 -->
<g id="node17" class="node"><title>Node16</title>
<g id="a_node17"><a xlink:href="classDGtal_1_1CountedPtr.html" target="_top" xlink:title="DGtal::CountedPtr\&lt;\l DGtal::ImplicitBall \&gt;">
<polygon fill="white" stroke="black" points="373.5,-819.919 373.5,-849.919 488.5,-849.919 488.5,-819.919 373.5,-819.919"/>
<text text-anchor="start" x="381.5" y="-837.919" font-family="FreeSans" font-size="10.00">DGtal::CountedPtr&lt;</text>
<text text-anchor="middle" x="431" y="-826.919" font-family="FreeSans" font-size="10.00"> DGtal::ImplicitBall &gt;</text>
</a>
</g>
</g>
<!-- Node0&#45;&gt;Node16 -->
<g id="edge16" class="edge"><title>Node0&#45;&gt;Node16</title>
<path fill="none" stroke="orange" stroke-dasharray="5,2" d="M142.231,-815.1C211.01,-819.837 311.217,-826.738 373.415,-831.022"/>
<polygon fill="orange" stroke="orange" points="142.114,-811.584 131.897,-814.388 141.633,-818.567 142.114,-811.584"/>
<text text-anchor="middle" x="237" y="-830.919" font-family="FreeSans" font-size="10.00"> &lt; DGtal::ImplicitBall &gt;</text>
</g>
<!-- Node17 -->
<g id="node18" class="node"><title>Node17</title>
<g id="a_node18"><a xlink:href="classDGtal_1_1CountedPtr.html" target="_top" xlink:title="DGtal::CountedPtr\&lt;\l HyperRectDomain\&lt; Space \&gt; \&gt;">
<polygon fill="white" stroke="black" points="346,-770.919 346,-800.919 516,-800.919 516,-770.919 346,-770.919"/>
<text text-anchor="start" x="354" y="-788.919" font-family="FreeSans" font-size="10.00">DGtal::CountedPtr&lt;</text>
<text text-anchor="middle" x="431" y="-777.919" font-family="FreeSans" font-size="10.00"> HyperRectDomain&lt; Space &gt; &gt;</text>
</a>
</g>
</g>
<!-- Node0&#45;&gt;Node17 -->
<g id="edge17" class="edge"><title>Node0&#45;&gt;Node17</title>
<path fill="none" stroke="orange" stroke-dasharray="5,2" d="M111.525,-797.942C123.893,-795.104 137.39,-792.458 150,-790.919 215.393,-782.938 290.005,-782.004 345.757,-782.894"/>
<polygon fill="orange" stroke="orange" points="110.359,-794.622 101.446,-800.35 111.986,-801.43 110.359,-794.622"/>
<text text-anchor="start" x="182.5" y="-804.919" font-family="FreeSans" font-size="10.00"> &lt; HyperRectDomain&lt;</text>
<text text-anchor="middle" x="237" y="-793.919" font-family="FreeSans" font-size="10.00"> Space &gt; &gt;</text>
</g>
<!-- Node18 -->
<g id="node19" class="node"><title>Node18</title>
<g id="a_node19"><a xlink:href="classDGtal_1_1CountedPtr.html" target="_top" xlink:title="DGtal::CountedPtr\&lt;\l OutEdgeContainer \&gt;">
<polygon fill="white" stroke="black" points="371.5,-721.919 371.5,-751.919 490.5,-751.919 490.5,-721.919 371.5,-721.919"/>
<text text-anchor="start" x="379.5" y="-739.919" font-family="FreeSans" font-size="10.00">DGtal::CountedPtr&lt;</text>
<text text-anchor="middle" x="431" y="-728.919" font-family="FreeSans" font-size="10.00"> OutEdgeContainer &gt;</text>
</a>
</g>
</g>
<!-- Node0&#45;&gt;Node18 -->
<g id="edge18" class="edge"><title>Node0&#45;&gt;Node18</title>
<path fill="none" stroke="orange" stroke-dasharray="5,2" d="M90.647,-795.069C106.757,-785.691 128.91,-774.198 150,-767.919 224.297,-745.799 313.927,-739.187 371.423,-737.358"/>
<polygon fill="orange" stroke="orange" points="88.7004,-792.155 81.9139,-800.291 92.2928,-798.163 88.7004,-792.155"/>
<text text-anchor="middle" x="237" y="-770.919" font-family="FreeSans" font-size="10.00"> &lt; OutEdgeContainer &gt;</text>
</g>
<!-- Node19 -->
<g id="node20" class="node"><title>Node19</title>
<g id="a_node20"><a xlink:href="classDGtal_1_1CountedPtr.html" target="_top" xlink:title="DGtal::CountedPtr\&lt;\l DigitalSet \&gt;">
<polygon fill="white" stroke="black" points="375,-672.919 375,-702.919 487,-702.919 487,-672.919 375,-672.919"/>
<text text-anchor="start" x="383" y="-690.919" font-family="FreeSans" font-size="10.00">DGtal::CountedPtr&lt;</text>
<text text-anchor="middle" x="431" y="-679.919" font-family="FreeSans" font-size="10.00"> DigitalSet &gt;</text>
</a>
</g>
</g>
<!-- Node0&#45;&gt;Node19 -->
<g id="edge19" class="edge"><title>Node0&#45;&gt;Node19</title>
<path fill="none" stroke="orange" stroke-dasharray="5,2" d="M78.8589,-791.966C93.1513,-771.955 119.135,-740.378 150,-724.919 221.681,-689.016 316.013,-683.881 374.825,-684.857"/>
<polygon fill="orange" stroke="orange" points="75.9424,-790.031 73.1393,-800.248 81.7022,-794.009 75.9424,-790.031"/>
<text text-anchor="middle" x="237" y="-727.919" font-family="FreeSans" font-size="10.00"> &lt; DigitalSet &gt;</text>
</g>
<!-- Node20 -->
<g id="node21" class="node"><title>Node20</title>
<g id="a_node21"><a xlink:href="classDGtal_1_1CountedPtr.html" target="_top" xlink:title="DGtal::CountedPtr\&lt;\l DrawableWithDisplay3D \&gt;">
<polygon fill="white" stroke="black" points="359.5,-623.919 359.5,-653.919 502.5,-653.919 502.5,-623.919 359.5,-623.919"/>
<text text-anchor="start" x="367.5" y="-641.919" font-family="FreeSans" font-size="10.00">DGtal::CountedPtr&lt;</text>
<text text-anchor="middle" x="431" y="-630.919" font-family="FreeSans" font-size="10.00"> DrawableWithDisplay3D &gt;</text>
</a>
</g>
</g>
<!-- Node0&#45;&gt;Node20 -->
<g id="edge20" class="edge"><title>Node0&#45;&gt;Node20</title>
<path fill="none" stroke="orange" stroke-dasharray="5,2" d="M72.5576,-790.52C82.5088,-759.657 106.508,-699.999 150,-671.919 212.299,-631.695 298.924,-627.523 359.264,-630.818"/>
<polygon fill="orange" stroke="orange" points="69.1942,-789.55 69.6147,-800.137 75.8878,-791.599 69.1942,-789.55"/>
<text text-anchor="middle" x="237" y="-674.919" font-family="FreeSans" font-size="10.00"> &lt; DrawableWithDisplay3D &gt;</text>
</g>
<!-- Node21 -->
<g id="node22" class="node"><title>Node21</title>
<g id="a_node22"><a xlink:href="classDGtal_1_1CountedPtr.html" target="_top" xlink:title="DGtal::CountedPtr\&lt;\l DGtal::SignalData\&lt;\l TValue \&gt; \&gt;">
<polygon fill="white" stroke="black" points="374.5,-564.419 374.5,-605.419 487.5,-605.419 487.5,-564.419 374.5,-564.419"/>
<text text-anchor="start" x="382.5" y="-593.419" font-family="FreeSans" font-size="10.00">DGtal::CountedPtr&lt;</text>
<text text-anchor="start" x="382.5" y="-582.419" font-family="FreeSans" font-size="10.00"> DGtal::SignalData&lt;</text>
<text text-anchor="middle" x="431" y="-571.419" font-family="FreeSans" font-size="10.00"> TValue &gt; &gt;</text>
</a>
</g>
</g>
<!-- Node0&#45;&gt;Node21 -->
<g id="edge21" class="edge"><title>Node0&#45;&gt;Node21</title>
<path fill="none" stroke="orange" stroke-dasharray="5,2" d="M68.3908,-789.913C72.5096,-747.671 88.5548,-649.597 150,-604.919 215.333,-557.413 313.442,-563.04 374.497,-572.911"/>
<polygon fill="orange" stroke="orange" points="64.8896,-789.781 67.5329,-800.04 71.8646,-790.372 64.8896,-789.781"/>
<text text-anchor="start" x="187" y="-618.919" font-family="FreeSans" font-size="10.00"> &lt; DGtal::SignalData</text>
<text text-anchor="middle" x="237" y="-607.919" font-family="FreeSans" font-size="10.00">&lt; TValue &gt; &gt;</text>
</g>
<!-- Node22 -->
<g id="node23" class="node"><title>Node22</title>
<g id="a_node23"><a xlink:href="classDGtal_1_1CountedPtr.html" target="_top" xlink:title="DGtal::CountedPtr\&lt;\l DGtal::FunctorOnCells \&gt;">
<polygon fill="white" stroke="black" points="363.5,-515.919 363.5,-545.919 498.5,-545.919 498.5,-515.919 363.5,-515.919"/>
<text text-anchor="start" x="371.5" y="-533.919" font-family="FreeSans" font-size="10.00">DGtal::CountedPtr&lt;</text>
<text text-anchor="middle" x="431" y="-522.919" font-family="FreeSans" font-size="10.00"> DGtal::FunctorOnCells &gt;</text>
</a>
</g>
</g>
<!-- Node0&#45;&gt;Node22 -->
<g id="edge22" class="edge"><title>Node0&#45;&gt;Node22</title>
<path fill="none" stroke="orange" stroke-dasharray="5,2" d="M66.5483,-790.096C66.6158,-740.635 74.376,-611.489 150,-551.919 210.026,-504.636 301.52,-507.383 363.442,-516.619"/>
<polygon fill="orange" stroke="orange" points="63.0512,-790.413 66.6494,-800.378 70.0508,-790.344 63.0512,-790.413"/>
<text text-anchor="middle" x="237" y="-554.919" font-family="FreeSans" font-size="10.00"> &lt; DGtal::FunctorOnCells &gt;</text>
</g>
<!-- Node23 -->
<g id="node24" class="node"><title>Node23</title>
<g id="a_node24"><a xlink:href="classDGtal_1_1CountedPtr.html" target="_top" xlink:title="DGtal::CountedPtr\&lt;\l DummyTbl \&gt;">
<polygon fill="white" stroke="black" points="375,-466.919 375,-496.919 487,-496.919 487,-466.919 375,-466.919"/>
<text text-anchor="start" x="383" y="-484.919" font-family="FreeSans" font-size="10.00">DGtal::CountedPtr&lt;</text>
<text text-anchor="middle" x="431" y="-473.919" font-family="FreeSans" font-size="10.00"> DummyTbl &gt;</text>
</a>
</g>
</g>
<!-- Node0&#45;&gt;Node23 -->
<g id="edge23" class="edge"><title>Node0&#45;&gt;Node23</title>
<path fill="none" stroke="orange" stroke-dasharray="5,2" d="M69.2317,-790.209C76.7593,-727.548 103.388,-534.809 150,-496.919 183.242,-469.897 303.12,-472.94 374.797,-477.481"/>
<polygon fill="orange" stroke="orange" points="65.7335,-789.989 68.0479,-800.328 72.6861,-790.803 65.7335,-789.989"/>
<text text-anchor="middle" x="237" y="-499.919" font-family="FreeSans" font-size="10.00"> &lt; DummyTbl &gt;</text>
</g>
<!-- Node24 -->
<g id="node25" class="node"><title>Node24</title>
<g id="a_node25"><a xlink:href="classDGtal_1_1CountedPtr.html" target="_top" xlink:title="DGtal::CountedPtr\&lt;\l DGtal::functors::PointFunctor\lFromPointPredicateAndDomain \&gt;">
<polygon fill="white" stroke="black" points="342.5,-407.419 342.5,-448.419 519.5,-448.419 519.5,-407.419 342.5,-407.419"/>
<text text-anchor="start" x="350.5" y="-436.419" font-family="FreeSans" font-size="10.00">DGtal::CountedPtr&lt;</text>
<text text-anchor="start" x="350.5" y="-425.419" font-family="FreeSans" font-size="10.00"> DGtal::functors::PointFunctor</text>
<text text-anchor="middle" x="431" y="-414.419" font-family="FreeSans" font-size="10.00">FromPointPredicateAndDomain &gt;</text>
</a>
</g>
</g>
<!-- Node0&#45;&gt;Node24 -->
<g id="edge24" class="edge"><title>Node0&#45;&gt;Node24</title>
<path fill="none" stroke="orange" stroke-dasharray="5,2" d="M68.3194,-790.23C73.4624,-720.055 94.6862,-483.896 150,-437.919 205.736,-391.59 291.445,-395.803 353.355,-407.419"/>
<polygon fill="orange" stroke="orange" points="64.8183,-790.124 67.6069,-800.346 71.801,-790.616 64.8183,-790.124"/>
<text text-anchor="start" x="160.5" y="-462.919" font-family="FreeSans" font-size="10.00"> &lt; DGtal::functors::</text>
<text text-anchor="start" x="160.5" y="-451.919" font-family="FreeSans" font-size="10.00">PointFunctorFromPointPredicate</text>
<text text-anchor="middle" x="237" y="-440.919" font-family="FreeSans" font-size="10.00">AndDomain &gt;</text>
</g>
<!-- Node25 -->
<g id="node26" class="node"><title>Node25</title>
<g id="a_node26"><a xlink:href="classDGtal_1_1CountedPtr.html" target="_top" xlink:title="DGtal::CountedPtr\&lt;\l Point \&gt;">
<polygon fill="white" stroke="black" points="375,-358.919 375,-388.919 487,-388.919 487,-358.919 375,-358.919"/>
<text text-anchor="start" x="383" y="-376.919" font-family="FreeSans" font-size="10.00">DGtal::CountedPtr&lt;</text>
<text text-anchor="middle" x="431" y="-365.919" font-family="FreeSans" font-size="10.00"> Point &gt;</text>
</a>
</g>
</g>
<!-- Node0&#45;&gt;Node25 -->
<g id="edge25" class="edge"><title>Node0&#45;&gt;Node25</title>
<path fill="none" stroke="orange" stroke-dasharray="5,2" d="M67.75,-789.97C71.084,-713.229 87.2903,-438.667 150,-384.919 213.256,-330.702 317.179,-344.099 379.055,-358.911"/>
<polygon fill="orange" stroke="orange" points="64.2446,-790.033 67.3338,-800.168 71.2388,-790.319 64.2446,-790.033"/>
<text text-anchor="middle" x="237" y="-387.919" font-family="FreeSans" font-size="10.00"> &lt; Point &gt;</text>
</g>
<!-- Node26 -->
<g id="node27" class="node"><title>Node26</title>
<g id="a_node27"><a xlink:href="classDGtal_1_1CountedPtr.html" target="_top" xlink:title="DGtal::CountedPtr\&lt;\l DGtal::IndexedDigitalSurface \&gt;">
<polygon fill="white" stroke="black" points="347,-309.919 347,-339.919 515,-339.919 515,-309.919 347,-309.919"/>
<text text-anchor="start" x="355" y="-327.919" font-family="FreeSans" font-size="10.00">DGtal::CountedPtr&lt;</text>
<text text-anchor="middle" x="431" y="-316.919" font-family="FreeSans" font-size="10.00"> DGtal::IndexedDigitalSurface &gt;</text>
</a>
</g>
</g>
<!-- Node0&#45;&gt;Node26 -->
<g id="edge26" class="edge"><title>Node0&#45;&gt;Node26</title>
<path fill="none" stroke="orange" stroke-dasharray="5,2" d="M67.2437,-790.11C68.7115,-707.518 78.9565,-392.023 150,-330.919 214.787,-275.196 322.586,-293.155 383.805,-309.891"/>
<polygon fill="orange" stroke="orange" points="63.7433,-790.115 67.0894,-800.168 70.7424,-790.223 63.7433,-790.115"/>
<text text-anchor="middle" x="237" y="-333.919" font-family="FreeSans" font-size="10.00"> &lt; DGtal::IndexedDigitalSurface &gt;</text>
</g>
<!-- Node27 -->
<g id="node28" class="node"><title>Node27</title>
<g id="a_node28"><a xlink:href="classDGtal_1_1CountedPtr.html" target="_top" xlink:title="DGtal::CountedPtr\&lt;\l DigitalTopology \&gt;">
<polygon fill="white" stroke="black" points="375,-260.919 375,-290.919 487,-290.919 487,-260.919 375,-260.919"/>
<text text-anchor="start" x="383" y="-278.919" font-family="FreeSans" font-size="10.00">DGtal::CountedPtr&lt;</text>
<text text-anchor="middle" x="431" y="-267.919" font-family="FreeSans" font-size="10.00"> DigitalTopology &gt;</text>
</a>
</g>
</g>
<!-- Node0&#45;&gt;Node27 -->
<g id="edge27" class="edge"><title>Node0&#45;&gt;Node27</title>
<path fill="none" stroke="orange" stroke-dasharray="5,2" d="M66.8617,-790.243C66.6974,-702.386 70.988,-347.276 150,-278.919 182.399,-250.889 302.906,-260.033 374.843,-268.45"/>
<polygon fill="orange" stroke="orange" points="63.3623,-790.425 66.9044,-800.41 70.3623,-790.396 63.3623,-790.425"/>
<text text-anchor="middle" x="237" y="-281.919" font-family="FreeSans" font-size="10.00"> &lt; DigitalTopology &gt;</text>
</g>
<!-- Node28 -->
<g id="node29" class="node"><title>Node28</title>
<g id="a_node29"><a xlink:href="classDGtal_1_1CountedPtr.html" target="_top" xlink:title="DGtal::CountedPtr\&lt;\l Preimage \&gt;">
<polygon fill="white" stroke="black" points="375,-211.919 375,-241.919 487,-241.919 487,-211.919 375,-211.919"/>
<text text-anchor="start" x="383" y="-229.919" font-family="FreeSans" font-size="10.00">DGtal::CountedPtr&lt;</text>
<text text-anchor="middle" x="431" y="-218.919" font-family="FreeSans" font-size="10.00"> Preimage &gt;</text>
</a>
</g>
</g>
<!-- Node0&#45;&gt;Node28 -->
<g id="edge28" class="edge"><title>Node0&#45;&gt;Node28</title>
<path fill="none" stroke="orange" stroke-dasharray="5,2" d="M66.759,-790.293C66.0868,-699.504 68.2882,-321.466 150,-245.919 210.103,-190.35 311.906,-199.533 374.795,-212.412"/>
<polygon fill="orange" stroke="orange" points="63.2593,-790.353 66.855,-800.319 70.259,-790.286 63.2593,-790.353"/>
<text text-anchor="middle" x="237" y="-248.919" font-family="FreeSans" font-size="10.00"> &lt; Preimage &gt;</text>
</g>
<!-- Node29 -->
<g id="node30" class="node"><title>Node29</title>
<g id="a_node30"><a xlink:href="classDGtal_1_1CountedPtr.html" target="_top" xlink:title="DGtal::CountedPtr\&lt;\l GeometricFunctor \&gt;">
<polygon fill="white" stroke="black" points="373,-162.919 373,-192.919 489,-192.919 489,-162.919 373,-162.919"/>
<text text-anchor="start" x="381" y="-180.919" font-family="FreeSans" font-size="10.00">DGtal::CountedPtr&lt;</text>
<text text-anchor="middle" x="431" y="-169.919" font-family="FreeSans" font-size="10.00"> GeometricFunctor &gt;</text>
</a>
</g>
</g>
<!-- Node0&#45;&gt;Node29 -->
<g id="edge29" class="edge"><title>Node0&#45;&gt;Node29</title>
<path fill="none" stroke="orange" stroke-dasharray="5,2" d="M68.1331,-790.355C74.1764,-689.309 104.07,-229.598 150,-187.919 212.768,-130.96 319.813,-146.908 381.779,-162.901"/>
<polygon fill="orange" stroke="orange" points="64.6359,-790.206 67.5411,-800.395 71.6237,-790.618 64.6359,-790.206"/>
<text text-anchor="middle" x="237" y="-190.919" font-family="FreeSans" font-size="10.00"> &lt; GeometricFunctor &gt;</text>
</g>
<!-- Node30 -->
<g id="node31" class="node"><title>Node30</title>
<g id="a_node31"><a xlink:href="classDGtal_1_1CountedPtr.html" target="_top" xlink:title="DGtal::CountedPtr\&lt;\l DGtal::DrawableWithBoard2D \&gt;">
<polygon fill="white" stroke="black" points="346,-113.919 346,-143.919 516,-143.919 516,-113.919 346,-113.919"/>
<text text-anchor="start" x="354" y="-131.919" font-family="FreeSans" font-size="10.00">DGtal::CountedPtr&lt;</text>
<text text-anchor="middle" x="431" y="-120.919" font-family="FreeSans" font-size="10.00"> DGtal::DrawableWithBoard2D &gt;</text>
</a>
</g>
</g>
<!-- Node0&#45;&gt;Node30 -->
<g id="edge30" class="edge"><title>Node0&#45;&gt;Node30</title>
<path fill="none" stroke="orange" stroke-dasharray="5,2" d="M67.9188,-789.994C73.0526,-682.937 99.7758,-179.159 150,-133.919 177.861,-108.822 273.802,-112.154 345.667,-118.767"/>
<polygon fill="orange" stroke="orange" points="64.4184,-789.921 67.4435,-800.075 71.4107,-790.251 64.4184,-789.921"/>
<text text-anchor="middle" x="237" y="-136.919" font-family="FreeSans" font-size="10.00"> &lt; DGtal::DrawableWithBoard2D &gt;</text>
</g>
<!-- Node31 -->
<g id="node32" class="node"><title>Node31</title>
<g id="a_node32"><a xlink:href="classDGtal_1_1CountedPtr.html" target="_top" xlink:title="DGtal::CountedPtr\&lt;\l TImageContainer \&gt;">
<polygon fill="white" stroke="black" points="374.5,-64.9186 374.5,-94.9186 487.5,-94.9186 487.5,-64.9186 374.5,-64.9186"/>
<text text-anchor="start" x="382.5" y="-82.9186" font-family="FreeSans" font-size="10.00">DGtal::CountedPtr&lt;</text>
<text text-anchor="middle" x="431" y="-71.9186" font-family="FreeSans" font-size="10.00"> TImageContainer &gt;</text>
</a>
</g>
</g>
<!-- Node0&#45;&gt;Node31 -->
<g id="edge31" class="edge"><title>Node0&#45;&gt;Node31</title>
<path fill="none" stroke="orange" stroke-dasharray="5,2" d="M67.8363,-790.096C72.6626,-680.219 98.5537,-149.097 150,-99.9186 209.184,-43.3435 311.275,-52.41 374.469,-65.3283"/>
<polygon fill="orange" stroke="orange" points="64.3267,-790.244 67.3924,-800.385 71.3202,-790.545 64.3267,-790.244"/>
<text text-anchor="middle" x="237" y="-102.919" font-family="FreeSans" font-size="10.00"> &lt; TImageContainer &gt;</text>
</g>
<!-- Node32 -->
<g id="node33" class="node"><title>Node32</title>
<g id="a_node33"><a xlink:href="classDGtal_1_1CountedPtr.html" target="_top" xlink:title="DGtal::CountedPtr\&lt;\l Domain \&gt;">
<polygon fill="white" stroke="black" points="375,-15.9186 375,-45.9186 487,-45.9186 487,-15.9186 375,-15.9186"/>
<text text-anchor="start" x="383" y="-33.9186" font-family="FreeSans" font-size="10.00">DGtal::CountedPtr&lt;</text>
<text text-anchor="middle" x="431" y="-22.9186" font-family="FreeSans" font-size="10.00"> Domain &gt;</text>
</a>
</g>
</g>
<!-- Node0&#45;&gt;Node32 -->
<g id="edge32" class="edge"><title>Node0&#45;&gt;Node32</title>
<path fill="none" stroke="orange" stroke-dasharray="5,2" d="M67.6164,-790.239C71.4114,-675.26 93.3349,-93.6536 150,-40.9186 212.314,17.0732 320.277,0.452343 382.359,-15.8713"/>
<polygon fill="orange" stroke="orange" points="64.1132,-790.286 67.2889,-800.394 71.1095,-790.512 64.1132,-790.286"/>
<text text-anchor="middle" x="237" y="-43.9186" font-family="FreeSans" font-size="10.00"> &lt; Domain &gt;</text>
</g>
</g>
</svg>
