<?xml version="1.0" encoding="UTF-8" standalone="no"?>
<!DOCTYPE svg PUBLIC "-//W3C//DTD SVG 1.1//EN"
 "http://www.w3.org/Graphics/SVG/1.1/DTD/svg11.dtd">
<!-- Generated by graphviz version 2.38.0 (20140413.2041)
 -->
<!-- Title: DGtal::functors::TensorVotingFeatureExtraction&lt; TSurfel, TEmbedder &gt; Pages: 1 -->
<svg width="301pt" height="451pt"
 viewBox="0.00 0.00 300.50 451.00" xmlns="http://www.w3.org/2000/svg" xmlns:xlink="http://www.w3.org/1999/xlink">
<g id="graph0" class="graph" transform="scale(1 1) rotate(0) translate(4 447)">
<title>DGtal::functors::TensorVotingFeatureExtraction&lt; TSurfel, TEmbedder &gt;</title>
<polygon fill="white" stroke="none" points="-4,4 -4,-447 296.5,-447 296.5,4 -4,4"/>
<!-- Node1 -->
<g id="node1" class="node"><title>Node1</title>
<polygon fill="#bfbfbf" stroke="black" points="24,-0.5 24,-41.5 179,-41.5 179,-0.5 24,-0.5"/>
<text text-anchor="start" x="32" y="-29.5" font-family="FreeSans" font-size="10.00">DGtal::functors::TensorVoting</text>
<text text-anchor="start" x="32" y="-18.5" font-family="FreeSans" font-size="10.00">FeatureExtraction&lt; TSurfel,</text>
<text text-anchor="middle" x="101.5" y="-7.5" font-family="FreeSans" font-size="10.00"> TEmbedder &gt;</text>
</g>
<!-- Node2 -->
<g id="node2" class="node"><title>Node2</title>
<g id="a_node2"><a xlink:href="classDGtal_1_1SimpleMatrix.html" target="_top" xlink:title="DGtal::SimpleMatrix\l\&lt; double, 3, 3 \&gt;">
<polygon fill="white" stroke="black" points="45.5,-111.5 45.5,-141.5 157.5,-141.5 157.5,-111.5 45.5,-111.5"/>
<text text-anchor="start" x="53.5" y="-129.5" font-family="FreeSans" font-size="10.00">DGtal::SimpleMatrix</text>
<text text-anchor="middle" x="101.5" y="-118.5" font-family="FreeSans" font-size="10.00">&lt; double, 3, 3 &gt;</text>
</a>
</g>
</g>
<!-- Node2&#45;&gt;Node1 -->
<g id="edge1" class="edge"><title>Node2&#45;&gt;Node1</title>
<path fill="none" stroke="#9a32cd" stroke-dasharray="5,2" d="M101.5,-100.992C101.5,-82.8364 101.5,-58.4237 101.5,-41.5664"/>
<polygon fill="#9a32cd" stroke="#9a32cd" points="98.0001,-101.109 101.5,-111.109 105,-101.109 98.0001,-101.109"/>
<text text-anchor="middle" x="127.5" y="-85" font-family="FreeSans" font-size="10.00"> myAccum</text>
<text text-anchor="middle" x="127.5" y="-74" font-family="FreeSans" font-size="10.00">myVote</text>
<text text-anchor="middle" x="127.5" y="-63" font-family="FreeSans" font-size="10.00">myId</text>
</g>
<!-- Node3 -->
<g id="node3" class="node"><title>Node3</title>
<polygon fill="white" stroke="#bfbfbf" points="0,-278.5 0,-308.5 133,-308.5 133,-278.5 0,-278.5"/>
<text text-anchor="start" x="8" y="-296.5" font-family="FreeSans" font-size="10.00">std::array&lt; Component,</text>
<text text-anchor="middle" x="66.5" y="-285.5" font-family="FreeSans" font-size="10.00"> M *N &gt;</text>
</g>
<!-- Node3&#45;&gt;Node2 -->
<g id="edge2" class="edge"><title>Node3&#45;&gt;Node2</title>
<path fill="none" stroke="#9a32cd" stroke-dasharray="5,2" d="M60.0747,-268.558C55.4634,-247.209 51.3609,-215.35 59.5,-189 65.0711,-170.964 77.9484,-153.497 87.9863,-141.816"/>
<polygon fill="#9a32cd" stroke="#9a32cd" points="56.6945,-269.474 62.3989,-278.402 63.5072,-267.865 56.6945,-269.474"/>
<text text-anchor="middle" x="102.5" y="-207.5" font-family="FreeSans" font-size="10.00"> myCofactorCoefs</text>
<text text-anchor="middle" x="102.5" y="-196.5" font-family="FreeSans" font-size="10.00">myValues</text>
</g>
<!-- Node6 -->
<g id="node6" class="node"><title>Node6</title>
<g id="a_node6"><a xlink:href="classDGtal_1_1SimpleMatrix.html" target="_top" xlink:title="Aim: implements basic MxN Matrix services (M,N&gt;=1). ">
<polygon fill="white" stroke="black" points="154.5,-189.5 154.5,-219.5 292.5,-219.5 292.5,-189.5 154.5,-189.5"/>
<text text-anchor="start" x="162.5" y="-207.5" font-family="FreeSans" font-size="10.00">DGtal::SimpleMatrix</text>
<text text-anchor="middle" x="223.5" y="-196.5" font-family="FreeSans" font-size="10.00">&lt; TComponent, TM, TN &gt;</text>
</a>
</g>
</g>
<!-- Node3&#45;&gt;Node6 -->
<g id="edge6" class="edge"><title>Node3&#45;&gt;Node6</title>
<path fill="none" stroke="#9a32cd" stroke-dasharray="5,2" d="M101.145,-273.302C130.491,-257.04 171.877,-234.106 198.197,-219.521"/>
<polygon fill="#9a32cd" stroke="#9a32cd" points="99.1246,-270.42 92.0742,-278.328 102.517,-276.543 99.1246,-270.42"/>
<text text-anchor="middle" x="206.5" y="-252" font-family="FreeSans" font-size="10.00"> myCofactorCoefs</text>
<text text-anchor="middle" x="206.5" y="-241" font-family="FreeSans" font-size="10.00">myValues</text>
</g>
<!-- Node4 -->
<g id="node4" class="node"><title>Node4</title>
<g id="a_node4"><a xlink:title="STL class. ">
<polygon fill="white" stroke="#bfbfbf" points="21.5,-356.5 21.5,-375.5 111.5,-375.5 111.5,-356.5 21.5,-356.5"/>
<text text-anchor="middle" x="66.5" y="-363.5" font-family="FreeSans" font-size="10.00">std::array&lt; T &gt;</text>
</a>
</g>
</g>
<!-- Node4&#45;&gt;Node3 -->
<g id="edge3" class="edge"><title>Node4&#45;&gt;Node3</title>
<path fill="none" stroke="orange" stroke-dasharray="5,2" d="M66.5,-346.236C66.5,-334.408 66.5,-319.383 66.5,-308.576"/>
<polygon fill="orange" stroke="orange" points="63.0001,-346.355 66.5,-356.355 70.0001,-346.355 63.0001,-346.355"/>
<text text-anchor="middle" x="122.5" y="-330" font-family="FreeSans" font-size="10.00"> &lt; Component, M *N &gt;</text>
</g>
<!-- Node5 -->
<g id="node5" class="node"><title>Node5</title>
<polygon fill="white" stroke="#bfbfbf" points="52,-423.5 52,-442.5 81,-442.5 81,-423.5 52,-423.5"/>
<text text-anchor="middle" x="66.5" y="-430.5" font-family="FreeSans" font-size="10.00">T</text>
</g>
<!-- Node5&#45;&gt;Node4 -->
<g id="edge4" class="edge"><title>Node5&#45;&gt;Node4</title>
<path fill="none" stroke="#9a32cd" stroke-dasharray="5,2" d="M66.5,-413.037C66.5,-400.67 66.5,-385.12 66.5,-375.627"/>
<polygon fill="#9a32cd" stroke="#9a32cd" points="63.0001,-413.234 66.5,-423.234 70.0001,-413.234 63.0001,-413.234"/>
<text text-anchor="middle" x="91" y="-397" font-family="FreeSans" font-size="10.00"> elements</text>
</g>
<!-- Node6&#45;&gt;Node2 -->
<g id="edge5" class="edge"><title>Node6&#45;&gt;Node2</title>
<path fill="none" stroke="orange" stroke-dasharray="5,2" d="M192.144,-183.967C170.846,-170.699 143.178,-153.463 124.04,-141.541"/>
<polygon fill="orange" stroke="orange" points="190.5,-187.066 200.839,-189.383 194.201,-181.125 190.5,-187.066"/>
<text text-anchor="middle" x="210.5" y="-163" font-family="FreeSans" font-size="10.00"> &lt; double, 3, 3 &gt;</text>
</g>
</g>
</svg>
