<?xml version="1.0" encoding="UTF-8" standalone="no"?>
<!DOCTYPE svg PUBLIC "-//W3C//DTD SVG 1.1//EN"
 "http://www.w3.org/Graphics/SVG/1.1/DTD/svg11.dtd">
<!-- Generated by graphviz version 2.38.0 (20140413.2041)
 -->
<!-- Title: DGtal::InputIteratorWithRankOnSequence&lt; TSequence, TRank &gt; Pages: 1 -->
<svg width="283pt" height="273pt"
 viewBox="0.00 0.00 283.00 273.00" xmlns="http://www.w3.org/2000/svg" xmlns:xlink="http://www.w3.org/1999/xlink">
<g id="graph0" class="graph" transform="scale(1 1) rotate(0) translate(4 269)">
<title>DGtal::InputIteratorWithRankOnSequence&lt; TSequence, TRank &gt;</title>
<polygon fill="white" stroke="none" points="-4,4 -4,-269 279,-269 279,4 -4,4"/>
<!-- Node1 -->
<g id="node1" class="node"><title>Node1</title>
<polygon fill="#bfbfbf" stroke="black" points="-1.42109e-14,-0.5 -1.42109e-14,-41.5 169,-41.5 169,-0.5 -1.42109e-14,-0.5"/>
<text text-anchor="start" x="8" y="-29.5" font-family="FreeSans" font-size="10.00">DGtal::InputIteratorWith</text>
<text text-anchor="start" x="8" y="-18.5" font-family="FreeSans" font-size="10.00">RankOnSequence&lt; TSequence,</text>
<text text-anchor="middle" x="84.5" y="-7.5" font-family="FreeSans" font-size="10.00"> TRank &gt;</text>
</g>
<!-- Node2 -->
<g id="node2" class="node"><title>Node2</title>
<g id="a_node2"><a xlink:href="classDGtal_1_1CountedPtr.html" target="_top" xlink:title="DGtal::CountedPtr\&lt;\l Sequence \&gt;">
<polygon fill="white" stroke="black" points="28.5,-89.5 28.5,-119.5 140.5,-119.5 140.5,-89.5 28.5,-89.5"/>
<text text-anchor="start" x="36.5" y="-107.5" font-family="FreeSans" font-size="10.00">DGtal::CountedPtr&lt;</text>
<text text-anchor="middle" x="84.5" y="-96.5" font-family="FreeSans" font-size="10.00"> Sequence &gt;</text>
</a>
</g>
</g>
<!-- Node2&#45;&gt;Node1 -->
<g id="edge1" class="edge"><title>Node2&#45;&gt;Node1</title>
<path fill="none" stroke="#9a32cd" stroke-dasharray="5,2" d="M84.5,-79.0662C84.5,-67.0614 84.5,-52.7937 84.5,-41.5278"/>
<polygon fill="#9a32cd" stroke="#9a32cd" points="81.0001,-79.3037 84.5,-89.3038 88.0001,-79.3038 81.0001,-79.3037"/>
<text text-anchor="middle" x="118" y="-63" font-family="FreeSans" font-size="10.00"> mySequence</text>
</g>
<!-- Node3 -->
<g id="node3" class="node"><title>Node3</title>
<g id="a_node3"><a xlink:href="structDGtal_1_1CountedPtr_1_1Counter.html" target="_top" xlink:title="DGtal::CountedPtr\&lt;\l T \&gt;::Counter">
<polygon fill="white" stroke="black" points="55.5,-234.5 55.5,-264.5 167.5,-264.5 167.5,-234.5 55.5,-234.5"/>
<text text-anchor="start" x="63.5" y="-252.5" font-family="FreeSans" font-size="10.00">DGtal::CountedPtr&lt;</text>
<text text-anchor="middle" x="111.5" y="-241.5" font-family="FreeSans" font-size="10.00"> T &gt;::Counter</text>
</a>
</g>
</g>
<!-- Node3&#45;&gt;Node2 -->
<g id="edge2" class="edge"><title>Node3&#45;&gt;Node2</title>
<path fill="none" stroke="#9a32cd" stroke-dasharray="5,2" d="M95.6952,-225.561C88.9773,-214.447 81.9152,-200.588 78.5,-187 72.6899,-163.884 77.0895,-136.009 80.8008,-119.576"/>
<polygon fill="#9a32cd" stroke="#9a32cd" points="92.8553,-227.618 101.17,-234.185 98.7651,-223.866 92.8553,-227.618"/>
<text text-anchor="middle" x="107" y="-174.5" font-family="FreeSans" font-size="10.00"> myCounter</text>
</g>
<!-- Node4 -->
<g id="node4" class="node"><title>Node4</title>
<g id="a_node4"><a xlink:href="classDGtal_1_1CountedPtr.html" target="_top" xlink:title="Aim: Smart pointer based on reference counts. ">
<polygon fill="white" stroke="black" points="144,-167.5 144,-186.5 275,-186.5 275,-167.5 144,-167.5"/>
<text text-anchor="middle" x="209.5" y="-174.5" font-family="FreeSans" font-size="10.00">DGtal::CountedPtr&lt; T &gt;</text>
</a>
</g>
</g>
<!-- Node3&#45;&gt;Node4 -->
<g id="edge4" class="edge"><title>Node3&#45;&gt;Node4</title>
<path fill="none" stroke="#9a32cd" stroke-dasharray="5,2" d="M139.695,-228.217C158.809,-214.467 183.111,-196.984 197.419,-186.691"/>
<polygon fill="#9a32cd" stroke="#9a32cd" points="137.406,-225.552 131.332,-234.233 141.493,-231.235 137.406,-225.552"/>
<text text-anchor="middle" x="197" y="-208" font-family="FreeSans" font-size="10.00"> myCounter</text>
</g>
<!-- Node4&#45;&gt;Node2 -->
<g id="edge3" class="edge"><title>Node4&#45;&gt;Node2</title>
<path fill="none" stroke="orange" stroke-dasharray="5,2" d="M185.212,-162.302C163.39,-149.994 131.483,-131.998 109.458,-119.576"/>
<polygon fill="orange" stroke="orange" points="183.743,-165.491 194.173,-167.355 187.182,-159.394 183.743,-165.491"/>
<text text-anchor="middle" x="194.5" y="-141" font-family="FreeSans" font-size="10.00"> &lt; Sequence &gt;</text>
</g>
</g>
</svg>
