<?xml version="1.0" encoding="UTF-8" standalone="no"?>
<!DOCTYPE svg PUBLIC "-//W3C//DTD SVG 1.1//EN"
 "http://www.w3.org/Graphics/SVG/1.1/DTD/svg11.dtd">
<!-- Generated by graphviz version 2.38.0 (20140413.2041)
 -->
<!-- Title: DGtal::CurvatureFromDSSLengthEstimator&lt; DSSComputer &gt; Pages: 1 -->
<!--zoomable 108 -->
<svg id="main" version="1.1" xmlns="http://www.w3.org/2000/svg" xmlns:xlink="http://www.w3.org/1999/xlink" xml:space="preserve" onload="init(evt)">
<style type="text/css"><![CDATA[
.edge:hover path { stroke: red; }
.edge:hover polygon { stroke: red; fill: red; }
]]></style>
<script type="text/javascript"><![CDATA[
var edges = document.getElementsByTagName('g');
if (edges && edges.length) {
  for (var i=0;i<edges.length;i++) {
    if (edges[i].id.substr(0,4)=='edge') {
      edges[i].setAttribute('class','edge');
    }
  }
}
]]></script>
        <defs>
                <circle id="rim" cx="0" cy="0" r="7"/>
                <circle id="rim2" cx="0" cy="0" r="3.5"/>
                <g id="zoomPlus">
                        <use xlink:href="#rim" fill="#404040">
                                <set attributeName="fill" to="#808080" begin="zoomplus.mouseover" end="zoomplus.mouseout"/>
                        </use>
                        <path d="M-4,0h8M0,-4v8" fill="none" stroke="white" stroke-width="1.5" pointer-events="none"/>
                </g>
                <g id="zoomMin">
                        <use xlink:href="#rim" fill="#404040">
                                <set attributeName="fill" to="#808080" begin="zoomminus.mouseover" end="zoomminus.mouseout"/>
                        </use>
                        <path d="M-4,0h8" fill="none" stroke="white" stroke-width="1.5" pointer-events="none"/>
                </g>
                <g id="dirArrow">
                        <path fill="none" stroke="white" stroke-width="1.5" d="M0,-3.0v7 M-2.5,-0.5L0,-3.0L2.5,-0.5"/>
                </g>
               <g id="resetDef">
                       <use xlink:href="#rim2" fill="#404040">
                               <set attributeName="fill" to="#808080" begin="reset.mouseover" end="reset.mouseout"/>
                       </use>
               </g>
        </defs>

<script type="text/javascript">
var viewWidth = 2319;
var viewHeight = 108;
var sectionId = 'dynsection-1';
</script>
<script xlink:href="svgpan.js"/>
<svg id="graph" class="graph">
<g id="viewport">
<title>DGtal::CurvatureFromDSSLengthEstimator&lt; DSSComputer &gt;</title>
<polygon fill="white" stroke="none" points="-4,4 -4,-104 2315,-104 2315,4 -4,4"/>
<!-- Node3 -->
<g id="node1" class="node"><title>Node3</title>
<polygon fill="#bfbfbf" stroke="black" points="2136,-39 2136,-69 2311,-69 2311,-39 2136,-39"/>
<text text-anchor="start" x="2144" y="-57" font-family="FreeSans" font-size="10.00">DGtal::CurvatureFromDSSLength</text>
<text text-anchor="middle" x="2223.5" y="-46" font-family="FreeSans" font-size="10.00">Estimator&lt; DSSComputer &gt;</text>
</g>
<!-- Node4 -->
<g id="node2" class="node"><title>Node4</title>
<g id="a_node2"><a xlink:href="classDGtal_1_1detail_1_1CurvatureFromDSSBaseEstimator.html" target="_top" xlink:title="DGtal::detail::Curvature\lFromDSSBaseEstimator\&lt;\l DSSComputer, detail::Curvature\lFromDSSLength \&gt;">
<polygon fill="white" stroke="black" points="1925,-28 1925,-80 2099,-80 2099,-28 1925,-28"/>
<text text-anchor="start" x="1933" y="-68" font-family="FreeSans" font-size="10.00">DGtal::detail::Curvature</text>
<text text-anchor="start" x="1933" y="-57" font-family="FreeSans" font-size="10.00">FromDSSBaseEstimator&lt;</text>
<text text-anchor="start" x="1933" y="-46" font-family="FreeSans" font-size="10.00"> DSSComputer, detail::Curvature</text>
<text text-anchor="middle" x="2012" y="-35" font-family="FreeSans" font-size="10.00">FromDSSLength &gt;</text>
</a>
</g>
</g>
<!-- Node4&#45;&gt;Node3 -->
<g id="edge1" class="edge"><title>Node4&#45;&gt;Node3</title>
<path fill="none" stroke="midnightblue" d="M2109.37,-54C2118.15,-54 2127.01,-54 2135.7,-54"/>
<polygon fill="midnightblue" stroke="midnightblue" points="2109.12,-50.5001 2099.12,-54 2109.12,-57.5001 2109.12,-50.5001"/>
</g>
<!-- Node5 -->
<g id="node3" class="node"><title>Node5</title>
<g id="a_node3"><a xlink:href="classDGtal_1_1InHalfPlaneBySimple3x3Matrix.html" target="_top" xlink:title="DGtal::InHalfPlaneBySimple3x3\lMatrix\&lt; Point, double \&gt;">
<polygon fill="white" stroke="black" points="1350,-48 1350,-78 1515,-78 1515,-48 1350,-48"/>
<text text-anchor="start" x="1358" y="-66" font-family="FreeSans" font-size="10.00">DGtal::InHalfPlaneBySimple3x3</text>
<text text-anchor="middle" x="1432.5" y="-55" font-family="FreeSans" font-size="10.00">Matrix&lt; Point, double &gt;</text>
</a>
</g>
</g>
<!-- Node5&#45;&gt;Node4 -->
<g id="edge2" class="edge"><title>Node5&#45;&gt;Node4</title>
<path fill="none" stroke="#9a32cd" stroke-dasharray="5,2" d="M1525.45,-65.9142C1620.9,-68.3014 1774.5,-70.3556 1907,-64 1912.8,-63.7219 1918.77,-63.3571 1924.79,-62.9316"/>
<polygon fill="#9a32cd" stroke="#9a32cd" points="1525.34,-62.4103 1515.25,-65.6523 1525.16,-69.408 1525.34,-62.4103"/>
<text text-anchor="middle" x="1675.5" y="-72" font-family="FreeSans" font-size="10.00"> myFunctor</text>
</g>
<!-- Node12 -->
<g id="node10" class="node"><title>Node12</title>
<g id="a_node10"><a xlink:href="classDGtal_1_1detail_1_1CurvatureFromDSSBaseEstimator.html" target="_top" xlink:title="DGtal::detail::Curvature\lFromDSSBaseEstimator\&lt;\l DSSComputer, Functor \&gt;">
<polygon fill="white" stroke="black" points="1605,-0.5 1605,-41.5 1746,-41.5 1746,-0.5 1605,-0.5"/>
<text text-anchor="start" x="1613" y="-29.5" font-family="FreeSans" font-size="10.00">DGtal::detail::Curvature</text>
<text text-anchor="start" x="1613" y="-18.5" font-family="FreeSans" font-size="10.00">FromDSSBaseEstimator&lt;</text>
<text text-anchor="middle" x="1675.5" y="-7.5" font-family="FreeSans" font-size="10.00"> DSSComputer, Functor &gt;</text>
</a>
</g>
</g>
<!-- Node5&#45;&gt;Node12 -->
<g id="edge12" class="edge"><title>Node5&#45;&gt;Node12</title>
<path fill="none" stroke="#9a32cd" stroke-dasharray="5,2" d="M1525.1,-47.0373C1551.48,-42.4395 1579.82,-37.4994 1604.66,-33.1711"/>
<polygon fill="#9a32cd" stroke="#9a32cd" points="1524.34,-43.6157 1515.09,-48.7807 1525.54,-50.5118 1524.34,-43.6157"/>
<text text-anchor="middle" x="1560" y="-48" font-family="FreeSans" font-size="10.00"> myFunctor</text>
</g>
<!-- Node6 -->
<g id="node4" class="node"><title>Node6</title>
<g id="a_node4"><a xlink:href="classDGtal_1_1SimpleMatrix.html" target="_top" xlink:title="DGtal::SimpleMatrix\l\&lt; Integer, 3, 3 \&gt;">
<polygon fill="white" stroke="black" points="865,-55 865,-85 977,-85 977,-55 865,-55"/>
<text text-anchor="start" x="873" y="-73" font-family="FreeSans" font-size="10.00">DGtal::SimpleMatrix</text>
<text text-anchor="middle" x="921" y="-62" font-family="FreeSans" font-size="10.00">&lt; Integer, 3, 3 &gt;</text>
</a>
</g>
</g>
<!-- Node6&#45;&gt;Node5 -->
<g id="edge3" class="edge"><title>Node6&#45;&gt;Node5</title>
<path fill="none" stroke="#9a32cd" stroke-dasharray="5,2" d="M987.085,-70.1831C1067.96,-70.2587 1210.19,-69.8934 1332,-67 1337.79,-66.8625 1343.77,-66.6924 1349.79,-66.5008"/>
<polygon fill="#9a32cd" stroke="#9a32cd" points="987.056,-66.6832 977.051,-70.1712 987.047,-73.6832 987.056,-66.6832"/>
<text text-anchor="middle" x="1143.5" y="-74" font-family="FreeSans" font-size="10.00"> myMatrix</text>
</g>
<!-- Node11 -->
<g id="node9" class="node"><title>Node11</title>
<g id="a_node9"><a xlink:href="classDGtal_1_1InHalfPlaneBySimple3x3Matrix.html" target="_top" xlink:title="Aim: Class that implements an orientation functor, ie. it provides a way to compute the orientation o...">
<polygon fill="white" stroke="black" points="1061,-16 1061,-46 1226,-46 1226,-16 1061,-16"/>
<text text-anchor="start" x="1069" y="-34" font-family="FreeSans" font-size="10.00">DGtal::InHalfPlaneBySimple3x3</text>
<text text-anchor="middle" x="1143.5" y="-23" font-family="FreeSans" font-size="10.00">Matrix&lt; TPoint, TInteger &gt;</text>
</a>
</g>
</g>
<!-- Node6&#45;&gt;Node11 -->
<g id="edge10" class="edge"><title>Node6&#45;&gt;Node11</title>
<path fill="none" stroke="#9a32cd" stroke-dasharray="5,2" d="M987.083,-58.4888C1010.14,-54.4106 1036.38,-49.7689 1060.66,-45.4758"/>
<polygon fill="#9a32cd" stroke="#9a32cd" points="986.31,-55.071 977.073,-60.2593 987.529,-61.964 986.31,-55.071"/>
<text text-anchor="middle" x="1019" y="-60" font-family="FreeSans" font-size="10.00"> myMatrix</text>
</g>
<!-- Node7 -->
<g id="node5" class="node"><title>Node7</title>
<polygon fill="white" stroke="#bfbfbf" points="352,-56 352,-86 485,-86 485,-56 352,-56"/>
<text text-anchor="start" x="360" y="-74" font-family="FreeSans" font-size="10.00">std::array&lt; Component,</text>
<text text-anchor="middle" x="418.5" y="-63" font-family="FreeSans" font-size="10.00"> M *N &gt;</text>
</g>
<!-- Node7&#45;&gt;Node6 -->
<g id="edge4" class="edge"><title>Node7&#45;&gt;Node6</title>
<path fill="none" stroke="#9a32cd" stroke-dasharray="5,2" d="M495.268,-75.7352C497.877,-75.835 500.46,-75.924 503,-76 566.248,-77.892 730.961,-79.1945 847,-75 852.713,-74.7935 858.673,-74.5051 864.617,-74.17"/>
<polygon fill="#9a32cd" stroke="#9a32cd" points="495.261,-72.2318 485.12,-75.301 494.962,-79.2254 495.261,-72.2318"/>
<text text-anchor="middle" x="676" y="-92" font-family="FreeSans" font-size="10.00"> myCofactorCoefs</text>
<text text-anchor="middle" x="676" y="-81" font-family="FreeSans" font-size="10.00">myValues</text>
</g>
<!-- Node10 -->
<g id="node8" class="node"><title>Node10</title>
<g id="a_node8"><a xlink:href="classDGtal_1_1SimpleMatrix.html" target="_top" xlink:title="Aim: implements basic MxN Matrix services (M,N&gt;=1). ">
<polygon fill="white" stroke="black" points="607,-23 607,-53 745,-53 745,-23 607,-23"/>
<text text-anchor="start" x="615" y="-41" font-family="FreeSans" font-size="10.00">DGtal::SimpleMatrix</text>
<text text-anchor="middle" x="676" y="-30" font-family="FreeSans" font-size="10.00">&lt; TComponent, TM, TN &gt;</text>
</a>
</g>
</g>
<!-- Node7&#45;&gt;Node10 -->
<g id="edge8" class="edge"><title>Node7&#45;&gt;Node10</title>
<path fill="none" stroke="#9a32cd" stroke-dasharray="5,2" d="M494.933,-55.2595C497.652,-54.8141 500.347,-54.3922 503,-54 537.118,-48.9552 575.292,-45.2141 606.993,-42.6234"/>
<polygon fill="#9a32cd" stroke="#9a32cd" points="494.281,-51.8201 485.019,-56.9641 495.467,-58.7189 494.281,-51.8201"/>
<text text-anchor="middle" x="546" y="-68" font-family="FreeSans" font-size="10.00"> myCofactorCoefs</text>
<text text-anchor="middle" x="546" y="-57" font-family="FreeSans" font-size="10.00">myValues</text>
</g>
<!-- Node8 -->
<g id="node6" class="node"><title>Node8</title>
<g id="a_node6"><a xlink:title="STL class. ">
<polygon fill="white" stroke="#bfbfbf" points="114,-61.5 114,-80.5 204,-80.5 204,-61.5 114,-61.5"/>
<text text-anchor="middle" x="159" y="-68.5" font-family="FreeSans" font-size="10.00">std::array&lt; T &gt;</text>
</a>
</g>
</g>
<!-- Node8&#45;&gt;Node7 -->
<g id="edge5" class="edge"><title>Node8&#45;&gt;Node7</title>
<path fill="none" stroke="orange" stroke-dasharray="5,2" d="M214.375,-71C254.425,-71 309.087,-71 351.618,-71"/>
<polygon fill="orange" stroke="orange" points="214.266,-67.5001 204.266,-71 214.266,-74.5001 214.266,-67.5001"/>
<text text-anchor="middle" x="278" y="-74" font-family="FreeSans" font-size="10.00"> &lt; Component, M *N &gt;</text>
</g>
<!-- Node9 -->
<g id="node7" class="node"><title>Node9</title>
<polygon fill="white" stroke="#bfbfbf" points="0,-61.5 0,-80.5 29,-80.5 29,-61.5 0,-61.5"/>
<text text-anchor="middle" x="14.5" y="-68.5" font-family="FreeSans" font-size="10.00">T</text>
</g>
<!-- Node9&#45;&gt;Node8 -->
<g id="edge6" class="edge"><title>Node9&#45;&gt;Node8</title>
<path fill="none" stroke="#9a32cd" stroke-dasharray="5,2" d="M39.3503,-71C59.5779,-71 89.1336,-71 113.686,-71"/>
<polygon fill="#9a32cd" stroke="#9a32cd" points="39.1635,-67.5001 29.1635,-71 39.1635,-74.5001 39.1635,-67.5001"/>
<text text-anchor="middle" x="71.5" y="-74" font-family="FreeSans" font-size="10.00"> elements</text>
</g>
<!-- Node10&#45;&gt;Node6 -->
<g id="edge7" class="edge"><title>Node10&#45;&gt;Node6</title>
<path fill="none" stroke="orange" stroke-dasharray="5,2" d="M754.928,-48.2621C790.674,-52.9694 832.219,-58.4404 864.688,-62.7161"/>
<polygon fill="orange" stroke="orange" points="755.384,-44.792 745.012,-46.9563 754.47,-51.7321 755.384,-44.792"/>
<text text-anchor="middle" x="805" y="-63" font-family="FreeSans" font-size="10.00"> &lt; Integer, 3, 3 &gt;</text>
</g>
<!-- Node11&#45;&gt;Node5 -->
<g id="edge9" class="edge"><title>Node11&#45;&gt;Node5</title>
<path fill="none" stroke="orange" stroke-dasharray="5,2" d="M1236.46,-41.2539C1272.81,-45.3059 1314.23,-49.925 1349.53,-53.8608"/>
<polygon fill="orange" stroke="orange" points="1236.68,-37.7568 1226.36,-40.1271 1235.91,-44.7137 1236.68,-37.7568"/>
<text text-anchor="middle" x="1288" y="-55" font-family="FreeSans" font-size="10.00"> &lt; Point, double &gt;</text>
</g>
<!-- Node12&#45;&gt;Node4 -->
<g id="edge11" class="edge"><title>Node12&#45;&gt;Node4</title>
<path fill="none" stroke="orange" stroke-dasharray="5,2" d="M1756.29,-27.7945C1800.69,-31.6946 1856.94,-36.8322 1907,-42 1912.79,-42.5972 1918.75,-43.2326 1924.76,-43.8874"/>
<polygon fill="orange" stroke="orange" points="1756.41,-24.2913 1746.14,-26.9062 1755.8,-31.2647 1756.41,-24.2913"/>
<text text-anchor="start" x="1764" y="-56" font-family="FreeSans" font-size="10.00"> &lt; DSSComputer, detail</text>
<text text-anchor="middle" x="1835.5" y="-45" font-family="FreeSans" font-size="10.00">::CurvatureFromDSSLength &gt;</text>
</g>
</g>
</svg>
        <g id="navigator" transform="translate(0 0)" fill="#404254">
                <rect fill="#f2f5e9" fill-opacity="0.5" stroke="#606060" stroke-width=".5" x="0" y="0" width="60" height="60"/>
                <use id="zoomplus" xlink:href="#zoomPlus" x="17" y="9" onmousedown="handleZoom(evt,'in')"/>
                <use id="zoomminus" xlink:href="#zoomMin" x="42" y="9" onmousedown="handleZoom(evt,'out')"/>
                <use id="reset" xlink:href="#resetDef" x="30" y="36" onmousedown="handleReset()"/>
                <g id="arrowUp" xlink:href="#dirArrow" transform="translate(30 24)" onmousedown="handlePan(0,-1)">
                  <use xlink:href="#rim" fill="#404040">
                        <set attributeName="fill" to="#808080" begin="arrowUp.mouseover" end="arrowUp.mouseout"/>
                  </use>
                  <path fill="none" stroke="white" stroke-width="1.5" d="M0,-3.0v7 M-2.5,-0.5L0,-3.0L2.5,-0.5"/>
                </g>
                <g id="arrowRight" xlink:href="#dirArrow" transform="rotate(90) translate(36 -43)" onmousedown="handlePan(1,0)">
                  <use xlink:href="#rim" fill="#404040">
                        <set attributeName="fill" to="#808080" begin="arrowRight.mouseover" end="arrowRight.mouseout"/>
                  </use>
                  <path fill="none" stroke="white" stroke-width="1.5" d="M0,-3.0v7 M-2.5,-0.5L0,-3.0L2.5,-0.5"/>
                </g>
                <g id="arrowDown" xlink:href="#dirArrow" transform="rotate(180) translate(-30 -48)" onmousedown="handlePan(0,1)">
                  <use xlink:href="#rim" fill="#404040">
                        <set attributeName="fill" to="#808080" begin="arrowDown.mouseover" end="arrowDown.mouseout"/>
                  </use>
                  <path fill="none" stroke="white" stroke-width="1.5" d="M0,-3.0v7 M-2.5,-0.5L0,-3.0L2.5,-0.5"/>
                </g>
                <g id="arrowLeft" xlink:href="#dirArrow" transform="rotate(270) translate(-36 17)" onmousedown="handlePan(-1,0)">
                  <use xlink:href="#rim" fill="#404040">
                        <set attributeName="fill" to="#808080" begin="arrowLeft.mouseover" end="arrowLeft.mouseout"/>
                  </use>
                  <path fill="none" stroke="white" stroke-width="1.5" d="M0,-3.0v7 M-2.5,-0.5L0,-3.0L2.5,-0.5"/>
                </g>
        </g>
        <svg viewBox="0 0 15 15" width="100%" height="30px" preserveAspectRatio="xMaxYMin meet">
         <g id="arrow_out" transform="scale(0.3 0.3)">
          <a xlink:href="classDGtal_1_1CurvatureFromDSSLengthEstimator__coll__graph_org.svg" target="_base">
           <rect id="button" ry="5" rx="5" y="6" x="6" height="38" width="38"
                fill="#f2f5e9" fill-opacity="0.5" stroke="#606060" stroke-width="1.0"/>
           <path id="arrow"
             d="M 11.500037,31.436501 C 11.940474,20.09759 22.043105,11.32322 32.158766,21.979434 L 37.068811,17.246167 C 37.068811,17.246167 37.088388,32 37.088388,32 L 22.160133,31.978069 C 22.160133,31.978069 26.997745,27.140456 26.997745,27.140456 C 18.528582,18.264221 13.291696,25.230495 11.500037,31.436501 z"
             style="fill:#404040;"/>
          </a>
         </g>
        </svg>
</svg>
