<?xml version="1.0" encoding="UTF-8" standalone="no"?>
<!DOCTYPE svg PUBLIC "-//W3C//DTD SVG 1.1//EN"
 "http://www.w3.org/Graphics/SVG/1.1/DTD/svg11.dtd">
<!-- Generated by graphviz version 2.36.0 (20140111.2315)
 -->
<!-- Title: DGtal::GaussDigitizer&lt; TSpace, TEuclideanShape &gt; Pages: 1 -->
<!--zoomable 175 -->
<svg id="main" version="1.1" xmlns="http://www.w3.org/2000/svg" xmlns:xlink="http://www.w3.org/1999/xlink" xml:space="preserve" onload="init(evt)">
<style type="text/css"><![CDATA[
.edge:hover path { stroke: red; }
.edge:hover polygon { stroke: red; fill: red; }
]]></style>
<script type="text/javascript"><![CDATA[
var edges = document.getElementsByTagName('g');
if (edges && edges.length) {
  for (var i=0;i<edges.length;i++) {
    if (edges[i].id.substr(0,4)=='edge') {
      edges[i].setAttribute('class','edge');
    }
  }
}
]]></script>
        <defs>
                <circle id="rim" cx="0" cy="0" r="7"/>
                <circle id="rim2" cx="0" cy="0" r="3.5"/>
                <g id="zoomPlus">
                        <use xlink:href="#rim" fill="#404040">
                                <set attributeName="fill" to="#808080" begin="zoomplus.mouseover" end="zoomplus.mouseout"/>
                        </use>
                        <path d="M-4,0h8M0,-4v8" fill="none" stroke="white" stroke-width="1.5" pointer-events="none"/>
                </g>
                <g id="zoomMin">
                        <use xlink:href="#rim" fill="#404040">
                                <set attributeName="fill" to="#808080" begin="zoomminus.mouseover" end="zoomminus.mouseout"/>
                        </use>
                        <path d="M-4,0h8" fill="none" stroke="white" stroke-width="1.5" pointer-events="none"/>
                </g>
                <g id="dirArrow">
                        <path fill="none" stroke="white" stroke-width="1.5" d="M0,-3.0v7 M-2.5,-0.5L0,-3.0L2.5,-0.5"/>
                </g>
               <g id="resetDef">
                       <use xlink:href="#rim2" fill="#404040">
                               <set attributeName="fill" to="#808080" begin="reset.mouseover" end="reset.mouseout"/>
                       </use>
               </g>
        </defs>

<script type="text/javascript">
var viewWidth = 1130;
var viewHeight = 175;
var sectionId = 'dynsection-1';
</script>
<script xlink:href="svgpan.js"/>
<svg id="graph" class="graph">
<g id="viewport">
<title>DGtal::GaussDigitizer&lt; TSpace, TEuclideanShape &gt;</title>
<polygon fill="white" stroke="none" points="-4,4 -4,-171 1126,-171 1126,4 -4,4"/>
<!-- Node2 -->
<g id="node1" class="node"><title>Node2</title>
<polygon fill="#bfbfbf" stroke="black" points="960,-91 960,-121 1122,-121 1122,-91 960,-91"/>
<text text-anchor="start" x="968" y="-109" font-family="FreeSans" font-size="10.00">DGtal::GaussDigitizer</text>
<text text-anchor="middle" x="1041" y="-98" font-family="FreeSans" font-size="10.00">&lt; TSpace, TEuclideanShape &gt;</text>
</g>
<!-- Node3 -->
<g id="node2" class="node"><title>Node3</title>
<g id="a_node2"><a xlink:href="classDGtal_1_1CountedConstPtrOrConstPtr.html" target="_top" xlink:title="DGtal::CountedConstPtrOr\lConstPtr\&lt; EuclideanShape \&gt;">
<polygon fill="white" stroke="black" points="674.5,-135 674.5,-165 831.5,-165 831.5,-135 674.5,-135"/>
<text text-anchor="start" x="682.5" y="-153" font-family="FreeSans" font-size="10.00">DGtal::CountedConstPtrOr</text>
<text text-anchor="middle" x="753" y="-142" font-family="FreeSans" font-size="10.00">ConstPtr&lt; EuclideanShape &gt;</text>
</a>
</g>
</g>
<!-- Node3&#45;&gt;Node2 -->
<g id="edge1" class="edge"><title>Node3&#45;&gt;Node2</title>
<path fill="none" stroke="#9a32cd" stroke-dasharray="5,2" d="M841.706,-136.507C879.33,-130.718 922.991,-124.001 959.751,-118.346"/>
<polygon fill="#9a32cd" stroke="#9a32cd" points="841.124,-133.055 831.773,-138.035 842.189,-139.974 841.124,-133.055"/>
<text text-anchor="middle" x="896" y="-138" font-family="FreeSans" font-size="10.00"> myEShape</text>
</g>
<!-- Node4 -->
<g id="node3" class="node"><title>Node4</title>
<g id="a_node3"><a xlink:href="classDGtal_1_1CountedConstPtrOrConstPtr.html" target="_top" xlink:title="Aim: Smart or simple const pointer on T. It can be a smart pointer based on reference counts or a sim...">
<polygon fill="white" stroke="black" points="383.5,-136 383.5,-166 526.5,-166 526.5,-136 383.5,-136"/>
<text text-anchor="start" x="391.5" y="-154" font-family="FreeSans" font-size="10.00">DGtal::CountedConstPtrOr</text>
<text text-anchor="middle" x="455" y="-143" font-family="FreeSans" font-size="10.00">ConstPtr&lt; T &gt;</text>
</a>
</g>
</g>
<!-- Node4&#45;&gt;Node3 -->
<g id="edge2" class="edge"><title>Node4&#45;&gt;Node3</title>
<path fill="none" stroke="orange" stroke-dasharray="5,2" d="M536.647,-150.728C579.551,-150.583 632.055,-150.405 674.478,-150.262"/>
<polygon fill="orange" stroke="orange" points="536.511,-147.228 526.523,-150.762 536.535,-154.228 536.511,-147.228"/>
<text text-anchor="middle" x="604" y="-154" font-family="FreeSans" font-size="10.00"> &lt; EuclideanShape &gt;</text>
</g>
<!-- Node5 -->
<g id="node4" class="node"><title>Node5</title>
<g id="a_node4"><a xlink:href="classDGtal_1_1RegularPointEmbedder.html" target="_top" xlink:title="DGtal::RegularPointEmbedder\l\&lt; Space \&gt;">
<polygon fill="white" stroke="black" points="674,-47 674,-77 832,-77 832,-47 674,-47"/>
<text text-anchor="start" x="682" y="-65" font-family="FreeSans" font-size="10.00">DGtal::RegularPointEmbedder</text>
<text text-anchor="middle" x="753" y="-54" font-family="FreeSans" font-size="10.00">&lt; Space &gt;</text>
</a>
</g>
</g>
<!-- Node5&#45;&gt;Node2 -->
<g id="edge3" class="edge"><title>Node5&#45;&gt;Node2</title>
<path fill="none" stroke="#9a32cd" stroke-dasharray="5,2" d="M842.214,-68.1816C873.83,-71.1167 909.646,-75.2712 942,-81 956.783,-83.6175 972.623,-87.2752 987.164,-90.9864"/>
<polygon fill="#9a32cd" stroke="#9a32cd" points="842.381,-64.6825 832.107,-67.271 841.753,-71.6542 842.381,-64.6825"/>
<text text-anchor="middle" x="896" y="-84" font-family="FreeSans" font-size="10.00"> myPointEmbedder</text>
</g>
<!-- Node6 -->
<g id="node5" class="node"><title>Node6</title>
<g id="a_node5"><a xlink:href="classDGtal_1_1PointVector.html" target="_top" xlink:title="Aim: Implements basic operations that will be used in Point and Vector classes. ">
<polygon fill="white" stroke="black" points="148,-46.5 148,-87.5 274,-87.5 274,-46.5 148,-46.5"/>
<text text-anchor="start" x="156" y="-75.5" font-family="FreeSans" font-size="10.00">DGtal::PointVector</text>
<text text-anchor="start" x="156" y="-64.5" font-family="FreeSans" font-size="10.00">&lt; dim, TEuclideanRing,</text>
<text text-anchor="middle" x="211" y="-53.5" font-family="FreeSans" font-size="10.00"> TContainer &gt;</text>
</a>
</g>
</g>
<!-- Node6&#45;&gt;Node2 -->
<g id="edge9" class="edge"><title>Node6&#45;&gt;Node2</title>
<path fill="none" stroke="#9a32cd" stroke-dasharray="5,2" d="M284.36,-79.1773C286.935,-79.4773 289.488,-79.7532 292,-80 534.308,-103.803 822.633,-106.69 959.801,-106.528"/>
<polygon fill="#9a32cd" stroke="#9a32cd" points="284.712,-75.694 274.352,-77.913 283.835,-82.6388 284.712,-75.694"/>
<text text-anchor="middle" x="604" y="-116" font-family="FreeSans" font-size="10.00"> myLowerPoint</text>
<text text-anchor="middle" x="604" y="-105" font-family="FreeSans" font-size="10.00">myUpperPoint</text>
</g>
<!-- Node6&#45;&gt;Node5 -->
<g id="edge4" class="edge"><title>Node6&#45;&gt;Node5</title>
<path fill="none" stroke="#9a32cd" stroke-dasharray="5,2" d="M284.361,-66.33C385.788,-65.3909 569.491,-63.6899 673.914,-62.723"/>
<polygon fill="#9a32cd" stroke="#9a32cd" points="284.176,-62.8315 274.208,-66.424 284.24,-69.8312 284.176,-62.8315"/>
<text text-anchor="middle" x="455" y="-69" font-family="FreeSans" font-size="10.00"> myGridSteps</text>
</g>
<!-- Node6&#45;&gt;Node6 -->
<g id="edge6" class="edge"><title>Node6&#45;&gt;Node6</title>
<path fill="none" stroke="#9a32cd" stroke-dasharray="5,2" d="M193.766,-97.6009C196.515,-102.023 202.259,-105 211,-105 225.344,-105 231.619,-96.9844 229.826,-87.7163"/>
<polygon fill="#9a32cd" stroke="#9a32cd" points="197.22,-97.0324 192.174,-87.7163 190.309,-98.1457 197.22,-97.0324"/>
<text text-anchor="middle" x="211" y="-108" font-family="FreeSans" font-size="10.00"> zero</text>
</g>
<!-- Node8 -->
<g id="node7" class="node"><title>Node8</title>
<g id="a_node7"><a xlink:href="classDGtal_1_1RegularPointEmbedder.html" target="_top" xlink:title="Aim: A simple point embedder where grid steps are given for each axis. Note that the real point (0...">
<polygon fill="white" stroke="black" points="376,-0 376,-30 534,-30 534,-0 376,-0"/>
<text text-anchor="start" x="384" y="-18" font-family="FreeSans" font-size="10.00">DGtal::RegularPointEmbedder</text>
<text text-anchor="middle" x="455" y="-7" font-family="FreeSans" font-size="10.00">&lt; TSpace &gt;</text>
</a>
</g>
</g>
<!-- Node6&#45;&gt;Node8 -->
<g id="edge8" class="edge"><title>Node6&#45;&gt;Node8</title>
<path fill="none" stroke="#9a32cd" stroke-dasharray="5,2" d="M284.012,-43.9934C286.701,-43.2944 289.37,-42.6269 292,-42 319.042,-35.5535 348.985,-30.101 375.696,-25.8204"/>
<polygon fill="#9a32cd" stroke="#9a32cd" points="282.958,-40.6526 274.221,-46.6457 284.789,-47.4091 282.958,-40.6526"/>
<text text-anchor="middle" x="325" y="-45" font-family="FreeSans" font-size="10.00"> myGridSteps</text>
</g>
<!-- Node7 -->
<g id="node6" class="node"><title>Node7</title>
<polygon fill="white" stroke="#bfbfbf" points="0,-57.5 0,-76.5 68,-76.5 68,-57.5 0,-57.5"/>
<text text-anchor="middle" x="34" y="-64.5" font-family="FreeSans" font-size="10.00">TContainer</text>
</g>
<!-- Node7&#45;&gt;Node6 -->
<g id="edge5" class="edge"><title>Node7&#45;&gt;Node6</title>
<path fill="none" stroke="#9a32cd" stroke-dasharray="5,2" d="M78.5018,-67C99.4065,-67 124.84,-67 147.749,-67"/>
<polygon fill="#9a32cd" stroke="#9a32cd" points="78.3281,-63.5001 68.3281,-67 78.328,-70.5001 78.3281,-63.5001"/>
<text text-anchor="middle" x="108" y="-70" font-family="FreeSans" font-size="10.00"> myArray</text>
</g>
<!-- Node8&#45;&gt;Node5 -->
<g id="edge7" class="edge"><title>Node8&#45;&gt;Node5</title>
<path fill="none" stroke="orange" stroke-dasharray="5,2" d="M544.243,-25.5366C579.136,-30.062 619.54,-35.7493 656,-42 664.725,-43.4959 673.867,-45.2093 682.896,-46.9901"/>
<polygon fill="orange" stroke="orange" points="544.444,-22.0338 534.08,-24.231 543.552,-28.9767 544.444,-22.0338"/>
<text text-anchor="middle" x="604" y="-45" font-family="FreeSans" font-size="10.00"> &lt; Space &gt;</text>
</g>
</g>
</svg>
        <g id="navigator" transform="translate(0 0)" fill="#404254">
                <rect fill="#f2f5e9" fill-opacity="0.5" stroke="#606060" stroke-width=".5" x="0" y="0" width="60" height="60"/>
                <use id="zoomplus" xlink:href="#zoomPlus" x="17" y="9" onmousedown="handleZoom(evt,'in')"/>
                <use id="zoomminus" xlink:href="#zoomMin" x="42" y="9" onmousedown="handleZoom(evt,'out')"/>
                <use id="reset" xlink:href="#resetDef" x="30" y="36" onmousedown="handleReset()"/>
                <g id="arrowUp" xlink:href="#dirArrow" transform="translate(30 24)" onmousedown="handlePan(0,-1)">
                  <use xlink:href="#rim" fill="#404040">
                        <set attributeName="fill" to="#808080" begin="arrowUp.mouseover" end="arrowUp.mouseout"/>
                  </use>
                  <path fill="none" stroke="white" stroke-width="1.5" d="M0,-3.0v7 M-2.5,-0.5L0,-3.0L2.5,-0.5"/>
                </g>
                <g id="arrowRight" xlink:href="#dirArrow" transform="rotate(90) translate(36 -43)" onmousedown="handlePan(1,0)">
                  <use xlink:href="#rim" fill="#404040">
                        <set attributeName="fill" to="#808080" begin="arrowRight.mouseover" end="arrowRight.mouseout"/>
                  </use>
                  <path fill="none" stroke="white" stroke-width="1.5" d="M0,-3.0v7 M-2.5,-0.5L0,-3.0L2.5,-0.5"/>
                </g>
                <g id="arrowDown" xlink:href="#dirArrow" transform="rotate(180) translate(-30 -48)" onmousedown="handlePan(0,1)">
                  <use xlink:href="#rim" fill="#404040">
                        <set attributeName="fill" to="#808080" begin="arrowDown.mouseover" end="arrowDown.mouseout"/>
                  </use>
                  <path fill="none" stroke="white" stroke-width="1.5" d="M0,-3.0v7 M-2.5,-0.5L0,-3.0L2.5,-0.5"/>
                </g>
                <g id="arrowLeft" xlink:href="#dirArrow" transform="rotate(270) translate(-36 17)" onmousedown="handlePan(-1,0)">
                  <use xlink:href="#rim" fill="#404040">
                        <set attributeName="fill" to="#808080" begin="arrowLeft.mouseover" end="arrowLeft.mouseout"/>
                  </use>
                  <path fill="none" stroke="white" stroke-width="1.5" d="M0,-3.0v7 M-2.5,-0.5L0,-3.0L2.5,-0.5"/>
                </g>
        </g>
        <svg viewBox="0 0 15 15" width="100%" height="30px" preserveAspectRatio="xMaxYMin meet">
         <g id="arrow_out" transform="scale(0.3 0.3)">
          <a xlink:href="classDGtal_1_1GaussDigitizer__coll__graph_org.svg" target="_base">
           <rect id="button" ry="5" rx="5" y="6" x="6" height="38" width="38"
                fill="#f2f5e9" fill-opacity="0.5" stroke="#606060" stroke-width="1.0"/>
           <path id="arrow"
             d="M 11.500037,31.436501 C 11.940474,20.09759 22.043105,11.32322 32.158766,21.979434 L 37.068811,17.246167 C 37.068811,17.246167 37.088388,32 37.088388,32 L 22.160133,31.978069 C 22.160133,31.978069 26.997745,27.140456 26.997745,27.140456 C 18.528582,18.264221 13.291696,25.230495 11.500037,31.436501 z"
             style="fill:#404040;"/>
          </a>
         </g>
        </svg>
</svg>
