<?xml version="1.0" encoding="UTF-8" standalone="no"?>
<!DOCTYPE svg PUBLIC "-//W3C//DTD SVG 1.1//EN"
 "http://www.w3.org/Graphics/SVG/1.1/DTD/svg11.dtd">
<!-- Generated by graphviz version 2.38.0 (20140413.2041)
 -->
<!-- Title: LibBoard::Board Pages: 1 -->
<svg width="1120pt" height="288pt"
 viewBox="0.00 0.00 1120.00 287.56" xmlns="http://www.w3.org/2000/svg" xmlns:xlink="http://www.w3.org/1999/xlink">
<g id="graph0" class="graph" transform="scale(1 1) rotate(0) translate(4 283.559)">
<title>LibBoard::Board</title>
<polygon fill="white" stroke="none" points="-4,4 -4,-283.559 1116,-283.559 1116,4 -4,4"/>
<!-- Node4 -->
<g id="node1" class="node"><title>Node4</title>
<polygon fill="#bfbfbf" stroke="black" points="1019,-77.059 1019,-96.059 1112,-96.059 1112,-77.059 1019,-77.059"/>
<text text-anchor="middle" x="1065.5" y="-84.059" font-family="FreeSans" font-size="10.00">LibBoard::Board</text>
</g>
<!-- Node5 -->
<g id="node2" class="node"><title>Node5</title>
<g id="a_node2"><a xlink:href="structLibBoard_1_1ShapeList.html" target="_top" xlink:title="A group of shapes. ">
<polygon fill="white" stroke="black" points="805,-131.059 805,-150.059 917,-150.059 917,-131.059 805,-131.059"/>
<text text-anchor="middle" x="861" y="-138.059" font-family="FreeSans" font-size="10.00">LibBoard::ShapeList</text>
</a>
</g>
</g>
<!-- Node5&#45;&gt;Node4 -->
<g id="edge1" class="edge"><title>Node5&#45;&gt;Node4</title>
<path fill="none" stroke="midnightblue" d="M907.675,-128.379C944.327,-118.605 995.056,-105.077 1028.78,-96.0842"/>
<polygon fill="midnightblue" stroke="midnightblue" points="906.497,-125.071 897.737,-131.029 908.301,-131.834 906.497,-125.071"/>
</g>
<!-- Node6 -->
<g id="node3" class="node"><title>Node6</title>
<g id="a_node3"><a xlink:href="structLibBoard_1_1Shape.html" target="_top" xlink:title="Abstract structure for a 2D shape. ">
<polygon fill="white" stroke="black" points="349,-101.059 349,-120.059 444,-120.059 444,-101.059 349,-101.059"/>
<text text-anchor="middle" x="396.5" y="-108.059" font-family="FreeSans" font-size="10.00">LibBoard::Shape</text>
</a>
</g>
</g>
<!-- Node6&#45;&gt;Node5 -->
<g id="edge2" class="edge"><title>Node6&#45;&gt;Node5</title>
<path fill="none" stroke="midnightblue" d="M454.217,-109.63C456.848,-109.603 459.452,-109.579 462,-109.559 517.554,-109.128 531.533,-106.42 587,-109.559 662.842,-113.851 749.969,-124.799 804.992,-132.462"/>
<polygon fill="midnightblue" stroke="midnightblue" points="453.961,-106.133 444.004,-109.752 454.045,-113.133 453.961,-106.133"/>
</g>
<!-- Node10 -->
<g id="node7" class="node"><title>Node10</title>
<polygon fill="white" stroke="#bfbfbf" points="605,-186.559 605,-216.559 726,-216.559 726,-186.559 605,-186.559"/>
<text text-anchor="start" x="613" y="-204.559" font-family="FreeSans" font-size="10.00">std::vector&lt; LibBoard</text>
<text text-anchor="middle" x="665.5" y="-193.559" font-family="FreeSans" font-size="10.00">::Shape *&gt;</text>
</g>
<!-- Node6&#45;&gt;Node10 -->
<g id="edge9" class="edge"><title>Node6&#45;&gt;Node10</title>
<path fill="none" stroke="#9a32cd" stroke-dasharray="5,2" d="M454.146,-106.979C493.138,-106.686 545.232,-110.692 587,-129.559 615.118,-142.26 639.708,-169.299 653.29,-186.387"/>
<polygon fill="#9a32cd" stroke="#9a32cd" points="453.962,-103.482 444.023,-107.153 454.082,-110.481 453.962,-103.482"/>
<text text-anchor="middle" x="524.5" y="-132.559" font-family="FreeSans" font-size="10.00"> elements</text>
</g>
<!-- Node7 -->
<g id="node4" class="node"><title>Node7</title>
<g id="a_node4"><a xlink:title="STL class. ">
<polygon fill="white" stroke="#bfbfbf" points="168,-178.059 168,-197.059 233,-197.059 233,-178.059 168,-178.059"/>
<text text-anchor="middle" x="200.5" y="-185.059" font-family="FreeSans" font-size="10.00">std::string</text>
</a>
</g>
</g>
<!-- Node7&#45;&gt;Node5 -->
<g id="edge7" class="edge"><title>Node7&#45;&gt;Node5</title>
<path fill="none" stroke="#9a32cd" stroke-dasharray="5,2" d="M243.377,-184.57C357.883,-176.397 676.203,-153.677 804.928,-144.49"/>
<polygon fill="#9a32cd" stroke="#9a32cd" points="242.986,-181.089 233.261,-185.292 243.485,-188.071 242.986,-181.089"/>
<text text-anchor="middle" x="524.5" y="-172.559" font-family="FreeSans" font-size="10.00"> _name</text>
</g>
<!-- Node7&#45;&gt;Node6 -->
<g id="edge3" class="edge"><title>Node7&#45;&gt;Node6</title>
<path fill="none" stroke="#9a32cd" stroke-dasharray="5,2" d="M242.835,-178.76C249.336,-176.178 255.662,-172.849 261,-168.559 273.419,-158.579 266.185,-147.025 279,-137.559 299.039,-122.756 325.89,-115.898 348.763,-112.789"/>
<polygon fill="#9a32cd" stroke="#9a32cd" points="241.606,-175.482 233.279,-182.033 243.874,-182.104 241.606,-175.482"/>
<text text-anchor="middle" x="305" y="-140.559" font-family="FreeSans" font-size="10.00"> _name</text>
</g>
<!-- Node8 -->
<g id="node5" class="node"><title>Node8</title>
<g id="a_node5"><a xlink:title="STL class. ">
<polygon fill="white" stroke="#bfbfbf" points="0,-172.559 0,-202.559 103,-202.559 103,-172.559 0,-172.559"/>
<text text-anchor="start" x="8" y="-190.559" font-family="FreeSans" font-size="10.00">std::basic_string&lt;</text>
<text text-anchor="middle" x="51.5" y="-179.559" font-family="FreeSans" font-size="10.00"> char &gt;</text>
</a>
</g>
</g>
<!-- Node8&#45;&gt;Node7 -->
<g id="edge4" class="edge"><title>Node8&#45;&gt;Node7</title>
<path fill="none" stroke="midnightblue" d="M113.313,-187.559C131.981,-187.559 151.775,-187.559 167.68,-187.559"/>
<polygon fill="midnightblue" stroke="midnightblue" points="113.089,-184.059 103.089,-187.559 113.089,-191.059 113.089,-184.059"/>
</g>
<!-- Node9 -->
<g id="node6" class="node"><title>Node9</title>
<g id="a_node6"><a xlink:href="classDGtal_1_1Color.html" target="_top" xlink:title="Structure representing an RGB triple with alpha component. ">
<polygon fill="white" stroke="black" points="163.5,-1.05896 163.5,-20.059 237.5,-20.059 237.5,-1.05896 163.5,-1.05896"/>
<text text-anchor="middle" x="200.5" y="-8.05896" font-family="FreeSans" font-size="10.00">DGtal::Color</text>
</a>
</g>
</g>
<!-- Node9&#45;&gt;Node4 -->
<g id="edge14" class="edge"><title>Node9&#45;&gt;Node4</title>
<path fill="none" stroke="#9a32cd" stroke-dasharray="5,2" d="M235.163,-23.5802C273.409,-37.1818 337.987,-56.559 395.5,-56.559 395.5,-56.559 395.5,-56.559 862,-56.559 918.686,-56.559 983.344,-68.2046 1024.04,-76.9843"/>
<polygon fill="#9a32cd" stroke="#9a32cd" points="236.159,-20.2181 225.565,-20.0902 233.767,-26.7967 236.159,-20.2181"/>
<text text-anchor="middle" x="665.5" y="-59.559" font-family="FreeSans" font-size="10.00"> _backgroundColor</text>
</g>
<!-- Node9&#45;&gt;Node6 -->
<g id="edge5" class="edge"><title>Node9&#45;&gt;Node6</title>
<path fill="none" stroke="#9a32cd" stroke-dasharray="5,2" d="M220.077,-26.9602C235.142,-39.6236 257.357,-56.8969 279,-68.559 294.284,-76.7945 336.649,-91.3544 365.843,-100.981"/>
<polygon fill="#9a32cd" stroke="#9a32cd" points="221.961,-23.9653 212.091,-20.1142 217.405,-29.2798 221.961,-23.9653"/>
<text text-anchor="middle" x="305" y="-103.559" font-family="FreeSans" font-size="10.00"> _penColor</text>
<text text-anchor="middle" x="305" y="-92.559" font-family="FreeSans" font-size="10.00">_fillColor</text>
</g>
<!-- Node9&#45;&gt;Node9 -->
<g id="edge6" class="edge"><title>Node9&#45;&gt;Node9</title>
<path fill="none" stroke="#9a32cd" stroke-dasharray="5,2" d="M186.136,-30.3252C187.264,-35.0555 192.052,-38.559 200.5,-38.559 214.363,-38.559 218.371,-29.1242 212.522,-20.316"/>
<polygon fill="#9a32cd" stroke="#9a32cd" points="189.607,-30.8505 188.478,-20.316 182.792,-29.2555 189.607,-30.8505"/>
<text text-anchor="middle" x="200.5" y="-151.559" font-family="FreeSans" font-size="10.00"> Yellow</text>
<text text-anchor="middle" x="200.5" y="-140.559" font-family="FreeSans" font-size="10.00">Lime</text>
<text text-anchor="middle" x="200.5" y="-129.559" font-family="FreeSans" font-size="10.00">Navy</text>
<text text-anchor="middle" x="200.5" y="-118.559" font-family="FreeSans" font-size="10.00">Magenta</text>
<text text-anchor="middle" x="200.5" y="-107.559" font-family="FreeSans" font-size="10.00">White</text>
<text text-anchor="middle" x="200.5" y="-96.559" font-family="FreeSans" font-size="10.00">None</text>
<text text-anchor="middle" x="200.5" y="-85.559" font-family="FreeSans" font-size="10.00">Blue</text>
<text text-anchor="middle" x="200.5" y="-74.559" font-family="FreeSans" font-size="10.00">Aqua</text>
<text text-anchor="middle" x="200.5" y="-63.559" font-family="FreeSans" font-size="10.00">Purple</text>
<text text-anchor="middle" x="200.5" y="-52.559" font-family="FreeSans" font-size="10.00">Silver</text>
<text text-anchor="middle" x="200.5" y="-41.559" font-family="FreeSans" font-size="10.00">...</text>
</g>
<!-- Node13 -->
<g id="node10" class="node"><title>Node13</title>
<g id="a_node10"><a xlink:href="structLibBoard_1_1Board_1_1State.html" target="_top" xlink:title="LibBoard::Board::State">
<polygon fill="white" stroke="black" points="462,-1.05896 462,-20.059 587,-20.059 587,-1.05896 462,-1.05896"/>
<text text-anchor="middle" x="524.5" y="-8.05896" font-family="FreeSans" font-size="10.00">LibBoard::Board::State</text>
</a>
</g>
</g>
<!-- Node9&#45;&gt;Node13 -->
<g id="edge13" class="edge"><title>Node9&#45;&gt;Node13</title>
<path fill="none" stroke="#9a32cd" stroke-dasharray="5,2" d="M247.539,-10.559C303.836,-10.559 399.333,-10.559 461.91,-10.559"/>
<polygon fill="#9a32cd" stroke="#9a32cd" points="247.5,-7.05906 237.5,-10.559 247.5,-14.0591 247.5,-7.05906"/>
<text text-anchor="middle" x="305" y="-24.559" font-family="FreeSans" font-size="10.00"> fillColor</text>
<text text-anchor="middle" x="305" y="-13.559" font-family="FreeSans" font-size="10.00">penColor</text>
</g>
<!-- Node10&#45;&gt;Node5 -->
<g id="edge8" class="edge"><title>Node10&#45;&gt;Node5</title>
<path fill="none" stroke="#9a32cd" stroke-dasharray="5,2" d="M735.966,-186.248C752.818,-181.99 770.678,-177.018 787,-171.559 805.281,-165.444 825.399,-156.746 839.878,-150.119"/>
<polygon fill="#9a32cd" stroke="#9a32cd" points="735.045,-182.87 726.179,-188.67 736.727,-189.665 735.045,-182.87"/>
<text text-anchor="middle" x="765.5" y="-187.559" font-family="FreeSans" font-size="10.00"> _shapes</text>
</g>
<!-- Node11 -->
<g id="node8" class="node"><title>Node11</title>
<g id="a_node8"><a xlink:title="STL class. ">
<polygon fill="white" stroke="#bfbfbf" points="349,-219.059 349,-238.059 444,-238.059 444,-219.059 349,-219.059"/>
<text text-anchor="middle" x="396.5" y="-226.059" font-family="FreeSans" font-size="10.00">std::vector&lt; T &gt;</text>
</a>
</g>
</g>
<!-- Node11&#45;&gt;Node10 -->
<g id="edge10" class="edge"><title>Node11&#45;&gt;Node10</title>
<path fill="none" stroke="orange" stroke-dasharray="5,2" d="M454.315,-217.633C456.909,-217.247 459.48,-216.886 462,-216.559 509.895,-210.349 564.522,-206.49 604.959,-204.244"/>
<polygon fill="orange" stroke="orange" points="453.583,-214.206 444.258,-219.235 454.684,-221.119 453.583,-214.206"/>
<text text-anchor="middle" x="524.5" y="-219.559" font-family="FreeSans" font-size="10.00"> &lt; LibBoard::Shape *&gt;</text>
</g>
<!-- Node15 -->
<g id="node12" class="node"><title>Node15</title>
<polygon fill="white" stroke="#bfbfbf" points="605,-235.559 605,-265.559 726,-265.559 726,-235.559 605,-235.559"/>
<text text-anchor="start" x="613" y="-253.559" font-family="FreeSans" font-size="10.00">std::vector&lt; LibBoard</text>
<text text-anchor="middle" x="665.5" y="-242.559" font-family="FreeSans" font-size="10.00">::Point &gt;</text>
</g>
<!-- Node11&#45;&gt;Node15 -->
<g id="edge18" class="edge"><title>Node11&#45;&gt;Node15</title>
<path fill="none" stroke="orange" stroke-dasharray="5,2" d="M454.561,-231.202C492.216,-233.186 542.609,-236.294 587,-240.559 592.807,-241.117 598.849,-241.769 604.885,-242.469"/>
<polygon fill="orange" stroke="orange" points="454.46,-227.693 444.293,-230.673 454.1,-234.683 454.46,-227.693"/>
<text text-anchor="middle" x="524.5" y="-243.559" font-family="FreeSans" font-size="10.00"> &lt; LibBoard::Point &gt;</text>
</g>
<!-- Node12 -->
<g id="node9" class="node"><title>Node12</title>
<polygon fill="white" stroke="#bfbfbf" points="186,-219.059 186,-238.059 215,-238.059 215,-219.059 186,-219.059"/>
<text text-anchor="middle" x="200.5" y="-226.059" font-family="FreeSans" font-size="10.00">T</text>
</g>
<!-- Node12&#45;&gt;Node11 -->
<g id="edge11" class="edge"><title>Node12&#45;&gt;Node11</title>
<path fill="none" stroke="#9a32cd" stroke-dasharray="5,2" d="M225.308,-228.559C255.955,-228.559 309.889,-228.559 348.84,-228.559"/>
<polygon fill="#9a32cd" stroke="#9a32cd" points="225.142,-225.059 215.142,-228.559 225.142,-232.059 225.142,-225.059"/>
<text text-anchor="middle" x="305" y="-231.559" font-family="FreeSans" font-size="10.00"> elements</text>
</g>
<!-- Node13&#45;&gt;Node4 -->
<g id="edge12" class="edge"><title>Node13&#45;&gt;Node4</title>
<path fill="none" stroke="#9a32cd" stroke-dasharray="5,2" d="M597.339,-3.76722C692.553,2.65858 864.427,5.22646 1001,-42.559 1022.02,-49.9119 1042.48,-66.2297 1054.27,-76.7944"/>
<polygon fill="#9a32cd" stroke="#9a32cd" points="596.97,-0.284546 587.242,-4.48275 597.464,-7.26704 596.97,-0.284546"/>
<text text-anchor="middle" x="765.5" y="-6.55896" font-family="FreeSans" font-size="10.00"> _state</text>
</g>
<!-- Node14 -->
<g id="node11" class="node"><title>Node14</title>
<g id="a_node11"><a xlink:href="structLibBoard_1_1Path.html" target="_top" xlink:title="A path, according to Postscript and SVG definition. ">
<polygon fill="white" stroke="black" points="818,-183.059 818,-202.059 904,-202.059 904,-183.059 818,-183.059"/>
<text text-anchor="middle" x="861" y="-190.059" font-family="FreeSans" font-size="10.00">LibBoard::Path</text>
</a>
</g>
</g>
<!-- Node14&#45;&gt;Node4 -->
<g id="edge15" class="edge"><title>Node14&#45;&gt;Node4</title>
<path fill="none" stroke="#9a32cd" stroke-dasharray="5,2" d="M893.525,-178.881C922.05,-166.202 964.983,-146.362 1001,-126.559 1018.35,-117.017 1037.49,-104.705 1050.17,-96.2755"/>
<polygon fill="#9a32cd" stroke="#9a32cd" points="891.805,-175.814 884.071,-183.055 894.632,-182.218 891.805,-175.814"/>
<text text-anchor="middle" x="968" y="-162.559" font-family="FreeSans" font-size="10.00"> _clippingPath</text>
</g>
<!-- Node15&#45;&gt;Node14 -->
<g id="edge16" class="edge"><title>Node15&#45;&gt;Node14</title>
<path fill="none" stroke="#9a32cd" stroke-dasharray="5,2" d="M726.302,-232.634C759.879,-222.569 800.441,-210.411 828.019,-202.145"/>
<polygon fill="#9a32cd" stroke="#9a32cd" points="725.157,-229.323 716.583,-235.547 727.167,-236.028 725.157,-229.323"/>
<text text-anchor="middle" x="765.5" y="-229.559" font-family="FreeSans" font-size="10.00"> _points</text>
</g>
<!-- Node16 -->
<g id="node13" class="node"><title>Node16</title>
<g id="a_node13"><a xlink:href="structLibBoard_1_1Point.html" target="_top" xlink:title="Struct representing a 2D point. ">
<polygon fill="white" stroke="black" points="352,-260.059 352,-279.059 441,-279.059 441,-260.059 352,-260.059"/>
<text text-anchor="middle" x="396.5" y="-267.059" font-family="FreeSans" font-size="10.00">LibBoard::Point</text>
</a>
</g>
</g>
<!-- Node16&#45;&gt;Node15 -->
<g id="edge17" class="edge"><title>Node16&#45;&gt;Node15</title>
<path fill="none" stroke="#9a32cd" stroke-dasharray="5,2" d="M451.316,-265.729C495.737,-262.568 558.721,-258.086 604.708,-254.814"/>
<polygon fill="#9a32cd" stroke="#9a32cd" points="451.017,-262.242 441.291,-266.443 451.514,-269.224 451.017,-262.242"/>
<text text-anchor="middle" x="524.5" y="-267.559" font-family="FreeSans" font-size="10.00"> elements</text>
</g>
</g>
</svg>
