<?xml version="1.0" encoding="UTF-8" standalone="no"?>
<!DOCTYPE svg PUBLIC "-//W3C//DTD SVG 1.1//EN"
 "http://www.w3.org/Graphics/SVG/1.1/DTD/svg11.dtd">
<!-- Generated by graphviz version 2.36.0 (20140111.2315)
 -->
<!-- Title: DGtal::RealFFT&lt; HyperRectDomain&lt; TSpace &gt;, T &gt; Pages: 1 -->
<!--zoomable 430 -->
<svg id="main" version="1.1" xmlns="http://www.w3.org/2000/svg" xmlns:xlink="http://www.w3.org/1999/xlink" xml:space="preserve" onload="init(evt)">
<style type="text/css"><![CDATA[
.edge:hover path { stroke: red; }
.edge:hover polygon { stroke: red; fill: red; }
]]></style>
<script type="text/javascript"><![CDATA[
var edges = document.getElementsByTagName('g');
if (edges && edges.length) {
  for (var i=0;i<edges.length;i++) {
    if (edges[i].id.substr(0,4)=='edge') {
      edges[i].setAttribute('class','edge');
    }
  }
}
]]></script>
        <defs>
                <circle id="rim" cx="0" cy="0" r="7"/>
                <circle id="rim2" cx="0" cy="0" r="3.5"/>
                <g id="zoomPlus">
                        <use xlink:href="#rim" fill="#404040">
                                <set attributeName="fill" to="#808080" begin="zoomplus.mouseover" end="zoomplus.mouseout"/>
                        </use>
                        <path d="M-4,0h8M0,-4v8" fill="none" stroke="white" stroke-width="1.5" pointer-events="none"/>
                </g>
                <g id="zoomMin">
                        <use xlink:href="#rim" fill="#404040">
                                <set attributeName="fill" to="#808080" begin="zoomminus.mouseover" end="zoomminus.mouseout"/>
                        </use>
                        <path d="M-4,0h8" fill="none" stroke="white" stroke-width="1.5" pointer-events="none"/>
                </g>
                <g id="dirArrow">
                        <path fill="none" stroke="white" stroke-width="1.5" d="M0,-3.0v7 M-2.5,-0.5L0,-3.0L2.5,-0.5"/>
                </g>
               <g id="resetDef">
                       <use xlink:href="#rim2" fill="#404040">
                               <set attributeName="fill" to="#808080" begin="reset.mouseover" end="reset.mouseout"/>
                       </use>
               </g>
        </defs>

<script type="text/javascript">
var viewWidth = 1508;
var viewHeight = 430;
var sectionId = 'dynsection-0';
</script>
<script xlink:href="svgpan.js"/>
<svg id="graph" class="graph">
<g id="viewport">
<title>DGtal::RealFFT&lt; HyperRectDomain&lt; TSpace &gt;, T &gt;</title>
<polygon fill="white" stroke="none" points="-4,4 -4,-426 1504,-426 1504,4 -4,4"/>
<!-- Node1 -->
<g id="node1" class="node"><title>Node1</title>
<polygon fill="#bfbfbf" stroke="black" points="1354.5,-226 1354.5,-256 1499.5,-256 1499.5,-226 1354.5,-226"/>
<text text-anchor="start" x="1362.5" y="-244" font-family="FreeSans" font-size="10.00">DGtal::RealFFT&lt; HyperRect</text>
<text text-anchor="middle" x="1427" y="-233" font-family="FreeSans" font-size="10.00">Domain&lt; TSpace &gt;, T &gt;</text>
</g>
<!-- Node2 -->
<g id="node2" class="node"><title>Node2</title>
<g id="a_node2"><a xlink:href="classDGtal_1_1PointVector.html" target="_top" xlink:title="DGtal::PointVector\l\&lt; Space::dimension,\l Real \&gt;">
<polygon fill="white" stroke="black" points="526,-355.5 526,-396.5 642,-396.5 642,-355.5 526,-355.5"/>
<text text-anchor="start" x="534" y="-384.5" font-family="FreeSans" font-size="10.00">DGtal::PointVector</text>
<text text-anchor="start" x="534" y="-373.5" font-family="FreeSans" font-size="10.00">&lt; Space::dimension,</text>
<text text-anchor="middle" x="584" y="-362.5" font-family="FreeSans" font-size="10.00"> Real &gt;</text>
</a>
</g>
</g>
<!-- Node2&#45;&gt;Node1 -->
<g id="edge1" class="edge"><title>Node2&#45;&gt;Node1</title>
<path fill="none" stroke="#9a32cd" stroke-dasharray="5,2" d="M652.042,-373.096C784.71,-366.076 1089.24,-343.618 1336,-278 1356.24,-272.617 1377.99,-263.767 1395.04,-256.073"/>
<polygon fill="#9a32cd" stroke="#9a32cd" points="651.834,-369.602 642.028,-373.613 652.195,-376.592 651.834,-369.602"/>
<text text-anchor="middle" x="991" y="-365" font-family="FreeSans" font-size="10.00"> myScaledSpatialLowerBound</text>
<text text-anchor="middle" x="991" y="-354" font-family="FreeSans" font-size="10.00">myScaledSpatialExtent</text>
</g>
<!-- Node3 -->
<g id="node3" class="node"><title>Node3</title>
<polygon fill="white" stroke="#bfbfbf" points="0,-379.5 0,-398.5 68,-398.5 68,-379.5 0,-379.5"/>
<text text-anchor="middle" x="34" y="-386.5" font-family="FreeSans" font-size="10.00">TContainer</text>
</g>
<!-- Node3&#45;&gt;Node2 -->
<g id="edge2" class="edge"><title>Node3&#45;&gt;Node2</title>
<path fill="none" stroke="#9a32cd" stroke-dasharray="5,2" d="M78.0091,-394.611C160.114,-404.309 344.671,-421.231 498,-400 507.113,-398.738 516.624,-396.749 525.845,-394.444"/>
<polygon fill="#9a32cd" stroke="#9a32cd" points="78.394,-391.132 68.0469,-393.41 77.556,-398.082 78.394,-391.132"/>
<text text-anchor="middle" x="279" y="-414" font-family="FreeSans" font-size="10.00"> myArray</text>
</g>
<!-- Node4 -->
<g id="node4" class="node"><title>Node4</title>
<g id="a_node4"><a xlink:href="classDGtal_1_1PointVector.html" target="_top" xlink:title="Aim: Implements basic operations that will be used in Point and Vector classes. ">
<polygon fill="white" stroke="black" points="216,-304.5 216,-345.5 342,-345.5 342,-304.5 216,-304.5"/>
<text text-anchor="start" x="224" y="-333.5" font-family="FreeSans" font-size="10.00">DGtal::PointVector</text>
<text text-anchor="start" x="224" y="-322.5" font-family="FreeSans" font-size="10.00">&lt; dim, TEuclideanRing,</text>
<text text-anchor="middle" x="279" y="-311.5" font-family="FreeSans" font-size="10.00"> TContainer &gt;</text>
</a>
</g>
</g>
<!-- Node3&#45;&gt;Node4 -->
<g id="edge4" class="edge"><title>Node3&#45;&gt;Node4</title>
<path fill="none" stroke="#9a32cd" stroke-dasharray="5,2" d="M77.7984,-377.728C115.963,-367.676 172.314,-352.835 215.516,-341.457"/>
<polygon fill="#9a32cd" stroke="#9a32cd" points="76.8038,-374.371 68.025,-380.302 78.5866,-381.14 76.8038,-374.371"/>
<text text-anchor="middle" x="125" y="-379" font-family="FreeSans" font-size="10.00"> myArray</text>
</g>
<!-- Node4&#45;&gt;Node2 -->
<g id="edge3" class="edge"><title>Node4&#45;&gt;Node2</title>
<path fill="none" stroke="#9a32cd" stroke-dasharray="5,2" d="M352.057,-329.936C394.787,-333.688 449.837,-339.96 498,-350 507.064,-351.889 516.549,-354.322 525.759,-356.938"/>
<polygon fill="#9a32cd" stroke="#9a32cd" points="352.289,-326.444 342.028,-329.082 351.695,-333.418 352.289,-326.444"/>
<text text-anchor="middle" x="446" y="-353" font-family="FreeSans" font-size="10.00"> zero</text>
</g>
<!-- Node4&#45;&gt;Node2 -->
<g id="edge6" class="edge"><title>Node4&#45;&gt;Node2</title>
<path fill="none" stroke="orange" stroke-dasharray="5,2" d="M345.748,-348.547C361.387,-353.368 378.142,-357.908 394,-361 437.777,-369.534 488.161,-373.237 525.894,-374.831"/>
<polygon fill="orange" stroke="orange" points="346.762,-345.196 336.172,-345.518 344.651,-351.871 346.762,-345.196"/>
<text text-anchor="start" x="394.5" y="-388" font-family="FreeSans" font-size="10.00"> &lt; Space::dimension,</text>
<text text-anchor="middle" x="446" y="-377" font-family="FreeSans" font-size="10.00"> Real &gt;</text>
</g>
<!-- Node4&#45;&gt;Node4 -->
<g id="edge5" class="edge"><title>Node4&#45;&gt;Node4</title>
<path fill="none" stroke="#9a32cd" stroke-dasharray="5,2" d="M252.98,-355.601C257.13,-360.023 265.803,-363 279,-363 300.656,-363 310.131,-354.984 307.424,-345.716"/>
<polygon fill="#9a32cd" stroke="#9a32cd" points="256.34,-354.606 250.576,-345.716 249.539,-356.26 256.34,-354.606"/>
<text text-anchor="middle" x="279" y="-366" font-family="FreeSans" font-size="10.00"> zero</text>
</g>
<!-- Node5 -->
<g id="node5" class="node"><title>Node5</title>
<g id="a_node5"><a xlink:href="classDGtal_1_1HyperRectDomain.html" target="_top" xlink:title="DGtal::HyperRectDomain\l\&lt; Space \&gt;">
<polygon fill="white" stroke="black" points="1080,-226 1080,-256 1216,-256 1216,-226 1080,-226"/>
<text text-anchor="start" x="1088" y="-244" font-family="FreeSans" font-size="10.00">DGtal::HyperRectDomain</text>
<text text-anchor="middle" x="1148" y="-233" font-family="FreeSans" font-size="10.00">&lt; Space &gt;</text>
</a>
</g>
</g>
<!-- Node4&#45;&gt;Node5 -->
<g id="edge15" class="edge"><title>Node4&#45;&gt;Node5</title>
<path fill="none" stroke="#9a32cd" stroke-dasharray="5,2" d="M352.565,-321.527C427.61,-317.652 548.141,-310.637 652,-301 805.429,-286.763 984.808,-263.317 1079.87,-250.351"/>
<polygon fill="#9a32cd" stroke="#9a32cd" points="352.092,-318.047 342.284,-322.053 352.45,-325.038 352.092,-318.047"/>
<text text-anchor="middle" x="709" y="-314" font-family="FreeSans" font-size="10.00"> myLowerBound</text>
<text text-anchor="middle" x="709" y="-303" font-family="FreeSans" font-size="10.00">myUpperBound</text>
</g>
<!-- Node9 -->
<g id="node9" class="node"><title>Node9</title>
<g id="a_node9"><a xlink:href="structDGtal_1_1functors_1_1IsWithinPointPredicate.html" target="_top" xlink:title="DGtal::functors::IsWithin\lPointPredicate\&lt; Point \&gt;">
<polygon fill="white" stroke="black" points="518,-198 518,-228 650,-228 650,-198 518,-198"/>
<text text-anchor="start" x="526" y="-216" font-family="FreeSans" font-size="10.00">DGtal::functors::IsWithin</text>
<text text-anchor="middle" x="584" y="-205" font-family="FreeSans" font-size="10.00">PointPredicate&lt; Point &gt;</text>
</a>
</g>
</g>
<!-- Node4&#45;&gt;Node9 -->
<g id="edge12" class="edge"><title>Node4&#45;&gt;Node9</title>
<path fill="none" stroke="#9a32cd" stroke-dasharray="5,2" d="M304.725,-296.546C325.953,-274.245 358.649,-244.623 394,-230 432.967,-213.881 480.217,-209.631 517.725,-209.411"/>
<polygon fill="#9a32cd" stroke="#9a32cd" points="301.955,-294.385 297.71,-304.092 307.082,-299.152 301.955,-294.385"/>
<text text-anchor="middle" x="446" y="-244" font-family="FreeSans" font-size="10.00"> myLowerBound</text>
<text text-anchor="middle" x="446" y="-233" font-family="FreeSans" font-size="10.00">myUpperBound</text>
</g>
<!-- Node11 -->
<g id="node11" class="node"><title>Node11</title>
<g id="a_node11"><a xlink:href="classDGtal_1_1HyperRectDomain.html" target="_top" xlink:title="Aim: Parallelepidec region of a digital space, model of a &#39;CDomain&#39;. ">
<polygon fill="white" stroke="black" points="766,-174 766,-204 902,-204 902,-174 766,-174"/>
<text text-anchor="start" x="774" y="-192" font-family="FreeSans" font-size="10.00">DGtal::HyperRectDomain</text>
<text text-anchor="middle" x="834" y="-181" font-family="FreeSans" font-size="10.00">&lt; TSpace &gt;</text>
</a>
</g>
</g>
<!-- Node4&#45;&gt;Node11 -->
<g id="edge19" class="edge"><title>Node4&#45;&gt;Node11</title>
<path fill="none" stroke="#9a32cd" stroke-dasharray="5,2" d="M351.999,-310.036C463.891,-286.579 674.313,-241.605 748,-220 763.525,-215.448 780.318,-209.541 794.844,-204.105"/>
<polygon fill="#9a32cd" stroke="#9a32cd" points="351.214,-306.624 342.144,-312.1 352.649,-313.475 351.214,-306.624"/>
<text text-anchor="middle" x="584" y="-289" font-family="FreeSans" font-size="10.00"> myLowerBound</text>
<text text-anchor="middle" x="584" y="-278" font-family="FreeSans" font-size="10.00">myUpperBound</text>
</g>
<!-- Node5&#45;&gt;Node1 -->
<g id="edge7" class="edge"><title>Node5&#45;&gt;Node1</title>
<path fill="none" stroke="#9a32cd" stroke-dasharray="5,2" d="M1226.06,-241C1266.17,-241 1314.92,-241 1354.23,-241"/>
<polygon fill="#9a32cd" stroke="#9a32cd" points="1226.05,-237.5 1216.05,-241 1226.05,-244.5 1226.05,-237.5"/>
<text text-anchor="middle" x="1285" y="-266" font-family="FreeSans" font-size="10.00"> mySpatialDomain</text>
<text text-anchor="middle" x="1285" y="-255" font-family="FreeSans" font-size="10.00">myFullSpatialDomain</text>
<text text-anchor="middle" x="1285" y="-244" font-family="FreeSans" font-size="10.00">myFreqDomain</text>
</g>
<!-- Node6 -->
<g id="node6" class="node"><title>Node6</title>
<g id="a_node6"><a xlink:href="classDGtal_1_1HyperRectDomain__Iterator.html" target="_top" xlink:title="Iterator for HyperRectDomain. ">
<polygon fill="white" stroke="black" points="516,-118 516,-148 652,-148 652,-118 516,-118"/>
<text text-anchor="start" x="524" y="-136" font-family="FreeSans" font-size="10.00">DGtal::HyperRectDomain</text>
<text text-anchor="middle" x="584" y="-125" font-family="FreeSans" font-size="10.00">_Iterator&lt; TPoint &gt;</text>
</a>
</g>
</g>
<!-- Node6&#45;&gt;Node5 -->
<g id="edge8" class="edge"><title>Node6&#45;&gt;Node5</title>
<path fill="none" stroke="#9a32cd" stroke-dasharray="5,2" d="M662.24,-121.673C763.647,-111.107 942.744,-107.743 1062,-192 1072.89,-199.694 1069.32,-208.014 1080,-216 1085.07,-219.793 1090.78,-223.066 1096.67,-225.877"/>
<polygon fill="#9a32cd" stroke="#9a32cd" points="661.633,-118.219 652.073,-122.784 662.394,-125.177 661.633,-118.219"/>
<text text-anchor="middle" x="834" y="-142" font-family="FreeSans" font-size="10.00"> myIteratorEnd</text>
<text text-anchor="middle" x="834" y="-131" font-family="FreeSans" font-size="10.00">myIteratorBegin</text>
</g>
<!-- Node6&#45;&gt;Node11 -->
<g id="edge17" class="edge"><title>Node6&#45;&gt;Node11</title>
<path fill="none" stroke="#9a32cd" stroke-dasharray="5,2" d="M661.235,-150.214C694.83,-157.8 733.946,-166.633 766.357,-173.952"/>
<polygon fill="#9a32cd" stroke="#9a32cd" points="661.985,-146.796 651.459,-148.007 660.443,-153.624 661.985,-146.796"/>
<text text-anchor="middle" x="709" y="-184" font-family="FreeSans" font-size="10.00"> myIteratorEnd</text>
<text text-anchor="middle" x="709" y="-173" font-family="FreeSans" font-size="10.00">myIteratorBegin</text>
</g>
<!-- Node7 -->
<g id="node7" class="node"><title>Node7</title>
<polygon fill="white" stroke="#bfbfbf" points="182,-0 182,-96 376,-96 376,-0 182,-0"/>
<text text-anchor="start" x="190" y="-84" font-family="FreeSans" font-size="10.00">boost::iterator_facade</text>
<text text-anchor="start" x="190" y="-73" font-family="FreeSans" font-size="10.00">&lt; HyperRectDomain_Iterator</text>
<text text-anchor="start" x="190" y="-62" font-family="FreeSans" font-size="10.00">&lt; TPoint &gt;, TPoint const,</text>
<text text-anchor="start" x="190" y="-51" font-family="FreeSans" font-size="10.00"> std::random_access_iterator</text>
<text text-anchor="start" x="190" y="-40" font-family="FreeSans" font-size="10.00">_tag, TPoint const &amp;, std::conditional</text>
<text text-anchor="start" x="190" y="-29" font-family="FreeSans" font-size="10.00">&lt; std::is_same&lt; TPoint::Component,</text>
<text text-anchor="start" x="190" y="-18" font-family="FreeSans" font-size="10.00"> BigInteger &gt;::value, BigInteger, std</text>
<text text-anchor="middle" x="279" y="-7" font-family="FreeSans" font-size="10.00">::ptrdiff_t &gt;::type &gt;</text>
</g>
<!-- Node7&#45;&gt;Node6 -->
<g id="edge9" class="edge"><title>Node7&#45;&gt;Node6</title>
<path fill="none" stroke="midnightblue" d="M386.183,-77.7872C434.563,-91.3592 489.734,-106.836 529.329,-117.944"/>
<polygon fill="midnightblue" stroke="midnightblue" points="386.861,-74.3425 376.287,-75.0113 384.97,-81.0823 386.861,-74.3425"/>
</g>
<!-- Node8 -->
<g id="node8" class="node"><title>Node8</title>
<polygon fill="white" stroke="#bfbfbf" points="11,-148.5 11,-167.5 57,-167.5 57,-148.5 11,-148.5"/>
<text text-anchor="middle" x="34" y="-155.5" font-family="FreeSans" font-size="10.00">TPoint</text>
</g>
<!-- Node8&#45;&gt;Node6 -->
<g id="edge10" class="edge"><title>Node8&#45;&gt;Node6</title>
<path fill="none" stroke="#9a32cd" stroke-dasharray="5,2" d="M67.58,-153.641C97.3218,-149.855 142.53,-144.586 182,-142 299.259,-134.317 436.17,-132.852 515.874,-132.746"/>
<polygon fill="#9a32cd" stroke="#9a32cd" points="66.8309,-150.208 57.3616,-154.961 67.7276,-157.151 66.8309,-150.208"/>
<text text-anchor="middle" x="279" y="-167" font-family="FreeSans" font-size="10.00"> mylower</text>
<text text-anchor="middle" x="279" y="-156" font-family="FreeSans" font-size="10.00">myupper</text>
<text text-anchor="middle" x="279" y="-145" font-family="FreeSans" font-size="10.00">myPoint</text>
</g>
<!-- Node10 -->
<g id="node10" class="node"><title>Node10</title>
<g id="a_node10"><a xlink:href="structDGtal_1_1functors_1_1IsWithinPointPredicate.html" target="_top" xlink:title="Aim: The predicate returns true when the point is within the given bounds. ">
<polygon fill="white" stroke="black" points="210.5,-185 210.5,-215 347.5,-215 347.5,-185 210.5,-185"/>
<text text-anchor="start" x="218.5" y="-203" font-family="FreeSans" font-size="10.00">DGtal::functors::IsWithin</text>
<text text-anchor="middle" x="279" y="-192" font-family="FreeSans" font-size="10.00">PointPredicate&lt; TPoint &gt;</text>
</a>
</g>
</g>
<!-- Node8&#45;&gt;Node10 -->
<g id="edge14" class="edge"><title>Node8&#45;&gt;Node10</title>
<path fill="none" stroke="#9a32cd" stroke-dasharray="5,2" d="M67.4638,-163.611C103.807,-169.893 163.715,-180.247 210.351,-188.308"/>
<polygon fill="#9a32cd" stroke="#9a32cd" points="67.8753,-160.13 57.4253,-161.876 66.6831,-167.028 67.8753,-160.13"/>
<text text-anchor="middle" x="125" y="-195" font-family="FreeSans" font-size="10.00"> myLowerBound</text>
<text text-anchor="middle" x="125" y="-184" font-family="FreeSans" font-size="10.00">myUpperBound</text>
</g>
<!-- Node9&#45;&gt;Node5 -->
<g id="edge11" class="edge"><title>Node9&#45;&gt;Node5</title>
<path fill="none" stroke="#9a32cd" stroke-dasharray="5,2" d="M660.611,-219.376C663.782,-219.596 666.922,-219.806 670,-220 816.015,-229.223 987.429,-235.711 1079.81,-238.851"/>
<polygon fill="#9a32cd" stroke="#9a32cd" points="660.64,-215.869 650.414,-218.64 660.136,-222.851 660.64,-215.869"/>
<text text-anchor="middle" x="834" y="-236" font-family="FreeSans" font-size="10.00"> myPredicate</text>
</g>
<!-- Node9&#45;&gt;Node11 -->
<g id="edge18" class="edge"><title>Node9&#45;&gt;Node11</title>
<path fill="none" stroke="#9a32cd" stroke-dasharray="5,2" d="M660.377,-205.705C693.931,-202.458 733.128,-198.665 765.683,-195.515"/>
<polygon fill="#9a32cd" stroke="#9a32cd" points="659.775,-202.247 650.159,-206.694 660.45,-209.215 659.775,-202.247"/>
<text text-anchor="middle" x="709" y="-208" font-family="FreeSans" font-size="10.00"> myPredicate</text>
</g>
<!-- Node10&#45;&gt;Node9 -->
<g id="edge13" class="edge"><title>Node10&#45;&gt;Node9</title>
<path fill="none" stroke="orange" stroke-dasharray="5,2" d="M357.999,-194.161C399.642,-192.155 451.716,-191.417 498,-196 504.44,-196.638 511.114,-197.541 517.763,-198.602"/>
<polygon fill="orange" stroke="orange" points="357.726,-190.671 347.92,-194.681 358.087,-197.661 357.726,-190.671"/>
<text text-anchor="middle" x="446" y="-199" font-family="FreeSans" font-size="10.00"> &lt; Point &gt;</text>
</g>
<!-- Node11&#45;&gt;Node5 -->
<g id="edge16" class="edge"><title>Node11&#45;&gt;Node5</title>
<path fill="none" stroke="orange" stroke-dasharray="5,2" d="M912.113,-194.937C956.283,-199.142 1012.59,-205.869 1062,-216 1074.81,-218.626 1088.48,-222.264 1101.03,-225.953"/>
<polygon fill="orange" stroke="orange" points="912.302,-191.439 902.021,-194 911.655,-198.409 912.302,-191.439"/>
<text text-anchor="middle" x="991" y="-219" font-family="FreeSans" font-size="10.00"> &lt; Space &gt;</text>
</g>
<!-- Node12 -->
<g id="node12" class="node"><title>Node12</title>
<polygon fill="white" stroke="#bfbfbf" points="1133.5,-187.5 1133.5,-206.5 1162.5,-206.5 1162.5,-187.5 1133.5,-187.5"/>
<text text-anchor="middle" x="1148" y="-194.5" font-family="FreeSans" font-size="10.00">T</text>
</g>
<!-- Node12&#45;&gt;Node1 -->
<g id="edge20" class="edge"><title>Node12&#45;&gt;Node1</title>
<path fill="none" stroke="#9a32cd" stroke-dasharray="5,2" d="M1172.94,-200.625C1208.53,-206.031 1277.46,-216.583 1336,-226 1341.94,-226.956 1348.1,-227.959 1354.29,-228.973"/>
<polygon fill="#9a32cd" stroke="#9a32cd" points="1173.03,-197.098 1162.62,-199.058 1171.98,-204.018 1173.03,-197.098"/>
<text text-anchor="middle" x="1285" y="-229" font-family="FreeSans" font-size="10.00"> myScaledFreqMag</text>
</g>
</g>
</svg>
        <g id="navigator" transform="translate(0 0)" fill="#404254">
                <rect fill="#f2f5e9" fill-opacity="0.5" stroke="#606060" stroke-width=".5" x="0" y="0" width="60" height="60"/>
                <use id="zoomplus" xlink:href="#zoomPlus" x="17" y="9" onmousedown="handleZoom(evt,'in')"/>
                <use id="zoomminus" xlink:href="#zoomMin" x="42" y="9" onmousedown="handleZoom(evt,'out')"/>
                <use id="reset" xlink:href="#resetDef" x="30" y="36" onmousedown="handleReset()"/>
                <g id="arrowUp" xlink:href="#dirArrow" transform="translate(30 24)" onmousedown="handlePan(0,-1)">
                  <use xlink:href="#rim" fill="#404040">
                        <set attributeName="fill" to="#808080" begin="arrowUp.mouseover" end="arrowUp.mouseout"/>
                  </use>
                  <path fill="none" stroke="white" stroke-width="1.5" d="M0,-3.0v7 M-2.5,-0.5L0,-3.0L2.5,-0.5"/>
                </g>
                <g id="arrowRight" xlink:href="#dirArrow" transform="rotate(90) translate(36 -43)" onmousedown="handlePan(1,0)">
                  <use xlink:href="#rim" fill="#404040">
                        <set attributeName="fill" to="#808080" begin="arrowRight.mouseover" end="arrowRight.mouseout"/>
                  </use>
                  <path fill="none" stroke="white" stroke-width="1.5" d="M0,-3.0v7 M-2.5,-0.5L0,-3.0L2.5,-0.5"/>
                </g>
                <g id="arrowDown" xlink:href="#dirArrow" transform="rotate(180) translate(-30 -48)" onmousedown="handlePan(0,1)">
                  <use xlink:href="#rim" fill="#404040">
                        <set attributeName="fill" to="#808080" begin="arrowDown.mouseover" end="arrowDown.mouseout"/>
                  </use>
                  <path fill="none" stroke="white" stroke-width="1.5" d="M0,-3.0v7 M-2.5,-0.5L0,-3.0L2.5,-0.5"/>
                </g>
                <g id="arrowLeft" xlink:href="#dirArrow" transform="rotate(270) translate(-36 17)" onmousedown="handlePan(-1,0)">
                  <use xlink:href="#rim" fill="#404040">
                        <set attributeName="fill" to="#808080" begin="arrowLeft.mouseover" end="arrowLeft.mouseout"/>
                  </use>
                  <path fill="none" stroke="white" stroke-width="1.5" d="M0,-3.0v7 M-2.5,-0.5L0,-3.0L2.5,-0.5"/>
                </g>
        </g>
        <svg viewBox="0 0 15 15" width="100%" height="30px" preserveAspectRatio="xMaxYMin meet">
         <g id="arrow_out" transform="scale(0.3 0.3)">
          <a xlink:href="classDGtal_1_1RealFFT_3_01HyperRectDomain_3_01TSpace_01_4_00_01T_01_4__coll__graph_org.svg" target="_base">
           <rect id="button" ry="5" rx="5" y="6" x="6" height="38" width="38"
                fill="#f2f5e9" fill-opacity="0.5" stroke="#606060" stroke-width="1.0"/>
           <path id="arrow"
             d="M 11.500037,31.436501 C 11.940474,20.09759 22.043105,11.32322 32.158766,21.979434 L 37.068811,17.246167 C 37.068811,17.246167 37.088388,32 37.088388,32 L 22.160133,31.978069 C 22.160133,31.978069 26.997745,27.140456 26.997745,27.140456 C 18.528582,18.264221 13.291696,25.230495 11.500037,31.436501 z"
             style="fill:#404040;"/>
          </a>
         </g>
        </svg>
</svg>
