<?xml version="1.0" encoding="UTF-8" standalone="no"?>
<!DOCTYPE svg PUBLIC "-//W3C//DTD SVG 1.1//EN"
 "http://www.w3.org/Graphics/SVG/1.1/DTD/svg11.dtd">
<!-- Generated by graphviz version 2.36.0 (20140111.2315)
 -->
<!-- Title: DGtal::PredicateFromOrientationFunctor2&lt; TOrientationFunctor, acceptNeg, acceptZero &gt; Pages: 1 -->
<svg width="287pt" height="198pt"
 viewBox="0.00 0.00 287.00 198.00" xmlns="http://www.w3.org/2000/svg" xmlns:xlink="http://www.w3.org/1999/xlink">
<g id="graph0" class="graph" transform="scale(1 1) rotate(0) translate(4 194)">
<title>DGtal::PredicateFromOrientationFunctor2&lt; TOrientationFunctor, acceptNeg, acceptZero &gt;</title>
<polygon fill="white" stroke="none" points="-4,4 -4,-194 283,-194 283,4 -4,4"/>
<!-- Node3 -->
<g id="node1" class="node"><title>Node3</title>
<polygon fill="#bfbfbf" stroke="black" points="69,-0.5 69,-41.5 241,-41.5 241,-0.5 69,-0.5"/>
<text text-anchor="start" x="77" y="-29.5" font-family="FreeSans" font-size="10.00">DGtal::PredicateFromOrientation</text>
<text text-anchor="start" x="77" y="-18.5" font-family="FreeSans" font-size="10.00">Functor2&lt; TOrientationFunctor,</text>
<text text-anchor="middle" x="155" y="-7.5" font-family="FreeSans" font-size="10.00"> acceptNeg, acceptZero &gt;</text>
</g>
<!-- Node4 -->
<g id="node2" class="node"><title>Node4</title>
<g id="a_node2"><a xlink:href="classDGtal_1_1functors_1_1Thresholder.html" target="_top" xlink:title="Aim: A small functor with an operator () that compares one value to a threshold value according to tw...">
<polygon fill="white" stroke="black" points="-0.5,-91 -0.5,-121 150.5,-121 150.5,-91 -0.5,-91"/>
<text text-anchor="start" x="7.5" y="-109" font-family="FreeSans" font-size="10.00">DGtal::functors::Thresholder</text>
<text text-anchor="middle" x="75" y="-98" font-family="FreeSans" font-size="10.00">&lt; T, isLower, isEqual &gt;</text>
</a>
</g>
</g>
<!-- Node4&#45;&gt;Node3 -->
<g id="edge1" class="edge"><title>Node4&#45;&gt;Node3</title>
<path fill="none" stroke="#9a32cd" stroke-dasharray="5,2" d="M90.3256,-82.5977C95.8589,-75.108 102.38,-66.9133 109,-60 115.161,-53.5656 122.374,-47.1659 129.237,-41.5036"/>
<polygon fill="#9a32cd" stroke="#9a32cd" points="87.3215,-80.781 84.3374,-90.9469 93.0097,-84.8607 87.3215,-80.781"/>
<text text-anchor="middle" x="146.5" y="-63.5" font-family="FreeSans" font-size="10.00"> myThresholder</text>
</g>
<!-- Node5 -->
<g id="node3" class="node"><title>Node5</title>
<polygon fill="white" stroke="#bfbfbf" points="114.5,-170.5 114.5,-189.5 143.5,-189.5 143.5,-170.5 114.5,-170.5"/>
<text text-anchor="middle" x="129" y="-177.5" font-family="FreeSans" font-size="10.00">T</text>
</g>
<!-- Node5&#45;&gt;Node4 -->
<g id="edge2" class="edge"><title>Node5&#45;&gt;Node4</title>
<path fill="none" stroke="#9a32cd" stroke-dasharray="5,2" d="M109.857,-163.601C106.011,-160.022 102.179,-156.063 99,-152 91.5794,-142.517 85.2697,-130.409 80.9849,-121.142"/>
<polygon fill="#9a32cd" stroke="#9a32cd" points="107.731,-166.391 117.568,-170.325 112.332,-161.115 107.731,-166.391"/>
<text text-anchor="middle" x="111" y="-143.5" font-family="FreeSans" font-size="10.00"> myT</text>
</g>
<!-- Node6 -->
<g id="node4" class="node"><title>Node6</title>
<polygon fill="white" stroke="#bfbfbf" points="169,-96.5 169,-115.5 279,-115.5 279,-96.5 169,-96.5"/>
<text text-anchor="middle" x="224" y="-103.5" font-family="FreeSans" font-size="10.00">Functor&lt; T, Point &gt;</text>
</g>
<!-- Node5&#45;&gt;Node6 -->
<g id="edge5" class="edge"><title>Node5&#45;&gt;Node6</title>
<path fill="none" stroke="#9a32cd" stroke-dasharray="5,2" d="M148.406,-164.292C167.783,-149.606 196.897,-127.541 212.744,-115.531"/>
<polygon fill="#9a32cd" stroke="#9a32cd" points="146.126,-161.628 140.271,-170.458 150.355,-167.207 146.126,-161.628"/>
<text text-anchor="middle" x="196.5" y="-143.5" font-family="FreeSans" font-size="10.00"> radius</text>
</g>
<!-- Node6&#45;&gt;Node3 -->
<g id="edge3" class="edge"><title>Node6&#45;&gt;Node3</title>
<path fill="none" stroke="#9a32cd" stroke-dasharray="5,2" d="M210.268,-88.4816C199.052,-74.9899 183.172,-55.8877 171.31,-41.6189"/>
<polygon fill="#9a32cd" stroke="#9a32cd" points="207.791,-90.9778 216.876,-96.4302 213.174,-86.5029 207.791,-90.9778"/>
<text text-anchor="middle" x="229.5" y="-63.5" font-family="FreeSans" font-size="10.00"> myFunctorPtr</text>
</g>
<!-- Node7 -->
<g id="node5" class="node"><title>Node7</title>
<polygon fill="white" stroke="#bfbfbf" points="193,-170.5 193,-189.5 255,-189.5 255,-170.5 193,-170.5"/>
<text text-anchor="middle" x="224" y="-177.5" font-family="FreeSans" font-size="10.00">MyPointD</text>
</g>
<!-- Node7&#45;&gt;Node6 -->
<g id="edge4" class="edge"><title>Node7&#45;&gt;Node6</title>
<path fill="none" stroke="#9a32cd" stroke-dasharray="5,2" d="M224,-160.156C224,-145.712 224,-126.459 224,-115.531"/>
<polygon fill="#9a32cd" stroke="#9a32cd" points="220.5,-160.458 224,-170.458 227.5,-160.458 220.5,-160.458"/>
<text text-anchor="middle" x="241" y="-143.5" font-family="FreeSans" font-size="10.00"> center</text>
</g>
</g>
</svg>
