<?xml version="1.0" encoding="UTF-8" standalone="no"?>
<!DOCTYPE svg PUBLIC "-//W3C//DTD SVG 1.1//EN"
 "http://www.w3.org/Graphics/SVG/1.1/DTD/svg11.dtd">
<!-- Generated by graphviz version 2.38.0 (20140413.2041)
 -->
<!-- Title: DGtal::ParallelStrip&lt; TSpace, muIncluded, muPlusNuIncluded &gt; Pages: 1 -->
<svg width="178pt" height="206pt"
 viewBox="0.00 0.00 178.00 206.00" xmlns="http://www.w3.org/2000/svg" xmlns:xlink="http://www.w3.org/1999/xlink">
<g id="graph0" class="graph" transform="scale(1 1) rotate(0) translate(4 202)">
<title>DGtal::ParallelStrip&lt; TSpace, muIncluded, muPlusNuIncluded &gt;</title>
<polygon fill="white" stroke="none" points="-4,4 -4,-202 174,-202 174,4 -4,4"/>
<!-- Node1 -->
<g id="node1" class="node"><title>Node1</title>
<polygon fill="#bfbfbf" stroke="black" points="0,-0.5 0,-41.5 128,-41.5 128,-0.5 0,-0.5"/>
<text text-anchor="start" x="8" y="-29.5" font-family="FreeSans" font-size="10.00">DGtal::ParallelStrip</text>
<text text-anchor="start" x="8" y="-18.5" font-family="FreeSans" font-size="10.00">&lt; TSpace, muIncluded,</text>
<text text-anchor="middle" x="64" y="-7.5" font-family="FreeSans" font-size="10.00"> muPlusNuIncluded &gt;</text>
</g>
<!-- Node2 -->
<g id="node2" class="node"><title>Node2</title>
<g id="a_node2"><a xlink:href="classDGtal_1_1PointVector.html" target="_top" xlink:title="Aim: Implements basic operations that will be used in Point and Vector classes. ">
<polygon fill="white" stroke="black" points="1,-89.5 1,-130.5 127,-130.5 127,-89.5 1,-89.5"/>
<text text-anchor="start" x="9" y="-118.5" font-family="FreeSans" font-size="10.00">DGtal::PointVector</text>
<text text-anchor="start" x="9" y="-107.5" font-family="FreeSans" font-size="10.00">&lt; dim, TEuclideanRing,</text>
<text text-anchor="middle" x="64" y="-96.5" font-family="FreeSans" font-size="10.00"> TContainer &gt;</text>
</a>
</g>
</g>
<!-- Node2&#45;&gt;Node1 -->
<g id="edge1" class="edge"><title>Node2&#45;&gt;Node1</title>
<path fill="none" stroke="#9a32cd" stroke-dasharray="5,2" d="M64,-78.9407C64,-66.6014 64,-52.6619 64,-41.6635"/>
<polygon fill="#9a32cd" stroke="#9a32cd" points="60.5001,-79.2583 64,-89.2584 67.5001,-79.2584 60.5001,-79.2583"/>
<text text-anchor="middle" x="77" y="-63" font-family="FreeSans" font-size="10.00"> myN</text>
</g>
<!-- Node2&#45;&gt;Node2 -->
<g id="edge3" class="edge"><title>Node2&#45;&gt;Node2</title>
<path fill="none" stroke="#9a32cd" stroke-dasharray="5,2" d="M137.09,-115.937C142.012,-114.566 145,-112.588 145,-110 145,-105.961 137.719,-103.405 127.168,-102.332"/>
<polygon fill="#9a32cd" stroke="#9a32cd" points="136.418,-112.501 127.168,-117.668 137.621,-119.397 136.418,-112.501"/>
<text text-anchor="middle" x="157.5" y="-107.5" font-family="FreeSans" font-size="10.00"> zero</text>
</g>
<!-- Node3 -->
<g id="node3" class="node"><title>Node3</title>
<polygon fill="white" stroke="#bfbfbf" points="30,-178.5 30,-197.5 98,-197.5 98,-178.5 30,-178.5"/>
<text text-anchor="middle" x="64" y="-185.5" font-family="FreeSans" font-size="10.00">TContainer</text>
</g>
<!-- Node3&#45;&gt;Node2 -->
<g id="edge2" class="edge"><title>Node3&#45;&gt;Node2</title>
<path fill="none" stroke="#9a32cd" stroke-dasharray="5,2" d="M64,-168.137C64,-156.729 64,-142.207 64,-130.658"/>
<polygon fill="#9a32cd" stroke="#9a32cd" points="60.5001,-168.282 64,-178.282 67.5001,-168.282 60.5001,-168.282"/>
<text text-anchor="middle" x="86" y="-152" font-family="FreeSans" font-size="10.00"> myArray</text>
</g>
</g>
</svg>
