<?xml version="1.0" encoding="UTF-8" standalone="no"?>
<!DOCTYPE svg PUBLIC "-//W3C//DTD SVG 1.1//EN"
 "http://www.w3.org/Graphics/SVG/1.1/DTD/svg11.dtd">
<!-- Generated by graphviz version 2.38.0 (20140413.2041)
 -->
<!-- Title: DGtal::TangentFromDCAEstimator&lt; DCAComputer &gt; Pages: 1 -->
<svg width="792pt" height="51pt"
 viewBox="0.00 0.00 792.00 51.00" xmlns="http://www.w3.org/2000/svg" xmlns:xlink="http://www.w3.org/1999/xlink">
<g id="graph0" class="graph" transform="scale(1 1) rotate(0) translate(4 47)">
<title>DGtal::TangentFromDCAEstimator&lt; DCAComputer &gt;</title>
<polygon fill="white" stroke="none" points="-4,4 -4,-47 788,-47 788,4 -4,4"/>
<!-- Node0 -->
<g id="node1" class="node"><title>Node0</title>
<polygon fill="#bfbfbf" stroke="black" points="605,-6 605,-36 784,-36 784,-6 605,-6"/>
<text text-anchor="start" x="613" y="-24" font-family="FreeSans" font-size="10.00">DGtal::TangentFromDCAEstimator</text>
<text text-anchor="middle" x="694.5" y="-13" font-family="FreeSans" font-size="10.00">&lt; DCAComputer &gt;</text>
</g>
<!-- Node1 -->
<g id="node2" class="node"><title>Node1</title>
<g id="a_node2"><a xlink:href="classDGtal_1_1detail_1_1PosDepScaleIndepSCEstimator.html" target="_top" xlink:title="DGtal::detail::PosDepScale\lIndepSCEstimator\&lt; DCAComputer,\l detail::TangentVectorFromDCA \&gt;">
<polygon fill="white" stroke="black" points="382,-0.5 382,-41.5 568,-41.5 568,-0.5 382,-0.5"/>
<text text-anchor="start" x="390" y="-29.5" font-family="FreeSans" font-size="10.00">DGtal::detail::PosDepScale</text>
<text text-anchor="start" x="390" y="-18.5" font-family="FreeSans" font-size="10.00">IndepSCEstimator&lt; DCAComputer,</text>
<text text-anchor="middle" x="475" y="-7.5" font-family="FreeSans" font-size="10.00"> detail::TangentVectorFromDCA &gt;</text>
</a>
</g>
</g>
<!-- Node1&#45;&gt;Node0 -->
<g id="edge1" class="edge"><title>Node1&#45;&gt;Node0</title>
<path fill="none" stroke="midnightblue" d="M578.262,-21C587.173,-21 596.142,-21 604.929,-21"/>
<polygon fill="midnightblue" stroke="midnightblue" points="578.24,-17.5001 568.24,-21 578.24,-24.5001 578.24,-17.5001"/>
</g>
<!-- Node2 -->
<g id="node3" class="node"><title>Node2</title>
<g id="a_node3"><a xlink:href="classDGtal_1_1detail_1_1PosDepScaleIndepSCEstimator.html" target="_top" xlink:title="DGtal::detail::PosDepScale\lIndepSCEstimator\&lt; TSegmentComputer,\l Functor, ReturnType \&gt;">
<polygon fill="white" stroke="black" points="0,-0.5 0,-41.5 215,-41.5 215,-0.5 0,-0.5"/>
<text text-anchor="start" x="8" y="-29.5" font-family="FreeSans" font-size="10.00">DGtal::detail::PosDepScale</text>
<text text-anchor="start" x="8" y="-18.5" font-family="FreeSans" font-size="10.00">IndepSCEstimator&lt; TSegmentComputer,</text>
<text text-anchor="middle" x="107.5" y="-7.5" font-family="FreeSans" font-size="10.00"> Functor, ReturnType &gt;</text>
</a>
</g>
</g>
<!-- Node2&#45;&gt;Node1 -->
<g id="edge2" class="edge"><title>Node2&#45;&gt;Node1</title>
<path fill="none" stroke="orange" stroke-dasharray="5,2" d="M225.212,-21C275.82,-21 334.233,-21 381.737,-21"/>
<polygon fill="orange" stroke="orange" points="225.2,-17.5001 215.2,-21 225.2,-24.5001 225.2,-17.5001"/>
<text text-anchor="start" x="233" y="-35" font-family="FreeSans" font-size="10.00"> &lt; DCAComputer, detail</text>
<text text-anchor="middle" x="298.5" y="-24" font-family="FreeSans" font-size="10.00">::TangentVectorFromDCA &gt;</text>
</g>
</g>
</svg>
