<?xml version="1.0" encoding="UTF-8" standalone="no"?>
<!DOCTYPE svg PUBLIC "-//W3C//DTD SVG 1.1//EN"
 "http://www.w3.org/Graphics/SVG/1.1/DTD/svg11.dtd">
<!-- Generated by graphviz version 2.38.0 (20140413.2041)
 -->
<!-- Title: DGtal::CountedConstPtrOrConstPtr&lt; T &gt; Pages: 1 -->
<svg width="520pt" height="711pt"
 viewBox="0.00 0.00 520.00 710.73" xmlns="http://www.w3.org/2000/svg" xmlns:xlink="http://www.w3.org/1999/xlink">
<g id="graph0" class="graph" transform="scale(1 1) rotate(0) translate(4 706.727)">
<title>DGtal::CountedConstPtrOrConstPtr&lt; T &gt;</title>
<polygon fill="white" stroke="none" points="-4,4 -4,-706.727 516,-706.727 516,4 -4,4"/>
<!-- Node0 -->
<g id="node1" class="node"><title>Node0</title>
<polygon fill="#bfbfbf" stroke="black" points="0,-331.727 0,-361.727 143,-361.727 143,-331.727 0,-331.727"/>
<text text-anchor="start" x="8" y="-349.727" font-family="FreeSans" font-size="10.00">DGtal::CountedConstPtrOr</text>
<text text-anchor="middle" x="71.5" y="-338.727" font-family="FreeSans" font-size="10.00">ConstPtr&lt; T &gt;</text>
</g>
<!-- Node1 -->
<g id="node2" class="node"><title>Node1</title>
<g id="a_node2"><a xlink:href="classDGtal_1_1CountedConstPtrOrConstPtr.html" target="_top" xlink:title="DGtal::CountedConstPtrOr\lConstPtr\&lt; DigitalSurfaceContainer \&gt;">
<polygon fill="white" stroke="black" points="318,-660.727 318,-690.727 512,-690.727 512,-660.727 318,-660.727"/>
<text text-anchor="start" x="326" y="-678.727" font-family="FreeSans" font-size="10.00">DGtal::CountedConstPtrOr</text>
<text text-anchor="middle" x="415" y="-667.727" font-family="FreeSans" font-size="10.00">ConstPtr&lt; DigitalSurfaceContainer &gt;</text>
</a>
</g>
</g>
<!-- Node0&#45;&gt;Node1 -->
<g id="edge1" class="edge"><title>Node0&#45;&gt;Node1</title>
<path fill="none" stroke="orange" stroke-dasharray="5,2" d="M76.1162,-372.176C86.1713,-439.079 116.67,-617.256 161,-653.727 207.73,-692.172 277.075,-695.718 331.354,-690.734"/>
<polygon fill="orange" stroke="orange" points="79.5491,-371.464 74.6282,-362.081 72.624,-372.485 79.5491,-371.464"/>
<text text-anchor="middle" x="230.5" y="-694.727" font-family="FreeSans" font-size="10.00"> &lt; DigitalSurfaceContainer &gt;</text>
</g>
<!-- Node2 -->
<g id="node3" class="node"><title>Node2</title>
<g id="a_node3"><a xlink:href="classDGtal_1_1CountedConstPtrOrConstPtr.html" target="_top" xlink:title="DGtal::CountedConstPtrOr\lConstPtr\&lt; Surface \&gt;">
<polygon fill="white" stroke="black" points="343.5,-611.727 343.5,-641.727 486.5,-641.727 486.5,-611.727 343.5,-611.727"/>
<text text-anchor="start" x="351.5" y="-629.727" font-family="FreeSans" font-size="10.00">DGtal::CountedConstPtrOr</text>
<text text-anchor="middle" x="415" y="-618.727" font-family="FreeSans" font-size="10.00">ConstPtr&lt; Surface &gt;</text>
</a>
</g>
</g>
<!-- Node0&#45;&gt;Node2 -->
<g id="edge2" class="edge"><title>Node0&#45;&gt;Node2</title>
<path fill="none" stroke="orange" stroke-dasharray="5,2" d="M72.9365,-371.901C75.33,-424.03 88.8387,-543.678 161,-600.727 212.004,-641.049 288.039,-643.587 343.434,-638.467"/>
<polygon fill="orange" stroke="orange" points="76.4323,-371.717 72.5774,-361.848 69.4367,-371.967 76.4323,-371.717"/>
<text text-anchor="middle" x="230.5" y="-642.727" font-family="FreeSans" font-size="10.00"> &lt; Surface &gt;</text>
</g>
<!-- Node3 -->
<g id="node4" class="node"><title>Node3</title>
<g id="a_node4"><a xlink:href="classDGtal_1_1CountedConstPtrOrConstPtr.html" target="_top" xlink:title="DGtal::CountedConstPtrOr\lConstPtr\&lt; DGtal::DigitalSurface \&gt;">
<polygon fill="white" stroke="black" points="325,-562.727 325,-592.727 505,-592.727 505,-562.727 325,-562.727"/>
<text text-anchor="start" x="333" y="-580.727" font-family="FreeSans" font-size="10.00">DGtal::CountedConstPtrOr</text>
<text text-anchor="middle" x="415" y="-569.727" font-family="FreeSans" font-size="10.00">ConstPtr&lt; DGtal::DigitalSurface &gt;</text>
</a>
</g>
</g>
<!-- Node0&#45;&gt;Node3 -->
<g id="edge3" class="edge"><title>Node0&#45;&gt;Node3</title>
<path fill="none" stroke="orange" stroke-dasharray="5,2" d="M75.8382,-371.907C82.9928,-414.999 104.068,-502.331 161,-544.727 207.452,-579.318 272.451,-587.183 324.934,-586.599"/>
<polygon fill="orange" stroke="orange" points="79.2875,-371.309 74.3058,-361.959 72.3691,-372.375 79.2875,-371.309"/>
<text text-anchor="middle" x="230.5" y="-588.727" font-family="FreeSans" font-size="10.00"> &lt; DGtal::DigitalSurface &gt;</text>
</g>
<!-- Node4 -->
<g id="node5" class="node"><title>Node4</title>
<g id="a_node5"><a xlink:href="classDGtal_1_1CountedConstPtrOrConstPtr.html" target="_top" xlink:title="DGtal::CountedConstPtrOr\lConstPtr\&lt; DGtal::VoronoiCovariance\lMeasureOnDigitalSurface \&gt;">
<polygon fill="white" stroke="black" points="319.5,-503.227 319.5,-544.227 510.5,-544.227 510.5,-503.227 319.5,-503.227"/>
<text text-anchor="start" x="327.5" y="-532.227" font-family="FreeSans" font-size="10.00">DGtal::CountedConstPtrOr</text>
<text text-anchor="start" x="327.5" y="-521.227" font-family="FreeSans" font-size="10.00">ConstPtr&lt; DGtal::VoronoiCovariance</text>
<text text-anchor="middle" x="415" y="-510.227" font-family="FreeSans" font-size="10.00">MeasureOnDigitalSurface &gt;</text>
</a>
</g>
</g>
<!-- Node0&#45;&gt;Node4 -->
<g id="edge4" class="edge"><title>Node0&#45;&gt;Node4</title>
<path fill="none" stroke="orange" stroke-dasharray="5,2" d="M82.8812,-371.437C96.4243,-400.486 122.964,-447.878 161,-472.727 207.702,-503.237 268.817,-516.134 319.281,-521.333"/>
<polygon fill="orange" stroke="orange" points="85.9284,-369.679 78.6353,-361.994 79.5441,-372.55 85.9284,-369.679"/>
<text text-anchor="start" x="162" y="-532.727" font-family="FreeSans" font-size="10.00"> &lt; DGtal::VoronoiCovariance</text>
<text text-anchor="middle" x="230.5" y="-521.727" font-family="FreeSans" font-size="10.00">MeasureOnDigitalSurface &gt;</text>
</g>
<!-- Node5 -->
<g id="node6" class="node"><title>Node5</title>
<g id="a_node6"><a xlink:href="classDGtal_1_1CountedConstPtrOrConstPtr.html" target="_top" xlink:title="DGtal::CountedConstPtrOr\lConstPtr\&lt; Metric \&gt;">
<polygon fill="white" stroke="black" points="343.5,-454.727 343.5,-484.727 486.5,-484.727 486.5,-454.727 343.5,-454.727"/>
<text text-anchor="start" x="351.5" y="-472.727" font-family="FreeSans" font-size="10.00">DGtal::CountedConstPtrOr</text>
<text text-anchor="middle" x="415" y="-461.727" font-family="FreeSans" font-size="10.00">ConstPtr&lt; Metric &gt;</text>
</a>
</g>
</g>
<!-- Node0&#45;&gt;Node5 -->
<g id="edge5" class="edge"><title>Node0&#45;&gt;Node5</title>
<path fill="none" stroke="orange" stroke-dasharray="5,2" d="M93.3283,-369.086C110.037,-385.639 134.933,-407.378 161,-419.727 218.861,-447.138 291.023,-459.527 343.456,-465.123"/>
<polygon fill="orange" stroke="orange" points="95.7622,-366.57 86.2529,-361.898 90.7735,-371.48 95.7622,-366.57"/>
<text text-anchor="middle" x="230.5" y="-460.727" font-family="FreeSans" font-size="10.00"> &lt; Metric &gt;</text>
</g>
<!-- Node6 -->
<g id="node7" class="node"><title>Node6</title>
<g id="a_node7"><a xlink:href="classDGtal_1_1CountedConstPtrOrConstPtr.html" target="_top" xlink:title="DGtal::CountedConstPtrOr\lConstPtr\&lt; VCMOnDigitalSurface \&gt;">
<polygon fill="white" stroke="black" points="324,-405.727 324,-435.727 506,-435.727 506,-405.727 324,-405.727"/>
<text text-anchor="start" x="332" y="-423.727" font-family="FreeSans" font-size="10.00">DGtal::CountedConstPtrOr</text>
<text text-anchor="middle" x="415" y="-412.727" font-family="FreeSans" font-size="10.00">ConstPtr&lt; VCMOnDigitalSurface &gt;</text>
</a>
</g>
</g>
<!-- Node0&#45;&gt;Node6 -->
<g id="edge6" class="edge"><title>Node0&#45;&gt;Node6</title>
<path fill="none" stroke="orange" stroke-dasharray="5,2" d="M120.52,-365.199C133.522,-369.746 147.685,-374.29 161,-377.727 214.385,-391.508 275.277,-402.014 323.944,-409.19"/>
<polygon fill="orange" stroke="orange" points="121.431,-361.808 110.836,-361.741 119.076,-368.401 121.431,-361.808"/>
<text text-anchor="middle" x="230.5" y="-407.727" font-family="FreeSans" font-size="10.00"> &lt; VCMOnDigitalSurface &gt;</text>
</g>
<!-- Node7 -->
<g id="node8" class="node"><title>Node7</title>
<g id="a_node8"><a xlink:href="classDGtal_1_1CountedConstPtrOrConstPtr.html" target="_top" xlink:title="DGtal::CountedConstPtrOr\lConstPtr\&lt; DummyTbl \&gt;">
<polygon fill="white" stroke="black" points="343.5,-356.727 343.5,-386.727 486.5,-386.727 486.5,-356.727 343.5,-356.727"/>
<text text-anchor="start" x="351.5" y="-374.727" font-family="FreeSans" font-size="10.00">DGtal::CountedConstPtrOr</text>
<text text-anchor="middle" x="415" y="-363.727" font-family="FreeSans" font-size="10.00">ConstPtr&lt; DummyTbl &gt;</text>
</a>
</g>
</g>
<!-- Node0&#45;&gt;Node7 -->
<g id="edge7" class="edge"><title>Node0&#45;&gt;Node7</title>
<path fill="none" stroke="orange" stroke-dasharray="5,2" d="M153.443,-352.652C211.179,-356.879 288.065,-362.508 343.332,-366.553"/>
<polygon fill="orange" stroke="orange" points="153.488,-349.146 143.259,-351.907 152.977,-356.128 153.488,-349.146"/>
<text text-anchor="middle" x="230.5" y="-365.727" font-family="FreeSans" font-size="10.00"> &lt; DummyTbl &gt;</text>
</g>
<!-- Node8 -->
<g id="node9" class="node"><title>Node8</title>
<g id="a_node9"><a xlink:href="classDGtal_1_1CountedConstPtrOrConstPtr.html" target="_top" xlink:title="DGtal::CountedConstPtrOr\lConstPtr\&lt; ConvolutionFunctor \&gt;">
<polygon fill="white" stroke="black" points="329,-307.727 329,-337.727 501,-337.727 501,-307.727 329,-307.727"/>
<text text-anchor="start" x="337" y="-325.727" font-family="FreeSans" font-size="10.00">DGtal::CountedConstPtrOr</text>
<text text-anchor="middle" x="415" y="-314.727" font-family="FreeSans" font-size="10.00">ConstPtr&lt; ConvolutionFunctor &gt;</text>
</a>
</g>
</g>
<!-- Node0&#45;&gt;Node8 -->
<g id="edge8" class="edge"><title>Node0&#45;&gt;Node8</title>
<path fill="none" stroke="orange" stroke-dasharray="5,2" d="M153.221,-339.339C155.844,-339.128 158.443,-338.923 161,-338.727 216.84,-334.438 279.678,-330.46 328.76,-327.543"/>
<polygon fill="orange" stroke="orange" points="152.692,-335.87 143.013,-340.18 153.267,-342.847 152.692,-335.87"/>
<text text-anchor="middle" x="230.5" y="-341.727" font-family="FreeSans" font-size="10.00"> &lt; ConvolutionFunctor &gt;</text>
</g>
<!-- Node9 -->
<g id="node10" class="node"><title>Node9</title>
<g id="a_node10"><a xlink:href="classDGtal_1_1CountedConstPtrOrConstPtr.html" target="_top" xlink:title="DGtal::CountedConstPtrOr\lConstPtr\&lt; EuclideanShape \&gt;">
<polygon fill="white" stroke="black" points="336.5,-258.727 336.5,-288.727 493.5,-288.727 493.5,-258.727 336.5,-258.727"/>
<text text-anchor="start" x="344.5" y="-276.727" font-family="FreeSans" font-size="10.00">DGtal::CountedConstPtrOr</text>
<text text-anchor="middle" x="415" y="-265.727" font-family="FreeSans" font-size="10.00">ConstPtr&lt; EuclideanShape &gt;</text>
</a>
</g>
</g>
<!-- Node0&#45;&gt;Node9 -->
<g id="edge9" class="edge"><title>Node0&#45;&gt;Node9</title>
<path fill="none" stroke="orange" stroke-dasharray="5,2" d="M117.814,-327.846C131.508,-322.682 146.706,-317.481 161,-313.727 218.849,-298.532 285.748,-288.262 336.22,-281.937"/>
<polygon fill="orange" stroke="orange" points="116.212,-324.712 108.142,-331.578 118.732,-331.243 116.212,-324.712"/>
<text text-anchor="middle" x="230.5" y="-316.727" font-family="FreeSans" font-size="10.00"> &lt; EuclideanShape &gt;</text>
</g>
<!-- Node10 -->
<g id="node11" class="node"><title>Node10</title>
<g id="a_node11"><a xlink:href="classDGtal_1_1CountedConstPtrOrConstPtr.html" target="_top" xlink:title="DGtal::CountedConstPtrOr\lConstPtr\&lt; DGtal::DiscreteExterior\lCalculus \&gt;">
<polygon fill="white" stroke="black" points="325.5,-199.227 325.5,-240.227 504.5,-240.227 504.5,-199.227 325.5,-199.227"/>
<text text-anchor="start" x="333.5" y="-228.227" font-family="FreeSans" font-size="10.00">DGtal::CountedConstPtrOr</text>
<text text-anchor="start" x="333.5" y="-217.227" font-family="FreeSans" font-size="10.00">ConstPtr&lt; DGtal::DiscreteExterior</text>
<text text-anchor="middle" x="415" y="-206.227" font-family="FreeSans" font-size="10.00">Calculus &gt;</text>
</a>
</g>
</g>
<!-- Node0&#45;&gt;Node10 -->
<g id="edge10" class="edge"><title>Node0&#45;&gt;Node10</title>
<path fill="none" stroke="orange" stroke-dasharray="5,2" d="M89.6892,-323.364C105.78,-303.339 131.69,-275.463 161,-260.727 211.787,-235.193 274.889,-224.933 325.368,-221.061"/>
<polygon fill="orange" stroke="orange" points="86.8074,-321.368 83.4129,-331.404 92.3252,-325.675 86.8074,-321.368"/>
<text text-anchor="start" x="168.5" y="-274.727" font-family="FreeSans" font-size="10.00"> &lt; DGtal::DiscreteExterior</text>
<text text-anchor="middle" x="230.5" y="-263.727" font-family="FreeSans" font-size="10.00">Calculus &gt;</text>
</g>
<!-- Node11 -->
<g id="node12" class="node"><title>Node11</title>
<g id="a_node12"><a xlink:href="classDGtal_1_1CountedConstPtrOrConstPtr.html" target="_top" xlink:title="DGtal::CountedConstPtrOr\lConstPtr\&lt; KSpace \&gt;">
<polygon fill="white" stroke="black" points="343.5,-150.727 343.5,-180.727 486.5,-180.727 486.5,-150.727 343.5,-150.727"/>
<text text-anchor="start" x="351.5" y="-168.727" font-family="FreeSans" font-size="10.00">DGtal::CountedConstPtrOr</text>
<text text-anchor="middle" x="415" y="-157.727" font-family="FreeSans" font-size="10.00">ConstPtr&lt; KSpace &gt;</text>
</a>
</g>
</g>
<!-- Node0&#45;&gt;Node11 -->
<g id="edge11" class="edge"><title>Node0&#45;&gt;Node11</title>
<path fill="none" stroke="orange" stroke-dasharray="5,2" d="M80.9854,-322.306C93.3402,-290.639 119.446,-236.217 161,-208.727 215.065,-172.96 289.401,-163.959 343.5,-162.853"/>
<polygon fill="orange" stroke="orange" points="77.6875,-321.133 77.4552,-331.725 84.2422,-323.59 77.6875,-321.133"/>
<text text-anchor="middle" x="230.5" y="-211.727" font-family="FreeSans" font-size="10.00"> &lt; KSpace &gt;</text>
</g>
<!-- Node12 -->
<g id="node13" class="node"><title>Node12</title>
<g id="a_node13"><a xlink:href="classDGtal_1_1CountedConstPtrOrConstPtr.html" target="_top" xlink:title="DGtal::CountedConstPtrOr\lConstPtr\&lt; ShapeA \&gt;">
<polygon fill="white" stroke="black" points="343.5,-101.727 343.5,-131.727 486.5,-131.727 486.5,-101.727 343.5,-101.727"/>
<text text-anchor="start" x="351.5" y="-119.727" font-family="FreeSans" font-size="10.00">DGtal::CountedConstPtrOr</text>
<text text-anchor="middle" x="415" y="-108.727" font-family="FreeSans" font-size="10.00">ConstPtr&lt; ShapeA &gt;</text>
</a>
</g>
</g>
<!-- Node0&#45;&gt;Node12 -->
<g id="edge12" class="edge"><title>Node0&#45;&gt;Node12</title>
<path fill="none" stroke="orange" stroke-dasharray="5,2" d="M75.8798,-321.67C83.0981,-278.79 104.267,-191.891 161,-149.727 213.084,-111.018 288.411,-105.805 343.321,-108.428"/>
<polygon fill="orange" stroke="orange" points="72.4189,-321.149 74.3321,-331.57 79.3349,-322.23 72.4189,-321.149"/>
<text text-anchor="middle" x="230.5" y="-152.727" font-family="FreeSans" font-size="10.00"> &lt; ShapeA &gt;</text>
</g>
<!-- Node13 -->
<g id="node14" class="node"><title>Node13</title>
<g id="a_node14"><a xlink:href="classDGtal_1_1CountedConstPtrOrConstPtr.html" target="_top" xlink:title="DGtal::CountedConstPtrOr\lConstPtr\&lt; PointPredicate \&gt;">
<polygon fill="white" stroke="black" points="340.5,-52.7268 340.5,-82.7268 489.5,-82.7268 489.5,-52.7268 340.5,-52.7268"/>
<text text-anchor="start" x="348.5" y="-70.7268" font-family="FreeSans" font-size="10.00">DGtal::CountedConstPtrOr</text>
<text text-anchor="middle" x="415" y="-59.7268" font-family="FreeSans" font-size="10.00">ConstPtr&lt; PointPredicate &gt;</text>
</a>
</g>
</g>
<!-- Node0&#45;&gt;Node13 -->
<g id="edge13" class="edge"><title>Node0&#45;&gt;Node13</title>
<path fill="none" stroke="orange" stroke-dasharray="5,2" d="M72.9187,-321.531C75.2786,-269.358 88.7272,-149.634 161,-92.7268 211.109,-53.2708 285.258,-50.3917 340.342,-55.3687"/>
<polygon fill="orange" stroke="orange" points="69.4186,-321.475 72.5663,-331.591 76.4144,-321.72 69.4186,-321.475"/>
<text text-anchor="middle" x="230.5" y="-95.7268" font-family="FreeSans" font-size="10.00"> &lt; PointPredicate &gt;</text>
</g>
<!-- Node14 -->
<g id="node15" class="node"><title>Node14</title>
<g id="a_node15"><a xlink:href="classDGtal_1_1CountedConstPtrOrConstPtr.html" target="_top" xlink:title="DGtal::CountedConstPtrOr\lConstPtr\&lt; Shape \&gt;">
<polygon fill="white" stroke="black" points="343.5,-3.72683 343.5,-33.7268 486.5,-33.7268 486.5,-3.72683 343.5,-3.72683"/>
<text text-anchor="start" x="351.5" y="-21.7268" font-family="FreeSans" font-size="10.00">DGtal::CountedConstPtrOr</text>
<text text-anchor="middle" x="415" y="-10.7268" font-family="FreeSans" font-size="10.00">ConstPtr&lt; Shape &gt;</text>
</a>
</g>
</g>
<!-- Node0&#45;&gt;Node14 -->
<g id="edge14" class="edge"><title>Node0&#45;&gt;Node14</title>
<path fill="none" stroke="orange" stroke-dasharray="5,2" d="M75.9988,-321.546C85.8605,-254.503 116.117,-74.2756 161,-37.7268 211.379,3.29758 287.694,3.35528 343.333,-3.96504"/>
<polygon fill="orange" stroke="orange" points="72.5055,-321.249 74.5424,-331.646 79.4338,-322.248 72.5055,-321.249"/>
<text text-anchor="middle" x="230.5" y="-40.7268" font-family="FreeSans" font-size="10.00"> &lt; Shape &gt;</text>
</g>
</g>
</svg>
