<?xml version="1.0" encoding="UTF-8" standalone="no"?>
<!DOCTYPE svg PUBLIC "-//W3C//DTD SVG 1.1//EN"
 "http://www.w3.org/Graphics/SVG/1.1/DTD/svg11.dtd">
<!-- Generated by graphviz version 2.38.0 (20140413.2041)
 -->
<!-- Title: DGtal::ImplicitFunctionDiff1LinearCellEmbedderGradientMap&lt; TKSpace, TImplicitFunctionDiff1, TEmbedder &gt; Pages: 1 -->
<svg width="415pt" height="61pt"
 viewBox="0.00 0.00 415.00 61.00" xmlns="http://www.w3.org/2000/svg" xmlns:xlink="http://www.w3.org/1999/xlink">
<g id="graph0" class="graph" transform="scale(1 1) rotate(0) translate(4 57)">
<title>DGtal::ImplicitFunctionDiff1LinearCellEmbedderGradientMap&lt; TKSpace, TImplicitFunctionDiff1, TEmbedder &gt;</title>
<polygon fill="white" stroke="none" points="-4,4 -4,-57 411,-57 411,4 -4,4"/>
<!-- Node0 -->
<g id="node1" class="node"><title>Node0</title>
<polygon fill="#bfbfbf" stroke="black" points="228,-0.5 228,-52.5 407,-52.5 407,-0.5 228,-0.5"/>
<text text-anchor="start" x="236" y="-40.5" font-family="FreeSans" font-size="10.00">DGtal::ImplicitFunctionDiff1</text>
<text text-anchor="start" x="236" y="-29.5" font-family="FreeSans" font-size="10.00">LinearCellEmbedderGradientMap</text>
<text text-anchor="start" x="236" y="-18.5" font-family="FreeSans" font-size="10.00">&lt; TKSpace, TImplicitFunctionDiff1,</text>
<text text-anchor="middle" x="317.5" y="-7.5" font-family="FreeSans" font-size="10.00"> TEmbedder &gt;</text>
</g>
<!-- Node1 -->
<g id="node2" class="node"><title>Node1</title>
<g id="a_node2"><a xlink:href="classDGtal_1_1ImplicitFunctionDiff1LinearCellEmbedder.html" target="_top" xlink:title="Aim: a cellular embedder for implicit functions, (default constructible, copy constructible, assignable). Model of CCellEmbedder and CWithGradientMap. ">
<polygon fill="white" stroke="black" points="0,-6 0,-47 192,-47 192,-6 0,-6"/>
<text text-anchor="start" x="8" y="-35" font-family="FreeSans" font-size="10.00">DGtal::ImplicitFunctionDiff1</text>
<text text-anchor="start" x="8" y="-24" font-family="FreeSans" font-size="10.00">LinearCellEmbedder&lt; TKSpace,</text>
<text text-anchor="middle" x="96" y="-13" font-family="FreeSans" font-size="10.00"> TImplicitFunctionDiff1, TEmbedder &gt;</text>
</a>
</g>
</g>
<!-- Node1&#45;&gt;Node0 -->
<g id="edge1" class="edge"><title>Node1&#45;&gt;Node0</title>
<path fill="none" stroke="midnightblue" d="M202.595,-26.5C211.045,-26.5 219.528,-26.5 227.843,-26.5"/>
<polygon fill="midnightblue" stroke="midnightblue" points="202.318,-23.0001 192.318,-26.5 202.318,-30.0001 202.318,-23.0001"/>
</g>
</g>
</svg>
