<?xml version="1.0" encoding="UTF-8" standalone="no"?>
<!DOCTYPE svg PUBLIC "-//W3C//DTD SVG 1.1//EN"
 "http://www.w3.org/Graphics/SVG/1.1/DTD/svg11.dtd">
<!-- Generated by graphviz version 2.38.0 (20140413.2041)
 -->
<!-- Title: DGtal::IntegerComputer&lt; TInteger &gt; Pages: 1 -->
<svg width="1284pt" height="237pt"
 viewBox="0.00 0.00 1284.00 236.50" xmlns="http://www.w3.org/2000/svg" xmlns:xlink="http://www.w3.org/1999/xlink">
<g id="graph0" class="graph" transform="scale(1 1) rotate(0) translate(4 232.5)">
<title>DGtal::IntegerComputer&lt; TInteger &gt;</title>
<polygon fill="white" stroke="none" points="-4,4 -4,-232.5 1280,-232.5 1280,4 -4,4"/>
<!-- Node2 -->
<g id="node1" class="node"><title>Node2</title>
<polygon fill="#bfbfbf" stroke="black" points="1145,-56.5 1145,-86.5 1276,-86.5 1276,-56.5 1145,-56.5"/>
<text text-anchor="start" x="1153" y="-74.5" font-family="FreeSans" font-size="10.00">DGtal::IntegerComputer</text>
<text text-anchor="middle" x="1210.5" y="-63.5" font-family="FreeSans" font-size="10.00">&lt; TInteger &gt;</text>
</g>
<!-- Node3 -->
<g id="node2" class="node"><title>Node3</title>
<polygon fill="white" stroke="#bfbfbf" points="565,-173 565,-192 689,-192 689,-173 565,-173"/>
<text text-anchor="middle" x="627" y="-180" font-family="FreeSans" font-size="10.00">std::vector&lt; Integer &gt;</text>
</g>
<!-- Node3&#45;&gt;Node2 -->
<g id="edge1" class="edge"><title>Node3&#45;&gt;Node2</title>
<path fill="none" stroke="#9a32cd" stroke-dasharray="5,2" d="M676.775,-194.156C769.803,-213.74 976.696,-244.387 1127,-171.5 1164.06,-153.529 1190.29,-110.151 1202.24,-86.8728"/>
<polygon fill="#9a32cd" stroke="#9a32cd" points="677.315,-190.692 666.802,-192.007 675.839,-197.535 677.315,-190.692"/>
<text text-anchor="middle" x="907" y="-220.5" font-family="FreeSans" font-size="10.00"> _m_bezout</text>
</g>
<!-- Node4 -->
<g id="node3" class="node"><title>Node4</title>
<g id="a_node3"><a xlink:title="STL class. ">
<polygon fill="white" stroke="#bfbfbf" points="276,-161 276,-180 371,-180 371,-161 276,-161"/>
<text text-anchor="middle" x="323.5" y="-168" font-family="FreeSans" font-size="10.00">std::vector&lt; T &gt;</text>
</a>
</g>
</g>
<!-- Node4&#45;&gt;Node3 -->
<g id="edge2" class="edge"><title>Node4&#45;&gt;Node3</title>
<path fill="none" stroke="orange" stroke-dasharray="5,2" d="M381.395,-172.764C433.72,-174.847 511.097,-177.927 564.756,-180.062"/>
<polygon fill="orange" stroke="orange" points="381.41,-169.262 371.279,-172.362 381.131,-176.257 381.41,-169.262"/>
<text text-anchor="middle" x="470.5" y="-181.5" font-family="FreeSans" font-size="10.00"> &lt; Integer &gt;</text>
</g>
<!-- Node5 -->
<g id="node4" class="node"><title>Node5</title>
<polygon fill="white" stroke="#bfbfbf" points="0,-135 0,-154 29,-154 29,-135 0,-135"/>
<text text-anchor="middle" x="14.5" y="-142" font-family="FreeSans" font-size="10.00">T</text>
</g>
<!-- Node5&#45;&gt;Node4 -->
<g id="edge3" class="edge"><title>Node5&#45;&gt;Node4</title>
<path fill="none" stroke="#9a32cd" stroke-dasharray="5,2" d="M39.3646,-146.521C90.0765,-150.816 209.348,-160.917 275.77,-166.542"/>
<polygon fill="#9a32cd" stroke="#9a32cd" points="39.3473,-143.007 29.0875,-145.651 38.7565,-149.982 39.3473,-143.007"/>
<text text-anchor="middle" x="71.5" y="-153.5" font-family="FreeSans" font-size="10.00"> elements</text>
</g>
<!-- Node8 -->
<g id="node7" class="node"><title>Node8</title>
<g id="a_node7"><a xlink:href="structDGtal_1_1NumberTraitsImpl.html" target="_top" xlink:title="Aim: The traits class for all models of Cinteger (implementation) ">
<polygon fill="white" stroke="black" points="114,-104.5 114,-134.5 248,-134.5 248,-104.5 114,-104.5"/>
<text text-anchor="start" x="122" y="-122.5" font-family="FreeSans" font-size="10.00">DGtal::NumberTraitsImpl</text>
<text text-anchor="middle" x="181" y="-111.5" font-family="FreeSans" font-size="10.00">&lt; T, Enable &gt;</text>
</a>
</g>
</g>
<!-- Node5&#45;&gt;Node8 -->
<g id="edge7" class="edge"><title>Node5&#45;&gt;Node8</title>
<path fill="none" stroke="#9a32cd" stroke-dasharray="5,2" d="M35.2238,-128.995C38.9545,-126.764 42.9595,-124.79 47,-123.5 68.1261,-116.755 92.1108,-114.507 113.839,-114.33"/>
<polygon fill="#9a32cd" stroke="#9a32cd" points="32.9497,-126.309 26.6511,-134.828 36.8877,-132.096 32.9497,-126.309"/>
<text text-anchor="middle" x="71.5" y="-137.5" font-family="FreeSans" font-size="10.00"> ONE</text>
<text text-anchor="middle" x="71.5" y="-126.5" font-family="FreeSans" font-size="10.00">ZERO</text>
</g>
<!-- Node6 -->
<g id="node5" class="node"><title>Node6</title>
<g id="a_node5"><a xlink:href="structDGtal_1_1NumberTraits.html" target="_top" xlink:title="DGtal::NumberTraits\l\&lt; TInteger \&gt;">
<polygon fill="white" stroke="black" points="962,-59.5 962,-89.5 1075,-89.5 1075,-59.5 962,-59.5"/>
<text text-anchor="start" x="970" y="-77.5" font-family="FreeSans" font-size="10.00">DGtal::NumberTraits</text>
<text text-anchor="middle" x="1018.5" y="-66.5" font-family="FreeSans" font-size="10.00">&lt; TInteger &gt;</text>
</a>
</g>
</g>
<!-- Node6&#45;&gt;Node2 -->
<g id="edge4" class="edge"><title>Node6&#45;&gt;Node2</title>
<path fill="none" stroke="#9a32cd" stroke-dasharray="5,2" d="M1085.3,-72.6687C1088.24,-72.6073 1091.15,-72.5506 1094,-72.5 1110.44,-72.2082 1128.2,-72.0007 1144.74,-71.8535"/>
<polygon fill="#9a32cd" stroke="#9a32cd" points="1085.15,-69.171 1075.23,-72.8933 1085.31,-76.1692 1085.15,-69.171"/>
<text text-anchor="middle" x="1110.5" y="-163.5" font-family="FreeSans" font-size="10.00"> _m_b</text>
<text text-anchor="middle" x="1110.5" y="-152.5" font-family="FreeSans" font-size="10.00">_m_c0</text>
<text text-anchor="middle" x="1110.5" y="-141.5" font-family="FreeSans" font-size="10.00">_m_c1</text>
<text text-anchor="middle" x="1110.5" y="-130.5" font-family="FreeSans" font-size="10.00">_m_c2</text>
<text text-anchor="middle" x="1110.5" y="-119.5" font-family="FreeSans" font-size="10.00">_m_q</text>
<text text-anchor="middle" x="1110.5" y="-108.5" font-family="FreeSans" font-size="10.00">_m_a0</text>
<text text-anchor="middle" x="1110.5" y="-97.5" font-family="FreeSans" font-size="10.00">_m_r</text>
<text text-anchor="middle" x="1110.5" y="-86.5" font-family="FreeSans" font-size="10.00">_m_a1</text>
<text text-anchor="middle" x="1110.5" y="-75.5" font-family="FreeSans" font-size="10.00">_m_a</text>
</g>
<!-- Node7 -->
<g id="node6" class="node"><title>Node7</title>
<g id="a_node6"><a xlink:href="structDGtal_1_1NumberTraitsImpl.html" target="_top" xlink:title="DGtal::NumberTraitsImpl\l\&lt; std::decay\&lt; TInteger\l \&gt;::type \&gt;">
<polygon fill="white" stroke="black" points="560,-96 560,-137 694,-137 694,-96 560,-96"/>
<text text-anchor="start" x="568" y="-125" font-family="FreeSans" font-size="10.00">DGtal::NumberTraitsImpl</text>
<text text-anchor="start" x="568" y="-114" font-family="FreeSans" font-size="10.00">&lt; std::decay&lt; TInteger</text>
<text text-anchor="middle" x="627" y="-103" font-family="FreeSans" font-size="10.00"> &gt;::type &gt;</text>
</a>
</g>
</g>
<!-- Node7&#45;&gt;Node6 -->
<g id="edge5" class="edge"><title>Node7&#45;&gt;Node6</title>
<path fill="none" stroke="midnightblue" d="M704.013,-112.403C767.984,-108.377 861.768,-101.121 943,-89.5 949.138,-88.6218 955.534,-87.5605 961.886,-86.4129"/>
<polygon fill="midnightblue" stroke="midnightblue" points="703.773,-108.911 694.008,-113.022 704.205,-115.898 703.773,-108.911"/>
</g>
<!-- Node8&#45;&gt;Node7 -->
<g id="edge6" class="edge"><title>Node8&#45;&gt;Node7</title>
<path fill="none" stroke="orange" stroke-dasharray="5,2" d="M258.574,-118.983C343.541,-118.409 479.258,-117.491 559.8,-116.947"/>
<polygon fill="orange" stroke="orange" points="258.447,-115.483 248.471,-119.051 258.495,-122.483 258.447,-115.483"/>
<text text-anchor="start" x="266" y="-133.5" font-family="FreeSans" font-size="10.00"> &lt; std::decay&lt; TInteger</text>
<text text-anchor="middle" x="323.5" y="-122.5" font-family="FreeSans" font-size="10.00"> &gt;::type &gt;</text>
</g>
<!-- Node10 -->
<g id="node9" class="node"><title>Node10</title>
<g id="a_node9"><a xlink:href="structDGtal_1_1NumberTraitsImpl.html" target="_top" xlink:title="DGtal::NumberTraitsImpl\l\&lt; std::decay\&lt; T \&gt;::type \&gt;">
<polygon fill="white" stroke="black" points="399,-59.5 399,-89.5 542,-89.5 542,-59.5 399,-59.5"/>
<text text-anchor="start" x="407" y="-77.5" font-family="FreeSans" font-size="10.00">DGtal::NumberTraitsImpl</text>
<text text-anchor="middle" x="470.5" y="-66.5" font-family="FreeSans" font-size="10.00">&lt; std::decay&lt; T &gt;::type &gt;</text>
</a>
</g>
</g>
<!-- Node8&#45;&gt;Node10 -->
<g id="edge10" class="edge"><title>Node8&#45;&gt;Node10</title>
<path fill="none" stroke="orange" stroke-dasharray="5,2" d="M212.203,-99.1765C227.598,-90.0183 247.036,-80.2156 266,-75.5 309.201,-64.7579 359.173,-64.3478 398.786,-66.7014"/>
<polygon fill="orange" stroke="orange" points="210.319,-96.2263 203.64,-104.451 213.99,-102.186 210.319,-96.2263"/>
<text text-anchor="start" x="274.5" y="-89.5" font-family="FreeSans" font-size="10.00"> &lt; std::decay&lt; T &gt;::</text>
<text text-anchor="middle" x="323.5" y="-78.5" font-family="FreeSans" font-size="10.00">type &gt;</text>
</g>
<!-- Node9 -->
<g id="node8" class="node"><title>Node9</title>
<g id="a_node8"><a xlink:href="structDGtal_1_1NumberTraits.html" target="_top" xlink:title="Aim: The traits class for all models of Cinteger. ">
<polygon fill="white" stroke="black" points="712,-65 712,-84 853,-84 853,-65 712,-65"/>
<text text-anchor="middle" x="782.5" y="-72" font-family="FreeSans" font-size="10.00">DGtal::NumberTraits&lt; T &gt;</text>
</a>
</g>
</g>
<!-- Node9&#45;&gt;Node6 -->
<g id="edge8" class="edge"><title>Node9&#45;&gt;Node6</title>
<path fill="none" stroke="orange" stroke-dasharray="5,2" d="M863.435,-74.5C895.849,-74.5 932.495,-74.5 961.913,-74.5"/>
<polygon fill="orange" stroke="orange" points="863.074,-71.0001 853.074,-74.5 863.074,-78.0001 863.074,-71.0001"/>
<text text-anchor="middle" x="907" y="-77.5" font-family="FreeSans" font-size="10.00"> &lt; TInteger &gt;</text>
</g>
<!-- Node10&#45;&gt;Node9 -->
<g id="edge9" class="edge"><title>Node10&#45;&gt;Node9</title>
<path fill="none" stroke="midnightblue" d="M552.269,-74.5C601.792,-74.5 664.549,-74.5 711.874,-74.5"/>
<polygon fill="midnightblue" stroke="midnightblue" points="552.232,-71.0001 542.232,-74.5 552.232,-78.0001 552.232,-71.0001"/>
</g>
<!-- Node11 -->
<g id="node10" class="node"><title>Node11</title>
<g id="a_node10"><a xlink:href="classDGtal_1_1SpaceND.html" target="_top" xlink:title="DGtal::SpaceND\&lt; 2,\l Integer \&gt;">
<polygon fill="white" stroke="black" points="961,-0.5 961,-30.5 1076,-30.5 1076,-0.5 961,-0.5"/>
<text text-anchor="start" x="969" y="-18.5" font-family="FreeSans" font-size="10.00">DGtal::SpaceND&lt; 2,</text>
<text text-anchor="middle" x="1018.5" y="-7.5" font-family="FreeSans" font-size="10.00"> Integer &gt;</text>
</a>
</g>
</g>
<!-- Node11&#45;&gt;Node2 -->
<g id="edge11" class="edge"><title>Node11&#45;&gt;Node2</title>
<path fill="none" stroke="#9a32cd" stroke-dasharray="5,2" d="M1086.01,-25.4282C1099.71,-28.153 1113.93,-31.4898 1127,-35.5 1144.93,-41.0006 1164.18,-49.2545 1179.57,-56.4719"/>
<polygon fill="#9a32cd" stroke="#9a32cd" points="1086.63,-21.9842 1076.16,-23.5514 1085.33,-28.8606 1086.63,-21.9842"/>
<text text-anchor="middle" x="1110.5" y="-60.5" font-family="FreeSans" font-size="10.00"> _m_v</text>
<text text-anchor="middle" x="1110.5" y="-49.5" font-family="FreeSans" font-size="10.00">_m_v0</text>
<text text-anchor="middle" x="1110.5" y="-38.5" font-family="FreeSans" font-size="10.00">_m_v1</text>
</g>
<!-- Node12 -->
<g id="node11" class="node"><title>Node12</title>
<g id="a_node11"><a xlink:href="classDGtal_1_1SpaceND.html" target="_top" xlink:title="Aim: SpaceND is a utility class that defines the fundamental structure of a Digital Space in ND...">
<polygon fill="white" stroke="black" points="719,-0.5 719,-30.5 846,-30.5 846,-0.5 719,-0.5"/>
<text text-anchor="start" x="727" y="-18.5" font-family="FreeSans" font-size="10.00">DGtal::SpaceND&lt; dim,</text>
<text text-anchor="middle" x="782.5" y="-7.5" font-family="FreeSans" font-size="10.00"> TInteger &gt;</text>
</a>
</g>
</g>
<!-- Node12&#45;&gt;Node11 -->
<g id="edge12" class="edge"><title>Node12&#45;&gt;Node11</title>
<path fill="none" stroke="orange" stroke-dasharray="5,2" d="M856.434,-15.5C890.019,-15.5 929.279,-15.5 960.629,-15.5"/>
<polygon fill="orange" stroke="orange" points="856.208,-12.0001 846.208,-15.5 856.208,-19.0001 856.208,-12.0001"/>
<text text-anchor="middle" x="907" y="-18.5" font-family="FreeSans" font-size="10.00"> &lt; 2, Integer &gt;</text>
</g>
</g>
</svg>
