<?xml version="1.0" encoding="UTF-8" standalone="no"?>
<!DOCTYPE svg PUBLIC "-//W3C//DTD SVG 1.1//EN"
 "http://www.w3.org/Graphics/SVG/1.1/DTD/svg11.dtd">
<!-- Generated by graphviz version 2.36.0 (20140111.2315)
 -->
<!-- Title: DGtal::HyperRectDomain&lt; TSpace &gt; Pages: 1 -->
<!--zoomable 254 -->
<svg id="main" version="1.1" xmlns="http://www.w3.org/2000/svg" xmlns:xlink="http://www.w3.org/1999/xlink" xml:space="preserve" onload="init(evt)">
<style type="text/css"><![CDATA[
.edge:hover path { stroke: red; }
.edge:hover polygon { stroke: red; fill: red; }
]]></style>
<script type="text/javascript"><![CDATA[
var edges = document.getElementsByTagName('g');
if (edges && edges.length) {
  for (var i=0;i<edges.length;i++) {
    if (edges[i].id.substr(0,4)=='edge') {
      edges[i].setAttribute('class','edge');
    }
  }
}
]]></script>
        <defs>
                <circle id="rim" cx="0" cy="0" r="7"/>
                <circle id="rim2" cx="0" cy="0" r="3.5"/>
                <g id="zoomPlus">
                        <use xlink:href="#rim" fill="#404040">
                                <set attributeName="fill" to="#808080" begin="zoomplus.mouseover" end="zoomplus.mouseout"/>
                        </use>
                        <path d="M-4,0h8M0,-4v8" fill="none" stroke="white" stroke-width="1.5" pointer-events="none"/>
                </g>
                <g id="zoomMin">
                        <use xlink:href="#rim" fill="#404040">
                                <set attributeName="fill" to="#808080" begin="zoomminus.mouseover" end="zoomminus.mouseout"/>
                        </use>
                        <path d="M-4,0h8" fill="none" stroke="white" stroke-width="1.5" pointer-events="none"/>
                </g>
                <g id="dirArrow">
                        <path fill="none" stroke="white" stroke-width="1.5" d="M0,-3.0v7 M-2.5,-0.5L0,-3.0L2.5,-0.5"/>
                </g>
               <g id="resetDef">
                       <use xlink:href="#rim2" fill="#404040">
                               <set attributeName="fill" to="#808080" begin="reset.mouseover" end="reset.mouseout"/>
                       </use>
               </g>
        </defs>

<script type="text/javascript">
var viewWidth = 936;
var viewHeight = 254;
var sectionId = 'dynsection-1';
</script>
<script xlink:href="svgpan.js"/>
<svg id="graph" class="graph">
<g id="viewport">
<title>DGtal::HyperRectDomain&lt; TSpace &gt;</title>
<polygon fill="white" stroke="none" points="-4,4 -4,-250 932,-250 932,4 -4,4"/>
<!-- Node2 -->
<g id="node1" class="node"><title>Node2</title>
<polygon fill="#bfbfbf" stroke="black" points="792,-64 792,-94 928,-94 928,-64 792,-64"/>
<text text-anchor="start" x="800" y="-82" font-family="FreeSans" font-size="10.00">DGtal::HyperRectDomain</text>
<text text-anchor="middle" x="860" y="-71" font-family="FreeSans" font-size="10.00">&lt; TSpace &gt;</text>
</g>
<!-- Node3 -->
<g id="node2" class="node"><title>Node3</title>
<g id="a_node2"><a xlink:href="classDGtal_1_1HyperRectDomain__Iterator.html" target="_top" xlink:title="Iterator for HyperRectDomain. ">
<polygon fill="white" stroke="black" points="309,-139 309,-169 445,-169 445,-139 309,-139"/>
<text text-anchor="start" x="317" y="-157" font-family="FreeSans" font-size="10.00">DGtal::HyperRectDomain</text>
<text text-anchor="middle" x="377" y="-146" font-family="FreeSans" font-size="10.00">_Iterator&lt; TPoint &gt;</text>
</a>
</g>
</g>
<!-- Node3&#45;&gt;Node2 -->
<g id="edge1" class="edge"><title>Node3&#45;&gt;Node2</title>
<path fill="none" stroke="#9a32cd" stroke-dasharray="5,2" d="M455.322,-142.852C535.205,-131.202 663.449,-112.127 774,-94 779.767,-93.0544 785.75,-92.0487 791.749,-91.0233"/>
<polygon fill="#9a32cd" stroke="#9a32cd" points="454.734,-139.401 445.343,-144.305 455.743,-146.327 454.734,-139.401"/>
<text text-anchor="middle" x="626" y="-141" font-family="FreeSans" font-size="10.00"> myIteratorEnd</text>
<text text-anchor="middle" x="626" y="-130" font-family="FreeSans" font-size="10.00">myIteratorBegin</text>
</g>
<!-- Node4 -->
<g id="node3" class="node"><title>Node4</title>
<polygon fill="white" stroke="#bfbfbf" points="0,-150 0,-246 194,-246 194,-150 0,-150"/>
<text text-anchor="start" x="8" y="-234" font-family="FreeSans" font-size="10.00">boost::iterator_facade</text>
<text text-anchor="start" x="8" y="-223" font-family="FreeSans" font-size="10.00">&lt; HyperRectDomain_Iterator</text>
<text text-anchor="start" x="8" y="-212" font-family="FreeSans" font-size="10.00">&lt; TPoint &gt;, TPoint const,</text>
<text text-anchor="start" x="8" y="-201" font-family="FreeSans" font-size="10.00"> std::random_access_iterator</text>
<text text-anchor="start" x="8" y="-190" font-family="FreeSans" font-size="10.00">_tag, TPoint const &amp;, std::conditional</text>
<text text-anchor="start" x="8" y="-179" font-family="FreeSans" font-size="10.00">&lt; std::is_same&lt; TPoint::Component,</text>
<text text-anchor="start" x="8" y="-168" font-family="FreeSans" font-size="10.00"> BigInteger &gt;::value, BigInteger, std</text>
<text text-anchor="middle" x="97" y="-157" font-family="FreeSans" font-size="10.00">::ptrdiff_t &gt;::type &gt;</text>
</g>
<!-- Node4&#45;&gt;Node3 -->
<g id="edge2" class="edge"><title>Node4&#45;&gt;Node3</title>
<path fill="none" stroke="midnightblue" d="M204.38,-190.141C232.368,-187.196 262.437,-183.243 290,-178 302.335,-175.654 315.474,-172.39 327.673,-169.023"/>
<polygon fill="midnightblue" stroke="midnightblue" points="203.765,-186.686 194.171,-191.181 204.474,-193.65 203.765,-186.686"/>
</g>
<!-- Node5 -->
<g id="node4" class="node"><title>Node5</title>
<polygon fill="white" stroke="#bfbfbf" points="74,-103.5 74,-122.5 120,-122.5 120,-103.5 74,-103.5"/>
<text text-anchor="middle" x="97" y="-110.5" font-family="FreeSans" font-size="10.00">TPoint</text>
</g>
<!-- Node5&#45;&gt;Node3 -->
<g id="edge3" class="edge"><title>Node5&#45;&gt;Node3</title>
<path fill="none" stroke="#9a32cd" stroke-dasharray="5,2" d="M130.286,-117.762C173.748,-124.171 252.138,-135.733 308.707,-144.076"/>
<polygon fill="#9a32cd" stroke="#9a32cd" points="130.684,-114.282 120.28,-116.286 129.662,-121.208 130.684,-114.282"/>
<text text-anchor="middle" x="251" y="-166" font-family="FreeSans" font-size="10.00"> mylower</text>
<text text-anchor="middle" x="251" y="-155" font-family="FreeSans" font-size="10.00">myupper</text>
<text text-anchor="middle" x="251" y="-144" font-family="FreeSans" font-size="10.00">myPoint</text>
</g>
<!-- Node9 -->
<g id="node8" class="node"><title>Node9</title>
<g id="a_node8"><a xlink:href="structDGtal_1_1functors_1_1IsWithinPointPredicate.html" target="_top" xlink:title="Aim: The predicate returns true when the point is within the given bounds. ">
<polygon fill="white" stroke="black" points="308.5,-90 308.5,-120 445.5,-120 445.5,-90 308.5,-90"/>
<text text-anchor="start" x="316.5" y="-108" font-family="FreeSans" font-size="10.00">DGtal::functors::IsWithin</text>
<text text-anchor="middle" x="377" y="-97" font-family="FreeSans" font-size="10.00">PointPredicate&lt; TPoint &gt;</text>
</a>
</g>
</g>
<!-- Node5&#45;&gt;Node9 -->
<g id="edge9" class="edge"><title>Node5&#45;&gt;Node9</title>
<path fill="none" stroke="#9a32cd" stroke-dasharray="5,2" d="M130.415,-110.532C153.217,-108.913 184.456,-106.929 212,-106 243.587,-104.935 278.614,-104.605 308.161,-104.574"/>
<polygon fill="#9a32cd" stroke="#9a32cd" points="129.984,-107.054 120.264,-111.268 130.491,-114.035 129.984,-107.054"/>
<text text-anchor="middle" x="251" y="-120" font-family="FreeSans" font-size="10.00"> myLowerBound</text>
<text text-anchor="middle" x="251" y="-109" font-family="FreeSans" font-size="10.00">myUpperBound</text>
</g>
<!-- Node6 -->
<g id="node5" class="node"><title>Node6</title>
<g id="a_node5"><a xlink:href="structDGtal_1_1functors_1_1IsWithinPointPredicate.html" target="_top" xlink:title="DGtal::functors::IsWithin\lPointPredicate\&lt; Point \&gt;">
<polygon fill="white" stroke="black" points="560,-64 560,-94 692,-94 692,-64 560,-64"/>
<text text-anchor="start" x="568" y="-82" font-family="FreeSans" font-size="10.00">DGtal::functors::IsWithin</text>
<text text-anchor="middle" x="626" y="-71" font-family="FreeSans" font-size="10.00">PointPredicate&lt; Point &gt;</text>
</a>
</g>
</g>
<!-- Node6&#45;&gt;Node2 -->
<g id="edge4" class="edge"><title>Node6&#45;&gt;Node2</title>
<path fill="none" stroke="#9a32cd" stroke-dasharray="5,2" d="M702.269,-79C731.108,-79 763.795,-79 791.828,-79"/>
<polygon fill="#9a32cd" stroke="#9a32cd" points="702.242,-75.5001 692.242,-79 702.242,-82.5001 702.242,-75.5001"/>
<text text-anchor="middle" x="742" y="-82" font-family="FreeSans" font-size="10.00"> myPredicate</text>
</g>
<!-- Node7 -->
<g id="node6" class="node"><title>Node7</title>
<g id="a_node6"><a xlink:href="classDGtal_1_1PointVector.html" target="_top" xlink:title="Aim: Implements basic operations that will be used in Point and Vector classes. ">
<polygon fill="white" stroke="black" points="314,-0.5 314,-41.5 440,-41.5 440,-0.5 314,-0.5"/>
<text text-anchor="start" x="322" y="-29.5" font-family="FreeSans" font-size="10.00">DGtal::PointVector</text>
<text text-anchor="start" x="322" y="-18.5" font-family="FreeSans" font-size="10.00">&lt; dim, TEuclideanRing,</text>
<text text-anchor="middle" x="377" y="-7.5" font-family="FreeSans" font-size="10.00"> TContainer &gt;</text>
</a>
</g>
</g>
<!-- Node7&#45;&gt;Node2 -->
<g id="edge10" class="edge"><title>Node7&#45;&gt;Node2</title>
<path fill="none" stroke="#9a32cd" stroke-dasharray="5,2" d="M450.456,-18.6517C514.399,-17.7382 609.931,-19.2034 692,-32 735.152,-38.7284 782.997,-52.9132 816.375,-63.949"/>
<polygon fill="#9a32cd" stroke="#9a32cd" points="450.019,-15.1584 440.078,-18.8248 450.135,-22.1574 450.019,-15.1584"/>
<text text-anchor="middle" x="626" y="-46" font-family="FreeSans" font-size="10.00"> myLowerBound</text>
<text text-anchor="middle" x="626" y="-35" font-family="FreeSans" font-size="10.00">myUpperBound</text>
</g>
<!-- Node7&#45;&gt;Node6 -->
<g id="edge5" class="edge"><title>Node7&#45;&gt;Node6</title>
<path fill="none" stroke="#9a32cd" stroke-dasharray="5,2" d="M450.171,-37.947C485.191,-46.1704 526.91,-55.9667 560.81,-63.9271"/>
<polygon fill="#9a32cd" stroke="#9a32cd" points="450.545,-34.4397 440.01,-35.561 448.945,-41.2544 450.545,-34.4397"/>
<text text-anchor="middle" x="503" y="-73" font-family="FreeSans" font-size="10.00"> myLowerBound</text>
<text text-anchor="middle" x="503" y="-62" font-family="FreeSans" font-size="10.00">myUpperBound</text>
</g>
<!-- Node7&#45;&gt;Node7 -->
<g id="edge7" class="edge"><title>Node7&#45;&gt;Node7</title>
<path fill="none" stroke="#9a32cd" stroke-dasharray="5,2" d="M355.711,-51.6009C359.106,-56.0235 366.203,-59 377,-59 394.719,-59 402.471,-50.9844 400.256,-41.7163"/>
<polygon fill="#9a32cd" stroke="#9a32cd" points="359.129,-50.8409 353.744,-41.7163 352.263,-52.2071 359.129,-50.8409"/>
<text text-anchor="middle" x="377" y="-62" font-family="FreeSans" font-size="10.00"> zero</text>
</g>
<!-- Node8 -->
<g id="node7" class="node"><title>Node8</title>
<polygon fill="white" stroke="#bfbfbf" points="63,-11.5 63,-30.5 131,-30.5 131,-11.5 63,-11.5"/>
<text text-anchor="middle" x="97" y="-18.5" font-family="FreeSans" font-size="10.00">TContainer</text>
</g>
<!-- Node8&#45;&gt;Node7 -->
<g id="edge6" class="edge"><title>Node8&#45;&gt;Node7</title>
<path fill="none" stroke="#9a32cd" stroke-dasharray="5,2" d="M141.273,-21C187.596,-21 261.499,-21 313.996,-21"/>
<polygon fill="#9a32cd" stroke="#9a32cd" points="141.257,-17.5001 131.257,-21 141.257,-24.5001 141.257,-17.5001"/>
<text text-anchor="middle" x="251" y="-24" font-family="FreeSans" font-size="10.00"> myArray</text>
</g>
<!-- Node9&#45;&gt;Node6 -->
<g id="edge8" class="edge"><title>Node9&#45;&gt;Node6</title>
<path fill="none" stroke="orange" stroke-dasharray="5,2" d="M456.014,-96.788C489.438,-93.2697 528.028,-89.2075 559.886,-85.8541"/>
<polygon fill="orange" stroke="orange" points="455.399,-93.3333 445.821,-97.861 456.132,-100.295 455.399,-93.3333"/>
<text text-anchor="middle" x="503" y="-99" font-family="FreeSans" font-size="10.00"> &lt; Point &gt;</text>
</g>
</g>
</svg>
        <g id="navigator" transform="translate(0 0)" fill="#404254">
                <rect fill="#f2f5e9" fill-opacity="0.5" stroke="#606060" stroke-width=".5" x="0" y="0" width="60" height="60"/>
                <use id="zoomplus" xlink:href="#zoomPlus" x="17" y="9" onmousedown="handleZoom(evt,'in')"/>
                <use id="zoomminus" xlink:href="#zoomMin" x="42" y="9" onmousedown="handleZoom(evt,'out')"/>
                <use id="reset" xlink:href="#resetDef" x="30" y="36" onmousedown="handleReset()"/>
                <g id="arrowUp" xlink:href="#dirArrow" transform="translate(30 24)" onmousedown="handlePan(0,-1)">
                  <use xlink:href="#rim" fill="#404040">
                        <set attributeName="fill" to="#808080" begin="arrowUp.mouseover" end="arrowUp.mouseout"/>
                  </use>
                  <path fill="none" stroke="white" stroke-width="1.5" d="M0,-3.0v7 M-2.5,-0.5L0,-3.0L2.5,-0.5"/>
                </g>
                <g id="arrowRight" xlink:href="#dirArrow" transform="rotate(90) translate(36 -43)" onmousedown="handlePan(1,0)">
                  <use xlink:href="#rim" fill="#404040">
                        <set attributeName="fill" to="#808080" begin="arrowRight.mouseover" end="arrowRight.mouseout"/>
                  </use>
                  <path fill="none" stroke="white" stroke-width="1.5" d="M0,-3.0v7 M-2.5,-0.5L0,-3.0L2.5,-0.5"/>
                </g>
                <g id="arrowDown" xlink:href="#dirArrow" transform="rotate(180) translate(-30 -48)" onmousedown="handlePan(0,1)">
                  <use xlink:href="#rim" fill="#404040">
                        <set attributeName="fill" to="#808080" begin="arrowDown.mouseover" end="arrowDown.mouseout"/>
                  </use>
                  <path fill="none" stroke="white" stroke-width="1.5" d="M0,-3.0v7 M-2.5,-0.5L0,-3.0L2.5,-0.5"/>
                </g>
                <g id="arrowLeft" xlink:href="#dirArrow" transform="rotate(270) translate(-36 17)" onmousedown="handlePan(-1,0)">
                  <use xlink:href="#rim" fill="#404040">
                        <set attributeName="fill" to="#808080" begin="arrowLeft.mouseover" end="arrowLeft.mouseout"/>
                  </use>
                  <path fill="none" stroke="white" stroke-width="1.5" d="M0,-3.0v7 M-2.5,-0.5L0,-3.0L2.5,-0.5"/>
                </g>
        </g>
        <svg viewBox="0 0 15 15" width="100%" height="30px" preserveAspectRatio="xMaxYMin meet">
         <g id="arrow_out" transform="scale(0.3 0.3)">
          <a xlink:href="classDGtal_1_1HyperRectDomain__coll__graph_org.svg" target="_base">
           <rect id="button" ry="5" rx="5" y="6" x="6" height="38" width="38"
                fill="#f2f5e9" fill-opacity="0.5" stroke="#606060" stroke-width="1.0"/>
           <path id="arrow"
             d="M 11.500037,31.436501 C 11.940474,20.09759 22.043105,11.32322 32.158766,21.979434 L 37.068811,17.246167 C 37.068811,17.246167 37.088388,32 37.088388,32 L 22.160133,31.978069 C 22.160133,31.978069 26.997745,27.140456 26.997745,27.140456 C 18.528582,18.264221 13.291696,25.230495 11.500037,31.436501 z"
             style="fill:#404040;"/>
          </a>
         </g>
        </svg>
</svg>
