<?xml version="1.0" encoding="UTF-8" standalone="no"?>
<!DOCTYPE svg PUBLIC "-//W3C//DTD SVG 1.1//EN"
 "http://www.w3.org/Graphics/SVG/1.1/DTD/svg11.dtd">
<!-- Generated by graphviz version 2.38.0 (20140413.2041)
 -->
<!-- Title: DGtal::PointVector&lt; dim, TEuclideanRing, TContainer &gt; Pages: 1 -->
<svg width="399pt" height="343pt"
 viewBox="0.00 0.00 399.00 343.00" xmlns="http://www.w3.org/2000/svg" xmlns:xlink="http://www.w3.org/1999/xlink">
<g id="graph0" class="graph" transform="scale(1 1) rotate(0) translate(4 339)">
<title>DGtal::PointVector&lt; dim, TEuclideanRing, TContainer &gt;</title>
<polygon fill="white" stroke="none" points="-4,4 -4,-339 395,-339 395,4 -4,4"/>
<!-- Node0 -->
<g id="node1" class="node"><title>Node0</title>
<polygon fill="#bfbfbf" stroke="black" points="0,-142 0,-183 126,-183 126,-142 0,-142"/>
<text text-anchor="start" x="8" y="-171" font-family="FreeSans" font-size="10.00">DGtal::PointVector</text>
<text text-anchor="start" x="8" y="-160" font-family="FreeSans" font-size="10.00">&lt; dim, TEuclideanRing,</text>
<text text-anchor="middle" x="63" y="-149" font-family="FreeSans" font-size="10.00"> TContainer &gt;</text>
</g>
<!-- Node1 -->
<g id="node2" class="node"><title>Node1</title>
<g id="a_node2"><a xlink:href="classDGtal_1_1PointVector.html" target="_top" xlink:title="DGtal::PointVector\l\&lt; 3, InternalInteger \&gt;">
<polygon fill="white" stroke="black" points="270,-304.5 270,-334.5 391,-334.5 391,-304.5 270,-304.5"/>
<text text-anchor="start" x="278" y="-322.5" font-family="FreeSans" font-size="10.00">DGtal::PointVector</text>
<text text-anchor="middle" x="330.5" y="-311.5" font-family="FreeSans" font-size="10.00">&lt; 3, InternalInteger &gt;</text>
</a>
</g>
</g>
<!-- Node0&#45;&gt;Node1 -->
<g id="edge1" class="edge"><title>Node0&#45;&gt;Node1</title>
<path fill="none" stroke="orange" stroke-dasharray="5,2" d="M77.8461,-192.605C91.1925,-218.25 113.804,-254.095 144,-274.5 181.205,-299.641 230.994,-310.775 269.622,-315.686"/>
<polygon fill="orange" stroke="orange" points="80.8035,-190.695 73.1881,-183.329 74.548,-193.837 80.8035,-190.695"/>
<text text-anchor="middle" x="198" y="-315.5" font-family="FreeSans" font-size="10.00"> &lt; 3, InternalInteger &gt;</text>
</g>
<!-- Node2 -->
<g id="node3" class="node"><title>Node2</title>
<g id="a_node3"><a xlink:href="classDGtal_1_1PointVector.html" target="_top" xlink:title="DGtal::PointVector\l\&lt; 2, Integer \&gt;">
<polygon fill="white" stroke="black" points="278.5,-255.5 278.5,-285.5 382.5,-285.5 382.5,-255.5 278.5,-255.5"/>
<text text-anchor="start" x="286.5" y="-273.5" font-family="FreeSans" font-size="10.00">DGtal::PointVector</text>
<text text-anchor="middle" x="330.5" y="-262.5" font-family="FreeSans" font-size="10.00">&lt; 2, Integer &gt;</text>
</a>
</g>
</g>
<!-- Node0&#45;&gt;Node2 -->
<g id="edge2" class="edge"><title>Node0&#45;&gt;Node2</title>
<path fill="none" stroke="orange" stroke-dasharray="5,2" d="M92.1875,-190.181C106.626,-202.952 125.116,-217.289 144,-226.5 186.689,-247.322 239.806,-258.626 278.247,-264.54"/>
<polygon fill="orange" stroke="orange" points="94.3598,-187.425 84.6058,-183.289 89.6514,-192.605 94.3598,-187.425"/>
<text text-anchor="middle" x="198" y="-262.5" font-family="FreeSans" font-size="10.00"> &lt; 2, Integer &gt;</text>
</g>
<!-- Node3 -->
<g id="node4" class="node"><title>Node3</title>
<g id="a_node4"><a xlink:href="classDGtal_1_1PointVector.html" target="_top" xlink:title="DGtal::PointVector\l\&lt; Space::dimension,\l Real \&gt;">
<polygon fill="white" stroke="black" points="272.5,-196 272.5,-237 388.5,-237 388.5,-196 272.5,-196"/>
<text text-anchor="start" x="280.5" y="-225" font-family="FreeSans" font-size="10.00">DGtal::PointVector</text>
<text text-anchor="start" x="280.5" y="-214" font-family="FreeSans" font-size="10.00">&lt; Space::dimension,</text>
<text text-anchor="middle" x="330.5" y="-203" font-family="FreeSans" font-size="10.00"> Real &gt;</text>
</a>
</g>
</g>
<!-- Node0&#45;&gt;Node3 -->
<g id="edge3" class="edge"><title>Node0&#45;&gt;Node3</title>
<path fill="none" stroke="orange" stroke-dasharray="5,2" d="M136.306,-177.206C179.029,-185.896 232.373,-196.745 272.176,-204.841"/>
<polygon fill="orange" stroke="orange" points="136.745,-173.724 126.248,-175.161 135.35,-180.584 136.745,-173.724"/>
<text text-anchor="start" x="146.5" y="-214.5" font-family="FreeSans" font-size="10.00"> &lt; Space::dimension,</text>
<text text-anchor="middle" x="198" y="-203.5" font-family="FreeSans" font-size="10.00"> Real &gt;</text>
</g>
<!-- Node4 -->
<g id="node5" class="node"><title>Node4</title>
<g id="a_node5"><a xlink:href="classDGtal_1_1PointVector.html" target="_top" xlink:title="DGtal::PointVector\l\&lt; 3, InternalScalar \&gt;">
<polygon fill="white" stroke="black" points="272,-147.5 272,-177.5 389,-177.5 389,-147.5 272,-147.5"/>
<text text-anchor="start" x="280" y="-165.5" font-family="FreeSans" font-size="10.00">DGtal::PointVector</text>
<text text-anchor="middle" x="330.5" y="-154.5" font-family="FreeSans" font-size="10.00">&lt; 3, InternalScalar &gt;</text>
</a>
</g>
</g>
<!-- Node0&#45;&gt;Node4 -->
<g id="edge4" class="edge"><title>Node0&#45;&gt;Node4</title>
<path fill="none" stroke="orange" stroke-dasharray="5,2" d="M136.27,-162.5C178.84,-162.5 231.962,-162.5 271.728,-162.5"/>
<polygon fill="orange" stroke="orange" points="136.248,-159 126.248,-162.5 136.248,-166 136.248,-159"/>
<text text-anchor="middle" x="198" y="-165.5" font-family="FreeSans" font-size="10.00"> &lt; 3, InternalScalar &gt;</text>
</g>
<!-- Node5 -->
<g id="node6" class="node"><title>Node5</title>
<g id="a_node6"><a xlink:href="classDGtal_1_1PointVector.html" target="_top" xlink:title="DGtal::PointVector\l\&lt; 2, double \&gt;">
<polygon fill="white" stroke="black" points="278.5,-98.5 278.5,-128.5 382.5,-128.5 382.5,-98.5 278.5,-98.5"/>
<text text-anchor="start" x="286.5" y="-116.5" font-family="FreeSans" font-size="10.00">DGtal::PointVector</text>
<text text-anchor="middle" x="330.5" y="-105.5" font-family="FreeSans" font-size="10.00">&lt; 2, double &gt;</text>
</a>
</g>
</g>
<!-- Node0&#45;&gt;Node5 -->
<g id="edge5" class="edge"><title>Node0&#45;&gt;Node5</title>
<path fill="none" stroke="orange" stroke-dasharray="5,2" d="M135.942,-148.997C138.663,-148.49 141.356,-147.99 144,-147.5 189.392,-139.085 241.055,-129.625 278.311,-122.824"/>
<polygon fill="orange" stroke="orange" points="135.203,-145.574 126.013,-150.847 136.485,-152.456 135.203,-145.574"/>
<text text-anchor="middle" x="198" y="-150.5" font-family="FreeSans" font-size="10.00"> &lt; 2, double &gt;</text>
</g>
<!-- Node6 -->
<g id="node7" class="node"><title>Node6</title>
<g id="a_node7"><a xlink:href="classDGtal_1_1PointVector.html" target="_top" xlink:title="DGtal::PointVector\l\&lt; 3, double \&gt;">
<polygon fill="white" stroke="black" points="278.5,-49.5 278.5,-79.5 382.5,-79.5 382.5,-49.5 278.5,-49.5"/>
<text text-anchor="start" x="286.5" y="-67.5" font-family="FreeSans" font-size="10.00">DGtal::PointVector</text>
<text text-anchor="middle" x="330.5" y="-56.5" font-family="FreeSans" font-size="10.00">&lt; 3, double &gt;</text>
</a>
</g>
</g>
<!-- Node0&#45;&gt;Node6 -->
<g id="edge6" class="edge"><title>Node0&#45;&gt;Node6</title>
<path fill="none" stroke="orange" stroke-dasharray="5,2" d="M100.449,-136.44C113.684,-127.877 129.064,-118.919 144,-112.5 187.552,-93.7828 240.095,-81.0304 278.125,-73.4018"/>
<polygon fill="orange" stroke="orange" points="98.4911,-133.539 92.0878,-141.98 102.357,-139.374 98.4911,-133.539"/>
<text text-anchor="middle" x="198" y="-115.5" font-family="FreeSans" font-size="10.00"> &lt; 3, double &gt;</text>
</g>
<!-- Node7 -->
<g id="node8" class="node"><title>Node7</title>
<g id="a_node8"><a xlink:href="classDGtal_1_1PointVector.html" target="_top" xlink:title="DGtal::PointVector\l\&lt; dim, Integer \&gt;">
<polygon fill="white" stroke="black" points="278.5,-0.5 278.5,-30.5 382.5,-30.5 382.5,-0.5 278.5,-0.5"/>
<text text-anchor="start" x="286.5" y="-18.5" font-family="FreeSans" font-size="10.00">DGtal::PointVector</text>
<text text-anchor="middle" x="330.5" y="-7.5" font-family="FreeSans" font-size="10.00">&lt; dim, Integer &gt;</text>
</a>
</g>
</g>
<!-- Node0&#45;&gt;Node7 -->
<g id="edge7" class="edge"><title>Node0&#45;&gt;Node7</title>
<path fill="none" stroke="orange" stroke-dasharray="5,2" d="M80.7157,-133.339C94.8434,-111.256 117.061,-81.8515 144,-64.5 184.745,-38.2562 239.097,-26.0157 278.426,-20.3382"/>
<polygon fill="orange" stroke="orange" points="77.6411,-131.656 75.3458,-141.999 83.5903,-135.345 77.6411,-131.656"/>
<text text-anchor="middle" x="198" y="-67.5" font-family="FreeSans" font-size="10.00"> &lt; dim, Integer &gt;</text>
</g>
</g>
</svg>
