<?xml version="1.0" encoding="UTF-8" standalone="no"?>
<!DOCTYPE svg PUBLIC "-//W3C//DTD SVG 1.1//EN"
 "http://www.w3.org/Graphics/SVG/1.1/DTD/svg11.dtd">
<!-- Generated by graphviz version 2.38.0 (20140413.2041)
 -->
<!-- Title: DGtal::HyperRectDomain_Iterator&lt; TPoint &gt; Pages: 1 -->
<svg width="417pt" height="144pt"
 viewBox="0.00 0.00 417.00 143.50" xmlns="http://www.w3.org/2000/svg" xmlns:xlink="http://www.w3.org/1999/xlink">
<g id="graph0" class="graph" transform="scale(1 1) rotate(0) translate(4 139.5)">
<title>DGtal::HyperRectDomain_Iterator&lt; TPoint &gt;</title>
<polygon fill="white" stroke="none" points="-4,4 -4,-139.5 413,-139.5 413,4 -4,4"/>
<!-- Node2 -->
<g id="node1" class="node"><title>Node2</title>
<polygon fill="#bfbfbf" stroke="black" points="273,-33 273,-63 409,-63 409,-33 273,-33"/>
<text text-anchor="start" x="281" y="-51" font-family="FreeSans" font-size="10.00">DGtal::HyperRectDomain</text>
<text text-anchor="middle" x="341" y="-40" font-family="FreeSans" font-size="10.00">_Iterator&lt; TPoint &gt;</text>
</g>
<!-- Node3 -->
<g id="node2" class="node"><title>Node3</title>
<polygon fill="white" stroke="#bfbfbf" points="0,-39 0,-135 194,-135 194,-39 0,-39"/>
<text text-anchor="start" x="8" y="-123" font-family="FreeSans" font-size="10.00">boost::iterator_facade</text>
<text text-anchor="start" x="8" y="-112" font-family="FreeSans" font-size="10.00">&lt; HyperRectDomain_Iterator</text>
<text text-anchor="start" x="8" y="-101" font-family="FreeSans" font-size="10.00">&lt; TPoint &gt;, TPoint const,</text>
<text text-anchor="start" x="8" y="-90" font-family="FreeSans" font-size="10.00"> std::random_access_iterator</text>
<text text-anchor="start" x="8" y="-79" font-family="FreeSans" font-size="10.00">_tag, TPoint const &amp;, std::conditional</text>
<text text-anchor="start" x="8" y="-68" font-family="FreeSans" font-size="10.00">&lt; std::is_same&lt; TPoint::Component,</text>
<text text-anchor="start" x="8" y="-57" font-family="FreeSans" font-size="10.00"> BigInteger &gt;::value, BigInteger, std</text>
<text text-anchor="middle" x="97" y="-46" font-family="FreeSans" font-size="10.00">::ptrdiff_t &gt;::type &gt;</text>
</g>
<!-- Node3&#45;&gt;Node2 -->
<g id="edge1" class="edge"><title>Node3&#45;&gt;Node2</title>
<path fill="none" stroke="midnightblue" d="M204.263,-79.4651C221.302,-77.5059 238.689,-75.0561 255,-72 267.208,-69.7126 280.2,-66.47 292.258,-63.1056"/>
<polygon fill="midnightblue" stroke="midnightblue" points="203.838,-75.9906 194.281,-80.5629 204.604,-82.9487 203.838,-75.9906"/>
</g>
<!-- Node4 -->
<g id="node3" class="node"><title>Node4</title>
<polygon fill="white" stroke="#bfbfbf" points="74,-0.5 74,-19.5 120,-19.5 120,-0.5 74,-0.5"/>
<text text-anchor="middle" x="97" y="-7.5" font-family="FreeSans" font-size="10.00">TPoint</text>
</g>
<!-- Node4&#45;&gt;Node2 -->
<g id="edge2" class="edge"><title>Node4&#45;&gt;Node2</title>
<path fill="none" stroke="#9a32cd" stroke-dasharray="5,2" d="M130.348,-15.0795C166.612,-20.7738 226.416,-30.1646 272.891,-37.4622"/>
<polygon fill="#9a32cd" stroke="#9a32cd" points="130.755,-11.6005 120.333,-13.5068 129.669,-18.5158 130.755,-11.6005"/>
<text text-anchor="middle" x="233.5" y="-60" font-family="FreeSans" font-size="10.00"> mylower</text>
<text text-anchor="middle" x="233.5" y="-49" font-family="FreeSans" font-size="10.00">myupper</text>
<text text-anchor="middle" x="233.5" y="-38" font-family="FreeSans" font-size="10.00">myPoint</text>
</g>
</g>
</svg>
