<?xml version="1.0" encoding="UTF-8" standalone="no"?>
<!DOCTYPE svg PUBLIC "-//W3C//DTD SVG 1.1//EN"
 "http://www.w3.org/Graphics/SVG/1.1/DTD/svg11.dtd">
<!-- Generated by graphviz version 2.38.0 (20140413.2041)
 -->
<!-- Title: DGtal::TangentVectorFromDSSEstimator&lt; DSSComputer &gt; Pages: 1 -->
<svg width="778pt" height="68pt"
 viewBox="0.00 0.00 778.00 67.50" xmlns="http://www.w3.org/2000/svg" xmlns:xlink="http://www.w3.org/1999/xlink">
<g id="graph0" class="graph" transform="scale(1 1) rotate(0) translate(4 63.5)">
<title>DGtal::TangentVectorFromDSSEstimator&lt; DSSComputer &gt;</title>
<polygon fill="white" stroke="none" points="-4,4 -4,-63.5 774,-63.5 774,4 -4,4"/>
<!-- Node0 -->
<g id="node1" class="node"><title>Node0</title>
<polygon fill="#bfbfbf" stroke="black" points="594,-11.5 594,-41.5 770,-41.5 770,-11.5 594,-11.5"/>
<text text-anchor="start" x="602" y="-29.5" font-family="FreeSans" font-size="10.00">DGtal::TangentVectorFrom</text>
<text text-anchor="middle" x="682" y="-18.5" font-family="FreeSans" font-size="10.00">DSSEstimator&lt; DSSComputer &gt;</text>
</g>
<!-- Node1 -->
<g id="node2" class="node"><title>Node1</title>
<g id="a_node2"><a xlink:href="classDGtal_1_1detail_1_1PosIndepScaleIndepSCEstimator.html" target="_top" xlink:title="DGtal::detail::PosIndepScale\lIndepSCEstimator\&lt; DSSComputer,\l detail::TangentVectorFromDSS\l\&lt; DSSComputer \&gt; \&gt;">
<polygon fill="white" stroke="black" points="371,-0.5 371,-52.5 557,-52.5 557,-0.5 371,-0.5"/>
<text text-anchor="start" x="379" y="-40.5" font-family="FreeSans" font-size="10.00">DGtal::detail::PosIndepScale</text>
<text text-anchor="start" x="379" y="-29.5" font-family="FreeSans" font-size="10.00">IndepSCEstimator&lt; DSSComputer,</text>
<text text-anchor="start" x="379" y="-18.5" font-family="FreeSans" font-size="10.00"> detail::TangentVectorFromDSS</text>
<text text-anchor="middle" x="464" y="-7.5" font-family="FreeSans" font-size="10.00">&lt; DSSComputer &gt; &gt;</text>
</a>
</g>
</g>
<!-- Node1&#45;&gt;Node0 -->
<g id="edge1" class="edge"><title>Node1&#45;&gt;Node0</title>
<path fill="none" stroke="midnightblue" d="M567.249,-26.5C576.153,-26.5 585.11,-26.5 593.877,-26.5"/>
<polygon fill="midnightblue" stroke="midnightblue" points="567.23,-23.0001 557.23,-26.5 567.23,-30.0001 567.23,-23.0001"/>
</g>
<!-- Node2 -->
<g id="node3" class="node"><title>Node2</title>
<g id="a_node3"><a xlink:href="classDGtal_1_1detail_1_1PosIndepScaleIndepSCEstimator.html" target="_top" xlink:title="DGtal::detail::PosIndepScale\lIndepSCEstimator\&lt; TSegmentComputer,\l Functor, ReturnType \&gt;">
<polygon fill="white" stroke="black" points="0,-6 0,-47 215,-47 215,-6 0,-6"/>
<text text-anchor="start" x="8" y="-35" font-family="FreeSans" font-size="10.00">DGtal::detail::PosIndepScale</text>
<text text-anchor="start" x="8" y="-24" font-family="FreeSans" font-size="10.00">IndepSCEstimator&lt; TSegmentComputer,</text>
<text text-anchor="middle" x="107.5" y="-13" font-family="FreeSans" font-size="10.00"> Functor, ReturnType &gt;</text>
</a>
</g>
</g>
<!-- Node2&#45;&gt;Node1 -->
<g id="edge2" class="edge"><title>Node2&#45;&gt;Node1</title>
<path fill="none" stroke="orange" stroke-dasharray="5,2" d="M225.619,-26.5C272.803,-26.5 326.437,-26.5 370.771,-26.5"/>
<polygon fill="orange" stroke="orange" points="225.342,-23.0001 215.342,-26.5 225.342,-30.0001 225.342,-23.0001"/>
<text text-anchor="start" x="233" y="-51.5" font-family="FreeSans" font-size="10.00"> &lt; DSSComputer, detail</text>
<text text-anchor="start" x="233" y="-40.5" font-family="FreeSans" font-size="10.00">::TangentVectorFromDSS</text>
<text text-anchor="middle" x="293" y="-29.5" font-family="FreeSans" font-size="10.00">&lt; DSSComputer &gt; &gt;</text>
</g>
</g>
</svg>
