<?xml version="1.0" encoding="UTF-8" standalone="no"?>
<!DOCTYPE svg PUBLIC "-//W3C//DTD SVG 1.1//EN"
 "http://www.w3.org/Graphics/SVG/1.1/DTD/svg11.dtd">
<!-- Generated by graphviz version 2.38.0 (20140413.2041)
 -->
<!-- Title: DGtal::Pattern&lt; TFraction &gt; Pages: 1 -->
<svg width="157pt" height="95pt"
 viewBox="0.00 0.00 157.00 95.00" xmlns="http://www.w3.org/2000/svg" xmlns:xlink="http://www.w3.org/1999/xlink">
<g id="graph0" class="graph" transform="scale(1 1) rotate(0) translate(4 91)">
<title>DGtal::Pattern&lt; TFraction &gt;</title>
<polygon fill="white" stroke="none" points="-4,4 -4,-91 153,-91 153,4 -4,4"/>
<!-- Node0 -->
<g id="node1" class="node"><title>Node0</title>
<polygon fill="#bfbfbf" stroke="black" points="-1.42109e-14,-67.5 -1.42109e-14,-86.5 149,-86.5 149,-67.5 -1.42109e-14,-67.5"/>
<text text-anchor="middle" x="74.5" y="-74.5" font-family="FreeSans" font-size="10.00">DGtal::Pattern&lt; TFraction &gt;</text>
</g>
<!-- Node1 -->
<g id="node2" class="node"><title>Node1</title>
<g id="a_node2"><a xlink:href="classDGtal_1_1Pattern.html" target="_top" xlink:title="DGtal::Pattern\&lt; Fraction \&gt;">
<polygon fill="white" stroke="black" points="2.5,-0.5 2.5,-19.5 146.5,-19.5 146.5,-0.5 2.5,-0.5"/>
<text text-anchor="middle" x="74.5" y="-7.5" font-family="FreeSans" font-size="10.00">DGtal::Pattern&lt; Fraction &gt;</text>
</a>
</g>
</g>
<!-- Node0&#45;&gt;Node1 -->
<g id="edge1" class="edge"><title>Node0&#45;&gt;Node1</title>
<path fill="none" stroke="orange" stroke-dasharray="5,2" d="M74.5,-57.037C74.5,-44.6703 74.5,-29.1198 74.5,-19.6273"/>
<polygon fill="orange" stroke="orange" points="71.0001,-57.2338 74.5,-67.2338 78.0001,-57.2338 71.0001,-57.2338"/>
<text text-anchor="middle" x="106.5" y="-41" font-family="FreeSans" font-size="10.00"> &lt; Fraction &gt;</text>
</g>
</g>
</svg>
