<?xml version="1.0" encoding="UTF-8" standalone="no"?>
<!DOCTYPE svg PUBLIC "-//W3C//DTD SVG 1.1//EN"
 "http://www.w3.org/Graphics/SVG/1.1/DTD/svg11.dtd">
<!-- Generated by graphviz version 2.36.0 (20140111.2315)
 -->
<!-- Title: DGtal::TiledImage&lt; TImageContainer, TImageFactory, TImageCacheReadPolicy, TImageCacheWritePolicy &gt;::TiledIterator Pages: 1 -->
<!--zoomable 213 -->
<svg id="main" version="1.1" xmlns="http://www.w3.org/2000/svg" xmlns:xlink="http://www.w3.org/1999/xlink" xml:space="preserve" onload="init(evt)">
<style type="text/css"><![CDATA[
.edge:hover path { stroke: red; }
.edge:hover polygon { stroke: red; fill: red; }
]]></style>
<script type="text/javascript"><![CDATA[
var edges = document.getElementsByTagName('g');
if (edges && edges.length) {
  for (var i=0;i<edges.length;i++) {
    if (edges[i].id.substr(0,4)=='edge') {
      edges[i].setAttribute('class','edge');
    }
  }
}
]]></script>
        <defs>
                <circle id="rim" cx="0" cy="0" r="7"/>
                <circle id="rim2" cx="0" cy="0" r="3.5"/>
                <g id="zoomPlus">
                        <use xlink:href="#rim" fill="#404040">
                                <set attributeName="fill" to="#808080" begin="zoomplus.mouseover" end="zoomplus.mouseout"/>
                        </use>
                        <path d="M-4,0h8M0,-4v8" fill="none" stroke="white" stroke-width="1.5" pointer-events="none"/>
                </g>
                <g id="zoomMin">
                        <use xlink:href="#rim" fill="#404040">
                                <set attributeName="fill" to="#808080" begin="zoomminus.mouseover" end="zoomminus.mouseout"/>
                        </use>
                        <path d="M-4,0h8" fill="none" stroke="white" stroke-width="1.5" pointer-events="none"/>
                </g>
                <g id="dirArrow">
                        <path fill="none" stroke="white" stroke-width="1.5" d="M0,-3.0v7 M-2.5,-0.5L0,-3.0L2.5,-0.5"/>
                </g>
               <g id="resetDef">
                       <use xlink:href="#rim2" fill="#404040">
                               <set attributeName="fill" to="#808080" begin="reset.mouseover" end="reset.mouseout"/>
                       </use>
               </g>
        </defs>

<script type="text/javascript">
var viewWidth = 880;
var viewHeight = 213;
var sectionId = 'dynsection-1';
</script>
<script xlink:href="svgpan.js"/>
<svg id="graph" class="graph">
<g id="viewport">
<title>DGtal::TiledImage&lt; TImageContainer, TImageFactory, TImageCacheReadPolicy, TImageCacheWritePolicy &gt;::TiledIterator</title>
<polygon fill="white" stroke="none" points="-4,4 -4,-209 876,-209 876,4 -4,4"/>
<!-- Node2 -->
<g id="node1" class="node"><title>Node2</title>
<polygon fill="#bfbfbf" stroke="black" points="666,-60 666,-112 872,-112 872,-60 666,-60"/>
<text text-anchor="start" x="674" y="-100" font-family="FreeSans" font-size="10.00">DGtal::TiledImage&lt;</text>
<text text-anchor="start" x="674" y="-89" font-family="FreeSans" font-size="10.00"> TImageContainer, TImageFactory,</text>
<text text-anchor="start" x="674" y="-78" font-family="FreeSans" font-size="10.00"> TImageCacheReadPolicy, TImageCache</text>
<text text-anchor="middle" x="769" y="-67" font-family="FreeSans" font-size="10.00">WritePolicy &gt;::TiledIterator</text>
</g>
<!-- Node3 -->
<g id="node2" class="node"><title>Node3</title>
<polygon fill="white" stroke="#bfbfbf" points="352.5,-120 352.5,-172 473.5,-172 473.5,-120 352.5,-120"/>
<text text-anchor="start" x="360.5" y="-160" font-family="FreeSans" font-size="10.00">std::iterator&lt; std</text>
<text text-anchor="start" x="360.5" y="-149" font-family="FreeSans" font-size="10.00">::bidirectional_iterator</text>
<text text-anchor="start" x="360.5" y="-138" font-family="FreeSans" font-size="10.00">_tag, Value, ptrdiff_t,</text>
<text text-anchor="middle" x="413" y="-127" font-family="FreeSans" font-size="10.00"> Value *, Value &amp;&gt;</text>
</g>
<!-- Node3&#45;&gt;Node2 -->
<g id="edge1" class="edge"><title>Node3&#45;&gt;Node2</title>
<path fill="none" stroke="midnightblue" d="M483.762,-134.176C535.681,-125.376 607.359,-113.227 665.744,-103.332"/>
<polygon fill="midnightblue" stroke="midnightblue" points="482.925,-130.768 473.651,-135.89 484.095,-137.669 482.925,-130.768"/>
</g>
<!-- Node4 -->
<g id="node3" class="node"><title>Node4</title>
<g id="a_node3"><a xlink:href="classDGtal_1_1HyperRectDomain__Iterator.html" target="_top" xlink:title="Iterator for HyperRectDomain. ">
<polygon fill="white" stroke="black" points="345,-71 345,-101 481,-101 481,-71 345,-71"/>
<text text-anchor="start" x="353" y="-89" font-family="FreeSans" font-size="10.00">DGtal::HyperRectDomain</text>
<text text-anchor="middle" x="413" y="-78" font-family="FreeSans" font-size="10.00">_Iterator&lt; TPoint &gt;</text>
</a>
</g>
</g>
<!-- Node4&#45;&gt;Node2 -->
<g id="edge2" class="edge"><title>Node4&#45;&gt;Node2</title>
<path fill="none" stroke="#9a32cd" stroke-dasharray="5,2" d="M491.011,-86C542.212,-86 610.026,-86 665.738,-86"/>
<polygon fill="#9a32cd" stroke="#9a32cd" points="491.001,-82.5001 481.001,-86 491.001,-89.5001 491.001,-82.5001"/>
<text text-anchor="middle" x="591" y="-89" font-family="FreeSans" font-size="10.00"> myBlockCoordsIterator</text>
</g>
<!-- Node5 -->
<g id="node4" class="node"><title>Node5</title>
<polygon fill="white" stroke="#bfbfbf" points="0,-109 0,-205 194,-205 194,-109 0,-109"/>
<text text-anchor="start" x="8" y="-193" font-family="FreeSans" font-size="10.00">boost::iterator_facade</text>
<text text-anchor="start" x="8" y="-182" font-family="FreeSans" font-size="10.00">&lt; HyperRectDomain_Iterator</text>
<text text-anchor="start" x="8" y="-171" font-family="FreeSans" font-size="10.00">&lt; TPoint &gt;, TPoint const,</text>
<text text-anchor="start" x="8" y="-160" font-family="FreeSans" font-size="10.00"> std::random_access_iterator</text>
<text text-anchor="start" x="8" y="-149" font-family="FreeSans" font-size="10.00">_tag, TPoint const &amp;, std::conditional</text>
<text text-anchor="start" x="8" y="-138" font-family="FreeSans" font-size="10.00">&lt; std::is_same&lt; TPoint::Component,</text>
<text text-anchor="start" x="8" y="-127" font-family="FreeSans" font-size="10.00"> BigInteger &gt;::value, BigInteger, std</text>
<text text-anchor="middle" x="97" y="-116" font-family="FreeSans" font-size="10.00">::ptrdiff_t &gt;::type &gt;</text>
</g>
<!-- Node5&#45;&gt;Node4 -->
<g id="edge3" class="edge"><title>Node5&#45;&gt;Node4</title>
<path fill="none" stroke="midnightblue" d="M204.482,-143.627C233.379,-138.284 264.319,-130.957 292,-121 300.612,-117.902 301.48,-114.341 310,-111 321.033,-106.673 333.039,-102.932 344.813,-99.7578"/>
<polygon fill="midnightblue" stroke="midnightblue" points="203.584,-140.231 194.354,-145.434 204.814,-147.123 203.584,-140.231"/>
</g>
<!-- Node6 -->
<g id="node5" class="node"><title>Node6</title>
<polygon fill="white" stroke="#bfbfbf" points="74,-70.5 74,-89.5 120,-89.5 120,-70.5 74,-70.5"/>
<text text-anchor="middle" x="97" y="-77.5" font-family="FreeSans" font-size="10.00">TPoint</text>
</g>
<!-- Node6&#45;&gt;Node4 -->
<g id="edge4" class="edge"><title>Node6&#45;&gt;Node4</title>
<path fill="none" stroke="#9a32cd" stroke-dasharray="5,2" d="M130.346,-80.6181C180.629,-81.5789 278.622,-83.4514 344.705,-84.7141"/>
<polygon fill="#9a32cd" stroke="#9a32cd" points="130.145,-77.1137 120.08,-80.4219 130.011,-84.1124 130.145,-77.1137"/>
<text text-anchor="middle" x="252" y="-109" font-family="FreeSans" font-size="10.00"> mylower</text>
<text text-anchor="middle" x="252" y="-98" font-family="FreeSans" font-size="10.00">myupper</text>
<text text-anchor="middle" x="252" y="-87" font-family="FreeSans" font-size="10.00">myPoint</text>
</g>
<!-- Node7 -->
<g id="node6" class="node"><title>Node7</title>
<g id="a_node6"><a xlink:href="classDGtal_1_1TiledImage.html" target="_top" xlink:title="Aim: implements a tiled image from a &quot;bigger/original&quot; one from an ImageFactory. ">
<polygon fill="white" stroke="black" points="310,-0 310,-52 516,-52 516,-0 310,-0"/>
<text text-anchor="start" x="318" y="-40" font-family="FreeSans" font-size="10.00">DGtal::TiledImage&lt;</text>
<text text-anchor="start" x="318" y="-29" font-family="FreeSans" font-size="10.00"> TImageContainer, TImageFactory,</text>
<text text-anchor="start" x="318" y="-18" font-family="FreeSans" font-size="10.00"> TImageCacheReadPolicy, TImageCache</text>
<text text-anchor="middle" x="413" y="-7" font-family="FreeSans" font-size="10.00">WritePolicy &gt;</text>
</a>
</g>
</g>
<!-- Node7&#45;&gt;Node2 -->
<g id="edge5" class="edge"><title>Node7&#45;&gt;Node2</title>
<path fill="none" stroke="#9a32cd" stroke-dasharray="5,2" d="M526.42,-45.0542C571.125,-52.6314 622.201,-61.2884 665.839,-68.6845"/>
<polygon fill="#9a32cd" stroke="#9a32cd" points="526.836,-41.5749 516.391,-43.3545 525.666,-48.4764 526.836,-41.5749"/>
<text text-anchor="middle" x="591" y="-68" font-family="FreeSans" font-size="10.00"> myTiledImage</text>
</g>
<!-- Node8 -->
<g id="node7" class="node"><title>Node8</title>
<g id="a_node7"><a xlink:href="classDGtal_1_1ImageCache.html" target="_top" xlink:title="Aim: implements an images cache with &#39;read and write&#39; policies. ">
<polygon fill="white" stroke="black" points="7,-5.5 7,-46.5 187,-46.5 187,-5.5 7,-5.5"/>
<text text-anchor="start" x="15" y="-34.5" font-family="FreeSans" font-size="10.00">DGtal::ImageCache&lt;</text>
<text text-anchor="start" x="15" y="-23.5" font-family="FreeSans" font-size="10.00"> TImageContainer, TImageFactory,</text>
<text text-anchor="middle" x="97" y="-12.5" font-family="FreeSans" font-size="10.00"> TReadPolicy, TWritePolicy &gt;</text>
</a>
</g>
</g>
<!-- Node8&#45;&gt;Node7 -->
<g id="edge6" class="edge"><title>Node8&#45;&gt;Node7</title>
<path fill="none" stroke="#9a32cd" stroke-dasharray="5,2" d="M197.143,-26C233.077,-26 273.713,-26 309.897,-26"/>
<polygon fill="#9a32cd" stroke="#9a32cd" points="197.14,-22.5001 187.14,-26 197.14,-29.5001 197.14,-22.5001"/>
<text text-anchor="middle" x="252" y="-29" font-family="FreeSans" font-size="10.00"> myImageCache</text>
</g>
</g>
</svg>
        <g id="navigator" transform="translate(0 0)" fill="#404254">
                <rect fill="#f2f5e9" fill-opacity="0.5" stroke="#606060" stroke-width=".5" x="0" y="0" width="60" height="60"/>
                <use id="zoomplus" xlink:href="#zoomPlus" x="17" y="9" onmousedown="handleZoom(evt,'in')"/>
                <use id="zoomminus" xlink:href="#zoomMin" x="42" y="9" onmousedown="handleZoom(evt,'out')"/>
                <use id="reset" xlink:href="#resetDef" x="30" y="36" onmousedown="handleReset()"/>
                <g id="arrowUp" xlink:href="#dirArrow" transform="translate(30 24)" onmousedown="handlePan(0,-1)">
                  <use xlink:href="#rim" fill="#404040">
                        <set attributeName="fill" to="#808080" begin="arrowUp.mouseover" end="arrowUp.mouseout"/>
                  </use>
                  <path fill="none" stroke="white" stroke-width="1.5" d="M0,-3.0v7 M-2.5,-0.5L0,-3.0L2.5,-0.5"/>
                </g>
                <g id="arrowRight" xlink:href="#dirArrow" transform="rotate(90) translate(36 -43)" onmousedown="handlePan(1,0)">
                  <use xlink:href="#rim" fill="#404040">
                        <set attributeName="fill" to="#808080" begin="arrowRight.mouseover" end="arrowRight.mouseout"/>
                  </use>
                  <path fill="none" stroke="white" stroke-width="1.5" d="M0,-3.0v7 M-2.5,-0.5L0,-3.0L2.5,-0.5"/>
                </g>
                <g id="arrowDown" xlink:href="#dirArrow" transform="rotate(180) translate(-30 -48)" onmousedown="handlePan(0,1)">
                  <use xlink:href="#rim" fill="#404040">
                        <set attributeName="fill" to="#808080" begin="arrowDown.mouseover" end="arrowDown.mouseout"/>
                  </use>
                  <path fill="none" stroke="white" stroke-width="1.5" d="M0,-3.0v7 M-2.5,-0.5L0,-3.0L2.5,-0.5"/>
                </g>
                <g id="arrowLeft" xlink:href="#dirArrow" transform="rotate(270) translate(-36 17)" onmousedown="handlePan(-1,0)">
                  <use xlink:href="#rim" fill="#404040">
                        <set attributeName="fill" to="#808080" begin="arrowLeft.mouseover" end="arrowLeft.mouseout"/>
                  </use>
                  <path fill="none" stroke="white" stroke-width="1.5" d="M0,-3.0v7 M-2.5,-0.5L0,-3.0L2.5,-0.5"/>
                </g>
        </g>
        <svg viewBox="0 0 15 15" width="100%" height="30px" preserveAspectRatio="xMaxYMin meet">
         <g id="arrow_out" transform="scale(0.3 0.3)">
          <a xlink:href="classDGtal_1_1TiledImage_1_1TiledIterator__coll__graph_org.svg" target="_base">
           <rect id="button" ry="5" rx="5" y="6" x="6" height="38" width="38"
                fill="#f2f5e9" fill-opacity="0.5" stroke="#606060" stroke-width="1.0"/>
           <path id="arrow"
             d="M 11.500037,31.436501 C 11.940474,20.09759 22.043105,11.32322 32.158766,21.979434 L 37.068811,17.246167 C 37.068811,17.246167 37.088388,32 37.088388,32 L 22.160133,31.978069 C 22.160133,31.978069 26.997745,27.140456 26.997745,27.140456 C 18.528582,18.264221 13.291696,25.230495 11.500037,31.436501 z"
             style="fill:#404040;"/>
          </a>
         </g>
        </svg>
</svg>
