<?xml version="1.0" encoding="UTF-8" standalone="no"?>
<!DOCTYPE svg PUBLIC "-//W3C//DTD SVG 1.1//EN"
 "http://www.w3.org/Graphics/SVG/1.1/DTD/svg11.dtd">
<!-- Generated by graphviz version 2.38.0 (20140413.2041)
 -->
<!-- Title: DGtal::VoronoiCovarianceMeasure&lt; TSpace, TSeparableMetric &gt; Pages: 1 -->
<svg width="2209pt" height="867pt"
 viewBox="0.00 0.00 2209.00 866.76" xmlns="http://www.w3.org/2000/svg" xmlns:xlink="http://www.w3.org/1999/xlink">
<g id="graph0" class="graph" transform="scale(1 1) rotate(0) translate(4 862.761)">
<title>DGtal::VoronoiCovarianceMeasure&lt; TSpace, TSeparableMetric &gt;</title>
<polygon fill="white" stroke="none" points="-4,4 -4,-862.761 2205,-862.761 2205,4 -4,4"/>
<!-- Node2 -->
<g id="node1" class="node"><title>Node2</title>
<polygon fill="#bfbfbf" stroke="black" points="1996,-414.761 1996,-444.761 2201,-444.761 2201,-414.761 1996,-414.761"/>
<text text-anchor="start" x="2004" y="-432.761" font-family="FreeSans" font-size="10.00">DGtal::VoronoiCovariance</text>
<text text-anchor="middle" x="2098.5" y="-421.761" font-family="FreeSans" font-size="10.00">Measure&lt; TSpace, TSeparableMetric &gt;</text>
</g>
<!-- Node3 -->
<g id="node2" class="node"><title>Node3</title>
<g id="a_node2"><a xlink:href="classDGtal_1_1VoronoiMap.html" target="_top" xlink:title="Aim: Implementation of the linear in time Voronoi map construction. ">
<polygon fill="white" stroke="black" points="1385,-703.261 1385,-744.261 1587,-744.261 1587,-703.261 1385,-703.261"/>
<text text-anchor="start" x="1393" y="-732.261" font-family="FreeSans" font-size="10.00">DGtal::VoronoiMap&lt;</text>
<text text-anchor="start" x="1393" y="-721.261" font-family="FreeSans" font-size="10.00"> TSpace, TPointPredicate,</text>
<text text-anchor="middle" x="1486" y="-710.261" font-family="FreeSans" font-size="10.00"> TSeparableMetric, TImageContainer &gt;</text>
</a>
</g>
</g>
<!-- Node3&#45;&gt;Node2 -->
<g id="edge1" class="edge"><title>Node3&#45;&gt;Node2</title>
<path fill="none" stroke="#9a32cd" stroke-dasharray="5,2" d="M1565.13,-700.163C1664.83,-668.305 1840.82,-606.147 1978,-525.761 2018.41,-502.082 2059.74,-465.586 2081.62,-445.089"/>
<polygon fill="#9a32cd" stroke="#9a32cd" points="1563.89,-696.882 1555.42,-703.244 1566.01,-703.553 1563.89,-696.882"/>
<text text-anchor="middle" x="1766.5" y="-663.761" font-family="FreeSans" font-size="10.00"> myVoronoi</text>
</g>
<!-- Node4 -->
<g id="node3" class="node"><title>Node4</title>
<g id="a_node3"><a xlink:href="classDGtal_1_1CountedPtr.html" target="_top" xlink:title="DGtal::CountedPtr\&lt;\l OutputImage \&gt;">
<polygon fill="white" stroke="black" points="1084.5,-752.761 1084.5,-782.761 1196.5,-782.761 1196.5,-752.761 1084.5,-752.761"/>
<text text-anchor="start" x="1092.5" y="-770.761" font-family="FreeSans" font-size="10.00">DGtal::CountedPtr&lt;</text>
<text text-anchor="middle" x="1140.5" y="-759.761" font-family="FreeSans" font-size="10.00"> OutputImage &gt;</text>
</a>
</g>
</g>
<!-- Node4&#45;&gt;Node3 -->
<g id="edge2" class="edge"><title>Node4&#45;&gt;Node3</title>
<path fill="none" stroke="#9a32cd" stroke-dasharray="5,2" d="M1206.79,-759.398C1257.09,-752.955 1327.51,-743.935 1384.91,-736.582"/>
<polygon fill="#9a32cd" stroke="#9a32cd" points="1206.16,-755.949 1196.69,-760.692 1207.05,-762.893 1206.16,-755.949"/>
<text text-anchor="middle" x="1309" y="-756.761" font-family="FreeSans" font-size="10.00"> myImagePtr</text>
</g>
<!-- Node5 -->
<g id="node4" class="node"><title>Node5</title>
<g id="a_node4"><a xlink:href="structDGtal_1_1CountedPtr_1_1Counter.html" target="_top" xlink:title="DGtal::CountedPtr\&lt;\l T \&gt;::Counter">
<polygon fill="white" stroke="black" points="500,-729.761 500,-759.761 612,-759.761 612,-729.761 500,-729.761"/>
<text text-anchor="start" x="508" y="-747.761" font-family="FreeSans" font-size="10.00">DGtal::CountedPtr&lt;</text>
<text text-anchor="middle" x="556" y="-736.761" font-family="FreeSans" font-size="10.00"> T &gt;::Counter</text>
</a>
</g>
</g>
<!-- Node5&#45;&gt;Node4 -->
<g id="edge3" class="edge"><title>Node5&#45;&gt;Node4</title>
<path fill="none" stroke="#9a32cd" stroke-dasharray="5,2" d="M622.568,-750.491C629.13,-750.965 635.694,-751.4 642,-751.761 802.472,-760.943 992.385,-765.229 1084.25,-766.886"/>
<polygon fill="#9a32cd" stroke="#9a32cd" points="622.531,-746.978 612.297,-749.718 622.006,-753.959 622.531,-746.978"/>
<text text-anchor="middle" x="806" y="-764.761" font-family="FreeSans" font-size="10.00"> myCounter</text>
</g>
<!-- Node6 -->
<g id="node5" class="node"><title>Node6</title>
<g id="a_node5"><a xlink:href="classDGtal_1_1CountedPtr.html" target="_top" xlink:title="Aim: Smart pointer based on reference counts. ">
<polygon fill="white" stroke="black" points="740.5,-712.261 740.5,-731.261 871.5,-731.261 871.5,-712.261 740.5,-712.261"/>
<text text-anchor="middle" x="806" y="-719.261" font-family="FreeSans" font-size="10.00">DGtal::CountedPtr&lt; T &gt;</text>
</a>
</g>
</g>
<!-- Node5&#45;&gt;Node6 -->
<g id="edge5" class="edge"><title>Node5&#45;&gt;Node6</title>
<path fill="none" stroke="#9a32cd" stroke-dasharray="5,2" d="M622.091,-738.724C658.615,-735.337 704.023,-731.126 740.458,-727.747"/>
<polygon fill="#9a32cd" stroke="#9a32cd" points="621.673,-735.248 612.039,-739.657 622.32,-742.218 621.673,-735.248"/>
<text text-anchor="middle" x="681" y="-739.761" font-family="FreeSans" font-size="10.00"> myCounter</text>
</g>
<!-- Node6&#45;&gt;Node4 -->
<g id="edge4" class="edge"><title>Node6&#45;&gt;Node4</title>
<path fill="none" stroke="orange" stroke-dasharray="5,2" d="M881.888,-726.362C925.315,-729.641 980.947,-734.886 1030,-742.761 1047.81,-745.62 1067.04,-749.677 1084.35,-753.693"/>
<polygon fill="orange" stroke="orange" points="881.918,-722.855 871.688,-725.611 881.404,-729.836 881.918,-722.855"/>
<text text-anchor="middle" x="961" y="-745.761" font-family="FreeSans" font-size="10.00"> &lt; OutputImage &gt;</text>
</g>
<!-- Node7 -->
<g id="node6" class="node"><title>Node7</title>
<polygon fill="white" stroke="#bfbfbf" points="1070,-714.261 1070,-733.261 1211,-733.261 1211,-714.261 1070,-714.261"/>
<text text-anchor="middle" x="1140.5" y="-721.261" font-family="FreeSans" font-size="10.00">std::vector&lt; Dimension &gt;</text>
</g>
<!-- Node7&#45;&gt;Node3 -->
<g id="edge6" class="edge"><title>Node7&#45;&gt;Node3</title>
<path fill="none" stroke="#9a32cd" stroke-dasharray="5,2" d="M1221.2,-723.761C1270,-723.761 1332.87,-723.761 1384.99,-723.761"/>
<polygon fill="#9a32cd" stroke="#9a32cd" points="1221.01,-720.261 1211.01,-723.761 1221.01,-727.261 1221.01,-720.261"/>
<text text-anchor="middle" x="1309" y="-726.761" font-family="FreeSans" font-size="10.00"> myPeriodicityIndex</text>
</g>
<!-- Node8 -->
<g id="node7" class="node"><title>Node8</title>
<g id="a_node7"><a xlink:title="STL class. ">
<polygon fill="white" stroke="#bfbfbf" points="758.5,-674.261 758.5,-693.261 853.5,-693.261 853.5,-674.261 758.5,-674.261"/>
<text text-anchor="middle" x="806" y="-681.261" font-family="FreeSans" font-size="10.00">std::vector&lt; T &gt;</text>
</a>
</g>
</g>
<!-- Node8&#45;&gt;Node7 -->
<g id="edge7" class="edge"><title>Node8&#45;&gt;Node7</title>
<path fill="none" stroke="orange" stroke-dasharray="5,2" d="M863.787,-689.274C908.895,-693.797 973.555,-700.603 1030,-707.761 1045.34,-709.707 1061.86,-712.011 1077.31,-714.256"/>
<polygon fill="orange" stroke="orange" points="863.913,-685.769 853.615,-688.259 863.218,-692.734 863.913,-685.769"/>
<text text-anchor="middle" x="961" y="-710.761" font-family="FreeSans" font-size="10.00"> &lt; Dimension &gt;</text>
</g>
<!-- Node9 -->
<g id="node8" class="node"><title>Node9</title>
<polygon fill="white" stroke="#bfbfbf" points="541.5,-599.261 541.5,-618.261 570.5,-618.261 570.5,-599.261 541.5,-599.261"/>
<text text-anchor="middle" x="556" y="-606.261" font-family="FreeSans" font-size="10.00">T</text>
</g>
<!-- Node9&#45;&gt;Node8 -->
<g id="edge8" class="edge"><title>Node9&#45;&gt;Node8</title>
<path fill="none" stroke="#9a32cd" stroke-dasharray="5,2" d="M579.708,-621.597C596.471,-630.601 620.084,-642.315 642,-649.761 680.182,-662.734 725.153,-671.665 758.176,-677.106"/>
<polygon fill="#9a32cd" stroke="#9a32cd" points="581.147,-618.395 570.695,-616.662 577.785,-624.535 581.147,-618.395"/>
<text text-anchor="middle" x="681" y="-672.761" font-family="FreeSans" font-size="10.00"> elements</text>
</g>
<!-- Node11 -->
<g id="node10" class="node"><title>Node11</title>
<g id="a_node10"><a xlink:title="STL class. ">
<polygon fill="white" stroke="#bfbfbf" points="761,-636.261 761,-655.261 851,-655.261 851,-636.261 761,-636.261"/>
<text text-anchor="middle" x="806" y="-643.261" font-family="FreeSans" font-size="10.00">std::array&lt; T &gt;</text>
</a>
</g>
</g>
<!-- Node9&#45;&gt;Node11 -->
<g id="edge11" class="edge"><title>Node9&#45;&gt;Node11</title>
<path fill="none" stroke="#9a32cd" stroke-dasharray="5,2" d="M580.692,-612.814C597.73,-615.691 621.262,-619.591 642,-622.761 682.116,-628.894 727.88,-635.3 760.683,-639.789"/>
<polygon fill="#9a32cd" stroke="#9a32cd" points="580.973,-609.311 570.528,-611.088 579.802,-616.213 580.973,-609.311"/>
<text text-anchor="middle" x="681" y="-637.761" font-family="FreeSans" font-size="10.00"> elements</text>
</g>
<!-- Node17 -->
<g id="node16" class="node"><title>Node17</title>
<g id="a_node16"><a xlink:title="STL class. ">
<polygon fill="white" stroke="#bfbfbf" points="756.5,-598.261 756.5,-617.261 855.5,-617.261 855.5,-598.261 756.5,-598.261"/>
<text text-anchor="middle" x="806" y="-605.261" font-family="FreeSans" font-size="10.00">std::map&lt; K, T &gt;</text>
</a>
</g>
</g>
<!-- Node9&#45;&gt;Node17 -->
<g id="edge22" class="edge"><title>Node9&#45;&gt;Node17</title>
<path fill="none" stroke="#9a32cd" stroke-dasharray="5,2" d="M580.886,-608.665C621.207,-608.502 703.536,-608.17 756.398,-607.957"/>
<polygon fill="#9a32cd" stroke="#9a32cd" points="580.673,-605.166 570.687,-608.706 580.701,-612.165 580.673,-605.166"/>
<text text-anchor="middle" x="681" y="-611.761" font-family="FreeSans" font-size="10.00"> elements</text>
</g>
<!-- Node20 -->
<g id="node19" class="node"><title>Node20</title>
<g id="a_node19"><a xlink:title="STL class. ">
<polygon fill="white" stroke="#bfbfbf" points="745,-463.261 745,-482.261 867,-482.261 867,-463.261 745,-463.261"/>
<text text-anchor="middle" x="806" y="-470.261" font-family="FreeSans" font-size="10.00">std::vector&lt; TValue &gt;</text>
</a>
</g>
</g>
<!-- Node9&#45;&gt;Node20 -->
<g id="edge25" class="edge"><title>Node9&#45;&gt;Node20</title>
<path fill="none" stroke="#9a32cd" stroke-dasharray="5,2" d="M579.9,-598.351C594.266,-590.81 612.231,-579.382 624,-564.761 638.026,-547.336 625.44,-532.798 642,-517.761 669.929,-492.402 710.889,-481.163 744.761,-476.258"/>
<polygon fill="#9a32cd" stroke="#9a32cd" points="578.051,-595.362 570.65,-602.943 581.163,-601.632 578.051,-595.362"/>
<text text-anchor="middle" x="681" y="-520.761" font-family="FreeSans" font-size="10.00"> elements</text>
</g>
<!-- Node31 -->
<g id="node30" class="node"><title>Node31</title>
<g id="a_node30"><a xlink:title="STL class. ">
<polygon fill="white" stroke="#bfbfbf" points="892.5,-545.261 892.5,-564.261 1029.5,-564.261 1029.5,-545.261 892.5,-545.261"/>
<text text-anchor="middle" x="961" y="-552.261" font-family="FreeSans" font-size="10.00">std::vector&lt; Storage * &gt;</text>
</a>
</g>
</g>
<!-- Node9&#45;&gt;Node31 -->
<g id="edge44" class="edge"><title>Node9&#45;&gt;Node31</title>
<path fill="none" stroke="#9a32cd" stroke-dasharray="5,2" d="M580.661,-604.241C597.684,-601.074 621.211,-596.868 642,-593.761 728.092,-580.895 827.767,-569.184 892.243,-562.025"/>
<polygon fill="#9a32cd" stroke="#9a32cd" points="579.689,-600.863 570.508,-606.151 580.983,-607.742 579.689,-600.863"/>
<text text-anchor="middle" x="681" y="-596.761" font-family="FreeSans" font-size="10.00"> elements</text>
</g>
<!-- Node10 -->
<g id="node9" class="node"><title>Node10</title>
<polygon fill="white" stroke="#bfbfbf" points="1075.5,-664.761 1075.5,-694.761 1205.5,-694.761 1205.5,-664.761 1075.5,-664.761"/>
<text text-anchor="start" x="1083.5" y="-682.761" font-family="FreeSans" font-size="10.00">std::array&lt; bool, Space</text>
<text text-anchor="middle" x="1140.5" y="-671.761" font-family="FreeSans" font-size="10.00">::dimension &gt;</text>
</g>
<!-- Node10&#45;&gt;Node3 -->
<g id="edge9" class="edge"><title>Node10&#45;&gt;Node3</title>
<path fill="none" stroke="#9a32cd" stroke-dasharray="5,2" d="M1215.7,-689.265C1265.2,-695.606 1330.88,-704.02 1384.98,-710.95"/>
<polygon fill="#9a32cd" stroke="#9a32cd" points="1216.07,-685.785 1205.71,-687.986 1215.18,-692.728 1216.07,-685.785"/>
<text text-anchor="middle" x="1309" y="-711.761" font-family="FreeSans" font-size="10.00"> myPeriodicitySpec</text>
</g>
<!-- Node11&#45;&gt;Node10 -->
<g id="edge10" class="edge"><title>Node11&#45;&gt;Node10</title>
<path fill="none" stroke="orange" stroke-dasharray="5,2" d="M861.328,-651.316C919.975,-657.313 1013.32,-666.858 1075.48,-673.215"/>
<polygon fill="orange" stroke="orange" points="861.458,-647.812 851.153,-650.276 860.745,-654.775 861.458,-647.812"/>
<text text-anchor="middle" x="961" y="-671.761" font-family="FreeSans" font-size="10.00"> &lt; bool, Space::dimension &gt;</text>
</g>
<!-- Node16 -->
<g id="node15" class="node"><title>Node16</title>
<polygon fill="white" stroke="#bfbfbf" points="1074,-615.761 1074,-645.761 1207,-645.761 1207,-615.761 1074,-615.761"/>
<text text-anchor="start" x="1082" y="-633.761" font-family="FreeSans" font-size="10.00">std::array&lt; Component,</text>
<text text-anchor="middle" x="1140.5" y="-622.761" font-family="FreeSans" font-size="10.00"> M *N &gt;</text>
</g>
<!-- Node11&#45;&gt;Node16 -->
<g id="edge18" class="edge"><title>Node11&#45;&gt;Node16</title>
<path fill="none" stroke="orange" stroke-dasharray="5,2" d="M861.094,-637.834C871.338,-636.596 881.982,-635.488 892,-634.761 953.507,-630.298 1023.83,-629.582 1073.75,-629.814"/>
<polygon fill="orange" stroke="orange" points="860.504,-634.381 851.021,-639.106 861.381,-641.326 860.504,-634.381"/>
<text text-anchor="middle" x="961" y="-637.761" font-family="FreeSans" font-size="10.00"> &lt; Component, M *N &gt;</text>
</g>
<!-- Node12 -->
<g id="node11" class="node"><title>Node12</title>
<g id="a_node11"><a xlink:href="classDGtal_1_1PointVector.html" target="_top" xlink:title="Aim: Implements basic operations that will be used in Point and Vector classes. ">
<polygon fill="white" stroke="black" points="215,-314.261 215,-355.261 341,-355.261 341,-314.261 215,-314.261"/>
<text text-anchor="start" x="223" y="-343.261" font-family="FreeSans" font-size="10.00">DGtal::PointVector</text>
<text text-anchor="start" x="223" y="-332.261" font-family="FreeSans" font-size="10.00">&lt; dim, TEuclideanRing,</text>
<text text-anchor="middle" x="278" y="-321.261" font-family="FreeSans" font-size="10.00"> TContainer &gt;</text>
</a>
</g>
</g>
<!-- Node12&#45;&gt;Node3 -->
<g id="edge12" class="edge"><title>Node12&#45;&gt;Node3</title>
<path fill="none" stroke="#9a32cd" stroke-dasharray="5,2" d="M281.811,-365.426C293.347,-471.26 346.824,-814.761 555,-814.761 555,-814.761 555,-814.761 1141.5,-814.761 1250.85,-814.761 1373.45,-771.136 1438.53,-744.297"/>
<polygon fill="#9a32cd" stroke="#9a32cd" points="285.282,-364.97 280.766,-355.386 278.32,-365.695 285.282,-364.97"/>
<text text-anchor="middle" x="806" y="-850.761" font-family="FreeSans" font-size="10.00"> myLowerBoundCopy</text>
<text text-anchor="middle" x="806" y="-839.761" font-family="FreeSans" font-size="10.00">myInfinity</text>
<text text-anchor="middle" x="806" y="-828.761" font-family="FreeSans" font-size="10.00">myDomainExtent</text>
<text text-anchor="middle" x="806" y="-817.761" font-family="FreeSans" font-size="10.00">myUpperBoundCopy</text>
</g>
<!-- Node12&#45;&gt;Node12 -->
<g id="edge14" class="edge"><title>Node12&#45;&gt;Node12</title>
<path fill="none" stroke="#9a32cd" stroke-dasharray="5,2" d="M251.849,-365.617C255.738,-370.458 264.455,-373.761 278,-373.761 299.672,-373.761 308.984,-365.304 305.936,-355.626"/>
<polygon fill="#9a32cd" stroke="#9a32cd" points="255.268,-364.854 250.064,-355.626 248.378,-366.085 255.268,-364.854"/>
<text text-anchor="middle" x="278" y="-376.761" font-family="FreeSans" font-size="10.00"> zero</text>
</g>
<!-- Node14 -->
<g id="node13" class="node"><title>Node14</title>
<polygon fill="white" stroke="#bfbfbf" points="1688.5,-539.261 1688.5,-558.261 1844.5,-558.261 1844.5,-539.261 1688.5,-539.261"/>
<text text-anchor="middle" x="1766.5" y="-546.261" font-family="FreeSans" font-size="10.00">std::map&lt; Point, MatrixNN &gt;</text>
</g>
<!-- Node12&#45;&gt;Node14 -->
<g id="edge19" class="edge"><title>Node12&#45;&gt;Node14</title>
<path fill="none" stroke="#9a32cd" stroke-dasharray="5,2" d="M327.21,-359.867C347.376,-370.106 371.16,-381.845 393,-391.761 501.893,-441.204 525.319,-467.534 642,-493.761 780.09,-524.8 818.465,-510.761 960,-510.761 960,-510.761 960,-510.761 1487,-510.761 1570.93,-510.761 1667.8,-527.915 1722.33,-539.172"/>
<polygon fill="#9a32cd" stroke="#9a32cd" points="328.717,-356.707 318.219,-355.28 325.536,-362.942 328.717,-356.707"/>
<text text-anchor="middle" x="961" y="-514.761" font-family="FreeSans" font-size="10.00"> keys</text>
</g>
<!-- Node19 -->
<g id="node18" class="node"><title>Node19</title>
<g id="a_node18"><a xlink:href="classDGtal_1_1ImageContainerBySTLVector.html" target="_top" xlink:title="DGtal::ImageContainerBySTLVector\l\&lt; TDomain, TValue \&gt;">
<polygon fill="white" stroke="black" points="1048,-414.761 1048,-444.761 1233,-444.761 1233,-414.761 1048,-414.761"/>
<text text-anchor="start" x="1056" y="-432.761" font-family="FreeSans" font-size="10.00">DGtal::ImageContainerBySTLVector</text>
<text text-anchor="middle" x="1140.5" y="-421.761" font-family="FreeSans" font-size="10.00">&lt; TDomain, TValue &gt;</text>
</a>
</g>
</g>
<!-- Node12&#45;&gt;Node19 -->
<g id="edge27" class="edge"><title>Node12&#45;&gt;Node19</title>
<path fill="none" stroke="#9a32cd" stroke-dasharray="5,2" d="M343.209,-358.527C359.274,-363.658 376.604,-368.511 393,-371.761 515.888,-396.121 876.917,-416.678 1047.81,-425.35"/>
<polygon fill="#9a32cd" stroke="#9a32cd" points="343.983,-355.097 333.39,-355.309 341.802,-361.749 343.983,-355.097"/>
<text text-anchor="middle" x="681" y="-408.761" font-family="FreeSans" font-size="10.00"> myExtent</text>
</g>
<!-- Node22 -->
<g id="node21" class="node"><title>Node22</title>
<g id="a_node21"><a xlink:href="classDGtal_1_1HyperRectDomain.html" target="_top" xlink:title="DGtal::HyperRectDomain\l\&lt; Space \&gt;">
<polygon fill="white" stroke="black" points="1072.5,-217.761 1072.5,-247.761 1208.5,-247.761 1208.5,-217.761 1072.5,-217.761"/>
<text text-anchor="start" x="1080.5" y="-235.761" font-family="FreeSans" font-size="10.00">DGtal::HyperRectDomain</text>
<text text-anchor="middle" x="1140.5" y="-224.761" font-family="FreeSans" font-size="10.00">&lt; Space &gt;</text>
</a>
</g>
</g>
<!-- Node12&#45;&gt;Node22 -->
<g id="edge36" class="edge"><title>Node12&#45;&gt;Node22</title>
<path fill="none" stroke="#9a32cd" stroke-dasharray="5,2" d="M343.482,-311.038C359.476,-305.933 376.706,-301.081 393,-297.761 501.862,-275.583 531.27,-284.791 642,-275.761 814.353,-261.707 857.954,-264.177 1030,-246.761 1043.73,-245.371 1058.4,-243.656 1072.39,-241.908"/>
<polygon fill="#9a32cd" stroke="#9a32cd" points="342.119,-307.802 333.703,-314.238 344.295,-314.455 342.119,-307.802"/>
<text text-anchor="middle" x="681" y="-289.761" font-family="FreeSans" font-size="10.00"> myLowerBound</text>
<text text-anchor="middle" x="681" y="-278.761" font-family="FreeSans" font-size="10.00">myUpperBound</text>
</g>
<!-- Node26 -->
<g id="node25" class="node"><title>Node26</title>
<g id="a_node25"><a xlink:href="structDGtal_1_1functors_1_1IsWithinPointPredicate.html" target="_top" xlink:title="DGtal::functors::IsWithin\lPointPredicate\&lt; Point \&gt;">
<polygon fill="white" stroke="black" points="490,-214.761 490,-244.761 622,-244.761 622,-214.761 490,-214.761"/>
<text text-anchor="start" x="498" y="-232.761" font-family="FreeSans" font-size="10.00">DGtal::functors::IsWithin</text>
<text text-anchor="middle" x="556" y="-221.761" font-family="FreeSans" font-size="10.00">PointPredicate&lt; Point &gt;</text>
</a>
</g>
</g>
<!-- Node12&#45;&gt;Node26 -->
<g id="edge33" class="edge"><title>Node12&#45;&gt;Node26</title>
<path fill="none" stroke="#9a32cd" stroke-dasharray="5,2" d="M302.416,-306.458C323.439,-283.338 356.533,-252.207 393,-237.761 423.369,-225.731 459.478,-222.96 489.89,-223.528"/>
<polygon fill="#9a32cd" stroke="#9a32cd" points="299.782,-304.153 295.763,-313.955 305.018,-308.799 299.782,-304.153"/>
<text text-anchor="middle" x="431.5" y="-251.761" font-family="FreeSans" font-size="10.00"> myLowerBound</text>
<text text-anchor="middle" x="431.5" y="-240.761" font-family="FreeSans" font-size="10.00">myUpperBound</text>
</g>
<!-- Node28 -->
<g id="node27" class="node"><title>Node28</title>
<g id="a_node27"><a xlink:href="classDGtal_1_1HyperRectDomain.html" target="_top" xlink:title="Aim: Parallelepidec region of a digital space, model of a &#39;CDomain&#39;. ">
<polygon fill="white" stroke="black" points="738,-161.761 738,-191.761 874,-191.761 874,-161.761 738,-161.761"/>
<text text-anchor="start" x="746" y="-179.761" font-family="FreeSans" font-size="10.00">DGtal::HyperRectDomain</text>
<text text-anchor="middle" x="806" y="-168.761" font-family="FreeSans" font-size="10.00">&lt; TSpace &gt;</text>
</a>
</g>
</g>
<!-- Node12&#45;&gt;Node28 -->
<g id="edge40" class="edge"><title>Node12&#45;&gt;Node28</title>
<path fill="none" stroke="#9a32cd" stroke-dasharray="5,2" d="M301.609,-306.338C322.938,-281.066 356.945,-244.536 393,-220.761 430.964,-195.728 443.429,-191.783 488,-182.761 572.837,-165.589 673.059,-167.249 737.754,-171.085"/>
<polygon fill="#9a32cd" stroke="#9a32cd" points="298.843,-304.19 295.143,-314.117 304.226,-308.664 298.843,-304.19"/>
<text text-anchor="middle" x="556" y="-196.761" font-family="FreeSans" font-size="10.00"> myLowerBound</text>
<text text-anchor="middle" x="556" y="-185.761" font-family="FreeSans" font-size="10.00">myUpperBound</text>
</g>
<!-- Node29 -->
<g id="node28" class="node"><title>Node29</title>
<g id="a_node28"><a xlink:href="classDGtal_1_1SpatialCubicalSubdivision.html" target="_top" xlink:title="Aim: This class is a data structure that subdivides a rectangular domains into cubical domains of siz...">
<polygon fill="white" stroke="black" points="1681,-316.761 1681,-346.761 1852,-346.761 1852,-316.761 1681,-316.761"/>
<text text-anchor="start" x="1689" y="-334.761" font-family="FreeSans" font-size="10.00">DGtal::SpatialCubicalSubdivision</text>
<text text-anchor="middle" x="1766.5" y="-323.761" font-family="FreeSans" font-size="10.00">&lt; TSpace &gt;</text>
</a>
</g>
</g>
<!-- Node12&#45;&gt;Node29 -->
<g id="edge49" class="edge"><title>Node12&#45;&gt;Node29</title>
<path fill="none" stroke="#9a32cd" stroke-dasharray="5,2" d="M351.188,-325.442C406.792,-319.066 485.631,-311.761 555,-311.761 555,-311.761 555,-311.761 1487,-311.761 1552.2,-311.761 1625.76,-317.282 1680.91,-322.522"/>
<polygon fill="#9a32cd" stroke="#9a32cd" points="350.611,-321.985 341.084,-326.62 351.422,-328.938 350.611,-321.985"/>
<text text-anchor="middle" x="961" y="-314.761" font-family="FreeSans" font-size="10.00"> myDiag</text>
</g>
<!-- Node30 -->
<g id="node29" class="node"><title>Node30</title>
<g id="a_node29"><a xlink:href="classDGtal_1_1ImageContainerBySTLVector.html" target="_top" xlink:title="DGtal::ImageContainerBySTLVector\l\&lt; Domain, Storage * \&gt;">
<polygon fill="white" stroke="black" points="1393.5,-342.761 1393.5,-372.761 1578.5,-372.761 1578.5,-342.761 1393.5,-342.761"/>
<text text-anchor="start" x="1401.5" y="-360.761" font-family="FreeSans" font-size="10.00">DGtal::ImageContainerBySTLVector</text>
<text text-anchor="middle" x="1486" y="-349.761" font-family="FreeSans" font-size="10.00">&lt; Domain, Storage * &gt;</text>
</a>
</g>
</g>
<!-- Node12&#45;&gt;Node30 -->
<g id="edge46" class="edge"><title>Node12&#45;&gt;Node30</title>
<path fill="none" stroke="#9a32cd" stroke-dasharray="5,2" d="M351.188,-344.08C406.792,-350.456 485.631,-357.761 555,-357.761 555,-357.761 555,-357.761 1141.5,-357.761 1226.78,-357.761 1323.97,-357.761 1393.15,-357.761"/>
<polygon fill="#9a32cd" stroke="#9a32cd" points="351.422,-340.584 341.084,-342.902 350.611,-347.537 351.422,-340.584"/>
<text text-anchor="middle" x="806" y="-360.761" font-family="FreeSans" font-size="10.00"> myExtent</text>
</g>
<!-- Node13 -->
<g id="node12" class="node"><title>Node13</title>
<polygon fill="white" stroke="#bfbfbf" points="0,-325.261 0,-344.261 68,-344.261 68,-325.261 0,-325.261"/>
<text text-anchor="middle" x="34" y="-332.261" font-family="FreeSans" font-size="10.00">TContainer</text>
</g>
<!-- Node13&#45;&gt;Node12 -->
<g id="edge13" class="edge"><title>Node13&#45;&gt;Node12</title>
<path fill="none" stroke="#9a32cd" stroke-dasharray="5,2" d="M78.3739,-334.761C116.407,-334.761 172.149,-334.761 214.909,-334.761"/>
<polygon fill="#9a32cd" stroke="#9a32cd" points="78.1417,-331.261 68.1416,-334.761 78.1416,-338.261 78.1417,-331.261"/>
<text text-anchor="middle" x="124.5" y="-337.761" font-family="FreeSans" font-size="10.00"> myArray</text>
</g>
<!-- Node14&#45;&gt;Node2 -->
<g id="edge15" class="edge"><title>Node14&#45;&gt;Node2</title>
<path fill="none" stroke="#9a32cd" stroke-dasharray="5,2" d="M1803.63,-535.733C1865.27,-513.506 1990.39,-468.386 2055.7,-444.835"/>
<polygon fill="#9a32cd" stroke="#9a32cd" points="1802.17,-532.539 1793.95,-539.224 1804.54,-539.124 1802.17,-532.539"/>
<text text-anchor="middle" x="1924" y="-513.761" font-family="FreeSans" font-size="10.00"> myVCM</text>
</g>
<!-- Node15 -->
<g id="node14" class="node"><title>Node15</title>
<g id="a_node14"><a xlink:href="classDGtal_1_1SimpleMatrix.html" target="_top" xlink:title="Aim: implements basic MxN Matrix services (M,N&gt;=1). ">
<polygon fill="white" stroke="black" points="1417,-615.761 1417,-645.761 1555,-645.761 1555,-615.761 1417,-615.761"/>
<text text-anchor="start" x="1425" y="-633.761" font-family="FreeSans" font-size="10.00">DGtal::SimpleMatrix</text>
<text text-anchor="middle" x="1486" y="-622.761" font-family="FreeSans" font-size="10.00">&lt; TComponent, TM, TN &gt;</text>
</a>
</g>
</g>
<!-- Node15&#45;&gt;Node14 -->
<g id="edge16" class="edge"><title>Node15&#45;&gt;Node14</title>
<path fill="none" stroke="#9a32cd" stroke-dasharray="5,2" d="M1565.32,-622.552C1596.26,-617.988 1631.8,-611.072 1663,-600.761 1695.59,-589.992 1730.66,-570.22 1750.16,-558.405"/>
<polygon fill="#9a32cd" stroke="#9a32cd" points="1564.43,-619.143 1555.02,-624.011 1565.41,-626.074 1564.43,-619.143"/>
<text text-anchor="middle" x="1634" y="-618.761" font-family="FreeSans" font-size="10.00"> elements</text>
</g>
<!-- Node16&#45;&gt;Node15 -->
<g id="edge17" class="edge"><title>Node16&#45;&gt;Node15</title>
<path fill="none" stroke="#9a32cd" stroke-dasharray="5,2" d="M1217.43,-630.761C1277.02,-630.761 1359.24,-630.761 1416.75,-630.761"/>
<polygon fill="#9a32cd" stroke="#9a32cd" points="1217.32,-627.261 1207.32,-630.761 1217.32,-634.261 1217.32,-627.261"/>
<text text-anchor="middle" x="1309" y="-644.761" font-family="FreeSans" font-size="10.00"> myCofactorCoefs</text>
<text text-anchor="middle" x="1309" y="-633.761" font-family="FreeSans" font-size="10.00">myValues</text>
</g>
<!-- Node17&#45;&gt;Node14 -->
<g id="edge20" class="edge"><title>Node17&#45;&gt;Node14</title>
<path fill="none" stroke="orange" stroke-dasharray="5,2" d="M865.502,-604.16C1030.93,-593.977 1502.13,-564.973 1688.38,-553.508"/>
<polygon fill="orange" stroke="orange" points="865.285,-600.667 855.519,-604.775 865.715,-607.653 865.285,-600.667"/>
<text text-anchor="middle" x="1309" y="-583.761" font-family="FreeSans" font-size="10.00"> &lt; Point, MatrixNN &gt;</text>
</g>
<!-- Node18 -->
<g id="node17" class="node"><title>Node18</title>
<polygon fill="white" stroke="#bfbfbf" points="541.5,-536.261 541.5,-555.261 570.5,-555.261 570.5,-536.261 541.5,-536.261"/>
<text text-anchor="middle" x="556" y="-543.261" font-family="FreeSans" font-size="10.00">K</text>
</g>
<!-- Node18&#45;&gt;Node17 -->
<g id="edge21" class="edge"><title>Node18&#45;&gt;Node17</title>
<path fill="none" stroke="#9a32cd" stroke-dasharray="5,2" d="M580.45,-540.213C612.831,-533.649 672.604,-525.521 720,-541.761 752.874,-553.026 782.849,-582.762 796.784,-598.182"/>
<polygon fill="#9a32cd" stroke="#9a32cd" points="579.614,-536.812 570.577,-542.341 581.09,-543.655 579.614,-536.812"/>
<text text-anchor="middle" x="681" y="-544.761" font-family="FreeSans" font-size="10.00"> keys</text>
</g>
<!-- Node19&#45;&gt;Node2 -->
<g id="edge23" class="edge"><title>Node19&#45;&gt;Node2</title>
<path fill="none" stroke="#9a32cd" stroke-dasharray="5,2" d="M1243.37,-429.761C1427.13,-429.761 1812.04,-429.761 1995.73,-429.761"/>
<polygon fill="#9a32cd" stroke="#9a32cd" points="1243.17,-426.261 1233.17,-429.761 1243.17,-433.261 1243.17,-426.261"/>
<text text-anchor="middle" x="1634" y="-432.761" font-family="FreeSans" font-size="10.00"> myCharSet</text>
</g>
<!-- Node19&#45;&gt;Node30 -->
<g id="edge47" class="edge"><title>Node19&#45;&gt;Node30</title>
<path fill="none" stroke="orange" stroke-dasharray="5,2" d="M1215.8,-412.522C1227.56,-409.872 1239.61,-407.206 1251,-404.761 1303.06,-393.592 1361.82,-381.793 1407.43,-372.812"/>
<polygon fill="orange" stroke="orange" points="1214.98,-409.119 1206,-414.74 1216.52,-415.946 1214.98,-409.119"/>
<text text-anchor="middle" x="1309" y="-407.761" font-family="FreeSans" font-size="10.00"> &lt; Domain, Storage * &gt;</text>
</g>
<!-- Node20&#45;&gt;Node19 -->
<g id="edge24" class="edge"><title>Node20&#45;&gt;Node19</title>
<path fill="none" stroke="midnightblue" d="M877.247,-466.374C921.225,-462.085 979.022,-455.919 1030,-448.761 1038.5,-447.567 1047.36,-446.214 1056.19,-444.794"/>
<polygon fill="midnightblue" stroke="midnightblue" points="876.848,-462.896 867.231,-467.342 877.522,-469.864 876.848,-462.896"/>
</g>
<!-- Node21 -->
<g id="node20" class="node"><title>Node21</title>
<polygon fill="white" stroke="#bfbfbf" points="776.5,-425.261 776.5,-444.261 835.5,-444.261 835.5,-425.261 776.5,-425.261"/>
<text text-anchor="middle" x="806" y="-432.261" font-family="FreeSans" font-size="10.00">TDomain</text>
</g>
<!-- Node21&#45;&gt;Node19 -->
<g id="edge26" class="edge"><title>Node21&#45;&gt;Node19</title>
<path fill="none" stroke="#9a32cd" stroke-dasharray="5,2" d="M845.844,-434.177C895.045,-433.437 981.408,-432.138 1047.78,-431.14"/>
<polygon fill="#9a32cd" stroke="#9a32cd" points="845.583,-430.68 835.637,-434.33 845.688,-437.68 845.583,-430.68"/>
<text text-anchor="middle" x="961" y="-436.761" font-family="FreeSans" font-size="10.00"> myDomain</text>
</g>
<!-- Node22&#45;&gt;Node2 -->
<g id="edge28" class="edge"><title>Node22&#45;&gt;Node2</title>
<path fill="none" stroke="#9a32cd" stroke-dasharray="5,2" d="M1218.85,-232.917C1262.38,-233.224 1317.74,-233.979 1367,-235.761 1584.71,-243.638 1644.32,-240.963 1852,-306.761 1909.92,-325.11 1923.67,-332.571 1978,-359.761 2012.19,-376.871 2050.01,-399.73 2073.76,-414.597"/>
<polygon fill="#9a32cd" stroke="#9a32cd" points="1218.64,-229.416 1208.62,-232.852 1218.59,-236.416 1218.64,-229.416"/>
<text text-anchor="middle" x="1634" y="-259.761" font-family="FreeSans" font-size="10.00"> myDomain</text>
</g>
<!-- Node22&#45;&gt;Node29 -->
<g id="edge48" class="edge"><title>Node22&#45;&gt;Node29</title>
<path fill="none" stroke="#9a32cd" stroke-dasharray="5,2" d="M1218.86,-237.169C1321.51,-244.202 1507.83,-261.1 1663,-297.761 1683.98,-302.719 1706.8,-310.083 1725.57,-316.692"/>
<polygon fill="#9a32cd" stroke="#9a32cd" points="1218.8,-233.657 1208.59,-236.479 1218.33,-240.641 1218.8,-233.657"/>
<text text-anchor="middle" x="1486" y="-284.761" font-family="FreeSans" font-size="10.00"> myDomain</text>
</g>
<!-- Node22&#45;&gt;Node30 -->
<g id="edge45" class="edge"><title>Node22&#45;&gt;Node30</title>
<path fill="none" stroke="#9a32cd" stroke-dasharray="5,2" d="M1192.63,-251.367C1260.96,-276.235 1380.75,-319.823 1443.69,-342.727"/>
<polygon fill="#9a32cd" stroke="#9a32cd" points="1193.53,-247.97 1182.93,-247.839 1191.13,-254.548 1193.53,-247.97"/>
<text text-anchor="middle" x="1309" y="-316.761" font-family="FreeSans" font-size="10.00"> myDomain</text>
</g>
<!-- Node23 -->
<g id="node22" class="node"><title>Node23</title>
<g id="a_node22"><a xlink:href="classDGtal_1_1HyperRectDomain__Iterator.html" target="_top" xlink:title="Iterator for HyperRectDomain. ">
<polygon fill="white" stroke="black" points="488,-88.7611 488,-118.761 624,-118.761 624,-88.7611 488,-88.7611"/>
<text text-anchor="start" x="496" y="-106.761" font-family="FreeSans" font-size="10.00">DGtal::HyperRectDomain</text>
<text text-anchor="middle" x="556" y="-95.7611" font-family="FreeSans" font-size="10.00">_Iterator&lt; TPoint &gt;</text>
</a>
</g>
</g>
<!-- Node23&#45;&gt;Node22 -->
<g id="edge29" class="edge"><title>Node23&#45;&gt;Node22</title>
<path fill="none" stroke="#9a32cd" stroke-dasharray="5,2" d="M634.304,-104.694C698.976,-106.76 793.346,-112.778 874,-129.761 945.795,-144.879 961.783,-156.751 1030,-183.761 1056.53,-194.265 1086.02,-207.56 1107.71,-217.65"/>
<polygon fill="#9a32cd" stroke="#9a32cd" points="634.285,-101.192 624.187,-104.396 634.079,-108.189 634.285,-101.192"/>
<text text-anchor="middle" x="806" y="-143.761" font-family="FreeSans" font-size="10.00"> myIteratorEnd</text>
<text text-anchor="middle" x="806" y="-132.761" font-family="FreeSans" font-size="10.00">myIteratorBegin</text>
</g>
<!-- Node23&#45;&gt;Node28 -->
<g id="edge38" class="edge"><title>Node23&#45;&gt;Node28</title>
<path fill="none" stroke="#9a32cd" stroke-dasharray="5,2" d="M634.065,-116.153C661.542,-121.533 692.487,-128.708 720,-137.761 739.432,-144.156 760.327,-153.703 776.537,-161.751"/>
<polygon fill="#9a32cd" stroke="#9a32cd" points="634.591,-112.69 624.112,-114.252 633.278,-119.566 634.591,-112.69"/>
<text text-anchor="middle" x="681" y="-151.761" font-family="FreeSans" font-size="10.00"> myIteratorEnd</text>
<text text-anchor="middle" x="681" y="-140.761" font-family="FreeSans" font-size="10.00">myIteratorBegin</text>
</g>
<!-- Node24 -->
<g id="node23" class="node"><title>Node24</title>
<polygon fill="white" stroke="#bfbfbf" points="181,-55.7611 181,-151.761 375,-151.761 375,-55.7611 181,-55.7611"/>
<text text-anchor="start" x="189" y="-139.761" font-family="FreeSans" font-size="10.00">boost::iterator_facade</text>
<text text-anchor="start" x="189" y="-128.761" font-family="FreeSans" font-size="10.00">&lt; HyperRectDomain_Iterator</text>
<text text-anchor="start" x="189" y="-117.761" font-family="FreeSans" font-size="10.00">&lt; TPoint &gt;, TPoint const,</text>
<text text-anchor="start" x="189" y="-106.761" font-family="FreeSans" font-size="10.00"> std::random_access_iterator</text>
<text text-anchor="start" x="189" y="-95.7611" font-family="FreeSans" font-size="10.00">_tag, TPoint const &amp;, std::conditional</text>
<text text-anchor="start" x="189" y="-84.7611" font-family="FreeSans" font-size="10.00">&lt; std::is_same&lt; TPoint::Component,</text>
<text text-anchor="start" x="189" y="-73.7611" font-family="FreeSans" font-size="10.00"> BigInteger &gt;::value, BigInteger, std</text>
<text text-anchor="middle" x="278" y="-62.7611" font-family="FreeSans" font-size="10.00">::ptrdiff_t &gt;::type &gt;</text>
</g>
<!-- Node24&#45;&gt;Node23 -->
<g id="edge30" class="edge"><title>Node24&#45;&gt;Node23</title>
<path fill="none" stroke="midnightblue" d="M385.265,-103.761C419.749,-103.761 457.027,-103.761 487.841,-103.761"/>
<polygon fill="midnightblue" stroke="midnightblue" points="385.144,-100.261 375.144,-103.761 385.144,-107.261 385.144,-100.261"/>
</g>
<!-- Node25 -->
<g id="node24" class="node"><title>Node25</title>
<polygon fill="white" stroke="#bfbfbf" points="11,-48.2611 11,-67.2611 57,-67.2611 57,-48.2611 11,-48.2611"/>
<text text-anchor="middle" x="34" y="-55.2611" font-family="FreeSans" font-size="10.00">TPoint</text>
</g>
<!-- Node25&#45;&gt;Node23 -->
<g id="edge31" class="edge"><title>Node25&#45;&gt;Node23</title>
<path fill="none" stroke="#9a32cd" stroke-dasharray="5,2" d="M66.907,-44.8894C96.0606,-33.8659 140.646,-18.839 181,-12.7611 266.261,0.0802992 291.128,7.23471 375,-12.7611 436.652,-27.4596 501.105,-66.8638 533.579,-88.6906"/>
<polygon fill="#9a32cd" stroke="#9a32cd" points="65.3449,-41.7403 57.2708,-48.6003 67.8606,-48.2727 65.3449,-41.7403"/>
<text text-anchor="middle" x="278" y="-37.7611" font-family="FreeSans" font-size="10.00"> mylower</text>
<text text-anchor="middle" x="278" y="-26.7611" font-family="FreeSans" font-size="10.00">myupper</text>
<text text-anchor="middle" x="278" y="-15.7611" font-family="FreeSans" font-size="10.00">myPoint</text>
</g>
<!-- Node27 -->
<g id="node26" class="node"><title>Node27</title>
<g id="a_node26"><a xlink:href="structDGtal_1_1functors_1_1IsWithinPointPredicate.html" target="_top" xlink:title="Aim: The predicate returns true when the point is within the given bounds. ">
<polygon fill="white" stroke="black" points="209.5,-170.761 209.5,-200.761 346.5,-200.761 346.5,-170.761 209.5,-170.761"/>
<text text-anchor="start" x="217.5" y="-188.761" font-family="FreeSans" font-size="10.00">DGtal::functors::IsWithin</text>
<text text-anchor="middle" x="278" y="-177.761" font-family="FreeSans" font-size="10.00">PointPredicate&lt; TPoint &gt;</text>
</a>
</g>
</g>
<!-- Node25&#45;&gt;Node27 -->
<g id="edge35" class="edge"><title>Node25&#45;&gt;Node27</title>
<path fill="none" stroke="#9a32cd" stroke-dasharray="5,2" d="M53.5601,-74.2368C80.032,-96.9075 130.984,-137.545 181,-160.761 189.904,-164.894 199.603,-168.426 209.3,-171.42"/>
<polygon fill="#9a32cd" stroke="#9a32cd" points="55.7042,-71.4634 45.8577,-67.5523 51.1162,-76.7501 55.7042,-71.4634"/>
<text text-anchor="middle" x="124.5" y="-163.761" font-family="FreeSans" font-size="10.00"> myLowerBound</text>
<text text-anchor="middle" x="124.5" y="-152.761" font-family="FreeSans" font-size="10.00">myUpperBound</text>
</g>
<!-- Node26&#45;&gt;Node22 -->
<g id="edge32" class="edge"><title>Node26&#45;&gt;Node22</title>
<path fill="none" stroke="#9a32cd" stroke-dasharray="5,2" d="M632.198,-230.148C746.587,-230.738 962.551,-231.85 1072.11,-232.414"/>
<polygon fill="#9a32cd" stroke="#9a32cd" points="632.143,-226.648 622.125,-230.097 632.106,-233.648 632.143,-226.648"/>
<text text-anchor="middle" x="806" y="-234.761" font-family="FreeSans" font-size="10.00"> myPredicate</text>
</g>
<!-- Node26&#45;&gt;Node28 -->
<g id="edge39" class="edge"><title>Node26&#45;&gt;Node28</title>
<path fill="none" stroke="#9a32cd" stroke-dasharray="5,2" d="M623.095,-212.206C629.47,-210.648 635.851,-209.14 642,-207.761 673.34,-200.733 708.301,-193.946 737.784,-188.524"/>
<polygon fill="#9a32cd" stroke="#9a32cd" points="621.974,-208.878 613.112,-214.686 623.661,-215.671 621.974,-208.878"/>
<text text-anchor="middle" x="681" y="-210.761" font-family="FreeSans" font-size="10.00"> myPredicate</text>
</g>
<!-- Node27&#45;&gt;Node26 -->
<g id="edge34" class="edge"><title>Node27&#45;&gt;Node26</title>
<path fill="none" stroke="orange" stroke-dasharray="5,2" d="M356.884,-187.467C391.766,-189.358 433.236,-193.171 470,-200.761 485.881,-204.04 502.887,-209.44 517.483,-214.698"/>
<polygon fill="orange" stroke="orange" points="356.92,-183.965 346.757,-186.961 356.57,-190.956 356.92,-183.965"/>
<text text-anchor="middle" x="431.5" y="-203.761" font-family="FreeSans" font-size="10.00"> &lt; Point &gt;</text>
</g>
<!-- Node28&#45;&gt;Node22 -->
<g id="edge37" class="edge"><title>Node28&#45;&gt;Node22</title>
<path fill="none" stroke="orange" stroke-dasharray="5,2" d="M884.209,-185.827C927.262,-191.3 981.771,-198.92 1030,-207.761 1045.63,-210.627 1062.41,-214.201 1078.02,-217.743"/>
<polygon fill="orange" stroke="orange" points="884.443,-182.329 874.084,-184.553 883.569,-189.274 884.443,-182.329"/>
<text text-anchor="middle" x="961" y="-210.761" font-family="FreeSans" font-size="10.00"> &lt; Space &gt;</text>
</g>
<!-- Node29&#45;&gt;Node2 -->
<g id="edge41" class="edge"><title>Node29&#45;&gt;Node2</title>
<path fill="none" stroke="#9a32cd" stroke-dasharray="5,2" d="M1828.12,-349.762C1890.94,-368.419 1988.02,-397.248 2046.87,-414.727"/>
<polygon fill="#9a32cd" stroke="#9a32cd" points="1828.92,-346.351 1818.34,-346.859 1826.93,-353.061 1828.92,-346.351"/>
<text text-anchor="middle" x="1924" y="-395.761" font-family="FreeSans" font-size="10.00"> myProximityStructure</text>
</g>
<!-- Node30&#45;&gt;Node29 -->
<g id="edge42" class="edge"><title>Node30&#45;&gt;Node29</title>
<path fill="none" stroke="#9a32cd" stroke-dasharray="5,2" d="M1588.74,-348.263C1619.03,-345.435 1651.87,-342.369 1680.94,-339.656"/>
<polygon fill="#9a32cd" stroke="#9a32cd" points="1588.21,-344.797 1578.58,-349.212 1588.86,-351.767 1588.21,-344.797"/>
<text text-anchor="middle" x="1634" y="-349.761" font-family="FreeSans" font-size="10.00"> myArray</text>
</g>
<!-- Node31&#45;&gt;Node30 -->
<g id="edge43" class="edge"><title>Node31&#45;&gt;Node30</title>
<path fill="none" stroke="midnightblue" d="M1006.5,-542.5C1082,-521.13 1239.43,-474.115 1367,-419.761 1399.79,-405.792 1435.83,-386.193 1459.34,-372.793"/>
<polygon fill="midnightblue" stroke="midnightblue" points="1005.51,-539.141 996.832,-545.221 1007.41,-545.879 1005.51,-539.141"/>
</g>
</g>
</svg>
