<?xml version="1.0" encoding="UTF-8" standalone="no"?>
<!DOCTYPE svg PUBLIC "-//W3C//DTD SVG 1.1//EN"
 "http://www.w3.org/Graphics/SVG/1.1/DTD/svg11.dtd">
<!-- Generated by graphviz version 2.36.0 (20140111.2315)
 -->
<!-- Title: DGtal::StarShaped2D&lt; TSpace &gt; Pages: 1 -->
<svg width="618pt" height="328pt"
 viewBox="0.00 0.00 618.00 328.00" xmlns="http://www.w3.org/2000/svg" xmlns:xlink="http://www.w3.org/1999/xlink">
<g id="graph0" class="graph" transform="scale(1 1) rotate(0) translate(4 324)">
<title>DGtal::StarShaped2D&lt; TSpace &gt;</title>
<polygon fill="white" stroke="none" points="-4,4 -4,-324 614,-324 614,4 -4,4"/>
<!-- Node0 -->
<g id="node1" class="node"><title>Node0</title>
<polygon fill="#bfbfbf" stroke="black" points="0,-151 0,-181 120,-181 120,-151 0,-151"/>
<text text-anchor="start" x="8" y="-169" font-family="FreeSans" font-size="10.00">DGtal::StarShaped2D</text>
<text text-anchor="middle" x="60" y="-158" font-family="FreeSans" font-size="10.00">&lt; TSpace &gt;</text>
</g>
<!-- Node1 -->
<g id="node2" class="node"><title>Node1</title>
<g id="a_node2"><a xlink:href="classDGtal_1_1AccFlower2D.html" target="_top" xlink:title="Aim: Model of the concept StarShaped represents any accelerated flower in the plane. ">
<polygon fill="white" stroke="black" points="235,-290 235,-320 345,-320 345,-290 235,-290"/>
<text text-anchor="start" x="243" y="-308" font-family="FreeSans" font-size="10.00">DGtal::AccFlower2D</text>
<text text-anchor="middle" x="290" y="-297" font-family="FreeSans" font-size="10.00">&lt; TSpace &gt;</text>
</a>
</g>
</g>
<!-- Node0&#45;&gt;Node1 -->
<g id="edge1" class="edge"><title>Node0&#45;&gt;Node1</title>
<path fill="none" stroke="midnightblue" d="M83.0744,-188.28C97.9344,-202.708 118.338,-221.448 138,-236 168.757,-258.762 177.143,-264.217 212,-280 219.938,-283.594 228.548,-286.914 237.038,-289.882"/>
<polygon fill="midnightblue" stroke="midnightblue" points="85.428,-185.686 75.8421,-181.174 80.5218,-190.679 85.428,-185.686"/>
</g>
<!-- Node2 -->
<g id="node3" class="node"><title>Node2</title>
<g id="a_node3"><a xlink:href="classDGtal_1_1Astroid2D.html" target="_top" xlink:title="Aim: Model of the concept StarShaped represents an astroid. ">
<polygon fill="white" stroke="black" points="212.5,-251.5 212.5,-270.5 367.5,-270.5 367.5,-251.5 212.5,-251.5"/>
<text text-anchor="middle" x="290" y="-258.5" font-family="FreeSans" font-size="10.00">DGtal::Astroid2D&lt; TSpace &gt;</text>
</a>
</g>
</g>
<!-- Node0&#45;&gt;Node2 -->
<g id="edge2" class="edge"><title>Node0&#45;&gt;Node2</title>
<path fill="none" stroke="midnightblue" d="M94.1709,-186.146C124,-203.409 169.531,-227.688 212,-242 222.569,-245.562 234.158,-248.772 245.065,-251.496"/>
<polygon fill="midnightblue" stroke="midnightblue" points="95.8365,-183.065 85.4385,-181.032 92.2992,-189.105 95.8365,-183.065"/>
</g>
<!-- Node4 -->
<g id="node5" class="node"><title>Node4</title>
<g id="a_node5"><a xlink:href="classDGtal_1_1Ball2D.html" target="_top" xlink:title="Aim: Model of the concept StarShaped represents any circle in the plane. ">
<polygon fill="white" stroke="black" points="221,-213.5 221,-232.5 359,-232.5 359,-213.5 221,-213.5"/>
<text text-anchor="middle" x="290" y="-220.5" font-family="FreeSans" font-size="10.00">DGtal::Ball2D&lt; TSpace &gt;</text>
</a>
</g>
</g>
<!-- Node0&#45;&gt;Node4 -->
<g id="edge4" class="edge"><title>Node0&#45;&gt;Node4</title>
<path fill="none" stroke="midnightblue" d="M119.477,-183.924C125.714,-185.699 131.977,-187.424 138,-189 172.966,-198.147 212.871,-207.068 242.875,-213.475"/>
<polygon fill="midnightblue" stroke="midnightblue" points="120.317,-180.524 109.738,-181.109 118.373,-187.248 120.317,-180.524"/>
</g>
<!-- Node5 -->
<g id="node6" class="node"><title>Node5</title>
<g id="a_node6"><a xlink:href="classDGtal_1_1Ellipse2D.html" target="_top" xlink:title="Aim: Model of the concept StarShaped represents any ellipse in the plane. ">
<polygon fill="white" stroke="black" points="214.5,-175.5 214.5,-194.5 365.5,-194.5 365.5,-175.5 214.5,-175.5"/>
<text text-anchor="middle" x="290" y="-182.5" font-family="FreeSans" font-size="10.00">DGtal::Ellipse2D&lt; TSpace &gt;</text>
</a>
</g>
</g>
<!-- Node0&#45;&gt;Node5 -->
<g id="edge5" class="edge"><title>Node0&#45;&gt;Node5</title>
<path fill="none" stroke="midnightblue" d="M130.009,-171.751C156.629,-173.969 187.148,-176.512 214.284,-178.774"/>
<polygon fill="midnightblue" stroke="midnightblue" points="130.268,-168.26 120.012,-170.918 129.687,-175.236 130.268,-168.26"/>
</g>
<!-- Node6 -->
<g id="node7" class="node"><title>Node6</title>
<g id="a_node7"><a xlink:href="classDGtal_1_1Flower2D.html" target="_top" xlink:title="Aim: Model of the concept StarShaped represents any flower with k&#45;petals in the plane. ">
<polygon fill="white" stroke="black" points="214.5,-137.5 214.5,-156.5 365.5,-156.5 365.5,-137.5 214.5,-137.5"/>
<text text-anchor="middle" x="290" y="-144.5" font-family="FreeSans" font-size="10.00">DGtal::Flower2D&lt; TSpace &gt;</text>
</a>
</g>
</g>
<!-- Node0&#45;&gt;Node6 -->
<g id="edge6" class="edge"><title>Node0&#45;&gt;Node6</title>
<path fill="none" stroke="midnightblue" d="M130.009,-160.249C156.629,-158.031 187.148,-155.488 214.284,-153.226"/>
<polygon fill="midnightblue" stroke="midnightblue" points="129.687,-156.764 120.012,-161.082 130.268,-163.74 129.687,-156.764"/>
</g>
<!-- Node7 -->
<g id="node8" class="node"><title>Node7</title>
<g id="a_node8"><a xlink:href="classDGtal_1_1Lemniscate2D.html" target="_top" xlink:title="Aim: Model of the concept StarShaped represents a lemniscate. ">
<polygon fill="white" stroke="black" points="230.5,-88 230.5,-118 349.5,-118 349.5,-88 230.5,-88"/>
<text text-anchor="start" x="238.5" y="-106" font-family="FreeSans" font-size="10.00">DGtal::Lemniscate2D</text>
<text text-anchor="middle" x="290" y="-95" font-family="FreeSans" font-size="10.00">&lt; TSpace &gt;</text>
</a>
</g>
</g>
<!-- Node0&#45;&gt;Node7 -->
<g id="edge7" class="edge"><title>Node0&#45;&gt;Node7</title>
<path fill="none" stroke="midnightblue" d="M125.302,-148.232C159.804,-138.699 201.856,-127.079 234.699,-118.004"/>
<polygon fill="midnightblue" stroke="midnightblue" points="124.029,-144.953 115.322,-150.99 125.893,-151.7 124.029,-144.953"/>
</g>
<!-- Node8 -->
<g id="node9" class="node"><title>Node8</title>
<g id="a_node9"><a xlink:href="classDGtal_1_1NGon2D.html" target="_top" xlink:title="Aim: Model of the concept StarShaped represents any regular k&#45;gon in the plane. ">
<polygon fill="white" stroke="black" points="216,-49.5 216,-68.5 364,-68.5 364,-49.5 216,-49.5"/>
<text text-anchor="middle" x="290" y="-56.5" font-family="FreeSans" font-size="10.00">DGtal::NGon2D&lt; TSpace &gt;</text>
</a>
</g>
</g>
<!-- Node0&#45;&gt;Node8 -->
<g id="edge8" class="edge"><title>Node0&#45;&gt;Node8</title>
<path fill="none" stroke="midnightblue" d="M91.0833,-144.979C120.647,-125.183 167.653,-95.9597 212,-78 221.189,-74.2787 231.3,-71.1478 241.087,-68.5694"/>
<polygon fill="midnightblue" stroke="midnightblue" points="88.8087,-142.293 82.4907,-150.798 92.7335,-148.089 88.8087,-142.293"/>
</g>
<!-- Node9 -->
<g id="node10" class="node"><title>Node9</title>
<g id="a_node10"><a xlink:href="classDGtal_1_1StarShaped2D.html" target="_top" xlink:title="DGtal::StarShaped2D\l\&lt; Space \&gt;">
<polygon fill="white" stroke="black" points="230,-0 230,-30 350,-30 350,-0 230,-0"/>
<text text-anchor="start" x="238" y="-18" font-family="FreeSans" font-size="10.00">DGtal::StarShaped2D</text>
<text text-anchor="middle" x="290" y="-7" font-family="FreeSans" font-size="10.00">&lt; Space &gt;</text>
</a>
</g>
</g>
<!-- Node0&#45;&gt;Node9 -->
<g id="edge9" class="edge"><title>Node0&#45;&gt;Node9</title>
<path fill="none" stroke="orange" stroke-dasharray="5,2" d="M75.8733,-142.494C89.8493,-121.944 112.404,-92.4324 138,-73 165.064,-52.4531 200.278,-38.372 229.892,-29.2348"/>
<polygon fill="orange" stroke="orange" points="72.8641,-140.698 70.2503,-150.966 78.6964,-144.569 72.8641,-140.698"/>
<text text-anchor="middle" x="166" y="-76" font-family="FreeSans" font-size="10.00"> &lt; Space &gt;</text>
</g>
<!-- Node3 -->
<g id="node4" class="node"><title>Node3</title>
<g id="a_node4"><a xlink:href="classDGtal_1_1Astroid2D.html" target="_top" xlink:title="DGtal::Astroid2D\&lt; Space \&gt;">
<polygon fill="white" stroke="black" points="460.5,-154.5 460.5,-173.5 609.5,-173.5 609.5,-154.5 460.5,-154.5"/>
<text text-anchor="middle" x="535" y="-161.5" font-family="FreeSans" font-size="10.00">DGtal::Astroid2D&lt; Space &gt;</text>
</a>
</g>
</g>
<!-- Node2&#45;&gt;Node3 -->
<g id="edge3" class="edge"><title>Node2&#45;&gt;Node3</title>
<path fill="none" stroke="orange" stroke-dasharray="5,2" d="M345.98,-248.845C353.449,-246.785 360.961,-244.494 368,-242 424.125,-222.109 486.83,-189.658 516.554,-173.61"/>
<polygon fill="orange" stroke="orange" points="345.004,-245.483 336.229,-251.42 346.791,-252.251 345.004,-245.483"/>
<text text-anchor="middle" x="414" y="-238" font-family="FreeSans" font-size="10.00"> &lt; Space &gt;</text>
</g>
<!-- Node9&#45;&gt;Node3 -->
<g id="edge10" class="edge"><title>Node9&#45;&gt;Node3</title>
<path fill="none" stroke="midnightblue" d="M354.536,-33.7636C359.167,-35.6954 363.702,-37.7745 368,-40 432.528,-73.4099 498.578,-131.3 523.571,-154.235"/>
<polygon fill="midnightblue" stroke="midnightblue" points="355.53,-30.394 344.942,-30.0052 352.976,-36.9117 355.53,-30.394"/>
</g>
</g>
</svg>
