<?xml version="1.0" encoding="UTF-8" standalone="no"?>
<!DOCTYPE svg PUBLIC "-//W3C//DTD SVG 1.1//EN"
 "http://www.w3.org/Graphics/SVG/1.1/DTD/svg11.dtd">
<!-- Generated by graphviz version 2.36.0 (20140111.2315)
 -->
<!-- Title: DGtal::HyperRectDomain_Iterator&lt; TPoint &gt; Pages: 1 -->
<svg width="418pt" height="143pt"
 viewBox="0.00 0.00 418.00 143.00" xmlns="http://www.w3.org/2000/svg" xmlns:xlink="http://www.w3.org/1999/xlink">
<g id="graph0" class="graph" transform="scale(1 1) rotate(0) translate(4 139)">
<title>DGtal::HyperRectDomain_Iterator&lt; TPoint &gt;</title>
<polygon fill="white" stroke="none" points="-4,4 -4,-139 414,-139 414,4 -4,4"/>
<!-- Node2 -->
<g id="node1" class="node"><title>Node2</title>
<polygon fill="#bfbfbf" stroke="black" points="274,-33 274,-63 410,-63 410,-33 274,-33"/>
<text text-anchor="start" x="282" y="-51" font-family="FreeSans" font-size="10.00">DGtal::HyperRectDomain</text>
<text text-anchor="middle" x="342" y="-40" font-family="FreeSans" font-size="10.00">_Iterator&lt; TPoint &gt;</text>
</g>
<!-- Node3 -->
<g id="node2" class="node"><title>Node3</title>
<polygon fill="white" stroke="#bfbfbf" points="0,-39 0,-135 194,-135 194,-39 0,-39"/>
<text text-anchor="start" x="8" y="-123" font-family="FreeSans" font-size="10.00">boost::iterator_facade</text>
<text text-anchor="start" x="8" y="-112" font-family="FreeSans" font-size="10.00">&lt; HyperRectDomain_Iterator</text>
<text text-anchor="start" x="8" y="-101" font-family="FreeSans" font-size="10.00">&lt; TPoint &gt;, TPoint const,</text>
<text text-anchor="start" x="8" y="-90" font-family="FreeSans" font-size="10.00"> std::random_access_iterator</text>
<text text-anchor="start" x="8" y="-79" font-family="FreeSans" font-size="10.00">_tag, TPoint const &amp;, std::conditional</text>
<text text-anchor="start" x="8" y="-68" font-family="FreeSans" font-size="10.00">&lt; std::is_same&lt; TPoint::Component,</text>
<text text-anchor="start" x="8" y="-57" font-family="FreeSans" font-size="10.00"> BigInteger &gt;::value, BigInteger, std</text>
<text text-anchor="middle" x="97" y="-46" font-family="FreeSans" font-size="10.00">::ptrdiff_t &gt;::type &gt;</text>
</g>
<!-- Node3&#45;&gt;Node2 -->
<g id="edge1" class="edge"><title>Node3&#45;&gt;Node2</title>
<path fill="none" stroke="midnightblue" d="M204.23,-79.5712C221.605,-77.5955 239.359,-75.1128 256,-72 268.209,-69.7163 281.201,-66.475 293.259,-63.1108"/>
<polygon fill="midnightblue" stroke="midnightblue" points="203.619,-76.1169 194.055,-80.6768 204.375,-83.076 203.619,-76.1169"/>
</g>
<!-- Node4 -->
<g id="node3" class="node"><title>Node4</title>
<polygon fill="white" stroke="#bfbfbf" points="74,-0.5 74,-19.5 120,-19.5 120,-0.5 74,-0.5"/>
<text text-anchor="middle" x="97" y="-7.5" font-family="FreeSans" font-size="10.00">TPoint</text>
</g>
<!-- Node4&#45;&gt;Node2 -->
<g id="edge2" class="edge"><title>Node4&#45;&gt;Node2</title>
<path fill="none" stroke="#9a32cd" stroke-dasharray="5,2" d="M130.5,-15.0824C166.984,-20.7876 227.18,-30.201 273.875,-37.5031"/>
<polygon fill="#9a32cd" stroke="#9a32cd" points="130.846,-11.594 120.425,-13.5068 129.764,-18.5099 130.846,-11.594"/>
<text text-anchor="middle" x="234" y="-60" font-family="FreeSans" font-size="10.00"> mylower</text>
<text text-anchor="middle" x="234" y="-49" font-family="FreeSans" font-size="10.00">myupper</text>
<text text-anchor="middle" x="234" y="-38" font-family="FreeSans" font-size="10.00">myPoint</text>
</g>
</g>
</svg>
