<?xml version="1.0" encoding="UTF-8" standalone="no"?>
<!DOCTYPE svg PUBLIC "-//W3C//DTD SVG 1.1//EN"
 "http://www.w3.org/Graphics/SVG/1.1/DTD/svg11.dtd">
<!-- Generated by graphviz version 2.38.0 (20140413.2041)
 -->
<!-- Title: DGtal::ArithmeticalDSSComputer&lt; TIterator, TInteger, adjacency &gt; Pages: 1 -->
<!--zoomable 110 -->
<svg id="main" version="1.1" xmlns="http://www.w3.org/2000/svg" xmlns:xlink="http://www.w3.org/1999/xlink" xml:space="preserve" onload="init(evt)">
<style type="text/css"><![CDATA[
.edge:hover path { stroke: red; }
.edge:hover polygon { stroke: red; fill: red; }
]]></style>
<script type="text/javascript"><![CDATA[
var edges = document.getElementsByTagName('g');
if (edges && edges.length) {
  for (var i=0;i<edges.length;i++) {
    if (edges[i].id.substr(0,4)=='edge') {
      edges[i].setAttribute('class','edge');
    }
  }
}
]]></script>
        <defs>
                <circle id="rim" cx="0" cy="0" r="7"/>
                <circle id="rim2" cx="0" cy="0" r="3.5"/>
                <g id="zoomPlus">
                        <use xlink:href="#rim" fill="#404040">
                                <set attributeName="fill" to="#808080" begin="zoomplus.mouseover" end="zoomplus.mouseout"/>
                        </use>
                        <path d="M-4,0h8M0,-4v8" fill="none" stroke="white" stroke-width="1.5" pointer-events="none"/>
                </g>
                <g id="zoomMin">
                        <use xlink:href="#rim" fill="#404040">
                                <set attributeName="fill" to="#808080" begin="zoomminus.mouseover" end="zoomminus.mouseout"/>
                        </use>
                        <path d="M-4,0h8" fill="none" stroke="white" stroke-width="1.5" pointer-events="none"/>
                </g>
                <g id="dirArrow">
                        <path fill="none" stroke="white" stroke-width="1.5" d="M0,-3.0v7 M-2.5,-0.5L0,-3.0L2.5,-0.5"/>
                </g>
               <g id="resetDef">
                       <use xlink:href="#rim2" fill="#404040">
                               <set attributeName="fill" to="#808080" begin="reset.mouseover" end="reset.mouseout"/>
                       </use>
               </g>
        </defs>

<script type="text/javascript">
var viewWidth = 517;
var viewHeight = 110;
var sectionId = 'dynsection-0';
</script>
<script xlink:href="svgpan.js"/>
<svg id="graph" class="graph">
<g id="viewport">
<title>DGtal::ArithmeticalDSSComputer&lt; TIterator, TInteger, adjacency &gt;</title>
<polygon fill="white" stroke="none" points="-4,4 -4,-106 513,-106 513,4 -4,4"/>
<!-- Node0 -->
<g id="node1" class="node"><title>Node0</title>
<polygon fill="#bfbfbf" stroke="black" points="0,-36 0,-66 179,-66 179,-36 0,-36"/>
<text text-anchor="start" x="8" y="-54" font-family="FreeSans" font-size="10.00">DGtal::ArithmeticalDSSComputer</text>
<text text-anchor="middle" x="89.5" y="-43" font-family="FreeSans" font-size="10.00">&lt; TIterator, TInteger, adjacency &gt;</text>
</g>
<!-- Node1 -->
<g id="node2" class="node"><title>Node1</title>
<g id="a_node2"><a xlink:href="classDGtal_1_1ArithmeticalDSSComputer.html" target="_top" xlink:title="DGtal::ArithmeticalDSSComputer\l\&lt; IteratorAdapter, TInteger,\l connectivity \&gt;">
<polygon fill="white" stroke="black" points="333,-60.5 333,-101.5 509,-101.5 509,-60.5 333,-60.5"/>
<text text-anchor="start" x="341" y="-89.5" font-family="FreeSans" font-size="10.00">DGtal::ArithmeticalDSSComputer</text>
<text text-anchor="start" x="341" y="-78.5" font-family="FreeSans" font-size="10.00">&lt; IteratorAdapter, TInteger,</text>
<text text-anchor="middle" x="421" y="-67.5" font-family="FreeSans" font-size="10.00"> connectivity &gt;</text>
</a>
</g>
</g>
<!-- Node0&#45;&gt;Node1 -->
<g id="edge1" class="edge"><title>Node0&#45;&gt;Node1</title>
<path fill="none" stroke="orange" stroke-dasharray="5,2" d="M189.439,-60.0081C235.061,-64.1618 288.74,-69.0492 332.82,-73.0625"/>
<polygon fill="orange" stroke="orange" points="189.51,-56.5001 179.233,-59.0789 188.875,-63.4713 189.51,-56.5001"/>
<text text-anchor="start" x="197.5" y="-86" font-family="FreeSans" font-size="10.00"> &lt; IteratorAdapter,</text>
<text text-anchor="middle" x="256" y="-75" font-family="FreeSans" font-size="10.00"> TInteger, connectivity &gt;</text>
</g>
<!-- Node2 -->
<g id="node3" class="node"><title>Node2</title>
<g id="a_node3"><a xlink:href="classDGtal_1_1ArithmeticalDSSComputer.html" target="_top" xlink:title="DGtal::ArithmeticalDSSComputer\l\&lt; std::vector\&lt; Z2i::Point\l \&gt;::const_iterator, int, 4 \&gt;">
<polygon fill="white" stroke="black" points="333,-0.5 333,-41.5 509,-41.5 509,-0.5 333,-0.5"/>
<text text-anchor="start" x="341" y="-29.5" font-family="FreeSans" font-size="10.00">DGtal::ArithmeticalDSSComputer</text>
<text text-anchor="start" x="341" y="-18.5" font-family="FreeSans" font-size="10.00">&lt; std::vector&lt; Z2i::Point</text>
<text text-anchor="middle" x="421" y="-7.5" font-family="FreeSans" font-size="10.00"> &gt;::const_iterator, int, 4 &gt;</text>
</a>
</g>
</g>
<!-- Node0&#45;&gt;Node2 -->
<g id="edge2" class="edge"><title>Node0&#45;&gt;Node2</title>
<path fill="none" stroke="orange" stroke-dasharray="5,2" d="M149.481,-33.4265C164.815,-29.5826 181.409,-26.0521 197,-24 241.53,-18.1389 291.491,-16.9734 332.819,-17.4516"/>
<polygon fill="orange" stroke="orange" points="148.411,-30.0881 139.609,-35.9854 150.168,-36.8641 148.411,-30.0881"/>
<text text-anchor="start" x="197" y="-49" font-family="FreeSans" font-size="10.00"> &lt; std::vector&lt; Z2i</text>
<text text-anchor="start" x="197" y="-38" font-family="FreeSans" font-size="10.00">::Point &gt;::const_iterator,</text>
<text text-anchor="middle" x="256" y="-27" font-family="FreeSans" font-size="10.00"> int, 4 &gt;</text>
</g>
</g>
</svg>
        <g id="navigator" transform="translate(0 0)" fill="#404254">
                <rect fill="#f2f5e9" fill-opacity="0.5" stroke="#606060" stroke-width=".5" x="0" y="0" width="60" height="60"/>
                <use id="zoomplus" xlink:href="#zoomPlus" x="17" y="9" onmousedown="handleZoom(evt,'in')"/>
                <use id="zoomminus" xlink:href="#zoomMin" x="42" y="9" onmousedown="handleZoom(evt,'out')"/>
                <use id="reset" xlink:href="#resetDef" x="30" y="36" onmousedown="handleReset()"/>
                <g id="arrowUp" xlink:href="#dirArrow" transform="translate(30 24)" onmousedown="handlePan(0,-1)">
                  <use xlink:href="#rim" fill="#404040">
                        <set attributeName="fill" to="#808080" begin="arrowUp.mouseover" end="arrowUp.mouseout"/>
                  </use>
                  <path fill="none" stroke="white" stroke-width="1.5" d="M0,-3.0v7 M-2.5,-0.5L0,-3.0L2.5,-0.5"/>
                </g>
                <g id="arrowRight" xlink:href="#dirArrow" transform="rotate(90) translate(36 -43)" onmousedown="handlePan(1,0)">
                  <use xlink:href="#rim" fill="#404040">
                        <set attributeName="fill" to="#808080" begin="arrowRight.mouseover" end="arrowRight.mouseout"/>
                  </use>
                  <path fill="none" stroke="white" stroke-width="1.5" d="M0,-3.0v7 M-2.5,-0.5L0,-3.0L2.5,-0.5"/>
                </g>
                <g id="arrowDown" xlink:href="#dirArrow" transform="rotate(180) translate(-30 -48)" onmousedown="handlePan(0,1)">
                  <use xlink:href="#rim" fill="#404040">
                        <set attributeName="fill" to="#808080" begin="arrowDown.mouseover" end="arrowDown.mouseout"/>
                  </use>
                  <path fill="none" stroke="white" stroke-width="1.5" d="M0,-3.0v7 M-2.5,-0.5L0,-3.0L2.5,-0.5"/>
                </g>
                <g id="arrowLeft" xlink:href="#dirArrow" transform="rotate(270) translate(-36 17)" onmousedown="handlePan(-1,0)">
                  <use xlink:href="#rim" fill="#404040">
                        <set attributeName="fill" to="#808080" begin="arrowLeft.mouseover" end="arrowLeft.mouseout"/>
                  </use>
                  <path fill="none" stroke="white" stroke-width="1.5" d="M0,-3.0v7 M-2.5,-0.5L0,-3.0L2.5,-0.5"/>
                </g>
        </g>
        <svg viewBox="0 0 15 15" width="100%" height="30px" preserveAspectRatio="xMaxYMin meet">
         <g id="arrow_out" transform="scale(0.3 0.3)">
          <a xlink:href="classDGtal_1_1ArithmeticalDSSComputer__inherit__graph_org.svg" target="_base">
           <rect id="button" ry="5" rx="5" y="6" x="6" height="38" width="38"
                fill="#f2f5e9" fill-opacity="0.5" stroke="#606060" stroke-width="1.0"/>
           <path id="arrow"
             d="M 11.500037,31.436501 C 11.940474,20.09759 22.043105,11.32322 32.158766,21.979434 L 37.068811,17.246167 C 37.068811,17.246167 37.088388,32 37.088388,32 L 22.160133,31.978069 C 22.160133,31.978069 26.997745,27.140456 26.997745,27.140456 C 18.528582,18.264221 13.291696,25.230495 11.500037,31.436501 z"
             style="fill:#404040;"/>
          </a>
         </g>
        </svg>
</svg>
