<?xml version="1.0" encoding="UTF-8" standalone="no"?>
<!DOCTYPE svg PUBLIC "-//W3C//DTD SVG 1.1//EN"
 "http://www.w3.org/Graphics/SVG/1.1/DTD/svg11.dtd">
<!-- Generated by graphviz version 2.36.0 (20140111.2315)
 -->
<!-- Title: DGtal::LambdaMST3DBy2D&lt; Iterator3D, LambdaFunctor, CONNECTIVITY &gt; Pages: 1 -->
<svg width="866pt" height="61pt"
 viewBox="0.00 0.00 866.00 61.00" xmlns="http://www.w3.org/2000/svg" xmlns:xlink="http://www.w3.org/1999/xlink">
<g id="graph0" class="graph" transform="scale(1 1) rotate(0) translate(4 57)">
<title>DGtal::LambdaMST3DBy2D&lt; Iterator3D, LambdaFunctor, CONNECTIVITY &gt;</title>
<polygon fill="white" stroke="none" points="-4,4 -4,-57 862,-57 862,4 -4,4"/>
<!-- Node0 -->
<g id="node1" class="node"><title>Node0</title>
<polygon fill="#bfbfbf" stroke="black" points="698,0.5 698,-40.5 858,-40.5 858,0.5 698,0.5"/>
<text text-anchor="start" x="706" y="-28.5" font-family="FreeSans" font-size="10.00">DGtal::LambdaMST3DBy2D</text>
<text text-anchor="start" x="706" y="-17.5" font-family="FreeSans" font-size="10.00">&lt; Iterator3D, LambdaFunctor,</text>
<text text-anchor="middle" x="778" y="-6.5" font-family="FreeSans" font-size="10.00"> CONNECTIVITY &gt;</text>
</g>
<!-- Node1 -->
<g id="node2" class="node"><title>Node1</title>
<g id="a_node2"><a xlink:href="classDGtal_1_1LambdaMST3DBy2DEstimator.html" target="_top" xlink:title="DGtal::LambdaMST3DBy2DEstimator\l\&lt; Iterator3D, TangentFromDSS3DBy2DFunctor,\l LambdaFunctor, CONNECTIVITY \&gt;">
<polygon fill="white" stroke="black" points="418,0.5 418,-40.5 660,-40.5 660,0.5 418,0.5"/>
<text text-anchor="start" x="426" y="-28.5" font-family="FreeSans" font-size="10.00">DGtal::LambdaMST3DBy2DEstimator</text>
<text text-anchor="start" x="426" y="-17.5" font-family="FreeSans" font-size="10.00">&lt; Iterator3D, TangentFromDSS3DBy2DFunctor,</text>
<text text-anchor="middle" x="539" y="-6.5" font-family="FreeSans" font-size="10.00"> LambdaFunctor, CONNECTIVITY &gt;</text>
</a>
</g>
</g>
<!-- Node1&#45;&gt;Node0 -->
<g id="edge1" class="edge"><title>Node1&#45;&gt;Node0</title>
<path fill="none" stroke="midnightblue" d="M670.354,-20C679.654,-20 688.855,-20 697.725,-20"/>
<polygon fill="midnightblue" stroke="midnightblue" points="670.236,-16.5001 660.236,-20 670.236,-23.5001 670.236,-16.5001"/>
</g>
<!-- Node2 -->
<g id="node3" class="node"><title>Node2</title>
<g id="a_node3"><a xlink:href="classDGtal_1_1LambdaMST3DBy2DEstimator.html" target="_top" xlink:title="DGtal::LambdaMST3DBy2DEstimator\l\&lt; Iterator3D, Functor, LambdaFunctor,\l CONNECTIVITY \&gt;">
<polygon fill="white" stroke="black" points="0.5,0.5 0.5,-40.5 201.5,-40.5 201.5,0.5 0.5,0.5"/>
<text text-anchor="start" x="8.5" y="-28.5" font-family="FreeSans" font-size="10.00">DGtal::LambdaMST3DBy2DEstimator</text>
<text text-anchor="start" x="8.5" y="-17.5" font-family="FreeSans" font-size="10.00">&lt; Iterator3D, Functor, LambdaFunctor,</text>
<text text-anchor="middle" x="101" y="-6.5" font-family="FreeSans" font-size="10.00"> CONNECTIVITY &gt;</text>
</a>
</g>
</g>
<!-- Node2&#45;&gt;Node1 -->
<g id="edge2" class="edge"><title>Node2&#45;&gt;Node1</title>
<path fill="none" stroke="orange" stroke-dasharray="5,2" d="M212.073,-20C274.779,-20 353.419,-20 417.742,-20"/>
<polygon fill="orange" stroke="orange" points="211.754,-16.5001 201.754,-20 211.754,-23.5001 211.754,-16.5001"/>
<text text-anchor="start" x="220.5" y="-45" font-family="FreeSans" font-size="10.00"> &lt; Iterator3D, TangentFrom</text>
<text text-anchor="start" x="220.5" y="-34" font-family="FreeSans" font-size="10.00">DSS3DBy2DFunctor, LambdaFunctor,</text>
<text text-anchor="middle" x="310" y="-23" font-family="FreeSans" font-size="10.00"> CONNECTIVITY &gt;</text>
</g>
</g>
</svg>
