<?xml version="1.0" encoding="UTF-8" standalone="no"?>
<!DOCTYPE svg PUBLIC "-//W3C//DTD SVG 1.1//EN"
 "http://www.w3.org/Graphics/SVG/1.1/DTD/svg11.dtd">
<!-- Generated by graphviz version 2.38.0 (20140413.2041)
 -->
<!-- Title: DGtal::COBANaivePlaneComputer&lt; TSpace, TInternalInteger &gt; Pages: 1 -->
<!--zoomable 736 -->
<svg id="main" version="1.1" xmlns="http://www.w3.org/2000/svg" xmlns:xlink="http://www.w3.org/1999/xlink" xml:space="preserve" onload="init(evt)">
<style type="text/css"><![CDATA[
.edge:hover path { stroke: red; }
.edge:hover polygon { stroke: red; fill: red; }
]]></style>
<script type="text/javascript"><![CDATA[
var edges = document.getElementsByTagName('g');
if (edges && edges.length) {
  for (var i=0;i<edges.length;i++) {
    if (edges[i].id.substr(0,4)=='edge') {
      edges[i].setAttribute('class','edge');
    }
  }
}
]]></script>
        <defs>
                <circle id="rim" cx="0" cy="0" r="7"/>
                <circle id="rim2" cx="0" cy="0" r="3.5"/>
                <g id="zoomPlus">
                        <use xlink:href="#rim" fill="#404040">
                                <set attributeName="fill" to="#808080" begin="zoomplus.mouseover" end="zoomplus.mouseout"/>
                        </use>
                        <path d="M-4,0h8M0,-4v8" fill="none" stroke="white" stroke-width="1.5" pointer-events="none"/>
                </g>
                <g id="zoomMin">
                        <use xlink:href="#rim" fill="#404040">
                                <set attributeName="fill" to="#808080" begin="zoomminus.mouseover" end="zoomminus.mouseout"/>
                        </use>
                        <path d="M-4,0h8" fill="none" stroke="white" stroke-width="1.5" pointer-events="none"/>
                </g>
                <g id="dirArrow">
                        <path fill="none" stroke="white" stroke-width="1.5" d="M0,-3.0v7 M-2.5,-0.5L0,-3.0L2.5,-0.5"/>
                </g>
               <g id="resetDef">
                       <use xlink:href="#rim2" fill="#404040">
                               <set attributeName="fill" to="#808080" begin="reset.mouseover" end="reset.mouseout"/>
                       </use>
               </g>
        </defs>

<script type="text/javascript">
var viewWidth = 2639;
var viewHeight = 736;
var sectionId = 'dynsection-1';
</script>
<script xlink:href="svgpan.js"/>
<svg id="graph" class="graph">
<g id="viewport">
<title>DGtal::COBANaivePlaneComputer&lt; TSpace, TInternalInteger &gt;</title>
<polygon fill="white" stroke="none" points="-4,4 -4,-731.919 2635,-731.919 2635,4 -4,4"/>
<!-- Node3 -->
<g id="node1" class="node"><title>Node3</title>
<polygon fill="#bfbfbf" stroke="black" points="2452,-163.919 2452,-193.919 2631,-193.919 2631,-163.919 2452,-163.919"/>
<text text-anchor="start" x="2460" y="-181.919" font-family="FreeSans" font-size="10.00">DGtal::COBANaivePlaneComputer</text>
<text text-anchor="middle" x="2541.5" y="-170.919" font-family="FreeSans" font-size="10.00">&lt; TSpace, TInternalInteger &gt;</text>
</g>
<!-- Node4 -->
<g id="node2" class="node"><title>Node4</title>
<polygon fill="white" stroke="#bfbfbf" points="1543,-58.4189 1543,-77.4189 1642,-77.4189 1642,-58.4189 1543,-58.4189"/>
<text text-anchor="middle" x="1592.5" y="-65.4189" font-family="FreeSans" font-size="10.00">std::set&lt; Point &gt;</text>
</g>
<!-- Node4&#45;&gt;Node3 -->
<g id="edge1" class="edge"><title>Node4&#45;&gt;Node3</title>
<path fill="none" stroke="#9a32cd" stroke-dasharray="5,2" d="M1652.49,-67.4844C1694.13,-67.2146 1751.23,-66.9189 1801.5,-66.9189 1801.5,-66.9189 1801.5,-66.9189 2285.5,-66.9189 2380.76,-66.9189 2480.41,-133.243 2521.29,-163.814"/>
<polygon fill="#9a32cd" stroke="#9a32cd" points="1652.23,-63.9859 1642.25,-67.5522 1652.27,-70.9858 1652.23,-63.9859"/>
<text text-anchor="middle" x="2073.5" y="-69.9189" font-family="FreeSans" font-size="10.00"> myPointSet</text>
</g>
<!-- Node5 -->
<g id="node3" class="node"><title>Node5</title>
<g id="a_node3"><a xlink:href="classDGtal_1_1PointVector.html" target="_top" xlink:title="Aim: Implements basic operations that will be used in Point and Vector classes. ">
<polygon fill="white" stroke="black" points="1254.5,-194.419 1254.5,-235.419 1380.5,-235.419 1380.5,-194.419 1254.5,-194.419"/>
<text text-anchor="start" x="1262.5" y="-223.419" font-family="FreeSans" font-size="10.00">DGtal::PointVector</text>
<text text-anchor="start" x="1262.5" y="-212.419" font-family="FreeSans" font-size="10.00">&lt; dim, TEuclideanRing,</text>
<text text-anchor="middle" x="1317.5" y="-201.419" font-family="FreeSans" font-size="10.00"> TContainer &gt;</text>
</a>
</g>
</g>
<!-- Node5&#45;&gt;Node3 -->
<g id="edge46" class="edge"><title>Node5&#45;&gt;Node3</title>
<path fill="none" stroke="#9a32cd" stroke-dasharray="5,2" d="M1390.58,-223.218C1394.1,-223.486 1397.59,-223.723 1401,-223.919 1548.76,-232.4 1586,-225.474 1734,-225.919 1794.89,-226.102 1810.12,-226.947 1871,-225.919 2094.65,-222.141 2150.6,-220.138 2374,-208.919 2400.69,-207.578 2407.59,-208.992 2434,-204.919 2451.31,-202.25 2469.93,-198.142 2486.68,-193.973"/>
<polygon fill="#9a32cd" stroke="#9a32cd" points="1390.87,-219.729 1380.61,-222.385 1390.28,-226.705 1390.87,-219.729"/>
<text text-anchor="middle" x="1938" y="-239.919" font-family="FreeSans" font-size="10.00"> _grad</text>
<text text-anchor="middle" x="1938" y="-228.919" font-family="FreeSans" font-size="10.00">myWidth</text>
</g>
<!-- Node5&#45;&gt;Node4 -->
<g id="edge2" class="edge"><title>Node5&#45;&gt;Node4</title>
<path fill="none" stroke="#9a32cd" stroke-dasharray="5,2" d="M1339.61,-186.435C1354.82,-167.72 1376.84,-143.997 1401,-128.919 1445.04,-101.428 1502.61,-85.2423 1542.89,-76.5331"/>
<polygon fill="#9a32cd" stroke="#9a32cd" points="1336.79,-184.358 1333.32,-194.369 1342.28,-188.705 1336.79,-184.358"/>
<text text-anchor="middle" x="1455" y="-131.919" font-family="FreeSans" font-size="10.00"> keys</text>
</g>
<!-- Node5&#45;&gt;Node5 -->
<g id="edge4" class="edge"><title>Node5&#45;&gt;Node5</title>
<path fill="none" stroke="#9a32cd" stroke-dasharray="5,2" d="M1294.1,-245.775C1297.58,-250.615 1305.38,-253.919 1317.5,-253.919 1336.89,-253.919 1345.22,-245.462 1342.5,-235.783"/>
<polygon fill="#9a32cd" stroke="#9a32cd" points="1297.54,-245.105 1292.5,-235.783 1290.63,-246.211 1297.54,-245.105"/>
<text text-anchor="middle" x="1317.5" y="-256.919" font-family="FreeSans" font-size="10.00"> zero</text>
</g>
<!-- Node9 -->
<g id="node7" class="node"><title>Node9</title>
<g id="a_node7"><a xlink:href="structDGtal_1_1COBANaivePlaneComputer_1_1State.html" target="_top" xlink:title="DGtal::COBANaivePlaneComputer\l\&lt; TSpace, TInternalInteger\l \&gt;::State">
<polygon fill="white" stroke="black" points="2195,-158.419 2195,-199.419 2374,-199.419 2374,-158.419 2195,-158.419"/>
<text text-anchor="start" x="2203" y="-187.419" font-family="FreeSans" font-size="10.00">DGtal::COBANaivePlaneComputer</text>
<text text-anchor="start" x="2203" y="-176.419" font-family="FreeSans" font-size="10.00">&lt; TSpace, TInternalInteger</text>
<text text-anchor="middle" x="2284.5" y="-165.419" font-family="FreeSans" font-size="10.00"> &gt;::State</text>
</a>
</g>
</g>
<!-- Node5&#45;&gt;Node9 -->
<g id="edge45" class="edge"><title>Node5&#45;&gt;Node9</title>
<path fill="none" stroke="#9a32cd" stroke-dasharray="5,2" d="M1390.77,-212.223C1564.58,-205.739 2005.59,-189.287 2194.93,-182.223"/>
<polygon fill="#9a32cd" stroke="#9a32cd" points="1390.56,-208.728 1380.7,-212.598 1390.83,-215.723 1390.56,-208.728"/>
<text text-anchor="middle" x="1802.5" y="-213.919" font-family="FreeSans" font-size="10.00"> ptMin</text>
<text text-anchor="middle" x="1802.5" y="-202.919" font-family="FreeSans" font-size="10.00">ptMax</text>
</g>
<!-- Node10 -->
<g id="node8" class="node"><title>Node10</title>
<g id="a_node8"><a xlink:href="classDGtal_1_1PointVector.html" target="_top" xlink:title="DGtal::PointVector\l\&lt; 3, InternalInteger \&gt;">
<polygon fill="white" stroke="black" points="1532,-137.919 1532,-167.919 1653,-167.919 1653,-137.919 1532,-137.919"/>
<text text-anchor="start" x="1540" y="-155.919" font-family="FreeSans" font-size="10.00">DGtal::PointVector</text>
<text text-anchor="middle" x="1592.5" y="-144.919" font-family="FreeSans" font-size="10.00">&lt; 3, InternalInteger &gt;</text>
</a>
</g>
</g>
<!-- Node5&#45;&gt;Node10 -->
<g id="edge10" class="edge"><title>Node5&#45;&gt;Node10</title>
<path fill="none" stroke="#9a32cd" stroke-dasharray="5,2" d="M1347.32,-187.676C1362.15,-175.492 1381.24,-162.428 1401,-155.919 1443.1,-142.048 1493.32,-141.877 1531.62,-144.863"/>
<polygon fill="#9a32cd" stroke="#9a32cd" points="1344.88,-185.156 1339.54,-194.307 1349.42,-190.484 1344.88,-185.156"/>
<text text-anchor="middle" x="1455" y="-158.919" font-family="FreeSans" font-size="10.00"> zero</text>
</g>
<!-- Node5&#45;&gt;Node10 -->
<g id="edge11" class="edge"><title>Node5&#45;&gt;Node10</title>
<path fill="none" stroke="orange" stroke-dasharray="5,2" d="M1390.73,-192.571C1394.19,-191.644 1397.63,-190.755 1401,-189.919 1444.49,-179.136 1494.21,-169.57 1531.95,-162.867"/>
<polygon fill="orange" stroke="orange" points="1389.64,-189.24 1380.93,-195.268 1391.5,-195.989 1389.64,-189.24"/>
<text text-anchor="middle" x="1455" y="-192.919" font-family="FreeSans" font-size="10.00"> &lt; 3, InternalInteger &gt;</text>
</g>
<!-- Node11 -->
<g id="node9" class="node"><title>Node11</title>
<g id="a_node9"><a xlink:href="classDGtal_1_1LatticePolytope2D.html" target="_top" xlink:title="DGtal::LatticePolytope2D\l\&lt; InternalSpace2 \&gt;">
<polygon fill="white" stroke="black" points="2005,-348.919 2005,-378.919 2142,-378.919 2142,-348.919 2005,-348.919"/>
<text text-anchor="start" x="2013" y="-366.919" font-family="FreeSans" font-size="10.00">DGtal::LatticePolytope2D</text>
<text text-anchor="middle" x="2073.5" y="-355.919" font-family="FreeSans" font-size="10.00">&lt; InternalSpace2 &gt;</text>
</a>
</g>
</g>
<!-- Node5&#45;&gt;Node11 -->
<g id="edge40" class="edge"><title>Node5&#45;&gt;Node11</title>
<path fill="none" stroke="#9a32cd" stroke-dasharray="5,2" d="M1363.58,-239.94C1375.42,-245.471 1388.42,-250.651 1401,-253.919 1536.81,-289.187 1577.38,-253.173 1716,-274.919 1827.86,-292.467 1955.99,-328.468 2024.05,-348.896"/>
<polygon fill="#9a32cd" stroke="#9a32cd" points="1364.87,-236.679 1354.35,-235.459 1361.82,-242.976 1364.87,-236.679"/>
<text text-anchor="middle" x="1696" y="-387.919" font-family="FreeSans" font-size="10.00"> _N</text>
<text text-anchor="middle" x="1696" y="-376.919" font-family="FreeSans" font-size="10.00">_A</text>
<text text-anchor="middle" x="1696" y="-365.919" font-family="FreeSans" font-size="10.00">_u</text>
<text text-anchor="middle" x="1696" y="-354.919" font-family="FreeSans" font-size="10.00">_B</text>
<text text-anchor="middle" x="1696" y="-343.919" font-family="FreeSans" font-size="10.00">_v</text>
<text text-anchor="middle" x="1696" y="-332.919" font-family="FreeSans" font-size="10.00">_B1</text>
<text text-anchor="middle" x="1696" y="-321.919" font-family="FreeSans" font-size="10.00">_DV</text>
<text text-anchor="middle" x="1696" y="-310.919" font-family="FreeSans" font-size="10.00">_B2</text>
<text text-anchor="middle" x="1696" y="-299.919" font-family="FreeSans" font-size="10.00">_A1</text>
<text text-anchor="middle" x="1696" y="-288.919" font-family="FreeSans" font-size="10.00">_A2</text>
<text text-anchor="middle" x="1696" y="-277.919" font-family="FreeSans" font-size="10.00">...</text>
</g>
<!-- Node28 -->
<g id="node26" class="node"><title>Node28</title>
<polygon fill="white" stroke="#bfbfbf" points="1539.5,-463.919 1539.5,-493.919 1645.5,-493.919 1645.5,-463.919 1539.5,-463.919"/>
<text text-anchor="start" x="1547.5" y="-481.919" font-family="FreeSans" font-size="10.00">std::vector&lt; DGtal</text>
<text text-anchor="middle" x="1592.5" y="-470.919" font-family="FreeSans" font-size="10.00">::PointVector &gt;</text>
</g>
<!-- Node5&#45;&gt;Node28 -->
<g id="edge38" class="edge"><title>Node5&#45;&gt;Node28</title>
<path fill="none" stroke="#9a32cd" stroke-dasharray="5,2" d="M1331.05,-244.75C1344.32,-272.502 1367.91,-312.801 1401,-334.919 1441.8,-362.189 1474.55,-322.965 1509,-357.919 1537.94,-387.283 1501.55,-416.485 1527,-448.919 1531.8,-455.04 1538.15,-459.965 1544.99,-463.912"/>
<polygon fill="#9a32cd" stroke="#9a32cd" points="1334.16,-243.125 1326.8,-235.507 1327.8,-246.054 1334.16,-243.125"/>
<text text-anchor="middle" x="1455" y="-360.919" font-family="FreeSans" font-size="10.00"> elements</text>
</g>
<!-- Node29 -->
<g id="node27" class="node"><title>Node29</title>
<g id="a_node27"><a xlink:href="classDGtal_1_1LatticePolytope2D.html" target="_top" xlink:title="Aim: Represents a 2D polytope, i.e. a convex polygon, in the two&#45;dimensional digital plane...">
<polygon fill="white" stroke="black" points="1734,-479.919 1734,-509.919 1871,-509.919 1871,-479.919 1734,-479.919"/>
<text text-anchor="start" x="1742" y="-497.919" font-family="FreeSans" font-size="10.00">DGtal::LatticePolytope2D</text>
<text text-anchor="middle" x="1802.5" y="-486.919" font-family="FreeSans" font-size="10.00">&lt; TSpace, TSequence &gt;</text>
</a>
</g>
</g>
<!-- Node5&#45;&gt;Node29 -->
<g id="edge44" class="edge"><title>Node5&#45;&gt;Node29</title>
<path fill="none" stroke="#9a32cd" stroke-dasharray="5,2" d="M1341.34,-243.491C1356.45,-260.342 1377.7,-280.534 1401,-291.919 1504.92,-342.705 1572.06,-255.503 1658,-332.919 1680.91,-353.556 1661.84,-372.53 1676,-399.919 1694.56,-435.808 1701.04,-446.549 1734,-469.919 1739.4,-473.75 1745.46,-477.066 1751.67,-479.917"/>
<polygon fill="#9a32cd" stroke="#9a32cd" points="1343.64,-240.798 1334.44,-235.54 1338.36,-245.387 1343.64,-240.798"/>
<text text-anchor="middle" x="1592.5" y="-445.919" font-family="FreeSans" font-size="10.00"> _N</text>
<text text-anchor="middle" x="1592.5" y="-434.919" font-family="FreeSans" font-size="10.00">_A</text>
<text text-anchor="middle" x="1592.5" y="-423.919" font-family="FreeSans" font-size="10.00">_u</text>
<text text-anchor="middle" x="1592.5" y="-412.919" font-family="FreeSans" font-size="10.00">_B</text>
<text text-anchor="middle" x="1592.5" y="-401.919" font-family="FreeSans" font-size="10.00">_v</text>
<text text-anchor="middle" x="1592.5" y="-390.919" font-family="FreeSans" font-size="10.00">_B1</text>
<text text-anchor="middle" x="1592.5" y="-379.919" font-family="FreeSans" font-size="10.00">_DV</text>
<text text-anchor="middle" x="1592.5" y="-368.919" font-family="FreeSans" font-size="10.00">_B2</text>
<text text-anchor="middle" x="1592.5" y="-357.919" font-family="FreeSans" font-size="10.00">_A1</text>
<text text-anchor="middle" x="1592.5" y="-346.919" font-family="FreeSans" font-size="10.00">_A2</text>
<text text-anchor="middle" x="1592.5" y="-335.919" font-family="FreeSans" font-size="10.00">...</text>
</g>
<!-- Node6 -->
<g id="node4" class="node"><title>Node6</title>
<polygon fill="white" stroke="#bfbfbf" points="1000,-144.419 1000,-163.419 1068,-163.419 1068,-144.419 1000,-144.419"/>
<text text-anchor="middle" x="1034" y="-151.419" font-family="FreeSans" font-size="10.00">TContainer</text>
</g>
<!-- Node6&#45;&gt;Node5 -->
<g id="edge3" class="edge"><title>Node6&#45;&gt;Node5</title>
<path fill="none" stroke="#9a32cd" stroke-dasharray="5,2" d="M1077.98,-163.233C1124.99,-173.42 1200.76,-189.839 1254.27,-201.433"/>
<polygon fill="#9a32cd" stroke="#9a32cd" points="1078.63,-159.793 1068.12,-161.096 1077.15,-166.634 1078.63,-159.793"/>
<text text-anchor="middle" x="1177" y="-199.919" font-family="FreeSans" font-size="10.00"> myArray</text>
</g>
<!-- Node6&#45;&gt;Node10 -->
<g id="edge9" class="edge"><title>Node6&#45;&gt;Node10</title>
<path fill="none" stroke="#9a32cd" stroke-dasharray="5,2" d="M1078.22,-149.538C1161.63,-141.77 1350.6,-127.515 1509,-139.919 1516.37,-140.496 1524.08,-141.359 1531.7,-142.372"/>
<polygon fill="#9a32cd" stroke="#9a32cd" points="1077.73,-146.069 1068.1,-150.497 1078.39,-153.038 1077.73,-146.069"/>
<text text-anchor="middle" x="1317.5" y="-140.919" font-family="FreeSans" font-size="10.00"> myArray</text>
</g>
<!-- Node7 -->
<g id="node5" class="node"><title>Node7</title>
<g id="a_node5"><a xlink:title="STL class. ">
<polygon fill="white" stroke="#bfbfbf" points="1277,-62.4189 1277,-81.4189 1358,-81.4189 1358,-62.4189 1277,-62.4189"/>
<text text-anchor="middle" x="1317.5" y="-69.4189" font-family="FreeSans" font-size="10.00">std::set&lt; K &gt;</text>
</a>
</g>
</g>
<!-- Node7&#45;&gt;Node4 -->
<g id="edge5" class="edge"><title>Node7&#45;&gt;Node4</title>
<path fill="none" stroke="orange" stroke-dasharray="5,2" d="M1368.38,-65.5957C1379.12,-64.4809 1390.42,-63.494 1401,-62.9189 1449.23,-60.2958 1504.41,-62.291 1542.92,-64.4899"/>
<polygon fill="orange" stroke="orange" points="1367.85,-62.1319 1358.29,-66.6944 1368.61,-69.0907 1367.85,-62.1319"/>
<text text-anchor="middle" x="1455" y="-65.9189" font-family="FreeSans" font-size="10.00"> &lt; Point &gt;</text>
</g>
<!-- Node8 -->
<g id="node6" class="node"><title>Node8</title>
<polygon fill="white" stroke="#bfbfbf" points="1019.5,-72.4189 1019.5,-91.4189 1048.5,-91.4189 1048.5,-72.4189 1019.5,-72.4189"/>
<text text-anchor="middle" x="1034" y="-79.4189" font-family="FreeSans" font-size="10.00">K</text>
</g>
<!-- Node8&#45;&gt;Node7 -->
<g id="edge6" class="edge"><title>Node8&#45;&gt;Node7</title>
<path fill="none" stroke="#9a32cd" stroke-dasharray="5,2" d="M1058.68,-81.0776C1106.98,-79.3617 1217.32,-75.4422 1276.78,-73.3298"/>
<polygon fill="#9a32cd" stroke="#9a32cd" points="1058.45,-77.5836 1048.58,-81.4366 1058.7,-84.5792 1058.45,-77.5836"/>
<text text-anchor="middle" x="1177" y="-81.9189" font-family="FreeSans" font-size="10.00"> keys</text>
</g>
<!-- Node9&#45;&gt;Node3 -->
<g id="edge7" class="edge"><title>Node9&#45;&gt;Node3</title>
<path fill="none" stroke="#9a32cd" stroke-dasharray="5,2" d="M2384.46,-178.919C2406.71,-178.919 2430.19,-178.919 2451.99,-178.919"/>
<polygon fill="#9a32cd" stroke="#9a32cd" points="2384.33,-175.419 2374.33,-178.919 2384.33,-182.419 2384.33,-175.419"/>
<text text-anchor="middle" x="2413" y="-192.919" font-family="FreeSans" font-size="10.00"> _state</text>
<text text-anchor="middle" x="2413" y="-181.919" font-family="FreeSans" font-size="10.00">myState</text>
</g>
<!-- Node10&#45;&gt;Node9 -->
<g id="edge8" class="edge"><title>Node10&#45;&gt;Node9</title>
<path fill="none" stroke="#9a32cd" stroke-dasharray="5,2" d="M1663.48,-151.377C1742.19,-150.042 1873.83,-149.012 1987,-153.919 2056.93,-156.951 2135.9,-163.777 2194.75,-169.532"/>
<polygon fill="#9a32cd" stroke="#9a32cd" points="1663.14,-147.882 1653.2,-151.558 1663.26,-154.881 1663.14,-147.882"/>
<text text-anchor="middle" x="1938" y="-167.919" font-family="FreeSans" font-size="10.00"> N</text>
<text text-anchor="middle" x="1938" y="-156.919" font-family="FreeSans" font-size="10.00">centroid</text>
</g>
<!-- Node11&#45;&gt;Node9 -->
<g id="edge12" class="edge"><title>Node11&#45;&gt;Node9</title>
<path fill="none" stroke="#9a32cd" stroke-dasharray="5,2" d="M2099.18,-342.069C2139.87,-306.057 2220.45,-234.729 2260.2,-199.539"/>
<polygon fill="#9a32cd" stroke="#9a32cd" points="2096.77,-339.531 2091.6,-348.78 2101.41,-344.772 2096.77,-339.531"/>
<text text-anchor="middle" x="2168.5" y="-291.919" font-family="FreeSans" font-size="10.00"> cip</text>
</g>
<!-- Node12 -->
<g id="node10" class="node"><title>Node12</title>
<polygon fill="white" stroke="#bfbfbf" points="966,-22.9189 966,-52.9189 1102,-52.9189 1102,-22.9189 966,-22.9189"/>
<text text-anchor="start" x="974" y="-40.9189" font-family="FreeSans" font-size="10.00">std::list&lt; typename</text>
<text text-anchor="middle" x="1034" y="-29.9189" font-family="FreeSans" font-size="10.00"> InternalSpace2 ::Point &gt;</text>
</g>
<!-- Node12&#45;&gt;Node11 -->
<g id="edge13" class="edge"><title>Node12&#45;&gt;Node11</title>
<path fill="none" stroke="#9a32cd" stroke-dasharray="5,2" d="M1112.28,-23.0962C1232.4,-3.30339 1469.67,22.7092 1658,-37.9189 1768.95,-73.6373 1803.31,-96.0326 1871,-190.919 1887.17,-213.583 1871.76,-229.057 1889,-250.919 1920.2,-290.485 1944.13,-281.439 1987,-307.919 2008.74,-321.347 2033.07,-337.387 2050.21,-348.852"/>
<polygon fill="#9a32cd" stroke="#9a32cd" points="1111.37,-19.7012 1102.08,-24.8086 1112.52,-26.6046 1111.37,-19.7012"/>
<text text-anchor="middle" x="1592.5" y="-40.9189" font-family="FreeSans" font-size="10.00"> myVertices</text>
</g>
<!-- Node13 -->
<g id="node11" class="node"><title>Node13</title>
<g id="a_node11"><a xlink:href="classDGtal_1_1SpaceND.html" target="_top" xlink:title="Aim: SpaceND is a utility class that defines the fundamental structure of a Digital Space in ND...">
<polygon fill="white" stroke="black" points="724,-194.919 724,-224.919 851,-224.919 851,-194.919 724,-194.919"/>
<text text-anchor="start" x="732" y="-212.919" font-family="FreeSans" font-size="10.00">DGtal::SpaceND&lt; dim,</text>
<text text-anchor="middle" x="787.5" y="-201.919" font-family="FreeSans" font-size="10.00"> TInteger &gt;</text>
</a>
</g>
</g>
<!-- Node13&#45;&gt;Node12 -->
<g id="edge14" class="edge"><title>Node13&#45;&gt;Node12</title>
<path fill="none" stroke="#9a32cd" stroke-dasharray="5,2" d="M820.543,-189.053C854.29,-166.235 907.982,-127.477 948,-86.9189 957.365,-77.4278 955.323,-70.9051 966,-62.9189 971.07,-59.1263 976.78,-55.8526 982.672,-53.0416"/>
<polygon fill="#9a32cd" stroke="#9a32cd" points="818.357,-186.305 811.998,-194.779 822.254,-192.12 818.357,-186.305"/>
<text text-anchor="middle" x="912" y="-151.919" font-family="FreeSans" font-size="10.00"> elements</text>
</g>
<!-- Node19 -->
<g id="node17" class="node"><title>Node19</title>
<g id="a_node17"><a xlink:href="classDGtal_1_1SpaceND.html" target="_top" xlink:title="DGtal::SpaceND\&lt; 2,\l Integer \&gt;">
<polygon fill="white" stroke="black" points="976.5,-367.919 976.5,-397.919 1091.5,-397.919 1091.5,-367.919 976.5,-367.919"/>
<text text-anchor="start" x="984.5" y="-385.919" font-family="FreeSans" font-size="10.00">DGtal::SpaceND&lt; 2,</text>
<text text-anchor="middle" x="1034" y="-374.919" font-family="FreeSans" font-size="10.00"> Integer &gt;</text>
</a>
</g>
</g>
<!-- Node13&#45;&gt;Node19 -->
<g id="edge22" class="edge"><title>Node13&#45;&gt;Node19</title>
<path fill="none" stroke="orange" stroke-dasharray="5,2" d="M818.211,-230.941C868.184,-266.3 967.877,-336.84 1011.61,-367.78"/>
<polygon fill="orange" stroke="orange" points="819.955,-227.888 809.77,-224.969 815.912,-233.602 819.955,-227.888"/>
<text text-anchor="middle" x="912" y="-325.919" font-family="FreeSans" font-size="10.00"> &lt; 2, Integer &gt;</text>
</g>
<!-- Node14 -->
<g id="node12" class="node"><title>Node14</title>
<g id="a_node12"><a xlink:title="STL class. ">
<polygon fill="white" stroke="#bfbfbf" points="284,-252.419 284,-271.419 363,-271.419 363,-252.419 284,-252.419"/>
<text text-anchor="middle" x="323.5" y="-259.419" font-family="FreeSans" font-size="10.00">std::list&lt; T &gt;</text>
</a>
</g>
</g>
<!-- Node14&#45;&gt;Node12 -->
<g id="edge15" class="edge"><title>Node14&#45;&gt;Node12</title>
<path fill="none" stroke="orange" stroke-dasharray="5,2" d="M363.956,-249.328C454.442,-220.469 683.899,-147.374 876,-86.9189 912.361,-75.4758 953.494,-62.6422 984.534,-52.9801"/>
<polygon fill="orange" stroke="orange" points="362.839,-246.011 354.375,-252.384 364.966,-252.68 362.839,-246.011"/>
<text text-anchor="start" x="560" y="-199.919" font-family="FreeSans" font-size="10.00"> &lt; typename InternalSpace2</text>
<text text-anchor="middle" x="629.5" y="-188.919" font-family="FreeSans" font-size="10.00"> ::Point &gt;</text>
</g>
<!-- Node15 -->
<g id="node13" class="node"><title>Node15</title>
<polygon fill="white" stroke="#bfbfbf" points="0,-518.419 0,-537.419 29,-537.419 29,-518.419 0,-518.419"/>
<text text-anchor="middle" x="14.5" y="-525.419" font-family="FreeSans" font-size="10.00">T</text>
</g>
<!-- Node15&#45;&gt;Node14 -->
<g id="edge16" class="edge"><title>Node15&#45;&gt;Node14</title>
<path fill="none" stroke="#9a32cd" stroke-dasharray="5,2" d="M34.4712,-511.481C92.4074,-461.283 265.856,-310.998 311.431,-271.51"/>
<polygon fill="#9a32cd" stroke="#9a32cd" points="32.0562,-508.943 26.7904,-518.136 36.6401,-514.233 32.0562,-508.943"/>
<text text-anchor="middle" x="71.5" y="-502.919" font-family="FreeSans" font-size="10.00"> elements</text>
</g>
<!-- Node18 -->
<g id="node16" class="node"><title>Node18</title>
<g id="a_node16"><a xlink:title="STL class. ">
<polygon fill="white" stroke="#bfbfbf" points="740,-635.419 740,-654.419 835,-654.419 835,-635.419 740,-635.419"/>
<text text-anchor="middle" x="787.5" y="-642.419" font-family="FreeSans" font-size="10.00">std::vector&lt; T &gt;</text>
</a>
</g>
</g>
<!-- Node15&#45;&gt;Node18 -->
<g id="edge20" class="edge"><title>Node15&#45;&gt;Node18</title>
<path fill="none" stroke="#9a32cd" stroke-dasharray="5,2" d="M32.2978,-544.502C36.7676,-548.116 41.8071,-551.559 47,-553.919 136.804,-594.723 168.246,-576.731 266,-589.919 440.25,-613.427 648.457,-632.82 739.734,-640.888"/>
<polygon fill="#9a32cd" stroke="#9a32cd" points="34.3136,-541.611 24.5139,-537.584 29.6635,-546.844 34.3136,-541.611"/>
<text text-anchor="middle" x="323.5" y="-606.919" font-family="FreeSans" font-size="10.00"> elements</text>
</g>
<!-- Node22 -->
<g id="node20" class="node"><title>Node22</title>
<g id="a_node20"><a xlink:href="structDGtal_1_1NumberTraitsImpl.html" target="_top" xlink:title="Aim: The traits class for all models of Cinteger (implementation) ">
<polygon fill="white" stroke="black" points="114,-512.919 114,-542.919 248,-542.919 248,-512.919 114,-512.919"/>
<text text-anchor="start" x="122" y="-530.919" font-family="FreeSans" font-size="10.00">DGtal::NumberTraitsImpl</text>
<text text-anchor="middle" x="181" y="-519.919" font-family="FreeSans" font-size="10.00">&lt; T, Enable &gt;</text>
</a>
</g>
</g>
<!-- Node15&#45;&gt;Node22 -->
<g id="edge26" class="edge"><title>Node15&#45;&gt;Node22</title>
<path fill="none" stroke="#9a32cd" stroke-dasharray="5,2" d="M39.3274,-527.919C58.8184,-527.919 87.3573,-527.919 113.644,-527.919"/>
<polygon fill="#9a32cd" stroke="#9a32cd" points="39.2423,-524.419 29.2422,-527.919 39.2422,-531.419 39.2423,-524.419"/>
<text text-anchor="middle" x="71.5" y="-541.919" font-family="FreeSans" font-size="10.00"> ONE</text>
<text text-anchor="middle" x="71.5" y="-530.919" font-family="FreeSans" font-size="10.00">ZERO</text>
</g>
<!-- Node16 -->
<g id="node14" class="node"><title>Node16</title>
<g id="a_node14"><a xlink:href="classDGtal_1_1IntegerComputer.html" target="_top" xlink:title="DGtal::IntegerComputer\l\&lt; Integer \&gt;">
<polygon fill="white" stroke="black" points="1527,-512.919 1527,-542.919 1658,-542.919 1658,-512.919 1527,-512.919"/>
<text text-anchor="start" x="1535" y="-530.919" font-family="FreeSans" font-size="10.00">DGtal::IntegerComputer</text>
<text text-anchor="middle" x="1592.5" y="-519.919" font-family="FreeSans" font-size="10.00">&lt; Integer &gt;</text>
</a>
</g>
</g>
<!-- Node16&#45;&gt;Node11 -->
<g id="edge17" class="edge"><title>Node16&#45;&gt;Node11</title>
<path fill="none" stroke="#9a32cd" stroke-dasharray="5,2" d="M1668.34,-543.151C1753.13,-556.072 1891.85,-563.645 1987,-499.919 2031.72,-469.965 2057.61,-407.877 2067.64,-379.132"/>
<polygon fill="#9a32cd" stroke="#9a32cd" points="1668.7,-539.664 1658.28,-541.553 1667.61,-546.577 1668.7,-539.664"/>
<text text-anchor="middle" x="1802.5" y="-554.919" font-family="FreeSans" font-size="10.00"> _ic</text>
</g>
<!-- Node16&#45;&gt;Node29 -->
<g id="edge42" class="edge"><title>Node16&#45;&gt;Node29</title>
<path fill="none" stroke="#9a32cd" stroke-dasharray="5,2" d="M1668.22,-516.064C1689.69,-512.657 1712.98,-508.963 1733.99,-505.629"/>
<polygon fill="#9a32cd" stroke="#9a32cd" points="1667.5,-512.635 1658.17,-517.658 1668.6,-519.548 1667.5,-512.635"/>
<text text-anchor="middle" x="1696" y="-516.919" font-family="FreeSans" font-size="10.00"> _ic</text>
</g>
<!-- Node17 -->
<g id="node15" class="node"><title>Node17</title>
<polygon fill="white" stroke="#bfbfbf" points="972,-635.419 972,-654.419 1096,-654.419 1096,-635.419 972,-635.419"/>
<text text-anchor="middle" x="1034" y="-642.419" font-family="FreeSans" font-size="10.00">std::vector&lt; Integer &gt;</text>
</g>
<!-- Node17&#45;&gt;Node16 -->
<g id="edge18" class="edge"><title>Node17&#45;&gt;Node16</title>
<path fill="none" stroke="#9a32cd" stroke-dasharray="5,2" d="M1106.33,-654.783C1177.78,-662.202 1290.17,-667.126 1383,-640.919 1457.69,-619.833 1535.43,-568.533 1571.24,-542.946"/>
<polygon fill="#9a32cd" stroke="#9a32cd" points="1106.41,-651.271 1096.09,-653.674 1105.66,-658.231 1106.41,-651.271"/>
<text text-anchor="middle" x="1317.5" y="-662.919" font-family="FreeSans" font-size="10.00"> _m_bezout</text>
</g>
<!-- Node25 -->
<g id="node23" class="node"><title>Node25</title>
<g id="a_node23"><a xlink:href="classDGtal_1_1IntegerComputer.html" target="_top" xlink:title="Aim: This class gathers several types and methods to make computation with integers. ">
<polygon fill="white" stroke="black" points="1252,-458.919 1252,-488.919 1383,-488.919 1383,-458.919 1252,-458.919"/>
<text text-anchor="start" x="1260" y="-476.919" font-family="FreeSans" font-size="10.00">DGtal::IntegerComputer</text>
<text text-anchor="middle" x="1317.5" y="-465.919" font-family="FreeSans" font-size="10.00">&lt; TInteger &gt;</text>
</a>
</g>
</g>
<!-- Node17&#45;&gt;Node25 -->
<g id="edge31" class="edge"><title>Node17&#45;&gt;Node25</title>
<path fill="none" stroke="#9a32cd" stroke-dasharray="5,2" d="M1106.45,-637.097C1149.11,-628.757 1201.2,-611.525 1234,-575.919 1255.76,-552.292 1231.78,-530.877 1252,-505.919 1257.59,-499.023 1265.04,-493.491 1272.89,-489.096"/>
<polygon fill="#9a32cd" stroke="#9a32cd" points="1105.59,-633.696 1096.38,-638.936 1106.85,-640.581 1105.59,-633.696"/>
<text text-anchor="middle" x="1177" y="-636.919" font-family="FreeSans" font-size="10.00"> _m_bezout</text>
</g>
<!-- Node18&#45;&gt;Node17 -->
<g id="edge19" class="edge"><title>Node18&#45;&gt;Node17</title>
<path fill="none" stroke="orange" stroke-dasharray="5,2" d="M845.418,-644.919C883.311,-644.919 933.062,-644.919 971.805,-644.919"/>
<polygon fill="orange" stroke="orange" points="845.064,-641.419 835.064,-644.919 845.064,-648.419 845.064,-641.419"/>
<text text-anchor="middle" x="912" y="-647.919" font-family="FreeSans" font-size="10.00"> &lt; Integer &gt;</text>
</g>
<!-- Node18&#45;&gt;Node28 -->
<g id="edge39" class="edge"><title>Node18&#45;&gt;Node28</title>
<path fill="none" stroke="orange" stroke-dasharray="5,2" d="M824.287,-657.747C920.242,-689.901 1189.11,-765.123 1383,-674.919 1473.09,-633.008 1446.15,-561.676 1527,-503.919 1532.28,-500.149 1538.2,-496.857 1544.26,-494.009"/>
<polygon fill="orange" stroke="orange" points="825.355,-654.413 814.76,-654.505 823.099,-661.04 825.355,-654.413"/>
<text text-anchor="middle" x="1177" y="-719.919" font-family="FreeSans" font-size="10.00"> &lt; DGtal::PointVector &gt;</text>
</g>
<!-- Node19&#45;&gt;Node16 -->
<g id="edge21" class="edge"><title>Node19&#45;&gt;Node16</title>
<path fill="none" stroke="#9a32cd" stroke-dasharray="5,2" d="M1101.96,-381.43C1173.17,-381.638 1288.36,-387.152 1383,-415.919 1443.09,-434.186 1460.91,-439.521 1509,-479.919 1519.21,-488.495 1516.32,-495.937 1527,-503.919 1531.5,-507.28 1536.52,-510.217 1541.72,-512.77"/>
<polygon fill="#9a32cd" stroke="#9a32cd" points="1101.78,-377.93 1091.78,-381.435 1101.78,-384.93 1101.78,-377.93"/>
<text text-anchor="middle" x="1317.5" y="-440.919" font-family="FreeSans" font-size="10.00"> _m_v</text>
<text text-anchor="middle" x="1317.5" y="-429.919" font-family="FreeSans" font-size="10.00">_m_v0</text>
<text text-anchor="middle" x="1317.5" y="-418.919" font-family="FreeSans" font-size="10.00">_m_v1</text>
</g>
<!-- Node19&#45;&gt;Node25 -->
<g id="edge36" class="edge"><title>Node19&#45;&gt;Node25</title>
<path fill="none" stroke="#9a32cd" stroke-dasharray="5,2" d="M1101.81,-397.1C1140.89,-406.202 1190.87,-419.244 1234,-434.919 1252.46,-441.629 1272.4,-450.989 1288.04,-458.857"/>
<polygon fill="#9a32cd" stroke="#9a32cd" points="1102.14,-393.584 1091.61,-394.755 1100.57,-400.406 1102.14,-393.584"/>
<text text-anchor="middle" x="1177" y="-459.919" font-family="FreeSans" font-size="10.00"> _m_v</text>
<text text-anchor="middle" x="1177" y="-448.919" font-family="FreeSans" font-size="10.00">_m_v0</text>
<text text-anchor="middle" x="1177" y="-437.919" font-family="FreeSans" font-size="10.00">_m_v1</text>
</g>
<!-- Node20 -->
<g id="node18" class="node"><title>Node20</title>
<g id="a_node18"><a xlink:href="structDGtal_1_1NumberTraits.html" target="_top" xlink:title="DGtal::NumberTraits\l\&lt; Integer \&gt;">
<polygon fill="white" stroke="black" points="977.5,-559.919 977.5,-589.919 1090.5,-589.919 1090.5,-559.919 977.5,-559.919"/>
<text text-anchor="start" x="985.5" y="-577.919" font-family="FreeSans" font-size="10.00">DGtal::NumberTraits</text>
<text text-anchor="middle" x="1034" y="-566.919" font-family="FreeSans" font-size="10.00">&lt; Integer &gt;</text>
</a>
</g>
</g>
<!-- Node20&#45;&gt;Node16 -->
<g id="edge23" class="edge"><title>Node20&#45;&gt;Node16</title>
<path fill="none" stroke="#9a32cd" stroke-dasharray="5,2" d="M1100.9,-589.37C1141.86,-594.775 1194.12,-594.898 1234,-571.919 1247.47,-564.156 1238.63,-549.857 1252,-541.919 1296.83,-515.303 1441.59,-518.767 1526.93,-523.461"/>
<polygon fill="#9a32cd" stroke="#9a32cd" points="1101.15,-585.869 1090.75,-587.893 1100.14,-592.796 1101.15,-585.869"/>
<text text-anchor="middle" x="1317.5" y="-632.919" font-family="FreeSans" font-size="10.00"> _m_b</text>
<text text-anchor="middle" x="1317.5" y="-621.919" font-family="FreeSans" font-size="10.00">_m_c0</text>
<text text-anchor="middle" x="1317.5" y="-610.919" font-family="FreeSans" font-size="10.00">_m_c1</text>
<text text-anchor="middle" x="1317.5" y="-599.919" font-family="FreeSans" font-size="10.00">_m_c2</text>
<text text-anchor="middle" x="1317.5" y="-588.919" font-family="FreeSans" font-size="10.00">_m_q</text>
<text text-anchor="middle" x="1317.5" y="-577.919" font-family="FreeSans" font-size="10.00">_m_a0</text>
<text text-anchor="middle" x="1317.5" y="-566.919" font-family="FreeSans" font-size="10.00">_m_r</text>
<text text-anchor="middle" x="1317.5" y="-555.919" font-family="FreeSans" font-size="10.00">_m_a1</text>
<text text-anchor="middle" x="1317.5" y="-544.919" font-family="FreeSans" font-size="10.00">_m_a</text>
</g>
<!-- Node21 -->
<g id="node19" class="node"><title>Node21</title>
<g id="a_node19"><a xlink:href="structDGtal_1_1NumberTraitsImpl.html" target="_top" xlink:title="DGtal::NumberTraitsImpl\l\&lt; std::decay\&lt; Integer\l \&gt;::type \&gt;">
<polygon fill="white" stroke="black" points="562.5,-553.419 562.5,-594.419 696.5,-594.419 696.5,-553.419 562.5,-553.419"/>
<text text-anchor="start" x="570.5" y="-582.419" font-family="FreeSans" font-size="10.00">DGtal::NumberTraitsImpl</text>
<text text-anchor="start" x="570.5" y="-571.419" font-family="FreeSans" font-size="10.00">&lt; std::decay&lt; Integer</text>
<text text-anchor="middle" x="629.5" y="-560.419" font-family="FreeSans" font-size="10.00"> &gt;::type &gt;</text>
</a>
</g>
</g>
<!-- Node21&#45;&gt;Node20 -->
<g id="edge24" class="edge"><title>Node21&#45;&gt;Node20</title>
<path fill="none" stroke="midnightblue" d="M706.878,-574.109C785.786,-574.305 907.041,-574.606 977.331,-574.781"/>
<polygon fill="midnightblue" stroke="midnightblue" points="706.523,-570.608 696.514,-574.083 706.505,-577.608 706.523,-570.608"/>
</g>
<!-- Node22&#45;&gt;Node21 -->
<g id="edge25" class="edge"><title>Node22&#45;&gt;Node21</title>
<path fill="none" stroke="orange" stroke-dasharray="5,2" d="M240.379,-545.54C248.911,-547.637 257.639,-549.524 266,-550.919 368.476,-568.015 489.188,-572.633 562.223,-573.752"/>
<polygon fill="orange" stroke="orange" points="241.042,-542.097 230.486,-543 239.301,-548.877 241.042,-542.097"/>
<text text-anchor="start" x="269" y="-577.919" font-family="FreeSans" font-size="10.00"> &lt; std::decay&lt; Integer</text>
<text text-anchor="middle" x="323.5" y="-566.919" font-family="FreeSans" font-size="10.00"> &gt;::type &gt;</text>
</g>
<!-- Node24 -->
<g id="node22" class="node"><title>Node24</title>
<g id="a_node22"><a xlink:href="structDGtal_1_1NumberTraitsImpl.html" target="_top" xlink:title="DGtal::NumberTraitsImpl\l\&lt; std::decay\&lt; T \&gt;::type \&gt;">
<polygon fill="white" stroke="black" points="399,-512.919 399,-542.919 542,-542.919 542,-512.919 399,-512.919"/>
<text text-anchor="start" x="407" y="-530.919" font-family="FreeSans" font-size="10.00">DGtal::NumberTraitsImpl</text>
<text text-anchor="middle" x="470.5" y="-519.919" font-family="FreeSans" font-size="10.00">&lt; std::decay&lt; T &gt;::type &gt;</text>
</a>
</g>
</g>
<!-- Node22&#45;&gt;Node24 -->
<g id="edge29" class="edge"><title>Node22&#45;&gt;Node24</title>
<path fill="none" stroke="orange" stroke-dasharray="5,2" d="M258.591,-527.919C302.198,-527.919 356.441,-527.919 398.997,-527.919"/>
<polygon fill="orange" stroke="orange" points="258.319,-524.419 248.319,-527.919 258.319,-531.419 258.319,-524.419"/>
<text text-anchor="start" x="274.5" y="-541.919" font-family="FreeSans" font-size="10.00"> &lt; std::decay&lt; T &gt;::</text>
<text text-anchor="middle" x="323.5" y="-530.919" font-family="FreeSans" font-size="10.00">type &gt;</text>
</g>
<!-- Node27 -->
<g id="node25" class="node"><title>Node27</title>
<g id="a_node25"><a xlink:href="structDGtal_1_1NumberTraitsImpl.html" target="_top" xlink:title="DGtal::NumberTraitsImpl\l\&lt; std::decay\&lt; TInteger\l \&gt;::type \&gt;">
<polygon fill="white" stroke="black" points="562.5,-462.419 562.5,-503.419 696.5,-503.419 696.5,-462.419 562.5,-462.419"/>
<text text-anchor="start" x="570.5" y="-491.419" font-family="FreeSans" font-size="10.00">DGtal::NumberTraitsImpl</text>
<text text-anchor="start" x="570.5" y="-480.419" font-family="FreeSans" font-size="10.00">&lt; std::decay&lt; TInteger</text>
<text text-anchor="middle" x="629.5" y="-469.419" font-family="FreeSans" font-size="10.00"> &gt;::type &gt;</text>
</a>
</g>
</g>
<!-- Node22&#45;&gt;Node27 -->
<g id="edge34" class="edge"><title>Node22&#45;&gt;Node27</title>
<path fill="none" stroke="orange" stroke-dasharray="5,2" d="M233.047,-509.915C243.81,-506.744 255.184,-503.845 266,-501.919 368.372,-483.685 489.37,-481.062 562.457,-481.502"/>
<polygon fill="orange" stroke="orange" points="231.902,-506.605 223.369,-512.884 233.955,-513.297 231.902,-506.605"/>
<text text-anchor="start" x="266" y="-515.919" font-family="FreeSans" font-size="10.00"> &lt; std::decay&lt; TInteger</text>
<text text-anchor="middle" x="323.5" y="-504.919" font-family="FreeSans" font-size="10.00"> &gt;::type &gt;</text>
</g>
<!-- Node23 -->
<g id="node21" class="node"><title>Node23</title>
<g id="a_node21"><a xlink:href="structDGtal_1_1NumberTraits.html" target="_top" xlink:title="Aim: The traits class for all models of Cinteger. ">
<polygon fill="white" stroke="black" points="717,-518.419 717,-537.419 858,-537.419 858,-518.419 717,-518.419"/>
<text text-anchor="middle" x="787.5" y="-525.419" font-family="FreeSans" font-size="10.00">DGtal::NumberTraits&lt; T &gt;</text>
</a>
</g>
</g>
<!-- Node23&#45;&gt;Node20 -->
<g id="edge27" class="edge"><title>Node23&#45;&gt;Node20</title>
<path fill="none" stroke="orange" stroke-dasharray="5,2" d="M868.399,-536.568C893.969,-539.968 922.305,-544.4 948,-549.919 960.633,-552.632 974.127,-556.256 986.557,-559.902"/>
<polygon fill="orange" stroke="orange" points="868.742,-533.083 858.375,-535.269 867.842,-540.025 868.742,-533.083"/>
<text text-anchor="middle" x="912" y="-552.919" font-family="FreeSans" font-size="10.00"> &lt; Integer &gt;</text>
</g>
<!-- Node26 -->
<g id="node24" class="node"><title>Node26</title>
<g id="a_node24"><a xlink:href="structDGtal_1_1NumberTraits.html" target="_top" xlink:title="DGtal::NumberTraits\l\&lt; TInteger \&gt;">
<polygon fill="white" stroke="black" points="977.5,-466.919 977.5,-496.919 1090.5,-496.919 1090.5,-466.919 977.5,-466.919"/>
<text text-anchor="start" x="985.5" y="-484.919" font-family="FreeSans" font-size="10.00">DGtal::NumberTraits</text>
<text text-anchor="middle" x="1034" y="-473.919" font-family="FreeSans" font-size="10.00">&lt; TInteger &gt;</text>
</a>
</g>
</g>
<!-- Node23&#45;&gt;Node26 -->
<g id="edge35" class="edge"><title>Node23&#45;&gt;Node26</title>
<path fill="none" stroke="orange" stroke-dasharray="5,2" d="M849.13,-516.512C888.366,-509.13 939.068,-499.591 977.29,-492.4"/>
<polygon fill="orange" stroke="orange" points="848.341,-513.099 839.161,-518.388 849.635,-519.978 848.341,-513.099"/>
<text text-anchor="middle" x="912" y="-512.919" font-family="FreeSans" font-size="10.00"> &lt; TInteger &gt;</text>
</g>
<!-- Node24&#45;&gt;Node23 -->
<g id="edge28" class="edge"><title>Node24&#45;&gt;Node23</title>
<path fill="none" stroke="midnightblue" d="M552.496,-527.919C603.367,-527.919 668.303,-527.919 716.858,-527.919"/>
<polygon fill="midnightblue" stroke="midnightblue" points="552.192,-524.419 542.192,-527.919 552.192,-531.419 552.192,-524.419"/>
</g>
<!-- Node25&#45;&gt;Node16 -->
<g id="edge30" class="edge"><title>Node25&#45;&gt;Node16</title>
<path fill="none" stroke="orange" stroke-dasharray="5,2" d="M1393.52,-482.815C1428.79,-487.64 1471.29,-494.38 1509,-502.919 1521.12,-505.662 1534.05,-509.254 1545.99,-512.857"/>
<polygon fill="orange" stroke="orange" points="1393.68,-479.304 1383.3,-481.442 1392.75,-486.242 1393.68,-479.304"/>
<text text-anchor="middle" x="1455" y="-505.919" font-family="FreeSans" font-size="10.00"> &lt; Integer &gt;</text>
</g>
<!-- Node26&#45;&gt;Node25 -->
<g id="edge32" class="edge"><title>Node26&#45;&gt;Node25</title>
<path fill="none" stroke="#9a32cd" stroke-dasharray="5,2" d="M1100.84,-474.255C1107.31,-473.71 1113.78,-473.247 1120,-472.919 1170.6,-470.248 1183.33,-472.612 1234,-472.919 1239.73,-472.954 1245.68,-473.002 1251.65,-473.059"/>
<polygon fill="#9a32cd" stroke="#9a32cd" points="1100.36,-470.784 1090.71,-475.17 1100.99,-477.756 1100.36,-470.784"/>
<text text-anchor="middle" x="1177" y="-563.919" font-family="FreeSans" font-size="10.00"> _m_b</text>
<text text-anchor="middle" x="1177" y="-552.919" font-family="FreeSans" font-size="10.00">_m_c0</text>
<text text-anchor="middle" x="1177" y="-541.919" font-family="FreeSans" font-size="10.00">_m_c1</text>
<text text-anchor="middle" x="1177" y="-530.919" font-family="FreeSans" font-size="10.00">_m_c2</text>
<text text-anchor="middle" x="1177" y="-519.919" font-family="FreeSans" font-size="10.00">_m_q</text>
<text text-anchor="middle" x="1177" y="-508.919" font-family="FreeSans" font-size="10.00">_m_a0</text>
<text text-anchor="middle" x="1177" y="-497.919" font-family="FreeSans" font-size="10.00">_m_r</text>
<text text-anchor="middle" x="1177" y="-486.919" font-family="FreeSans" font-size="10.00">_m_a1</text>
<text text-anchor="middle" x="1177" y="-475.919" font-family="FreeSans" font-size="10.00">_m_a</text>
</g>
<!-- Node27&#45;&gt;Node26 -->
<g id="edge33" class="edge"><title>Node27&#45;&gt;Node26</title>
<path fill="none" stroke="midnightblue" d="M706.878,-482.729C785.786,-482.533 907.041,-482.232 977.331,-482.057"/>
<polygon fill="midnightblue" stroke="midnightblue" points="706.505,-479.23 696.514,-482.755 706.523,-486.23 706.505,-479.23"/>
</g>
<!-- Node28&#45;&gt;Node11 -->
<g id="edge37" class="edge"><title>Node28&#45;&gt;Node11</title>
<path fill="none" stroke="#9a32cd" stroke-dasharray="5,2" d="M1655.64,-464C1747.31,-441.991 1917.84,-401.049 2009.82,-378.967"/>
<polygon fill="#9a32cd" stroke="#9a32cd" points="1654.58,-460.655 1645.67,-466.393 1656.21,-467.462 1654.58,-460.655"/>
<text text-anchor="middle" x="1802.5" y="-457.919" font-family="FreeSans" font-size="10.00"> _outPts</text>
<text text-anchor="middle" x="1802.5" y="-446.919" font-family="FreeSans" font-size="10.00">_inPts</text>
</g>
<!-- Node28&#45;&gt;Node29 -->
<g id="edge43" class="edge"><title>Node28&#45;&gt;Node29</title>
<path fill="none" stroke="#9a32cd" stroke-dasharray="5,2" d="M1655.95,-475.853C1675.24,-475.592 1696.53,-476.002 1716,-477.919 1721.72,-478.482 1727.63,-479.253 1733.54,-480.157"/>
<polygon fill="#9a32cd" stroke="#9a32cd" points="1655.7,-472.357 1645.77,-476.054 1655.83,-479.356 1655.7,-472.357"/>
<text text-anchor="middle" x="1696" y="-491.919" font-family="FreeSans" font-size="10.00"> _outPts</text>
<text text-anchor="middle" x="1696" y="-480.919" font-family="FreeSans" font-size="10.00">_inPts</text>
</g>
<!-- Node29&#45;&gt;Node11 -->
<g id="edge41" class="edge"><title>Node29&#45;&gt;Node11</title>
<path fill="none" stroke="orange" stroke-dasharray="5,2" d="M1881.35,-487.256C1915.44,-481.406 1954.9,-471.093 1987,-452.919 2019.81,-434.338 2047.92,-399.239 2062.28,-379.117"/>
<polygon fill="orange" stroke="orange" points="1880.74,-483.81 1871.42,-488.862 1881.85,-490.72 1880.74,-483.81"/>
<text text-anchor="middle" x="1938" y="-487.919" font-family="FreeSans" font-size="10.00"> &lt; InternalSpace2 &gt;</text>
</g>
</g>
</svg>
        <g id="navigator" transform="translate(0 0)" fill="#404254">
                <rect fill="#f2f5e9" fill-opacity="0.5" stroke="#606060" stroke-width=".5" x="0" y="0" width="60" height="60"/>
                <use id="zoomplus" xlink:href="#zoomPlus" x="17" y="9" onmousedown="handleZoom(evt,'in')"/>
                <use id="zoomminus" xlink:href="#zoomMin" x="42" y="9" onmousedown="handleZoom(evt,'out')"/>
                <use id="reset" xlink:href="#resetDef" x="30" y="36" onmousedown="handleReset()"/>
                <g id="arrowUp" xlink:href="#dirArrow" transform="translate(30 24)" onmousedown="handlePan(0,-1)">
                  <use xlink:href="#rim" fill="#404040">
                        <set attributeName="fill" to="#808080" begin="arrowUp.mouseover" end="arrowUp.mouseout"/>
                  </use>
                  <path fill="none" stroke="white" stroke-width="1.5" d="M0,-3.0v7 M-2.5,-0.5L0,-3.0L2.5,-0.5"/>
                </g>
                <g id="arrowRight" xlink:href="#dirArrow" transform="rotate(90) translate(36 -43)" onmousedown="handlePan(1,0)">
                  <use xlink:href="#rim" fill="#404040">
                        <set attributeName="fill" to="#808080" begin="arrowRight.mouseover" end="arrowRight.mouseout"/>
                  </use>
                  <path fill="none" stroke="white" stroke-width="1.5" d="M0,-3.0v7 M-2.5,-0.5L0,-3.0L2.5,-0.5"/>
                </g>
                <g id="arrowDown" xlink:href="#dirArrow" transform="rotate(180) translate(-30 -48)" onmousedown="handlePan(0,1)">
                  <use xlink:href="#rim" fill="#404040">
                        <set attributeName="fill" to="#808080" begin="arrowDown.mouseover" end="arrowDown.mouseout"/>
                  </use>
                  <path fill="none" stroke="white" stroke-width="1.5" d="M0,-3.0v7 M-2.5,-0.5L0,-3.0L2.5,-0.5"/>
                </g>
                <g id="arrowLeft" xlink:href="#dirArrow" transform="rotate(270) translate(-36 17)" onmousedown="handlePan(-1,0)">
                  <use xlink:href="#rim" fill="#404040">
                        <set attributeName="fill" to="#808080" begin="arrowLeft.mouseover" end="arrowLeft.mouseout"/>
                  </use>
                  <path fill="none" stroke="white" stroke-width="1.5" d="M0,-3.0v7 M-2.5,-0.5L0,-3.0L2.5,-0.5"/>
                </g>
        </g>
        <svg viewBox="0 0 15 15" width="100%" height="30px" preserveAspectRatio="xMaxYMin meet">
         <g id="arrow_out" transform="scale(0.3 0.3)">
          <a xlink:href="classDGtal_1_1COBANaivePlaneComputer__coll__graph_org.svg" target="_base">
           <rect id="button" ry="5" rx="5" y="6" x="6" height="38" width="38"
                fill="#f2f5e9" fill-opacity="0.5" stroke="#606060" stroke-width="1.0"/>
           <path id="arrow"
             d="M 11.500037,31.436501 C 11.940474,20.09759 22.043105,11.32322 32.158766,21.979434 L 37.068811,17.246167 C 37.068811,17.246167 37.088388,32 37.088388,32 L 22.160133,31.978069 C 22.160133,31.978069 26.997745,27.140456 26.997745,27.140456 C 18.528582,18.264221 13.291696,25.230495 11.500037,31.436501 z"
             style="fill:#404040;"/>
          </a>
         </g>
        </svg>
</svg>
