<?xml version="1.0" encoding="UTF-8" standalone="no"?>
<!DOCTYPE svg PUBLIC "-//W3C//DTD SVG 1.1//EN"
 "http://www.w3.org/Graphics/SVG/1.1/DTD/svg11.dtd">
<!-- Generated by graphviz version 2.38.0 (20140413.2041)
 -->
<!-- Title: DGtal::ImageCacheReadPolicyFIFO&lt; TImageContainer, TImageFactory &gt; Pages: 1 -->
<svg width="225pt" height="240pt"
 viewBox="0.00 0.00 225.00 240.00" xmlns="http://www.w3.org/2000/svg" xmlns:xlink="http://www.w3.org/1999/xlink">
<g id="graph0" class="graph" transform="scale(1 1) rotate(0) translate(4 236)">
<title>DGtal::ImageCacheReadPolicyFIFO&lt; TImageContainer, TImageFactory &gt;</title>
<polygon fill="white" stroke="none" points="-4,4 -4,-236 221,-236 221,4 -4,4"/>
<!-- Node1 -->
<g id="node1" class="node"><title>Node1</title>
<polygon fill="#bfbfbf" stroke="black" points="0,-0.5 0,-30.5 217,-30.5 217,-0.5 0,-0.5"/>
<text text-anchor="start" x="8" y="-18.5" font-family="FreeSans" font-size="10.00">DGtal::ImageCacheReadPolicy</text>
<text text-anchor="middle" x="108.5" y="-7.5" font-family="FreeSans" font-size="10.00">FIFO&lt; TImageContainer, TImageFactory &gt;</text>
</g>
<!-- Node2 -->
<g id="node2" class="node"><title>Node2</title>
<polygon fill="white" stroke="#bfbfbf" points="22.5,-78.5 22.5,-97.5 194.5,-97.5 194.5,-78.5 22.5,-78.5"/>
<text text-anchor="middle" x="108.5" y="-85.5" font-family="FreeSans" font-size="10.00">std::deque&lt; ImageContainer *&gt;</text>
</g>
<!-- Node2&#45;&gt;Node1 -->
<g id="edge1" class="edge"><title>Node2&#45;&gt;Node1</title>
<path fill="none" stroke="#9a32cd" stroke-dasharray="5,2" d="M108.5,-68.2362C108.5,-56.4079 108.5,-41.3829 108.5,-30.5762"/>
<polygon fill="#9a32cd" stroke="#9a32cd" points="105,-68.3553 108.5,-78.3553 112,-68.3554 105,-68.3553"/>
<text text-anchor="middle" x="160.5" y="-52" font-family="FreeSans" font-size="10.00"> myFIFOCacheImages</text>
</g>
<!-- Node3 -->
<g id="node3" class="node"><title>Node3</title>
<g id="a_node3"><a xlink:title="STL class. ">
<polygon fill="white" stroke="#bfbfbf" points="61,-145.5 61,-164.5 156,-164.5 156,-145.5 61,-145.5"/>
<text text-anchor="middle" x="108.5" y="-152.5" font-family="FreeSans" font-size="10.00">std::deque&lt; T &gt;</text>
</a>
</g>
</g>
<!-- Node3&#45;&gt;Node2 -->
<g id="edge2" class="edge"><title>Node3&#45;&gt;Node2</title>
<path fill="none" stroke="orange" stroke-dasharray="5,2" d="M108.5,-135.037C108.5,-122.67 108.5,-107.12 108.5,-97.6273"/>
<polygon fill="orange" stroke="orange" points="105,-135.234 108.5,-145.234 112,-135.234 105,-135.234"/>
<text text-anchor="middle" x="162.5" y="-119" font-family="FreeSans" font-size="10.00"> &lt; ImageContainer *&gt;</text>
</g>
<!-- Node4 -->
<g id="node4" class="node"><title>Node4</title>
<polygon fill="white" stroke="#bfbfbf" points="94,-212.5 94,-231.5 123,-231.5 123,-212.5 94,-212.5"/>
<text text-anchor="middle" x="108.5" y="-219.5" font-family="FreeSans" font-size="10.00">T</text>
</g>
<!-- Node4&#45;&gt;Node3 -->
<g id="edge3" class="edge"><title>Node4&#45;&gt;Node3</title>
<path fill="none" stroke="#9a32cd" stroke-dasharray="5,2" d="M108.5,-202.037C108.5,-189.67 108.5,-174.12 108.5,-164.627"/>
<polygon fill="#9a32cd" stroke="#9a32cd" points="105,-202.234 108.5,-212.234 112,-202.234 105,-202.234"/>
<text text-anchor="middle" x="133" y="-186" font-family="FreeSans" font-size="10.00"> elements</text>
</g>
</g>
</svg>
