<?xml version="1.0" encoding="UTF-8" standalone="no"?>
<!DOCTYPE svg PUBLIC "-//W3C//DTD SVG 1.1//EN"
 "http://www.w3.org/Graphics/SVG/1.1/DTD/svg11.dtd">
<!-- Generated by graphviz version 2.38.0 (20140413.2041)
 -->
<!-- Title: DGtal::ShroudsRegularization&lt; TDigitalSurfaceContainer &gt; Pages: 1 -->
<!--zoomable 292 -->
<svg id="main" version="1.1" xmlns="http://www.w3.org/2000/svg" xmlns:xlink="http://www.w3.org/1999/xlink" xml:space="preserve" onload="init(evt)">
<style type="text/css"><![CDATA[
.edge:hover path { stroke: red; }
.edge:hover polygon { stroke: red; fill: red; }
]]></style>
<script type="text/javascript"><![CDATA[
var edges = document.getElementsByTagName('g');
if (edges && edges.length) {
  for (var i=0;i<edges.length;i++) {
    if (edges[i].id.substr(0,4)=='edge') {
      edges[i].setAttribute('class','edge');
    }
  }
}
]]></script>
        <defs>
                <circle id="rim" cx="0" cy="0" r="7"/>
                <circle id="rim2" cx="0" cy="0" r="3.5"/>
                <g id="zoomPlus">
                        <use xlink:href="#rim" fill="#404040">
                                <set attributeName="fill" to="#808080" begin="zoomplus.mouseover" end="zoomplus.mouseout"/>
                        </use>
                        <path d="M-4,0h8M0,-4v8" fill="none" stroke="white" stroke-width="1.5" pointer-events="none"/>
                </g>
                <g id="zoomMin">
                        <use xlink:href="#rim" fill="#404040">
                                <set attributeName="fill" to="#808080" begin="zoomminus.mouseover" end="zoomminus.mouseout"/>
                        </use>
                        <path d="M-4,0h8" fill="none" stroke="white" stroke-width="1.5" pointer-events="none"/>
                </g>
                <g id="dirArrow">
                        <path fill="none" stroke="white" stroke-width="1.5" d="M0,-3.0v7 M-2.5,-0.5L0,-3.0L2.5,-0.5"/>
                </g>
               <g id="resetDef">
                       <use xlink:href="#rim2" fill="#404040">
                               <set attributeName="fill" to="#808080" begin="reset.mouseover" end="reset.mouseout"/>
                       </use>
               </g>
        </defs>

<script type="text/javascript">
var viewWidth = 987;
var viewHeight = 292;
var sectionId = 'dynsection-0';
</script>
<script xlink:href="svgpan.js"/>
<svg id="graph" class="graph">
<g id="viewport">
<title>DGtal::ShroudsRegularization&lt; TDigitalSurfaceContainer &gt;</title>
<polygon fill="white" stroke="none" points="-4,4 -4,-288 983,-288 983,4 -4,4"/>
<!-- Node1 -->
<g id="node1" class="node"><title>Node1</title>
<polygon fill="#bfbfbf" stroke="black" points="821,-116 821,-146 979,-146 979,-116 821,-116"/>
<text text-anchor="start" x="829" y="-134" font-family="FreeSans" font-size="10.00">DGtal::ShroudsRegularization</text>
<text text-anchor="middle" x="900" y="-123" font-family="FreeSans" font-size="10.00">&lt; TDigitalSurfaceContainer &gt;</text>
</g>
<!-- Node2 -->
<g id="node2" class="node"><title>Node2</title>
<polygon fill="white" stroke="#bfbfbf" points="552,-211.5 552,-230.5 686,-230.5 686,-211.5 552,-211.5"/>
<text text-anchor="middle" x="619" y="-218.5" font-family="FreeSans" font-size="10.00">std::vector&lt; RealPoint &gt;</text>
</g>
<!-- Node2&#45;&gt;Node1 -->
<g id="edge1" class="edge"><title>Node2&#45;&gt;Node1</title>
<path fill="none" stroke="#9a32cd" stroke-dasharray="5,2" d="M696.569,-214.65C730.021,-210.205 769.24,-202.686 803,-190 831.567,-179.265 860.967,-159.705 879.576,-146.061"/>
<polygon fill="#9a32cd" stroke="#9a32cd" points="695.869,-211.21 686.385,-215.933 696.744,-218.155 695.869,-211.21"/>
<text text-anchor="middle" x="762" y="-224" font-family="FreeSans" font-size="10.00"> myOutV</text>
<text text-anchor="middle" x="762" y="-213" font-family="FreeSans" font-size="10.00">myInsV</text>
</g>
<!-- Node3 -->
<g id="node3" class="node"><title>Node3</title>
<g id="a_node3"><a xlink:href="classDGtal_1_1PointVector.html" target="_top" xlink:title="Aim: Implements basic operations that will be used in Point and Vector classes. ">
<polygon fill="white" stroke="black" points="207.5,-213.5 207.5,-254.5 333.5,-254.5 333.5,-213.5 207.5,-213.5"/>
<text text-anchor="start" x="215.5" y="-242.5" font-family="FreeSans" font-size="10.00">DGtal::PointVector</text>
<text text-anchor="start" x="215.5" y="-231.5" font-family="FreeSans" font-size="10.00">&lt; dim, TEuclideanRing,</text>
<text text-anchor="middle" x="270.5" y="-220.5" font-family="FreeSans" font-size="10.00"> TContainer &gt;</text>
</a>
</g>
</g>
<!-- Node3&#45;&gt;Node2 -->
<g id="edge2" class="edge"><title>Node3&#45;&gt;Node2</title>
<path fill="none" stroke="#9a32cd" stroke-dasharray="5,2" d="M344.211,-231.272C405.467,-228.974 492.364,-225.714 551.728,-223.486"/>
<polygon fill="#9a32cd" stroke="#9a32cd" points="343.709,-227.788 333.847,-231.661 343.972,-234.783 343.709,-227.788"/>
<text text-anchor="middle" x="435.5" y="-233" font-family="FreeSans" font-size="10.00"> elements</text>
</g>
<!-- Node3&#45;&gt;Node3 -->
<g id="edge4" class="edge"><title>Node3&#45;&gt;Node3</title>
<path fill="none" stroke="#9a32cd" stroke-dasharray="5,2" d="M251.231,-264.856C254.097,-269.697 260.52,-273 270.5,-273 286.469,-273 293.33,-264.543 291.085,-254.864"/>
<polygon fill="#9a32cd" stroke="#9a32cd" points="254.691,-264.322 249.915,-254.864 247.751,-265.236 254.691,-264.322"/>
<text text-anchor="middle" x="270.5" y="-276" font-family="FreeSans" font-size="10.00"> zero</text>
</g>
<!-- Node4 -->
<g id="node4" class="node"><title>Node4</title>
<polygon fill="white" stroke="#bfbfbf" points="22,-224.5 22,-243.5 90,-243.5 90,-224.5 22,-224.5"/>
<text text-anchor="middle" x="56" y="-231.5" font-family="FreeSans" font-size="10.00">TContainer</text>
</g>
<!-- Node4&#45;&gt;Node3 -->
<g id="edge3" class="edge"><title>Node4&#45;&gt;Node3</title>
<path fill="none" stroke="#9a32cd" stroke-dasharray="5,2" d="M100.215,-234C131.071,-234 173.037,-234 207.465,-234"/>
<polygon fill="#9a32cd" stroke="#9a32cd" points="100.203,-230.5 90.2031,-234 100.203,-237.5 100.203,-230.5"/>
<text text-anchor="middle" x="158.5" y="-237" font-family="FreeSans" font-size="10.00"> myArray</text>
</g>
<!-- Node5 -->
<g id="node5" class="node"><title>Node5</title>
<g id="a_node5"><a xlink:title="STL class. ">
<polygon fill="white" stroke="#bfbfbf" points="223,-139.5 223,-158.5 318,-158.5 318,-139.5 223,-139.5"/>
<text text-anchor="middle" x="270.5" y="-146.5" font-family="FreeSans" font-size="10.00">std::vector&lt; T &gt;</text>
</a>
</g>
</g>
<!-- Node5&#45;&gt;Node2 -->
<g id="edge5" class="edge"><title>Node5&#45;&gt;Node2</title>
<path fill="none" stroke="orange" stroke-dasharray="5,2" d="M304.755,-162.197C319.633,-167.708 337.505,-173.793 354,-178 420.483,-194.958 498.163,-206.664 551.97,-213.533"/>
<polygon fill="orange" stroke="orange" points="305.578,-158.766 294.986,-158.504 303.102,-165.314 305.578,-158.766"/>
<text text-anchor="middle" x="435.5" y="-211" font-family="FreeSans" font-size="10.00"> &lt; RealPoint &gt;</text>
</g>
<!-- Node7 -->
<g id="node7" class="node"><title>Node7</title>
<polygon fill="white" stroke="#bfbfbf" points="548.5,-165.5 548.5,-184.5 689.5,-184.5 689.5,-165.5 548.5,-165.5"/>
<text text-anchor="middle" x="619" y="-172.5" font-family="FreeSans" font-size="10.00">std::vector&lt; Dimension &gt;</text>
</g>
<!-- Node5&#45;&gt;Node7 -->
<g id="edge8" class="edge"><title>Node5&#45;&gt;Node7</title>
<path fill="none" stroke="orange" stroke-dasharray="5,2" d="M328.348,-153.073C378.11,-156.662 452.353,-162.07 517,-167 527.172,-167.776 537.92,-168.611 548.46,-169.438"/>
<polygon fill="orange" stroke="orange" points="328.339,-149.564 318.113,-152.336 327.836,-156.546 328.339,-149.564"/>
<text text-anchor="middle" x="435.5" y="-170" font-family="FreeSans" font-size="10.00"> &lt; Dimension &gt;</text>
</g>
<!-- Node8 -->
<g id="node8" class="node"><title>Node8</title>
<polygon fill="white" stroke="#bfbfbf" points="559,-122.5 559,-141.5 679,-141.5 679,-122.5 559,-122.5"/>
<text text-anchor="middle" x="619" y="-129.5" font-family="FreeSans" font-size="10.00">std::vector&lt; Scalar &gt;</text>
</g>
<!-- Node5&#45;&gt;Node8 -->
<g id="edge10" class="edge"><title>Node5&#45;&gt;Node8</title>
<path fill="none" stroke="orange" stroke-dasharray="5,2" d="M322.228,-137.611C332.682,-135.702 343.657,-134.014 354,-133 424.133,-126.128 505.25,-127.15 558.86,-129.062"/>
<polygon fill="orange" stroke="orange" points="321.564,-134.174 312.402,-139.494 322.882,-141.049 321.564,-134.174"/>
<text text-anchor="middle" x="435.5" y="-136" font-family="FreeSans" font-size="10.00"> &lt; Scalar &gt;</text>
</g>
<!-- Node12 -->
<g id="node12" class="node"><title>Node12</title>
<polygon fill="white" stroke="#bfbfbf" points="558.5,-84.5 558.5,-103.5 679.5,-103.5 679.5,-84.5 558.5,-84.5"/>
<text text-anchor="middle" x="619" y="-91.5" font-family="FreeSans" font-size="10.00">std::vector&lt; Vertex &gt;</text>
</g>
<!-- Node5&#45;&gt;Node12 -->
<g id="edge16" class="edge"><title>Node5&#45;&gt;Node12</title>
<path fill="none" stroke="orange" stroke-dasharray="5,2" d="M297.746,-134.807C313.571,-126.954 334.398,-117.831 354,-113 422.71,-96.0653 504.289,-92.6295 558.389,-92.58"/>
<polygon fill="orange" stroke="orange" points="295.908,-131.816 288.595,-139.483 299.093,-138.049 295.908,-131.816"/>
<text text-anchor="middle" x="435.5" y="-116" font-family="FreeSans" font-size="10.00"> &lt; Vertex &gt;</text>
</g>
<!-- Node6 -->
<g id="node6" class="node"><title>Node6</title>
<polygon fill="white" stroke="#bfbfbf" points="41.5,-139.5 41.5,-158.5 70.5,-158.5 70.5,-139.5 41.5,-139.5"/>
<text text-anchor="middle" x="56" y="-146.5" font-family="FreeSans" font-size="10.00">T</text>
</g>
<!-- Node6&#45;&gt;Node5 -->
<g id="edge6" class="edge"><title>Node6&#45;&gt;Node5</title>
<path fill="none" stroke="#9a32cd" stroke-dasharray="5,2" d="M80.6233,-149C114.878,-149 179.037,-149 222.99,-149"/>
<polygon fill="#9a32cd" stroke="#9a32cd" points="80.6161,-145.5 70.6161,-149 80.6161,-152.5 80.6161,-145.5"/>
<text text-anchor="middle" x="158.5" y="-152" font-family="FreeSans" font-size="10.00"> elements</text>
</g>
<!-- Node7&#45;&gt;Node1 -->
<g id="edge7" class="edge"><title>Node7&#45;&gt;Node1</title>
<path fill="none" stroke="#9a32cd" stroke-dasharray="5,2" d="M699.954,-175.567C732.22,-174.519 769.639,-171.675 803,-165 823.805,-160.837 846.199,-153.106 864.121,-146.067"/>
<polygon fill="#9a32cd" stroke="#9a32cd" points="699.571,-172.076 689.67,-175.847 699.762,-179.074 699.571,-172.076"/>
<text text-anchor="middle" x="762" y="-178" font-family="FreeSans" font-size="10.00"> myOrthDir</text>
</g>
<!-- Node8&#45;&gt;Node1 -->
<g id="edge9" class="edge"><title>Node8&#45;&gt;Node1</title>
<path fill="none" stroke="#9a32cd" stroke-dasharray="5,2" d="M689.344,-131.751C729.258,-131.608 779.531,-131.428 820.842,-131.28"/>
<polygon fill="#9a32cd" stroke="#9a32cd" points="689.156,-128.252 679.169,-131.788 689.181,-135.252 689.156,-128.252"/>
<text text-anchor="middle" x="762" y="-157" font-family="FreeSans" font-size="10.00"> myNextD</text>
<text text-anchor="middle" x="762" y="-146" font-family="FreeSans" font-size="10.00">myT</text>
<text text-anchor="middle" x="762" y="-135" font-family="FreeSans" font-size="10.00">myPrevD</text>
</g>
<!-- Node9 -->
<g id="node9" class="node"><title>Node9</title>
<g id="a_node9"><a xlink:href="classDGtal_1_1CountedPtr.html" target="_top" xlink:title="DGtal::CountedPtr\&lt;\l DGtal::IndexedDigitalSurface \&gt;">
<polygon fill="white" stroke="black" points="535,-35 535,-65 703,-65 703,-35 535,-35"/>
<text text-anchor="start" x="543" y="-53" font-family="FreeSans" font-size="10.00">DGtal::CountedPtr&lt;</text>
<text text-anchor="middle" x="619" y="-42" font-family="FreeSans" font-size="10.00"> DGtal::IndexedDigitalSurface &gt;</text>
</a>
</g>
</g>
<!-- Node9&#45;&gt;Node1 -->
<g id="edge11" class="edge"><title>Node9&#45;&gt;Node1</title>
<path fill="none" stroke="#9a32cd" stroke-dasharray="5,2" d="M713.415,-61.5717C742.548,-66.5761 774.501,-73.5231 803,-83 828.108,-91.3493 854.899,-105.205 873.781,-115.889"/>
<polygon fill="#9a32cd" stroke="#9a32cd" points="713.676,-58.0672 703.238,-59.8816 712.529,-64.9727 713.676,-58.0672"/>
<text text-anchor="middle" x="762" y="-86" font-family="FreeSans" font-size="10.00"> myPtrIdxSurface</text>
</g>
<!-- Node10 -->
<g id="node10" class="node"><title>Node10</title>
<g id="a_node10"><a xlink:href="structDGtal_1_1CountedPtr_1_1Counter.html" target="_top" xlink:title="DGtal::CountedPtr\&lt;\l T \&gt;::Counter">
<polygon fill="white" stroke="black" points="0,-28 0,-58 112,-58 112,-28 0,-28"/>
<text text-anchor="start" x="8" y="-46" font-family="FreeSans" font-size="10.00">DGtal::CountedPtr&lt;</text>
<text text-anchor="middle" x="56" y="-35" font-family="FreeSans" font-size="10.00"> T &gt;::Counter</text>
</a>
</g>
</g>
<!-- Node10&#45;&gt;Node9 -->
<g id="edge12" class="edge"><title>Node10&#45;&gt;Node9</title>
<path fill="none" stroke="#9a32cd" stroke-dasharray="5,2" d="M122.253,-43.8142C224.445,-45.0893 422.156,-47.5563 534.557,-48.9588"/>
<polygon fill="#9a32cd" stroke="#9a32cd" points="122.112,-40.3123 112.069,-43.6871 122.025,-47.3117 122.112,-40.3123"/>
<text text-anchor="middle" x="270.5" y="-50" font-family="FreeSans" font-size="10.00"> myCounter</text>
</g>
<!-- Node11 -->
<g id="node11" class="node"><title>Node11</title>
<g id="a_node11"><a xlink:href="classDGtal_1_1CountedPtr.html" target="_top" xlink:title="Aim: Smart pointer based on reference counts. ">
<polygon fill="white" stroke="black" points="205,-0.5 205,-19.5 336,-19.5 336,-0.5 205,-0.5"/>
<text text-anchor="middle" x="270.5" y="-7.5" font-family="FreeSans" font-size="10.00">DGtal::CountedPtr&lt; T &gt;</text>
</a>
</g>
</g>
<!-- Node10&#45;&gt;Node11 -->
<g id="edge14" class="edge"><title>Node10&#45;&gt;Node11</title>
<path fill="none" stroke="#9a32cd" stroke-dasharray="5,2" d="M122.386,-32.2074C124.957,-31.7971 127.502,-31.3933 130,-31 154.436,-27.1526 181.304,-23.0722 204.882,-19.5417"/>
<polygon fill="#9a32cd" stroke="#9a32cd" points="121.708,-28.7713 112.39,-33.8141 122.819,-35.6826 121.708,-28.7713"/>
<text text-anchor="middle" x="158.5" y="-34" font-family="FreeSans" font-size="10.00"> myCounter</text>
</g>
<!-- Node11&#45;&gt;Node9 -->
<g id="edge13" class="edge"><title>Node11&#45;&gt;Node9</title>
<path fill="none" stroke="orange" stroke-dasharray="5,2" d="M346.199,-14.4305C394.956,-17.8045 459.921,-23.21 517,-31 525.309,-32.134 533.971,-33.492 542.577,-34.9536"/>
<polygon fill="orange" stroke="orange" points="346.264,-10.9269 336.05,-13.7413 345.789,-17.9108 346.264,-10.9269"/>
<text text-anchor="middle" x="435.5" y="-34" font-family="FreeSans" font-size="10.00"> &lt; DGtal::IndexedDigitalSurface &gt;</text>
</g>
<!-- Node12&#45;&gt;Node1 -->
<g id="edge15" class="edge"><title>Node12&#45;&gt;Node1</title>
<path fill="none" stroke="#9a32cd" stroke-dasharray="5,2" d="M690.031,-95.487C724.265,-97.002 765.969,-100.019 803,-106 817.962,-108.416 833.981,-112.126 848.563,-115.953"/>
<polygon fill="#9a32cd" stroke="#9a32cd" points="689.794,-91.9745 679.66,-95.0635 689.509,-98.9687 689.794,-91.9745"/>
<text text-anchor="middle" x="762" y="-120" font-family="FreeSans" font-size="10.00"> myPrev</text>
<text text-anchor="middle" x="762" y="-109" font-family="FreeSans" font-size="10.00">myNext</text>
</g>
</g>
</svg>
        <g id="navigator" transform="translate(0 0)" fill="#404254">
                <rect fill="#f2f5e9" fill-opacity="0.5" stroke="#606060" stroke-width=".5" x="0" y="0" width="60" height="60"/>
                <use id="zoomplus" xlink:href="#zoomPlus" x="17" y="9" onmousedown="handleZoom(evt,'in')"/>
                <use id="zoomminus" xlink:href="#zoomMin" x="42" y="9" onmousedown="handleZoom(evt,'out')"/>
                <use id="reset" xlink:href="#resetDef" x="30" y="36" onmousedown="handleReset()"/>
                <g id="arrowUp" xlink:href="#dirArrow" transform="translate(30 24)" onmousedown="handlePan(0,-1)">
                  <use xlink:href="#rim" fill="#404040">
                        <set attributeName="fill" to="#808080" begin="arrowUp.mouseover" end="arrowUp.mouseout"/>
                  </use>
                  <path fill="none" stroke="white" stroke-width="1.5" d="M0,-3.0v7 M-2.5,-0.5L0,-3.0L2.5,-0.5"/>
                </g>
                <g id="arrowRight" xlink:href="#dirArrow" transform="rotate(90) translate(36 -43)" onmousedown="handlePan(1,0)">
                  <use xlink:href="#rim" fill="#404040">
                        <set attributeName="fill" to="#808080" begin="arrowRight.mouseover" end="arrowRight.mouseout"/>
                  </use>
                  <path fill="none" stroke="white" stroke-width="1.5" d="M0,-3.0v7 M-2.5,-0.5L0,-3.0L2.5,-0.5"/>
                </g>
                <g id="arrowDown" xlink:href="#dirArrow" transform="rotate(180) translate(-30 -48)" onmousedown="handlePan(0,1)">
                  <use xlink:href="#rim" fill="#404040">
                        <set attributeName="fill" to="#808080" begin="arrowDown.mouseover" end="arrowDown.mouseout"/>
                  </use>
                  <path fill="none" stroke="white" stroke-width="1.5" d="M0,-3.0v7 M-2.5,-0.5L0,-3.0L2.5,-0.5"/>
                </g>
                <g id="arrowLeft" xlink:href="#dirArrow" transform="rotate(270) translate(-36 17)" onmousedown="handlePan(-1,0)">
                  <use xlink:href="#rim" fill="#404040">
                        <set attributeName="fill" to="#808080" begin="arrowLeft.mouseover" end="arrowLeft.mouseout"/>
                  </use>
                  <path fill="none" stroke="white" stroke-width="1.5" d="M0,-3.0v7 M-2.5,-0.5L0,-3.0L2.5,-0.5"/>
                </g>
        </g>
        <svg viewBox="0 0 15 15" width="100%" height="30px" preserveAspectRatio="xMaxYMin meet">
         <g id="arrow_out" transform="scale(0.3 0.3)">
          <a xlink:href="classDGtal_1_1ShroudsRegularization__coll__graph_org.svg" target="_base">
           <rect id="button" ry="5" rx="5" y="6" x="6" height="38" width="38"
                fill="#f2f5e9" fill-opacity="0.5" stroke="#606060" stroke-width="1.0"/>
           <path id="arrow"
             d="M 11.500037,31.436501 C 11.940474,20.09759 22.043105,11.32322 32.158766,21.979434 L 37.068811,17.246167 C 37.068811,17.246167 37.088388,32 37.088388,32 L 22.160133,31.978069 C 22.160133,31.978069 26.997745,27.140456 26.997745,27.140456 C 18.528582,18.264221 13.291696,25.230495 11.500037,31.436501 z"
             style="fill:#404040;"/>
          </a>
         </g>
        </svg>
</svg>
