<?xml version="1.0" encoding="UTF-8" standalone="no"?>
<!DOCTYPE svg PUBLIC "-//W3C//DTD SVG 1.1//EN"
 "http://www.w3.org/Graphics/SVG/1.1/DTD/svg11.dtd">
<!-- Generated by graphviz version 2.38.0 (20140413.2041)
 -->
<!-- Title: DGtal::HalfEdgeDataStructure Pages: 1 -->
<svg width="906pt" height="155pt"
 viewBox="0.00 0.00 906.00 155.00" xmlns="http://www.w3.org/2000/svg" xmlns:xlink="http://www.w3.org/1999/xlink">
<g id="graph0" class="graph" transform="scale(1 1) rotate(0) translate(4 151)">
<title>DGtal::HalfEdgeDataStructure</title>
<polygon fill="white" stroke="none" points="-4,4 -4,-151 902,-151 902,4 -4,4"/>
<!-- Node1 -->
<g id="node1" class="node"><title>Node1</title>
<polygon fill="#bfbfbf" stroke="black" points="737,-66.5 737,-85.5 898,-85.5 898,-66.5 737,-66.5"/>
<text text-anchor="middle" x="817.5" y="-73.5" font-family="FreeSans" font-size="10.00">DGtal::HalfEdgeDataStructure</text>
</g>
<!-- Node2 -->
<g id="node2" class="node"><title>Node2</title>
<polygon fill="white" stroke="#bfbfbf" points="472.5,-5.5 472.5,-24.5 601.5,-24.5 601.5,-5.5 472.5,-5.5"/>
<text text-anchor="middle" x="537" y="-12.5" font-family="FreeSans" font-size="10.00">std::map&lt; Arc, Index &gt;</text>
</g>
<!-- Node2&#45;&gt;Node1 -->
<g id="edge1" class="edge"><title>Node2&#45;&gt;Node1</title>
<path fill="none" stroke="#9a32cd" stroke-dasharray="5,2" d="M591.358,-26.6871C644.081,-38.2349 723.758,-55.6868 772.831,-66.4352"/>
<polygon fill="#9a32cd" stroke="#9a32cd" points="592.033,-23.252 581.516,-24.5312 590.535,-30.0899 592.033,-23.252"/>
<text text-anchor="middle" x="670.5" y="-58" font-family="FreeSans" font-size="10.00"> myArc2Index</text>
</g>
<!-- Node3 -->
<g id="node3" class="node"><title>Node3</title>
<g id="a_node3"><a xlink:title="STL class. ">
<polygon fill="white" stroke="#bfbfbf" points="145,-0.5 145,-19.5 244,-19.5 244,-0.5 145,-0.5"/>
<text text-anchor="middle" x="194.5" y="-7.5" font-family="FreeSans" font-size="10.00">std::map&lt; K, T &gt;</text>
</a>
</g>
</g>
<!-- Node3&#45;&gt;Node2 -->
<g id="edge2" class="edge"><title>Node3&#45;&gt;Node2</title>
<path fill="none" stroke="orange" stroke-dasharray="5,2" d="M254.484,-10.8661C315.269,-11.7587 409.721,-13.1457 472.211,-14.0633"/>
<polygon fill="orange" stroke="orange" points="254.336,-7.36368 244.285,-10.7164 254.233,-14.3629 254.336,-7.36368"/>
<text text-anchor="middle" x="372.5" y="-17" font-family="FreeSans" font-size="10.00"> &lt; Arc, Index &gt;</text>
</g>
<!-- Node4 -->
<g id="node4" class="node"><title>Node4</title>
<polygon fill="white" stroke="#bfbfbf" points="0,-0.5 0,-19.5 29,-19.5 29,-0.5 0,-0.5"/>
<text text-anchor="middle" x="14.5" y="-7.5" font-family="FreeSans" font-size="10.00">K</text>
</g>
<!-- Node4&#45;&gt;Node3 -->
<g id="edge3" class="edge"><title>Node4&#45;&gt;Node3</title>
<path fill="none" stroke="#9a32cd" stroke-dasharray="5,2" d="M39.1941,-10C66.0482,-10 110.544,-10 144.872,-10"/>
<polygon fill="#9a32cd" stroke="#9a32cd" points="39.1718,-6.5001 29.1718,-10 39.1718,-13.5001 39.1718,-6.5001"/>
<text text-anchor="middle" x="71.5" y="-13" font-family="FreeSans" font-size="10.00"> keys</text>
</g>
<!-- Node5 -->
<g id="node5" class="node"><title>Node5</title>
<polygon fill="white" stroke="#bfbfbf" points="0,-58.5 0,-77.5 29,-77.5 29,-58.5 0,-58.5"/>
<text text-anchor="middle" x="14.5" y="-65.5" font-family="FreeSans" font-size="10.00">T</text>
</g>
<!-- Node5&#45;&gt;Node3 -->
<g id="edge4" class="edge"><title>Node5&#45;&gt;Node3</title>
<path fill="none" stroke="#9a32cd" stroke-dasharray="5,2" d="M38.6955,-57.7286C58.4447,-49.2477 87.7133,-37.2987 114,-29 125.097,-25.4968 137.241,-22.2885 148.624,-19.5455"/>
<polygon fill="#9a32cd" stroke="#9a32cd" points="37.079,-54.6147 29.3019,-61.8096 39.8684,-61.035 37.079,-54.6147"/>
<text text-anchor="middle" x="71.5" y="-57" font-family="FreeSans" font-size="10.00"> elements</text>
</g>
<!-- Node8 -->
<g id="node8" class="node"><title>Node8</title>
<g id="a_node8"><a xlink:title="STL class. ">
<polygon fill="white" stroke="#bfbfbf" points="147,-88.5 147,-107.5 242,-107.5 242,-88.5 147,-88.5"/>
<text text-anchor="middle" x="194.5" y="-95.5" font-family="FreeSans" font-size="10.00">std::vector&lt; T &gt;</text>
</a>
</g>
</g>
<!-- Node5&#45;&gt;Node8 -->
<g id="edge8" class="edge"><title>Node5&#45;&gt;Node8</title>
<path fill="none" stroke="#9a32cd" stroke-dasharray="5,2" d="M39.3794,-72.0246C66.7633,-76.6399 112.316,-84.3172 146.813,-90.1315"/>
<polygon fill="#9a32cd" stroke="#9a32cd" points="39.6144,-68.5149 29.1718,-70.3042 38.451,-75.4176 39.6144,-68.5149"/>
<text text-anchor="middle" x="71.5" y="-85" font-family="FreeSans" font-size="10.00"> elements</text>
</g>
<!-- Node6 -->
<g id="node6" class="node"><title>Node6</title>
<polygon fill="white" stroke="#bfbfbf" points="470,-55.5 470,-96.5 604,-96.5 604,-55.5 470,-55.5"/>
<text text-anchor="start" x="478" y="-84.5" font-family="FreeSans" font-size="10.00">std::vector&lt; DGtal</text>
<text text-anchor="start" x="478" y="-73.5" font-family="FreeSans" font-size="10.00">::HalfEdgeDataStructure</text>
<text text-anchor="middle" x="537" y="-62.5" font-family="FreeSans" font-size="10.00">::HalfEdge &gt;</text>
</g>
<!-- Node6&#45;&gt;Node1 -->
<g id="edge5" class="edge"><title>Node6&#45;&gt;Node1</title>
<path fill="none" stroke="#9a32cd" stroke-dasharray="5,2" d="M614.012,-76C652.115,-76 698.238,-76 736.834,-76"/>
<polygon fill="#9a32cd" stroke="#9a32cd" points="614.001,-72.5001 604.001,-76 614.001,-79.5001 614.001,-72.5001"/>
<text text-anchor="middle" x="670.5" y="-79" font-family="FreeSans" font-size="10.00"> myHalfEdges</text>
</g>
<!-- Node7 -->
<g id="node7" class="node"><title>Node7</title>
<g id="a_node7"><a xlink:href="structDGtal_1_1HalfEdgeDataStructure_1_1HalfEdge.html" target="_top" xlink:title="DGtal::HalfEdgeDataStructure\l::HalfEdge">
<polygon fill="white" stroke="black" points="114,-39 114,-69 275,-69 275,-39 114,-39"/>
<text text-anchor="start" x="122" y="-57" font-family="FreeSans" font-size="10.00">DGtal::HalfEdgeDataStructure</text>
<text text-anchor="middle" x="194.5" y="-46" font-family="FreeSans" font-size="10.00">::HalfEdge</text>
</a>
</g>
</g>
<!-- Node7&#45;&gt;Node6 -->
<g id="edge6" class="edge"><title>Node7&#45;&gt;Node6</title>
<path fill="none" stroke="#9a32cd" stroke-dasharray="5,2" d="M285.27,-49.0788C334.655,-47.6929 396.915,-48.1098 452,-55 457.817,-55.7276 463.812,-56.721 469.794,-57.8821"/>
<polygon fill="#9a32cd" stroke="#9a32cd" points="285.139,-45.5811 275.253,-49.3894 285.356,-52.5777 285.139,-45.5811"/>
<text text-anchor="middle" x="372.5" y="-58" font-family="FreeSans" font-size="10.00"> elements</text>
</g>
<!-- Node8&#45;&gt;Node6 -->
<g id="edge7" class="edge"><title>Node8&#45;&gt;Node6</title>
<path fill="none" stroke="orange" stroke-dasharray="5,2" d="M252.133,-92.3995C265.525,-91.1786 279.76,-89.9649 293,-89 352.833,-84.6396 421.055,-81.1167 469.949,-78.8438"/>
<polygon fill="orange" stroke="orange" points="251.722,-88.9226 242.088,-93.3306 252.368,-95.8927 251.722,-88.9226"/>
<text text-anchor="start" x="293" y="-103" font-family="FreeSans" font-size="10.00"> &lt; DGtal::HalfEdgeDataStructure</text>
<text text-anchor="middle" x="372.5" y="-92" font-family="FreeSans" font-size="10.00">::HalfEdge &gt;</text>
</g>
<!-- Node9 -->
<g id="node9" class="node"><title>Node9</title>
<polygon fill="white" stroke="#bfbfbf" points="479,-121.5 479,-140.5 595,-140.5 595,-121.5 479,-121.5"/>
<text text-anchor="middle" x="537" y="-128.5" font-family="FreeSans" font-size="10.00">std::vector&lt; Index &gt;</text>
</g>
<!-- Node8&#45;&gt;Node9 -->
<g id="edge10" class="edge"><title>Node8&#45;&gt;Node9</title>
<path fill="none" stroke="orange" stroke-dasharray="5,2" d="M252.106,-106.039C265.498,-107.805 279.741,-109.571 293,-111 356.551,-117.848 429.675,-123.575 478.969,-127.122"/>
<polygon fill="orange" stroke="orange" points="252.436,-102.552 242.06,-104.695 251.508,-109.49 252.436,-102.552"/>
<text text-anchor="middle" x="372.5" y="-128" font-family="FreeSans" font-size="10.00"> &lt; Index &gt;</text>
</g>
<!-- Node9&#45;&gt;Node1 -->
<g id="edge9" class="edge"><title>Node9&#45;&gt;Node1</title>
<path fill="none" stroke="#9a32cd" stroke-dasharray="5,2" d="M596.063,-119.533C646.967,-109.48 720.115,-95.0347 767.964,-85.5853"/>
<polygon fill="#9a32cd" stroke="#9a32cd" points="595.325,-116.111 586.193,-121.483 596.682,-122.979 595.325,-116.111"/>
<text text-anchor="middle" x="670.5" y="-139" font-family="FreeSans" font-size="10.00"> myVertexHalfEdges</text>
<text text-anchor="middle" x="670.5" y="-128" font-family="FreeSans" font-size="10.00">myFaceHalfEdges</text>
<text text-anchor="middle" x="670.5" y="-117" font-family="FreeSans" font-size="10.00">myEdgeHalfEdges</text>
</g>
</g>
</svg>
