<?xml version="1.0" encoding="UTF-8" standalone="no"?>
<!DOCTYPE svg PUBLIC "-//W3C//DTD SVG 1.1//EN"
 "http://www.w3.org/Graphics/SVG/1.1/DTD/svg11.dtd">
<!-- Generated by graphviz version 2.38.0 (20140413.2041)
 -->
<!-- Title: DGtal::StandardDSL&lt; TCoordinate, TInteger &gt; Pages: 1 -->
<svg width="1035pt" height="188pt"
 viewBox="0.00 0.00 1035.00 188.00" xmlns="http://www.w3.org/2000/svg" xmlns:xlink="http://www.w3.org/1999/xlink">
<g id="graph0" class="graph" transform="scale(1 1) rotate(0) translate(4 184)">
<title>DGtal::StandardDSL&lt; TCoordinate, TInteger &gt;</title>
<polygon fill="white" stroke="none" points="-4,4 -4,-184 1031,-184 1031,4 -4,4"/>
<!-- Node3 -->
<g id="node1" class="node"><title>Node3</title>
<polygon fill="#bfbfbf" stroke="black" points="886,-68 886,-98 1027,-98 1027,-68 886,-68"/>
<text text-anchor="start" x="894" y="-86" font-family="FreeSans" font-size="10.00">DGtal::StandardDSL</text>
<text text-anchor="middle" x="956.5" y="-75" font-family="FreeSans" font-size="10.00">&lt; TCoordinate, TInteger &gt;</text>
</g>
<!-- Node4 -->
<g id="node2" class="node"><title>Node4</title>
<g id="a_node2"><a xlink:href="classDGtal_1_1ArithmeticalDSL.html" target="_top" xlink:title="DGtal::ArithmeticalDSL\l\&lt; TCoordinate, TInteger, 4 \&gt;">
<polygon fill="white" stroke="black" points="696,-68 696,-98 849,-98 849,-68 696,-68"/>
<text text-anchor="start" x="704" y="-86" font-family="FreeSans" font-size="10.00">DGtal::ArithmeticalDSL</text>
<text text-anchor="middle" x="772.5" y="-75" font-family="FreeSans" font-size="10.00">&lt; TCoordinate, TInteger, 4 &gt;</text>
</a>
</g>
</g>
<!-- Node4&#45;&gt;Node3 -->
<g id="edge1" class="edge"><title>Node4&#45;&gt;Node3</title>
<path fill="none" stroke="midnightblue" d="M859.184,-83C868.156,-83 877.197,-83 885.956,-83"/>
<polygon fill="midnightblue" stroke="midnightblue" points="859.103,-79.5001 849.103,-83 859.103,-86.5001 859.103,-79.5001"/>
</g>
<!-- Node5 -->
<g id="node3" class="node"><title>Node5</title>
<polygon fill="white" stroke="#bfbfbf" points="174,-151.5 174,-170.5 248,-170.5 248,-151.5 174,-151.5"/>
<text text-anchor="middle" x="211" y="-158.5" font-family="FreeSans" font-size="10.00">TCoordinate</text>
</g>
<!-- Node5&#45;&gt;Node4 -->
<g id="edge2" class="edge"><title>Node5&#45;&gt;Node4</title>
<path fill="none" stroke="#9a32cd" stroke-dasharray="5,2" d="M258.118,-161.853C342.783,-162.324 528.071,-158.25 678,-119 698.361,-113.67 720.363,-105.336 737.905,-98.0282"/>
<polygon fill="#9a32cd" stroke="#9a32cd" points="258.087,-158.353 248.06,-161.772 258.031,-165.352 258.087,-158.353"/>
<text text-anchor="middle" x="453.5" y="-172" font-family="FreeSans" font-size="10.00"> myA</text>
<text text-anchor="middle" x="453.5" y="-161" font-family="FreeSans" font-size="10.00">myB</text>
</g>
<!-- Node9 -->
<g id="node7" class="node"><title>Node9</title>
<g id="a_node7"><a xlink:href="classDGtal_1_1ArithmeticalDSL.html" target="_top" xlink:title="Aim: This class represents a naive (resp. standard) digital straight line (DSL), ie. the set of digital points &#160;such that &#160;with , &#160;and &#160;(resp. ). Note that any DSL such that &#160;(resp. ) is simply 8&#45;connected (resp. 4&#45;connected). ">
<polygon fill="white" stroke="black" points="387,-91.5 387,-132.5 520,-132.5 520,-91.5 387,-91.5"/>
<text text-anchor="start" x="395" y="-120.5" font-family="FreeSans" font-size="10.00">DGtal::ArithmeticalDSL</text>
<text text-anchor="start" x="395" y="-109.5" font-family="FreeSans" font-size="10.00">&lt; TCoordinate, TInteger,</text>
<text text-anchor="middle" x="453.5" y="-98.5" font-family="FreeSans" font-size="10.00"> adjacency &gt;</text>
</a>
</g>
</g>
<!-- Node5&#45;&gt;Node9 -->
<g id="edge8" class="edge"><title>Node5&#45;&gt;Node9</title>
<path fill="none" stroke="#9a32cd" stroke-dasharray="5,2" d="M244.507,-147.908C258.862,-142.576 276.064,-136.788 292,-133 322.758,-125.688 357.478,-120.747 386.738,-117.506"/>
<polygon fill="#9a32cd" stroke="#9a32cd" points="243.176,-144.669 235.074,-151.496 245.665,-151.212 243.176,-144.669"/>
<text text-anchor="middle" x="330.5" y="-147" font-family="FreeSans" font-size="10.00"> myA</text>
<text text-anchor="middle" x="330.5" y="-136" font-family="FreeSans" font-size="10.00">myB</text>
</g>
<!-- Node6 -->
<g id="node4" class="node"><title>Node6</title>
<g id="a_node4"><a xlink:href="classDGtal_1_1PointVector.html" target="_top" xlink:title="Aim: Implements basic operations that will be used in Point and Vector classes. ">
<polygon fill="white" stroke="black" points="148,-48.5 148,-89.5 274,-89.5 274,-48.5 148,-48.5"/>
<text text-anchor="start" x="156" y="-77.5" font-family="FreeSans" font-size="10.00">DGtal::PointVector</text>
<text text-anchor="start" x="156" y="-66.5" font-family="FreeSans" font-size="10.00">&lt; dim, TEuclideanRing,</text>
<text text-anchor="middle" x="211" y="-55.5" font-family="FreeSans" font-size="10.00"> TContainer &gt;</text>
</a>
</g>
</g>
<!-- Node6&#45;&gt;Node4 -->
<g id="edge3" class="edge"><title>Node6&#45;&gt;Node4</title>
<path fill="none" stroke="#9a32cd" stroke-dasharray="5,2" d="M284.387,-68.6294C346.812,-68.511 439.364,-68.8154 520,-71 579.1,-72.6011 645.952,-75.8599 695.868,-78.5779"/>
<polygon fill="#9a32cd" stroke="#9a32cd" points="284.24,-65.1296 274.249,-68.6529 284.257,-72.1296 284.24,-65.1296"/>
<text text-anchor="middle" x="453.5" y="-74" font-family="FreeSans" font-size="10.00"> myShift</text>
</g>
<!-- Node6&#45;&gt;Node6 -->
<g id="edge5" class="edge"><title>Node6&#45;&gt;Node6</title>
<path fill="none" stroke="#9a32cd" stroke-dasharray="5,2" d="M193.452,-99.8561C196.061,-104.697 201.911,-108 211,-108 225.543,-108 231.792,-99.5433 229.747,-89.8644"/>
<polygon fill="#9a32cd" stroke="#9a32cd" points="196.919,-99.3765 192.253,-89.8644 189.969,-100.21 196.919,-99.3765"/>
<text text-anchor="middle" x="211" y="-111" font-family="FreeSans" font-size="10.00"> zero</text>
</g>
<!-- Node6&#45;&gt;Node9 -->
<g id="edge9" class="edge"><title>Node6&#45;&gt;Node9</title>
<path fill="none" stroke="#9a32cd" stroke-dasharray="5,2" d="M284.163,-81.9023C316.739,-87.7266 354.951,-94.5588 386.728,-100.24"/>
<polygon fill="#9a32cd" stroke="#9a32cd" points="284.707,-78.4442 274.247,-80.1295 283.475,-85.335 284.707,-78.4442"/>
<text text-anchor="middle" x="330.5" y="-99" font-family="FreeSans" font-size="10.00"> myShift</text>
</g>
<!-- Node7 -->
<g id="node5" class="node"><title>Node7</title>
<polygon fill="white" stroke="#bfbfbf" points="0,-59.5 0,-78.5 68,-78.5 68,-59.5 0,-59.5"/>
<text text-anchor="middle" x="34" y="-66.5" font-family="FreeSans" font-size="10.00">TContainer</text>
</g>
<!-- Node7&#45;&gt;Node6 -->
<g id="edge4" class="edge"><title>Node7&#45;&gt;Node6</title>
<path fill="none" stroke="#9a32cd" stroke-dasharray="5,2" d="M78.5018,-69C99.4065,-69 124.84,-69 147.749,-69"/>
<polygon fill="#9a32cd" stroke="#9a32cd" points="78.3281,-65.5001 68.3281,-69 78.328,-72.5001 78.3281,-65.5001"/>
<text text-anchor="middle" x="108" y="-72" font-family="FreeSans" font-size="10.00"> myArray</text>
</g>
<!-- Node8 -->
<g id="node6" class="node"><title>Node8</title>
<polygon fill="white" stroke="#bfbfbf" points="183,-0.5 183,-19.5 239,-19.5 239,-0.5 183,-0.5"/>
<text text-anchor="middle" x="211" y="-7.5" font-family="FreeSans" font-size="10.00">TInteger</text>
</g>
<!-- Node8&#45;&gt;Node4 -->
<g id="edge6" class="edge"><title>Node8&#45;&gt;Node4</title>
<path fill="none" stroke="#9a32cd" stroke-dasharray="5,2" d="M249.449,-12.6506C281.283,-15.0116 328.185,-18.7443 369,-23 506.971,-37.3859 541.125,-44.4609 678,-67 683.85,-67.9633 689.904,-68.9721 695.988,-69.9945"/>
<polygon fill="#9a32cd" stroke="#9a32cd" points="249.49,-9.14431 239.261,-11.9037 248.978,-16.1256 249.49,-9.14431"/>
<text text-anchor="middle" x="453.5" y="-55" font-family="FreeSans" font-size="10.00"> myLowerBound</text>
<text text-anchor="middle" x="453.5" y="-44" font-family="FreeSans" font-size="10.00">myUpperBound</text>
</g>
<!-- Node8&#45;&gt;Node9 -->
<g id="edge10" class="edge"><title>Node8&#45;&gt;Node9</title>
<path fill="none" stroke="#9a32cd" stroke-dasharray="5,2" d="M249.237,-15.7991C282.546,-22.2363 331.721,-34.9094 369,-58 378.889,-64.1252 377.751,-69.9457 387,-77 393.766,-82.1606 401.397,-86.9866 408.997,-91.3075"/>
<polygon fill="#9a32cd" stroke="#9a32cd" points="249.483,-12.2858 239.015,-13.9229 248.219,-19.1708 249.483,-12.2858"/>
<text text-anchor="middle" x="330.5" y="-72" font-family="FreeSans" font-size="10.00"> myLowerBound</text>
<text text-anchor="middle" x="330.5" y="-61" font-family="FreeSans" font-size="10.00">myUpperBound</text>
</g>
<!-- Node9&#45;&gt;Node4 -->
<g id="edge7" class="edge"><title>Node9&#45;&gt;Node4</title>
<path fill="none" stroke="orange" stroke-dasharray="5,2" d="M530.309,-105.065C580.409,-100.482 645.818,-94.4977 695.879,-89.918"/>
<polygon fill="orange" stroke="orange" points="529.822,-101.595 520.183,-105.991 530.46,-108.566 529.822,-101.595"/>
<text text-anchor="middle" x="608" y="-107" font-family="FreeSans" font-size="10.00"> &lt; TCoordinate, TInteger, 4 &gt;</text>
</g>
</g>
</svg>
