<?xml version="1.0" encoding="UTF-8" standalone="no"?>
<!DOCTYPE svg PUBLIC "-//W3C//DTD SVG 1.1//EN"
 "http://www.w3.org/Graphics/SVG/1.1/DTD/svg11.dtd">
<!-- Generated by graphviz version 2.38.0 (20140413.2041)
 -->
<!-- Title: DGtal::OneBalancedWordComputer&lt; TConstIterator, TInteger &gt; Pages: 1 -->
<svg width="1307pt" height="207pt"
 viewBox="0.00 0.00 1307.00 207.00" xmlns="http://www.w3.org/2000/svg" xmlns:xlink="http://www.w3.org/1999/xlink">
<g id="graph0" class="graph" transform="scale(1 1) rotate(0) translate(4 203)">
<title>DGtal::OneBalancedWordComputer&lt; TConstIterator, TInteger &gt;</title>
<polygon fill="white" stroke="none" points="-4,4 -4,-203 1303,-203 1303,4 -4,4"/>
<!-- Node1 -->
<g id="node1" class="node"><title>Node1</title>
<polygon fill="#bfbfbf" stroke="black" points="1114,-70 1114,-100 1299,-100 1299,-70 1114,-70"/>
<text text-anchor="start" x="1122" y="-88" font-family="FreeSans" font-size="10.00">DGtal::OneBalancedWordComputer</text>
<text text-anchor="middle" x="1206.5" y="-77" font-family="FreeSans" font-size="10.00">&lt; TConstIterator, TInteger &gt;</text>
</g>
<!-- Node2 -->
<g id="node2" class="node"><title>Node2</title>
<g id="a_node2"><a xlink:href="classDGtal_1_1PointVector.html" target="_top" xlink:title="DGtal::PointVector\l\&lt; 2, Integer \&gt;">
<polygon fill="white" stroke="black" points="846.5,-97 846.5,-127 950.5,-127 950.5,-97 846.5,-97"/>
<text text-anchor="start" x="854.5" y="-115" font-family="FreeSans" font-size="10.00">DGtal::PointVector</text>
<text text-anchor="middle" x="898.5" y="-104" font-family="FreeSans" font-size="10.00">&lt; 2, Integer &gt;</text>
</a>
</g>
</g>
<!-- Node2&#45;&gt;Node1 -->
<g id="edge1" class="edge"><title>Node2&#45;&gt;Node1</title>
<path fill="none" stroke="#9a32cd" stroke-dasharray="5,2" d="M960.937,-106.579C1004.76,-102.713 1064.43,-97.4476 1113.86,-93.0862"/>
<polygon fill="#9a32cd" stroke="#9a32cd" points="960.371,-103.115 950.718,-107.481 960.986,-110.088 960.371,-103.115"/>
<text text-anchor="middle" x="1052.5" y="-127" font-family="FreeSans" font-size="10.00"> myLastPoint</text>
<text text-anchor="middle" x="1052.5" y="-116" font-family="FreeSans" font-size="10.00">myDisplacements</text>
<text text-anchor="middle" x="1052.5" y="-105" font-family="FreeSans" font-size="10.00">myFirstPoint</text>
</g>
<!-- Node3 -->
<g id="node3" class="node"><title>Node3</title>
<polygon fill="white" stroke="#bfbfbf" points="319.5,-172.5 319.5,-191.5 387.5,-191.5 387.5,-172.5 319.5,-172.5"/>
<text text-anchor="middle" x="353.5" y="-179.5" font-family="FreeSans" font-size="10.00">TContainer</text>
</g>
<!-- Node3&#45;&gt;Node2 -->
<g id="edge2" class="edge"><title>Node3&#45;&gt;Node2</title>
<path fill="none" stroke="#9a32cd" stroke-dasharray="5,2" d="M397.984,-185.117C460.862,-188.772 580.64,-192.526 681,-177 744.992,-167.1 816.433,-142.959 859.137,-127.048"/>
<polygon fill="#9a32cd" stroke="#9a32cd" points="397.852,-181.603 387.657,-184.488 397.426,-188.59 397.852,-181.603"/>
<text text-anchor="middle" x="588.5" y="-191" font-family="FreeSans" font-size="10.00"> myArray</text>
</g>
<!-- Node4 -->
<g id="node4" class="node"><title>Node4</title>
<g id="a_node4"><a xlink:href="classDGtal_1_1PointVector.html" target="_top" xlink:title="Aim: Implements basic operations that will be used in Point and Vector classes. ">
<polygon fill="white" stroke="black" points="525.5,-97.5 525.5,-138.5 651.5,-138.5 651.5,-97.5 525.5,-97.5"/>
<text text-anchor="start" x="533.5" y="-126.5" font-family="FreeSans" font-size="10.00">DGtal::PointVector</text>
<text text-anchor="start" x="533.5" y="-115.5" font-family="FreeSans" font-size="10.00">&lt; dim, TEuclideanRing,</text>
<text text-anchor="middle" x="588.5" y="-104.5" font-family="FreeSans" font-size="10.00"> TContainer &gt;</text>
</a>
</g>
</g>
<!-- Node3&#45;&gt;Node4 -->
<g id="edge4" class="edge"><title>Node3&#45;&gt;Node4</title>
<path fill="none" stroke="#9a32cd" stroke-dasharray="5,2" d="M397.557,-170.173C433.405,-160.326 484.922,-146.176 525.261,-135.096"/>
<polygon fill="#9a32cd" stroke="#9a32cd" points="396.599,-166.807 387.883,-172.83 398.453,-173.557 396.599,-166.807"/>
<text text-anchor="middle" x="453.5" y="-164" font-family="FreeSans" font-size="10.00"> myArray</text>
</g>
<!-- Node4&#45;&gt;Node2 -->
<g id="edge3" class="edge"><title>Node4&#45;&gt;Node2</title>
<path fill="none" stroke="#9a32cd" stroke-dasharray="5,2" d="M662.164,-116.584C718.863,-115.48 796.191,-113.974 846.478,-112.994"/>
<polygon fill="#9a32cd" stroke="#9a32cd" points="661.758,-113.092 651.828,-116.786 661.895,-120.09 661.758,-113.092"/>
<text text-anchor="middle" x="743.5" y="-119" font-family="FreeSans" font-size="10.00"> zero</text>
</g>
<!-- Node4&#45;&gt;Node2 -->
<g id="edge6" class="edge"><title>Node4&#45;&gt;Node2</title>
<path fill="none" stroke="orange" stroke-dasharray="5,2" d="M661.436,-104.463C673.918,-102.606 686.803,-100.996 699,-100 749.067,-95.9123 806.344,-100.348 846.462,-104.938"/>
<polygon fill="orange" stroke="orange" points="660.879,-101.008 651.533,-106 661.952,-107.925 660.879,-101.008"/>
<text text-anchor="middle" x="743.5" y="-103" font-family="FreeSans" font-size="10.00"> &lt; 2, Integer &gt;</text>
</g>
<!-- Node4&#45;&gt;Node4 -->
<g id="edge5" class="edge"><title>Node4&#45;&gt;Node4</title>
<path fill="none" stroke="#9a32cd" stroke-dasharray="5,2" d="M565.446,-148.856C568.874,-153.697 576.559,-157 588.5,-157 607.605,-157 615.815,-148.543 613.128,-138.864"/>
<polygon fill="#9a32cd" stroke="#9a32cd" points="568.886,-148.198 563.872,-138.864 561.971,-149.287 568.886,-148.198"/>
<text text-anchor="middle" x="588.5" y="-160" font-family="FreeSans" font-size="10.00"> zero</text>
</g>
<!-- Node5 -->
<g id="node5" class="node"><title>Node5</title>
<g id="a_node5"><a xlink:href="classDGtal_1_1OneBalancedWordComputer_1_1CodeHandler.html" target="_top" xlink:title="DGtal::OneBalancedWordComputer\l\&lt; TConstIterator, TInteger\l \&gt;::CodeHandler\&lt; ConstIterator \&gt;">
<polygon fill="white" stroke="black" points="806,-31.5 806,-72.5 991,-72.5 991,-31.5 806,-31.5"/>
<text text-anchor="start" x="814" y="-60.5" font-family="FreeSans" font-size="10.00">DGtal::OneBalancedWordComputer</text>
<text text-anchor="start" x="814" y="-49.5" font-family="FreeSans" font-size="10.00">&lt; TConstIterator, TInteger</text>
<text text-anchor="middle" x="898.5" y="-38.5" font-family="FreeSans" font-size="10.00"> &gt;::CodeHandler&lt; ConstIterator &gt;</text>
</a>
</g>
</g>
<!-- Node5&#45;&gt;Node1 -->
<g id="edge7" class="edge"><title>Node5&#45;&gt;Node1</title>
<path fill="none" stroke="#9a32cd" stroke-dasharray="5,2" d="M1001.43,-62.992C1037.73,-66.9068 1078.36,-71.2888 1113.75,-75.1059"/>
<polygon fill="#9a32cd" stroke="#9a32cd" points="1001.63,-59.4936 991.31,-61.9011 1000.88,-66.4532 1001.63,-59.4936"/>
<text text-anchor="middle" x="1052.5" y="-76" font-family="FreeSans" font-size="10.00"> myCodeHandler</text>
</g>
<!-- Node6 -->
<g id="node6" class="node"><title>Node6</title>
<polygon fill="white" stroke="#bfbfbf" points="296,-0.5 296,-19.5 411,-19.5 411,-0.5 296,-0.5"/>
<text text-anchor="middle" x="353.5" y="-7.5" font-family="FreeSans" font-size="10.00">std::vector&lt; Code &gt;</text>
</g>
<!-- Node6&#45;&gt;Node5 -->
<g id="edge8" class="edge"><title>Node6&#45;&gt;Node5</title>
<path fill="none" stroke="#9a32cd" stroke-dasharray="5,2" d="M421.522,-7.14637C445.065,-6.27264 471.7,-5.42919 496,-5 578.209,-3.54799 599.247,3.77172 681,-5 728.421,-10.0881 780.698,-21.2742 822.001,-31.4571"/>
<polygon fill="#9a32cd" stroke="#9a32cd" points="421.15,-3.65785 411.29,-7.535 421.416,-10.6528 421.15,-3.65785"/>
<text text-anchor="middle" x="588.5" y="-8" font-family="FreeSans" font-size="10.00"> myCodes</text>
</g>
<!-- Node9 -->
<g id="node9" class="node"><title>Node9</title>
<g id="a_node9"><a xlink:href="classDGtal_1_1OneBalancedWordComputer_1_1CodeHandler.html" target="_top" xlink:title="DGtal::OneBalancedWordComputer\l\&lt; TConstIterator, TInteger\l \&gt;::CodeHandler\&lt; TIterator,\l iterator_type \&gt;">
<polygon fill="white" stroke="black" points="496,-26 496,-78 681,-78 681,-26 496,-26"/>
<text text-anchor="start" x="504" y="-66" font-family="FreeSans" font-size="10.00">DGtal::OneBalancedWordComputer</text>
<text text-anchor="start" x="504" y="-55" font-family="FreeSans" font-size="10.00">&lt; TConstIterator, TInteger</text>
<text text-anchor="start" x="504" y="-44" font-family="FreeSans" font-size="10.00"> &gt;::CodeHandler&lt; TIterator,</text>
<text text-anchor="middle" x="588.5" y="-33" font-family="FreeSans" font-size="10.00"> iterator_type &gt;</text>
</a>
</g>
</g>
<!-- Node6&#45;&gt;Node9 -->
<g id="edge13" class="edge"><title>Node6&#45;&gt;Node9</title>
<path fill="none" stroke="#9a32cd" stroke-dasharray="5,2" d="M417.463,-21.3495C441.609,-25.702 469.676,-30.7613 495.963,-35.4999"/>
<polygon fill="#9a32cd" stroke="#9a32cd" points="417.834,-17.86 407.371,-19.5305 416.592,-24.749 417.834,-17.86"/>
<text text-anchor="middle" x="453.5" y="-36" font-family="FreeSans" font-size="10.00"> myCodes</text>
</g>
<!-- Node7 -->
<g id="node7" class="node"><title>Node7</title>
<g id="a_node7"><a xlink:title="STL class. ">
<polygon fill="white" stroke="#bfbfbf" points="114,-0.5 114,-19.5 209,-19.5 209,-0.5 114,-0.5"/>
<text text-anchor="middle" x="161.5" y="-7.5" font-family="FreeSans" font-size="10.00">std::vector&lt; T &gt;</text>
</a>
</g>
</g>
<!-- Node7&#45;&gt;Node6 -->
<g id="edge9" class="edge"><title>Node7&#45;&gt;Node6</title>
<path fill="none" stroke="orange" stroke-dasharray="5,2" d="M219.56,-10C243.726,-10 271.811,-10 295.924,-10"/>
<polygon fill="orange" stroke="orange" points="219.466,-6.5001 209.466,-10 219.466,-13.5001 219.466,-6.5001"/>
<text text-anchor="middle" x="252.5" y="-13" font-family="FreeSans" font-size="10.00"> &lt; Code &gt;</text>
</g>
<!-- Node8 -->
<g id="node8" class="node"><title>Node8</title>
<polygon fill="white" stroke="#bfbfbf" points="0,-0.5 0,-19.5 29,-19.5 29,-0.5 0,-0.5"/>
<text text-anchor="middle" x="14.5" y="-7.5" font-family="FreeSans" font-size="10.00">T</text>
</g>
<!-- Node8&#45;&gt;Node7 -->
<g id="edge10" class="edge"><title>Node8&#45;&gt;Node7</title>
<path fill="none" stroke="#9a32cd" stroke-dasharray="5,2" d="M39.3057,-10C59.498,-10 89.0617,-10 113.935,-10"/>
<polygon fill="#9a32cd" stroke="#9a32cd" points="39.1413,-6.5001 29.1412,-10 39.1412,-13.5001 39.1413,-6.5001"/>
<text text-anchor="middle" x="71.5" y="-13" font-family="FreeSans" font-size="10.00"> elements</text>
</g>
<!-- Node9&#45;&gt;Node5 -->
<g id="edge11" class="edge"><title>Node9&#45;&gt;Node5</title>
<path fill="none" stroke="orange" stroke-dasharray="5,2" d="M691.362,-52C728.286,-52 769.744,-52 805.745,-52"/>
<polygon fill="orange" stroke="orange" points="691.076,-48.5001 681.076,-52 691.076,-55.5001 691.076,-48.5001"/>
<text text-anchor="middle" x="743.5" y="-55" font-family="FreeSans" font-size="10.00"> &lt; ConstIterator &gt;</text>
</g>
<!-- Node10 -->
<g id="node10" class="node"><title>Node10</title>
<polygon fill="white" stroke="#bfbfbf" points="325,-53.5 325,-72.5 382,-72.5 382,-53.5 325,-53.5"/>
<text text-anchor="middle" x="353.5" y="-60.5" font-family="FreeSans" font-size="10.00">TIterator</text>
</g>
<!-- Node10&#45;&gt;Node9 -->
<g id="edge12" class="edge"><title>Node10&#45;&gt;Node9</title>
<path fill="none" stroke="#9a32cd" stroke-dasharray="5,2" d="M392.287,-61.216C420.293,-59.8939 459.698,-58.0335 495.779,-56.3302"/>
<polygon fill="#9a32cd" stroke="#9a32cd" points="391.967,-57.7272 382.143,-61.695 392.297,-64.7194 391.967,-57.7272"/>
<text text-anchor="middle" x="453.5" y="-63" font-family="FreeSans" font-size="10.00"> myIter</text>
</g>
</g>
</svg>
