<?xml version="1.0" encoding="UTF-8" standalone="no"?>
<!DOCTYPE svg PUBLIC "-//W3C//DTD SVG 1.1//EN"
 "http://www.w3.org/Graphics/SVG/1.1/DTD/svg11.dtd">
<!-- Generated by graphviz version 2.36.0 (20140111.2315)
 -->
<!-- Title: DGtal::CubicalComplex&lt; TKSpace, TCellContainer &gt; Pages: 1 -->
<!--zoomable 158 -->
<svg id="main" version="1.1" xmlns="http://www.w3.org/2000/svg" xmlns:xlink="http://www.w3.org/1999/xlink" xml:space="preserve" onload="init(evt)">
<style type="text/css"><![CDATA[
.edge:hover path { stroke: red; }
.edge:hover polygon { stroke: red; fill: red; }
]]></style>
<script type="text/javascript"><![CDATA[
var edges = document.getElementsByTagName('g');
if (edges && edges.length) {
  for (var i=0;i<edges.length;i++) {
    if (edges[i].id.substr(0,4)=='edge') {
      edges[i].setAttribute('class','edge');
    }
  }
}
]]></script>
        <defs>
                <circle id="rim" cx="0" cy="0" r="7"/>
                <circle id="rim2" cx="0" cy="0" r="3.5"/>
                <g id="zoomPlus">
                        <use xlink:href="#rim" fill="#404040">
                                <set attributeName="fill" to="#808080" begin="zoomplus.mouseover" end="zoomplus.mouseout"/>
                        </use>
                        <path d="M-4,0h8M0,-4v8" fill="none" stroke="white" stroke-width="1.5" pointer-events="none"/>
                </g>
                <g id="zoomMin">
                        <use xlink:href="#rim" fill="#404040">
                                <set attributeName="fill" to="#808080" begin="zoomminus.mouseover" end="zoomminus.mouseout"/>
                        </use>
                        <path d="M-4,0h8" fill="none" stroke="white" stroke-width="1.5" pointer-events="none"/>
                </g>
                <g id="dirArrow">
                        <path fill="none" stroke="white" stroke-width="1.5" d="M0,-3.0v7 M-2.5,-0.5L0,-3.0L2.5,-0.5"/>
                </g>
               <g id="resetDef">
                       <use xlink:href="#rim2" fill="#404040">
                               <set attributeName="fill" to="#808080" begin="reset.mouseover" end="reset.mouseout"/>
                       </use>
               </g>
        </defs>

<script type="text/javascript">
var viewWidth = 800;
var viewHeight = 158;
var sectionId = 'dynsection-0';
</script>
<script xlink:href="svgpan.js"/>
<svg id="graph" class="graph">
<g id="viewport">
<title>DGtal::CubicalComplex&lt; TKSpace, TCellContainer &gt;</title>
<polygon fill="white" stroke="none" points="-4,4 -4,-154 796,-154 796,4 -4,4"/>
<!-- Node0 -->
<g id="node1" class="node"><title>Node0</title>
<polygon fill="#bfbfbf" stroke="black" points="0.5,-71 0.5,-101 155.5,-101 155.5,-71 0.5,-71"/>
<text text-anchor="start" x="8.5" y="-89" font-family="FreeSans" font-size="10.00">DGtal::CubicalComplex</text>
<text text-anchor="middle" x="78" y="-78" font-family="FreeSans" font-size="10.00">&lt; TKSpace, TCellContainer &gt;</text>
</g>
<!-- Node1 -->
<g id="node2" class="node"><title>Node1</title>
<g id="a_node2"><a xlink:href="classDGtal_1_1VoxelComplex.html" target="_top" xlink:title="This class represents a voxel complex living in some Khalimsky space. Voxel complexes are derived fro...">
<polygon fill="white" stroke="black" points="337.5,-71 337.5,-101 492.5,-101 492.5,-71 337.5,-71"/>
<text text-anchor="start" x="345.5" y="-89" font-family="FreeSans" font-size="10.00">DGtal::VoxelComplex</text>
<text text-anchor="middle" x="415" y="-78" font-family="FreeSans" font-size="10.00">&lt; TKSpace, TCellContainer &gt;</text>
</a>
</g>
</g>
<!-- Node0&#45;&gt;Node1 -->
<g id="edge1" class="edge"><title>Node0&#45;&gt;Node1</title>
<path fill="none" stroke="midnightblue" d="M165.925,-86C218.96,-86 286.141,-86 337.212,-86"/>
<polygon fill="midnightblue" stroke="midnightblue" points="165.856,-82.5001 155.856,-86 165.856,-89.5001 165.856,-82.5001"/>
</g>
<!-- Node4 -->
<g id="node5" class="node"><title>Node4</title>
<g id="a_node5"><a xlink:href="classDGtal_1_1CubicalComplex.html" target="_top" xlink:title="DGtal::CubicalComplex\l\&lt; KSpace, FixtureMap \&gt;">
<polygon fill="white" stroke="black" points="348.5,-120 348.5,-150 481.5,-150 481.5,-120 348.5,-120"/>
<text text-anchor="start" x="356.5" y="-138" font-family="FreeSans" font-size="10.00">DGtal::CubicalComplex</text>
<text text-anchor="middle" x="415" y="-127" font-family="FreeSans" font-size="10.00">&lt; KSpace, FixtureMap &gt;</text>
</a>
</g>
</g>
<!-- Node0&#45;&gt;Node4 -->
<g id="edge4" class="edge"><title>Node0&#45;&gt;Node4</title>
<path fill="none" stroke="orange" stroke-dasharray="5,2" d="M165.816,-98.7993C168.576,-99.2045 171.309,-99.6055 174,-100 232.952,-108.642 300.058,-118.424 348.293,-125.445"/>
<polygon fill="orange" stroke="orange" points="166.138,-95.3093 155.736,-97.3186 165.121,-102.235 166.138,-95.3093"/>
<text text-anchor="middle" x="242" y="-122" font-family="FreeSans" font-size="10.00"> &lt; KSpace, FixtureMap &gt;</text>
</g>
<!-- Node5 -->
<g id="node6" class="node"><title>Node5</title>
<g id="a_node6"><a xlink:href="classDGtal_1_1CubicalComplex.html" target="_top" xlink:title="DGtal::CubicalComplex\l\&lt; KSpace, typename KSpace\l ::template CellMap\&lt; CubicalCell\lData \&gt;::Type \&gt;">
<polygon fill="white" stroke="black" points="328.5,-0 328.5,-52 501.5,-52 501.5,-0 328.5,-0"/>
<text text-anchor="start" x="336.5" y="-40" font-family="FreeSans" font-size="10.00">DGtal::CubicalComplex</text>
<text text-anchor="start" x="336.5" y="-29" font-family="FreeSans" font-size="10.00">&lt; KSpace, typename KSpace</text>
<text text-anchor="start" x="336.5" y="-18" font-family="FreeSans" font-size="10.00"> ::template CellMap&lt; CubicalCell</text>
<text text-anchor="middle" x="415" y="-7" font-family="FreeSans" font-size="10.00">Data &gt;::Type &gt;</text>
</a>
</g>
</g>
<!-- Node0&#45;&gt;Node5 -->
<g id="edge6" class="edge"><title>Node0&#45;&gt;Node5</title>
<path fill="none" stroke="orange" stroke-dasharray="5,2" d="M120.531,-66.9571C136.875,-60.2291 156.007,-53.2789 174,-49 224.393,-37.0161 282.148,-31.2437 328.372,-28.4779"/>
<polygon fill="orange" stroke="orange" points="119.112,-63.7571 111.261,-70.8708 121.835,-70.206 119.112,-63.7571"/>
<text text-anchor="start" x="174" y="-74" font-family="FreeSans" font-size="10.00"> &lt; KSpace, typename</text>
<text text-anchor="start" x="174" y="-63" font-family="FreeSans" font-size="10.00"> KSpace ::template CellMap</text>
<text text-anchor="middle" x="242" y="-52" font-family="FreeSans" font-size="10.00">&lt; CubicalCellData &gt;::Type &gt;</text>
</g>
<!-- Node2 -->
<g id="node3" class="node"><title>Node2</title>
<g id="a_node3"><a xlink:href="classDGtal_1_1VoxelComplex.html" target="_top" xlink:title="DGtal::VoxelComplex\l\&lt; KSpace, FixtureMap \&gt;">
<polygon fill="white" stroke="black" points="658.5,-104 658.5,-134 791.5,-134 791.5,-104 658.5,-104"/>
<text text-anchor="start" x="666.5" y="-122" font-family="FreeSans" font-size="10.00">DGtal::VoxelComplex</text>
<text text-anchor="middle" x="725" y="-111" font-family="FreeSans" font-size="10.00">&lt; KSpace, FixtureMap &gt;</text>
</a>
</g>
</g>
<!-- Node1&#45;&gt;Node2 -->
<g id="edge2" class="edge"><title>Node1&#45;&gt;Node2</title>
<path fill="none" stroke="orange" stroke-dasharray="5,2" d="M502.621,-93.8496C544.204,-97.7859 594.72,-102.813 640,-108 645.991,-108.686 652.218,-109.435 658.451,-110.208"/>
<polygon fill="orange" stroke="orange" points="502.809,-90.352 492.525,-92.8987 502.153,-97.3211 502.809,-90.352"/>
<text text-anchor="middle" x="580" y="-111" font-family="FreeSans" font-size="10.00"> &lt; KSpace, FixtureMap &gt;</text>
</g>
<!-- Node3 -->
<g id="node4" class="node"><title>Node3</title>
<g id="a_node4"><a xlink:href="classDGtal_1_1VoxelComplex.html" target="_top" xlink:title="DGtal::VoxelComplex\l\&lt; KSpace \&gt;">
<polygon fill="white" stroke="black" points="666.5,-43 666.5,-73 783.5,-73 783.5,-43 666.5,-43"/>
<text text-anchor="start" x="674.5" y="-61" font-family="FreeSans" font-size="10.00">DGtal::VoxelComplex</text>
<text text-anchor="middle" x="725" y="-50" font-family="FreeSans" font-size="10.00">&lt; KSpace &gt;</text>
</a>
</g>
</g>
<!-- Node1&#45;&gt;Node3 -->
<g id="edge3" class="edge"><title>Node1&#45;&gt;Node3</title>
<path fill="none" stroke="orange" stroke-dasharray="5,2" d="M503.009,-75.7221C508.757,-75.1167 514.46,-74.5367 520,-74 569.327,-69.2214 625.471,-64.8997 666.355,-61.9559"/>
<polygon fill="orange" stroke="orange" points="502.21,-72.2876 492.641,-76.835 502.957,-79.2476 502.21,-72.2876"/>
<text text-anchor="middle" x="580" y="-77" font-family="FreeSans" font-size="10.00"> &lt; KSpace &gt;</text>
</g>
<!-- Node4&#45;&gt;Node2 -->
<g id="edge5" class="edge"><title>Node4&#45;&gt;Node2</title>
<path fill="none" stroke="midnightblue" d="M491.697,-131.068C542.797,-128.413 609.569,-124.944 658.405,-122.408"/>
<polygon fill="midnightblue" stroke="midnightblue" points="491.501,-127.573 481.696,-131.587 491.864,-134.564 491.501,-127.573"/>
</g>
<!-- Node5&#45;&gt;Node3 -->
<g id="edge7" class="edge"><title>Node5&#45;&gt;Node3</title>
<path fill="none" stroke="midnightblue" d="M511.788,-35.952C562.449,-41.2155 622.966,-47.503 666.387,-52.0142"/>
<polygon fill="midnightblue" stroke="midnightblue" points="512.103,-32.466 501.795,-34.9138 511.38,-39.4285 512.103,-32.466"/>
</g>
</g>
</svg>
        <g id="navigator" transform="translate(0 0)" fill="#404254">
                <rect fill="#f2f5e9" fill-opacity="0.5" stroke="#606060" stroke-width=".5" x="0" y="0" width="60" height="60"/>
                <use id="zoomplus" xlink:href="#zoomPlus" x="17" y="9" onmousedown="handleZoom(evt,'in')"/>
                <use id="zoomminus" xlink:href="#zoomMin" x="42" y="9" onmousedown="handleZoom(evt,'out')"/>
                <use id="reset" xlink:href="#resetDef" x="30" y="36" onmousedown="handleReset()"/>
                <g id="arrowUp" xlink:href="#dirArrow" transform="translate(30 24)" onmousedown="handlePan(0,-1)">
                  <use xlink:href="#rim" fill="#404040">
                        <set attributeName="fill" to="#808080" begin="arrowUp.mouseover" end="arrowUp.mouseout"/>
                  </use>
                  <path fill="none" stroke="white" stroke-width="1.5" d="M0,-3.0v7 M-2.5,-0.5L0,-3.0L2.5,-0.5"/>
                </g>
                <g id="arrowRight" xlink:href="#dirArrow" transform="rotate(90) translate(36 -43)" onmousedown="handlePan(1,0)">
                  <use xlink:href="#rim" fill="#404040">
                        <set attributeName="fill" to="#808080" begin="arrowRight.mouseover" end="arrowRight.mouseout"/>
                  </use>
                  <path fill="none" stroke="white" stroke-width="1.5" d="M0,-3.0v7 M-2.5,-0.5L0,-3.0L2.5,-0.5"/>
                </g>
                <g id="arrowDown" xlink:href="#dirArrow" transform="rotate(180) translate(-30 -48)" onmousedown="handlePan(0,1)">
                  <use xlink:href="#rim" fill="#404040">
                        <set attributeName="fill" to="#808080" begin="arrowDown.mouseover" end="arrowDown.mouseout"/>
                  </use>
                  <path fill="none" stroke="white" stroke-width="1.5" d="M0,-3.0v7 M-2.5,-0.5L0,-3.0L2.5,-0.5"/>
                </g>
                <g id="arrowLeft" xlink:href="#dirArrow" transform="rotate(270) translate(-36 17)" onmousedown="handlePan(-1,0)">
                  <use xlink:href="#rim" fill="#404040">
                        <set attributeName="fill" to="#808080" begin="arrowLeft.mouseover" end="arrowLeft.mouseout"/>
                  </use>
                  <path fill="none" stroke="white" stroke-width="1.5" d="M0,-3.0v7 M-2.5,-0.5L0,-3.0L2.5,-0.5"/>
                </g>
        </g>
        <svg viewBox="0 0 15 15" width="100%" height="30px" preserveAspectRatio="xMaxYMin meet">
         <g id="arrow_out" transform="scale(0.3 0.3)">
          <a xlink:href="classDGtal_1_1CubicalComplex__inherit__graph_org.svg" target="_base">
           <rect id="button" ry="5" rx="5" y="6" x="6" height="38" width="38"
                fill="#f2f5e9" fill-opacity="0.5" stroke="#606060" stroke-width="1.0"/>
           <path id="arrow"
             d="M 11.500037,31.436501 C 11.940474,20.09759 22.043105,11.32322 32.158766,21.979434 L 37.068811,17.246167 C 37.068811,17.246167 37.088388,32 37.088388,32 L 22.160133,31.978069 C 22.160133,31.978069 26.997745,27.140456 26.997745,27.140456 C 18.528582,18.264221 13.291696,25.230495 11.500037,31.436501 z"
             style="fill:#404040;"/>
          </a>
         </g>
        </svg>
</svg>
