<?xml version="1.0" encoding="UTF-8" standalone="no"?>
<!DOCTYPE svg PUBLIC "-//W3C//DTD SVG 1.1//EN"
 "http://www.w3.org/Graphics/SVG/1.1/DTD/svg11.dtd">
<!-- Generated by graphviz version 2.38.0 (20140413.2041)
 -->
<!-- Title: DGtal::ImplicitRoundedHyperCube&lt; TSpace &gt; Pages: 1 -->
<svg width="191pt" height="195pt"
 viewBox="0.00 0.00 190.50 195.00" xmlns="http://www.w3.org/2000/svg" xmlns:xlink="http://www.w3.org/1999/xlink">
<g id="graph0" class="graph" transform="scale(1 1) rotate(0) translate(4 191)">
<title>DGtal::ImplicitRoundedHyperCube&lt; TSpace &gt;</title>
<polygon fill="white" stroke="none" points="-4,4 -4,-191 186.5,-191 186.5,4 -4,4"/>
<!-- Node1 -->
<g id="node1" class="node"><title>Node1</title>
<polygon fill="#bfbfbf" stroke="black" points="0,-0.5 0,-30.5 153,-30.5 153,-0.5 0,-0.5"/>
<text text-anchor="start" x="8" y="-18.5" font-family="FreeSans" font-size="10.00">DGtal::ImplicitRoundedHyper</text>
<text text-anchor="middle" x="76.5" y="-7.5" font-family="FreeSans" font-size="10.00">Cube&lt; TSpace &gt;</text>
</g>
<!-- Node2 -->
<g id="node2" class="node"><title>Node2</title>
<g id="a_node2"><a xlink:href="classDGtal_1_1PointVector.html" target="_top" xlink:title="Aim: Implements basic operations that will be used in Point and Vector classes. ">
<polygon fill="white" stroke="black" points="13.5,-78.5 13.5,-119.5 139.5,-119.5 139.5,-78.5 13.5,-78.5"/>
<text text-anchor="start" x="21.5" y="-107.5" font-family="FreeSans" font-size="10.00">DGtal::PointVector</text>
<text text-anchor="start" x="21.5" y="-96.5" font-family="FreeSans" font-size="10.00">&lt; dim, TEuclideanRing,</text>
<text text-anchor="middle" x="76.5" y="-85.5" font-family="FreeSans" font-size="10.00"> TContainer &gt;</text>
</a>
</g>
</g>
<!-- Node2&#45;&gt;Node1 -->
<g id="edge1" class="edge"><title>Node2&#45;&gt;Node1</title>
<path fill="none" stroke="#9a32cd" stroke-dasharray="5,2" d="M76.5,-68.0254C76.5,-55.258 76.5,-40.9702 76.5,-30.6846"/>
<polygon fill="#9a32cd" stroke="#9a32cd" points="73.0001,-68.2711 76.5,-78.2711 80.0001,-68.2712 73.0001,-68.2711"/>
<text text-anchor="middle" x="102" y="-52" font-family="FreeSans" font-size="10.00"> myCenter</text>
</g>
<!-- Node2&#45;&gt;Node2 -->
<g id="edge3" class="edge"><title>Node2&#45;&gt;Node2</title>
<path fill="none" stroke="#9a32cd" stroke-dasharray="5,2" d="M149.59,-104.937C154.512,-103.566 157.5,-101.588 157.5,-99 157.5,-94.9609 150.219,-92.405 139.668,-91.3321"/>
<polygon fill="#9a32cd" stroke="#9a32cd" points="148.918,-101.501 139.668,-106.668 150.121,-108.397 148.918,-101.501"/>
<text text-anchor="middle" x="170" y="-96.5" font-family="FreeSans" font-size="10.00"> zero</text>
</g>
<!-- Node3 -->
<g id="node3" class="node"><title>Node3</title>
<polygon fill="white" stroke="#bfbfbf" points="42.5,-167.5 42.5,-186.5 110.5,-186.5 110.5,-167.5 42.5,-167.5"/>
<text text-anchor="middle" x="76.5" y="-174.5" font-family="FreeSans" font-size="10.00">TContainer</text>
</g>
<!-- Node3&#45;&gt;Node2 -->
<g id="edge2" class="edge"><title>Node3&#45;&gt;Node2</title>
<path fill="none" stroke="#9a32cd" stroke-dasharray="5,2" d="M76.5,-157.137C76.5,-145.729 76.5,-131.207 76.5,-119.658"/>
<polygon fill="#9a32cd" stroke="#9a32cd" points="73.0001,-157.282 76.5,-167.282 80.0001,-157.282 73.0001,-157.282"/>
<text text-anchor="middle" x="98.5" y="-141" font-family="FreeSans" font-size="10.00"> myArray</text>
</g>
</g>
</svg>
