<?xml version="1.0" encoding="UTF-8" standalone="no"?>
<!DOCTYPE svg PUBLIC "-//W3C//DTD SVG 1.1//EN"
 "http://www.w3.org/Graphics/SVG/1.1/DTD/svg11.dtd">
<!-- Generated by graphviz version 2.36.0 (20140111.2315)
 -->
<!-- Title: DGtal::DigitalSurfaceConvolver&lt; TFunctor, TKernelFunctor, TKSpace, TDigitalKernel, dimension &gt; Pages: 1 -->
<!--zoomable 258 -->
<svg id="main" version="1.1" xmlns="http://www.w3.org/2000/svg" xmlns:xlink="http://www.w3.org/1999/xlink" xml:space="preserve" onload="init(evt)">
<style type="text/css"><![CDATA[
.edge:hover path { stroke: red; }
.edge:hover polygon { stroke: red; fill: red; }
]]></style>
<script type="text/javascript"><![CDATA[
var edges = document.getElementsByTagName('g');
if (edges && edges.length) {
  for (var i=0;i<edges.length;i++) {
    if (edges[i].id.substr(0,4)=='edge') {
      edges[i].setAttribute('class','edge');
    }
  }
}
]]></script>
        <defs>
                <circle id="rim" cx="0" cy="0" r="7"/>
                <circle id="rim2" cx="0" cy="0" r="3.5"/>
                <g id="zoomPlus">
                        <use xlink:href="#rim" fill="#404040">
                                <set attributeName="fill" to="#808080" begin="zoomplus.mouseover" end="zoomplus.mouseout"/>
                        </use>
                        <path d="M-4,0h8M0,-4v8" fill="none" stroke="white" stroke-width="1.5" pointer-events="none"/>
                </g>
                <g id="zoomMin">
                        <use xlink:href="#rim" fill="#404040">
                                <set attributeName="fill" to="#808080" begin="zoomminus.mouseover" end="zoomminus.mouseout"/>
                        </use>
                        <path d="M-4,0h8" fill="none" stroke="white" stroke-width="1.5" pointer-events="none"/>
                </g>
                <g id="dirArrow">
                        <path fill="none" stroke="white" stroke-width="1.5" d="M0,-3.0v7 M-2.5,-0.5L0,-3.0L2.5,-0.5"/>
                </g>
               <g id="resetDef">
                       <use xlink:href="#rim2" fill="#404040">
                               <set attributeName="fill" to="#808080" begin="reset.mouseover" end="reset.mouseout"/>
                       </use>
               </g>
        </defs>

<script type="text/javascript">
var viewWidth = 1924;
var viewHeight = 258;
var sectionId = 'dynsection-0';
</script>
<script xlink:href="svgpan.js"/>
<svg id="graph" class="graph">
<g id="viewport">
<title>DGtal::DigitalSurfaceConvolver&lt; TFunctor, TKernelFunctor, TKSpace, TDigitalKernel, dimension &gt;</title>
<polygon fill="white" stroke="none" points="-4,4 -4,-254 1920,-254 1920,4 -4,4"/>
<!-- Node1 -->
<g id="node1" class="node"><title>Node1</title>
<polygon fill="#bfbfbf" stroke="black" points="1718,-57.5 1718,-98.5 1916,-98.5 1916,-57.5 1718,-57.5"/>
<text text-anchor="start" x="1726" y="-86.5" font-family="FreeSans" font-size="10.00">DGtal::DigitalSurfaceConvolver</text>
<text text-anchor="start" x="1726" y="-75.5" font-family="FreeSans" font-size="10.00">&lt; TFunctor, TKernelFunctor,</text>
<text text-anchor="middle" x="1817" y="-64.5" font-family="FreeSans" font-size="10.00"> TKSpace, TDigitalKernel, dimension &gt;</text>
</g>
<!-- Node2 -->
<g id="node2" class="node"><title>Node2</title>
<polygon fill="white" stroke="#bfbfbf" points="534,-217.5 534,-236.5 682,-236.5 682,-217.5 534,-217.5"/>
<text text-anchor="middle" x="608" y="-224.5" font-family="FreeSans" font-size="10.00">std::vector&lt; PairIterators &gt;</text>
</g>
<!-- Node2&#45;&gt;Node1 -->
<g id="edge1" class="edge"><title>Node2&#45;&gt;Node1</title>
<path fill="none" stroke="#9a32cd" stroke-dasharray="5,2" d="M669.386,-215.712C718.198,-207.567 788.78,-198 851,-198 851,-198 851,-198 1508,-198 1616.18,-198 1732.04,-132.939 1785.61,-98.6287"/>
<polygon fill="#9a32cd" stroke="#9a32cd" points="668.583,-212.298 659.311,-217.424 669.756,-219.199 668.583,-212.298"/>
<text text-anchor="middle" x="1106" y="-201" font-family="FreeSans" font-size="10.00"> myMasks</text>
</g>
<!-- Node3 -->
<g id="node3" class="node"><title>Node3</title>
<g id="a_node3"><a xlink:title="STL class. ">
<polygon fill="white" stroke="#bfbfbf" points="276.5,-230.5 276.5,-249.5 371.5,-249.5 371.5,-230.5 276.5,-230.5"/>
<text text-anchor="middle" x="324" y="-237.5" font-family="FreeSans" font-size="10.00">std::vector&lt; T &gt;</text>
</a>
</g>
</g>
<!-- Node3&#45;&gt;Node2 -->
<g id="edge2" class="edge"><title>Node3&#45;&gt;Node2</title>
<path fill="none" stroke="orange" stroke-dasharray="5,2" d="M381.751,-237.384C425.532,-235.366 486.425,-232.558 533.862,-230.372"/>
<polygon fill="orange" stroke="orange" points="381.395,-233.896 371.567,-237.853 381.717,-240.889 381.395,-233.896"/>
<text text-anchor="middle" x="453" y="-239" font-family="FreeSans" font-size="10.00"> &lt; PairIterators &gt;</text>
</g>
<!-- Node4 -->
<g id="node4" class="node"><title>Node4</title>
<polygon fill="white" stroke="#bfbfbf" points="16.5,-182.5 16.5,-201.5 45.5,-201.5 45.5,-182.5 16.5,-182.5"/>
<text text-anchor="middle" x="31" y="-189.5" font-family="FreeSans" font-size="10.00">T</text>
</g>
<!-- Node4&#45;&gt;Node3 -->
<g id="edge3" class="edge"><title>Node4&#45;&gt;Node3</title>
<path fill="none" stroke="#9a32cd" stroke-dasharray="5,2" d="M55.2363,-200.124C63.0318,-202.618 71.8225,-205.181 80,-207 147.533,-222.026 227.242,-231.272 276.458,-236.023"/>
<polygon fill="#9a32cd" stroke="#9a32cd" points="56.2905,-196.787 45.697,-196.955 54.0834,-203.429 56.2905,-196.787"/>
<text text-anchor="middle" x="105" y="-219" font-family="FreeSans" font-size="10.00"> elements</text>
</g>
<!-- Node9 -->
<g id="node9" class="node"><title>Node9</title>
<g id="a_node9"><a xlink:title="STL class. ">
<polygon fill="white" stroke="#bfbfbf" points="158,-182.5 158,-201.5 248,-201.5 248,-182.5 158,-182.5"/>
<text text-anchor="middle" x="203" y="-189.5" font-family="FreeSans" font-size="10.00">std::array&lt; T &gt;</text>
</a>
</g>
</g>
<!-- Node4&#45;&gt;Node9 -->
<g id="edge9" class="edge"><title>Node4&#45;&gt;Node9</title>
<path fill="none" stroke="#9a32cd" stroke-dasharray="5,2" d="M55.816,-192C82.1648,-192 125.2,-192 157.77,-192"/>
<polygon fill="#9a32cd" stroke="#9a32cd" points="55.6245,-188.5 45.6244,-192 55.6244,-195.5 55.6245,-188.5"/>
<text text-anchor="middle" x="105" y="-195" font-family="FreeSans" font-size="10.00"> elements</text>
</g>
<!-- Node13 -->
<g id="node13" class="node"><title>Node13</title>
<polygon fill="white" stroke="#bfbfbf" points="148,-55.5 148,-74.5 258,-74.5 258,-55.5 148,-55.5"/>
<text text-anchor="middle" x="203" y="-62.5" font-family="FreeSans" font-size="10.00">Functor&lt; T, Point &gt;</text>
</g>
<!-- Node4&#45;&gt;Node13 -->
<g id="edge18" class="edge"><title>Node4&#45;&gt;Node13</title>
<path fill="none" stroke="#9a32cd" stroke-dasharray="5,2" d="M47.7484,-175.09C68.9165,-153.087 108.474,-114.456 148,-89 156.711,-83.3896 166.954,-78.4704 176.164,-74.5703"/>
<polygon fill="#9a32cd" stroke="#9a32cd" points="45.165,-172.727 40.8158,-182.388 50.2404,-177.548 45.165,-172.727"/>
<text text-anchor="middle" x="105" y="-145" font-family="FreeSans" font-size="10.00"> radius</text>
</g>
<!-- Node5 -->
<g id="node5" class="node"><title>Node5</title>
<g id="a_node5"><a xlink:href="structDGtal_1_1SignedKhalimskyCell.html" target="_top" xlink:title="Represents a signed cell in a cellular grid space by its Khalimsky coordinates and a boolean value...">
<polygon fill="white" stroke="black" points="1433,-88 1433,-118 1581,-118 1581,-88 1433,-88"/>
<text text-anchor="start" x="1441" y="-106" font-family="FreeSans" font-size="10.00">DGtal::SignedKhalimskyCell</text>
<text text-anchor="middle" x="1507" y="-95" font-family="FreeSans" font-size="10.00">&lt; dim, TInteger &gt;</text>
</a>
</g>
</g>
<!-- Node5&#45;&gt;Node1 -->
<g id="edge4" class="edge"><title>Node5&#45;&gt;Node1</title>
<path fill="none" stroke="#9a32cd" stroke-dasharray="5,2" d="M1591.63,-96.2115C1630.6,-93.049 1677.21,-89.2651 1717.84,-85.9678"/>
<polygon fill="#9a32cd" stroke="#9a32cd" points="1591.07,-92.746 1581.38,-97.0436 1591.63,-99.723 1591.07,-92.746"/>
<text text-anchor="middle" x="1653" y="-120" font-family="FreeSans" font-size="10.00"> defaultInnerSpel</text>
<text text-anchor="middle" x="1653" y="-109" font-family="FreeSans" font-size="10.00">defaultOuterSpel</text>
<text text-anchor="middle" x="1653" y="-98" font-family="FreeSans" font-size="10.00">myKernelSpelOrigin</text>
</g>
<!-- Node6 -->
<g id="node6" class="node"><title>Node6</title>
<g id="a_node6"><a xlink:href="structDGtal_1_1SignedKhalimskyPreCell.html" target="_top" xlink:title="DGtal::SignedKhalimskyPre\lCell\&lt; dim, Integer \&gt;">
<polygon fill="white" stroke="black" points="1174,-89 1174,-119 1320,-119 1320,-89 1174,-89"/>
<text text-anchor="start" x="1182" y="-107" font-family="FreeSans" font-size="10.00">DGtal::SignedKhalimskyPre</text>
<text text-anchor="middle" x="1247" y="-96" font-family="FreeSans" font-size="10.00">Cell&lt; dim, Integer &gt;</text>
</a>
</g>
</g>
<!-- Node6&#45;&gt;Node5 -->
<g id="edge5" class="edge"><title>Node6&#45;&gt;Node5</title>
<path fill="none" stroke="#9a32cd" stroke-dasharray="5,2" d="M1330.28,-103.681C1363.25,-103.553 1400.92,-103.407 1432.91,-103.283"/>
<polygon fill="#9a32cd" stroke="#9a32cd" points="1330.2,-100.181 1320.21,-103.72 1330.22,-107.181 1330.2,-100.181"/>
<text text-anchor="middle" x="1377" y="-107" font-family="FreeSans" font-size="10.00"> mySPreCell</text>
</g>
<!-- Node7 -->
<g id="node7" class="node"><title>Node7</title>
<g id="a_node7"><a xlink:href="classDGtal_1_1PointVector.html" target="_top" xlink:title="DGtal::PointVector\l\&lt; dim, Integer \&gt;">
<polygon fill="white" stroke="black" points="700,-127 700,-157 804,-157 804,-127 700,-127"/>
<text text-anchor="start" x="708" y="-145" font-family="FreeSans" font-size="10.00">DGtal::PointVector</text>
<text text-anchor="middle" x="752" y="-134" font-family="FreeSans" font-size="10.00">&lt; dim, Integer &gt;</text>
</a>
</g>
</g>
<!-- Node7&#45;&gt;Node6 -->
<g id="edge6" class="edge"><title>Node7&#45;&gt;Node6</title>
<path fill="none" stroke="#9a32cd" stroke-dasharray="5,2" d="M814.442,-143.067C835.833,-143.155 859.983,-142.938 882,-142 1000.56,-136.949 1030.19,-133.199 1148,-119 1156.37,-117.991 1165.13,-116.818 1173.82,-115.582"/>
<polygon fill="#9a32cd" stroke="#9a32cd" points="814.207,-139.565 804.184,-143 814.162,-146.565 814.207,-139.565"/>
<text text-anchor="middle" x="973" y="-145" font-family="FreeSans" font-size="10.00"> coordinates</text>
</g>
<!-- Node12 -->
<g id="node12" class="node"><title>Node12</title>
<g id="a_node12"><a xlink:href="structDGtal_1_1SignedKhalimskyPreCell.html" target="_top" xlink:title="DGtal::SignedKhalimskyPre\lCell\&lt; dim, TInteger \&gt;">
<polygon fill="white" stroke="black" points="900,-89 900,-119 1046,-119 1046,-89 900,-89"/>
<text text-anchor="start" x="908" y="-107" font-family="FreeSans" font-size="10.00">DGtal::SignedKhalimskyPre</text>
<text text-anchor="middle" x="973" y="-96" font-family="FreeSans" font-size="10.00">Cell&lt; dim, TInteger &gt;</text>
</a>
</g>
</g>
<!-- Node7&#45;&gt;Node12 -->
<g id="edge15" class="edge"><title>Node7&#45;&gt;Node12</title>
<path fill="none" stroke="#9a32cd" stroke-dasharray="5,2" d="M814.003,-131.415C840.576,-126.804 871.926,-121.364 899.665,-116.551"/>
<polygon fill="#9a32cd" stroke="#9a32cd" points="813.324,-127.98 804.069,-133.139 814.521,-134.877 813.324,-127.98"/>
<text text-anchor="middle" x="852" y="-133" font-family="FreeSans" font-size="10.00"> coordinates</text>
</g>
<!-- Node8 -->
<g id="node8" class="node"><title>Node8</title>
<polygon fill="white" stroke="#bfbfbf" points="398,-177 398,-207 508,-207 508,-177 398,-177"/>
<text text-anchor="start" x="406" y="-195" font-family="FreeSans" font-size="10.00">std::array&lt; Integer,</text>
<text text-anchor="middle" x="453" y="-184" font-family="FreeSans" font-size="10.00"> dim &gt;</text>
</g>
<!-- Node8&#45;&gt;Node7 -->
<g id="edge7" class="edge"><title>Node8&#45;&gt;Node7</title>
<path fill="none" stroke="#9a32cd" stroke-dasharray="5,2" d="M518.004,-181.225C572.361,-172.074 649.357,-159.112 699.726,-150.632"/>
<polygon fill="#9a32cd" stroke="#9a32cd" points="517.409,-177.776 508.129,-182.887 518.571,-184.679 517.409,-177.776"/>
<text text-anchor="middle" x="608" y="-181" font-family="FreeSans" font-size="10.00"> myArray</text>
</g>
<!-- Node9&#45;&gt;Node8 -->
<g id="edge8" class="edge"><title>Node9&#45;&gt;Node8</title>
<path fill="none" stroke="orange" stroke-dasharray="5,2" d="M258.241,-192C299.7,-192 356.58,-192 397.983,-192"/>
<polygon fill="orange" stroke="orange" points="258.052,-188.5 248.052,-192 258.052,-195.5 258.052,-188.5"/>
<text text-anchor="middle" x="324" y="-195" font-family="FreeSans" font-size="10.00"> &lt; Integer, dim &gt;</text>
</g>
<!-- Node10 -->
<g id="node10" class="node"><title>Node10</title>
<g id="a_node10"><a xlink:href="classDGtal_1_1PointVector.html" target="_top" xlink:title="Aim: Implements basic operations that will be used in Point and Vector classes. ">
<polygon fill="white" stroke="black" points="390,-87.5 390,-128.5 516,-128.5 516,-87.5 390,-87.5"/>
<text text-anchor="start" x="398" y="-116.5" font-family="FreeSans" font-size="10.00">DGtal::PointVector</text>
<text text-anchor="start" x="398" y="-105.5" font-family="FreeSans" font-size="10.00">&lt; dim, TEuclideanRing,</text>
<text text-anchor="middle" x="453" y="-94.5" font-family="FreeSans" font-size="10.00"> TContainer &gt;</text>
</a>
</g>
</g>
<!-- Node10&#45;&gt;Node7 -->
<g id="edge10" class="edge"><title>Node10&#45;&gt;Node7</title>
<path fill="none" stroke="#9a32cd" stroke-dasharray="5,2" d="M526.392,-119.017C528.958,-119.357 531.5,-119.686 534,-120 590.545,-127.103 655.604,-133.458 699.624,-137.49"/>
<polygon fill="#9a32cd" stroke="#9a32cd" points="526.793,-115.539 516.412,-117.657 525.848,-122.475 526.793,-115.539"/>
<text text-anchor="middle" x="608" y="-139" font-family="FreeSans" font-size="10.00"> zero</text>
</g>
<!-- Node10&#45;&gt;Node7 -->
<g id="edge13" class="edge"><title>Node10&#45;&gt;Node7</title>
<path fill="none" stroke="orange" stroke-dasharray="5,2" d="M526.396,-99.0085C571.722,-95.4989 630.997,-94.8041 682,-107 698.33,-110.905 715.163,-119.341 728.116,-126.952"/>
<polygon fill="orange" stroke="orange" points="526.034,-95.5265 516.361,-99.8487 526.618,-102.502 526.034,-95.5265"/>
<text text-anchor="middle" x="608" y="-110" font-family="FreeSans" font-size="10.00"> &lt; dim, Integer &gt;</text>
</g>
<!-- Node10&#45;&gt;Node10 -->
<g id="edge12" class="edge"><title>Node10&#45;&gt;Node10</title>
<path fill="none" stroke="#9a32cd" stroke-dasharray="5,2" d="M431.373,-138.601C434.822,-143.023 442.031,-146 453,-146 471,-146 478.875,-137.984 476.625,-128.716"/>
<polygon fill="#9a32cd" stroke="#9a32cd" points="434.787,-137.825 429.375,-128.716 427.926,-139.212 434.787,-137.825"/>
<text text-anchor="middle" x="453" y="-149" font-family="FreeSans" font-size="10.00"> zero</text>
</g>
<!-- Node11 -->
<g id="node11" class="node"><title>Node11</title>
<polygon fill="white" stroke="#bfbfbf" points="169,-98.5 169,-117.5 237,-117.5 237,-98.5 169,-98.5"/>
<text text-anchor="middle" x="203" y="-105.5" font-family="FreeSans" font-size="10.00">TContainer</text>
</g>
<!-- Node11&#45;&gt;Node10 -->
<g id="edge11" class="edge"><title>Node11&#45;&gt;Node10</title>
<path fill="none" stroke="#9a32cd" stroke-dasharray="5,2" d="M247.281,-108C286.738,-108 345.478,-108 389.931,-108"/>
<polygon fill="#9a32cd" stroke="#9a32cd" points="247.189,-104.5 237.189,-108 247.189,-111.5 247.189,-104.5"/>
<text text-anchor="middle" x="324" y="-111" font-family="FreeSans" font-size="10.00"> myArray</text>
</g>
<!-- Node12&#45;&gt;Node6 -->
<g id="edge14" class="edge"><title>Node12&#45;&gt;Node6</title>
<path fill="none" stroke="orange" stroke-dasharray="5,2" d="M1056.56,-104C1094,-104 1137.87,-104 1173.96,-104"/>
<polygon fill="orange" stroke="orange" points="1056.18,-100.5 1046.18,-104 1056.18,-107.5 1056.18,-100.5"/>
<text text-anchor="middle" x="1106" y="-107" font-family="FreeSans" font-size="10.00"> &lt; dim, Integer &gt;</text>
</g>
<!-- Node13&#45;&gt;Node1 -->
<g id="edge16" class="edge"><title>Node13&#45;&gt;Node1</title>
<path fill="none" stroke="#9a32cd" stroke-dasharray="5,2" d="M268.21,-62.5945C318.273,-60.9252 389.547,-59 452,-59 452,-59 452,-59 1508,-59 1578.32,-59 1657.49,-63.9943 1717.96,-68.8617"/>
<polygon fill="#9a32cd" stroke="#9a32cd" points="268.05,-59.0978 258.175,-62.9351 268.288,-66.0938 268.05,-59.0978"/>
<text text-anchor="middle" x="973" y="-62" font-family="FreeSans" font-size="10.00"> myFFunctor</text>
</g>
<!-- Node14 -->
<g id="node14" class="node"><title>Node14</title>
<polygon fill="white" stroke="#bfbfbf" points="0,-55.5 0,-74.5 62,-74.5 62,-55.5 0,-55.5"/>
<text text-anchor="middle" x="31" y="-62.5" font-family="FreeSans" font-size="10.00">MyPointD</text>
</g>
<!-- Node14&#45;&gt;Node13 -->
<g id="edge17" class="edge"><title>Node14&#45;&gt;Node13</title>
<path fill="none" stroke="#9a32cd" stroke-dasharray="5,2" d="M72.2591,-65C94.8675,-65 123.382,-65 147.918,-65"/>
<polygon fill="#9a32cd" stroke="#9a32cd" points="72.0013,-61.5001 62.0013,-65 72.0012,-68.5001 72.0013,-61.5001"/>
<text text-anchor="middle" x="105" y="-68" font-family="FreeSans" font-size="10.00"> center</text>
</g>
<!-- Node15 -->
<g id="node15" class="node"><title>Node15</title>
<g id="a_node15"><a xlink:href="structDGtal_1_1CanonicSCellEmbedder.html" target="_top" xlink:title="DGtal::CanonicSCellEmbedder\l\&lt; KSpace \&gt;">
<polygon fill="white" stroke="black" points="1426.5,-0 1426.5,-30 1587.5,-30 1587.5,-0 1426.5,-0"/>
<text text-anchor="start" x="1434.5" y="-18" font-family="FreeSans" font-size="10.00">DGtal::CanonicSCellEmbedder</text>
<text text-anchor="middle" x="1507" y="-7" font-family="FreeSans" font-size="10.00">&lt; KSpace &gt;</text>
</a>
</g>
</g>
<!-- Node15&#45;&gt;Node1 -->
<g id="edge19" class="edge"><title>Node15&#45;&gt;Node1</title>
<path fill="none" stroke="#9a32cd" stroke-dasharray="5,2" d="M1598.08,-18.9891C1630.51,-21.7147 1667.19,-26.2976 1700,-34 1723.8,-39.5874 1749.3,-48.8693 1770.31,-57.4714"/>
<polygon fill="#9a32cd" stroke="#9a32cd" points="1597.95,-15.4682 1587.71,-18.1678 1597.4,-22.4463 1597.95,-15.4682"/>
<text text-anchor="middle" x="1653" y="-37" font-family="FreeSans" font-size="10.00"> myEmbedder</text>
</g>
<!-- Node16 -->
<g id="node16" class="node"><title>Node16</title>
<g id="a_node16"><a xlink:href="structDGtal_1_1CanonicSCellEmbedder.html" target="_top" xlink:title="Aim: A trivial embedder for signed cell, which corresponds to the canonic injection of cell centroids...">
<polygon fill="white" stroke="black" points="1166.5,-0 1166.5,-30 1327.5,-30 1327.5,-0 1166.5,-0"/>
<text text-anchor="start" x="1174.5" y="-18" font-family="FreeSans" font-size="10.00">DGtal::CanonicSCellEmbedder</text>
<text text-anchor="middle" x="1247" y="-7" font-family="FreeSans" font-size="10.00">&lt; TKSpace &gt;</text>
</a>
</g>
</g>
<!-- Node16&#45;&gt;Node15 -->
<g id="edge20" class="edge"><title>Node16&#45;&gt;Node15</title>
<path fill="none" stroke="orange" stroke-dasharray="5,2" d="M1337.59,-15C1366.44,-15 1398.21,-15 1426.3,-15"/>
<polygon fill="orange" stroke="orange" points="1337.51,-11.5001 1327.51,-15 1337.51,-18.5001 1337.51,-11.5001"/>
<text text-anchor="middle" x="1377" y="-18" font-family="FreeSans" font-size="10.00"> &lt; KSpace &gt;</text>
</g>
</g>
</svg>
        <g id="navigator" transform="translate(0 0)" fill="#404254">
                <rect fill="#f2f5e9" fill-opacity="0.5" stroke="#606060" stroke-width=".5" x="0" y="0" width="60" height="60"/>
                <use id="zoomplus" xlink:href="#zoomPlus" x="17" y="9" onmousedown="handleZoom(evt,'in')"/>
                <use id="zoomminus" xlink:href="#zoomMin" x="42" y="9" onmousedown="handleZoom(evt,'out')"/>
                <use id="reset" xlink:href="#resetDef" x="30" y="36" onmousedown="handleReset()"/>
                <g id="arrowUp" xlink:href="#dirArrow" transform="translate(30 24)" onmousedown="handlePan(0,-1)">
                  <use xlink:href="#rim" fill="#404040">
                        <set attributeName="fill" to="#808080" begin="arrowUp.mouseover" end="arrowUp.mouseout"/>
                  </use>
                  <path fill="none" stroke="white" stroke-width="1.5" d="M0,-3.0v7 M-2.5,-0.5L0,-3.0L2.5,-0.5"/>
                </g>
                <g id="arrowRight" xlink:href="#dirArrow" transform="rotate(90) translate(36 -43)" onmousedown="handlePan(1,0)">
                  <use xlink:href="#rim" fill="#404040">
                        <set attributeName="fill" to="#808080" begin="arrowRight.mouseover" end="arrowRight.mouseout"/>
                  </use>
                  <path fill="none" stroke="white" stroke-width="1.5" d="M0,-3.0v7 M-2.5,-0.5L0,-3.0L2.5,-0.5"/>
                </g>
                <g id="arrowDown" xlink:href="#dirArrow" transform="rotate(180) translate(-30 -48)" onmousedown="handlePan(0,1)">
                  <use xlink:href="#rim" fill="#404040">
                        <set attributeName="fill" to="#808080" begin="arrowDown.mouseover" end="arrowDown.mouseout"/>
                  </use>
                  <path fill="none" stroke="white" stroke-width="1.5" d="M0,-3.0v7 M-2.5,-0.5L0,-3.0L2.5,-0.5"/>
                </g>
                <g id="arrowLeft" xlink:href="#dirArrow" transform="rotate(270) translate(-36 17)" onmousedown="handlePan(-1,0)">
                  <use xlink:href="#rim" fill="#404040">
                        <set attributeName="fill" to="#808080" begin="arrowLeft.mouseover" end="arrowLeft.mouseout"/>
                  </use>
                  <path fill="none" stroke="white" stroke-width="1.5" d="M0,-3.0v7 M-2.5,-0.5L0,-3.0L2.5,-0.5"/>
                </g>
        </g>
        <svg viewBox="0 0 15 15" width="100%" height="30px" preserveAspectRatio="xMaxYMin meet">
         <g id="arrow_out" transform="scale(0.3 0.3)">
          <a xlink:href="classDGtal_1_1DigitalSurfaceConvolver__coll__graph_org.svg" target="_base">
           <rect id="button" ry="5" rx="5" y="6" x="6" height="38" width="38"
                fill="#f2f5e9" fill-opacity="0.5" stroke="#606060" stroke-width="1.0"/>
           <path id="arrow"
             d="M 11.500037,31.436501 C 11.940474,20.09759 22.043105,11.32322 32.158766,21.979434 L 37.068811,17.246167 C 37.068811,17.246167 37.088388,32 37.088388,32 L 22.160133,31.978069 C 22.160133,31.978069 26.997745,27.140456 26.997745,27.140456 C 18.528582,18.264221 13.291696,25.230495 11.500037,31.436501 z"
             style="fill:#404040;"/>
          </a>
         </g>
        </svg>
</svg>
