<?xml version="1.0" encoding="UTF-8" standalone="no"?>
<!DOCTYPE svg PUBLIC "-//W3C//DTD SVG 1.1//EN"
 "http://www.w3.org/Graphics/SVG/1.1/DTD/svg11.dtd">
<!-- Generated by graphviz version 2.36.0 (20140111.2315)
 -->
<!-- Title: DGtal::DigitalSurfaceConvolver&lt; TFunctor, TKernelFunctor, TKSpace, TDigitalKernel, dimension &gt; Pages: 1 -->
<svg width="1640pt" height="198pt"
 viewBox="0.00 0.00 1640.00 198.00" xmlns="http://www.w3.org/2000/svg" xmlns:xlink="http://www.w3.org/1999/xlink">
<g id="graph0" class="graph" transform="scale(1 1) rotate(0) translate(4 194)">
<title>DGtal::DigitalSurfaceConvolver&lt; TFunctor, TKernelFunctor, TKSpace, TDigitalKernel, dimension &gt;</title>
<polygon fill="white" stroke="none" points="-4,4 -4,-194 1636,-194 1636,4 -4,4"/>
<!-- Node1 -->
<g id="node1" class="node"><title>Node1</title>
<polygon fill="#bfbfbf" stroke="black" points="1434,-81.5 1434,-122.5 1632,-122.5 1632,-81.5 1434,-81.5"/>
<text text-anchor="start" x="1442" y="-110.5" font-family="FreeSans" font-size="10.00">DGtal::DigitalSurfaceConvolver</text>
<text text-anchor="start" x="1442" y="-99.5" font-family="FreeSans" font-size="10.00">&lt; TFunctor, TKernelFunctor,</text>
<text text-anchor="middle" x="1533" y="-88.5" font-family="FreeSans" font-size="10.00"> TKSpace, TDigitalKernel, dimension &gt;</text>
</g>
<!-- Node2 -->
<g id="node2" class="node"><title>Node2</title>
<polygon fill="white" stroke="#bfbfbf" points="1149,-158.5 1149,-177.5 1297,-177.5 1297,-158.5 1149,-158.5"/>
<text text-anchor="middle" x="1223" y="-165.5" font-family="FreeSans" font-size="10.00">std::vector&lt; PairIterators &gt;</text>
</g>
<!-- Node2&#45;&gt;Node1 -->
<g id="edge1" class="edge"><title>Node2&#45;&gt;Node1</title>
<path fill="none" stroke="#9a32cd" stroke-dasharray="5,2" d="M1307.42,-159.671C1341.37,-155.402 1380.82,-149.312 1416,-141 1436.47,-136.163 1458.46,-129.235 1477.72,-122.556"/>
<polygon fill="#9a32cd" stroke="#9a32cd" points="1306.57,-156.249 1297.07,-160.938 1307.42,-163.197 1306.57,-156.249"/>
<text text-anchor="middle" x="1369" y="-161" font-family="FreeSans" font-size="10.00"> myMasks</text>
</g>
<!-- Node3 -->
<g id="node3" class="node"><title>Node3</title>
<g id="a_node3"><a xlink:title="STL class. ">
<polygon fill="white" stroke="#bfbfbf" points="893.5,-170.5 893.5,-189.5 988.5,-189.5 988.5,-170.5 893.5,-170.5"/>
<text text-anchor="middle" x="941" y="-177.5" font-family="FreeSans" font-size="10.00">std::vector&lt; T &gt;</text>
</a>
</g>
</g>
<!-- Node3&#45;&gt;Node2 -->
<g id="edge2" class="edge"><title>Node3&#45;&gt;Node2</title>
<path fill="none" stroke="orange" stroke-dasharray="5,2" d="M998.616,-177.574C1041.87,-175.72 1101.82,-173.15 1148.73,-171.14"/>
<polygon fill="orange" stroke="orange" points="998.392,-174.08 988.551,-178.005 998.691,-181.073 998.392,-174.08"/>
<text text-anchor="middle" x="1082" y="-179" font-family="FreeSans" font-size="10.00"> &lt; PairIterators &gt;</text>
</g>
<!-- Node4 -->
<g id="node4" class="node"><title>Node4</title>
<polygon fill="white" stroke="#bfbfbf" points="652.5,-157.5 652.5,-176.5 681.5,-176.5 681.5,-157.5 652.5,-157.5"/>
<text text-anchor="middle" x="667" y="-164.5" font-family="FreeSans" font-size="10.00">T</text>
</g>
<!-- Node4&#45;&gt;Node3 -->
<g id="edge3" class="edge"><title>Node4&#45;&gt;Node3</title>
<path fill="none" stroke="#9a32cd" stroke-dasharray="5,2" d="M691.857,-168.14C736.852,-170.291 834.968,-174.98 893.444,-177.775"/>
<polygon fill="#9a32cd" stroke="#9a32cd" points="692.018,-164.644 681.862,-167.663 691.684,-171.636 692.018,-164.644"/>
<text text-anchor="middle" x="800" y="-179" font-family="FreeSans" font-size="10.00"> elements</text>
</g>
<!-- Node11 -->
<g id="node11" class="node"><title>Node11</title>
<polygon fill="white" stroke="#bfbfbf" points="886,-117.5 886,-136.5 996,-136.5 996,-117.5 886,-117.5"/>
<text text-anchor="middle" x="941" y="-124.5" font-family="FreeSans" font-size="10.00">Functor&lt; T, Point &gt;</text>
</g>
<!-- Node4&#45;&gt;Node11 -->
<g id="edge16" class="edge"><title>Node4&#45;&gt;Node11</title>
<path fill="none" stroke="#9a32cd" stroke-dasharray="5,2" d="M691.968,-163.475C735.094,-157.133 826.762,-143.653 885.768,-134.975"/>
<polygon fill="#9a32cd" stroke="#9a32cd" points="691.247,-160.044 681.862,-164.961 692.265,-166.969 691.247,-160.044"/>
<text text-anchor="middle" x="800" y="-156" font-family="FreeSans" font-size="10.00"> radius</text>
</g>
<!-- Node5 -->
<g id="node5" class="node"><title>Node5</title>
<g id="a_node5"><a xlink:href="structDGtal_1_1SignedKhalimskyCell.html" target="_top" xlink:title="Represents a signed cell in a cellular grid space by its Khalimsky coordinates and a boolean value...">
<polygon fill="white" stroke="black" points="1149,-60 1149,-90 1297,-90 1297,-60 1149,-60"/>
<text text-anchor="start" x="1157" y="-78" font-family="FreeSans" font-size="10.00">DGtal::SignedKhalimskyCell</text>
<text text-anchor="middle" x="1223" y="-67" font-family="FreeSans" font-size="10.00">&lt; dim, TInteger &gt;</text>
</a>
</g>
</g>
<!-- Node5&#45;&gt;Node1 -->
<g id="edge4" class="edge"><title>Node5&#45;&gt;Node1</title>
<path fill="none" stroke="#9a32cd" stroke-dasharray="5,2" d="M1307.42,-74.2478C1341.21,-74.7038 1380.54,-76.2014 1416,-80 1421.81,-80.6223 1427.76,-81.3788 1433.75,-82.2317"/>
<polygon fill="#9a32cd" stroke="#9a32cd" points="1307.16,-70.7449 1297.12,-74.1383 1307.08,-77.7445 1307.16,-70.7449"/>
<text text-anchor="middle" x="1369" y="-105" font-family="FreeSans" font-size="10.00"> defaultInnerSpel</text>
<text text-anchor="middle" x="1369" y="-94" font-family="FreeSans" font-size="10.00">defaultOuterSpel</text>
<text text-anchor="middle" x="1369" y="-83" font-family="FreeSans" font-size="10.00">myKernelSpelOrigin</text>
</g>
<!-- Node6 -->
<g id="node6" class="node"><title>Node6</title>
<g id="a_node6"><a xlink:href="structDGtal_1_1SignedKhalimskyPreCell.html" target="_top" xlink:title="DGtal::SignedKhalimskyPre\lCell\&lt; dim, Integer \&gt;">
<polygon fill="white" stroke="black" points="868,-60 868,-90 1014,-90 1014,-60 868,-60"/>
<text text-anchor="start" x="876" y="-78" font-family="FreeSans" font-size="10.00">DGtal::SignedKhalimskyPre</text>
<text text-anchor="middle" x="941" y="-67" font-family="FreeSans" font-size="10.00">Cell&lt; dim, Integer &gt;</text>
</a>
</g>
</g>
<!-- Node6&#45;&gt;Node5 -->
<g id="edge5" class="edge"><title>Node6&#45;&gt;Node5</title>
<path fill="none" stroke="#9a32cd" stroke-dasharray="5,2" d="M1024.22,-75C1063.65,-75 1110.48,-75 1148.68,-75"/>
<polygon fill="#9a32cd" stroke="#9a32cd" points="1024.11,-71.5001 1014.11,-75 1024.11,-78.5001 1024.11,-71.5001"/>
<text text-anchor="middle" x="1082" y="-78" font-family="FreeSans" font-size="10.00"> mySPreCell</text>
</g>
<!-- Node7 -->
<g id="node7" class="node"><title>Node7</title>
<g id="a_node7"><a xlink:href="classDGtal_1_1PointVector.html" target="_top" xlink:title="DGtal::PointVector\l\&lt; dim, Integer \&gt;">
<polygon fill="white" stroke="black" points="394,-40 394,-70 498,-70 498,-40 394,-40"/>
<text text-anchor="start" x="402" y="-58" font-family="FreeSans" font-size="10.00">DGtal::PointVector</text>
<text text-anchor="middle" x="446" y="-47" font-family="FreeSans" font-size="10.00">&lt; dim, Integer &gt;</text>
</a>
</g>
</g>
<!-- Node7&#45;&gt;Node6 -->
<g id="edge6" class="edge"><title>Node7&#45;&gt;Node6</title>
<path fill="none" stroke="#9a32cd" stroke-dasharray="5,2" d="M508.316,-59.5614C510.912,-59.7171 513.481,-59.8642 516,-60 639.565,-66.6604 783.552,-71.039 867.943,-73.2622"/>
<polygon fill="#9a32cd" stroke="#9a32cd" points="508.432,-56.0618 498.231,-58.924 507.991,-63.0479 508.432,-56.0618"/>
<text text-anchor="middle" x="667" y="-73" font-family="FreeSans" font-size="10.00"> coordinates</text>
</g>
<!-- Node10 -->
<g id="node10" class="node"><title>Node10</title>
<g id="a_node10"><a xlink:href="structDGtal_1_1SignedKhalimskyPreCell.html" target="_top" xlink:title="Represents a signed cell in an unbounded cellular grid space by its Khalimsky coordinates and a boole...">
<polygon fill="white" stroke="black" points="594,-8 594,-38 740,-38 740,-8 594,-8"/>
<text text-anchor="start" x="602" y="-26" font-family="FreeSans" font-size="10.00">DGtal::SignedKhalimskyPre</text>
<text text-anchor="middle" x="667" y="-15" font-family="FreeSans" font-size="10.00">Cell&lt; dim, TInteger &gt;</text>
</a>
</g>
</g>
<!-- Node7&#45;&gt;Node10 -->
<g id="edge13" class="edge"><title>Node7&#45;&gt;Node10</title>
<path fill="none" stroke="#9a32cd" stroke-dasharray="5,2" d="M508.003,-46.0864C534.576,-42.2034 565.926,-37.6227 593.665,-33.5695"/>
<polygon fill="#9a32cd" stroke="#9a32cd" points="507.458,-42.6287 498.069,-47.5378 508.47,-49.5551 507.458,-42.6287"/>
<text text-anchor="middle" x="546" y="-48" font-family="FreeSans" font-size="10.00"> coordinates</text>
</g>
<!-- Node8 -->
<g id="node8" class="node"><title>Node8</title>
<polygon fill="white" stroke="#bfbfbf" points="0,-69.5 0,-88.5 68,-88.5 68,-69.5 0,-69.5"/>
<text text-anchor="middle" x="34" y="-76.5" font-family="FreeSans" font-size="10.00">TContainer</text>
</g>
<!-- Node8&#45;&gt;Node7 -->
<g id="edge7" class="edge"><title>Node8&#45;&gt;Node7</title>
<path fill="none" stroke="#9a32cd" stroke-dasharray="5,2" d="M78.3566,-79.4734C99.3833,-79.6801 125.007,-79.8983 148,-80 203.999,-80.2478 218.147,-84.0612 274,-80 314.547,-77.0517 360.078,-70.2206 393.957,-64.4429"/>
<polygon fill="#9a32cd" stroke="#9a32cd" points="78.1626,-75.9714 68.1278,-79.3703 78.0919,-82.971 78.1626,-75.9714"/>
<text text-anchor="middle" x="211" y="-85" font-family="FreeSans" font-size="10.00"> myArray</text>
</g>
<!-- Node9 -->
<g id="node9" class="node"><title>Node9</title>
<g id="a_node9"><a xlink:href="classDGtal_1_1PointVector.html" target="_top" xlink:title="Aim: Implements basic operations that will be used in Point and Vector classes. ">
<polygon fill="white" stroke="black" points="148,-0.5 148,-41.5 274,-41.5 274,-0.5 148,-0.5"/>
<text text-anchor="start" x="156" y="-29.5" font-family="FreeSans" font-size="10.00">DGtal::PointVector</text>
<text text-anchor="start" x="156" y="-18.5" font-family="FreeSans" font-size="10.00">&lt; dim, TEuclideanRing,</text>
<text text-anchor="middle" x="211" y="-7.5" font-family="FreeSans" font-size="10.00"> TContainer &gt;</text>
</a>
</g>
</g>
<!-- Node8&#45;&gt;Node9 -->
<g id="edge9" class="edge"><title>Node8&#45;&gt;Node9</title>
<path fill="none" stroke="#9a32cd" stroke-dasharray="5,2" d="M73.4757,-66.2481C95.3137,-59.0103 123.167,-49.7789 148.013,-41.5443"/>
<polygon fill="#9a32cd" stroke="#9a32cd" points="72.2888,-62.9541 63.8977,-69.4225 74.4911,-69.5987 72.2888,-62.9541"/>
<text text-anchor="middle" x="108" y="-65" font-family="FreeSans" font-size="10.00"> myArray</text>
</g>
<!-- Node9&#45;&gt;Node7 -->
<g id="edge8" class="edge"><title>Node9&#45;&gt;Node7</title>
<path fill="none" stroke="#9a32cd" stroke-dasharray="5,2" d="M283.942,-31.8124C286.662,-32.2145 289.356,-32.6116 292,-33 325.985,-37.9922 364.235,-43.4922 393.989,-47.7441"/>
<polygon fill="#9a32cd" stroke="#9a32cd" points="284.418,-28.3447 274.012,-30.3398 283.391,-35.269 284.418,-28.3447"/>
<text text-anchor="middle" x="334" y="-49" font-family="FreeSans" font-size="10.00"> zero</text>
</g>
<!-- Node9&#45;&gt;Node7 -->
<g id="edge11" class="edge"><title>Node9&#45;&gt;Node7</title>
<path fill="none" stroke="orange" stroke-dasharray="5,2" d="M284.333,-13.1583C313.203,-11.9373 346.522,-12.9512 376,-20 392.33,-23.9048 409.163,-32.341 422.116,-39.9524"/>
<polygon fill="orange" stroke="orange" points="284.127,-9.66421 274.321,-13.6771 284.489,-16.6548 284.127,-9.66421"/>
<text text-anchor="middle" x="334" y="-23" font-family="FreeSans" font-size="10.00"> &lt; dim, Integer &gt;</text>
</g>
<!-- Node9&#45;&gt;Node9 -->
<g id="edge10" class="edge"><title>Node9&#45;&gt;Node9</title>
<path fill="none" stroke="#9a32cd" stroke-dasharray="5,2" d="M193.766,-51.6009C196.515,-56.0235 202.259,-59 211,-59 225.344,-59 231.619,-50.9844 229.826,-41.7163"/>
<polygon fill="#9a32cd" stroke="#9a32cd" points="197.22,-51.0324 192.174,-41.7163 190.309,-52.1457 197.22,-51.0324"/>
<text text-anchor="middle" x="211" y="-62" font-family="FreeSans" font-size="10.00"> zero</text>
</g>
<!-- Node10&#45;&gt;Node6 -->
<g id="edge12" class="edge"><title>Node10&#45;&gt;Node6</title>
<path fill="none" stroke="orange" stroke-dasharray="5,2" d="M750.348,-34.1243C779.417,-38.4877 812.263,-43.9143 842,-50 856.02,-52.8691 871.046,-56.4452 885.016,-59.9874"/>
<polygon fill="orange" stroke="orange" points="750.64,-30.6294 740.235,-32.6259 749.614,-37.5538 750.64,-30.6294"/>
<text text-anchor="middle" x="800" y="-53" font-family="FreeSans" font-size="10.00"> &lt; dim, Integer &gt;</text>
</g>
<!-- Node11&#45;&gt;Node1 -->
<g id="edge14" class="edge"><title>Node11&#45;&gt;Node1</title>
<path fill="none" stroke="#9a32cd" stroke-dasharray="5,2" d="M1006.25,-126.426C1097.45,-125.31 1269.63,-122.092 1416,-113 1421.86,-112.636 1427.87,-112.214 1433.94,-111.751"/>
<polygon fill="#9a32cd" stroke="#9a32cd" points="1006.04,-122.928 996.077,-126.546 1006.12,-129.927 1006.04,-122.928"/>
<text text-anchor="middle" x="1223" y="-127" font-family="FreeSans" font-size="10.00"> myFFunctor</text>
</g>
<!-- Node12 -->
<g id="node12" class="node"><title>Node12</title>
<polygon fill="white" stroke="#bfbfbf" points="636,-104.5 636,-123.5 698,-123.5 698,-104.5 636,-104.5"/>
<text text-anchor="middle" x="667" y="-111.5" font-family="FreeSans" font-size="10.00">MyPointD</text>
</g>
<!-- Node12&#45;&gt;Node11 -->
<g id="edge15" class="edge"><title>Node12&#45;&gt;Node11</title>
<path fill="none" stroke="#9a32cd" stroke-dasharray="5,2" d="M708.588,-112.903C743.882,-112.267 796.374,-112.085 842,-115 856.284,-115.912 871.675,-117.506 885.933,-119.24"/>
<polygon fill="#9a32cd" stroke="#9a32cd" points="708.141,-109.412 698.213,-113.112 708.282,-116.41 708.141,-109.412"/>
<text text-anchor="middle" x="800" y="-118" font-family="FreeSans" font-size="10.00"> center</text>
</g>
<!-- Node13 -->
<g id="node13" class="node"><title>Node13</title>
<g id="a_node13"><a xlink:href="structDGtal_1_1CanonicSCellEmbedder.html" target="_top" xlink:title="DGtal::CanonicSCellEmbedder\l\&lt; KSpace \&gt;">
<polygon fill="white" stroke="black" points="1142.5,-11 1142.5,-41 1303.5,-41 1303.5,-11 1142.5,-11"/>
<text text-anchor="start" x="1150.5" y="-29" font-family="FreeSans" font-size="10.00">DGtal::CanonicSCellEmbedder</text>
<text text-anchor="middle" x="1223" y="-18" font-family="FreeSans" font-size="10.00">&lt; KSpace &gt;</text>
</a>
</g>
</g>
<!-- Node13&#45;&gt;Node1 -->
<g id="edge17" class="edge"><title>Node13&#45;&gt;Node1</title>
<path fill="none" stroke="#9a32cd" stroke-dasharray="5,2" d="M1313.55,-38.5767C1346.08,-44.0043 1382.96,-51.1624 1416,-60 1437.73,-65.8104 1461.14,-73.92 1481.21,-81.4653"/>
<polygon fill="#9a32cd" stroke="#9a32cd" points="1314.04,-35.1099 1303.61,-36.9479 1312.91,-42.0179 1314.04,-35.1099"/>
<text text-anchor="middle" x="1369" y="-63" font-family="FreeSans" font-size="10.00"> myEmbedder</text>
</g>
<!-- Node14 -->
<g id="node14" class="node"><title>Node14</title>
<g id="a_node14"><a xlink:href="structDGtal_1_1CanonicSCellEmbedder.html" target="_top" xlink:title="Aim: A trivial embedder for signed cell, which corresponds to the canonic injection of cell centroids...">
<polygon fill="white" stroke="black" points="860.5,-11 860.5,-41 1021.5,-41 1021.5,-11 860.5,-11"/>
<text text-anchor="start" x="868.5" y="-29" font-family="FreeSans" font-size="10.00">DGtal::CanonicSCellEmbedder</text>
<text text-anchor="middle" x="941" y="-18" font-family="FreeSans" font-size="10.00">&lt; TKSpace &gt;</text>
</a>
</g>
</g>
<!-- Node14&#45;&gt;Node13 -->
<g id="edge18" class="edge"><title>Node14&#45;&gt;Node13</title>
<path fill="none" stroke="orange" stroke-dasharray="5,2" d="M1032.18,-26C1067.52,-26 1107.74,-26 1142.03,-26"/>
<polygon fill="orange" stroke="orange" points="1031.86,-22.5001 1021.86,-26 1031.86,-29.5001 1031.86,-22.5001"/>
<text text-anchor="middle" x="1082" y="-29" font-family="FreeSans" font-size="10.00"> &lt; KSpace &gt;</text>
</g>
</g>
</svg>
