<?xml version="1.0" encoding="UTF-8" standalone="no"?>
<!DOCTYPE svg PUBLIC "-//W3C//DTD SVG 1.1//EN"
 "http://www.w3.org/Graphics/SVG/1.1/DTD/svg11.dtd">
<!-- Generated by graphviz version 2.38.0 (20140413.2041)
 -->
<!-- Title: DGtal::detail::DSSDecorator&lt; TDSS &gt; Pages: 1 -->
<svg width="352pt" height="88pt"
 viewBox="0.00 0.00 352.00 88.00" xmlns="http://www.w3.org/2000/svg" xmlns:xlink="http://www.w3.org/1999/xlink">
<g id="graph0" class="graph" transform="scale(1 1) rotate(0) translate(4 84)">
<title>DGtal::detail::DSSDecorator&lt; TDSS &gt;</title>
<polygon fill="white" stroke="none" points="-4,4 -4,-84 348,-84 348,4 -4,4"/>
<!-- Node0 -->
<g id="node1" class="node"><title>Node0</title>
<polygon fill="#bfbfbf" stroke="black" points="0,-24.5 0,-54.5 151,-54.5 151,-24.5 0,-24.5"/>
<text text-anchor="start" x="8" y="-42.5" font-family="FreeSans" font-size="10.00">DGtal::detail::DSSDecorator</text>
<text text-anchor="middle" x="75.5" y="-31.5" font-family="FreeSans" font-size="10.00">&lt; TDSS &gt;</text>
</g>
<!-- Node1 -->
<g id="node2" class="node"><title>Node1</title>
<g id="a_node2"><a xlink:href="classDGtal_1_1detail_1_1DSSDecorator4ConcavePart.html" target="_top" xlink:title="Aim: adapter for TDSS used by FP in CONCAVE parts. Has 2 methods: ">
<polygon fill="white" stroke="black" points="187,-49.5 187,-79.5 344,-79.5 344,-49.5 187,-49.5"/>
<text text-anchor="start" x="195" y="-67.5" font-family="FreeSans" font-size="10.00">DGtal::detail::DSSDecorator4</text>
<text text-anchor="middle" x="265.5" y="-56.5" font-family="FreeSans" font-size="10.00">ConcavePart&lt; TDSS &gt;</text>
</a>
</g>
</g>
<!-- Node0&#45;&gt;Node1 -->
<g id="edge1" class="edge"><title>Node0&#45;&gt;Node1</title>
<path fill="none" stroke="midnightblue" d="M161.104,-50.7505C169.705,-51.8943 178.412,-53.0521 186.933,-54.1853"/>
<polygon fill="midnightblue" stroke="midnightblue" points="161.447,-47.2654 151.073,-49.4166 160.524,-54.2043 161.447,-47.2654"/>
</g>
<!-- Node2 -->
<g id="node3" class="node"><title>Node2</title>
<g id="a_node3"><a xlink:href="classDGtal_1_1detail_1_1DSSDecorator4ConvexPart.html" target="_top" xlink:title="Aim: adapter for TDSS used by FP in CONVEX parts. Has 2 methods: ">
<polygon fill="white" stroke="black" points="187,-0.5 187,-30.5 344,-30.5 344,-0.5 187,-0.5"/>
<text text-anchor="start" x="195" y="-18.5" font-family="FreeSans" font-size="10.00">DGtal::detail::DSSDecorator4</text>
<text text-anchor="middle" x="265.5" y="-7.5" font-family="FreeSans" font-size="10.00">ConvexPart&lt; TDSS &gt;</text>
</a>
</g>
</g>
<!-- Node0&#45;&gt;Node2 -->
<g id="edge2" class="edge"><title>Node0&#45;&gt;Node2</title>
<path fill="none" stroke="midnightblue" d="M161.104,-28.6995C169.705,-27.6015 178.412,-26.4899 186.933,-25.4021"/>
<polygon fill="midnightblue" stroke="midnightblue" points="160.549,-25.2419 151.073,-29.9801 161.435,-32.1855 160.549,-25.2419"/>
</g>
</g>
</svg>
