<?xml version="1.0" encoding="UTF-8" standalone="no"?>
<!DOCTYPE svg PUBLIC "-//W3C//DTD SVG 1.1//EN"
 "http://www.w3.org/Graphics/SVG/1.1/DTD/svg11.dtd">
<!-- Generated by graphviz version 2.36.0 (20140111.2315)
 -->
<!-- Title: DGtal::PreCellDirectionIterator&lt; dim, TInteger &gt; Pages: 1 -->
<svg width="273pt" height="438pt"
 viewBox="0.00 0.00 273.24 438.00" xmlns="http://www.w3.org/2000/svg" xmlns:xlink="http://www.w3.org/1999/xlink">
<g id="graph0" class="graph" transform="scale(1 1) rotate(0) translate(4 434)">
<title>DGtal::PreCellDirectionIterator&lt; dim, TInteger &gt;</title>
<polygon fill="white" stroke="none" points="-4,4 -4,-434 269.245,-434 269.245,4 -4,4"/>
<!-- Node1 -->
<g id="node1" class="node"><title>Node1</title>
<polygon fill="#bfbfbf" stroke="black" points="19.7447,-1 19.7447,-31 180.745,-31 180.745,-1 19.7447,-1"/>
<text text-anchor="start" x="27.7447" y="-19" font-family="FreeSans" font-size="10.00">DGtal::PreCellDirectionIterator</text>
<text text-anchor="middle" x="100.245" y="-8" font-family="FreeSans" font-size="10.00">&lt; dim, TInteger &gt;</text>
</g>
<!-- Node2 -->
<g id="node2" class="node"><title>Node2</title>
<g id="a_node2"><a xlink:href="structDGtal_1_1KhalimskyPreCell.html" target="_top" xlink:title="DGtal::KhalimskyPreCell\l\&lt; dim, Integer \&gt;">
<polygon fill="white" stroke="black" points="34.7447,-81 34.7447,-111 165.745,-111 165.745,-81 34.7447,-81"/>
<text text-anchor="start" x="42.7447" y="-99" font-family="FreeSans" font-size="10.00">DGtal::KhalimskyPreCell</text>
<text text-anchor="middle" x="100.245" y="-88" font-family="FreeSans" font-size="10.00">&lt; dim, Integer &gt;</text>
</a>
</g>
</g>
<!-- Node2&#45;&gt;Node1 -->
<g id="edge1" class="edge"><title>Node2&#45;&gt;Node1</title>
<path fill="none" stroke="#9a32cd" stroke-dasharray="5,2" d="M100.245,-70.5644C100.245,-57.6243 100.245,-42.1862 100.245,-31.2157"/>
<polygon fill="#9a32cd" stroke="#9a32cd" points="96.7448,-70.6936 100.245,-80.6936 103.745,-70.6936 96.7448,-70.6936"/>
<text text-anchor="middle" x="118.245" y="-53.5" font-family="FreeSans" font-size="10.00"> myCell</text>
</g>
<!-- Node3 -->
<g id="node3" class="node"><title>Node3</title>
<g id="a_node3"><a xlink:href="classDGtal_1_1PointVector.html" target="_top" xlink:title="DGtal::PointVector\l\&lt; dim, Integer \&gt;">
<polygon fill="white" stroke="black" points="20.2447,-241 20.2447,-271 124.245,-271 124.245,-241 20.2447,-241"/>
<text text-anchor="start" x="28.2447" y="-259" font-family="FreeSans" font-size="10.00">DGtal::PointVector</text>
<text text-anchor="middle" x="72.2447" y="-248" font-family="FreeSans" font-size="10.00">&lt; dim, Integer &gt;</text>
</a>
</g>
</g>
<!-- Node3&#45;&gt;Node2 -->
<g id="edge2" class="edge"><title>Node3&#45;&gt;Node2</title>
<path fill="none" stroke="#9a32cd" stroke-dasharray="5,2" d="M66.2532,-231.057C62.3888,-211.613 59.1194,-183.638 65.2447,-160 69.9525,-141.832 81.1597,-123.325 89.6334,-111.114"/>
<polygon fill="#9a32cd" stroke="#9a32cd" points="62.8501,-231.879 68.4055,-240.901 69.6886,-230.384 62.8501,-231.879"/>
<text text-anchor="middle" x="95.2447" y="-173.5" font-family="FreeSans" font-size="10.00"> coordinates</text>
</g>
<!-- Node6 -->
<g id="node6" class="node"><title>Node6</title>
<g id="a_node6"><a xlink:href="structDGtal_1_1KhalimskyPreCell.html" target="_top" xlink:title="Represents an unsigned cell in an unbounded cellular grid space by its Khalimsky coordinates. ">
<polygon fill="white" stroke="black" points="134.745,-161 134.745,-191 265.745,-191 265.745,-161 134.745,-161"/>
<text text-anchor="start" x="142.745" y="-179" font-family="FreeSans" font-size="10.00">DGtal::KhalimskyPreCell</text>
<text text-anchor="middle" x="200.245" y="-168" font-family="FreeSans" font-size="10.00">&lt; dim, TInteger &gt;</text>
</a>
</g>
</g>
<!-- Node3&#45;&gt;Node6 -->
<g id="edge9" class="edge"><title>Node3&#45;&gt;Node6</title>
<path fill="none" stroke="#9a32cd" stroke-dasharray="5,2" d="M104.046,-235.621C126.768,-221.775 156.812,-203.467 177.237,-191.02"/>
<polygon fill="#9a32cd" stroke="#9a32cd" points="102.143,-232.682 95.4246,-240.875 105.785,-238.66 102.143,-232.682"/>
<text text-anchor="middle" x="174.245" y="-213.5" font-family="FreeSans" font-size="10.00"> coordinates</text>
</g>
<!-- Node4 -->
<g id="node4" class="node"><title>Node4</title>
<polygon fill="white" stroke="#bfbfbf" points="0.244728,-410.5 0.244728,-429.5 68.2447,-429.5 68.2447,-410.5 0.244728,-410.5"/>
<text text-anchor="middle" x="34.2447" y="-417.5" font-family="FreeSans" font-size="10.00">TContainer</text>
</g>
<!-- Node4&#45;&gt;Node3 -->
<g id="edge3" class="edge"><title>Node4&#45;&gt;Node3</title>
<path fill="none" stroke="#9a32cd" stroke-dasharray="5,2" d="M21.8446,-401.871C8.93022,-381.782 -7.85546,-347.706 4.24473,-320 13.3268,-299.205 33.0329,-282.205 48.9048,-271.129"/>
<polygon fill="#9a32cd" stroke="#9a32cd" points="19.0442,-403.978 27.559,-410.282 24.8344,-400.044 19.0442,-403.978"/>
<text text-anchor="middle" x="26.2447" y="-338.5" font-family="FreeSans" font-size="10.00"> myArray</text>
</g>
<!-- Node5 -->
<g id="node5" class="node"><title>Node5</title>
<g id="a_node5"><a xlink:href="classDGtal_1_1PointVector.html" target="_top" xlink:title="Aim: Implements basic operations that will be used in Point and Vector classes. ">
<polygon fill="white" stroke="black" points="57.2447,-320.5 57.2447,-361.5 183.245,-361.5 183.245,-320.5 57.2447,-320.5"/>
<text text-anchor="start" x="65.2447" y="-349.5" font-family="FreeSans" font-size="10.00">DGtal::PointVector</text>
<text text-anchor="start" x="65.2447" y="-338.5" font-family="FreeSans" font-size="10.00">&lt; dim, TEuclideanRing,</text>
<text text-anchor="middle" x="120.245" y="-327.5" font-family="FreeSans" font-size="10.00"> TContainer &gt;</text>
</a>
</g>
</g>
<!-- Node4&#45;&gt;Node5 -->
<g id="edge5" class="edge"><title>Node4&#45;&gt;Node5</title>
<path fill="none" stroke="#9a32cd" stroke-dasharray="5,2" d="M51.362,-403.674C64.7964,-391.646 83.5987,-374.811 98.1657,-361.768"/>
<polygon fill="#9a32cd" stroke="#9a32cd" points="48.8923,-401.187 43.7768,-410.465 53.5617,-406.402 48.8923,-401.187"/>
<text text-anchor="middle" x="99.2447" y="-383.5" font-family="FreeSans" font-size="10.00"> myArray</text>
</g>
<!-- Node5&#45;&gt;Node3 -->
<g id="edge4" class="edge"><title>Node5&#45;&gt;Node3</title>
<path fill="none" stroke="#9a32cd" stroke-dasharray="5,2" d="M80.6192,-312.935C77.7122,-309.571 75.1703,-305.92 73.2447,-302 68.5595,-292.461 68.5701,-280.357 69.6095,-271.105"/>
<polygon fill="#9a32cd" stroke="#9a32cd" points="78.3992,-315.664 87.9465,-320.258 83.3476,-310.713 78.3992,-315.664"/>
<text text-anchor="middle" x="85.7447" y="-293.5" font-family="FreeSans" font-size="10.00"> zero</text>
</g>
<!-- Node5&#45;&gt;Node3 -->
<g id="edge7" class="edge"><title>Node5&#45;&gt;Node3</title>
<path fill="none" stroke="orange" stroke-dasharray="5,2" d="M109.018,-311.114C105.866,-304.032 102.206,-296.595 98.2447,-290 94.3389,-283.497 89.3155,-276.832 84.7272,-271.209"/>
<polygon fill="orange" stroke="orange" points="105.849,-312.605 112.982,-320.439 112.291,-309.867 105.849,-312.605"/>
<text text-anchor="middle" x="147.245" y="-293.5" font-family="FreeSans" font-size="10.00"> &lt; dim, Integer &gt;</text>
</g>
<!-- Node5&#45;&gt;Node5 -->
<g id="edge6" class="edge"><title>Node5&#45;&gt;Node5</title>
<path fill="none" stroke="#9a32cd" stroke-dasharray="5,2" d="M193.335,-346.937C198.257,-345.566 201.245,-343.588 201.245,-341 201.245,-336.961 193.964,-334.405 183.413,-333.332"/>
<polygon fill="#9a32cd" stroke="#9a32cd" points="192.662,-343.501 183.413,-348.668 193.866,-350.397 192.662,-343.501"/>
<text text-anchor="middle" x="213.745" y="-338.5" font-family="FreeSans" font-size="10.00"> zero</text>
</g>
<!-- Node6&#45;&gt;Node2 -->
<g id="edge8" class="edge"><title>Node6&#45;&gt;Node2</title>
<path fill="none" stroke="orange" stroke-dasharray="5,2" d="M173.789,-154.364C156.343,-140.757 133.941,-123.283 118.47,-111.216"/>
<polygon fill="orange" stroke="orange" points="171.866,-157.303 181.903,-160.694 176.171,-151.783 171.866,-157.303"/>
<text text-anchor="middle" x="197.245" y="-133.5" font-family="FreeSans" font-size="10.00"> &lt; dim, Integer &gt;</text>
</g>
</g>
</svg>
