<?xml version="1.0" encoding="UTF-8" standalone="no"?>
<!DOCTYPE svg PUBLIC "-//W3C//DTD SVG 1.1//EN"
 "http://www.w3.org/Graphics/SVG/1.1/DTD/svg11.dtd">
<!-- Generated by graphviz version 2.38.0 (20140413.2041)
 -->
<!-- Title: DGtal::MelkmanConvexHull&lt; TPoint, TOrientationFunctor &gt; Pages: 1 -->
<!--zoomable 335 -->
<svg id="main" version="1.1" xmlns="http://www.w3.org/2000/svg" xmlns:xlink="http://www.w3.org/1999/xlink" xml:space="preserve" onload="init(evt)">
<style type="text/css"><![CDATA[
.edge:hover path { stroke: red; }
.edge:hover polygon { stroke: red; fill: red; }
]]></style>
<script type="text/javascript"><![CDATA[
var edges = document.getElementsByTagName('g');
if (edges && edges.length) {
  for (var i=0;i<edges.length;i++) {
    if (edges[i].id.substr(0,4)=='edge') {
      edges[i].setAttribute('class','edge');
    }
  }
}
]]></script>
        <defs>
                <circle id="rim" cx="0" cy="0" r="7"/>
                <circle id="rim2" cx="0" cy="0" r="3.5"/>
                <g id="zoomPlus">
                        <use xlink:href="#rim" fill="#404040">
                                <set attributeName="fill" to="#808080" begin="zoomplus.mouseover" end="zoomplus.mouseout"/>
                        </use>
                        <path d="M-4,0h8M0,-4v8" fill="none" stroke="white" stroke-width="1.5" pointer-events="none"/>
                </g>
                <g id="zoomMin">
                        <use xlink:href="#rim" fill="#404040">
                                <set attributeName="fill" to="#808080" begin="zoomminus.mouseover" end="zoomminus.mouseout"/>
                        </use>
                        <path d="M-4,0h8" fill="none" stroke="white" stroke-width="1.5" pointer-events="none"/>
                </g>
                <g id="dirArrow">
                        <path fill="none" stroke="white" stroke-width="1.5" d="M0,-3.0v7 M-2.5,-0.5L0,-3.0L2.5,-0.5"/>
                </g>
               <g id="resetDef">
                       <use xlink:href="#rim2" fill="#404040">
                               <set attributeName="fill" to="#808080" begin="reset.mouseover" end="reset.mouseout"/>
                       </use>
               </g>
        </defs>

<script type="text/javascript">
var viewWidth = 1952;
var viewHeight = 335;
var sectionId = 'dynsection-1';
</script>
<script xlink:href="svgpan.js"/>
<svg id="graph" class="graph">
<g id="viewport">
<title>DGtal::MelkmanConvexHull&lt; TPoint, TOrientationFunctor &gt;</title>
<polygon fill="white" stroke="none" points="-4,4 -4,-330.5 1948,-330.5 1948,4 -4,4"/>
<!-- Node2 -->
<g id="node1" class="node"><title>Node2</title>
<polygon fill="#bfbfbf" stroke="black" points="1776,-96 1776,-126 1944,-126 1944,-96 1776,-96"/>
<text text-anchor="start" x="1784" y="-114" font-family="FreeSans" font-size="10.00">DGtal::MelkmanConvexHull</text>
<text text-anchor="middle" x="1860" y="-103" font-family="FreeSans" font-size="10.00">&lt; TPoint, TOrientationFunctor &gt;</text>
</g>
<!-- Node3 -->
<g id="node2" class="node"><title>Node3</title>
<polygon fill="white" stroke="#bfbfbf" points="1489.5,-194.5 1489.5,-213.5 1599.5,-213.5 1599.5,-194.5 1489.5,-194.5"/>
<text text-anchor="middle" x="1544.5" y="-201.5" font-family="FreeSans" font-size="10.00">TOrientationFunctor</text>
</g>
<!-- Node3&#45;&gt;Node2 -->
<g id="edge1" class="edge"><title>Node3&#45;&gt;Node2</title>
<path fill="none" stroke="#9a32cd" stroke-dasharray="5,2" d="M1609.64,-193.953C1652.33,-186.337 1709.31,-174.372 1758,-158 1783.48,-149.432 1811.07,-136.312 1830.96,-126.109"/>
<polygon fill="#9a32cd" stroke="#9a32cd" points="1608.91,-190.529 1599.66,-195.701 1610.12,-197.424 1608.91,-190.529"/>
<text text-anchor="middle" x="1703.5" y="-190" font-family="FreeSans" font-size="10.00"> myDefaultFunctor</text>
</g>
<!-- Node4 -->
<g id="node3" class="node"><title>Node4</title>
<g id="a_node3"><a xlink:href="classDGtal_1_1PredicateFromOrientationFunctor2.html" target="_top" xlink:title="DGtal::PredicateFromOrientation\lFunctor2\&lt; Functor, true, false \&gt;">
<polygon fill="white" stroke="black" points="1458.5,-145 1458.5,-175 1630.5,-175 1630.5,-145 1458.5,-145"/>
<text text-anchor="start" x="1466.5" y="-163" font-family="FreeSans" font-size="10.00">DGtal::PredicateFromOrientation</text>
<text text-anchor="middle" x="1544.5" y="-152" font-family="FreeSans" font-size="10.00">Functor2&lt; Functor, true, false &gt;</text>
</a>
</g>
</g>
<!-- Node4&#45;&gt;Node2 -->
<g id="edge2" class="edge"><title>Node4&#45;&gt;Node2</title>
<path fill="none" stroke="#9a32cd" stroke-dasharray="5,2" d="M1640.69,-145.122C1683.83,-138.38 1734.36,-130.482 1775.93,-123.983"/>
<polygon fill="#9a32cd" stroke="#9a32cd" points="1640.09,-141.673 1630.75,-146.675 1641.17,-148.589 1640.09,-141.673"/>
<text text-anchor="middle" x="1703.5" y="-146" font-family="FreeSans" font-size="10.00"> myForwardPredicate</text>
</g>
<!-- Node5 -->
<g id="node4" class="node"><title>Node5</title>
<g id="a_node4"><a xlink:href="classDGtal_1_1functors_1_1Thresholder.html" target="_top" xlink:title="Aim: A small functor with an operator () that compares one value to a threshold value according to tw...">
<polygon fill="white" stroke="black" points="870,-136 870,-166 1021,-166 1021,-136 870,-136"/>
<text text-anchor="start" x="878" y="-154" font-family="FreeSans" font-size="10.00">DGtal::functors::Thresholder</text>
<text text-anchor="middle" x="945.5" y="-143" font-family="FreeSans" font-size="10.00">&lt; T, isLower, isEqual &gt;</text>
</a>
</g>
</g>
<!-- Node5&#45;&gt;Node4 -->
<g id="edge3" class="edge"><title>Node5&#45;&gt;Node4</title>
<path fill="none" stroke="#9a32cd" stroke-dasharray="5,2" d="M1031.41,-167.759C1152.07,-190.128 1366.64,-224.169 1440,-199 1449.59,-195.711 1448.98,-189.615 1458,-185 1465.44,-181.197 1473.54,-177.887 1481.7,-175.029"/>
<polygon fill="#9a32cd" stroke="#9a32cd" points="1031.94,-164.296 1021.46,-165.901 1030.65,-171.177 1031.94,-164.296"/>
<text text-anchor="middle" x="1218" y="-209" font-family="FreeSans" font-size="10.00"> myThresholder</text>
</g>
<!-- Node12 -->
<g id="node11" class="node"><title>Node12</title>
<g id="a_node11"><a xlink:href="classDGtal_1_1PredicateFromOrientationFunctor2.html" target="_top" xlink:title="Aim: Small adapter to models of COrientationFunctor2. It is a model of concepts::CPointPredicate. It is also a ternary predicate on points, useful for basic geometric tasks such as convex hull computation. ">
<polygon fill="white" stroke="black" points="1132,-130.5 1132,-171.5 1304,-171.5 1304,-130.5 1132,-130.5"/>
<text text-anchor="start" x="1140" y="-159.5" font-family="FreeSans" font-size="10.00">DGtal::PredicateFromOrientation</text>
<text text-anchor="start" x="1140" y="-148.5" font-family="FreeSans" font-size="10.00">Functor2&lt; TOrientationFunctor,</text>
<text text-anchor="middle" x="1218" y="-137.5" font-family="FreeSans" font-size="10.00"> acceptNeg, acceptZero &gt;</text>
</a>
</g>
</g>
<!-- Node5&#45;&gt;Node12 -->
<g id="edge13" class="edge"><title>Node5&#45;&gt;Node12</title>
<path fill="none" stroke="#9a32cd" stroke-dasharray="5,2" d="M1031.34,-151C1063.29,-151 1099.63,-151 1131.63,-151"/>
<polygon fill="#9a32cd" stroke="#9a32cd" points="1031.13,-147.5 1021.13,-151 1031.13,-154.5 1031.13,-147.5"/>
<text text-anchor="middle" x="1076.5" y="-154" font-family="FreeSans" font-size="10.00"> myThresholder</text>
</g>
<!-- Node15 -->
<g id="node14" class="node"><title>Node15</title>
<g id="a_node14"><a xlink:href="classDGtal_1_1PredicateFromOrientationFunctor2.html" target="_top" xlink:title="DGtal::PredicateFromOrientation\lFunctor2\&lt; Functor, false, false \&gt;">
<polygon fill="white" stroke="black" points="1458,-96 1458,-126 1631,-126 1631,-96 1458,-96"/>
<text text-anchor="start" x="1466" y="-114" font-family="FreeSans" font-size="10.00">DGtal::PredicateFromOrientation</text>
<text text-anchor="middle" x="1544.5" y="-103" font-family="FreeSans" font-size="10.00">Functor2&lt; Functor, false, false &gt;</text>
</a>
</g>
</g>
<!-- Node5&#45;&gt;Node15 -->
<g id="edge18" class="edge"><title>Node5&#45;&gt;Node15</title>
<path fill="none" stroke="#9a32cd" stroke-dasharray="5,2" d="M1009.73,-133.442C1045.33,-124.464 1090.79,-114.5 1132,-110 1244.03,-97.7667 1374.25,-100.99 1457.69,-105.265"/>
<polygon fill="#9a32cd" stroke="#9a32cd" points="1008.78,-130.072 999.964,-135.942 1010.52,-136.853 1008.78,-130.072"/>
<text text-anchor="middle" x="1218" y="-113" font-family="FreeSans" font-size="10.00"> myThresholder</text>
</g>
<!-- Node6 -->
<g id="node5" class="node"><title>Node6</title>
<polygon fill="white" stroke="#bfbfbf" points="0,-170.5 0,-189.5 29,-189.5 29,-170.5 0,-170.5"/>
<text text-anchor="middle" x="14.5" y="-177.5" font-family="FreeSans" font-size="10.00">T</text>
</g>
<!-- Node6&#45;&gt;Node5 -->
<g id="edge4" class="edge"><title>Node6&#45;&gt;Node5</title>
<path fill="none" stroke="#9a32cd" stroke-dasharray="5,2" d="M39.1415,-172.284C67.6073,-163.693 117.021,-151 160.5,-151 160.5,-151 160.5,-151 682,-151 745.346,-151 817.291,-151 869.822,-151"/>
<polygon fill="#9a32cd" stroke="#9a32cd" points="37.8227,-169.029 29.3134,-175.341 39.9017,-175.713 37.8227,-169.029"/>
<text text-anchor="middle" x="423.5" y="-154" font-family="FreeSans" font-size="10.00"> myT</text>
</g>
<!-- Node10 -->
<g id="node9" class="node"><title>Node10</title>
<g id="a_node9"><a xlink:title="STL class. ">
<polygon fill="white" stroke="#bfbfbf" points="116.5,-240.5 116.5,-259.5 206.5,-259.5 206.5,-240.5 116.5,-240.5"/>
<text text-anchor="middle" x="161.5" y="-247.5" font-family="FreeSans" font-size="10.00">std::array&lt; T &gt;</text>
</a>
</g>
</g>
<!-- Node6&#45;&gt;Node10 -->
<g id="edge9" class="edge"><title>Node6&#45;&gt;Node10</title>
<path fill="none" stroke="#9a32cd" stroke-dasharray="5,2" d="M24.7209,-198.673C30.053,-207.621 37.5814,-217.73 47,-224 67.4456,-237.611 94.0502,-244.158 116.362,-247.282"/>
<polygon fill="#9a32cd" stroke="#9a32cd" points="27.6671,-196.765 19.8115,-189.655 21.5192,-200.112 27.6671,-196.765"/>
<text text-anchor="middle" x="71.5" y="-246" font-family="FreeSans" font-size="10.00"> elements</text>
</g>
<!-- Node13 -->
<g id="node12" class="node"><title>Node13</title>
<polygon fill="white" stroke="#bfbfbf" points="368.5,-199.5 368.5,-218.5 478.5,-218.5 478.5,-199.5 368.5,-199.5"/>
<text text-anchor="middle" x="423.5" y="-206.5" font-family="FreeSans" font-size="10.00">Functor&lt; T, Point &gt;</text>
</g>
<!-- Node6&#45;&gt;Node13 -->
<g id="edge16" class="edge"><title>Node6&#45;&gt;Node13</title>
<path fill="none" stroke="#9a32cd" stroke-dasharray="5,2" d="M39.2574,-181.693C102.939,-186.23 278.688,-198.753 368.355,-205.142"/>
<polygon fill="#9a32cd" stroke="#9a32cd" points="39.2651,-178.185 29.0416,-180.965 38.7675,-185.167 39.2651,-178.185"/>
<text text-anchor="middle" x="161.5" y="-197" font-family="FreeSans" font-size="10.00"> radius</text>
</g>
<!-- Node17 -->
<g id="node16" class="node"><title>Node17</title>
<g id="a_node16"><a xlink:title="STL class. ">
<polygon fill="white" stroke="#bfbfbf" points="114,-65.5 114,-84.5 209,-84.5 209,-65.5 114,-65.5"/>
<text text-anchor="middle" x="161.5" y="-72.5" font-family="FreeSans" font-size="10.00">std::deque&lt; T &gt;</text>
</a>
</g>
</g>
<!-- Node6&#45;&gt;Node17 -->
<g id="edge24" class="edge"><title>Node6&#45;&gt;Node17</title>
<path fill="none" stroke="#9a32cd" stroke-dasharray="5,2" d="M23.1315,-161.015C28.453,-149.691 36.4854,-135.681 47,-126 69.0109,-105.734 100.427,-92.4688 124.628,-84.5612"/>
<polygon fill="#9a32cd" stroke="#9a32cd" points="19.8027,-159.892 19.0129,-170.458 26.219,-162.691 19.8027,-159.892"/>
<text text-anchor="middle" x="71.5" y="-129" font-family="FreeSans" font-size="10.00"> elements</text>
</g>
<!-- Node7 -->
<g id="node6" class="node"><title>Node7</title>
<g id="a_node6"><a xlink:href="classDGtal_1_1InHalfPlaneBySimple3x3Matrix.html" target="_top" xlink:title="Aim: Class that implements an orientation functor, ie. it provides a way to compute the orientation o...">
<polygon fill="white" stroke="black" points="1135.5,-238 1135.5,-268 1300.5,-268 1300.5,-238 1135.5,-238"/>
<text text-anchor="start" x="1143.5" y="-256" font-family="FreeSans" font-size="10.00">DGtal::InHalfPlaneBySimple3x3</text>
<text text-anchor="middle" x="1218" y="-245" font-family="FreeSans" font-size="10.00">Matrix&lt; TPoint, TInteger &gt;</text>
</a>
</g>
</g>
<!-- Node7&#45;&gt;Node4 -->
<g id="edge5" class="edge"><title>Node7&#45;&gt;Node4</title>
<path fill="none" stroke="#9a32cd" stroke-dasharray="5,2" d="M1310.8,-262.259C1353.83,-261.909 1403.54,-254.234 1440,-227 1456.27,-214.847 1442.8,-198.47 1458,-185 1462.4,-181.102 1467.37,-177.81 1472.66,-175.031"/>
<polygon fill="#9a32cd" stroke="#9a32cd" points="1310.6,-258.758 1300.58,-262.208 1310.57,-265.758 1310.6,-258.758"/>
<text text-anchor="middle" x="1381" y="-264" font-family="FreeSans" font-size="10.00"> myFunctorPtr</text>
</g>
<!-- Node7&#45;&gt;Node15 -->
<g id="edge19" class="edge"><title>Node7&#45;&gt;Node15</title>
<path fill="none" stroke="#9a32cd" stroke-dasharray="5,2" d="M1276.88,-234.411C1286.08,-230.931 1295.4,-227.09 1304,-223 1312.47,-218.973 1313.61,-216.194 1322,-212 1372.49,-186.747 1397,-201.57 1440,-165 1451.85,-154.927 1445.64,-144.435 1458,-135 1462.53,-131.539 1467.54,-128.576 1472.8,-126.041"/>
<polygon fill="#9a32cd" stroke="#9a32cd" points="1275.55,-231.171 1267.36,-237.9 1277.96,-237.743 1275.55,-231.171"/>
<text text-anchor="middle" x="1381" y="-215" font-family="FreeSans" font-size="10.00"> myFunctorPtr</text>
</g>
<!-- Node8 -->
<g id="node7" class="node"><title>Node8</title>
<g id="a_node7"><a xlink:href="classDGtal_1_1SimpleMatrix.html" target="_top" xlink:title="DGtal::SimpleMatrix\l\&lt; Integer, 3, 3 \&gt;">
<polygon fill="white" stroke="black" points="889.5,-240 889.5,-270 1001.5,-270 1001.5,-240 889.5,-240"/>
<text text-anchor="start" x="897.5" y="-258" font-family="FreeSans" font-size="10.00">DGtal::SimpleMatrix</text>
<text text-anchor="middle" x="945.5" y="-247" font-family="FreeSans" font-size="10.00">&lt; Integer, 3, 3 &gt;</text>
</a>
</g>
</g>
<!-- Node8&#45;&gt;Node7 -->
<g id="edge6" class="edge"><title>Node8&#45;&gt;Node7</title>
<path fill="none" stroke="#9a32cd" stroke-dasharray="5,2" d="M1011.77,-254.517C1048.9,-254.243 1095.75,-253.896 1135.31,-253.604"/>
<polygon fill="#9a32cd" stroke="#9a32cd" points="1011.54,-251.019 1001.57,-254.593 1011.59,-258.019 1011.54,-251.019"/>
<text text-anchor="middle" x="1076.5" y="-257" font-family="FreeSans" font-size="10.00"> myMatrix</text>
</g>
<!-- Node9 -->
<g id="node8" class="node"><title>Node9</title>
<polygon fill="white" stroke="#bfbfbf" points="357,-240 357,-270 490,-270 490,-240 357,-240"/>
<text text-anchor="start" x="365" y="-258" font-family="FreeSans" font-size="10.00">std::array&lt; Component,</text>
<text text-anchor="middle" x="423.5" y="-247" font-family="FreeSans" font-size="10.00"> M *N &gt;</text>
</g>
<!-- Node9&#45;&gt;Node8 -->
<g id="edge7" class="edge"><title>Node9&#45;&gt;Node8</title>
<path fill="none" stroke="#9a32cd" stroke-dasharray="5,2" d="M500.391,-255C606.312,-255 795.957,-255 889.391,-255"/>
<polygon fill="#9a32cd" stroke="#9a32cd" points="500.095,-251.5 490.095,-255 500.095,-258.5 500.095,-251.5"/>
<text text-anchor="middle" x="681" y="-269" font-family="FreeSans" font-size="10.00"> myCofactorCoefs</text>
<text text-anchor="middle" x="681" y="-258" font-family="FreeSans" font-size="10.00">myValues</text>
</g>
<!-- Node11 -->
<g id="node10" class="node"><title>Node11</title>
<g id="a_node10"><a xlink:href="classDGtal_1_1SimpleMatrix.html" target="_top" xlink:title="Aim: implements basic MxN Matrix services (M,N&gt;=1). ">
<polygon fill="white" stroke="black" points="612,-296 612,-326 750,-326 750,-296 612,-296"/>
<text text-anchor="start" x="620" y="-314" font-family="FreeSans" font-size="10.00">DGtal::SimpleMatrix</text>
<text text-anchor="middle" x="681" y="-303" font-family="FreeSans" font-size="10.00">&lt; TComponent, TM, TN &gt;</text>
</a>
</g>
</g>
<!-- Node9&#45;&gt;Node11 -->
<g id="edge11" class="edge"><title>Node9&#45;&gt;Node11</title>
<path fill="none" stroke="#9a32cd" stroke-dasharray="5,2" d="M500.098,-271.569C535.491,-279.327 577.331,-288.497 611.751,-296.041"/>
<polygon fill="#9a32cd" stroke="#9a32cd" points="500.815,-268.144 490.298,-269.421 499.316,-274.981 500.815,-268.144"/>
<text text-anchor="middle" x="551" y="-305" font-family="FreeSans" font-size="10.00"> myCofactorCoefs</text>
<text text-anchor="middle" x="551" y="-294" font-family="FreeSans" font-size="10.00">myValues</text>
</g>
<!-- Node10&#45;&gt;Node9 -->
<g id="edge8" class="edge"><title>Node10&#45;&gt;Node9</title>
<path fill="none" stroke="orange" stroke-dasharray="5,2" d="M216.613,-251.041C257.336,-251.824 313.349,-252.901 356.671,-253.734"/>
<polygon fill="orange" stroke="orange" points="216.671,-247.541 206.605,-250.848 216.536,-254.54 216.671,-247.541"/>
<text text-anchor="middle" x="283" y="-256" font-family="FreeSans" font-size="10.00"> &lt; Component, M *N &gt;</text>
</g>
<!-- Node11&#45;&gt;Node8 -->
<g id="edge10" class="edge"><title>Node11&#45;&gt;Node8</title>
<path fill="none" stroke="orange" stroke-dasharray="5,2" d="M760.11,-294.336C801.701,-285.464 851.857,-274.764 889.353,-266.765"/>
<polygon fill="orange" stroke="orange" points="759.333,-290.923 750.284,-296.433 760.794,-297.769 759.333,-290.923"/>
<text text-anchor="middle" x="810" y="-294" font-family="FreeSans" font-size="10.00"> &lt; Integer, 3, 3 &gt;</text>
</g>
<!-- Node12&#45;&gt;Node4 -->
<g id="edge12" class="edge"><title>Node12&#45;&gt;Node4</title>
<path fill="none" stroke="orange" stroke-dasharray="5,2" d="M1314.31,-151.37C1353.29,-151.762 1398.81,-152.527 1440,-154 1445.94,-154.212 1452.06,-154.469 1458.23,-154.757"/>
<polygon fill="orange" stroke="orange" points="1314.06,-147.868 1304.03,-151.274 1313.99,-154.868 1314.06,-147.868"/>
<text text-anchor="middle" x="1381" y="-157" font-family="FreeSans" font-size="10.00"> &lt; Functor, true, false &gt;</text>
</g>
<!-- Node12&#45;&gt;Node15 -->
<g id="edge20" class="edge"><title>Node12&#45;&gt;Node15</title>
<path fill="none" stroke="orange" stroke-dasharray="5,2" d="M1314.27,-137.987C1316.87,-137.652 1319.45,-137.322 1322,-137 1366.85,-131.321 1416.86,-125.414 1457.99,-120.668"/>
<polygon fill="orange" stroke="orange" points="1313.6,-134.545 1304.14,-139.305 1314.5,-141.486 1313.6,-134.545"/>
<text text-anchor="middle" x="1381" y="-140" font-family="FreeSans" font-size="10.00"> &lt; Functor, false, false &gt;</text>
</g>
<!-- Node13&#45;&gt;Node12 -->
<g id="edge14" class="edge"><title>Node13&#45;&gt;Node12</title>
<path fill="none" stroke="#9a32cd" stroke-dasharray="5,2" d="M489.047,-206.158C598.539,-201.151 827.633,-189.862 1021,-175 1062.4,-171.818 1072.77,-170.994 1114,-166 1119.83,-165.294 1125.84,-164.525 1131.89,-163.721"/>
<polygon fill="#9a32cd" stroke="#9a32cd" points="488.661,-202.672 478.83,-206.623 488.979,-209.665 488.661,-202.672"/>
<text text-anchor="middle" x="810" y="-195" font-family="FreeSans" font-size="10.00"> myFunctorPtr</text>
</g>
<!-- Node14 -->
<g id="node13" class="node"><title>Node14</title>
<polygon fill="white" stroke="#bfbfbf" points="130.5,-103.5 130.5,-122.5 192.5,-122.5 192.5,-103.5 130.5,-103.5"/>
<text text-anchor="middle" x="161.5" y="-110.5" font-family="FreeSans" font-size="10.00">MyPointD</text>
</g>
<!-- Node14&#45;&gt;Node13 -->
<g id="edge15" class="edge"><title>Node14&#45;&gt;Node13</title>
<path fill="none" stroke="#9a32cd" stroke-dasharray="5,2" d="M198.054,-126.128C251.17,-145.74 349.983,-182.224 396.724,-199.483"/>
<polygon fill="#9a32cd" stroke="#9a32cd" points="198.974,-122.736 188.38,-122.556 196.549,-129.303 198.974,-122.736"/>
<text text-anchor="middle" x="283" y="-181" font-family="FreeSans" font-size="10.00"> center</text>
</g>
<!-- Node16 -->
<g id="node15" class="node"><title>Node16</title>
<polygon fill="white" stroke="#bfbfbf" points="366.5,-65.5 366.5,-84.5 480.5,-84.5 480.5,-65.5 366.5,-65.5"/>
<text text-anchor="middle" x="423.5" y="-72.5" font-family="FreeSans" font-size="10.00">std::deque&lt; Point &gt;</text>
</g>
<!-- Node14&#45;&gt;Node16 -->
<g id="edge22" class="edge"><title>Node14&#45;&gt;Node16</title>
<path fill="none" stroke="#9a32cd" stroke-dasharray="5,2" d="M202.573,-107.911C238.379,-103.277 292.25,-96.0959 339,-89 348.155,-87.6104 357.862,-86.0568 367.293,-84.5042"/>
<polygon fill="#9a32cd" stroke="#9a32cd" points="201.992,-104.456 192.521,-109.206 202.886,-111.399 201.992,-104.456"/>
<text text-anchor="middle" x="283" y="-108" font-family="FreeSans" font-size="10.00"> elements</text>
</g>
<!-- Node15&#45;&gt;Node2 -->
<g id="edge17" class="edge"><title>Node15&#45;&gt;Node2</title>
<path fill="none" stroke="#9a32cd" stroke-dasharray="5,2" d="M1641.35,-111C1684.32,-111 1734.52,-111 1775.88,-111"/>
<polygon fill="#9a32cd" stroke="#9a32cd" points="1641.17,-107.5 1631.17,-111 1641.17,-114.5 1641.17,-107.5"/>
<text text-anchor="middle" x="1703.5" y="-114" font-family="FreeSans" font-size="10.00"> myBackwardPredicate</text>
</g>
<!-- Node16&#45;&gt;Node2 -->
<g id="edge21" class="edge"><title>Node16&#45;&gt;Node2</title>
<path fill="none" stroke="#9a32cd" stroke-dasharray="5,2" d="M490.638,-64.1494C542.103,-56.6434 615.393,-48 680,-48 680,-48 680,-48 1545.5,-48 1642.51,-48 1753.16,-77.3559 1813.62,-95.99"/>
<polygon fill="#9a32cd" stroke="#9a32cd" points="490.022,-60.7022 480.645,-65.6325 491.05,-67.6264 490.022,-60.7022"/>
<text text-anchor="middle" x="1076.5" y="-51" font-family="FreeSans" font-size="10.00"> myContainer</text>
</g>
<!-- Node17&#45;&gt;Node16 -->
<g id="edge23" class="edge"><title>Node17&#45;&gt;Node16</title>
<path fill="none" stroke="orange" stroke-dasharray="5,2" d="M219.427,-75C262.975,-75 322.725,-75 366.133,-75"/>
<polygon fill="orange" stroke="orange" points="219.283,-71.5001 209.283,-75 219.283,-78.5001 219.283,-71.5001"/>
<text text-anchor="middle" x="283" y="-78" font-family="FreeSans" font-size="10.00"> &lt; Point &gt;</text>
</g>
<!-- Node18 -->
<g id="node17" class="node"><title>Node18</title>
<polygon fill="white" stroke="#bfbfbf" points="1521.5,-0.5 1521.5,-19.5 1567.5,-19.5 1567.5,-0.5 1521.5,-0.5"/>
<text text-anchor="middle" x="1544.5" y="-7.5" font-family="FreeSans" font-size="10.00">TPoint</text>
</g>
<!-- Node18&#45;&gt;Node2 -->
<g id="edge25" class="edge"><title>Node18&#45;&gt;Node2</title>
<path fill="none" stroke="#9a32cd" stroke-dasharray="5,2" d="M1577.77,-5.72615C1620.69,-1.40977 1698.09,1.54825 1758,-23 1796.31,-38.697 1830.17,-75.1098 1847.25,-95.8416"/>
<polygon fill="#9a32cd" stroke="#9a32cd" points="1577.19,-2.26834 1567.63,-6.83689 1577.95,-9.22669 1577.19,-2.26834"/>
<text text-anchor="middle" x="1703.5" y="-26" font-family="FreeSans" font-size="10.00"> myFirstPoint</text>
</g>
</g>
</svg>
        <g id="navigator" transform="translate(0 0)" fill="#404254">
                <rect fill="#f2f5e9" fill-opacity="0.5" stroke="#606060" stroke-width=".5" x="0" y="0" width="60" height="60"/>
                <use id="zoomplus" xlink:href="#zoomPlus" x="17" y="9" onmousedown="handleZoom(evt,'in')"/>
                <use id="zoomminus" xlink:href="#zoomMin" x="42" y="9" onmousedown="handleZoom(evt,'out')"/>
                <use id="reset" xlink:href="#resetDef" x="30" y="36" onmousedown="handleReset()"/>
                <g id="arrowUp" xlink:href="#dirArrow" transform="translate(30 24)" onmousedown="handlePan(0,-1)">
                  <use xlink:href="#rim" fill="#404040">
                        <set attributeName="fill" to="#808080" begin="arrowUp.mouseover" end="arrowUp.mouseout"/>
                  </use>
                  <path fill="none" stroke="white" stroke-width="1.5" d="M0,-3.0v7 M-2.5,-0.5L0,-3.0L2.5,-0.5"/>
                </g>
                <g id="arrowRight" xlink:href="#dirArrow" transform="rotate(90) translate(36 -43)" onmousedown="handlePan(1,0)">
                  <use xlink:href="#rim" fill="#404040">
                        <set attributeName="fill" to="#808080" begin="arrowRight.mouseover" end="arrowRight.mouseout"/>
                  </use>
                  <path fill="none" stroke="white" stroke-width="1.5" d="M0,-3.0v7 M-2.5,-0.5L0,-3.0L2.5,-0.5"/>
                </g>
                <g id="arrowDown" xlink:href="#dirArrow" transform="rotate(180) translate(-30 -48)" onmousedown="handlePan(0,1)">
                  <use xlink:href="#rim" fill="#404040">
                        <set attributeName="fill" to="#808080" begin="arrowDown.mouseover" end="arrowDown.mouseout"/>
                  </use>
                  <path fill="none" stroke="white" stroke-width="1.5" d="M0,-3.0v7 M-2.5,-0.5L0,-3.0L2.5,-0.5"/>
                </g>
                <g id="arrowLeft" xlink:href="#dirArrow" transform="rotate(270) translate(-36 17)" onmousedown="handlePan(-1,0)">
                  <use xlink:href="#rim" fill="#404040">
                        <set attributeName="fill" to="#808080" begin="arrowLeft.mouseover" end="arrowLeft.mouseout"/>
                  </use>
                  <path fill="none" stroke="white" stroke-width="1.5" d="M0,-3.0v7 M-2.5,-0.5L0,-3.0L2.5,-0.5"/>
                </g>
        </g>
        <svg viewBox="0 0 15 15" width="100%" height="30px" preserveAspectRatio="xMaxYMin meet">
         <g id="arrow_out" transform="scale(0.3 0.3)">
          <a xlink:href="classDGtal_1_1MelkmanConvexHull__coll__graph_org.svg" target="_base">
           <rect id="button" ry="5" rx="5" y="6" x="6" height="38" width="38"
                fill="#f2f5e9" fill-opacity="0.5" stroke="#606060" stroke-width="1.0"/>
           <path id="arrow"
             d="M 11.500037,31.436501 C 11.940474,20.09759 22.043105,11.32322 32.158766,21.979434 L 37.068811,17.246167 C 37.068811,17.246167 37.088388,32 37.088388,32 L 22.160133,31.978069 C 22.160133,31.978069 26.997745,27.140456 26.997745,27.140456 C 18.528582,18.264221 13.291696,25.230495 11.500037,31.436501 z"
             style="fill:#404040;"/>
          </a>
         </g>
        </svg>
</svg>
