<?xml version="1.0" encoding="UTF-8" standalone="no"?>
<!DOCTYPE svg PUBLIC "-//W3C//DTD SVG 1.1//EN"
 "http://www.w3.org/Graphics/SVG/1.1/DTD/svg11.dtd">
<!-- Generated by graphviz version 2.38.0 (20140413.2041)
 -->
<!-- Title: DGtal::functors::Thresholder&lt; T, isLower, isEqual &gt; Pages: 1 -->
<svg width="196pt" height="128pt"
 viewBox="0.00 0.00 196.00 128.00" xmlns="http://www.w3.org/2000/svg" xmlns:xlink="http://www.w3.org/1999/xlink">
<g id="graph0" class="graph" transform="scale(1 1) rotate(0) translate(4 124)">
<title>DGtal::functors::Thresholder&lt; T, isLower, isEqual &gt;</title>
<polygon fill="white" stroke="none" points="-4,4 -4,-124 192,-124 192,4 -4,4"/>
<!-- Node0 -->
<g id="node1" class="node"><title>Node0</title>
<polygon fill="#bfbfbf" stroke="black" points="3.5,-89.5 3.5,-119.5 154.5,-119.5 154.5,-89.5 3.5,-89.5"/>
<text text-anchor="start" x="11.5" y="-107.5" font-family="FreeSans" font-size="10.00">DGtal::functors::Thresholder</text>
<text text-anchor="middle" x="79" y="-96.5" font-family="FreeSans" font-size="10.00">&lt; T, isLower, isEqual &gt;</text>
</g>
<!-- Node1 -->
<g id="node2" class="node"><title>Node1</title>
<g id="a_node2"><a xlink:href="classDGtal_1_1functors_1_1Thresholder.html" target="_top" xlink:title="DGtal::functors::Thresholder\l\&lt; ResultInteger, false, false \&gt;">
<polygon fill="white" stroke="black" points="-1.42109e-14,-0.5 -1.42109e-14,-30.5 158,-30.5 158,-0.5 -1.42109e-14,-0.5"/>
<text text-anchor="start" x="8" y="-18.5" font-family="FreeSans" font-size="10.00">DGtal::functors::Thresholder</text>
<text text-anchor="middle" x="79" y="-7.5" font-family="FreeSans" font-size="10.00">&lt; ResultInteger, false, false &gt;</text>
</a>
</g>
</g>
<!-- Node0&#45;&gt;Node1 -->
<g id="edge1" class="edge"><title>Node0&#45;&gt;Node1</title>
<path fill="none" stroke="orange" stroke-dasharray="5,2" d="M79,-79.0903C79,-63.4429 79,-43.6846 79,-30.599"/>
<polygon fill="orange" stroke="orange" points="75.5001,-79.1337 79,-89.1337 82.5001,-79.1338 75.5001,-79.1337"/>
<text text-anchor="start" x="79" y="-63" font-family="FreeSans" font-size="10.00"> &lt; ResultInteger, false,</text>
<text text-anchor="middle" x="133.5" y="-52" font-family="FreeSans" font-size="10.00"> false &gt;</text>
</g>
</g>
</svg>
