<?xml version="1.0" encoding="UTF-8" standalone="no"?>
<!DOCTYPE svg PUBLIC "-//W3C//DTD SVG 1.1//EN"
 "http://www.w3.org/Graphics/SVG/1.1/DTD/svg11.dtd">
<!-- Generated by graphviz version 2.36.0 (20140111.2315)
 -->
<!-- Title: DGtal::BoundedLatticePolytope&lt; TSpace &gt; Pages: 1 -->
<!--zoomable 438 -->
<svg id="main" version="1.1" xmlns="http://www.w3.org/2000/svg" xmlns:xlink="http://www.w3.org/1999/xlink" xml:space="preserve" onload="init(evt)">
<style type="text/css"><![CDATA[
.edge:hover path { stroke: red; }
.edge:hover polygon { stroke: red; fill: red; }
]]></style>
<script type="text/javascript"><![CDATA[
var edges = document.getElementsByTagName('g');
if (edges && edges.length) {
  for (var i=0;i<edges.length;i++) {
    if (edges[i].id.substr(0,4)=='edge') {
      edges[i].setAttribute('class','edge');
    }
  }
}
]]></script>
        <defs>
                <circle id="rim" cx="0" cy="0" r="7"/>
                <circle id="rim2" cx="0" cy="0" r="3.5"/>
                <g id="zoomPlus">
                        <use xlink:href="#rim" fill="#404040">
                                <set attributeName="fill" to="#808080" begin="zoomplus.mouseover" end="zoomplus.mouseout"/>
                        </use>
                        <path d="M-4,0h8M0,-4v8" fill="none" stroke="white" stroke-width="1.5" pointer-events="none"/>
                </g>
                <g id="zoomMin">
                        <use xlink:href="#rim" fill="#404040">
                                <set attributeName="fill" to="#808080" begin="zoomminus.mouseover" end="zoomminus.mouseout"/>
                        </use>
                        <path d="M-4,0h8" fill="none" stroke="white" stroke-width="1.5" pointer-events="none"/>
                </g>
                <g id="dirArrow">
                        <path fill="none" stroke="white" stroke-width="1.5" d="M0,-3.0v7 M-2.5,-0.5L0,-3.0L2.5,-0.5"/>
                </g>
               <g id="resetDef">
                       <use xlink:href="#rim2" fill="#404040">
                               <set attributeName="fill" to="#808080" begin="reset.mouseover" end="reset.mouseout"/>
                       </use>
               </g>
        </defs>

<script type="text/javascript">
var viewWidth = 1330;
var viewHeight = 438;
var sectionId = 'dynsection-0';
</script>
<script xlink:href="svgpan.js"/>
<svg id="graph" class="graph">
<g id="viewport">
<title>DGtal::BoundedLatticePolytope&lt; TSpace &gt;</title>
<polygon fill="white" stroke="none" points="-4,4 -4,-433.695 1326,-433.695 1326,4 -4,4"/>
<!-- Node1 -->
<g id="node1" class="node"><title>Node1</title>
<polygon fill="#bfbfbf" stroke="black" points="1156,-347.695 1156,-377.695 1322,-377.695 1322,-347.695 1156,-347.695"/>
<text text-anchor="start" x="1164" y="-365.695" font-family="FreeSans" font-size="10.00">DGtal::BoundedLatticePolytope</text>
<text text-anchor="middle" x="1239" y="-354.695" font-family="FreeSans" font-size="10.00">&lt; TSpace &gt;</text>
</g>
<!-- Node2 -->
<g id="node2" class="node"><title>Node2</title>
<polygon fill="white" stroke="#bfbfbf" points="978,-372.195 978,-391.195 1102,-391.195 1102,-372.195 978,-372.195"/>
<text text-anchor="middle" x="1040" y="-379.195" font-family="FreeSans" font-size="10.00">std::vector&lt; Integer &gt;</text>
</g>
<!-- Node2&#45;&gt;Node1 -->
<g id="edge1" class="edge"><title>Node2&#45;&gt;Node1</title>
<path fill="none" stroke="#9a32cd" stroke-dasharray="5,2" d="M1112.36,-374.812C1126.46,-373.453 1141.36,-372.015 1155.79,-370.624"/>
<polygon fill="#9a32cd" stroke="#9a32cd" points="1111.87,-371.343 1102.25,-375.787 1112.54,-378.311 1111.87,-371.343"/>
<text text-anchor="middle" x="1132" y="-376.695" font-family="FreeSans" font-size="10.00"> B</text>
</g>
<!-- Node3 -->
<g id="node3" class="node"><title>Node3</title>
<g id="a_node3"><a xlink:title="STL class. ">
<polygon fill="white" stroke="#bfbfbf" points="760.5,-376.195 760.5,-395.195 855.5,-395.195 855.5,-376.195 760.5,-376.195"/>
<text text-anchor="middle" x="808" y="-383.195" font-family="FreeSans" font-size="10.00">std::vector&lt; T &gt;</text>
</a>
</g>
</g>
<!-- Node3&#45;&gt;Node2 -->
<g id="edge2" class="edge"><title>Node3&#45;&gt;Node2</title>
<path fill="none" stroke="orange" stroke-dasharray="5,2" d="M865.773,-384.707C899.748,-384.117 942.933,-383.365 977.685,-382.761"/>
<polygon fill="orange" stroke="orange" points="865.482,-381.212 855.544,-384.885 865.603,-388.211 865.482,-381.212"/>
<text text-anchor="middle" x="924" y="-387.695" font-family="FreeSans" font-size="10.00"> &lt; Integer &gt;</text>
</g>
<!-- Node14 -->
<g id="node14" class="node"><title>Node14</title>
<polygon fill="white" stroke="#bfbfbf" points="979.5,-334.195 979.5,-353.195 1100.5,-353.195 1100.5,-334.195 979.5,-334.195"/>
<text text-anchor="middle" x="1040" y="-341.195" font-family="FreeSans" font-size="10.00">std::vector&lt; Vector &gt;</text>
</g>
<!-- Node3&#45;&gt;Node14 -->
<g id="edge21" class="edge"><title>Node3&#45;&gt;Node14</title>
<path fill="none" stroke="orange" stroke-dasharray="5,2" d="M865.798,-374.117C875.21,-372.261 884.873,-370.394 894,-368.695 922.881,-363.318 955.074,-357.727 981.777,-353.199"/>
<polygon fill="orange" stroke="orange" points="864.847,-370.737 855.721,-376.118 866.211,-377.603 864.847,-370.737"/>
<text text-anchor="middle" x="924" y="-371.695" font-family="FreeSans" font-size="10.00"> &lt; Vector &gt;</text>
</g>
<!-- Node15 -->
<g id="node15" class="node"><title>Node15</title>
<polygon fill="white" stroke="#bfbfbf" points="985,-410.195 985,-429.195 1095,-429.195 1095,-410.195 985,-410.195"/>
<text text-anchor="middle" x="1040" y="-417.195" font-family="FreeSans" font-size="10.00">std::vector&lt; bool &gt;</text>
</g>
<!-- Node3&#45;&gt;Node15 -->
<g id="edge23" class="edge"><title>Node3&#45;&gt;Node15</title>
<path fill="none" stroke="orange" stroke-dasharray="5,2" d="M865.507,-394.048C901.897,-399.427 948.936,-406.381 984.853,-411.69"/>
<polygon fill="orange" stroke="orange" points="865.948,-390.575 855.544,-392.575 864.925,-397.5 865.948,-390.575"/>
<text text-anchor="middle" x="924" y="-409.695" font-family="FreeSans" font-size="10.00"> &lt; bool &gt;</text>
</g>
<!-- Node4 -->
<g id="node4" class="node"><title>Node4</title>
<polygon fill="white" stroke="#bfbfbf" points="543.5,-376.195 543.5,-395.195 572.5,-395.195 572.5,-376.195 543.5,-376.195"/>
<text text-anchor="middle" x="558" y="-383.195" font-family="FreeSans" font-size="10.00">T</text>
</g>
<!-- Node4&#45;&gt;Node3 -->
<g id="edge3" class="edge"><title>Node4&#45;&gt;Node3</title>
<path fill="none" stroke="#9a32cd" stroke-dasharray="5,2" d="M582.741,-385.695C623.459,-385.695 707.32,-385.695 760.16,-385.695"/>
<polygon fill="#9a32cd" stroke="#9a32cd" points="582.687,-382.195 572.687,-385.695 582.687,-389.195 582.687,-382.195"/>
<text text-anchor="middle" x="683" y="-388.695" font-family="FreeSans" font-size="10.00"> elements</text>
</g>
<!-- Node5 -->
<g id="node5" class="node"><title>Node5</title>
<g id="a_node5"><a xlink:href="classDGtal_1_1HyperRectDomain.html" target="_top" xlink:title="DGtal::HyperRectDomain\l\&lt; Space \&gt;">
<polygon fill="white" stroke="black" points="972,-217.695 972,-247.695 1108,-247.695 1108,-217.695 972,-217.695"/>
<text text-anchor="start" x="980" y="-235.695" font-family="FreeSans" font-size="10.00">DGtal::HyperRectDomain</text>
<text text-anchor="middle" x="1040" y="-224.695" font-family="FreeSans" font-size="10.00">&lt; Space &gt;</text>
</a>
</g>
</g>
<!-- Node5&#45;&gt;Node1 -->
<g id="edge4" class="edge"><title>Node5&#45;&gt;Node1</title>
<path fill="none" stroke="#9a32cd" stroke-dasharray="5,2" d="M1072.52,-253.495C1112.36,-279.782 1179.96,-324.395 1215.16,-347.624"/>
<polygon fill="#9a32cd" stroke="#9a32cd" points="1074.26,-250.448 1063.98,-247.862 1070.4,-256.291 1074.26,-250.448"/>
<text text-anchor="middle" x="1132" y="-297.695" font-family="FreeSans" font-size="10.00"> D</text>
</g>
<!-- Node6 -->
<g id="node6" class="node"><title>Node6</title>
<g id="a_node6"><a xlink:href="classDGtal_1_1HyperRectDomain__Iterator.html" target="_top" xlink:title="Iterator for HyperRectDomain. ">
<polygon fill="white" stroke="black" points="490,-88.6947 490,-118.695 626,-118.695 626,-88.6947 490,-88.6947"/>
<text text-anchor="start" x="498" y="-106.695" font-family="FreeSans" font-size="10.00">DGtal::HyperRectDomain</text>
<text text-anchor="middle" x="558" y="-95.6947" font-family="FreeSans" font-size="10.00">_Iterator&lt; TPoint &gt;</text>
</a>
</g>
</g>
<!-- Node6&#45;&gt;Node5 -->
<g id="edge5" class="edge"><title>Node6&#45;&gt;Node5</title>
<path fill="none" stroke="#9a32cd" stroke-dasharray="5,2" d="M636.336,-100.263C701.811,-99.6947 797.297,-104.433 876,-130.695 934.266,-150.137 992.981,-194.324 1021.4,-217.642"/>
<polygon fill="#9a32cd" stroke="#9a32cd" points="636.046,-96.7662 626.093,-100.397 636.138,-103.766 636.046,-96.7662"/>
<text text-anchor="middle" x="808" y="-144.695" font-family="FreeSans" font-size="10.00"> myIteratorEnd</text>
<text text-anchor="middle" x="808" y="-133.695" font-family="FreeSans" font-size="10.00">myIteratorBegin</text>
</g>
<!-- Node13 -->
<g id="node13" class="node"><title>Node13</title>
<g id="a_node13"><a xlink:href="classDGtal_1_1HyperRectDomain.html" target="_top" xlink:title="Aim: Parallelepidec region of a digital space, model of a &#39;CDomain&#39;. ">
<polygon fill="white" stroke="black" points="740,-162.695 740,-192.695 876,-192.695 876,-162.695 740,-162.695"/>
<text text-anchor="start" x="748" y="-180.695" font-family="FreeSans" font-size="10.00">DGtal::HyperRectDomain</text>
<text text-anchor="middle" x="808" y="-169.695" font-family="FreeSans" font-size="10.00">&lt; TSpace &gt;</text>
</a>
</g>
</g>
<!-- Node6&#45;&gt;Node13 -->
<g id="edge16" class="edge"><title>Node6&#45;&gt;Node13</title>
<path fill="none" stroke="#9a32cd" stroke-dasharray="5,2" d="M636.114,-115.939C663.595,-121.304 694.531,-128.508 722,-137.695 741.798,-144.316 763.048,-154.316 779.349,-162.661"/>
<polygon fill="#9a32cd" stroke="#9a32cd" points="636.636,-112.475 626.158,-114.045 635.328,-119.352 636.636,-112.475"/>
<text text-anchor="middle" x="683" y="-151.695" font-family="FreeSans" font-size="10.00"> myIteratorEnd</text>
<text text-anchor="middle" x="683" y="-140.695" font-family="FreeSans" font-size="10.00">myIteratorBegin</text>
</g>
<!-- Node7 -->
<g id="node7" class="node"><title>Node7</title>
<polygon fill="white" stroke="#bfbfbf" points="182,-55.6947 182,-151.695 376,-151.695 376,-55.6947 182,-55.6947"/>
<text text-anchor="start" x="190" y="-139.695" font-family="FreeSans" font-size="10.00">boost::iterator_facade</text>
<text text-anchor="start" x="190" y="-128.695" font-family="FreeSans" font-size="10.00">&lt; HyperRectDomain_Iterator</text>
<text text-anchor="start" x="190" y="-117.695" font-family="FreeSans" font-size="10.00">&lt; TPoint &gt;, TPoint const,</text>
<text text-anchor="start" x="190" y="-106.695" font-family="FreeSans" font-size="10.00"> std::random_access_iterator</text>
<text text-anchor="start" x="190" y="-95.6947" font-family="FreeSans" font-size="10.00">_tag, TPoint const &amp;, std::conditional</text>
<text text-anchor="start" x="190" y="-84.6947" font-family="FreeSans" font-size="10.00">&lt; std::is_same&lt; TPoint::Component,</text>
<text text-anchor="start" x="190" y="-73.6947" font-family="FreeSans" font-size="10.00"> BigInteger &gt;::value, BigInteger, std</text>
<text text-anchor="middle" x="279" y="-62.6947" font-family="FreeSans" font-size="10.00">::ptrdiff_t &gt;::type &gt;</text>
</g>
<!-- Node7&#45;&gt;Node6 -->
<g id="edge6" class="edge"><title>Node7&#45;&gt;Node6</title>
<path fill="none" stroke="midnightblue" d="M386.314,-103.695C421.105,-103.695 458.764,-103.695 489.836,-103.695"/>
<polygon fill="midnightblue" stroke="midnightblue" points="386.104,-100.195 376.104,-103.695 386.104,-107.195 386.104,-100.195"/>
</g>
<!-- Node8 -->
<g id="node8" class="node"><title>Node8</title>
<polygon fill="white" stroke="#bfbfbf" points="11,-48.1947 11,-67.1947 57,-67.1947 57,-48.1947 11,-48.1947"/>
<text text-anchor="middle" x="34" y="-55.1947" font-family="FreeSans" font-size="10.00">TPoint</text>
</g>
<!-- Node8&#45;&gt;Node6 -->
<g id="edge7" class="edge"><title>Node8&#45;&gt;Node6</title>
<path fill="none" stroke="#9a32cd" stroke-dasharray="5,2" d="M67.1342,-44.8226C96.4933,-33.7988 141.387,-18.7718 182,-12.6947 267.273,0.0650069 292.106,7.20769 376,-12.6947 437.941,-27.3893 502.774,-66.7951 535.446,-88.6232"/>
<polygon fill="#9a32cd" stroke="#9a32cd" points="65.52,-41.6926 57.4298,-48.5336 68.0204,-48.2308 65.52,-41.6926"/>
<text text-anchor="middle" x="279" y="-37.6947" font-family="FreeSans" font-size="10.00"> mylower</text>
<text text-anchor="middle" x="279" y="-26.6947" font-family="FreeSans" font-size="10.00">myupper</text>
<text text-anchor="middle" x="279" y="-15.6947" font-family="FreeSans" font-size="10.00">myPoint</text>
</g>
<!-- Node12 -->
<g id="node12" class="node"><title>Node12</title>
<g id="a_node12"><a xlink:href="structDGtal_1_1functors_1_1IsWithinPointPredicate.html" target="_top" xlink:title="Aim: The predicate returns true when the point is within the given bounds. ">
<polygon fill="white" stroke="black" points="210.5,-170.695 210.5,-200.695 347.5,-200.695 347.5,-170.695 210.5,-170.695"/>
<text text-anchor="start" x="218.5" y="-188.695" font-family="FreeSans" font-size="10.00">DGtal::functors::IsWithin</text>
<text text-anchor="middle" x="279" y="-177.695" font-family="FreeSans" font-size="10.00">PointPredicate&lt; TPoint &gt;</text>
</a>
</g>
</g>
<!-- Node8&#45;&gt;Node12 -->
<g id="edge13" class="edge"><title>Node8&#45;&gt;Node12</title>
<path fill="none" stroke="#9a32cd" stroke-dasharray="5,2" d="M53.7085,-74.1632C80.387,-96.8254 131.717,-137.453 182,-160.695 190.911,-164.814 200.613,-168.338 210.312,-171.328"/>
<polygon fill="#9a32cd" stroke="#9a32cd" points="55.8079,-71.3523 45.9455,-67.4814 51.2414,-76.6577 55.8079,-71.3523"/>
<text text-anchor="middle" x="125" y="-163.695" font-family="FreeSans" font-size="10.00"> myLowerBound</text>
<text text-anchor="middle" x="125" y="-152.695" font-family="FreeSans" font-size="10.00">myUpperBound</text>
</g>
<!-- Node9 -->
<g id="node9" class="node"><title>Node9</title>
<g id="a_node9"><a xlink:href="structDGtal_1_1functors_1_1IsWithinPointPredicate.html" target="_top" xlink:title="DGtal::functors::IsWithin\lPointPredicate\&lt; Point \&gt;">
<polygon fill="white" stroke="black" points="492,-214.695 492,-244.695 624,-244.695 624,-214.695 492,-214.695"/>
<text text-anchor="start" x="500" y="-232.695" font-family="FreeSans" font-size="10.00">DGtal::functors::IsWithin</text>
<text text-anchor="middle" x="558" y="-221.695" font-family="FreeSans" font-size="10.00">PointPredicate&lt; Point &gt;</text>
</a>
</g>
</g>
<!-- Node9&#45;&gt;Node5 -->
<g id="edge8" class="edge"><title>Node9&#45;&gt;Node5</title>
<path fill="none" stroke="#9a32cd" stroke-dasharray="5,2" d="M634.393,-230.166C727.156,-230.746 883.228,-231.721 971.976,-232.276"/>
<polygon fill="#9a32cd" stroke="#9a32cd" points="634.256,-226.665 624.234,-230.102 634.212,-233.665 634.256,-226.665"/>
<text text-anchor="middle" x="808" y="-234.695" font-family="FreeSans" font-size="10.00"> myPredicate</text>
</g>
<!-- Node9&#45;&gt;Node13 -->
<g id="edge17" class="edge"><title>Node9&#45;&gt;Node13</title>
<path fill="none" stroke="#9a32cd" stroke-dasharray="5,2" d="M624.782,-212.175C631.261,-210.598 637.749,-209.077 644,-207.695 675.326,-200.767 710.285,-194.183 739.771,-188.958"/>
<polygon fill="#9a32cd" stroke="#9a32cd" points="623.509,-208.884 614.644,-214.687 625.193,-215.679 623.509,-208.884"/>
<text text-anchor="middle" x="683" y="-210.695" font-family="FreeSans" font-size="10.00"> myPredicate</text>
</g>
<!-- Node10 -->
<g id="node10" class="node"><title>Node10</title>
<g id="a_node10"><a xlink:href="classDGtal_1_1PointVector.html" target="_top" xlink:title="Aim: Implements basic operations that will be used in Point and Vector classes. ">
<polygon fill="white" stroke="black" points="216,-236.195 216,-277.195 342,-277.195 342,-236.195 216,-236.195"/>
<text text-anchor="start" x="224" y="-265.195" font-family="FreeSans" font-size="10.00">DGtal::PointVector</text>
<text text-anchor="start" x="224" y="-254.195" font-family="FreeSans" font-size="10.00">&lt; dim, TEuclideanRing,</text>
<text text-anchor="middle" x="279" y="-243.195" font-family="FreeSans" font-size="10.00"> TContainer &gt;</text>
</a>
</g>
</g>
<!-- Node10&#45;&gt;Node5 -->
<g id="edge14" class="edge"><title>Node10&#45;&gt;Node5</title>
<path fill="none" stroke="#9a32cd" stroke-dasharray="5,2" d="M352.12,-258.88C366.016,-259.219 380.459,-259.517 394,-259.695 428.664,-260.151 437.336,-260.162 472,-259.695 686.281,-256.806 740.668,-267.044 954,-246.695 959.806,-246.141 965.816,-245.431 971.833,-244.625"/>
<polygon fill="#9a32cd" stroke="#9a32cd" points="352.204,-255.381 342.118,-258.626 352.026,-262.379 352.204,-255.381"/>
<text text-anchor="middle" x="683" y="-274.695" font-family="FreeSans" font-size="10.00"> myLowerBound</text>
<text text-anchor="middle" x="683" y="-263.695" font-family="FreeSans" font-size="10.00">myUpperBound</text>
</g>
<!-- Node10&#45;&gt;Node9 -->
<g id="edge9" class="edge"><title>Node10&#45;&gt;Node9</title>
<path fill="none" stroke="#9a32cd" stroke-dasharray="5,2" d="M352.197,-243.363C366.033,-241.177 380.435,-239.153 394,-237.695 426.114,-234.242 461.95,-232.278 491.825,-231.162"/>
<polygon fill="#9a32cd" stroke="#9a32cd" points="351.552,-239.922 342.241,-244.978 352.673,-246.832 351.552,-239.922"/>
<text text-anchor="middle" x="433" y="-251.695" font-family="FreeSans" font-size="10.00"> myLowerBound</text>
<text text-anchor="middle" x="433" y="-240.695" font-family="FreeSans" font-size="10.00">myUpperBound</text>
</g>
<!-- Node10&#45;&gt;Node10 -->
<g id="edge11" class="edge"><title>Node10&#45;&gt;Node10</title>
<path fill="none" stroke="#9a32cd" stroke-dasharray="5,2" d="M252.98,-287.296C257.13,-291.718 265.803,-294.695 279,-294.695 300.656,-294.695 310.131,-286.679 307.424,-277.411"/>
<polygon fill="#9a32cd" stroke="#9a32cd" points="256.34,-286.301 250.576,-277.411 249.539,-287.955 256.34,-286.301"/>
<text text-anchor="middle" x="279" y="-297.695" font-family="FreeSans" font-size="10.00"> zero</text>
</g>
<!-- Node10&#45;&gt;Node13 -->
<g id="edge18" class="edge"><title>Node10&#45;&gt;Node13</title>
<path fill="none" stroke="#9a32cd" stroke-dasharray="5,2" d="M334.127,-232.16C375.778,-214.636 435.285,-192.498 490,-182.695 575.196,-167.431 675.336,-169.032 739.915,-172.539"/>
<polygon fill="#9a32cd" stroke="#9a32cd" points="332.558,-229.023 324.73,-236.162 335.302,-235.464 332.558,-229.023"/>
<text text-anchor="middle" x="558" y="-196.695" font-family="FreeSans" font-size="10.00"> myLowerBound</text>
<text text-anchor="middle" x="558" y="-185.695" font-family="FreeSans" font-size="10.00">myUpperBound</text>
</g>
<!-- Node10&#45;&gt;Node14 -->
<g id="edge20" class="edge"><title>Node10&#45;&gt;Node14</title>
<path fill="none" stroke="#9a32cd" stroke-dasharray="5,2" d="M352.046,-268.63C365.949,-270.774 380.414,-272.897 394,-274.695 608.916,-303.139 865.323,-327.821 979.302,-338.315"/>
<polygon fill="#9a32cd" stroke="#9a32cd" points="352.462,-265.152 342.042,-267.068 351.383,-272.068 352.462,-265.152"/>
<text text-anchor="middle" x="683" y="-315.695" font-family="FreeSans" font-size="10.00"> elements</text>
</g>
<!-- Node11 -->
<g id="node11" class="node"><title>Node11</title>
<polygon fill="white" stroke="#bfbfbf" points="0,-247.195 0,-266.195 68,-266.195 68,-247.195 0,-247.195"/>
<text text-anchor="middle" x="34" y="-254.195" font-family="FreeSans" font-size="10.00">TContainer</text>
</g>
<!-- Node11&#45;&gt;Node10 -->
<g id="edge10" class="edge"><title>Node11&#45;&gt;Node10</title>
<path fill="none" stroke="#9a32cd" stroke-dasharray="5,2" d="M78.2866,-256.695C116.443,-256.695 172.498,-256.695 215.516,-256.695"/>
<polygon fill="#9a32cd" stroke="#9a32cd" points="78.025,-253.195 68.025,-256.695 78.0249,-260.195 78.025,-253.195"/>
<text text-anchor="middle" x="125" y="-259.695" font-family="FreeSans" font-size="10.00"> myArray</text>
</g>
<!-- Node12&#45;&gt;Node9 -->
<g id="edge12" class="edge"><title>Node12&#45;&gt;Node9</title>
<path fill="none" stroke="orange" stroke-dasharray="5,2" d="M357.736,-198.043C400.01,-204.758 451.704,-212.969 491.845,-219.345"/>
<polygon fill="orange" stroke="orange" points="358.187,-194.571 347.762,-196.458 357.089,-201.484 358.187,-194.571"/>
<text text-anchor="middle" x="433" y="-218.695" font-family="FreeSans" font-size="10.00"> &lt; Point &gt;</text>
</g>
<!-- Node13&#45;&gt;Node5 -->
<g id="edge15" class="edge"><title>Node13&#45;&gt;Node5</title>
<path fill="none" stroke="orange" stroke-dasharray="5,2" d="M886.009,-192.404C908.051,-196.945 932.049,-202.206 954,-207.695 965.789,-210.643 978.396,-214.152 990.194,-217.595"/>
<polygon fill="orange" stroke="orange" points="886.531,-188.938 876.034,-190.37 885.133,-195.797 886.531,-188.938"/>
<text text-anchor="middle" x="924" y="-210.695" font-family="FreeSans" font-size="10.00"> &lt; Space &gt;</text>
</g>
<!-- Node14&#45;&gt;Node1 -->
<g id="edge19" class="edge"><title>Node14&#45;&gt;Node1</title>
<path fill="none" stroke="#9a32cd" stroke-dasharray="5,2" d="M1110.99,-350.445C1125.45,-351.84 1140.81,-353.321 1155.66,-354.754"/>
<polygon fill="#9a32cd" stroke="#9a32cd" points="1110.93,-346.923 1100.64,-349.447 1110.26,-353.891 1110.93,-346.923"/>
<text text-anchor="middle" x="1132" y="-355.695" font-family="FreeSans" font-size="10.00"> A</text>
</g>
<!-- Node15&#45;&gt;Node1 -->
<g id="edge22" class="edge"><title>Node15&#45;&gt;Node1</title>
<path fill="none" stroke="#9a32cd" stroke-dasharray="5,2" d="M1084.48,-407.419C1092.31,-405.192 1100.4,-402.882 1108,-400.695 1133.99,-393.213 1162.86,-384.784 1186.78,-377.77"/>
<polygon fill="#9a32cd" stroke="#9a32cd" points="1083.42,-404.082 1074.76,-410.179 1085.33,-410.816 1083.42,-404.082"/>
<text text-anchor="middle" x="1132" y="-396.695" font-family="FreeSans" font-size="10.00"> I</text>
</g>
</g>
</svg>
        <g id="navigator" transform="translate(0 0)" fill="#404254">
                <rect fill="#f2f5e9" fill-opacity="0.5" stroke="#606060" stroke-width=".5" x="0" y="0" width="60" height="60"/>
                <use id="zoomplus" xlink:href="#zoomPlus" x="17" y="9" onmousedown="handleZoom(evt,'in')"/>
                <use id="zoomminus" xlink:href="#zoomMin" x="42" y="9" onmousedown="handleZoom(evt,'out')"/>
                <use id="reset" xlink:href="#resetDef" x="30" y="36" onmousedown="handleReset()"/>
                <g id="arrowUp" xlink:href="#dirArrow" transform="translate(30 24)" onmousedown="handlePan(0,-1)">
                  <use xlink:href="#rim" fill="#404040">
                        <set attributeName="fill" to="#808080" begin="arrowUp.mouseover" end="arrowUp.mouseout"/>
                  </use>
                  <path fill="none" stroke="white" stroke-width="1.5" d="M0,-3.0v7 M-2.5,-0.5L0,-3.0L2.5,-0.5"/>
                </g>
                <g id="arrowRight" xlink:href="#dirArrow" transform="rotate(90) translate(36 -43)" onmousedown="handlePan(1,0)">
                  <use xlink:href="#rim" fill="#404040">
                        <set attributeName="fill" to="#808080" begin="arrowRight.mouseover" end="arrowRight.mouseout"/>
                  </use>
                  <path fill="none" stroke="white" stroke-width="1.5" d="M0,-3.0v7 M-2.5,-0.5L0,-3.0L2.5,-0.5"/>
                </g>
                <g id="arrowDown" xlink:href="#dirArrow" transform="rotate(180) translate(-30 -48)" onmousedown="handlePan(0,1)">
                  <use xlink:href="#rim" fill="#404040">
                        <set attributeName="fill" to="#808080" begin="arrowDown.mouseover" end="arrowDown.mouseout"/>
                  </use>
                  <path fill="none" stroke="white" stroke-width="1.5" d="M0,-3.0v7 M-2.5,-0.5L0,-3.0L2.5,-0.5"/>
                </g>
                <g id="arrowLeft" xlink:href="#dirArrow" transform="rotate(270) translate(-36 17)" onmousedown="handlePan(-1,0)">
                  <use xlink:href="#rim" fill="#404040">
                        <set attributeName="fill" to="#808080" begin="arrowLeft.mouseover" end="arrowLeft.mouseout"/>
                  </use>
                  <path fill="none" stroke="white" stroke-width="1.5" d="M0,-3.0v7 M-2.5,-0.5L0,-3.0L2.5,-0.5"/>
                </g>
        </g>
        <svg viewBox="0 0 15 15" width="100%" height="30px" preserveAspectRatio="xMaxYMin meet">
         <g id="arrow_out" transform="scale(0.3 0.3)">
          <a xlink:href="classDGtal_1_1BoundedLatticePolytope__coll__graph_org.svg" target="_base">
           <rect id="button" ry="5" rx="5" y="6" x="6" height="38" width="38"
                fill="#f2f5e9" fill-opacity="0.5" stroke="#606060" stroke-width="1.0"/>
           <path id="arrow"
             d="M 11.500037,31.436501 C 11.940474,20.09759 22.043105,11.32322 32.158766,21.979434 L 37.068811,17.246167 C 37.068811,17.246167 37.088388,32 37.088388,32 L 22.160133,31.978069 C 22.160133,31.978069 26.997745,27.140456 26.997745,27.140456 C 18.528582,18.264221 13.291696,25.230495 11.500037,31.436501 z"
             style="fill:#404040;"/>
          </a>
         </g>
        </svg>
</svg>
