<?xml version="1.0" encoding="UTF-8" standalone="no"?>
<!DOCTYPE svg PUBLIC "-//W3C//DTD SVG 1.1//EN"
 "http://www.w3.org/Graphics/SVG/1.1/DTD/svg11.dtd">
<!-- Generated by graphviz version 2.38.0 (20140413.2041)
 -->
<!-- Title: DGtal::SetOfSurfels&lt; TKSpace, TSurfelSet &gt;::Tracker Pages: 1 -->
<!--zoomable 239 -->
<svg id="main" version="1.1" xmlns="http://www.w3.org/2000/svg" xmlns:xlink="http://www.w3.org/1999/xlink" xml:space="preserve" onload="init(evt)">
<style type="text/css"><![CDATA[
.edge:hover path { stroke: red; }
.edge:hover polygon { stroke: red; fill: red; }
]]></style>
<script type="text/javascript"><![CDATA[
var edges = document.getElementsByTagName('g');
if (edges && edges.length) {
  for (var i=0;i<edges.length;i++) {
    if (edges[i].id.substr(0,4)=='edge') {
      edges[i].setAttribute('class','edge');
    }
  }
}
]]></script>
        <defs>
                <circle id="rim" cx="0" cy="0" r="7"/>
                <circle id="rim2" cx="0" cy="0" r="3.5"/>
                <g id="zoomPlus">
                        <use xlink:href="#rim" fill="#404040">
                                <set attributeName="fill" to="#808080" begin="zoomplus.mouseover" end="zoomplus.mouseout"/>
                        </use>
                        <path d="M-4,0h8M0,-4v8" fill="none" stroke="white" stroke-width="1.5" pointer-events="none"/>
                </g>
                <g id="zoomMin">
                        <use xlink:href="#rim" fill="#404040">
                                <set attributeName="fill" to="#808080" begin="zoomminus.mouseover" end="zoomminus.mouseout"/>
                        </use>
                        <path d="M-4,0h8" fill="none" stroke="white" stroke-width="1.5" pointer-events="none"/>
                </g>
                <g id="dirArrow">
                        <path fill="none" stroke="white" stroke-width="1.5" d="M0,-3.0v7 M-2.5,-0.5L0,-3.0L2.5,-0.5"/>
                </g>
               <g id="resetDef">
                       <use xlink:href="#rim2" fill="#404040">
                               <set attributeName="fill" to="#808080" begin="reset.mouseover" end="reset.mouseout"/>
                       </use>
               </g>
        </defs>

<script type="text/javascript">
var viewWidth = 2096;
var viewHeight = 239;
var sectionId = 'dynsection-0';
</script>
<script xlink:href="svgpan.js"/>
<svg id="graph" class="graph">
<g id="viewport">
<title>DGtal::SetOfSurfels&lt; TKSpace, TSurfelSet &gt;::Tracker</title>
<polygon fill="white" stroke="none" points="-4,4 -4,-235 2092,-235 2092,4 -4,4"/>
<!-- Node1 -->
<g id="node1" class="node"><title>Node1</title>
<polygon fill="#bfbfbf" stroke="black" points="1963,-124.5 1963,-165.5 2088,-165.5 2088,-124.5 1963,-124.5"/>
<text text-anchor="start" x="1971" y="-153.5" font-family="FreeSans" font-size="10.00">DGtal::SetOfSurfels</text>
<text text-anchor="start" x="1971" y="-142.5" font-family="FreeSans" font-size="10.00">&lt; TKSpace, TSurfelSet</text>
<text text-anchor="middle" x="2025.5" y="-131.5" font-family="FreeSans" font-size="10.00"> &gt;::Tracker</text>
</g>
<!-- Node2 -->
<g id="node2" class="node"><title>Node2</title>
<g id="a_node2"><a xlink:href="classDGtal_1_1SetOfSurfels.html" target="_top" xlink:title="Aim: A model of CDigitalSurfaceContainer which defines the digital surface as connected surfels...">
<polygon fill="white" stroke="black" points="1457.5,-173 1457.5,-203 1593.5,-203 1593.5,-173 1457.5,-173"/>
<text text-anchor="start" x="1465.5" y="-191" font-family="FreeSans" font-size="10.00">DGtal::SetOfSurfels</text>
<text text-anchor="middle" x="1525.5" y="-180" font-family="FreeSans" font-size="10.00">&lt; TKSpace, TSurfelSet &gt;</text>
</a>
</g>
</g>
<!-- Node2&#45;&gt;Node1 -->
<g id="edge1" class="edge"><title>Node2&#45;&gt;Node1</title>
<path fill="none" stroke="#9a32cd" stroke-dasharray="5,2" d="M1603.89,-181.318C1702.77,-172.78 1871.96,-158.171 1962.7,-150.336"/>
<polygon fill="#9a32cd" stroke="#9a32cd" points="1603.32,-177.853 1593.66,-182.201 1603.93,-184.828 1603.32,-177.853"/>
<text text-anchor="middle" x="1768.5" y="-176" font-family="FreeSans" font-size="10.00"> mySurface</text>
</g>
<!-- Node3 -->
<g id="node3" class="node"><title>Node3</title>
<g id="a_node3"><a xlink:href="structDGtal_1_1functors_1_1SurfelSetPredicate.html" target="_top" xlink:title="DGtal::functors::SurfelSet\lPredicate\&lt; SurfelSet, Surfel \&gt;">
<polygon fill="white" stroke="black" points="1160,-195 1160,-225 1322,-225 1322,-195 1160,-195"/>
<text text-anchor="start" x="1168" y="-213" font-family="FreeSans" font-size="10.00">DGtal::functors::SurfelSet</text>
<text text-anchor="middle" x="1241" y="-202" font-family="FreeSans" font-size="10.00">Predicate&lt; SurfelSet, Surfel &gt;</text>
</a>
</g>
</g>
<!-- Node3&#45;&gt;Node2 -->
<g id="edge2" class="edge"><title>Node3&#45;&gt;Node2</title>
<path fill="none" stroke="#9a32cd" stroke-dasharray="5,2" d="M1332.37,-202.962C1372.99,-199.799 1420.08,-196.132 1457.47,-193.22"/>
<polygon fill="#9a32cd" stroke="#9a32cd" points="1331.9,-199.489 1322.2,-203.755 1332.44,-206.467 1331.9,-199.489"/>
<text text-anchor="middle" x="1387.5" y="-206" font-family="FreeSans" font-size="10.00"> mySurfelPredicate</text>
</g>
<!-- Node4 -->
<g id="node4" class="node"><title>Node4</title>
<g id="a_node4"><a xlink:href="structDGtal_1_1functors_1_1SurfelSetPredicate.html" target="_top" xlink:title="Aim: The predicate returning true iff the point is in the domain given at construction. ">
<polygon fill="white" stroke="black" points="863.5,-189.5 863.5,-230.5 1002.5,-230.5 1002.5,-189.5 863.5,-189.5"/>
<text text-anchor="start" x="871.5" y="-218.5" font-family="FreeSans" font-size="10.00">DGtal::functors::SurfelSet</text>
<text text-anchor="start" x="871.5" y="-207.5" font-family="FreeSans" font-size="10.00">Predicate&lt; TSurfelSet,</text>
<text text-anchor="middle" x="933" y="-196.5" font-family="FreeSans" font-size="10.00"> TSurfel &gt;</text>
</a>
</g>
</g>
<!-- Node4&#45;&gt;Node3 -->
<g id="edge3" class="edge"><title>Node4&#45;&gt;Node3</title>
<path fill="none" stroke="orange" stroke-dasharray="5,2" d="M1012.72,-210C1057.9,-210 1114.5,-210 1159.92,-210"/>
<polygon fill="orange" stroke="orange" points="1012.67,-206.5 1002.67,-210 1012.67,-213.5 1012.67,-206.5"/>
<text text-anchor="middle" x="1083" y="-213" font-family="FreeSans" font-size="10.00"> &lt; SurfelSet, Surfel &gt;</text>
</g>
<!-- Node5 -->
<g id="node5" class="node"><title>Node5</title>
<g id="a_node5"><a xlink:href="classDGtal_1_1SurfelAdjacency.html" target="_top" xlink:title="DGtal::SurfelAdjacency\l\&lt; KSpace::dimension \&gt;">
<polygon fill="white" stroke="black" points="1175.5,-128 1175.5,-158 1306.5,-158 1306.5,-128 1175.5,-128"/>
<text text-anchor="start" x="1183.5" y="-146" font-family="FreeSans" font-size="10.00">DGtal::SurfelAdjacency</text>
<text text-anchor="middle" x="1241" y="-135" font-family="FreeSans" font-size="10.00">&lt; KSpace::dimension &gt;</text>
</a>
</g>
</g>
<!-- Node5&#45;&gt;Node2 -->
<g id="edge4" class="edge"><title>Node5&#45;&gt;Node2</title>
<path fill="none" stroke="#9a32cd" stroke-dasharray="5,2" d="M1316.78,-154.912C1360.33,-161.849 1414.81,-170.527 1457.04,-177.254"/>
<polygon fill="#9a32cd" stroke="#9a32cd" points="1317.24,-151.441 1306.81,-153.324 1316.14,-158.354 1317.24,-151.441"/>
<text text-anchor="middle" x="1387.5" y="-177" font-family="FreeSans" font-size="10.00"> mySurfelAdjacency</text>
</g>
<!-- Node7 -->
<g id="node7" class="node"><title>Node7</title>
<g id="a_node7"><a xlink:href="classDGtal_1_1SurfelNeighborhood.html" target="_top" xlink:title="DGtal::SurfelNeighborhood\l\&lt; KSpace \&gt;">
<polygon fill="white" stroke="black" points="1696,-89 1696,-119 1841,-119 1841,-89 1696,-89"/>
<text text-anchor="start" x="1704" y="-107" font-family="FreeSans" font-size="10.00">DGtal::SurfelNeighborhood</text>
<text text-anchor="middle" x="1768.5" y="-96" font-family="FreeSans" font-size="10.00">&lt; KSpace &gt;</text>
</a>
</g>
</g>
<!-- Node5&#45;&gt;Node7 -->
<g id="edge17" class="edge"><title>Node5&#45;&gt;Node7</title>
<path fill="none" stroke="#9a32cd" stroke-dasharray="5,2" d="M1316.76,-139.523C1403.68,-135.174 1551.42,-126.833 1678,-115 1683.77,-114.461 1689.74,-113.848 1695.73,-113.193"/>
<polygon fill="#9a32cd" stroke="#9a32cd" points="1316.54,-136.03 1306.73,-140.021 1316.89,-143.021 1316.54,-136.03"/>
<text text-anchor="middle" x="1525.5" y="-135" font-family="FreeSans" font-size="10.00"> mySurfelAdj</text>
</g>
<!-- Node14 -->
<g id="node14" class="node"><title>Node14</title>
<g id="a_node14"><a xlink:href="classDGtal_1_1SurfelNeighborhood.html" target="_top" xlink:title="Aim: This helper class is useful to compute the neighboring surfels of a given surfel, especially over a digital surface or over an object boundary. Two signed surfels are incident if they share a common n&#45;2 cell. This class uses a SurfelAdjacency so as to determine adjacent surfels (either looking for them from interior to exterior or inversely). ">
<polygon fill="white" stroke="black" points="1453,-76 1453,-106 1598,-106 1598,-76 1453,-76"/>
<text text-anchor="start" x="1461" y="-94" font-family="FreeSans" font-size="10.00">DGtal::SurfelNeighborhood</text>
<text text-anchor="middle" x="1525.5" y="-83" font-family="FreeSans" font-size="10.00">&lt; TKSpace &gt;</text>
</a>
</g>
</g>
<!-- Node5&#45;&gt;Node14 -->
<g id="edge20" class="edge"><title>Node5&#45;&gt;Node14</title>
<path fill="none" stroke="#9a32cd" stroke-dasharray="5,2" d="M1306.74,-125.471C1317.79,-122.769 1329.19,-120.163 1340,-118 1376.98,-110.598 1418.51,-104.342 1452.79,-99.7208"/>
<polygon fill="#9a32cd" stroke="#9a32cd" points="1305.57,-122.155 1296.71,-127.968 1307.26,-128.947 1305.57,-122.155"/>
<text text-anchor="middle" x="1387.5" y="-121" font-family="FreeSans" font-size="10.00"> mySurfelAdj</text>
</g>
<!-- Node6 -->
<g id="node6" class="node"><title>Node6</title>
<g id="a_node6"><a xlink:href="classDGtal_1_1SurfelAdjacency.html" target="_top" xlink:title="Aim: Represent adjacencies between surfel elements, telling if it follows an interior to exterior ord...">
<polygon fill="white" stroke="black" points="870,-128 870,-158 996,-158 996,-128 870,-128"/>
<text text-anchor="start" x="878" y="-146" font-family="FreeSans" font-size="10.00">DGtal::SurfelAdjacency</text>
<text text-anchor="middle" x="933" y="-135" font-family="FreeSans" font-size="10.00">&lt; dim &gt;</text>
</a>
</g>
</g>
<!-- Node6&#45;&gt;Node5 -->
<g id="edge5" class="edge"><title>Node6&#45;&gt;Node5</title>
<path fill="none" stroke="orange" stroke-dasharray="5,2" d="M1006.32,-143C1057.64,-143 1125.93,-143 1175.42,-143"/>
<polygon fill="orange" stroke="orange" points="1006.29,-139.5 996.292,-143 1006.29,-146.5 1006.29,-139.5"/>
<text text-anchor="middle" x="1083" y="-146" font-family="FreeSans" font-size="10.00"> &lt; KSpace::dimension &gt;</text>
</g>
<!-- Node7&#45;&gt;Node1 -->
<g id="edge6" class="edge"><title>Node7&#45;&gt;Node1</title>
<path fill="none" stroke="#9a32cd" stroke-dasharray="5,2" d="M1851.26,-117.145C1887.46,-122.966 1929.33,-129.698 1962.84,-135.086"/>
<polygon fill="#9a32cd" stroke="#9a32cd" points="1851.64,-113.662 1841.21,-115.53 1850.53,-120.573 1851.64,-113.662"/>
<text text-anchor="middle" x="1902" y="-135" font-family="FreeSans" font-size="10.00"> myNeighborhood</text>
</g>
<!-- Node8 -->
<g id="node8" class="node"><title>Node8</title>
<g id="a_node8"><a xlink:href="structDGtal_1_1SignedKhalimskyCell.html" target="_top" xlink:title="Represents a signed cell in a cellular grid space by its Khalimsky coordinates and a boolean value...">
<polygon fill="white" stroke="black" points="1167,-47 1167,-77 1315,-77 1315,-47 1167,-47"/>
<text text-anchor="start" x="1175" y="-65" font-family="FreeSans" font-size="10.00">DGtal::SignedKhalimskyCell</text>
<text text-anchor="middle" x="1241" y="-54" font-family="FreeSans" font-size="10.00">&lt; dim, TInteger &gt;</text>
</a>
</g>
</g>
<!-- Node8&#45;&gt;Node7 -->
<g id="edge7" class="edge"><title>Node8&#45;&gt;Node7</title>
<path fill="none" stroke="#9a32cd" stroke-dasharray="5,2" d="M1325.01,-52.9018C1397.45,-46.7363 1505.2,-41.8555 1598,-55 1643.34,-61.4224 1693.53,-77.0545 1727.44,-88.9494"/>
<polygon fill="#9a32cd" stroke="#9a32cd" points="1324.68,-49.417 1315.03,-53.7786 1325.29,-56.3901 1324.68,-49.417"/>
<text text-anchor="middle" x="1525.5" y="-58" font-family="FreeSans" font-size="10.00"> mySurfel</text>
</g>
<!-- Node8&#45;&gt;Node14 -->
<g id="edge19" class="edge"><title>Node8&#45;&gt;Node14</title>
<path fill="none" stroke="#9a32cd" stroke-dasharray="5,2" d="M1325.23,-70.5438C1365.69,-74.6972 1413.83,-79.6397 1452.67,-83.6259"/>
<polygon fill="#9a32cd" stroke="#9a32cd" points="1325.42,-67.0455 1315.12,-69.5059 1324.71,-74.0089 1325.42,-67.0455"/>
<text text-anchor="middle" x="1387.5" y="-85" font-family="FreeSans" font-size="10.00"> mySurfel</text>
</g>
<!-- Node9 -->
<g id="node9" class="node"><title>Node9</title>
<g id="a_node9"><a xlink:href="structDGtal_1_1SignedKhalimskyPreCell.html" target="_top" xlink:title="DGtal::SignedKhalimskyPre\lCell\&lt; dim, Integer \&gt;">
<polygon fill="white" stroke="black" points="860,-47 860,-77 1006,-77 1006,-47 860,-47"/>
<text text-anchor="start" x="868" y="-65" font-family="FreeSans" font-size="10.00">DGtal::SignedKhalimskyPre</text>
<text text-anchor="middle" x="933" y="-54" font-family="FreeSans" font-size="10.00">Cell&lt; dim, Integer &gt;</text>
</a>
</g>
</g>
<!-- Node9&#45;&gt;Node8 -->
<g id="edge8" class="edge"><title>Node9&#45;&gt;Node8</title>
<path fill="none" stroke="#9a32cd" stroke-dasharray="5,2" d="M1016.26,-62C1063.17,-62 1121.44,-62 1166.76,-62"/>
<polygon fill="#9a32cd" stroke="#9a32cd" points="1016.13,-58.5001 1006.13,-62 1016.13,-65.5001 1016.13,-58.5001"/>
<text text-anchor="middle" x="1083" y="-65" font-family="FreeSans" font-size="10.00"> mySPreCell</text>
</g>
<!-- Node10 -->
<g id="node10" class="node"><title>Node10</title>
<g id="a_node10"><a xlink:href="classDGtal_1_1PointVector.html" target="_top" xlink:title="DGtal::PointVector\l\&lt; dim, Integer \&gt;">
<polygon fill="white" stroke="black" points="394,-40 394,-70 498,-70 498,-40 394,-40"/>
<text text-anchor="start" x="402" y="-58" font-family="FreeSans" font-size="10.00">DGtal::PointVector</text>
<text text-anchor="middle" x="446" y="-47" font-family="FreeSans" font-size="10.00">&lt; dim, Integer &gt;</text>
</a>
</g>
</g>
<!-- Node10&#45;&gt;Node9 -->
<g id="edge9" class="edge"><title>Node10&#45;&gt;Node9</title>
<path fill="none" stroke="#9a32cd" stroke-dasharray="5,2" d="M508.312,-59.6587C510.908,-59.7878 513.48,-59.9027 516,-60 636.523,-64.6512 776.831,-64.0851 859.822,-63.1294"/>
<polygon fill="#9a32cd" stroke="#9a32cd" points="508.402,-56.1584 498.223,-59.0983 508.014,-63.1476 508.402,-56.1584"/>
<text text-anchor="middle" x="667" y="-67" font-family="FreeSans" font-size="10.00"> coordinates</text>
</g>
<!-- Node13 -->
<g id="node13" class="node"><title>Node13</title>
<g id="a_node13"><a xlink:href="structDGtal_1_1SignedKhalimskyPreCell.html" target="_top" xlink:title="Represents a signed cell in an unbounded cellular grid space by its Khalimsky coordinates and a boole...">
<polygon fill="white" stroke="black" points="594,-8 594,-38 740,-38 740,-8 594,-8"/>
<text text-anchor="start" x="602" y="-26" font-family="FreeSans" font-size="10.00">DGtal::SignedKhalimskyPre</text>
<text text-anchor="middle" x="667" y="-15" font-family="FreeSans" font-size="10.00">Cell&lt; dim, TInteger &gt;</text>
</a>
</g>
</g>
<!-- Node10&#45;&gt;Node13 -->
<g id="edge16" class="edge"><title>Node10&#45;&gt;Node13</title>
<path fill="none" stroke="#9a32cd" stroke-dasharray="5,2" d="M508.003,-46.0864C534.576,-42.2034 565.926,-37.6227 593.665,-33.5695"/>
<polygon fill="#9a32cd" stroke="#9a32cd" points="507.458,-42.6287 498.069,-47.5378 508.47,-49.5551 507.458,-42.6287"/>
<text text-anchor="middle" x="546" y="-48" font-family="FreeSans" font-size="10.00"> coordinates</text>
</g>
<!-- Node11 -->
<g id="node11" class="node"><title>Node11</title>
<polygon fill="white" stroke="#bfbfbf" points="0,-69.5 0,-88.5 68,-88.5 68,-69.5 0,-69.5"/>
<text text-anchor="middle" x="34" y="-76.5" font-family="FreeSans" font-size="10.00">TContainer</text>
</g>
<!-- Node11&#45;&gt;Node10 -->
<g id="edge10" class="edge"><title>Node11&#45;&gt;Node10</title>
<path fill="none" stroke="#9a32cd" stroke-dasharray="5,2" d="M78.3566,-79.4734C99.3833,-79.6801 125.007,-79.8983 148,-80 203.999,-80.2478 218.147,-84.0612 274,-80 314.547,-77.0517 360.078,-70.2206 393.957,-64.4429"/>
<polygon fill="#9a32cd" stroke="#9a32cd" points="78.1626,-75.9714 68.1278,-79.3703 78.0919,-82.971 78.1626,-75.9714"/>
<text text-anchor="middle" x="211" y="-85" font-family="FreeSans" font-size="10.00"> myArray</text>
</g>
<!-- Node12 -->
<g id="node12" class="node"><title>Node12</title>
<g id="a_node12"><a xlink:href="classDGtal_1_1PointVector.html" target="_top" xlink:title="Aim: Implements basic operations that will be used in Point and Vector classes. ">
<polygon fill="white" stroke="black" points="148,-0.5 148,-41.5 274,-41.5 274,-0.5 148,-0.5"/>
<text text-anchor="start" x="156" y="-29.5" font-family="FreeSans" font-size="10.00">DGtal::PointVector</text>
<text text-anchor="start" x="156" y="-18.5" font-family="FreeSans" font-size="10.00">&lt; dim, TEuclideanRing,</text>
<text text-anchor="middle" x="211" y="-7.5" font-family="FreeSans" font-size="10.00"> TContainer &gt;</text>
</a>
</g>
</g>
<!-- Node11&#45;&gt;Node12 -->
<g id="edge12" class="edge"><title>Node11&#45;&gt;Node12</title>
<path fill="none" stroke="#9a32cd" stroke-dasharray="5,2" d="M73.4757,-66.2481C95.3137,-59.0103 123.167,-49.7789 148.013,-41.5443"/>
<polygon fill="#9a32cd" stroke="#9a32cd" points="72.2888,-62.9541 63.8977,-69.4225 74.4911,-69.5987 72.2888,-62.9541"/>
<text text-anchor="middle" x="108" y="-65" font-family="FreeSans" font-size="10.00"> myArray</text>
</g>
<!-- Node12&#45;&gt;Node10 -->
<g id="edge11" class="edge"><title>Node12&#45;&gt;Node10</title>
<path fill="none" stroke="#9a32cd" stroke-dasharray="5,2" d="M284.272,-14.6686C313.133,-13.8884 346.462,-15.2053 376,-22 391.529,-25.5722 407.661,-33.0464 420.418,-39.9796"/>
<polygon fill="#9a32cd" stroke="#9a32cd" points="284.133,-11.1713 274.264,-15.0265 284.383,-18.1668 284.133,-11.1713"/>
<text text-anchor="middle" x="334" y="-25" font-family="FreeSans" font-size="10.00"> zero</text>
</g>
<!-- Node12&#45;&gt;Node10 -->
<g id="edge14" class="edge"><title>Node12&#45;&gt;Node10</title>
<path fill="none" stroke="orange" stroke-dasharray="5,2" d="M283.942,-31.8124C286.662,-32.2145 289.356,-32.6116 292,-33 325.985,-37.9922 364.235,-43.4922 393.989,-47.7441"/>
<polygon fill="orange" stroke="orange" points="284.418,-28.3447 274.012,-30.3398 283.391,-35.269 284.418,-28.3447"/>
<text text-anchor="middle" x="334" y="-49" font-family="FreeSans" font-size="10.00"> &lt; dim, Integer &gt;</text>
</g>
<!-- Node12&#45;&gt;Node12 -->
<g id="edge13" class="edge"><title>Node12&#45;&gt;Node12</title>
<path fill="none" stroke="#9a32cd" stroke-dasharray="5,2" d="M193.452,-51.8561C196.061,-56.6966 201.911,-60 211,-60 225.543,-60 231.792,-51.5433 229.747,-41.8644"/>
<polygon fill="#9a32cd" stroke="#9a32cd" points="196.919,-51.3765 192.253,-41.8644 189.969,-52.2101 196.919,-51.3765"/>
<text text-anchor="middle" x="211" y="-63" font-family="FreeSans" font-size="10.00"> zero</text>
</g>
<!-- Node13&#45;&gt;Node9 -->
<g id="edge15" class="edge"><title>Node13&#45;&gt;Node9</title>
<path fill="none" stroke="orange" stroke-dasharray="5,2" d="M750.363,-35.1673C785.468,-40.3532 826.056,-46.3491 859.948,-51.356"/>
<polygon fill="orange" stroke="orange" points="750.543,-31.656 740.139,-33.6569 749.52,-38.5808 750.543,-31.656"/>
<text text-anchor="middle" x="800" y="-52" font-family="FreeSans" font-size="10.00"> &lt; dim, Integer &gt;</text>
</g>
<!-- Node14&#45;&gt;Node7 -->
<g id="edge18" class="edge"><title>Node14&#45;&gt;Node7</title>
<path fill="none" stroke="orange" stroke-dasharray="5,2" d="M1608.43,-95.4196C1636.76,-96.9474 1668.26,-98.6466 1695.7,-100.127"/>
<polygon fill="orange" stroke="orange" points="1608.33,-91.909 1598.16,-94.8652 1607.95,-98.8989 1608.33,-91.909"/>
<text text-anchor="middle" x="1647" y="-103" font-family="FreeSans" font-size="10.00"> &lt; KSpace &gt;</text>
</g>
</g>
</svg>
        <g id="navigator" transform="translate(0 0)" fill="#404254">
                <rect fill="#f2f5e9" fill-opacity="0.5" stroke="#606060" stroke-width=".5" x="0" y="0" width="60" height="60"/>
                <use id="zoomplus" xlink:href="#zoomPlus" x="17" y="9" onmousedown="handleZoom(evt,'in')"/>
                <use id="zoomminus" xlink:href="#zoomMin" x="42" y="9" onmousedown="handleZoom(evt,'out')"/>
                <use id="reset" xlink:href="#resetDef" x="30" y="36" onmousedown="handleReset()"/>
                <g id="arrowUp" xlink:href="#dirArrow" transform="translate(30 24)" onmousedown="handlePan(0,-1)">
                  <use xlink:href="#rim" fill="#404040">
                        <set attributeName="fill" to="#808080" begin="arrowUp.mouseover" end="arrowUp.mouseout"/>
                  </use>
                  <path fill="none" stroke="white" stroke-width="1.5" d="M0,-3.0v7 M-2.5,-0.5L0,-3.0L2.5,-0.5"/>
                </g>
                <g id="arrowRight" xlink:href="#dirArrow" transform="rotate(90) translate(36 -43)" onmousedown="handlePan(1,0)">
                  <use xlink:href="#rim" fill="#404040">
                        <set attributeName="fill" to="#808080" begin="arrowRight.mouseover" end="arrowRight.mouseout"/>
                  </use>
                  <path fill="none" stroke="white" stroke-width="1.5" d="M0,-3.0v7 M-2.5,-0.5L0,-3.0L2.5,-0.5"/>
                </g>
                <g id="arrowDown" xlink:href="#dirArrow" transform="rotate(180) translate(-30 -48)" onmousedown="handlePan(0,1)">
                  <use xlink:href="#rim" fill="#404040">
                        <set attributeName="fill" to="#808080" begin="arrowDown.mouseover" end="arrowDown.mouseout"/>
                  </use>
                  <path fill="none" stroke="white" stroke-width="1.5" d="M0,-3.0v7 M-2.5,-0.5L0,-3.0L2.5,-0.5"/>
                </g>
                <g id="arrowLeft" xlink:href="#dirArrow" transform="rotate(270) translate(-36 17)" onmousedown="handlePan(-1,0)">
                  <use xlink:href="#rim" fill="#404040">
                        <set attributeName="fill" to="#808080" begin="arrowLeft.mouseover" end="arrowLeft.mouseout"/>
                  </use>
                  <path fill="none" stroke="white" stroke-width="1.5" d="M0,-3.0v7 M-2.5,-0.5L0,-3.0L2.5,-0.5"/>
                </g>
        </g>
        <svg viewBox="0 0 15 15" width="100%" height="30px" preserveAspectRatio="xMaxYMin meet">
         <g id="arrow_out" transform="scale(0.3 0.3)">
          <a xlink:href="classDGtal_1_1SetOfSurfels_1_1Tracker__coll__graph_org.svg" target="_base">
           <rect id="button" ry="5" rx="5" y="6" x="6" height="38" width="38"
                fill="#f2f5e9" fill-opacity="0.5" stroke="#606060" stroke-width="1.0"/>
           <path id="arrow"
             d="M 11.500037,31.436501 C 11.940474,20.09759 22.043105,11.32322 32.158766,21.979434 L 37.068811,17.246167 C 37.068811,17.246167 37.088388,32 37.088388,32 L 22.160133,31.978069 C 22.160133,31.978069 26.997745,27.140456 26.997745,27.140456 C 18.528582,18.264221 13.291696,25.230495 11.500037,31.436501 z"
             style="fill:#404040;"/>
          </a>
         </g>
        </svg>
</svg>
