<?xml version="1.0" encoding="UTF-8" standalone="no"?>
<!DOCTYPE svg PUBLIC "-//W3C//DTD SVG 1.1//EN"
 "http://www.w3.org/Graphics/SVG/1.1/DTD/svg11.dtd">
<!-- Generated by graphviz version 2.38.0 (20140413.2041)
 -->
<!-- Title: DGtal::LabelledMap&lt; TData, L, TWord, N, M &gt;::ConstIterator Pages: 1 -->
<svg width="549pt" height="128pt"
 viewBox="0.00 0.00 549.00 127.50" xmlns="http://www.w3.org/2000/svg" xmlns:xlink="http://www.w3.org/1999/xlink">
<g id="graph0" class="graph" transform="scale(1 1) rotate(0) translate(4 123.5)">
<title>DGtal::LabelledMap&lt; TData, L, TWord, N, M &gt;::ConstIterator</title>
<polygon fill="white" stroke="none" points="-4,4 -4,-123.5 545,-123.5 545,4 -4,4"/>
<!-- Node1 -->
<g id="node1" class="node"><title>Node1</title>
<polygon fill="#bfbfbf" stroke="black" points="422,-24 422,-65 541,-65 541,-24 422,-24"/>
<text text-anchor="start" x="430" y="-53" font-family="FreeSans" font-size="10.00">DGtal::LabelledMap</text>
<text text-anchor="start" x="430" y="-42" font-family="FreeSans" font-size="10.00">&lt; TData, L, TWord, N,</text>
<text text-anchor="middle" x="481.5" y="-31" font-family="FreeSans" font-size="10.00"> M &gt;::ConstIterator</text>
</g>
<!-- Node2 -->
<g id="node2" class="node"><title>Node2</title>
<g id="a_node2"><a xlink:href="classDGtal_1_1LabelledMap_1_1BlockConstIterator.html" target="_top" xlink:title="DGtal::LabelledMap\l\&lt; TData, L, TWord, N,\l M \&gt;::BlockConstIterator">
<polygon fill="white" stroke="black" points="197,-49 197,-90 331,-90 331,-49 197,-49"/>
<text text-anchor="start" x="205" y="-78" font-family="FreeSans" font-size="10.00">DGtal::LabelledMap</text>
<text text-anchor="start" x="205" y="-67" font-family="FreeSans" font-size="10.00">&lt; TData, L, TWord, N,</text>
<text text-anchor="middle" x="264" y="-56" font-family="FreeSans" font-size="10.00"> M &gt;::BlockConstIterator</text>
</a>
</g>
</g>
<!-- Node2&#45;&gt;Node1 -->
<g id="edge1" class="edge"><title>Node2&#45;&gt;Node1</title>
<path fill="none" stroke="#9a32cd" stroke-dasharray="5,2" d="M341.128,-60.6684C367.634,-57.5935 396.941,-54.1937 421.813,-51.3083"/>
<polygon fill="#9a32cd" stroke="#9a32cd" points="340.652,-57.2001 331.122,-61.8293 341.458,-64.1535 340.652,-57.2001"/>
<text text-anchor="middle" x="376.5" y="-61.5" font-family="FreeSans" font-size="10.00"> myBlockIt</text>
</g>
<!-- Node3 -->
<g id="node3" class="node"><title>Node3</title>
<g id="a_node3"><a xlink:href="structDGtal_1_1LabelledMap_1_1____AnyBlock.html" target="_top" xlink:title="DGtal::LabelledMap\l\&lt; TData, L, TWord, N,\l M \&gt;::__AnyBlock">
<polygon fill="white" stroke="black" points="0,-49 0,-90 119,-90 119,-49 0,-49"/>
<text text-anchor="start" x="8" y="-78" font-family="FreeSans" font-size="10.00">DGtal::LabelledMap</text>
<text text-anchor="start" x="8" y="-67" font-family="FreeSans" font-size="10.00">&lt; TData, L, TWord, N,</text>
<text text-anchor="middle" x="59.5" y="-56" font-family="FreeSans" font-size="10.00"> M &gt;::__AnyBlock</text>
</a>
</g>
</g>
<!-- Node3&#45;&gt;Node2 -->
<g id="edge2" class="edge"><title>Node3&#45;&gt;Node2</title>
<path fill="none" stroke="#9a32cd" stroke-dasharray="5,2" d="M129.243,-69.5C151.048,-69.5 175.102,-69.5 196.729,-69.5"/>
<polygon fill="#9a32cd" stroke="#9a32cd" points="129.071,-66.0001 119.071,-69.5 129.071,-73.0001 129.071,-66.0001"/>
<text text-anchor="middle" x="158" y="-72.5" font-family="FreeSans" font-size="10.00"> myNext</text>
</g>
<!-- Node3&#45;&gt;Node3 -->
<g id="edge3" class="edge"><title>Node3&#45;&gt;Node3</title>
<path fill="none" stroke="#9a32cd" stroke-dasharray="5,2" d="M42.6397,-100.356C45.147,-105.197 50.7671,-108.5 59.5,-108.5 73.4727,-108.5 79.4765,-100.043 77.5116,-90.3644"/>
<polygon fill="#9a32cd" stroke="#9a32cd" points="46.1102,-99.898 41.4884,-90.3644 39.1562,-100.699 46.1102,-99.898"/>
<text text-anchor="middle" x="59.5" y="-111.5" font-family="FreeSans" font-size="10.00"> next</text>
</g>
<!-- Node4 -->
<g id="node4" class="node"><title>Node4</title>
<g id="a_node4"><a xlink:href="classDGtal_1_1Labels_1_1ConstEnumerator.html" target="_top" xlink:title="DGtal::Labels\&lt; L, TWord\l \&gt;::ConstEnumerator">
<polygon fill="white" stroke="black" points="198.5,-0.5 198.5,-30.5 329.5,-30.5 329.5,-0.5 198.5,-0.5"/>
<text text-anchor="start" x="206.5" y="-18.5" font-family="FreeSans" font-size="10.00">DGtal::Labels&lt; L, TWord</text>
<text text-anchor="middle" x="264" y="-7.5" font-family="FreeSans" font-size="10.00"> &gt;::ConstEnumerator</text>
</a>
</g>
</g>
<!-- Node4&#45;&gt;Node1 -->
<g id="edge4" class="edge"><title>Node4&#45;&gt;Node1</title>
<path fill="none" stroke="#9a32cd" stroke-dasharray="5,2" d="M339.78,-25.5632C366.62,-29.1751 396.481,-33.1934 421.765,-36.596"/>
<polygon fill="#9a32cd" stroke="#9a32cd" points="340.035,-22.066 329.657,-24.201 339.101,-29.0035 340.035,-22.066"/>
<text text-anchor="middle" x="376.5" y="-35.5" font-family="FreeSans" font-size="10.00"> myLabelsIt</text>
</g>
<!-- Node5 -->
<g id="node5" class="node"><title>Node5</title>
<polygon fill="white" stroke="#bfbfbf" points="37,-6 37,-25 82,-25 82,-6 37,-6"/>
<text text-anchor="middle" x="59.5" y="-13" font-family="FreeSans" font-size="10.00">TWord</text>
</g>
<!-- Node5&#45;&gt;Node4 -->
<g id="edge5" class="edge"><title>Node5&#45;&gt;Node4</title>
<path fill="none" stroke="#9a32cd" stroke-dasharray="5,2" d="M92.3068,-15.5C120.658,-15.5 163.026,-15.5 198.458,-15.5"/>
<polygon fill="#9a32cd" stroke="#9a32cd" points="92.1711,-12.0001 82.171,-15.5 92.171,-19.0001 92.1711,-12.0001"/>
<text text-anchor="middle" x="158" y="-18.5" font-family="FreeSans" font-size="10.00"> myWord</text>
</g>
</g>
</svg>
