<?xml version="1.0" encoding="UTF-8" standalone="no"?>
<!DOCTYPE svg PUBLIC "-//W3C//DTD SVG 1.1//EN"
 "http://www.w3.org/Graphics/SVG/1.1/DTD/svg11.dtd">
<!-- Generated by graphviz version 2.38.0 (20140413.2041)
 -->
<!-- Title: DGtal::NaiveDSS8&lt; TCoordinate, TInteger &gt; Pages: 1 -->
<svg width="236pt" height="196pt"
 viewBox="0.00 0.00 235.50 196.00" xmlns="http://www.w3.org/2000/svg" xmlns:xlink="http://www.w3.org/1999/xlink">
<g id="graph0" class="graph" transform="scale(1 1) rotate(0) translate(4 192)">
<title>DGtal::NaiveDSS8&lt; TCoordinate, TInteger &gt;</title>
<polygon fill="white" stroke="none" points="-4,4 -4,-192 231.5,-192 231.5,4 -4,4"/>
<!-- Node0 -->
<g id="node1" class="node"><title>Node0</title>
<polygon fill="#bfbfbf" stroke="black" points="0,-0.5 0,-30.5 175,-30.5 175,-0.5 0,-0.5"/>
<text text-anchor="start" x="8" y="-18.5" font-family="FreeSans" font-size="10.00">DGtal::NaiveDSS8&lt; TCoordinate,</text>
<text text-anchor="middle" x="87.5" y="-7.5" font-family="FreeSans" font-size="10.00"> TInteger &gt;</text>
</g>
<!-- Node1 -->
<g id="node2" class="node"><title>Node1</title>
<g id="a_node2"><a xlink:href="classDGtal_1_1ArithmeticalDSS.html" target="_top" xlink:title="DGtal::ArithmeticalDSS\l\&lt; TCoordinate, TInteger, 8 \&gt;">
<polygon fill="white" stroke="black" points="11,-68.5 11,-98.5 164,-98.5 164,-68.5 11,-68.5"/>
<text text-anchor="start" x="19" y="-86.5" font-family="FreeSans" font-size="10.00">DGtal::ArithmeticalDSS</text>
<text text-anchor="middle" x="87.5" y="-75.5" font-family="FreeSans" font-size="10.00">&lt; TCoordinate, TInteger, 8 &gt;</text>
</a>
</g>
</g>
<!-- Node1&#45;&gt;Node0 -->
<g id="edge1" class="edge"><title>Node1&#45;&gt;Node0</title>
<path fill="none" stroke="midnightblue" d="M87.5,-58.0322C87.5,-48.8606 87.5,-38.7449 87.5,-30.7931"/>
<polygon fill="midnightblue" stroke="midnightblue" points="84.0001,-58.1789 87.5,-68.179 91.0001,-58.179 84.0001,-58.1789"/>
</g>
<!-- Node2 -->
<g id="node3" class="node"><title>Node2</title>
<g id="a_node3"><a xlink:href="classDGtal_1_1ArithmeticalDSS.html" target="_top" xlink:title="Aim: This class represents a naive (resp. standard) digital straight segment (DSS), ie. the sequence of simply 8&#45; (resp. 4&#45;)connected digital points contained in a naive (resp. standard) digital straight line (DSL) between two points of it. ">
<polygon fill="white" stroke="black" points="21,-146.5 21,-187.5 154,-187.5 154,-146.5 21,-146.5"/>
<text text-anchor="start" x="29" y="-175.5" font-family="FreeSans" font-size="10.00">DGtal::ArithmeticalDSS</text>
<text text-anchor="start" x="29" y="-164.5" font-family="FreeSans" font-size="10.00">&lt; TCoordinate, TInteger,</text>
<text text-anchor="middle" x="87.5" y="-153.5" font-family="FreeSans" font-size="10.00"> adjacency &gt;</text>
</a>
</g>
</g>
<!-- Node2&#45;&gt;Node1 -->
<g id="edge2" class="edge"><title>Node2&#45;&gt;Node1</title>
<path fill="none" stroke="orange" stroke-dasharray="5,2" d="M87.5,-136.025C87.5,-123.258 87.5,-108.97 87.5,-98.6846"/>
<polygon fill="orange" stroke="orange" points="84.0001,-136.271 87.5,-146.271 91.0001,-136.271 84.0001,-136.271"/>
<text text-anchor="middle" x="157.5" y="-120" font-family="FreeSans" font-size="10.00"> &lt; TCoordinate, TInteger, 8 &gt;</text>
</g>
</g>
</svg>
