<?xml version="1.0" encoding="UTF-8" standalone="no"?>
<!DOCTYPE svg PUBLIC "-//W3C//DTD SVG 1.1//EN"
 "http://www.w3.org/Graphics/SVG/1.1/DTD/svg11.dtd">
<!-- Generated by graphviz version 2.36.0 (20140111.2315)
 -->
<!-- Title: DGtal::IntegralInvariantVolumeEstimator&lt; TKSpace, TPointPredicate, TVolumeFunctor &gt; Pages: 1 -->
<svg width="1966pt" height="482pt"
 viewBox="0.00 0.00 1966.00 482.00" xmlns="http://www.w3.org/2000/svg" xmlns:xlink="http://www.w3.org/1999/xlink">
<g id="graph0" class="graph" transform="scale(1 1) rotate(0) translate(4 478)">
<title>DGtal::IntegralInvariantVolumeEstimator&lt; TKSpace, TPointPredicate, TVolumeFunctor &gt;</title>
<polygon fill="white" stroke="none" points="-4,4 -4,-478 1962,-478 1962,4 -4,4"/>
<!-- Node1 -->
<g id="node1" class="node"><title>Node1</title>
<polygon fill="#bfbfbf" stroke="black" points="1770,-205.5 1770,-246.5 1958,-246.5 1958,-205.5 1770,-205.5"/>
<text text-anchor="start" x="1778" y="-234.5" font-family="FreeSans" font-size="10.00">DGtal::IntegralInvariant</text>
<text text-anchor="start" x="1778" y="-223.5" font-family="FreeSans" font-size="10.00">VolumeEstimator&lt; TKSpace,</text>
<text text-anchor="middle" x="1864" y="-212.5" font-family="FreeSans" font-size="10.00"> TPointPredicate, TVolumeFunctor &gt;</text>
</g>
<!-- Node2 -->
<g id="node2" class="node"><title>Node2</title>
<polygon fill="white" stroke="#bfbfbf" points="1471,-395.5 1471,-414.5 1619,-414.5 1619,-395.5 1471,-395.5"/>
<text text-anchor="middle" x="1545" y="-402.5" font-family="FreeSans" font-size="10.00">std::vector&lt; PairIterators &gt;</text>
</g>
<!-- Node2&#45;&gt;Node1 -->
<g id="edge1" class="edge"><title>Node2&#45;&gt;Node1</title>
<path fill="none" stroke="#9a32cd" stroke-dasharray="5,2" d="M1629.06,-394.12C1668.47,-386.226 1714.93,-372.771 1752,-350 1795.33,-323.386 1831.55,-274.757 1849.95,-246.963"/>
<polygon fill="#9a32cd" stroke="#9a32cd" points="1628.37,-390.689 1619.2,-396.009 1629.69,-397.564 1628.37,-390.689"/>
<text text-anchor="middle" x="1708" y="-389" font-family="FreeSans" font-size="10.00"> myKernels</text>
</g>
<!-- Node3 -->
<g id="node3" class="node"><title>Node3</title>
<g id="a_node3"><a xlink:title="STL class. ">
<polygon fill="white" stroke="#bfbfbf" points="1107.5,-403.5 1107.5,-422.5 1202.5,-422.5 1202.5,-403.5 1107.5,-403.5"/>
<text text-anchor="middle" x="1155" y="-410.5" font-family="FreeSans" font-size="10.00">std::vector&lt; T &gt;</text>
</a>
</g>
</g>
<!-- Node3&#45;&gt;Node2 -->
<g id="edge2" class="edge"><title>Node3&#45;&gt;Node2</title>
<path fill="none" stroke="orange" stroke-dasharray="5,2" d="M1212.95,-411.826C1281.3,-410.416 1396.04,-408.051 1470.88,-406.508"/>
<polygon fill="orange" stroke="orange" points="1212.73,-408.33 1202.8,-412.035 1212.87,-415.328 1212.73,-408.33"/>
<text text-anchor="middle" x="1346" y="-413" font-family="FreeSans" font-size="10.00"> &lt; PairIterators &gt;</text>
</g>
<!-- Node9 -->
<g id="node9" class="node"><title>Node9</title>
<polygon fill="white" stroke="#bfbfbf" points="1444.5,-326 1444.5,-356 1645.5,-356 1645.5,-326 1444.5,-326"/>
<text text-anchor="start" x="1452.5" y="-344" font-family="FreeSans" font-size="10.00">std::vector&lt; DGtal</text>
<text text-anchor="middle" x="1545" y="-333" font-family="FreeSans" font-size="10.00">::DigitalSetByAssociativeContainer * &gt;</text>
</g>
<!-- Node3&#45;&gt;Node9 -->
<g id="edge19" class="edge"><title>Node3&#45;&gt;Node9</title>
<path fill="none" stroke="orange" stroke-dasharray="5,2" d="M1194.48,-400.369C1215.44,-393.853 1241.94,-386.203 1266,-381 1324.62,-368.322 1391.09,-358.592 1444.33,-351.905"/>
<polygon fill="orange" stroke="orange" points="1193.15,-397.117 1184.67,-403.461 1195.26,-403.793 1193.15,-397.117"/>
<text text-anchor="start" x="1266" y="-395" font-family="FreeSans" font-size="10.00"> &lt; DGtal::DigitalSetByAssociative</text>
<text text-anchor="middle" x="1346" y="-384" font-family="FreeSans" font-size="10.00">Container * &gt;</text>
</g>
<!-- Node4 -->
<g id="node4" class="node"><title>Node4</title>
<polygon fill="white" stroke="#bfbfbf" points="883.5,-410.5 883.5,-429.5 912.5,-429.5 912.5,-410.5 883.5,-410.5"/>
<text text-anchor="middle" x="898" y="-417.5" font-family="FreeSans" font-size="10.00">T</text>
</g>
<!-- Node4&#45;&gt;Node3 -->
<g id="edge3" class="edge"><title>Node4&#45;&gt;Node3</title>
<path fill="none" stroke="#9a32cd" stroke-dasharray="5,2" d="M922.824,-419.346C964.877,-418.192 1052.96,-415.774 1107.44,-414.278"/>
<polygon fill="#9a32cd" stroke="#9a32cd" points="922.61,-415.85 912.71,-419.624 922.802,-422.848 922.61,-415.85"/>
<text text-anchor="middle" x="1016" y="-420" font-family="FreeSans" font-size="10.00"> elements</text>
</g>
<!-- Node5 -->
<g id="node5" class="node"><title>Node5</title>
<g id="a_node5"><a xlink:href="classDGtal_1_1CountedPtr.html" target="_top" xlink:title="DGtal::CountedPtr\&lt;\l DGtal::DigitalSurfaceConvolver \&gt;">
<polygon fill="white" stroke="black" points="548,-282 548,-312 726,-312 726,-282 548,-282"/>
<text text-anchor="start" x="556" y="-300" font-family="FreeSans" font-size="10.00">DGtal::CountedPtr&lt;</text>
<text text-anchor="middle" x="637" y="-289" font-family="FreeSans" font-size="10.00"> DGtal::DigitalSurfaceConvolver &gt;</text>
</a>
</g>
</g>
<!-- Node5&#45;&gt;Node1 -->
<g id="edge4" class="edge"><title>Node5&#45;&gt;Node1</title>
<path fill="none" stroke="#9a32cd" stroke-dasharray="5,2" d="M736.267,-297C784.668,-297 843.896,-297 897,-297 897,-297 897,-297 1546,-297 1639.06,-297 1743.85,-267.505 1806.59,-246.536"/>
<polygon fill="#9a32cd" stroke="#9a32cd" points="736.11,-293.5 726.11,-297 736.11,-300.5 736.11,-293.5"/>
<text text-anchor="middle" x="1155" y="-300" font-family="FreeSans" font-size="10.00"> myConvolver</text>
</g>
<!-- Node6 -->
<g id="node6" class="node"><title>Node6</title>
<g id="a_node6"><a xlink:href="structDGtal_1_1CountedPtr_1_1Counter.html" target="_top" xlink:title="DGtal::CountedPtr\&lt;\l T \&gt;::Counter">
<polygon fill="white" stroke="black" points="0,-181 0,-211 112,-211 112,-181 0,-181"/>
<text text-anchor="start" x="8" y="-199" font-family="FreeSans" font-size="10.00">DGtal::CountedPtr&lt;</text>
<text text-anchor="middle" x="56" y="-188" font-family="FreeSans" font-size="10.00"> T &gt;::Counter</text>
</a>
</g>
</g>
<!-- Node6&#45;&gt;Node5 -->
<g id="edge5" class="edge"><title>Node6&#45;&gt;Node5</title>
<path fill="none" stroke="#9a32cd" stroke-dasharray="5,2" d="M86.9332,-216.725C138.842,-251.263 250.172,-319.242 356,-344 431.3,-361.616 460.479,-377.872 530,-344 541.669,-338.315 537.189,-328.184 548,-321 553.144,-317.582 558.763,-314.648 564.593,-312.131"/>
<polygon fill="#9a32cd" stroke="#9a32cd" points="88.7859,-213.753 78.5335,-211.082 84.8821,-219.564 88.7859,-213.753"/>
<text text-anchor="middle" x="272" y="-343" font-family="FreeSans" font-size="10.00"> myCounter</text>
</g>
<!-- Node7 -->
<g id="node7" class="node"><title>Node7</title>
<g id="a_node7"><a xlink:href="classDGtal_1_1CountedPtr.html" target="_top" xlink:title="Aim: Smart pointer based on reference counts. ">
<polygon fill="white" stroke="black" points="206.5,-218.5 206.5,-237.5 337.5,-237.5 337.5,-218.5 206.5,-218.5"/>
<text text-anchor="middle" x="272" y="-225.5" font-family="FreeSans" font-size="10.00">DGtal::CountedPtr&lt; T &gt;</text>
</a>
</g>
</g>
<!-- Node6&#45;&gt;Node7 -->
<g id="edge7" class="edge"><title>Node6&#45;&gt;Node7</title>
<path fill="none" stroke="#9a32cd" stroke-dasharray="5,2" d="M122.243,-205.756C149.266,-209.797 180.504,-214.468 207.357,-218.483"/>
<polygon fill="#9a32cd" stroke="#9a32cd" points="122.518,-202.258 112.11,-204.241 121.483,-209.181 122.518,-202.258"/>
<text text-anchor="middle" x="159" y="-218" font-family="FreeSans" font-size="10.00"> myCounter</text>
</g>
<!-- Node8 -->
<g id="node8" class="node"><title>Node8</title>
<g id="a_node8"><a xlink:href="classDGtal_1_1CountedPtr.html" target="_top" xlink:title="DGtal::CountedPtr\&lt;\l DGtal::GaussDigitizer \&gt;">
<polygon fill="white" stroke="black" points="570.5,-444 570.5,-474 703.5,-474 703.5,-444 570.5,-444"/>
<text text-anchor="start" x="578.5" y="-462" font-family="FreeSans" font-size="10.00">DGtal::CountedPtr&lt;</text>
<text text-anchor="middle" x="637" y="-451" font-family="FreeSans" font-size="10.00"> DGtal::GaussDigitizer &gt;</text>
</a>
</g>
</g>
<!-- Node6&#45;&gt;Node8 -->
<g id="edge9" class="edge"><title>Node6&#45;&gt;Node8</title>
<path fill="none" stroke="#9a32cd" stroke-dasharray="5,2" d="M65.0649,-220.794C82.1789,-268.79 127.161,-373.412 206,-416 322.177,-478.757 481.853,-475.548 570.305,-467.413"/>
<polygon fill="#9a32cd" stroke="#9a32cd" points="68.3202,-219.498 61.7454,-211.19 61.7043,-221.785 68.3202,-219.498"/>
<text text-anchor="middle" x="272" y="-462" font-family="FreeSans" font-size="10.00"> myCounter</text>
</g>
<!-- Node12 -->
<g id="node12" class="node"><title>Node12</title>
<g id="a_node12"><a xlink:href="classDGtal_1_1CountedPtr.html" target="_top" xlink:title="DGtal::CountedPtr\&lt;\l Domain \&gt;">
<polygon fill="white" stroke="black" points="581,-331 581,-361 693,-361 693,-331 581,-331"/>
<text text-anchor="start" x="589" y="-349" font-family="FreeSans" font-size="10.00">DGtal::CountedPtr&lt;</text>
<text text-anchor="middle" x="637" y="-338" font-family="FreeSans" font-size="10.00"> Domain &gt;</text>
</a>
</g>
</g>
<!-- Node6&#45;&gt;Node12 -->
<g id="edge15" class="edge"><title>Node6&#45;&gt;Node12</title>
<path fill="none" stroke="#9a32cd" stroke-dasharray="5,2" d="M78.3615,-218.84C92.9113,-234.393 112.613,-255.445 130,-274 163.755,-310.021 164.266,-328.633 206,-355 265.176,-392.387 286.841,-392.204 356,-403 432.408,-414.927 463.245,-442.041 530,-403 544.086,-394.762 535.185,-381.102 548,-371 557.479,-363.527 569.086,-358.288 580.722,-354.615"/>
<polygon fill="#9a32cd" stroke="#9a32cd" points="80.6495,-216.162 71.2621,-211.25 75.5374,-220.944 80.6495,-216.162"/>
<text text-anchor="middle" x="272" y="-404" font-family="FreeSans" font-size="10.00"> myCounter</text>
</g>
<!-- Node15 -->
<g id="node15" class="node"><title>Node15</title>
<g id="a_node15"><a xlink:href="classDGtal_1_1CountedPtr.html" target="_top" xlink:title="DGtal::CountedPtr\&lt;\l DGtal::functors::PointFunctor\lFromPointPredicateAndDomain \&gt;">
<polygon fill="white" stroke="black" points="548.5,-221.5 548.5,-262.5 725.5,-262.5 725.5,-221.5 548.5,-221.5"/>
<text text-anchor="start" x="556.5" y="-250.5" font-family="FreeSans" font-size="10.00">DGtal::CountedPtr&lt;</text>
<text text-anchor="start" x="556.5" y="-239.5" font-family="FreeSans" font-size="10.00"> DGtal::functors::PointFunctor</text>
<text text-anchor="middle" x="637" y="-228.5" font-family="FreeSans" font-size="10.00">FromPointPredicateAndDomain &gt;</text>
</a>
</g>
</g>
<!-- Node6&#45;&gt;Node15 -->
<g id="edge21" class="edge"><title>Node6&#45;&gt;Node15</title>
<path fill="none" stroke="#9a32cd" stroke-dasharray="5,2" d="M122.216,-181.111C216.144,-162.875 393.24,-140.627 530,-195 540.225,-199.065 538.577,-206.317 548,-212 553.805,-215.501 560.074,-218.661 566.499,-221.497"/>
<polygon fill="#9a32cd" stroke="#9a32cd" points="121.412,-177.702 112.286,-183.085 122.776,-184.568 121.412,-177.702"/>
<text text-anchor="middle" x="272" y="-171" font-family="FreeSans" font-size="10.00"> myCounter</text>
</g>
<!-- Node16 -->
<g id="node16" class="node"><title>Node16</title>
<g id="a_node16"><a xlink:href="classDGtal_1_1CountedPtr.html" target="_top" xlink:title="DGtal::CountedPtr\&lt;\l DGtal::ImplicitBall \&gt;">
<polygon fill="white" stroke="black" points="579.5,-173 579.5,-203 694.5,-203 694.5,-173 579.5,-173"/>
<text text-anchor="start" x="587.5" y="-191" font-family="FreeSans" font-size="10.00">DGtal::CountedPtr&lt;</text>
<text text-anchor="middle" x="637" y="-180" font-family="FreeSans" font-size="10.00"> DGtal::ImplicitBall &gt;</text>
</a>
</g>
</g>
<!-- Node6&#45;&gt;Node16 -->
<g id="edge24" class="edge"><title>Node6&#45;&gt;Node16</title>
<path fill="none" stroke="#9a32cd" stroke-dasharray="5,2" d="M94.3247,-176.319C105.589,-170.87 118.121,-165.283 130,-161 162.754,-149.191 171.641,-147.63 206,-142 348.203,-118.7 390.393,-94.3028 530,-130 562.315,-138.263 595.379,-158.636 615.796,-172.888"/>
<polygon fill="#9a32cd" stroke="#9a32cd" points="92.6143,-173.261 85.2035,-180.832 95.7186,-179.535 92.6143,-173.261"/>
<text text-anchor="middle" x="272" y="-145" font-family="FreeSans" font-size="10.00"> myCounter</text>
</g>
<!-- Node19 -->
<g id="node19" class="node"><title>Node19</title>
<g id="a_node19"><a xlink:href="classDGtal_1_1CountedPtr.html" target="_top" xlink:title="DGtal::CountedPtr\&lt;\l DGtal::FunctorOnCells \&gt;">
<polygon fill="white" stroke="black" points="569.5,-92 569.5,-122 704.5,-122 704.5,-92 569.5,-92"/>
<text text-anchor="start" x="577.5" y="-110" font-family="FreeSans" font-size="10.00">DGtal::CountedPtr&lt;</text>
<text text-anchor="middle" x="637" y="-99" font-family="FreeSans" font-size="10.00"> DGtal::FunctorOnCells &gt;</text>
</a>
</g>
</g>
<!-- Node6&#45;&gt;Node19 -->
<g id="edge29" class="edge"><title>Node6&#45;&gt;Node19</title>
<path fill="none" stroke="#9a32cd" stroke-dasharray="5,2" d="M83.5198,-174.651C97.0406,-164.22 113.976,-151.83 130,-142 221.079,-86.1254 250.234,-75.1923 356,-60 432.548,-49.0046 460.116,-26.8835 530,-60 541.416,-65.41 537.439,-75.0667 548,-82 554.506,-86.271 561.745,-89.8229 569.198,-92.7745"/>
<polygon fill="#9a32cd" stroke="#9a32cd" points="81.307,-171.938 75.581,-180.852 85.6162,-177.454 81.307,-171.938"/>
<text text-anchor="middle" x="272" y="-102" font-family="FreeSans" font-size="10.00"> myCounter</text>
</g>
<!-- Node20 -->
<g id="node20" class="node"><title>Node20</title>
<g id="a_node20"><a xlink:href="classDGtal_1_1CountedPtr.html" target="_top" xlink:title="DGtal::CountedPtr\&lt;\l HyperRectDomain\&lt; Space \&gt; \&gt;">
<polygon fill="white" stroke="black" points="552,-43 552,-73 722,-73 722,-43 552,-43"/>
<text text-anchor="start" x="560" y="-61" font-family="FreeSans" font-size="10.00">DGtal::CountedPtr&lt;</text>
<text text-anchor="middle" x="637" y="-50" font-family="FreeSans" font-size="10.00"> HyperRectDomain&lt; Space &gt; &gt;</text>
</a>
</g>
</g>
<!-- Node6&#45;&gt;Node20 -->
<g id="edge32" class="edge"><title>Node6&#45;&gt;Node20</title>
<path fill="none" stroke="#9a32cd" stroke-dasharray="5,2" d="M71.2799,-172.178C94.312,-136.505 143.473,-70.9457 206,-48 330.606,-2.27305 489.479,-24.8669 574.961,-42.9514"/>
<polygon fill="#9a32cd" stroke="#9a32cd" points="68.1081,-170.646 65.7405,-180.973 74.0312,-174.377 68.1081,-170.646"/>
<text text-anchor="middle" x="272" y="-51" font-family="FreeSans" font-size="10.00"> myCounter</text>
</g>
<!-- Node7&#45;&gt;Node5 -->
<g id="edge6" class="edge"><title>Node7&#45;&gt;Node5</title>
<path fill="none" stroke="orange" stroke-dasharray="5,2" d="M294.304,-243.543C310.4,-254.392 333.496,-268.117 356,-275 390.622,-285.59 479.294,-291.296 547.66,-294.222"/>
<polygon fill="orange" stroke="orange" points="295.903,-240.392 285.693,-237.561 291.909,-246.141 295.903,-240.392"/>
<text text-anchor="middle" x="443" y="-297" font-family="FreeSans" font-size="10.00"> &lt; DGtal::DigitalSurfaceConvolver &gt;</text>
</g>
<!-- Node7&#45;&gt;Node8 -->
<g id="edge10" class="edge"><title>Node7&#45;&gt;Node8</title>
<path fill="none" stroke="orange" stroke-dasharray="5,2" d="M283.958,-246.176C305.899,-282.523 353.363,-360.889 356,-363 390.655,-390.735 506.041,-424.753 577.421,-443.945"/>
<polygon fill="orange" stroke="orange" points="286.9,-244.278 278.737,-237.523 280.906,-247.894 286.9,-244.278"/>
<text text-anchor="middle" x="443" y="-431" font-family="FreeSans" font-size="10.00"> &lt; DGtal::GaussDigitizer &gt;</text>
</g>
<!-- Node7&#45;&gt;Node12 -->
<g id="edge16" class="edge"><title>Node7&#45;&gt;Node12</title>
<path fill="none" stroke="orange" stroke-dasharray="5,2" d="M285.71,-245.964C300.312,-265.069 326.139,-294.491 356,-309 428.109,-344.037 522.322,-349.412 580.992,-348.722"/>
<polygon fill="orange" stroke="orange" points="288.406,-243.723 279.646,-237.764 282.777,-247.885 288.406,-243.723"/>
<text text-anchor="middle" x="443" y="-351" font-family="FreeSans" font-size="10.00"> &lt; Domain &gt;</text>
</g>
<!-- Node7&#45;&gt;Node15 -->
<g id="edge22" class="edge"><title>Node7&#45;&gt;Node15</title>
<path fill="none" stroke="orange" stroke-dasharray="5,2" d="M348.14,-230.898C406.411,-233.145 487.283,-236.264 548.475,-238.624"/>
<polygon fill="orange" stroke="orange" points="348.025,-227.391 337.897,-230.503 347.755,-234.386 348.025,-227.391"/>
<text text-anchor="start" x="366.5" y="-263" font-family="FreeSans" font-size="10.00"> &lt; DGtal::functors::</text>
<text text-anchor="start" x="366.5" y="-252" font-family="FreeSans" font-size="10.00">PointFunctorFromPointPredicate</text>
<text text-anchor="middle" x="443" y="-241" font-family="FreeSans" font-size="10.00">AndDomain &gt;</text>
</g>
<!-- Node7&#45;&gt;Node16 -->
<g id="edge25" class="edge"><title>Node7&#45;&gt;Node16</title>
<path fill="none" stroke="orange" stroke-dasharray="5,2" d="M347.832,-217.982C350.588,-217.645 353.318,-217.317 356,-217 433.291,-207.878 522.773,-198.883 579.369,-193.387"/>
<polygon fill="orange" stroke="orange" points="347.262,-214.526 337.771,-219.234 348.127,-221.472 347.262,-214.526"/>
<text text-anchor="middle" x="443" y="-220" font-family="FreeSans" font-size="10.00"> &lt; DGtal::ImplicitBall &gt;</text>
</g>
<!-- Node7&#45;&gt;Node19 -->
<g id="edge30" class="edge"><title>Node7&#45;&gt;Node19</title>
<path fill="none" stroke="orange" stroke-dasharray="5,2" d="M297.533,-213.162C313.708,-203.843 335.599,-192.099 356,-184 426.873,-155.864 511.739,-134.096 569.323,-120.993"/>
<polygon fill="orange" stroke="orange" points="295.584,-210.247 288.724,-218.322 299.122,-216.287 295.584,-210.247"/>
<text text-anchor="middle" x="443" y="-187" font-family="FreeSans" font-size="10.00"> &lt; DGtal::FunctorOnCells &gt;</text>
</g>
<!-- Node7&#45;&gt;Node20 -->
<g id="edge33" class="edge"><title>Node7&#45;&gt;Node20</title>
<path fill="none" stroke="orange" stroke-dasharray="5,2" d="M308.795,-213.964C319.657,-208.078 330.648,-200.185 338,-190 360.601,-158.689 328.122,-131.721 356,-105 407.331,-55.7994 489.716,-47.1228 551.861,-48.923"/>
<polygon fill="orange" stroke="orange" points="307.18,-210.858 299.784,-218.444 310.296,-217.127 307.18,-210.858"/>
<text text-anchor="start" x="388.5" y="-119" font-family="FreeSans" font-size="10.00"> &lt; HyperRectDomain&lt;</text>
<text text-anchor="middle" x="443" y="-108" font-family="FreeSans" font-size="10.00"> Space &gt; &gt;</text>
</g>
<!-- Node8&#45;&gt;Node1 -->
<g id="edge8" class="edge"><title>Node8&#45;&gt;Node1</title>
<path fill="none" stroke="#9a32cd" stroke-dasharray="5,2" d="M713.808,-459C765.442,-459 835.348,-459 897,-459 897,-459 897,-459 1546,-459 1641.12,-459 1675.71,-457.802 1752,-401 1806.83,-360.177 1841.42,-283.553 1855.6,-246.757"/>
<polygon fill="#9a32cd" stroke="#9a32cd" points="713.732,-455.5 703.732,-459 713.732,-462.5 713.732,-455.5"/>
<text text-anchor="middle" x="1155" y="-462" font-family="FreeSans" font-size="10.00"> myDigKernel</text>
</g>
<!-- Node9&#45;&gt;Node1 -->
<g id="edge11" class="edge"><title>Node9&#45;&gt;Node1</title>
<path fill="none" stroke="#9a32cd" stroke-dasharray="5,2" d="M1655.94,-335.427C1687.84,-331.063 1722.1,-323.608 1752,-311 1787.78,-295.91 1822.2,-266.48 1842.98,-246.529"/>
<polygon fill="#9a32cd" stroke="#9a32cd" points="1655.16,-331.999 1645.68,-336.739 1656.05,-338.943 1655.16,-331.999"/>
<text text-anchor="middle" x="1708" y="-338" font-family="FreeSans" font-size="10.00"> myKernelsSet</text>
</g>
<!-- Node10 -->
<g id="node10" class="node"><title>Node10</title>
<g id="a_node10"><a xlink:href="classDGtal_1_1DigitalSetByAssociativeContainer.html" target="_top" xlink:title="Aim: A wrapper class around a STL associative container for storing sets of digital points within som...">
<polygon fill="white" stroke="black" points="1062.5,-329 1062.5,-359 1247.5,-359 1247.5,-329 1062.5,-329"/>
<text text-anchor="start" x="1070.5" y="-347" font-family="FreeSans" font-size="10.00">DGtal::DigitalSetByAssociative</text>
<text text-anchor="middle" x="1155" y="-336" font-family="FreeSans" font-size="10.00">Container&lt; TDomain, TContainer &gt;</text>
</a>
</g>
</g>
<!-- Node10&#45;&gt;Node9 -->
<g id="edge12" class="edge"><title>Node10&#45;&gt;Node9</title>
<path fill="none" stroke="#9a32cd" stroke-dasharray="5,2" d="M1257.71,-337.295C1260.5,-337.186 1263.27,-337.087 1266,-337 1325.1,-335.121 1391.29,-335.957 1444.26,-337.339"/>
<polygon fill="#9a32cd" stroke="#9a32cd" points="1257.35,-333.807 1247.51,-337.734 1257.65,-340.8 1257.35,-333.807"/>
<text text-anchor="middle" x="1346" y="-340" font-family="FreeSans" font-size="10.00"> elements</text>
</g>
<!-- Node11 -->
<g id="node11" class="node"><title>Node11</title>
<g id="a_node11"><a xlink:href="classDGtal_1_1CowPtr.html" target="_top" xlink:title="DGtal::CowPtr\&lt; Domain \&gt;">
<polygon fill="white" stroke="black" points="826.5,-334.5 826.5,-353.5 969.5,-353.5 969.5,-334.5 826.5,-334.5"/>
<text text-anchor="middle" x="898" y="-341.5" font-family="FreeSans" font-size="10.00">DGtal::CowPtr&lt; Domain &gt;</text>
</a>
</g>
</g>
<!-- Node11&#45;&gt;Node10 -->
<g id="edge13" class="edge"><title>Node11&#45;&gt;Node10</title>
<path fill="none" stroke="#9a32cd" stroke-dasharray="5,2" d="M979.931,-344C1006.07,-344 1035.24,-344 1062.12,-344"/>
<polygon fill="#9a32cd" stroke="#9a32cd" points="979.693,-340.5 969.693,-344 979.693,-347.5 979.693,-340.5"/>
<text text-anchor="middle" x="1016" y="-347" font-family="FreeSans" font-size="10.00"> myDomain</text>
</g>
<!-- Node12&#45;&gt;Node11 -->
<g id="edge14" class="edge"><title>Node12&#45;&gt;Node11</title>
<path fill="none" stroke="#9a32cd" stroke-dasharray="5,2" d="M703.523,-345.494C740.914,-345.205 787.807,-344.843 826.063,-344.548"/>
<polygon fill="#9a32cd" stroke="#9a32cd" points="703.217,-341.996 693.244,-345.573 703.271,-348.996 703.217,-341.996"/>
<text text-anchor="middle" x="776" y="-349" font-family="FreeSans" font-size="10.00"> myPtr</text>
</g>
<!-- Node13 -->
<g id="node13" class="node"><title>Node13</title>
<g id="a_node13"><a xlink:href="classDGtal_1_1CowPtr.html" target="_top" xlink:title="Aim: Copy on write shared pointer. ">
<polygon fill="white" stroke="black" points="582,-380.5 582,-399.5 692,-399.5 692,-380.5 582,-380.5"/>
<text text-anchor="middle" x="637" y="-387.5" font-family="FreeSans" font-size="10.00">DGtal::CowPtr&lt; T &gt;</text>
</a>
</g>
</g>
<!-- Node13&#45;&gt;Node11 -->
<g id="edge17" class="edge"><title>Node13&#45;&gt;Node11</title>
<path fill="none" stroke="orange" stroke-dasharray="5,2" d="M702.102,-379.373C733.966,-374.012 773.04,-367.32 808,-361 821.003,-358.649 835.055,-356.011 848.068,-353.527"/>
<polygon fill="orange" stroke="orange" points="701.307,-375.957 692.024,-381.064 702.466,-382.86 701.307,-375.957"/>
<text text-anchor="middle" x="776" y="-375" font-family="FreeSans" font-size="10.00"> &lt; Domain &gt;</text>
</g>
<!-- Node14 -->
<g id="node14" class="node"><title>Node14</title>
<polygon fill="white" stroke="#bfbfbf" points="864,-372.5 864,-391.5 932,-391.5 932,-372.5 864,-372.5"/>
<text text-anchor="middle" x="898" y="-379.5" font-family="FreeSans" font-size="10.00">TContainer</text>
</g>
<!-- Node14&#45;&gt;Node10 -->
<g id="edge18" class="edge"><title>Node14&#45;&gt;Node10</title>
<path fill="none" stroke="#9a32cd" stroke-dasharray="5,2" d="M942.23,-375.558C975.039,-370.669 1021.33,-363.77 1062.27,-357.67"/>
<polygon fill="#9a32cd" stroke="#9a32cd" points="941.45,-372.135 932.075,-377.071 942.482,-379.059 941.45,-372.135"/>
<text text-anchor="middle" x="1016" y="-372" font-family="FreeSans" font-size="10.00"> mySet</text>
</g>
<!-- Node15&#45;&gt;Node1 -->
<g id="edge20" class="edge"><title>Node15&#45;&gt;Node1</title>
<path fill="none" stroke="#9a32cd" stroke-dasharray="5,2" d="M735.959,-246.452C784.406,-248.291 843.766,-250 897,-250 897,-250 897,-250 1546,-250 1621.48,-250 1706.77,-243.152 1769.86,-236.771"/>
<polygon fill="#9a32cd" stroke="#9a32cd" points="735.92,-242.948 725.792,-246.059 735.649,-249.943 735.92,-242.948"/>
<text text-anchor="middle" x="1155" y="-253" font-family="FreeSans" font-size="10.00"> myShapePointFunctor</text>
</g>
<!-- Node16&#45;&gt;Node1 -->
<g id="edge23" class="edge"><title>Node16&#45;&gt;Node1</title>
<path fill="none" stroke="#9a32cd" stroke-dasharray="5,2" d="M704.68,-193.988C756.953,-198.167 831.55,-203 897,-203 897,-203 897,-203 1546,-203 1621.46,-203 1706.75,-209.563 1769.85,-215.677"/>
<polygon fill="#9a32cd" stroke="#9a32cd" points="704.784,-190.485 694.533,-193.162 704.216,-197.462 704.784,-190.485"/>
<text text-anchor="middle" x="1155" y="-206" font-family="FreeSans" font-size="10.00"> myKernel</text>
</g>
<!-- Node17 -->
<g id="node17" class="node"><title>Node17</title>
<g id="a_node17"><a xlink:href="classDGtal_1_1CountedConstPtrOrConstPtr.html" target="_top" xlink:title="DGtal::CountedConstPtrOr\lConstPtr\&lt; PointPredicate \&gt;">
<polygon fill="white" stroke="black" points="1470.5,-140 1470.5,-170 1619.5,-170 1619.5,-140 1470.5,-140"/>
<text text-anchor="start" x="1478.5" y="-158" font-family="FreeSans" font-size="10.00">DGtal::CountedConstPtrOr</text>
<text text-anchor="middle" x="1545" y="-147" font-family="FreeSans" font-size="10.00">ConstPtr&lt; PointPredicate &gt;</text>
</a>
</g>
</g>
<!-- Node17&#45;&gt;Node1 -->
<g id="edge26" class="edge"><title>Node17&#45;&gt;Node1</title>
<path fill="none" stroke="#9a32cd" stroke-dasharray="5,2" d="M1630.35,-158.748C1668.05,-161.866 1712.74,-167.569 1752,-178 1776.55,-184.523 1802.69,-195.603 1823.44,-205.475"/>
<polygon fill="#9a32cd" stroke="#9a32cd" points="1630.15,-155.222 1619.91,-157.935 1629.61,-162.201 1630.15,-155.222"/>
<text text-anchor="middle" x="1708" y="-181" font-family="FreeSans" font-size="10.00"> myPointPredicate</text>
</g>
<!-- Node18 -->
<g id="node18" class="node"><title>Node18</title>
<g id="a_node18"><a xlink:href="classDGtal_1_1CountedConstPtrOrConstPtr.html" target="_top" xlink:title="Aim: Smart or simple const pointer on T. It can be a smart pointer based on reference counts or a sim...">
<polygon fill="white" stroke="black" points="1083.5,-136 1083.5,-166 1226.5,-166 1226.5,-136 1083.5,-136"/>
<text text-anchor="start" x="1091.5" y="-154" font-family="FreeSans" font-size="10.00">DGtal::CountedConstPtrOr</text>
<text text-anchor="middle" x="1155" y="-143" font-family="FreeSans" font-size="10.00">ConstPtr&lt; T &gt;</text>
</a>
</g>
</g>
<!-- Node18&#45;&gt;Node17 -->
<g id="edge27" class="edge"><title>Node18&#45;&gt;Node17</title>
<path fill="none" stroke="orange" stroke-dasharray="5,2" d="M1237.08,-151.836C1305.92,-152.546 1403.88,-153.555 1470.47,-154.242"/>
<polygon fill="orange" stroke="orange" points="1236.75,-148.332 1226.71,-151.729 1236.68,-155.332 1236.75,-148.332"/>
<text text-anchor="middle" x="1346" y="-157" font-family="FreeSans" font-size="10.00"> &lt; PointPredicate &gt;</text>
</g>
<!-- Node19&#45;&gt;Node1 -->
<g id="edge28" class="edge"><title>Node19&#45;&gt;Node1</title>
<path fill="none" stroke="#9a32cd" stroke-dasharray="5,2" d="M714.603,-106.549C766.158,-106.284 835.664,-106 897,-106 897,-106 897,-106 1546,-106 1640.54,-106 1665.11,-121.746 1752,-159 1781.38,-171.596 1812.32,-190.833 1834.05,-205.468"/>
<polygon fill="#9a32cd" stroke="#9a32cd" points="714.521,-103.049 704.539,-106.602 714.557,-110.049 714.521,-103.049"/>
<text text-anchor="middle" x="1155" y="-109" font-family="FreeSans" font-size="10.00"> myShapeSpelFunctor</text>
</g>
<!-- Node20&#45;&gt;Node1 -->
<g id="edge31" class="edge"><title>Node20&#45;&gt;Node1</title>
<path fill="none" stroke="#9a32cd" stroke-dasharray="5,2" d="M732.558,-58.5402C781.62,-58.7761 842.531,-59 897,-59 897,-59 897,-59 1546,-59 1641.49,-59 1669.38,-72.1312 1752,-120 1790.96,-142.576 1826.86,-181.54 1846.75,-205.416"/>
<polygon fill="#9a32cd" stroke="#9a32cd" points="732.293,-55.0389 722.276,-58.4897 732.258,-62.0389 732.293,-55.0389"/>
<text text-anchor="middle" x="1155" y="-62" font-family="FreeSans" font-size="10.00"> myShapeDomain</text>
</g>
<!-- Node21 -->
<g id="node21" class="node"><title>Node21</title>
<g id="a_node21"><a xlink:href="classDGtal_1_1functors_1_1ConstValueCell.html" target="_top" xlink:title="Aim: Define a simple functor that returns a constant quantity (0 by default). ">
<polygon fill="white" stroke="black" points="1470.5,-0 1470.5,-30 1619.5,-30 1619.5,-0 1470.5,-0"/>
<text text-anchor="start" x="1478.5" y="-18" font-family="FreeSans" font-size="10.00">DGtal::functors::ConstValue</text>
<text text-anchor="middle" x="1545" y="-7" font-family="FreeSans" font-size="10.00">Cell&lt; TQuantity, TCell &gt;</text>
</a>
</g>
</g>
<!-- Node21&#45;&gt;Node1 -->
<g id="edge34" class="edge"><title>Node21&#45;&gt;Node1</title>
<path fill="none" stroke="#9a32cd" stroke-dasharray="5,2" d="M1630.18,-5.69357C1669.94,-5.35848 1716.38,-11.2037 1752,-34 1815.24,-74.4714 1846.54,-164.689 1857.87,-205.385"/>
<polygon fill="#9a32cd" stroke="#9a32cd" points="1629.88,-2.19913 1619.96,-5.91447 1630.03,-9.19749 1629.88,-2.19913"/>
<text text-anchor="middle" x="1708" y="-37" font-family="FreeSans" font-size="10.00"> myKernelFunctor</text>
</g>
</g>
</svg>
