<?xml version="1.0" encoding="UTF-8" standalone="no"?>
<!DOCTYPE svg PUBLIC "-//W3C//DTD SVG 1.1//EN"
 "http://www.w3.org/Graphics/SVG/1.1/DTD/svg11.dtd">
<!-- Generated by graphviz version 2.38.0 (20140413.2041)
 -->
<!-- Title: DGtal::TangentAngleFromDSSEstimator&lt; DSSComputer &gt; Pages: 1 -->
<svg width="815pt" height="51pt"
 viewBox="0.00 0.00 815.00 51.00" xmlns="http://www.w3.org/2000/svg" xmlns:xlink="http://www.w3.org/1999/xlink">
<g id="graph0" class="graph" transform="scale(1 1) rotate(0) translate(4 47)">
<title>DGtal::TangentAngleFromDSSEstimator&lt; DSSComputer &gt;</title>
<polygon fill="white" stroke="none" points="-4,4 -4,-47 811,-47 811,4 -4,4"/>
<!-- Node0 -->
<g id="node1" class="node"><title>Node0</title>
<polygon fill="#bfbfbf" stroke="black" points="601,-6 601,-36 807,-36 807,-6 601,-6"/>
<text text-anchor="start" x="609" y="-24" font-family="FreeSans" font-size="10.00">DGtal::TangentAngleFromDSSEstimator</text>
<text text-anchor="middle" x="704" y="-13" font-family="FreeSans" font-size="10.00">&lt; DSSComputer &gt;</text>
</g>
<!-- Node1 -->
<g id="node2" class="node"><title>Node1</title>
<g id="a_node2"><a xlink:href="classDGtal_1_1detail_1_1PosIndepScaleIndepSCEstimator.html" target="_top" xlink:title="DGtal::detail::PosIndepScale\lIndepSCEstimator\&lt; DSSComputer,\l detail::TangentAngleFromDSS \&gt;">
<polygon fill="white" stroke="black" points="378,-0.5 378,-41.5 564,-41.5 564,-0.5 378,-0.5"/>
<text text-anchor="start" x="386" y="-29.5" font-family="FreeSans" font-size="10.00">DGtal::detail::PosIndepScale</text>
<text text-anchor="start" x="386" y="-18.5" font-family="FreeSans" font-size="10.00">IndepSCEstimator&lt; DSSComputer,</text>
<text text-anchor="middle" x="471" y="-7.5" font-family="FreeSans" font-size="10.00"> detail::TangentAngleFromDSS &gt;</text>
</a>
</g>
</g>
<!-- Node1&#45;&gt;Node0 -->
<g id="edge1" class="edge"><title>Node1&#45;&gt;Node0</title>
<path fill="none" stroke="midnightblue" d="M574.544,-21C583.326,-21 592.209,-21 600.987,-21"/>
<polygon fill="midnightblue" stroke="midnightblue" points="574.293,-17.5001 564.293,-21 574.293,-24.5001 574.293,-17.5001"/>
</g>
<!-- Node2 -->
<g id="node3" class="node"><title>Node2</title>
<g id="a_node3"><a xlink:href="classDGtal_1_1detail_1_1PosIndepScaleIndepSCEstimator.html" target="_top" xlink:title="DGtal::detail::PosIndepScale\lIndepSCEstimator\&lt; TSegmentComputer,\l Functor, ReturnType \&gt;">
<polygon fill="white" stroke="black" points="0,-0.5 0,-41.5 215,-41.5 215,-0.5 0,-0.5"/>
<text text-anchor="start" x="8" y="-29.5" font-family="FreeSans" font-size="10.00">DGtal::detail::PosIndepScale</text>
<text text-anchor="start" x="8" y="-18.5" font-family="FreeSans" font-size="10.00">IndepSCEstimator&lt; TSegmentComputer,</text>
<text text-anchor="middle" x="107.5" y="-7.5" font-family="FreeSans" font-size="10.00"> Functor, ReturnType &gt;</text>
</a>
</g>
</g>
<!-- Node2&#45;&gt;Node1 -->
<g id="edge2" class="edge"><title>Node2&#45;&gt;Node1</title>
<path fill="none" stroke="orange" stroke-dasharray="5,2" d="M225.11,-21C274.528,-21 331.296,-21 377.726,-21"/>
<polygon fill="orange" stroke="orange" points="225.007,-17.5001 215.007,-21 225.007,-24.5001 225.007,-17.5001"/>
<text text-anchor="start" x="233" y="-35" font-family="FreeSans" font-size="10.00"> &lt; DSSComputer, detail</text>
<text text-anchor="middle" x="296.5" y="-24" font-family="FreeSans" font-size="10.00">::TangentAngleFromDSS &gt;</text>
</g>
</g>
</svg>
