<?xml version="1.0" encoding="UTF-8" standalone="no"?>
<!DOCTYPE svg PUBLIC "-//W3C//DTD SVG 1.1//EN"
 "http://www.w3.org/Graphics/SVG/1.1/DTD/svg11.dtd">
<!-- Generated by graphviz version 2.38.0 (20140413.2041)
 -->
<!-- Title: boost::graph_traits&lt; DGtal::DigitalSurface&lt; TDigitalSurfaceContainer &gt; &gt;::edge_iterator Pages: 1 -->
<svg width="154pt" height="150pt"
 viewBox="0.00 0.00 154.00 150.00" xmlns="http://www.w3.org/2000/svg" xmlns:xlink="http://www.w3.org/1999/xlink">
<g id="graph0" class="graph" transform="scale(1 1) rotate(0) translate(4 146)">
<title>boost::graph_traits&lt; DGtal::DigitalSurface&lt; TDigitalSurfaceContainer &gt; &gt;::edge_iterator</title>
<polygon fill="white" stroke="none" points="-4,4 -4,-146 150,-146 150,4 -4,4"/>
<!-- Node0 -->
<g id="node1" class="node"><title>Node0</title>
<polygon fill="#bfbfbf" stroke="black" points="0,-0.5 0,-52.5 146,-52.5 146,-0.5 0,-0.5"/>
<text text-anchor="start" x="8" y="-40.5" font-family="FreeSans" font-size="10.00">boost::graph_traits</text>
<text text-anchor="start" x="8" y="-29.5" font-family="FreeSans" font-size="10.00">&lt; DGtal::DigitalSurface</text>
<text text-anchor="start" x="8" y="-18.5" font-family="FreeSans" font-size="10.00">&lt; TDigitalSurfaceContainer</text>
<text text-anchor="middle" x="73" y="-7.5" font-family="FreeSans" font-size="10.00"> &gt; &gt;::edge_iterator</text>
</g>
<!-- Node1 -->
<g id="node2" class="node"><title>Node1</title>
<polygon fill="white" stroke="#bfbfbf" points="10,-89.5 10,-141.5 136,-141.5 136,-89.5 10,-89.5"/>
<text text-anchor="start" x="18" y="-129.5" font-family="FreeSans" font-size="10.00">boost::iterator_facade</text>
<text text-anchor="start" x="18" y="-118.5" font-family="FreeSans" font-size="10.00">&lt; edge_iterator, Arc,</text>
<text text-anchor="start" x="18" y="-107.5" font-family="FreeSans" font-size="10.00"> forward_traversal_tag,</text>
<text text-anchor="middle" x="73" y="-96.5" font-family="FreeSans" font-size="10.00"> const Arc &amp; &gt;</text>
</g>
<!-- Node1&#45;&gt;Node0 -->
<g id="edge1" class="edge"><title>Node1&#45;&gt;Node0</title>
<path fill="none" stroke="midnightblue" d="M73,-79.1908C73,-70.2824 73,-60.8986 73,-52.6075"/>
<polygon fill="midnightblue" stroke="midnightblue" points="69.5001,-79.336 73,-89.336 76.5001,-79.336 69.5001,-79.336"/>
</g>
</g>
</svg>
