<?xml version="1.0" encoding="UTF-8" standalone="no"?>
<!DOCTYPE svg PUBLIC "-//W3C//DTD SVG 1.1//EN"
 "http://www.w3.org/Graphics/SVG/1.1/DTD/svg11.dtd">
<!-- Generated by graphviz version 2.38.0 (20140413.2041)
 -->
<!-- Title: DGtal::StandardDSS4&lt; TCoordinate, TInteger &gt; Pages: 1 -->
<!--zoomable 308 -->
<svg id="main" version="1.1" xmlns="http://www.w3.org/2000/svg" xmlns:xlink="http://www.w3.org/1999/xlink" xml:space="preserve" onload="init(evt)">
<style type="text/css"><![CDATA[
.edge:hover path { stroke: red; }
.edge:hover polygon { stroke: red; fill: red; }
]]></style>
<script type="text/javascript"><![CDATA[
var edges = document.getElementsByTagName('g');
if (edges && edges.length) {
  for (var i=0;i<edges.length;i++) {
    if (edges[i].id.substr(0,4)=='edge') {
      edges[i].setAttribute('class','edge');
    }
  }
}
]]></script>
        <defs>
                <circle id="rim" cx="0" cy="0" r="7"/>
                <circle id="rim2" cx="0" cy="0" r="3.5"/>
                <g id="zoomPlus">
                        <use xlink:href="#rim" fill="#404040">
                                <set attributeName="fill" to="#808080" begin="zoomplus.mouseover" end="zoomplus.mouseout"/>
                        </use>
                        <path d="M-4,0h8M0,-4v8" fill="none" stroke="white" stroke-width="1.5" pointer-events="none"/>
                </g>
                <g id="zoomMin">
                        <use xlink:href="#rim" fill="#404040">
                                <set attributeName="fill" to="#808080" begin="zoomminus.mouseover" end="zoomminus.mouseout"/>
                        </use>
                        <path d="M-4,0h8" fill="none" stroke="white" stroke-width="1.5" pointer-events="none"/>
                </g>
                <g id="dirArrow">
                        <path fill="none" stroke="white" stroke-width="1.5" d="M0,-3.0v7 M-2.5,-0.5L0,-3.0L2.5,-0.5"/>
                </g>
               <g id="resetDef">
                       <use xlink:href="#rim2" fill="#404040">
                               <set attributeName="fill" to="#808080" begin="reset.mouseover" end="reset.mouseout"/>
                       </use>
               </g>
        </defs>

<script type="text/javascript">
var viewWidth = 1515;
var viewHeight = 308;
var sectionId = 'dynsection-1';
</script>
<script xlink:href="svgpan.js"/>
<svg id="graph" class="graph">
<g id="viewport">
<title>DGtal::StandardDSS4&lt; TCoordinate, TInteger &gt;</title>
<polygon fill="white" stroke="none" points="-4,4 -4,-304 1511,-304 1511,4 -4,4"/>
<!-- Node3 -->
<g id="node1" class="node"><title>Node3</title>
<polygon fill="#bfbfbf" stroke="black" points="1366,-88 1366,-118 1507,-118 1507,-88 1366,-88"/>
<text text-anchor="start" x="1374" y="-106" font-family="FreeSans" font-size="10.00">DGtal::StandardDSS4</text>
<text text-anchor="middle" x="1436.5" y="-95" font-family="FreeSans" font-size="10.00">&lt; TCoordinate, TInteger &gt;</text>
</g>
<!-- Node4 -->
<g id="node2" class="node"><title>Node4</title>
<g id="a_node2"><a xlink:href="classDGtal_1_1ArithmeticalDSS.html" target="_top" xlink:title="DGtal::ArithmeticalDSS\l\&lt; TCoordinate, TInteger, 4 \&gt;">
<polygon fill="white" stroke="black" points="1176,-88 1176,-118 1329,-118 1329,-88 1176,-88"/>
<text text-anchor="start" x="1184" y="-106" font-family="FreeSans" font-size="10.00">DGtal::ArithmeticalDSS</text>
<text text-anchor="middle" x="1252.5" y="-95" font-family="FreeSans" font-size="10.00">&lt; TCoordinate, TInteger, 4 &gt;</text>
</a>
</g>
</g>
<!-- Node4&#45;&gt;Node3 -->
<g id="edge1" class="edge"><title>Node4&#45;&gt;Node3</title>
<path fill="none" stroke="midnightblue" d="M1339.18,-103C1348.16,-103 1357.2,-103 1365.96,-103"/>
<polygon fill="midnightblue" stroke="midnightblue" points="1339.1,-99.5001 1329.1,-103 1339.1,-106.5 1339.1,-99.5001"/>
</g>
<!-- Node5 -->
<g id="node3" class="node"><title>Node5</title>
<g id="a_node3"><a xlink:href="classDGtal_1_1PointVector.html" target="_top" xlink:title="Aim: Implements basic operations that will be used in Point and Vector classes. ">
<polygon fill="white" stroke="black" points="148,-108.5 148,-149.5 274,-149.5 274,-108.5 148,-108.5"/>
<text text-anchor="start" x="156" y="-137.5" font-family="FreeSans" font-size="10.00">DGtal::PointVector</text>
<text text-anchor="start" x="156" y="-126.5" font-family="FreeSans" font-size="10.00">&lt; dim, TEuclideanRing,</text>
<text text-anchor="middle" x="211" y="-115.5" font-family="FreeSans" font-size="10.00"> TContainer &gt;</text>
</a>
</g>
</g>
<!-- Node5&#45;&gt;Node4 -->
<g id="edge2" class="edge"><title>Node5&#45;&gt;Node4</title>
<path fill="none" stroke="#9a32cd" stroke-dasharray="5,2" d="M240.59,-101.522C283.142,-63.6401 367.306,-0 452.5,-0 452.5,-0 452.5,-0 934.5,-0 1046.76,-0 1170.92,-59.1508 1224.48,-87.802"/>
<polygon fill="#9a32cd" stroke="#9a32cd" points="238.198,-98.9656 233.138,-108.274 242.898,-104.153 238.198,-98.9656"/>
<text text-anchor="middle" x="729.5" y="-58" font-family="FreeSans" font-size="10.00"> myUl</text>
<text text-anchor="middle" x="729.5" y="-47" font-family="FreeSans" font-size="10.00">myLf</text>
<text text-anchor="middle" x="729.5" y="-36" font-family="FreeSans" font-size="10.00">myF</text>
<text text-anchor="middle" x="729.5" y="-25" font-family="FreeSans" font-size="10.00">myLl</text>
<text text-anchor="middle" x="729.5" y="-14" font-family="FreeSans" font-size="10.00">myUf</text>
<text text-anchor="middle" x="729.5" y="-3" font-family="FreeSans" font-size="10.00">myL</text>
</g>
<!-- Node5&#45;&gt;Node5 -->
<g id="edge4" class="edge"><title>Node5&#45;&gt;Node5</title>
<path fill="none" stroke="#9a32cd" stroke-dasharray="5,2" d="M193.452,-159.856C196.061,-164.697 201.911,-168 211,-168 225.543,-168 231.792,-159.543 229.747,-149.864"/>
<polygon fill="#9a32cd" stroke="#9a32cd" points="196.919,-159.376 192.253,-149.864 189.969,-160.21 196.919,-159.376"/>
<text text-anchor="middle" x="211" y="-171" font-family="FreeSans" font-size="10.00"> zero</text>
</g>
<!-- Node7 -->
<g id="node5" class="node"><title>Node7</title>
<g id="a_node5"><a xlink:href="classDGtal_1_1ArithmeticalDSL.html" target="_top" xlink:title="DGtal::ArithmeticalDSL\l\&lt; Coordinate, Integer,\l adjacency \&gt;">
<polygon fill="white" stroke="black" points="666,-151.5 666,-192.5 793,-192.5 793,-151.5 666,-151.5"/>
<text text-anchor="start" x="674" y="-180.5" font-family="FreeSans" font-size="10.00">DGtal::ArithmeticalDSL</text>
<text text-anchor="start" x="674" y="-169.5" font-family="FreeSans" font-size="10.00">&lt; Coordinate, Integer,</text>
<text text-anchor="middle" x="729.5" y="-158.5" font-family="FreeSans" font-size="10.00"> adjacency &gt;</text>
</a>
</g>
</g>
<!-- Node5&#45;&gt;Node7 -->
<g id="edge6" class="edge"><title>Node5&#45;&gt;Node7</title>
<path fill="none" stroke="#9a32cd" stroke-dasharray="5,2" d="M284.421,-136.95C350.436,-143.997 450.68,-154.196 538,-161 580.606,-164.32 628.645,-167.087 665.823,-169.016"/>
<polygon fill="#9a32cd" stroke="#9a32cd" points="284.443,-133.433 274.127,-135.848 283.698,-140.393 284.443,-133.433"/>
<text text-anchor="middle" x="453.5" y="-162" font-family="FreeSans" font-size="10.00"> myShift</text>
</g>
<!-- Node8 -->
<g id="node6" class="node"><title>Node8</title>
<g id="a_node6"><a xlink:href="classDGtal_1_1ArithmeticalDSL.html" target="_top" xlink:title="Aim: This class represents a naive (resp. standard) digital straight line (DSL), ie. the set of digital points &#160;such that &#160;with , &#160;and &#160;(resp. ). Note that any DSL such that &#160;(resp. ) is simply 8&#45;connected (resp. 4&#45;connected). ">
<polygon fill="white" stroke="black" points="387,-212.5 387,-253.5 520,-253.5 520,-212.5 387,-212.5"/>
<text text-anchor="start" x="395" y="-241.5" font-family="FreeSans" font-size="10.00">DGtal::ArithmeticalDSL</text>
<text text-anchor="start" x="395" y="-230.5" font-family="FreeSans" font-size="10.00">&lt; TCoordinate, TInteger,</text>
<text text-anchor="middle" x="453.5" y="-219.5" font-family="FreeSans" font-size="10.00"> adjacency &gt;</text>
</a>
</g>
</g>
<!-- Node5&#45;&gt;Node8 -->
<g id="edge9" class="edge"><title>Node5&#45;&gt;Node8</title>
<path fill="none" stroke="#9a32cd" stroke-dasharray="5,2" d="M244.498,-155.919C258.453,-166.452 275.357,-177.92 292,-186 321.776,-200.456 356.86,-211.357 386.621,-219.003"/>
<polygon fill="#9a32cd" stroke="#9a32cd" points="246.272,-152.866 236.219,-149.52 241.991,-158.404 246.272,-152.866"/>
<text text-anchor="middle" x="330.5" y="-216" font-family="FreeSans" font-size="10.00"> myShift</text>
</g>
<!-- Node11 -->
<g id="node9" class="node"><title>Node11</title>
<g id="a_node9"><a xlink:href="classDGtal_1_1ArithmeticalDSS.html" target="_top" xlink:title="Aim: This class represents a naive (resp. standard) digital straight segment (DSS), ie. the sequence of simply 8&#45; (resp. 4&#45;)connected digital points contained in a naive (resp. standard) digital straight line (DSL) between two points of it. ">
<polygon fill="white" stroke="black" points="867,-82.5 867,-123.5 1000,-123.5 1000,-82.5 867,-82.5"/>
<text text-anchor="start" x="875" y="-111.5" font-family="FreeSans" font-size="10.00">DGtal::ArithmeticalDSS</text>
<text text-anchor="start" x="875" y="-100.5" font-family="FreeSans" font-size="10.00">&lt; TCoordinate, TInteger,</text>
<text text-anchor="middle" x="933.5" y="-89.5" font-family="FreeSans" font-size="10.00"> adjacency &gt;</text>
</a>
</g>
</g>
<!-- Node5&#45;&gt;Node11 -->
<g id="edge12" class="edge"><title>Node5&#45;&gt;Node11</title>
<path fill="none" stroke="#9a32cd" stroke-dasharray="5,2" d="M284.284,-118.135C350.206,-108.808 450.392,-96.0888 538,-91 586.807,-88.165 599.122,-89.9696 648,-91 723.126,-92.5837 809.338,-96.5172 866.985,-99.4518"/>
<polygon fill="#9a32cd" stroke="#9a32cd" points="283.411,-114.724 274.005,-119.601 284.399,-121.654 283.411,-114.724"/>
<text text-anchor="middle" x="593" y="-149" font-family="FreeSans" font-size="10.00"> myUl</text>
<text text-anchor="middle" x="593" y="-138" font-family="FreeSans" font-size="10.00">myLf</text>
<text text-anchor="middle" x="593" y="-127" font-family="FreeSans" font-size="10.00">myF</text>
<text text-anchor="middle" x="593" y="-116" font-family="FreeSans" font-size="10.00">myLl</text>
<text text-anchor="middle" x="593" y="-105" font-family="FreeSans" font-size="10.00">myUf</text>
<text text-anchor="middle" x="593" y="-94" font-family="FreeSans" font-size="10.00">myL</text>
</g>
<!-- Node6 -->
<g id="node4" class="node"><title>Node6</title>
<polygon fill="white" stroke="#bfbfbf" points="0,-119.5 0,-138.5 68,-138.5 68,-119.5 0,-119.5"/>
<text text-anchor="middle" x="34" y="-126.5" font-family="FreeSans" font-size="10.00">TContainer</text>
</g>
<!-- Node6&#45;&gt;Node5 -->
<g id="edge3" class="edge"><title>Node6&#45;&gt;Node5</title>
<path fill="none" stroke="#9a32cd" stroke-dasharray="5,2" d="M78.5018,-129C99.4065,-129 124.84,-129 147.749,-129"/>
<polygon fill="#9a32cd" stroke="#9a32cd" points="78.3281,-125.5 68.3281,-129 78.328,-132.5 78.3281,-125.5"/>
<text text-anchor="middle" x="108" y="-132" font-family="FreeSans" font-size="10.00"> myArray</text>
</g>
<!-- Node7&#45;&gt;Node4 -->
<g id="edge5" class="edge"><title>Node7&#45;&gt;Node4</title>
<path fill="none" stroke="#9a32cd" stroke-dasharray="5,2" d="M803.331,-163.552C888.493,-153.499 1033.65,-135.823 1158,-118 1163.78,-117.172 1169.75,-116.285 1175.75,-115.372"/>
<polygon fill="#9a32cd" stroke="#9a32cd" points="802.77,-160.093 793.248,-164.739 803.589,-167.045 802.77,-160.093"/>
<text text-anchor="middle" x="933.5" y="-158" font-family="FreeSans" font-size="10.00"> myDSL</text>
</g>
<!-- Node7&#45;&gt;Node11 -->
<g id="edge13" class="edge"><title>Node7&#45;&gt;Node11</title>
<path fill="none" stroke="#9a32cd" stroke-dasharray="5,2" d="M798.94,-148.146C803.019,-146.739 807.063,-145.349 811,-144 830.586,-137.289 851.977,-130.043 871.275,-123.537"/>
<polygon fill="#9a32cd" stroke="#9a32cd" points="797.7,-144.872 789.391,-151.446 799.986,-151.488 797.7,-144.872"/>
<text text-anchor="middle" x="830" y="-147" font-family="FreeSans" font-size="10.00"> myDSL</text>
</g>
<!-- Node8&#45;&gt;Node7 -->
<g id="edge7" class="edge"><title>Node8&#45;&gt;Node7</title>
<path fill="none" stroke="orange" stroke-dasharray="5,2" d="M529.911,-216.211C572.596,-206.709 625.354,-194.963 665.761,-185.967"/>
<polygon fill="orange" stroke="orange" points="529.13,-212.799 520.13,-218.389 530.651,-219.632 529.13,-212.799"/>
<text text-anchor="start" x="538" y="-227" font-family="FreeSans" font-size="10.00"> &lt; Coordinate, Integer,</text>
<text text-anchor="middle" x="593" y="-216" font-family="FreeSans" font-size="10.00"> adjacency &gt;</text>
</g>
<!-- Node9 -->
<g id="node7" class="node"><title>Node9</title>
<polygon fill="white" stroke="#bfbfbf" points="174,-277.5 174,-296.5 248,-296.5 248,-277.5 174,-277.5"/>
<text text-anchor="middle" x="211" y="-284.5" font-family="FreeSans" font-size="10.00">TCoordinate</text>
</g>
<!-- Node9&#45;&gt;Node8 -->
<g id="edge8" class="edge"><title>Node9&#45;&gt;Node8</title>
<path fill="none" stroke="#9a32cd" stroke-dasharray="5,2" d="M258.525,-282.776C290.037,-279.285 332.434,-273.355 369,-264 379.936,-261.202 391.425,-257.479 402.262,-253.586"/>
<polygon fill="#9a32cd" stroke="#9a32cd" points="257.852,-279.328 248.279,-283.868 258.594,-286.288 257.852,-279.328"/>
<text text-anchor="middle" x="330.5" y="-292" font-family="FreeSans" font-size="10.00"> myA</text>
<text text-anchor="middle" x="330.5" y="-281" font-family="FreeSans" font-size="10.00">myB</text>
</g>
<!-- Node10 -->
<g id="node8" class="node"><title>Node10</title>
<polygon fill="white" stroke="#bfbfbf" points="183,-232.5 183,-251.5 239,-251.5 239,-232.5 183,-232.5"/>
<text text-anchor="middle" x="211" y="-239.5" font-family="FreeSans" font-size="10.00">TInteger</text>
</g>
<!-- Node10&#45;&gt;Node8 -->
<g id="edge10" class="edge"><title>Node10&#45;&gt;Node8</title>
<path fill="none" stroke="#9a32cd" stroke-dasharray="5,2" d="M249.353,-240.602C285.985,-239.231 342.611,-237.112 386.782,-235.459"/>
<polygon fill="#9a32cd" stroke="#9a32cd" points="248.983,-237.113 239.121,-240.985 249.245,-244.109 248.983,-237.113"/>
<text text-anchor="middle" x="330.5" y="-252" font-family="FreeSans" font-size="10.00"> myLowerBound</text>
<text text-anchor="middle" x="330.5" y="-241" font-family="FreeSans" font-size="10.00">myUpperBound</text>
</g>
<!-- Node11&#45;&gt;Node4 -->
<g id="edge11" class="edge"><title>Node11&#45;&gt;Node4</title>
<path fill="none" stroke="orange" stroke-dasharray="5,2" d="M1010.31,-103C1060.41,-103 1125.82,-103 1175.88,-103"/>
<polygon fill="orange" stroke="orange" points="1010.18,-99.5001 1000.18,-103 1010.18,-106.5 1010.18,-99.5001"/>
<text text-anchor="middle" x="1088" y="-106" font-family="FreeSans" font-size="10.00"> &lt; TCoordinate, TInteger, 4 &gt;</text>
</g>
</g>
</svg>
        <g id="navigator" transform="translate(0 0)" fill="#404254">
                <rect fill="#f2f5e9" fill-opacity="0.5" stroke="#606060" stroke-width=".5" x="0" y="0" width="60" height="60"/>
                <use id="zoomplus" xlink:href="#zoomPlus" x="17" y="9" onmousedown="handleZoom(evt,'in')"/>
                <use id="zoomminus" xlink:href="#zoomMin" x="42" y="9" onmousedown="handleZoom(evt,'out')"/>
                <use id="reset" xlink:href="#resetDef" x="30" y="36" onmousedown="handleReset()"/>
                <g id="arrowUp" xlink:href="#dirArrow" transform="translate(30 24)" onmousedown="handlePan(0,-1)">
                  <use xlink:href="#rim" fill="#404040">
                        <set attributeName="fill" to="#808080" begin="arrowUp.mouseover" end="arrowUp.mouseout"/>
                  </use>
                  <path fill="none" stroke="white" stroke-width="1.5" d="M0,-3.0v7 M-2.5,-0.5L0,-3.0L2.5,-0.5"/>
                </g>
                <g id="arrowRight" xlink:href="#dirArrow" transform="rotate(90) translate(36 -43)" onmousedown="handlePan(1,0)">
                  <use xlink:href="#rim" fill="#404040">
                        <set attributeName="fill" to="#808080" begin="arrowRight.mouseover" end="arrowRight.mouseout"/>
                  </use>
                  <path fill="none" stroke="white" stroke-width="1.5" d="M0,-3.0v7 M-2.5,-0.5L0,-3.0L2.5,-0.5"/>
                </g>
                <g id="arrowDown" xlink:href="#dirArrow" transform="rotate(180) translate(-30 -48)" onmousedown="handlePan(0,1)">
                  <use xlink:href="#rim" fill="#404040">
                        <set attributeName="fill" to="#808080" begin="arrowDown.mouseover" end="arrowDown.mouseout"/>
                  </use>
                  <path fill="none" stroke="white" stroke-width="1.5" d="M0,-3.0v7 M-2.5,-0.5L0,-3.0L2.5,-0.5"/>
                </g>
                <g id="arrowLeft" xlink:href="#dirArrow" transform="rotate(270) translate(-36 17)" onmousedown="handlePan(-1,0)">
                  <use xlink:href="#rim" fill="#404040">
                        <set attributeName="fill" to="#808080" begin="arrowLeft.mouseover" end="arrowLeft.mouseout"/>
                  </use>
                  <path fill="none" stroke="white" stroke-width="1.5" d="M0,-3.0v7 M-2.5,-0.5L0,-3.0L2.5,-0.5"/>
                </g>
        </g>
        <svg viewBox="0 0 15 15" width="100%" height="30px" preserveAspectRatio="xMaxYMin meet">
         <g id="arrow_out" transform="scale(0.3 0.3)">
          <a xlink:href="classDGtal_1_1StandardDSS4__coll__graph_org.svg" target="_base">
           <rect id="button" ry="5" rx="5" y="6" x="6" height="38" width="38"
                fill="#f2f5e9" fill-opacity="0.5" stroke="#606060" stroke-width="1.0"/>
           <path id="arrow"
             d="M 11.500037,31.436501 C 11.940474,20.09759 22.043105,11.32322 32.158766,21.979434 L 37.068811,17.246167 C 37.068811,17.246167 37.088388,32 37.088388,32 L 22.160133,31.978069 C 22.160133,31.978069 26.997745,27.140456 26.997745,27.140456 C 18.528582,18.264221 13.291696,25.230495 11.500037,31.436501 z"
             style="fill:#404040;"/>
          </a>
         </g>
        </svg>
</svg>
