<?xml version="1.0" encoding="UTF-8" standalone="no"?>
<!DOCTYPE svg PUBLIC "-//W3C//DTD SVG 1.1//EN"
 "http://www.w3.org/Graphics/SVG/1.1/DTD/svg11.dtd">
<!-- Generated by graphviz version 2.38.0 (20140413.2041)
 -->
<!-- Title: DGtal::TiledImage&lt; TImageContainer, TImageFactory, TImageCacheReadPolicy, TImageCacheWritePolicy &gt;::TiledIterator Pages: 1 -->
<!--zoomable 214 -->
<svg id="main" version="1.1" xmlns="http://www.w3.org/2000/svg" xmlns:xlink="http://www.w3.org/1999/xlink" xml:space="preserve" onload="init(evt)">
<style type="text/css"><![CDATA[
.edge:hover path { stroke: red; }
.edge:hover polygon { stroke: red; fill: red; }
]]></style>
<script type="text/javascript"><![CDATA[
var edges = document.getElementsByTagName('g');
if (edges && edges.length) {
  for (var i=0;i<edges.length;i++) {
    if (edges[i].id.substr(0,4)=='edge') {
      edges[i].setAttribute('class','edge');
    }
  }
}
]]></script>
        <defs>
                <circle id="rim" cx="0" cy="0" r="7"/>
                <circle id="rim2" cx="0" cy="0" r="3.5"/>
                <g id="zoomPlus">
                        <use xlink:href="#rim" fill="#404040">
                                <set attributeName="fill" to="#808080" begin="zoomplus.mouseover" end="zoomplus.mouseout"/>
                        </use>
                        <path d="M-4,0h8M0,-4v8" fill="none" stroke="white" stroke-width="1.5" pointer-events="none"/>
                </g>
                <g id="zoomMin">
                        <use xlink:href="#rim" fill="#404040">
                                <set attributeName="fill" to="#808080" begin="zoomminus.mouseover" end="zoomminus.mouseout"/>
                        </use>
                        <path d="M-4,0h8" fill="none" stroke="white" stroke-width="1.5" pointer-events="none"/>
                </g>
                <g id="dirArrow">
                        <path fill="none" stroke="white" stroke-width="1.5" d="M0,-3.0v7 M-2.5,-0.5L0,-3.0L2.5,-0.5"/>
                </g>
               <g id="resetDef">
                       <use xlink:href="#rim2" fill="#404040">
                               <set attributeName="fill" to="#808080" begin="reset.mouseover" end="reset.mouseout"/>
                       </use>
               </g>
        </defs>

<script type="text/javascript">
var viewWidth = 878;
var viewHeight = 214;
var sectionId = 'dynsection-1';
</script>
<script xlink:href="svgpan.js"/>
<svg id="graph" class="graph">
<g id="viewport">
<title>DGtal::TiledImage&lt; TImageContainer, TImageFactory, TImageCacheReadPolicy, TImageCacheWritePolicy &gt;::TiledIterator</title>
<polygon fill="white" stroke="none" points="-4,4 -4,-210 874,-210 874,4 -4,4"/>
<!-- Node2 -->
<g id="node1" class="node"><title>Node2</title>
<polygon fill="#bfbfbf" stroke="black" points="664,-60.5 664,-112.5 870,-112.5 870,-60.5 664,-60.5"/>
<text text-anchor="start" x="672" y="-100.5" font-family="FreeSans" font-size="10.00">DGtal::TiledImage&lt;</text>
<text text-anchor="start" x="672" y="-89.5" font-family="FreeSans" font-size="10.00"> TImageContainer, TImageFactory,</text>
<text text-anchor="start" x="672" y="-78.5" font-family="FreeSans" font-size="10.00"> TImageCacheReadPolicy, TImageCache</text>
<text text-anchor="middle" x="767" y="-67.5" font-family="FreeSans" font-size="10.00">WritePolicy &gt;::TiledIterator</text>
</g>
<!-- Node3 -->
<g id="node2" class="node"><title>Node3</title>
<polygon fill="white" stroke="#bfbfbf" points="351.5,-120.5 351.5,-172.5 472.5,-172.5 472.5,-120.5 351.5,-120.5"/>
<text text-anchor="start" x="359.5" y="-160.5" font-family="FreeSans" font-size="10.00">std::iterator&lt; std</text>
<text text-anchor="start" x="359.5" y="-149.5" font-family="FreeSans" font-size="10.00">::bidirectional_iterator</text>
<text text-anchor="start" x="359.5" y="-138.5" font-family="FreeSans" font-size="10.00">_tag, Value, ptrdiff_t,</text>
<text text-anchor="middle" x="412" y="-127.5" font-family="FreeSans" font-size="10.00"> Value *, Value &amp;&gt;</text>
</g>
<!-- Node3&#45;&gt;Node2 -->
<g id="edge1" class="edge"><title>Node3&#45;&gt;Node2</title>
<path fill="none" stroke="midnightblue" d="M482.953,-134.61C534.658,-125.822 605.858,-113.72 663.911,-103.852"/>
<polygon fill="midnightblue" stroke="midnightblue" points="482.154,-131.196 472.882,-136.322 483.327,-138.097 482.154,-131.196"/>
</g>
<!-- Node4 -->
<g id="node3" class="node"><title>Node4</title>
<g id="a_node3"><a xlink:href="classDGtal_1_1HyperRectDomain__Iterator.html" target="_top" xlink:title="Iterator for HyperRectDomain. ">
<polygon fill="white" stroke="black" points="344,-71.5 344,-101.5 480,-101.5 480,-71.5 344,-71.5"/>
<text text-anchor="start" x="352" y="-89.5" font-family="FreeSans" font-size="10.00">DGtal::HyperRectDomain</text>
<text text-anchor="middle" x="412" y="-78.5" font-family="FreeSans" font-size="10.00">_Iterator&lt; TPoint &gt;</text>
</a>
</g>
</g>
<!-- Node4&#45;&gt;Node2 -->
<g id="edge2" class="edge"><title>Node4&#45;&gt;Node2</title>
<path fill="none" stroke="#9a32cd" stroke-dasharray="5,2" d="M490.515,-86.5C541.452,-86.5 608.646,-86.5 663.919,-86.5"/>
<polygon fill="#9a32cd" stroke="#9a32cd" points="490.228,-83.0001 480.227,-86.5 490.227,-90.0001 490.228,-83.0001"/>
<text text-anchor="middle" x="589.5" y="-89.5" font-family="FreeSans" font-size="10.00"> myBlockCoordsIterator</text>
</g>
<!-- Node5 -->
<g id="node4" class="node"><title>Node5</title>
<polygon fill="white" stroke="#bfbfbf" points="0,-109.5 0,-205.5 194,-205.5 194,-109.5 0,-109.5"/>
<text text-anchor="start" x="8" y="-193.5" font-family="FreeSans" font-size="10.00">boost::iterator_facade</text>
<text text-anchor="start" x="8" y="-182.5" font-family="FreeSans" font-size="10.00">&lt; HyperRectDomain_Iterator</text>
<text text-anchor="start" x="8" y="-171.5" font-family="FreeSans" font-size="10.00">&lt; TPoint &gt;, TPoint const,</text>
<text text-anchor="start" x="8" y="-160.5" font-family="FreeSans" font-size="10.00"> std::random_access_iterator</text>
<text text-anchor="start" x="8" y="-149.5" font-family="FreeSans" font-size="10.00">_tag, TPoint const &amp;, std::conditional</text>
<text text-anchor="start" x="8" y="-138.5" font-family="FreeSans" font-size="10.00">&lt; std::is_same&lt; TPoint::Component,</text>
<text text-anchor="start" x="8" y="-127.5" font-family="FreeSans" font-size="10.00"> BigInteger &gt;::value, BigInteger, std</text>
<text text-anchor="middle" x="97" y="-116.5" font-family="FreeSans" font-size="10.00">::ptrdiff_t &gt;::type &gt;</text>
</g>
<!-- Node5&#45;&gt;Node4 -->
<g id="edge3" class="edge"><title>Node5&#45;&gt;Node4</title>
<path fill="none" stroke="midnightblue" d="M204.382,-143.994C233.002,-138.659 263.605,-131.368 291,-121.5 299.61,-118.398 300.48,-114.841 309,-111.5 320.033,-107.173 332.039,-103.432 343.813,-100.258"/>
<polygon fill="midnightblue" stroke="midnightblue" points="203.572,-140.584 194.35,-145.801 204.812,-147.473 203.572,-140.584"/>
</g>
<!-- Node6 -->
<g id="node5" class="node"><title>Node6</title>
<polygon fill="white" stroke="#bfbfbf" points="74,-71 74,-90 120,-90 120,-71 74,-71"/>
<text text-anchor="middle" x="97" y="-78" font-family="FreeSans" font-size="10.00">TPoint</text>
</g>
<!-- Node6&#45;&gt;Node4 -->
<g id="edge4" class="edge"><title>Node6&#45;&gt;Node4</title>
<path fill="none" stroke="#9a32cd" stroke-dasharray="5,2" d="M130.243,-81.1181C180.366,-82.0789 278.047,-83.9514 343.919,-85.2141"/>
<polygon fill="#9a32cd" stroke="#9a32cd" points="130.075,-77.6143 120.01,-80.9219 129.941,-84.613 130.075,-77.6143"/>
<text text-anchor="middle" x="251.5" y="-109.5" font-family="FreeSans" font-size="10.00"> mylower</text>
<text text-anchor="middle" x="251.5" y="-98.5" font-family="FreeSans" font-size="10.00">myupper</text>
<text text-anchor="middle" x="251.5" y="-87.5" font-family="FreeSans" font-size="10.00">myPoint</text>
</g>
<!-- Node7 -->
<g id="node6" class="node"><title>Node7</title>
<g id="a_node6"><a xlink:href="classDGtal_1_1TiledImage.html" target="_top" xlink:title="Aim: implements a tiled image from a &quot;bigger/original&quot; one from an ImageFactory. ">
<polygon fill="white" stroke="black" points="309,-0.5 309,-52.5 515,-52.5 515,-0.5 309,-0.5"/>
<text text-anchor="start" x="317" y="-40.5" font-family="FreeSans" font-size="10.00">DGtal::TiledImage&lt;</text>
<text text-anchor="start" x="317" y="-29.5" font-family="FreeSans" font-size="10.00"> TImageContainer, TImageFactory,</text>
<text text-anchor="start" x="317" y="-18.5" font-family="FreeSans" font-size="10.00"> TImageCacheReadPolicy, TImageCache</text>
<text text-anchor="middle" x="412" y="-7.5" font-family="FreeSans" font-size="10.00">WritePolicy &gt;</text>
</a>
</g>
</g>
<!-- Node7&#45;&gt;Node2 -->
<g id="edge5" class="edge"><title>Node7&#45;&gt;Node2</title>
<path fill="none" stroke="#9a32cd" stroke-dasharray="5,2" d="M525.08,-45.5504C569.561,-53.1109 620.368,-61.7467 663.822,-69.1326"/>
<polygon fill="#9a32cd" stroke="#9a32cd" points="525.547,-42.0797 515.102,-43.8545 524.374,-48.9808 525.547,-42.0797"/>
<text text-anchor="middle" x="589.5" y="-68.5" font-family="FreeSans" font-size="10.00"> myTiledImage</text>
</g>
<!-- Node8 -->
<g id="node7" class="node"><title>Node8</title>
<g id="a_node7"><a xlink:href="classDGtal_1_1ImageCache.html" target="_top" xlink:title="Aim: implements an images cache with &#39;read and write&#39; policies. ">
<polygon fill="white" stroke="black" points="7,-6 7,-47 187,-47 187,-6 7,-6"/>
<text text-anchor="start" x="15" y="-35" font-family="FreeSans" font-size="10.00">DGtal::ImageCache&lt;</text>
<text text-anchor="start" x="15" y="-24" font-family="FreeSans" font-size="10.00"> TImageContainer, TImageFactory,</text>
<text text-anchor="middle" x="97" y="-13" font-family="FreeSans" font-size="10.00"> TReadPolicy, TWritePolicy &gt;</text>
</a>
</g>
</g>
<!-- Node8&#45;&gt;Node7 -->
<g id="edge6" class="edge"><title>Node8&#45;&gt;Node7</title>
<path fill="none" stroke="#9a32cd" stroke-dasharray="5,2" d="M197.651,-26.5C233.166,-26.5 273.201,-26.5 308.916,-26.5"/>
<polygon fill="#9a32cd" stroke="#9a32cd" points="197.274,-23.0001 187.274,-26.5 197.274,-30.0001 197.274,-23.0001"/>
<text text-anchor="middle" x="251.5" y="-29.5" font-family="FreeSans" font-size="10.00"> myImageCache</text>
</g>
</g>
</svg>
        <g id="navigator" transform="translate(0 0)" fill="#404254">
                <rect fill="#f2f5e9" fill-opacity="0.5" stroke="#606060" stroke-width=".5" x="0" y="0" width="60" height="60"/>
                <use id="zoomplus" xlink:href="#zoomPlus" x="17" y="9" onmousedown="handleZoom(evt,'in')"/>
                <use id="zoomminus" xlink:href="#zoomMin" x="42" y="9" onmousedown="handleZoom(evt,'out')"/>
                <use id="reset" xlink:href="#resetDef" x="30" y="36" onmousedown="handleReset()"/>
                <g id="arrowUp" xlink:href="#dirArrow" transform="translate(30 24)" onmousedown="handlePan(0,-1)">
                  <use xlink:href="#rim" fill="#404040">
                        <set attributeName="fill" to="#808080" begin="arrowUp.mouseover" end="arrowUp.mouseout"/>
                  </use>
                  <path fill="none" stroke="white" stroke-width="1.5" d="M0,-3.0v7 M-2.5,-0.5L0,-3.0L2.5,-0.5"/>
                </g>
                <g id="arrowRight" xlink:href="#dirArrow" transform="rotate(90) translate(36 -43)" onmousedown="handlePan(1,0)">
                  <use xlink:href="#rim" fill="#404040">
                        <set attributeName="fill" to="#808080" begin="arrowRight.mouseover" end="arrowRight.mouseout"/>
                  </use>
                  <path fill="none" stroke="white" stroke-width="1.5" d="M0,-3.0v7 M-2.5,-0.5L0,-3.0L2.5,-0.5"/>
                </g>
                <g id="arrowDown" xlink:href="#dirArrow" transform="rotate(180) translate(-30 -48)" onmousedown="handlePan(0,1)">
                  <use xlink:href="#rim" fill="#404040">
                        <set attributeName="fill" to="#808080" begin="arrowDown.mouseover" end="arrowDown.mouseout"/>
                  </use>
                  <path fill="none" stroke="white" stroke-width="1.5" d="M0,-3.0v7 M-2.5,-0.5L0,-3.0L2.5,-0.5"/>
                </g>
                <g id="arrowLeft" xlink:href="#dirArrow" transform="rotate(270) translate(-36 17)" onmousedown="handlePan(-1,0)">
                  <use xlink:href="#rim" fill="#404040">
                        <set attributeName="fill" to="#808080" begin="arrowLeft.mouseover" end="arrowLeft.mouseout"/>
                  </use>
                  <path fill="none" stroke="white" stroke-width="1.5" d="M0,-3.0v7 M-2.5,-0.5L0,-3.0L2.5,-0.5"/>
                </g>
        </g>
        <svg viewBox="0 0 15 15" width="100%" height="30px" preserveAspectRatio="xMaxYMin meet">
         <g id="arrow_out" transform="scale(0.3 0.3)">
          <a xlink:href="classDGtal_1_1TiledImage_1_1TiledIterator__coll__graph_org.svg" target="_base">
           <rect id="button" ry="5" rx="5" y="6" x="6" height="38" width="38"
                fill="#f2f5e9" fill-opacity="0.5" stroke="#606060" stroke-width="1.0"/>
           <path id="arrow"
             d="M 11.500037,31.436501 C 11.940474,20.09759 22.043105,11.32322 32.158766,21.979434 L 37.068811,17.246167 C 37.068811,17.246167 37.088388,32 37.088388,32 L 22.160133,31.978069 C 22.160133,31.978069 26.997745,27.140456 26.997745,27.140456 C 18.528582,18.264221 13.291696,25.230495 11.500037,31.436501 z"
             style="fill:#404040;"/>
          </a>
         </g>
        </svg>
</svg>
