<?xml version="1.0" encoding="UTF-8" standalone="no"?>
<!DOCTYPE svg PUBLIC "-//W3C//DTD SVG 1.1//EN"
 "http://www.w3.org/Graphics/SVG/1.1/DTD/svg11.dtd">
<!-- Generated by graphviz version 2.36.0 (20140111.2315)
 -->
<!-- Title: demo&#45;kernel&#45;2.cpp Pages: 1 -->
<svg width="3259pt" height="782pt"
 viewBox="0.00 0.00 3259.00 782.00" xmlns="http://www.w3.org/2000/svg" xmlns:xlink="http://www.w3.org/1999/xlink">
<g id="graph0" class="graph" transform="scale(1 1) rotate(0) translate(4 778)">
<title>demo&#45;kernel&#45;2.cpp</title>
<polygon fill="white" stroke="none" points="-4,4 -4,-778 3255,-778 3255,4 -4,4"/>
<!-- Node0 -->
<g id="node1" class="node"><title>Node0</title>
<polygon fill="#bfbfbf" stroke="black" points="2216.5,-754.5 2216.5,-773.5 2323.5,-773.5 2323.5,-754.5 2216.5,-754.5"/>
<text text-anchor="middle" x="2270" y="-761.5" font-family="FreeSans" font-size="10.00">demo&#45;kernel&#45;2.cpp</text>
</g>
<!-- Node1 -->
<g id="node2" class="node"><title>Node1</title>
<polygon fill="white" stroke="#bfbfbf" points="1715.5,-0.5 1715.5,-19.5 1774.5,-19.5 1774.5,-0.5 1715.5,-0.5"/>
<text text-anchor="middle" x="1745" y="-7.5" font-family="FreeSans" font-size="10.00">iostream</text>
</g>
<!-- Node0&#45;&gt;Node1 -->
<g id="edge1" class="edge"><title>Node0&#45;&gt;Node1</title>
<path fill="none" stroke="midnightblue" d="M2323.65,-762.369C2481.38,-760.148 2941.7,-750.945 3088,-718 3165.09,-700.64 3251,-726.019 3251,-647 3251,-647 3251,-647 3251,-121 3251,-77.225 3217.72,-72.0774 3177,-56 3110.53,-29.7528 2009.02,-14.3614 1784.69,-11.491"/>
<polygon fill="midnightblue" stroke="midnightblue" points="1784.72,-7.99126 1774.68,-11.3638 1784.63,-14.9907 1784.72,-7.99126"/>
</g>
<!-- Node2 -->
<g id="node3" class="node"><title>Node2</title>
<g id="a_node3"><a xlink:href="Common_8h_source.html" target="_top" xlink:title="DGtal/base/Common.h">
<polygon fill="white" stroke="black" points="1698,-236.5 1698,-255.5 1824,-255.5 1824,-236.5 1698,-236.5"/>
<text text-anchor="middle" x="1761" y="-243.5" font-family="FreeSans" font-size="10.00">DGtal/base/Common.h</text>
</a>
</g>
</g>
<!-- Node0&#45;&gt;Node2 -->
<g id="edge2" class="edge"><title>Node0&#45;&gt;Node2</title>
<path fill="none" stroke="midnightblue" d="M2269.51,-754.449C2268.14,-733.107 2263.5,-675.91 2251,-630 2232.56,-562.311 2227.55,-543.88 2191,-484 2170.3,-450.095 2160.3,-444.858 2133,-416 2105.57,-386.996 2038.54,-310.181 2003,-292 1950.41,-265.1 1884.06,-254.13 1834.14,-249.729"/>
<polygon fill="midnightblue" stroke="midnightblue" points="1834.32,-246.232 1824.06,-248.91 1833.75,-253.209 1834.32,-246.232"/>
</g>
<!-- Node42 -->
<g id="node26" class="node"><title>Node42</title>
<g id="a_node26"><a xlink:href="SpaceND_8h_source.html" target="_top" xlink:title="DGtal/kernel/SpaceND.h">
<polygon fill="white" stroke="black" points="1091.5,-422.5 1091.5,-441.5 1224.5,-441.5 1224.5,-422.5 1091.5,-422.5"/>
<text text-anchor="middle" x="1158" y="-429.5" font-family="FreeSans" font-size="10.00">DGtal/kernel/SpaceND.h</text>
</a>
</g>
</g>
<!-- Node0&#45;&gt;Node42 -->
<g id="edge45" class="edge"><title>Node0&#45;&gt;Node42</title>
<path fill="none" stroke="midnightblue" d="M2216.44,-760.793C1980.09,-750.705 1042,-706.893 1042,-647 1042,-647 1042,-647 1042,-577 1042,-534.813 1035.67,-517.734 1061,-484 1074.84,-465.565 1097.31,-453.156 1117.14,-445.198"/>
<polygon fill="midnightblue" stroke="midnightblue" points="1118.48,-448.433 1126.62,-441.642 1116.02,-441.88 1118.48,-448.433"/>
</g>
<!-- Node64 -->
<g id="node30" class="node"><title>Node64</title>
<g id="a_node30"><a xlink:href="StdDefs_8h_source.html" target="_top" xlink:title="DGtal/helpers/StdDefs.h">
<polygon fill="white" stroke="black" points="1892,-698.5 1892,-717.5 2024,-717.5 2024,-698.5 1892,-698.5"/>
<text text-anchor="middle" x="1958" y="-705.5" font-family="FreeSans" font-size="10.00">DGtal/helpers/StdDefs.h</text>
</a>
</g>
</g>
<!-- Node0&#45;&gt;Node64 -->
<g id="edge60" class="edge"><title>Node0&#45;&gt;Node64</title>
<path fill="none" stroke="midnightblue" d="M2220.56,-754.444C2165.34,-744.885 2075.98,-729.419 2017.11,-719.23"/>
<polygon fill="midnightblue" stroke="midnightblue" points="2017.66,-715.773 2007.21,-717.516 2016.46,-722.671 2017.66,-715.773"/>
</g>
<!-- Node65 -->
<g id="node31" class="node"><title>Node65</title>
<g id="a_node31"><a xlink:href="HyperRectDomain_8h_source.html" target="_top" xlink:title="DGtal/kernel/domains\l/HyperRectDomain.h">
<polygon fill="white" stroke="black" points="542,-490 542,-520 662,-520 662,-490 542,-490"/>
<text text-anchor="start" x="550" y="-508" font-family="FreeSans" font-size="10.00">DGtal/kernel/domains</text>
<text text-anchor="middle" x="602" y="-497" font-family="FreeSans" font-size="10.00">/HyperRectDomain.h</text>
</a>
</g>
</g>
<!-- Node0&#45;&gt;Node65 -->
<g id="edge139" class="edge"><title>Node0&#45;&gt;Node65</title>
<path fill="none" stroke="midnightblue" d="M2216.24,-762.391C1992.83,-759.679 1144.06,-747.51 1028,-718 867.476,-677.184 697.089,-570.262 630.753,-525.818"/>
<polygon fill="midnightblue" stroke="midnightblue" points="632.705,-522.913 622.457,-520.221 628.79,-528.716 632.705,-522.913"/>
</g>
<!-- Node161 -->
<g id="node48" class="node"><title>Node161</title>
<g id="a_node48"><a xlink:href="Board2D_8h_source.html" target="_top" xlink:title="DGtal/io/boards/Board2D.h">
<polygon fill="white" stroke="red" points="2880.5,-360.5 2880.5,-379.5 3025.5,-379.5 3025.5,-360.5 2880.5,-360.5"/>
<text text-anchor="middle" x="2953" y="-367.5" font-family="FreeSans" font-size="10.00">DGtal/io/boards/Board2D.h</text>
</a>
</g>
</g>
<!-- Node0&#45;&gt;Node161 -->
<g id="edge140" class="edge"><title>Node0&#45;&gt;Node161</title>
<path fill="none" stroke="midnightblue" d="M2323.74,-762.083C2523.67,-757.973 3213,-737.258 3213,-647 3213,-647 3213,-647 3213,-504 3213,-423.087 3111.96,-391.369 3035.86,-378.955"/>
<polygon fill="midnightblue" stroke="midnightblue" points="3036.19,-375.464 3025.77,-377.397 3035.12,-382.382 3036.19,-375.464"/>
</g>
<!-- Node320 -->
<g id="node50" class="node"><title>Node320</title>
<g id="a_node50"><a xlink:href="Viewer3D_8h_source.html" target="_top" xlink:title="DGtal/io/viewers/Viewer3D.h">
<polygon fill="white" stroke="red" points="2298,-636.5 2298,-655.5 2448,-655.5 2448,-636.5 2298,-636.5"/>
<text text-anchor="middle" x="2373" y="-643.5" font-family="FreeSans" font-size="10.00">DGtal/io/viewers/Viewer3D.h</text>
</a>
</g>
</g>
<!-- Node0&#45;&gt;Node320 -->
<g id="edge147" class="edge"><title>Node0&#45;&gt;Node320</title>
<path fill="none" stroke="midnightblue" d="M2277.74,-754.281C2294.98,-734.872 2336.72,-687.861 2358.78,-663.011"/>
<polygon fill="midnightblue" stroke="midnightblue" points="2361.43,-665.306 2365.45,-655.505 2356.19,-660.659 2361.43,-665.306"/>
</g>
<!-- Node2&#45;&gt;Node1 -->
<g id="edge3" class="edge"><title>Node2&#45;&gt;Node1</title>
<path fill="none" stroke="midnightblue" d="M1697.93,-239.436C1682.28,-238.179 1665.54,-236.94 1650,-236 1600.11,-232.98 792.824,-227.372 751,-200 722.892,-181.604 725.525,-164.74 718,-132 705.096,-75.8554 767.469,-71.3306 823,-56 992.718,-9.14557 1550.32,-9.57102 1704.94,-10.6323"/>
<polygon fill="midnightblue" stroke="midnightblue" points="1705.33,-14.1352 1715.36,-10.7091 1705.39,-7.13541 1705.33,-14.1352"/>
</g>
<!-- Node3 -->
<g id="node4" class="node"><title>Node3</title>
<polygon fill="white" stroke="#bfbfbf" points="1971.5,-174.5 1971.5,-193.5 2034.5,-193.5 2034.5,-174.5 1971.5,-174.5"/>
<text text-anchor="middle" x="2003" y="-181.5" font-family="FreeSans" font-size="10.00">exception</text>
</g>
<!-- Node2&#45;&gt;Node3 -->
<g id="edge4" class="edge"><title>Node2&#45;&gt;Node3</title>
<path fill="none" stroke="midnightblue" d="M1803.33,-236.426C1843.21,-228.078 1904.52,-214.551 1957,-200 1960.81,-198.945 1964.77,-197.771 1968.7,-196.557"/>
<polygon fill="midnightblue" stroke="midnightblue" points="1969.83,-199.871 1978.3,-193.506 1967.71,-193.2 1969.83,-199.871"/>
</g>
<!-- Node4 -->
<g id="node5" class="node"><title>Node4</title>
<polygon fill="white" stroke="#bfbfbf" points="2482,-56.5 2482,-75.5 2544,-75.5 2544,-56.5 2482,-56.5"/>
<text text-anchor="middle" x="2513" y="-63.5" font-family="FreeSans" font-size="10.00">algorithm</text>
</g>
<!-- Node2&#45;&gt;Node4 -->
<g id="edge5" class="edge"><title>Node2&#45;&gt;Node4</title>
<path fill="none" stroke="midnightblue" d="M1824.23,-241.898C1921.47,-236.461 2102.81,-223.491 2163,-200 2224.61,-175.954 2222.42,-138.544 2283,-112 2345.36,-84.6734 2424.48,-73.8441 2471.79,-69.6208"/>
<polygon fill="midnightblue" stroke="midnightblue" points="2472.29,-73.0917 2481.96,-68.7716 2471.7,-66.116 2472.29,-73.0917"/>
</g>
<!-- Node5 -->
<g id="node6" class="node"><title>Node5</title>
<polygon fill="white" stroke="#bfbfbf" points="2053,-174.5 2053,-193.5 2155,-193.5 2155,-174.5 2053,-174.5"/>
<text text-anchor="middle" x="2104" y="-181.5" font-family="FreeSans" font-size="10.00">boost/version.hpp</text>
</g>
<!-- Node2&#45;&gt;Node5 -->
<g id="edge6" class="edge"><title>Node2&#45;&gt;Node5</title>
<path fill="none" stroke="midnightblue" d="M1823.99,-236.474C1881.32,-228.353 1968.17,-215.144 2043,-200 2048.96,-198.794 2055.21,-197.403 2061.35,-195.963"/>
<polygon fill="midnightblue" stroke="midnightblue" points="2062.6,-199.263 2071.51,-193.52 2060.96,-192.457 2062.6,-199.263"/>
</g>
<!-- Node6 -->
<g id="node7" class="node"><title>Node6</title>
<polygon fill="white" stroke="#bfbfbf" points="332.5,-174.5 332.5,-193.5 471.5,-193.5 471.5,-174.5 332.5,-174.5"/>
<text text-anchor="middle" x="402" y="-181.5" font-family="FreeSans" font-size="10.00">boost/concept_check.hpp</text>
</g>
<!-- Node2&#45;&gt;Node6 -->
<g id="edge7" class="edge"><title>Node2&#45;&gt;Node6</title>
<path fill="none" stroke="midnightblue" d="M1697.96,-244.079C1474.39,-240.611 720.059,-227.134 480,-200 470.237,-198.896 459.866,-197.245 449.983,-195.437"/>
<polygon fill="midnightblue" stroke="midnightblue" points="450.384,-191.95 439.905,-193.512 449.071,-198.826 450.384,-191.95"/>
</g>
<!-- Node7 -->
<g id="node8" class="node"><title>Node7</title>
<polygon fill="white" stroke="#bfbfbf" points="928.5,-174.5 928.5,-193.5 1057.5,-193.5 1057.5,-174.5 928.5,-174.5"/>
<text text-anchor="middle" x="993" y="-181.5" font-family="FreeSans" font-size="10.00">boost/static_assert.hpp</text>
</g>
<!-- Node2&#45;&gt;Node7 -->
<g id="edge8" class="edge"><title>Node2&#45;&gt;Node7</title>
<path fill="none" stroke="midnightblue" d="M1697.91,-239.672C1682.26,-238.409 1665.52,-237.108 1650,-236 1390.61,-217.491 1323.78,-234.256 1066,-200 1057.43,-198.861 1048.35,-197.294 1039.63,-195.6"/>
<polygon fill="midnightblue" stroke="midnightblue" points="1040.09,-192.122 1029.59,-193.572 1038.7,-198.984 1040.09,-192.122"/>
</g>
<!-- Node8 -->
<g id="node9" class="node"><title>Node8</title>
<polygon fill="white" stroke="#bfbfbf" points="1075.5,-174.5 1075.5,-193.5 1214.5,-193.5 1214.5,-174.5 1075.5,-174.5"/>
<text text-anchor="middle" x="1145" y="-181.5" font-family="FreeSans" font-size="10.00">boost/concept/assert.hpp</text>
</g>
<!-- Node2&#45;&gt;Node8 -->
<g id="edge9" class="edge"><title>Node2&#45;&gt;Node8</title>
<path fill="none" stroke="midnightblue" d="M1697.97,-239.894C1561.11,-228.785 1247.15,-203.158 1224,-200 1214.76,-198.739 1204.96,-197.114 1195.52,-195.401"/>
<polygon fill="midnightblue" stroke="midnightblue" points="1195.94,-191.918 1185.46,-193.521 1194.65,-198.799 1195.94,-191.918"/>
</g>
<!-- Node9 -->
<g id="node10" class="node"><title>Node9</title>
<polygon fill="white" stroke="#bfbfbf" points="1233,-174.5 1233,-193.5 1381,-193.5 1381,-174.5 1233,-174.5"/>
<text text-anchor="middle" x="1307" y="-181.5" font-family="FreeSans" font-size="10.00">boost/concept/requires.hpp</text>
</g>
<!-- Node2&#45;&gt;Node9 -->
<g id="edge10" class="edge"><title>Node2&#45;&gt;Node9</title>
<path fill="none" stroke="midnightblue" d="M1697.83,-238.468C1623.88,-230.56 1497.78,-216.262 1390,-200 1380.86,-198.62 1371.17,-197.008 1361.77,-195.363"/>
<polygon fill="midnightblue" stroke="midnightblue" points="1362.18,-191.88 1351.72,-193.573 1360.95,-198.772 1362.18,-191.88"/>
</g>
<!-- Node10 -->
<g id="node11" class="node"><title>Node10</title>
<polygon fill="white" stroke="#bfbfbf" points="1399,-169 1399,-199 1519,-199 1519,-169 1399,-169"/>
<text text-anchor="start" x="1407" y="-187" font-family="FreeSans" font-size="10.00">boost/iterator/iterator</text>
<text text-anchor="middle" x="1459" y="-176" font-family="FreeSans" font-size="10.00">_concepts.hpp</text>
</g>
<!-- Node2&#45;&gt;Node10 -->
<g id="edge11" class="edge"><title>Node2&#45;&gt;Node10</title>
<path fill="none" stroke="midnightblue" d="M1714.75,-236.489C1669.62,-228.097 1598.75,-214.694 1528.9,-200.366"/>
<polygon fill="midnightblue" stroke="midnightblue" points="1529.55,-196.928 1519.05,-198.339 1528.14,-203.784 1529.55,-196.928"/>
</g>
<!-- Node11 -->
<g id="node12" class="node"><title>Node11</title>
<polygon fill="white" stroke="#bfbfbf" points="1536.5,-174.5 1536.5,-193.5 1695.5,-193.5 1695.5,-174.5 1536.5,-174.5"/>
<text text-anchor="middle" x="1616" y="-181.5" font-family="FreeSans" font-size="10.00">boost/concept_archetype.hpp</text>
</g>
<!-- Node2&#45;&gt;Node11 -->
<g id="edge12" class="edge"><title>Node2&#45;&gt;Node11</title>
<path fill="none" stroke="midnightblue" d="M1740.23,-236.403C1715.57,-226.2 1674.25,-209.105 1646.1,-197.454"/>
<polygon fill="midnightblue" stroke="midnightblue" points="1647.31,-194.17 1636.74,-193.581 1644.64,-200.638 1647.31,-194.17"/>
</g>
<!-- Node12 -->
<g id="node13" class="node"><title>Node12</title>
<polygon fill="white" stroke="#bfbfbf" points="2368.5,-112.5 2368.5,-131.5 2415.5,-131.5 2415.5,-112.5 2368.5,-112.5"/>
<text text-anchor="middle" x="2392" y="-119.5" font-family="FreeSans" font-size="10.00">cmath</text>
</g>
<!-- Node2&#45;&gt;Node12 -->
<g id="edge13" class="edge"><title>Node2&#45;&gt;Node12</title>
<path fill="none" stroke="midnightblue" d="M1824.2,-241.826C1934.93,-235.795 2159.43,-221.348 2235,-200 2286.14,-185.553 2340.75,-154.859 2370.18,-136.893"/>
<polygon fill="midnightblue" stroke="midnightblue" points="2372.15,-139.787 2378.81,-131.544 2368.46,-133.837 2372.15,-139.787"/>
</g>
<!-- Node13 -->
<g id="node14" class="node"><title>Node13</title>
<polygon fill="white" stroke="#bfbfbf" points="1789.5,-174.5 1789.5,-193.5 1838.5,-193.5 1838.5,-174.5 1789.5,-174.5"/>
<text text-anchor="middle" x="1814" y="-181.5" font-family="FreeSans" font-size="10.00">stdio.h</text>
</g>
<!-- Node2&#45;&gt;Node13 -->
<g id="edge14" class="edge"><title>Node2&#45;&gt;Node13</title>
<path fill="none" stroke="midnightblue" d="M1768.59,-236.403C1776.7,-227.225 1789.73,-212.47 1799.76,-201.117"/>
<polygon fill="midnightblue" stroke="midnightblue" points="1802.42,-203.392 1806.42,-193.581 1797.18,-198.758 1802.42,-203.392"/>
</g>
<!-- Node14 -->
<g id="node15" class="node"><title>Node14</title>
<g id="a_node15"><a xlink:href="Config_8h_source.html" target="_top" xlink:title="DGtal/base/Config.h">
<polygon fill="white" stroke="red" points="857,-56.5 857,-75.5 969,-75.5 969,-56.5 857,-56.5"/>
<text text-anchor="middle" x="913" y="-63.5" font-family="FreeSans" font-size="10.00">DGtal/base/Config.h</text>
</a>
</g>
</g>
<!-- Node2&#45;&gt;Node14 -->
<g id="edge15" class="edge"><title>Node2&#45;&gt;Node14</title>
<path fill="none" stroke="midnightblue" d="M1697.93,-239.458C1682.28,-238.201 1665.53,-236.956 1650,-236 1602.49,-233.076 826.942,-234.356 794,-200 736.773,-140.315 849.977,-177.242 893,-132 904.813,-119.578 909.66,-100.339 911.642,-86.0108"/>
<polygon fill="midnightblue" stroke="midnightblue" points="915.151,-86.1034 912.696,-75.7968 908.188,-85.3846 915.151,-86.1034"/>
</g>
<!-- Node16 -->
<g id="node16" class="node"><title>Node16</title>
<g id="a_node16"><a xlink:href="Trace_8h_source.html" target="_top" xlink:title="DGtal/base/Trace.h">
<polygon fill="white" stroke="red" points="803.5,-174.5 803.5,-193.5 910.5,-193.5 910.5,-174.5 803.5,-174.5"/>
<text text-anchor="middle" x="857" y="-181.5" font-family="FreeSans" font-size="10.00">DGtal/base/Trace.h</text>
</a>
</g>
</g>
<!-- Node2&#45;&gt;Node16 -->
<g id="edge17" class="edge"><title>Node2&#45;&gt;Node16</title>
<path fill="none" stroke="midnightblue" d="M1697.92,-239.537C1682.27,-238.277 1665.53,-237.012 1650,-236 1325.41,-214.853 1240.95,-246.451 919,-200 912.004,-198.991 904.642,-197.552 897.532,-195.961"/>
<polygon fill="midnightblue" stroke="midnightblue" points="897.905,-192.453 887.367,-193.553 896.291,-199.264 897.905,-192.453"/>
</g>
<!-- Node23 -->
<g id="node17" class="node"><title>Node23</title>
<g id="a_node17"><a xlink:href="TraceWriterTerm_8h_source.html" target="_top" xlink:title="DGtal/base/TraceWriterTerm.h">
<polygon fill="white" stroke="red" points="727.5,-112.5 727.5,-131.5 884.5,-131.5 884.5,-112.5 727.5,-112.5"/>
<text text-anchor="middle" x="806" y="-119.5" font-family="FreeSans" font-size="10.00">DGtal/base/TraceWriterTerm.h</text>
</a>
</g>
</g>
<!-- Node2&#45;&gt;Node23 -->
<g id="edge25" class="edge"><title>Node2&#45;&gt;Node23</title>
<path fill="none" stroke="midnightblue" d="M1697.93,-239.441C1682.28,-238.184 1665.54,-236.944 1650,-236 1600.66,-233.002 795.237,-235.652 761,-200 743.264,-181.531 767.222,-154.791 786.407,-138.173"/>
<polygon fill="midnightblue" stroke="midnightblue" points="788.727,-140.796 794.201,-131.725 784.265,-135.402 788.727,-140.796"/>
</g>
<!-- Node24 -->
<g id="node18" class="node"><title>Node24</title>
<g id="a_node18"><a xlink:href="Assert_8h_source.html" target="_top" xlink:title="DGtal/base/Assert.h">
<polygon fill="white" stroke="red" points="1025.5,-112.5 1025.5,-131.5 1138.5,-131.5 1138.5,-112.5 1025.5,-112.5"/>
<text text-anchor="middle" x="1082" y="-119.5" font-family="FreeSans" font-size="10.00">DGtal/base/Assert.h</text>
</a>
</g>
</g>
<!-- Node2&#45;&gt;Node24 -->
<g id="edge28" class="edge"><title>Node2&#45;&gt;Node24</title>
<path fill="none" stroke="midnightblue" d="M1755.94,-236.434C1744.9,-218.08 1718.5,-175.976 1704,-168 1656.27,-141.746 1299.18,-128.96 1148.63,-124.692"/>
<polygon fill="midnightblue" stroke="midnightblue" points="1148.68,-121.192 1138.58,-124.411 1148.48,-128.189 1148.68,-121.192"/>
</g>
<!-- Node27 -->
<g id="node19" class="node"><title>Node27</title>
<g id="a_node19"><a xlink:href="TraceWriterFile_8h_source.html" target="_top" xlink:title="DGtal/base/TraceWriterFile.h">
<polygon fill="white" stroke="red" points="1830.5,-56.5 1830.5,-75.5 1979.5,-75.5 1979.5,-56.5 1830.5,-56.5"/>
<text text-anchor="middle" x="1905" y="-63.5" font-family="FreeSans" font-size="10.00">DGtal/base/TraceWriterFile.h</text>
</a>
</g>
</g>
<!-- Node2&#45;&gt;Node27 -->
<g id="edge26" class="edge"><title>Node2&#45;&gt;Node27</title>
<path fill="none" stroke="midnightblue" d="M1800.02,-236.473C1821.61,-229.88 1847.36,-218.63 1864,-200 1893.28,-167.212 1901.65,-113.854 1904.04,-85.7233"/>
<polygon fill="midnightblue" stroke="midnightblue" points="1907.54,-85.8675 1904.73,-75.6524 1900.56,-85.3908 1907.54,-85.8675"/>
</g>
<!-- Node28 -->
<g id="node20" class="node"><title>Node28</title>
<g id="a_node20"><a xlink:href="ConceptUtils_8h_source.html" target="_top" xlink:title="DGtal/base/ConceptUtils.h">
<polygon fill="white" stroke="black" points="489.5,-174.5 489.5,-193.5 632.5,-193.5 632.5,-174.5 489.5,-174.5"/>
<text text-anchor="middle" x="561" y="-181.5" font-family="FreeSans" font-size="10.00">DGtal/base/ConceptUtils.h</text>
</a>
</g>
</g>
<!-- Node2&#45;&gt;Node28 -->
<g id="edge29" class="edge"><title>Node2&#45;&gt;Node28</title>
<path fill="none" stroke="midnightblue" d="M1697.93,-239.406C1682.28,-238.15 1665.54,-236.919 1650,-236 1221.56,-210.651 1112.85,-233.8 685,-200 668.262,-198.678 650.305,-196.783 633.398,-194.783"/>
<polygon fill="midnightblue" stroke="midnightblue" points="633.375,-191.255 623.027,-193.529 632.534,-198.204 633.375,-191.255"/>
</g>
<!-- Node29 -->
<g id="node21" class="node"><title>Node29</title>
<g id="a_node21"><a xlink:href="BasicTypes_8h_source.html" target="_top" xlink:title="DGtal/base/BasicTypes.h">
<polygon fill="white" stroke="red" points="1998,-56.5 1998,-75.5 2132,-75.5 2132,-56.5 1998,-56.5"/>
<text text-anchor="middle" x="2065" y="-63.5" font-family="FreeSans" font-size="10.00">DGtal/base/BasicTypes.h</text>
</a>
</g>
</g>
<!-- Node2&#45;&gt;Node29 -->
<g id="edge31" class="edge"><title>Node2&#45;&gt;Node29</title>
<path fill="none" stroke="midnightblue" d="M1793.99,-236.456C1820.56,-228.867 1858.39,-216.431 1889,-200 1952.85,-165.73 2018.46,-109.463 2048.35,-82.4368"/>
<polygon fill="midnightblue" stroke="midnightblue" points="2050.78,-84.9597 2055.8,-75.6319 2046.06,-79.7907 2050.78,-84.9597"/>
</g>
<!-- Node32 -->
<g id="node22" class="node"><title>Node32</title>
<g id="a_node22"><a xlink:href="BasicFunctors_8h_source.html" target="_top" xlink:title="DGtal/base/BasicFunctors.h">
<polygon fill="white" stroke="red" points="2439,-174.5 2439,-193.5 2587,-193.5 2587,-174.5 2439,-174.5"/>
<text text-anchor="middle" x="2513" y="-181.5" font-family="FreeSans" font-size="10.00">DGtal/base/BasicFunctors.h</text>
</a>
</g>
</g>
<!-- Node2&#45;&gt;Node32 -->
<g id="edge33" class="edge"><title>Node2&#45;&gt;Node32</title>
<path fill="none" stroke="midnightblue" d="M1824.17,-240.065C1930.64,-232.116 2152.28,-215.767 2340,-200 2368.8,-197.581 2400.43,-194.734 2428.71,-192.173"/>
<polygon fill="midnightblue" stroke="midnightblue" points="2429.33,-195.632 2438.97,-191.244 2428.69,-188.661 2429.33,-195.632"/>
</g>
<!-- Node40 -->
<g id="node24" class="node"><title>Node40</title>
<g id="a_node24"><a xlink:href="BasicArchetypes_8h_source.html" target="_top" xlink:title="DGtal/base/BasicArchetypes.h">
<polygon fill="white" stroke="black" points="1623.5,-112.5 1623.5,-131.5 1784.5,-131.5 1784.5,-112.5 1623.5,-112.5"/>
<text text-anchor="middle" x="1704" y="-119.5" font-family="FreeSans" font-size="10.00">DGtal/base/BasicArchetypes.h</text>
</a>
</g>
</g>
<!-- Node2&#45;&gt;Node40 -->
<g id="edge41" class="edge"><title>Node2&#45;&gt;Node40</title>
<path fill="none" stroke="midnightblue" d="M1759.23,-236.092C1756.09,-221.363 1748.74,-191.25 1737,-168 1731.93,-157.965 1724.68,-147.782 1718.26,-139.647"/>
<polygon fill="midnightblue" stroke="midnightblue" points="1720.82,-137.242 1711.77,-131.727 1715.41,-141.68 1720.82,-137.242"/>
</g>
<!-- Node41 -->
<g id="node25" class="node"><title>Node41</title>
<g id="a_node25"><a xlink:href="Exceptions_8h_source.html" target="_top" xlink:title="DGtal/base/Exceptions.h">
<polygon fill="white" stroke="black" points="1678,-56.5 1678,-75.5 1812,-75.5 1812,-56.5 1678,-56.5"/>
<text text-anchor="middle" x="1745" y="-63.5" font-family="FreeSans" font-size="10.00">DGtal/base/Exceptions.h</text>
</a>
</g>
</g>
<!-- Node2&#45;&gt;Node41 -->
<g id="edge43" class="edge"><title>Node2&#45;&gt;Node41</title>
<path fill="none" stroke="midnightblue" d="M1795.18,-236.493C1813.99,-229.877 1835.74,-218.596 1847,-200 1854.37,-187.833 1852.32,-181.189 1847,-168 1831.47,-129.512 1792.97,-98.3544 1767.97,-81.2795"/>
<polygon fill="midnightblue" stroke="midnightblue" points="1769.71,-78.2328 1759.43,-75.6384 1765.85,-84.0725 1769.71,-78.2328"/>
</g>
<!-- Node14&#45;&gt;Node1 -->
<g id="edge16" class="edge"><title>Node14&#45;&gt;Node1</title>
<path fill="none" stroke="midnightblue" d="M969.126,-57.4382C973.815,-56.9116 978.486,-56.4229 983,-56 1258.45,-30.1897 1591.4,-16.5494 1704.88,-12.3945"/>
<polygon fill="midnightblue" stroke="midnightblue" points="1705.3,-15.8817 1715.17,-12.022 1705.05,-8.88626 1705.3,-15.8817"/>
</g>
<!-- Node16&#45;&gt;Node1 -->
<g id="edge18" class="edge"><title>Node16&#45;&gt;Node1</title>
<path fill="none" stroke="midnightblue" d="M872.244,-174.428C899.943,-159.261 960.779,-127.809 1016,-112 1271.85,-38.7566 1593.94,-17.8384 1705.12,-12.585"/>
<polygon fill="midnightblue" stroke="midnightblue" points="1705.39,-16.0767 1715.22,-12.1242 1705.07,-9.08402 1705.39,-16.0767"/>
</g>
<!-- Node16&#45;&gt;Node14 -->
<g id="edge19" class="edge"><title>Node16&#45;&gt;Node14</title>
<path fill="none" stroke="midnightblue" d="M877.806,-174.349C894.499,-166.157 916.774,-152.103 927,-132 934.507,-117.242 929.207,-98.6158 923.094,-85.0893"/>
<polygon fill="midnightblue" stroke="midnightblue" points="926.084,-83.245 918.46,-75.8881 919.832,-86.3937 926.084,-83.245"/>
</g>
<!-- Node16&#45;&gt;Node23 -->
<g id="edge20" class="edge"><title>Node16&#45;&gt;Node23</title>
<path fill="none" stroke="midnightblue" d="M849.693,-174.403C841.967,-165.314 829.592,-150.756 819.982,-139.449"/>
<polygon fill="midnightblue" stroke="midnightblue" points="822.437,-136.933 813.294,-131.581 817.103,-141.467 822.437,-136.933"/>
</g>
<!-- Node16&#45;&gt;Node24 -->
<g id="edge23" class="edge"><title>Node16&#45;&gt;Node24</title>
<path fill="none" stroke="midnightblue" d="M884.336,-174.403C921.808,-163.799 989.329,-145.751 1034.97,-134.107"/>
<polygon fill="midnightblue" stroke="midnightblue" points="1036.09,-137.432 1044.93,-131.581 1034.37,-130.647 1036.09,-137.432"/>
</g>
<!-- Node23&#45;&gt;Node1 -->
<g id="edge21" class="edge"><title>Node23&#45;&gt;Node1</title>
<path fill="none" stroke="midnightblue" d="M808.686,-112.351C813.728,-97.7646 826.126,-68.63 848,-56 922.82,-12.8 1540.42,-10.6723 1704.89,-10.8796"/>
<polygon fill="midnightblue" stroke="midnightblue" points="1705.05,-14.3798 1715.06,-10.8962 1705.06,-7.37977 1705.05,-14.3798"/>
</g>
<!-- Node23&#45;&gt;Node14 -->
<g id="edge22" class="edge"><title>Node23&#45;&gt;Node14</title>
<path fill="none" stroke="midnightblue" d="M823.191,-112.324C840.351,-103.664 866.946,-90.2424 886.747,-80.249"/>
<polygon fill="midnightblue" stroke="midnightblue" points="888.501,-83.2847 895.851,-75.6545 885.347,-77.0354 888.501,-83.2847"/>
</g>
<!-- Node24&#45;&gt;Node16 -->
<g id="edge24" class="edge"><title>Node24&#45;&gt;Node16</title>
<path fill="none" stroke="midnightblue" d="M1054.99,-131.503C1017.47,-142.129 949.358,-160.334 903.58,-172.008"/>
<polygon fill="midnightblue" stroke="midnightblue" points="902.718,-168.616 893.885,-174.467 904.438,-175.402 902.718,-168.616"/>
</g>
<!-- Node27&#45;&gt;Node1 -->
<g id="edge27" class="edge"><title>Node27&#45;&gt;Node1</title>
<path fill="none" stroke="midnightblue" d="M1879.65,-56.4435C1852.73,-47.3591 1810,-32.9388 1779.91,-22.7831"/>
<polygon fill="midnightblue" stroke="midnightblue" points="1780.83,-19.3981 1770.23,-19.5164 1778.59,-26.0305 1780.83,-19.3981"/>
</g>
<!-- Node28&#45;&gt;Node1 -->
<g id="edge30" class="edge"><title>Node28&#45;&gt;Node1</title>
<path fill="none" stroke="midnightblue" d="M563.716,-174.468C571.827,-150.593 598.382,-83.084 647,-56 694.079,-29.7733 1513.61,-14.7843 1705.18,-11.6294"/>
<polygon fill="midnightblue" stroke="midnightblue" points="1705.42,-15.126 1715.36,-11.4632 1705.31,-8.12698 1705.42,-15.126"/>
</g>
<!-- Node29&#45;&gt;Node1 -->
<g id="edge32" class="edge"><title>Node29&#45;&gt;Node1</title>
<path fill="none" stroke="midnightblue" d="M2014.3,-56.4435C1950.62,-45.6985 1842.71,-27.4886 1784.7,-17.7001"/>
<polygon fill="midnightblue" stroke="midnightblue" points="1785.26,-14.2444 1774.82,-16.0315 1784.09,-21.1468 1785.26,-14.2444"/>
</g>
<!-- Node32&#45;&gt;Node2 -->
<g id="edge40" class="edge"><title>Node32&#45;&gt;Node2</title>
<path fill="none" stroke="midnightblue" d="M2439,-192.793C2413.39,-195.186 2384.5,-197.775 2358,-200 2169.78,-215.809 1947.46,-232.203 1834.58,-240.129"/>
<polygon fill="midnightblue" stroke="midnightblue" points="1834.06,-236.656 1824.33,-240.846 1834.55,-243.639 1834.06,-236.656"/>
</g>
<!-- Node32&#45;&gt;Node4 -->
<g id="edge34" class="edge"><title>Node32&#45;&gt;Node4</title>
<path fill="none" stroke="midnightblue" d="M2513,-174.281C2513,-155.547 2513,-111.098 2513,-85.6822"/>
<polygon fill="midnightblue" stroke="midnightblue" points="2516.5,-85.5047 2513,-75.5048 2509.5,-85.5048 2516.5,-85.5047"/>
</g>
<!-- Node32&#45;&gt;Node12 -->
<g id="edge35" class="edge"><title>Node32&#45;&gt;Node12</title>
<path fill="none" stroke="midnightblue" d="M2495.66,-174.403C2475.45,-164.379 2441.81,-147.701 2418.36,-136.07"/>
<polygon fill="midnightblue" stroke="midnightblue" points="2419.82,-132.887 2409.3,-131.581 2416.71,-139.159 2419.82,-132.887"/>
</g>
<!-- Node34 -->
<g id="node23" class="node"><title>Node34</title>
<g id="a_node23"><a xlink:href="Color_8h_source.html" target="_top" xlink:title="DGtal/io/Color.h">
<polygon fill="white" stroke="red" points="2643.5,-112.5 2643.5,-131.5 2734.5,-131.5 2734.5,-112.5 2643.5,-112.5"/>
<text text-anchor="middle" x="2689" y="-119.5" font-family="FreeSans" font-size="10.00">DGtal/io/Color.h</text>
</a>
</g>
</g>
<!-- Node32&#45;&gt;Node34 -->
<g id="edge36" class="edge"><title>Node32&#45;&gt;Node34</title>
<path fill="none" stroke="midnightblue" d="M2538.22,-174.403C2568.67,-164.022 2620.05,-146.506 2654.24,-134.849"/>
<polygon fill="midnightblue" stroke="midnightblue" points="2655.49,-138.12 2663.83,-131.581 2653.24,-131.495 2655.49,-138.12"/>
</g>
<!-- Node34&#45;&gt;Node1 -->
<g id="edge37" class="edge"><title>Node34&#45;&gt;Node1</title>
<path fill="none" stroke="midnightblue" d="M2675.67,-112.497C2651.91,-97.856 2600.22,-68.2787 2552,-56 2404.4,-18.4121 1926.79,-12.2136 1785.02,-11.1977"/>
<polygon fill="midnightblue" stroke="midnightblue" points="1784.66,-7.69528 1774.64,-11.1284 1784.62,-14.6951 1784.66,-7.69528"/>
</g>
<!-- Node34&#45;&gt;Node2 -->
<g id="edge38" class="edge"><title>Node34&#45;&gt;Node2</title>
<path fill="none" stroke="midnightblue" d="M2681.94,-131.756C2667.75,-148.608 2633.87,-185.192 2596,-200 2526.13,-227.316 2024.74,-239.858 1834.21,-243.675"/>
<polygon fill="midnightblue" stroke="midnightblue" points="1833.94,-240.18 1824.01,-243.877 1834.08,-247.178 1833.94,-240.18"/>
</g>
<!-- Node34&#45;&gt;Node4 -->
<g id="edge39" class="edge"><title>Node34&#45;&gt;Node4</title>
<path fill="none" stroke="midnightblue" d="M2661.11,-112.444C2631.25,-103.28 2583.69,-88.6876 2550.54,-78.5192"/>
<polygon fill="midnightblue" stroke="midnightblue" points="2551.34,-75.1037 2540.76,-75.5164 2549.29,-81.7958 2551.34,-75.1037"/>
</g>
<!-- Node40&#45;&gt;Node1 -->
<g id="edge42" class="edge"><title>Node40&#45;&gt;Node1</title>
<path fill="none" stroke="midnightblue" d="M1693.09,-112.094C1679.04,-99.5025 1657.7,-75.8197 1669,-56 1677.41,-41.2475 1692.77,-30.8375 1707.48,-23.7738"/>
<polygon fill="midnightblue" stroke="midnightblue" points="1709.24,-26.8275 1716.98,-19.603 1706.42,-20.4179 1709.24,-26.8275"/>
</g>
<!-- Node41&#45;&gt;Node1 -->
<g id="edge44" class="edge"><title>Node41&#45;&gt;Node1</title>
<path fill="none" stroke="midnightblue" d="M1745,-56.083C1745,-49.0059 1745,-38.8611 1745,-29.9865"/>
<polygon fill="midnightblue" stroke="midnightblue" points="1748.5,-29.751 1745,-19.7511 1741.5,-29.7511 1748.5,-29.751"/>
</g>
<!-- Node42&#45;&gt;Node1 -->
<g id="edge46" class="edge"><title>Node42&#45;&gt;Node1</title>
<path fill="none" stroke="midnightblue" d="M1091.35,-422.932C976.999,-409.204 736.028,-380.772 532,-360 487.715,-355.491 166.774,-352.996 133,-324 106.256,-301.039 114,-282.249 114,-247 114,-247 114,-247 114,-121 114,-87.0792 124.626,-72.9636 154,-56 223.154,-16.0639 1465.04,-11.5588 1705.04,-11.0608"/>
<polygon fill="midnightblue" stroke="midnightblue" points="1705.39,-14.5602 1715.38,-11.0405 1705.38,-7.56017 1705.39,-14.5602"/>
</g>
<!-- Node42&#45;&gt;Node2 -->
<g id="edge47" class="edge"><title>Node42&#45;&gt;Node2</title>
<path fill="none" stroke="midnightblue" d="M1166.72,-422.164C1192.47,-396.722 1271.43,-323.129 1353,-292 1412.38,-269.339 1587.09,-256.41 1687.59,-250.653"/>
<polygon fill="midnightblue" stroke="midnightblue" points="1687.88,-254.142 1697.67,-250.085 1687.49,-247.153 1687.88,-254.142"/>
</g>
<!-- Node43 -->
<g id="node27" class="node"><title>Node43</title>
<g id="a_node27"><a xlink:href="CInteger_8h_source.html" target="_top" xlink:title="DGtal/kernel/CInteger.h">
<polygon fill="white" stroke="red" points="1287,-360.5 1287,-379.5 1415,-379.5 1415,-360.5 1287,-360.5"/>
<text text-anchor="middle" x="1351" y="-367.5" font-family="FreeSans" font-size="10.00">DGtal/kernel/CInteger.h</text>
</a>
</g>
</g>
<!-- Node42&#45;&gt;Node43 -->
<g id="edge48" class="edge"><title>Node42&#45;&gt;Node43</title>
<path fill="none" stroke="midnightblue" d="M1185.65,-422.403C1219.33,-411.933 1276.36,-394.205 1313.85,-382.55"/>
<polygon fill="midnightblue" stroke="midnightblue" points="1314.89,-385.892 1323.4,-379.581 1312.81,-379.207 1314.89,-385.892"/>
</g>
<!-- Node56 -->
<g id="node29" class="node"><title>Node56</title>
<g id="a_node29"><a xlink:href="PointVector_8h_source.html" target="_top" xlink:title="DGtal/kernel/PointVector.h">
<polygon fill="white" stroke="red" points="1433,-360.5 1433,-379.5 1575,-379.5 1575,-360.5 1433,-360.5"/>
<text text-anchor="middle" x="1504" y="-367.5" font-family="FreeSans" font-size="10.00">DGtal/kernel/PointVector.h</text>
</a>
</g>
</g>
<!-- Node42&#45;&gt;Node56 -->
<g id="edge55" class="edge"><title>Node42&#45;&gt;Node56</title>
<path fill="none" stroke="midnightblue" d="M1207.21,-422.467C1269.85,-411.604 1377.97,-392.855 1444.98,-381.235"/>
<polygon fill="midnightblue" stroke="midnightblue" points="1445.71,-384.661 1454.96,-379.503 1444.51,-377.764 1445.71,-384.661"/>
</g>
<!-- Node43&#45;&gt;Node1 -->
<g id="edge49" class="edge"><title>Node43&#45;&gt;Node1</title>
<path fill="none" stroke="midnightblue" d="M1286.65,-367.16C1076.32,-360.998 420.272,-340.544 378,-324 357.439,-315.953 357.92,-304.899 340,-292 284.126,-251.783 228,-253.843 228,-185 228,-185 228,-185 228,-121 228,-84.2802 246.23,-72.5676 279,-56 344.36,-22.9557 1476.57,-12.9587 1705.02,-11.274"/>
<polygon fill="midnightblue" stroke="midnightblue" points="1705.23,-14.7726 1715.21,-11.2 1705.18,-7.77279 1705.23,-14.7726"/>
</g>
<!-- Node43&#45;&gt;Node2 -->
<g id="edge50" class="edge"><title>Node43&#45;&gt;Node2</title>
<path fill="none" stroke="midnightblue" d="M1350.99,-360.176C1351.5,-343.866 1355.13,-309.107 1376,-292 1422.18,-254.146 1589.36,-247.15 1687.58,-246.419"/>
<polygon fill="midnightblue" stroke="midnightblue" points="1687.76,-249.919 1697.74,-246.364 1687.72,-242.919 1687.76,-249.919"/>
</g>
<!-- Node43&#45;&gt;Node28 -->
<g id="edge51" class="edge"><title>Node43&#45;&gt;Node28</title>
<path fill="none" stroke="midnightblue" d="M1294.65,-360.486C1190.63,-344.217 961.822,-305.85 773,-256 707.993,-238.838 633.898,-212.395 592.775,-197.087"/>
<polygon fill="midnightblue" stroke="midnightblue" points="593.891,-193.768 583.299,-193.54 591.437,-200.324 593.891,-193.768"/>
</g>
<!-- Node47 -->
<g id="node28" class="node"><title>Node47</title>
<g id="a_node28"><a xlink:href="NumberTraits_8h_source.html" target="_top" xlink:title="DGtal/kernel/NumberTraits.h">
<polygon fill="white" stroke="red" points="1385,-298.5 1385,-317.5 1537,-317.5 1537,-298.5 1385,-298.5"/>
<text text-anchor="middle" x="1461" y="-305.5" font-family="FreeSans" font-size="10.00">DGtal/kernel/NumberTraits.h</text>
</a>
</g>
</g>
<!-- Node43&#45;&gt;Node47 -->
<g id="edge52" class="edge"><title>Node43&#45;&gt;Node47</title>
<path fill="none" stroke="midnightblue" d="M1366.76,-360.403C1384.98,-350.468 1415.17,-333.997 1436.47,-322.381"/>
<polygon fill="midnightblue" stroke="midnightblue" points="1438.17,-325.442 1445.27,-317.581 1434.81,-319.297 1438.17,-325.442"/>
</g>
<!-- Node47&#45;&gt;Node1 -->
<g id="edge53" class="edge"><title>Node47&#45;&gt;Node1</title>
<path fill="none" stroke="midnightblue" d="M1384.74,-307.13C1214.91,-305.722 813.334,-292.455 722,-200 694.37,-172.031 701.921,-149.722 713,-112 721.338,-83.611 723.357,-70.7609 749,-56 832.889,-7.7116 1530.57,-9.45246 1705.4,-10.6617"/>
<polygon fill="midnightblue" stroke="midnightblue" points="1705.42,-14.1618 1715.45,-10.7347 1705.47,-7.16202 1705.42,-14.1618"/>
</g>
<!-- Node47&#45;&gt;Node2 -->
<g id="edge54" class="edge"><title>Node47&#45;&gt;Node2</title>
<path fill="none" stroke="midnightblue" d="M1503.66,-298.467C1557.53,-287.693 1650.19,-269.162 1708.39,-257.522"/>
<polygon fill="midnightblue" stroke="midnightblue" points="1709.36,-260.897 1718.48,-255.503 1707.99,-254.033 1709.36,-260.897"/>
</g>
<!-- Node56&#45;&gt;Node1 -->
<g id="edge56" class="edge"><title>Node56&#45;&gt;Node1</title>
<path fill="none" stroke="midnightblue" d="M1432.93,-360.72C1429.91,-360.459 1426.93,-360.217 1424,-360 1312.79,-351.761 526.213,-360.96 421,-324 398.524,-316.104 397.473,-305.723 378,-292 321.727,-252.343 266,-253.843 266,-185 266,-185 266,-185 266,-121 266,-86.1146 279.445,-72.8331 310,-56 372.759,-21.4256 1480.82,-12.6547 1705.47,-11.2287"/>
<polygon fill="midnightblue" stroke="midnightblue" points="1705.51,-14.7286 1715.49,-11.1663 1705.47,-7.72872 1705.51,-14.7286"/>
</g>
<!-- Node56&#45;&gt;Node2 -->
<g id="edge58" class="edge"><title>Node56&#45;&gt;Node2</title>
<path fill="none" stroke="midnightblue" d="M1520.75,-360.464C1549.2,-346.022 1608.87,-315.997 1660,-292 1684.04,-280.715 1711.6,-268.484 1731.85,-259.625"/>
<polygon fill="midnightblue" stroke="midnightblue" points="1733.39,-262.773 1741.16,-255.567 1730.59,-256.356 1733.39,-262.773"/>
</g>
<!-- Node56&#45;&gt;Node4 -->
<g id="edge57" class="edge"><title>Node56&#45;&gt;Node4</title>
<path fill="none" stroke="midnightblue" d="M1562.17,-360.442C1684.01,-341.332 1973.66,-289.671 2202,-200 2276.46,-170.76 2285.25,-142.972 2359,-112 2396.19,-96.3806 2440.59,-84.0317 2472.14,-76.2519"/>
<polygon fill="midnightblue" stroke="midnightblue" points="2473.01,-79.6425 2481.9,-73.8881 2471.36,-72.839 2473.01,-79.6425"/>
</g>
<!-- Node56&#45;&gt;Node47 -->
<g id="edge59" class="edge"><title>Node56&#45;&gt;Node47</title>
<path fill="none" stroke="midnightblue" d="M1497.84,-360.403C1491.39,-351.403 1481.1,-337.041 1473.03,-325.782"/>
<polygon fill="midnightblue" stroke="midnightblue" points="1475.82,-323.67 1467.15,-317.581 1470.13,-327.748 1475.82,-323.67"/>
</g>
<!-- Node64&#45;&gt;Node1 -->
<g id="edge61" class="edge"><title>Node64&#45;&gt;Node1</title>
<path fill="none" stroke="midnightblue" d="M2024.3,-707.048C2278.26,-706.371 3175,-695.715 3175,-579 3175,-579 3175,-579 3175,-504 3175,-415.703 3213,-397.297 3213,-309 3213,-309 3213,-309 3213,-121 3213,-76.5533 3178.44,-72.0697 3137,-56 3008.14,-6.03067 1999.1,-9.42381 1784.88,-10.7199"/>
<polygon fill="midnightblue" stroke="midnightblue" points="1784.7,-7.22083 1774.72,-10.7834 1784.75,-14.2207 1784.7,-7.22083"/>
</g>
<!-- Node64&#45;&gt;Node2 -->
<g id="edge62" class="edge"><title>Node64&#45;&gt;Node2</title>
<path fill="none" stroke="midnightblue" d="M1970.83,-698.449C2011.99,-669.883 2135.87,-574.443 2098,-484 2074.51,-427.907 1955.09,-323.384 1903,-292 1876.27,-275.894 1843.18,-264.972 1815.68,-257.927"/>
<polygon fill="midnightblue" stroke="midnightblue" points="1816.36,-254.492 1805.82,-255.504 1814.69,-261.29 1816.36,-254.492"/>
</g>
<!-- Node64&#45;&gt;Node42 -->
<g id="edge63" class="edge"><title>Node64&#45;&gt;Node42</title>
<path fill="none" stroke="midnightblue" d="M1891.76,-706.328C1761.61,-701.643 1469.44,-674.089 1288,-526 1269.39,-510.814 1272.53,-499.274 1254,-484 1234.35,-467.805 1208.75,-454.515 1188.92,-445.566"/>
<polygon fill="midnightblue" stroke="midnightblue" points="1190.27,-442.335 1179.71,-441.528 1187.46,-448.747 1190.27,-442.335"/>
</g>
<!-- Node64&#45;&gt;Node65 -->
<g id="edge64" class="edge"><title>Node64&#45;&gt;Node65</title>
<path fill="none" stroke="midnightblue" d="M1892,-707.067C1762.51,-706.296 1466.43,-700.081 1221,-662 1111.49,-645.008 795.295,-559.355 662.19,-522.692"/>
<polygon fill="midnightblue" stroke="midnightblue" points="663.118,-519.317 652.547,-520.033 661.257,-526.066 663.118,-519.317"/>
</g>
<!-- Node87 -->
<g id="node38" class="node"><title>Node87</title>
<g id="a_node38"><a xlink:href="DigitalSetSelector_8h_source.html" target="_top" xlink:title="DGtal/kernel/sets/Digital\lSetSelector.h">
<polygon fill="white" stroke="red" points="2293,-293 2293,-323 2425,-323 2425,-293 2293,-293"/>
<text text-anchor="start" x="2301" y="-311" font-family="FreeSans" font-size="10.00">DGtal/kernel/sets/Digital</text>
<text text-anchor="middle" x="2359" y="-300" font-family="FreeSans" font-size="10.00">SetSelector.h</text>
</a>
</g>
</g>
<!-- Node64&#45;&gt;Node87 -->
<g id="edge90" class="edge"><title>Node64&#45;&gt;Node87</title>
<path fill="none" stroke="midnightblue" d="M2024.16,-707.202C2184.18,-705.913 2579,-691.349 2579,-579 2579,-579 2579,-579 2579,-504 2579,-413.218 2472.8,-354.451 2407.97,-327.036"/>
<polygon fill="midnightblue" stroke="midnightblue" points="2408.91,-323.638 2398.33,-323.061 2406.24,-330.11 2408.91,-323.638"/>
</g>
<!-- Node100 -->
<g id="node39" class="node"><title>Node100</title>
<g id="a_node39"><a xlink:href="DigitalTopology_8h_source.html" target="_top" xlink:title="DGtal/topology/DigitalTopology.h">
<polygon fill="white" stroke="red" points="2519,-298.5 2519,-317.5 2689,-317.5 2689,-298.5 2519,-298.5"/>
<text text-anchor="middle" x="2604" y="-305.5" font-family="FreeSans" font-size="10.00">DGtal/topology/DigitalTopology.h</text>
</a>
</g>
</g>
<!-- Node64&#45;&gt;Node100 -->
<g id="edge93" class="edge"><title>Node64&#45;&gt;Node100</title>
<path fill="none" stroke="midnightblue" d="M2024.14,-707.103C2153.02,-706.429 2432.78,-700.423 2520,-662 2560.58,-644.126 2574.53,-634.309 2593,-594 2635.12,-502.096 2617.05,-375.511 2608.01,-328.017"/>
<polygon fill="midnightblue" stroke="midnightblue" points="2611.39,-327.066 2606,-317.946 2604.52,-328.439 2611.39,-327.066"/>
</g>
<!-- Node107 -->
<g id="node40" class="node"><title>Node107</title>
<g id="a_node40"><a xlink:href="MetricAdjacency_8h_source.html" target="_top" xlink:title="DGtal/topology/MetricAdjacency.h">
<polygon fill="white" stroke="red" points="1070,-495.5 1070,-514.5 1246,-514.5 1246,-495.5 1070,-495.5"/>
<text text-anchor="middle" x="1158" y="-502.5" font-family="FreeSans" font-size="10.00">DGtal/topology/MetricAdjacency.h</text>
</a>
</g>
</g>
<!-- Node64&#45;&gt;Node107 -->
<g id="edge96" class="edge"><title>Node64&#45;&gt;Node107</title>
<path fill="none" stroke="midnightblue" d="M1891.73,-706.077C1728,-703.326 1313.69,-693.318 1260,-662 1206.28,-630.664 1175.73,-558.448 1163.84,-524.4"/>
<polygon fill="midnightblue" stroke="midnightblue" points="1167.11,-523.162 1160.63,-514.786 1160.48,-525.38 1167.11,-523.162"/>
</g>
<!-- Node110 -->
<g id="node41" class="node"><title>Node110</title>
<g id="a_node41"><a xlink:href="Object_8h_source.html" target="_top" xlink:title="DGtal/topology/Object.h">
<polygon fill="white" stroke="red" points="2651.5,-360.5 2651.5,-379.5 2782.5,-379.5 2782.5,-360.5 2651.5,-360.5"/>
<text text-anchor="middle" x="2717" y="-367.5" font-family="FreeSans" font-size="10.00">DGtal/topology/Object.h</text>
</a>
</g>
</g>
<!-- Node64&#45;&gt;Node110 -->
<g id="edge102" class="edge"><title>Node64&#45;&gt;Node110</title>
<path fill="none" stroke="midnightblue" d="M2024.03,-707.313C2197.13,-707.542 2654.35,-704.109 2707,-662 2736.99,-638.014 2731,-617.4 2731,-579 2731,-579 2731,-579 2731,-504 2731,-463.128 2724.38,-415.576 2720.24,-389.858"/>
<polygon fill="midnightblue" stroke="midnightblue" points="2723.64,-388.971 2718.55,-379.681 2716.74,-390.12 2723.64,-388.971"/>
</g>
<!-- Node119 -->
<g id="node43" class="node"><title>Node119</title>
<g id="a_node43"><a xlink:href="KhalimskySpaceND_8h_source.html" target="_top" xlink:title="DGtal/topology/Khalimsky\lSpaceND.h">
<polygon fill="white" stroke="red" points="1606.5,-563 1606.5,-593 1745.5,-593 1745.5,-563 1606.5,-563"/>
<text text-anchor="start" x="1614.5" y="-581" font-family="FreeSans" font-size="10.00">DGtal/topology/Khalimsky</text>
<text text-anchor="middle" x="1676" y="-570" font-family="FreeSans" font-size="10.00">SpaceND.h</text>
</a>
</g>
</g>
<!-- Node64&#45;&gt;Node119 -->
<g id="edge109" class="edge"><title>Node64&#45;&gt;Node119</title>
<path fill="none" stroke="midnightblue" d="M1895.27,-698.461C1859.28,-691.865 1814.03,-680.615 1777,-662 1745.81,-646.322 1715.64,-619.522 1696.52,-600.624"/>
<polygon fill="midnightblue" stroke="midnightblue" points="1698.8,-597.951 1689.28,-593.312 1693.83,-602.879 1698.8,-597.951"/>
</g>
<!-- Node120 -->
<g id="node44" class="node"><title>Node120</title>
<g id="a_node44"><a xlink:href="KhalimskyPreSpaceND_8h_source.html" target="_top" xlink:title="DGtal/topology/Khalimsky\lPreSpaceND.h">
<polygon fill="white" stroke="red" points="1432.5,-490 1432.5,-520 1571.5,-520 1571.5,-490 1432.5,-490"/>
<text text-anchor="start" x="1440.5" y="-508" font-family="FreeSans" font-size="10.00">DGtal/topology/Khalimsky</text>
<text text-anchor="middle" x="1502" y="-497" font-family="FreeSans" font-size="10.00">PreSpaceND.h</text>
</a>
</g>
</g>
<!-- Node64&#45;&gt;Node120 -->
<g id="edge121" class="edge"><title>Node64&#45;&gt;Node120</title>
<path fill="none" stroke="midnightblue" d="M1891.89,-699.435C1844.72,-692.779 1780.28,-681.1 1726,-662 1664.86,-640.487 1649.89,-631.454 1597,-594 1568.78,-574.017 1540.18,-546.28 1521.84,-527.32"/>
<polygon fill="midnightblue" stroke="midnightblue" points="1524.31,-524.84 1514.87,-520.026 1519.25,-529.675 1524.31,-524.84"/>
</g>
<!-- Node123 -->
<g id="node45" class="node"><title>Node123</title>
<g id="a_node45"><a xlink:href="GridCurve_8h_source.html" target="_top" xlink:title="Header file for module GridCurve.cpp. ">
<polygon fill="white" stroke="red" points="2114,-631 2114,-661 2242,-661 2242,-631 2114,-631"/>
<text text-anchor="start" x="2122" y="-649" font-family="FreeSans" font-size="10.00">DGtal/geometry/curves</text>
<text text-anchor="middle" x="2178" y="-638" font-family="FreeSans" font-size="10.00">/GridCurve.h</text>
</a>
</g>
</g>
<!-- Node64&#45;&gt;Node123 -->
<g id="edge122" class="edge"><title>Node64&#45;&gt;Node123</title>
<path fill="none" stroke="midnightblue" d="M1989.52,-698.403C2022.63,-689.374 2075.53,-674.947 2116.87,-663.672"/>
<polygon fill="midnightblue" stroke="midnightblue" points="2117.85,-667.033 2126.57,-661.025 2116.01,-660.28 2117.85,-667.033"/>
</g>
<!-- Node154 -->
<g id="node46" class="node"><title>Node154</title>
<g id="a_node46"><a xlink:href="ExactPredicateLpSeparableMetric_8h_source.html" target="_top" xlink:title="DGtal/geometry/volumes\l/distance/ExactPredicateLpSeparable\lMetric.h">
<polygon fill="white" stroke="red" points="1896,-484.5 1896,-525.5 2090,-525.5 2090,-484.5 1896,-484.5"/>
<text text-anchor="start" x="1904" y="-513.5" font-family="FreeSans" font-size="10.00">DGtal/geometry/volumes</text>
<text text-anchor="start" x="1904" y="-502.5" font-family="FreeSans" font-size="10.00">/distance/ExactPredicateLpSeparable</text>
<text text-anchor="middle" x="1993" y="-491.5" font-family="FreeSans" font-size="10.00">Metric.h</text>
</a>
</g>
</g>
<!-- Node64&#45;&gt;Node154 -->
<g id="edge127" class="edge"><title>Node64&#45;&gt;Node154</title>
<path fill="none" stroke="midnightblue" d="M1959.5,-698.363C1964.35,-670.548 1979.7,-582.404 1987.83,-535.704"/>
<polygon fill="midnightblue" stroke="midnightblue" points="1991.32,-536.045 1989.59,-525.593 1984.42,-534.844 1991.32,-536.045"/>
</g>
<!-- Node159 -->
<g id="node47" class="node"><title>Node159</title>
<g id="a_node47"><a xlink:href="ExactPredicateLpPowerSeparableMetric_8h_source.html" target="_top" xlink:title="DGtal/geometry/volumes\l/distance/ExactPredicateLpPower\lSeparableMetric.h">
<polygon fill="white" stroke="red" points="1704,-484.5 1704,-525.5 1878,-525.5 1878,-484.5 1704,-484.5"/>
<text text-anchor="start" x="1712" y="-513.5" font-family="FreeSans" font-size="10.00">DGtal/geometry/volumes</text>
<text text-anchor="start" x="1712" y="-502.5" font-family="FreeSans" font-size="10.00">/distance/ExactPredicateLpPower</text>
<text text-anchor="middle" x="1791" y="-491.5" font-family="FreeSans" font-size="10.00">SeparableMetric.h</text>
</a>
</g>
</g>
<!-- Node64&#45;&gt;Node159 -->
<g id="edge133" class="edge"><title>Node64&#45;&gt;Node159</title>
<path fill="none" stroke="midnightblue" d="M1950.82,-698.363C1927.33,-670.08 1852,-579.418 1813.75,-533.38"/>
<polygon fill="midnightblue" stroke="midnightblue" points="1816.36,-531.048 1807.28,-525.593 1810.98,-535.521 1816.36,-531.048"/>
</g>
<!-- Node65&#45;&gt;Node1 -->
<g id="edge65" class="edge"><title>Node65&#45;&gt;Node1</title>
<path fill="none" stroke="midnightblue" d="M541.8,-503.372C389.335,-500.162 0,-481.178 0,-371 0,-371 0,-371 0,-121 0,-87.0792 10.6096,-72.9358 40,-56 114.456,-13.0956 1456.16,-11.0001 1705.35,-10.9819"/>
<polygon fill="midnightblue" stroke="midnightblue" points="1705.4,-14.4818 1715.4,-10.9822 1705.4,-7.48176 1705.4,-14.4818"/>
</g>
<!-- Node65&#45;&gt;Node2 -->
<g id="edge66" class="edge"><title>Node65&#45;&gt;Node2</title>
<path fill="none" stroke="midnightblue" d="M638.072,-489.931C738.872,-451.257 1032.79,-342.843 1287,-292 1427.04,-263.991 1593.96,-253.292 1687.68,-249.295"/>
<polygon fill="midnightblue" stroke="midnightblue" points="1688.06,-252.782 1697.91,-248.873 1687.78,-245.788 1688.06,-252.782"/>
</g>
<!-- Node65&#45;&gt;Node47 -->
<g id="edge84" class="edge"><title>Node65&#45;&gt;Node47</title>
<path fill="none" stroke="midnightblue" d="M662.062,-490.365C823.99,-453.607 1267.2,-352.994 1413.47,-319.791"/>
<polygon fill="midnightblue" stroke="midnightblue" points="1414.5,-323.145 1423.48,-317.518 1412.95,-316.319 1414.5,-323.145"/>
</g>
<!-- Node66 -->
<g id="node32" class="node"><title>Node66</title>
<g id="a_node32"><a xlink:href="CSpace_8h_source.html" target="_top" xlink:title="DGtal/kernel/CSpace.h">
<polygon fill="white" stroke="red" points="1628.5,-422.5 1628.5,-441.5 1753.5,-441.5 1753.5,-422.5 1628.5,-422.5"/>
<text text-anchor="middle" x="1691" y="-429.5" font-family="FreeSans" font-size="10.00">DGtal/kernel/CSpace.h</text>
</a>
</g>
</g>
<!-- Node65&#45;&gt;Node66 -->
<g id="edge67" class="edge"><title>Node65&#45;&gt;Node66</title>
<path fill="none" stroke="midnightblue" d="M662.101,-500.082C848.366,-487.938 1415.6,-450.955 1618.16,-437.749"/>
<polygon fill="midnightblue" stroke="midnightblue" points="1618.64,-441.225 1628.39,-437.082 1618.18,-434.24 1618.64,-441.225"/>
</g>
<!-- Node68 -->
<g id="node33" class="node"><title>Node68</title>
<g id="a_node33"><a xlink:href="BasicPointPredicates_8h_source.html" target="_top" xlink:title="DGtal/kernel/BasicPointPredicates.h">
<polygon fill="white" stroke="red" points="508,-422.5 508,-441.5 696,-441.5 696,-422.5 508,-422.5"/>
<text text-anchor="middle" x="602" y="-429.5" font-family="FreeSans" font-size="10.00">DGtal/kernel/BasicPointPredicates.h</text>
</a>
</g>
</g>
<!-- Node65&#45;&gt;Node68 -->
<g id="edge73" class="edge"><title>Node65&#45;&gt;Node68</title>
<path fill="none" stroke="midnightblue" d="M602,-489.973C602,-479.07 602,-463.839 602,-451.868"/>
<polygon fill="midnightblue" stroke="midnightblue" points="605.5,-451.637 602,-441.637 598.5,-451.637 605.5,-451.637"/>
</g>
<!-- Node84 -->
<g id="node34" class="node"><title>Node84</title>
<g id="a_node34"><a xlink:href="CDomain_8h_source.html" target="_top" xlink:title="DGtal/kernel/domains\l/CDomain.h">
<polygon fill="white" stroke="red" points="430,-293 430,-323 550,-323 550,-293 430,-293"/>
<text text-anchor="start" x="438" y="-311" font-family="FreeSans" font-size="10.00">DGtal/kernel/domains</text>
<text text-anchor="middle" x="490" y="-300" font-family="FreeSans" font-size="10.00">/CDomain.h</text>
</a>
</g>
</g>
<!-- Node65&#45;&gt;Node84 -->
<g id="edge76" class="edge"><title>Node65&#45;&gt;Node84</title>
<path fill="none" stroke="midnightblue" d="M546.533,-489.982C525.019,-481.542 502.572,-468.342 490,-448 468.305,-412.897 475.593,-362.67 482.825,-333.186"/>
<polygon fill="midnightblue" stroke="midnightblue" points="486.259,-333.891 485.433,-323.329 479.491,-332.101 486.259,-333.891"/>
</g>
<!-- Node85 -->
<g id="node35" class="node"><title>Node85</title>
<g id="a_node35"><a xlink:href="HyperRectDomain__Iterator_8h_source.html" target="_top" xlink:title="DGtal/kernel/domains\l/HyperRectDomain_Iterator.h">
<polygon fill="white" stroke="red" points="142.5,-293 142.5,-323 297.5,-323 297.5,-293 142.5,-293"/>
<text text-anchor="start" x="150.5" y="-311" font-family="FreeSans" font-size="10.00">DGtal/kernel/domains</text>
<text text-anchor="middle" x="220" y="-300" font-family="FreeSans" font-size="10.00">/HyperRectDomain_Iterator.h</text>
</a>
</g>
</g>
<!-- Node65&#45;&gt;Node85 -->
<g id="edge81" class="edge"><title>Node65&#45;&gt;Node85</title>
<path fill="none" stroke="midnightblue" d="M567.954,-489.904C542.176,-479.012 506.028,-463.264 475,-448 393.819,-408.063 301.162,-355.822 253,-328.146"/>
<polygon fill="midnightblue" stroke="midnightblue" points="254.67,-325.069 244.257,-323.111 251.176,-331.135 254.67,-325.069"/>
</g>
<!-- Node61 -->
<g id="node36" class="node"><title>Node61</title>
<g id="a_node36"><a xlink:href="CConstBidirectionalRange_8h_source.html" target="_top" xlink:title="DGtal/base/CConstBidirectional\lRange.h">
<polygon fill="white" stroke="red" points="568,-293 568,-323 734,-323 734,-293 568,-293"/>
<text text-anchor="start" x="576" y="-311" font-family="FreeSans" font-size="10.00">DGtal/base/CConstBidirectional</text>
<text text-anchor="middle" x="651" y="-300" font-family="FreeSans" font-size="10.00">Range.h</text>
</a>
</g>
</g>
<!-- Node65&#45;&gt;Node61 -->
<g id="edge85" class="edge"><title>Node65&#45;&gt;Node61</title>
<path fill="none" stroke="midnightblue" d="M553.299,-489.947C532.771,-481.347 510.91,-468.032 499,-448 491.732,-435.775 492.449,-428.623 499,-416 521.038,-373.535 568.527,-344.369 604.599,-327.341"/>
<polygon fill="midnightblue" stroke="midnightblue" points="606.324,-330.401 613.969,-323.066 603.418,-324.032 606.324,-330.401"/>
</g>
<!-- Node86 -->
<g id="node37" class="node"><title>Node86</title>
<g id="a_node37"><a xlink:href="HyperRectDomain_8ih_source.html" target="_top" xlink:title="DGtal/kernel/domains\l/HyperRectDomain.ih">
<polygon fill="white" stroke="black" points="256,-417 256,-447 376,-447 376,-417 256,-417"/>
<text text-anchor="start" x="264" y="-435" font-family="FreeSans" font-size="10.00">DGtal/kernel/domains</text>
<text text-anchor="middle" x="316" y="-424" font-family="FreeSans" font-size="10.00">/HyperRectDomain.ih</text>
</a>
</g>
</g>
<!-- Node65&#45;&gt;Node86 -->
<g id="edge89" class="edge"><title>Node65&#45;&gt;Node86</title>
<path fill="none" stroke="midnightblue" d="M545.496,-489.973C498.74,-478.365 432.223,-461.853 382.829,-449.59"/>
<polygon fill="midnightblue" stroke="midnightblue" points="383.424,-446.132 372.876,-447.12 381.738,-452.926 383.424,-446.132"/>
</g>
<!-- Node66&#45;&gt;Node1 -->
<g id="edge68" class="edge"><title>Node66&#45;&gt;Node1</title>
<path fill="none" stroke="midnightblue" d="M1749,-422.478C1853.42,-403.661 2070.76,-347.837 2163,-200 2185.14,-164.512 2187.9,-99.2595 2141,-56 2115.11,-32.1207 1879.88,-17.7593 1784.7,-12.8819"/>
<polygon fill="midnightblue" stroke="midnightblue" points="1784.77,-9.38098 1774.61,-12.3733 1784.42,-16.3721 1784.77,-9.38098"/>
</g>
<!-- Node66&#45;&gt;Node2 -->
<g id="edge69" class="edge"><title>Node66&#45;&gt;Node2</title>
<path fill="none" stroke="midnightblue" d="M1694.38,-422.125C1705.21,-393.647 1739.25,-304.166 1754.03,-265.31"/>
<polygon fill="midnightblue" stroke="midnightblue" points="1757.37,-266.377 1757.66,-255.786 1750.83,-263.888 1757.37,-266.377"/>
</g>
<!-- Node66&#45;&gt;Node28 -->
<g id="edge70" class="edge"><title>Node66&#45;&gt;Node28</title>
<path fill="none" stroke="midnightblue" d="M1685.07,-422.146C1667.43,-396.655 1612.37,-322.943 1546,-292 1525.54,-282.46 875.809,-216.568 642.988,-193.198"/>
<polygon fill="midnightblue" stroke="midnightblue" points="643.184,-189.7 632.885,-192.184 642.485,-196.665 643.184,-189.7"/>
</g>
<!-- Node66&#45;&gt;Node43 -->
<g id="edge71" class="edge"><title>Node66&#45;&gt;Node43</title>
<path fill="none" stroke="midnightblue" d="M1642.65,-422.467C1581.22,-411.626 1475.28,-392.932 1409.4,-381.306"/>
<polygon fill="midnightblue" stroke="midnightblue" points="1409.64,-377.795 1399.19,-379.503 1408.43,-384.688 1409.64,-377.795"/>
</g>
<!-- Node66&#45;&gt;Node47 -->
<g id="edge72" class="edge"><title>Node66&#45;&gt;Node47</title>
<path fill="none" stroke="midnightblue" d="M1679.58,-422.35C1660.5,-408.142 1620.6,-379.495 1584,-360 1555,-344.553 1520.29,-330.537 1495.14,-321.125"/>
<polygon fill="midnightblue" stroke="midnightblue" points="1496.27,-317.809 1485.67,-317.628 1493.84,-324.376 1496.27,-317.809"/>
</g>
<!-- Node68&#45;&gt;Node1 -->
<g id="edge74" class="edge"><title>Node68&#45;&gt;Node1</title>
<path fill="none" stroke="midnightblue" d="M526.522,-422.479C372.837,-404.104 38,-358.402 38,-309 38,-309 38,-309 38,-121 38,-90.2048 36.9707,-73.941 62,-56 130.872,-6.63242 1456.31,-9.78068 1704.98,-10.8093"/>
<polygon fill="midnightblue" stroke="midnightblue" points="1705.33,-14.3108 1715.35,-10.8536 1705.36,-7.31081 1705.33,-14.3108"/>
</g>
<!-- Node68&#45;&gt;Node2 -->
<g id="edge75" class="edge"><title>Node68&#45;&gt;Node2</title>
<path fill="none" stroke="midnightblue" d="M613.421,-422.337C653.403,-392.015 784.723,-292.461 786,-292 869.893,-261.705 1475.33,-250.803 1687.65,-247.887"/>
<polygon fill="midnightblue" stroke="midnightblue" points="1687.81,-251.385 1697.77,-247.75 1687.72,-244.386 1687.81,-251.385"/>
</g>
<!-- Node84&#45;&gt;Node1 -->
<g id="edge77" class="edge"><title>Node84&#45;&gt;Node1</title>
<path fill="none" stroke="midnightblue" d="M429.868,-294.1C375.525,-278.493 304,-246.306 304,-185 304,-185 304,-185 304,-121 304,21.5143 476.545,-73.3458 618,-56 835.026,-29.3872 1531.06,-14.9607 1705.21,-11.7115"/>
<polygon fill="midnightblue" stroke="midnightblue" points="1705.52,-15.2065 1715.45,-11.5221 1705.39,-8.2077 1705.52,-15.2065"/>
</g>
<!-- Node84&#45;&gt;Node2 -->
<g id="edge79" class="edge"><title>Node84&#45;&gt;Node2</title>
<path fill="none" stroke="midnightblue" d="M550.103,-293.28C553.103,-292.801 556.081,-292.369 559,-292 779.11,-264.176 1461.92,-251.539 1687.69,-248.047"/>
<polygon fill="midnightblue" stroke="midnightblue" points="1687.83,-251.545 1697.78,-247.892 1687.72,-244.546 1687.83,-251.545"/>
</g>
<!-- Node84&#45;&gt;Node6 -->
<g id="edge78" class="edge"><title>Node84&#45;&gt;Node6</title>
<path fill="none" stroke="midnightblue" d="M479.56,-292.526C463.169,-269.803 431.482,-225.873 414.114,-201.794"/>
<polygon fill="midnightblue" stroke="midnightblue" points="416.908,-199.686 408.22,-193.623 411.231,-203.781 416.908,-199.686"/>
</g>
<!-- Node84&#45;&gt;Node28 -->
<g id="edge80" class="edge"><title>Node84&#45;&gt;Node28</title>
<path fill="none" stroke="midnightblue" d="M498.423,-292.526C511.531,-270.003 536.764,-226.646 550.853,-202.435"/>
<polygon fill="midnightblue" stroke="midnightblue" points="553.977,-204.026 555.982,-193.623 547.927,-200.505 553.977,-204.026"/>
</g>
<!-- Node85&#45;&gt;Node1 -->
<g id="edge82" class="edge"><title>Node85&#45;&gt;Node1</title>
<path fill="none" stroke="midnightblue" d="M205.259,-292.991C195.812,-283.341 183.887,-269.81 176,-256 159.481,-227.075 152,-218.31 152,-185 152,-185 152,-185 152,-121 152,-90.2048 150.988,-73.9653 176,-56 239.93,-10.0812 1466.78,-10.3945 1705.09,-10.8908"/>
<polygon fill="midnightblue" stroke="midnightblue" points="1705.36,-14.3913 1715.37,-10.9136 1705.38,-7.39132 1705.36,-14.3913"/>
</g>
<!-- Node85&#45;&gt;Node2 -->
<g id="edge83" class="edge"><title>Node85&#45;&gt;Node2</title>
<path fill="none" stroke="midnightblue" d="M297.745,-300.453C335.009,-297.506 380.293,-294.202 421,-292 903.903,-265.884 1485.58,-252.519 1687.64,-248.409"/>
<polygon fill="midnightblue" stroke="midnightblue" points="1687.9,-251.905 1697.83,-248.203 1687.76,-244.906 1687.9,-251.905"/>
</g>
<!-- Node61&#45;&gt;Node2 -->
<g id="edge86" class="edge"><title>Node61&#45;&gt;Node2</title>
<path fill="none" stroke="midnightblue" d="M734.263,-293.524C738.904,-292.96 743.506,-292.446 748,-292 1098.68,-257.201 1520.34,-249.309 1687.54,-247.522"/>
<polygon fill="midnightblue" stroke="midnightblue" points="1687.74,-251.02 1697.71,-247.418 1687.67,-244.021 1687.74,-251.02"/>
</g>
<!-- Node61&#45;&gt;Node6 -->
<g id="edge87" class="edge"><title>Node61&#45;&gt;Node6</title>
<path fill="none" stroke="midnightblue" d="M621.949,-292.766C573.203,-268.883 475.669,-221.095 428.61,-198.038"/>
<polygon fill="midnightblue" stroke="midnightblue" points="429.889,-194.767 419.369,-193.51 426.809,-201.053 429.889,-194.767"/>
</g>
<!-- Node61&#45;&gt;Node28 -->
<g id="edge88" class="edge"><title>Node61&#45;&gt;Node28</title>
<path fill="none" stroke="midnightblue" d="M640.322,-292.526C623.559,-269.803 591.152,-225.873 573.389,-201.794"/>
<polygon fill="midnightblue" stroke="midnightblue" points="576.114,-199.592 567.361,-193.623 570.481,-203.748 576.114,-199.592"/>
</g>
<!-- Node87&#45;&gt;Node1 -->
<g id="edge91" class="edge"><title>Node87&#45;&gt;Node1</title>
<path fill="none" stroke="midnightblue" d="M2425.01,-301.006C2540.48,-288.679 2767,-255.513 2767,-185 2767,-185 2767,-185 2767,-121 2767,-20.3468 1973.24,-11.669 1784.79,-11.0271"/>
<polygon fill="midnightblue" stroke="midnightblue" points="1784.77,-7.52714 1774.76,-10.9988 1784.75,-14.5271 1784.77,-7.52714"/>
</g>
<!-- Node87&#45;&gt;Node2 -->
<g id="edge92" class="edge"><title>Node87&#45;&gt;Node2</title>
<path fill="none" stroke="midnightblue" d="M2292.72,-300.35C2179.99,-289.039 1951.77,-266.141 1834.39,-254.363"/>
<polygon fill="midnightblue" stroke="midnightblue" points="1834.71,-250.878 1824.41,-253.362 1834.01,-257.843 1834.71,-250.878"/>
</g>
<!-- Node100&#45;&gt;Node1 -->
<g id="edge94" class="edge"><title>Node100&#45;&gt;Node1</title>
<path fill="none" stroke="midnightblue" d="M2656.55,-298.498C2716.1,-285.516 2805,-254.497 2805,-185 2805,-185 2805,-185 2805,-121 2805,-55.2072 2735.72,-72.3759 2672,-56 2500.38,-11.8957 1939.38,-10.3597 1784.77,-10.8019"/>
<polygon fill="midnightblue" stroke="midnightblue" points="1784.75,-7.30183 1774.76,-10.835 1784.78,-14.3018 1784.75,-7.30183"/>
</g>
<!-- Node100&#45;&gt;Node2 -->
<g id="edge95" class="edge"><title>Node100&#45;&gt;Node2</title>
<path fill="none" stroke="midnightblue" d="M2553.75,-298.491C2538.16,-296.093 2520.9,-293.682 2505,-292 2260.12,-266.096 1968.21,-253.838 1834.48,-249.252"/>
<polygon fill="midnightblue" stroke="midnightblue" points="1834.47,-245.75 1824.36,-248.909 1834.24,-252.746 1834.47,-245.75"/>
</g>
<!-- Node107&#45;&gt;Node1 -->
<g id="edge97" class="edge"><title>Node107&#45;&gt;Node1</title>
<path fill="none" stroke="midnightblue" d="M1116.87,-495.461C1037.45,-479.09 857.325,-442.562 705,-416 639.098,-404.508 163.085,-364.708 110,-324 80.3138,-301.235 76,-284.41 76,-247 76,-247 76,-247 76,-121 76,-84.8221 92.8489,-72.5875 125,-56 197.335,-18.6805 1462.89,-12.0597 1705.11,-11.1326"/>
<polygon fill="midnightblue" stroke="midnightblue" points="1705.24,-14.6323 1715.23,-11.095 1705.21,-7.63233 1705.24,-14.6323"/>
</g>
<!-- Node107&#45;&gt;Node2 -->
<g id="edge98" class="edge"><title>Node107&#45;&gt;Node2</title>
<path fill="none" stroke="midnightblue" d="M1208.39,-495.45C1290.39,-480.217 1456.38,-443.838 1584,-380 1649.36,-347.306 1715.26,-289.816 1744.85,-262.393"/>
<polygon fill="midnightblue" stroke="midnightblue" points="1747.3,-264.894 1752.21,-255.502 1742.52,-259.787 1747.3,-264.894"/>
</g>
<!-- Node107&#45;&gt;Node42 -->
<g id="edge100" class="edge"><title>Node107&#45;&gt;Node42</title>
<path fill="none" stroke="midnightblue" d="M1158,-495.294C1158,-484.542 1158,-465.949 1158,-451.867"/>
<polygon fill="midnightblue" stroke="midnightblue" points="1161.5,-451.777 1158,-441.777 1154.5,-451.777 1161.5,-451.777"/>
</g>
<!-- Node107&#45;&gt;Node66 -->
<g id="edge99" class="edge"><title>Node107&#45;&gt;Node66</title>
<path fill="none" stroke="midnightblue" d="M1222.03,-495.471C1321.74,-482.188 1513.53,-456.64 1618.3,-442.684"/>
<polygon fill="midnightblue" stroke="midnightblue" points="1619.02,-446.119 1628.47,-441.329 1618.1,-439.18 1619.02,-446.119"/>
</g>
<!-- Node107&#45;&gt;Node68 -->
<g id="edge101" class="edge"><title>Node107&#45;&gt;Node68</title>
<path fill="none" stroke="midnightblue" d="M1091.21,-495.471C987.544,-482.233 788.472,-456.812 678.938,-442.825"/>
<polygon fill="midnightblue" stroke="midnightblue" points="679.31,-439.344 668.948,-441.549 678.424,-446.288 679.31,-439.344"/>
</g>
<!-- Node110&#45;&gt;Node1 -->
<g id="edge103" class="edge"><title>Node110&#45;&gt;Node1</title>
<path fill="none" stroke="midnightblue" d="M2717.16,-360.071C2717.85,-344.78 2721.12,-313.182 2736,-292 2752.58,-268.397 2769.07,-275.846 2790,-256 2818.58,-228.907 2843,-224.378 2843,-185 2843,-185 2843,-185 2843,-121 2843,-66.8689 2791.65,-72.2073 2740,-56 2647.84,-27.0798 1958.59,-14.3627 1784.73,-11.5953"/>
<polygon fill="midnightblue" stroke="midnightblue" points="1784.78,-8.09582 1774.73,-11.4381 1784.67,-15.095 1784.78,-8.09582"/>
</g>
<!-- Node110&#45;&gt;Node2 -->
<g id="edge104" class="edge"><title>Node110&#45;&gt;Node2</title>
<path fill="none" stroke="midnightblue" d="M2665.27,-360.493C2622.97,-352.888 2561.9,-340.412 2510,-324 2475.06,-312.949 2469.66,-300.45 2434,-292 2321.85,-265.427 1984.24,-253.113 1834.22,-248.841"/>
<polygon fill="midnightblue" stroke="midnightblue" points="1834.27,-245.341 1824.18,-248.559 1834.08,-252.339 1834.27,-245.341"/>
</g>
<!-- Node110&#45;&gt;Node87 -->
<g id="edge108" class="edge"><title>Node110&#45;&gt;Node87</title>
<path fill="none" stroke="midnightblue" d="M2666.09,-360.467C2605.83,-350.368 2504.9,-333.453 2435.3,-321.787"/>
<polygon fill="midnightblue" stroke="midnightblue" points="2435.7,-318.306 2425.26,-320.105 2434.55,-325.21 2435.7,-318.306"/>
</g>
<!-- Node72 -->
<g id="node42" class="node"><title>Node72</title>
<g id="a_node42"><a xlink:href="CountedPtr_8h_source.html" target="_top" xlink:title="DGtal/base/CountedPtr.h">
<polygon fill="white" stroke="red" points="2745.5,-298.5 2745.5,-317.5 2880.5,-317.5 2880.5,-298.5 2745.5,-298.5"/>
<text text-anchor="middle" x="2813" y="-305.5" font-family="FreeSans" font-size="10.00">DGtal/base/CountedPtr.h</text>
</a>
</g>
</g>
<!-- Node110&#45;&gt;Node72 -->
<g id="edge105" class="edge"><title>Node110&#45;&gt;Node72</title>
<path fill="none" stroke="midnightblue" d="M2730.75,-360.403C2746.37,-350.646 2772.06,-334.585 2790.58,-323.011"/>
<polygon fill="midnightblue" stroke="midnightblue" points="2792.65,-325.849 2799.27,-317.581 2788.94,-319.913 2792.65,-325.849"/>
</g>
<!-- Node72&#45;&gt;Node1 -->
<g id="edge106" class="edge"><title>Node72&#45;&gt;Node1</title>
<path fill="none" stroke="midnightblue" d="M2822.28,-298.427C2832.11,-288.9 2847.49,-272.654 2857,-256 2873.52,-227.075 2881,-218.31 2881,-185 2881,-185 2881,-185 2881,-121 2881,-90.2048 2881.91,-74.1122 2857,-56 2812.81,-23.8654 1978.36,-13.3841 1784.84,-11.3806"/>
<polygon fill="midnightblue" stroke="midnightblue" points="1784.6,-7.87798 1774.56,-11.2759 1784.53,-14.8776 1784.6,-7.87798"/>
</g>
<!-- Node72&#45;&gt;Node2 -->
<g id="edge107" class="edge"><title>Node72&#45;&gt;Node2</title>
<path fill="none" stroke="midnightblue" d="M2754.89,-298.482C2736.71,-296.069 2716.55,-293.653 2698,-292 2376.96,-263.402 1992.31,-252.127 1834.26,-248.482"/>
<polygon fill="midnightblue" stroke="midnightblue" points="1834.26,-244.981 1824.18,-248.253 1834.1,-251.98 1834.26,-244.981"/>
</g>
<!-- Node119&#45;&gt;Node1 -->
<g id="edge110" class="edge"><title>Node119&#45;&gt;Node1</title>
<path fill="none" stroke="midnightblue" d="M1745.53,-569.262C1829.25,-559.791 1974.06,-542.919 2098,-526 2151.4,-518.711 3014.89,-413.625 3057,-380 3105.44,-341.323 3099,-308.988 3099,-247 3099,-247 3099,-247 3099,-121 3099,-71.2977 3055.05,-72.0084 3008,-56 2890.02,-15.8627 1986.76,-11.5246 1784.92,-11.0565"/>
<polygon fill="midnightblue" stroke="midnightblue" points="1784.77,-7.55626 1774.77,-11.0349 1784.76,-14.5562 1784.77,-7.55626"/>
</g>
<!-- Node119&#45;&gt;Node2 -->
<g id="edge111" class="edge"><title>Node119&#45;&gt;Node2</title>
<path fill="none" stroke="midnightblue" d="M1674.99,-562.965C1674.33,-543.087 1676.09,-506.639 1695,-484 1722.62,-450.936 1756.9,-480.652 1785,-448 1805.25,-424.469 1797.42,-410.841 1801,-380 1804.19,-352.554 1794.64,-293.672 1794,-292 1790.01,-281.643 1782.98,-271.544 1776.44,-263.546"/>
<polygon fill="midnightblue" stroke="midnightblue" points="1778.89,-261.031 1769.69,-255.779 1773.6,-265.623 1778.89,-261.031"/>
</g>
<!-- Node119&#45;&gt;Node42 -->
<g id="edge114" class="edge"><title>Node119&#45;&gt;Node42</title>
<path fill="none" stroke="midnightblue" d="M1606.22,-575.915C1542.85,-572.504 1448.22,-561.219 1374,-526 1348.39,-513.847 1350.78,-497.759 1326,-484 1291.22,-464.693 1248.24,-451.817 1214.46,-443.833"/>
<polygon fill="midnightblue" stroke="midnightblue" points="1214.82,-440.325 1204.3,-441.511 1213.27,-447.149 1214.82,-440.325"/>
</g>
<!-- Node119&#45;&gt;Node43 -->
<g id="edge112" class="edge"><title>Node119&#45;&gt;Node43</title>
<path fill="none" stroke="midnightblue" d="M1606.3,-570.043C1541.51,-562.337 1450.93,-548.014 1423,-526 1378.81,-491.172 1360.58,-422.886 1354.1,-389.825"/>
<polygon fill="midnightblue" stroke="midnightblue" points="1357.49,-388.931 1352.27,-379.712 1350.6,-390.175 1357.49,-388.931"/>
</g>
<!-- Node119&#45;&gt;Node56 -->
<g id="edge113" class="edge"><title>Node119&#45;&gt;Node56</title>
<path fill="none" stroke="midnightblue" d="M1660.43,-562.793C1649.8,-552.84 1635.6,-539.039 1624,-526 1581.55,-478.274 1536.84,-417.214 1516.01,-388.025"/>
<polygon fill="midnightblue" stroke="midnightblue" points="1518.76,-385.853 1510.11,-379.726 1513.05,-389.906 1518.76,-385.853"/>
</g>
<!-- Node119&#45;&gt;Node120 -->
<g id="edge115" class="edge"><title>Node119&#45;&gt;Node120</title>
<path fill="none" stroke="midnightblue" d="M1641.62,-562.973C1614.19,-551.777 1575.57,-536.019 1545.9,-523.912"/>
<polygon fill="midnightblue" stroke="midnightblue" points="1547.18,-520.657 1536.6,-520.12 1544.54,-527.138 1547.18,-520.657"/>
</g>
<!-- Node120&#45;&gt;Node1 -->
<g id="edge116" class="edge"><title>Node120&#45;&gt;Node1</title>
<path fill="none" stroke="midnightblue" d="M1466.98,-489.868C1416.27,-470.023 1319.03,-434.285 1233,-416 1208.61,-410.816 362.678,-334.37 340,-324 321.128,-315.37 322.68,-304.345 306,-292 249.621,-250.275 190,-255.139 190,-185 190,-185 190,-185 190,-121 190,-83.7249 209.572,-72.493 243,-56 310.398,-22.7462 1473.77,-12.8954 1705.17,-11.2613"/>
<polygon fill="midnightblue" stroke="midnightblue" points="1705.5,-14.7591 1715.47,-11.1896 1705.45,-7.7593 1705.5,-14.7591"/>
</g>
<!-- Node120&#45;&gt;Node2 -->
<g id="edge117" class="edge"><title>Node120&#45;&gt;Node2</title>
<path fill="none" stroke="midnightblue" d="M1571.68,-493.578C1644.53,-481.971 1749.98,-462.886 1762,-448 1805.29,-394.397 1781.21,-303.919 1767.93,-265.328"/>
<polygon fill="midnightblue" stroke="midnightblue" points="1771.21,-264.118 1764.53,-255.893 1764.63,-266.488 1771.21,-264.118"/>
</g>
<!-- Node120&#45;&gt;Node42 -->
<g id="edge120" class="edge"><title>Node120&#45;&gt;Node42</title>
<path fill="none" stroke="midnightblue" d="M1434.04,-489.973C1367.96,-476.334 1269.06,-455.923 1209.32,-443.592"/>
<polygon fill="midnightblue" stroke="midnightblue" points="1209.86,-440.13 1199.36,-441.536 1208.44,-446.985 1209.86,-440.13"/>
</g>
<!-- Node120&#45;&gt;Node43 -->
<g id="edge118" class="edge"><title>Node120&#45;&gt;Node43</title>
<path fill="none" stroke="midnightblue" d="M1484.15,-489.778C1470.29,-478.623 1450.69,-462.596 1434,-448 1410.35,-427.321 1383.87,-402.446 1367.32,-386.677"/>
<polygon fill="midnightblue" stroke="midnightblue" points="1369.7,-384.105 1360.05,-379.725 1364.86,-389.165 1369.7,-384.105"/>
</g>
<!-- Node120&#45;&gt;Node56 -->
<g id="edge119" class="edge"><title>Node120&#45;&gt;Node56</title>
<path fill="none" stroke="midnightblue" d="M1502.21,-489.767C1502.58,-465.609 1503.31,-416.59 1503.72,-389.697"/>
<polygon fill="midnightblue" stroke="midnightblue" points="1507.22,-389.714 1503.87,-379.662 1500.22,-389.609 1507.22,-389.714"/>
</g>
<!-- Node123&#45;&gt;Node1 -->
<g id="edge123" class="edge"><title>Node123&#45;&gt;Node1</title>
<path fill="none" stroke="midnightblue" d="M2229.09,-630.964C2414.8,-579.821 3045.16,-405.121 3082,-380 3114.98,-357.514 3137,-348.916 3137,-309 3137,-309 3137,-309 3137,-121 3137,-74.1454 3098.02,-72.0385 3054,-56 2932.33,-11.674 1990.79,-10.6021 1784.75,-10.9041"/>
<polygon fill="midnightblue" stroke="midnightblue" points="1784.67,-7.40414 1774.68,-10.9209 1784.69,-14.4041 1784.67,-7.40414"/>
</g>
<!-- Node123&#45;&gt;Node2 -->
<g id="edge124" class="edge"><title>Node123&#45;&gt;Node2</title>
<path fill="none" stroke="midnightblue" d="M2180.78,-630.772C2185.76,-601.58 2193.63,-533.504 2170,-484 2150.48,-443.095 2130.68,-442.629 2094,-416 2068.22,-397.28 2055.07,-401.976 2032,-380 1998.26,-347.862 2013.42,-318.375 1975,-292 1933.77,-263.692 1878.3,-252.602 1834.17,-248.505"/>
<polygon fill="midnightblue" stroke="midnightblue" points="1834.33,-245.007 1824.07,-247.671 1833.75,-251.983 1834.33,-245.007"/>
</g>
<!-- Node123&#45;&gt;Node32 -->
<g id="edge125" class="edge"><title>Node123&#45;&gt;Node32</title>
<path fill="none" stroke="midnightblue" d="M2184.69,-630.917C2189.35,-620.79 2195.51,-606.73 2200,-594 2246.36,-462.624 2193.98,-398.332 2284,-292 2329.68,-238.038 2408.57,-209.617 2460.77,-195.962"/>
<polygon fill="midnightblue" stroke="midnightblue" points="2461.68,-199.343 2470.51,-193.503 2459.96,-192.556 2461.68,-199.343"/>
</g>
<!-- Node123&#45;&gt;Node119 -->
<g id="edge126" class="edge"><title>Node123&#45;&gt;Node119</title>
<path fill="none" stroke="midnightblue" d="M2113.91,-636.574C2022.55,-624.563 1854.98,-602.531 1755.73,-589.482"/>
<polygon fill="midnightblue" stroke="midnightblue" points="1756.12,-586.003 1745.75,-588.17 1755.21,-592.944 1756.12,-586.003"/>
</g>
<!-- Node154&#45;&gt;Node1 -->
<g id="edge128" class="edge"><title>Node154&#45;&gt;Node1</title>
<path fill="none" stroke="midnightblue" d="M2090.12,-486.24C2094.81,-485.464 2099.45,-484.713 2104,-484 2329.04,-448.683 2385.56,-440.799 2612,-416 2658.78,-410.877 2998.86,-411.305 3034,-380 3079.03,-339.875 3061,-307.317 3061,-247 3061,-247 3061,-247 3061,-121 3061,-65.3574 3007.29,-71.9938 2954,-56 2840.04,-21.801 1980.71,-12.8882 1784.71,-11.2913"/>
<polygon fill="midnightblue" stroke="midnightblue" points="1784.61,-7.79045 1774.58,-11.2105 1784.55,-14.7902 1784.61,-7.79045"/>
</g>
<!-- Node154&#45;&gt;Node2 -->
<g id="edge130" class="edge"><title>Node154&#45;&gt;Node2</title>
<path fill="none" stroke="midnightblue" d="M1986.91,-484.465C1973.15,-443.32 1935.86,-347.007 1873,-292 1854.88,-276.144 1830.46,-265.456 1809.05,-258.491"/>
<polygon fill="midnightblue" stroke="midnightblue" points="1810.05,-255.135 1799.46,-255.548 1807.99,-261.827 1810.05,-255.135"/>
</g>
<!-- Node154&#45;&gt;Node12 -->
<g id="edge129" class="edge"><title>Node154&#45;&gt;Node12</title>
<path fill="none" stroke="midnightblue" d="M2090.23,-488.371C2118.4,-480.074 2147.57,-467.389 2170,-448 2246.31,-382.046 2177.47,-305.042 2251,-236 2296.58,-193.201 2347.28,-248.285 2387,-200 2400.34,-183.791 2399.22,-158.58 2396.35,-141.458"/>
<polygon fill="midnightblue" stroke="midnightblue" points="2399.76,-140.656 2394.34,-131.55 2392.9,-142.046 2399.76,-140.656"/>
</g>
<!-- Node154&#45;&gt;Node43 -->
<g id="edge131" class="edge"><title>Node154&#45;&gt;Node43</title>
<path fill="none" stroke="midnightblue" d="M1895.99,-485.483C1892.96,-484.973 1889.96,-484.477 1887,-484 1768.35,-464.852 1736.62,-472.659 1619,-448 1533.94,-430.167 1436.38,-399.477 1385.68,-382.733"/>
<polygon fill="midnightblue" stroke="midnightblue" points="1386.78,-379.41 1376.19,-379.578 1384.57,-386.053 1386.78,-379.41"/>
</g>
<!-- Node154&#45;&gt;Node66 -->
<g id="edge132" class="edge"><title>Node154&#45;&gt;Node66</title>
<path fill="none" stroke="midnightblue" d="M1909.68,-484.411C1854,-471.322 1782.85,-454.595 1737.1,-443.838"/>
<polygon fill="midnightblue" stroke="midnightblue" points="1737.71,-440.386 1727.17,-441.504 1736.11,-447.2 1737.71,-440.386"/>
</g>
<!-- Node159&#45;&gt;Node1 -->
<g id="edge134" class="edge"><title>Node159&#45;&gt;Node1</title>
<path fill="none" stroke="midnightblue" d="M1843.16,-484.414C1961.09,-436.515 2234.7,-303.237 2191,-112 2184.85,-85.0635 2186.58,-71.9251 2164,-56 2103.55,-13.3677 1877.18,-10.0081 1784.72,-10.4786"/>
<polygon fill="midnightblue" stroke="midnightblue" points="1784.62,-6.97912 1774.64,-10.548 1784.67,-13.979 1784.62,-6.97912"/>
</g>
<!-- Node159&#45;&gt;Node2 -->
<g id="edge136" class="edge"><title>Node159&#45;&gt;Node2</title>
<path fill="none" stroke="midnightblue" d="M1820.33,-484.293C1831.83,-474.816 1843.75,-462.378 1850,-448 1877.62,-384.405 1887.45,-350.98 1851,-292 1841.33,-276.348 1824.38,-265.958 1807.78,-259.15"/>
<polygon fill="midnightblue" stroke="midnightblue" points="1808.69,-255.756 1798.1,-255.542 1806.25,-262.315 1808.69,-255.756"/>
</g>
<!-- Node159&#45;&gt;Node12 -->
<g id="edge135" class="edge"><title>Node159&#45;&gt;Node12</title>
<path fill="none" stroke="midnightblue" d="M1878.07,-485.775C1954.93,-469.658 2055.01,-448.599 2056,-448 2160.51,-384.715 2139.63,-317.114 2231,-236 2253.13,-216.356 2262.61,-216.757 2287,-200 2317.48,-179.053 2351.9,-153.426 2372.76,-137.66"/>
<polygon fill="midnightblue" stroke="midnightblue" points="2374.97,-140.379 2380.82,-131.549 2370.74,-134.8 2374.97,-140.379"/>
</g>
<!-- Node159&#45;&gt;Node43 -->
<g id="edge137" class="edge"><title>Node159&#45;&gt;Node43</title>
<path fill="none" stroke="midnightblue" d="M1703.74,-492.469C1647.5,-483.614 1573.31,-469.251 1510,-448 1459.63,-431.091 1404.61,-401.802 1374.31,-384.635"/>
<polygon fill="midnightblue" stroke="midnightblue" points="1375.79,-381.451 1365.38,-379.518 1372.31,-387.525 1375.79,-381.451"/>
</g>
<!-- Node159&#45;&gt;Node66 -->
<g id="edge138" class="edge"><title>Node159&#45;&gt;Node66</title>
<path fill="none" stroke="midnightblue" d="M1763.41,-484.411C1747.04,-472.786 1726.62,-458.291 1711.65,-447.658"/>
<polygon fill="midnightblue" stroke="midnightblue" points="1713.29,-444.532 1703.11,-441.597 1709.24,-450.24 1713.29,-444.532"/>
</g>
<!-- Node161&#45;&gt;Node1 -->
<g id="edge141" class="edge"><title>Node161&#45;&gt;Node1</title>
<path fill="none" stroke="midnightblue" d="M2962.15,-360.496C2981.13,-341.89 3023,-295.35 3023,-247 3023,-247 3023,-247 3023,-121 3023,-51.5912 2948.51,-72.1232 2881,-56 2772.72,-30.1399 1973,-14.9101 1784.65,-11.6586"/>
<polygon fill="midnightblue" stroke="midnightblue" points="1784.69,-8.1589 1774.63,-11.4871 1784.57,-15.1579 1784.69,-8.1589"/>
</g>
<!-- Node161&#45;&gt;Node2 -->
<g id="edge144" class="edge"><title>Node161&#45;&gt;Node2</title>
<path fill="none" stroke="midnightblue" d="M2948.88,-360.265C2940.4,-343.451 2919.24,-306.929 2889,-292 2794.95,-245.567 2069.45,-245.323 1834.31,-246.489"/>
<polygon fill="midnightblue" stroke="midnightblue" points="1834.13,-242.99 1824.15,-246.542 1834.17,-249.99 1834.13,-242.99"/>
</g>
<!-- Node161&#45;&gt;Node34 -->
<g id="edge146" class="edge"><title>Node161&#45;&gt;Node34</title>
<path fill="none" stroke="midnightblue" d="M2951.2,-360.049C2947.76,-344.724 2939.02,-313.077 2922,-292 2876.15,-235.228 2844.84,-243.162 2786,-200 2757.89,-179.378 2726.47,-153.985 2707.21,-138.14"/>
<polygon fill="midnightblue" stroke="midnightblue" points="2709.21,-135.255 2699.28,-131.583 2704.76,-140.651 2709.21,-135.255"/>
</g>
<!-- Node161&#45;&gt;Node72 -->
<g id="edge145" class="edge"><title>Node161&#45;&gt;Node72</title>
<path fill="none" stroke="midnightblue" d="M2932.94,-360.403C2909.24,-350.245 2869.59,-333.255 2842.42,-321.607"/>
<polygon fill="midnightblue" stroke="midnightblue" points="2843.59,-318.303 2833.02,-317.581 2840.83,-324.737 2843.59,-318.303"/>
</g>
<!-- Node162 -->
<g id="node49" class="node"><title>Node162</title>
<g id="a_node49"><a xlink:href="Board_8h_source.html" target="_top" xlink:title="Board/Board.h">
<polygon fill="white" stroke="red" points="2909,-236.5 2909,-255.5 2995,-255.5 2995,-236.5 2909,-236.5"/>
<text text-anchor="middle" x="2952" y="-243.5" font-family="FreeSans" font-size="10.00">Board/Board.h</text>
</a>
</g>
</g>
<!-- Node161&#45;&gt;Node162 -->
<g id="edge142" class="edge"><title>Node161&#45;&gt;Node162</title>
<path fill="none" stroke="midnightblue" d="M2954.99,-360.433C2956.97,-351.424 2959.87,-336.805 2961,-324 2962.25,-309.833 2962.4,-306.153 2961,-292 2960.13,-283.17 2958.31,-273.505 2956.53,-265.404"/>
<polygon fill="midnightblue" stroke="midnightblue" points="2959.92,-264.494 2954.23,-255.551 2953.1,-266.085 2959.92,-264.494"/>
</g>
<!-- Node162&#45;&gt;Node34 -->
<g id="edge143" class="edge"><title>Node162&#45;&gt;Node34</title>
<path fill="none" stroke="midnightblue" d="M2933.51,-236.421C2888.05,-215.333 2770.63,-160.868 2716.76,-135.878"/>
<polygon fill="midnightblue" stroke="midnightblue" points="2718.02,-132.602 2707.47,-131.569 2715.07,-138.952 2718.02,-132.602"/>
</g>
<!-- Node320&#45;&gt;Node1 -->
<g id="edge149" class="edge"><title>Node320&#45;&gt;Node1</title>
<path fill="none" stroke="midnightblue" d="M2417.84,-636.447C2586.73,-602.97 3175,-474.492 3175,-309 3175,-309 3175,-309 3175,-121 3175,-75.8741 3139.17,-72.0657 3097,-56 2971.82,-8.30813 1995.86,-9.8822 1785.05,-10.7887"/>
<polygon fill="midnightblue" stroke="midnightblue" points="1784.75,-7.28996 1774.76,-10.8351 1784.78,-14.2899 1784.75,-7.28996"/>
</g>
<!-- Node320&#45;&gt;Node2 -->
<g id="edge148" class="edge"><title>Node320&#45;&gt;Node2</title>
<path fill="none" stroke="midnightblue" d="M2369.93,-636.13C2358.27,-603.481 2313.94,-488.151 2246,-416 2175.59,-341.229 2147.12,-328.197 2051,-292 1980.35,-265.393 1894.33,-254.51 1834.4,-250.064"/>
<polygon fill="midnightblue" stroke="midnightblue" points="1834.49,-246.562 1824.27,-249.355 1834,-253.545 1834.49,-246.562"/>
</g>
<!-- Node320&#45;&gt;Node4 -->
<g id="edge150" class="edge"><title>Node320&#45;&gt;Node4</title>
<path fill="none" stroke="midnightblue" d="M2382.49,-636.259C2403.68,-615.737 2453,-561.965 2453,-506 2453,-506 2453,-506 2453,-369 2453,-270.608 2559.88,-291.524 2596,-200 2614.28,-153.683 2564.05,-105.644 2533.89,-81.997"/>
<polygon fill="midnightblue" stroke="midnightblue" points="2535.71,-78.9871 2525.63,-75.7324 2531.48,-84.5643 2535.71,-78.9871"/>
</g>
<!-- Node320&#45;&gt;Node42 -->
<g id="edge151" class="edge"><title>Node320&#45;&gt;Node42</title>
<path fill="none" stroke="midnightblue" d="M2310.39,-636.482C2291.35,-634.112 2270.34,-631.72 2251,-630 2044.96,-611.684 1503.35,-632.456 1326,-526 1304.42,-513.045 1308.71,-498.309 1288,-484 1261.65,-465.792 1227.87,-452.794 1201.35,-444.478"/>
<polygon fill="midnightblue" stroke="midnightblue" points="1202.16,-441.066 1191.57,-441.519 1200.13,-447.766 1202.16,-441.066"/>
</g>
<!-- Node320&#45;&gt;Node66 -->
<g id="edge154" class="edge"><title>Node320&#45;&gt;Node66</title>
<path fill="none" stroke="midnightblue" d="M2312.59,-636.482C2150.27,-613.318 1715.49,-549.36 1695,-526 1677.21,-505.712 1680.92,-472.321 1685.66,-451.553"/>
<polygon fill="midnightblue" stroke="midnightblue" points="1689.09,-452.286 1688.19,-441.728 1682.31,-450.538 1689.09,-452.286"/>
</g>
<!-- Node320&#45;&gt;Node72 -->
<g id="edge153" class="edge"><title>Node320&#45;&gt;Node72</title>
<path fill="none" stroke="midnightblue" d="M2389.89,-636.401C2408.89,-626.593 2440.57,-609.857 2467,-594 2614.98,-505.212 2687.42,-518.031 2791,-380 2802.48,-364.702 2808.04,-343.318 2810.69,-328.023"/>
<polygon fill="midnightblue" stroke="midnightblue" points="2814.21,-328.117 2812.2,-317.716 2807.29,-327.105 2814.21,-328.117"/>
</g>
<!-- Node320&#45;&gt;Node119 -->
<g id="edge152" class="edge"><title>Node320&#45;&gt;Node119</title>
<path fill="none" stroke="midnightblue" d="M2307.2,-636.495C2289.01,-634.257 2269.25,-631.931 2251,-630 2157.21,-620.077 1890.5,-597.176 1755.85,-585.745"/>
<polygon fill="midnightblue" stroke="midnightblue" points="1755.86,-582.234 1745.6,-584.876 1755.27,-589.209 1755.86,-582.234"/>
</g>
</g>
</svg>
