<?xml version="1.0" encoding="UTF-8" standalone="no"?>
<!DOCTYPE svg PUBLIC "-//W3C//DTD SVG 1.1//EN"
 "http://www.w3.org/Graphics/SVG/1.1/DTD/svg11.dtd">
<!-- Generated by graphviz version 2.38.0 (20140413.2041)
 -->
<!-- Title: GARITHMETIC Pages: 1 -->
<!--zoomable 317 -->
<svg id="main" version="1.1" xmlns="http://www.w3.org/2000/svg" xmlns:xlink="http://www.w3.org/1999/xlink" xml:space="preserve" onload="init(evt)">
<style type="text/css"><![CDATA[
.edge:hover path { stroke: red; }
.edge:hover polygon { stroke: red; fill: red; }
]]></style>
<script type="text/javascript"><![CDATA[
var edges = document.getElementsByTagName('g');
if (edges && edges.length) {
  for (var i=0;i<edges.length;i++) {
    if (edges[i].id.substr(0,4)=='edge') {
      edges[i].setAttribute('class','edge');
    }
  }
}
]]></script>
        <defs>
                <circle id="rim" cx="0" cy="0" r="7"/>
                <circle id="rim2" cx="0" cy="0" r="3.5"/>
                <g id="zoomPlus">
                        <use xlink:href="#rim" fill="#404040">
                                <set attributeName="fill" to="#808080" begin="zoomplus.mouseover" end="zoomplus.mouseout"/>
                        </use>
                        <path d="M-4,0h8M0,-4v8" fill="none" stroke="white" stroke-width="1.5" pointer-events="none"/>
                </g>
                <g id="zoomMin">
                        <use xlink:href="#rim" fill="#404040">
                                <set attributeName="fill" to="#808080" begin="zoomminus.mouseover" end="zoomminus.mouseout"/>
                        </use>
                        <path d="M-4,0h8" fill="none" stroke="white" stroke-width="1.5" pointer-events="none"/>
                </g>
                <g id="dirArrow">
                        <path fill="none" stroke="white" stroke-width="1.5" d="M0,-3.0v7 M-2.5,-0.5L0,-3.0L2.5,-0.5"/>
                </g>
               <g id="resetDef">
                       <use xlink:href="#rim2" fill="#404040">
                               <set attributeName="fill" to="#808080" begin="reset.mouseover" end="reset.mouseout"/>
                       </use>
               </g>
        </defs>

<script type="text/javascript">
var viewWidth = 2132;
var viewHeight = 317;
</script>
<script xlink:href="svgpan.js"/>
<svg id="graph" class="graph">
<g id="viewport">
<title>GARITHMETIC</title>
<polygon fill="white" stroke="none" points="-4,4 -4,-313 2128,-313 2128,4 -4,4"/>
<g id="clust1" class="cluster"><title>cluster_ext</title>
</g>
<g id="clust2" class="cluster"><title>cluster_base</title>
<polygon fill="#eeeeff" stroke="#eeeeff" points="16,-218 16,-293 476,-293 476,-218 16,-218"/>
<text text-anchor="middle" x="246" y="-225.8" font-family="Times,serif" font-size="14.00">base</text>
</g>
<g id="clust3" class="cluster"><title>cluster_kernel</title>
<polygon fill="#ddddee" stroke="#ddddee" points="484,-218 484,-293 1130,-293 1130,-218 484,-218"/>
<text text-anchor="middle" x="807" y="-225.8" font-family="Times,serif" font-size="14.00">kernel</text>
</g>
<g id="clust4" class="cluster"><title>cluster_boost</title>
<polygon fill="white" stroke="white" points="1138,-218 1138,-293 2108,-293 2108,-218 1138,-218"/>
<text text-anchor="middle" x="1623" y="-225.8" font-family="Times,serif" font-size="14.00">boost</text>
</g>
<g id="clust5" class="cluster"><title>cluster_concepts</title>
<polygon fill="lightgrey" stroke="lightgrey" points="478,-102 478,-177 786,-177 786,-102 478,-102"/>
<text text-anchor="middle" x="632" y="-109.8" font-family="Times,serif" font-size="14.00">arithmetic (main concepts)</text>
</g>
<g id="clust6" class="cluster"><title>cluster_models</title>
<polygon fill="#ccffcc" stroke="#ccffcc" points="126,-8 126,-83 1650,-83 1650,-8 126,-8"/>
<text text-anchor="middle" x="888" y="-15.8" font-family="Times,serif" font-size="14.00">arithmetic (main models)</text>
</g>
<!-- CBackInsertable -->
<g id="node1" class="node"><title>CBackInsertable</title>
<g id="a_node1"><a xlink:href="structDGtal_1_1concepts_1_1CBackInsertable.html" target="_top" xlink:title="CBackInsertable">
<ellipse fill="white" stroke="white" cx="113" cy="-267" rx="89.0842" ry="18"/>
<text text-anchor="middle" x="113" y="-263.3" font-family="Times,serif" font-size="14.00">CBackInsertable</text>
</a>
</g>
</g>
<!-- CConstSinglePassRange -->
<g id="node2" class="node"><title>CConstSinglePassRange</title>
<g id="a_node2"><a xlink:href="structDGtal_1_1concepts_1_1CConstSinglePassRange.html" target="_top" xlink:title="CConstSinglePassRange">
<ellipse fill="white" stroke="white" cx="344" cy="-267" rx="124.278" ry="18"/>
<text text-anchor="middle" x="344" y="-263.3" font-family="Times,serif" font-size="14.00">CConstSinglePassRange</text>
</a>
</g>
</g>
<!-- CInteger -->
<g id="node3" class="node"><title>CInteger</title>
<g id="a_node3"><a xlink:href="structDGtal_1_1concepts_1_1CInteger.html" target="_top" xlink:title="CInteger">
<ellipse fill="white" stroke="white" cx="739" cy="-267" rx="52.7911" ry="18"/>
<text text-anchor="middle" x="739" y="-263.3" font-family="Times,serif" font-size="14.00">CInteger</text>
</a>
</g>
</g>
<!-- CSignedNumber -->
<g id="node4" class="node"><title>CSignedNumber</title>
<g id="a_node4"><a xlink:href="structDGtal_1_1concepts_1_1CSignedNumber.html" target="_top" xlink:title="CSignedNumber">
<ellipse fill="white" stroke="white" cx="580" cy="-267" rx="88.2844" ry="18"/>
<text text-anchor="middle" x="580" y="-263.3" font-family="Times,serif" font-size="14.00">CSignedNumber</text>
</a>
</g>
</g>
<!-- CUnsignedNumber -->
<g id="node5" class="node"><title>CUnsignedNumber</title>
<g id="a_node5"><a xlink:href="structDGtal_1_1concepts_1_1CUnsignedNumber.html" target="_top" xlink:title="CUnsignedNumber">
<ellipse fill="white" stroke="white" cx="1021" cy="-267" rx="100.983" ry="18"/>
<text text-anchor="middle" x="1021" y="-263.3" font-family="Times,serif" font-size="14.00">CUnsignedNumber</text>
</a>
</g>
</g>
<!-- CSpace -->
<g id="node6" class="node"><title>CSpace</title>
<g id="a_node6"><a xlink:href="structDGtal_1_1concepts_1_1CSpace.html" target="_top" xlink:title="CSpace">
<ellipse fill="white" stroke="white" cx="856" cy="-267" rx="46.2923" ry="18"/>
<text text-anchor="middle" x="856" y="-263.3" font-family="Times,serif" font-size="14.00">CSpace</text>
</a>
</g>
</g>
<!-- boost_CopyConstructible -->
<g id="node7" class="node"><title>boost_CopyConstructible</title>
<g id="a_node7"><a xlink:href="structboost_1_1CopyConstructible.html" target="_top" xlink:title="boost::CopyConstructible">
<ellipse fill="orange" stroke="orange" cx="1574" cy="-267" rx="129.977" ry="18"/>
<text text-anchor="middle" x="1574" y="-263.3" font-family="Times,serif" font-size="14.00">boost::CopyConstructible</text>
</a>
</g>
</g>
<!-- boost_DefaultConstructible -->
<g id="node8" class="node"><title>boost_DefaultConstructible</title>
<g id="a_node8"><a xlink:href="structboost_1_1DefaultConstructible.html" target="_top" xlink:title="boost::DefaultConstructible">
<ellipse fill="orange" stroke="orange" cx="1286" cy="-267" rx="139.976" ry="18"/>
<text text-anchor="middle" x="1286" y="-263.3" font-family="Times,serif" font-size="14.00">boost::DefaultConstructible</text>
</a>
</g>
</g>
<!-- boost_Assignable -->
<g id="node9" class="node"><title>boost_Assignable</title>
<g id="a_node9"><a xlink:href="structboost_1_1Assignable.html" target="_top" xlink:title="boost::Assignable">
<ellipse fill="orange" stroke="orange" cx="1815" cy="-267" rx="92.8835" ry="18"/>
<text text-anchor="middle" x="1815" y="-263.3" font-family="Times,serif" font-size="14.00">boost::Assignable</text>
</a>
</g>
</g>
<!-- boost_Sequence -->
<g id="node10" class="node"><title>boost_Sequence</title>
<g id="a_node10"><a xlink:href="structboost_1_1Sequence.html" target="_top" xlink:title="boost::Sequence">
<ellipse fill="orange" stroke="orange" cx="2013" cy="-267" rx="87.1846" ry="18"/>
<text text-anchor="middle" x="2013" y="-263.3" font-family="Times,serif" font-size="14.00">boost::Sequence</text>
</a>
</g>
</g>
<!-- CPositiveIrreducibleFraction -->
<g id="node11" class="node"><title>CPositiveIrreducibleFraction</title>
<g id="a_node11"><a xlink:href="structDGtal_1_1concepts_1_1CPositiveIrreducibleFraction.html" target="_top" xlink:title="CPositiveIrreducibleFraction">
<ellipse fill="white" stroke="white" cx="632" cy="-151" rx="146.474" ry="18"/>
<text text-anchor="middle" x="632" y="-147.3" font-family="Times,serif" font-size="14.00">CPositiveIrreducibleFraction</text>
</a>
</g>
</g>
<!-- CPositiveIrreducibleFraction&#45;&gt;CBackInsertable -->
<g id="edge1" class="edge"><title>CPositiveIrreducibleFraction&#45;&gt;CBackInsertable</title>
<path fill="none" stroke="black" d="M495.78,-157.594C411.834,-164.238 303.023,-178.683 211,-210 187.406,-218.03 163.066,-231.903 144.545,-243.832"/>
<polygon fill="black" stroke="black" points="142.373,-241.072 135.95,-249.498 146.225,-246.917 142.373,-241.072"/>
</g>
<!-- CPositiveIrreducibleFraction&#45;&gt;CConstSinglePassRange -->
<g id="edge2" class="edge"><title>CPositiveIrreducibleFraction&#45;&gt;CConstSinglePassRange</title>
<path fill="none" stroke="black" d="M588.642,-168.201C558.171,-179.671 516.495,-195.526 480,-210 450.616,-221.654 417.847,-235.132 391.839,-245.945"/>
<polygon fill="black" stroke="black" points="390.468,-242.725 382.582,-249.8 393.159,-249.187 390.468,-242.725"/>
</g>
<!-- CPositiveIrreducibleFraction&#45;&gt;CInteger -->
<g id="edge6" class="edge"><title>CPositiveIrreducibleFraction&#45;&gt;CInteger</title>
<path fill="none" stroke="black" stroke-dasharray="5,2" d="M648.251,-169.314C666.475,-188.73 696.146,-220.343 716.571,-242.104"/>
<polygon fill="black" stroke="black" points="714.244,-244.738 723.639,-249.634 719.348,-239.948 714.244,-244.738"/>
<text text-anchor="middle" x="687.5" y="-190.8" font-family="Times,serif" font-size="14.00">use</text>
</g>
<!-- CPositiveIrreducibleFraction&#45;&gt;CSignedNumber -->
<g id="edge7" class="edge"><title>CPositiveIrreducibleFraction&#45;&gt;CSignedNumber</title>
<path fill="none" stroke="black" stroke-dasharray="5,2" d="M624.102,-169.314C615.577,-188.003 601.898,-217.992 592.033,-239.619"/>
<polygon fill="black" stroke="black" points="588.767,-238.346 587.802,-248.896 595.136,-241.251 588.767,-238.346"/>
<text text-anchor="middle" x="627.5" y="-190.8" font-family="Times,serif" font-size="14.00">use</text>
</g>
<!-- CPositiveIrreducibleFraction&#45;&gt;boost_CopyConstructible -->
<g id="edge4" class="edge"><title>CPositiveIrreducibleFraction&#45;&gt;boost_CopyConstructible</title>
<path fill="none" stroke="black" d="M756.568,-160.501C978.025,-175.683 1418.71,-206.229 1435,-210 1468.9,-217.849 1505.31,-232.779 1532.36,-245.251"/>
<polygon fill="black" stroke="black" points="1530.98,-248.469 1541.52,-249.544 1533.95,-242.13 1530.98,-248.469"/>
</g>
<!-- CPositiveIrreducibleFraction&#45;&gt;boost_DefaultConstructible -->
<g id="edge3" class="edge"><title>CPositiveIrreducibleFraction&#45;&gt;boost_DefaultConstructible</title>
<path fill="none" stroke="black" d="M705.069,-166.604C766.439,-178.246 856.583,-193.896 936,-202 1023.62,-210.941 1047.63,-192.789 1134,-210 1171.46,-217.463 1211.95,-232.767 1241.71,-245.493"/>
<polygon fill="black" stroke="black" points="1240.42,-248.746 1250.98,-249.521 1243.2,-242.326 1240.42,-248.746"/>
</g>
<!-- CPositiveIrreducibleFraction&#45;&gt;boost_Assignable -->
<g id="edge5" class="edge"><title>CPositiveIrreducibleFraction&#45;&gt;boost_Assignable</title>
<path fill="none" stroke="black" d="M754.626,-160.891C828.332,-166.046 924.014,-172.405 1009,-177 1115.16,-182.74 1141.8,-182.152 1248,-187 1254.46,-187.295 1706.78,-208.239 1713,-210 1738.29,-217.155 1764.21,-231.497 1783.59,-243.875"/>
<polygon fill="black" stroke="black" points="1781.73,-246.839 1792.02,-249.391 1785.57,-240.984 1781.73,-246.839"/>
</g>
<!-- SternBrocot_Fraction -->
<g id="node12" class="node"><title>SternBrocot_Fraction</title>
<g id="a_node12"><a xlink:href="classDGtal_1_1SternBrocot_1_1Fraction.html" target="_top" xlink:title="SternBrocot::Fraction">
<ellipse fill="white" stroke="white" cx="246" cy="-57" rx="112.38" ry="18"/>
<text text-anchor="middle" x="246" y="-53.3" font-family="Times,serif" font-size="14.00">SternBrocot::Fraction</text>
</a>
</g>
</g>
<!-- SternBrocot_Fraction&#45;&gt;CPositiveIrreducibleFraction -->
<g id="edge8" class="edge"><title>SternBrocot_Fraction&#45;&gt;CPositiveIrreducibleFraction</title>
<path fill="none" stroke="black" d="M305.889,-72.2741C373.844,-88.4705 484.724,-114.898 558.026,-132.369"/>
<polygon fill="black" stroke="black" points="557.572,-135.859 568.111,-134.773 559.195,-129.049 557.572,-135.859"/>
</g>
<!-- LightSternBrocot_Fraction -->
<g id="node13" class="node"><title>LightSternBrocot_Fraction</title>
<g id="a_node13"><a xlink:href="classDGtal_1_1LightSternBrocot_1_1Fraction.html" target="_top" xlink:title="LightSternBrocot::Fraction">
<ellipse fill="white" stroke="white" cx="514" cy="-57" rx="137.576" ry="18"/>
<text text-anchor="middle" x="514" y="-53.3" font-family="Times,serif" font-size="14.00">LightSternBrocot::Fraction</text>
</a>
</g>
</g>
<!-- LightSternBrocot_Fraction&#45;&gt;CPositiveIrreducibleFraction -->
<g id="edge9" class="edge"><title>LightSternBrocot_Fraction&#45;&gt;CPositiveIrreducibleFraction</title>
<path fill="none" stroke="black" d="M535.643,-74.8742C554.239,-89.3727 581.246,-110.429 601.939,-126.563"/>
<polygon fill="black" stroke="black" points="600.056,-129.533 610.095,-132.921 604.36,-124.012 600.056,-129.533"/>
</g>
<!-- LighterSternBrocot_Fraction -->
<g id="node14" class="node"><title>LighterSternBrocot_Fraction</title>
<g id="a_node14"><a xlink:href="classDGtal_1_1LighterSternBrocot_1_1Fraction.html" target="_top" xlink:title="LighterSternBrocot::Fraction">
<ellipse fill="white" stroke="white" cx="817" cy="-57" rx="147.574" ry="18"/>
<text text-anchor="middle" x="817" y="-53.3" font-family="Times,serif" font-size="14.00">LighterSternBrocot::Fraction</text>
</a>
</g>
</g>
<!-- LighterSternBrocot_Fraction&#45;&gt;CPositiveIrreducibleFraction -->
<g id="edge10" class="edge"><title>LighterSternBrocot_Fraction&#45;&gt;CPositiveIrreducibleFraction</title>
<path fill="none" stroke="black" d="M783.498,-74.6605C752.851,-89.9011 707.375,-112.516 674.247,-128.991"/>
<polygon fill="black" stroke="black" points="672.648,-125.877 665.253,-133.463 675.765,-132.144 672.648,-125.877"/>
</g>
<!-- IntegerComputer -->
<g id="node15" class="node"><title>IntegerComputer</title>
<g id="a_node15"><a xlink:href="classDGtal_1_1IntegerComputer.html" target="_top" xlink:title="IntegerComputer">
<ellipse fill="white" stroke="white" cx="1338" cy="-57" rx="92.0841" ry="18"/>
<text text-anchor="middle" x="1338" y="-53.3" font-family="Times,serif" font-size="14.00">IntegerComputer</text>
</a>
</g>
</g>
<!-- IntegerComputer&#45;&gt;CInteger -->
<g id="edge14" class="edge"><title>IntegerComputer&#45;&gt;CInteger</title>
<path fill="none" stroke="black" stroke-dasharray="5,2" d="M1284.19,-71.7525C1247.91,-81.3692 1203.59,-93.8937 1186,-102 1130.92,-127.384 1128.94,-156.116 1072,-177 958.086,-218.781 911.395,-159.653 801,-210 784.87,-217.356 770.009,-230.454 758.882,-242.133"/>
<polygon fill="black" stroke="black" points="756.289,-239.783 752.134,-249.529 761.46,-244.501 756.289,-239.783"/>
<text text-anchor="middle" x="1198.5" y="-147.3" font-family="Times,serif" font-size="14.00">use</text>
</g>
<!-- IntegerComputer&#45;&gt;CUnsignedNumber -->
<g id="edge15" class="edge"><title>IntegerComputer&#45;&gt;CUnsignedNumber</title>
<path fill="none" stroke="black" stroke-dasharray="5,2" d="M1314.11,-74.5663C1303.12,-82.5011 1290.09,-92.3593 1279,-102 1231.8,-143.031 1235.44,-173.048 1180,-202 1161.61,-211.607 1153.72,-203.548 1134,-210 1107.23,-218.756 1078.84,-232.85 1057.21,-244.708"/>
<polygon fill="black" stroke="black" points="1055.41,-241.705 1048.38,-249.631 1058.81,-247.819 1055.41,-241.705"/>
<text text-anchor="middle" x="1291.5" y="-147.3" font-family="Times,serif" font-size="14.00">use</text>
</g>
<!-- IntegerComputer&#45;&gt;boost_CopyConstructible -->
<g id="edge12" class="edge"><title>IntegerComputer&#45;&gt;boost_CopyConstructible</title>
<path fill="none" stroke="black" d="M1344.79,-75.3178C1355.33,-100.385 1377.72,-147.05 1409,-177 1441.02,-207.659 1485.67,-230.886 1520.45,-245.912"/>
<polygon fill="black" stroke="black" points="1519.4,-249.27 1529.98,-249.932 1522.12,-242.82 1519.4,-249.27"/>
</g>
<!-- IntegerComputer&#45;&gt;boost_DefaultConstructible -->
<g id="edge11" class="edge"><title>IntegerComputer&#45;&gt;boost_DefaultConstructible</title>
<path fill="none" stroke="black" d="M1333.74,-75.0215C1324.74,-111.054 1303.68,-195.294 1292.79,-238.849"/>
<polygon fill="black" stroke="black" points="1289.34,-238.193 1290.31,-248.743 1296.14,-239.891 1289.34,-238.193"/>
</g>
<!-- IntegerComputer&#45;&gt;boost_Assignable -->
<g id="edge13" class="edge"><title>IntegerComputer&#45;&gt;boost_Assignable</title>
<path fill="none" stroke="black" d="M1363.95,-74.4531C1374.85,-82.0708 1387.24,-91.7097 1397,-102 1424.57,-131.066 1412.91,-155.954 1447,-177 1548.37,-239.583 1599.65,-173.346 1713,-210 1737.56,-217.942 1763.01,-231.905 1782.35,-243.901"/>
<polygon fill="black" stroke="black" points="1780.73,-247.018 1791.05,-249.421 1784.48,-241.108 1780.73,-247.018"/>
</g>
<!-- LatticePolytope2D -->
<g id="node16" class="node"><title>LatticePolytope2D</title>
<g id="a_node16"><a xlink:href="classDGtal_1_1LatticePolytope2D.html" target="_top" xlink:title="LatticePolytope2D">
<ellipse fill="white" stroke="white" cx="1545" cy="-57" rx="96.6831" ry="18"/>
<text text-anchor="middle" x="1545" y="-53.3" font-family="Times,serif" font-size="14.00">LatticePolytope2D</text>
</a>
</g>
</g>
<!-- LatticePolytope2D&#45;&gt;CSpace -->
<g id="edge16" class="edge"><title>LatticePolytope2D&#45;&gt;CSpace</title>
<path fill="none" stroke="black" stroke-dasharray="5,2" d="M1520.36,-74.4102C1478.67,-101.221 1390.66,-153.755 1308,-177 1265.39,-188.983 951.072,-191.2 911,-210 896.208,-216.94 883.208,-229.663 873.565,-241.23"/>
<polygon fill="black" stroke="black" points="870.606,-239.33 867.159,-249.349 876.101,-243.666 870.606,-239.33"/>
<text text-anchor="middle" x="1486.5" y="-147.3" font-family="Times,serif" font-size="14.00">use</text>
</g>
<!-- LatticePolytope2D&#45;&gt;boost_CopyConstructible -->
<g id="edge18" class="edge"><title>LatticePolytope2D&#45;&gt;boost_CopyConstructible</title>
<path fill="none" stroke="black" d="M1547.37,-75.0215C1552.39,-110.978 1564.09,-194.938 1570.18,-238.572"/>
<polygon fill="black" stroke="black" points="1566.75,-239.322 1571.59,-248.743 1573.68,-238.356 1566.75,-239.322"/>
</g>
<!-- LatticePolytope2D&#45;&gt;boost_DefaultConstructible -->
<g id="edge17" class="edge"><title>LatticePolytope2D&#45;&gt;boost_DefaultConstructible</title>
<path fill="none" stroke="black" d="M1543.35,-75.4774C1539.33,-106.984 1525.97,-172.742 1483,-202 1465.12,-214.172 1455.89,-204.391 1435,-210 1400.11,-219.368 1362,-233.771 1333.06,-245.624"/>
<polygon fill="black" stroke="black" points="1331.51,-242.475 1323.61,-249.535 1334.19,-248.943 1331.51,-242.475"/>
</g>
<!-- LatticePolytope2D&#45;&gt;boost_Assignable -->
<g id="edge19" class="edge"><title>LatticePolytope2D&#45;&gt;boost_Assignable</title>
<path fill="none" stroke="black" d="M1566.64,-74.6699C1614.73,-111.714 1730.53,-200.929 1785.32,-243.136"/>
<polygon fill="black" stroke="black" points="1783.2,-245.921 1793.26,-249.251 1787.47,-240.375 1783.2,-245.921"/>
</g>
<!-- LatticePolytope2D&#45;&gt;boost_Sequence -->
<g id="edge20" class="edge"><title>LatticePolytope2D&#45;&gt;boost_Sequence</title>
<path fill="none" stroke="black" d="M1588.36,-73.214C1658.76,-98.4679 1801.68,-152.034 1917,-210 1937.7,-220.405 1960.1,-233.368 1978.05,-244.202"/>
<polygon fill="black" stroke="black" points="1976.64,-247.44 1987,-249.648 1980.28,-241.46 1976.64,-247.44"/>
</g>
<!-- ClosedIntegerHalfPlane -->
<g id="node17" class="node"><title>ClosedIntegerHalfPlane</title>
<g id="a_node17"><a xlink:href="structDGtal_1_1ClosedIntegerHalfPlane.html" target="_top" xlink:title="ClosedIntegerHalfPlane">
<ellipse fill="white" stroke="white" cx="1105" cy="-57" rx="122.678" ry="18"/>
<text text-anchor="middle" x="1105" y="-53.3" font-family="Times,serif" font-size="14.00">ClosedIntegerHalfPlane</text>
</a>
</g>
</g>
<!-- ClosedIntegerHalfPlane&#45;&gt;CSpace -->
<g id="edge21" class="edge"><title>ClosedIntegerHalfPlane&#45;&gt;CSpace</title>
<path fill="none" stroke="black" stroke-dasharray="5,2" d="M1081.52,-74.8551C1044.24,-101.961 969.693,-157.527 911,-210 899.666,-220.133 887.766,-232.069 877.944,-242.313"/>
<polygon fill="black" stroke="black" points="875.225,-240.094 870.883,-249.758 880.304,-244.911 875.225,-240.094"/>
<text text-anchor="middle" x="1055.5" y="-147.3" font-family="Times,serif" font-size="14.00">use</text>
</g>
</g>
</svg>
        <g id="navigator" transform="translate(0 0)" fill="#404254">
                <rect fill="#f2f5e9" fill-opacity="0.5" stroke="#606060" stroke-width=".5" x="0" y="0" width="60" height="60"/>
                <use id="zoomplus" xlink:href="#zoomPlus" x="17" y="9" onmousedown="handleZoom(evt,'in')"/>
                <use id="zoomminus" xlink:href="#zoomMin" x="42" y="9" onmousedown="handleZoom(evt,'out')"/>
                <use id="reset" xlink:href="#resetDef" x="30" y="36" onmousedown="handleReset()"/>
                <g id="arrowUp" xlink:href="#dirArrow" transform="translate(30 24)" onmousedown="handlePan(0,-1)">
                  <use xlink:href="#rim" fill="#404040">
                        <set attributeName="fill" to="#808080" begin="arrowUp.mouseover" end="arrowUp.mouseout"/>
                  </use>
                  <path fill="none" stroke="white" stroke-width="1.5" d="M0,-3.0v7 M-2.5,-0.5L0,-3.0L2.5,-0.5"/>
                </g>
                <g id="arrowRight" xlink:href="#dirArrow" transform="rotate(90) translate(36 -43)" onmousedown="handlePan(1,0)">
                  <use xlink:href="#rim" fill="#404040">
                        <set attributeName="fill" to="#808080" begin="arrowRight.mouseover" end="arrowRight.mouseout"/>
                  </use>
                  <path fill="none" stroke="white" stroke-width="1.5" d="M0,-3.0v7 M-2.5,-0.5L0,-3.0L2.5,-0.5"/>
                </g>
                <g id="arrowDown" xlink:href="#dirArrow" transform="rotate(180) translate(-30 -48)" onmousedown="handlePan(0,1)">
                  <use xlink:href="#rim" fill="#404040">
                        <set attributeName="fill" to="#808080" begin="arrowDown.mouseover" end="arrowDown.mouseout"/>
                  </use>
                  <path fill="none" stroke="white" stroke-width="1.5" d="M0,-3.0v7 M-2.5,-0.5L0,-3.0L2.5,-0.5"/>
                </g>
                <g id="arrowLeft" xlink:href="#dirArrow" transform="rotate(270) translate(-36 17)" onmousedown="handlePan(-1,0)">
                  <use xlink:href="#rim" fill="#404040">
                        <set attributeName="fill" to="#808080" begin="arrowLeft.mouseover" end="arrowLeft.mouseout"/>
                  </use>
                  <path fill="none" stroke="white" stroke-width="1.5" d="M0,-3.0v7 M-2.5,-0.5L0,-3.0L2.5,-0.5"/>
                </g>
        </g>
        <svg viewBox="0 0 15 15" width="100%" height="30px" preserveAspectRatio="xMaxYMin meet">
         <g id="arrow_out" transform="scale(0.3 0.3)">
          <a xlink:href="dot_inline_dotgraph_1_org.svg" target="_base">
           <rect id="button" ry="5" rx="5" y="6" x="6" height="38" width="38"
                fill="#f2f5e9" fill-opacity="0.5" stroke="#606060" stroke-width="1.0"/>
           <path id="arrow"
             d="M 11.500037,31.436501 C 11.940474,20.09759 22.043105,11.32322 32.158766,21.979434 L 37.068811,17.246167 C 37.068811,17.246167 37.088388,32 37.088388,32 L 22.160133,31.978069 C 22.160133,31.978069 26.997745,27.140456 26.997745,27.140456 C 18.528582,18.264221 13.291696,25.230495 11.500037,31.436501 z"
             style="fill:#404040;"/>
          </a>
         </g>
        </svg>
</svg>
