<?xml version="1.0" encoding="UTF-8" standalone="no"?>
<!DOCTYPE svg PUBLIC "-//W3C//DTD SVG 1.1//EN"
 "http://www.w3.org/Graphics/SVG/1.1/DTD/svg11.dtd">
<!-- Generated by graphviz version 2.38.0 (20140413.2041)
 -->
<!-- Title: GBASE Pages: 1 -->
<!--zoomable 426 -->
<svg id="main" version="1.1" xmlns="http://www.w3.org/2000/svg" xmlns:xlink="http://www.w3.org/1999/xlink" xml:space="preserve" onload="init(evt)">
<style type="text/css"><![CDATA[
.edge:hover path { stroke: red; }
.edge:hover polygon { stroke: red; fill: red; }
]]></style>
<script type="text/javascript"><![CDATA[
var edges = document.getElementsByTagName('g');
if (edges && edges.length) {
  for (var i=0;i<edges.length;i++) {
    if (edges[i].id.substr(0,4)=='edge') {
      edges[i].setAttribute('class','edge');
    }
  }
}
]]></script>
        <defs>
                <circle id="rim" cx="0" cy="0" r="7"/>
                <circle id="rim2" cx="0" cy="0" r="3.5"/>
                <g id="zoomPlus">
                        <use xlink:href="#rim" fill="#404040">
                                <set attributeName="fill" to="#808080" begin="zoomplus.mouseover" end="zoomplus.mouseout"/>
                        </use>
                        <path d="M-4,0h8M0,-4v8" fill="none" stroke="white" stroke-width="1.5" pointer-events="none"/>
                </g>
                <g id="zoomMin">
                        <use xlink:href="#rim" fill="#404040">
                                <set attributeName="fill" to="#808080" begin="zoomminus.mouseover" end="zoomminus.mouseout"/>
                        </use>
                        <path d="M-4,0h8" fill="none" stroke="white" stroke-width="1.5" pointer-events="none"/>
                </g>
                <g id="dirArrow">
                        <path fill="none" stroke="white" stroke-width="1.5" d="M0,-3.0v7 M-2.5,-0.5L0,-3.0L2.5,-0.5"/>
                </g>
               <g id="resetDef">
                       <use xlink:href="#rim2" fill="#404040">
                               <set attributeName="fill" to="#808080" begin="reset.mouseover" end="reset.mouseout"/>
                       </use>
               </g>
        </defs>

<script type="text/javascript">
var viewWidth = 1961;
var viewHeight = 426;
</script>
<script xlink:href="svgpan.js"/>
<svg id="graph" class="graph">
<g id="viewport">
<title>GBASE</title>
<polygon fill="white" stroke="none" points="-4,4 -4,-422 1957,-422 1957,4 -4,4"/>
<g id="clust1" class="cluster"><title>cluster_ext</title>
<polygon fill="white" stroke="white" points="629,-335 629,-410 1945,-410 1945,-335 629,-335"/>
<text text-anchor="middle" x="1287" y="-342.8" font-family="Times,serif" font-size="14.00">std/boost concepts</text>
</g>
<g id="clust2" class="cluster"><title>cluster_0</title>
<polygon fill="lightgrey" stroke="lightgrey" points="8,-8 8,-302 1847,-302 1847,-8 8,-8"/>
<text text-anchor="middle" x="927.5" y="-15.8" font-family="Times,serif" font-size="14.00">Base</text>
</g>
<!-- boost_OutputIterator -->
<g id="node1" class="node"><title>boost_OutputIterator</title>
<g id="a_node1"><a xlink:href="structboost_1_1OutputIterator.html" target="_top" xlink:title="OutputIterator">
<ellipse fill="none" stroke="black" cx="1007" cy="-384" rx="79.8859" ry="18"/>
<text text-anchor="middle" x="1007" y="-380.3" font-family="Times,serif" font-size="14.00">OutputIterator</text>
</a>
</g>
</g>
<!-- boost_SinglePassIteratorConcept -->
<g id="node2" class="node"><title>boost_SinglePassIteratorConcept</title>
<g id="a_node2"><a xlink:href="structboost__concepts_1_1SinglePassIteratorConcept.html" target="_top" xlink:title="SinglePassIteratorConcept">
<ellipse fill="none" stroke="black" cx="773" cy="-384" rx="135.676" ry="18"/>
<text text-anchor="middle" x="773" y="-380.3" font-family="Times,serif" font-size="14.00">SinglePassIteratorConcept</text>
</a>
</g>
</g>
<!-- boost_Assignable -->
<g id="node3" class="node"><title>boost_Assignable</title>
<g id="a_node3"><a xlink:href="structboost_1_1Assignable.html" target="_top" xlink:title="Assignable">
<ellipse fill="none" stroke="black" cx="1633" cy="-384" rx="61.99" ry="18"/>
<text text-anchor="middle" x="1633" y="-380.3" font-family="Times,serif" font-size="14.00">Assignable</text>
</a>
</g>
</g>
<!-- boost_LessThanComparable -->
<g id="node4" class="node"><title>boost_LessThanComparable</title>
<g id="a_node4"><a xlink:href="structboost_1_1LessThanComparable.html" target="_top" xlink:title="LessThanComparable">
<ellipse fill="none" stroke="black" cx="1825" cy="-384" rx="111.581" ry="18"/>
<text text-anchor="middle" x="1825" y="-380.3" font-family="Times,serif" font-size="14.00">LessThanComparable</text>
</a>
</g>
</g>
<!-- boost_DefaultConstructible -->
<g id="node5" class="node"><title>boost_DefaultConstructible</title>
<g id="a_node5"><a xlink:href="structboost_1_1DefaultConstructible.html" target="_top" xlink:title="DefaultConstructible">
<ellipse fill="none" stroke="black" cx="1445" cy="-384" rx="108.581" ry="18"/>
<text text-anchor="middle" x="1445" y="-380.3" font-family="Times,serif" font-size="14.00">DefaultConstructible</text>
</a>
</g>
</g>
<!-- boost_EqualityComparable -->
<g id="node6" class="node"><title>boost_EqualityComparable</title>
<g id="a_node6"><a xlink:href="structboost_1_1EqualityComparable.html" target="_top" xlink:title="EqualityComparable">
<ellipse fill="none" stroke="black" cx="1212" cy="-384" rx="106.681" ry="18"/>
<text text-anchor="middle" x="1212" y="-380.3" font-family="Times,serif" font-size="14.00">EqualityComparable</text>
</a>
</g>
</g>
<!-- CSinglePassRange -->
<g id="node7" class="node"><title>CSinglePassRange</title>
<g id="a_node7"><a xlink:href="structDGtal_1_1concepts_1_1CSinglePassRange.html" target="_top" xlink:title="CSinglePassRange">
<ellipse fill="white" stroke="white" cx="510" cy="-203" rx="96.6831" ry="18"/>
<text text-anchor="middle" x="510" y="-199.3" font-family="Times,serif" font-size="14.00">CSinglePassRange</text>
</a>
</g>
</g>
<!-- CSinglePassRange&#45;&gt;boost_SinglePassIteratorConcept -->
<g id="edge14" class="edge"><title>CSinglePassRange&#45;&gt;boost_SinglePassIteratorConcept</title>
<path fill="none" stroke="black" stroke-dasharray="5,2" d="M578.466,-215.818C643.833,-227.709 734.111,-245.965 746,-258 771.457,-283.77 775.432,-327.466 774.967,-355.77"/>
<polygon fill="black" stroke="black" points="771.468,-355.676 774.607,-365.795 778.464,-355.927 771.468,-355.676"/>
<text text-anchor="middle" x="780.5" y="-272.3" font-family="Times,serif" font-size="14.00">use</text>
</g>
<!-- CConstSinglePassRange -->
<g id="node8" class="node"><title>CConstSinglePassRange</title>
<g id="a_node8"><a xlink:href="structDGtal_1_1concepts_1_1CConstSinglePassRange.html" target="_top" xlink:title="CConstSinglePassRange">
<ellipse fill="white" stroke="white" cx="613" cy="-276" rx="124.278" ry="18"/>
<text text-anchor="middle" x="613" y="-272.3" font-family="Times,serif" font-size="14.00">CConstSinglePassRange</text>
</a>
</g>
</g>
<!-- CSinglePassRange&#45;&gt;CConstSinglePassRange -->
<g id="edge1" class="edge"><title>CSinglePassRange&#45;&gt;CConstSinglePassRange</title>
<path fill="none" stroke="black" d="M533.889,-220.467C547.6,-229.919 565.019,-241.926 580.019,-252.265"/>
<polygon fill="black" stroke="black" points="578.305,-255.335 588.525,-258.129 582.278,-249.572 578.305,-255.335"/>
</g>
<!-- CConstSinglePassRange&#45;&gt;boost_SinglePassIteratorConcept -->
<g id="edge13" class="edge"><title>CConstSinglePassRange&#45;&gt;boost_SinglePassIteratorConcept</title>
<path fill="none" stroke="black" stroke-dasharray="5,2" d="M638.352,-293.796C665.62,-311.861 709.114,-340.675 739.258,-360.646"/>
<polygon fill="black" stroke="black" points="737.497,-363.677 747.766,-366.283 741.363,-357.842 737.497,-363.677"/>
<text text-anchor="middle" x="700.5" y="-315.8" font-family="Times,serif" font-size="14.00">use</text>
</g>
<!-- CSinglePassRangeFromPoint -->
<g id="node9" class="node"><title>CSinglePassRangeFromPoint</title>
<g id="a_node9"><a xlink:href="structDGtal_1_1concepts_1_1CSinglePassRangeFromPoint.html" target="_top" xlink:title="CSinglePassRangeFromPoint">
<ellipse fill="white" stroke="white" cx="798" cy="-130" rx="145.674" ry="18"/>
<text text-anchor="middle" x="798" y="-126.3" font-family="Times,serif" font-size="14.00">CSinglePassRangeFromPoint</text>
</a>
</g>
</g>
<!-- CSinglePassRangeFromPoint&#45;&gt;CSinglePassRange -->
<g id="edge3" class="edge"><title>CSinglePassRangeFromPoint&#45;&gt;CSinglePassRange</title>
<path fill="none" stroke="black" d="M735.863,-146.319C688.623,-157.964 623.782,-173.95 575.689,-185.806"/>
<polygon fill="black" stroke="black" points="574.565,-182.478 565.693,-188.27 576.24,-189.275 574.565,-182.478"/>
</g>
<!-- CConstSinglePassRangeFromPoint -->
<g id="node10" class="node"><title>CConstSinglePassRangeFromPoint</title>
<g id="a_node10"><a xlink:href="structDGtal_1_1concepts_1_1CConstSinglePassRangeFromPoint.html" target="_top" xlink:title="CConstSinglePassRangeFromPoint">
<ellipse fill="white" stroke="white" cx="798" cy="-203" rx="172.769" ry="18"/>
<text text-anchor="middle" x="798" y="-199.3" font-family="Times,serif" font-size="14.00">CConstSinglePassRangeFromPoint</text>
</a>
</g>
</g>
<!-- CSinglePassRangeFromPoint&#45;&gt;CConstSinglePassRangeFromPoint -->
<g id="edge2" class="edge"><title>CSinglePassRangeFromPoint&#45;&gt;CConstSinglePassRangeFromPoint</title>
<path fill="none" stroke="black" d="M798,-148.187C798,-156.211 798,-165.953 798,-174.931"/>
<polygon fill="black" stroke="black" points="794.5,-174.971 798,-184.971 801.5,-174.971 794.5,-174.971"/>
</g>
<!-- CConstSinglePassRangeFromPoint&#45;&gt;CConstSinglePassRange -->
<g id="edge4" class="edge"><title>CConstSinglePassRangeFromPoint&#45;&gt;CConstSinglePassRange</title>
<path fill="none" stroke="black" d="M755.092,-220.467C727.953,-230.883 692.727,-244.402 664.139,-255.374"/>
<polygon fill="black" stroke="black" points="662.801,-252.138 654.719,-258.989 665.31,-258.673 662.801,-252.138"/>
</g>
<!-- CBidirectionalRange -->
<g id="node11" class="node"><title>CBidirectionalRange</title>
<g id="a_node11"><a xlink:href="structDGtal_1_1concepts_1_1CBidirectionalRange.html" target="_top" xlink:title="CBidirectionalRange">
<ellipse fill="white" stroke="white" cx="527" cy="-130" rx="107.482" ry="18"/>
<text text-anchor="middle" x="527" y="-126.3" font-family="Times,serif" font-size="14.00">CBidirectionalRange</text>
</a>
</g>
</g>
<!-- CBidirectionalRange&#45;&gt;CSinglePassRange -->
<g id="edge5" class="edge"><title>CBidirectionalRange&#45;&gt;CSinglePassRange</title>
<path fill="none" stroke="black" d="M522.885,-148.187C520.943,-156.298 518.58,-166.164 516.411,-175.223"/>
<polygon fill="black" stroke="black" points="513.002,-174.431 514.077,-184.971 519.81,-176.061 513.002,-174.431"/>
</g>
<!-- CConstBidirectionalRange -->
<g id="node12" class="node"><title>CConstBidirectionalRange</title>
<g id="a_node12"><a xlink:href="structDGtal_1_1concepts_1_1CConstBidirectionalRange.html" target="_top" xlink:title="CConstBidirectionalRange">
<ellipse fill="white" stroke="white" cx="261" cy="-203" rx="134.576" ry="18"/>
<text text-anchor="middle" x="261" y="-199.3" font-family="Times,serif" font-size="14.00">CConstBidirectionalRange</text>
</a>
</g>
</g>
<!-- CBidirectionalRange&#45;&gt;CConstBidirectionalRange -->
<g id="edge6" class="edge"><title>CBidirectionalRange&#45;&gt;CConstBidirectionalRange</title>
<path fill="none" stroke="black" d="M478.3,-146.122C456.293,-152.792 429.914,-160.561 406,-167 383.237,-173.129 358.329,-179.325 335.679,-184.764"/>
<polygon fill="black" stroke="black" points="334.699,-181.4 325.786,-187.127 336.326,-188.208 334.699,-181.4"/>
</g>
<!-- CBidirectionalRangeFromPoint -->
<g id="node13" class="node"><title>CBidirectionalRangeFromPoint</title>
<g id="a_node13"><a xlink:href="structDGtal_1_1concepts_1_1CBidirectionalRangeFromPoint.html" target="_top" xlink:title="CBidirectionalRangeFromPoint">
<ellipse fill="white" stroke="white" cx="368" cy="-57" rx="155.972" ry="18"/>
<text text-anchor="middle" x="368" y="-53.3" font-family="Times,serif" font-size="14.00">CBidirectionalRangeFromPoint</text>
</a>
</g>
</g>
<!-- CBidirectionalRangeFromPoint&#45;&gt;CConstBidirectionalRange -->
<g id="edge7" class="edge"><title>CBidirectionalRangeFromPoint&#45;&gt;CConstBidirectionalRange</title>
<path fill="none" stroke="black" d="M380.04,-75.2934C391.779,-94.5013 405.862,-125.733 391,-148 379.916,-164.607 362.666,-176.114 344.316,-184.084"/>
<polygon fill="black" stroke="black" points="342.932,-180.868 334.945,-187.829 345.53,-187.368 342.932,-180.868"/>
</g>
<!-- CConstBidirectionalRangeFromPoint -->
<g id="node14" class="node"><title>CConstBidirectionalRangeFromPoint</title>
<g id="a_node14"><a xlink:href="structDGtal_1_1concepts_1_1CConstBidirectionalRangeFromPoint.html" target="_top" xlink:title="CConstBidirectionalRangeFromPoint">
<ellipse fill="white" stroke="white" cx="199" cy="-130" rx="183.068" ry="18"/>
<text text-anchor="middle" x="199" y="-126.3" font-family="Times,serif" font-size="14.00">CConstBidirectionalRangeFromPoint</text>
</a>
</g>
</g>
<!-- CBidirectionalRangeFromPoint&#45;&gt;CConstBidirectionalRangeFromPoint -->
<g id="edge8" class="edge"><title>CBidirectionalRangeFromPoint&#45;&gt;CConstBidirectionalRangeFromPoint</title>
<path fill="none" stroke="black" d="M328.803,-74.4673C304.767,-84.5655 273.786,-97.5808 248.121,-108.364"/>
<polygon fill="black" stroke="black" points="246.433,-105.276 238.57,-112.376 249.145,-111.73 246.433,-105.276"/>
</g>
<!-- CConstBidirectionalRangeFromPoint&#45;&gt;CConstBidirectionalRange -->
<g id="edge9" class="edge"><title>CConstBidirectionalRangeFromPoint&#45;&gt;CConstBidirectionalRange</title>
<path fill="none" stroke="black" d="M214.008,-148.187C221.624,-156.908 231.013,-167.66 239.391,-177.254"/>
<polygon fill="black" stroke="black" points="236.916,-179.741 246.13,-184.971 242.189,-175.137 236.916,-179.741"/>
</g>
<!-- CSinglePassRangeWithWritableIterator -->
<g id="node15" class="node"><title>CSinglePassRangeWithWritableIterator</title>
<g id="a_node15"><a xlink:href="structDGtal_1_1concepts_1_1CSinglePassRangeWithWritableIterator.html" target="_top" xlink:title="CSinglePassRangeWithWritableIterator">
<ellipse fill="white" stroke="white" cx="1185" cy="-203" rx="196.065" ry="18"/>
<text text-anchor="middle" x="1185" y="-199.3" font-family="Times,serif" font-size="14.00">CSinglePassRangeWithWritableIterator</text>
</a>
</g>
</g>
<!-- CSinglePassRangeWithWritableIterator&#45;&gt;boost_OutputIterator -->
<g id="edge12" class="edge"><title>CSinglePassRangeWithWritableIterator&#45;&gt;boost_OutputIterator</title>
<path fill="none" stroke="black" stroke-dasharray="5,2" d="M1167.93,-221.163C1136.09,-253.187 1067.54,-322.116 1031.04,-358.83"/>
<polygon fill="black" stroke="black" points="1028.33,-356.591 1023.76,-366.15 1033.29,-361.527 1028.33,-356.591"/>
<text text-anchor="middle" x="1142.5" y="-272.3" font-family="Times,serif" font-size="14.00">use</text>
</g>
<!-- CSinglePassRangeWithWritableIteratorFromPoint -->
<g id="node16" class="node"><title>CSinglePassRangeWithWritableIteratorFromPoint</title>
<g id="a_node16"><a xlink:href="structDGtal_1_1concepts_1_1CSinglePassRangeWithWritableIteratorFromPoint.html" target="_top" xlink:title="CSinglePassRangeWithWritableIteratorFromPoint">
<ellipse fill="white" stroke="white" cx="1450" cy="-57" rx="245.057" ry="18"/>
<text text-anchor="middle" x="1450" y="-53.3" font-family="Times,serif" font-size="14.00">CSinglePassRangeWithWritableIteratorFromPoint</text>
</a>
</g>
</g>
<!-- CBidirectionalRangeWithWritableIterator -->
<g id="node17" class="node"><title>CBidirectionalRangeWithWritableIterator</title>
<g id="a_node17"><a xlink:href="structDGtal_1_1concepts_1_1CBidirectionalRangeWithWritableIterator.html" target="_top" xlink:title="CBidirectionalRangeWithWritableIterator">
<ellipse fill="white" stroke="white" cx="1171" cy="-130" rx="206.063" ry="18"/>
<text text-anchor="middle" x="1171" y="-126.3" font-family="Times,serif" font-size="14.00">CBidirectionalRangeWithWritableIterator</text>
</a>
</g>
</g>
<!-- CBidirectionalRangeWithWritableIterator&#45;&gt;CSinglePassRangeWithWritableIterator -->
<g id="edge10" class="edge"><title>CBidirectionalRangeWithWritableIterator&#45;&gt;CSinglePassRangeWithWritableIterator</title>
<path fill="none" stroke="black" d="M1174.39,-148.187C1175.97,-156.211 1177.89,-165.953 1179.66,-174.931"/>
<polygon fill="black" stroke="black" points="1176.27,-175.837 1181.64,-184.971 1183.14,-174.483 1176.27,-175.837"/>
</g>
<!-- CBidirectionalRangeWithWritableIteratorFromPoint -->
<g id="node18" class="node"><title>CBidirectionalRangeWithWritableIteratorFromPoint</title>
<g id="a_node18"><a xlink:href="structDGtal_1_1concepts_1_1CBidirectionalRangeWithWritableIteratorFromPoint.html" target="_top" xlink:title="CBidirectionalRangeWithWritableIteratorFromPoint">
<ellipse fill="white" stroke="white" cx="797" cy="-57" rx="254.555" ry="18"/>
<text text-anchor="middle" x="797" y="-53.3" font-family="Times,serif" font-size="14.00">CBidirectionalRangeWithWritableIteratorFromPoint</text>
</a>
</g>
</g>
<!-- CBidirectionalRangeWithWritableIteratorFromPoint&#45;&gt;CBidirectionalRangeWithWritableIterator -->
<g id="edge11" class="edge"><title>CBidirectionalRangeWithWritableIteratorFromPoint&#45;&gt;CBidirectionalRangeWithWritableIterator</title>
<path fill="none" stroke="black" d="M881.399,-74.0223C940.277,-85.1997 1018.81,-100.108 1079.24,-111.58"/>
<polygon fill="black" stroke="black" points="1078.68,-115.036 1089.16,-113.463 1079.99,-108.159 1078.68,-115.036"/>
</g>
<!-- CLabel -->
<g id="node19" class="node"><title>CLabel</title>
<g id="a_node19"><a xlink:href="structDGtal_1_1concepts_1_1CLabel.html" target="_top" xlink:title="CLabel">
<ellipse fill="white" stroke="white" cx="1442" cy="-130" rx="44.393" ry="18"/>
<text text-anchor="middle" x="1442" y="-126.3" font-family="Times,serif" font-size="14.00">CLabel</text>
</a>
</g>
</g>
<!-- CLabel&#45;&gt;boost_Assignable -->
<g id="edge20" class="edge"><title>CLabel&#45;&gt;boost_Assignable</title>
<path fill="none" stroke="black" d="M1454.53,-147.534C1487.17,-190.595 1574.95,-306.416 1613.92,-357.825"/>
<polygon fill="black" stroke="black" points="1611.34,-360.219 1620.17,-366.074 1616.92,-355.991 1611.34,-360.219"/>
</g>
<!-- CLabel&#45;&gt;boost_DefaultConstructible -->
<g id="edge19" class="edge"><title>CLabel&#45;&gt;boost_DefaultConstructible</title>
<path fill="none" stroke="black" d="M1442.21,-148.321C1442.72,-191.404 1444.06,-303.667 1444.68,-355.739"/>
<polygon fill="black" stroke="black" points="1441.18,-355.933 1444.8,-365.891 1448.18,-355.85 1441.18,-355.933"/>
</g>
<!-- CLabel&#45;&gt;boost_EqualityComparable -->
<g id="edge21" class="edge"><title>CLabel&#45;&gt;boost_EqualityComparable</title>
<path fill="none" stroke="black" d="M1434.21,-147.9C1425.08,-166.756 1408.79,-197.673 1390,-221 1345.03,-276.813 1280.41,-330.562 1242.66,-359.955"/>
<polygon fill="black" stroke="black" points="1240.36,-357.315 1234.58,-366.197 1244.63,-362.856 1240.36,-357.315"/>
</g>
<!-- CQuantity -->
<g id="node20" class="node"><title>CQuantity</title>
<g id="a_node20"><a xlink:href="structDGtal_1_1concepts_1_1CQuantity.html" target="_top" xlink:title="CQuantity">
<ellipse fill="white" stroke="white" cx="1128" cy="-57" rx="58.4896" ry="18"/>
<text text-anchor="middle" x="1128" y="-53.3" font-family="Times,serif" font-size="14.00">CQuantity</text>
</a>
</g>
</g>
<!-- CQuantity&#45;&gt;boost_LessThanComparable -->
<g id="edge16" class="edge"><title>CQuantity&#45;&gt;boost_LessThanComparable</title>
<path fill="none" stroke="black" d="M1169.84,-69.6788C1178.44,-71.7333 1187.47,-73.6445 1196,-75 1256.21,-84.5641 1742,-68.0374 1742,-129 1742,-129 1742,-129 1742,-277 1742,-311.08 1768.93,-340.725 1792.1,-359.932"/>
<polygon fill="black" stroke="black" points="1790.09,-362.801 1800.1,-366.28 1794.44,-357.32 1790.09,-362.801"/>
</g>
<!-- CQuantity&#45;&gt;CLabel -->
<g id="edge17" class="edge"><title>CQuantity&#45;&gt;CLabel</title>
<path fill="none" stroke="black" d="M1171.45,-69.2243C1179.59,-71.2242 1188.04,-73.2314 1196,-75 1279.98,-93.6614 1302.51,-91.2554 1386,-112 1390.1,-113.02 1394.35,-114.157 1398.59,-115.348"/>
<polygon fill="black" stroke="black" points="1397.82,-118.766 1408.4,-118.189 1399.77,-112.043 1397.82,-118.766"/>
</g>
<!-- CPredicate -->
<g id="node21" class="node"><title>CPredicate</title>
<g id="a_node21"><a xlink:href="structDGtal_1_1concepts_1_1CPredicate.html" target="_top" xlink:title="CPredicate">
<ellipse fill="white" stroke="white" cx="1776" cy="-57" rx="63.0888" ry="18"/>
<text text-anchor="middle" x="1776" y="-53.3" font-family="Times,serif" font-size="14.00">CPredicate</text>
</a>
</g>
</g>
<!-- CPredicate&#45;&gt;boost_Assignable -->
<g id="edge15" class="edge"><title>CPredicate&#45;&gt;boost_Assignable</title>
<path fill="none" stroke="black" d="M1777.51,-75.2011C1778.64,-89.5706 1780,-110.605 1780,-129 1780,-129 1780,-129 1780,-277 1780,-280.532 1707.63,-331.294 1664.44,-361.269"/>
<polygon fill="black" stroke="black" points="1662.19,-358.571 1655.97,-367.145 1666.18,-364.324 1662.19,-358.571"/>
</g>
<!-- CUnaryFunctor -->
<g id="node23" class="node"><title>CUnaryFunctor</title>
<g id="a_node23"><a xlink:href="structDGtal_1_1concepts_1_1CUnaryFunctor.html" target="_top" xlink:title="CUnaryFunctor">
<ellipse fill="white" stroke="white" cx="1631" cy="-130" rx="83.3857" ry="18"/>
<text text-anchor="middle" x="1631" y="-126.3" font-family="Times,serif" font-size="14.00">CUnaryFunctor</text>
</a>
</g>
</g>
<!-- CPredicate&#45;&gt;CUnaryFunctor -->
<g id="edge18" class="edge"><title>CPredicate&#45;&gt;CUnaryFunctor</title>
<path fill="none" stroke="black" d="M1745.6,-72.8839C1724.27,-83.3302 1695.49,-97.4212 1672.11,-108.869"/>
<polygon fill="black" stroke="black" points="1670.56,-105.733 1663.12,-113.274 1673.64,-112.02 1670.56,-105.733"/>
</g>
<!-- CBackInsertable -->
<g id="node22" class="node"><title>CBackInsertable</title>
<g id="a_node22"><a xlink:href="structDGtal_1_1concepts_1_1CBackInsertable.html" target="_top" xlink:title="CBackInsertable">
<ellipse fill="white" stroke="white" cx="105" cy="-57" rx="89.0842" ry="18"/>
<text text-anchor="middle" x="105" y="-53.3" font-family="Times,serif" font-size="14.00">CBackInsertable</text>
</a>
</g>
</g>
<!-- CUnaryFunctor&#45;&gt;boost_Assignable -->
<g id="edge22" class="edge"><title>CUnaryFunctor&#45;&gt;boost_Assignable</title>
<path fill="none" stroke="black" d="M1631.14,-148.321C1631.48,-191.404 1632.37,-303.667 1632.78,-355.739"/>
<polygon fill="black" stroke="black" points="1629.28,-355.919 1632.86,-365.891 1636.28,-355.864 1629.28,-355.919"/>
</g>
</g>
</svg>
        <g id="navigator" transform="translate(0 0)" fill="#404254">
                <rect fill="#f2f5e9" fill-opacity="0.5" stroke="#606060" stroke-width=".5" x="0" y="0" width="60" height="60"/>
                <use id="zoomplus" xlink:href="#zoomPlus" x="17" y="9" onmousedown="handleZoom(evt,'in')"/>
                <use id="zoomminus" xlink:href="#zoomMin" x="42" y="9" onmousedown="handleZoom(evt,'out')"/>
                <use id="reset" xlink:href="#resetDef" x="30" y="36" onmousedown="handleReset()"/>
                <g id="arrowUp" xlink:href="#dirArrow" transform="translate(30 24)" onmousedown="handlePan(0,-1)">
                  <use xlink:href="#rim" fill="#404040">
                        <set attributeName="fill" to="#808080" begin="arrowUp.mouseover" end="arrowUp.mouseout"/>
                  </use>
                  <path fill="none" stroke="white" stroke-width="1.5" d="M0,-3.0v7 M-2.5,-0.5L0,-3.0L2.5,-0.5"/>
                </g>
                <g id="arrowRight" xlink:href="#dirArrow" transform="rotate(90) translate(36 -43)" onmousedown="handlePan(1,0)">
                  <use xlink:href="#rim" fill="#404040">
                        <set attributeName="fill" to="#808080" begin="arrowRight.mouseover" end="arrowRight.mouseout"/>
                  </use>
                  <path fill="none" stroke="white" stroke-width="1.5" d="M0,-3.0v7 M-2.5,-0.5L0,-3.0L2.5,-0.5"/>
                </g>
                <g id="arrowDown" xlink:href="#dirArrow" transform="rotate(180) translate(-30 -48)" onmousedown="handlePan(0,1)">
                  <use xlink:href="#rim" fill="#404040">
                        <set attributeName="fill" to="#808080" begin="arrowDown.mouseover" end="arrowDown.mouseout"/>
                  </use>
                  <path fill="none" stroke="white" stroke-width="1.5" d="M0,-3.0v7 M-2.5,-0.5L0,-3.0L2.5,-0.5"/>
                </g>
                <g id="arrowLeft" xlink:href="#dirArrow" transform="rotate(270) translate(-36 17)" onmousedown="handlePan(-1,0)">
                  <use xlink:href="#rim" fill="#404040">
                        <set attributeName="fill" to="#808080" begin="arrowLeft.mouseover" end="arrowLeft.mouseout"/>
                  </use>
                  <path fill="none" stroke="white" stroke-width="1.5" d="M0,-3.0v7 M-2.5,-0.5L0,-3.0L2.5,-0.5"/>
                </g>
        </g>
        <svg viewBox="0 0 15 15" width="100%" height="30px" preserveAspectRatio="xMaxYMin meet">
         <g id="arrow_out" transform="scale(0.3 0.3)">
          <a xlink:href="dot_inline_dotgraph_4_org.svg" target="_base">
           <rect id="button" ry="5" rx="5" y="6" x="6" height="38" width="38"
                fill="#f2f5e9" fill-opacity="0.5" stroke="#606060" stroke-width="1.0"/>
           <path id="arrow"
             d="M 11.500037,31.436501 C 11.940474,20.09759 22.043105,11.32322 32.158766,21.979434 L 37.068811,17.246167 C 37.068811,17.246167 37.088388,32 37.088388,32 L 22.160133,31.978069 C 22.160133,31.978069 26.997745,27.140456 26.997745,27.140456 C 18.528582,18.264221 13.291696,25.230495 11.500037,31.436501 z"
             style="fill:#404040;"/>
          </a>
         </g>
        </svg>
</svg>
