<?xml version="1.0" encoding="UTF-8" standalone="no"?>
<!DOCTYPE svg PUBLIC "-//W3C//DTD SVG 1.1//EN"
 "http://www.w3.org/Graphics/SVG/1.1/DTD/svg11.dtd">
<!-- Generated by graphviz version 2.38.0 (20140413.2041)
 -->
<!-- Title: GTOPOLOGY Pages: 1 -->
<!--zoomable 514 -->
<svg id="main" version="1.1" xmlns="http://www.w3.org/2000/svg" xmlns:xlink="http://www.w3.org/1999/xlink" xml:space="preserve" onload="init(evt)">
<style type="text/css"><![CDATA[
.edge:hover path { stroke: red; }
.edge:hover polygon { stroke: red; fill: red; }
]]></style>
<script type="text/javascript"><![CDATA[
var edges = document.getElementsByTagName('g');
if (edges && edges.length) {
  for (var i=0;i<edges.length;i++) {
    if (edges[i].id.substr(0,4)=='edge') {
      edges[i].setAttribute('class','edge');
    }
  }
}
]]></script>
        <defs>
                <circle id="rim" cx="0" cy="0" r="7"/>
                <circle id="rim2" cx="0" cy="0" r="3.5"/>
                <g id="zoomPlus">
                        <use xlink:href="#rim" fill="#404040">
                                <set attributeName="fill" to="#808080" begin="zoomplus.mouseover" end="zoomplus.mouseout"/>
                        </use>
                        <path d="M-4,0h8M0,-4v8" fill="none" stroke="white" stroke-width="1.5" pointer-events="none"/>
                </g>
                <g id="zoomMin">
                        <use xlink:href="#rim" fill="#404040">
                                <set attributeName="fill" to="#808080" begin="zoomminus.mouseover" end="zoomminus.mouseout"/>
                        </use>
                        <path d="M-4,0h8" fill="none" stroke="white" stroke-width="1.5" pointer-events="none"/>
                </g>
                <g id="dirArrow">
                        <path fill="none" stroke="white" stroke-width="1.5" d="M0,-3.0v7 M-2.5,-0.5L0,-3.0L2.5,-0.5"/>
                </g>
               <g id="resetDef">
                       <use xlink:href="#rim2" fill="#404040">
                               <set attributeName="fill" to="#808080" begin="reset.mouseover" end="reset.mouseout"/>
                       </use>
               </g>
        </defs>

<script type="text/javascript">
var viewWidth = 2574;
var viewHeight = 514;
</script>
<script xlink:href="svgpan.js"/>
<svg id="graph" class="graph">
<g id="viewport">
<title>GTOPOLOGY</title>
<polygon fill="white" stroke="none" points="-4,4 -4,-510 2570,-510 2570,4 -4,4"/>
<g id="clust1" class="cluster"><title>cluster_ext</title>
</g>
<g id="clust2" class="cluster"><title>cluster_1</title>
<polygon fill="#eeeeff" stroke="#eeeeff" points="838,-342 838,-417 980,-417 980,-342 838,-342"/>
<text text-anchor="middle" x="909" y="-349.8" font-family="Times,serif" font-size="14.00">base</text>
</g>
<g id="clust3" class="cluster"><title>cluster_2</title>
<polygon fill="#ddddff" stroke="#ddddff" points="988,-342 988,-490 1316,-490 1316,-342 988,-342"/>
<text text-anchor="middle" x="1152" y="-349.8" font-family="Times,serif" font-size="14.00">graph</text>
</g>
<g id="clust4" class="cluster"><title>cluster_3</title>
<polygon fill="#d4ddff" stroke="#d4ddff" points="1476,-342 1476,-417 1642,-417 1642,-342 1476,-342"/>
<text text-anchor="middle" x="1559" y="-349.8" font-family="Times,serif" font-size="14.00">image</text>
</g>
<g id="clust5" class="cluster"><title>cluster_4</title>
<polygon fill="#e0eeff" stroke="#e0eeff" points="1324,-342 1324,-417 1468,-417 1468,-342 1324,-342"/>
<text text-anchor="middle" x="1396" y="-349.8" font-family="Times,serif" font-size="14.00">kernel</text>
</g>
<g id="clust6" class="cluster"><title>cluster_5</title>
<polygon fill="white" stroke="white" points="554,-342 554,-417 830,-417 830,-342 554,-342"/>
<text text-anchor="middle" x="692" y="-349.8" font-family="Times,serif" font-size="14.00">boost</text>
</g>
<g id="clust7" class="cluster"><title>cluster_0</title>
<polygon fill="lightgrey" stroke="lightgrey" points="336,-153 336,-315 851,-315 851,-153 336,-153"/>
<text text-anchor="middle" x="593.5" y="-160.8" font-family="Times,serif" font-size="14.00">topology (main concepts)</text>
</g>
<g id="clust8" class="cluster"><title>cluster_models</title>
<polygon fill="#ccffcc" stroke="#ccffcc" points="8,-8 8,-122 2558,-122 2558,-8 8,-8"/>
<text text-anchor="middle" x="1283" y="-15.8" font-family="Times,serif" font-size="14.00">topology (main models)</text>
</g>
<g id="clust9" class="cluster"><title>cluster_models_0</title>
<polygon fill="#ccf8cc" stroke="#ccf8cc" points="664,-39 664,-114 1082,-114 1082,-39 664,-39"/>
<text text-anchor="middle" x="873" y="-46.8" font-family="Times,serif" font-size="14.00">(main graph models)</text>
</g>
<g id="clust10" class="cluster"><title>cluster_models_1</title>
<polygon fill="#cceecc" stroke="#cceecc" points="1090,-39 1090,-114 2550,-114 2550,-39 1090,-39"/>
<text text-anchor="middle" x="1820" y="-46.8" font-family="Times,serif" font-size="14.00">(main digital surface container models)</text>
</g>
<g id="clust11" class="cluster"><title>cluster_models_2</title>
<polygon fill="#cce8cc" stroke="#cce8cc" points="16,-39 16,-114 656,-114 656,-39 16,-39"/>
<text text-anchor="middle" x="336" y="-46.8" font-family="Times,serif" font-size="14.00">(others)</text>
</g>
<!-- CPredicate -->
<g id="node1" class="node"><title>CPredicate</title>
<g id="a_node1"><a xlink:href="structDGtal_1_1concepts_1_1CPredicate.html" target="_top" xlink:title="CPredicate">
<ellipse fill="white" stroke="white" cx="909" cy="-391" rx="63.0888" ry="18"/>
<text text-anchor="middle" x="909" y="-387.3" font-family="Times,serif" font-size="14.00">CPredicate</text>
</a>
</g>
</g>
<!-- CUndirectedSimpleGraph -->
<g id="node2" class="node"><title>CUndirectedSimpleGraph</title>
<g id="a_node2"><a xlink:href="structDGtal_1_1concepts_1_1CUndirectedSimpleGraph.html" target="_top" xlink:title="CUndirectedSimpleGraph">
<ellipse fill="white" stroke="white" cx="1127" cy="-391" rx="130.777" ry="18"/>
<text text-anchor="middle" x="1127" y="-387.3" font-family="Times,serif" font-size="14.00">CUndirectedSimpleGraph</text>
</a>
</g>
</g>
<!-- CUndirectedSimpleLocalGraph -->
<g id="node3" class="node"><title>CUndirectedSimpleLocalGraph</title>
<g id="a_node3"><a xlink:href="structDGtal_1_1concepts_1_1CUndirectedSimpleLocalGraph.html" target="_top" xlink:title="CUndirectedSimpleLocalGraph">
<ellipse fill="white" stroke="white" cx="1152" cy="-464" rx="155.972" ry="18"/>
<text text-anchor="middle" x="1152" y="-460.3" font-family="Times,serif" font-size="14.00">CUndirectedSimpleLocalGraph</text>
</a>
</g>
</g>
<!-- CUndirectedSimpleGraph&#45;&gt;CUndirectedSimpleLocalGraph -->
<g id="edge5" class="edge"><title>CUndirectedSimpleGraph&#45;&gt;CUndirectedSimpleLocalGraph</title>
<path fill="none" stroke="black" d="M1133.05,-409.187C1135.94,-417.385 1139.46,-427.377 1142.67,-436.515"/>
<polygon fill="black" stroke="black" points="1139.38,-437.701 1146,-445.971 1145.98,-435.376 1139.38,-437.701"/>
</g>
<!-- CConstImage -->
<g id="node4" class="node"><title>CConstImage</title>
<g id="a_node4"><a xlink:href="structDGtal_1_1concepts_1_1CConstImage.html" target="_top" xlink:title="CConstImage">
<ellipse fill="white" stroke="white" cx="1559" cy="-391" rx="74.9875" ry="18"/>
<text text-anchor="middle" x="1559" y="-387.3" font-family="Times,serif" font-size="14.00">CConstImage</text>
</a>
</g>
</g>
<!-- CDigitalSet -->
<g id="node5" class="node"><title>CDigitalSet</title>
<g id="a_node5"><a xlink:href="structDGtal_1_1concepts_1_1CDigitalSet.html" target="_top" xlink:title="CDigitalSet">
<ellipse fill="white" stroke="white" cx="1396" cy="-391" rx="64.189" ry="18"/>
<text text-anchor="middle" x="1396" y="-387.3" font-family="Times,serif" font-size="14.00">CDigitalSet</text>
</a>
</g>
</g>
<!-- boost_CopyConstructible -->
<g id="node6" class="node"><title>boost_CopyConstructible</title>
<g id="a_node6"><a xlink:href="structboost_1_1CopyConstructible.html" target="_top" xlink:title="boost::CopyConstructible">
<ellipse fill="orange" stroke="orange" cx="692" cy="-391" rx="129.977" ry="18"/>
<text text-anchor="middle" x="692" y="-387.3" font-family="Times,serif" font-size="14.00">boost::CopyConstructible</text>
</a>
</g>
</g>
<!-- CDigitalSurfaceContainer -->
<g id="node7" class="node"><title>CDigitalSurfaceContainer</title>
<g id="a_node7"><a xlink:href="structDGtal_1_1concepts_1_1CDigitalSurfaceContainer.html" target="_top" xlink:title="CDigitalSurfaceContainer">
<ellipse fill="white" stroke="white" cx="712" cy="-202" rx="131.077" ry="18"/>
<text text-anchor="middle" x="712" y="-198.3" font-family="Times,serif" font-size="14.00">CDigitalSurfaceContainer</text>
</a>
</g>
</g>
<!-- CDigitalSurfaceContainer&#45;&gt;boost_CopyConstructible -->
<g id="edge1" class="edge"><title>CDigitalSurfaceContainer&#45;&gt;boost_CopyConstructible</title>
<path fill="none" stroke="black" d="M816.091,-213.018C847.064,-218.285 875.348,-226.2 885,-238 889.221,-243.16 886.614,-246.532 885,-253 877.442,-283.287 874.626,-293.495 852,-315 824.896,-340.762 787.329,-358.994 755.408,-371.027"/>
<polygon fill="black" stroke="black" points="753.898,-367.852 745.701,-374.564 756.295,-374.429 753.898,-367.852"/>
</g>
<!-- CDigitalSurfaceTracker -->
<g id="node8" class="node"><title>CDigitalSurfaceTracker</title>
<g id="a_node8"><a xlink:href="structDGtal_1_1concepts_1_1CDigitalSurfaceTracker.html" target="_top" xlink:title="CDigitalSurfaceTracker">
<ellipse fill="white" stroke="white" cx="721" cy="-289" rx="121.578" ry="18"/>
<text text-anchor="middle" x="721" y="-285.3" font-family="Times,serif" font-size="14.00">CDigitalSurfaceTracker</text>
</a>
</g>
</g>
<!-- CDigitalSurfaceContainer&#45;&gt;CDigitalSurfaceTracker -->
<g id="edge3" class="edge"><title>CDigitalSurfaceContainer&#45;&gt;CDigitalSurfaceTracker</title>
<path fill="none" stroke="black" stroke-dasharray="5,2" d="M713.821,-220.201C715.053,-231.837 716.707,-247.452 718.116,-260.763"/>
<polygon fill="black" stroke="black" points="714.648,-261.249 719.181,-270.825 721.609,-260.512 714.648,-261.249"/>
<text text-anchor="middle" x="730.5" y="-241.8" font-family="Times,serif" font-size="14.00">use</text>
</g>
<!-- CCellularGridSpaceND -->
<g id="node10" class="node"><title>CCellularGridSpaceND</title>
<g id="a_node10"><a xlink:href="structDGtal_1_1concepts_1_1CCellularGridSpaceND.html" target="_top" xlink:title="CCellularGridSpaceND">
<ellipse fill="white" stroke="white" cx="463" cy="-289" rx="118.879" ry="18"/>
<text text-anchor="middle" x="463" y="-285.3" font-family="Times,serif" font-size="14.00">CCellularGridSpaceND</text>
</a>
</g>
</g>
<!-- CDigitalSurfaceContainer&#45;&gt;CCellularGridSpaceND -->
<g id="edge4" class="edge"><title>CDigitalSurfaceContainer&#45;&gt;CCellularGridSpaceND</title>
<path fill="none" stroke="black" stroke-dasharray="5,2" d="M665.457,-218.888C623.842,-233.094 562.784,-253.937 518.611,-269.016"/>
<polygon fill="black" stroke="black" points="517.227,-265.79 508.894,-272.333 519.488,-272.415 517.227,-265.79"/>
<text text-anchor="middle" x="615.5" y="-241.8" font-family="Times,serif" font-size="14.00">use</text>
</g>
<!-- CDigitalSurfaceTracker&#45;&gt;boost_CopyConstructible -->
<g id="edge2" class="edge"><title>CDigitalSurfaceTracker&#45;&gt;boost_CopyConstructible</title>
<path fill="none" stroke="black" d="M715.949,-307.419C711.499,-322.762 704.947,-345.355 699.821,-363.032"/>
<polygon fill="black" stroke="black" points="696.417,-362.202 696.994,-372.781 703.14,-364.152 696.417,-362.202"/>
</g>
<!-- CSurfelPredicate -->
<g id="node9" class="node"><title>CSurfelPredicate</title>
<g id="a_node9"><a xlink:href="structDGtal_1_1concepts_1_1CSurfelPredicate.html" target="_top" xlink:title="CSurfelPredicate">
<ellipse fill="white" stroke="white" cx="472" cy="-202" rx="90.9839" ry="18"/>
<text text-anchor="middle" x="472" y="-198.3" font-family="Times,serif" font-size="14.00">CSurfelPredicate</text>
</a>
</g>
</g>
<!-- CSurfelPredicate&#45;&gt;CPredicate -->
<g id="edge6" class="edge"><title>CSurfelPredicate&#45;&gt;CPredicate</title>
<path fill="none" stroke="black" d="M536.993,-214.687C548.629,-216.598 560.658,-218.454 572,-220 697.333,-237.08 756.429,-188.136 852,-271 879.809,-295.111 895.164,-335.832 902.743,-362.816"/>
<polygon fill="black" stroke="black" points="899.431,-363.985 905.361,-372.765 906.201,-362.203 899.431,-363.985"/>
</g>
<!-- DigitalSurface -->
<g id="node11" class="node"><title>DigitalSurface</title>
<g id="a_node11"><a xlink:href="classDGtal_1_1DigitalSurface.html" target="_top" xlink:title="DigitalSurface">
<ellipse fill="white" stroke="white" cx="749" cy="-88" rx="77.1866" ry="18"/>
<text text-anchor="middle" x="749" y="-84.3" font-family="Times,serif" font-size="14.00">DigitalSurface</text>
</a>
</g>
</g>
<!-- DigitalSurface&#45;&gt;CUndirectedSimpleGraph -->
<g id="edge16" class="edge"><title>DigitalSurface&#45;&gt;CUndirectedSimpleGraph</title>
<path fill="none" stroke="black" d="M784.094,-104.055C799.503,-110.249 817.938,-117.103 835,-122 904.204,-141.86 935.654,-110.817 994,-153 1013.2,-166.878 1084.12,-304.825 1113.8,-363.648"/>
<polygon fill="black" stroke="black" points="1110.74,-365.343 1118.36,-372.701 1116.99,-362.196 1110.74,-365.343"/>
</g>
<!-- DigitalSurface&#45;&gt;CDigitalSurfaceContainer -->
<g id="edge17" class="edge"><title>DigitalSurface&#45;&gt;CDigitalSurfaceContainer</title>
<path fill="none" stroke="black" stroke-dasharray="5,2" d="M743.38,-106.01C737.404,-124.101 727.867,-152.969 720.874,-174.137"/>
<polygon fill="black" stroke="black" points="717.486,-173.236 717.672,-183.83 724.133,-175.432 717.486,-173.236"/>
<text text-anchor="middle" x="747.5" y="-133.8" font-family="Times,serif" font-size="14.00">use</text>
</g>
<!-- IndexedDigitalSurface -->
<g id="node12" class="node"><title>IndexedDigitalSurface</title>
<g id="a_node12"><a xlink:href="classDGtal_1_1IndexedDigitalSurface.html" target="_top" xlink:title="IndexedDigitalSurface">
<ellipse fill="white" stroke="white" cx="959" cy="-88" rx="115.08" ry="18"/>
<text text-anchor="middle" x="959" y="-84.3" font-family="Times,serif" font-size="14.00">IndexedDigitalSurface</text>
</a>
</g>
</g>
<!-- IndexedDigitalSurface&#45;&gt;CUndirectedSimpleGraph -->
<g id="edge18" class="edge"><title>IndexedDigitalSurface&#45;&gt;CUndirectedSimpleGraph</title>
<path fill="none" stroke="black" d="M986.678,-105.59C1003.78,-117.053 1025.04,-133.683 1039,-153 1087.3,-219.83 1112.1,-316.207 1121.88,-362.774"/>
<polygon fill="black" stroke="black" points="1118.48,-363.608 1123.9,-372.712 1125.34,-362.216 1118.48,-363.608"/>
</g>
<!-- IndexedDigitalSurface&#45;&gt;CDigitalSurfaceContainer -->
<g id="edge19" class="edge"><title>IndexedDigitalSurface&#45;&gt;CDigitalSurfaceContainer</title>
<path fill="none" stroke="black" stroke-dasharray="5,2" d="M923.348,-105.166C879.511,-125.043 805.058,-158.804 757.235,-180.488"/>
<polygon fill="black" stroke="black" points="755.705,-177.339 748.043,-184.657 758.596,-183.715 755.705,-177.339"/>
<text text-anchor="middle" x="876.5" y="-133.8" font-family="Times,serif" font-size="14.00">use</text>
</g>
<!-- DigitalSetBoundary -->
<g id="node13" class="node"><title>DigitalSetBoundary</title>
<g id="a_node13"><a xlink:href="classDGtal_1_1DigitalSetBoundary.html" target="_top" xlink:title="DigitalSetBoundary">
<ellipse fill="white" stroke="white" cx="1849" cy="-88" rx="102.082" ry="18"/>
<text text-anchor="middle" x="1849" y="-84.3" font-family="Times,serif" font-size="14.00">DigitalSetBoundary</text>
</a>
</g>
</g>
<!-- DigitalSetBoundary&#45;&gt;CDigitalSet -->
<g id="edge8" class="edge"><title>DigitalSetBoundary&#45;&gt;CDigitalSet</title>
<path fill="none" stroke="black" stroke-dasharray="5,2" d="M1802.9,-104.135C1783.08,-110.269 1759.56,-117.057 1738,-122 1716.49,-126.932 1708.93,-120.525 1689,-130 1567.15,-187.933 1458.2,-312.217 1415.33,-365.224"/>
<polygon fill="black" stroke="black" points="1412.54,-363.105 1409.02,-373.098 1418,-367.48 1412.54,-363.105"/>
<text text-anchor="middle" x="1545.5" y="-241.8" font-family="Times,serif" font-size="14.00">use</text>
</g>
<!-- DigitalSetBoundary&#45;&gt;CDigitalSurfaceContainer -->
<g id="edge7" class="edge"><title>DigitalSetBoundary&#45;&gt;CDigitalSurfaceContainer</title>
<path fill="none" stroke="black" d="M1805.79,-104.332C1785.48,-110.895 1760.77,-117.964 1738,-122 1681.44,-132.027 1666.3,-125.956 1609,-130 1533.61,-135.321 1059.59,-173.172 832.72,-191.329"/>
<polygon fill="black" stroke="black" points="832.126,-187.865 822.437,-192.152 832.685,-194.843 832.126,-187.865"/>
</g>
<!-- ImplicitDigitalSurface -->
<g id="node14" class="node"><title>ImplicitDigitalSurface</title>
<g id="a_node14"><a xlink:href="classDGtal_1_1ImplicitDigitalSurface.html" target="_top" xlink:title="ImplicitDigitalSurface">
<ellipse fill="white" stroke="white" cx="1212" cy="-88" rx="114.28" ry="18"/>
<text text-anchor="middle" x="1212" y="-84.3" font-family="Times,serif" font-size="14.00">ImplicitDigitalSurface</text>
</a>
</g>
</g>
<!-- ImplicitDigitalSurface&#45;&gt;CDigitalSurfaceContainer -->
<g id="edge9" class="edge"><title>ImplicitDigitalSurface&#45;&gt;CDigitalSurfaceContainer</title>
<path fill="none" stroke="black" d="M1157.57,-103.867C1135.42,-109.755 1109.55,-116.433 1086,-122 985.871,-145.673 869.848,-169.647 793.907,-184.876"/>
<polygon fill="black" stroke="black" points="793.045,-181.479 783.926,-186.873 794.419,-188.343 793.045,-181.479"/>
</g>
<!-- LightImplicitDigitalSurface -->
<g id="node15" class="node"><title>LightImplicitDigitalSurface</title>
<g id="a_node15"><a xlink:href="classDGtal_1_1LightImplicitDigitalSurface.html" target="_top" xlink:title="LightImplicitDigitalSurface">
<ellipse fill="white" stroke="white" cx="2108" cy="-88" rx="139.175" ry="18"/>
<text text-anchor="middle" x="2108" y="-84.3" font-family="Times,serif" font-size="14.00">LightImplicitDigitalSurface</text>
</a>
</g>
</g>
<!-- LightImplicitDigitalSurface&#45;&gt;CUndirectedSimpleLocalGraph -->
<g id="edge13" class="edge"><title>LightImplicitDigitalSurface&#45;&gt;CUndirectedSimpleLocalGraph</title>
<path fill="none" stroke="black" d="M2041.58,-103.936C1926.68,-130.232 1703,-183.651 1703,-201 1703,-201 1703,-201 1703,-392 1703,-431.915 1472.62,-449.896 1309.79,-457.621"/>
<polygon fill="black" stroke="black" points="1309.48,-454.131 1299.66,-458.093 1309.81,-461.124 1309.48,-454.131"/>
</g>
<!-- LightImplicitDigitalSurface&#45;&gt;CDigitalSurfaceContainer -->
<g id="edge12" class="edge"><title>LightImplicitDigitalSurface&#45;&gt;CDigitalSurfaceContainer</title>
<path fill="none" stroke="black" d="M2050.81,-104.413C2023.53,-111.078 1990.3,-118.209 1960,-122 1840.43,-136.957 1809.28,-122.698 1689,-130 1616.38,-134.409 1598.52,-139.17 1526,-145 1283.35,-164.509 999.66,-183.061 839.378,-193.15"/>
<polygon fill="black" stroke="black" points="838.761,-189.681 829,-193.802 839.2,-196.668 838.761,-189.681"/>
</g>
<!-- SetOfSurfels -->
<g id="node16" class="node"><title>SetOfSurfels</title>
<g id="a_node16"><a xlink:href="classDGtal_1_1SetOfSurfels.html" target="_top" xlink:title="SetOfSurfels">
<ellipse fill="white" stroke="white" cx="1414" cy="-88" rx="69.5877" ry="18"/>
<text text-anchor="middle" x="1414" y="-84.3" font-family="Times,serif" font-size="14.00">SetOfSurfels</text>
</a>
</g>
</g>
<!-- SetOfSurfels&#45;&gt;CDigitalSurfaceContainer -->
<g id="edge10" class="edge"><title>SetOfSurfels&#45;&gt;CDigitalSurfaceContainer</title>
<path fill="none" stroke="black" d="M1383.16,-104.162C1368.83,-110.607 1351.37,-117.629 1335,-122 1169.11,-166.292 971.555,-185.986 844.073,-194.584"/>
<polygon fill="black" stroke="black" points="843.619,-191.107 833.872,-195.259 844.081,-198.091 843.619,-191.107"/>
</g>
<!-- ExplicitDigitalSurface -->
<g id="node17" class="node"><title>ExplicitDigitalSurface</title>
<g id="a_node17"><a xlink:href="classDGtal_1_1ExplicitDigitalSurface.html" target="_top" xlink:title="ExplicitDigitalSurface">
<ellipse fill="white" stroke="white" cx="1615" cy="-88" rx="113.98" ry="18"/>
<text text-anchor="middle" x="1615" y="-84.3" font-family="Times,serif" font-size="14.00">ExplicitDigitalSurface</text>
</a>
</g>
</g>
<!-- ExplicitDigitalSurface&#45;&gt;CDigitalSurfaceContainer -->
<g id="edge11" class="edge"><title>ExplicitDigitalSurface&#45;&gt;CDigitalSurfaceContainer</title>
<path fill="none" stroke="black" d="M1565.24,-104.285C1543.27,-110.557 1517.03,-117.409 1493,-122 1267.38,-165.104 1000.3,-185.695 844.161,-194.732"/>
<polygon fill="black" stroke="black" points="843.822,-191.246 834.038,-195.311 844.222,-198.234 843.822,-191.246"/>
</g>
<!-- LightExplicitDigitalSurface -->
<g id="node18" class="node"><title>LightExplicitDigitalSurface</title>
<g id="a_node18"><a xlink:href="classDGtal_1_1LightExplicitDigitalSurface.html" target="_top" xlink:title="LightExplicitDigitalSurface">
<ellipse fill="white" stroke="white" cx="2404" cy="-88" rx="138.375" ry="18"/>
<text text-anchor="middle" x="2404" y="-84.3" font-family="Times,serif" font-size="14.00">LightExplicitDigitalSurface</text>
</a>
</g>
</g>
<!-- LightExplicitDigitalSurface&#45;&gt;CUndirectedSimpleLocalGraph -->
<g id="edge15" class="edge"><title>LightExplicitDigitalSurface&#45;&gt;CUndirectedSimpleLocalGraph</title>
<path fill="none" stroke="black" d="M2343.3,-104.215C2296.96,-119.897 2241,-149.497 2241,-201 2241,-201 2241,-201 2241,-392 2241,-437.795 1619.69,-454.917 1315.66,-460.553"/>
<polygon fill="black" stroke="black" points="1315.36,-457.058 1305.43,-460.741 1315.49,-464.057 1315.36,-457.058"/>
</g>
<!-- LightExplicitDigitalSurface&#45;&gt;CDigitalSurfaceContainer -->
<g id="edge14" class="edge"><title>LightExplicitDigitalSurface&#45;&gt;CDigitalSurfaceContainer</title>
<path fill="none" stroke="black" d="M2345.71,-104.375C2318.62,-110.905 2285.87,-117.936 2256,-122 1742.99,-191.813 1126.47,-201.271 853.689,-201.692"/>
<polygon fill="black" stroke="black" points="853.333,-198.192 843.337,-201.704 853.342,-205.192 853.333,-198.192"/>
</g>
<!-- SurfelSetPredicate -->
<g id="node19" class="node"><title>SurfelSetPredicate</title>
<g id="a_node19"><a xlink:href="structDGtal_1_1functors_1_1SurfelSetPredicate.html" target="_top" xlink:title="SurfelSetPredicate">
<ellipse fill="white" stroke="white" cx="549" cy="-88" rx="98.5829" ry="18"/>
<text text-anchor="middle" x="549" y="-84.3" font-family="Times,serif" font-size="14.00">SurfelSetPredicate</text>
</a>
</g>
</g>
<!-- SurfelSetPredicate&#45;&gt;CSurfelPredicate -->
<g id="edge20" class="edge"><title>SurfelSetPredicate&#45;&gt;CSurfelPredicate</title>
<path fill="none" stroke="black" d="M537.305,-106.01C524.585,-124.512 504.116,-154.286 489.484,-175.568"/>
<polygon fill="black" stroke="black" points="486.586,-173.606 483.805,-183.83 492.354,-177.572 486.586,-173.606"/>
</g>
<!-- BoundaryPredicate -->
<g id="node20" class="node"><title>BoundaryPredicate</title>
<g id="a_node20"><a xlink:href="classDGtal_1_1functors_1_1BoundaryPredicate.html" target="_top" xlink:title="BoundaryPredicate">
<ellipse fill="white" stroke="white" cx="125" cy="-88" rx="100.983" ry="18"/>
<text text-anchor="middle" x="125" y="-84.3" font-family="Times,serif" font-size="14.00">BoundaryPredicate</text>
</a>
</g>
</g>
<!-- BoundaryPredicate&#45;&gt;CConstImage -->
<g id="edge25" class="edge"><title>BoundaryPredicate&#45;&gt;CConstImage</title>
<path fill="none" stroke="black" stroke-dasharray="5,2" d="M168.657,-104.275C188.648,-110.702 212.787,-117.678 235,-122 289.112,-132.528 426.964,-141.851 482,-145 502.693,-146.184 836.064,-144.571 855,-153 892.342,-169.622 887.035,-193.319 918,-220 974.132,-268.367 984.805,-291.276 1055,-315 1142.88,-344.701 1383.62,-305.815 1472,-334 1493.86,-340.972 1515.56,-354.928 1531.83,-367.163"/>
<polygon fill="black" stroke="black" points="1529.76,-369.991 1539.81,-373.358 1534.05,-364.461 1529.76,-369.991"/>
<text text-anchor="middle" x="965.5" y="-241.8" font-family="Times,serif" font-size="14.00">use</text>
</g>
<!-- BoundaryPredicate&#45;&gt;CSurfelPredicate -->
<g id="edge21" class="edge"><title>BoundaryPredicate&#45;&gt;CSurfelPredicate</title>
<path fill="none" stroke="black" d="M165.519,-104.52C200.398,-117.276 252.332,-134.846 299,-145 328.735,-151.47 337.696,-144.797 367,-153 390.056,-159.454 414.457,-170.336 433.928,-180.108"/>
<polygon fill="black" stroke="black" points="432.568,-183.344 443.063,-184.792 435.762,-177.115 432.568,-183.344"/>
</g>
<!-- BoundaryPredicate&#45;&gt;CCellularGridSpaceND -->
<g id="edge23" class="edge"><title>BoundaryPredicate&#45;&gt;CCellularGridSpaceND</title>
<path fill="none" stroke="black" stroke-dasharray="5,2" d="M143.513,-105.707C181.224,-138.848 270.857,-213.138 359,-253 372.398,-259.059 387.172,-264.646 401.273,-269.495"/>
<polygon fill="black" stroke="black" points="400.309,-272.864 410.903,-272.731 402.539,-266.228 400.309,-272.864"/>
<text text-anchor="middle" x="306.5" y="-198.3" font-family="Times,serif" font-size="14.00">use</text>
</g>
<!-- FrontierPredicate -->
<g id="node21" class="node"><title>FrontierPredicate</title>
<g id="a_node21"><a xlink:href="classDGtal_1_1functors_1_1FrontierPredicate.html" target="_top" xlink:title="FrontierPredicate">
<ellipse fill="white" stroke="white" cx="338" cy="-88" rx="94.4839" ry="18"/>
<text text-anchor="middle" x="338" y="-84.3" font-family="Times,serif" font-size="14.00">FrontierPredicate</text>
</a>
</g>
</g>
<!-- FrontierPredicate&#45;&gt;CConstImage -->
<g id="edge26" class="edge"><title>FrontierPredicate&#45;&gt;CConstImage</title>
<path fill="none" stroke="black" stroke-dasharray="5,2" d="M378.532,-104.365C397.278,-110.851 420,-117.849 441,-122 566.101,-146.728 599.716,-137.219 727,-145 748.201,-146.296 898.529,-144.511 918,-153 975.905,-178.246 962.931,-223.904 1019,-253 1200.54,-347.207 1281.64,-259.196 1472,-334 1492.74,-342.148 1513.8,-355.546 1530.01,-367.194"/>
<polygon fill="black" stroke="black" points="1528.35,-370.323 1538.48,-373.441 1532.51,-364.689 1528.35,-370.323"/>
<text text-anchor="middle" x="1031.5" y="-241.8" font-family="Times,serif" font-size="14.00">use</text>
</g>
<!-- FrontierPredicate&#45;&gt;CSurfelPredicate -->
<g id="edge22" class="edge"><title>FrontierPredicate&#45;&gt;CSurfelPredicate</title>
<path fill="none" stroke="black" d="M358.061,-105.768C380.856,-124.82 418.218,-156.048 443.905,-177.518"/>
<polygon fill="black" stroke="black" points="441.884,-180.39 451.802,-184.118 446.373,-175.019 441.884,-180.39"/>
</g>
<!-- FrontierPredicate&#45;&gt;CCellularGridSpaceND -->
<g id="edge24" class="edge"><title>FrontierPredicate&#45;&gt;CCellularGridSpaceND</title>
<path fill="none" stroke="black" stroke-dasharray="5,2" d="M334.419,-106.23C329.872,-132.833 325.032,-184.535 347,-220 360.559,-241.89 383.969,-257.54 406.224,-268.265"/>
<polygon fill="black" stroke="black" points="404.778,-271.452 415.328,-272.42 407.684,-265.084 404.778,-271.452"/>
<text text-anchor="middle" x="359.5" y="-198.3" font-family="Times,serif" font-size="14.00">use</text>
</g>
</g>
</svg>
        <g id="navigator" transform="translate(0 0)" fill="#404254">
                <rect fill="#f2f5e9" fill-opacity="0.5" stroke="#606060" stroke-width=".5" x="0" y="0" width="60" height="60"/>
                <use id="zoomplus" xlink:href="#zoomPlus" x="17" y="9" onmousedown="handleZoom(evt,'in')"/>
                <use id="zoomminus" xlink:href="#zoomMin" x="42" y="9" onmousedown="handleZoom(evt,'out')"/>
                <use id="reset" xlink:href="#resetDef" x="30" y="36" onmousedown="handleReset()"/>
                <g id="arrowUp" xlink:href="#dirArrow" transform="translate(30 24)" onmousedown="handlePan(0,-1)">
                  <use xlink:href="#rim" fill="#404040">
                        <set attributeName="fill" to="#808080" begin="arrowUp.mouseover" end="arrowUp.mouseout"/>
                  </use>
                  <path fill="none" stroke="white" stroke-width="1.5" d="M0,-3.0v7 M-2.5,-0.5L0,-3.0L2.5,-0.5"/>
                </g>
                <g id="arrowRight" xlink:href="#dirArrow" transform="rotate(90) translate(36 -43)" onmousedown="handlePan(1,0)">
                  <use xlink:href="#rim" fill="#404040">
                        <set attributeName="fill" to="#808080" begin="arrowRight.mouseover" end="arrowRight.mouseout"/>
                  </use>
                  <path fill="none" stroke="white" stroke-width="1.5" d="M0,-3.0v7 M-2.5,-0.5L0,-3.0L2.5,-0.5"/>
                </g>
                <g id="arrowDown" xlink:href="#dirArrow" transform="rotate(180) translate(-30 -48)" onmousedown="handlePan(0,1)">
                  <use xlink:href="#rim" fill="#404040">
                        <set attributeName="fill" to="#808080" begin="arrowDown.mouseover" end="arrowDown.mouseout"/>
                  </use>
                  <path fill="none" stroke="white" stroke-width="1.5" d="M0,-3.0v7 M-2.5,-0.5L0,-3.0L2.5,-0.5"/>
                </g>
                <g id="arrowLeft" xlink:href="#dirArrow" transform="rotate(270) translate(-36 17)" onmousedown="handlePan(-1,0)">
                  <use xlink:href="#rim" fill="#404040">
                        <set attributeName="fill" to="#808080" begin="arrowLeft.mouseover" end="arrowLeft.mouseout"/>
                  </use>
                  <path fill="none" stroke="white" stroke-width="1.5" d="M0,-3.0v7 M-2.5,-0.5L0,-3.0L2.5,-0.5"/>
                </g>
        </g>
        <svg viewBox="0 0 15 15" width="100%" height="30px" preserveAspectRatio="xMaxYMin meet">
         <g id="arrow_out" transform="scale(0.3 0.3)">
          <a xlink:href="dot_inline_dotgraph_15_org.svg" target="_base">
           <rect id="button" ry="5" rx="5" y="6" x="6" height="38" width="38"
                fill="#f2f5e9" fill-opacity="0.5" stroke="#606060" stroke-width="1.0"/>
           <path id="arrow"
             d="M 11.500037,31.436501 C 11.940474,20.09759 22.043105,11.32322 32.158766,21.979434 L 37.068811,17.246167 C 37.068811,17.246167 37.088388,32 37.088388,32 L 22.160133,31.978069 C 22.160133,31.978069 26.997745,27.140456 26.997745,27.140456 C 18.528582,18.264221 13.291696,25.230495 11.500037,31.436501 z"
             style="fill:#404040;"/>
          </a>
         </g>
        </svg>
</svg>
