<?xml version="1.0" encoding="UTF-8" standalone="no"?>
<!DOCTYPE svg PUBLIC "-//W3C//DTD SVG 1.1//EN"
 "http://www.w3.org/Graphics/SVG/1.1/DTD/svg11.dtd">
<!-- Generated by graphviz version 2.38.0 (20140413.2041)
 -->
<!-- Title: GGraph Pages: 1 -->
<svg width="2282pt" height="491pt"
 viewBox="0.00 0.00 2282.00 491.00" xmlns="http://www.w3.org/2000/svg" xmlns:xlink="http://www.w3.org/1999/xlink">
<g id="graph0" class="graph" transform="scale(1 1) rotate(0) translate(4 487)">
<title>GGraph</title>
<polygon fill="white" stroke="none" points="-4,4 -4,-487 2278,-487 2278,4 -4,4"/>
<g id="clust1" class="cluster"><title>cluster_ext</title>
</g>
<g id="clust2" class="cluster"><title>cluster_base</title>
<polygon fill="#eeeeff" stroke="#eeeeff" points="576,-392 576,-467 718,-467 718,-392 576,-392"/>
<text text-anchor="middle" x="647" y="-399.8" font-family="Times,serif" font-size="14.00">base</text>
</g>
<g id="clust5" class="cluster"><title>cluster_boost</title>
<polygon fill="white" stroke="white" points="726,-392 726,-467 2152,-467 2152,-392 726,-392"/>
<text text-anchor="middle" x="1439" y="-399.8" font-family="Times,serif" font-size="14.00">boost</text>
</g>
<g id="clust7" class="cluster"><title>cluster_concepts</title>
<polygon fill="lightgrey" stroke="lightgrey" points="747,-130 747,-365 1199,-365 1199,-130 747,-130"/>
<text text-anchor="middle" x="973" y="-137.8" font-family="Times,serif" font-size="14.00">Graph (main concepts)</text>
</g>
<g id="clust8" class="cluster"><title>cluster_down</title>
<polygon fill="none" stroke="black" points="8,-8 8,-99 2266,-99 2266,-8 8,-8"/>
</g>
<g id="clust9" class="cluster"><title>cluster_models</title>
<polygon fill="#ccffcc" stroke="#ccffcc" points="694,-16 694,-91 2258,-91 2258,-16 694,-16"/>
<text text-anchor="middle" x="1476" y="-23.8" font-family="Times,serif" font-size="14.00">Graph (main models and classes)</text>
</g>
<g id="clust10" class="cluster"><title>cluster_topology</title>
<polygon fill="#ccffcc" stroke="#ccffcc" points="16,-16 16,-91 686,-91 686,-16 16,-16"/>
<text text-anchor="middle" x="351" y="-23.8" font-family="Times,serif" font-size="14.00">Topology (related concepts and models)</text>
</g>
<!-- CPredicate -->
<g id="node1" class="node"><title>CPredicate</title>
<g id="a_node1"><a xlink:href="structDGtal_1_1concepts_1_1CPredicate.html" target="_top" xlink:title="CPredicate">
<ellipse fill="white" stroke="white" cx="647" cy="-441" rx="63.0888" ry="18"/>
<text text-anchor="middle" x="647" y="-437.3" font-family="Times,serif" font-size="14.00">CPredicate</text>
</a>
</g>
</g>
<!-- boost_Assignable -->
<g id="node2" class="node"><title>boost_Assignable</title>
<g id="a_node2"><a xlink:href="structboost_1_1Assignable.html" target="_top" xlink:title="boost::Assignable">
<ellipse fill="orange" stroke="orange" cx="1345" cy="-441" rx="92.8835" ry="18"/>
<text text-anchor="middle" x="1345" y="-437.3" font-family="Times,serif" font-size="14.00">boost::Assignable</text>
</a>
</g>
</g>
<!-- boost_CopyConstructible -->
<g id="node3" class="node"><title>boost_CopyConstructible</title>
<g id="a_node3"><a xlink:href="structboost_1_1CopyConstructible.html" target="_top" xlink:title="boost::CopyConstructible">
<ellipse fill="orange" stroke="orange" cx="864" cy="-441" rx="129.977" ry="18"/>
<text text-anchor="middle" x="864" y="-437.3" font-family="Times,serif" font-size="14.00">boost::CopyConstructible</text>
</a>
</g>
</g>
<!-- boost_OutputIterator -->
<g id="node4" class="node"><title>boost_OutputIterator</title>
<g id="a_node4"><a xlink:href="structboost_1_1OutputIterator.html" target="_top" xlink:title="boost::OutputIterator">
<ellipse fill="orange" stroke="orange" cx="1123" cy="-441" rx="111.28" ry="18"/>
<text text-anchor="middle" x="1123" y="-437.3" font-family="Times,serif" font-size="14.00">boost::OutputIterator</text>
</a>
</g>
</g>
<!-- boost_UniqueAssociativeContainer -->
<g id="node5" class="node"><title>boost_UniqueAssociativeContainer</title>
<g id="a_node5"><a xlink:href="structboost_1_1UniqueAssociativeContainer.html" target="_top" xlink:title="boost::UniqueAssociativeContainer">
<ellipse fill="orange" stroke="orange" cx="1631" cy="-441" rx="174.669" ry="18"/>
<text text-anchor="middle" x="1631" y="-437.3" font-family="Times,serif" font-size="14.00">boost::UniqueAssociativeContainer</text>
</a>
</g>
</g>
<!-- boost_PairAssociativeContainer -->
<g id="node6" class="node"><title>boost_PairAssociativeContainer</title>
<g id="a_node6"><a xlink:href="structboost_1_1PairAssociativeContainer.html" target="_top" xlink:title="boost::PairAssociativeContainer">
<ellipse fill="orange" stroke="orange" cx="1984" cy="-441" rx="159.772" ry="18"/>
<text text-anchor="middle" x="1984" y="-437.3" font-family="Times,serif" font-size="14.00">boost::PairAssociativeContainer</text>
</a>
</g>
</g>
<!-- CUndirectedSimpleLocalGraph -->
<g id="node7" class="node"><title>CUndirectedSimpleLocalGraph</title>
<g id="a_node7"><a xlink:href="structDGtal_1_1concepts_1_1CUndirectedSimpleLocalGraph.html" target="_top" xlink:title="CUndirectedSimpleLocalGraph">
<ellipse fill="white" stroke="white" cx="1035" cy="-252" rx="155.972" ry="18"/>
<text text-anchor="middle" x="1035" y="-248.3" font-family="Times,serif" font-size="14.00">CUndirectedSimpleLocalGraph</text>
</a>
</g>
</g>
<!-- CUndirectedSimpleLocalGraph&#45;&gt;boost_OutputIterator -->
<g id="edge5" class="edge"><title>CUndirectedSimpleLocalGraph&#45;&gt;boost_OutputIterator</title>
<path fill="none" stroke="black" stroke-dasharray="5,2" d="M945.972,-266.83C866.009,-282.873 767.761,-313.88 814,-365 842.316,-396.305 962.3,-372.806 1003,-384 1031.83,-391.931 1062.35,-406.26 1085.39,-418.438"/>
<polygon fill="black" stroke="black" points="1084,-421.666 1094.46,-423.327 1087.32,-415.503 1084,-421.666"/>
<text text-anchor="middle" x="826.5" y="-335.3" font-family="Times,serif" font-size="14.00">use</text>
</g>
<!-- CVertexPredicate -->
<g id="node9" class="node"><title>CVertexPredicate</title>
<g id="a_node9"><a xlink:href="structDGtal_1_1concepts_1_1CVertexPredicate.html" target="_top" xlink:title="CVertexPredicate">
<ellipse fill="white" stroke="white" cx="941" cy="-339" rx="92.8835" ry="18"/>
<text text-anchor="middle" x="941" y="-335.3" font-family="Times,serif" font-size="14.00">CVertexPredicate</text>
</a>
</g>
</g>
<!-- CUndirectedSimpleLocalGraph&#45;&gt;CVertexPredicate -->
<g id="edge6" class="edge"><title>CUndirectedSimpleLocalGraph&#45;&gt;CVertexPredicate</title>
<path fill="none" stroke="black" stroke-dasharray="5,2" d="M1015.98,-270.201C1002,-282.842 982.828,-300.177 967.371,-314.154"/>
<polygon fill="black" stroke="black" points="964.743,-311.812 959.673,-321.115 969.438,-317.004 964.743,-311.812"/>
<text text-anchor="middle" x="1005.5" y="-291.8" font-family="Times,serif" font-size="14.00">use</text>
</g>
<!-- CVertexMap -->
<g id="node10" class="node"><title>CVertexMap</title>
<g id="a_node10"><a xlink:href="structDGtal_1_1concepts_1_1CVertexMap.html" target="_top" xlink:title="CVertexMap">
<ellipse fill="white" stroke="white" cx="1121" cy="-339" rx="69.5877" ry="18"/>
<text text-anchor="middle" x="1121" y="-335.3" font-family="Times,serif" font-size="14.00">CVertexMap</text>
</a>
</g>
</g>
<!-- CUndirectedSimpleLocalGraph&#45;&gt;CVertexMap -->
<g id="edge4" class="edge"><title>CUndirectedSimpleLocalGraph&#45;&gt;CVertexMap</title>
<path fill="none" stroke="black" stroke-dasharray="5,2" d="M1052.4,-270.201C1065.16,-282.808 1082.64,-300.084 1096.76,-314.041"/>
<polygon fill="black" stroke="black" points="1094.64,-316.863 1104.21,-321.403 1099.56,-311.884 1094.64,-316.863"/>
<text text-anchor="middle" x="1095.5" y="-291.8" font-family="Times,serif" font-size="14.00">use</text>
</g>
<!-- CUndirectedSimpleGraph -->
<g id="node8" class="node"><title>CUndirectedSimpleGraph</title>
<g id="a_node8"><a xlink:href="structDGtal_1_1concepts_1_1CUndirectedSimpleGraph.html" target="_top" xlink:title="CUndirectedSimpleGraph">
<ellipse fill="white" stroke="white" cx="886" cy="-179" rx="130.777" ry="18"/>
<text text-anchor="middle" x="886" y="-175.3" font-family="Times,serif" font-size="14.00">CUndirectedSimpleGraph</text>
</a>
</g>
</g>
<!-- CUndirectedSimpleGraph&#45;&gt;CUndirectedSimpleLocalGraph -->
<g id="edge3" class="edge"><title>CUndirectedSimpleGraph&#45;&gt;CUndirectedSimpleLocalGraph</title>
<path fill="none" stroke="black" d="M920.558,-196.467C941.47,-206.432 968.343,-219.237 990.793,-229.935"/>
<polygon fill="black" stroke="black" points="989.58,-233.234 1000.11,-234.376 992.591,-226.915 989.58,-233.234"/>
</g>
<!-- CVertexPredicate&#45;&gt;CPredicate -->
<g id="edge1" class="edge"><title>CVertexPredicate&#45;&gt;CPredicate</title>
<path fill="none" stroke="black" d="M885.882,-353.561C869.255,-357.467 850.924,-361.591 834,-365 784.505,-374.97 768.41,-364.12 722,-384 703.52,-391.916 685.385,-405.26 671.578,-416.937"/>
<polygon fill="black" stroke="black" points="669.214,-414.354 663.979,-423.565 673.815,-419.629 669.214,-414.354"/>
</g>
<!-- CVertexMap&#45;&gt;boost_Assignable -->
<g id="edge2" class="edge"><title>CVertexMap&#45;&gt;boost_Assignable</title>
<path fill="none" stroke="black" d="M1163.14,-353.389C1186.95,-361.398 1217.04,-372.279 1243,-384 1265.57,-394.191 1289.91,-407.463 1309.16,-418.528"/>
<polygon fill="black" stroke="black" points="1307.48,-421.603 1317.89,-423.598 1311,-415.55 1307.48,-421.603"/>
</g>
<!-- CGraphVisitor -->
<g id="node11" class="node"><title>CGraphVisitor</title>
<g id="a_node11"><a xlink:href="structDGtal_1_1concepts_1_1CGraphVisitor.html" target="_top" xlink:title="CGraphVisitor">
<ellipse fill="white" stroke="white" cx="1113" cy="-179" rx="77.9862" ry="18"/>
<text text-anchor="middle" x="1113" y="-175.3" font-family="Times,serif" font-size="14.00">CGraphVisitor</text>
</a>
</g>
</g>
<!-- CGraphVisitor&#45;&gt;boost_CopyConstructible -->
<g id="edge7" class="edge"><title>CGraphVisitor&#45;&gt;boost_CopyConstructible</title>
<path fill="none" stroke="black" d="M1056.64,-191.562C987.396,-205.911 878.018,-229.094 870,-234 813.329,-268.673 774.545,-302.842 798,-365 805.492,-384.854 820.897,-402.86 834.94,-416.251"/>
<polygon fill="black" stroke="black" points="832.8,-419.037 842.543,-423.198 837.522,-413.869 832.8,-419.037"/>
</g>
<!-- CVertexPredicateArchetype -->
<g id="node12" class="node"><title>CVertexPredicateArchetype</title>
<g id="a_node12"><a xlink:href="structDGtal_1_1concepts_1_1CVertexPredicateArchetype.html" target="_top" xlink:title="CVertexPredicateArchetype">
<ellipse fill="white" stroke="white" cx="1792" cy="-65" rx="141.875" ry="18"/>
<text text-anchor="middle" x="1792" y="-61.3" font-family="Times,serif" font-size="14.00">CVertexPredicateArchetype</text>
</a>
</g>
</g>
<!-- CVertexPredicateArchetype&#45;&gt;CVertexPredicate -->
<g id="edge8" class="edge"><title>CVertexPredicateArchetype&#45;&gt;CVertexPredicate</title>
<path fill="none" stroke="black" d="M1730.24,-81.2562C1703.02,-87.5235 1670.56,-94.3793 1641,-99 1622.47,-101.896 1573.53,-98.1399 1557,-107 1511.61,-131.336 1526.98,-168.626 1484,-197 1340.53,-291.709 1279,-262.179 1112,-303 1080.53,-310.693 1045.52,-318.065 1015.42,-324.042"/>
<polygon fill="black" stroke="black" points="1014.54,-320.647 1005.41,-326.014 1015.89,-327.515 1014.54,-320.647"/>
</g>
<!-- STLMapToVertexMapAdapter -->
<g id="node13" class="node"><title>STLMapToVertexMapAdapter</title>
<g id="a_node13"><a xlink:href="classDGtal_1_1STLMapToVertexMapAdapter.html" target="_top" xlink:title="STLMapToVertexMapAdapter">
<ellipse fill="white" stroke="white" cx="2101" cy="-65" rx="149.473" ry="18"/>
<text text-anchor="middle" x="2101" y="-61.3" font-family="Times,serif" font-size="14.00">STLMapToVertexMapAdapter</text>
</a>
</g>
</g>
<!-- STLMapToVertexMapAdapter&#45;&gt;boost_UniqueAssociativeContainer -->
<g id="edge10" class="edge"><title>STLMapToVertexMapAdapter&#45;&gt;boost_UniqueAssociativeContainer</title>
<path fill="none" stroke="black" stroke-dasharray="5,2" d="M2043.77,-81.7141C1957.98,-106.093 1806,-152.834 1806,-178 1806,-178 1806,-178 1806,-340 1806,-383.186 1765.33,-407.974 1723.2,-422.066"/>
<polygon fill="black" stroke="black" points="1722.12,-418.738 1713.63,-425.084 1724.22,-425.414 1722.12,-418.738"/>
<text text-anchor="middle" x="1818.5" y="-248.3" font-family="Times,serif" font-size="14.00">use</text>
</g>
<!-- STLMapToVertexMapAdapter&#45;&gt;boost_PairAssociativeContainer -->
<g id="edge11" class="edge"><title>STLMapToVertexMapAdapter&#45;&gt;boost_PairAssociativeContainer</title>
<path fill="none" stroke="black" stroke-dasharray="5,2" d="M2085.19,-83.145C2067.71,-103.945 2042,-140.858 2042,-178 2042,-178 2042,-178 2042,-340 2042,-368.625 2024,-396.393 2008.05,-415.375"/>
<polygon fill="black" stroke="black" points="2005.37,-413.125 2001.4,-422.949 2010.63,-417.743 2005.37,-413.125"/>
<text text-anchor="middle" x="2054.5" y="-248.3" font-family="Times,serif" font-size="14.00">use</text>
</g>
<!-- STLMapToVertexMapAdapter&#45;&gt;CVertexMap -->
<g id="edge9" class="edge"><title>STLMapToVertexMapAdapter&#45;&gt;CVertexMap</title>
<path fill="none" stroke="black" d="M2038.33,-81.3908C2009.48,-87.8823 1974.68,-94.8773 1943,-99 1876.36,-107.673 1857.68,-92.7542 1792,-107 1598.34,-149.005 1565.29,-208.24 1377,-270 1310.91,-291.678 1233.55,-311.477 1181.31,-324.05"/>
<polygon fill="black" stroke="black" points="1180.44,-320.659 1171.53,-326.39 1182.07,-327.467 1180.44,-320.659"/>
</g>
<!-- BreadthFirstVisitor -->
<g id="node14" class="node"><title>BreadthFirstVisitor</title>
<g id="a_node14"><a xlink:href="classDGtal_1_1BreadthFirstVisitor.html" target="_top" xlink:title="BreadthFirstVisitor">
<ellipse fill="white" stroke="white" cx="1326" cy="-65" rx="102.082" ry="18"/>
<text text-anchor="middle" x="1326" y="-61.3" font-family="Times,serif" font-size="14.00">BreadthFirstVisitor</text>
</a>
</g>
</g>
<!-- BreadthFirstVisitor&#45;&gt;CUndirectedSimpleLocalGraph -->
<g id="edge16" class="edge"><title>BreadthFirstVisitor&#45;&gt;CUndirectedSimpleLocalGraph</title>
<path fill="none" stroke="black" stroke-dasharray="5,2" d="M1323.65,-83.1194C1319.19,-110.033 1307.29,-162.703 1279,-197 1262.79,-216.651 1210.11,-229.637 1157.83,-237.937"/>
<polygon fill="black" stroke="black" points="1157.09,-234.509 1147.73,-239.483 1158.15,-241.428 1157.09,-234.509"/>
<text text-anchor="middle" x="1324.5" y="-175.3" font-family="Times,serif" font-size="14.00">use</text>
</g>
<!-- BreadthFirstVisitor&#45;&gt;CGraphVisitor -->
<g id="edge17" class="edge"><title>BreadthFirstVisitor&#45;&gt;CGraphVisitor</title>
<path fill="none" stroke="black" d="M1295.03,-82.2858C1257.16,-102.196 1193.05,-135.907 1151.9,-157.546"/>
<polygon fill="black" stroke="black" points="1150.2,-154.485 1142.98,-162.237 1153.46,-160.681 1150.2,-154.485"/>
</g>
<!-- DepthFirstVisitor -->
<g id="node15" class="node"><title>DepthFirstVisitor</title>
<g id="a_node15"><a xlink:href="classDGtal_1_1DepthFirstVisitor.html" target="_top" xlink:title="DepthFirstVisitor">
<ellipse fill="white" stroke="white" cx="1539" cy="-65" rx="92.8835" ry="18"/>
<text text-anchor="middle" x="1539" y="-61.3" font-family="Times,serif" font-size="14.00">DepthFirstVisitor</text>
</a>
</g>
</g>
<!-- DepthFirstVisitor&#45;&gt;CUndirectedSimpleLocalGraph -->
<g id="edge18" class="edge"><title>DepthFirstVisitor&#45;&gt;CUndirectedSimpleLocalGraph</title>
<path fill="none" stroke="black" stroke-dasharray="5,2" d="M1519.01,-82.7202C1484.75,-110.529 1411.68,-166.258 1341,-197 1288.84,-219.686 1227.74,-232.845 1173.91,-240.477"/>
<polygon fill="black" stroke="black" points="1173.38,-237.016 1163.95,-241.838 1174.33,-243.952 1173.38,-237.016"/>
<text text-anchor="middle" x="1467.5" y="-175.3" font-family="Times,serif" font-size="14.00">use</text>
</g>
<!-- DepthFirstVisitor&#45;&gt;CGraphVisitor -->
<g id="edge19" class="edge"><title>DepthFirstVisitor&#45;&gt;CGraphVisitor</title>
<path fill="none" stroke="black" d="M1497.23,-81.1249C1478.93,-87.3312 1457.09,-94.176 1437,-99 1352.1,-119.388 1327.47,-107.884 1243,-130 1214.03,-137.585 1182.5,-149.143 1157.74,-159.016"/>
<polygon fill="black" stroke="black" points="1156.23,-155.854 1148.26,-162.845 1158.85,-162.344 1156.23,-155.854"/>
</g>
<!-- DistanceBreadthFirstVisitor -->
<g id="node16" class="node"><title>DistanceBreadthFirstVisitor</title>
<g id="a_node16"><a xlink:href="classDGtal_1_1DistanceBreadthFirstVisitor.html" target="_top" xlink:title="DistanceBreadthFirstVisitor">
<ellipse fill="white" stroke="white" cx="1063" cy="-65" rx="142.975" ry="18"/>
<text text-anchor="middle" x="1063" y="-61.3" font-family="Times,serif" font-size="14.00">DistanceBreadthFirstVisitor</text>
</a>
</g>
</g>
<!-- DistanceBreadthFirstVisitor&#45;&gt;CUndirectedSimpleLocalGraph -->
<g id="edge20" class="edge"><title>DistanceBreadthFirstVisitor&#45;&gt;CUndirectedSimpleLocalGraph</title>
<path fill="none" stroke="black" stroke-dasharray="5,2" d="M1154.12,-79.0349C1184.29,-88.1691 1214.78,-103.679 1233,-130 1254.75,-161.43 1257.56,-186.715 1233,-216 1223.77,-227.005 1200.01,-234.552 1172.02,-239.726"/>
<polygon fill="black" stroke="black" points="1171.22,-236.313 1161.96,-241.459 1172.41,-243.211 1171.22,-236.313"/>
<text text-anchor="middle" x="1262.5" y="-175.3" font-family="Times,serif" font-size="14.00">use</text>
</g>
<!-- DistanceBreadthFirstVisitor&#45;&gt;CGraphVisitor -->
<g id="edge21" class="edge"><title>DistanceBreadthFirstVisitor&#45;&gt;CGraphVisitor</title>
<path fill="none" stroke="black" d="M1111.08,-82.009C1122.15,-88.0543 1132.55,-96.1859 1139,-107 1147.44,-121.148 1141.36,-138.489 1132.96,-152.491"/>
<polygon fill="black" stroke="black" points="1129.84,-150.872 1127.24,-161.144 1135.67,-154.734 1129.84,-150.872"/>
</g>
<!-- GraphVisitorRange -->
<g id="node17" class="node"><title>GraphVisitorRange</title>
<g id="a_node17"><a xlink:href="classDGtal_1_1GraphVisitorRange.html" target="_top" xlink:title="GraphVisitorRange">
<ellipse fill="white" stroke="white" cx="802" cy="-65" rx="100.182" ry="18"/>
<text text-anchor="middle" x="802" y="-61.3" font-family="Times,serif" font-size="14.00">GraphVisitorRange</text>
</a>
</g>
</g>
<!-- GraphVisitorRange&#45;&gt;CGraphVisitor -->
<g id="edge22" class="edge"><title>GraphVisitorRange&#45;&gt;CGraphVisitor</title>
<path fill="none" stroke="black" stroke-dasharray="5,2" d="M849.928,-80.857C868.908,-86.6496 890.945,-93.2626 911,-99 961.894,-113.56 976.914,-110.182 1026,-130 1044.05,-137.288 1063.09,-147.479 1078.75,-156.596"/>
<polygon fill="black" stroke="black" points="1077.15,-159.719 1087.54,-161.81 1080.72,-153.698 1077.15,-159.719"/>
<text text-anchor="middle" x="1014.5" y="-110.8" font-family="Times,serif" font-size="14.00">use</text>
</g>
<!-- CAdjacency -->
<g id="node18" class="node"><title>CAdjacency</title>
<g id="a_node18"><a xlink:href="structDGtal_1_1concepts_1_1CAdjacency.html" target="_top" xlink:title="CAdjacency">
<ellipse fill="white" stroke="white" cx="612" cy="-65" rx="66.0889" ry="18"/>
<text text-anchor="middle" x="612" y="-61.3" font-family="Times,serif" font-size="14.00">CAdjacency</text>
</a>
</g>
</g>
<!-- CAdjacency&#45;&gt;CUndirectedSimpleLocalGraph -->
<g id="edge12" class="edge"><title>CAdjacency&#45;&gt;CUndirectedSimpleLocalGraph</title>
<path fill="none" stroke="black" d="M641.57,-81.3176C655.823,-87.9627 673.395,-95.1036 690,-99 693.454,-99.8106 1197.57,-127.416 1200,-130 1220.41,-151.685 1217.48,-172.891 1200,-197 1187.11,-214.776 1168.2,-226.808 1147.74,-234.926"/>
<polygon fill="black" stroke="black" points="1146.44,-231.674 1138.24,-238.387 1148.83,-238.251 1146.44,-231.674"/>
</g>
<!-- DigitalSurface -->
<g id="node19" class="node"><title>DigitalSurface</title>
<g id="a_node19"><a xlink:href="classDGtal_1_1DigitalSurface.html" target="_top" xlink:title="DigitalSurface">
<ellipse fill="white" stroke="white" cx="101" cy="-65" rx="77.1866" ry="18"/>
<text text-anchor="middle" x="101" y="-61.3" font-family="Times,serif" font-size="14.00">DigitalSurface</text>
</a>
</g>
</g>
<!-- DigitalSurface&#45;&gt;CUndirectedSimpleGraph -->
<g id="edge13" class="edge"><title>DigitalSurface&#45;&gt;CUndirectedSimpleGraph</title>
<path fill="none" stroke="black" d="M134.679,-81.2049C150.298,-87.6589 169.289,-94.6759 187,-99 379.764,-146.064 609.406,-165.209 751.469,-172.917"/>
<polygon fill="black" stroke="black" points="751.373,-176.416 761.545,-173.452 751.745,-169.426 751.373,-176.416"/>
</g>
<!-- IndexedDigitalSurface -->
<g id="node20" class="node"><title>IndexedDigitalSurface</title>
<g id="a_node20"><a xlink:href="classDGtal_1_1IndexedDigitalSurface.html" target="_top" xlink:title="IndexedDigitalSurface">
<ellipse fill="white" stroke="white" cx="311" cy="-65" rx="115.08" ry="18"/>
<text text-anchor="middle" x="311" y="-61.3" font-family="Times,serif" font-size="14.00">IndexedDigitalSurface</text>
</a>
</g>
</g>
<!-- IndexedDigitalSurface&#45;&gt;CUndirectedSimpleGraph -->
<g id="edge14" class="edge"><title>IndexedDigitalSurface&#45;&gt;CUndirectedSimpleGraph</title>
<path fill="none" stroke="black" d="M363.88,-81.03C385.793,-87.0084 411.53,-93.7085 435,-99 556.456,-126.383 698.117,-149.831 789.793,-163.909"/>
<polygon fill="black" stroke="black" points="789.475,-167.401 799.889,-165.452 790.533,-160.481 789.475,-167.401"/>
</g>
<!-- Object -->
<g id="node21" class="node"><title>Object</title>
<g id="a_node21"><a xlink:href="classDGtal_1_1Object.html" target="_top" xlink:title="Object">
<ellipse fill="white" stroke="white" cx="486" cy="-65" rx="41.6928" ry="18"/>
<text text-anchor="middle" x="486" y="-61.3" font-family="Times,serif" font-size="14.00">Object</text>
</a>
</g>
</g>
<!-- Object&#45;&gt;CUndirectedSimpleGraph -->
<g id="edge15" class="edge"><title>Object&#45;&gt;CUndirectedSimpleGraph</title>
<path fill="none" stroke="black" d="M505.923,-81.2275C514.991,-87.5279 526.114,-94.4171 537,-99 616.703,-132.553 712.918,-152.975 784.121,-164.625"/>
<polygon fill="black" stroke="black" points="783.57,-168.081 793.998,-166.211 784.68,-161.17 783.57,-168.081"/>
</g>
</g>
</svg>
