<?xml version="1.0" encoding="UTF-8" standalone="no"?>
<!DOCTYPE svg PUBLIC "-//W3C//DTD SVG 1.1//EN"
 "http://www.w3.org/Graphics/SVG/1.1/DTD/svg11.dtd">
<!-- Generated by graphviz version 2.38.0 (20140413.2041)
 -->
<!-- Title: GKERNEL Pages: 1 -->
<svg width="2320pt" height="797pt"
 viewBox="0.00 0.00 2320.00 797.00" xmlns="http://www.w3.org/2000/svg" xmlns:xlink="http://www.w3.org/1999/xlink">
<g id="graph0" class="graph" transform="scale(1 1) rotate(0) translate(4 793)">
<title>GKERNEL</title>
<polygon fill="white" stroke="none" points="-4,4 -4,-793 2316,-793 2316,4 -4,4"/>
<g id="clust1" class="cluster"><title>cluster_ext</title>
</g>
<g id="clust2" class="cluster"><title>cluster_base</title>
<polygon fill="#eeeeff" stroke="#eeeeff" points="1074,-698 1074,-773 1802,-773 1802,-698 1074,-698"/>
<text text-anchor="middle" x="1438" y="-705.8" font-family="Times,serif" font-size="14.00">base</text>
</g>
<g id="clust3" class="cluster"><title>cluster_boost</title>
<polygon fill="white" stroke="white" points="16,-698 16,-773 1066,-773 1066,-698 16,-698"/>
<text text-anchor="middle" x="541" y="-705.8" font-family="Times,serif" font-size="14.00">boost</text>
</g>
<g id="clust4" class="cluster"><title>cluster_main</title>
<polygon fill="#ddddee" stroke="#ddddee" points="869,-116 869,-671 1693,-671 1693,-116 869,-116"/>
<text text-anchor="middle" x="1281" y="-123.8" font-family="Times,serif" font-size="14.00">kernel (main concepts)</text>
</g>
<g id="clust5" class="cluster"><title>cluster_models</title>
<polygon fill="#ccffcc" stroke="#ccffcc" points="555,-8 555,-83 2304,-83 2304,-8 555,-8"/>
<text text-anchor="middle" x="1429.5" y="-15.8" font-family="Times,serif" font-size="14.00">Kernel (main models)</text>
</g>
<!-- CQuantity -->
<g id="node1" class="node"><title>CQuantity</title>
<g id="a_node1"><a xlink:href="structDGtal_1_1concepts_1_1CQuantity.html" target="_top" xlink:title="CQuantity">
<ellipse fill="white" stroke="white" cx="1591" cy="-747" rx="58.4896" ry="18"/>
<text text-anchor="middle" x="1591" y="-743.3" font-family="Times,serif" font-size="14.00">CQuantity</text>
</a>
</g>
</g>
<!-- CUnaryFunctor -->
<g id="node2" class="node"><title>CUnaryFunctor</title>
<g id="a_node2"><a xlink:href="structDGtal_1_1concepts_1_1CUnaryFunctor.html" target="_top" xlink:title="CUnaryFunctor">
<ellipse fill="white" stroke="white" cx="1165" cy="-747" rx="83.3857" ry="18"/>
<text text-anchor="middle" x="1165" y="-743.3" font-family="Times,serif" font-size="14.00">CUnaryFunctor</text>
</a>
</g>
</g>
<!-- CPredicate -->
<g id="node3" class="node"><title>CPredicate</title>
<g id="a_node3"><a xlink:href="structDGtal_1_1concepts_1_1CPredicate.html" target="_top" xlink:title="CPredicate">
<ellipse fill="white" stroke="white" cx="1731" cy="-747" rx="63.0888" ry="18"/>
<text text-anchor="middle" x="1731" y="-743.3" font-family="Times,serif" font-size="14.00">CPredicate</text>
</a>
</g>
</g>
<!-- CConstSinglePassRange -->
<g id="node4" class="node"><title>CConstSinglePassRange</title>
<g id="a_node4"><a xlink:href="structDGtal_1_1concepts_1_1CConstSinglePassRange.html" target="_top" xlink:title="CConstSinglePassRange">
<ellipse fill="white" stroke="white" cx="1390" cy="-747" rx="124.278" ry="18"/>
<text text-anchor="middle" x="1390" y="-743.3" font-family="Times,serif" font-size="14.00">CConstSinglePassRange</text>
</a>
</g>
</g>
<!-- boost_CopyConstructible -->
<g id="node5" class="node"><title>boost_CopyConstructible</title>
<g id="a_node5"><a xlink:href="structboost_1_1CopyConstructible.html" target="_top" xlink:title="boost::CopyConstructible">
<ellipse fill="orange" stroke="orange" cx="724" cy="-747" rx="129.977" ry="18"/>
<text text-anchor="middle" x="724" y="-743.3" font-family="Times,serif" font-size="14.00">boost::CopyConstructible</text>
</a>
</g>
</g>
<!-- boost_Assignable -->
<g id="node6" class="node"><title>boost_Assignable</title>
<g id="a_node6"><a xlink:href="structboost_1_1Assignable.html" target="_top" xlink:title="boost::Assignable">
<ellipse fill="orange" stroke="orange" cx="965" cy="-747" rx="92.8835" ry="18"/>
<text text-anchor="middle" x="965" y="-743.3" font-family="Times,serif" font-size="14.00">boost::Assignable</text>
</a>
</g>
</g>
<!-- boost_DefaultConstructible -->
<g id="node7" class="node"><title>boost_DefaultConstructible</title>
<g id="a_node7"><a xlink:href="structboost_1_1DefaultConstructible.html" target="_top" xlink:title="boost::DefaultConstructible">
<ellipse fill="orange" stroke="orange" cx="436" cy="-747" rx="139.976" ry="18"/>
<text text-anchor="middle" x="436" y="-743.3" font-family="Times,serif" font-size="14.00">boost::DefaultConstructible</text>
</a>
</g>
</g>
<!-- boost_ForwardContainer -->
<g id="node8" class="node"><title>boost_ForwardContainer</title>
<g id="a_node8"><a xlink:href="structboost_1_1ForwardContainer.html" target="_top" xlink:title="boost::ForwardContainer">
<ellipse fill="orange" stroke="orange" cx="151" cy="-747" rx="127.277" ry="18"/>
<text text-anchor="middle" x="151" y="-743.3" font-family="Times,serif" font-size="14.00">boost::ForwardContainer</text>
</a>
</g>
</g>
<!-- CPointPredicate -->
<g id="node9" class="node"><title>CPointPredicate</title>
<g id="a_node9"><a xlink:href="structDGtal_1_1concepts_1_1CPointPredicate.html" target="_top" xlink:title="CPointPredicate">
<ellipse fill="white" stroke="white" cx="1598" cy="-252" rx="87.1846" ry="18"/>
<text text-anchor="middle" x="1598" y="-248.3" font-family="Times,serif" font-size="14.00">CPointPredicate</text>
</a>
</g>
</g>
<!-- CPointPredicate&#45;&gt;CPredicate -->
<g id="edge2" class="edge"><title>CPointPredicate&#45;&gt;CPredicate</title>
<path fill="none" stroke="black" d="M1682.28,-256.801C1785.84,-263.825 1948,-283.521 1948,-338 1948,-338 1948,-338 1948,-646 1948,-711.362 1865.79,-734.148 1802.57,-742.006"/>
<polygon fill="black" stroke="black" points="1802.14,-738.532 1792.6,-743.144 1802.94,-745.487 1802.14,-738.532"/>
</g>
<!-- CPointFunctor -->
<g id="node10" class="node"><title>CPointFunctor</title>
<g id="a_node10"><a xlink:href="structDGtal_1_1concepts_1_1CPointFunctor.html" target="_top" xlink:title="CPointFunctor">
<ellipse fill="white" stroke="white" cx="1246" cy="-165" rx="79.0865" ry="18"/>
<text text-anchor="middle" x="1246" y="-161.3" font-family="Times,serif" font-size="14.00">CPointFunctor</text>
</a>
</g>
</g>
<!-- CPointFunctor&#45;&gt;CUnaryFunctor -->
<g id="edge1" class="edge"><title>CPointFunctor&#45;&gt;CUnaryFunctor</title>
<path fill="none" stroke="black" d="M1191.25,-178.167C1176.91,-183.372 1162.31,-190.71 1151,-201 1132.77,-217.587 1127,-226.35 1127,-251 1127,-251 1127,-251 1127,-646 1127,-672.495 1138.8,-700.514 1149.25,-720.131"/>
<polygon fill="black" stroke="black" points="1146.29,-722.009 1154.21,-729.043 1152.4,-718.603 1146.29,-722.009"/>
</g>
<!-- CSpace -->
<g id="node11" class="node"><title>CSpace</title>
<ellipse fill="white" stroke="white" cx="1541" cy="-339" rx="46.2923" ry="18"/>
<text text-anchor="middle" x="1541" y="-335.3" font-family="Times,serif" font-size="14.00">CSpace</text>
</g>
<!-- CInteger -->
<g id="node12" class="node"><title>CInteger</title>
<g id="a_node12"><a xlink:href="structDGtal_1_1concepts_1_1CInteger.html" target="_top" xlink:title="CInteger">
<ellipse fill="white" stroke="white" cx="1541" cy="-426" rx="52.7911" ry="18"/>
<text text-anchor="middle" x="1541" y="-422.3" font-family="Times,serif" font-size="14.00">CInteger</text>
</a>
</g>
</g>
<!-- CSpace&#45;&gt;CInteger -->
<g id="edge16" class="edge"><title>CSpace&#45;&gt;CInteger</title>
<path fill="none" stroke="black" stroke-dasharray="5,2" d="M1541,-357.201C1541,-368.837 1541,-384.452 1541,-397.763"/>
<polygon fill="black" stroke="black" points="1537.5,-397.825 1541,-407.825 1544.5,-397.825 1537.5,-397.825"/>
<text text-anchor="middle" x="1553.5" y="-378.8" font-family="Times,serif" font-size="14.00">use</text>
</g>
<!-- CUnsignedNumber -->
<g id="node13" class="node"><title>CUnsignedNumber</title>
<g id="a_node13"><a xlink:href="structDGtal_1_1concepts_1_1CUnsignedNumber.html" target="_top" xlink:title="CUnsignedNumber">
<ellipse fill="white" stroke="white" cx="1370" cy="-426" rx="100.983" ry="18"/>
<text text-anchor="middle" x="1370" y="-422.3" font-family="Times,serif" font-size="14.00">CUnsignedNumber</text>
</a>
</g>
</g>
<!-- CSpace&#45;&gt;CUnsignedNumber -->
<g id="edge18" class="edge"><title>CSpace&#45;&gt;CUnsignedNumber</title>
<path fill="none" stroke="black" stroke-dasharray="5,2" d="M1513.53,-353.657C1485.94,-367.367 1443.11,-388.661 1411.4,-404.419"/>
<polygon fill="black" stroke="black" points="1409.76,-401.326 1402.37,-408.911 1412.88,-407.594 1409.76,-401.326"/>
<text text-anchor="middle" x="1477.5" y="-378.8" font-family="Times,serif" font-size="14.00">use</text>
</g>
<!-- CIntegralNumber -->
<g id="node15" class="node"><title>CIntegralNumber</title>
<g id="a_node15"><a xlink:href="structDGtal_1_1concepts_1_1CIntegralNumber.html" target="_top" xlink:title="CIntegralNumber">
<ellipse fill="white" stroke="white" cx="1591" cy="-499" rx="94.4839" ry="18"/>
<text text-anchor="middle" x="1591" y="-495.3" font-family="Times,serif" font-size="14.00">CIntegralNumber</text>
</a>
</g>
</g>
<!-- CSpace&#45;&gt;CIntegralNumber -->
<g id="edge17" class="edge"><title>CSpace&#45;&gt;CIntegralNumber</title>
<path fill="none" stroke="black" stroke-dasharray="5,2" d="M1561.45,-355.34C1576.11,-367.714 1594.69,-386.548 1603,-408 1610.84,-428.245 1606.77,-452.758 1601.34,-471.086"/>
<polygon fill="black" stroke="black" points="1597.94,-470.231 1598.15,-480.824 1604.59,-472.407 1597.94,-470.231"/>
<text text-anchor="middle" x="1619.5" y="-422.3" font-family="Times,serif" font-size="14.00">use</text>
</g>
<!-- CInteger&#45;&gt;CIntegralNumber -->
<g id="edge7" class="edge"><title>CInteger&#45;&gt;CIntegralNumber</title>
<path fill="none" stroke="black" d="M1552.85,-443.826C1558.86,-452.366 1566.3,-462.921 1573,-472.439"/>
<polygon fill="black" stroke="black" points="1570.27,-474.641 1578.89,-480.802 1575.99,-470.61 1570.27,-474.641"/>
</g>
<!-- CEuclideanRing -->
<g id="node17" class="node"><title>CEuclideanRing</title>
<g id="a_node17"><a xlink:href="structDGtal_1_1concepts_1_1CEuclideanRing.html" target="_top" xlink:title="CEuclideanRing">
<ellipse fill="white" stroke="white" cx="1393" cy="-499" rx="85.5853" ry="18"/>
<text text-anchor="middle" x="1393" y="-495.3" font-family="Times,serif" font-size="14.00">CEuclideanRing</text>
</a>
</g>
</g>
<!-- CInteger&#45;&gt;CEuclideanRing -->
<g id="edge8" class="edge"><title>CInteger&#45;&gt;CEuclideanRing</title>
<path fill="none" stroke="black" d="M1511.76,-441.027C1489.8,-451.563 1459.41,-466.14 1434.87,-477.912"/>
<polygon fill="black" stroke="black" points="1433.29,-474.791 1425.79,-482.272 1436.32,-481.102 1433.29,-474.791"/>
</g>
<!-- CUnsignedNumber&#45;&gt;CQuantity -->
<g id="edge4" class="edge"><title>CUnsignedNumber&#45;&gt;CQuantity</title>
<path fill="none" stroke="black" d="M1326.37,-442.347C1303.01,-453.636 1279,-471.65 1279,-498 1279,-498 1279,-498 1279,-646 1279,-687.943 1328.86,-662.839 1370,-671 1437.21,-684.333 1460.05,-662.923 1523,-690 1540.33,-697.457 1556.76,-710.735 1569.12,-722.491"/>
<polygon fill="black" stroke="black" points="1566.69,-725.01 1576.26,-729.548 1571.61,-720.03 1566.69,-725.01"/>
</g>
<!-- CSignedNumber -->
<g id="node14" class="node"><title>CSignedNumber</title>
<g id="a_node14"><a xlink:href="structDGtal_1_1concepts_1_1CSignedNumber.html" target="_top" xlink:title="CSignedNumber">
<ellipse fill="white" stroke="white" cx="1467" cy="-645" rx="88.2844" ry="18"/>
<text text-anchor="middle" x="1467" y="-641.3" font-family="Times,serif" font-size="14.00">CSignedNumber</text>
</a>
</g>
</g>
<!-- CSignedNumber&#45;&gt;CQuantity -->
<g id="edge3" class="edge"><title>CSignedNumber&#45;&gt;CQuantity</title>
<path fill="none" stroke="black" d="M1488.36,-662.601C1498.85,-670.792 1511.63,-680.855 1523,-690 1536.59,-700.93 1551.56,-713.233 1563.99,-723.518"/>
<polygon fill="black" stroke="black" points="1561.82,-726.263 1571.75,-729.95 1566.29,-720.874 1561.82,-726.263"/>
</g>
<!-- CIntegralNumber&#45;&gt;CQuantity -->
<g id="edge5" class="edge"><title>CIntegralNumber&#45;&gt;CQuantity</title>
<path fill="none" stroke="black" d="M1591,-517.298C1591,-559.378 1591,-667.372 1591,-718.446"/>
<polygon fill="black" stroke="black" points="1587.5,-718.721 1591,-728.721 1594.5,-718.721 1587.5,-718.721"/>
</g>
<!-- CBoundedNumber -->
<g id="node16" class="node"><title>CBoundedNumber</title>
<g id="a_node16"><a xlink:href="structDGtal_1_1concepts_1_1CBoundedNumber.html" target="_top" xlink:title="CBoundedNumber">
<ellipse fill="white" stroke="white" cx="1441" cy="-165" rx="97.4827" ry="18"/>
<text text-anchor="middle" x="1441" y="-161.3" font-family="Times,serif" font-size="14.00">CBoundedNumber</text>
</a>
</g>
</g>
<!-- CBoundedNumber&#45;&gt;CQuantity -->
<g id="edge6" class="edge"><title>CBoundedNumber&#45;&gt;CQuantity</title>
<path fill="none" stroke="black" d="M1370.83,-177.498C1358.57,-179.408 1345.92,-181.314 1334,-183 1301.85,-187.548 1215.36,-182.045 1189,-201 1168.99,-215.39 1165,-226.35 1165,-251 1165,-251 1165,-251 1165,-646 1165,-691.812 1219.77,-663.735 1265,-671 1321.76,-680.116 1469.64,-668.611 1523,-690 1540.63,-697.068 1557.17,-710.462 1569.51,-722.378"/>
<polygon fill="black" stroke="black" points="1567.1,-724.915 1576.63,-729.538 1572.06,-719.979 1567.1,-724.915"/>
</g>
<!-- CCommutativeRing -->
<g id="node18" class="node"><title>CCommutativeRing</title>
<g id="a_node18"><a xlink:href="structDGtal_1_1concepts_1_1CCommutativeRing.html" target="_top" xlink:title="CCommutativeRing">
<ellipse fill="white" stroke="white" cx="1443" cy="-572" rx="102.882" ry="18"/>
<text text-anchor="middle" x="1443" y="-568.3" font-family="Times,serif" font-size="14.00">CCommutativeRing</text>
</a>
</g>
</g>
<!-- CEuclideanRing&#45;&gt;CCommutativeRing -->
<g id="edge9" class="edge"><title>CEuclideanRing&#45;&gt;CCommutativeRing</title>
<path fill="none" stroke="black" d="M1405.1,-517.187C1411.12,-525.734 1418.51,-536.231 1425.17,-545.677"/>
<polygon fill="black" stroke="black" points="1422.39,-547.81 1431.01,-553.971 1428.11,-543.78 1422.39,-547.81"/>
</g>
<!-- CCommutativeRing&#45;&gt;CSignedNumber -->
<g id="edge10" class="edge"><title>CCommutativeRing&#45;&gt;CSignedNumber</title>
<path fill="none" stroke="black" d="M1448.81,-590.187C1451.55,-598.298 1454.89,-608.164 1457.95,-617.223"/>
<polygon fill="black" stroke="black" points="1454.73,-618.619 1461.24,-626.971 1461.36,-616.377 1454.73,-618.619"/>
</g>
<!-- CDomain -->
<g id="node19" class="node"><title>CDomain</title>
<g id="a_node19"><a xlink:href="structDGtal_1_1concepts_1_1CDomain.html" target="_top" xlink:title="CDomain">
<ellipse fill="white" stroke="white" cx="1439" cy="-252" rx="53.8905" ry="18"/>
<text text-anchor="middle" x="1439" y="-248.3" font-family="Times,serif" font-size="14.00">CDomain</text>
</a>
</g>
</g>
<!-- CDomain&#45;&gt;CConstSinglePassRange -->
<g id="edge11" class="edge"><title>CDomain&#45;&gt;CConstSinglePassRange</title>
<path fill="none" stroke="black" d="M1385.16,-253.929C1326.53,-258.136 1241,-275.06 1241,-338 1241,-338 1241,-338 1241,-646 1241,-687.5 1281.34,-712.888 1320.05,-727.694"/>
<polygon fill="black" stroke="black" points="1319.23,-731.121 1329.83,-731.234 1321.61,-724.539 1319.23,-731.121"/>
</g>
<!-- CDomain&#45;&gt;CSpace -->
<g id="edge19" class="edge"><title>CDomain&#45;&gt;CSpace</title>
<path fill="none" stroke="black" stroke-dasharray="5,2" d="M1458.19,-268.988C1474.1,-282.25 1496.89,-301.246 1514.54,-315.952"/>
<polygon fill="black" stroke="black" points="1512.32,-318.658 1522.25,-322.371 1516.8,-313.28 1512.32,-318.658"/>
<text text-anchor="middle" x="1508.5" y="-291.8" font-family="Times,serif" font-size="14.00">use</text>
</g>
<!-- CSTLAssociativeContainer -->
<g id="node20" class="node"><title>CSTLAssociativeContainer</title>
<g id="a_node20"><a xlink:href="structDGtal_1_1concepts_1_1CSTLAssociativeContainer.html" target="_top" xlink:title="CSTLAssociativeContainer">
<ellipse fill="white" stroke="white" cx="1013" cy="-165" rx="135.676" ry="18"/>
<text text-anchor="middle" x="1013" y="-161.3" font-family="Times,serif" font-size="14.00">CSTLAssociativeContainer</text>
</a>
</g>
</g>
<!-- CSTLAssociativeContainer&#45;&gt;boost_DefaultConstructible -->
<g id="edge12" class="edge"><title>CSTLAssociativeContainer&#45;&gt;boost_DefaultConstructible</title>
<path fill="none" stroke="black" d="M910.651,-176.839C827.872,-188.547 725,-211.119 725,-251 725,-251 725,-251 725,-646 725,-711.223 646.661,-668.741 585,-690 552.139,-701.33 515.599,-715.045 486.929,-726.066"/>
<polygon fill="black" stroke="black" points="485.595,-722.829 477.525,-729.693 488.114,-729.361 485.595,-722.829"/>
</g>
<!-- CSTLAssociativeContainer&#45;&gt;boost_ForwardContainer -->
<g id="edge13" class="edge"><title>CSTLAssociativeContainer&#45;&gt;boost_ForwardContainer</title>
<path fill="none" stroke="black" d="M886.664,-171.651C712.257,-181.175 419,-204.154 419,-251 419,-251 419,-251 419,-646 419,-707.84 344.959,-668.437 287,-690 257.054,-701.141 223.889,-714.771 197.807,-725.794"/>
<polygon fill="black" stroke="black" points="196.376,-722.599 188.538,-729.728 199.11,-729.043 196.376,-722.599"/>
</g>
<!-- CDigitalSet -->
<g id="node21" class="node"><title>CDigitalSet</title>
<ellipse fill="white" stroke="white" cx="1621" cy="-165" rx="64.189" ry="18"/>
<text text-anchor="middle" x="1621" y="-161.3" font-family="Times,serif" font-size="14.00">CDigitalSet</text>
</g>
<!-- CDigitalSet&#45;&gt;boost_CopyConstructible -->
<g id="edge21" class="edge"><title>CDigitalSet&#45;&gt;boost_CopyConstructible</title>
<path fill="none" stroke="black" d="M1575.44,-177.742C1566.08,-179.791 1556.27,-181.685 1547,-183 1478.28,-192.755 926,-181.588 926,-251 926,-251 926,-251 926,-646 926,-662.808 835.017,-702.096 775.173,-726.12"/>
<polygon fill="black" stroke="black" points="773.845,-722.882 765.855,-729.839 776.44,-729.383 773.845,-722.882"/>
</g>
<!-- CDigitalSet&#45;&gt;boost_Assignable -->
<g id="edge20" class="edge"><title>CDigitalSet&#45;&gt;boost_Assignable</title>
<path fill="none" stroke="black" d="M1573.28,-177.189C1564.55,-179.172 1555.51,-181.182 1547,-183 1470.8,-199.281 1203,-173.076 1203,-251 1203,-251 1203,-251 1203,-646 1203,-708.262 1127.23,-665.483 1070,-690 1046.45,-700.088 1021.08,-713.543 1001.17,-724.736"/>
<polygon fill="black" stroke="black" points="999.405,-721.715 992.44,-729.699 1002.86,-727.801 999.405,-721.715"/>
</g>
<!-- CDigitalSet&#45;&gt;CPointPredicate -->
<g id="edge14" class="edge"><title>CDigitalSet&#45;&gt;CPointPredicate</title>
<path fill="none" stroke="black" d="M1616.35,-183.201C1613.17,-194.953 1608.89,-210.762 1605.26,-224.158"/>
<polygon fill="black" stroke="black" points="1601.88,-223.257 1602.65,-233.825 1608.64,-225.086 1601.88,-223.257"/>
</g>
<!-- CDigitalSet&#45;&gt;CDomain -->
<g id="edge15" class="edge"><title>CDigitalSet&#45;&gt;CDomain</title>
<path fill="none" stroke="black" stroke-dasharray="5,2" d="M1589.3,-180.806C1558.52,-195.179 1511.72,-217.036 1478.53,-232.537"/>
<polygon fill="black" stroke="black" points="1476.71,-229.525 1469.13,-236.928 1479.67,-235.868 1476.71,-229.525"/>
<text text-anchor="middle" x="1552.5" y="-204.8" font-family="Times,serif" font-size="14.00">use</text>
</g>
<!-- SpaceND -->
<g id="node22" class="node"><title>SpaceND</title>
<g id="a_node22"><a xlink:href="classDGtal_1_1SpaceND.html" target="_top" xlink:title="SpaceND">
<ellipse fill="white" stroke="white" cx="2242" cy="-57" rx="53.8905" ry="18"/>
<text text-anchor="middle" x="2242" y="-53.3" font-family="Times,serif" font-size="14.00">SpaceND</text>
</a>
</g>
</g>
<!-- SpaceND&#45;&gt;CSpace -->
<g id="edge22" class="edge"><title>SpaceND&#45;&gt;CSpace</title>
<path fill="none" stroke="black" d="M2210.57,-71.7525C2146.36,-99.7365 1995.34,-164.972 1867,-216 1765.99,-256.161 1645.98,-300.117 1583.54,-322.707"/>
<polygon fill="black" stroke="black" points="1582.24,-319.455 1574.02,-326.145 1584.62,-326.038 1582.24,-319.455"/>
</g>
<!-- HyperRectDomain -->
<g id="node23" class="node"><title>HyperRectDomain</title>
<g id="a_node23"><a xlink:href="classDGtal_1_1HyperRectDomain.html" target="_top" xlink:title="HyperRectDomain">
<ellipse fill="white" stroke="white" cx="1713" cy="-57" rx="96.6831" ry="18"/>
<text text-anchor="middle" x="1713" y="-53.3" font-family="Times,serif" font-size="14.00">HyperRectDomain</text>
</a>
</g>
</g>
<!-- HyperRectDomain&#45;&gt;CDomain -->
<g id="edge23" class="edge"><title>HyperRectDomain&#45;&gt;CDomain</title>
<path fill="none" stroke="black" d="M1715.79,-75.4005C1719,-102.069 1720.82,-153.094 1694,-183 1635.05,-248.734 1587.29,-211.166 1502,-234 1497.94,-235.088 1493.73,-236.217 1489.5,-237.354"/>
<polygon fill="black" stroke="black" points="1488.41,-234.024 1479.66,-240.003 1490.23,-240.783 1488.41,-234.024"/>
</g>
<!-- DigitalSetBySTLSet -->
<g id="node24" class="node"><title>DigitalSetBySTLSet</title>
<g id="a_node24"><a xlink:href="classDGtal_1_1DigitalSetBySTLSet.html" target="_top" xlink:title="DigitalSetBySTLSet">
<ellipse fill="white" stroke="white" cx="1495" cy="-57" rx="102.882" ry="18"/>
<text text-anchor="middle" x="1495" y="-53.3" font-family="Times,serif" font-size="14.00">DigitalSetBySTLSet</text>
</a>
</g>
</g>
<!-- DigitalSetBySTLSet&#45;&gt;CDigitalSet -->
<g id="edge25" class="edge"><title>DigitalSetBySTLSet&#45;&gt;CDigitalSet</title>
<path fill="none" stroke="black" d="M1514.97,-74.796C1536.19,-92.6553 1569.91,-121.02 1593.61,-140.96"/>
<polygon fill="black" stroke="black" points="1591.64,-143.872 1601.54,-147.631 1596.14,-138.515 1591.64,-143.872"/>
</g>
<!-- DigitalSetBySTLVector -->
<g id="node25" class="node"><title>DigitalSetBySTLVector</title>
<g id="a_node25"><a xlink:href="classDGtal_1_1DigitalSetBySTLVector.html" target="_top" xlink:title="DigitalSetBySTLVector">
<ellipse fill="white" stroke="white" cx="1035" cy="-57" rx="116.18" ry="18"/>
<text text-anchor="middle" x="1035" y="-53.3" font-family="Times,serif" font-size="14.00">DigitalSetBySTLVector</text>
</a>
</g>
</g>
<!-- DigitalSetBySTLVector&#45;&gt;CDigitalSet -->
<g id="edge24" class="edge"><title>DigitalSetBySTLVector&#45;&gt;CDigitalSet</title>
<path fill="none" stroke="black" d="M1098.68,-72.152C1118.27,-76.1234 1139.95,-80.1343 1160,-83 1287.19,-101.182 1319.97,-97.2701 1448,-108 1491.99,-111.687 1505.21,-101.778 1547,-116 1563.65,-121.666 1580.25,-131.908 1593.5,-141.481"/>
<polygon fill="black" stroke="black" points="1591.59,-144.421 1601.69,-147.62 1595.79,-138.821 1591.59,-144.421"/>
</g>
<!-- DigitalSetFromMap -->
<g id="node26" class="node"><title>DigitalSetFromMap</title>
<g id="a_node26"><a xlink:href="classDGtal_1_1DigitalSetFromMap.html" target="_top" xlink:title="DigitalSetFromMap">
<ellipse fill="white" stroke="white" cx="1272" cy="-57" rx="102.882" ry="18"/>
<text text-anchor="middle" x="1272" y="-53.3" font-family="Times,serif" font-size="14.00">DigitalSetFromMap</text>
</a>
</g>
</g>
<!-- DigitalSetFromMap&#45;&gt;CDigitalSet -->
<g id="edge26" class="edge"><title>DigitalSetFromMap&#45;&gt;CDigitalSet</title>
<path fill="none" stroke="black" d="M1331.57,-71.6805C1348.2,-75.4279 1366.29,-79.4373 1383,-83 1455.72,-98.5025 1478.15,-87.9397 1547,-116 1563.05,-122.542 1579.38,-132.685 1592.6,-141.964"/>
<polygon fill="black" stroke="black" points="1590.64,-144.871 1600.8,-147.89 1594.74,-139.197 1590.64,-144.871"/>
</g>
<!-- SetPredicate -->
<g id="node27" class="node"><title>SetPredicate</title>
<g id="a_node27"><a xlink:href="structDGtal_1_1deprecated_1_1SetPredicate.html" target="_top" xlink:title="SetPredicate">
<ellipse fill="white" stroke="white" cx="1899" cy="-57" rx="70.6878" ry="18"/>
<text text-anchor="middle" x="1899" y="-53.3" font-family="Times,serif" font-size="14.00">SetPredicate</text>
</a>
</g>
</g>
<!-- SetPredicate&#45;&gt;CPointPredicate -->
<g id="edge30" class="edge"><title>SetPredicate&#45;&gt;CPointPredicate</title>
<path fill="none" stroke="black" d="M1859.35,-72.0702C1845.75,-77.683 1830.74,-84.7797 1818,-93 1747.83,-138.256 1747.69,-173.203 1676,-216 1666.54,-221.65 1656,-226.967 1645.81,-231.67"/>
<polygon fill="black" stroke="black" points="1644.28,-228.52 1636.58,-235.807 1647.14,-234.907 1644.28,-228.52"/>
</g>
<!-- SetPredicate&#45;&gt;CDigitalSet -->
<g id="edge29" class="edge"><title>SetPredicate&#45;&gt;CDigitalSet</title>
<path fill="none" stroke="black" stroke-dasharray="5,2" d="M1859.06,-71.9002C1846.37,-75.9324 1832.21,-80.0409 1819,-83 1787.47,-90.0644 1777.61,-82.6665 1747,-93 1712.46,-104.659 1676.58,-125.927 1651.98,-142.156"/>
<polygon fill="black" stroke="black" points="1649.8,-139.401 1643.45,-147.881 1653.71,-145.214 1649.8,-139.401"/>
<text text-anchor="middle" x="1759.5" y="-96.8" font-family="Times,serif" font-size="14.00">use</text>
</g>
<!-- DomainPredicate -->
<g id="node28" class="node"><title>DomainPredicate</title>
<g id="a_node28"><a xlink:href="structDGtal_1_1functors_1_1DomainPredicate.html" target="_top" xlink:title="DomainPredicate">
<ellipse fill="white" stroke="white" cx="2079" cy="-57" rx="90.9839" ry="18"/>
<text text-anchor="middle" x="2079" y="-53.3" font-family="Times,serif" font-size="14.00">DomainPredicate</text>
</a>
</g>
</g>
<!-- DomainPredicate&#45;&gt;CPointPredicate -->
<g id="edge32" class="edge"><title>DomainPredicate&#45;&gt;CPointPredicate</title>
<path fill="none" stroke="black" d="M2027.58,-71.9325C2012.05,-75.8503 1994.89,-79.8867 1979,-83 1948.16,-89.0413 1934.58,-74.7483 1909,-93 1859,-128.671 1896.03,-180.372 1846,-216 1821.64,-233.346 1751.87,-242.156 1692.51,-246.596"/>
<polygon fill="black" stroke="black" points="1692.05,-243.119 1682.33,-247.323 1692.55,-250.102 1692.05,-243.119"/>
</g>
<!-- DomainPredicate&#45;&gt;CDomain -->
<g id="edge31" class="edge"><title>DomainPredicate&#45;&gt;CDomain</title>
<path fill="none" stroke="black" stroke-dasharray="5,2" d="M2028.41,-72.0366C2012.67,-76.0272 1995.2,-80.0779 1979,-83 1939.83,-90.0649 1928.26,-82.0241 1890,-93 1784.55,-123.25 1780.04,-181.217 1676,-216 1602.27,-240.651 1578.44,-219.827 1502,-234 1497.37,-234.858 1492.58,-235.886 1487.81,-237.006"/>
<polygon fill="black" stroke="black" points="1486.96,-233.61 1478.1,-239.407 1488.64,-240.405 1486.96,-233.61"/>
<text text-anchor="middle" x="1844.5" y="-161.3" font-family="Times,serif" font-size="14.00">use</text>
</g>
<!-- DigitalSetByAssociativeContainer -->
<g id="node29" class="node"><title>DigitalSetByAssociativeContainer</title>
<g id="a_node29"><a xlink:href="classDGtal_1_1DigitalSetByAssociativeContainer.html" target="_top" xlink:title="DigitalSetByAssociativeContainer">
<ellipse fill="white" stroke="white" cx="732" cy="-57" rx="168.97" ry="18"/>
<text text-anchor="middle" x="732" y="-53.3" font-family="Times,serif" font-size="14.00">DigitalSetByAssociativeContainer</text>
</a>
</g>
</g>
<!-- DigitalSetByAssociativeContainer&#45;&gt;CSTLAssociativeContainer -->
<g id="edge28" class="edge"><title>DigitalSetByAssociativeContainer&#45;&gt;CSTLAssociativeContainer</title>
<path fill="none" stroke="black" stroke-dasharray="5,2" d="M775.598,-74.4462C825.52,-93.2781 907.266,-124.115 960.607,-144.236"/>
<polygon fill="black" stroke="black" points="959.63,-147.608 970.222,-147.863 962.101,-141.059 959.63,-147.608"/>
<text text-anchor="middle" x="877.5" y="-96.8" font-family="Times,serif" font-size="14.00">use</text>
</g>
<!-- DigitalSetByAssociativeContainer&#45;&gt;CDigitalSet -->
<g id="edge27" class="edge"><title>DigitalSetByAssociativeContainer&#45;&gt;CDigitalSet</title>
<path fill="none" stroke="black" d="M824.246,-72.0951C851.788,-75.9953 882.077,-79.9813 910,-83 1055.79,-98.7615 1092.55,-100.538 1239,-108 1273.19,-109.742 1514.3,-105.86 1547,-116 1564.04,-121.283 1580.89,-131.696 1594.2,-141.477"/>
<polygon fill="black" stroke="black" points="1592.33,-144.456 1602.4,-147.753 1596.59,-138.896 1592.33,-144.456"/>
</g>
</g>
</svg>
