<?xml version="1.0" encoding="UTF-8" standalone="no"?>
<!DOCTYPE svg PUBLIC "-//W3C//DTD SVG 1.1//EN"
 "http://www.w3.org/Graphics/SVG/1.1/DTD/svg11.dtd">
<!-- Generated by graphviz version 2.38.0 (20140413.2041)
 -->
<!-- Title: SegmentComputerHierarchy Pages: 1 -->
<svg width="684pt" height="459pt"
 viewBox="0.00 0.00 684.00 459.00" xmlns="http://www.w3.org/2000/svg" xmlns:xlink="http://www.w3.org/1999/xlink">
<g id="graph0" class="graph" transform="scale(1 1) rotate(0) translate(4 455)">
<title>SegmentComputerHierarchy</title>
<polygon fill="white" stroke="none" points="-4,4 -4,-455 680,-455 680,4 -4,4"/>
<g id="clust1" class="cluster"><title>cluster_concepts_1</title>
<polygon fill="lightgrey" stroke="lightgrey" points="8,-8 8,-443 668,-443 668,-8 8,-8"/>
<text text-anchor="middle" x="338" y="-15.8" font-family="Times,serif" font-size="14.00">geometry/curves (main concepts)</text>
</g>
<!-- CSegment -->
<g id="node1" class="node"><title>CSegment</title>
<g id="a_node1"><a xlink:href="structDGtal_1_1concepts_1_1CSegment.html" target="_top" xlink:title="CSegment">
<ellipse fill="white" stroke="white" cx="339" cy="-417" rx="59.2899" ry="18"/>
<text text-anchor="middle" x="339" y="-413.3" font-family="Times,serif" font-size="14.00">CSegment</text>
</a>
</g>
</g>
<!-- CBidirectionalSegmentComputer -->
<g id="node2" class="node"><title>CBidirectionalSegmentComputer</title>
<g id="a_node2"><a xlink:href="structDGtal_1_1concepts_1_1CBidirectionalSegmentComputer.html" target="_top" xlink:title="CBidirectionalSegmentComputer">
<ellipse fill="white" stroke="white" cx="182" cy="-129" rx="165.971" ry="18"/>
<text text-anchor="middle" x="182" y="-125.3" font-family="Times,serif" font-size="14.00">CBidirectionalSegmentComputer</text>
</a>
</g>
</g>
<!-- CForwardSegmentComputer -->
<g id="node4" class="node"><title>CForwardSegmentComputer</title>
<g id="a_node4"><a xlink:href="structDGtal_1_1concepts_1_1CForwardSegmentComputer.html" target="_top" xlink:title="CForwardSegmentComputer">
<ellipse fill="white" stroke="white" cx="339" cy="-201" rx="144.874" ry="18"/>
<text text-anchor="middle" x="339" y="-197.3" font-family="Times,serif" font-size="14.00">CForwardSegmentComputer</text>
</a>
</g>
</g>
<!-- CBidirectionalSegmentComputer&#45;&gt;CForwardSegmentComputer -->
<g id="edge1" class="edge"><title>CBidirectionalSegmentComputer&#45;&gt;CForwardSegmentComputer</title>
<path fill="none" stroke="black" d="M219.207,-146.589C241.203,-156.396 269.247,-168.9 292.67,-179.343"/>
<polygon fill="black" stroke="black" points="291.502,-182.654 302.06,-183.53 294.352,-176.261 291.502,-182.654"/>
</g>
<!-- CIncrementalSegmentComputer -->
<g id="node3" class="node"><title>CIncrementalSegmentComputer</title>
<g id="a_node3"><a xlink:href="structDGtal_1_1concepts_1_1CIncrementalSegmentComputer.html" target="_top" xlink:title="CIncrementalSegmentComputer">
<ellipse fill="white" stroke="white" cx="339" cy="-273" rx="163.271" ry="18"/>
<text text-anchor="middle" x="339" y="-269.3" font-family="Times,serif" font-size="14.00">CIncrementalSegmentComputer</text>
</a>
</g>
</g>
<!-- CSegmentFactory -->
<g id="node5" class="node"><title>CSegmentFactory</title>
<g id="a_node5"><a xlink:href="structDGtal_1_1concepts_1_1CSegmentFactory.html" target="_top" xlink:title="CSegmentFactory">
<ellipse fill="white" stroke="white" cx="339" cy="-345" rx="94.7833" ry="18"/>
<text text-anchor="middle" x="339" y="-341.3" font-family="Times,serif" font-size="14.00">CSegmentFactory</text>
</a>
</g>
</g>
<!-- CIncrementalSegmentComputer&#45;&gt;CSegmentFactory -->
<g id="edge3" class="edge"><title>CIncrementalSegmentComputer&#45;&gt;CSegmentFactory</title>
<path fill="none" stroke="black" d="M339,-291.303C339,-299.017 339,-308.288 339,-316.888"/>
<polygon fill="black" stroke="black" points="335.5,-316.896 339,-326.896 342.5,-316.896 335.5,-316.896"/>
</g>
<!-- CForwardSegmentComputer&#45;&gt;CIncrementalSegmentComputer -->
<g id="edge2" class="edge"><title>CForwardSegmentComputer&#45;&gt;CIncrementalSegmentComputer</title>
<path fill="none" stroke="black" d="M339,-219.303C339,-227.017 339,-236.288 339,-244.888"/>
<polygon fill="black" stroke="black" points="335.5,-244.896 339,-254.896 342.5,-244.896 335.5,-244.896"/>
</g>
<!-- CSegmentFactory&#45;&gt;CSegment -->
<g id="edge4" class="edge"><title>CSegmentFactory&#45;&gt;CSegment</title>
<path fill="none" stroke="black" d="M339,-363.303C339,-371.017 339,-380.288 339,-388.888"/>
<polygon fill="black" stroke="black" points="335.5,-388.896 339,-398.896 342.5,-388.896 335.5,-388.896"/>
</g>
<!-- CDynamicBidirectionalSegmentComputer -->
<g id="node6" class="node"><title>CDynamicBidirectionalSegmentComputer</title>
<g id="a_node6"><a xlink:href="structDGtal_1_1concepts_1_1CDynamicBidirectionalSegmentComputer.html" target="_top" xlink:title="CDynamicBidirectionalSegmentComputer">
<ellipse fill="white" stroke="white" cx="338" cy="-57" rx="206.863" ry="18"/>
<text text-anchor="middle" x="338" y="-53.3" font-family="Times,serif" font-size="14.00">CDynamicBidirectionalSegmentComputer</text>
</a>
</g>
</g>
<!-- CDynamicBidirectionalSegmentComputer&#45;&gt;CBidirectionalSegmentComputer -->
<g id="edge7" class="edge"><title>CDynamicBidirectionalSegmentComputer&#45;&gt;CBidirectionalSegmentComputer</title>
<path fill="none" stroke="black" d="M300.634,-74.7667C278.927,-84.5072 251.394,-96.8616 228.318,-107.216"/>
<polygon fill="black" stroke="black" points="226.752,-104.083 219.061,-111.37 229.617,-110.469 226.752,-104.083"/>
</g>
<!-- CDynamicSegmentComputer -->
<g id="node7" class="node"><title>CDynamicSegmentComputer</title>
<g id="a_node7"><a xlink:href="structDGtal_1_1concepts_1_1CDynamicSegmentComputer.html" target="_top" xlink:title="CDynamicSegmentComputer">
<ellipse fill="white" stroke="white" cx="513" cy="-129" rx="146.774" ry="18"/>
<text text-anchor="middle" x="513" y="-125.3" font-family="Times,serif" font-size="14.00">CDynamicSegmentComputer</text>
</a>
</g>
</g>
<!-- CDynamicBidirectionalSegmentComputer&#45;&gt;CDynamicSegmentComputer -->
<g id="edge6" class="edge"><title>CDynamicBidirectionalSegmentComputer&#45;&gt;CDynamicSegmentComputer</title>
<path fill="none" stroke="black" d="M379.917,-74.7667C404.773,-84.7091 436.437,-97.375 462.644,-107.857"/>
<polygon fill="black" stroke="black" points="461.444,-111.147 472.029,-111.612 464.044,-104.648 461.444,-111.147"/>
</g>
<!-- CDynamicSegmentComputer&#45;&gt;CForwardSegmentComputer -->
<g id="edge5" class="edge"><title>CDynamicSegmentComputer&#45;&gt;CForwardSegmentComputer</title>
<path fill="none" stroke="black" d="M472.205,-146.412C447.335,-156.417 415.368,-169.277 388.984,-179.892"/>
<polygon fill="black" stroke="black" points="387.511,-176.711 379.54,-183.691 390.123,-183.206 387.511,-176.711"/>
</g>
</g>
</svg>
