<?xml version="1.0" encoding="UTF-8" standalone="no"?>
<!DOCTYPE svg PUBLIC "-//W3C//DTD SVG 1.1//EN"
 "http://www.w3.org/Graphics/SVG/1.1/DTD/svg11.dtd">
<!-- Generated by graphviz version 2.38.0 (20140413.2041)
 -->
<!-- Title: GMath Pages: 1 -->
<!--zoomable 491 -->
<svg id="main" version="1.1" xmlns="http://www.w3.org/2000/svg" xmlns:xlink="http://www.w3.org/1999/xlink" xml:space="preserve" onload="init(evt)">
<style type="text/css"><![CDATA[
.edge:hover path { stroke: red; }
.edge:hover polygon { stroke: red; fill: red; }
]]></style>
<script type="text/javascript"><![CDATA[
var edges = document.getElementsByTagName('g');
if (edges && edges.length) {
  for (var i=0;i<edges.length;i++) {
    if (edges[i].id.substr(0,4)=='edge') {
      edges[i].setAttribute('class','edge');
    }
  }
}
]]></script>
        <defs>
                <circle id="rim" cx="0" cy="0" r="7"/>
                <circle id="rim2" cx="0" cy="0" r="3.5"/>
                <g id="zoomPlus">
                        <use xlink:href="#rim" fill="#404040">
                                <set attributeName="fill" to="#808080" begin="zoomplus.mouseover" end="zoomplus.mouseout"/>
                        </use>
                        <path d="M-4,0h8M0,-4v8" fill="none" stroke="white" stroke-width="1.5" pointer-events="none"/>
                </g>
                <g id="zoomMin">
                        <use xlink:href="#rim" fill="#404040">
                                <set attributeName="fill" to="#808080" begin="zoomminus.mouseover" end="zoomminus.mouseout"/>
                        </use>
                        <path d="M-4,0h8" fill="none" stroke="white" stroke-width="1.5" pointer-events="none"/>
                </g>
                <g id="dirArrow">
                        <path fill="none" stroke="white" stroke-width="1.5" d="M0,-3.0v7 M-2.5,-0.5L0,-3.0L2.5,-0.5"/>
                </g>
               <g id="resetDef">
                       <use xlink:href="#rim2" fill="#404040">
                               <set attributeName="fill" to="#808080" begin="reset.mouseover" end="reset.mouseout"/>
                       </use>
               </g>
        </defs>

<script type="text/javascript">
var viewWidth = 3328;
var viewHeight = 491;
</script>
<script xlink:href="svgpan.js"/>
<svg id="graph" class="graph">
<g id="viewport">
<title>GMath</title>
<polygon fill="white" stroke="none" points="-4,4 -4,-487 3324,-487 3324,4 -4,4"/>
<g id="clust1" class="cluster"><title>cluster_ext</title>
<polygon fill="none" stroke="black" points="1665,-305 1665,-396 3312,-396 3312,-305 1665,-305"/>
</g>
<g id="clust2" class="cluster"><title>cluster_kernel</title>
<polygon fill="#ddddee" stroke="#ddddee" points="2893,-313 2893,-388 3304,-388 3304,-313 2893,-313"/>
<text text-anchor="middle" x="3098.5" y="-320.8" font-family="Times,serif" font-size="14.00">kernel</text>
</g>
<g id="clust4" class="cluster"><title>cluster_boost</title>
<polygon fill="white" stroke="white" points="1673,-313 1673,-388 2885,-388 2885,-313 1673,-313"/>
<text text-anchor="middle" x="2279" y="-320.8" font-family="Times,serif" font-size="14.00">boost</text>
</g>
<g id="clust6" class="cluster"><title>cluster_math_cc</title>
<polygon fill="none" stroke="black" points="8,-116 8,-475 1657,-475 1657,-116 8,-116"/>
</g>
<g id="clust7" class="cluster"><title>cluster_math_linalg</title>
<polygon fill="#e4e4ff" stroke="#e4e4ff" points="16,-124 16,-467 1467,-467 1467,-124 16,-124"/>
<text text-anchor="middle" x="741.5" y="-131.8" font-family="Times,serif" font-size="14.00">math/linalg</text>
</g>
<g id="clust8" class="cluster"><title>cluster_concepts</title>
<polygon fill="lightgrey" stroke="lightgrey" points="1475,-124 1475,-199 1649,-199 1649,-124 1475,-124"/>
<text text-anchor="middle" x="1562" y="-131.8" font-family="Times,serif" font-size="14.00">Math (main concepts)</text>
</g>
<g id="clust9" class="cluster"><title>cluster_models</title>
<polygon fill="#ccffcc" stroke="#ccffcc" points="1885,-8 1885,-83 2482,-83 2482,-8 1885,-8"/>
<text text-anchor="middle" x="2183.5" y="-15.8" font-family="Times,serif" font-size="14.00">Math (main models and classes)</text>
</g>
<!-- CCommutativeRing -->
<g id="node1" class="node"><title>CCommutativeRing</title>
<g id="a_node1"><a xlink:href="structDGtal_1_1concepts_1_1CCommutativeRing.html" target="_top" xlink:title="CCommutativeRing">
<ellipse fill="white" stroke="white" cx="3193" cy="-362" rx="102.882" ry="18"/>
<text text-anchor="middle" x="3193" y="-358.3" font-family="Times,serif" font-size="14.00">CCommutativeRing</text>
</a>
</g>
</g>
<!-- CEuclideanRing -->
<g id="node2" class="node"><title>CEuclideanRing</title>
<g id="a_node2"><a xlink:href="structDGtal_1_1concepts_1_1CEuclideanRing.html" target="_top" xlink:title="CEuclideanRing">
<ellipse fill="white" stroke="white" cx="2987" cy="-362" rx="85.5853" ry="18"/>
<text text-anchor="middle" x="2987" y="-358.3" font-family="Times,serif" font-size="14.00">CEuclideanRing</text>
</a>
</g>
</g>
<!-- boost_CopyConstructible -->
<g id="node3" class="node"><title>boost_CopyConstructible</title>
<g id="a_node3"><a xlink:href="structboost_1_1CopyConstructible.html" target="_top" xlink:title="boost::CopyConstructible">
<ellipse fill="orange" stroke="orange" cx="2109" cy="-362" rx="129.977" ry="18"/>
<text text-anchor="middle" x="2109" y="-358.3" font-family="Times,serif" font-size="14.00">boost::CopyConstructible</text>
</a>
</g>
</g>
<!-- boost_DefaultConstructible -->
<g id="node4" class="node"><title>boost_DefaultConstructible</title>
<g id="a_node4"><a xlink:href="structboost_1_1DefaultConstructible.html" target="_top" xlink:title="boost::DefaultConstructible">
<ellipse fill="orange" stroke="orange" cx="1821" cy="-362" rx="139.976" ry="18"/>
<text text-anchor="middle" x="1821" y="-358.3" font-family="Times,serif" font-size="14.00">boost::DefaultConstructible</text>
</a>
</g>
</g>
<!-- boost_InputIterator -->
<g id="node5" class="node"><title>boost_InputIterator</title>
<g id="a_node5"><a xlink:href="structboost_1_1InputIterator.html" target="_top" xlink:title="boost::InputIterator">
<ellipse fill="orange" stroke="orange" cx="2773" cy="-362" rx="103.982" ry="18"/>
<text text-anchor="middle" x="2773" y="-358.3" font-family="Times,serif" font-size="14.00">boost::InputIterator</text>
</a>
</g>
</g>
<!-- boost_is_integral -->
<g id="node6" class="node"><title>boost_is_integral</title>
<g id="a_node6"><a xlink:href="structboost_1_1is__integral.html" target="_top" xlink:title="boost::is_integral">
<ellipse fill="orange" stroke="orange" cx="2348" cy="-362" rx="90.9839" ry="18"/>
<text text-anchor="middle" x="2348" y="-358.3" font-family="Times,serif" font-size="14.00">boost::is_integral</text>
</a>
</g>
</g>
<!-- boost_is_unsigned -->
<g id="node7" class="node"><title>boost_is_unsigned</title>
<g id="a_node7"><a xlink:href="structboost_1_1is__unsigned.html" target="_top" xlink:title="boost::is_unsigned">
<ellipse fill="orange" stroke="orange" cx="2554" cy="-362" rx="96.6831" ry="18"/>
<text text-anchor="middle" x="2554" y="-358.3" font-family="Times,serif" font-size="14.00">boost::is_unsigned</text>
</a>
</g>
</g>
<!-- CVectorSpace -->
<g id="node8" class="node"><title>CVectorSpace</title>
<g id="a_node8"><a xlink:href="structDGtal_1_1concepts_1_1CVectorSpace.html" target="_top" xlink:title="CVectorSpace">
<ellipse fill="white" stroke="white" cx="627" cy="-441" rx="76.0865" ry="18"/>
<text text-anchor="middle" x="627" y="-437.3" font-family="Times,serif" font-size="14.00">CVectorSpace</text>
</a>
</g>
</g>
<!-- CMatrix -->
<g id="node9" class="node"><title>CMatrix</title>
<g id="a_node9"><a xlink:href="structDGtal_1_1concepts_1_1CMatrix.html" target="_top" xlink:title="CMatrix">
<ellipse fill="white" stroke="white" cx="782" cy="-362" rx="50.0912" ry="18"/>
<text text-anchor="middle" x="782" y="-358.3" font-family="Times,serif" font-size="14.00">CMatrix</text>
</a>
</g>
</g>
<!-- CMatrix&#45;&gt;CVectorSpace -->
<g id="edge6" class="edge"><title>CMatrix&#45;&gt;CVectorSpace</title>
<path fill="none" stroke="black" d="M753.931,-376.944C729.817,-388.923 694.745,-406.346 667.575,-419.843"/>
<polygon fill="black" stroke="black" points="665.724,-416.855 658.325,-424.439 668.838,-423.124 665.724,-416.855"/>
</g>
<!-- CStaticMatrix -->
<g id="node10" class="node"><title>CStaticMatrix</title>
<g id="a_node10"><a xlink:href="structDGtal_1_1concepts_1_1CStaticMatrix.html" target="_top" xlink:title="CStaticMatrix">
<ellipse fill="white" stroke="white" cx="1382" cy="-260" rx="77.1866" ry="18"/>
<text text-anchor="middle" x="1382" y="-256.3" font-family="Times,serif" font-size="14.00">CStaticMatrix</text>
</a>
</g>
</g>
<!-- CStaticMatrix&#45;&gt;boost_DefaultConstructible -->
<g id="edge8" class="edge"><title>CStaticMatrix&#45;&gt;boost_DefaultConstructible</title>
<path fill="none" stroke="black" d="M1435.39,-273.162C1512.95,-290.829 1657.14,-323.675 1745.54,-343.81"/>
<polygon fill="black" stroke="black" points="1744.97,-347.271 1755.5,-346.08 1746.53,-340.446 1744.97,-347.271"/>
</g>
<!-- CStaticMatrix&#45;&gt;CMatrix -->
<g id="edge7" class="edge"><title>CStaticMatrix&#45;&gt;CMatrix</title>
<path fill="none" stroke="black" d="M1325.42,-272.332C1315.3,-274.28 1304.85,-276.242 1295,-278 1128.92,-307.653 931.761,-338.27 837.532,-352.622"/>
<polygon fill="black" stroke="black" points="836.736,-349.203 827.376,-354.167 837.788,-356.123 836.736,-349.203"/>
</g>
<!-- CDynamicMatrix -->
<g id="node11" class="node"><title>CDynamicMatrix</title>
<g id="a_node11"><a xlink:href="structDGtal_1_1concepts_1_1CDynamicMatrix.html" target="_top" xlink:title="CDynamicMatrix">
<ellipse fill="white" stroke="white" cx="1015" cy="-260" rx="90.9839" ry="18"/>
<text text-anchor="middle" x="1015" y="-256.3" font-family="Times,serif" font-size="14.00">CDynamicMatrix</text>
</a>
</g>
</g>
<!-- CDynamicMatrix&#45;&gt;CMatrix -->
<g id="edge9" class="edge"><title>CDynamicMatrix&#45;&gt;CMatrix</title>
<path fill="none" stroke="black" d="M948.463,-272.361C912.872,-279.102 873.126,-287.889 857,-296 836.739,-306.191 817.486,-323.086 803.56,-337.097"/>
<polygon fill="black" stroke="black" points="800.821,-334.895 796.399,-344.523 805.86,-339.754 800.821,-334.895"/>
</g>
<!-- CDenseMatrix -->
<g id="node12" class="node"><title>CDenseMatrix</title>
<g id="a_node12"><a xlink:href="structDGtal_1_1concepts_1_1CDenseMatrix.html" target="_top" xlink:title="CDenseMatrix">
<ellipse fill="white" stroke="white" cx="659" cy="-260" rx="78.7863" ry="18"/>
<text text-anchor="middle" x="659" y="-256.3" font-family="Times,serif" font-size="14.00">CDenseMatrix</text>
</a>
</g>
</g>
<!-- CDenseMatrix&#45;&gt;CMatrix -->
<g id="edge10" class="edge"><title>CDenseMatrix&#45;&gt;CMatrix</title>
<path fill="none" stroke="black" d="M679.311,-277.513C699.851,-294.212 731.736,-320.135 754.526,-338.663"/>
<polygon fill="black" stroke="black" points="752.505,-341.531 762.472,-345.124 756.921,-336.1 752.505,-341.531"/>
</g>
<!-- CSparseMatrix -->
<g id="node13" class="node"><title>CSparseMatrix</title>
<g id="a_node13"><a xlink:href="structDGtal_1_1concepts_1_1CSparseMatrix.html" target="_top" xlink:title="CSparseMatrix">
<ellipse fill="white" stroke="white" cx="1205" cy="-260" rx="81.4863" ry="18"/>
<text text-anchor="middle" x="1205" y="-256.3" font-family="Times,serif" font-size="14.00">CSparseMatrix</text>
</a>
</g>
</g>
<!-- CSparseMatrix&#45;&gt;CMatrix -->
<g id="edge11" class="edge"><title>CSparseMatrix&#45;&gt;CMatrix</title>
<path fill="none" stroke="black" d="M1147.54,-272.831C1136.76,-274.772 1125.56,-276.602 1115,-278 1011.15,-291.742 979.063,-261.953 880,-296 853.09,-305.249 826.434,-323.693 807.731,-338.579"/>
<polygon fill="black" stroke="black" points="805.507,-335.877 799.975,-344.913 809.934,-341.298 805.507,-335.877"/>
</g>
<!-- CVector -->
<g id="node14" class="node"><title>CVector</title>
<g id="a_node14"><a xlink:href="structDGtal_1_1concepts_1_1CVector.html" target="_top" xlink:title="CVector">
<ellipse fill="white" stroke="white" cx="473" cy="-362" rx="48.1917" ry="18"/>
<text text-anchor="middle" x="473" y="-358.3" font-family="Times,serif" font-size="14.00">CVector</text>
</a>
</g>
</g>
<!-- CVector&#45;&gt;CVectorSpace -->
<g id="edge1" class="edge"><title>CVector&#45;&gt;CVectorSpace</title>
<path fill="none" stroke="black" d="M500.532,-376.766C524.523,-388.762 559.625,-406.313 586.765,-419.882"/>
<polygon fill="black" stroke="black" points="585.491,-423.159 596.001,-424.5 588.622,-416.898 585.491,-423.159"/>
</g>
<!-- CStaticVector -->
<g id="node15" class="node"><title>CStaticVector</title>
<g id="a_node15"><a xlink:href="structDGtal_1_1concepts_1_1CStaticVector.html" target="_top" xlink:title="CStaticVector">
<ellipse fill="white" stroke="white" cx="831" cy="-260" rx="75.2868" ry="18"/>
<text text-anchor="middle" x="831" y="-256.3" font-family="Times,serif" font-size="14.00">CStaticVector</text>
</a>
</g>
</g>
<!-- CStaticVector&#45;&gt;boost_DefaultConstructible -->
<g id="edge3" class="edge"><title>CStaticVector&#45;&gt;boost_DefaultConstructible</title>
<path fill="none" stroke="black" d="M883.675,-272.926C894.014,-274.908 904.812,-276.729 915,-278 1160.5,-308.625 1224.92,-279.418 1471,-305 1562.3,-314.492 1666.03,-331.935 1736.71,-344.84"/>
<polygon fill="black" stroke="black" points="1736.42,-348.347 1746.89,-346.71 1737.69,-341.462 1736.42,-348.347"/>
</g>
<!-- CStaticVector&#45;&gt;CVector -->
<g id="edge2" class="edge"><title>CStaticVector&#45;&gt;CVector</title>
<path fill="none" stroke="black" d="M783.83,-274.176C715.243,-293.334 588.712,-328.678 520.141,-347.832"/>
<polygon fill="black" stroke="black" points="519.148,-344.475 510.459,-350.537 521.032,-351.217 519.148,-344.475"/>
</g>
<!-- CDynamicVector -->
<g id="node16" class="node"><title>CDynamicVector</title>
<g id="a_node16"><a xlink:href="structDGtal_1_1concepts_1_1CDynamicVector.html" target="_top" xlink:title="CDynamicVector">
<ellipse fill="white" stroke="white" cx="473" cy="-260" rx="89.0842" ry="18"/>
<text text-anchor="middle" x="473" y="-256.3" font-family="Times,serif" font-size="14.00">CDynamicVector</text>
</a>
</g>
</g>
<!-- CDynamicVector&#45;&gt;CVector -->
<g id="edge4" class="edge"><title>CDynamicVector&#45;&gt;CVector</title>
<path fill="none" stroke="black" d="M473,-278.419C473,-293.618 473,-315.933 473,-333.536"/>
<polygon fill="black" stroke="black" points="469.5,-333.781 473,-343.781 476.5,-333.781 469.5,-333.781"/>
</g>
<!-- CDenseVector -->
<g id="node17" class="node"><title>CDenseVector</title>
<g id="a_node17"><a xlink:href="structDGtal_1_1concepts_1_1CDenseVector.html" target="_top" xlink:title="CDenseVector">
<ellipse fill="white" stroke="white" cx="101" cy="-260" rx="77.1866" ry="18"/>
<text text-anchor="middle" x="101" y="-256.3" font-family="Times,serif" font-size="14.00">CDenseVector</text>
</a>
</g>
</g>
<!-- CDenseVector&#45;&gt;CVector -->
<g id="edge5" class="edge"><title>CDenseVector&#45;&gt;CVector</title>
<path fill="none" stroke="black" d="M149.633,-274.073C221.151,-293.299 353.889,-328.981 425.028,-348.104"/>
<polygon fill="black" stroke="black" points="424.496,-351.586 435.062,-350.802 426.314,-344.826 424.496,-351.586"/>
</g>
<!-- CLinearAlgebra -->
<g id="node18" class="node"><title>CLinearAlgebra</title>
<g id="a_node18"><a xlink:href="structDGtal_1_1concepts_1_1CLinearAlgebra.html" target="_top" xlink:title="CLinearAlgebra">
<ellipse fill="white" stroke="white" cx="281" cy="-260" rx="85.2851" ry="18"/>
<text text-anchor="middle" x="281" y="-256.3" font-family="Times,serif" font-size="14.00">CLinearAlgebra</text>
</a>
</g>
</g>
<!-- CLinearAlgebra&#45;&gt;CMatrix -->
<g id="edge12" class="edge"><title>CLinearAlgebra&#45;&gt;CMatrix</title>
<path fill="none" stroke="black" d="M343.182,-272.304C353.796,-274.217 364.713,-276.174 375,-278 443.85,-290.222 461.407,-291.412 530,-305 600.272,-318.921 681.035,-337.29 731.792,-349.125"/>
<polygon fill="black" stroke="black" points="730.997,-352.534 741.531,-351.402 732.59,-345.717 730.997,-352.534"/>
</g>
<!-- CLinearAlgebra&#45;&gt;CVector -->
<g id="edge13" class="edge"><title>CLinearAlgebra&#45;&gt;CVector</title>
<path fill="none" stroke="black" d="M311.423,-276.845C345.493,-294.59 400.671,-323.329 436.898,-342.197"/>
<polygon fill="black" stroke="black" points="435.641,-345.489 446.127,-347.004 438.875,-339.28 435.641,-345.489"/>
</g>
<!-- CLinearAlgebraSolver -->
<g id="node19" class="node"><title>CLinearAlgebraSolver</title>
<g id="a_node19"><a xlink:href="structDGtal_1_1concepts_1_1CLinearAlgebraSolver.html" target="_top" xlink:title="CLinearAlgebraSolver">
<ellipse fill="white" stroke="white" cx="813" cy="-173" rx="114.28" ry="18"/>
<text text-anchor="middle" x="813" y="-169.3" font-family="Times,serif" font-size="14.00">CLinearAlgebraSolver</text>
</a>
</g>
</g>
<!-- CLinearAlgebraSolver&#45;&gt;boost_DefaultConstructible -->
<g id="edge15" class="edge"><title>CLinearAlgebraSolver&#45;&gt;boost_DefaultConstructible</title>
<path fill="none" stroke="black" d="M923.115,-177.986C1054.23,-184.438 1279.21,-200.912 1468,-242 1579.73,-266.317 1705.51,-313.807 1772.63,-340.862"/>
<polygon fill="black" stroke="black" points="1771.52,-344.188 1782.1,-344.701 1774.15,-337.7 1771.52,-344.188"/>
</g>
<!-- CLinearAlgebraSolver&#45;&gt;CLinearAlgebra -->
<g id="edge14" class="edge"><title>CLinearAlgebraSolver&#45;&gt;CLinearAlgebra</title>
<path fill="none" stroke="black" d="M732.578,-185.872C644.651,-198.995 499.647,-221.056 375,-242 367.86,-243.2 360.422,-244.485 352.994,-245.791"/>
<polygon fill="black" stroke="black" points="352.138,-242.388 342.902,-247.579 353.359,-249.281 352.138,-242.388"/>
</g>
<!-- CBinner -->
<g id="node20" class="node"><title>CBinner</title>
<g id="a_node20"><a xlink:href="structDGtal_1_1concepts_1_1CBinner.html" target="_top" xlink:title="CBinner">
<ellipse fill="white" stroke="white" cx="1592" cy="-173" rx="49.2915" ry="18"/>
<text text-anchor="middle" x="1592" y="-169.3" font-family="Times,serif" font-size="14.00">CBinner</text>
</a>
</g>
</g>
<!-- CBinner&#45;&gt;CEuclideanRing -->
<g id="edge17" class="edge"><title>CBinner&#45;&gt;CEuclideanRing</title>
<path fill="none" stroke="black" stroke-dasharray="5,2" d="M1641.61,-173.701C1796.86,-173.131 2266.6,-174.321 2325,-209 2367.27,-234.099 2345.54,-280.932 2392,-297 2444.2,-315.052 2835.74,-290.395 2889,-305 2913.63,-311.755 2938.59,-326.151 2957.15,-338.654"/>
<polygon fill="black" stroke="black" points="2955.25,-341.595 2965.47,-344.415 2959.24,-335.842 2955.25,-341.595"/>
<text text-anchor="middle" x="2378.5" y="-256.3" font-family="Times,serif" font-size="14.00">use</text>
</g>
<!-- CBinner&#45;&gt;boost_CopyConstructible -->
<g id="edge16" class="edge"><title>CBinner&#45;&gt;boost_CopyConstructible</title>
<path fill="none" stroke="black" d="M1639.45,-178.365C1676.75,-182.927 1729.51,-191.907 1773,-209 1841.75,-236.021 1844.61,-271.675 1914,-297 1937.62,-305.619 1945.72,-298.477 1970,-305 2003.04,-313.876 2038.81,-328.408 2065.79,-340.445"/>
<polygon fill="black" stroke="black" points="2064.39,-343.655 2074.95,-344.585 2067.28,-337.276 2064.39,-343.655"/>
</g>
<!-- CBinner&#45;&gt;boost_is_integral -->
<g id="edge18" class="edge"><title>CBinner&#45;&gt;boost_is_integral</title>
<path fill="none" stroke="black" stroke-dasharray="5,2" d="M1639.57,-178.166C1682.71,-182.822 1747.66,-192.043 1802,-209 1889.68,-236.364 1899.68,-275.58 1989,-297 2045,-310.428 2192.51,-289.603 2248,-305 2272.99,-311.936 2298.46,-326.328 2317.44,-338.785"/>
<polygon fill="black" stroke="black" points="2315.7,-341.829 2325.94,-344.52 2319.61,-336.026 2315.7,-341.829"/>
<text text-anchor="middle" x="1945.5" y="-256.3" font-family="Times,serif" font-size="14.00">use</text>
</g>
<!-- CBinner&#45;&gt;boost_is_unsigned -->
<g id="edge19" class="edge"><title>CBinner&#45;&gt;boost_is_unsigned</title>
<path fill="none" stroke="black" stroke-dasharray="5,2" d="M1637.98,-179.866C1687.12,-186.304 1767.23,-197.292 1836,-209 2035.18,-242.911 2081.45,-272.516 2282,-297 2318.66,-301.475 2412.38,-295.253 2448,-305 2474.23,-312.178 2501.3,-326.617 2521.52,-339.035"/>
<polygon fill="black" stroke="black" points="2519.69,-342.021 2530.02,-344.386 2523.42,-336.097 2519.69,-342.021"/>
<text text-anchor="middle" x="2165.5" y="-256.3" font-family="Times,serif" font-size="14.00">use</text>
</g>
<!-- Statistic -->
<g id="node21" class="node"><title>Statistic</title>
<g id="a_node21"><a xlink:href="classDGtal_1_1Statistic.html" target="_top" xlink:title="Statistic">
<ellipse fill="white" stroke="white" cx="2424" cy="-57" rx="50.0912" ry="18"/>
<text text-anchor="middle" x="2424" y="-53.3" font-family="Times,serif" font-size="14.00">Statistic</text>
</a>
</g>
</g>
<!-- Statistic&#45;&gt;CCommutativeRing -->
<g id="edge20" class="edge"><title>Statistic&#45;&gt;CCommutativeRing</title>
<path fill="none" stroke="black" stroke-dasharray="5,2" d="M2459.49,-69.8048C2559.06,-103.249 2849,-202.849 3082,-305 3106.28,-315.645 3132.81,-328.966 3153.85,-339.945"/>
<polygon fill="black" stroke="black" points="3152.32,-343.095 3162.8,-344.649 3155.58,-336.899 3152.32,-343.095"/>
<text text-anchor="middle" x="2908" y="-212.8" font-family="Times,serif" font-size="14.00">tparam</text>
</g>
<!-- Statistic&#45;&gt;boost_InputIterator -->
<g id="edge21" class="edge"><title>Statistic&#45;&gt;boost_InputIterator</title>
<path fill="none" stroke="black" stroke-dasharray="5,2" d="M2442.27,-73.864C2499.82,-123.827 2677.54,-278.123 2745.86,-337.436"/>
<polygon fill="black" stroke="black" points="2743.79,-340.272 2753.63,-344.185 2748.38,-334.986 2743.79,-340.272"/>
<text text-anchor="middle" x="2626.5" y="-212.8" font-family="Times,serif" font-size="14.00">use</text>
</g>
<!-- RegularBinner -->
<g id="node22" class="node"><title>RegularBinner</title>
<g id="a_node22"><a xlink:href="structDGtal_1_1RegularBinner.html" target="_top" xlink:title="RegularBinner">
<ellipse fill="white" stroke="white" cx="1972" cy="-57" rx="78.7863" ry="18"/>
<text text-anchor="middle" x="1972" y="-53.3" font-family="Times,serif" font-size="14.00">RegularBinner</text>
</a>
</g>
</g>
<!-- RegularBinner&#45;&gt;CBinner -->
<g id="edge22" class="edge"><title>RegularBinner&#45;&gt;CBinner</title>
<path fill="none" stroke="black" d="M1894.4,-60.2349C1843.03,-63.7419 1774.9,-72.3279 1718,-93 1681.1,-106.407 1643.58,-131.762 1619.19,-150.14"/>
<polygon fill="black" stroke="black" points="1616.94,-147.454 1611.14,-156.318 1621.2,-153.009 1616.94,-147.454"/>
</g>
<!-- Histogram -->
<g id="node23" class="node"><title>Histogram</title>
<g id="a_node23"><a xlink:href="classDGtal_1_1Histogram.html" target="_top" xlink:title="Histogram">
<ellipse fill="white" stroke="white" cx="2296" cy="-57" rx="60.3893" ry="18"/>
<text text-anchor="middle" x="2296" y="-53.3" font-family="Times,serif" font-size="14.00">Histogram</text>
</a>
</g>
</g>
<!-- Histogram&#45;&gt;CEuclideanRing -->
<g id="edge24" class="edge"><title>Histogram&#45;&gt;CEuclideanRing</title>
<path fill="none" stroke="black" stroke-dasharray="5,2" d="M2315.13,-74.2507C2348.5,-102.102 2420.19,-159.743 2487,-199 2646.3,-292.612 2717.02,-237.454 2889,-305 2911.88,-313.988 2935.88,-327.617 2954.4,-339.18"/>
<polygon fill="black" stroke="black" points="2952.7,-342.249 2963.02,-344.66 2956.46,-336.342 2952.7,-342.249"/>
<text text-anchor="middle" x="2558" y="-212.8" font-family="Times,serif" font-size="14.00">tparam</text>
</g>
<!-- Histogram&#45;&gt;boost_InputIterator -->
<g id="edge25" class="edge"><title>Histogram&#45;&gt;boost_InputIterator</title>
<path fill="none" stroke="black" stroke-dasharray="5,2" d="M2295.39,-75.2367C2294.88,-115.3 2298.91,-215.995 2348,-278 2359.72,-292.805 2367.69,-292.394 2386,-297 2445.07,-311.859 2600.9,-290.246 2660,-305 2688.07,-312.007 2717.26,-326.698 2738.95,-339.275"/>
<polygon fill="black" stroke="black" points="2737.37,-342.409 2747.75,-344.507 2740.94,-336.391 2737.37,-342.409"/>
<text text-anchor="middle" x="2329.5" y="-212.8" font-family="Times,serif" font-size="14.00">use</text>
</g>
<!-- Histogram&#45;&gt;CBinner -->
<g id="edge23" class="edge"><title>Histogram&#45;&gt;CBinner</title>
<path fill="none" stroke="black" stroke-dasharray="5,2" d="M2261.53,-71.8817C2250.35,-75.9615 2237.78,-80.1019 2226,-83 2017.46,-134.309 1762.55,-158.866 1650.06,-167.825"/>
<polygon fill="black" stroke="black" points="1649.65,-164.347 1639.95,-168.619 1650.19,-171.325 1649.65,-164.347"/>
<text text-anchor="middle" x="2201" y="-96.8" font-family="Times,serif" font-size="14.00">tparam</text>
</g>
<!-- SimpleMatrix -->
<g id="node24" class="node"><title>SimpleMatrix</title>
<g id="a_node24"><a xlink:href="classDGtal_1_1SimpleMatrix.html" target="_top" xlink:title="SimpleMatrix">
<ellipse fill="white" stroke="white" cx="2143" cy="-57" rx="74.187" ry="18"/>
<text text-anchor="middle" x="2143" y="-53.3" font-family="Times,serif" font-size="14.00">SimpleMatrix</text>
</a>
</g>
</g>
<!-- SimpleMatrix&#45;&gt;CStaticMatrix -->
<g id="edge26" class="edge"><title>SimpleMatrix&#45;&gt;CStaticMatrix</title>
<path fill="none" stroke="black" d="M2114.16,-73.6405C2050.1,-107.573 1890.19,-187.803 1746,-224 1653.38,-247.252 1543.92,-255.263 1469.4,-257.916"/>
<polygon fill="black" stroke="black" points="1469,-254.427 1459.12,-258.255 1469.23,-261.423 1469,-254.427"/>
</g>
<!-- SimpleMatrix&#45;&gt;CDenseMatrix -->
<g id="edge27" class="edge"><title>SimpleMatrix&#45;&gt;CDenseMatrix</title>
<path fill="none" stroke="black" d="M2101.1,-71.9554C2088.04,-75.9427 2073.52,-80.0119 2060,-83 1959.16,-105.288 1928.94,-86.4212 1830,-116 1746.75,-140.886 1737.33,-178.098 1653,-199 1457.36,-247.489 947.131,-218.045 747,-242 739.588,-242.887 731.863,-244.039 724.203,-245.325"/>
<polygon fill="black" stroke="black" points="723.446,-241.904 714.203,-247.082 724.657,-248.799 723.446,-241.904"/>
</g>
</g>
</svg>
        <g id="navigator" transform="translate(0 0)" fill="#404254">
                <rect fill="#f2f5e9" fill-opacity="0.5" stroke="#606060" stroke-width=".5" x="0" y="0" width="60" height="60"/>
                <use id="zoomplus" xlink:href="#zoomPlus" x="17" y="9" onmousedown="handleZoom(evt,'in')"/>
                <use id="zoomminus" xlink:href="#zoomMin" x="42" y="9" onmousedown="handleZoom(evt,'out')"/>
                <use id="reset" xlink:href="#resetDef" x="30" y="36" onmousedown="handleReset()"/>
                <g id="arrowUp" xlink:href="#dirArrow" transform="translate(30 24)" onmousedown="handlePan(0,-1)">
                  <use xlink:href="#rim" fill="#404040">
                        <set attributeName="fill" to="#808080" begin="arrowUp.mouseover" end="arrowUp.mouseout"/>
                  </use>
                  <path fill="none" stroke="white" stroke-width="1.5" d="M0,-3.0v7 M-2.5,-0.5L0,-3.0L2.5,-0.5"/>
                </g>
                <g id="arrowRight" xlink:href="#dirArrow" transform="rotate(90) translate(36 -43)" onmousedown="handlePan(1,0)">
                  <use xlink:href="#rim" fill="#404040">
                        <set attributeName="fill" to="#808080" begin="arrowRight.mouseover" end="arrowRight.mouseout"/>
                  </use>
                  <path fill="none" stroke="white" stroke-width="1.5" d="M0,-3.0v7 M-2.5,-0.5L0,-3.0L2.5,-0.5"/>
                </g>
                <g id="arrowDown" xlink:href="#dirArrow" transform="rotate(180) translate(-30 -48)" onmousedown="handlePan(0,1)">
                  <use xlink:href="#rim" fill="#404040">
                        <set attributeName="fill" to="#808080" begin="arrowDown.mouseover" end="arrowDown.mouseout"/>
                  </use>
                  <path fill="none" stroke="white" stroke-width="1.5" d="M0,-3.0v7 M-2.5,-0.5L0,-3.0L2.5,-0.5"/>
                </g>
                <g id="arrowLeft" xlink:href="#dirArrow" transform="rotate(270) translate(-36 17)" onmousedown="handlePan(-1,0)">
                  <use xlink:href="#rim" fill="#404040">
                        <set attributeName="fill" to="#808080" begin="arrowLeft.mouseover" end="arrowLeft.mouseout"/>
                  </use>
                  <path fill="none" stroke="white" stroke-width="1.5" d="M0,-3.0v7 M-2.5,-0.5L0,-3.0L2.5,-0.5"/>
                </g>
        </g>
        <svg viewBox="0 0 15 15" width="100%" height="30px" preserveAspectRatio="xMaxYMin meet">
         <g id="arrow_out" transform="scale(0.3 0.3)">
          <a xlink:href="dot_inline_dotgraph_12_org.svg" target="_base">
           <rect id="button" ry="5" rx="5" y="6" x="6" height="38" width="38"
                fill="#f2f5e9" fill-opacity="0.5" stroke="#606060" stroke-width="1.0"/>
           <path id="arrow"
             d="M 11.500037,31.436501 C 11.940474,20.09759 22.043105,11.32322 32.158766,21.979434 L 37.068811,17.246167 C 37.068811,17.246167 37.088388,32 37.088388,32 L 22.160133,31.978069 C 22.160133,31.978069 26.997745,27.140456 26.997745,27.140456 C 18.528582,18.264221 13.291696,25.230495 11.500037,31.436501 z"
             style="fill:#404040;"/>
          </a>
         </g>
        </svg>
</svg>
