<?xml version="1.0" encoding="UTF-8" standalone="no"?>
<!DOCTYPE svg PUBLIC "-//W3C//DTD SVG 1.1//EN"
 "http://www.w3.org/Graphics/SVG/1.1/DTD/svg11.dtd">
<!-- Generated by graphviz version 2.36.0 (20140111.2315)
 -->
<!-- Title: exampleSurfaceMesh.cpp Pages: 1 -->
<svg width="3390pt" height="782pt"
 viewBox="0.00 0.00 3390.00 782.00" xmlns="http://www.w3.org/2000/svg" xmlns:xlink="http://www.w3.org/1999/xlink">
<g id="graph0" class="graph" transform="scale(1 1) rotate(0) translate(4 778)">
<title>exampleSurfaceMesh.cpp</title>
<polygon fill="white" stroke="none" points="-4,4 -4,-778 3386,-778 3386,4 -4,4"/>
<!-- Node0 -->
<g id="node1" class="node"><title>Node0</title>
<polygon fill="#bfbfbf" stroke="black" points="1185,-754.5 1185,-773.5 1325,-773.5 1325,-754.5 1185,-754.5"/>
<text text-anchor="middle" x="1255" y="-761.5" font-family="FreeSans" font-size="10.00">exampleSurfaceMesh.cpp</text>
</g>
<!-- Node1 -->
<g id="node2" class="node"><title>Node1</title>
<polygon fill="white" stroke="#bfbfbf" points="168,-0.5 168,-19.5 212,-19.5 212,-0.5 168,-0.5"/>
<text text-anchor="middle" x="190" y="-7.5" font-family="FreeSans" font-size="10.00">string</text>
</g>
<!-- Node0&#45;&gt;Node1 -->
<g id="edge1" class="edge"><title>Node0&#45;&gt;Node1</title>
<path fill="none" stroke="midnightblue" d="M1184.84,-763.598C920.541,-764.937 0,-760.99 0,-641 0,-641 0,-641 0,-121 0,-48.9975 103.459,-23.3614 157.688,-14.8695"/>
<polygon fill="midnightblue" stroke="midnightblue" points="158.442,-18.2967 167.833,-13.391 157.432,-11.3699 158.442,-18.2967"/>
</g>
<!-- Node2 -->
<g id="node3" class="node"><title>Node2</title>
<polygon fill="white" stroke="#bfbfbf" points="2350.5,-0.5 2350.5,-19.5 2409.5,-19.5 2409.5,-0.5 2350.5,-0.5"/>
<text text-anchor="middle" x="2380" y="-7.5" font-family="FreeSans" font-size="10.00">iostream</text>
</g>
<!-- Node0&#45;&gt;Node2 -->
<g id="edge2" class="edge"><title>Node0&#45;&gt;Node2</title>
<path fill="none" stroke="midnightblue" d="M1325.16,-762.727C1692.99,-760.847 3382,-746.473 3382,-641 3382,-641 3382,-641 3382,-121 3382,-87.3101 3371.92,-73.2789 3343,-56 3262.87,-8.12682 2591.14,-9.51687 2419.7,-10.6661"/>
<polygon fill="midnightblue" stroke="midnightblue" points="2419.58,-7.16676 2409.6,-10.7375 2419.63,-14.1666 2419.58,-7.16676"/>
</g>
<!-- Node3 -->
<g id="node4" class="node"><title>Node3</title>
<polygon fill="white" stroke="#bfbfbf" points="665,-692.5 665,-711.5 719,-711.5 719,-692.5 665,-692.5"/>
<text text-anchor="middle" x="692" y="-699.5" font-family="FreeSans" font-size="10.00">fstream</text>
</g>
<!-- Node0&#45;&gt;Node3 -->
<g id="edge3" class="edge"><title>Node0&#45;&gt;Node3</title>
<path fill="none" stroke="midnightblue" d="M1184.88,-762.809C1083.83,-761.219 891.954,-753.272 733,-718 729.305,-717.18 725.491,-716.109 721.746,-714.917"/>
<polygon fill="midnightblue" stroke="midnightblue" points="722.715,-711.548 712.12,-711.564 720.412,-718.158 722.715,-711.548"/>
</g>
<!-- Node4 -->
<g id="node5" class="node"><title>Node4</title>
<g id="a_node5"><a xlink:href="Common_8h_source.html" target="_top" xlink:title="DGtal/base/Common.h">
<polygon fill="white" stroke="black" points="1696,-236.5 1696,-255.5 1822,-255.5 1822,-236.5 1696,-236.5"/>
<text text-anchor="middle" x="1759" y="-243.5" font-family="FreeSans" font-size="10.00">DGtal/base/Common.h</text>
</a>
</g>
</g>
<!-- Node0&#45;&gt;Node4 -->
<g id="edge4" class="edge"><title>Node0&#45;&gt;Node4</title>
<path fill="none" stroke="midnightblue" d="M1325.19,-756.113C1394.44,-744.99 1490,-716.044 1490,-641 1490,-641 1490,-641 1490,-385 1490,-296.661 1606.27,-264.83 1685.92,-253.388"/>
<polygon fill="midnightblue" stroke="midnightblue" points="1686.49,-256.843 1695.93,-252.029 1685.55,-249.907 1686.49,-256.843"/>
</g>
<!-- Node35 -->
<g id="node25" class="node"><title>Node35</title>
<g id="a_node25"><a xlink:href="Color_8h_source.html" target="_top" xlink:title="DGtal/io/Color.h">
<polygon fill="white" stroke="red" points="1008.5,-112.5 1008.5,-131.5 1099.5,-131.5 1099.5,-112.5 1008.5,-112.5"/>
<text text-anchor="middle" x="1054" y="-119.5" font-family="FreeSans" font-size="10.00">DGtal/io/Color.h</text>
</a>
</g>
</g>
<!-- Node0&#45;&gt;Node35 -->
<g id="edge145" class="edge"><title>Node0&#45;&gt;Node35</title>
<path fill="none" stroke="midnightblue" d="M1184.9,-760.282C1069.51,-755.138 849.663,-742.256 824,-718 753.996,-651.833 834.768,-395.287 855,-370 880.631,-337.965 909.649,-361.604 940,-334 971.72,-305.151 1026.19,-186.151 1046.27,-140.729"/>
<polygon fill="midnightblue" stroke="midnightblue" points="1049.49,-142.095 1050.31,-131.531 1043.08,-139.28 1049.49,-142.095"/>
</g>
<!-- Node43 -->
<g id="node28" class="node"><title>Node43</title>
<g id="a_node28"><a xlink:href="StdDefs_8h_source.html" target="_top" xlink:title="DGtal/helpers/StdDefs.h">
<polygon fill="white" stroke="black" points="2035,-574.5 2035,-593.5 2167,-593.5 2167,-574.5 2035,-574.5"/>
<text text-anchor="middle" x="2101" y="-581.5" font-family="FreeSans" font-size="10.00">DGtal/helpers/StdDefs.h</text>
</a>
</g>
</g>
<!-- Node0&#45;&gt;Node43 -->
<g id="edge52" class="edge"><title>Node0&#45;&gt;Node43</title>
<path fill="none" stroke="midnightblue" d="M1325.02,-760.696C1455.87,-755.859 1732.58,-742.972 1825,-718 1925.67,-690.797 2034.02,-627.254 2079.25,-598.988"/>
<polygon fill="midnightblue" stroke="midnightblue" points="2081.33,-601.815 2087.91,-593.517 2077.59,-595.895 2081.33,-601.815"/>
</g>
<!-- Node160 -->
<g id="node41" class="node"><title>Node160</title>
<polygon fill="white" stroke="#bfbfbf" points="1004,-692.5 1004,-711.5 1106,-711.5 1106,-692.5 1004,-692.5"/>
<text text-anchor="middle" x="1055" y="-699.5" font-family="FreeSans" font-size="10.00">ConfigExamples.h</text>
</g>
<!-- Node0&#45;&gt;Node160 -->
<g id="edge99" class="edge"><title>Node0&#45;&gt;Node160</title>
<path fill="none" stroke="midnightblue" d="M1226.34,-754.403C1191.44,-743.933 1132.35,-726.205 1093.5,-714.55"/>
<polygon fill="midnightblue" stroke="midnightblue" points="1094.19,-711.102 1083.6,-711.581 1092.17,-717.807 1094.19,-711.102"/>
</g>
<!-- Node161 -->
<g id="node42" class="node"><title>Node161</title>
<g id="a_node42"><a xlink:href="Mesh_8h_source.html" target="_top" xlink:title="DGtal/shapes/Mesh.h">
<polygon fill="white" stroke="red" points="1240.5,-512.5 1240.5,-531.5 1359.5,-531.5 1359.5,-512.5 1240.5,-512.5"/>
<text text-anchor="middle" x="1300" y="-519.5" font-family="FreeSans" font-size="10.00">DGtal/shapes/Mesh.h</text>
</a>
</g>
</g>
<!-- Node0&#45;&gt;Node161 -->
<g id="edge100" class="edge"><title>Node0&#45;&gt;Node161</title>
<path fill="none" stroke="midnightblue" d="M1273.89,-754.492C1305.69,-738.99 1368.88,-702.797 1394,-650 1415.53,-604.751 1358.47,-559.412 1324.02,-537.152"/>
<polygon fill="midnightblue" stroke="midnightblue" points="1325.73,-534.093 1315.39,-531.753 1322.01,-540.027 1325.73,-534.093"/>
</g>
<!-- Node163 -->
<g id="node43" class="node"><title>Node163</title>
<g id="a_node43"><a xlink:href="SurfaceMesh_8h_source.html" target="_top" xlink:title="DGtal/shapes/SurfaceMesh.h">
<polygon fill="white" stroke="red" points="1230.5,-630.5 1230.5,-649.5 1385.5,-649.5 1385.5,-630.5 1230.5,-630.5"/>
<text text-anchor="middle" x="1308" y="-637.5" font-family="FreeSans" font-size="10.00">DGtal/shapes/SurfaceMesh.h</text>
</a>
</g>
</g>
<!-- Node0&#45;&gt;Node163 -->
<g id="edge105" class="edge"><title>Node0&#45;&gt;Node163</title>
<path fill="none" stroke="midnightblue" d="M1262.92,-754.344C1270.4,-745.727 1281.43,-731.827 1288,-718 1296.87,-699.327 1302.2,-676.168 1305.11,-660.152"/>
<polygon fill="midnightblue" stroke="midnightblue" points="1308.62,-660.356 1306.8,-649.918 1301.71,-659.21 1308.62,-660.356"/>
</g>
<!-- Node166 -->
<g id="node44" class="node"><title>Node166</title>
<g id="a_node44"><a xlink:href="SurfaceMeshHelper_8h_source.html" target="_top" xlink:title="DGtal/shapes/SurfaceMesh\lHelper.h">
<polygon fill="white" stroke="red" points="1518,-687 1518,-717 1664,-717 1664,-687 1518,-687"/>
<text text-anchor="start" x="1526" y="-705" font-family="FreeSans" font-size="10.00">DGtal/shapes/SurfaceMesh</text>
<text text-anchor="middle" x="1591" y="-694" font-family="FreeSans" font-size="10.00">Helper.h</text>
</a>
</g>
</g>
<!-- Node0&#45;&gt;Node166 -->
<g id="edge110" class="edge"><title>Node0&#45;&gt;Node166</title>
<path fill="none" stroke="midnightblue" d="M1302.78,-754.467C1356.01,-744.962 1443.05,-729.42 1507.57,-717.898"/>
<polygon fill="midnightblue" stroke="midnightblue" points="1508.49,-721.289 1517.72,-716.085 1507.26,-714.398 1508.49,-721.289"/>
</g>
<!-- Node168 -->
<g id="node45" class="node"><title>Node168</title>
<g id="a_node45"><a xlink:href="MeshHelpers_8h_source.html" target="_top" xlink:title="DGtal/shapes/MeshHelpers.h">
<polygon fill="white" stroke="red" points="1124.5,-692.5 1124.5,-711.5 1279.5,-711.5 1279.5,-692.5 1124.5,-692.5"/>
<text text-anchor="middle" x="1202" y="-699.5" font-family="FreeSans" font-size="10.00">DGtal/shapes/MeshHelpers.h</text>
</a>
</g>
</g>
<!-- Node0&#45;&gt;Node168 -->
<g id="edge116" class="edge"><title>Node0&#45;&gt;Node168</title>
<path fill="none" stroke="midnightblue" d="M1247.41,-754.403C1239.3,-745.225 1226.27,-730.47 1216.24,-719.117"/>
<polygon fill="midnightblue" stroke="midnightblue" points="1218.82,-716.758 1209.58,-711.581 1213.58,-721.392 1218.82,-716.758"/>
</g>
<!-- Node187 -->
<g id="node46" class="node"><title>Node187</title>
<g id="a_node46"><a xlink:href="BreadthFirstVisitor_8h_source.html" target="_top" xlink:title="DGtal/graph/BreadthFirst\lVisitor.h">
<polygon fill="white" stroke="red" points="864.5,-371 864.5,-401 999.5,-401 999.5,-371 864.5,-371"/>
<text text-anchor="start" x="872.5" y="-389" font-family="FreeSans" font-size="10.00">DGtal/graph/BreadthFirst</text>
<text text-anchor="middle" x="932" y="-378" font-family="FreeSans" font-size="10.00">Visitor.h</text>
</a>
</g>
</g>
<!-- Node0&#45;&gt;Node187 -->
<g id="edge121" class="edge"><title>Node0&#45;&gt;Node187</title>
<path fill="none" stroke="midnightblue" d="M1184.68,-760.262C1073.92,-755.22 869.08,-742.649 847,-718 765.292,-626.785 870.597,-467.485 914.465,-409.186"/>
<polygon fill="midnightblue" stroke="midnightblue" points="917.408,-411.099 920.702,-401.029 911.848,-406.847 917.408,-411.099"/>
</g>
<!-- Node196 -->
<g id="node47" class="node"><title>Node196</title>
<g id="a_node47"><a xlink:href="SurfaceMeshReader_8h_source.html" target="_top" xlink:title="DGtal/io/readers/Surface\lMeshReader.h">
<polygon fill="white" stroke="red" points="1682,-687 1682,-717 1816,-717 1816,-687 1682,-687"/>
<text text-anchor="start" x="1690" y="-705" font-family="FreeSans" font-size="10.00">DGtal/io/readers/Surface</text>
<text text-anchor="middle" x="1749" y="-694" font-family="FreeSans" font-size="10.00">MeshReader.h</text>
</a>
</g>
</g>
<!-- Node0&#45;&gt;Node196 -->
<g id="edge125" class="edge"><title>Node0&#45;&gt;Node196</title>
<path fill="none" stroke="midnightblue" d="M1325.13,-757.34C1406.26,-750.369 1544.02,-737.223 1671.94,-718.079"/>
<polygon fill="midnightblue" stroke="midnightblue" points="1672.55,-721.526 1681.92,-716.571 1671.51,-714.605 1672.55,-721.526"/>
</g>
<!-- Node198 -->
<g id="node48" class="node"><title>Node198</title>
<g id="a_node48"><a xlink:href="SurfaceMeshWriter_8h_source.html" target="_top" xlink:title="DGtal/io/writers/Surface\lMeshWriter.h">
<polygon fill="white" stroke="red" points="856.5,-687 856.5,-717 985.5,-717 985.5,-687 856.5,-687"/>
<text text-anchor="start" x="864.5" y="-705" font-family="FreeSans" font-size="10.00">DGtal/io/writers/Surface</text>
<text text-anchor="middle" x="921" y="-694" font-family="FreeSans" font-size="10.00">MeshWriter.h</text>
</a>
</g>
</g>
<!-- Node0&#45;&gt;Node198 -->
<g id="edge131" class="edge"><title>Node0&#45;&gt;Node198</title>
<path fill="none" stroke="midnightblue" d="M1203.12,-754.471C1152.74,-746.086 1073.84,-732.687 995.587,-718.079"/>
<polygon fill="midnightblue" stroke="midnightblue" points="996.026,-714.6 985.553,-716.198 994.737,-721.481 996.026,-714.6"/>
</g>
<!-- Node341 -->
<g id="node49" class="node"><title>Node341</title>
<g id="a_node49"><a xlink:href="Viewer3D_8h_source.html" target="_top" xlink:title="DGtal/io/viewers/Viewer3D.h">
<polygon fill="white" stroke="red" points="2942,-512.5 2942,-531.5 3092,-531.5 3092,-512.5 2942,-512.5"/>
<text text-anchor="middle" x="3017" y="-519.5" font-family="FreeSans" font-size="10.00">DGtal/io/viewers/Viewer3D.h</text>
</a>
</g>
</g>
<!-- Node0&#45;&gt;Node341 -->
<g id="edge138" class="edge"><title>Node0&#45;&gt;Node341</title>
<path fill="none" stroke="midnightblue" d="M1325.27,-760.217C1441.46,-755.109 1680.76,-742.448 1882,-718 2303.68,-666.77 2807.19,-566.263 2966.27,-533.558"/>
<polygon fill="midnightblue" stroke="midnightblue" points="2967.15,-536.948 2976.24,-531.503 2965.74,-530.092 2967.15,-536.948"/>
</g>
<!-- Node265 -->
<g id="node50" class="node"><title>Node265</title>
<g id="a_node50"><a xlink:href="GradientColorMap_8h_source.html" target="_top" xlink:title="DGtal/io/colormaps\l/GradientColorMap.h">
<polygon fill="white" stroke="red" points="816.5,-298 816.5,-328 931.5,-328 931.5,-298 816.5,-298"/>
<text text-anchor="start" x="824.5" y="-316" font-family="FreeSans" font-size="10.00">DGtal/io/colormaps</text>
<text text-anchor="middle" x="874" y="-305" font-family="FreeSans" font-size="10.00">/GradientColorMap.h</text>
</a>
</g>
</g>
<!-- Node0&#45;&gt;Node265 -->
<g id="edge146" class="edge"><title>Node0&#45;&gt;Node265</title>
<path fill="none" stroke="midnightblue" d="M1184.75,-762.279C1035.17,-760.099 695.592,-751.479 656,-718 629.084,-695.24 637,-676.249 637,-641 637,-641 637,-641 637,-521 637,-422.517 754.522,-360.088 824.052,-331.771"/>
<polygon fill="midnightblue" stroke="midnightblue" points="825.53,-334.95 833.528,-328.002 822.942,-328.446 825.53,-334.95"/>
</g>
<!-- Node4&#45;&gt;Node2 -->
<g id="edge5" class="edge"><title>Node4&#45;&gt;Node2</title>
<path fill="none" stroke="midnightblue" d="M1822.18,-242.56C1972.8,-236.438 2341.9,-219.51 2360,-200 2414.96,-140.766 2202.05,-121.769 2249,-56 2269.5,-27.2868 2309.52,-16.7044 2339.96,-12.9022"/>
<polygon fill="midnightblue" stroke="midnightblue" points="2340.7,-16.3441 2350.28,-11.8214 2339.97,-9.38213 2340.7,-16.3441"/>
</g>
<!-- Node5 -->
<g id="node6" class="node"><title>Node5</title>
<polygon fill="white" stroke="#bfbfbf" points="1158.5,-174.5 1158.5,-193.5 1221.5,-193.5 1221.5,-174.5 1158.5,-174.5"/>
<text text-anchor="middle" x="1190" y="-181.5" font-family="FreeSans" font-size="10.00">exception</text>
</g>
<!-- Node4&#45;&gt;Node5 -->
<g id="edge6" class="edge"><title>Node4&#45;&gt;Node5</title>
<path fill="none" stroke="midnightblue" d="M1695.6,-244.997C1595.64,-243.79 1395.83,-236.491 1231,-200 1227.3,-199.182 1223.49,-198.112 1219.75,-196.92"/>
<polygon fill="midnightblue" stroke="midnightblue" points="1220.71,-193.551 1210.12,-193.568 1218.41,-200.162 1220.71,-193.551"/>
</g>
<!-- Node6 -->
<g id="node7" class="node"><title>Node6</title>
<polygon fill="white" stroke="#bfbfbf" points="2638,-56.5 2638,-75.5 2700,-75.5 2700,-56.5 2638,-56.5"/>
<text text-anchor="middle" x="2669" y="-63.5" font-family="FreeSans" font-size="10.00">algorithm</text>
</g>
<!-- Node4&#45;&gt;Node6 -->
<g id="edge7" class="edge"><title>Node4&#45;&gt;Node6</title>
<path fill="none" stroke="midnightblue" d="M1822.06,-243.086C1986.97,-237.797 2422.57,-221.914 2484,-200 2555.52,-174.489 2623.8,-112.459 2653.48,-83.0183"/>
<polygon fill="midnightblue" stroke="midnightblue" points="2656.25,-85.2011 2660.81,-75.6361 2651.28,-80.272 2656.25,-85.2011"/>
</g>
<!-- Node7 -->
<g id="node8" class="node"><title>Node7</title>
<polygon fill="white" stroke="#bfbfbf" points="1240,-174.5 1240,-193.5 1342,-193.5 1342,-174.5 1240,-174.5"/>
<text text-anchor="middle" x="1291" y="-181.5" font-family="FreeSans" font-size="10.00">boost/version.hpp</text>
</g>
<!-- Node4&#45;&gt;Node7 -->
<g id="edge8" class="edge"><title>Node4&#45;&gt;Node7</title>
<path fill="none" stroke="midnightblue" d="M1695.72,-240.685C1615.18,-234.585 1472,-221.695 1351,-200 1344.69,-198.868 1338.06,-197.448 1331.6,-195.936"/>
<polygon fill="midnightblue" stroke="midnightblue" points="1332.2,-192.482 1321.66,-193.512 1330.55,-199.282 1332.2,-192.482"/>
</g>
<!-- Node8 -->
<g id="node9" class="node"><title>Node8</title>
<polygon fill="white" stroke="#bfbfbf" points="1360.5,-174.5 1360.5,-193.5 1499.5,-193.5 1499.5,-174.5 1360.5,-174.5"/>
<text text-anchor="middle" x="1430" y="-181.5" font-family="FreeSans" font-size="10.00">boost/concept_check.hpp</text>
</g>
<!-- Node4&#45;&gt;Node8 -->
<g id="edge9" class="edge"><title>Node4&#45;&gt;Node8</title>
<path fill="none" stroke="midnightblue" d="M1710.38,-236.47C1659.79,-227.551 1578.3,-213.06 1508,-200 1500.1,-198.532 1491.75,-196.954 1483.57,-195.393"/>
<polygon fill="midnightblue" stroke="midnightblue" points="1484.19,-191.949 1473.71,-193.506 1482.87,-198.825 1484.19,-191.949"/>
</g>
<!-- Node9 -->
<g id="node10" class="node"><title>Node9</title>
<polygon fill="white" stroke="#bfbfbf" points="1517.5,-174.5 1517.5,-193.5 1646.5,-193.5 1646.5,-174.5 1517.5,-174.5"/>
<text text-anchor="middle" x="1582" y="-181.5" font-family="FreeSans" font-size="10.00">boost/static_assert.hpp</text>
</g>
<!-- Node4&#45;&gt;Node9 -->
<g id="edge10" class="edge"><title>Node4&#45;&gt;Node9</title>
<path fill="none" stroke="midnightblue" d="M1733.64,-236.403C1703.02,-226.022 1651.34,-208.506 1616.95,-196.849"/>
<polygon fill="midnightblue" stroke="midnightblue" points="1617.91,-193.476 1607.31,-193.581 1615.66,-200.106 1617.91,-193.476"/>
</g>
<!-- Node10 -->
<g id="node11" class="node"><title>Node10</title>
<polygon fill="white" stroke="#bfbfbf" points="1664.5,-174.5 1664.5,-193.5 1803.5,-193.5 1803.5,-174.5 1664.5,-174.5"/>
<text text-anchor="middle" x="1734" y="-181.5" font-family="FreeSans" font-size="10.00">boost/concept/assert.hpp</text>
</g>
<!-- Node4&#45;&gt;Node10 -->
<g id="edge11" class="edge"><title>Node4&#45;&gt;Node10</title>
<path fill="none" stroke="midnightblue" d="M1755.42,-236.403C1751.82,-227.76 1746.15,-214.17 1741.56,-203.134"/>
<polygon fill="midnightblue" stroke="midnightblue" points="1744.65,-201.465 1737.58,-193.581 1738.19,-204.158 1744.65,-201.465"/>
</g>
<!-- Node11 -->
<g id="node12" class="node"><title>Node11</title>
<polygon fill="white" stroke="#bfbfbf" points="1822,-174.5 1822,-193.5 1970,-193.5 1970,-174.5 1822,-174.5"/>
<text text-anchor="middle" x="1896" y="-181.5" font-family="FreeSans" font-size="10.00">boost/concept/requires.hpp</text>
</g>
<!-- Node4&#45;&gt;Node11 -->
<g id="edge12" class="edge"><title>Node4&#45;&gt;Node11</title>
<path fill="none" stroke="midnightblue" d="M1778.63,-236.403C1801.82,-226.245 1840.62,-209.255 1867.21,-197.607"/>
<polygon fill="midnightblue" stroke="midnightblue" points="1868.65,-200.798 1876.41,-193.581 1865.84,-194.386 1868.65,-200.798"/>
</g>
<!-- Node12 -->
<g id="node13" class="node"><title>Node12</title>
<polygon fill="white" stroke="#bfbfbf" points="1988,-169 1988,-199 2108,-199 2108,-169 1988,-169"/>
<text text-anchor="start" x="1996" y="-187" font-family="FreeSans" font-size="10.00">boost/iterator/iterator</text>
<text text-anchor="middle" x="2048" y="-176" font-family="FreeSans" font-size="10.00">_concepts.hpp</text>
</g>
<!-- Node4&#45;&gt;Node12 -->
<g id="edge13" class="edge"><title>Node4&#45;&gt;Node12</title>
<path fill="none" stroke="midnightblue" d="M1801.62,-236.444C1843.88,-227.923 1910.76,-214.344 1977.89,-200.22"/>
<polygon fill="midnightblue" stroke="midnightblue" points="1978.74,-203.62 1987.8,-198.133 1977.29,-196.77 1978.74,-203.62"/>
</g>
<!-- Node13 -->
<g id="node14" class="node"><title>Node13</title>
<polygon fill="white" stroke="#bfbfbf" points="2125.5,-174.5 2125.5,-193.5 2284.5,-193.5 2284.5,-174.5 2125.5,-174.5"/>
<text text-anchor="middle" x="2205" y="-181.5" font-family="FreeSans" font-size="10.00">boost/concept_archetype.hpp</text>
</g>
<!-- Node4&#45;&gt;Node13 -->
<g id="edge14" class="edge"><title>Node4&#45;&gt;Node13</title>
<path fill="none" stroke="midnightblue" d="M1822.31,-237.826C1893.76,-229.542 2013.41,-215.105 2116,-200 2125.88,-198.545 2136.36,-196.884 2146.53,-195.211"/>
<polygon fill="midnightblue" stroke="midnightblue" points="2147.27,-198.636 2156.56,-193.54 2146.12,-191.731 2147.27,-198.636"/>
</g>
<!-- Node14 -->
<g id="node15" class="node"><title>Node14</title>
<polygon fill="white" stroke="#bfbfbf" points="2724.5,-112.5 2724.5,-131.5 2771.5,-131.5 2771.5,-112.5 2724.5,-112.5"/>
<text text-anchor="middle" x="2748" y="-119.5" font-family="FreeSans" font-size="10.00">cmath</text>
</g>
<!-- Node4&#45;&gt;Node14 -->
<g id="edge15" class="edge"><title>Node4&#45;&gt;Node14</title>
<path fill="none" stroke="midnightblue" d="M1822.04,-243.901C2029.6,-240.039 2680.52,-225.909 2717,-200 2735.88,-186.595 2743.27,-159.69 2746.16,-141.508"/>
<polygon fill="midnightblue" stroke="midnightblue" points="2749.64,-141.877 2747.44,-131.513 2742.7,-140.988 2749.64,-141.877"/>
</g>
<!-- Node15 -->
<g id="node16" class="node"><title>Node15</title>
<polygon fill="white" stroke="#bfbfbf" points="2302.5,-174.5 2302.5,-193.5 2351.5,-193.5 2351.5,-174.5 2302.5,-174.5"/>
<text text-anchor="middle" x="2327" y="-181.5" font-family="FreeSans" font-size="10.00">stdio.h</text>
</g>
<!-- Node4&#45;&gt;Node15 -->
<g id="edge16" class="edge"><title>Node4&#45;&gt;Node15</title>
<path fill="none" stroke="midnightblue" d="M1822.41,-242.286C1943.98,-236.648 2205.55,-222.308 2293,-200 2295.66,-199.321 2298.38,-198.452 2301.06,-197.476"/>
<polygon fill="midnightblue" stroke="midnightblue" points="2302.53,-200.658 2310.45,-193.617 2299.87,-194.184 2302.53,-200.658"/>
</g>
<!-- Node16 -->
<g id="node17" class="node"><title>Node16</title>
<g id="a_node17"><a xlink:href="Config_8h_source.html" target="_top" xlink:title="DGtal/base/Config.h">
<polygon fill="white" stroke="black" points="536,-56.5 536,-75.5 648,-75.5 648,-56.5 536,-56.5"/>
<text text-anchor="middle" x="592" y="-63.5" font-family="FreeSans" font-size="10.00">DGtal/base/Config.h</text>
</a>
</g>
</g>
<!-- Node4&#45;&gt;Node16 -->
<g id="edge17" class="edge"><title>Node4&#45;&gt;Node16</title>
<path fill="none" stroke="midnightblue" d="M1695.75,-244.322C1546.47,-242.174 1181.43,-233.517 1138,-200 1105.29,-174.754 1140.53,-137.485 1108,-112 1073.37,-84.8657 790.141,-72.9197 658.635,-68.7975"/>
<polygon fill="midnightblue" stroke="midnightblue" points="658.396,-65.2886 648.293,-68.4797 658.181,-72.2853 658.396,-65.2886"/>
</g>
<!-- Node17 -->
<g id="node18" class="node"><title>Node17</title>
<g id="a_node18"><a xlink:href="Trace_8h_source.html" target="_top" xlink:title="DGtal/base/Trace.h">
<polygon fill="white" stroke="red" points="408.5,-174.5 408.5,-193.5 515.5,-193.5 515.5,-174.5 408.5,-174.5"/>
<text text-anchor="middle" x="462" y="-181.5" font-family="FreeSans" font-size="10.00">DGtal/base/Trace.h</text>
</a>
</g>
</g>
<!-- Node4&#45;&gt;Node17 -->
<g id="edge20" class="edge"><title>Node4&#45;&gt;Node17</title>
<path fill="none" stroke="midnightblue" d="M1695.91,-243.745C1523.34,-240.045 1029.07,-227.661 619,-200 588.343,-197.932 554.395,-194.795 525.932,-191.923"/>
<polygon fill="midnightblue" stroke="midnightblue" points="526.014,-188.413 515.71,-190.879 525.303,-195.377 526.014,-188.413"/>
</g>
<!-- Node24 -->
<g id="node19" class="node"><title>Node24</title>
<g id="a_node19"><a xlink:href="TraceWriterTerm_8h_source.html" target="_top" xlink:title="DGtal/base/TraceWriterTerm.h">
<polygon fill="white" stroke="red" points="528.5,-112.5 528.5,-131.5 685.5,-131.5 685.5,-112.5 528.5,-112.5"/>
<text text-anchor="middle" x="607" y="-119.5" font-family="FreeSans" font-size="10.00">DGtal/base/TraceWriterTerm.h</text>
</a>
</g>
</g>
<!-- Node4&#45;&gt;Node24 -->
<g id="edge31" class="edge"><title>Node4&#45;&gt;Node24</title>
<path fill="none" stroke="midnightblue" d="M1695.78,-243.198C1572.4,-239.185 1291.03,-227.597 1056,-200 910.658,-182.934 740.853,-150.312 657.877,-133.537"/>
<polygon fill="midnightblue" stroke="midnightblue" points="658.452,-130.082 647.955,-131.523 657.059,-136.942 658.452,-130.082"/>
</g>
<!-- Node25 -->
<g id="node20" class="node"><title>Node25</title>
<g id="a_node20"><a xlink:href="Assert_8h_source.html" target="_top" xlink:title="DGtal/base/Assert.h">
<polygon fill="white" stroke="red" points="282.5,-112.5 282.5,-131.5 395.5,-131.5 395.5,-112.5 282.5,-112.5"/>
<text text-anchor="middle" x="339" y="-119.5" font-family="FreeSans" font-size="10.00">DGtal/base/Assert.h</text>
</a>
</g>
</g>
<!-- Node4&#45;&gt;Node25 -->
<g id="edge35" class="edge"><title>Node4&#45;&gt;Node25</title>
<path fill="none" stroke="midnightblue" d="M1695.62,-244.395C1435.05,-241.715 457.354,-229.713 399,-200 374.279,-187.413 356.641,-159.442 347.136,-140.906"/>
<polygon fill="midnightblue" stroke="midnightblue" points="350.205,-139.213 342.698,-131.737 343.904,-142.263 350.205,-139.213"/>
</g>
<!-- Node28 -->
<g id="node21" class="node"><title>Node28</title>
<g id="a_node21"><a xlink:href="TraceWriterFile_8h_source.html" target="_top" xlink:title="DGtal/base/TraceWriterFile.h">
<polygon fill="white" stroke="red" points="255.5,-56.5 255.5,-75.5 404.5,-75.5 404.5,-56.5 255.5,-56.5"/>
<text text-anchor="middle" x="330" y="-63.5" font-family="FreeSans" font-size="10.00">DGtal/base/TraceWriterFile.h</text>
</a>
</g>
</g>
<!-- Node4&#45;&gt;Node28 -->
<g id="edge32" class="edge"><title>Node4&#45;&gt;Node28</title>
<path fill="none" stroke="midnightblue" d="M1695.7,-245.249C1439.54,-245.946 487.401,-245.43 361,-200 314.486,-183.282 294.786,-176.367 273,-132 263.018,-111.671 284.605,-92.725 304.015,-80.5939"/>
<polygon fill="midnightblue" stroke="midnightblue" points="305.807,-83.6005 312.659,-75.5192 302.263,-77.5639 305.807,-83.6005"/>
</g>
<!-- Node29 -->
<g id="node22" class="node"><title>Node29</title>
<g id="a_node22"><a xlink:href="ConceptUtils_8h_source.html" target="_top" xlink:title="DGtal/base/ConceptUtils.h">
<polygon fill="white" stroke="black" points="2258.5,-56.5 2258.5,-75.5 2401.5,-75.5 2401.5,-56.5 2258.5,-56.5"/>
<text text-anchor="middle" x="2330" y="-63.5" font-family="FreeSans" font-size="10.00">DGtal/base/ConceptUtils.h</text>
</a>
</g>
</g>
<!-- Node4&#45;&gt;Node29 -->
<g id="edge36" class="edge"><title>Node4&#45;&gt;Node29</title>
<path fill="none" stroke="midnightblue" d="M1822.27,-242.821C1979.11,-237.112 2374.7,-220.721 2394,-200 2403.69,-189.594 2400.16,-180.819 2394,-168 2382.9,-144.915 2363.25,-153.279 2349,-132 2339.7,-118.111 2334.87,-99.5988 2332.41,-85.8833"/>
<polygon fill="midnightblue" stroke="midnightblue" points="2335.82,-85.0567 2330.86,-75.6974 2328.9,-86.1103 2335.82,-85.0567"/>
</g>
<!-- Node30 -->
<g id="node23" class="node"><title>Node30</title>
<g id="a_node23"><a xlink:href="BasicTypes_8h_source.html" target="_top" xlink:title="DGtal/base/BasicTypes.h">
<polygon fill="white" stroke="red" points="2358,-112.5 2358,-131.5 2492,-131.5 2492,-112.5 2358,-112.5"/>
<text text-anchor="middle" x="2425" y="-119.5" font-family="FreeSans" font-size="10.00">DGtal/base/BasicTypes.h</text>
</a>
</g>
</g>
<!-- Node4&#45;&gt;Node30 -->
<g id="edge38" class="edge"><title>Node4&#45;&gt;Node30</title>
<path fill="none" stroke="midnightblue" d="M1822.14,-243.089C1985.6,-237.836 2411.34,-222.088 2432,-200 2446.58,-184.413 2440.35,-158.485 2433.53,-141.074"/>
<polygon fill="midnightblue" stroke="midnightblue" points="2436.58,-139.292 2429.39,-131.502 2430.15,-142.07 2436.58,-139.292"/>
</g>
<!-- Node33 -->
<g id="node24" class="node"><title>Node33</title>
<g id="a_node24"><a xlink:href="BasicFunctors_8h_source.html" target="_top" xlink:title="DGtal/base/BasicFunctors.h">
<polygon fill="white" stroke="red" points="2560,-174.5 2560,-193.5 2708,-193.5 2708,-174.5 2560,-174.5"/>
<text text-anchor="middle" x="2634" y="-181.5" font-family="FreeSans" font-size="10.00">DGtal/base/BasicFunctors.h</text>
</a>
</g>
</g>
<!-- Node4&#45;&gt;Node33 -->
<g id="edge40" class="edge"><title>Node4&#45;&gt;Node33</title>
<path fill="none" stroke="midnightblue" d="M1822.2,-242.106C1981.92,-234.921 2398.47,-215.718 2537,-200 2548.08,-198.743 2559.88,-197.009 2571.32,-195.164"/>
<polygon fill="midnightblue" stroke="midnightblue" points="2571.96,-198.606 2581.25,-193.523 2570.82,-191.699 2571.96,-198.606"/>
</g>
<!-- Node41 -->
<g id="node26" class="node"><title>Node41</title>
<g id="a_node26"><a xlink:href="BasicArchetypes_8h_source.html" target="_top" xlink:title="DGtal/base/BasicArchetypes.h">
<polygon fill="white" stroke="black" points="2458.5,-56.5 2458.5,-75.5 2619.5,-75.5 2619.5,-56.5 2458.5,-56.5"/>
<text text-anchor="middle" x="2539" y="-63.5" font-family="FreeSans" font-size="10.00">DGtal/base/BasicArchetypes.h</text>
</a>
</g>
</g>
<!-- Node4&#45;&gt;Node41 -->
<g id="edge48" class="edge"><title>Node4&#45;&gt;Node41</title>
<path fill="none" stroke="midnightblue" d="M1822.05,-242.342C1987.57,-235.173 2423.66,-214.967 2451,-200 2496.42,-175.135 2522.45,-115.612 2533.17,-85.3443"/>
<polygon fill="midnightblue" stroke="midnightblue" points="2536.57,-86.2293 2536.44,-75.6352 2529.93,-83.997 2536.57,-86.2293"/>
</g>
<!-- Node42 -->
<g id="node27" class="node"><title>Node42</title>
<g id="a_node27"><a xlink:href="Exceptions_8h_source.html" target="_top" xlink:title="DGtal/base/Exceptions.h">
<polygon fill="white" stroke="black" points="1599,-112.5 1599,-131.5 1733,-131.5 1733,-112.5 1599,-112.5"/>
<text text-anchor="middle" x="1666" y="-119.5" font-family="FreeSans" font-size="10.00">DGtal/base/Exceptions.h</text>
</a>
</g>
</g>
<!-- Node4&#45;&gt;Node42 -->
<g id="edge50" class="edge"><title>Node4&#45;&gt;Node42</title>
<path fill="none" stroke="midnightblue" d="M1695.83,-245.089C1547.31,-244.638 1185.66,-239.46 1149,-200 1139.32,-189.58 1139.39,-178.484 1149,-168 1178.09,-136.273 1451.82,-126.838 1588.76,-124.093"/>
<polygon fill="midnightblue" stroke="midnightblue" points="1588.84,-127.592 1598.78,-123.899 1588.71,-120.593 1588.84,-127.592"/>
</g>
<!-- Node16&#45;&gt;Node1 -->
<g id="edge19" class="edge"><title>Node16&#45;&gt;Node1</title>
<path fill="none" stroke="midnightblue" d="M535.68,-57.4347C450.353,-45.9728 291.027,-24.5708 222.597,-15.3787"/>
<polygon fill="midnightblue" stroke="midnightblue" points="222.797,-11.8743 212.42,-14.0117 221.865,-18.8119 222.797,-11.8743"/>
</g>
<!-- Node16&#45;&gt;Node2 -->
<g id="edge18" class="edge"><title>Node16&#45;&gt;Node2</title>
<path fill="none" stroke="midnightblue" d="M648.112,-57.2756C652.804,-56.7849 657.48,-56.3489 662,-56 1003.7,-29.6272 2115.61,-14.3492 2340.23,-11.4912"/>
<polygon fill="midnightblue" stroke="midnightblue" points="2340.29,-14.9908 2350.25,-11.3645 2340.21,-7.99138 2340.29,-14.9908"/>
</g>
<!-- Node17&#45;&gt;Node1 -->
<g id="edge22" class="edge"><title>Node17&#45;&gt;Node1</title>
<path fill="none" stroke="midnightblue" d="M459.852,-174.466C453.185,-148.649 432.146,-72.1543 413,-56 384.559,-32.0032 277.162,-18.9518 222.456,-13.7343"/>
<polygon fill="midnightblue" stroke="midnightblue" points="222.535,-10.2269 212.256,-12.7943 221.892,-17.1973 222.535,-10.2269"/>
</g>
<!-- Node17&#45;&gt;Node2 -->
<g id="edge21" class="edge"><title>Node17&#45;&gt;Node2</title>
<path fill="none" stroke="midnightblue" d="M463.291,-174.442C467.42,-150.498 482.726,-82.8255 527,-56 607.207,-7.40257 2078.21,-9.99889 2340.24,-10.8499"/>
<polygon fill="midnightblue" stroke="midnightblue" points="2340.42,-14.3504 2350.43,-10.8842 2340.45,-7.35048 2340.42,-14.3504"/>
</g>
<!-- Node17&#45;&gt;Node16 -->
<g id="edge23" class="edge"><title>Node17&#45;&gt;Node16</title>
<path fill="none" stroke="midnightblue" d="M467.511,-174.343C476.858,-160.123 496.962,-131.461 519,-112 533.098,-99.5507 551.058,-88.43 565.636,-80.3583"/>
<polygon fill="midnightblue" stroke="midnightblue" points="567.502,-83.3289 574.653,-75.511 564.188,-77.1633 567.502,-83.3289"/>
</g>
<!-- Node17&#45;&gt;Node24 -->
<g id="edge24" class="edge"><title>Node17&#45;&gt;Node24</title>
<path fill="none" stroke="midnightblue" d="M482.775,-174.403C507.432,-164.2 548.745,-147.105 576.902,-135.454"/>
<polygon fill="midnightblue" stroke="midnightblue" points="578.362,-138.638 586.264,-131.581 575.685,-132.17 578.362,-138.638"/>
</g>
<!-- Node17&#45;&gt;Node25 -->
<g id="edge28" class="edge"><title>Node17&#45;&gt;Node25</title>
<path fill="none" stroke="midnightblue" d="M439.477,-174.403C416.959,-164.468 382.917,-147.997 360.703,-136.381"/>
<polygon fill="midnightblue" stroke="midnightblue" points="362.164,-133.194 351.693,-131.581 358.872,-139.372 362.164,-133.194"/>
</g>
<!-- Node24&#45;&gt;Node1 -->
<g id="edge26" class="edge"><title>Node24&#45;&gt;Node1</title>
<path fill="none" stroke="midnightblue" d="M589.088,-112.316C559.817,-98.4595 499.611,-71.3499 446,-56 367.187,-33.4342 271.311,-20.2339 222.28,-14.4709"/>
<polygon fill="midnightblue" stroke="midnightblue" points="222.603,-10.985 212.269,-13.3217 221.805,-17.9394 222.603,-10.985"/>
</g>
<!-- Node24&#45;&gt;Node2 -->
<g id="edge25" class="edge"><title>Node24&#45;&gt;Node2</title>
<path fill="none" stroke="midnightblue" d="M615.755,-112.132C631.159,-97.2136 664.828,-67.5929 700,-56 780.293,-29.535 2092.61,-14.1017 2339.97,-11.4207"/>
<polygon fill="midnightblue" stroke="midnightblue" points="2340.32,-14.9172 2350.28,-11.3096 2340.25,-7.91761 2340.32,-14.9172"/>
</g>
<!-- Node24&#45;&gt;Node16 -->
<g id="edge27" class="edge"><title>Node24&#45;&gt;Node16</title>
<path fill="none" stroke="midnightblue" d="M604.523,-112.083C602.514,-104.849 599.614,-94.4087 597.11,-85.3968"/>
<polygon fill="midnightblue" stroke="midnightblue" points="600.48,-84.4495 594.431,-75.7511 593.735,-86.323 600.48,-84.4495"/>
</g>
<!-- Node25&#45;&gt;Node1 -->
<g id="edge30" class="edge"><title>Node25&#45;&gt;Node1</title>
<path fill="none" stroke="midnightblue" d="M314.549,-112.366C294.844,-104.687 267.05,-92.1741 246,-76 228.172,-62.3019 211.9,-42.1608 201.546,-27.9361"/>
<polygon fill="midnightblue" stroke="midnightblue" points="204.267,-25.7209 195.64,-19.57 198.548,-29.758 204.267,-25.7209"/>
</g>
<!-- Node25&#45;&gt;Node17 -->
<g id="edge29" class="edge"><title>Node25&#45;&gt;Node17</title>
<path fill="none" stroke="midnightblue" d="M361.487,-131.581C383.992,-141.509 418.034,-157.98 440.262,-169.6"/>
<polygon fill="midnightblue" stroke="midnightblue" points="438.806,-172.79 449.278,-174.403 442.098,-166.612 438.806,-172.79"/>
</g>
<!-- Node28&#45;&gt;Node1 -->
<g id="edge34" class="edge"><title>Node28&#45;&gt;Node1</title>
<path fill="none" stroke="midnightblue" d="M307.817,-56.4435C284.572,-47.4776 247.851,-33.314 221.585,-23.1827"/>
<polygon fill="midnightblue" stroke="midnightblue" points="222.669,-19.8497 212.08,-19.5164 220.15,-26.3807 222.669,-19.8497"/>
</g>
<!-- Node28&#45;&gt;Node2 -->
<g id="edge33" class="edge"><title>Node28&#45;&gt;Node2</title>
<path fill="none" stroke="midnightblue" d="M404.679,-60.4129C432.685,-58.8213 464.795,-57.1495 494,-56 1235.13,-26.8294 2140.89,-14.0541 2340.06,-11.4941"/>
<polygon fill="midnightblue" stroke="midnightblue" points="2340.38,-14.9904 2350.33,-11.3631 2340.29,-7.99099 2340.38,-14.9904"/>
</g>
<!-- Node29&#45;&gt;Node2 -->
<g id="edge37" class="edge"><title>Node29&#45;&gt;Node2</title>
<path fill="none" stroke="midnightblue" d="M2338.26,-56.083C2345.46,-48.2982 2356.11,-36.8015 2364.85,-27.3665"/>
<polygon fill="midnightblue" stroke="midnightblue" points="2367.67,-29.4666 2371.9,-19.7511 2362.53,-24.7108 2367.67,-29.4666"/>
</g>
<!-- Node30&#45;&gt;Node2 -->
<g id="edge39" class="edge"><title>Node30&#45;&gt;Node2</title>
<path fill="none" stroke="midnightblue" d="M2424,-112.276C2422.32,-99.4995 2418.26,-75.1402 2410,-56 2405.73,-46.1034 2399.26,-36.0337 2393.41,-27.9363"/>
<polygon fill="midnightblue" stroke="midnightblue" points="2396.05,-25.6235 2387.24,-19.7463 2390.47,-29.838 2396.05,-25.6235"/>
</g>
<!-- Node33&#45;&gt;Node4 -->
<g id="edge47" class="edge"><title>Node33&#45;&gt;Node4</title>
<path fill="none" stroke="midnightblue" d="M2598.39,-193.523C2584.85,-195.951 2569.32,-198.375 2555,-200 2416.74,-215.686 2001.57,-234.845 1832.13,-242.063"/>
<polygon fill="midnightblue" stroke="midnightblue" points="1831.9,-238.569 1822.06,-242.49 1832.19,-245.563 1831.9,-238.569"/>
</g>
<!-- Node33&#45;&gt;Node6 -->
<g id="edge41" class="edge"><title>Node33&#45;&gt;Node6</title>
<path fill="none" stroke="midnightblue" d="M2636.63,-174.281C2642.31,-155.463 2655.82,-110.697 2663.47,-85.3399"/>
<polygon fill="midnightblue" stroke="midnightblue" points="2666.9,-86.0895 2666.43,-75.5048 2660.19,-84.0674 2666.9,-86.0895"/>
</g>
<!-- Node33&#45;&gt;Node14 -->
<g id="edge42" class="edge"><title>Node33&#45;&gt;Node14</title>
<path fill="none" stroke="midnightblue" d="M2650.33,-174.403C2669.21,-164.468 2700.51,-147.997 2722.58,-136.381"/>
<polygon fill="midnightblue" stroke="midnightblue" points="2724.48,-139.335 2731.7,-131.581 2721.22,-133.141 2724.48,-139.335"/>
</g>
<!-- Node33&#45;&gt;Node35 -->
<g id="edge43" class="edge"><title>Node33&#45;&gt;Node35</title>
<path fill="none" stroke="midnightblue" d="M2559.88,-178.536C2504.77,-175.315 2427.7,-171.019 2360,-168 1875.88,-146.41 1290.41,-129.52 1109.76,-124.517"/>
<polygon fill="midnightblue" stroke="midnightblue" points="1109.8,-121.017 1099.7,-124.24 1109.6,-128.014 1109.8,-121.017"/>
</g>
<!-- Node35&#45;&gt;Node2 -->
<g id="edge44" class="edge"><title>Node35&#45;&gt;Node2</title>
<path fill="none" stroke="midnightblue" d="M1099.64,-117.214C1305.68,-100.122 2147.33,-30.3017 2340.4,-14.2851"/>
<polygon fill="midnightblue" stroke="midnightblue" points="2340.71,-17.7712 2350.39,-13.4564 2340.13,-10.7952 2340.71,-17.7712"/>
</g>
<!-- Node35&#45;&gt;Node4 -->
<g id="edge45" class="edge"><title>Node35&#45;&gt;Node4</title>
<path fill="none" stroke="midnightblue" d="M1053.79,-131.912C1053.94,-148.368 1056.88,-183.362 1078,-200 1124.86,-236.923 1519.51,-243.601 1685.7,-244.771"/>
<polygon fill="midnightblue" stroke="midnightblue" points="1685.81,-248.272 1695.83,-244.837 1685.85,-241.272 1685.81,-248.272"/>
</g>
<!-- Node35&#45;&gt;Node6 -->
<g id="edge46" class="edge"><title>Node35&#45;&gt;Node6</title>
<path fill="none" stroke="midnightblue" d="M1099.62,-120.206C1337.44,-116.002 2431.42,-95.8152 2627.61,-75.6333"/>
<polygon fill="midnightblue" stroke="midnightblue" points="2628.22,-79.087 2637.76,-74.4888 2627.44,-72.1311 2628.22,-79.087"/>
</g>
<!-- Node41&#45;&gt;Node2 -->
<g id="edge49" class="edge"><title>Node41&#45;&gt;Node2</title>
<path fill="none" stroke="midnightblue" d="M2513.81,-56.4435C2487.06,-47.3591 2444.6,-32.9388 2414.69,-22.7831"/>
<polygon fill="midnightblue" stroke="midnightblue" points="2415.67,-19.4182 2405.08,-19.5164 2413.42,-26.0464 2415.67,-19.4182"/>
</g>
<!-- Node42&#45;&gt;Node2 -->
<g id="edge51" class="edge"><title>Node42&#45;&gt;Node2</title>
<path fill="none" stroke="midnightblue" d="M1721.43,-112.46C1860.1,-91.0962 2219.51,-35.7249 2339.98,-17.166"/>
<polygon fill="midnightblue" stroke="midnightblue" points="2340.87,-20.5701 2350.22,-15.5881 2339.8,-13.6517 2340.87,-20.5701"/>
</g>
<!-- Node43&#45;&gt;Node2 -->
<g id="edge53" class="edge"><title>Node43&#45;&gt;Node2</title>
<path fill="none" stroke="midnightblue" d="M2167.34,-583.556C2360.99,-584.619 2922.94,-583.579 3100,-538 3180.65,-517.239 3268,-538.282 3268,-455 3268,-455 3268,-455 3268,-121 3268,-78.5445 3237.08,-72.5981 3198,-56 3126.09,-25.4554 2575.01,-14.193 2420.28,-11.6146"/>
<polygon fill="midnightblue" stroke="midnightblue" points="2419.9,-8.10792 2409.84,-11.4438 2419.78,-15.107 2419.9,-8.10792"/>
</g>
<!-- Node43&#45;&gt;Node4 -->
<g id="edge54" class="edge"><title>Node43&#45;&gt;Node4</title>
<path fill="none" stroke="midnightblue" d="M2055.24,-574.45C1967.46,-556.733 1784,-512.794 1784,-455 1784,-455 1784,-455 1784,-385 1784,-341.538 1771.85,-291.593 1764.49,-265.335"/>
<polygon fill="midnightblue" stroke="midnightblue" points="1767.82,-264.253 1761.68,-255.62 1761.09,-266.199 1767.82,-264.253"/>
</g>
<!-- Node44 -->
<g id="node29" class="node"><title>Node44</title>
<g id="a_node29"><a xlink:href="SpaceND_8h_source.html" target="_top" xlink:title="DGtal/kernel/SpaceND.h">
<polygon fill="white" stroke="red" points="2916.5,-303.5 2916.5,-322.5 3049.5,-322.5 3049.5,-303.5 2916.5,-303.5"/>
<text text-anchor="middle" x="2983" y="-310.5" font-family="FreeSans" font-size="10.00">DGtal/kernel/SpaceND.h</text>
</a>
</g>
</g>
<!-- Node43&#45;&gt;Node44 -->
<g id="edge55" class="edge"><title>Node43&#45;&gt;Node44</title>
<path fill="none" stroke="midnightblue" d="M2167.07,-576.368C2223.74,-569.711 2307.21,-557.588 2378,-538 2572.56,-484.162 2609.54,-436.925 2800,-370 2848.42,-352.985 2905.04,-336.113 2942.33,-325.408"/>
<polygon fill="midnightblue" stroke="midnightblue" points="2943.66,-328.669 2952.31,-322.557 2941.74,-321.938 2943.66,-328.669"/>
</g>
<!-- Node66 -->
<g id="node30" class="node"><title>Node66</title>
<g id="a_node30"><a xlink:href="HyperRectDomain_8h_source.html" target="_top" xlink:title="DGtal/kernel/domains\l/HyperRectDomain.h">
<polygon fill="white" stroke="red" points="2552,-298 2552,-328 2672,-328 2672,-298 2552,-298"/>
<text text-anchor="start" x="2560" y="-316" font-family="FreeSans" font-size="10.00">DGtal/kernel/domains</text>
<text text-anchor="middle" x="2612" y="-305" font-family="FreeSans" font-size="10.00">/HyperRectDomain.h</text>
</a>
</g>
</g>
<!-- Node43&#45;&gt;Node66 -->
<g id="edge58" class="edge"><title>Node43&#45;&gt;Node66</title>
<path fill="none" stroke="midnightblue" d="M2110.89,-574.173C2120.88,-565.198 2136.7,-550.826 2150,-538 2225.57,-465.145 2222.62,-417.944 2316,-370 2406.87,-323.344 2443.31,-356.262 2543,-334 2547.43,-333.01 2552,-331.897 2556.58,-330.716"/>
<polygon fill="midnightblue" stroke="midnightblue" points="2557.8,-334.011 2566.56,-328.042 2555.99,-327.25 2557.8,-334.011"/>
</g>
<!-- Node89 -->
<g id="node31" class="node"><title>Node89</title>
<g id="a_node31"><a xlink:href="DigitalSetSelector_8h_source.html" target="_top" xlink:title="DGtal/kernel/sets/Digital\lSetSelector.h">
<polygon fill="white" stroke="red" points="1026,-298 1026,-328 1158,-328 1158,-298 1026,-298"/>
<text text-anchor="start" x="1034" y="-316" font-family="FreeSans" font-size="10.00">DGtal/kernel/sets/Digital</text>
<text text-anchor="middle" x="1092" y="-305" font-family="FreeSans" font-size="10.00">SetSelector.h</text>
</a>
</g>
</g>
<!-- Node43&#45;&gt;Node89 -->
<g id="edge61" class="edge"><title>Node43&#45;&gt;Node89</title>
<path fill="none" stroke="midnightblue" d="M2034.73,-577.605C1967.44,-571.286 1860.55,-558.925 1770,-538 1525.5,-481.497 1243.74,-374.291 1136.52,-331.898"/>
<polygon fill="midnightblue" stroke="midnightblue" points="1137.58,-328.554 1127,-328.121 1135,-335.061 1137.58,-328.554"/>
</g>
<!-- Node102 -->
<g id="node32" class="node"><title>Node102</title>
<g id="a_node32"><a xlink:href="DigitalTopology_8h_source.html" target="_top" xlink:title="DGtal/topology/DigitalTopology.h">
<polygon fill="white" stroke="red" points="2690,-303.5 2690,-322.5 2860,-322.5 2860,-303.5 2690,-303.5"/>
<text text-anchor="middle" x="2775" y="-310.5" font-family="FreeSans" font-size="10.00">DGtal/topology/DigitalTopology.h</text>
</a>
</g>
</g>
<!-- Node43&#45;&gt;Node102 -->
<g id="edge64" class="edge"><title>Node43&#45;&gt;Node102</title>
<path fill="none" stroke="midnightblue" d="M2117.99,-574.389C2134.18,-565.912 2158.98,-552.206 2179,-538 2272.29,-471.792 2269.28,-416.032 2374,-370 2499.36,-314.897 2544.86,-356.128 2680,-334 2695.83,-331.408 2713.01,-327.98 2728.36,-324.695"/>
<polygon fill="midnightblue" stroke="midnightblue" points="2729.12,-328.112 2738.15,-322.568 2727.64,-321.272 2729.12,-328.112"/>
</g>
<!-- Node109 -->
<g id="node33" class="node"><title>Node109</title>
<g id="a_node33"><a xlink:href="MetricAdjacency_8h_source.html" target="_top" xlink:title="DGtal/topology/MetricAdjacency.h">
<polygon fill="white" stroke="red" points="2383,-376.5 2383,-395.5 2559,-395.5 2559,-376.5 2383,-376.5"/>
<text text-anchor="middle" x="2471" y="-383.5" font-family="FreeSans" font-size="10.00">DGtal/topology/MetricAdjacency.h</text>
</a>
</g>
</g>
<!-- Node43&#45;&gt;Node109 -->
<g id="edge67" class="edge"><title>Node43&#45;&gt;Node109</title>
<path fill="none" stroke="midnightblue" d="M2167.06,-582.675C2218.44,-579.726 2289.87,-569.522 2344,-538 2400.63,-505.025 2443.54,-437.015 2461.61,-404.743"/>
<polygon fill="midnightblue" stroke="midnightblue" points="2464.88,-406.065 2466.6,-395.61 2458.73,-402.713 2464.88,-406.065"/>
</g>
<!-- Node112 -->
<g id="node34" class="node"><title>Node112</title>
<g id="a_node34"><a xlink:href="Object_8h_source.html" target="_top" xlink:title="DGtal/topology/Object.h">
<polygon fill="white" stroke="red" points="1026.5,-376.5 1026.5,-395.5 1157.5,-395.5 1157.5,-376.5 1026.5,-376.5"/>
<text text-anchor="middle" x="1092" y="-383.5" font-family="FreeSans" font-size="10.00">DGtal/topology/Object.h</text>
</a>
</g>
</g>
<!-- Node43&#45;&gt;Node112 -->
<g id="edge71" class="edge"><title>Node43&#45;&gt;Node112</title>
<path fill="none" stroke="midnightblue" d="M2034.81,-582.445C1844.19,-580.446 1302.99,-571.825 1231,-538 1168.75,-508.753 1121.35,-437.76 1101.79,-404.605"/>
<polygon fill="midnightblue" stroke="midnightblue" points="1104.65,-402.547 1096.63,-395.618 1098.58,-406.033 1104.65,-402.547"/>
</g>
<!-- Node121 -->
<g id="node35" class="node"><title>Node121</title>
<g id="a_node35"><a xlink:href="KhalimskySpaceND_8h_source.html" target="_top" xlink:title="DGtal/topology/Khalimsky\lSpaceND.h">
<polygon fill="white" stroke="red" points="2730.5,-439 2730.5,-469 2869.5,-469 2869.5,-439 2730.5,-439"/>
<text text-anchor="start" x="2738.5" y="-457" font-family="FreeSans" font-size="10.00">DGtal/topology/Khalimsky</text>
<text text-anchor="middle" x="2800" y="-446" font-family="FreeSans" font-size="10.00">SpaceND.h</text>
</a>
</g>
</g>
<!-- Node43&#45;&gt;Node121 -->
<g id="edge76" class="edge"><title>Node43&#45;&gt;Node121</title>
<path fill="none" stroke="midnightblue" d="M2167.44,-579.913C2286.46,-573.928 2531.35,-559.422 2614,-538 2669.93,-523.503 2730.24,-493.699 2766.55,-474.033"/>
<polygon fill="midnightblue" stroke="midnightblue" points="2768.6,-476.899 2775.69,-469.022 2765.24,-470.761 2768.6,-476.899"/>
</g>
<!-- Node122 -->
<g id="node36" class="node"><title>Node122</title>
<g id="a_node36"><a xlink:href="KhalimskyPreSpaceND_8h_source.html" target="_top" xlink:title="DGtal/topology/Khalimsky\lPreSpaceND.h">
<polygon fill="white" stroke="red" points="2828.5,-371 2828.5,-401 2967.5,-401 2967.5,-371 2828.5,-371"/>
<text text-anchor="start" x="2836.5" y="-389" font-family="FreeSans" font-size="10.00">DGtal/topology/Khalimsky</text>
<text text-anchor="middle" x="2898" y="-378" font-family="FreeSans" font-size="10.00">PreSpaceND.h</text>
</a>
</g>
</g>
<!-- Node43&#45;&gt;Node122 -->
<g id="edge84" class="edge"><title>Node43&#45;&gt;Node122</title>
<path fill="none" stroke="midnightblue" d="M2167.41,-582.823C2274.31,-581.407 2490.73,-573.864 2670,-538 2765.37,-518.921 2812.02,-541.452 2878,-470 2892.56,-454.235 2897.05,-429.757 2898.2,-411.462"/>
<polygon fill="midnightblue" stroke="midnightblue" points="2901.7,-411.373 2898.54,-401.26 2894.71,-411.136 2901.7,-411.373"/>
</g>
<!-- Node125 -->
<g id="node37" class="node"><title>Node125</title>
<g id="a_node37"><a xlink:href="GridCurve_8h_source.html" target="_top" xlink:title="Header file for module GridCurve.cpp. ">
<polygon fill="white" stroke="red" points="1926,-507 1926,-537 2054,-537 2054,-507 1926,-507"/>
<text text-anchor="start" x="1934" y="-525" font-family="FreeSans" font-size="10.00">DGtal/geometry/curves</text>
<text text-anchor="middle" x="1990" y="-514" font-family="FreeSans" font-size="10.00">/GridCurve.h</text>
</a>
</g>
</g>
<!-- Node43&#45;&gt;Node125 -->
<g id="edge85" class="edge"><title>Node43&#45;&gt;Node125</title>
<path fill="none" stroke="midnightblue" d="M2085.1,-574.403C2069.5,-565.974 2045.2,-552.839 2025.07,-541.957"/>
<polygon fill="midnightblue" stroke="midnightblue" points="2026.62,-538.817 2016.16,-537.141 2023.29,-544.975 2026.62,-538.817"/>
</g>
<!-- Node153 -->
<g id="node39" class="node"><title>Node153</title>
<g id="a_node39"><a xlink:href="ExactPredicateLpSeparableMetric_8h_source.html" target="_top" xlink:title="DGtal/geometry/volumes\l/distance/ExactPredicateLpSeparable\lMetric.h">
<polygon fill="white" stroke="red" points="2148,-292.5 2148,-333.5 2342,-333.5 2342,-292.5 2148,-292.5"/>
<text text-anchor="start" x="2156" y="-321.5" font-family="FreeSans" font-size="10.00">DGtal/geometry/volumes</text>
<text text-anchor="start" x="2156" y="-310.5" font-family="FreeSans" font-size="10.00">/distance/ExactPredicateLpSeparable</text>
<text text-anchor="middle" x="2245" y="-299.5" font-family="FreeSans" font-size="10.00">Metric.h</text>
</a>
</g>
</g>
<!-- Node43&#45;&gt;Node153 -->
<g id="edge91" class="edge"><title>Node43&#45;&gt;Node153</title>
<path fill="none" stroke="midnightblue" d="M2098.13,-574.271C2088.48,-543.151 2060.3,-435.99 2106,-370 2115.51,-356.272 2128.98,-345.908 2143.84,-338.084"/>
<polygon fill="midnightblue" stroke="midnightblue" points="2145.77,-341.039 2153.25,-333.533 2142.72,-334.737 2145.77,-341.039"/>
</g>
<!-- Node158 -->
<g id="node40" class="node"><title>Node158</title>
<g id="a_node40"><a xlink:href="ExactPredicateLpPowerSeparableMetric_8h_source.html" target="_top" xlink:title="DGtal/geometry/volumes\l/distance/ExactPredicateLpPower\lSeparableMetric.h">
<polygon fill="white" stroke="red" points="2360,-292.5 2360,-333.5 2534,-333.5 2534,-292.5 2360,-292.5"/>
<text text-anchor="start" x="2368" y="-321.5" font-family="FreeSans" font-size="10.00">DGtal/geometry/volumes</text>
<text text-anchor="start" x="2368" y="-310.5" font-family="FreeSans" font-size="10.00">/distance/ExactPredicateLpPower</text>
<text text-anchor="middle" x="2447" y="-299.5" font-family="FreeSans" font-size="10.00">SeparableMetric.h</text>
</a>
</g>
</g>
<!-- Node43&#45;&gt;Node158 -->
<g id="edge95" class="edge"><title>Node43&#45;&gt;Node158</title>
<path fill="none" stroke="midnightblue" d="M2105.51,-574.178C2122.5,-541.815 2186.03,-428.462 2271,-370 2286.4,-359.406 2324.27,-346.847 2360.96,-336.31"/>
<polygon fill="midnightblue" stroke="midnightblue" points="2362.08,-339.63 2370.75,-333.537 2360.17,-332.895 2362.08,-339.63"/>
</g>
<!-- Node44&#45;&gt;Node2 -->
<g id="edge56" class="edge"><title>Node44&#45;&gt;Node2</title>
<path fill="none" stroke="midnightblue" d="M2998.46,-303.476C3014.5,-293.894 3039.25,-276.909 3054,-256 3073.2,-228.783 3078,-218.31 3078,-185 3078,-185 3078,-185 3078,-121 3078,-90.2048 3078.67,-74.4372 3054,-56 3003.19,-18.0215 2556.82,-12.0955 2419.82,-11.1709"/>
<polygon fill="midnightblue" stroke="midnightblue" points="2419.77,-7.67068 2409.75,-11.1084 2419.73,-14.6705 2419.77,-7.67068"/>
</g>
<!-- Node44&#45;&gt;Node4 -->
<g id="edge57" class="edge"><title>Node44&#45;&gt;Node4</title>
<path fill="none" stroke="midnightblue" d="M2942.03,-303.451C2920.41,-299.285 2893.37,-294.62 2869,-292 2479.85,-250.164 2010.15,-246.378 1832.14,-246.606"/>
<polygon fill="midnightblue" stroke="midnightblue" points="1832.1,-243.106 1822.11,-246.624 1832.12,-250.106 1832.1,-243.106"/>
</g>
<!-- Node66&#45;&gt;Node2 -->
<g id="edge59" class="edge"><title>Node66&#45;&gt;Node2</title>
<path fill="none" stroke="midnightblue" d="M2658.24,-297.983C2665.82,-295.864 2673.61,-293.791 2681,-292 2811.69,-260.341 2964,-319.468 2964,-185 2964,-185 2964,-185 2964,-121 2964,-79.8295 2935.38,-73.2454 2898,-56 2813.11,-16.839 2526.47,-11.5895 2420.13,-11.0123"/>
<polygon fill="midnightblue" stroke="midnightblue" points="2419.85,-7.51116 2409.83,-10.9682 2419.82,-14.5111 2419.85,-7.51116"/>
</g>
<!-- Node66&#45;&gt;Node4 -->
<g id="edge60" class="edge"><title>Node66&#45;&gt;Node4</title>
<path fill="none" stroke="midnightblue" d="M2568.91,-297.903C2560.4,-295.577 2551.48,-293.454 2543,-292 2407.68,-268.809 2000.01,-254.255 1832.29,-249.102"/>
<polygon fill="midnightblue" stroke="midnightblue" points="1832.18,-245.598 1822.08,-248.791 1831.97,-252.594 1832.18,-245.598"/>
</g>
<!-- Node89&#45;&gt;Node2 -->
<g id="edge62" class="edge"><title>Node89&#45;&gt;Node2</title>
<path fill="none" stroke="midnightblue" d="M1065.12,-297.891C1034.09,-279.9 984.682,-245.577 964,-200 946.607,-161.671 963.181,-134.106 999,-112 1115.93,-39.8327 2125.58,-16.0093 2340.06,-11.7414"/>
<polygon fill="midnightblue" stroke="midnightblue" points="2340.3,-15.2374 2350.23,-11.5418 2340.16,-8.23872 2340.3,-15.2374"/>
</g>
<!-- Node89&#45;&gt;Node4 -->
<g id="edge63" class="edge"><title>Node89&#45;&gt;Node4</title>
<path fill="none" stroke="midnightblue" d="M1142.95,-297.903C1152.54,-295.637 1162.53,-293.535 1172,-292 1355.2,-262.295 1573.84,-252.09 1685.47,-248.667"/>
<polygon fill="midnightblue" stroke="midnightblue" points="1685.72,-252.161 1695.61,-248.366 1685.51,-245.164 1685.72,-252.161"/>
</g>
<!-- Node102&#45;&gt;Node2 -->
<g id="edge65" class="edge"><title>Node102&#45;&gt;Node2</title>
<path fill="none" stroke="midnightblue" d="M2814.28,-303.408C2860.97,-292.612 2935.43,-273.389 2958,-256 2987.41,-233.342 3002,-222.124 3002,-185 3002,-185 3002,-185 3002,-121 3002,-78.8691 2971.5,-73.1168 2933,-56 2841.02,-15.1031 2530.62,-10.9901 2419.76,-10.8581"/>
<polygon fill="midnightblue" stroke="midnightblue" points="2419.67,-7.35818 2409.67,-10.8567 2419.67,-14.3582 2419.67,-7.35818"/>
</g>
<!-- Node102&#45;&gt;Node4 -->
<g id="edge66" class="edge"><title>Node102&#45;&gt;Node4</title>
<path fill="none" stroke="midnightblue" d="M2740.93,-303.458C2722.93,-299.293 2700.39,-294.628 2680,-292 2366.67,-251.623 1989.13,-246.756 1832.56,-246.645"/>
<polygon fill="midnightblue" stroke="midnightblue" points="1832.12,-243.146 1822.12,-246.645 1832.12,-250.146 1832.12,-243.146"/>
</g>
<!-- Node109&#45;&gt;Node2 -->
<g id="edge68" class="edge"><title>Node109&#45;&gt;Node2</title>
<path fill="none" stroke="midnightblue" d="M2559.13,-380.803C2659.62,-374.791 2816.75,-361.296 2869,-334 2891.31,-322.344 2886.75,-306.959 2907,-292 2937.38,-269.55 2954.39,-279.464 2984,-256 3015.5,-231.038 3040,-225.19 3040,-185 3040,-185 3040,-185 3040,-121 3040,-78.2177 3008.26,-73.0056 2969,-56 2869.99,-13.1093 2535.78,-10.3251 2419.93,-10.6929"/>
<polygon fill="midnightblue" stroke="midnightblue" points="2419.72,-7.19364 2409.74,-10.7354 2419.75,-14.1936 2419.72,-7.19364"/>
</g>
<!-- Node109&#45;&gt;Node4 -->
<g id="edge69" class="edge"><title>Node109&#45;&gt;Node4</title>
<path fill="none" stroke="midnightblue" d="M2382.67,-380.464C2307.69,-374.779 2197.94,-362.094 2106,-334 2065.32,-321.569 2060.48,-305.078 2020,-292 1958.24,-272.045 1885.24,-260.415 1832.17,-253.996"/>
<polygon fill="midnightblue" stroke="midnightblue" points="1832.5,-250.511 1822.16,-252.819 1831.68,-257.463 1832.5,-250.511"/>
</g>
<!-- Node109&#45;&gt;Node44 -->
<g id="edge70" class="edge"><title>Node109&#45;&gt;Node44</title>
<path fill="none" stroke="midnightblue" d="M2534.85,-376.484C2551.49,-374.316 2569.41,-372.027 2586,-370 2726.31,-352.858 2762.87,-358.994 2902,-334 2915.27,-331.615 2929.61,-328.32 2942.47,-325.091"/>
<polygon fill="midnightblue" stroke="midnightblue" points="2943.61,-328.412 2952.43,-322.535 2941.87,-321.632 2943.61,-328.412"/>
</g>
<!-- Node112&#45;&gt;Node1 -->
<g id="edge73" class="edge"><title>Node112&#45;&gt;Node1</title>
<path fill="none" stroke="midnightblue" d="M1045.38,-376.469C1033.22,-374.301 1020.13,-372.016 1008,-370 904.2,-352.75 875.146,-363.008 774,-334 667.977,-303.593 652.185,-265.837 546,-236 437.081,-205.395 387.801,-263.256 294,-200 232.672,-158.643 204.071,-68.6047 194.203,-29.6166"/>
<polygon fill="midnightblue" stroke="midnightblue" points="197.55,-28.5669 191.814,-19.659 190.743,-30.1996 197.55,-28.5669"/>
</g>
<!-- Node112&#45;&gt;Node2 -->
<g id="edge72" class="edge"><title>Node112&#45;&gt;Node2</title>
<path fill="none" stroke="midnightblue" d="M1044.3,-376.464C963.165,-361.945 807,-334 807,-334 735.15,-248.152 840.691,-184.489 926,-112 964.522,-79.2666 976.334,-69.678 1025,-56 1154.25,-19.6737 2129.41,-12.3544 2339.99,-11.192"/>
<polygon fill="midnightblue" stroke="midnightblue" points="2340.29,-14.6905 2350.27,-11.1368 2340.25,-7.69064 2340.29,-14.6905"/>
</g>
<!-- Node112&#45;&gt;Node4 -->
<g id="edge74" class="edge"><title>Node112&#45;&gt;Node4</title>
<path fill="none" stroke="midnightblue" d="M1105.46,-376.466C1136.1,-357.509 1214.02,-311.992 1286,-292 1423.65,-253.766 1591.54,-246.668 1685.75,-246.077"/>
<polygon fill="midnightblue" stroke="midnightblue" points="1685.76,-249.578 1695.75,-246.038 1685.74,-242.578 1685.76,-249.578"/>
</g>
<!-- Node112&#45;&gt;Node89 -->
<g id="edge75" class="edge"><title>Node112&#45;&gt;Node89</title>
<path fill="none" stroke="midnightblue" d="M1092,-376.294C1092,-366.921 1092,-351.59 1092,-338.483"/>
<polygon fill="midnightblue" stroke="midnightblue" points="1095.5,-338.176 1092,-328.176 1088.5,-338.176 1095.5,-338.176"/>
</g>
<!-- Node121&#45;&gt;Node2 -->
<g id="edge77" class="edge"><title>Node121&#45;&gt;Node2</title>
<path fill="none" stroke="midnightblue" d="M2869.52,-444.116C2972.61,-426.613 3154,-377.303 3154,-247 3154,-247 3154,-247 3154,-121 3154,-84.2802 3135.51,-73.0812 3103,-56 3042.45,-24.1812 2562.66,-13.9441 2419.92,-11.587"/>
<polygon fill="midnightblue" stroke="midnightblue" points="2419.91,-8.08637 2409.85,-11.4246 2419.79,-15.0855 2419.91,-8.08637"/>
</g>
<!-- Node121&#45;&gt;Node4 -->
<g id="edge78" class="edge"><title>Node121&#45;&gt;Node4</title>
<path fill="none" stroke="midnightblue" d="M2730.43,-446.196C2645.92,-437.579 2499.12,-421.482 2374,-402 2334.42,-395.838 2054.91,-353.642 2020,-334 1998.06,-321.655 2003.88,-304.448 1982,-292 1936.36,-266.036 1877.98,-254.903 1832.41,-250.199"/>
<polygon fill="midnightblue" stroke="midnightblue" points="1832.58,-246.7 1822.3,-249.239 1831.92,-253.669 1832.58,-246.7"/>
</g>
<!-- Node121&#45;&gt;Node44 -->
<g id="edge79" class="edge"><title>Node121&#45;&gt;Node44</title>
<path fill="none" stroke="midnightblue" d="M2799.3,-438.79C2799.19,-420.585 2801.78,-389.109 2819,-370 2827.58,-360.473 2897.47,-338.798 2943.2,-325.381"/>
<polygon fill="midnightblue" stroke="midnightblue" points="2944.23,-328.729 2952.85,-322.569 2942.27,-322.009 2944.23,-328.729"/>
</g>
<!-- Node121&#45;&gt;Node122 -->
<g id="edge80" class="edge"><title>Node121&#45;&gt;Node122</title>
<path fill="none" stroke="midnightblue" d="M2821.26,-438.679C2835.1,-429.361 2853.33,-417.082 2868.56,-406.83"/>
<polygon fill="midnightblue" stroke="midnightblue" points="2870.77,-409.555 2877.11,-401.066 2866.86,-403.749 2870.77,-409.555"/>
</g>
<!-- Node122&#45;&gt;Node2 -->
<g id="edge81" class="edge"><title>Node122&#45;&gt;Node2</title>
<path fill="none" stroke="midnightblue" d="M2967.58,-371.412C3031.38,-354.433 3116,-318.445 3116,-247 3116,-247 3116,-247 3116,-121 3116,-87.3101 3105.77,-73.5353 3077,-56 3020.87,-21.7842 2559.71,-13.246 2419.98,-11.4347"/>
<polygon fill="midnightblue" stroke="midnightblue" points="2419.77,-7.93193 2409.72,-11.3065 2419.68,-14.9314 2419.77,-7.93193"/>
</g>
<!-- Node122&#45;&gt;Node4 -->
<g id="edge82" class="edge"><title>Node122&#45;&gt;Node4</title>
<path fill="none" stroke="midnightblue" d="M2828.45,-381.314C2647.05,-371.568 2171.3,-345.107 2139,-334 2107.53,-323.176 2108.05,-303.973 2077,-292 1997,-261.155 1898.37,-251.129 1832.36,-248.041"/>
<polygon fill="midnightblue" stroke="midnightblue" points="1832.19,-244.53 1822.05,-247.602 1831.89,-251.524 1832.19,-244.53"/>
</g>
<!-- Node122&#45;&gt;Node44 -->
<g id="edge83" class="edge"><title>Node122&#45;&gt;Node44</title>
<path fill="none" stroke="midnightblue" d="M2914.79,-370.973C2929.19,-358.946 2949.89,-341.653 2964.71,-329.278"/>
<polygon fill="midnightblue" stroke="midnightblue" points="2967.23,-331.734 2972.66,-322.637 2962.74,-326.362 2967.23,-331.734"/>
</g>
<!-- Node125&#45;&gt;Node2 -->
<g id="edge86" class="edge"><title>Node125&#45;&gt;Node2</title>
<path fill="none" stroke="midnightblue" d="M2054.09,-519.766C2230.47,-515.98 2720.38,-502.74 2878,-470 3045.59,-435.188 3192,-418.169 3192,-247 3192,-247 3192,-247 3192,-121 3192,-81.6849 3167.53,-72.8373 3132,-56 3067.5,-25.4329 2566.24,-14.2758 2419.95,-11.6519"/>
<polygon fill="midnightblue" stroke="midnightblue" points="2419.71,-8.14721 2409.65,-11.4708 2419.59,-15.1461 2419.71,-8.14721"/>
</g>
<!-- Node125&#45;&gt;Node4 -->
<g id="edge88" class="edge"><title>Node125&#45;&gt;Node4</title>
<path fill="none" stroke="midnightblue" d="M1978.39,-506.993C1948.61,-471.096 1867,-372.94 1798,-292 1789.85,-282.441 1780.65,-271.819 1773.24,-263.296"/>
<polygon fill="midnightblue" stroke="midnightblue" points="1775.73,-260.829 1766.52,-255.591 1770.45,-265.429 1775.73,-260.829"/>
</g>
<!-- Node125&#45;&gt;Node33 -->
<g id="edge89" class="edge"><title>Node125&#45;&gt;Node33</title>
<path fill="none" stroke="midnightblue" d="M1999.9,-506.887C2015.49,-483.251 2044,-433.652 2044,-387 2044,-387 2044,-387 2044,-312 2044,-285.242 2419.78,-220.305 2571.54,-195.171"/>
<polygon fill="midnightblue" stroke="midnightblue" points="2572.35,-198.586 2581.64,-193.502 2571.2,-191.679 2572.35,-198.586"/>
</g>
<!-- Node125&#45;&gt;Node121 -->
<g id="edge90" class="edge"><title>Node125&#45;&gt;Node121</title>
<path fill="none" stroke="midnightblue" d="M2054.24,-515.766C2200.79,-503.825 2559.51,-474.596 2720.05,-461.515"/>
<polygon fill="midnightblue" stroke="midnightblue" points="2720.65,-464.977 2730.33,-460.677 2720.08,-458 2720.65,-464.977"/>
</g>
<!-- Node59 -->
<g id="node38" class="node"><title>Node59</title>
<polygon fill="white" stroke="#bfbfbf" points="1854.5,-444.5 1854.5,-463.5 1901.5,-463.5 1901.5,-444.5 1854.5,-444.5"/>
<text text-anchor="middle" x="1878" y="-451.5" font-family="FreeSans" font-size="10.00">vector</text>
</g>
<!-- Node125&#45;&gt;Node59 -->
<g id="edge87" class="edge"><title>Node125&#45;&gt;Node59</title>
<path fill="none" stroke="midnightblue" d="M1965.97,-506.841C1946.95,-495.63 1920.52,-480.056 1901.6,-468.91"/>
<polygon fill="midnightblue" stroke="midnightblue" points="1903.13,-465.743 1892.73,-463.682 1899.57,-471.774 1903.13,-465.743"/>
</g>
<!-- Node153&#45;&gt;Node2 -->
<g id="edge92" class="edge"><title>Node153&#45;&gt;Node2</title>
<path fill="none" stroke="midnightblue" d="M2342.02,-293.563C2345.05,-293.03 2348.05,-292.508 2351,-292 2535.48,-260.291 2632.61,-335.269 2762,-200 2783.61,-177.408 2775.97,-163.002 2780,-132 2781.15,-123.185 2783.91,-119.985 2780,-112 2762.19,-75.5827 2745.36,-71.7381 2708,-56 2656.71,-34.3956 2495.35,-19.7276 2419.77,-13.8637"/>
<polygon fill="midnightblue" stroke="midnightblue" points="2419.94,-10.3661 2409.7,-13.0949 2419.41,-17.3458 2419.94,-10.3661"/>
</g>
<!-- Node153&#45;&gt;Node4 -->
<g id="edge94" class="edge"><title>Node153&#45;&gt;Node4</title>
<path fill="none" stroke="midnightblue" d="M2147.9,-294.163C2143.2,-293.408 2138.55,-292.682 2134,-292 2029.64,-276.351 1908.3,-262.594 1832.56,-254.534"/>
<polygon fill="midnightblue" stroke="midnightblue" points="1832.5,-251.008 1822.19,-253.435 1831.76,-257.969 1832.5,-251.008"/>
</g>
<!-- Node153&#45;&gt;Node14 -->
<g id="edge93" class="edge"><title>Node153&#45;&gt;Node14</title>
<path fill="none" stroke="midnightblue" d="M2342.27,-293.149C2483.19,-265.404 2728.83,-215.214 2742,-200 2755.75,-184.115 2754.92,-158.832 2752.2,-141.604"/>
<polygon fill="midnightblue" stroke="midnightblue" points="2755.61,-140.784 2750.28,-131.626 2748.73,-142.108 2755.61,-140.784"/>
</g>
<!-- Node158&#45;&gt;Node2 -->
<g id="edge96" class="edge"><title>Node158&#45;&gt;Node2</title>
<path fill="none" stroke="midnightblue" d="M2534.07,-293.58C2537.08,-293.032 2540.06,-292.504 2543,-292 2630.1,-277.053 2926,-273.37 2926,-185 2926,-185 2926,-185 2926,-121 2926,-81.0766 2899.93,-73.3963 2864,-56 2785.87,-18.176 2520.76,-12.0829 2419.64,-11.1486"/>
<polygon fill="midnightblue" stroke="midnightblue" points="2419.56,-7.64794 2409.53,-11.0676 2419.5,-14.6477 2419.56,-7.64794"/>
</g>
<!-- Node158&#45;&gt;Node4 -->
<g id="edge98" class="edge"><title>Node158&#45;&gt;Node4</title>
<path fill="none" stroke="midnightblue" d="M2359.84,-293.484C2356.52,-292.952 2353.24,-292.455 2350,-292 2164.72,-265.954 1944.5,-254.206 1832.43,-249.584"/>
<polygon fill="midnightblue" stroke="midnightblue" points="1832.39,-246.08 1822.26,-249.172 1832.11,-253.074 1832.39,-246.08"/>
</g>
<!-- Node158&#45;&gt;Node14 -->
<g id="edge97" class="edge"><title>Node158&#45;&gt;Node14</title>
<path fill="none" stroke="midnightblue" d="M2534.08,-293.623C2537.09,-293.064 2540.07,-292.521 2543,-292 2597.18,-282.384 2752.03,-297.644 2788,-256 2813.57,-226.402 2801.9,-204.558 2788,-168 2783.66,-156.598 2774.97,-146.239 2766.79,-138.343"/>
<polygon fill="midnightblue" stroke="midnightblue" points="2769.04,-135.66 2759.27,-131.573 2764.36,-140.863 2769.04,-135.66"/>
</g>
<!-- Node161&#45;&gt;Node2 -->
<g id="edge101" class="edge"><title>Node161&#45;&gt;Node2</title>
<path fill="none" stroke="midnightblue" d="M1240.39,-513.7C1151.98,-501.016 982.811,-469.518 855,-402 814.038,-380.361 795.314,-376.109 776,-334 745.08,-266.589 757.656,-233.2 793,-168 809.625,-137.331 822.111,-135.383 848,-112 877.567,-85.2953 880.612,-69.7647 918,-56 1054.65,-5.6924 2120.07,-9.40872 2340.26,-10.7264"/>
<polygon fill="midnightblue" stroke="midnightblue" points="2340.37,-14.227 2350.39,-10.7889 2340.42,-7.22714 2340.37,-14.227"/>
</g>
<!-- Node161&#45;&gt;Node4 -->
<g id="edge103" class="edge"><title>Node161&#45;&gt;Node4</title>
<path fill="none" stroke="midnightblue" d="M1303.79,-512.341C1312.37,-492.711 1333.96,-443.324 1352,-402 1373.35,-353.117 1357.28,-323.941 1400,-292 1443.82,-259.235 1594.27,-250.225 1685.91,-247.812"/>
<polygon fill="midnightblue" stroke="midnightblue" points="1686.05,-251.309 1695.96,-247.567 1685.88,-244.311 1686.05,-251.309"/>
</g>
<!-- Node161&#45;&gt;Node35 -->
<g id="edge104" class="edge"><title>Node161&#45;&gt;Node35</title>
<path fill="none" stroke="midnightblue" d="M1300,-512.46C1299.58,-480.016 1294.06,-362.667 1238,-292 1205.37,-250.872 1180.97,-259.455 1134,-236 1099.84,-218.941 1076.99,-231.891 1056,-200 1044.77,-182.938 1046.23,-158.823 1049.23,-142.147"/>
<polygon fill="midnightblue" stroke="midnightblue" points="1052.74,-142.48 1051.42,-131.968 1045.9,-141.008 1052.74,-142.48"/>
</g>
<!-- Node161&#45;&gt;Node59 -->
<g id="edge102" class="edge"><title>Node161&#45;&gt;Node59</title>
<path fill="none" stroke="midnightblue" d="M1359.68,-514.185C1480.21,-500.422 1749.28,-469.698 1844.12,-458.868"/>
<polygon fill="midnightblue" stroke="midnightblue" points="1844.75,-462.319 1854.29,-457.707 1843.96,-455.364 1844.75,-462.319"/>
</g>
<!-- Node163&#45;&gt;Node1 -->
<g id="edge107" class="edge"><title>Node163&#45;&gt;Node1</title>
<path fill="none" stroke="midnightblue" d="M1240.4,-630.467C1143.08,-617.041 958.657,-587.307 808,-538 790.896,-532.402 675.702,-480.379 661,-470 542.125,-386.075 562.106,-301.171 432,-236 323.758,-181.781 250.076,-283.058 162,-200 114.796,-155.485 111.028,-115.011 138,-56 143.777,-43.3602 155.052,-32.911 165.631,-25.2737"/>
<polygon fill="midnightblue" stroke="midnightblue" points="167.849,-28.0009 174.217,-19.5333 163.958,-22.1817 167.849,-28.0009"/>
</g>
<!-- Node163&#45;&gt;Node2 -->
<g id="edge106" class="edge"><title>Node163&#45;&gt;Node2</title>
<path fill="none" stroke="midnightblue" d="M1270.57,-630.454C1179.16,-607.895 941.476,-538.861 797,-402 682.193,-293.244 733.762,-116.19 880,-56 949.369,-27.4481 2108.31,-13.8449 2339.91,-11.405"/>
<polygon fill="midnightblue" stroke="midnightblue" points="2340.27,-14.9016 2350.23,-11.2973 2340.2,-7.90196 2340.27,-14.9016"/>
</g>
<!-- Node163&#45;&gt;Node4 -->
<g id="edge108" class="edge"><title>Node163&#45;&gt;Node4</title>
<path fill="none" stroke="midnightblue" d="M1325.03,-630.44C1354.99,-614.032 1414,-575.106 1414,-523 1414,-523 1414,-523 1414,-385 1414,-335.324 1434.18,-318.817 1476,-292 1509.78,-270.338 1613.36,-258.108 1685.36,-252.024"/>
<polygon fill="midnightblue" stroke="midnightblue" points="1686.06,-255.478 1695.74,-251.171 1685.49,-248.502 1686.06,-255.478"/>
</g>
<!-- Node163&#45;&gt;Node43 -->
<g id="edge109" class="edge"><title>Node163&#45;&gt;Node43</title>
<path fill="none" stroke="midnightblue" d="M1385.84,-633.699C1538.15,-623.328 1873.8,-600.471 2024.79,-590.19"/>
<polygon fill="midnightblue" stroke="midnightblue" points="2025.16,-593.673 2034.9,-589.501 2024.68,-586.689 2025.16,-593.673"/>
</g>
<!-- Node166&#45;&gt;Node1 -->
<g id="edge112" class="edge"><title>Node166&#45;&gt;Node1</title>
<path fill="none" stroke="midnightblue" d="M1517.78,-698.425C1365.13,-690.676 1004.46,-659.842 732,-538 707.915,-527.229 704.65,-519.531 682,-506 441.859,-362.537 297.493,-425.524 132,-200 94.1037,-148.357 92.5225,-110.611 126,-56 134.283,-42.4884 148.31,-31.9453 161.125,-24.4716"/>
<polygon fill="midnightblue" stroke="midnightblue" points="163.026,-27.4222 170.143,-19.5735 159.685,-21.2711 163.026,-27.4222"/>
</g>
<!-- Node166&#45;&gt;Node2 -->
<g id="edge111" class="edge"><title>Node166&#45;&gt;Node2</title>
<path fill="none" stroke="midnightblue" d="M1664.27,-687.284C1667.21,-686.832 1670.13,-686.402 1673,-686 2342.12,-592.241 2551.61,-770.511 3186,-538 3246.89,-515.684 3306,-519.848 3306,-455 3306,-455 3306,-455 3306,-121 3306,-77.8889 3273.82,-72.5296 3234,-56 3158.35,-24.5939 2578.52,-13.8945 2419.96,-11.5399"/>
<polygon fill="midnightblue" stroke="midnightblue" points="2419.76,-8.03674 2409.71,-11.3907 2419.66,-15.036 2419.76,-8.03674"/>
</g>
<!-- Node166&#45;&gt;Node4 -->
<g id="edge113" class="edge"><title>Node166&#45;&gt;Node4</title>
<path fill="none" stroke="midnightblue" d="M1591,-686.713C1591,-664.82 1591,-621.653 1591,-585 1591,-585 1591,-585 1591,-385 1591,-317.943 1671.91,-277.497 1721.43,-259.022"/>
<polygon fill="midnightblue" stroke="midnightblue" points="1722.66,-262.299 1730.88,-255.619 1720.29,-255.713 1722.66,-262.299"/>
</g>
<!-- Node166&#45;&gt;Node43 -->
<g id="edge114" class="edge"><title>Node166&#45;&gt;Node43</title>
<path fill="none" stroke="midnightblue" d="M1651.66,-686.956C1713.95,-672.56 1813.71,-649.573 1900,-630 1952.08,-618.187 2011.8,-604.842 2052.52,-595.773"/>
<polygon fill="midnightblue" stroke="midnightblue" points="2053.45,-599.152 2062.45,-593.563 2051.93,-592.319 2053.45,-599.152"/>
</g>
<!-- Node166&#45;&gt;Node163 -->
<g id="edge115" class="edge"><title>Node166&#45;&gt;Node163</title>
<path fill="none" stroke="midnightblue" d="M1524.65,-686.933C1473.66,-676.122 1404.33,-661.424 1357.97,-651.594"/>
<polygon fill="midnightblue" stroke="midnightblue" points="1358.66,-648.163 1348.15,-649.513 1357.21,-655.011 1358.66,-648.163"/>
</g>
<!-- Node168&#45;&gt;Node2 -->
<g id="edge117" class="edge"><title>Node168&#45;&gt;Node2</title>
<path fill="none" stroke="midnightblue" d="M1152.47,-692.449C1104.17,-683.618 1028.86,-668.535 965,-650 798.527,-601.684 729.918,-603.21 619,-470 532.287,-365.861 481.128,-263.773 577,-168 615.491,-129.549 651.432,-165.881 694,-132 724.538,-107.694 704.457,-75.9562 738,-56 808.976,-13.7729 2096.33,-11.1207 2340.28,-10.9979"/>
<polygon fill="midnightblue" stroke="midnightblue" points="2340.46,-14.4979 2350.46,-10.994 2340.46,-7.49794 2340.46,-14.4979"/>
</g>
<!-- Node168&#45;&gt;Node4 -->
<g id="edge118" class="edge"><title>Node168&#45;&gt;Node4</title>
<path fill="none" stroke="midnightblue" d="M1201.26,-692.316C1197.59,-642.59 1186.49,-392.676 1324,-292 1352.47,-271.157 1568.95,-256.856 1685.4,-250.587"/>
<polygon fill="midnightblue" stroke="midnightblue" points="1685.86,-254.067 1695.66,-250.041 1685.49,-247.077 1685.86,-254.067"/>
</g>
<!-- Node168&#45;&gt;Node161 -->
<g id="edge119" class="edge"><title>Node168&#45;&gt;Node161</title>
<path fill="none" stroke="midnightblue" d="M1203.25,-692.33C1205.46,-678.578 1210.81,-651.154 1221,-630 1238,-594.684 1267.19,-559.157 1284.93,-539.227"/>
<polygon fill="midnightblue" stroke="midnightblue" points="1287.64,-541.447 1291.76,-531.686 1282.45,-536.747 1287.64,-541.447"/>
</g>
<!-- Node168&#45;&gt;Node163 -->
<g id="edge120" class="edge"><title>Node168&#45;&gt;Node163</title>
<path fill="none" stroke="midnightblue" d="M1217.19,-692.403C1234.66,-682.512 1263.58,-666.144 1284.08,-654.538"/>
<polygon fill="midnightblue" stroke="midnightblue" points="1285.86,-657.553 1292.84,-649.581 1282.41,-651.461 1285.86,-657.553"/>
</g>
<!-- Node187&#45;&gt;Node2 -->
<g id="edge122" class="edge"><title>Node187&#45;&gt;Node2</title>
<path fill="none" stroke="midnightblue" d="M864.268,-379.642C833.608,-373.433 800.039,-360.526 781,-334 777.021,-328.456 781.024,-243.224 783,-236 792.078,-202.813 797.472,-194.005 820,-168 874.477,-105.115 891.47,-83.482 970,-56 1102.21,-9.73335 2124.06,-10.2211 2340,-10.8486"/>
<polygon fill="midnightblue" stroke="midnightblue" points="2340.23,-14.3492 2350.24,-10.8803 2340.25,-7.34925 2340.23,-14.3492"/>
</g>
<!-- Node187&#45;&gt;Node4 -->
<g id="edge123" class="edge"><title>Node187&#45;&gt;Node4</title>
<path fill="none" stroke="midnightblue" d="M943.834,-370.928C964.898,-346.054 1007.57,-296.5 1017,-292 1076.24,-263.718 1509.95,-251.968 1685.52,-248.335"/>
<polygon fill="midnightblue" stroke="midnightblue" points="1685.77,-251.831 1695.7,-248.128 1685.63,-244.832 1685.77,-251.831"/>
</g>
<!-- Node187&#45;&gt;Node89 -->
<g id="edge124" class="edge"><title>Node187&#45;&gt;Node89</title>
<path fill="none" stroke="midnightblue" d="M963.611,-370.973C988.621,-359.874 1023.74,-344.291 1050.93,-332.227"/>
<polygon fill="midnightblue" stroke="midnightblue" points="1052.46,-335.375 1060.18,-328.12 1049.62,-328.976 1052.46,-335.375"/>
</g>
<!-- Node196&#45;&gt;Node1 -->
<g id="edge127" class="edge"><title>Node196&#45;&gt;Node1</title>
<path fill="none" stroke="midnightblue" d="M1690.85,-686.973C1556,-653.918 1212.08,-566.614 932,-470 856.63,-444.001 837.964,-436.319 766,-402 627.402,-335.903 607.931,-286.729 463,-236 374.862,-205.15 331.562,-254.867 256,-200 200.455,-159.667 191.332,-69.073 190.063,-29.7771"/>
<polygon fill="midnightblue" stroke="midnightblue" points="193.562,-29.6718 189.879,-19.7374 186.563,-29.7997 193.562,-29.6718"/>
</g>
<!-- Node196&#45;&gt;Node2 -->
<g id="edge126" class="edge"><title>Node196&#45;&gt;Node2</title>
<path fill="none" stroke="midnightblue" d="M1816.01,-699.692C2118.74,-693.349 3344,-662.87 3344,-585 3344,-585 3344,-585 3344,-121 3344,-90.2048 3344.84,-74.2041 3320,-56 3283.17,-29.0109 2593.82,-14.8422 2419.69,-11.6846"/>
<polygon fill="midnightblue" stroke="midnightblue" points="2419.73,-8.18491 2409.67,-11.5048 2419.61,-15.1838 2419.73,-8.18491"/>
</g>
<!-- Node196&#45;&gt;Node4 -->
<g id="edge128" class="edge"><title>Node196&#45;&gt;Node4</title>
<path fill="none" stroke="midnightblue" d="M1729.98,-686.812C1705.76,-666.957 1667,-628.406 1667,-585 1667,-585 1667,-585 1667,-385 1667,-332.81 1713.12,-285.346 1740.05,-262.077"/>
<polygon fill="midnightblue" stroke="midnightblue" points="1742.3,-264.758 1747.72,-255.654 1737.81,-259.391 1742.3,-264.758"/>
</g>
<!-- Node196&#45;&gt;Node43 -->
<g id="edge129" class="edge"><title>Node196&#45;&gt;Node43</title>
<path fill="none" stroke="midnightblue" d="M1791.81,-686.892C1861.9,-663.795 1999.85,-618.333 2065.13,-596.819"/>
<polygon fill="midnightblue" stroke="midnightblue" points="2066.56,-600.033 2074.97,-593.579 2064.37,-593.385 2066.56,-600.033"/>
</g>
<!-- Node196&#45;&gt;Node163 -->
<g id="edge130" class="edge"><title>Node196&#45;&gt;Node163</title>
<path fill="none" stroke="midnightblue" d="M1681.91,-687.486C1678.9,-686.966 1675.92,-686.468 1673,-686 1578.77,-670.912 1470.14,-658.102 1396.06,-650.054"/>
<polygon fill="midnightblue" stroke="midnightblue" points="1396.16,-646.544 1385.84,-648.95 1395.41,-653.504 1396.16,-646.544"/>
</g>
<!-- Node198&#45;&gt;Node1 -->
<g id="edge133" class="edge"><title>Node198&#45;&gt;Node1</title>
<path fill="none" stroke="midnightblue" d="M862.93,-686.964C703.66,-645.023 259.679,-504.221 77,-200 43.8746,-144.835 24.8032,-108.506 62,-56 83.5598,-25.5671 127.414,-15.5652 157.738,-12.3631"/>
<polygon fill="midnightblue" stroke="midnightblue" points="158.178,-15.8382 167.84,-11.4917 157.577,-8.86406 158.178,-15.8382"/>
</g>
<!-- Node198&#45;&gt;Node2 -->
<g id="edge132" class="edge"><title>Node198&#45;&gt;Node2</title>
<path fill="none" stroke="midnightblue" d="M893.272,-686.905C836.786,-656.41 709.618,-578.23 661,-470 619.965,-378.65 745.924,-92.9514 839,-56 910.776,-27.5047 2105.96,-13.8107 2340.31,-11.3932"/>
<polygon fill="midnightblue" stroke="midnightblue" points="2340.47,-14.8919 2350.43,-11.2897 2340.39,-7.89226 2340.47,-14.8919"/>
</g>
<!-- Node198&#45;&gt;Node4 -->
<g id="edge134" class="edge"><title>Node198&#45;&gt;Node4</title>
<path fill="none" stroke="midnightblue" d="M936.064,-686.918C1012.29,-615.685 1352.44,-298.194 1366,-292 1421.27,-266.741 1587.96,-254.899 1685.59,-249.995"/>
<polygon fill="midnightblue" stroke="midnightblue" points="1685.87,-253.486 1695.69,-249.501 1685.53,-246.494 1685.87,-253.486"/>
</g>
<!-- Node198&#45;&gt;Node35 -->
<g id="edge137" class="edge"><title>Node198&#45;&gt;Node35</title>
<path fill="none" stroke="midnightblue" d="M931.121,-686.94C941.615,-672.483 958.61,-649.403 974,-630 1015.16,-578.104 1142.83,-464.055 1166,-402 1183.1,-356.197 1188.89,-335.715 1167,-292 1136.43,-230.96 1074.57,-261.04 1044,-200 1034.69,-181.412 1040.23,-157.275 1046.1,-141.021"/>
<polygon fill="midnightblue" stroke="midnightblue" points="1049.4,-142.201 1049.86,-131.616 1042.9,-139.605 1049.4,-142.201"/>
</g>
<!-- Node198&#45;&gt;Node43 -->
<g id="edge135" class="edge"><title>Node198&#45;&gt;Node43</title>
<path fill="none" stroke="midnightblue" d="M968.291,-686.992C1026.98,-670.265 1130.4,-642.929 1221,-630 1515.97,-587.908 1871.5,-583.817 2024.69,-584.268"/>
<polygon fill="midnightblue" stroke="midnightblue" points="2024.91,-587.769 2034.92,-584.306 2024.94,-580.769 2024.91,-587.769"/>
</g>
<!-- Node198&#45;&gt;Node163 -->
<g id="edge136" class="edge"><title>Node198&#45;&gt;Node163</title>
<path fill="none" stroke="midnightblue" d="M985.533,-687.693C988.731,-687.104 991.9,-686.537 995,-686 1075.23,-672.113 1167.56,-659.212 1231.03,-650.817"/>
<polygon fill="midnightblue" stroke="midnightblue" points="1231.51,-654.284 1240.97,-649.509 1230.6,-647.344 1231.51,-654.284"/>
</g>
<!-- Node341&#45;&gt;Node2 -->
<g id="edge140" class="edge"><title>Node341&#45;&gt;Node2</title>
<path fill="none" stroke="midnightblue" d="M3066.4,-512.448C3129.32,-498.393 3230,-463.891 3230,-387 3230,-387 3230,-387 3230,-121 3230,-79.8295 3201.63,-72.6956 3164,-56 3095.7,-25.6975 2569.38,-14.2932 2419.63,-11.6427"/>
<polygon fill="midnightblue" stroke="midnightblue" points="2419.57,-8.14125 2409.51,-11.4669 2419.45,-15.1402 2419.57,-8.14125"/>
</g>
<!-- Node341&#45;&gt;Node4 -->
<g id="edge139" class="edge"><title>Node341&#45;&gt;Node4</title>
<path fill="none" stroke="midnightblue" d="M2941.73,-515.229C2793.75,-502.81 2455.22,-469.084 2178,-402 2088.38,-380.314 2068.52,-365.873 1982,-334 1912.72,-308.478 1832.2,-276.479 1789.4,-259.285"/>
<polygon fill="midnightblue" stroke="midnightblue" points="1790.7,-256.033 1780.11,-255.546 1788.08,-262.527 1790.7,-256.033"/>
</g>
<!-- Node341&#45;&gt;Node6 -->
<g id="edge142" class="edge"><title>Node341&#45;&gt;Node6</title>
<path fill="none" stroke="midnightblue" d="M3022.22,-512.474C3040.76,-481.025 3100.07,-369.35 3058,-292 2984.65,-157.122 2794.2,-96.6516 2710.03,-75.895"/>
<polygon fill="midnightblue" stroke="midnightblue" points="2710.61,-72.4347 2700.07,-73.5025 2708.97,-79.2412 2710.61,-72.4347"/>
</g>
<!-- Node341&#45;&gt;Node44 -->
<g id="edge143" class="edge"><title>Node341&#45;&gt;Node44</title>
<path fill="none" stroke="midnightblue" d="M3015.58,-512.369C3010.51,-481.464 2993.16,-375.868 2986.06,-332.659"/>
<polygon fill="midnightblue" stroke="midnightblue" points="2989.5,-331.968 2984.42,-322.668 2982.59,-333.103 2989.5,-331.968"/>
</g>
<!-- Node341&#45;&gt;Node121 -->
<g id="edge144" class="edge"><title>Node341&#45;&gt;Node121</title>
<path fill="none" stroke="midnightblue" d="M2988.63,-512.372C2955.06,-502.16 2898.36,-484.915 2855.87,-471.992"/>
<polygon fill="midnightblue" stroke="midnightblue" points="2856.8,-468.618 2846.22,-469.056 2854.76,-475.315 2856.8,-468.618"/>
</g>
<!-- Node341&#45;&gt;Node59 -->
<g id="edge141" class="edge"><title>Node341&#45;&gt;Node59</title>
<path fill="none" stroke="midnightblue" d="M2941.83,-516.644C2719.06,-503.736 2068.27,-466.025 1912.01,-456.971"/>
<polygon fill="midnightblue" stroke="midnightblue" points="1911.82,-453.454 1901.63,-456.369 1911.41,-460.442 1911.82,-453.454"/>
</g>
<!-- Node265&#45;&gt;Node2 -->
<g id="edge147" class="edge"><title>Node265&#45;&gt;Node2</title>
<path fill="none" stroke="midnightblue" d="M872.931,-297.904C871.565,-270.382 872.121,-208.641 900,-168 969.101,-67.2652 1030.59,-76.5596 1151,-56 1387.65,-15.5942 2156.93,-11.452 2340.43,-11.042"/>
<polygon fill="midnightblue" stroke="midnightblue" points="2340.46,-14.5421 2350.45,-11.0221 2340.44,-7.54208 2340.46,-14.5421"/>
</g>
<!-- Node265&#45;&gt;Node4 -->
<g id="edge148" class="edge"><title>Node265&#45;&gt;Node4</title>
<path fill="none" stroke="midnightblue" d="M931.745,-300.136C948.533,-297.057 966.943,-294.038 984,-292 1240.87,-261.307 1548.24,-251.342 1685.97,-248.277"/>
<polygon fill="midnightblue" stroke="midnightblue" points="1686.06,-251.776 1695.99,-248.06 1685.91,-244.778 1686.06,-251.776"/>
</g>
<!-- Node265&#45;&gt;Node35 -->
<g id="edge149" class="edge"><title>Node265&#45;&gt;Node35</title>
<path fill="none" stroke="midnightblue" d="M875.181,-297.585C878.289,-268.943 889.195,-204.495 926,-168 945.418,-148.746 973.547,-137.7 998.493,-131.378"/>
<polygon fill="midnightblue" stroke="midnightblue" points="999.29,-134.786 1008.23,-129.102 997.697,-127.97 999.29,-134.786"/>
</g>
</g>
</svg>
