<?xml version="1.0" encoding="UTF-8" standalone="no"?>
<!DOCTYPE svg PUBLIC "-//W3C//DTD SVG 1.1//EN"
 "http://www.w3.org/Graphics/SVG/1.1/DTD/svg11.dtd">
<!-- Generated by graphviz version 2.36.0 (20140111.2315)
 -->
<!-- Title: freemanChainDisplay.cpp Pages: 1 -->
<svg width="3235pt" height="716pt"
 viewBox="0.00 0.00 3234.68 716.00" xmlns="http://www.w3.org/2000/svg" xmlns:xlink="http://www.w3.org/1999/xlink">
<g id="graph0" class="graph" transform="scale(1 1) rotate(0) translate(4 712)">
<title>freemanChainDisplay.cpp</title>
<polygon fill="white" stroke="none" points="-4,4 -4,-712 3230.68,-712 3230.68,4 -4,4"/>
<!-- Node0 -->
<g id="node1" class="node"><title>Node0</title>
<polygon fill="#bfbfbf" stroke="black" points="2201.18,-688.5 2201.18,-707.5 2338.18,-707.5 2338.18,-688.5 2201.18,-688.5"/>
<text text-anchor="middle" x="2269.68" y="-695.5" font-family="FreeSans" font-size="10.00">freemanChainDisplay.cpp</text>
</g>
<!-- Node1 -->
<g id="node2" class="node"><title>Node1</title>
<polygon fill="white" stroke="#bfbfbf" points="1291.18,-0.5 1291.18,-19.5 1350.18,-19.5 1350.18,-0.5 1291.18,-0.5"/>
<text text-anchor="middle" x="1320.68" y="-7.5" font-family="FreeSans" font-size="10.00">iostream</text>
</g>
<!-- Node0&#45;&gt;Node1 -->
<g id="edge1" class="edge"><title>Node0&#45;&gt;Node1</title>
<path fill="none" stroke="midnightblue" d="M2201.07,-696.753C1828.61,-695.276 64.662,-686.466 20.678,-652 -5.03413,-631.852 1.67804,-613.666 1.67804,-581 1.67804,-581 1.67804,-581 1.67804,-121 1.67804,-63.8306 57.7906,-71.991 112.678,-56 226.813,-22.7478 1085.22,-13.1058 1281.01,-11.3288"/>
<polygon fill="midnightblue" stroke="midnightblue" points="1281.16,-14.8277 1291.13,-11.2386 1281.1,-7.82796 1281.16,-14.8277"/>
</g>
<!-- Node2 -->
<g id="node3" class="node"><title>Node2</title>
<polygon fill="white" stroke="#bfbfbf" points="29.678,-632.5 29.678,-651.5 83.678,-651.5 83.678,-632.5 29.678,-632.5"/>
<text text-anchor="middle" x="56.678" y="-639.5" font-family="FreeSans" font-size="10.00">fstream</text>
</g>
<!-- Node0&#45;&gt;Node2 -->
<g id="edge2" class="edge"><title>Node0&#45;&gt;Node2</title>
<path fill="none" stroke="midnightblue" d="M2201.13,-696.377C1855.31,-693.128 310.337,-677.297 97.678,-652 96.4162,-651.85 95.136,-651.678 93.8458,-651.489"/>
<polygon fill="midnightblue" stroke="midnightblue" points="94.3516,-648.025 83.8986,-649.753 93.1475,-654.92 94.3516,-648.025"/>
</g>
<!-- Node3 -->
<g id="node4" class="node"><title>Node3</title>
<g id="a_node4"><a xlink:href="Common_8h_source.html" target="_top" xlink:title="DGtal/base/Common.h">
<polygon fill="white" stroke="black" points="1670.68,-236.5 1670.68,-255.5 1796.68,-255.5 1796.68,-236.5 1670.68,-236.5"/>
<text text-anchor="middle" x="1733.68" y="-243.5" font-family="FreeSans" font-size="10.00">DGtal/base/Common.h</text>
</a>
</g>
</g>
<!-- Node0&#45;&gt;Node3 -->
<g id="edge3" class="edge"><title>Node0&#45;&gt;Node3</title>
<path fill="none" stroke="midnightblue" d="M2200.93,-693.095C2077.18,-684.17 1829.68,-656.839 1829.68,-581 1829.68,-581 1829.68,-581 1829.68,-375 1829.68,-325.408 1782.99,-282.733 1754.73,-261.446"/>
<polygon fill="midnightblue" stroke="midnightblue" points="1756.77,-258.601 1746.63,-255.543 1752.65,-264.259 1756.77,-258.601"/>
</g>
<!-- Node30 -->
<g id="node22" class="node"><title>Node30</title>
<g id="a_node22"><a xlink:href="BasicTypes_8h_source.html" target="_top" xlink:title="DGtal/base/BasicTypes.h">
<polygon fill="white" stroke="black" points="313.678,-174.5 313.678,-193.5 447.678,-193.5 447.678,-174.5 313.678,-174.5"/>
<text text-anchor="middle" x="380.678" y="-181.5" font-family="FreeSans" font-size="10.00">DGtal/base/BasicTypes.h</text>
</a>
</g>
</g>
<!-- Node0&#45;&gt;Node30 -->
<g id="edge114" class="edge"><title>Node0&#45;&gt;Node30</title>
<path fill="none" stroke="midnightblue" d="M2200.9,-696.272C1847.92,-691.938 249.779,-664.829 81.678,-528 51.8966,-503.759 57.678,-483.4 57.678,-445 57.678,-445 57.678,-445 57.678,-375 57.678,-260.169 211.221,-213.363 306.581,-195.367"/>
<polygon fill="midnightblue" stroke="midnightblue" points="307.267,-198.799 316.477,-193.563 306.012,-191.913 307.267,-198.799"/>
</g>
<!-- Node43 -->
<g id="node29" class="node"><title>Node43</title>
<g id="a_node29"><a xlink:href="HyperRectDomain_8h_source.html" target="_top" xlink:title="DGtal/kernel/domains\l/HyperRectDomain.h">
<polygon fill="white" stroke="black" points="1421.68,-497 1421.68,-527 1541.68,-527 1541.68,-497 1421.68,-497"/>
<text text-anchor="start" x="1429.68" y="-515" font-family="FreeSans" font-size="10.00">DGtal/kernel/domains</text>
<text text-anchor="middle" x="1481.68" y="-504" font-family="FreeSans" font-size="10.00">/HyperRectDomain.h</text>
</a>
</g>
</g>
<!-- Node0&#45;&gt;Node43 -->
<g id="edge45" class="edge"><title>Node0&#45;&gt;Node43</title>
<path fill="none" stroke="midnightblue" d="M2201.11,-693.794C2111.77,-688.799 1951.01,-677.008 1815.68,-652 1722.8,-634.837 1696.95,-634.443 1610.68,-596 1572.82,-579.128 1533.31,-552.09 1508.15,-533.485"/>
<polygon fill="midnightblue" stroke="midnightblue" points="1509.98,-530.482 1499.88,-527.287 1505.78,-536.084 1509.98,-530.482"/>
</g>
<!-- Node81 -->
<g id="node38" class="node"><title>Node81</title>
<g id="a_node38"><a xlink:href="ImageSelector_8h_source.html" target="_top" xlink:title="DGtal/images/ImageSelector.h">
<polygon fill="white" stroke="black" points="2079.18,-632.5 2079.18,-651.5 2242.18,-651.5 2242.18,-632.5 2079.18,-632.5"/>
<text text-anchor="middle" x="2160.68" y="-639.5" font-family="FreeSans" font-size="10.00">DGtal/images/ImageSelector.h</text>
</a>
</g>
</g>
<!-- Node0&#45;&gt;Node81 -->
<g id="edge77" class="edge"><title>Node0&#45;&gt;Node81</title>
<path fill="none" stroke="midnightblue" d="M2252.17,-688.324C2234.61,-679.625 2207.35,-666.12 2187.15,-656.113"/>
<polygon fill="midnightblue" stroke="midnightblue" points="2188.66,-652.958 2178.15,-651.655 2185.55,-659.23 2188.66,-652.958"/>
</g>
<!-- Node109 -->
<g id="node42" class="node"><title>Node109</title>
<g id="a_node42"><a xlink:href="SpaceND_8h_source.html" target="_top" xlink:title="DGtal/kernel/SpaceND.h">
<polygon fill="white" stroke="black" points="2275.18,-502.5 2275.18,-521.5 2408.18,-521.5 2408.18,-502.5 2275.18,-502.5"/>
<text text-anchor="middle" x="2341.68" y="-509.5" font-family="FreeSans" font-size="10.00">DGtal/kernel/SpaceND.h</text>
</a>
</g>
</g>
<!-- Node0&#45;&gt;Node109 -->
<g id="edge113" class="edge"><title>Node0&#45;&gt;Node109</title>
<path fill="none" stroke="midnightblue" d="M2273.15,-688.125C2284.29,-659.647 2319.31,-570.166 2334.51,-531.31"/>
<polygon fill="midnightblue" stroke="midnightblue" points="2337.86,-532.374 2338.24,-521.786 2331.34,-529.823 2337.86,-532.374"/>
</g>
<!-- Node126 -->
<g id="node46" class="node"><title>Node126</title>
<g id="a_node46"><a xlink:href="FreemanChain_8h_source.html" target="_top" xlink:title="Header file for module FreemanChain.cpp. ">
<polygon fill="white" stroke="red" points="2852.68,-429 2852.68,-459 2980.68,-459 2980.68,-429 2852.68,-429"/>
<text text-anchor="start" x="2860.68" y="-447" font-family="FreeSans" font-size="10.00">DGtal/geometry/curves</text>
<text text-anchor="middle" x="2916.68" y="-436" font-family="FreeSans" font-size="10.00">/FreemanChain.h</text>
</a>
</g>
</g>
<!-- Node0&#45;&gt;Node126 -->
<g id="edge115" class="edge"><title>Node0&#45;&gt;Node126</title>
<path fill="none" stroke="midnightblue" d="M2338.3,-692.371C2471.74,-682.176 2760.02,-653.938 2838.68,-596 2881.12,-564.737 2902.32,-503.563 2911.24,-469.456"/>
<polygon fill="midnightblue" stroke="midnightblue" points="2914.73,-469.953 2913.72,-459.405 2907.93,-468.276 2914.73,-469.953"/>
</g>
<!-- Node138 -->
<g id="node47" class="node"><title>Node138</title>
<g id="a_node47"><a xlink:href="MagickReader_8h_source.html" target="_top" xlink:title="DGtal/io/readers/MagickReader.h">
<polygon fill="white" stroke="red" points="2852.68,-298.5 2852.68,-317.5 3024.68,-317.5 3024.68,-298.5 2852.68,-298.5"/>
<text text-anchor="middle" x="2938.68" y="-305.5" font-family="FreeSans" font-size="10.00">DGtal/io/readers/MagickReader.h</text>
</a>
</g>
</g>
<!-- Node0&#45;&gt;Node138 -->
<g id="edge118" class="edge"><title>Node0&#45;&gt;Node138</title>
<path fill="none" stroke="midnightblue" d="M2338.21,-693.398C2521.41,-682.861 3008.68,-648.492 3008.68,-581 3008.68,-581 3008.68,-581 3008.68,-443 3008.68,-396.014 2974.45,-349.216 2953.86,-325.318"/>
<polygon fill="midnightblue" stroke="midnightblue" points="2956.25,-322.734 2946.98,-317.592 2951.02,-327.389 2956.25,-322.734"/>
</g>
<!-- Node142 -->
<g id="node48" class="node"><title>Node142</title>
<g id="a_node48"><a xlink:href="Board2D_8h_source.html" target="_top" xlink:title="DGtal/io/boards/Board2D.h">
<polygon fill="white" stroke="red" points="3081.18,-298.5 3081.18,-317.5 3226.18,-317.5 3226.18,-298.5 3081.18,-298.5"/>
<text text-anchor="middle" x="3153.68" y="-305.5" font-family="FreeSans" font-size="10.00">DGtal/io/boards/Board2D.h</text>
</a>
</g>
</g>
<!-- Node0&#45;&gt;Node142 -->
<g id="edge121" class="edge"><title>Node0&#45;&gt;Node142</title>
<path fill="none" stroke="midnightblue" d="M2338.26,-694.489C2535.58,-686.358 3090.68,-656.754 3090.68,-581 3090.68,-581 3090.68,-581 3090.68,-443 3090.68,-397.183 3121.21,-350.211 3139.77,-325.901"/>
<polygon fill="midnightblue" stroke="midnightblue" points="3142.76,-327.762 3146.2,-317.743 3137.26,-323.426 3142.76,-327.762"/>
</g>
<!-- Node306 -->
<g id="node49" class="node"><title>Node306</title>
<g id="a_node49"><a xlink:href="StdDefs_8h_source.html" target="_top" xlink:title="DGtal/helpers/StdDefs.h">
<polygon fill="white" stroke="red" points="2352.68,-570.5 2352.68,-589.5 2484.68,-589.5 2484.68,-570.5 2352.68,-570.5"/>
<text text-anchor="middle" x="2418.68" y="-577.5" font-family="FreeSans" font-size="10.00">DGtal/helpers/StdDefs.h</text>
</a>
</g>
</g>
<!-- Node0&#45;&gt;Node306 -->
<g id="edge124" class="edge"><title>Node0&#45;&gt;Node306</title>
<path fill="none" stroke="midnightblue" d="M2284.1,-688.456C2298.36,-679.814 2320.6,-665.796 2338.68,-652 2361.81,-634.347 2386.59,-611.706 2402.34,-596.795"/>
<polygon fill="midnightblue" stroke="midnightblue" points="2404.88,-599.208 2409.7,-589.77 2400.05,-594.146 2404.88,-599.208"/>
</g>
<!-- Node329 -->
<g id="node50" class="node"><title>Node329</title>
<polygon fill="white" stroke="#bfbfbf" points="3118.68,-632.5 3118.68,-651.5 3220.68,-651.5 3220.68,-632.5 3118.68,-632.5"/>
<text text-anchor="middle" x="3169.68" y="-639.5" font-family="FreeSans" font-size="10.00">ConfigExamples.h</text>
</g>
<!-- Node0&#45;&gt;Node329 -->
<g id="edge129" class="edge"><title>Node0&#45;&gt;Node329</title>
<path fill="none" stroke="midnightblue" d="M2338.28,-695.248C2481.15,-691.171 2820.89,-679.245 3104.68,-652 3105.95,-651.878 3107.24,-651.748 3108.54,-651.614"/>
<polygon fill="midnightblue" stroke="midnightblue" points="3109.08,-655.075 3118.63,-650.479 3108.3,-648.118 3109.08,-655.075"/>
</g>
<!-- Node3&#45;&gt;Node1 -->
<g id="edge4" class="edge"><title>Node3&#45;&gt;Node1</title>
<path fill="none" stroke="midnightblue" d="M1739.62,-236.09C1761.6,-202.585 1835.78,-84.6104 1809.68,-56 1779.62,-23.0506 1471.99,-13.9006 1360.64,-11.6575"/>
<polygon fill="midnightblue" stroke="midnightblue" points="1360.56,-8.15538 1350.49,-11.4614 1360.42,-15.1541 1360.56,-8.15538"/>
</g>
<!-- Node4 -->
<g id="node5" class="node"><title>Node4</title>
<polygon fill="white" stroke="#bfbfbf" points="1800.18,-174.5 1800.18,-193.5 1863.18,-193.5 1863.18,-174.5 1800.18,-174.5"/>
<text text-anchor="middle" x="1831.68" y="-181.5" font-family="FreeSans" font-size="10.00">exception</text>
</g>
<!-- Node3&#45;&gt;Node4 -->
<g id="edge5" class="edge"><title>Node3&#45;&gt;Node4</title>
<path fill="none" stroke="midnightblue" d="M1747.72,-236.403C1763.73,-226.601 1790.13,-210.439 1809.05,-198.853"/>
<polygon fill="midnightblue" stroke="midnightblue" points="1810.96,-201.787 1817.66,-193.581 1807.31,-195.817 1810.96,-201.787"/>
</g>
<!-- Node5 -->
<g id="node6" class="node"><title>Node5</title>
<polygon fill="white" stroke="#bfbfbf" points="2425.68,-112.5 2425.68,-131.5 2487.68,-131.5 2487.68,-112.5 2425.68,-112.5"/>
<text text-anchor="middle" x="2456.68" y="-119.5" font-family="FreeSans" font-size="10.00">algorithm</text>
</g>
<!-- Node3&#45;&gt;Node5 -->
<g id="edge6" class="edge"><title>Node3&#45;&gt;Node5</title>
<path fill="none" stroke="midnightblue" d="M1796.85,-244.31C1928.99,-242.202 2230.33,-233.731 2326.68,-200 2350.53,-191.65 2352.1,-181.15 2373.68,-168 2392.28,-156.663 2413.94,-144.968 2430.47,-136.343"/>
<polygon fill="midnightblue" stroke="midnightblue" points="2432.27,-139.35 2439.55,-131.645 2429.06,-133.133 2432.27,-139.35"/>
</g>
<!-- Node6 -->
<g id="node7" class="node"><title>Node6</title>
<polygon fill="white" stroke="#bfbfbf" points="1881.68,-174.5 1881.68,-193.5 1983.68,-193.5 1983.68,-174.5 1881.68,-174.5"/>
<text text-anchor="middle" x="1932.68" y="-181.5" font-family="FreeSans" font-size="10.00">boost/version.hpp</text>
</g>
<!-- Node3&#45;&gt;Node6 -->
<g id="edge7" class="edge"><title>Node3&#45;&gt;Node6</title>
<path fill="none" stroke="midnightblue" d="M1762.19,-236.403C1796.92,-225.933 1855.71,-208.205 1894.37,-196.55"/>
<polygon fill="midnightblue" stroke="midnightblue" points="1895.66,-199.818 1904.22,-193.581 1893.63,-193.116 1895.66,-199.818"/>
</g>
<!-- Node7 -->
<g id="node8" class="node"><title>Node7</title>
<polygon fill="white" stroke="#bfbfbf" points="665.178,-174.5 665.178,-193.5 804.178,-193.5 804.178,-174.5 665.178,-174.5"/>
<text text-anchor="middle" x="734.678" y="-181.5" font-family="FreeSans" font-size="10.00">boost/concept_check.hpp</text>
</g>
<!-- Node3&#45;&gt;Node7 -->
<g id="edge8" class="edge"><title>Node3&#45;&gt;Node7</title>
<path fill="none" stroke="midnightblue" d="M1670.56,-243.301C1526.22,-239.078 1161.01,-226.483 856.678,-200 840.569,-198.598 823.308,-196.712 806.987,-194.751"/>
<polygon fill="midnightblue" stroke="midnightblue" points="807.318,-191.265 796.966,-193.524 806.467,-198.214 807.318,-191.265"/>
</g>
<!-- Node8 -->
<g id="node9" class="node"><title>Node8</title>
<polygon fill="white" stroke="#bfbfbf" points="2002.18,-174.5 2002.18,-193.5 2131.18,-193.5 2131.18,-174.5 2002.18,-174.5"/>
<text text-anchor="middle" x="2066.68" y="-181.5" font-family="FreeSans" font-size="10.00">boost/static_assert.hpp</text>
</g>
<!-- Node3&#45;&gt;Node8 -->
<g id="edge9" class="edge"><title>Node3&#45;&gt;Node8</title>
<path fill="none" stroke="midnightblue" d="M1784.66,-236.491C1836.75,-227.706 1919.95,-213.426 1991.68,-200 1999.3,-198.574 2007.34,-197.019 2015.21,-195.467"/>
<polygon fill="midnightblue" stroke="midnightblue" points="2015.93,-198.893 2025.06,-193.514 2014.57,-192.027 2015.93,-198.893"/>
</g>
<!-- Node9 -->
<g id="node10" class="node"><title>Node9</title>
<polygon fill="white" stroke="#bfbfbf" points="2149.18,-174.5 2149.18,-193.5 2288.18,-193.5 2288.18,-174.5 2149.18,-174.5"/>
<text text-anchor="middle" x="2218.68" y="-181.5" font-family="FreeSans" font-size="10.00">boost/concept/assert.hpp</text>
</g>
<!-- Node3&#45;&gt;Node9 -->
<g id="edge10" class="edge"><title>Node3&#45;&gt;Node9</title>
<path fill="none" stroke="midnightblue" d="M1796.82,-239.526C1876.83,-232.239 2018.88,-218.136 2139.68,-200 2148.51,-198.675 2157.85,-197.076 2166.91,-195.423"/>
<polygon fill="midnightblue" stroke="midnightblue" points="2167.77,-198.821 2176.96,-193.545 2166.49,-191.94 2167.77,-198.821"/>
</g>
<!-- Node10 -->
<g id="node11" class="node"><title>Node10</title>
<polygon fill="white" stroke="#bfbfbf" points="898.678,-174.5 898.678,-193.5 1046.68,-193.5 1046.68,-174.5 898.678,-174.5"/>
<text text-anchor="middle" x="972.678" y="-181.5" font-family="FreeSans" font-size="10.00">boost/concept/requires.hpp</text>
</g>
<!-- Node3&#45;&gt;Node10 -->
<g id="edge11" class="edge"><title>Node3&#45;&gt;Node10</title>
<path fill="none" stroke="midnightblue" d="M1670.36,-243.175C1550.15,-239.184 1280.77,-227.72 1055.68,-200 1045.65,-198.765 1035,-197.106 1024.79,-195.341"/>
<polygon fill="midnightblue" stroke="midnightblue" points="1025.22,-191.864 1014.76,-193.553 1023.99,-198.755 1025.22,-191.864"/>
</g>
<!-- Node11 -->
<g id="node12" class="node"><title>Node11</title>
<polygon fill="white" stroke="#bfbfbf" points="1064.68,-169 1064.68,-199 1184.68,-199 1184.68,-169 1064.68,-169"/>
<text text-anchor="start" x="1072.68" y="-187" font-family="FreeSans" font-size="10.00">boost/iterator/iterator</text>
<text text-anchor="middle" x="1124.68" y="-176" font-family="FreeSans" font-size="10.00">_concepts.hpp</text>
</g>
<!-- Node3&#45;&gt;Node11 -->
<g id="edge12" class="edge"><title>Node3&#45;&gt;Node11</title>
<path fill="none" stroke="midnightblue" d="M1670.47,-242.494C1571.05,-237.947 1371.94,-226.398 1195.04,-200.253"/>
<polygon fill="midnightblue" stroke="midnightblue" points="1195.44,-196.774 1185.03,-198.754 1194.41,-203.697 1195.44,-196.774"/>
</g>
<!-- Node12 -->
<g id="node13" class="node"><title>Node12</title>
<polygon fill="white" stroke="#bfbfbf" points="1202.18,-174.5 1202.18,-193.5 1361.18,-193.5 1361.18,-174.5 1202.18,-174.5"/>
<text text-anchor="middle" x="1281.68" y="-181.5" font-family="FreeSans" font-size="10.00">boost/concept_archetype.hpp</text>
</g>
<!-- Node3&#45;&gt;Node12 -->
<g id="edge13" class="edge"><title>Node3&#45;&gt;Node12</title>
<path fill="none" stroke="midnightblue" d="M1670.43,-238.071C1597.73,-229.9 1474.89,-215.462 1369.68,-200 1359.9,-198.563 1349.54,-196.912 1339.49,-195.242"/>
<polygon fill="midnightblue" stroke="midnightblue" points="1340.01,-191.782 1329.57,-193.573 1338.85,-198.685 1340.01,-191.782"/>
</g>
<!-- Node13 -->
<g id="node14" class="node"><title>Node13</title>
<polygon fill="white" stroke="#bfbfbf" points="2326.18,-112.5 2326.18,-131.5 2373.18,-131.5 2373.18,-112.5 2326.18,-112.5"/>
<text text-anchor="middle" x="2349.68" y="-119.5" font-family="FreeSans" font-size="10.00">cmath</text>
</g>
<!-- Node3&#45;&gt;Node13 -->
<g id="edge14" class="edge"><title>Node3&#45;&gt;Node13</title>
<path fill="none" stroke="midnightblue" d="M1796.88,-242.994C1934.88,-238.178 2254.25,-224.509 2296.68,-200 2319.57,-186.773 2334.79,-159.193 2342.83,-140.887"/>
<polygon fill="midnightblue" stroke="midnightblue" points="2346.09,-142.17 2346.65,-131.59 2339.62,-139.51 2346.09,-142.17"/>
</g>
<!-- Node14 -->
<g id="node15" class="node"><title>Node14</title>
<polygon fill="white" stroke="#bfbfbf" points="1504.18,-174.5 1504.18,-193.5 1553.18,-193.5 1553.18,-174.5 1504.18,-174.5"/>
<text text-anchor="middle" x="1528.68" y="-181.5" font-family="FreeSans" font-size="10.00">stdio.h</text>
</g>
<!-- Node3&#45;&gt;Node14 -->
<g id="edge15" class="edge"><title>Node3&#45;&gt;Node14</title>
<path fill="none" stroke="midnightblue" d="M1698.07,-236.471C1664.24,-228.104 1612.1,-214.52 1567.68,-200 1565.05,-199.142 1562.35,-198.208 1559.64,-197.238"/>
<polygon fill="midnightblue" stroke="midnightblue" points="1560.59,-193.855 1549.99,-193.651 1558.15,-200.417 1560.59,-193.855"/>
</g>
<!-- Node15 -->
<g id="node16" class="node"><title>Node15</title>
<g id="a_node16"><a xlink:href="Config_8h_source.html" target="_top" xlink:title="DGtal/base/Config.h">
<polygon fill="white" stroke="red" points="1190.68,-56.5 1190.68,-75.5 1302.68,-75.5 1302.68,-56.5 1190.68,-56.5"/>
<text text-anchor="middle" x="1246.68" y="-63.5" font-family="FreeSans" font-size="10.00">DGtal/base/Config.h</text>
</a>
</g>
</g>
<!-- Node3&#45;&gt;Node15 -->
<g id="edge16" class="edge"><title>Node3&#45;&gt;Node15</title>
<path fill="none" stroke="midnightblue" d="M1718.6,-236.431C1693.52,-222.189 1641.65,-192.762 1597.68,-168 1553.29,-143.007 1545.63,-129.177 1497.68,-112 1464.51,-100.121 1375.59,-85.6216 1313.04,-76.3497"/>
<polygon fill="midnightblue" stroke="midnightblue" points="1313.26,-72.844 1302.85,-74.8512 1312.24,-79.7695 1313.26,-72.844"/>
</g>
<!-- Node17 -->
<g id="node17" class="node"><title>Node17</title>
<g id="a_node17"><a xlink:href="Trace_8h_source.html" target="_top" xlink:title="DGtal/base/Trace.h">
<polygon fill="white" stroke="red" points="1379.18,-174.5 1379.18,-193.5 1486.18,-193.5 1486.18,-174.5 1379.18,-174.5"/>
<text text-anchor="middle" x="1432.68" y="-181.5" font-family="FreeSans" font-size="10.00">DGtal/base/Trace.h</text>
</a>
</g>
</g>
<!-- Node3&#45;&gt;Node17 -->
<g id="edge18" class="edge"><title>Node3&#45;&gt;Node17</title>
<path fill="none" stroke="midnightblue" d="M1684.09,-236.429C1635.65,-227.876 1559.9,-214.02 1494.68,-200 1488.85,-198.748 1482.74,-197.359 1476.71,-195.947"/>
<polygon fill="midnightblue" stroke="midnightblue" points="1477.26,-192.479 1466.72,-193.567 1475.63,-199.289 1477.26,-192.479"/>
</g>
<!-- Node24 -->
<g id="node18" class="node"><title>Node24</title>
<g id="a_node18"><a xlink:href="TraceWriterTerm_8h_source.html" target="_top" xlink:title="DGtal/base/TraceWriterTerm.h">
<polygon fill="white" stroke="red" points="977.178,-112.5 977.178,-131.5 1134.18,-131.5 1134.18,-112.5 977.178,-112.5"/>
<text text-anchor="middle" x="1055.68" y="-119.5" font-family="FreeSans" font-size="10.00">DGtal/base/TraceWriterTerm.h</text>
</a>
</g>
</g>
<!-- Node3&#45;&gt;Node24 -->
<g id="edge26" class="edge"><title>Node3&#45;&gt;Node24</title>
<path fill="none" stroke="midnightblue" d="M1670.5,-243.982C1479.01,-240.59 916.463,-228.252 889.678,-200 856.308,-164.803 921.776,-144.202 980.064,-133.305"/>
<polygon fill="midnightblue" stroke="midnightblue" points="980.861,-136.718 990.087,-131.51 979.627,-129.828 980.861,-136.718"/>
</g>
<!-- Node25 -->
<g id="node19" class="node"><title>Node25</title>
<g id="a_node19"><a xlink:href="Assert_8h_source.html" target="_top" xlink:title="DGtal/base/Assert.h">
<polygon fill="white" stroke="red" points="1376.18,-112.5 1376.18,-131.5 1489.18,-131.5 1489.18,-112.5 1376.18,-112.5"/>
<text text-anchor="middle" x="1432.68" y="-119.5" font-family="FreeSans" font-size="10.00">DGtal/base/Assert.h</text>
</a>
</g>
</g>
<!-- Node3&#45;&gt;Node25 -->
<g id="edge29" class="edge"><title>Node3&#45;&gt;Node25</title>
<path fill="none" stroke="midnightblue" d="M1701.31,-236.46C1674.76,-228.797 1636.65,-216.259 1605.68,-200 1584.27,-188.76 1583.1,-179.214 1561.68,-168 1534.22,-153.628 1501.19,-142.205 1475.42,-134.464"/>
<polygon fill="midnightblue" stroke="midnightblue" points="1476.16,-131.032 1465.58,-131.577 1474.19,-137.749 1476.16,-131.032"/>
</g>
<!-- Node28 -->
<g id="node20" class="node"><title>Node28</title>
<g id="a_node20"><a xlink:href="TraceWriterFile_8h_source.html" target="_top" xlink:title="DGtal/base/TraceWriterFile.h">
<polygon fill="white" stroke="red" points="1320.18,-56.5 1320.18,-75.5 1469.18,-75.5 1469.18,-56.5 1320.18,-56.5"/>
<text text-anchor="middle" x="1394.68" y="-63.5" font-family="FreeSans" font-size="10.00">DGtal/base/TraceWriterFile.h</text>
</a>
</g>
</g>
<!-- Node3&#45;&gt;Node28 -->
<g id="edge27" class="edge"><title>Node3&#45;&gt;Node28</title>
<path fill="none" stroke="midnightblue" d="M1728.37,-236.378C1711.68,-209.529 1659.81,-128.241 1633.68,-112 1608.17,-96.1454 1537.2,-84.0148 1479.17,-76.3656"/>
<polygon fill="midnightblue" stroke="midnightblue" points="1479.61,-72.8931 1469.24,-75.0832 1478.71,-79.8354 1479.61,-72.8931"/>
</g>
<!-- Node29 -->
<g id="node21" class="node"><title>Node29</title>
<g id="a_node21"><a xlink:href="ConceptUtils_8h_source.html" target="_top" xlink:title="DGtal/base/ConceptUtils.h">
<polygon fill="white" stroke="black" points="504.178,-174.5 504.178,-193.5 647.178,-193.5 647.178,-174.5 504.178,-174.5"/>
<text text-anchor="middle" x="575.678" y="-181.5" font-family="FreeSans" font-size="10.00">DGtal/base/ConceptUtils.h</text>
</a>
</g>
</g>
<!-- Node3&#45;&gt;Node29 -->
<g id="edge30" class="edge"><title>Node3&#45;&gt;Node29</title>
<path fill="none" stroke="midnightblue" d="M1670.55,-245.522C1504.03,-246.218 1039.3,-243.742 655.678,-200 645.675,-198.859 635.042,-197.192 624.907,-195.379"/>
<polygon fill="midnightblue" stroke="midnightblue" points="625.449,-191.92 614.978,-193.532 624.169,-198.802 625.449,-191.92"/>
</g>
<!-- Node3&#45;&gt;Node30 -->
<g id="edge32" class="edge"><title>Node3&#45;&gt;Node30</title>
<path fill="none" stroke="midnightblue" d="M1670.37,-244.811C1487.7,-243.811 944.045,-237.639 494.678,-200 479.339,-198.715 462.898,-196.843 447.41,-194.855"/>
<polygon fill="midnightblue" stroke="midnightblue" points="447.762,-191.371 437.391,-193.536 446.848,-198.311 447.762,-191.371"/>
</g>
<!-- Node33 -->
<g id="node26" class="node"><title>Node33</title>
<g id="a_node26"><a xlink:href="BasicFunctors_8h_source.html" target="_top" xlink:title="DGtal/base/BasicFunctors.h">
<polygon fill="white" stroke="red" points="2382.68,-174.5 2382.68,-193.5 2530.68,-193.5 2530.68,-174.5 2382.68,-174.5"/>
<text text-anchor="middle" x="2456.68" y="-181.5" font-family="FreeSans" font-size="10.00">DGtal/base/BasicFunctors.h</text>
</a>
</g>
</g>
<!-- Node3&#45;&gt;Node33 -->
<g id="edge37" class="edge"><title>Node3&#45;&gt;Node33</title>
<path fill="none" stroke="midnightblue" d="M1796.99,-242.338C1910.24,-237.325 2154.49,-224.698 2359.68,-200 2370.4,-198.71 2381.8,-197.011 2392.9,-195.221"/>
<polygon fill="midnightblue" stroke="midnightblue" points="2393.69,-198.639 2402.99,-193.561 2392.55,-191.732 2393.69,-198.639"/>
</g>
<!-- Node41 -->
<g id="node27" class="node"><title>Node41</title>
<g id="a_node27"><a xlink:href="BasicArchetypes_8h_source.html" target="_top" xlink:title="DGtal/base/BasicArchetypes.h">
<polygon fill="white" stroke="black" points="1487.18,-56.5 1487.18,-75.5 1648.18,-75.5 1648.18,-56.5 1487.18,-56.5"/>
<text text-anchor="middle" x="1567.68" y="-63.5" font-family="FreeSans" font-size="10.00">DGtal/base/BasicArchetypes.h</text>
</a>
</g>
</g>
<!-- Node3&#45;&gt;Node41 -->
<g id="edge41" class="edge"><title>Node3&#45;&gt;Node41</title>
<path fill="none" stroke="midnightblue" d="M1731.89,-236.288C1726.69,-213.033 1709.48,-148.767 1671.68,-112 1655.56,-96.323 1633.1,-85.6745 1613.18,-78.6893"/>
<polygon fill="midnightblue" stroke="midnightblue" points="1614.24,-75.3521 1603.64,-75.5485 1612.05,-82.0009 1614.24,-75.3521"/>
</g>
<!-- Node42 -->
<g id="node28" class="node"><title>Node42</title>
<g id="a_node28"><a xlink:href="Exceptions_8h_source.html" target="_top" xlink:title="DGtal/base/Exceptions.h">
<polygon fill="white" stroke="black" points="1666.68,-56.5 1666.68,-75.5 1800.68,-75.5 1800.68,-56.5 1666.68,-56.5"/>
<text text-anchor="middle" x="1733.68" y="-63.5" font-family="FreeSans" font-size="10.00">DGtal/base/Exceptions.h</text>
</a>
</g>
</g>
<!-- Node3&#45;&gt;Node42 -->
<g id="edge43" class="edge"><title>Node3&#45;&gt;Node42</title>
<path fill="none" stroke="midnightblue" d="M1733.68,-236.415C1733.68,-209.227 1733.68,-124.563 1733.68,-86.2169"/>
<polygon fill="midnightblue" stroke="midnightblue" points="1737.18,-85.9184 1733.68,-75.9185 1730.18,-85.9185 1737.18,-85.9184"/>
</g>
<!-- Node15&#45;&gt;Node1 -->
<g id="edge17" class="edge"><title>Node15&#45;&gt;Node1</title>
<path fill="none" stroke="midnightblue" d="M1258.57,-56.324C1269.83,-48.1066 1286.96,-35.6017 1300.39,-25.8069"/>
<polygon fill="midnightblue" stroke="midnightblue" points="1302.56,-28.5559 1308.57,-19.8339 1298.43,-22.9014 1302.56,-28.5559"/>
</g>
<!-- Node17&#45;&gt;Node1 -->
<g id="edge19" class="edge"><title>Node17&#45;&gt;Node1</title>
<path fill="none" stroke="midnightblue" d="M1401.53,-174.369C1340.13,-156.662 1207.21,-114.633 1181.68,-76 1155.83,-36.8859 1231.21,-20.8318 1280.85,-14.6172"/>
<polygon fill="midnightblue" stroke="midnightblue" points="1281.48,-18.0677 1291.01,-13.4357 1280.67,-11.1146 1281.48,-18.0677"/>
</g>
<!-- Node17&#45;&gt;Node15 -->
<g id="edge20" class="edge"><title>Node17&#45;&gt;Node15</title>
<path fill="none" stroke="midnightblue" d="M1419,-174.47C1387.16,-154.61 1307.82,-105.131 1268.91,-80.8643"/>
<polygon fill="midnightblue" stroke="midnightblue" points="1270.71,-77.8643 1260.38,-75.5423 1267.01,-83.8039 1270.71,-77.8643"/>
</g>
<!-- Node17&#45;&gt;Node24 -->
<g id="edge21" class="edge"><title>Node17&#45;&gt;Node24</title>
<path fill="none" stroke="midnightblue" d="M1399.45,-174.488C1389.88,-172.2 1379.4,-169.85 1369.68,-168 1291.75,-153.171 1202.11,-140.783 1138.6,-132.783"/>
<polygon fill="midnightblue" stroke="midnightblue" points="1139,-129.306 1128.64,-131.538 1138.13,-136.252 1139,-129.306"/>
</g>
<!-- Node17&#45;&gt;Node25 -->
<g id="edge24" class="edge"><title>Node17&#45;&gt;Node25</title>
<path fill="none" stroke="midnightblue" d="M1427.78,-174.403C1425.95,-165.938 1425.48,-152.728 1426.36,-141.82"/>
<polygon fill="midnightblue" stroke="midnightblue" points="1429.88,-141.966 1427.78,-131.581 1422.94,-141.006 1429.88,-141.966"/>
</g>
<!-- Node24&#45;&gt;Node1 -->
<g id="edge22" class="edge"><title>Node24&#45;&gt;Node1</title>
<path fill="none" stroke="midnightblue" d="M1065.54,-112.302C1081.76,-98.4259 1115.6,-71.2893 1148.68,-56 1191.77,-36.081 1245.18,-23.8528 1280.94,-17.2645"/>
<polygon fill="midnightblue" stroke="midnightblue" points="1281.76,-20.6742 1290.99,-15.4763 1280.53,-13.7825 1281.76,-20.6742"/>
</g>
<!-- Node24&#45;&gt;Node15 -->
<g id="edge23" class="edge"><title>Node24&#45;&gt;Node15</title>
<path fill="none" stroke="midnightblue" d="M1085.94,-112.444C1118.63,-103.201 1170.86,-88.4356 1206.86,-78.2572"/>
<polygon fill="midnightblue" stroke="midnightblue" points="1207.88,-81.6051 1216.56,-75.5164 1205.98,-74.8691 1207.88,-81.6051"/>
</g>
<!-- Node25&#45;&gt;Node17 -->
<g id="edge25" class="edge"><title>Node25&#45;&gt;Node17</title>
<path fill="none" stroke="midnightblue" d="M1437.58,-131.581C1439.41,-140.04 1439.88,-153.248 1438.99,-164.16"/>
<polygon fill="midnightblue" stroke="midnightblue" points="1435.48,-164.018 1437.58,-174.403 1442.41,-164.977 1435.48,-164.018"/>
</g>
<!-- Node28&#45;&gt;Node1 -->
<g id="edge28" class="edge"><title>Node28&#45;&gt;Node1</title>
<path fill="none" stroke="midnightblue" d="M1382.79,-56.324C1371.53,-48.1066 1354.39,-35.6017 1340.97,-25.8069"/>
<polygon fill="midnightblue" stroke="midnightblue" points="1342.92,-22.9014 1332.78,-19.8339 1338.8,-28.5559 1342.92,-22.9014"/>
</g>
<!-- Node29&#45;&gt;Node1 -->
<g id="edge31" class="edge"><title>Node29&#45;&gt;Node1</title>
<path fill="none" stroke="midnightblue" d="M588.083,-174.221C622.634,-150.297 723.674,-83.885 818.678,-56 905.242,-30.5921 1178.05,-16.9194 1280.91,-12.5616"/>
<polygon fill="midnightblue" stroke="midnightblue" points="1281.33,-16.0472 1291.18,-12.1338 1281.04,-9.05326 1281.33,-16.0472"/>
</g>
<!-- Node30&#45;&gt;Node1 -->
<g id="edge34" class="edge"><title>Node30&#45;&gt;Node1</title>
<path fill="none" stroke="midnightblue" d="M425.881,-174.477C472.784,-164.931 542.229,-148.609 563.678,-132 594.538,-108.104 574.496,-76.5506 607.678,-56 664.971,-20.5162 1138.89,-12.848 1280.72,-11.3411"/>
<polygon fill="midnightblue" stroke="midnightblue" points="1281.16,-14.837 1291.12,-11.2355 1281.08,-7.83738 1281.16,-14.837"/>
</g>
<!-- Node21 -->
<g id="node23" class="node"><title>Node21</title>
<polygon fill="white" stroke="#bfbfbf" points="314.178,-112.5 314.178,-131.5 361.178,-131.5 361.178,-112.5 314.178,-112.5"/>
<text text-anchor="middle" x="337.678" y="-119.5" font-family="FreeSans" font-size="10.00">cstdlib</text>
</g>
<!-- Node30&#45;&gt;Node21 -->
<g id="edge33" class="edge"><title>Node30&#45;&gt;Node21</title>
<path fill="none" stroke="midnightblue" d="M374.517,-174.403C368.067,-165.403 357.774,-151.041 349.705,-139.782"/>
<polygon fill="midnightblue" stroke="midnightblue" points="352.498,-137.67 343.827,-131.581 346.808,-141.748 352.498,-137.67"/>
</g>
<!-- Node31 -->
<g id="node24" class="node"><title>Node31</title>
<polygon fill="white" stroke="#bfbfbf" points="379.678,-112.5 379.678,-131.5 479.678,-131.5 479.678,-112.5 379.678,-112.5"/>
<text text-anchor="middle" x="429.678" y="-119.5" font-family="FreeSans" font-size="10.00">boost/cstdint.hpp</text>
</g>
<!-- Node30&#45;&gt;Node31 -->
<g id="edge35" class="edge"><title>Node30&#45;&gt;Node31</title>
<path fill="none" stroke="midnightblue" d="M387.699,-174.403C395.121,-165.314 407.011,-150.756 416.245,-139.449"/>
<polygon fill="midnightblue" stroke="midnightblue" points="419.056,-141.54 422.671,-131.581 413.634,-137.112 419.056,-141.54"/>
</g>
<!-- Node32 -->
<g id="node25" class="node"><title>Node32</title>
<polygon fill="white" stroke="#bfbfbf" points="497.678,-112.5 497.678,-131.5 555.678,-131.5 555.678,-112.5 497.678,-112.5"/>
<text text-anchor="middle" x="526.678" y="-119.5" font-family="FreeSans" font-size="10.00">gmpxx.h</text>
</g>
<!-- Node30&#45;&gt;Node32 -->
<g id="edge36" class="edge"><title>Node30&#45;&gt;Node32</title>
<path fill="none" stroke="midnightblue" d="M401.596,-174.403C426.424,-164.2 468.021,-147.105 496.372,-135.454"/>
<polygon fill="midnightblue" stroke="midnightblue" points="497.88,-138.619 505.799,-131.581 495.219,-132.144 497.88,-138.619"/>
</g>
<!-- Node33&#45;&gt;Node3 -->
<g id="edge40" class="edge"><title>Node33&#45;&gt;Node3</title>
<path fill="none" stroke="midnightblue" d="M2420.18,-193.561C2406.85,-195.932 2391.68,-198.315 2377.68,-200 2171.9,-224.769 1926.85,-237.397 1806.95,-242.38"/>
<polygon fill="midnightblue" stroke="midnightblue" points="1806.64,-238.89 1796.79,-242.797 1806.92,-245.884 1806.64,-238.89"/>
</g>
<!-- Node33&#45;&gt;Node5 -->
<g id="edge38" class="edge"><title>Node33&#45;&gt;Node5</title>
<path fill="none" stroke="midnightblue" d="M2456.68,-174.403C2456.68,-165.938 2456.68,-152.728 2456.68,-141.82"/>
<polygon fill="midnightblue" stroke="midnightblue" points="2460.18,-141.581 2456.68,-131.581 2453.18,-141.581 2460.18,-141.581"/>
</g>
<!-- Node33&#45;&gt;Node13 -->
<g id="edge39" class="edge"><title>Node33&#45;&gt;Node13</title>
<path fill="none" stroke="midnightblue" d="M2441.35,-174.403C2423.71,-164.512 2394.52,-148.144 2373.82,-136.538"/>
<polygon fill="midnightblue" stroke="midnightblue" points="2375.41,-133.419 2364.98,-131.581 2371.99,-139.524 2375.41,-133.419"/>
</g>
<!-- Node41&#45;&gt;Node1 -->
<g id="edge42" class="edge"><title>Node41&#45;&gt;Node1</title>
<path fill="none" stroke="midnightblue" d="M1528.54,-56.4435C1482.51,-46.3796 1406.52,-29.7669 1360.28,-19.6588"/>
<polygon fill="midnightblue" stroke="midnightblue" points="1360.85,-16.1993 1350.33,-17.4826 1359.35,-23.0377 1360.85,-16.1993"/>
</g>
<!-- Node42&#45;&gt;Node1 -->
<g id="edge44" class="edge"><title>Node42&#45;&gt;Node1</title>
<path fill="none" stroke="midnightblue" d="M1668.24,-56.4435C1581.7,-45.1287 1431.85,-25.536 1360.57,-16.2162"/>
<polygon fill="midnightblue" stroke="midnightblue" points="1360.6,-12.6907 1350.23,-14.8646 1359.7,-19.6316 1360.6,-12.6907"/>
</g>
<!-- Node43&#45;&gt;Node1 -->
<g id="edge46" class="edge"><title>Node43&#45;&gt;Node1</title>
<path fill="none" stroke="midnightblue" d="M1421.58,-511.425C1159.99,-512.497 133.678,-508.334 133.678,-377 133.678,-377 133.678,-377 133.678,-121 133.678,-81.0766 159.298,-72.443 195.678,-56 296.092,-10.6151 1092.49,-10.2694 1280.85,-10.8314"/>
<polygon fill="midnightblue" stroke="midnightblue" points="1281.11,-14.3321 1291.12,-10.8648 1281.13,-7.33218 1281.11,-14.3321"/>
</g>
<!-- Node43&#45;&gt;Node3 -->
<g id="edge47" class="edge"><title>Node43&#45;&gt;Node3</title>
<path fill="none" stroke="midnightblue" d="M1541.98,-503.216C1573.66,-496.411 1611.28,-483.701 1637.68,-460 1697.82,-406 1722.5,-307.013 1730.48,-265.791"/>
<polygon fill="midnightblue" stroke="midnightblue" points="1733.96,-266.247 1732.31,-255.781 1727.07,-264.991 1733.96,-266.247"/>
</g>
<!-- Node44 -->
<g id="node30" class="node"><title>Node44</title>
<g id="a_node30"><a xlink:href="CSpace_8h_source.html" target="_top" xlink:title="DGtal/kernel/CSpace.h">
<polygon fill="white" stroke="red" points="715.178,-434.5 715.178,-453.5 840.178,-453.5 840.178,-434.5 715.178,-434.5"/>
<text text-anchor="middle" x="777.678" y="-441.5" font-family="FreeSans" font-size="10.00">DGtal/kernel/CSpace.h</text>
</a>
</g>
</g>
<!-- Node43&#45;&gt;Node44 -->
<g id="edge48" class="edge"><title>Node43&#45;&gt;Node44</title>
<path fill="none" stroke="midnightblue" d="M1421.66,-505.373C1292.79,-493.292 990.041,-464.909 850.481,-451.825"/>
<polygon fill="midnightblue" stroke="midnightblue" points="850.598,-448.321 840.315,-450.872 849.945,-455.29 850.598,-448.321"/>
</g>
<!-- Node49 -->
<g id="node32" class="node"><title>Node49</title>
<g id="a_node32"><a xlink:href="NumberTraits_8h_source.html" target="_top" xlink:title="DGtal/kernel/NumberTraits.h">
<polygon fill="white" stroke="red" points="598.678,-298.5 598.678,-317.5 750.678,-317.5 750.678,-298.5 598.678,-298.5"/>
<text text-anchor="middle" x="674.678" y="-305.5" font-family="FreeSans" font-size="10.00">DGtal/kernel/NumberTraits.h</text>
</a>
</g>
</g>
<!-- Node43&#45;&gt;Node49 -->
<g id="edge71" class="edge"><title>Node43&#45;&gt;Node49</title>
<path fill="none" stroke="midnightblue" d="M1421.62,-511.164C1248.8,-511.073 759.204,-506.66 705.678,-460 667.588,-426.797 668.821,-360.431 672.092,-327.882"/>
<polygon fill="midnightblue" stroke="midnightblue" points="675.616,-327.888 673.32,-317.545 668.665,-327.062 675.616,-327.888"/>
</g>
<!-- Node59 -->
<g id="node33" class="node"><title>Node59</title>
<g id="a_node33"><a xlink:href="BasicPointPredicates_8h_source.html" target="_top" xlink:title="DGtal/kernel/BasicPointPredicates.h">
<polygon fill="white" stroke="red" points="844.678,-298.5 844.678,-317.5 1032.68,-317.5 1032.68,-298.5 844.678,-298.5"/>
<text text-anchor="middle" x="938.678" y="-305.5" font-family="FreeSans" font-size="10.00">DGtal/kernel/BasicPointPredicates.h</text>
</a>
</g>
</g>
<!-- Node43&#45;&gt;Node59 -->
<g id="edge60" class="edge"><title>Node43&#45;&gt;Node59</title>
<path fill="none" stroke="midnightblue" d="M1442.14,-496.982C1413.62,-486.826 1374.22,-472.705 1339.68,-460 1202.21,-409.436 1039,-347.329 970.953,-321.345"/>
<polygon fill="midnightblue" stroke="midnightblue" points="971.834,-317.935 961.243,-317.636 969.336,-324.474 971.834,-317.935"/>
</g>
<!-- Node75 -->
<g id="node34" class="node"><title>Node75</title>
<g id="a_node34"><a xlink:href="CDomain_8h_source.html" target="_top" xlink:title="DGtal/kernel/domains\l/CDomain.h">
<polygon fill="white" stroke="red" points="1535.68,-293 1535.68,-323 1655.68,-323 1655.68,-293 1535.68,-293"/>
<text text-anchor="start" x="1543.68" y="-311" font-family="FreeSans" font-size="10.00">DGtal/kernel/domains</text>
<text text-anchor="middle" x="1595.68" y="-300" font-family="FreeSans" font-size="10.00">/CDomain.h</text>
</a>
</g>
</g>
<!-- Node43&#45;&gt;Node75 -->
<g id="edge63" class="edge"><title>Node43&#45;&gt;Node75</title>
<path fill="none" stroke="midnightblue" d="M1482.97,-496.856C1484.96,-479.809 1489.76,-450.635 1500.68,-428 1519.07,-389.873 1551.62,-352.886 1573.42,-330.529"/>
<polygon fill="midnightblue" stroke="midnightblue" points="1576.08,-332.816 1580.64,-323.253 1571.11,-327.884 1576.08,-332.816"/>
</g>
<!-- Node77 -->
<g id="node35" class="node"><title>Node77</title>
<g id="a_node35"><a xlink:href="HyperRectDomain__Iterator_8h_source.html" target="_top" xlink:title="DGtal/kernel/domains\l/HyperRectDomain_Iterator.h">
<polygon fill="white" stroke="red" points="1051.18,-293 1051.18,-323 1206.18,-323 1206.18,-293 1051.18,-293"/>
<text text-anchor="start" x="1059.18" y="-311" font-family="FreeSans" font-size="10.00">DGtal/kernel/domains</text>
<text text-anchor="middle" x="1128.68" y="-300" font-family="FreeSans" font-size="10.00">/HyperRectDomain_Iterator.h</text>
</a>
</g>
</g>
<!-- Node43&#45;&gt;Node77 -->
<g id="edge68" class="edge"><title>Node43&#45;&gt;Node77</title>
<path fill="none" stroke="midnightblue" d="M1457.14,-496.956C1395.34,-461.592 1233.21,-368.816 1162.48,-328.345"/>
<polygon fill="midnightblue" stroke="midnightblue" points="1163.94,-325.149 1153.53,-323.22 1160.47,-331.224 1163.94,-325.149"/>
</g>
<!-- Node79 -->
<g id="node36" class="node"><title>Node79</title>
<g id="a_node36"><a xlink:href="CConstBidirectionalRange_8h_source.html" target="_top" xlink:title="DGtal/base/CConstBidirectional\lRange.h">
<polygon fill="white" stroke="red" points="1224.68,-293 1224.68,-323 1390.68,-323 1390.68,-293 1224.68,-293"/>
<text text-anchor="start" x="1232.68" y="-311" font-family="FreeSans" font-size="10.00">DGtal/base/CConstBidirectional</text>
<text text-anchor="middle" x="1307.68" y="-300" font-family="FreeSans" font-size="10.00">Range.h</text>
</a>
</g>
</g>
<!-- Node43&#45;&gt;Node79 -->
<g id="edge72" class="edge"><title>Node43&#45;&gt;Node79</title>
<path fill="none" stroke="midnightblue" d="M1469.44,-496.796C1439.49,-462.025 1362.33,-372.447 1326.49,-330.84"/>
<polygon fill="midnightblue" stroke="midnightblue" points="1329.08,-328.481 1319.9,-323.189 1323.77,-333.049 1329.08,-328.481"/>
</g>
<!-- Node80 -->
<g id="node37" class="node"><title>Node80</title>
<g id="a_node37"><a xlink:href="HyperRectDomain_8ih_source.html" target="_top" xlink:title="DGtal/kernel/domains\l/HyperRectDomain.ih">
<polygon fill="white" stroke="black" points="1509.68,-429 1509.68,-459 1629.68,-459 1629.68,-429 1509.68,-429"/>
<text text-anchor="start" x="1517.68" y="-447" font-family="FreeSans" font-size="10.00">DGtal/kernel/domains</text>
<text text-anchor="middle" x="1569.68" y="-436" font-family="FreeSans" font-size="10.00">/HyperRectDomain.ih</text>
</a>
</g>
</g>
<!-- Node43&#45;&gt;Node80 -->
<g id="edge76" class="edge"><title>Node43&#45;&gt;Node80</title>
<path fill="none" stroke="midnightblue" d="M1500.77,-496.679C1513.08,-487.449 1529.26,-475.311 1542.85,-465.118"/>
<polygon fill="midnightblue" stroke="midnightblue" points="1545.02,-467.866 1550.92,-459.066 1540.82,-462.266 1545.02,-467.866"/>
</g>
<!-- Node44&#45;&gt;Node1 -->
<g id="edge49" class="edge"><title>Node44&#45;&gt;Node1</title>
<path fill="none" stroke="midnightblue" d="M715.108,-442.314C560.276,-438.932 171.678,-419.443 171.678,-309 171.678,-309 171.678,-309 171.678,-121 171.678,-60.7356 232.626,-72.1788 290.678,-56 387.201,-29.0996 1102.93,-14.829 1280.77,-11.6754"/>
<polygon fill="midnightblue" stroke="midnightblue" points="1281.05,-15.1711 1290.98,-11.496 1280.92,-8.17219 1281.05,-15.1711"/>
</g>
<!-- Node44&#45;&gt;Node3 -->
<g id="edge50" class="edge"><title>Node44&#45;&gt;Node3</title>
<path fill="none" stroke="midnightblue" d="M840.548,-435.03C958.494,-419.33 1220.47,-380.91 1435.68,-324 1477.13,-313.039 1485.43,-303.687 1526.68,-292 1576.69,-277.829 1634.58,-265.588 1676.4,-257.466"/>
<polygon fill="midnightblue" stroke="midnightblue" points="1677.25,-260.868 1686.41,-255.543 1675.93,-253.994 1677.25,-260.868"/>
</g>
<!-- Node44&#45;&gt;Node29 -->
<g id="edge51" class="edge"><title>Node44&#45;&gt;Node29</title>
<path fill="none" stroke="midnightblue" d="M750.295,-434.404C707.813,-419.488 627.036,-384.466 589.678,-324 566.485,-286.461 569.187,-232.074 572.691,-203.746"/>
<polygon fill="midnightblue" stroke="midnightblue" points="576.187,-204.025 574.12,-193.634 569.255,-203.046 576.187,-204.025"/>
</g>
<!-- Node45 -->
<g id="node31" class="node"><title>Node45</title>
<g id="a_node31"><a xlink:href="CInteger_8h_source.html" target="_top" xlink:title="DGtal/kernel/CInteger.h">
<polygon fill="white" stroke="red" points="752.678,-366.5 752.678,-385.5 880.678,-385.5 880.678,-366.5 752.678,-366.5"/>
<text text-anchor="middle" x="816.678" y="-373.5" font-family="FreeSans" font-size="10.00">DGtal/kernel/CInteger.h</text>
</a>
</g>
</g>
<!-- Node44&#45;&gt;Node45 -->
<g id="edge52" class="edge"><title>Node44&#45;&gt;Node45</title>
<path fill="none" stroke="midnightblue" d="M782.777,-434.372C788.7,-424.348 798.628,-407.546 806.214,-394.708"/>
<polygon fill="midnightblue" stroke="midnightblue" points="809.38,-396.231 811.454,-385.841 803.353,-392.67 809.38,-396.231"/>
</g>
<!-- Node44&#45;&gt;Node49 -->
<g id="edge59" class="edge"><title>Node44&#45;&gt;Node49</title>
<path fill="none" stroke="midnightblue" d="M770.92,-434.208C754.039,-412.246 709.8,-354.692 687.672,-325.905"/>
<polygon fill="midnightblue" stroke="midnightblue" points="690.196,-323.446 681.327,-317.65 684.646,-327.712 690.196,-323.446"/>
</g>
<!-- Node45&#45;&gt;Node1 -->
<g id="edge53" class="edge"><title>Node45&#45;&gt;Node1</title>
<path fill="none" stroke="midnightblue" d="M813.012,-366.372C805.473,-349.627 786.642,-312.566 759.678,-292 656.285,-213.141 421.573,-275.538 494.678,-168 519.13,-132.03 545.521,-148.707 585.678,-132 663.592,-99.5844 677.829,-76.5446 759.678,-56 858.715,-31.1411 1169.98,-16.878 1280.92,-12.4793"/>
<polygon fill="midnightblue" stroke="midnightblue" points="1281.16,-15.9727 1291.02,-12.0844 1280.89,-8.97801 1281.16,-15.9727"/>
</g>
<!-- Node45&#45;&gt;Node3 -->
<g id="edge54" class="edge"><title>Node45&#45;&gt;Node3</title>
<path fill="none" stroke="midnightblue" d="M880.898,-373.78C1012.07,-370.575 1306.26,-359.538 1399.68,-324 1421.94,-315.53 1420.7,-301.202 1442.68,-292 1512.88,-262.599 1599.86,-252.176 1660.35,-248.6"/>
<polygon fill="midnightblue" stroke="midnightblue" points="1660.78,-252.082 1670.57,-248.046 1660.4,-245.092 1660.78,-252.082"/>
</g>
<!-- Node45&#45;&gt;Node29 -->
<g id="edge55" class="edge"><title>Node45&#45;&gt;Node29</title>
<path fill="none" stroke="midnightblue" d="M816.395,-366.172C815.423,-349.728 811.167,-314.081 792.678,-292 748.655,-239.423 672.532,-210.39 623.153,-196.254"/>
<polygon fill="midnightblue" stroke="midnightblue" points="623.918,-192.834 613.347,-193.541 622.052,-199.581 623.918,-192.834"/>
</g>
<!-- Node45&#45;&gt;Node49 -->
<g id="edge56" class="edge"><title>Node45&#45;&gt;Node49</title>
<path fill="none" stroke="midnightblue" d="M798.114,-366.372C773.77,-355.057 730.844,-335.105 702.579,-321.968"/>
<polygon fill="midnightblue" stroke="midnightblue" points="703.79,-318.671 693.247,-317.63 700.84,-325.019 703.79,-318.671"/>
</g>
<!-- Node49&#45;&gt;Node1 -->
<g id="edge57" class="edge"><title>Node49&#45;&gt;Node1</title>
<path fill="none" stroke="midnightblue" d="M602.197,-298.454C497.852,-284.448 313.634,-252.761 275.678,-200 236.282,-145.237 263.684,-86.8509 323.678,-56 409.844,-11.691 1106.59,-10.4572 1281.14,-10.8519"/>
<polygon fill="midnightblue" stroke="midnightblue" points="1281.16,-14.3519 1291.17,-10.8778 1281.18,-7.35194 1281.16,-14.3519"/>
</g>
<!-- Node49&#45;&gt;Node3 -->
<g id="edge58" class="edge"><title>Node49&#45;&gt;Node3</title>
<path fill="none" stroke="midnightblue" d="M750.789,-299.235C777.599,-296.678 807.957,-293.985 835.678,-292 1141.61,-270.094 1506.92,-255.305 1660.25,-249.614"/>
<polygon fill="midnightblue" stroke="midnightblue" points="1660.61,-253.103 1670.48,-249.236 1660.35,-246.107 1660.61,-253.103"/>
</g>
<!-- Node59&#45;&gt;Node1 -->
<g id="edge61" class="edge"><title>Node59&#45;&gt;Node1</title>
<path fill="none" stroke="midnightblue" d="M844.561,-298.491C671.844,-281.9 318.671,-243.061 283.678,-200 274.905,-189.205 281.196,-123.067 288.678,-112 319.404,-66.552 345.66,-70.0944 398.678,-56 568.835,-10.7654 1126.13,-10.03 1280.64,-10.7298"/>
<polygon fill="midnightblue" stroke="midnightblue" points="1281.04,-14.2318 1291.06,-10.7821 1281.08,-7.23189 1281.04,-14.2318"/>
</g>
<!-- Node59&#45;&gt;Node3 -->
<g id="edge62" class="edge"><title>Node59&#45;&gt;Node3</title>
<path fill="none" stroke="midnightblue" d="M991.505,-298.482C1007.58,-296.112 1025.32,-293.72 1041.68,-292 1266.44,-268.363 1533.67,-255.195 1660.23,-249.852"/>
<polygon fill="midnightblue" stroke="midnightblue" points="1660.72,-253.334 1670.56,-249.419 1660.43,-246.34 1660.72,-253.334"/>
</g>
<!-- Node75&#45;&gt;Node1 -->
<g id="edge64" class="edge"><title>Node75&#45;&gt;Node1</title>
<path fill="none" stroke="midnightblue" d="M1535.63,-302.508C1370.64,-289.56 919.685,-249.881 876.678,-200 759.218,-63.7658 1151.13,-23.1037 1280.59,-13.5316"/>
<polygon fill="midnightblue" stroke="midnightblue" points="1281.15,-17.001 1290.87,-12.7966 1280.65,-10.0188 1281.15,-17.001"/>
</g>
<!-- Node75&#45;&gt;Node3 -->
<g id="edge66" class="edge"><title>Node75&#45;&gt;Node3</title>
<path fill="none" stroke="midnightblue" d="M1628.03,-292.933C1651.21,-282.855 1682.16,-269.399 1704.57,-259.657"/>
<polygon fill="midnightblue" stroke="midnightblue" points="1706.12,-262.797 1713.9,-255.6 1703.33,-256.378 1706.12,-262.797"/>
</g>
<!-- Node75&#45;&gt;Node7 -->
<g id="edge65" class="edge"><title>Node75&#45;&gt;Node7</title>
<path fill="none" stroke="midnightblue" d="M1535.63,-302.367C1496.84,-299.383 1445.28,-295.434 1399.68,-292 1183.7,-275.736 1124.35,-306.298 913.678,-256 891.199,-250.633 887.114,-244.637 865.678,-236 831.956,-222.412 793.121,-207.369 766.543,-197.165"/>
<polygon fill="midnightblue" stroke="midnightblue" points="767.583,-193.815 756.993,-193.504 765.078,-200.351 767.583,-193.815"/>
</g>
<!-- Node75&#45;&gt;Node29 -->
<g id="edge67" class="edge"><title>Node75&#45;&gt;Node29</title>
<path fill="none" stroke="midnightblue" d="M1535.64,-302.264C1496.85,-299.239 1445.29,-295.283 1399.68,-292 1162.42,-274.924 1099.18,-301.407 865.678,-256 837.672,-250.554 832.191,-243.555 804.678,-236 745.399,-219.723 676.422,-204.912 629.786,-195.496"/>
<polygon fill="midnightblue" stroke="midnightblue" points="630.386,-192.047 619.893,-193.512 629.01,-198.91 630.386,-192.047"/>
</g>
<!-- Node77&#45;&gt;Node1 -->
<g id="edge69" class="edge"><title>Node77&#45;&gt;Node1</title>
<path fill="none" stroke="midnightblue" d="M1050.92,-293.409C1047.8,-292.922 1044.71,-292.45 1041.68,-292 1021.27,-288.969 318.333,-215.466 304.678,-200 278.792,-170.681 279.861,-142.229 304.678,-112 367.777,-35.1388 1100.94,-15.4199 1280.95,-11.7233"/>
<polygon fill="midnightblue" stroke="midnightblue" points="1281.12,-15.2209 1291.04,-11.5211 1280.98,-8.22228 1281.12,-15.2209"/>
</g>
<!-- Node77&#45;&gt;Node3 -->
<g id="edge70" class="edge"><title>Node77&#45;&gt;Node3</title>
<path fill="none" stroke="midnightblue" d="M1206.42,-293.263C1209.54,-292.817 1212.64,-292.393 1215.68,-292 1373.63,-271.559 1559.92,-257.919 1660.45,-251.415"/>
<polygon fill="midnightblue" stroke="midnightblue" points="1660.75,-254.903 1670.5,-250.77 1660.3,-247.917 1660.75,-254.903"/>
</g>
<!-- Node79&#45;&gt;Node3 -->
<g id="edge73" class="edge"><title>Node79&#45;&gt;Node3</title>
<path fill="none" stroke="midnightblue" d="M1390.74,-294.058C1395.45,-293.354 1400.13,-292.663 1404.68,-292 1492.58,-279.193 1593.86,-265.5 1660.57,-256.627"/>
<polygon fill="midnightblue" stroke="midnightblue" points="1661.11,-260.086 1670.56,-255.3 1660.19,-253.147 1661.11,-260.086"/>
</g>
<!-- Node79&#45;&gt;Node7 -->
<g id="edge74" class="edge"><title>Node79&#45;&gt;Node7</title>
<path fill="none" stroke="midnightblue" d="M1224.56,-293.365C1221.22,-292.89 1217.92,-292.433 1214.68,-292 1064.5,-271.93 1021.03,-298.765 875.678,-256 830.755,-242.783 782.99,-215.583 756.187,-198.951"/>
<polygon fill="midnightblue" stroke="midnightblue" points="757.945,-195.922 747.619,-193.55 754.212,-201.844 757.945,-195.922"/>
</g>
<!-- Node79&#45;&gt;Node29 -->
<g id="edge75" class="edge"><title>Node79&#45;&gt;Node29</title>
<path fill="none" stroke="midnightblue" d="M1224.57,-293.307C1221.23,-292.849 1217.92,-292.411 1214.68,-292 1041.55,-270.093 995.203,-288.156 823.678,-256 813.237,-254.043 682.012,-215.976 614.802,-196.408"/>
<polygon fill="midnightblue" stroke="midnightblue" points="615.562,-192.984 604.982,-193.548 613.604,-199.705 615.562,-192.984"/>
</g>
<!-- Node81&#45;&gt;Node1 -->
<g id="edge78" class="edge"><title>Node81&#45;&gt;Node1</title>
<path fill="none" stroke="midnightblue" d="M2242.43,-633.7C2419.91,-616.75 2824.68,-571.663 2824.68,-513 2824.68,-513 2824.68,-513 2824.68,-121 2824.68,-77.225 2791.39,-72.0783 2750.68,-56 2684.33,-29.8009 1585.42,-14.3839 1360.64,-11.4964"/>
<polygon fill="midnightblue" stroke="midnightblue" points="1360.36,-7.99257 1350.31,-11.3647 1360.27,-14.992 1360.36,-7.99257"/>
</g>
<!-- Node81&#45;&gt;Node3 -->
<g id="edge79" class="edge"><title>Node81&#45;&gt;Node3</title>
<path fill="none" stroke="midnightblue" d="M2078.97,-635.747C2013.35,-629.938 1927.96,-618.286 1901.68,-596 1871.88,-570.727 1872.68,-552.076 1872.68,-513 1872.68,-513 1872.68,-513 1872.68,-375 1872.68,-335.924 1870.58,-320.342 1843.68,-292 1828.36,-275.859 1806.42,-265.332 1786.17,-258.552"/>
<polygon fill="midnightblue" stroke="midnightblue" points="1786.98,-255.14 1776.39,-255.517 1784.9,-261.825 1786.98,-255.14"/>
</g>
<!-- Node56 -->
<g id="node39" class="node"><title>Node56</title>
<g id="a_node39"><a xlink:href="CLabel_8h_source.html" target="_top" xlink:title="DGtal/base/CLabel.h">
<polygon fill="white" stroke="black" points="2454.68,-298.5 2454.68,-317.5 2568.68,-317.5 2568.68,-298.5 2454.68,-298.5"/>
<text text-anchor="middle" x="2511.68" y="-305.5" font-family="FreeSans" font-size="10.00">DGtal/base/CLabel.h</text>
</a>
</g>
</g>
<!-- Node81&#45;&gt;Node56 -->
<g id="edge80" class="edge"><title>Node81&#45;&gt;Node56</title>
<path fill="none" stroke="midnightblue" d="M2242.35,-640.321C2328.91,-637.851 2457.98,-628.602 2493.68,-596 2521.62,-570.482 2512.68,-550.843 2512.68,-513 2512.68,-513 2512.68,-513 2512.68,-443 2512.68,-402.045 2512.21,-354.052 2511.91,-328.066"/>
<polygon fill="midnightblue" stroke="midnightblue" points="2515.41,-327.738 2511.79,-317.78 2508.41,-327.82 2515.41,-327.738"/>
</g>
<!-- Node82 -->
<g id="node40" class="node"><title>Node82</title>
<g id="a_node40"><a xlink:href="ImageContainerBySTLMap_8h_source.html" target="_top" xlink:title="DGtal/images/ImageContainer\lBySTLMap.h">
<polygon fill="white" stroke="red" points="2171.18,-361 2171.18,-391 2332.18,-391 2332.18,-361 2171.18,-361"/>
<text text-anchor="start" x="2179.18" y="-379" font-family="FreeSans" font-size="10.00">DGtal/images/ImageContainer</text>
<text text-anchor="middle" x="2251.68" y="-368" font-family="FreeSans" font-size="10.00">BySTLMap.h</text>
</a>
</g>
</g>
<!-- Node81&#45;&gt;Node82 -->
<g id="edge83" class="edge"><title>Node81&#45;&gt;Node82</title>
<path fill="none" stroke="midnightblue" d="M2151.12,-632.45C2142.59,-624.12 2130.69,-610.604 2125.68,-596 2121.06,-582.548 2121.52,-577.602 2125.68,-564 2146.24,-496.697 2200.05,-431.706 2230.28,-398.967"/>
<polygon fill="midnightblue" stroke="midnightblue" points="2233.13,-401.044 2237.42,-391.357 2228.03,-396.253 2233.13,-401.044"/>
</g>
<!-- Node98 -->
<g id="node41" class="node"><title>Node98</title>
<g id="a_node41"><a xlink:href="ImageContainerBySTLVector_8h_source.html" target="_top" xlink:title="DGtal/images/ImageContainer\lBySTLVector.h">
<polygon fill="white" stroke="red" points="1620.18,-565 1620.18,-595 1781.18,-595 1781.18,-565 1620.18,-565"/>
<text text-anchor="start" x="1628.18" y="-583" font-family="FreeSans" font-size="10.00">DGtal/images/ImageContainer</text>
<text text-anchor="middle" x="1700.68" y="-572" font-family="FreeSans" font-size="10.00">BySTLVector.h</text>
</a>
</g>
</g>
<!-- Node81&#45;&gt;Node98 -->
<g id="edge89" class="edge"><title>Node81&#45;&gt;Node98</title>
<path fill="none" stroke="midnightblue" d="M2095.26,-632.467C2015.73,-622.093 1881.06,-604.528 1791.5,-592.847"/>
<polygon fill="midnightblue" stroke="midnightblue" points="1791.72,-589.346 1781.35,-591.523 1790.82,-596.287 1791.72,-589.346"/>
</g>
<!-- Node115 -->
<g id="node44" class="node"><title>Node115</title>
<g id="a_node44"><a xlink:href="ImageContainerByHashTree_8h_source.html" target="_top" xlink:title="DGtal/images/ImageContainer\lByHashTree.h">
<polygon fill="white" stroke="red" points="2135.18,-565 2135.18,-595 2296.18,-595 2296.18,-565 2135.18,-565"/>
<text text-anchor="start" x="2143.18" y="-583" font-family="FreeSans" font-size="10.00">DGtal/images/ImageContainer</text>
<text text-anchor="middle" x="2215.68" y="-572" font-family="FreeSans" font-size="10.00">ByHashTree.h</text>
</a>
</g>
</g>
<!-- Node81&#45;&gt;Node115 -->
<g id="edge105" class="edge"><title>Node81&#45;&gt;Node115</title>
<path fill="none" stroke="midnightblue" d="M2168.56,-632.403C2175.66,-624.657 2186.4,-612.938 2195.84,-602.645"/>
<polygon fill="midnightblue" stroke="midnightblue" points="2198.54,-604.877 2202.72,-595.141 2193.38,-600.147 2198.54,-604.877"/>
</g>
<!-- Node125 -->
<g id="node45" class="node"><title>Node125</title>
<g id="a_node45"><a xlink:href="ImageSelector_8ih_source.html" target="_top" xlink:title="DGtal/images//ImageSelector.ih">
<polygon fill="white" stroke="black" points="1910.68,-570.5 1910.68,-589.5 2078.68,-589.5 2078.68,-570.5 1910.68,-570.5"/>
<text text-anchor="middle" x="1994.68" y="-577.5" font-family="FreeSans" font-size="10.00">DGtal/images//ImageSelector.ih</text>
</a>
</g>
</g>
<!-- Node81&#45;&gt;Node125 -->
<g id="edge112" class="edge"><title>Node81&#45;&gt;Node125</title>
<path fill="none" stroke="midnightblue" d="M2136.89,-632.403C2108.3,-622.067 2060.13,-604.656 2027.88,-592.999"/>
<polygon fill="midnightblue" stroke="midnightblue" points="2029.01,-589.688 2018.42,-589.581 2026.63,-596.271 2029.01,-589.688"/>
</g>
<!-- Node56&#45;&gt;Node1 -->
<g id="edge81" class="edge"><title>Node56&#45;&gt;Node1</title>
<path fill="none" stroke="midnightblue" d="M2523.5,-298.374C2546.85,-280.231 2596.68,-235.596 2596.68,-185 2596.68,-185 2596.68,-185 2596.68,-121 2596.68,-90.2048 2597.62,-74.0559 2572.68,-56 2522.46,-19.6496 1568.3,-12.3527 1360.44,-11.1923"/>
<polygon fill="midnightblue" stroke="midnightblue" points="1360.3,-7.69162 1350.28,-11.1372 1360.26,-14.6915 1360.3,-7.69162"/>
</g>
<!-- Node56&#45;&gt;Node3 -->
<g id="edge82" class="edge"><title>Node56&#45;&gt;Node3</title>
<path fill="none" stroke="midnightblue" d="M2454.47,-302.588C2315.71,-291.887 1961.37,-264.56 1807.19,-252.67"/>
<polygon fill="midnightblue" stroke="midnightblue" points="1807.13,-249.154 1796.89,-251.875 1806.59,-256.133 1807.13,-249.154"/>
</g>
<!-- Node82&#45;&gt;Node1 -->
<g id="edge84" class="edge"><title>Node82&#45;&gt;Node1</title>
<path fill="none" stroke="midnightblue" d="M2282.64,-360.994C2351.02,-329.358 2511.13,-251.154 2539.68,-200 2560.99,-161.816 2534.15,-132.783 2495.68,-112 2393.75,-56.937 1553.59,-20.2898 1360.25,-12.5361"/>
<polygon fill="midnightblue" stroke="midnightblue" points="1360.37,-9.03844 1350.24,-12.1376 1360.09,-16.0329 1360.37,-9.03844"/>
</g>
<!-- Node82&#45;&gt;Node3 -->
<g id="edge85" class="edge"><title>Node82&#45;&gt;Node3</title>
<path fill="none" stroke="midnightblue" d="M2240.54,-360.928C2224.37,-341.641 2192.4,-307.612 2156.68,-292 2095.69,-265.345 1910.88,-253.917 1806.85,-249.487"/>
<polygon fill="midnightblue" stroke="midnightblue" points="1806.87,-245.985 1796.74,-249.068 1806.58,-252.979 1806.87,-245.985"/>
</g>
<!-- Node82&#45;&gt;Node33 -->
<g id="edge86" class="edge"><title>Node82&#45;&gt;Node33</title>
<path fill="none" stroke="midnightblue" d="M2267.09,-360.719C2304.64,-325.912 2400.67,-236.907 2439.75,-200.688"/>
<polygon fill="midnightblue" stroke="midnightblue" points="2442.23,-203.163 2447.18,-193.799 2437.47,-198.029 2442.23,-203.163"/>
</g>
<!-- Node82&#45;&gt;Node75 -->
<g id="edge88" class="edge"><title>Node82&#45;&gt;Node75</title>
<path fill="none" stroke="midnightblue" d="M2170.91,-366.874C2041.17,-353.821 1788.48,-328.398 1665.83,-316.058"/>
<polygon fill="midnightblue" stroke="midnightblue" points="1666.1,-312.568 1655.8,-315.049 1665.4,-319.532 1666.1,-312.568"/>
</g>
<!-- Node82&#45;&gt;Node56 -->
<g id="edge87" class="edge"><title>Node82&#45;&gt;Node56</title>
<path fill="none" stroke="midnightblue" d="M2307.14,-360.922C2355.29,-348.7 2424.04,-331.246 2468.27,-320.019"/>
<polygon fill="midnightblue" stroke="midnightblue" points="2469.31,-323.367 2478.14,-317.514 2467.59,-316.582 2469.31,-323.367"/>
</g>
<!-- Node98&#45;&gt;Node1 -->
<g id="edge90" class="edge"><title>Node98&#45;&gt;Node1</title>
<path fill="none" stroke="midnightblue" d="M1619.99,-576.538C1294.52,-566.084 95.678,-522.331 95.678,-445 95.678,-445 95.678,-445 95.678,-121 95.678,-82.5768 117.992,-72.5289 152.678,-56 256.228,-6.65591 1087.97,-9.37141 1280.84,-10.6788"/>
<polygon fill="midnightblue" stroke="midnightblue" points="1281.06,-14.1804 1291.08,-10.7511 1281.11,-7.18056 1281.06,-14.1804"/>
</g>
<!-- Node98&#45;&gt;Node3 -->
<g id="edge91" class="edge"><title>Node98&#45;&gt;Node3</title>
<path fill="none" stroke="midnightblue" d="M1703.22,-564.967C1710.01,-526.57 1728.54,-416.471 1734.68,-324 1735.99,-304.228 1735.45,-281.539 1734.76,-265.939"/>
<polygon fill="midnightblue" stroke="midnightblue" points="1738.23,-265.367 1734.23,-255.558 1731.24,-265.722 1738.23,-265.367"/>
</g>
<!-- Node98&#45;&gt;Node43 -->
<g id="edge103" class="edge"><title>Node98&#45;&gt;Node43</title>
<path fill="none" stroke="midnightblue" d="M1653.97,-564.922C1620.09,-554.714 1574.11,-540.857 1538.17,-530.025"/>
<polygon fill="midnightblue" stroke="midnightblue" points="1538.9,-526.591 1528.32,-527.056 1536.88,-533.293 1538.9,-526.591"/>
</g>
<!-- Node98&#45;&gt;Node49 -->
<g id="edge104" class="edge"><title>Node98&#45;&gt;Node49</title>
<path fill="none" stroke="midnightblue" d="M1619.99,-574.959C1391.08,-562.759 749.634,-523.21 680.678,-460 644.002,-426.38 658.371,-359.707 668.285,-327.401"/>
<polygon fill="midnightblue" stroke="midnightblue" points="671.736,-328.11 671.515,-317.518 665.082,-325.936 671.736,-328.11"/>
</g>
<!-- Node98&#45;&gt;Node75 -->
<g id="edge93" class="edge"><title>Node98&#45;&gt;Node75</title>
<path fill="none" stroke="midnightblue" d="M1695.18,-564.864C1678.17,-521.134 1626.29,-387.71 1604.97,-332.896"/>
<polygon fill="midnightblue" stroke="midnightblue" points="1608.13,-331.373 1601.25,-323.322 1601.61,-333.911 1608.13,-331.373"/>
</g>
<!-- Node98&#45;&gt;Node56 -->
<g id="edge92" class="edge"><title>Node98&#45;&gt;Node56</title>
<path fill="none" stroke="midnightblue" d="M1781.39,-565.572C1906.45,-542.575 2152.28,-488.532 2340.68,-392 2361.25,-381.459 2361.6,-371.451 2381.68,-360 2411,-343.28 2446.87,-329.663 2473.5,-320.718"/>
<polygon fill="midnightblue" stroke="midnightblue" points="2474.82,-323.97 2483.22,-317.522 2472.63,-317.321 2474.82,-323.97"/>
</g>
<!-- Node98&#45;&gt;Node109 -->
<g id="edge94" class="edge"><title>Node98&#45;&gt;Node109</title>
<path fill="none" stroke="midnightblue" d="M1781.38,-571.248C1881.78,-561.527 2058.45,-544.168 2209.68,-528 2227.49,-526.095 2246.65,-523.965 2264.7,-521.922"/>
<polygon fill="midnightblue" stroke="midnightblue" points="2265.34,-525.371 2274.88,-520.765 2264.55,-518.416 2265.34,-525.371"/>
</g>
<!-- Node109&#45;&gt;Node1 -->
<g id="edge95" class="edge"><title>Node109&#45;&gt;Node1</title>
<path fill="none" stroke="midnightblue" d="M2348.78,-502.41C2364.97,-483.068 2404.59,-437.08 2422.68,-428 2530.48,-373.877 2602.55,-473.28 2691.68,-392 2719.64,-366.5 2710.68,-346.843 2710.68,-309 2710.68,-309 2710.68,-309 2710.68,-121 2710.68,-77.225 2677.37,-72.1337 2636.68,-56 2515.59,-7.99301 1567.04,-9.79845 1360.35,-10.7725"/>
<polygon fill="midnightblue" stroke="midnightblue" points="1360.24,-7.27297 1350.25,-10.8223 1360.27,-14.2729 1360.24,-7.27297"/>
</g>
<!-- Node109&#45;&gt;Node3 -->
<g id="edge96" class="edge"><title>Node109&#45;&gt;Node3</title>
<path fill="none" stroke="midnightblue" d="M2323.99,-502.372C2286.73,-483.937 2197.92,-438.573 2128.68,-392 2069.64,-352.292 2068.64,-321.007 2003.68,-292 1940.97,-264.002 1863.03,-253.274 1807.03,-249.24"/>
<polygon fill="midnightblue" stroke="midnightblue" points="1807.05,-245.733 1796.84,-248.562 1806.58,-252.718 1807.05,-245.733"/>
</g>
<!-- Node109&#45;&gt;Node45 -->
<g id="edge97" class="edge"><title>Node109&#45;&gt;Node45</title>
<path fill="none" stroke="midnightblue" d="M2279.17,-502.453C2156.43,-485.93 1875.17,-449.359 1637.68,-428 1362.83,-403.28 1035.13,-386.821 890.963,-380.236"/>
<polygon fill="midnightblue" stroke="midnightblue" points="891.052,-376.736 880.904,-379.779 890.734,-383.729 891.052,-376.736"/>
</g>
<!-- Node110 -->
<g id="node43" class="node"><title>Node110</title>
<g id="a_node43"><a xlink:href="PointVector_8h_source.html" target="_top" xlink:title="DGtal/kernel/PointVector.h">
<polygon fill="white" stroke="red" points="2540.68,-366.5 2540.68,-385.5 2682.68,-385.5 2682.68,-366.5 2540.68,-366.5"/>
<text text-anchor="middle" x="2611.68" y="-373.5" font-family="FreeSans" font-size="10.00">DGtal/kernel/PointVector.h</text>
</a>
</g>
</g>
<!-- Node109&#45;&gt;Node110 -->
<g id="edge98" class="edge"><title>Node109&#45;&gt;Node110</title>
<path fill="none" stroke="midnightblue" d="M2343.57,-502.4C2347.79,-485.367 2359.62,-447.325 2384.68,-428 2426.1,-396.058 2483.7,-383.382 2530.51,-378.653"/>
<polygon fill="midnightblue" stroke="midnightblue" points="2530.99,-382.125 2540.63,-377.736 2530.36,-375.153 2530.99,-382.125"/>
</g>
<!-- Node110&#45;&gt;Node1 -->
<g id="edge99" class="edge"><title>Node110&#45;&gt;Node1</title>
<path fill="none" stroke="midnightblue" d="M2619.16,-366.372C2635.45,-346.665 2672.68,-296.233 2672.68,-247 2672.68,-247 2672.68,-247 2672.68,-121 2672.68,-76.5533 2638.09,-72.1305 2596.68,-56 2479.24,-10.2601 1563.37,-10.2744 1360.42,-10.8473"/>
<polygon fill="midnightblue" stroke="midnightblue" points="1360.21,-7.3478 1350.22,-10.8783 1360.23,-14.3478 1360.21,-7.3478"/>
</g>
<!-- Node110&#45;&gt;Node3 -->
<g id="edge101" class="edge"><title>Node110&#45;&gt;Node3</title>
<path fill="none" stroke="midnightblue" d="M2611.05,-366.372C2609.27,-348.938 2602.56,-309.675 2577.68,-292 2515.68,-247.963 2000.71,-245.737 1806.98,-246.485"/>
<polygon fill="midnightblue" stroke="midnightblue" points="1806.88,-242.985 1796.9,-246.527 1806.91,-249.985 1806.88,-242.985"/>
</g>
<!-- Node110&#45;&gt;Node5 -->
<g id="edge100" class="edge"><title>Node110&#45;&gt;Node5</title>
<path fill="none" stroke="midnightblue" d="M2611.91,-366.069C2612.08,-350.632 2611.36,-318.108 2603.68,-292 2586.16,-232.505 2583.08,-212.298 2539.68,-168 2525.87,-153.907 2506.69,-143.118 2490.25,-135.641"/>
<polygon fill="midnightblue" stroke="midnightblue" points="2491.52,-132.375 2480.95,-131.622 2488.74,-138.801 2491.52,-132.375"/>
</g>
<!-- Node110&#45;&gt;Node49 -->
<g id="edge102" class="edge"><title>Node110&#45;&gt;Node49</title>
<path fill="none" stroke="midnightblue" d="M2540.67,-370.459C2486.02,-367.112 2408.6,-362.691 2340.68,-360 1672.12,-333.508 1503.62,-363.057 835.678,-324 811.402,-322.58 785.12,-320.404 760.97,-318.146"/>
<polygon fill="midnightblue" stroke="midnightblue" points="761.049,-314.637 750.762,-317.175 760.386,-321.606 761.049,-314.637"/>
</g>
<!-- Node115&#45;&gt;Node1 -->
<g id="edge106" class="edge"><title>Node115&#45;&gt;Node1</title>
<path fill="none" stroke="midnightblue" d="M2283.57,-564.95C2322.95,-556.017 2373.2,-543.267 2416.68,-528 2583.46,-469.437 2748.68,-485.767 2748.68,-309 2748.68,-309 2748.68,-309 2748.68,-121 2748.68,-77.225 2715.38,-72.1142 2674.68,-56 2549.87,-6.58832 1570.99,-9.51704 1360.47,-10.7306"/>
<polygon fill="midnightblue" stroke="midnightblue" points="1360.18,-7.23219 1350.2,-10.792 1360.22,-14.2321 1360.18,-7.23219"/>
</g>
<!-- Node115&#45;&gt;Node3 -->
<g id="edge107" class="edge"><title>Node115&#45;&gt;Node3</title>
<path fill="none" stroke="midnightblue" d="M2135.04,-565.193C2070.14,-548.911 1989.68,-514.676 1989.68,-445 1989.68,-445 1989.68,-445 1989.68,-375 1989.68,-292.729 1882.6,-263.335 1806.95,-252.835"/>
<polygon fill="midnightblue" stroke="midnightblue" points="1807.33,-249.355 1796.96,-251.531 1806.42,-256.296 1807.33,-249.355"/>
</g>
<!-- Node115&#45;&gt;Node43 -->
<g id="edge110" class="edge"><title>Node115&#45;&gt;Node43</title>
<path fill="none" stroke="midnightblue" d="M2134.86,-569.205C2118.9,-567.383 2102.27,-565.563 2086.68,-564 1893.44,-544.625 1664.97,-526.721 1552.08,-518.207"/>
<polygon fill="midnightblue" stroke="midnightblue" points="1552.08,-514.698 1541.85,-517.438 1551.55,-521.678 1552.08,-514.698"/>
</g>
<!-- Node115&#45;&gt;Node75 -->
<g id="edge109" class="edge"><title>Node115&#45;&gt;Node75</title>
<path fill="none" stroke="midnightblue" d="M2134.97,-568.323C2087.53,-560.467 2026.99,-547.671 1975.68,-528 1834.73,-473.961 1684.19,-372.281 1623.45,-329.156"/>
<polygon fill="midnightblue" stroke="midnightblue" points="1625.32,-326.193 1615.15,-323.231 1621.25,-331.89 1625.32,-326.193"/>
</g>
<!-- Node115&#45;&gt;Node56 -->
<g id="edge108" class="edge"><title>Node115&#45;&gt;Node56</title>
<path fill="none" stroke="midnightblue" d="M2222.2,-564.705C2230.61,-547.249 2246.46,-517.407 2265.68,-496 2335.24,-418.5 2440.76,-351.007 2487.7,-322.909"/>
<polygon fill="midnightblue" stroke="midnightblue" points="2489.72,-325.782 2496.54,-317.673 2486.15,-319.76 2489.72,-325.782"/>
</g>
<!-- Node115&#45;&gt;Node109 -->
<g id="edge111" class="edge"><title>Node115&#45;&gt;Node109</title>
<path fill="none" stroke="midnightblue" d="M2242.71,-564.841C2264.4,-553.476 2294.66,-537.628 2315.99,-526.454"/>
<polygon fill="midnightblue" stroke="midnightblue" points="2317.87,-529.422 2325.1,-521.682 2314.62,-523.222 2317.87,-529.422"/>
</g>
<!-- Node126&#45;&gt;Node1 -->
<g id="edge116" class="edge"><title>Node126&#45;&gt;Node1</title>
<path fill="none" stroke="midnightblue" d="M2948.56,-428.839C2988.76,-408.561 3052.68,-367.172 3052.68,-309 3052.68,-309 3052.68,-309 3052.68,-121 3052.68,-35.9437 2956.24,-71.8767 2872.68,-56 2720.34,-27.056 1588.03,-13.7884 1360.45,-11.3999"/>
<polygon fill="midnightblue" stroke="midnightblue" points="1360.34,-7.89866 1350.3,-11.2944 1360.27,-14.8983 1360.34,-7.89866"/>
</g>
<!-- Node126&#45;&gt;Node110 -->
<g id="edge117" class="edge"><title>Node126&#45;&gt;Node110</title>
<path fill="none" stroke="midnightblue" d="M2852.37,-429.084C2795.35,-416.745 2713.27,-398.983 2661.22,-387.72"/>
<polygon fill="midnightblue" stroke="midnightblue" points="2661.74,-384.251 2651.22,-385.557 2660.26,-391.093 2661.74,-384.251"/>
</g>
<!-- Node138&#45;&gt;Node1 -->
<g id="edge119" class="edge"><title>Node138&#45;&gt;Node1</title>
<path fill="none" stroke="midnightblue" d="M2934.02,-298.41C2923.87,-278.874 2900.68,-229.368 2900.68,-185 2900.68,-185 2900.68,-185 2900.68,-121 2900.68,-81.0766 2875.14,-72.2546 2838.68,-56 2769.27,-25.0598 1593.38,-13.3484 1360.55,-11.3277"/>
<polygon fill="midnightblue" stroke="midnightblue" points="1360.52,-7.82746 1350.49,-11.2414 1360.46,-14.8272 1360.52,-7.82746"/>
</g>
<!-- Node138&#45;&gt;Node3 -->
<g id="edge120" class="edge"><title>Node138&#45;&gt;Node3</title>
<path fill="none" stroke="midnightblue" d="M2852.5,-302.709C2626.2,-291.441 2017.98,-261.156 1806.97,-250.65"/>
<polygon fill="midnightblue" stroke="midnightblue" points="1807.09,-247.151 1796.93,-250.149 1806.74,-254.143 1807.09,-247.151"/>
</g>
<!-- Node142&#45;&gt;Node1 -->
<g id="edge122" class="edge"><title>Node142&#45;&gt;Node1</title>
<path fill="none" stroke="midnightblue" d="M3149.75,-298.327C3141.21,-278.623 3121.68,-228.794 3121.68,-185 3121.68,-185 3121.68,-185 3121.68,-121 3121.68,-83.1569 3100.8,-72.3634 3066.68,-56 2987.25,-17.9092 1612.98,-11.8912 1360.39,-11.1056"/>
<polygon fill="midnightblue" stroke="midnightblue" points="1360.22,-7.60514 1350.21,-11.0749 1360.2,-14.6051 1360.22,-7.60514"/>
</g>
<!-- Node142&#45;&gt;Node3 -->
<g id="edge123" class="edge"><title>Node142&#45;&gt;Node3</title>
<path fill="none" stroke="midnightblue" d="M3093.97,-298.464C3074.76,-296.006 3053.35,-293.567 3033.68,-292 2567.58,-254.877 2005.07,-248.367 1806.98,-247.235"/>
<polygon fill="midnightblue" stroke="midnightblue" points="1806.72,-243.733 1796.7,-247.179 1806.68,-250.733 1806.72,-243.733"/>
</g>
<!-- Node306&#45;&gt;Node1 -->
<g id="edge125" class="edge"><title>Node306&#45;&gt;Node1</title>
<path fill="none" stroke="midnightblue" d="M2475.37,-570.436C2578.6,-553.234 2786.68,-510.443 2786.68,-445 2786.68,-445 2786.68,-445 2786.68,-121 2786.68,-77.225 2753.39,-72.0958 2712.68,-56 2648.21,-30.5097 1581.82,-14.5722 1360.64,-11.5321"/>
<polygon fill="midnightblue" stroke="midnightblue" points="1360.51,-8.03006 1350.47,-11.3931 1360.42,-15.0294 1360.51,-8.03006"/>
</g>
<!-- Node306&#45;&gt;Node3 -->
<g id="edge126" class="edge"><title>Node306&#45;&gt;Node3</title>
<path fill="none" stroke="midnightblue" d="M2421.31,-570.303C2425.66,-554.078 2432.39,-518.781 2416.68,-496 2347.18,-395.246 2266.43,-455.303 2161.68,-392 2142.78,-380.581 2140.58,-374.209 2123.68,-360 2087.7,-329.75 2085.57,-311.23 2042.68,-292 2001.79,-273.666 1884.84,-260.244 1807.12,-253.037"/>
<polygon fill="midnightblue" stroke="midnightblue" points="1807.18,-249.527 1796.9,-252.104 1806.54,-256.498 1807.18,-249.527"/>
</g>
<!-- Node306&#45;&gt;Node43 -->
<g id="edge128" class="edge"><title>Node306&#45;&gt;Node43</title>
<path fill="none" stroke="midnightblue" d="M2359.89,-570.478C2342.18,-568.122 2322.66,-565.738 2304.68,-564 2026.65,-537.127 1694.34,-521.591 1552.01,-515.722"/>
<polygon fill="midnightblue" stroke="midnightblue" points="1551.82,-512.211 1541.68,-515.299 1551.53,-519.205 1551.82,-512.211"/>
</g>
<!-- Node306&#45;&gt;Node109 -->
<g id="edge127" class="edge"><title>Node306&#45;&gt;Node109</title>
<path fill="none" stroke="midnightblue" d="M2408.61,-570.372C2396.23,-559.758 2374.98,-541.545 2359.74,-528.485"/>
<polygon fill="midnightblue" stroke="midnightblue" points="2361.86,-525.692 2351.99,-521.841 2357.31,-531.006 2361.86,-525.692"/>
</g>
</g>
</svg>
