<?xml version="1.0" encoding="UTF-8" standalone="no"?>
<!DOCTYPE svg PUBLIC "-//W3C//DTD SVG 1.1//EN"
 "http://www.w3.org/Graphics/SVG/1.1/DTD/svg11.dtd">
<!-- Generated by graphviz version 2.38.0 (20140413.2041)
 -->
<!-- Title: Graphical Class Hierarchy Pages: 1 -->
<svg width="382pt" height="110pt"
 viewBox="0.00 0.00 382.00 110.00" xmlns="http://www.w3.org/2000/svg" xmlns:xlink="http://www.w3.org/1999/xlink">
<g id="graph0" class="graph" transform="scale(1 1) rotate(0) translate(4 106)">
<title>Graphical Class Hierarchy</title>
<polygon fill="white" stroke="none" points="-4,4 -4,-106 378,-106 378,4 -4,4"/>
<!-- Node0 -->
<g id="node1" class="node"><title>Node0</title>
<g id="a_node1"><a xlink:href="structDGtal_1_1ConvexHullCommonKernel.html" target="_top" xlink:title="DGtal::ConvexHullCommonKernel\l\&lt; dim+1, TCoordinateInteger,\l TInternalInteger \&gt;">
<polygon fill="white" stroke="black" points="0,-30.5 0,-71.5 176,-71.5 176,-30.5 0,-30.5"/>
<text text-anchor="start" x="8" y="-59.5" font-family="FreeSans" font-size="10.00">DGtal::ConvexHullCommonKernel</text>
<text text-anchor="start" x="8" y="-48.5" font-family="FreeSans" font-size="10.00">&lt; dim+1, TCoordinateInteger,</text>
<text text-anchor="middle" x="88" y="-37.5" font-family="FreeSans" font-size="10.00"> TInternalInteger &gt;</text>
</a>
</g>
</g>
<!-- Node1 -->
<g id="node2" class="node"><title>Node1</title>
<g id="a_node2"><a xlink:href="structDGtal_1_1DelaunayIntegralKernel.html" target="_top" xlink:title="Aim: a geometric kernel to compute the Delaunay triangulation of digital points with integer&#45;only ari...">
<polygon fill="white" stroke="black" points="213,-60.5 213,-101.5 373,-101.5 373,-60.5 213,-60.5"/>
<text text-anchor="start" x="221" y="-89.5" font-family="FreeSans" font-size="10.00">DGtal::DelaunayIntegralKernel</text>
<text text-anchor="start" x="221" y="-78.5" font-family="FreeSans" font-size="10.00">&lt; dim, TCoordinateInteger,</text>
<text text-anchor="middle" x="293" y="-67.5" font-family="FreeSans" font-size="10.00"> TInternalInteger &gt;</text>
</a>
</g>
</g>
<!-- Node0&#45;&gt;Node1 -->
<g id="edge1" class="edge"><title>Node0&#45;&gt;Node1</title>
<path fill="none" stroke="midnightblue" d="M186.277,-65.3759C195.171,-66.6903 204.109,-68.0111 212.815,-69.2979"/>
<polygon fill="midnightblue" stroke="midnightblue" points="186.673,-61.8964 176.268,-63.8968 185.649,-68.8212 186.673,-61.8964"/>
</g>
<!-- Node2 -->
<g id="node3" class="node"><title>Node2</title>
<g id="a_node3"><a xlink:href="structDGtal_1_1DelaunayRationalKernel.html" target="_top" xlink:title="Aim: a geometric kernel to compute the Delaunay triangulation of a range of floating points with inte...">
<polygon fill="white" stroke="black" points="212,-0.5 212,-41.5 374,-41.5 374,-0.5 212,-0.5"/>
<text text-anchor="start" x="220" y="-29.5" font-family="FreeSans" font-size="10.00">DGtal::DelaunayRationalKernel</text>
<text text-anchor="start" x="220" y="-18.5" font-family="FreeSans" font-size="10.00">&lt; dim, TCoordinateInteger,</text>
<text text-anchor="middle" x="293" y="-7.5" font-family="FreeSans" font-size="10.00"> TInternalInteger &gt;</text>
</a>
</g>
</g>
<!-- Node0&#45;&gt;Node2 -->
<g id="edge2" class="edge"><title>Node0&#45;&gt;Node2</title>
<path fill="none" stroke="midnightblue" d="M186.29,-36.6222C194.855,-35.3565 203.46,-34.0848 211.86,-32.8433"/>
<polygon fill="midnightblue" stroke="midnightblue" points="185.649,-33.1788 176.268,-38.1032 186.673,-40.1036 185.649,-33.1788"/>
</g>
</g>
</svg>
