<?xml version="1.0" encoding="UTF-8" standalone="no"?>
<!DOCTYPE svg PUBLIC "-//W3C//DTD SVG 1.1//EN"
 "http://www.w3.org/Graphics/SVG/1.1/DTD/svg11.dtd">
<!-- Generated by graphviz version 2.38.0 (20140413.2041)
 -->
<!-- Title: Graphical Class Hierarchy Pages: 1 -->
<svg width="290pt" height="99pt"
 viewBox="0.00 0.00 290.00 98.50" xmlns="http://www.w3.org/2000/svg" xmlns:xlink="http://www.w3.org/1999/xlink">
<g id="graph0" class="graph" transform="scale(1 1) rotate(0) translate(4 94.5)">
<title>Graphical Class Hierarchy</title>
<polygon fill="white" stroke="none" points="-4,4 -4,-94.5 286,-94.5 286,4 -4,4"/>
<!-- Node642 -->
<g id="node1" class="node"><title>Node642</title>
<polygon fill="white" stroke="#bfbfbf" points="0,-33 0,-52 95,-52 95,-33 0,-33"/>
<text text-anchor="middle" x="47.5" y="-40" font-family="FreeSans" font-size="10.00">iterator_adaptor</text>
</g>
<!-- Node0 -->
<g id="node2" class="node"><title>Node0</title>
<g id="a_node2"><a xlink:href="classDGtal_1_1ConstIteratorAdapter.html" target="_top" xlink:title="This class adapts any iterator so that operator* returns another element than the one pointed to by t...">
<polygon fill="white" stroke="black" points="131,-49 131,-90 282,-90 282,-49 131,-49"/>
<text text-anchor="start" x="139" y="-78" font-family="FreeSans" font-size="10.00">DGtal::ConstIteratorAdapter</text>
<text text-anchor="start" x="139" y="-67" font-family="FreeSans" font-size="10.00">&lt; TIterator, TLightFunctor,</text>
<text text-anchor="middle" x="206.5" y="-56" font-family="FreeSans" font-size="10.00"> TReturnType &gt;</text>
</a>
</g>
</g>
<!-- Node642&#45;&gt;Node0 -->
<g id="edge1" class="edge"><title>Node642&#45;&gt;Node0</title>
<path fill="none" stroke="midnightblue" d="M105.133,-52.2394C113.46,-53.6715 122.145,-55.165 130.768,-56.648"/>
<polygon fill="midnightblue" stroke="midnightblue" points="105.629,-48.7734 95.1801,-50.5278 104.442,-55.6721 105.629,-48.7734"/>
</g>
<!-- Node644 -->
<g id="node3" class="node"><title>Node644</title>
<g id="a_node3"><a xlink:href="classDGtal_1_1ReverseIterator.html" target="_top" xlink:title="This class adapts any bidirectional iterator so that operator++ calls operator&#45;&#45; and vice versa...">
<polygon fill="white" stroke="black" points="145.5,-0.5 145.5,-30.5 267.5,-30.5 267.5,-0.5 145.5,-0.5"/>
<text text-anchor="start" x="153.5" y="-18.5" font-family="FreeSans" font-size="10.00">DGtal::ReverseIterator</text>
<text text-anchor="middle" x="206.5" y="-7.5" font-family="FreeSans" font-size="10.00">&lt; Iterator &gt;</text>
</a>
</g>
</g>
<!-- Node642&#45;&gt;Node644 -->
<g id="edge2" class="edge"><title>Node642&#45;&gt;Node644</title>
<path fill="none" stroke="midnightblue" d="M105.376,-32.7187C118.357,-30.4864 132.193,-28.107 145.307,-25.8517"/>
<polygon fill="midnightblue" stroke="midnightblue" points="104.442,-29.3279 95.1801,-34.4722 105.629,-36.2266 104.442,-29.3279"/>
</g>
</g>
</svg>
