<?xml version="1.0" encoding="UTF-8" standalone="no"?>
<!DOCTYPE svg PUBLIC "-//W3C//DTD SVG 1.1//EN"
 "http://www.w3.org/Graphics/SVG/1.1/DTD/svg11.dtd">
<!-- Generated by graphviz version 2.38.0 (20140413.2041)
 -->
<!-- Title: Graphical Class Hierarchy Pages: 1 -->
<svg width="1154pt" height="78pt"
 viewBox="0.00 0.00 1154.00 77.50" xmlns="http://www.w3.org/2000/svg" xmlns:xlink="http://www.w3.org/1999/xlink">
<g id="graph0" class="graph" transform="scale(1 1) rotate(0) translate(4 73.5)">
<title>Graphical Class Hierarchy</title>
<polygon fill="white" stroke="none" points="-4,4 -4,-73.5 1150,-73.5 1150,4 -4,4"/>
<!-- Node0 -->
<g id="node1" class="node"><title>Node0</title>
<g id="a_node1"><a xlink:href="structboost_1_1Assignable.html" target="_top" xlink:title="boost::Assignable\&lt; I \&gt;">
<polygon fill="white" stroke="black" points="0,-28 0,-47 126,-47 126,-28 0,-28"/>
<text text-anchor="middle" x="63" y="-35" font-family="FreeSans" font-size="10.00">boost::Assignable&lt; I &gt;</text>
</a>
</g>
</g>
<!-- Node1 -->
<g id="node2" class="node"><title>Node1</title>
<g id="a_node2"><a xlink:href="structDGtal_1_1concepts_1_1CUnaryFunctor.html" target="_top" xlink:title="DGtal::concepts::CUnaryFunctor\l\&lt; I, I ::Point, I ::Value \&gt;">
<polygon fill="white" stroke="black" points="162,-22.5 162,-52.5 332,-52.5 332,-22.5 162,-22.5"/>
<text text-anchor="start" x="170" y="-40.5" font-family="FreeSans" font-size="10.00">DGtal::concepts::CUnaryFunctor</text>
<text text-anchor="middle" x="247" y="-29.5" font-family="FreeSans" font-size="10.00">&lt; I, I ::Point, I ::Value &gt;</text>
</a>
</g>
</g>
<!-- Node0&#45;&gt;Node1 -->
<g id="edge1" class="edge"><title>Node0&#45;&gt;Node1</title>
<path fill="none" stroke="midnightblue" d="M136.279,-37.5C144.712,-37.5 153.368,-37.5 161.942,-37.5"/>
<polygon fill="midnightblue" stroke="midnightblue" points="136.125,-34.0001 126.125,-37.5 136.125,-41.0001 136.125,-34.0001"/>
</g>
<!-- Node2 -->
<g id="node3" class="node"><title>Node2</title>
<g id="a_node3"><a xlink:href="structDGtal_1_1concepts_1_1CPointFunctor.html" target="_top" xlink:title="DGtal::concepts::CPointFunctor\&lt; I \&gt;">
<polygon fill="white" stroke="black" points="368,-28 368,-47 558,-47 558,-28 368,-28"/>
<text text-anchor="middle" x="463" y="-35" font-family="FreeSans" font-size="10.00">DGtal::concepts::CPointFunctor&lt; I &gt;</text>
</a>
</g>
</g>
<!-- Node1&#45;&gt;Node2 -->
<g id="edge2" class="edge"><title>Node1&#45;&gt;Node2</title>
<path fill="none" stroke="midnightblue" d="M342.495,-37.5C350.931,-37.5 359.473,-37.5 367.905,-37.5"/>
<polygon fill="midnightblue" stroke="midnightblue" points="342.271,-34.0001 332.271,-37.5 342.271,-41.0001 342.271,-34.0001"/>
</g>
<!-- Node3 -->
<g id="node4" class="node"><title>Node3</title>
<g id="a_node4"><a xlink:href="structDGtal_1_1concepts_1_1CTrivialConstImage.html" target="_top" xlink:title="Aim: Defines the concept describing a read&#45;only image, which is a refinement of CPointFunctor. ">
<polygon fill="white" stroke="black" points="594,-22.5 594,-52.5 725,-52.5 725,-22.5 594,-22.5"/>
<text text-anchor="start" x="602" y="-40.5" font-family="FreeSans" font-size="10.00">DGtal::concepts::CTrivial</text>
<text text-anchor="middle" x="659.5" y="-29.5" font-family="FreeSans" font-size="10.00">ConstImage&lt; I &gt;</text>
</a>
</g>
</g>
<!-- Node2&#45;&gt;Node3 -->
<g id="edge3" class="edge"><title>Node2&#45;&gt;Node3</title>
<path fill="none" stroke="midnightblue" d="M568.342,-37.5C577.037,-37.5 585.656,-37.5 593.92,-37.5"/>
<polygon fill="midnightblue" stroke="midnightblue" points="568.116,-34.0001 558.116,-37.5 568.116,-41.0001 568.116,-34.0001"/>
</g>
<!-- Node4 -->
<g id="node5" class="node"><title>Node4</title>
<g id="a_node5"><a xlink:href="structDGtal_1_1concepts_1_1CConstImage.html" target="_top" xlink:title="Aim: Defines the concept describing a read&#45;only image, which is a refinement of CPointFunctor. ">
<polygon fill="white" stroke="black" points="761,-50 761,-69 949,-69 949,-50 761,-50"/>
<text text-anchor="middle" x="855" y="-57" font-family="FreeSans" font-size="10.00">DGtal::concepts::CConstImage&lt; I &gt;</text>
</a>
</g>
</g>
<!-- Node3&#45;&gt;Node4 -->
<g id="edge4" class="edge"><title>Node3&#45;&gt;Node4</title>
<path fill="none" stroke="midnightblue" d="M735.208,-45.9939C746.744,-47.3055 758.721,-48.6673 770.436,-49.9992"/>
<polygon fill="midnightblue" stroke="midnightblue" points="735.533,-42.5084 725.202,-44.8563 734.742,-49.4636 735.533,-42.5084"/>
</g>
<!-- Node6 -->
<g id="node7" class="node"><title>Node6</title>
<g id="a_node7"><a xlink:href="structDGtal_1_1concepts_1_1CTrivialImage.html" target="_top" xlink:title="Aim: Defines the concept describing an image without extra ranges, which is a refinement of CTrivialC...">
<polygon fill="white" stroke="black" points="789.5,-0.5 789.5,-30.5 920.5,-30.5 920.5,-0.5 789.5,-0.5"/>
<text text-anchor="start" x="797.5" y="-18.5" font-family="FreeSans" font-size="10.00">DGtal::concepts::CTrivial</text>
<text text-anchor="middle" x="855" y="-7.5" font-family="FreeSans" font-size="10.00">Image&lt; I &gt;</text>
</a>
</g>
</g>
<!-- Node3&#45;&gt;Node6 -->
<g id="edge6" class="edge"><title>Node3&#45;&gt;Node6</title>
<path fill="none" stroke="midnightblue" d="M735.526,-28.9699C753.296,-26.9496 772.097,-24.812 789.359,-22.8493"/>
<polygon fill="midnightblue" stroke="midnightblue" points="734.742,-25.5364 725.202,-30.1437 735.533,-32.4916 734.742,-25.5364"/>
</g>
<!-- Node7 -->
<g id="node6" class="node"><title>Node7</title>
<g id="a_node6"><a xlink:href="structDGtal_1_1concepts_1_1CImage.html" target="_top" xlink:title="Aim: Defines the concept describing a read/write image, having an output iterator. ">
<polygon fill="white" stroke="black" points="985,-28 985,-47 1146,-47 1146,-28 985,-28"/>
<text text-anchor="middle" x="1065.5" y="-35" font-family="FreeSans" font-size="10.00">DGtal::concepts::CImage&lt; I &gt;</text>
</a>
</g>
</g>
<!-- Node4&#45;&gt;Node7 -->
<g id="edge5" class="edge"><title>Node4&#45;&gt;Node7</title>
<path fill="none" stroke="midnightblue" d="M956.242,-48.9229C965.87,-47.907 975.544,-46.8862 984.935,-45.8954"/>
<polygon fill="midnightblue" stroke="midnightblue" points="955.816,-45.4483 946.238,-49.9784 956.551,-52.4097 955.816,-45.4483"/>
</g>
<!-- Node6&#45;&gt;Node7 -->
<g id="edge7" class="edge"><title>Node6&#45;&gt;Node7</title>
<path fill="none" stroke="midnightblue" d="M930.724,-23.3846C948.284,-25.2374 967.062,-27.2188 984.83,-29.0936"/>
<polygon fill="midnightblue" stroke="midnightblue" points="930.855,-19.879 920.543,-22.3103 930.12,-26.8404 930.855,-19.879"/>
</g>
</g>
</svg>
