<?xml version="1.0" encoding="UTF-8" standalone="no"?>
<!DOCTYPE svg PUBLIC "-//W3C//DTD SVG 1.1//EN"
 "http://www.w3.org/Graphics/SVG/1.1/DTD/svg11.dtd">
<!-- Generated by graphviz version 2.38.0 (20140413.2041)
 -->
<!-- Title: Graphical Class Hierarchy Pages: 1 -->
<svg width="297pt" height="50pt"
 viewBox="0.00 0.00 297.00 50.00" xmlns="http://www.w3.org/2000/svg" xmlns:xlink="http://www.w3.org/1999/xlink">
<g id="graph0" class="graph" transform="scale(1 1) rotate(0) translate(4 46)">
<title>Graphical Class Hierarchy</title>
<polygon fill="white" stroke="none" points="-4,4 -4,-46 293,-46 293,4 -4,4"/>
<!-- Node1001 -->
<g id="node1" class="node"><title>Node1001</title>
<g id="a_node1"><a xlink:title="STL class. ">
<polygon fill="white" stroke="#bfbfbf" points="0,-11.5 0,-30.5 95,-30.5 95,-11.5 0,-11.5"/>
<text text-anchor="middle" x="47.5" y="-18.5" font-family="FreeSans" font-size="10.00">std::deque&lt; T &gt;</text>
</a>
</g>
</g>
<!-- Node0 -->
<g id="node2" class="node"><title>Node0</title>
<g id="a_node2"><a xlink:href="structDGtal_1_1KhalimskyPreSpaceND_1_1AnyCellCollection.html" target="_top" xlink:title="DGtal::KhalimskyPreSpace\lND\&lt; dim, TInteger \&gt;::AnyCell\lCollection\&lt; CellType \&gt;">
<polygon fill="white" stroke="black" points="131,-0.5 131,-41.5 289,-41.5 289,-0.5 131,-0.5"/>
<text text-anchor="start" x="139" y="-29.5" font-family="FreeSans" font-size="10.00">DGtal::KhalimskyPreSpace</text>
<text text-anchor="start" x="139" y="-18.5" font-family="FreeSans" font-size="10.00">ND&lt; dim, TInteger &gt;::AnyCell</text>
<text text-anchor="middle" x="210" y="-7.5" font-family="FreeSans" font-size="10.00">Collection&lt; CellType &gt;</text>
</a>
</g>
</g>
<!-- Node1001&#45;&gt;Node0 -->
<g id="edge1" class="edge"><title>Node1001&#45;&gt;Node0</title>
<path fill="none" stroke="midnightblue" d="M105.576,-21C113.819,-21 122.418,-21 130.984,-21"/>
<polygon fill="midnightblue" stroke="midnightblue" points="105.355,-17.5001 95.3547,-21 105.355,-24.5001 105.355,-17.5001"/>
</g>
</g>
</svg>
