<?xml version="1.0" encoding="UTF-8" standalone="no"?>
<!DOCTYPE svg PUBLIC "-//W3C//DTD SVG 1.1//EN"
 "http://www.w3.org/Graphics/SVG/1.1/DTD/svg11.dtd">
<!-- Generated by graphviz version 2.38.0 (20140413.2041)
 -->
<!-- Title: Graphical Class Hierarchy Pages: 1 -->
<svg width="266pt" height="50pt"
 viewBox="0.00 0.00 266.00 50.00" xmlns="http://www.w3.org/2000/svg" xmlns:xlink="http://www.w3.org/1999/xlink">
<g id="graph0" class="graph" transform="scale(1 1) rotate(0) translate(4 46)">
<title>Graphical Class Hierarchy</title>
<polygon fill="white" stroke="none" points="-4,4 -4,-46 262,-46 262,4 -4,4"/>
<!-- Node167 -->
<g id="node1" class="node"><title>Node167</title>
<polygon fill="white" stroke="#bfbfbf" points="0,-11.5 0,-30.5 77,-30.5 77,-11.5 0,-11.5"/>
<text text-anchor="middle" x="38.5" y="-18.5" font-family="FreeSans" font-size="10.00">static_visitor</text>
</g>
<!-- Node0 -->
<g id="node2" class="node"><title>Node0</title>
<g id="a_node2"><a xlink:href="structDGtal_1_1MPolynomialReader_1_1ExprNodeMaker.html" target="_top" xlink:title="DGtal::MPolynomialReader\l\&lt; n, TRing, TAlloc, TIterator\l \&gt;::ExprNodeMaker">
<polygon fill="white" stroke="black" points="113,-0.5 113,-41.5 258,-41.5 258,-0.5 113,-0.5"/>
<text text-anchor="start" x="121" y="-29.5" font-family="FreeSans" font-size="10.00">DGtal::MPolynomialReader</text>
<text text-anchor="start" x="121" y="-18.5" font-family="FreeSans" font-size="10.00">&lt; n, TRing, TAlloc, TIterator</text>
<text text-anchor="middle" x="185.5" y="-7.5" font-family="FreeSans" font-size="10.00"> &gt;::ExprNodeMaker</text>
</a>
</g>
</g>
<!-- Node167&#45;&gt;Node0 -->
<g id="edge1" class="edge"><title>Node167&#45;&gt;Node0</title>
<path fill="none" stroke="midnightblue" d="M87.3408,-21C95.5646,-21 104.269,-21 112.955,-21"/>
<polygon fill="midnightblue" stroke="midnightblue" points="87.2186,-17.5001 77.2185,-21 87.2185,-24.5001 87.2186,-17.5001"/>
</g>
</g>
</svg>
