<?xml version="1.0" encoding="UTF-8" standalone="no"?>
<!DOCTYPE svg PUBLIC "-//W3C//DTD SVG 1.1//EN"
 "http://www.w3.org/Graphics/SVG/1.1/DTD/svg11.dtd">
<!-- Generated by graphviz version 2.38.0 (20140413.2041)
 -->
<!-- Title: Graphical Class Hierarchy Pages: 1 -->
<svg width="302pt" height="296pt"
 viewBox="0.00 0.00 302.00 296.00" xmlns="http://www.w3.org/2000/svg" xmlns:xlink="http://www.w3.org/1999/xlink">
<g id="graph0" class="graph" transform="scale(1 1) rotate(0) translate(4 292)">
<title>Graphical Class Hierarchy</title>
<polygon fill="white" stroke="none" points="-4,4 -4,-292 298,-292 298,4 -4,4"/>
<!-- Node629 -->
<g id="node1" class="node"><title>Node629</title>
<polygon fill="white" stroke="#bfbfbf" points="0,-148 0,-167 52,-167 52,-148 0,-148"/>
<text text-anchor="middle" x="26" y="-155" font-family="FreeSans" font-size="10.00">iterator</text>
</g>
<!-- Node0 -->
<g id="node2" class="node"><title>Node0</title>
<g id="a_node2"><a xlink:href="classDGtal_1_1DigitalSetInserter.html" target="_top" xlink:title="Aim: this output iterator class is designed to allow algorithms to insert points in the digital set...">
<polygon fill="white" stroke="black" points="124.5,-257.5 124.5,-287.5 257.5,-287.5 257.5,-257.5 124.5,-257.5"/>
<text text-anchor="start" x="132.5" y="-275.5" font-family="FreeSans" font-size="10.00">DGtal::DigitalSetInserter</text>
<text text-anchor="middle" x="191" y="-264.5" font-family="FreeSans" font-size="10.00">&lt; TDigitalSet &gt;</text>
</a>
</g>
</g>
<!-- Node629&#45;&gt;Node0 -->
<g id="edge1" class="edge"><title>Node629&#45;&gt;Node0</title>
<path fill="none" stroke="midnightblue" d="M34.6993,-176.683C44.109,-197.614 62.0496,-230.529 88,-248.5 98.7682,-255.957 111.548,-261.118 124.355,-264.684"/>
<polygon fill="midnightblue" stroke="midnightblue" points="37.8089,-175.053 30.6629,-167.231 31.3712,-177.802 37.8089,-175.053"/>
</g>
<!-- Node631 -->
<g id="node3" class="node"><title>Node631</title>
<g id="a_node3"><a xlink:href="classDGtal_1_1FreemanChain_1_1ConstIterator.html" target="_top" xlink:title="DGtal::FreemanChain\l\&lt; TInteger \&gt;::ConstIterator">
<polygon fill="white" stroke="black" points="117.5,-208.5 117.5,-238.5 264.5,-238.5 264.5,-208.5 117.5,-208.5"/>
<text text-anchor="start" x="125.5" y="-226.5" font-family="FreeSans" font-size="10.00">DGtal::FreemanChain</text>
<text text-anchor="middle" x="191" y="-215.5" font-family="FreeSans" font-size="10.00">&lt; TInteger &gt;::ConstIterator</text>
</a>
</g>
</g>
<!-- Node629&#45;&gt;Node631 -->
<g id="edge2" class="edge"><title>Node629&#45;&gt;Node631</title>
<path fill="none" stroke="midnightblue" d="M46.8634,-173.472C58.3093,-181.983 73.3049,-192.007 88,-198.5 97.2557,-202.59 107.292,-206.081 117.336,-209.042"/>
<polygon fill="midnightblue" stroke="midnightblue" points="48.9323,-170.648 38.8664,-167.343 44.6738,-176.204 48.9323,-170.648"/>
</g>
<!-- Node632 -->
<g id="node4" class="node"><title>Node632</title>
<g id="a_node4"><a xlink:href="classDGtal_1_1OneItemOutputIterator.html" target="_top" xlink:title="Aim: model of output iterator, ie incrementable and writable iterator, which only stores in a variabl...">
<polygon fill="white" stroke="black" points="97.5,-170 97.5,-189 284.5,-189 284.5,-170 97.5,-170"/>
<text text-anchor="middle" x="191" y="-177" font-family="FreeSans" font-size="10.00">DGtal::OneItemOutputIterator&lt; T &gt;</text>
</a>
</g>
</g>
<!-- Node629&#45;&gt;Node632 -->
<g id="edge3" class="edge"><title>Node629&#45;&gt;Node632</title>
<path fill="none" stroke="midnightblue" d="M62.4866,-162.29C79.1899,-164.544 99.7286,-167.316 119.404,-169.972"/>
<polygon fill="midnightblue" stroke="midnightblue" points="62.4899,-158.758 52.1115,-160.889 61.5535,-165.695 62.4899,-158.758"/>
</g>
<!-- Node633 -->
<g id="node5" class="node"><title>Node633</title>
<g id="a_node5"><a xlink:href="classDGtal_1_1OutputIteratorAdapter.html" target="_top" xlink:title="Aim: Adapts an output iterator i with a unary functor f, both given at construction, so that the element pointed to by i is updated with a given value through f. ">
<polygon fill="white" stroke="black" points="97,-120.5 97,-150.5 285,-150.5 285,-120.5 97,-120.5"/>
<text text-anchor="start" x="105" y="-138.5" font-family="FreeSans" font-size="10.00">DGtal::OutputIteratorAdapter</text>
<text text-anchor="middle" x="191" y="-127.5" font-family="FreeSans" font-size="10.00">&lt; TIterator, TFunctor, TInputValue &gt;</text>
</a>
</g>
</g>
<!-- Node629&#45;&gt;Node633 -->
<g id="edge4" class="edge"><title>Node629&#45;&gt;Node633</title>
<path fill="none" stroke="midnightblue" d="M62.3473,-152.729C72.7332,-151.327 84.6108,-149.724 96.8462,-148.073"/>
<polygon fill="midnightblue" stroke="midnightblue" points="61.5535,-149.305 52.1115,-154.111 62.4899,-156.242 61.5535,-149.305"/>
</g>
<!-- Node634 -->
<g id="node6" class="node"><title>Node634</title>
<g id="a_node6"><a xlink:href="classDGtal_1_1SetValueIterator.html" target="_top" xlink:title="Aim: implements an output iterator, which is able to write values in an underlying image...">
<polygon fill="white" stroke="black" points="116.5,-71.5 116.5,-101.5 265.5,-101.5 265.5,-71.5 116.5,-71.5"/>
<text text-anchor="start" x="124.5" y="-89.5" font-family="FreeSans" font-size="10.00">DGtal::SetValueIterator</text>
<text text-anchor="middle" x="191" y="-78.5" font-family="FreeSans" font-size="10.00">&lt; TImage, TIteratorOnPts &gt;</text>
</a>
</g>
</g>
<!-- Node629&#45;&gt;Node634 -->
<g id="edge5" class="edge"><title>Node629&#45;&gt;Node634</title>
<path fill="none" stroke="midnightblue" d="M44.5268,-141.216C56.0838,-131.292 71.9944,-119.099 88,-111.5 96.8941,-107.278 106.575,-103.724 116.314,-100.745"/>
<polygon fill="midnightblue" stroke="midnightblue" points="42.101,-138.689 36.9418,-147.943 46.7457,-143.926 42.101,-138.689"/>
</g>
<!-- Node635 -->
<g id="node7" class="node"><title>Node635</title>
<g id="a_node7"><a xlink:href="classDGtal_1_1TiledImage_1_1TiledIterator.html" target="_top" xlink:title="DGtal::TiledImage\&lt;\l TImageContainer, TImageFactory,\l TImageCacheReadPolicy, TImageCache\lWritePolicy \&gt;::TiledIterator">
<polygon fill="white" stroke="black" points="88,-0.5 88,-52.5 294,-52.5 294,-0.5 88,-0.5"/>
<text text-anchor="start" x="96" y="-40.5" font-family="FreeSans" font-size="10.00">DGtal::TiledImage&lt;</text>
<text text-anchor="start" x="96" y="-29.5" font-family="FreeSans" font-size="10.00"> TImageContainer, TImageFactory,</text>
<text text-anchor="start" x="96" y="-18.5" font-family="FreeSans" font-size="10.00"> TImageCacheReadPolicy, TImageCache</text>
<text text-anchor="middle" x="191" y="-7.5" font-family="FreeSans" font-size="10.00">WritePolicy &gt;::TiledIterator</text>
</a>
</g>
</g>
<!-- Node629&#45;&gt;Node635 -->
<g id="edge6" class="edge"><title>Node629&#45;&gt;Node635</title>
<path fill="none" stroke="midnightblue" d="M34.5879,-138.625C44.0714,-117.292 62.2473,-82.8877 88,-62.5 92.6379,-58.8283 97.6788,-55.5151 102.953,-52.5278"/>
<polygon fill="midnightblue" stroke="midnightblue" points="31.3239,-137.357 30.6355,-147.93 37.7667,-140.094 31.3239,-137.357"/>
</g>
</g>
</svg>
