<?xml version="1.0" encoding="UTF-8" standalone="no"?>
<!DOCTYPE svg PUBLIC "-//W3C//DTD SVG 1.1//EN"
 "http://www.w3.org/Graphics/SVG/1.1/DTD/svg11.dtd">
<!-- Generated by graphviz version 2.38.0 (20140413.2041)
 -->
<!-- Title: Graphical Class Hierarchy Pages: 1 -->
<svg width="295pt" height="180pt"
 viewBox="0.00 0.00 295.00 180.00" xmlns="http://www.w3.org/2000/svg" xmlns:xlink="http://www.w3.org/1999/xlink">
<g id="graph0" class="graph" transform="scale(1 1) rotate(0) translate(4 176)">
<title>Graphical Class Hierarchy</title>
<polygon fill="white" stroke="none" points="-4,4 -4,-176 291,-176 291,4 -4,4"/>
<!-- Node873 -->
<g id="node1" class="node"><title>Node873</title>
<g id="a_node1"><a xlink:title="STL class. ">
<polygon fill="white" stroke="#bfbfbf" points="0,-76.5 0,-95.5 84,-95.5 84,-76.5 0,-76.5"/>
<text text-anchor="middle" x="42" y="-83.5" font-family="FreeSans" font-size="10.00">std::exception</text>
</a>
</g>
</g>
<!-- Node0 -->
<g id="node2" class="node"><title>Node0</title>
<g id="a_node2"><a xlink:href="classDGtal_1_1ConnectivityException.html" target="_top" xlink:title="DGtal::ConnectivityException">
<polygon fill="white" stroke="black" points="126,-152.5 126,-171.5 281,-171.5 281,-152.5 126,-152.5"/>
<text text-anchor="middle" x="203.5" y="-159.5" font-family="FreeSans" font-size="10.00">DGtal::ConnectivityException</text>
</a>
</g>
</g>
<!-- Node873&#45;&gt;Node0 -->
<g id="edge1" class="edge"><title>Node873&#45;&gt;Node0</title>
<path fill="none" stroke="midnightblue" d="M60.8762,-102.603C75.6642,-115.463 97.7758,-132.759 120,-143 128.41,-146.875 137.677,-149.994 146.87,-152.493"/>
<polygon fill="midnightblue" stroke="midnightblue" points="62.8598,-99.6821 53.07,-95.6311 58.1969,-104.903 62.8598,-99.6821"/>
</g>
<!-- Node875 -->
<g id="node3" class="node"><title>Node875</title>
<g id="a_node3"><a xlink:href="classDGtal_1_1InfiniteNumberException.html" target="_top" xlink:title="DGtal::InfiniteNumberException">
<polygon fill="white" stroke="black" points="120,-114.5 120,-133.5 287,-133.5 287,-114.5 120,-114.5"/>
<text text-anchor="middle" x="203.5" y="-121.5" font-family="FreeSans" font-size="10.00">DGtal::InfiniteNumberException</text>
</a>
</g>
</g>
<!-- Node873&#45;&gt;Node875 -->
<g id="edge2" class="edge"><title>Node873&#45;&gt;Node875</title>
<path fill="none" stroke="midnightblue" d="M91.1258,-97.9975C100.686,-100.346 110.656,-102.771 120,-105 133.153,-108.137 147.507,-111.473 160.501,-114.46"/>
<polygon fill="midnightblue" stroke="midnightblue" points="91.9014,-94.5839 81.3543,-95.5887 90.226,-101.38 91.9014,-94.5839"/>
</g>
<!-- Node876 -->
<g id="node4" class="node"><title>Node876</title>
<g id="a_node4"><a xlink:href="classDGtal_1_1InputException.html" target="_top" xlink:title="DGtal::InputException">
<polygon fill="white" stroke="black" points="143.5,-76.5 143.5,-95.5 263.5,-95.5 263.5,-76.5 143.5,-76.5"/>
<text text-anchor="middle" x="203.5" y="-83.5" font-family="FreeSans" font-size="10.00">DGtal::InputException</text>
</a>
</g>
</g>
<!-- Node873&#45;&gt;Node876 -->
<g id="edge3" class="edge"><title>Node873&#45;&gt;Node876</title>
<path fill="none" stroke="midnightblue" d="M94.0832,-86C109.731,-86 127.078,-86 143.223,-86"/>
<polygon fill="midnightblue" stroke="midnightblue" points="94.0752,-82.5001 84.0752,-86 94.0752,-89.5001 94.0752,-82.5001"/>
</g>
<!-- Node877 -->
<g id="node5" class="node"><title>Node877</title>
<g id="a_node5"><a xlink:href="classDGtal_1_1IOException.html" target="_top" xlink:title="DGtal::IOException">
<polygon fill="white" stroke="black" points="150.5,-38.5 150.5,-57.5 256.5,-57.5 256.5,-38.5 150.5,-38.5"/>
<text text-anchor="middle" x="203.5" y="-45.5" font-family="FreeSans" font-size="10.00">DGtal::IOException</text>
</a>
</g>
</g>
<!-- Node873&#45;&gt;Node877 -->
<g id="edge4" class="edge"><title>Node873&#45;&gt;Node877</title>
<path fill="none" stroke="midnightblue" d="M91.1258,-74.0025C100.686,-71.6537 110.656,-69.2286 120,-67 133.153,-63.8628 147.507,-60.5266 160.501,-57.5396"/>
<polygon fill="midnightblue" stroke="midnightblue" points="90.226,-70.6195 81.3543,-76.4113 91.9014,-77.4161 90.226,-70.6195"/>
</g>
<!-- Node878 -->
<g id="node6" class="node"><title>Node878</title>
<g id="a_node6"><a xlink:href="classDGtal_1_1MemoryException.html" target="_top" xlink:title="DGtal::MemoryException">
<polygon fill="white" stroke="black" points="136,-0.5 136,-19.5 271,-19.5 271,-0.5 136,-0.5"/>
<text text-anchor="middle" x="203.5" y="-7.5" font-family="FreeSans" font-size="10.00">DGtal::MemoryException</text>
</a>
</g>
</g>
<!-- Node873&#45;&gt;Node878 -->
<g id="edge5" class="edge"><title>Node873&#45;&gt;Node878</title>
<path fill="none" stroke="midnightblue" d="M60.8762,-69.3968C75.6642,-56.5372 97.7758,-39.2409 120,-29 128.41,-25.1248 137.677,-22.0063 146.87,-19.5066"/>
<polygon fill="midnightblue" stroke="midnightblue" points="58.1969,-67.0971 53.07,-76.3689 62.8598,-72.3179 58.1969,-67.0971"/>
</g>
</g>
</svg>
