<?xml version="1.0" encoding="UTF-8" standalone="no"?>
<!DOCTYPE svg PUBLIC "-//W3C//DTD SVG 1.1//EN"
 "http://www.w3.org/Graphics/SVG/1.1/DTD/svg11.dtd">
<!-- Generated by graphviz version 2.38.0 (20140413.2041)
 -->
<!-- Title: Graphical Class Hierarchy Pages: 1 -->
<svg width="372pt" height="39pt"
 viewBox="0.00 0.00 372.00 39.00" xmlns="http://www.w3.org/2000/svg" xmlns:xlink="http://www.w3.org/1999/xlink">
<g id="graph0" class="graph" transform="scale(1 1) rotate(0) translate(4 35)">
<title>Graphical Class Hierarchy</title>
<polygon fill="white" stroke="none" points="-4,4 -4,-35 368,-35 368,4 -4,4"/>
<!-- Node0 -->
<g id="node1" class="node"><title>Node0</title>
<g id="a_node1"><a xlink:href="classDGtal_1_1ArithmeticalDSS.html" target="_top" xlink:title="DGtal::ArithmeticalDSS\l\&lt; TCoordinate, TInteger, 8 \&gt;">
<polygon fill="white" stroke="black" points="0,-0.5 0,-30.5 153,-30.5 153,-0.5 0,-0.5"/>
<text text-anchor="start" x="8" y="-18.5" font-family="FreeSans" font-size="10.00">DGtal::ArithmeticalDSS</text>
<text text-anchor="middle" x="76.5" y="-7.5" font-family="FreeSans" font-size="10.00">&lt; TCoordinate, TInteger, 8 &gt;</text>
</a>
</g>
</g>
<!-- Node1 -->
<g id="node2" class="node"><title>Node1</title>
<g id="a_node2"><a xlink:href="classDGtal_1_1NaiveDSS8.html" target="_top" xlink:title="Aim: This class represents a standard digital straight segment (DSS), ie. the sequence of simply 8&#45;co...">
<polygon fill="white" stroke="black" points="189,-0.5 189,-30.5 364,-30.5 364,-0.5 189,-0.5"/>
<text text-anchor="start" x="197" y="-18.5" font-family="FreeSans" font-size="10.00">DGtal::NaiveDSS8&lt; TCoordinate,</text>
<text text-anchor="middle" x="276.5" y="-7.5" font-family="FreeSans" font-size="10.00"> TInteger &gt;</text>
</a>
</g>
</g>
<!-- Node0&#45;&gt;Node1 -->
<g id="edge1" class="edge"><title>Node0&#45;&gt;Node1</title>
<path fill="none" stroke="midnightblue" d="M163.431,-15.5C171.883,-15.5 180.463,-15.5 188.922,-15.5"/>
<polygon fill="midnightblue" stroke="midnightblue" points="163.203,-12.0001 153.203,-15.5 163.203,-19.0001 163.203,-12.0001"/>
</g>
</g>
</svg>
