<?xml version="1.0" encoding="UTF-8" standalone="no"?>
<!DOCTYPE svg PUBLIC "-//W3C//DTD SVG 1.1//EN"
 "http://www.w3.org/Graphics/SVG/1.1/DTD/svg11.dtd">
<!-- Generated by graphviz version 2.38.0 (20140413.2041)
 -->
<!-- Title: Graphical Class Hierarchy Pages: 1 -->
<svg width="324pt" height="137pt"
 viewBox="0.00 0.00 324.00 137.00" xmlns="http://www.w3.org/2000/svg" xmlns:xlink="http://www.w3.org/1999/xlink">
<g id="graph0" class="graph" transform="scale(1 1) rotate(0) translate(4 133)">
<title>Graphical Class Hierarchy</title>
<polygon fill="white" stroke="none" points="-4,4 -4,-133 320,-133 320,4 -4,4"/>
<!-- Node31 -->
<g id="node1" class="node"><title>Node31</title>
<g id="a_node1"><a xlink:title="STL class. ">
<polygon fill="white" stroke="#bfbfbf" points="0,-55 0,-74 95,-74 95,-55 0,-55"/>
<text text-anchor="middle" x="47.5" y="-62" font-family="FreeSans" font-size="10.00">std::vector&lt; T &gt;</text>
</a>
</g>
</g>
<!-- Node0 -->
<g id="node2" class="node"><title>Node0</title>
<g id="a_node2"><a xlink:href="classDGtal_1_1ImageContainerBySTLVector.html" target="_top" xlink:title="DGtal::ImageContainerBySTLVector\l\&lt; TDomain, TValue \&gt;">
<polygon fill="white" stroke="black" points="131,-98.5 131,-128.5 316,-128.5 316,-98.5 131,-98.5"/>
<text text-anchor="start" x="139" y="-116.5" font-family="FreeSans" font-size="10.00">DGtal::ImageContainerBySTLVector</text>
<text text-anchor="middle" x="223.5" y="-105.5" font-family="FreeSans" font-size="10.00">&lt; TDomain, TValue &gt;</text>
</a>
</g>
</g>
<!-- Node31&#45;&gt;Node0 -->
<g id="edge1" class="edge"><title>Node31&#45;&gt;Node0</title>
<path fill="none" stroke="midnightblue" d="M88.8514,-77.0597C102.233,-81.1362 117.228,-85.6086 131,-89.5 141.589,-92.4919 152.902,-95.5616 163.836,-98.4635"/>
<polygon fill="midnightblue" stroke="midnightblue" points="89.5659,-73.6181 78.9793,-74.0358 87.5157,-80.3112 89.5659,-73.6181"/>
</g>
<!-- Node33 -->
<g id="node3" class="node"><title>Node33</title>
<g id="a_node3"><a xlink:href="classDGtal_1_1ImageContainerBySTLVector.html" target="_top" xlink:title="DGtal::ImageContainerBySTLVector\l\&lt; Domain, Storage * \&gt;">
<polygon fill="white" stroke="black" points="131,-49.5 131,-79.5 316,-79.5 316,-49.5 131,-49.5"/>
<text text-anchor="start" x="139" y="-67.5" font-family="FreeSans" font-size="10.00">DGtal::ImageContainerBySTLVector</text>
<text text-anchor="middle" x="223.5" y="-56.5" font-family="FreeSans" font-size="10.00">&lt; Domain, Storage * &gt;</text>
</a>
</g>
</g>
<!-- Node31&#45;&gt;Node33 -->
<g id="edge2" class="edge"><title>Node31&#45;&gt;Node33</title>
<path fill="none" stroke="midnightblue" d="M105.261,-64.5C113.454,-64.5 122.055,-64.5 130.719,-64.5"/>
<polygon fill="midnightblue" stroke="midnightblue" points="105.129,-61.0001 95.1288,-64.5 105.129,-68.0001 105.129,-61.0001"/>
</g>
<!-- Node34 -->
<g id="node4" class="node"><title>Node34</title>
<g id="a_node4"><a xlink:href="classDGtal_1_1ImageContainerBySTLVector.html" target="_top" xlink:title="DGtal::ImageContainerBySTLVector\l\&lt; Domain, Value \&gt;">
<polygon fill="white" stroke="black" points="131,-0.5 131,-30.5 316,-30.5 316,-0.5 131,-0.5"/>
<text text-anchor="start" x="139" y="-18.5" font-family="FreeSans" font-size="10.00">DGtal::ImageContainerBySTLVector</text>
<text text-anchor="middle" x="223.5" y="-7.5" font-family="FreeSans" font-size="10.00">&lt; Domain, Value &gt;</text>
</a>
</g>
</g>
<!-- Node31&#45;&gt;Node34 -->
<g id="edge3" class="edge"><title>Node31&#45;&gt;Node34</title>
<path fill="none" stroke="midnightblue" d="M90.9653,-52.0021C103.815,-48.2593 117.973,-44.1743 131,-40.5 142.57,-37.2367 154.982,-33.8017 166.814,-30.5582"/>
<polygon fill="midnightblue" stroke="midnightblue" points="89.605,-48.7531 80.9871,-54.916 91.5673,-55.4724 89.605,-48.7531"/>
</g>
</g>
</svg>
