<?xml version="1.0" encoding="UTF-8" standalone="no"?>
<!DOCTYPE svg PUBLIC "-//W3C//DTD SVG 1.1//EN"
 "http://www.w3.org/Graphics/SVG/1.1/DTD/svg11.dtd">
<!-- Generated by graphviz version 2.38.0 (20140413.2041)
 -->
<!-- Title: Graphical Class Hierarchy Pages: 1 -->
<svg width="319pt" height="280pt"
 viewBox="0.00 0.00 319.00 279.50" xmlns="http://www.w3.org/2000/svg" xmlns:xlink="http://www.w3.org/1999/xlink">
<g id="graph0" class="graph" transform="scale(1 1) rotate(0) translate(4 275.5)">
<title>Graphical Class Hierarchy</title>
<polygon fill="white" stroke="none" points="-4,4 -4,-275.5 315,-275.5 315,4 -4,4"/>
<!-- Node0 -->
<g id="node1" class="node"><title>Node0</title>
<g id="a_node1"><a xlink:href="classDGtal_1_1StarShaped2D.html" target="_top" xlink:title="DGtal::StarShaped2D\l\&lt; TSpace \&gt;">
<polygon fill="white" stroke="black" points="0,-121 0,-151 120,-151 120,-121 0,-121"/>
<text text-anchor="start" x="8" y="-139" font-family="FreeSans" font-size="10.00">DGtal::StarShaped2D</text>
<text text-anchor="middle" x="60" y="-128" font-family="FreeSans" font-size="10.00">&lt; TSpace &gt;</text>
</a>
</g>
</g>
<!-- Node1 -->
<g id="node2" class="node"><title>Node1</title>
<g id="a_node2"><a xlink:href="classDGtal_1_1AccFlower2D.html" target="_top" xlink:title="Aim: Model of the concept StarShaped represents any accelerated flower in the plane. ">
<polygon fill="white" stroke="black" points="178.5,-241 178.5,-271 288.5,-271 288.5,-241 178.5,-241"/>
<text text-anchor="start" x="186.5" y="-259" font-family="FreeSans" font-size="10.00">DGtal::AccFlower2D</text>
<text text-anchor="middle" x="233.5" y="-248" font-family="FreeSans" font-size="10.00">&lt; TSpace &gt;</text>
</a>
</g>
</g>
<!-- Node0&#45;&gt;Node1 -->
<g id="edge1" class="edge"><title>Node0&#45;&gt;Node1</title>
<path fill="none" stroke="midnightblue" d="M78.5854,-158.98C96.081,-180.394 124.765,-211.823 156,-231 162.906,-235.24 170.61,-238.842 178.395,-241.878"/>
<polygon fill="midnightblue" stroke="midnightblue" points="81.2092,-156.657 72.2297,-151.034 75.7427,-161.029 81.2092,-156.657"/>
</g>
<!-- Node2 -->
<g id="node3" class="node"><title>Node2</title>
<g id="a_node3"><a xlink:href="classDGtal_1_1Astroid2D.html" target="_top" xlink:title="Aim: Model of the concept StarShaped represents an astroid. ">
<polygon fill="white" stroke="black" points="156,-202.5 156,-221.5 311,-221.5 311,-202.5 156,-202.5"/>
<text text-anchor="middle" x="233.5" y="-209.5" font-family="FreeSans" font-size="10.00">DGtal::Astroid2D&lt; TSpace &gt;</text>
</a>
</g>
</g>
<!-- Node0&#45;&gt;Node2 -->
<g id="edge2" class="edge"><title>Node0&#45;&gt;Node2</title>
<path fill="none" stroke="midnightblue" d="M90.3314,-156.718C108.523,-168.759 132.781,-183.403 156,-193 165.106,-196.764 175.141,-199.913 184.862,-202.496"/>
<polygon fill="midnightblue" stroke="midnightblue" points="92.1684,-153.735 81.9197,-151.049 88.2564,-159.54 92.1684,-153.735"/>
</g>
<!-- Node3 -->
<g id="node4" class="node"><title>Node3</title>
<g id="a_node4"><a xlink:href="classDGtal_1_1Ball2D.html" target="_top" xlink:title="Aim: Model of the concept StarShaped represents any circle in the plane. ">
<polygon fill="white" stroke="black" points="164.5,-164.5 164.5,-183.5 302.5,-183.5 302.5,-164.5 164.5,-164.5"/>
<text text-anchor="middle" x="233.5" y="-171.5" font-family="FreeSans" font-size="10.00">DGtal::Ball2D&lt; TSpace &gt;</text>
</a>
</g>
</g>
<!-- Node0&#45;&gt;Node3 -->
<g id="edge3" class="edge"><title>Node0&#45;&gt;Node3</title>
<path fill="none" stroke="midnightblue" d="M129.814,-151.247C150.019,-155.724 171.531,-160.491 189.617,-164.498"/>
<polygon fill="midnightblue" stroke="midnightblue" points="130.541,-147.824 120.021,-149.077 129.027,-154.658 130.541,-147.824"/>
</g>
<!-- Node4 -->
<g id="node5" class="node"><title>Node4</title>
<g id="a_node5"><a xlink:href="classDGtal_1_1Ellipse2D.html" target="_top" xlink:title="Aim: Model of the concept StarShaped represents any ellipse in the plane. ">
<polygon fill="white" stroke="black" points="158,-126.5 158,-145.5 309,-145.5 309,-126.5 158,-126.5"/>
<text text-anchor="middle" x="233.5" y="-133.5" font-family="FreeSans" font-size="10.00">DGtal::Ellipse2D&lt; TSpace &gt;</text>
</a>
</g>
</g>
<!-- Node0&#45;&gt;Node4 -->
<g id="edge4" class="edge"><title>Node0&#45;&gt;Node4</title>
<path fill="none" stroke="midnightblue" d="M130.192,-136C139.32,-136 148.708,-136 157.921,-136"/>
<polygon fill="midnightblue" stroke="midnightblue" points="130.021,-132.5 120.021,-136 130.021,-139.5 130.021,-132.5"/>
</g>
<!-- Node5 -->
<g id="node6" class="node"><title>Node5</title>
<g id="a_node6"><a xlink:href="classDGtal_1_1Flower2D.html" target="_top" xlink:title="Aim: Model of the concept StarShaped represents any flower with k&#45;petals in the plane. ">
<polygon fill="white" stroke="black" points="158,-88.5 158,-107.5 309,-107.5 309,-88.5 158,-88.5"/>
<text text-anchor="middle" x="233.5" y="-95.5" font-family="FreeSans" font-size="10.00">DGtal::Flower2D&lt; TSpace &gt;</text>
</a>
</g>
</g>
<!-- Node0&#45;&gt;Node5 -->
<g id="edge5" class="edge"><title>Node0&#45;&gt;Node5</title>
<path fill="none" stroke="midnightblue" d="M129.814,-120.753C150.019,-116.276 171.531,-111.509 189.617,-107.502"/>
<polygon fill="midnightblue" stroke="midnightblue" points="129.027,-117.342 120.021,-122.923 130.541,-124.176 129.027,-117.342"/>
</g>
<!-- Node6 -->
<g id="node7" class="node"><title>Node6</title>
<g id="a_node7"><a xlink:href="classDGtal_1_1Lemniscate2D.html" target="_top" xlink:title="Aim: Model of the concept StarShaped represents a lemniscate. ">
<polygon fill="white" stroke="black" points="174,-39 174,-69 293,-69 293,-39 174,-39"/>
<text text-anchor="start" x="182" y="-57" font-family="FreeSans" font-size="10.00">DGtal::Lemniscate2D</text>
<text text-anchor="middle" x="233.5" y="-46" font-family="FreeSans" font-size="10.00">&lt; TSpace &gt;</text>
</a>
</g>
</g>
<!-- Node0&#45;&gt;Node6 -->
<g id="edge6" class="edge"><title>Node0&#45;&gt;Node6</title>
<path fill="none" stroke="midnightblue" d="M91.3173,-115.414C109.516,-103.673 133.444,-89.2939 156,-79 163.881,-75.4033 172.432,-72.0825 180.866,-69.1147"/>
<polygon fill="midnightblue" stroke="midnightblue" points="89.3275,-112.533 82.8745,-120.936 93.1592,-118.392 89.3275,-112.533"/>
</g>
<!-- Node7 -->
<g id="node8" class="node"><title>Node7</title>
<g id="a_node8"><a xlink:href="classDGtal_1_1NGon2D.html" target="_top" xlink:title="Aim: Model of the concept StarShaped represents any regular k&#45;gon in the plane. ">
<polygon fill="white" stroke="black" points="159.5,-0.5 159.5,-19.5 307.5,-19.5 307.5,-0.5 159.5,-0.5"/>
<text text-anchor="middle" x="233.5" y="-7.5" font-family="FreeSans" font-size="10.00">DGtal::NGon2D&lt; TSpace &gt;</text>
</a>
</g>
</g>
<!-- Node0&#45;&gt;Node7 -->
<g id="edge7" class="edge"><title>Node0&#45;&gt;Node7</title>
<path fill="none" stroke="midnightblue" d="M76.1138,-112.176C92.7645,-87.8846 121.77,-50.8877 156,-30 163.148,-25.6381 171.233,-22.2194 179.403,-19.542"/>
<polygon fill="midnightblue" stroke="midnightblue" points="72.995,-110.544 70.3519,-120.804 78.8162,-114.432 72.995,-110.544"/>
</g>
</g>
</svg>
