<?xml version="1.0" encoding="UTF-8" standalone="no"?>
<!DOCTYPE svg PUBLIC "-//W3C//DTD SVG 1.1//EN"
 "http://www.w3.org/Graphics/SVG/1.1/DTD/svg11.dtd">
<!-- Generated by graphviz version 2.38.0 (20140413.2041)
 -->
<!-- Title: Graphical Class Hierarchy Pages: 1 -->
<svg width="307pt" height="142pt"
 viewBox="0.00 0.00 307.00 142.00" xmlns="http://www.w3.org/2000/svg" xmlns:xlink="http://www.w3.org/1999/xlink">
<g id="graph0" class="graph" transform="scale(1 1) rotate(0) translate(4 138)">
<title>Graphical Class Hierarchy</title>
<polygon fill="white" stroke="none" points="-4,4 -4,-138 303,-138 303,4 -4,4"/>
<!-- Node1480 -->
<g id="node1" class="node"><title>Node1480</title>
<polygon fill="white" stroke="#bfbfbf" points="0,-38.5 0,-57.5 119,-57.5 119,-38.5 0,-38.5"/>
<text text-anchor="middle" x="59.5" y="-45.5" font-family="FreeSans" font-size="10.00">adjacency_graph_tag</text>
</g>
<!-- Node0 -->
<g id="node2" class="node"><title>Node0</title>
<g id="a_node2"><a xlink:href="structboost_1_1DigitalSurface__graph__traversal__category.html" target="_top" xlink:title="boost::DigitalSurface\l_graph_traversal_category">
<polygon fill="white" stroke="black" points="155,-76 155,-106 299,-106 299,-76 155,-76"/>
<text text-anchor="start" x="163" y="-94" font-family="FreeSans" font-size="10.00">boost::DigitalSurface</text>
<text text-anchor="middle" x="227" y="-83" font-family="FreeSans" font-size="10.00">_graph_traversal_category</text>
</a>
</g>
</g>
<!-- Node1480&#45;&gt;Node0 -->
<g id="edge1" class="edge"><title>Node1480&#45;&gt;Node0</title>
<path fill="none" stroke="midnightblue" d="M107.129,-60.115C126.112,-65.0473 148.252,-70.7995 168.243,-75.9937"/>
<polygon fill="midnightblue" stroke="midnightblue" points="107.789,-56.6703 97.2298,-57.5431 106.028,-63.4454 107.789,-56.6703"/>
</g>
<!-- Node28 -->
<g id="node3" class="node"><title>Node28</title>
<g id="a_node3"><a xlink:href="structboost_1_1Object__graph__traversal__category.html" target="_top" xlink:title="boost::Object_graph\l_traversal_category">
<polygon fill="white" stroke="black" points="170.5,-27 170.5,-57 283.5,-57 283.5,-27 170.5,-27"/>
<text text-anchor="start" x="178.5" y="-45" font-family="FreeSans" font-size="10.00">boost::Object_graph</text>
<text text-anchor="middle" x="227" y="-34" font-family="FreeSans" font-size="10.00">_traversal_category</text>
</a>
</g>
</g>
<!-- Node1480&#45;&gt;Node28 -->
<g id="edge2" class="edge"><title>Node1480&#45;&gt;Node28</title>
<path fill="none" stroke="midnightblue" d="M129.599,-45.4949C143.209,-45.0015 157.326,-44.4897 170.421,-44.0149"/>
<polygon fill="midnightblue" stroke="midnightblue" points="129.182,-42.0076 119.315,-45.8677 129.435,-49.003 129.182,-42.0076"/>
</g>
<!-- Node913 -->
<g id="node4" class="node"><title>Node913</title>
<polygon fill="white" stroke="#bfbfbf" points="3,-0.5 3,-19.5 116,-19.5 116,-0.5 3,-0.5"/>
<text text-anchor="middle" x="59.5" y="-7.5" font-family="FreeSans" font-size="10.00">edge_list_graph_tag</text>
</g>
<!-- Node913&#45;&gt;Node0 -->
<g id="edge3" class="edge"><title>Node913&#45;&gt;Node0</title>
<path fill="none" stroke="midnightblue" d="M108.461,-23.3422C112.132,-25.0307 115.692,-26.911 119,-29 138.671,-41.4213 135.404,-54.4615 155,-67 160.261,-70.3661 166.045,-73.3136 171.971,-75.8812"/>
<polygon fill="midnightblue" stroke="midnightblue" points="109.764,-20.0939 99.1843,-19.5306 107.104,-26.5686 109.764,-20.0939"/>
</g>
<!-- Node913&#45;&gt;Node28 -->
<g id="edge4" class="edge"><title>Node913&#45;&gt;Node28</title>
<path fill="none" stroke="midnightblue" d="M119.761,-21.4582C136.229,-24.6425 154.051,-28.0885 170.308,-31.2318"/>
<polygon fill="midnightblue" stroke="midnightblue" points="120.19,-17.9765 109.707,-19.5144 118.861,-24.8492 120.19,-17.9765"/>
</g>
<!-- Node720 -->
<g id="node5" class="node"><title>Node720</title>
<polygon fill="white" stroke="#bfbfbf" points="1.5,-114.5 1.5,-133.5 117.5,-133.5 117.5,-114.5 1.5,-114.5"/>
<text text-anchor="middle" x="59.5" y="-121.5" font-family="FreeSans" font-size="10.00">incidence_graph_tag</text>
</g>
<!-- Node720&#45;&gt;Node0 -->
<g id="edge5" class="edge"><title>Node720&#45;&gt;Node0</title>
<path fill="none" stroke="midnightblue" d="M118.475,-112.44C130.22,-110.098 142.698,-107.61 154.838,-105.189"/>
<polygon fill="midnightblue" stroke="midnightblue" points="117.492,-109.067 108.369,-114.455 118.861,-115.932 117.492,-109.067"/>
</g>
<!-- Node720&#45;&gt;Node28 -->
<g id="edge6" class="edge"><title>Node720&#45;&gt;Node28</title>
<path fill="none" stroke="midnightblue" d="M108.461,-110.658C112.132,-108.969 115.692,-107.089 119,-105 138.671,-92.5787 135.483,-79.6615 155,-67 160.811,-63.2305 167.258,-59.9502 173.83,-57.1182"/>
<polygon fill="midnightblue" stroke="midnightblue" points="107.104,-107.431 99.1843,-114.469 109.764,-113.906 107.104,-107.431"/>
</g>
<!-- Node26 -->
<g id="node6" class="node"><title>Node26</title>
<polygon fill="white" stroke="#bfbfbf" points="0,-76.5 0,-95.5 119,-95.5 119,-76.5 0,-76.5"/>
<text text-anchor="middle" x="59.5" y="-83.5" font-family="FreeSans" font-size="10.00">vertex_list_graph_tag</text>
</g>
<!-- Node26&#45;&gt;Node0 -->
<g id="edge7" class="edge"><title>Node26&#45;&gt;Node0</title>
<path fill="none" stroke="midnightblue" d="M129.451,-88.0831C137.86,-88.3372 146.465,-88.5971 154.905,-88.8521"/>
<polygon fill="midnightblue" stroke="midnightblue" points="129.416,-84.5806 119.315,-87.7769 129.205,-91.5774 129.416,-84.5806"/>
</g>
<!-- Node26&#45;&gt;Node28 -->
<g id="edge8" class="edge"><title>Node26&#45;&gt;Node28</title>
<path fill="none" stroke="midnightblue" d="M106.136,-73.8673C125.988,-68.5893 149.435,-62.3557 170.303,-56.8078"/>
<polygon fill="midnightblue" stroke="midnightblue" points="105.176,-70.5007 96.411,-76.4527 106.975,-77.2657 105.176,-70.5007"/>
</g>
</g>
</svg>
