<?xml version="1.0" encoding="UTF-8" standalone="no"?>
<!DOCTYPE svg PUBLIC "-//W3C//DTD SVG 1.1//EN"
 "http://www.w3.org/Graphics/SVG/1.1/DTD/svg11.dtd">
<!-- Generated by graphviz version 2.38.0 (20140413.2041)
 -->
<!-- Title: Graphical Class Hierarchy Pages: 1 -->
<svg width="339pt" height="132pt"
 viewBox="0.00 0.00 339.00 132.00" xmlns="http://www.w3.org/2000/svg" xmlns:xlink="http://www.w3.org/1999/xlink">
<g id="graph0" class="graph" transform="scale(1 1) rotate(0) translate(4 128)">
<title>Graphical Class Hierarchy</title>
<polygon fill="white" stroke="none" points="-4,4 -4,-128 335,-128 335,4 -4,4"/>
<!-- Node0 -->
<g id="node1" class="node"><title>Node0</title>
<g id="a_node1"><a xlink:href="structDGtal_1_1details_1_1NumberTraitsImplFundamental.html" target="_top" xlink:title="NumberTraits common part for fundamental integer and floating&#45;point types. ">
<polygon fill="white" stroke="black" points="0,-46.5 0,-76.5 151,-76.5 151,-46.5 0,-46.5"/>
<text text-anchor="start" x="8" y="-64.5" font-family="FreeSans" font-size="10.00">DGtal::details::NumberTraits</text>
<text text-anchor="middle" x="75.5" y="-53.5" font-family="FreeSans" font-size="10.00">ImplFundamental&lt; T &gt;</text>
</a>
</g>
</g>
<!-- Node1 -->
<g id="node2" class="node"><title>Node1</title>
<g id="a_node2"><a xlink:href="structDGtal_1_1NumberTraitsImpl_3_01T_00_01typename_01std_1_1enable__if_3_01std_1_1is__floating_29bbe2652e6d58e33f41f614fd754864.html" target="_top" xlink:title="Specialization of NumberTraitsImpl for fundamental floating&#45;point types. ">
<polygon fill="white" stroke="black" points="187,-71.5 187,-123.5 331,-123.5 331,-71.5 187,-71.5"/>
<text text-anchor="start" x="195" y="-111.5" font-family="FreeSans" font-size="10.00">DGtal::NumberTraitsImpl</text>
<text text-anchor="start" x="195" y="-100.5" font-family="FreeSans" font-size="10.00">&lt; T, typename std::enable</text>
<text text-anchor="start" x="195" y="-89.5" font-family="FreeSans" font-size="10.00">_if&lt; std::is_floating_point</text>
<text text-anchor="middle" x="259" y="-78.5" font-family="FreeSans" font-size="10.00">&lt; T &gt;::value &gt;::type &gt;</text>
</a>
</g>
</g>
<!-- Node0&#45;&gt;Node1 -->
<g id="edge1" class="edge"><title>Node0&#45;&gt;Node1</title>
<path fill="none" stroke="midnightblue" d="M161.162,-78.2924C169.77,-79.9999 178.452,-81.7219 186.896,-83.3966"/>
<polygon fill="midnightblue" stroke="midnightblue" points="161.599,-74.811 151.109,-76.2984 160.237,-81.6772 161.599,-74.811"/>
</g>
<!-- Node2 -->
<g id="node3" class="node"><title>Node2</title>
<g id="a_node3"><a xlink:href="structDGtal_1_1NumberTraitsImpl_3_01T_00_01typename_01std_1_1enable__if_3_01std_1_1is__integral_1ce5c08ef142b54c10962f6a14786276.html" target="_top" xlink:title="Specialization of NumberTraitsImpl for fundamental integer types. ">
<polygon fill="white" stroke="black" points="187,-0.5 187,-52.5 331,-52.5 331,-0.5 187,-0.5"/>
<text text-anchor="start" x="195" y="-40.5" font-family="FreeSans" font-size="10.00">DGtal::NumberTraitsImpl</text>
<text text-anchor="start" x="195" y="-29.5" font-family="FreeSans" font-size="10.00">&lt; T, typename std::enable</text>
<text text-anchor="start" x="195" y="-18.5" font-family="FreeSans" font-size="10.00">_if&lt; std::is_integral&lt; T</text>
<text text-anchor="middle" x="259" y="-7.5" font-family="FreeSans" font-size="10.00"> &gt;::value &gt;::type &gt;</text>
</a>
</g>
</g>
<!-- Node0&#45;&gt;Node2 -->
<g id="edge2" class="edge"><title>Node0&#45;&gt;Node2</title>
<path fill="none" stroke="midnightblue" d="M161.162,-45.174C169.77,-43.514 178.452,-41.8398 186.896,-40.2116"/>
<polygon fill="midnightblue" stroke="midnightblue" points="160.265,-41.7824 151.109,-47.1126 161.591,-48.6558 160.265,-41.7824"/>
</g>
</g>
</svg>
