<?xml version="1.0" encoding="UTF-8" standalone="no"?>
<!DOCTYPE svg PUBLIC "-//W3C//DTD SVG 1.1//EN"
 "http://www.w3.org/Graphics/SVG/1.1/DTD/svg11.dtd">
<!-- Generated by graphviz version 2.38.0 (20140413.2041)
 -->
<!-- Title: Graphical Class Hierarchy Pages: 1 -->
<svg width="466pt" height="235pt"
 viewBox="0.00 0.00 466.00 235.00" xmlns="http://www.w3.org/2000/svg" xmlns:xlink="http://www.w3.org/1999/xlink">
<g id="graph0" class="graph" transform="scale(1 1) rotate(0) translate(4 231)">
<title>Graphical Class Hierarchy</title>
<polygon fill="white" stroke="none" points="-4,4 -4,-231 462,-231 462,4 -4,4"/>
<!-- Node954 -->
<g id="node1" class="node"><title>Node954</title>
<g id="a_node1"><a xlink:href="classDGtal_1_1Display3D.html" target="_top" xlink:title="Aim: This semi abstract class defines the stream mechanism to display 3d primitive (like BallVector...">
<polygon fill="white" stroke="black" points="34.5,-147.5 34.5,-177.5 176.5,-177.5 176.5,-147.5 34.5,-147.5"/>
<text text-anchor="start" x="42.5" y="-165.5" font-family="FreeSans" font-size="10.00">DGtal::Display3D&lt; Space,</text>
<text text-anchor="middle" x="105.5" y="-154.5" font-family="FreeSans" font-size="10.00"> KSpace &gt;</text>
</a>
</g>
</g>
<!-- Node955 -->
<g id="node2" class="node"><title>Node955</title>
<g id="a_node2"><a xlink:href="classDGtal_1_1Board3D.html" target="_top" xlink:title="The class Board3D is a type of Display3D which export the figures in the format OBJ/MTL when calling ...">
<polygon fill="white" stroke="black" points="284.5,-147.5 284.5,-177.5 420.5,-177.5 420.5,-147.5 284.5,-147.5"/>
<text text-anchor="start" x="292.5" y="-165.5" font-family="FreeSans" font-size="10.00">DGtal::Board3D&lt; Space,</text>
<text text-anchor="middle" x="352.5" y="-154.5" font-family="FreeSans" font-size="10.00"> KSpace &gt;</text>
</a>
</g>
</g>
<!-- Node954&#45;&gt;Node955 -->
<g id="edge1" class="edge"><title>Node954&#45;&gt;Node955</title>
<path fill="none" stroke="midnightblue" d="M186.782,-162.5C218.313,-162.5 254.095,-162.5 284.235,-162.5"/>
<polygon fill="midnightblue" stroke="midnightblue" points="186.707,-159 176.707,-162.5 186.707,-166 186.707,-159"/>
</g>
<!-- Node956 -->
<g id="node3" class="node"><title>Node956</title>
<g id="a_node3"><a xlink:href="classDGtal_1_1Board3DTo2D.html" target="_top" xlink:title="Class for PDF, PNG, PS, EPS, SVG export drawings with Cairo with 3D&#45;&gt;2D projection. ">
<polygon fill="white" stroke="black" points="295,-196.5 295,-226.5 410,-226.5 410,-196.5 295,-196.5"/>
<text text-anchor="start" x="303" y="-214.5" font-family="FreeSans" font-size="10.00">DGtal::Board3DTo2D</text>
<text text-anchor="middle" x="352.5" y="-203.5" font-family="FreeSans" font-size="10.00">&lt; Space, KSpace &gt;</text>
</a>
</g>
</g>
<!-- Node954&#45;&gt;Node956 -->
<g id="edge2" class="edge"><title>Node954&#45;&gt;Node956</title>
<path fill="none" stroke="midnightblue" d="M186.534,-178.507C221.924,-185.585 262.71,-193.742 294.873,-200.175"/>
<polygon fill="midnightblue" stroke="midnightblue" points="187.199,-175.071 176.707,-176.541 185.827,-181.935 187.199,-175.071"/>
</g>
<!-- Node316 -->
<g id="node4" class="node"><title>Node316</title>
<g id="a_node4"><a xlink:href="classDGtal_1_1Viewer3D.html" target="_top" xlink:title="DGtal::Viewer3D\&lt; Space,\l KSpace \&gt;">
<polygon fill="white" stroke="black" points="283,-98.5 283,-128.5 422,-128.5 422,-98.5 283,-98.5"/>
<text text-anchor="start" x="291" y="-116.5" font-family="FreeSans" font-size="10.00">DGtal::Viewer3D&lt; Space,</text>
<text text-anchor="middle" x="352.5" y="-105.5" font-family="FreeSans" font-size="10.00"> KSpace &gt;</text>
</a>
</g>
</g>
<!-- Node954&#45;&gt;Node316 -->
<g id="edge3" class="edge"><title>Node954&#45;&gt;Node316</title>
<path fill="none" stroke="midnightblue" d="M186.654,-146.469C217.777,-140.245 253.059,-133.188 282.974,-127.205"/>
<polygon fill="midnightblue" stroke="midnightblue" points="185.827,-143.065 176.707,-148.459 187.199,-149.929 185.827,-143.065"/>
</g>
<!-- Node953 -->
<g id="node5" class="node"><title>Node953</title>
<g id="a_node5"><a xlink:href="classDGtal_1_1Display3D.html" target="_top" xlink:title="DGtal::Display3D\&lt; DGtal\l::SpaceND, DGtal::KhalimskySpaceND \&gt;">
<polygon fill="white" stroke="black" points="0,-49.5 0,-79.5 211,-79.5 211,-49.5 0,-49.5"/>
<text text-anchor="start" x="8" y="-67.5" font-family="FreeSans" font-size="10.00">DGtal::Display3D&lt; DGtal</text>
<text text-anchor="middle" x="105.5" y="-56.5" font-family="FreeSans" font-size="10.00">::SpaceND, DGtal::KhalimskySpaceND &gt;</text>
</a>
</g>
</g>
<!-- Node315 -->
<g id="node6" class="node"><title>Node315</title>
<g id="a_node6"><a xlink:href="classDGtal_1_1Viewer3D.html" target="_top" xlink:title="DGtal::Viewer3D\&lt; DGtal\l::SpaceND, DGtal::KhalimskySpaceND \&gt;">
<polygon fill="white" stroke="black" points="247,-49.5 247,-79.5 458,-79.5 458,-49.5 247,-49.5"/>
<text text-anchor="start" x="255" y="-67.5" font-family="FreeSans" font-size="10.00">DGtal::Viewer3D&lt; DGtal</text>
<text text-anchor="middle" x="352.5" y="-56.5" font-family="FreeSans" font-size="10.00">::SpaceND, DGtal::KhalimskySpaceND &gt;</text>
</a>
</g>
</g>
<!-- Node953&#45;&gt;Node315 -->
<g id="edge4" class="edge"><title>Node953&#45;&gt;Node315</title>
<path fill="none" stroke="midnightblue" d="M221.143,-64.5C229.716,-64.5 238.34,-64.5 246.847,-64.5"/>
<polygon fill="midnightblue" stroke="midnightblue" points="221.113,-61.0001 211.113,-64.5 221.113,-68.0001 221.113,-61.0001"/>
</g>
<!-- Node949 -->
<g id="node7" class="node"><title>Node949</title>
<g id="a_node7"><a xlink:href="classDGtal_1_1Display3D.html" target="_top" xlink:title="DGtal::Display3D\&lt; TSpace,\l TKSpace \&gt;">
<polygon fill="white" stroke="black" points="32,-0.5 32,-30.5 179,-30.5 179,-0.5 32,-0.5"/>
<text text-anchor="start" x="40" y="-18.5" font-family="FreeSans" font-size="10.00">DGtal::Display3D&lt; TSpace,</text>
<text text-anchor="middle" x="105.5" y="-7.5" font-family="FreeSans" font-size="10.00"> TKSpace &gt;</text>
</a>
</g>
</g>
<!-- Node0 -->
<g id="node8" class="node"><title>Node0</title>
<g id="a_node8"><a xlink:href="classDGtal_1_1Viewer3D.html" target="_top" xlink:title="DGtal::Viewer3D\&lt; TSpace,\l TKSpace \&gt;">
<polygon fill="white" stroke="black" points="280.5,-0.5 280.5,-30.5 424.5,-30.5 424.5,-0.5 280.5,-0.5"/>
<text text-anchor="start" x="288.5" y="-18.5" font-family="FreeSans" font-size="10.00">DGtal::Viewer3D&lt; TSpace,</text>
<text text-anchor="middle" x="352.5" y="-7.5" font-family="FreeSans" font-size="10.00"> TKSpace &gt;</text>
</a>
</g>
</g>
<!-- Node949&#45;&gt;Node0 -->
<g id="edge5" class="edge"><title>Node949&#45;&gt;Node0</title>
<path fill="none" stroke="midnightblue" d="M189.319,-15.5C218.898,-15.5 251.938,-15.5 280.439,-15.5"/>
<polygon fill="midnightblue" stroke="midnightblue" points="189.014,-12.0001 179.014,-15.5 189.014,-19.0001 189.014,-12.0001"/>
</g>
<!-- Node313 -->
<g id="node9" class="node"><title>Node313</title>
<polygon fill="white" stroke="#bfbfbf" points="71.5,-99 71.5,-118 139.5,-118 139.5,-99 71.5,-99"/>
<text text-anchor="middle" x="105.5" y="-106" font-family="FreeSans" font-size="10.00">QGLViewer</text>
</g>
<!-- Node313&#45;&gt;Node316 -->
<g id="edge8" class="edge"><title>Node313&#45;&gt;Node316</title>
<path fill="none" stroke="midnightblue" d="M149.939,-109.387C186.782,-110.138 240.284,-111.23 282.908,-112.1"/>
<polygon fill="midnightblue" stroke="midnightblue" points="149.611,-105.879 139.542,-109.174 149.468,-112.878 149.611,-105.879"/>
</g>
<!-- Node313&#45;&gt;Node315 -->
<g id="edge7" class="edge"><title>Node313&#45;&gt;Node315</title>
<path fill="none" stroke="midnightblue" d="M149.66,-100.749C182.329,-94.8818 228.21,-86.6419 267.974,-79.5005"/>
<polygon fill="midnightblue" stroke="midnightblue" points="148.766,-97.3534 139.542,-102.566 150.003,-104.243 148.766,-97.3534"/>
</g>
<!-- Node313&#45;&gt;Node0 -->
<g id="edge6" class="edge"><title>Node313&#45;&gt;Node0</title>
<path fill="none" stroke="midnightblue" d="M149.916,-107.35C169.802,-105.101 192.911,-99.9201 211,-88.5 233.851,-74.0738 224.417,-54.3425 247,-39.5 257.033,-32.9055 268.645,-28.1105 280.402,-24.6269"/>
<polygon fill="midnightblue" stroke="midnightblue" points="149.492,-103.874 139.855,-108.276 150.134,-110.845 149.492,-103.874"/>
</g>
</g>
</svg>
