<?xml version="1.0" encoding="UTF-8" standalone="no"?>
<!DOCTYPE svg PUBLIC "-//W3C//DTD SVG 1.1//EN"
 "http://www.w3.org/Graphics/SVG/1.1/DTD/svg11.dtd">
<!-- Generated by graphviz version 2.38.0 (20140413.2041)
 -->
<!-- Title: Graphical Class Hierarchy Pages: 1 -->
<svg width="383pt" height="88pt"
 viewBox="0.00 0.00 383.00 88.00" xmlns="http://www.w3.org/2000/svg" xmlns:xlink="http://www.w3.org/1999/xlink">
<g id="graph0" class="graph" transform="scale(1 1) rotate(0) translate(4 84)">
<title>Graphical Class Hierarchy</title>
<polygon fill="white" stroke="none" points="-4,4 -4,-84 379,-84 379,4 -4,4"/>
<!-- Node0 -->
<g id="node1" class="node"><title>Node0</title>
<g id="a_node1"><a xlink:href="classDGtal_1_1TwoStepLocalLengthEstimator.html" target="_top" xlink:title="Aim: a simple model of CGlobalCurveEstimator that compute the length of a curve using the l_1 metric ...">
<polygon fill="white" stroke="black" points="0,-24.5 0,-54.5 153,-54.5 153,-24.5 0,-24.5"/>
<text text-anchor="start" x="8" y="-42.5" font-family="FreeSans" font-size="10.00">DGtal::TwoStepLocalLength</text>
<text text-anchor="middle" x="76.5" y="-31.5" font-family="FreeSans" font-size="10.00">Estimator&lt; TConstIterator &gt;</text>
</a>
</g>
</g>
<!-- Node1 -->
<g id="node2" class="node"><title>Node1</title>
<g id="a_node2"><a xlink:href="classDGtal_1_1BLUELocalLengthEstimator.html" target="_top" xlink:title="Aim: Best Linear Unbiased Two step length estimator. ">
<polygon fill="white" stroke="black" points="192.5,-49.5 192.5,-79.5 371.5,-79.5 371.5,-49.5 192.5,-49.5"/>
<text text-anchor="start" x="200.5" y="-67.5" font-family="FreeSans" font-size="10.00">DGtal::BLUELocalLengthEstimator</text>
<text text-anchor="middle" x="282" y="-56.5" font-family="FreeSans" font-size="10.00">&lt; TConstIterator &gt;</text>
</a>
</g>
</g>
<!-- Node0&#45;&gt;Node1 -->
<g id="edge1" class="edge"><title>Node0&#45;&gt;Node1</title>
<path fill="none" stroke="midnightblue" d="M163.254,-50.0349C172.912,-51.2213 182.766,-52.432 192.459,-53.6227"/>
<polygon fill="midnightblue" stroke="midnightblue" points="163.628,-46.5546 153.276,-48.8091 162.774,-53.5024 163.628,-46.5546"/>
</g>
<!-- Node2 -->
<g id="node3" class="node"><title>Node2</title>
<g id="a_node3"><a xlink:href="classDGtal_1_1RosenProffittLocalLengthEstimator.html" target="_top" xlink:title="Aim: Rosen&#45;Proffitt Length Estimator. ">
<polygon fill="white" stroke="black" points="189,-0.5 189,-30.5 375,-30.5 375,-0.5 189,-0.5"/>
<text text-anchor="start" x="197" y="-18.5" font-family="FreeSans" font-size="10.00">DGtal::RosenProffittLocal</text>
<text text-anchor="middle" x="282" y="-7.5" font-family="FreeSans" font-size="10.00">LengthEstimator&lt; TConstIterator &gt;</text>
</a>
</g>
</g>
<!-- Node0&#45;&gt;Node2 -->
<g id="edge2" class="edge"><title>Node0&#45;&gt;Node2</title>
<path fill="none" stroke="midnightblue" d="M163.475,-29.3604C171.91,-28.3656 180.493,-27.3534 188.985,-26.3518"/>
<polygon fill="midnightblue" stroke="midnightblue" points="162.797,-25.916 153.276,-30.5633 163.617,-32.8679 162.797,-25.916"/>
</g>
</g>
</svg>
