<?xml version="1.0" encoding="UTF-8" standalone="no"?>
<!DOCTYPE svg PUBLIC "-//W3C//DTD SVG 1.1//EN"
 "http://www.w3.org/Graphics/SVG/1.1/DTD/svg11.dtd">
<!-- Generated by graphviz version 2.38.0 (20140413.2041)
 -->
<!-- Title: Graphical Class Hierarchy Pages: 1 -->
<svg width="390pt" height="50pt"
 viewBox="0.00 0.00 390.00 50.00" xmlns="http://www.w3.org/2000/svg" xmlns:xlink="http://www.w3.org/1999/xlink">
<g id="graph0" class="graph" transform="scale(1 1) rotate(0) translate(4 46)">
<title>Graphical Class Hierarchy</title>
<polygon fill="white" stroke="none" points="-4,4 -4,-46 386,-46 386,4 -4,4"/>
<!-- Node0 -->
<g id="node1" class="node"><title>Node0</title>
<g id="a_node1"><a xlink:href="classDGtal_1_1PowerMap.html" target="_top" xlink:title="DGtal::PowerMap\&lt; TWeight\lImage, TPSeparableMetric,\l TImageContainer \&gt;">
<polygon fill="white" stroke="black" points="0,-0.5 0,-41.5 146,-41.5 146,-0.5 0,-0.5"/>
<text text-anchor="start" x="8" y="-29.5" font-family="FreeSans" font-size="10.00">DGtal::PowerMap&lt; TWeight</text>
<text text-anchor="start" x="8" y="-18.5" font-family="FreeSans" font-size="10.00">Image, TPSeparableMetric,</text>
<text text-anchor="middle" x="73" y="-7.5" font-family="FreeSans" font-size="10.00"> TImageContainer &gt;</text>
</a>
</g>
</g>
<!-- Node1 -->
<g id="node2" class="node"><title>Node1</title>
<g id="a_node2"><a xlink:href="classDGtal_1_1ReverseDistanceTransformation.html" target="_top" xlink:title="Aim: Implementation of the linear in time reverse distance transformation for separable metrics...">
<polygon fill="white" stroke="black" points="182,-0.5 182,-41.5 382,-41.5 382,-0.5 182,-0.5"/>
<text text-anchor="start" x="190" y="-29.5" font-family="FreeSans" font-size="10.00">DGtal::ReverseDistanceTransformation</text>
<text text-anchor="start" x="190" y="-18.5" font-family="FreeSans" font-size="10.00">&lt; TWeightImage, TPSeparableMetric,</text>
<text text-anchor="middle" x="282" y="-7.5" font-family="FreeSans" font-size="10.00"> TImageContainer &gt;</text>
</a>
</g>
</g>
<!-- Node0&#45;&gt;Node1 -->
<g id="edge1" class="edge"><title>Node0&#45;&gt;Node1</title>
<path fill="none" stroke="midnightblue" d="M156.254,-21C164.664,-21 173.27,-21 181.836,-21"/>
<polygon fill="midnightblue" stroke="midnightblue" points="156.108,-17.5001 146.108,-21 156.108,-24.5001 156.108,-17.5001"/>
</g>
</g>
</svg>
