<?xml version="1.0" encoding="UTF-8" standalone="no"?>
<!DOCTYPE svg PUBLIC "-//W3C//DTD SVG 1.1//EN"
 "http://www.w3.org/Graphics/SVG/1.1/DTD/svg11.dtd">
<!-- Generated by graphviz version 2.38.0 (20140413.2041)
 -->
<!-- Title: Graphical Class Hierarchy Pages: 1 -->
<svg width="302pt" height="39pt"
 viewBox="0.00 0.00 302.00 39.00" xmlns="http://www.w3.org/2000/svg" xmlns:xlink="http://www.w3.org/1999/xlink">
<g id="graph0" class="graph" transform="scale(1 1) rotate(0) translate(4 35)">
<title>Graphical Class Hierarchy</title>
<polygon fill="white" stroke="none" points="-4,4 -4,-35 298,-35 298,4 -4,4"/>
<!-- Node1376 -->
<g id="node1" class="node"><title>Node1376</title>
<polygon fill="white" stroke="#bfbfbf" points="0,-0.5 0,-30.5 115,-30.5 115,-0.5 0,-0.5"/>
<text text-anchor="start" x="8" y="-18.5" font-family="FreeSans" font-size="10.00">bidirectional_iterator</text>
<text text-anchor="middle" x="57.5" y="-7.5" font-family="FreeSans" font-size="10.00">_archetype</text>
</g>
<!-- Node0 -->
<g id="node2" class="node"><title>Node0</title>
<g id="a_node2"><a xlink:href="structDGtal_1_1CConstBidirectionalIteratorArchetype.html" target="_top" xlink:title="An archetype of ConstBidirectionalIterator. ">
<polygon fill="white" stroke="black" points="151,-0.5 151,-30.5 294,-30.5 294,-0.5 151,-0.5"/>
<text text-anchor="start" x="159" y="-18.5" font-family="FreeSans" font-size="10.00">DGtal::CConstBidirectional</text>
<text text-anchor="middle" x="222.5" y="-7.5" font-family="FreeSans" font-size="10.00">IteratorArchetype&lt; T &gt;</text>
</a>
</g>
</g>
<!-- Node1376&#45;&gt;Node0 -->
<g id="edge1" class="edge"><title>Node1376&#45;&gt;Node0</title>
<path fill="none" stroke="midnightblue" d="M125.26,-15.5C133.739,-15.5 142.438,-15.5 150.974,-15.5"/>
<polygon fill="midnightblue" stroke="midnightblue" points="125.052,-12.0001 115.052,-15.5 125.052,-19.0001 125.052,-12.0001"/>
</g>
</g>
</svg>
