<?xml version="1.0" encoding="UTF-8" standalone="no"?>
<!DOCTYPE svg PUBLIC "-//W3C//DTD SVG 1.1//EN"
 "http://www.w3.org/Graphics/SVG/1.1/DTD/svg11.dtd">
<!-- Generated by graphviz version 2.38.0 (20140413.2041)
 -->
<!-- Title: DGtal::concepts::CUnaryFunctor&lt; X, A &amp;, R &amp; &gt; Pages: 1 -->
<svg width="178pt" height="163pt"
 viewBox="0.00 0.00 178.00 163.00" xmlns="http://www.w3.org/2000/svg" xmlns:xlink="http://www.w3.org/1999/xlink">
<g id="graph0" class="graph" transform="scale(1 1) rotate(0) translate(4 159)">
<title>DGtal::concepts::CUnaryFunctor&lt; X, A &amp;, R &amp; &gt;</title>
<polygon fill="white" stroke="none" points="-4,4 -4,-159 174,-159 174,4 -4,4"/>
<!-- Node0 -->
<g id="node1" class="node"><title>Node0</title>
<polygon fill="#bfbfbf" stroke="black" points="0,-0.5 0,-30.5 170,-30.5 170,-0.5 0,-0.5"/>
<text text-anchor="start" x="8" y="-18.5" font-family="FreeSans" font-size="10.00">DGtal::concepts::CUnaryFunctor</text>
<text text-anchor="middle" x="85" y="-7.5" font-family="FreeSans" font-size="10.00">&lt; X, A &amp;, R &amp; &gt;</text>
</g>
<!-- Node1 -->
<g id="node2" class="node"><title>Node1</title>
<g id="a_node2"><a xlink:href="structboost_1_1Assignable.html" target="_top" xlink:title="boost::Assignable\&lt; X \&gt;">
<polygon fill="white" stroke="black" points="20,-68.5 20,-87.5 150,-87.5 150,-68.5 20,-68.5"/>
<text text-anchor="middle" x="85" y="-75.5" font-family="FreeSans" font-size="10.00">boost::Assignable&lt; X &gt;</text>
</a>
</g>
</g>
<!-- Node1&#45;&gt;Node0 -->
<g id="edge1" class="edge"><title>Node1&#45;&gt;Node0</title>
<path fill="none" stroke="midnightblue" d="M85,-58.2154C85,-49.3565 85,-38.9577 85,-30.7587"/>
<polygon fill="midnightblue" stroke="midnightblue" points="81.5001,-58.3318 85,-68.3318 88.5001,-58.3319 81.5001,-58.3318"/>
</g>
<!-- Node2 -->
<g id="node3" class="node"><title>Node2</title>
<g id="a_node3"><a xlink:href="structboost_1_1Assignable.html" target="_top" xlink:title="Go to http://www.sgi.com/tech/stl/Assignable.html. ">
<polygon fill="white" stroke="black" points="20.5,-135.5 20.5,-154.5 149.5,-154.5 149.5,-135.5 20.5,-135.5"/>
<text text-anchor="middle" x="85" y="-142.5" font-family="FreeSans" font-size="10.00">boost::Assignable&lt; T &gt;</text>
</a>
</g>
</g>
<!-- Node2&#45;&gt;Node1 -->
<g id="edge2" class="edge"><title>Node2&#45;&gt;Node1</title>
<path fill="none" stroke="orange" stroke-dasharray="5,2" d="M85,-125.037C85,-112.67 85,-97.1198 85,-87.6273"/>
<polygon fill="orange" stroke="orange" points="81.5001,-125.234 85,-135.234 88.5001,-125.234 81.5001,-125.234"/>
<text text-anchor="middle" x="101" y="-109" font-family="FreeSans" font-size="10.00"> &lt; X &gt;</text>
</g>
</g>
</svg>
