<?xml version="1.0" encoding="UTF-8" standalone="no"?>
<!DOCTYPE svg PUBLIC "-//W3C//DTD SVG 1.1//EN"
 "http://www.w3.org/Graphics/SVG/1.1/DTD/svg11.dtd">
<!-- Generated by graphviz version 2.38.0 (20140413.2041)
 -->
<!-- Title: DGtal::KhalimskyPreCell&lt; dim, TInteger &gt; Pages: 1 -->
<svg width="234pt" height="273pt"
 viewBox="0.00 0.00 234.27 273.00" xmlns="http://www.w3.org/2000/svg" xmlns:xlink="http://www.w3.org/1999/xlink">
<g id="graph0" class="graph" transform="scale(1 1) rotate(0) translate(4 269)">
<title>DGtal::KhalimskyPreCell&lt; dim, TInteger &gt;</title>
<polygon fill="white" stroke="none" points="-4,4 -4,-269 230.267,-269 230.267,4 -4,4"/>
<!-- Node2 -->
<g id="node1" class="node"><title>Node2</title>
<polygon fill="#bfbfbf" stroke="black" points="6.76671,-0.5 6.76671,-30.5 137.767,-30.5 137.767,-0.5 6.76671,-0.5"/>
<text text-anchor="start" x="14.7667" y="-18.5" font-family="FreeSans" font-size="10.00">DGtal::KhalimskyPreCell</text>
<text text-anchor="middle" x="72.2667" y="-7.5" font-family="FreeSans" font-size="10.00">&lt; dim, TInteger &gt;</text>
</g>
<!-- Node3 -->
<g id="node2" class="node"><title>Node3</title>
<g id="a_node2"><a xlink:href="classDGtal_1_1PointVector.html" target="_top" xlink:title="DGtal::PointVector\l\&lt; dim, Integer \&gt;">
<polygon fill="white" stroke="black" points="20.2667,-78.5 20.2667,-108.5 124.267,-108.5 124.267,-78.5 20.2667,-78.5"/>
<text text-anchor="start" x="28.2667" y="-96.5" font-family="FreeSans" font-size="10.00">DGtal::PointVector</text>
<text text-anchor="middle" x="72.2667" y="-85.5" font-family="FreeSans" font-size="10.00">&lt; dim, Integer &gt;</text>
</a>
</g>
</g>
<!-- Node3&#45;&gt;Node2 -->
<g id="edge1" class="edge"><title>Node3&#45;&gt;Node2</title>
<path fill="none" stroke="#9a32cd" stroke-dasharray="5,2" d="M72.2667,-68.0898C72.2667,-55.7565 72.2667,-41.2237 72.2667,-30.7309"/>
<polygon fill="#9a32cd" stroke="#9a32cd" points="68.7668,-68.2049 72.2667,-78.205 75.7668,-68.205 68.7668,-68.2049"/>
<text text-anchor="middle" x="102.267" y="-52" font-family="FreeSans" font-size="10.00"> coordinates</text>
</g>
<!-- Node4 -->
<g id="node3" class="node"><title>Node4</title>
<polygon fill="white" stroke="#bfbfbf" points="0.266706,-245.5 0.266706,-264.5 68.2667,-264.5 68.2667,-245.5 0.266706,-245.5"/>
<text text-anchor="middle" x="34.2667" y="-252.5" font-family="FreeSans" font-size="10.00">TContainer</text>
</g>
<!-- Node4&#45;&gt;Node3 -->
<g id="edge2" class="edge"><title>Node4&#45;&gt;Node3</title>
<path fill="none" stroke="#9a32cd" stroke-dasharray="5,2" d="M21.8481,-237.027C8.91617,-217.125 -7.88609,-183.377 4.26671,-156 13.2436,-135.777 32.5196,-119.384 48.264,-108.624"/>
<polygon fill="#9a32cd" stroke="#9a32cd" points="19.0246,-239.098 27.5706,-245.361 24.7951,-235.136 19.0246,-239.098"/>
<text text-anchor="middle" x="26.2667" y="-174.5" font-family="FreeSans" font-size="10.00"> myArray</text>
</g>
<!-- Node5 -->
<g id="node4" class="node"><title>Node5</title>
<g id="a_node4"><a xlink:href="classDGtal_1_1PointVector.html" target="_top" xlink:title="Aim: Implements basic operations that will be used in Point and Vector classes. ">
<polygon fill="white" stroke="black" points="57.2667,-156.5 57.2667,-197.5 183.267,-197.5 183.267,-156.5 57.2667,-156.5"/>
<text text-anchor="start" x="65.2667" y="-185.5" font-family="FreeSans" font-size="10.00">DGtal::PointVector</text>
<text text-anchor="start" x="65.2667" y="-174.5" font-family="FreeSans" font-size="10.00">&lt; dim, TEuclideanRing,</text>
<text text-anchor="middle" x="120.267" y="-163.5" font-family="FreeSans" font-size="10.00"> TContainer &gt;</text>
</a>
</g>
</g>
<!-- Node4&#45;&gt;Node5 -->
<g id="edge4" class="edge"><title>Node4&#45;&gt;Node5</title>
<path fill="none" stroke="#9a32cd" stroke-dasharray="5,2" d="M51.6998,-238.594C65.0606,-226.787 83.5922,-210.41 98.0217,-197.658"/>
<polygon fill="#9a32cd" stroke="#9a32cd" points="49.3076,-236.037 44.132,-245.282 53.943,-241.282 49.3076,-236.037"/>
<text text-anchor="middle" x="99.2667" y="-219" font-family="FreeSans" font-size="10.00"> myArray</text>
</g>
<!-- Node5&#45;&gt;Node3 -->
<g id="edge3" class="edge"><title>Node5&#45;&gt;Node3</title>
<path fill="none" stroke="#9a32cd" stroke-dasharray="5,2" d="M80.6444,-148.933C77.7367,-145.569 75.1938,-141.92 73.2667,-138 68.8007,-128.916 68.736,-117.423 69.6887,-108.533"/>
<polygon fill="#9a32cd" stroke="#9a32cd" points="78.4248,-151.663 87.9725,-156.256 83.3728,-146.712 78.4248,-151.663"/>
<text text-anchor="middle" x="85.7667" y="-130" font-family="FreeSans" font-size="10.00"> zero</text>
</g>
<!-- Node5&#45;&gt;Node3 -->
<g id="edge6" class="edge"><title>Node5&#45;&gt;Node3</title>
<path fill="none" stroke="orange" stroke-dasharray="5,2" d="M108.641,-146.861C105.576,-140.169 102.055,-133.202 98.2667,-127 94.4246,-120.71 89.5166,-114.273 85.002,-108.805"/>
<polygon fill="orange" stroke="orange" points="105.574,-148.583 112.784,-156.347 111.989,-145.782 105.574,-148.583"/>
<text text-anchor="middle" x="145.267" y="-130" font-family="FreeSans" font-size="10.00"> &lt; dim, Integer &gt;</text>
</g>
<!-- Node5&#45;&gt;Node5 -->
<g id="edge5" class="edge"><title>Node5&#45;&gt;Node5</title>
<path fill="none" stroke="#9a32cd" stroke-dasharray="5,2" d="M193.357,-182.937C198.279,-181.566 201.267,-179.588 201.267,-177 201.267,-172.961 193.986,-170.405 183.435,-169.332"/>
<polygon fill="#9a32cd" stroke="#9a32cd" points="192.684,-179.501 183.435,-184.668 193.888,-186.397 192.684,-179.501"/>
<text text-anchor="middle" x="213.767" y="-174.5" font-family="FreeSans" font-size="10.00"> zero</text>
</g>
</g>
</svg>
