<?xml version="1.0" encoding="UTF-8" standalone="no"?>
<!DOCTYPE svg PUBLIC "-//W3C//DTD SVG 1.1//EN"
 "http://www.w3.org/Graphics/SVG/1.1/DTD/svg11.dtd">
<!-- Generated by graphviz version 2.38.0 (20140413.2041)
 -->
<!-- Title: DGtal::AddTextureImage2DWithFunctor&lt; TImageType, TFunctor, Space, KSpace &gt; Pages: 1 -->
<svg width="187pt" height="162pt"
 viewBox="0.00 0.00 187.00 162.00" xmlns="http://www.w3.org/2000/svg" xmlns:xlink="http://www.w3.org/1999/xlink">
<g id="graph0" class="graph" transform="scale(1 1) rotate(0) translate(4 158)">
<title>DGtal::AddTextureImage2DWithFunctor&lt; TImageType, TFunctor, Space, KSpace &gt;</title>
<polygon fill="white" stroke="none" points="-4,4 -4,-158 183,-158 183,4 -4,4"/>
<!-- Node0 -->
<g id="node1" class="node"><title>Node0</title>
<polygon fill="#bfbfbf" stroke="black" points="5,-0.5 5,-41.5 174,-41.5 174,-0.5 5,-0.5"/>
<text text-anchor="start" x="13" y="-29.5" font-family="FreeSans" font-size="10.00">DGtal::AddTextureImage2DWith</text>
<text text-anchor="start" x="13" y="-18.5" font-family="FreeSans" font-size="10.00">Functor&lt; TImageType, TFunctor,</text>
<text text-anchor="middle" x="89.5" y="-7.5" font-family="FreeSans" font-size="10.00"> Space, KSpace &gt;</text>
</g>
<!-- Node1 -->
<g id="node2" class="node"><title>Node1</title>
<g id="a_node2"><a xlink:href="structDGtal_1_1DrawWithViewer3DModifier.html" target="_top" xlink:title="Base class specifying the methods for classes which intend to modify a Viewer3D stream. ">
<polygon fill="white" stroke="black" points="1.5,-78.5 1.5,-97.5 177.5,-97.5 177.5,-78.5 1.5,-78.5"/>
<text text-anchor="middle" x="89.5" y="-85.5" font-family="FreeSans" font-size="10.00">DGtal::DrawWithViewer3DModifier</text>
</a>
</g>
</g>
<!-- Node1&#45;&gt;Node0 -->
<g id="edge1" class="edge"><title>Node1&#45;&gt;Node0</title>
<path fill="none" stroke="midnightblue" d="M89.5,-68.037C89.5,-59.7084 89.5,-49.9358 89.5,-41.5421"/>
<polygon fill="midnightblue" stroke="midnightblue" points="86.0001,-68.2338 89.5,-78.2338 93.0001,-68.2338 86.0001,-68.2338"/>
</g>
<!-- Node2 -->
<g id="node3" class="node"><title>Node2</title>
<g id="a_node3"><a xlink:href="structDGtal_1_1DrawWithDisplay3DModifier.html" target="_top" xlink:title="Base class specifying the methods for classes which intend to modify a Viewer3D stream. ">
<polygon fill="white" stroke="black" points="0,-134.5 0,-153.5 179,-153.5 179,-134.5 0,-134.5"/>
<text text-anchor="middle" x="89.5" y="-141.5" font-family="FreeSans" font-size="10.00">DGtal::DrawWithDisplay3DModifier</text>
</a>
</g>
</g>
<!-- Node2&#45;&gt;Node1 -->
<g id="edge2" class="edge"><title>Node2&#45;&gt;Node1</title>
<path fill="none" stroke="midnightblue" d="M89.5,-123.805C89.5,-114.91 89.5,-104.78 89.5,-97.7511"/>
<polygon fill="midnightblue" stroke="midnightblue" points="86.0001,-124.083 89.5,-134.083 93.0001,-124.083 86.0001,-124.083"/>
</g>
</g>
</svg>
