<?xml version="1.0" encoding="UTF-8" standalone="no"?>
<!DOCTYPE svg PUBLIC "-//W3C//DTD SVG 1.1//EN"
 "http://www.w3.org/Graphics/SVG/1.1/DTD/svg11.dtd">
<!-- Generated by graphviz version 2.38.0 (20140413.2041)
 -->
<!-- Title: DGtal::MultisetAssociativeCategory Pages: 1 -->
<svg width="687pt" height="137pt"
 viewBox="0.00 0.00 687.00 137.00" xmlns="http://www.w3.org/2000/svg" xmlns:xlink="http://www.w3.org/1999/xlink">
<g id="graph0" class="graph" transform="scale(1 1) rotate(0) translate(4 133)">
<title>DGtal::MultisetAssociativeCategory</title>
<polygon fill="white" stroke="none" points="-4,4 -4,-133 683,-133 683,4 -4,4"/>
<!-- Node0 -->
<g id="node1" class="node"><title>Node0</title>
<polygon fill="#bfbfbf" stroke="black" points="538,-49.5 538,-79.5 679,-79.5 679,-49.5 538,-49.5"/>
<text text-anchor="start" x="546" y="-67.5" font-family="FreeSans" font-size="10.00">DGtal::MultisetAssociative</text>
<text text-anchor="middle" x="608.5" y="-56.5" font-family="FreeSans" font-size="10.00">Category</text>
</g>
<!-- Node1 -->
<g id="node2" class="node"><title>Node1</title>
<g id="a_node2"><a xlink:href="structDGtal_1_1OrderedAssociativeCategory.html" target="_top" xlink:title="DGtal::OrderedAssociative\lCategory">
<polygon fill="white" stroke="black" points="359,-98.5 359,-128.5 502,-128.5 502,-98.5 359,-98.5"/>
<text text-anchor="start" x="367" y="-116.5" font-family="FreeSans" font-size="10.00">DGtal::OrderedAssociative</text>
<text text-anchor="middle" x="430.5" y="-105.5" font-family="FreeSans" font-size="10.00">Category</text>
</a>
</g>
</g>
<!-- Node1&#45;&gt;Node0 -->
<g id="edge1" class="edge"><title>Node1&#45;&gt;Node0</title>
<path fill="none" stroke="midnightblue" d="M495.511,-95.6788C514.514,-90.3882 535.132,-84.6478 553.437,-79.5516"/>
<polygon fill="midnightblue" stroke="midnightblue" points="494.437,-92.3446 485.742,-98.3986 496.314,-99.0882 494.437,-92.3446"/>
</g>
<!-- Node2 -->
<g id="node3" class="node"><title>Node2</title>
<g id="a_node3"><a xlink:href="structDGtal_1_1AssociativeCategory.html" target="_top" xlink:title="DGtal::AssociativeCategory">
<polygon fill="white" stroke="black" points="176,-55 176,-74 323,-74 323,-55 176,-55"/>
<text text-anchor="middle" x="249.5" y="-62" font-family="FreeSans" font-size="10.00">DGtal::AssociativeCategory</text>
</a>
</g>
</g>
<!-- Node2&#45;&gt;Node1 -->
<g id="edge2" class="edge"><title>Node2&#45;&gt;Node1</title>
<path fill="none" stroke="midnightblue" d="M295.351,-76.7776C319.374,-83.3537 349.166,-91.5092 374.569,-98.463"/>
<polygon fill="midnightblue" stroke="midnightblue" points="296.007,-73.3286 285.438,-74.064 294.159,-80.0802 296.007,-73.3286"/>
</g>
<!-- Node4 -->
<g id="node5" class="node"><title>Node4</title>
<g id="a_node5"><a xlink:href="structDGtal_1_1SimpleAssociativeCategory.html" target="_top" xlink:title="DGtal::SimpleAssociative\lCategory">
<polygon fill="white" stroke="black" points="362,-49.5 362,-79.5 499,-79.5 499,-49.5 362,-49.5"/>
<text text-anchor="start" x="370" y="-67.5" font-family="FreeSans" font-size="10.00">DGtal::SimpleAssociative</text>
<text text-anchor="middle" x="430.5" y="-56.5" font-family="FreeSans" font-size="10.00">Category</text>
</a>
</g>
</g>
<!-- Node2&#45;&gt;Node4 -->
<g id="edge5" class="edge"><title>Node2&#45;&gt;Node4</title>
<path fill="none" stroke="midnightblue" d="M333.323,-64.5C342.847,-64.5 352.473,-64.5 361.766,-64.5"/>
<polygon fill="midnightblue" stroke="midnightblue" points="333.048,-61.0001 323.048,-64.5 333.048,-68.0001 333.048,-61.0001"/>
</g>
<!-- Node5 -->
<g id="node6" class="node"><title>Node5</title>
<g id="a_node6"><a xlink:href="structDGtal_1_1MultipleAssociativeCategory.html" target="_top" xlink:title="DGtal::MultipleAssociative\lCategory">
<polygon fill="white" stroke="black" points="360.5,-0.5 360.5,-30.5 500.5,-30.5 500.5,-0.5 360.5,-0.5"/>
<text text-anchor="start" x="368.5" y="-18.5" font-family="FreeSans" font-size="10.00">DGtal::MultipleAssociative</text>
<text text-anchor="middle" x="430.5" y="-7.5" font-family="FreeSans" font-size="10.00">Category</text>
</a>
</g>
</g>
<!-- Node2&#45;&gt;Node5 -->
<g id="edge7" class="edge"><title>Node2&#45;&gt;Node5</title>
<path fill="none" stroke="midnightblue" d="M295.351,-52.2224C319.374,-45.6463 349.166,-37.4908 374.569,-30.537"/>
<polygon fill="midnightblue" stroke="midnightblue" points="294.159,-48.9198 285.438,-54.936 296.007,-55.6714 294.159,-48.9198"/>
</g>
<!-- Node3 -->
<g id="node4" class="node"><title>Node3</title>
<g id="a_node4"><a xlink:href="structDGtal_1_1ContainerCategory.html" target="_top" xlink:title="DGtal::ContainerCategory">
<polygon fill="white" stroke="black" points="0,-55 0,-74 140,-74 140,-55 0,-55"/>
<text text-anchor="middle" x="70" y="-62" font-family="FreeSans" font-size="10.00">DGtal::ContainerCategory</text>
</a>
</g>
</g>
<!-- Node3&#45;&gt;Node2 -->
<g id="edge3" class="edge"><title>Node3&#45;&gt;Node2</title>
<path fill="none" stroke="midnightblue" d="M150.363,-64.5C158.812,-64.5 167.376,-64.5 175.744,-64.5"/>
<polygon fill="midnightblue" stroke="midnightblue" points="150.134,-61.0001 140.134,-64.5 150.134,-68.0001 150.134,-61.0001"/>
</g>
<!-- Node4&#45;&gt;Node0 -->
<g id="edge4" class="edge"><title>Node4&#45;&gt;Node0</title>
<path fill="none" stroke="midnightblue" d="M509.268,-64.5C518.77,-64.5 528.433,-64.5 537.806,-64.5"/>
<polygon fill="midnightblue" stroke="midnightblue" points="509.043,-61.0001 499.043,-64.5 509.043,-68.0001 509.043,-61.0001"/>
</g>
<!-- Node5&#45;&gt;Node0 -->
<g id="edge6" class="edge"><title>Node5&#45;&gt;Node0</title>
<path fill="none" stroke="midnightblue" d="M495.511,-33.3212C514.514,-38.6118 535.132,-44.3522 553.437,-49.4484"/>
<polygon fill="midnightblue" stroke="midnightblue" points="496.314,-29.9118 485.742,-30.6014 494.437,-36.6554 496.314,-29.9118"/>
</g>
</g>
</svg>
