<?xml version="1.0" encoding="UTF-8" standalone="no"?>
<!DOCTYPE svg PUBLIC "-//W3C//DTD SVG 1.1//EN"
 "http://www.w3.org/Graphics/SVG/1.1/DTD/svg11.dtd">
<!-- Generated by graphviz version 2.38.0 (20140413.2041)
 -->
<!-- Title: DGtal::UnorderedSetByBlock&lt; Key, TSplitter, Hash, KeyEqual, UnorderedMapAllocator &gt;::const_iterator Pages: 1 -->
<!--zoomable 179 -->
<svg id="main" version="1.1" xmlns="http://www.w3.org/2000/svg" xmlns:xlink="http://www.w3.org/1999/xlink" xml:space="preserve" onload="init(evt)">
<style type="text/css"><![CDATA[
.edge:hover path { stroke: red; }
.edge:hover polygon { stroke: red; fill: red; }
]]></style>
<script type="text/javascript"><![CDATA[
var edges = document.getElementsByTagName('g');
if (edges && edges.length) {
  for (var i=0;i<edges.length;i++) {
    if (edges[i].id.substr(0,4)=='edge') {
      edges[i].setAttribute('class','edge');
    }
  }
}
]]></script>
        <defs>
                <circle id="rim" cx="0" cy="0" r="7"/>
                <circle id="rim2" cx="0" cy="0" r="3.5"/>
                <g id="zoomPlus">
                        <use xlink:href="#rim" fill="#404040">
                                <set attributeName="fill" to="#808080" begin="zoomplus.mouseover" end="zoomplus.mouseout"/>
                        </use>
                        <path d="M-4,0h8M0,-4v8" fill="none" stroke="white" stroke-width="1.5" pointer-events="none"/>
                </g>
                <g id="zoomMin">
                        <use xlink:href="#rim" fill="#404040">
                                <set attributeName="fill" to="#808080" begin="zoomminus.mouseover" end="zoomminus.mouseout"/>
                        </use>
                        <path d="M-4,0h8" fill="none" stroke="white" stroke-width="1.5" pointer-events="none"/>
                </g>
                <g id="dirArrow">
                        <path fill="none" stroke="white" stroke-width="1.5" d="M0,-3.0v7 M-2.5,-0.5L0,-3.0L2.5,-0.5"/>
                </g>
               <g id="resetDef">
                       <use xlink:href="#rim2" fill="#404040">
                               <set attributeName="fill" to="#808080" begin="reset.mouseover" end="reset.mouseout"/>
                       </use>
               </g>
        </defs>

<script type="text/javascript">
var viewWidth = 1170;
var viewHeight = 179;
var sectionId = 'dynsection-1';
</script>
<script xlink:href="svgpan.js"/>
<svg id="graph" class="graph">
<g id="viewport">
<title>DGtal::UnorderedSetByBlock&lt; Key, TSplitter, Hash, KeyEqual, UnorderedMapAllocator &gt;::const_iterator</title>
<polygon fill="white" stroke="none" points="-4,4 -4,-174.5 1166,-174.5 1166,4 -4,4"/>
<!-- Node2 -->
<g id="node1" class="node"><title>Node2</title>
<polygon fill="#bfbfbf" stroke="black" points="980,-58 980,-110 1162,-110 1162,-58 980,-58"/>
<text text-anchor="start" x="988" y="-98" font-family="FreeSans" font-size="10.00">DGtal::UnorderedSetByBlock</text>
<text text-anchor="start" x="988" y="-87" font-family="FreeSans" font-size="10.00">&lt; Key, TSplitter, Hash,</text>
<text text-anchor="start" x="988" y="-76" font-family="FreeSans" font-size="10.00"> KeyEqual, UnorderedMapAllocator</text>
<text text-anchor="middle" x="1071" y="-65" font-family="FreeSans" font-size="10.00"> &gt;::const_iterator</text>
</g>
<!-- Node3 -->
<g id="node2" class="node"><title>Node3</title>
<polygon fill="white" stroke="#bfbfbf" points="724.5,-118 724.5,-170 872.5,-170 872.5,-118 724.5,-118"/>
<text text-anchor="start" x="732.5" y="-158" font-family="FreeSans" font-size="10.00">boost::iterator_facade</text>
<text text-anchor="start" x="732.5" y="-147" font-family="FreeSans" font-size="10.00">&lt; const_iterator, Key</text>
<text text-anchor="start" x="732.5" y="-136" font-family="FreeSans" font-size="10.00"> const, boost::forward</text>
<text text-anchor="middle" x="798.5" y="-125" font-family="FreeSans" font-size="10.00">_traversal_tag, Key const &gt;</text>
</g>
<!-- Node3&#45;&gt;Node2 -->
<g id="edge1" class="edge"><title>Node3&#45;&gt;Node2</title>
<path fill="none" stroke="midnightblue" d="M882.543,-125.58C913.35,-118.747 948.426,-110.967 979.838,-103.999"/>
<polygon fill="midnightblue" stroke="midnightblue" points="881.706,-122.181 872.701,-127.763 883.222,-129.015 881.706,-122.181"/>
</g>
<!-- Node4 -->
<g id="node3" class="node"><title>Node4</title>
<g id="a_node3"><a xlink:title="STL iterator class. ">
<polygon fill="white" stroke="#bfbfbf" points="734,-69 734,-99 863,-99 863,-69 734,-69"/>
<text text-anchor="start" x="742" y="-87" font-family="FreeSans" font-size="10.00">std::unordered_map</text>
<text text-anchor="middle" x="798.5" y="-76" font-family="FreeSans" font-size="10.00">&lt; K, T &gt;::const_iterator</text>
</a>
</g>
</g>
<!-- Node4&#45;&gt;Node2 -->
<g id="edge2" class="edge"><title>Node4&#45;&gt;Node2</title>
<path fill="none" stroke="#9a32cd" stroke-dasharray="5,2" d="M873.683,-84C906.478,-84 945.335,-84 979.79,-84"/>
<polygon fill="#9a32cd" stroke="#9a32cd" points="873.262,-80.5001 863.262,-84 873.262,-87.5001 873.262,-80.5001"/>
<text text-anchor="middle" x="937.5" y="-87" font-family="FreeSans" font-size="10.00"> it</text>
</g>
<!-- Node5 -->
<g id="node4" class="node"><title>Node5</title>
<g id="a_node4"><a xlink:href="structDGtal_1_1UnorderedSetByBlock.html" target="_top" xlink:title="DGtal::UnorderedSetByBlock\l\&lt; Key, TSplitter, Hash,\l KeyEqual, UnorderedMapAllocator \&gt;">
<polygon fill="white" stroke="black" points="702,-9.5 702,-50.5 895,-50.5 895,-9.5 702,-9.5"/>
<text text-anchor="start" x="710" y="-38.5" font-family="FreeSans" font-size="10.00">DGtal::UnorderedSetByBlock</text>
<text text-anchor="start" x="710" y="-27.5" font-family="FreeSans" font-size="10.00">&lt; Key, TSplitter, Hash,</text>
<text text-anchor="middle" x="798.5" y="-16.5" font-family="FreeSans" font-size="10.00"> KeyEqual, UnorderedMapAllocator &gt;</text>
</a>
</g>
</g>
<!-- Node5&#45;&gt;Node2 -->
<g id="edge3" class="edge"><title>Node5&#45;&gt;Node2</title>
<path fill="none" stroke="#9a32cd" stroke-dasharray="5,2" d="M905.338,-51.1285C929.958,-56.0434 955.945,-61.2311 979.817,-65.9966"/>
<polygon fill="#9a32cd" stroke="#9a32cd" points="905.741,-47.6398 895.249,-49.1144 904.37,-54.5044 905.741,-47.6398"/>
<text text-anchor="middle" x="937.5" y="-64" font-family="FreeSans" font-size="10.00"> collection</text>
</g>
<!-- Node6 -->
<g id="node5" class="node"><title>Node6</title>
<polygon fill="white" stroke="#bfbfbf" points="441,-38.5 441,-79.5 597,-79.5 597,-38.5 441,-38.5"/>
<text text-anchor="start" x="449" y="-67.5" font-family="FreeSans" font-size="10.00">std::unordered_map</text>
<text text-anchor="start" x="449" y="-56.5" font-family="FreeSans" font-size="10.00">&lt; Key, Word, Hash, KeyEqual,</text>
<text text-anchor="middle" x="519" y="-45.5" font-family="FreeSans" font-size="10.00"> UnorderedMapAllocator &gt;</text>
</g>
<!-- Node6&#45;&gt;Node5 -->
<g id="edge4" class="edge"><title>Node6&#45;&gt;Node5</title>
<path fill="none" stroke="#9a32cd" stroke-dasharray="5,2" d="M607.333,-49.8733C637.372,-46.7341 671.157,-43.2035 701.824,-39.9986"/>
<polygon fill="#9a32cd" stroke="#9a32cd" points="606.881,-46.4014 597.299,-50.9219 607.609,-53.3635 606.881,-46.4014"/>
<text text-anchor="middle" x="649.5" y="-52" font-family="FreeSans" font-size="10.00"> my_elements</text>
</g>
<!-- Node7 -->
<g id="node6" class="node"><title>Node7</title>
<g id="a_node6"><a xlink:title="STL class. ">
<polygon fill="white" stroke="#bfbfbf" points="114,-44 114,-74 228,-74 228,-44 114,-44"/>
<text text-anchor="start" x="122" y="-62" font-family="FreeSans" font-size="10.00">std::unordered_map</text>
<text text-anchor="middle" x="171" y="-51" font-family="FreeSans" font-size="10.00">&lt; K, T &gt;</text>
</a>
</g>
</g>
<!-- Node7&#45;&gt;Node6 -->
<g id="edge5" class="edge"><title>Node7&#45;&gt;Node6</title>
<path fill="none" stroke="orange" stroke-dasharray="5,2" d="M238.49,-59C296.346,-59 380.218,-59 440.98,-59"/>
<polygon fill="orange" stroke="orange" points="238.361,-55.5001 228.361,-59 238.361,-62.5001 238.361,-55.5001"/>
<text text-anchor="start" x="246" y="-73" font-family="FreeSans" font-size="10.00"> &lt; Key, Word, Hash,</text>
<text text-anchor="middle" x="334.5" y="-62" font-family="FreeSans" font-size="10.00"> KeyEqual, UnorderedMapAllocator &gt;</text>
</g>
<!-- Node8 -->
<g id="node7" class="node"><title>Node8</title>
<polygon fill="white" stroke="#bfbfbf" points="0,-68.5 0,-87.5 29,-87.5 29,-68.5 0,-68.5"/>
<text text-anchor="middle" x="14.5" y="-75.5" font-family="FreeSans" font-size="10.00">K</text>
</g>
<!-- Node8&#45;&gt;Node7 -->
<g id="edge6" class="edge"><title>Node8&#45;&gt;Node7</title>
<path fill="none" stroke="#9a32cd" stroke-dasharray="5,2" d="M39.1861,-75.0872C59.0006,-72.6504 88.0752,-69.0749 113.785,-65.9132"/>
<polygon fill="#9a32cd" stroke="#9a32cd" points="38.7088,-71.6194 29.2108,-76.3139 39.5633,-78.567 38.7088,-71.6194"/>
<text text-anchor="middle" x="71.5" y="-76" font-family="FreeSans" font-size="10.00"> keys</text>
</g>
<!-- Node9 -->
<g id="node8" class="node"><title>Node9</title>
<polygon fill="white" stroke="#bfbfbf" points="0,-30.5 0,-49.5 29,-49.5 29,-30.5 0,-30.5"/>
<text text-anchor="middle" x="14.5" y="-37.5" font-family="FreeSans" font-size="10.00">T</text>
</g>
<!-- Node9&#45;&gt;Node7 -->
<g id="edge7" class="edge"><title>Node9&#45;&gt;Node7</title>
<path fill="none" stroke="#9a32cd" stroke-dasharray="5,2" d="M39.1861,-42.9128C59.0006,-45.3496 88.0752,-48.9251 113.785,-52.0868"/>
<polygon fill="#9a32cd" stroke="#9a32cd" points="39.5633,-39.433 29.2108,-41.6861 38.7088,-46.3806 39.5633,-39.433"/>
<text text-anchor="middle" x="71.5" y="-53" font-family="FreeSans" font-size="10.00"> elements</text>
</g>
<!-- Node10 -->
<g id="node9" class="node"><title>Node10</title>
<polygon fill="white" stroke="#bfbfbf" points="491,-0.5 491,-19.5 547,-19.5 547,-0.5 491,-0.5"/>
<text text-anchor="middle" x="519" y="-7.5" font-family="FreeSans" font-size="10.00">TSplitter</text>
</g>
<!-- Node10&#45;&gt;Node5 -->
<g id="edge8" class="edge"><title>Node10&#45;&gt;Node5</title>
<path fill="none" stroke="#9a32cd" stroke-dasharray="5,2" d="M557.198,-11.2142C590.463,-12.4429 640.53,-14.6445 684,-18 689.828,-18.4499 695.82,-18.9554 701.861,-19.4978"/>
<polygon fill="#9a32cd" stroke="#9a32cd" points="557.137,-7.70981 547.018,-10.8492 556.886,-14.7053 557.137,-7.70981"/>
<text text-anchor="middle" x="649.5" y="-21" font-family="FreeSans" font-size="10.00"> my_splitter</text>
</g>
</g>
</svg>
        <g id="navigator" transform="translate(0 0)" fill="#404254">
                <rect fill="#f2f5e9" fill-opacity="0.5" stroke="#606060" stroke-width=".5" x="0" y="0" width="60" height="60"/>
                <use id="zoomplus" xlink:href="#zoomPlus" x="17" y="9" onmousedown="handleZoom(evt,'in')"/>
                <use id="zoomminus" xlink:href="#zoomMin" x="42" y="9" onmousedown="handleZoom(evt,'out')"/>
                <use id="reset" xlink:href="#resetDef" x="30" y="36" onmousedown="handleReset()"/>
                <g id="arrowUp" xlink:href="#dirArrow" transform="translate(30 24)" onmousedown="handlePan(0,-1)">
                  <use xlink:href="#rim" fill="#404040">
                        <set attributeName="fill" to="#808080" begin="arrowUp.mouseover" end="arrowUp.mouseout"/>
                  </use>
                  <path fill="none" stroke="white" stroke-width="1.5" d="M0,-3.0v7 M-2.5,-0.5L0,-3.0L2.5,-0.5"/>
                </g>
                <g id="arrowRight" xlink:href="#dirArrow" transform="rotate(90) translate(36 -43)" onmousedown="handlePan(1,0)">
                  <use xlink:href="#rim" fill="#404040">
                        <set attributeName="fill" to="#808080" begin="arrowRight.mouseover" end="arrowRight.mouseout"/>
                  </use>
                  <path fill="none" stroke="white" stroke-width="1.5" d="M0,-3.0v7 M-2.5,-0.5L0,-3.0L2.5,-0.5"/>
                </g>
                <g id="arrowDown" xlink:href="#dirArrow" transform="rotate(180) translate(-30 -48)" onmousedown="handlePan(0,1)">
                  <use xlink:href="#rim" fill="#404040">
                        <set attributeName="fill" to="#808080" begin="arrowDown.mouseover" end="arrowDown.mouseout"/>
                  </use>
                  <path fill="none" stroke="white" stroke-width="1.5" d="M0,-3.0v7 M-2.5,-0.5L0,-3.0L2.5,-0.5"/>
                </g>
                <g id="arrowLeft" xlink:href="#dirArrow" transform="rotate(270) translate(-36 17)" onmousedown="handlePan(-1,0)">
                  <use xlink:href="#rim" fill="#404040">
                        <set attributeName="fill" to="#808080" begin="arrowLeft.mouseover" end="arrowLeft.mouseout"/>
                  </use>
                  <path fill="none" stroke="white" stroke-width="1.5" d="M0,-3.0v7 M-2.5,-0.5L0,-3.0L2.5,-0.5"/>
                </g>
        </g>
        <svg viewBox="0 0 15 15" width="100%" height="30px" preserveAspectRatio="xMaxYMin meet">
         <g id="arrow_out" transform="scale(0.3 0.3)">
          <a xlink:href="structDGtal_1_1UnorderedSetByBlock_1_1const__iterator__coll__graph_org.svg" target="_base">
           <rect id="button" ry="5" rx="5" y="6" x="6" height="38" width="38"
                fill="#f2f5e9" fill-opacity="0.5" stroke="#606060" stroke-width="1.0"/>
           <path id="arrow"
             d="M 11.500037,31.436501 C 11.940474,20.09759 22.043105,11.32322 32.158766,21.979434 L 37.068811,17.246167 C 37.068811,17.246167 37.088388,32 37.088388,32 L 22.160133,31.978069 C 22.160133,31.978069 26.997745,27.140456 26.997745,27.140456 C 18.528582,18.264221 13.291696,25.230495 11.500037,31.436501 z"
             style="fill:#404040;"/>
          </a>
         </g>
        </svg>
</svg>
