<?xml version="1.0" encoding="UTF-8" standalone="no"?>
<!DOCTYPE svg PUBLIC "-//W3C//DTD SVG 1.1//EN"
 "http://www.w3.org/Graphics/SVG/1.1/DTD/svg11.dtd">
<!-- Generated by graphviz version 2.38.0 (20140413.2041)
 -->
<!-- Title: DGtal::concepts::CAdditivePrimitiveComputer&lt; T &gt; Pages: 1 -->
<svg width="745pt" height="104pt"
 viewBox="0.00 0.00 745.00 104.00" xmlns="http://www.w3.org/2000/svg" xmlns:xlink="http://www.w3.org/1999/xlink">
<g id="graph0" class="graph" transform="scale(1 1) rotate(0) translate(4 100)">
<title>DGtal::concepts::CAdditivePrimitiveComputer&lt; T &gt;</title>
<polygon fill="white" stroke="none" points="-4,4 -4,-100 741,-100 741,4 -4,4"/>
<!-- Node0 -->
<g id="node1" class="node"><title>Node0</title>
<polygon fill="#bfbfbf" stroke="black" points="593,-33 593,-63 737,-63 737,-33 593,-33"/>
<text text-anchor="start" x="601" y="-51" font-family="FreeSans" font-size="10.00">DGtal::concepts::CAdditive</text>
<text text-anchor="middle" x="665" y="-40" font-family="FreeSans" font-size="10.00">PrimitiveComputer&lt; T &gt;</text>
</g>
<!-- Node1 -->
<g id="node2" class="node"><title>Node1</title>
<g id="a_node2"><a xlink:href="structDGtal_1_1concepts_1_1CIncrementalPrimitiveComputer.html" target="_top" xlink:title="Aim: Defines the concept describing an object that computes some primitive from input points given on...">
<polygon fill="white" stroke="black" points="394,-33 394,-63 557,-63 557,-33 394,-33"/>
<text text-anchor="start" x="402" y="-51" font-family="FreeSans" font-size="10.00">DGtal::concepts::CIncremental</text>
<text text-anchor="middle" x="475.5" y="-40" font-family="FreeSans" font-size="10.00">PrimitiveComputer&lt; T &gt;</text>
</a>
</g>
</g>
<!-- Node1&#45;&gt;Node0 -->
<g id="edge1" class="edge"><title>Node1&#45;&gt;Node0</title>
<path fill="none" stroke="midnightblue" d="M567.206,-48C575.838,-48 584.505,-48 592.914,-48"/>
<polygon fill="midnightblue" stroke="midnightblue" points="567.105,-44.5001 557.105,-48 567.105,-51.5001 567.105,-44.5001"/>
</g>
<!-- Node2 -->
<g id="node3" class="node"><title>Node2</title>
<g id="a_node3"><a xlink:href="structDGtal_1_1concepts_1_1CPrimitiveComputer.html" target="_top" xlink:title="Aim: Defines the concept describing an object that computes some primitive from input points...">
<polygon fill="white" stroke="black" points="211,-33 211,-63 358,-63 358,-33 211,-33"/>
<text text-anchor="start" x="219" y="-51" font-family="FreeSans" font-size="10.00">DGtal::concepts::CPrimitive</text>
<text text-anchor="middle" x="284.5" y="-40" font-family="FreeSans" font-size="10.00">Computer&lt; T &gt;</text>
</a>
</g>
</g>
<!-- Node2&#45;&gt;Node1 -->
<g id="edge2" class="edge"><title>Node2&#45;&gt;Node1</title>
<path fill="none" stroke="midnightblue" d="M368.054,-48C376.658,-48 385.397,-48 393.979,-48"/>
<polygon fill="midnightblue" stroke="midnightblue" points="368.032,-44.5001 358.032,-48 368.032,-51.5001 368.032,-44.5001"/>
</g>
<!-- Node3 -->
<g id="node4" class="node"><title>Node3</title>
<g id="a_node4"><a xlink:href="structboost_1_1DefaultConstructible.html" target="_top" xlink:title="Go to http://www.sgi.com/tech/stl/DefaultConstructible.html. ">
<polygon fill="white" stroke="black" points="0,-76.5 0,-95.5 175,-95.5 175,-76.5 0,-76.5"/>
<text text-anchor="middle" x="87.5" y="-83.5" font-family="FreeSans" font-size="10.00">boost::DefaultConstructible&lt; T &gt;</text>
</a>
</g>
</g>
<!-- Node3&#45;&gt;Node2 -->
<g id="edge3" class="edge"><title>Node3&#45;&gt;Node2</title>
<path fill="none" stroke="midnightblue" d="M147.354,-74.5309C167.364,-70.6317 189.964,-66.2276 210.918,-62.1442"/>
<polygon fill="midnightblue" stroke="midnightblue" points="146.601,-71.1118 137.455,-76.46 147.94,-77.9826 146.601,-71.1118"/>
</g>
<!-- Node4 -->
<g id="node5" class="node"><title>Node4</title>
<g id="a_node5"><a xlink:href="structboost_1_1CopyConstructible.html" target="_top" xlink:title="Go to http://www.sgi.com/tech/stl/CopyConstructible.html. ">
<polygon fill="white" stroke="black" points="5.5,-38.5 5.5,-57.5 169.5,-57.5 169.5,-38.5 5.5,-38.5"/>
<text text-anchor="middle" x="87.5" y="-45.5" font-family="FreeSans" font-size="10.00">boost::CopyConstructible&lt; T &gt;</text>
</a>
</g>
</g>
<!-- Node4&#45;&gt;Node2 -->
<g id="edge4" class="edge"><title>Node4&#45;&gt;Node2</title>
<path fill="none" stroke="midnightblue" d="M179.526,-48C190.028,-48 200.631,-48 210.845,-48"/>
<polygon fill="midnightblue" stroke="midnightblue" points="179.504,-44.5001 169.503,-48 179.503,-51.5001 179.504,-44.5001"/>
</g>
<!-- Node5 -->
<g id="node6" class="node"><title>Node5</title>
<g id="a_node6"><a xlink:href="structboost_1_1Assignable.html" target="_top" xlink:title="Go to http://www.sgi.com/tech/stl/Assignable.html. ">
<polygon fill="white" stroke="black" points="23,-0.5 23,-19.5 152,-19.5 152,-0.5 23,-0.5"/>
<text text-anchor="middle" x="87.5" y="-7.5" font-family="FreeSans" font-size="10.00">boost::Assignable&lt; T &gt;</text>
</a>
</g>
</g>
<!-- Node5&#45;&gt;Node2 -->
<g id="edge5" class="edge"><title>Node5&#45;&gt;Node2</title>
<path fill="none" stroke="midnightblue" d="M147.354,-21.4691C167.364,-25.3683 189.964,-29.7724 210.918,-33.8558"/>
<polygon fill="midnightblue" stroke="midnightblue" points="147.94,-18.0174 137.455,-19.54 146.601,-24.8882 147.94,-18.0174"/>
</g>
</g>
</svg>
