<?xml version="1.0" encoding="UTF-8" standalone="no"?>
<!DOCTYPE svg PUBLIC "-//W3C//DTD SVG 1.1//EN"
 "http://www.w3.org/Graphics/SVG/1.1/DTD/svg11.dtd">
<!-- Generated by graphviz version 2.38.0 (20140413.2041)
 -->
<!-- Title: DGtal::concepts::CStaticVector&lt; T &gt; Pages: 1 -->
<svg width="366pt" height="218pt"
 viewBox="0.00 0.00 365.50 218.00" xmlns="http://www.w3.org/2000/svg" xmlns:xlink="http://www.w3.org/1999/xlink">
<g id="graph0" class="graph" transform="scale(1 1) rotate(0) translate(4 214)">
<title>DGtal::concepts::CStaticVector&lt; T &gt;</title>
<polygon fill="white" stroke="none" points="-4,4 -4,-214 361.5,-214 361.5,4 -4,4"/>
<!-- Node0 -->
<g id="node1" class="node"><title>Node0</title>
<polygon fill="#bfbfbf" stroke="black" points="109,-0.5 109,-30.5 243,-30.5 243,-0.5 109,-0.5"/>
<text text-anchor="start" x="117" y="-18.5" font-family="FreeSans" font-size="10.00">DGtal::concepts::CStatic</text>
<text text-anchor="middle" x="176" y="-7.5" font-family="FreeSans" font-size="10.00">Vector&lt; T &gt;</text>
</g>
<!-- Node1 -->
<g id="node2" class="node"><title>Node1</title>
<g id="a_node2"><a xlink:href="structDGtal_1_1concepts_1_1CVector.html" target="_top" xlink:title="Aim: Represent any static or dynamic sized column vector having sparse or dense representation. ">
<polygon fill="white" stroke="black" points="0,-67.5 0,-86.5 164,-86.5 164,-67.5 0,-67.5"/>
<text text-anchor="middle" x="82" y="-74.5" font-family="FreeSans" font-size="10.00">DGtal::concepts::CVector&lt; T &gt;</text>
</a>
</g>
</g>
<!-- Node1&#45;&gt;Node0 -->
<g id="edge1" class="edge"><title>Node1&#45;&gt;Node0</title>
<path fill="none" stroke="midnightblue" d="M104.104,-62.0084C119.098,-52.518 138.842,-40.02 153.846,-30.523"/>
<polygon fill="midnightblue" stroke="midnightblue" points="102.046,-59.1693 95.4679,-67.4751 105.789,-65.084 102.046,-59.1693"/>
</g>
<!-- Node2 -->
<g id="node3" class="node"><title>Node2</title>
<g id="a_node3"><a xlink:href="structDGtal_1_1concepts_1_1CVectorSpace.html" target="_top" xlink:title="Aim: Base concept for vector space structure. ">
<polygon fill="white" stroke="black" points="13.5,-123.5 13.5,-153.5 150.5,-153.5 150.5,-123.5 13.5,-123.5"/>
<text text-anchor="start" x="21.5" y="-141.5" font-family="FreeSans" font-size="10.00">DGtal::concepts::CVector</text>
<text text-anchor="middle" x="82" y="-130.5" font-family="FreeSans" font-size="10.00">Space&lt; T &gt;</text>
</a>
</g>
</g>
<!-- Node2&#45;&gt;Node1 -->
<g id="edge2" class="edge"><title>Node2&#45;&gt;Node1</title>
<path fill="none" stroke="midnightblue" d="M82,-113.289C82,-103.857 82,-93.6548 82,-86.6578"/>
<polygon fill="midnightblue" stroke="midnightblue" points="78.5001,-113.399 82,-123.399 85.5001,-113.399 78.5001,-113.399"/>
</g>
<!-- Node3 -->
<g id="node4" class="node"><title>Node3</title>
<g id="a_node4"><a xlink:href="structboost_1_1Assignable.html" target="_top" xlink:title="Go to http://www.sgi.com/tech/stl/Assignable.html. ">
<polygon fill="white" stroke="black" points="17.5,-190.5 17.5,-209.5 146.5,-209.5 146.5,-190.5 17.5,-190.5"/>
<text text-anchor="middle" x="82" y="-197.5" font-family="FreeSans" font-size="10.00">boost::Assignable&lt; T &gt;</text>
</a>
</g>
</g>
<!-- Node3&#45;&gt;Node2 -->
<g id="edge3" class="edge"><title>Node3&#45;&gt;Node2</title>
<path fill="none" stroke="midnightblue" d="M82,-180.235C82,-171.586 82,-161.497 82,-153.523"/>
<polygon fill="midnightblue" stroke="midnightblue" points="78.5001,-180.475 82,-190.475 85.5001,-180.475 78.5001,-180.475"/>
</g>
<!-- Node4 -->
<g id="node5" class="node"><title>Node4</title>
<g id="a_node5"><a xlink:href="structboost_1_1DefaultConstructible.html" target="_top" xlink:title="Go to http://www.sgi.com/tech/stl/DefaultConstructible.html. ">
<polygon fill="white" stroke="black" points="182.5,-67.5 182.5,-86.5 357.5,-86.5 357.5,-67.5 182.5,-67.5"/>
<text text-anchor="middle" x="270" y="-74.5" font-family="FreeSans" font-size="10.00">boost::DefaultConstructible&lt; T &gt;</text>
</a>
</g>
</g>
<!-- Node4&#45;&gt;Node0 -->
<g id="edge4" class="edge"><title>Node4&#45;&gt;Node0</title>
<path fill="none" stroke="midnightblue" d="M247.896,-62.0084C232.902,-52.518 213.158,-40.02 198.154,-30.523"/>
<polygon fill="midnightblue" stroke="midnightblue" points="246.211,-65.084 256.532,-67.4751 249.954,-59.1693 246.211,-65.084"/>
</g>
</g>
</svg>
