<?xml version="1.0" encoding="UTF-8" standalone="no"?>
<!DOCTYPE svg PUBLIC "-//W3C//DTD SVG 1.1//EN"
 "http://www.w3.org/Graphics/SVG/1.1/DTD/svg11.dtd">
<!-- Generated by graphviz version 2.38.0 (20140413.2041)
 -->
<!-- Title: DGtal::functors::PredicateCombiner&lt; TPredicate1, TPredicate2, TBinaryFunctor &gt; Pages: 1 -->
<svg width="239pt" height="128pt"
 viewBox="0.00 0.00 239.00 128.00" xmlns="http://www.w3.org/2000/svg" xmlns:xlink="http://www.w3.org/1999/xlink">
<g id="graph0" class="graph" transform="scale(1 1) rotate(0) translate(4 124)">
<title>DGtal::functors::PredicateCombiner&lt; TPredicate1, TPredicate2, TBinaryFunctor &gt;</title>
<polygon fill="white" stroke="none" points="-4,4 -4,-124 235,-124 235,4 -4,4"/>
<!-- Node0 -->
<g id="node1" class="node"><title>Node0</title>
<polygon fill="#bfbfbf" stroke="black" points="15,-78.5 15,-119.5 179,-119.5 179,-78.5 15,-78.5"/>
<text text-anchor="start" x="23" y="-107.5" font-family="FreeSans" font-size="10.00">DGtal::functors::Predicate</text>
<text text-anchor="start" x="23" y="-96.5" font-family="FreeSans" font-size="10.00">Combiner&lt; TPredicate1,</text>
<text text-anchor="middle" x="97" y="-85.5" font-family="FreeSans" font-size="10.00"> TPredicate2, TBinaryFunctor &gt;</text>
</g>
<!-- Node1 -->
<g id="node2" class="node"><title>Node1</title>
<g id="a_node2"><a xlink:href="structDGtal_1_1functors_1_1PredicateCombiner.html" target="_top" xlink:title="DGtal::functors::Predicate\lCombiner\&lt; Tlow, Tup, AndBoolFct2 \&gt;">
<polygon fill="white" stroke="black" points="-1.42109e-14,-0.5 -1.42109e-14,-30.5 194,-30.5 194,-0.5 -1.42109e-14,-0.5"/>
<text text-anchor="start" x="8" y="-18.5" font-family="FreeSans" font-size="10.00">DGtal::functors::Predicate</text>
<text text-anchor="middle" x="97" y="-7.5" font-family="FreeSans" font-size="10.00">Combiner&lt; Tlow, Tup, AndBoolFct2 &gt;</text>
</a>
</g>
</g>
<!-- Node0&#45;&gt;Node1 -->
<g id="edge1" class="edge"><title>Node0&#45;&gt;Node1</title>
<path fill="none" stroke="orange" stroke-dasharray="5,2" d="M97,-68.0254C97,-55.258 97,-40.9702 97,-30.6846"/>
<polygon fill="orange" stroke="orange" points="93.5001,-68.2711 97,-78.2711 100.5,-68.2712 93.5001,-68.2711"/>
<text text-anchor="middle" x="164" y="-52" font-family="FreeSans" font-size="10.00"> &lt; Tlow, Tup, AndBoolFct2 &gt;</text>
</g>
</g>
</svg>
