<?xml version="1.0" encoding="UTF-8" standalone="no"?>
<!DOCTYPE svg PUBLIC "-//W3C//DTD SVG 1.1//EN"
 "http://www.w3.org/Graphics/SVG/1.1/DTD/svg11.dtd">
<!-- Generated by graphviz version 2.38.0 (20140413.2041)
 -->
<!-- Title: DGtal::IntersectionTargetTrait&lt; TSpace, TSeparation, TDimension &gt;::IntersectionTarget&lt; Space, 6, 1 &gt; Pages: 1 -->
<svg width="825pt" height="88pt"
 viewBox="0.00 0.00 825.00 88.00" xmlns="http://www.w3.org/2000/svg" xmlns:xlink="http://www.w3.org/1999/xlink">
<g id="graph0" class="graph" transform="scale(1 1) rotate(0) translate(4 84)">
<title>DGtal::IntersectionTargetTrait&lt; TSpace, TSeparation, TDimension &gt;::IntersectionTarget&lt; Space, 6, 1 &gt;</title>
<polygon fill="white" stroke="none" points="-4,4 -4,-84 821,-84 821,4 -4,4"/>
<!-- Node1 -->
<g id="node1" class="node"><title>Node1</title>
<polygon fill="#bfbfbf" stroke="black" points="638,-9 638,-61 817,-61 817,-9 638,-9"/>
<text text-anchor="start" x="646" y="-49" font-family="FreeSans" font-size="10.00">DGtal::IntersectionTarget</text>
<text text-anchor="start" x="646" y="-38" font-family="FreeSans" font-size="10.00">Trait&lt; TSpace, TSeparation,</text>
<text text-anchor="start" x="646" y="-27" font-family="FreeSans" font-size="10.00"> TDimension &gt;::IntersectionTarget</text>
<text text-anchor="middle" x="727.5" y="-16" font-family="FreeSans" font-size="10.00">&lt; Space, 6, 1 &gt;</text>
</g>
<!-- Node2 -->
<g id="node2" class="node"><title>Node2</title>
<polygon fill="white" stroke="#bfbfbf" points="432,-14.5 432,-55.5 554,-55.5 554,-14.5 432,-14.5"/>
<text text-anchor="start" x="440" y="-43.5" font-family="FreeSans" font-size="10.00">std::array&lt; DGtal::</text>
<text text-anchor="start" x="440" y="-32.5" font-family="FreeSans" font-size="10.00">IntersectionTargetTrait</text>
<text text-anchor="middle" x="493" y="-21.5" font-family="FreeSans" font-size="10.00">::Edge, 3 &gt;</text>
</g>
<!-- Node2&#45;&gt;Node1 -->
<g id="edge1" class="edge"><title>Node2&#45;&gt;Node1</title>
<path fill="none" stroke="#9a32cd" stroke-dasharray="5,2" d="M564.231,-35C587.339,-35 613.341,-35 637.647,-35"/>
<polygon fill="#9a32cd" stroke="#9a32cd" points="564.177,-31.5001 554.177,-35 564.177,-38.5001 564.177,-31.5001"/>
<text text-anchor="middle" x="596" y="-38" font-family="FreeSans" font-size="10.00"> myTarget</text>
</g>
<!-- Node3 -->
<g id="node3" class="node"><title>Node3</title>
<g id="a_node3"><a xlink:href="structDGtal_1_1IntersectionTargetTrait_1_1Edge.html" target="_top" xlink:title="Internal Edge structure. ">
<polygon fill="white" stroke="black" points="114,-38.5 114,-79.5 263,-79.5 263,-38.5 114,-38.5"/>
<text text-anchor="start" x="122" y="-67.5" font-family="FreeSans" font-size="10.00">DGtal::IntersectionTarget</text>
<text text-anchor="start" x="122" y="-56.5" font-family="FreeSans" font-size="10.00">Trait&lt; TSpace, TSeparation,</text>
<text text-anchor="middle" x="188.5" y="-45.5" font-family="FreeSans" font-size="10.00"> TDimension &gt;::Edge</text>
</a>
</g>
</g>
<!-- Node3&#45;&gt;Node2 -->
<g id="edge2" class="edge"><title>Node3&#45;&gt;Node2</title>
<path fill="none" stroke="#9a32cd" stroke-dasharray="5,2" d="M273.32,-52.3498C323.615,-48.3595 386.418,-43.3768 431.801,-39.7762"/>
<polygon fill="#9a32cd" stroke="#9a32cd" points="272.805,-48.8796 263.113,-53.1596 273.359,-55.8577 272.805,-48.8796"/>
<text text-anchor="middle" x="347.5" y="-54" font-family="FreeSans" font-size="10.00"> elements</text>
</g>
<!-- Node4 -->
<g id="node4" class="node"><title>Node4</title>
<g id="a_node4"><a xlink:title="STL class. ">
<polygon fill="white" stroke="#bfbfbf" points="143.5,-0.5 143.5,-19.5 233.5,-19.5 233.5,-0.5 143.5,-0.5"/>
<text text-anchor="middle" x="188.5" y="-7.5" font-family="FreeSans" font-size="10.00">std::array&lt; T &gt;</text>
</a>
</g>
</g>
<!-- Node4&#45;&gt;Node2 -->
<g id="edge3" class="edge"><title>Node4&#45;&gt;Node2</title>
<path fill="none" stroke="orange" stroke-dasharray="5,2" d="M243.879,-7.7513C289.516,-6.69018 356.312,-7.06838 414,-15 419.817,-15.7998 425.824,-16.8754 431.804,-18.1149"/>
<polygon fill="orange" stroke="orange" points="243.517,-4.25953 233.613,-8.02257 243.702,-11.2571 243.517,-4.25953"/>
<text text-anchor="start" x="281" y="-29" font-family="FreeSans" font-size="10.00"> &lt; DGtal::IntersectionTarget</text>
<text text-anchor="middle" x="347.5" y="-18" font-family="FreeSans" font-size="10.00">Trait::Edge, 3 &gt;</text>
</g>
<!-- Node5 -->
<g id="node5" class="node"><title>Node5</title>
<polygon fill="white" stroke="#bfbfbf" points="0,-0.5 0,-19.5 29,-19.5 29,-0.5 0,-0.5"/>
<text text-anchor="middle" x="14.5" y="-7.5" font-family="FreeSans" font-size="10.00">T</text>
</g>
<!-- Node5&#45;&gt;Node4 -->
<g id="edge4" class="edge"><title>Node5&#45;&gt;Node4</title>
<path fill="none" stroke="#9a32cd" stroke-dasharray="5,2" d="M39.3124,-10C66.144,-10 110.334,-10 143.489,-10"/>
<polygon fill="#9a32cd" stroke="#9a32cd" points="39.2848,-6.5001 29.2847,-10 39.2847,-13.5001 39.2848,-6.5001"/>
<text text-anchor="middle" x="71.5" y="-13" font-family="FreeSans" font-size="10.00"> elements</text>
</g>
</g>
</svg>
