<?xml version="1.0" encoding="UTF-8" standalone="no"?>
<!DOCTYPE svg PUBLIC "-//W3C//DTD SVG 1.1//EN"
 "http://www.w3.org/Graphics/SVG/1.1/DTD/svg11.dtd">
<!-- Generated by graphviz version 2.38.0 (20140413.2041)
 -->
<!-- Title: DGtal::IsArithmeticConversionValid&lt; T, U, typename std::conditional&lt; false, ArithmeticConversionType&lt; T, U &gt;, void &gt;::type &gt; Pages: 1 -->
<svg width="225pt" height="117pt"
 viewBox="0.00 0.00 225.00 117.00" xmlns="http://www.w3.org/2000/svg" xmlns:xlink="http://www.w3.org/1999/xlink">
<g id="graph0" class="graph" transform="scale(1 1) rotate(0) translate(4 113)">
<title>DGtal::IsArithmeticConversionValid&lt; T, U, typename std::conditional&lt; false, ArithmeticConversionType&lt; T, U &gt;, void &gt;::type &gt;</title>
<polygon fill="white" stroke="none" points="-4,4 -4,-113 221,-113 221,4 -4,4"/>
<!-- Node2 -->
<g id="node1" class="node"><title>Node2</title>
<polygon fill="#bfbfbf" stroke="black" points="0,-0.5 0,-52.5 217,-52.5 217,-0.5 0,-0.5"/>
<text text-anchor="start" x="8" y="-40.5" font-family="FreeSans" font-size="10.00">DGtal::IsArithmeticConversion</text>
<text text-anchor="start" x="8" y="-29.5" font-family="FreeSans" font-size="10.00">Valid&lt; T, U, typename std</text>
<text text-anchor="start" x="8" y="-18.5" font-family="FreeSans" font-size="10.00">::conditional&lt; false, ArithmeticConversion</text>
<text text-anchor="middle" x="108.5" y="-7.5" font-family="FreeSans" font-size="10.00">Type&lt; T, U &gt;, void &gt;::type &gt;</text>
</g>
<!-- Node3 -->
<g id="node2" class="node"><title>Node3</title>
<polygon fill="white" stroke="#bfbfbf" points="77.5,-89.5 77.5,-108.5 139.5,-108.5 139.5,-89.5 77.5,-89.5"/>
<text text-anchor="middle" x="108.5" y="-96.5" font-family="FreeSans" font-size="10.00">true_type</text>
</g>
<!-- Node3&#45;&gt;Node2 -->
<g id="edge1" class="edge"><title>Node3&#45;&gt;Node2</title>
<path fill="none" stroke="midnightblue" d="M108.5,-79.0961C108.5,-70.9584 108.5,-61.3279 108.5,-52.6038"/>
<polygon fill="midnightblue" stroke="midnightblue" points="105,-79.3553 108.5,-89.3553 112,-79.3554 105,-79.3553"/>
</g>
</g>
</svg>
