<?xml version="1.0" encoding="UTF-8" standalone="no"?>
<!DOCTYPE svg PUBLIC "-//W3C//DTD SVG 1.1//EN"
 "http://www.w3.org/Graphics/SVG/1.1/DTD/svg11.dtd">
<!-- Generated by graphviz version 2.38.0 (20140413.2041)
 -->
<!-- Title: DGtal::concepts::CUnaryFunctor&lt; X, A, R &gt; Pages: 1 -->
<svg width="280pt" height="173pt"
 viewBox="0.00 0.00 279.50 173.00" xmlns="http://www.w3.org/2000/svg" xmlns:xlink="http://www.w3.org/1999/xlink">
<g id="graph0" class="graph" transform="scale(1 1) rotate(0) translate(4 169)">
<title>DGtal::concepts::CUnaryFunctor&lt; X, A, R &gt;</title>
<polygon fill="white" stroke="none" points="-4,4 -4,-169 275.5,-169 275.5,4 -4,4"/>
<!-- Node32 -->
<g id="node1" class="node"><title>Node32</title>
<polygon fill="#bfbfbf" stroke="black" points="101,-0.5 101,-30.5 271,-30.5 271,-0.5 101,-0.5"/>
<text text-anchor="start" x="109" y="-18.5" font-family="FreeSans" font-size="10.00">DGtal::concepts::CUnaryFunctor</text>
<text text-anchor="middle" x="186" y="-7.5" font-family="FreeSans" font-size="10.00">&lt; X, A, R &gt;</text>
</g>
<!-- Node33 -->
<g id="node2" class="node"><title>Node33</title>
<g id="a_node2"><a xlink:href="structboost_1_1Assignable.html" target="_top" xlink:title="boost::Assignable\&lt; X \&gt;">
<polygon fill="white" stroke="black" points="0,-78.5 0,-97.5 130,-97.5 130,-78.5 0,-78.5"/>
<text text-anchor="middle" x="65" y="-85.5" font-family="FreeSans" font-size="10.00">boost::Assignable&lt; X &gt;</text>
</a>
</g>
</g>
<!-- Node33&#45;&gt;Node32 -->
<g id="edge1" class="edge"><title>Node33&#45;&gt;Node32</title>
<path fill="none" stroke="midnightblue" d="M88.5107,-73.3016C109.634,-60.9941 140.521,-42.9984 161.841,-30.5762"/>
<polygon fill="midnightblue" stroke="midnightblue" points="86.7154,-70.2969 79.837,-78.3553 90.2394,-76.3451 86.7154,-70.2969"/>
</g>
<!-- Node34 -->
<g id="node3" class="node"><title>Node34</title>
<g id="a_node3"><a xlink:href="structboost_1_1Assignable.html" target="_top" xlink:title="Go to http://www.sgi.com/tech/stl/Assignable.html. ">
<polygon fill="white" stroke="black" points="0.5,-145.5 0.5,-164.5 129.5,-164.5 129.5,-145.5 0.5,-145.5"/>
<text text-anchor="middle" x="65" y="-152.5" font-family="FreeSans" font-size="10.00">boost::Assignable&lt; T &gt;</text>
</a>
</g>
</g>
<!-- Node34&#45;&gt;Node33 -->
<g id="edge2" class="edge"><title>Node34&#45;&gt;Node33</title>
<path fill="none" stroke="orange" stroke-dasharray="5,2" d="M65,-135.037C65,-122.67 65,-107.12 65,-97.6273"/>
<polygon fill="orange" stroke="orange" points="61.5001,-135.234 65,-145.234 68.5001,-135.234 61.5001,-135.234"/>
<text text-anchor="middle" x="81" y="-119" font-family="FreeSans" font-size="10.00"> &lt; X &gt;</text>
</g>
<!-- Node35 -->
<g id="node4" class="node"><title>Node35</title>
<polygon fill="white" stroke="#bfbfbf" points="148.5,-78.5 148.5,-97.5 177.5,-97.5 177.5,-78.5 148.5,-78.5"/>
<text text-anchor="middle" x="163" y="-85.5" font-family="FreeSans" font-size="10.00">X</text>
</g>
<!-- Node35&#45;&gt;Node32 -->
<g id="edge3" class="edge"><title>Node35&#45;&gt;Node32</title>
<path fill="none" stroke="#9a32cd" stroke-dasharray="5,2" d="M169.003,-68.601C172.879,-56.7181 177.846,-41.4943 181.408,-30.5762"/>
<polygon fill="#9a32cd" stroke="#9a32cd" points="165.594,-67.7629 165.82,-78.3553 172.249,-69.934 165.594,-67.7629"/>
<text text-anchor="middle" x="180.5" y="-52" font-family="FreeSans" font-size="10.00"> x</text>
</g>
<!-- Node36 -->
<g id="node5" class="node"><title>Node36</title>
<polygon fill="white" stroke="#bfbfbf" points="195.5,-78.5 195.5,-97.5 224.5,-97.5 224.5,-78.5 195.5,-78.5"/>
<text text-anchor="middle" x="210" y="-85.5" font-family="FreeSans" font-size="10.00">R</text>
</g>
<!-- Node36&#45;&gt;Node32 -->
<g id="edge4" class="edge"><title>Node36&#45;&gt;Node32</title>
<path fill="none" stroke="#9a32cd" stroke-dasharray="5,2" d="M203.737,-68.601C199.691,-56.7181 194.509,-41.4943 190.792,-30.5762"/>
<polygon fill="#9a32cd" stroke="#9a32cd" points="200.521,-70.0168 207.057,-78.3553 207.148,-67.7609 200.521,-70.0168"/>
<text text-anchor="middle" x="204.5" y="-52" font-family="FreeSans" font-size="10.00"> r</text>
</g>
<!-- Node37 -->
<g id="node6" class="node"><title>Node37</title>
<polygon fill="white" stroke="#bfbfbf" points="242.5,-78.5 242.5,-97.5 271.5,-97.5 271.5,-78.5 242.5,-78.5"/>
<text text-anchor="middle" x="257" y="-85.5" font-family="FreeSans" font-size="10.00">A</text>
</g>
<!-- Node37&#45;&gt;Node32 -->
<g id="edge5" class="edge"><title>Node37&#45;&gt;Node32</title>
<path fill="none" stroke="#9a32cd" stroke-dasharray="5,2" d="M240.981,-71.0934C228.716,-58.9149 211.957,-42.2742 200.176,-30.5762"/>
<polygon fill="#9a32cd" stroke="#9a32cd" points="238.732,-73.7929 248.294,-78.3553 243.664,-68.8256 238.732,-73.7929"/>
<text text-anchor="middle" x="233" y="-52" font-family="FreeSans" font-size="10.00"> a</text>
</g>
</g>
</svg>
