<?xml version="1.0" encoding="UTF-8" standalone="no"?>
<!DOCTYPE svg PUBLIC "-//W3C//DTD SVG 1.1//EN"
 "http://www.w3.org/Graphics/SVG/1.1/DTD/svg11.dtd">
<!-- Generated by graphviz version 2.38.0 (20140413.2041)
 -->
<!-- Title: DGtal::concepts::CAdditivePrimitiveComputer&lt; T &gt; Pages: 1 -->
<svg width="919pt" height="296pt"
 viewBox="0.00 0.00 919.00 295.50" xmlns="http://www.w3.org/2000/svg" xmlns:xlink="http://www.w3.org/1999/xlink">
<g id="graph0" class="graph" transform="scale(1 1) rotate(0) translate(4 291.5)">
<title>DGtal::concepts::CAdditivePrimitiveComputer&lt; T &gt;</title>
<polygon fill="white" stroke="none" points="-4,4 -4,-291.5 915,-291.5 915,4 -4,4"/>
<!-- Node6 -->
<g id="node1" class="node"><title>Node6</title>
<polygon fill="#bfbfbf" stroke="black" points="767,-88.5 767,-118.5 911,-118.5 911,-88.5 767,-88.5"/>
<text text-anchor="start" x="775" y="-106.5" font-family="FreeSans" font-size="10.00">DGtal::concepts::CAdditive</text>
<text text-anchor="middle" x="839" y="-95.5" font-family="FreeSans" font-size="10.00">PrimitiveComputer&lt; T &gt;</text>
</g>
<!-- Node7 -->
<g id="node2" class="node"><title>Node7</title>
<g id="a_node2"><a xlink:href="structDGtal_1_1concepts_1_1CIncrementalPrimitiveComputer.html" target="_top" xlink:title="Aim: Defines the concept describing an object that computes some primitive from input points given on...">
<polygon fill="white" stroke="black" points="535.5,-134.5 535.5,-164.5 698.5,-164.5 698.5,-134.5 535.5,-134.5"/>
<text text-anchor="start" x="543.5" y="-152.5" font-family="FreeSans" font-size="10.00">DGtal::concepts::CIncremental</text>
<text text-anchor="middle" x="617" y="-141.5" font-family="FreeSans" font-size="10.00">PrimitiveComputer&lt; T &gt;</text>
</a>
</g>
</g>
<!-- Node7&#45;&gt;Node6 -->
<g id="edge1" class="edge"><title>Node7&#45;&gt;Node6</title>
<path fill="none" stroke="midnightblue" d="M700.013,-132.352C722.001,-127.754 745.587,-122.823 766.928,-118.36"/>
<polygon fill="midnightblue" stroke="midnightblue" points="699.108,-128.965 690.036,-134.438 700.541,-135.817 699.108,-128.965"/>
</g>
<!-- Node8 -->
<g id="node3" class="node"><title>Node8</title>
<g id="a_node3"><a xlink:href="structDGtal_1_1concepts_1_1CPrimitiveComputer.html" target="_top" xlink:title="Aim: Defines the concept describing an object that computes some primitive from input points...">
<polygon fill="white" stroke="black" points="265.5,-193.5 265.5,-223.5 412.5,-223.5 412.5,-193.5 265.5,-193.5"/>
<text text-anchor="start" x="273.5" y="-211.5" font-family="FreeSans" font-size="10.00">DGtal::concepts::CPrimitive</text>
<text text-anchor="middle" x="339" y="-200.5" font-family="FreeSans" font-size="10.00">Computer&lt; T &gt;</text>
</a>
</g>
</g>
<!-- Node8&#45;&gt;Node7 -->
<g id="edge2" class="edge"><title>Node8&#45;&gt;Node7</title>
<path fill="none" stroke="midnightblue" d="M420.281,-191.338C460.003,-182.847 507.508,-172.692 545.768,-164.513"/>
<polygon fill="midnightblue" stroke="midnightblue" points="419.408,-187.946 410.361,-193.459 420.871,-194.791 419.408,-187.946"/>
</g>
<!-- Node9 -->
<g id="node4" class="node"><title>Node9</title>
<g id="a_node4"><a xlink:href="structboost_1_1DefaultConstructible.html" target="_top" xlink:title="Go to http://www.sgi.com/tech/stl/DefaultConstructible.html. ">
<polygon fill="white" stroke="black" points="0,-268 0,-287 175,-287 175,-268 0,-268"/>
<text text-anchor="middle" x="87.5" y="-275" font-family="FreeSans" font-size="10.00">boost::DefaultConstructible&lt; T &gt;</text>
</a>
</g>
</g>
<!-- Node9&#45;&gt;Node8 -->
<g id="edge3" class="edge"><title>Node9&#45;&gt;Node8</title>
<path fill="none" stroke="midnightblue" d="M145.192,-265.741C155.159,-263.476 165.408,-261.02 175,-258.5 215.08,-247.97 260.071,-234.003 292.615,-223.508"/>
<polygon fill="midnightblue" stroke="midnightblue" points="144.352,-262.342 135.354,-267.937 145.877,-269.174 144.352,-262.342"/>
</g>
<!-- Node10 -->
<g id="node5" class="node"><title>Node10</title>
<g id="a_node5"><a xlink:href="structboost_1_1CopyConstructible.html" target="_top" xlink:title="Go to http://www.sgi.com/tech/stl/CopyConstructible.html. ">
<polygon fill="white" stroke="black" points="5.5,-230 5.5,-249 169.5,-249 169.5,-230 5.5,-230"/>
<text text-anchor="middle" x="87.5" y="-237" font-family="FreeSans" font-size="10.00">boost::CopyConstructible&lt; T &gt;</text>
</a>
</g>
</g>
<!-- Node10&#45;&gt;Node8 -->
<g id="edge4" class="edge"><title>Node10&#45;&gt;Node8</title>
<path fill="none" stroke="midnightblue" d="M175.315,-228.713C204.726,-225.059 237.246,-221.018 265.432,-217.517"/>
<polygon fill="midnightblue" stroke="midnightblue" points="174.546,-225.282 165.054,-229.988 175.409,-232.229 174.546,-225.282"/>
</g>
<!-- Node11 -->
<g id="node6" class="node"><title>Node11</title>
<g id="a_node6"><a xlink:href="structboost_1_1Assignable.html" target="_top" xlink:title="Go to http://www.sgi.com/tech/stl/Assignable.html. ">
<polygon fill="white" stroke="black" points="23,-192 23,-211 152,-211 152,-192 23,-192"/>
<text text-anchor="middle" x="87.5" y="-199" font-family="FreeSans" font-size="10.00">boost::Assignable&lt; T &gt;</text>
</a>
</g>
</g>
<!-- Node11&#45;&gt;Node8 -->
<g id="edge5" class="edge"><title>Node11&#45;&gt;Node8</title>
<path fill="none" stroke="midnightblue" d="M162.437,-203.574C194.903,-204.485 232.908,-205.552 265.238,-206.459"/>
<polygon fill="midnightblue" stroke="midnightblue" points="162.199,-200.066 152.105,-203.285 162.003,-207.064 162.199,-200.066"/>
</g>
<!-- Node12 -->
<g id="node7" class="node"><title>Node12</title>
<polygon fill="white" stroke="#bfbfbf" points="73,-140 73,-159 102,-159 102,-140 73,-140"/>
<text text-anchor="middle" x="87.5" y="-147" font-family="FreeSans" font-size="10.00">T</text>
</g>
<!-- Node12&#45;&gt;Node6 -->
<g id="edge12" class="edge"><title>Node12&#45;&gt;Node6</title>
<path fill="none" stroke="#9a32cd" stroke-dasharray="5,2" d="M112.165,-148.048C212.405,-141.895 604.297,-117.843 766.797,-107.87"/>
<polygon fill="#9a32cd" stroke="#9a32cd" points="111.916,-144.556 102.149,-148.662 112.344,-151.543 111.916,-144.556"/>
<text text-anchor="middle" x="485" y="-129.5" font-family="FreeSans" font-size="10.00"> myX</text>
</g>
<!-- Node12&#45;&gt;Node7 -->
<g id="edge7" class="edge"><title>Node12&#45;&gt;Node7</title>
<path fill="none" stroke="#9a32cd" stroke-dasharray="5,2" d="M112.147,-149.5C185.692,-149.5 412.801,-149.5 535.453,-149.5"/>
<polygon fill="#9a32cd" stroke="#9a32cd" points="112.07,-146 102.069,-149.5 112.069,-153 112.07,-146"/>
<text text-anchor="middle" x="339" y="-152.5" font-family="FreeSans" font-size="10.00"> myX</text>
</g>
<!-- Node12&#45;&gt;Node8 -->
<g id="edge6" class="edge"><title>Node12&#45;&gt;Node8</title>
<path fill="none" stroke="#9a32cd" stroke-dasharray="5,2" d="M112.092,-155.079C148.959,-163.797 221.488,-180.948 274.452,-193.473"/>
<polygon fill="#9a32cd" stroke="#9a32cd" points="112.807,-151.651 102.27,-152.756 111.196,-158.464 112.807,-151.651"/>
<text text-anchor="middle" x="205.5" y="-181.5" font-family="FreeSans" font-size="10.00"> myX</text>
</g>
<!-- Node13 -->
<g id="node8" class="node"><title>Node13</title>
<g id="a_node8"><a xlink:href="structDGtal_1_1CForwardIteratorArchetype.html" target="_top" xlink:title="DGtal::CForwardIteratorArchetype\l\&lt; Point \&gt;">
<polygon fill="white" stroke="black" points="528,-44.5 528,-74.5 706,-74.5 706,-44.5 528,-44.5"/>
<text text-anchor="start" x="536" y="-62.5" font-family="FreeSans" font-size="10.00">DGtal::CForwardIteratorArchetype</text>
<text text-anchor="middle" x="617" y="-51.5" font-family="FreeSans" font-size="10.00">&lt; Point &gt;</text>
</a>
</g>
</g>
<!-- Node13&#45;&gt;Node6 -->
<g id="edge8" class="edge"><title>Node13&#45;&gt;Node6</title>
<path fill="none" stroke="#9a32cd" stroke-dasharray="5,2" d="M716.186,-72.3239C727.291,-74.1939 738.415,-76.2555 749,-78.5 762.031,-81.2631 775.968,-84.8624 788.853,-88.4653"/>
<polygon fill="#9a32cd" stroke="#9a32cd" points="716.442,-68.8194 706.009,-70.6606 715.313,-75.7277 716.442,-68.8194"/>
<text text-anchor="middle" x="736.5" y="-81.5" font-family="FreeSans" font-size="10.00"> myIt</text>
</g>
<!-- Node14 -->
<g id="node9" class="node"><title>Node14</title>
<polygon fill="white" stroke="#bfbfbf" points="276.5,-44.5 276.5,-74.5 401.5,-74.5 401.5,-44.5 276.5,-44.5"/>
<text text-anchor="start" x="284.5" y="-62.5" font-family="FreeSans" font-size="10.00">boost::forward_iterator</text>
<text text-anchor="middle" x="339" y="-51.5" font-family="FreeSans" font-size="10.00">_archetype&lt; Point &gt;</text>
</g>
<!-- Node14&#45;&gt;Node13 -->
<g id="edge9" class="edge"><title>Node14&#45;&gt;Node13</title>
<path fill="none" stroke="midnightblue" d="M411.865,-59.5C447.339,-59.5 490.448,-59.5 527.894,-59.5"/>
<polygon fill="midnightblue" stroke="midnightblue" points="411.596,-56.0001 401.596,-59.5 411.596,-63.0001 411.596,-56.0001"/>
</g>
<!-- Node15 -->
<g id="node10" class="node"><title>Node15</title>
<g id="a_node10"><a xlink:href="structDGtal_1_1CForwardIteratorArchetype.html" target="_top" xlink:title="An archetype of ForwardIterator. ">
<polygon fill="white" stroke="black" points="236,-6 236,-25 442,-25 442,-6 236,-6"/>
<text text-anchor="middle" x="339" y="-13" font-family="FreeSans" font-size="10.00">DGtal::CForwardIteratorArchetype&lt; T &gt;</text>
</a>
</g>
</g>
<!-- Node15&#45;&gt;Node13 -->
<g id="edge10" class="edge"><title>Node15&#45;&gt;Node13</title>
<path fill="none" stroke="orange" stroke-dasharray="5,2" d="M409.776,-26.6236C445.646,-32.3421 489.734,-39.3706 527.925,-45.459"/>
<polygon fill="orange" stroke="orange" points="410.314,-23.1654 399.888,-25.0473 409.212,-30.0781 410.314,-23.1654"/>
<text text-anchor="middle" x="485" y="-44.5" font-family="FreeSans" font-size="10.00"> &lt; Point &gt;</text>
</g>
<!-- Node16 -->
<g id="node11" class="node"><title>Node16</title>
<polygon fill="white" stroke="#bfbfbf" points="25,-0.5 25,-30.5 150,-30.5 150,-0.5 25,-0.5"/>
<text text-anchor="start" x="33" y="-18.5" font-family="FreeSans" font-size="10.00">boost::forward_iterator</text>
<text text-anchor="middle" x="87.5" y="-7.5" font-family="FreeSans" font-size="10.00">_archetype&lt; T &gt;</text>
</g>
<!-- Node16&#45;&gt;Node15 -->
<g id="edge11" class="edge"><title>Node16&#45;&gt;Node15</title>
<path fill="none" stroke="midnightblue" d="M160.393,-15.5C183.898,-15.5 210.475,-15.5 235.774,-15.5"/>
<polygon fill="midnightblue" stroke="midnightblue" points="160.174,-12.0001 150.174,-15.5 160.174,-19.0001 160.174,-12.0001"/>
</g>
</g>
</svg>
