<?xml version="1.0" encoding="UTF-8" standalone="no"?>
<!DOCTYPE svg PUBLIC "-//W3C//DTD SVG 1.1//EN"
 "http://www.w3.org/Graphics/SVG/1.1/DTD/svg11.dtd">
<!-- Generated by graphviz version 2.36.0 (20140111.2315)
 -->
<!-- Title: DGtal::SignedKhalimskyPreCell&lt; dim, TInteger &gt; Pages: 1 -->
<svg width="235pt" height="278pt"
 viewBox="0.00 0.00 235.00 278.00" xmlns="http://www.w3.org/2000/svg" xmlns:xlink="http://www.w3.org/1999/xlink">
<g id="graph0" class="graph" transform="scale(1 1) rotate(0) translate(4 274)">
<title>DGtal::SignedKhalimskyPreCell&lt; dim, TInteger &gt;</title>
<polygon fill="white" stroke="none" points="-4,4 -4,-274 231,-274 231,4 -4,4"/>
<!-- Node2 -->
<g id="node1" class="node"><title>Node2</title>
<polygon fill="#bfbfbf" stroke="black" points="0,-1 0,-31 146,-31 146,-1 0,-1"/>
<text text-anchor="start" x="8" y="-19" font-family="FreeSans" font-size="10.00">DGtal::SignedKhalimskyPre</text>
<text text-anchor="middle" x="73" y="-8" font-family="FreeSans" font-size="10.00">Cell&lt; dim, TInteger &gt;</text>
</g>
<!-- Node3 -->
<g id="node2" class="node"><title>Node3</title>
<g id="a_node2"><a xlink:href="classDGtal_1_1PointVector.html" target="_top" xlink:title="DGtal::PointVector\l\&lt; dim, Integer \&gt;">
<polygon fill="white" stroke="black" points="21,-81 21,-111 125,-111 125,-81 21,-81"/>
<text text-anchor="start" x="29" y="-99" font-family="FreeSans" font-size="10.00">DGtal::PointVector</text>
<text text-anchor="middle" x="73" y="-88" font-family="FreeSans" font-size="10.00">&lt; dim, Integer &gt;</text>
</a>
</g>
</g>
<!-- Node3&#45;&gt;Node2 -->
<g id="edge1" class="edge"><title>Node3&#45;&gt;Node2</title>
<path fill="none" stroke="#9a32cd" stroke-dasharray="5,2" d="M73,-70.5644C73,-57.6243 73,-42.1862 73,-31.2157"/>
<polygon fill="#9a32cd" stroke="#9a32cd" points="69.5001,-70.6936 73,-80.6936 76.5001,-70.6936 69.5001,-70.6936"/>
<text text-anchor="middle" x="103" y="-53.5" font-family="FreeSans" font-size="10.00"> coordinates</text>
</g>
<!-- Node4 -->
<g id="node3" class="node"><title>Node4</title>
<polygon fill="white" stroke="#bfbfbf" points="1,-250.5 1,-269.5 69,-269.5 69,-250.5 1,-250.5"/>
<text text-anchor="middle" x="35" y="-257.5" font-family="FreeSans" font-size="10.00">TContainer</text>
</g>
<!-- Node4&#45;&gt;Node3 -->
<g id="edge2" class="edge"><title>Node4&#45;&gt;Node3</title>
<path fill="none" stroke="#9a32cd" stroke-dasharray="5,2" d="M22.5999,-241.871C9.68549,-221.782 -7.10019,-187.706 5,-160 14.0821,-139.205 33.7881,-122.205 49.6601,-111.129"/>
<polygon fill="#9a32cd" stroke="#9a32cd" points="19.7995,-243.978 28.3142,-250.282 25.5896,-240.044 19.7995,-243.978"/>
<text text-anchor="middle" x="27" y="-178.5" font-family="FreeSans" font-size="10.00"> myArray</text>
</g>
<!-- Node5 -->
<g id="node4" class="node"><title>Node5</title>
<g id="a_node4"><a xlink:href="classDGtal_1_1PointVector.html" target="_top" xlink:title="Aim: Implements basic operations that will be used in Point and Vector classes. ">
<polygon fill="white" stroke="black" points="58,-160.5 58,-201.5 184,-201.5 184,-160.5 58,-160.5"/>
<text text-anchor="start" x="66" y="-189.5" font-family="FreeSans" font-size="10.00">DGtal::PointVector</text>
<text text-anchor="start" x="66" y="-178.5" font-family="FreeSans" font-size="10.00">&lt; dim, TEuclideanRing,</text>
<text text-anchor="middle" x="121" y="-167.5" font-family="FreeSans" font-size="10.00"> TContainer &gt;</text>
</a>
</g>
</g>
<!-- Node4&#45;&gt;Node5 -->
<g id="edge4" class="edge"><title>Node4&#45;&gt;Node5</title>
<path fill="none" stroke="#9a32cd" stroke-dasharray="5,2" d="M52.1173,-243.674C65.5516,-231.646 84.354,-214.811 98.9209,-201.768"/>
<polygon fill="#9a32cd" stroke="#9a32cd" points="49.6476,-241.187 44.5321,-250.465 54.3169,-246.402 49.6476,-241.187"/>
<text text-anchor="middle" x="100" y="-223.5" font-family="FreeSans" font-size="10.00"> myArray</text>
</g>
<!-- Node5&#45;&gt;Node3 -->
<g id="edge3" class="edge"><title>Node5&#45;&gt;Node3</title>
<path fill="none" stroke="#9a32cd" stroke-dasharray="5,2" d="M81.3745,-152.935C78.4675,-149.571 75.9255,-145.92 74,-142 69.3147,-132.461 69.3253,-120.357 70.3648,-111.105"/>
<polygon fill="#9a32cd" stroke="#9a32cd" points="79.1545,-155.664 88.7017,-160.258 84.1029,-150.713 79.1545,-155.664"/>
<text text-anchor="middle" x="86.5" y="-133.5" font-family="FreeSans" font-size="10.00"> zero</text>
</g>
<!-- Node5&#45;&gt;Node3 -->
<g id="edge6" class="edge"><title>Node5&#45;&gt;Node3</title>
<path fill="none" stroke="orange" stroke-dasharray="5,2" d="M109.773,-151.114C106.622,-144.032 102.962,-136.595 99,-130 95.0941,-123.497 90.0708,-116.832 85.4825,-111.209"/>
<polygon fill="orange" stroke="orange" points="106.604,-152.605 113.737,-160.439 113.046,-149.867 106.604,-152.605"/>
<text text-anchor="middle" x="147" y="-133.5" font-family="FreeSans" font-size="10.00"> &lt; dim, Integer &gt;</text>
</g>
<!-- Node5&#45;&gt;Node5 -->
<g id="edge5" class="edge"><title>Node5&#45;&gt;Node5</title>
<path fill="none" stroke="#9a32cd" stroke-dasharray="5,2" d="M194.09,-186.937C199.012,-185.566 202,-183.588 202,-181 202,-176.961 194.719,-174.405 184.168,-173.332"/>
<polygon fill="#9a32cd" stroke="#9a32cd" points="193.418,-183.501 184.168,-188.668 194.621,-190.397 193.418,-183.501"/>
<text text-anchor="middle" x="214.5" y="-178.5" font-family="FreeSans" font-size="10.00"> zero</text>
</g>
</g>
</svg>
