<?xml version="1.0" encoding="UTF-8" standalone="no"?>
<!DOCTYPE svg PUBLIC "-//W3C//DTD SVG 1.1//EN"
 "http://www.w3.org/Graphics/SVG/1.1/DTD/svg11.dtd">
<!-- Generated by graphviz version 2.38.0 (20140413.2041)
 -->
<!-- Title: DGtal::BoundedLatticePolytope&lt; TSpace &gt;::UnitCell Pages: 1 -->
<svg width="174pt" height="240pt"
 viewBox="0.00 0.00 174.00 240.00" xmlns="http://www.w3.org/2000/svg" xmlns:xlink="http://www.w3.org/1999/xlink">
<g id="graph0" class="graph" transform="scale(1 1) rotate(0) translate(4 236)">
<title>DGtal::BoundedLatticePolytope&lt; TSpace &gt;::UnitCell</title>
<polygon fill="white" stroke="none" points="-4,4 -4,-236 170,-236 170,4 -4,4"/>
<!-- Node1 -->
<g id="node1" class="node"><title>Node1</title>
<polygon fill="#bfbfbf" stroke="black" points="0,-0.5 0,-30.5 166,-30.5 166,-0.5 0,-0.5"/>
<text text-anchor="start" x="8" y="-18.5" font-family="FreeSans" font-size="10.00">DGtal::BoundedLatticePolytope</text>
<text text-anchor="middle" x="83" y="-7.5" font-family="FreeSans" font-size="10.00">&lt; TSpace &gt;::UnitCell</text>
</g>
<!-- Node2 -->
<g id="node2" class="node"><title>Node2</title>
<polygon fill="white" stroke="#bfbfbf" points="12.5,-78.5 12.5,-97.5 153.5,-97.5 153.5,-78.5 12.5,-78.5"/>
<text text-anchor="middle" x="83" y="-85.5" font-family="FreeSans" font-size="10.00">std::vector&lt; Dimension &gt;</text>
</g>
<!-- Node2&#45;&gt;Node1 -->
<g id="edge1" class="edge"><title>Node2&#45;&gt;Node1</title>
<path fill="none" stroke="#9a32cd" stroke-dasharray="5,2" d="M83,-68.2362C83,-56.4079 83,-41.3829 83,-30.5762"/>
<polygon fill="#9a32cd" stroke="#9a32cd" points="79.5001,-68.3553 83,-78.3553 86.5001,-68.3554 79.5001,-68.3553"/>
<text text-anchor="middle" x="96.5" y="-52" font-family="FreeSans" font-size="10.00"> dims</text>
</g>
<!-- Node3 -->
<g id="node3" class="node"><title>Node3</title>
<g id="a_node3"><a xlink:title="STL class. ">
<polygon fill="white" stroke="#bfbfbf" points="35.5,-145.5 35.5,-164.5 130.5,-164.5 130.5,-145.5 35.5,-145.5"/>
<text text-anchor="middle" x="83" y="-152.5" font-family="FreeSans" font-size="10.00">std::vector&lt; T &gt;</text>
</a>
</g>
</g>
<!-- Node3&#45;&gt;Node2 -->
<g id="edge2" class="edge"><title>Node3&#45;&gt;Node2</title>
<path fill="none" stroke="orange" stroke-dasharray="5,2" d="M83,-135.037C83,-122.67 83,-107.12 83,-97.6273"/>
<polygon fill="orange" stroke="orange" points="79.5001,-135.234 83,-145.234 86.5001,-135.234 79.5001,-135.234"/>
<text text-anchor="middle" x="121.5" y="-119" font-family="FreeSans" font-size="10.00"> &lt; Dimension &gt;</text>
</g>
<!-- Node4 -->
<g id="node4" class="node"><title>Node4</title>
<polygon fill="white" stroke="#bfbfbf" points="68.5,-212.5 68.5,-231.5 97.5,-231.5 97.5,-212.5 68.5,-212.5"/>
<text text-anchor="middle" x="83" y="-219.5" font-family="FreeSans" font-size="10.00">T</text>
</g>
<!-- Node4&#45;&gt;Node3 -->
<g id="edge3" class="edge"><title>Node4&#45;&gt;Node3</title>
<path fill="none" stroke="#9a32cd" stroke-dasharray="5,2" d="M83,-202.037C83,-189.67 83,-174.12 83,-164.627"/>
<polygon fill="#9a32cd" stroke="#9a32cd" points="79.5001,-202.234 83,-212.234 86.5001,-202.234 79.5001,-202.234"/>
<text text-anchor="middle" x="107.5" y="-186" font-family="FreeSans" font-size="10.00"> elements</text>
</g>
</g>
</svg>
