<?xml version="1.0" encoding="UTF-8" standalone="no"?>
<!DOCTYPE svg PUBLIC "-//W3C//DTD SVG 1.1//EN"
 "http://www.w3.org/Graphics/SVG/1.1/DTD/svg11.dtd">
<!-- Generated by graphviz version 2.38.0 (20140413.2041)
 -->
<!-- Title: DGtal::concepts::CBidirectionalSegmentComputer&lt; T &gt; Pages: 1 -->
<svg width="1392pt" height="142pt"
 viewBox="0.00 0.00 1392.00 142.00" xmlns="http://www.w3.org/2000/svg" xmlns:xlink="http://www.w3.org/1999/xlink">
<g id="graph0" class="graph" transform="scale(1 1) rotate(0) translate(4 138)">
<title>DGtal::concepts::CBidirectionalSegmentComputer&lt; T &gt;</title>
<polygon fill="white" stroke="none" points="-4,4 -4,-138 1388,-138 1388,4 -4,4"/>
<!-- Node0 -->
<g id="node1" class="node"><title>Node0</title>
<polygon fill="#bfbfbf" stroke="black" points="989,-52 989,-82 1153,-82 1153,-52 989,-52"/>
<text text-anchor="start" x="997" y="-70" font-family="FreeSans" font-size="10.00">DGtal::concepts::CBidirectional</text>
<text text-anchor="middle" x="1071" y="-59" font-family="FreeSans" font-size="10.00">SegmentComputer&lt; T &gt;</text>
</g>
<!-- Node9 -->
<g id="node10" class="node"><title>Node9</title>
<g id="a_node10"><a xlink:href="structDGtal_1_1concepts_1_1CDynamicBidirectionalSegmentComputer.html" target="_top" xlink:title="Aim: Defines the concept describing a dynamic and bidirectional segment computer, ie...">
<polygon fill="white" stroke="black" points="1189,-52 1189,-82 1384,-82 1384,-52 1189,-52"/>
<text text-anchor="start" x="1197" y="-70" font-family="FreeSans" font-size="10.00">DGtal::concepts::CDynamic</text>
<text text-anchor="middle" x="1286.5" y="-59" font-family="FreeSans" font-size="10.00">BidirectionalSegmentComputer&lt; T &gt;</text>
</a>
</g>
</g>
<!-- Node0&#45;&gt;Node9 -->
<g id="edge9" class="edge"><title>Node0&#45;&gt;Node9</title>
<path fill="none" stroke="midnightblue" d="M1163.24,-67C1171.69,-67 1180.27,-67 1188.76,-67"/>
<polygon fill="midnightblue" stroke="midnightblue" points="1163.02,-63.5001 1153.02,-67 1163.02,-70.5001 1163.02,-63.5001"/>
</g>
<!-- Node1 -->
<g id="node2" class="node"><title>Node1</title>
<g id="a_node2"><a xlink:href="structDGtal_1_1concepts_1_1CForwardSegmentComputer.html" target="_top" xlink:title="Aim: Defines the concept describing a forward segment computer. Like any model of CIncrementalSegment...">
<polygon fill="white" stroke="black" points="810,-52 810,-82 953,-82 953,-52 810,-52"/>
<text text-anchor="start" x="818" y="-70" font-family="FreeSans" font-size="10.00">DGtal::concepts::CForward</text>
<text text-anchor="middle" x="881.5" y="-59" font-family="FreeSans" font-size="10.00">SegmentComputer&lt; T &gt;</text>
</a>
</g>
</g>
<!-- Node1&#45;&gt;Node0 -->
<g id="edge1" class="edge"><title>Node1&#45;&gt;Node0</title>
<path fill="none" stroke="midnightblue" d="M963.309,-67C971.737,-67 980.307,-67 988.74,-67"/>
<polygon fill="midnightblue" stroke="midnightblue" points="963.119,-63.5001 953.119,-67 963.118,-70.5001 963.119,-63.5001"/>
</g>
<!-- Node2 -->
<g id="node3" class="node"><title>Node2</title>
<g id="a_node3"><a xlink:href="structDGtal_1_1concepts_1_1CIncrementalSegmentComputer.html" target="_top" xlink:title="Aim: Defines the concept describing an incremental segment computer, &#160;ie. a model of CSegmentFactory ...">
<polygon fill="white" stroke="black" points="611,-52 611,-82 774,-82 774,-52 611,-52"/>
<text text-anchor="start" x="619" y="-70" font-family="FreeSans" font-size="10.00">DGtal::concepts::CIncremental</text>
<text text-anchor="middle" x="692.5" y="-59" font-family="FreeSans" font-size="10.00">SegmentComputer&lt; T &gt;</text>
</a>
</g>
</g>
<!-- Node2&#45;&gt;Node1 -->
<g id="edge2" class="edge"><title>Node2&#45;&gt;Node1</title>
<path fill="none" stroke="midnightblue" d="M784.22,-67C792.814,-67 801.441,-67 809.807,-67"/>
<polygon fill="midnightblue" stroke="midnightblue" points="784.162,-63.5001 774.162,-67 784.162,-70.5001 784.162,-63.5001"/>
</g>
<!-- Node3 -->
<g id="node4" class="node"><title>Node3</title>
<g id="a_node4"><a xlink:href="structDGtal_1_1concepts_1_1CSegmentFactory.html" target="_top" xlink:title="Aim: Defines the concept describing a segment ie. a valid and not empty subrange, which can construct...">
<polygon fill="white" stroke="black" points="425,-52 425,-82 575,-82 575,-52 425,-52"/>
<text text-anchor="start" x="433" y="-70" font-family="FreeSans" font-size="10.00">DGtal::concepts::CSegment</text>
<text text-anchor="middle" x="500" y="-59" font-family="FreeSans" font-size="10.00">Factory&lt; T &gt;</text>
</a>
</g>
</g>
<!-- Node3&#45;&gt;Node2 -->
<g id="edge3" class="edge"><title>Node3&#45;&gt;Node2</title>
<path fill="none" stroke="midnightblue" d="M585.438,-67C593.895,-67 602.467,-67 610.883,-67"/>
<polygon fill="midnightblue" stroke="midnightblue" points="585.198,-63.5001 575.198,-67 585.198,-70.5001 585.198,-63.5001"/>
</g>
<!-- Node4 -->
<g id="node5" class="node"><title>Node4</title>
<g id="a_node5"><a xlink:href="structDGtal_1_1concepts_1_1CSegment.html" target="_top" xlink:title="Aim: Defines the concept describing a segment, ie. a valid and not empty range. ">
<polygon fill="white" stroke="black" points="211,-57.5 211,-76.5 389,-76.5 389,-57.5 211,-57.5"/>
<text text-anchor="middle" x="300" y="-64.5" font-family="FreeSans" font-size="10.00">DGtal::concepts::CSegment&lt; T &gt;</text>
</a>
</g>
</g>
<!-- Node4&#45;&gt;Node3 -->
<g id="edge4" class="edge"><title>Node4&#45;&gt;Node3</title>
<path fill="none" stroke="midnightblue" d="M399.327,-67C407.896,-67 416.471,-67 424.796,-67"/>
<polygon fill="midnightblue" stroke="midnightblue" points="399.287,-63.5001 389.287,-67 399.287,-70.5001 399.287,-63.5001"/>
</g>
<!-- Node5 -->
<g id="node6" class="node"><title>Node5</title>
<g id="a_node6"><a xlink:href="structboost_1_1DefaultConstructible.html" target="_top" xlink:title="Go to http://www.sgi.com/tech/stl/DefaultConstructible.html. ">
<polygon fill="white" stroke="black" points="0,-114.5 0,-133.5 175,-133.5 175,-114.5 0,-114.5"/>
<text text-anchor="middle" x="87.5" y="-121.5" font-family="FreeSans" font-size="10.00">boost::DefaultConstructible&lt; T &gt;</text>
</a>
</g>
</g>
<!-- Node5&#45;&gt;Node4 -->
<g id="edge5" class="edge"><title>Node5&#45;&gt;Node4</title>
<path fill="none" stroke="midnightblue" d="M145.192,-112.239C155.159,-109.974 165.408,-107.519 175,-105 207.884,-96.3649 245.117,-84.6957 270.127,-76.576"/>
<polygon fill="midnightblue" stroke="midnightblue" points="144.351,-108.84 135.354,-114.435 145.876,-115.672 144.351,-108.84"/>
</g>
<!-- Node6 -->
<g id="node7" class="node"><title>Node6</title>
<g id="a_node7"><a xlink:href="structboost_1_1CopyConstructible.html" target="_top" xlink:title="Go to http://www.sgi.com/tech/stl/CopyConstructible.html. ">
<polygon fill="white" stroke="black" points="5.5,-76.5 5.5,-95.5 169.5,-95.5 169.5,-76.5 5.5,-76.5"/>
<text text-anchor="middle" x="87.5" y="-83.5" font-family="FreeSans" font-size="10.00">boost::CopyConstructible&lt; T &gt;</text>
</a>
</g>
</g>
<!-- Node6&#45;&gt;Node4 -->
<g id="edge6" class="edge"><title>Node6&#45;&gt;Node4</title>
<path fill="none" stroke="midnightblue" d="M179.838,-77.7558C190.167,-76.8234 200.679,-75.8746 210.965,-74.9462"/>
<polygon fill="midnightblue" stroke="midnightblue" points="179.229,-74.2964 169.584,-78.6813 179.858,-81.2681 179.229,-74.2964"/>
</g>
<!-- Node7 -->
<g id="node8" class="node"><title>Node7</title>
<g id="a_node8"><a xlink:href="structboost_1_1Assignable.html" target="_top" xlink:title="Go to http://www.sgi.com/tech/stl/Assignable.html. ">
<polygon fill="white" stroke="black" points="23,-38.5 23,-57.5 152,-57.5 152,-38.5 23,-38.5"/>
<text text-anchor="middle" x="87.5" y="-45.5" font-family="FreeSans" font-size="10.00">boost::Assignable&lt; T &gt;</text>
</a>
</g>
</g>
<!-- Node7&#45;&gt;Node4 -->
<g id="edge7" class="edge"><title>Node7&#45;&gt;Node4</title>
<path fill="none" stroke="midnightblue" d="M162.322,-54.6633C177.929,-56.072 194.552,-57.5724 210.634,-59.024"/>
<polygon fill="midnightblue" stroke="midnightblue" points="162.502,-51.1654 152.228,-53.7522 161.873,-58.1371 162.502,-51.1654"/>
</g>
<!-- Node8 -->
<g id="node9" class="node"><title>Node8</title>
<g id="a_node9"><a xlink:href="structboost_1_1EqualityComparable.html" target="_top" xlink:title="Go to http://www.sgi.com/tech/stl/EqualityComparable.html. ">
<polygon fill="white" stroke="black" points="1,-0.5 1,-19.5 174,-19.5 174,-0.5 1,-0.5"/>
<text text-anchor="middle" x="87.5" y="-7.5" font-family="FreeSans" font-size="10.00">boost::EqualityComparable&lt; T &gt;</text>
</a>
</g>
</g>
<!-- Node8&#45;&gt;Node4 -->
<g id="edge8" class="edge"><title>Node8&#45;&gt;Node4</title>
<path fill="none" stroke="midnightblue" d="M145.192,-21.7611C155.159,-24.0256 165.408,-26.4813 175,-29 207.884,-37.6351 245.117,-49.3043 270.127,-57.424"/>
<polygon fill="midnightblue" stroke="midnightblue" points="145.876,-18.3278 135.354,-19.5651 144.351,-25.1597 145.876,-18.3278"/>
</g>
</g>
</svg>
