<?xml version="1.0" encoding="UTF-8" standalone="no"?>
<!DOCTYPE svg PUBLIC "-//W3C//DTD SVG 1.1//EN"
 "http://www.w3.org/Graphics/SVG/1.1/DTD/svg11.dtd">
<!-- Generated by graphviz version 2.36.0 (20140111.2315)
 -->
<!-- Title: DGtal::AlphaThickSegmentComputer&lt; TInputPoint, TConstIterator &gt;::State Pages: 1 -->
<svg width="2606pt" height="317pt"
 viewBox="0.00 0.00 2606.00 317.00" xmlns="http://www.w3.org/2000/svg" xmlns:xlink="http://www.w3.org/1999/xlink">
<g id="graph0" class="graph" transform="scale(1 1) rotate(0) translate(4 313)">
<title>DGtal::AlphaThickSegmentComputer&lt; TInputPoint, TConstIterator &gt;::State</title>
<polygon fill="white" stroke="none" points="-4,4 -4,-313 2602,-313 2602,4 -4,4"/>
<!-- Node1 -->
<g id="node1" class="node"><title>Node1</title>
<polygon fill="#bfbfbf" stroke="black" points="2452.5,-152.5 2452.5,-193.5 2597.5,-193.5 2597.5,-152.5 2452.5,-152.5"/>
<text text-anchor="start" x="2460.5" y="-181.5" font-family="FreeSans" font-size="10.00">DGtal::AlphaThickSegment</text>
<text text-anchor="start" x="2460.5" y="-170.5" font-family="FreeSans" font-size="10.00">Computer&lt; TInputPoint,</text>
<text text-anchor="middle" x="2525" y="-159.5" font-family="FreeSans" font-size="10.00"> TConstIterator &gt;::State</text>
</g>
<!-- Node2 -->
<g id="node2" class="node"><title>Node2</title>
<g id="a_node2"><a xlink:href="classDGtal_1_1MelkmanConvexHull.html" target="_top" xlink:title="DGtal::MelkmanConvexHull\l\&lt; InputPoint, DGtal::InHalfPlane\lBySimple3x3Matrix \&gt;">
<polygon fill="white" stroke="black" points="2184,-152.5 2184,-193.5 2352,-193.5 2352,-152.5 2184,-152.5"/>
<text text-anchor="start" x="2192" y="-181.5" font-family="FreeSans" font-size="10.00">DGtal::MelkmanConvexHull</text>
<text text-anchor="start" x="2192" y="-170.5" font-family="FreeSans" font-size="10.00">&lt; InputPoint, DGtal::InHalfPlane</text>
<text text-anchor="middle" x="2268" y="-159.5" font-family="FreeSans" font-size="10.00">BySimple3x3Matrix &gt;</text>
</a>
</g>
</g>
<!-- Node2&#45;&gt;Node1 -->
<g id="edge1" class="edge"><title>Node2&#45;&gt;Node1</title>
<path fill="none" stroke="#9a32cd" stroke-dasharray="5,2" d="M2362.49,-173C2392.07,-173 2424.28,-173 2452.11,-173"/>
<polygon fill="#9a32cd" stroke="#9a32cd" points="2362.14,-169.5 2352.14,-173 2362.14,-176.5 2362.14,-169.5"/>
<text text-anchor="middle" x="2402" y="-176" font-family="FreeSans" font-size="10.00"> melkmanCH</text>
</g>
<!-- Node3 -->
<g id="node3" class="node"><title>Node3</title>
<g id="a_node3"><a xlink:href="classDGtal_1_1PredicateFromOrientationFunctor2.html" target="_top" xlink:title="DGtal::PredicateFromOrientation\lFunctor2\&lt; Functor, true, false \&gt;">
<polygon fill="white" stroke="black" points="1497,-155 1497,-185 1669,-185 1669,-155 1497,-155"/>
<text text-anchor="start" x="1505" y="-173" font-family="FreeSans" font-size="10.00">DGtal::PredicateFromOrientation</text>
<text text-anchor="middle" x="1583" y="-162" font-family="FreeSans" font-size="10.00">Functor2&lt; Functor, true, false &gt;</text>
</a>
</g>
</g>
<!-- Node3&#45;&gt;Node2 -->
<g id="edge2" class="edge"><title>Node3&#45;&gt;Node2</title>
<path fill="none" stroke="#9a32cd" stroke-dasharray="5,2" d="M1679.39,-170.419C1813.71,-171.009 2056.35,-172.075 2183.75,-172.634"/>
<polygon fill="#9a32cd" stroke="#9a32cd" points="1679.14,-166.918 1669.12,-170.374 1679.11,-173.918 1679.14,-166.918"/>
<text text-anchor="middle" x="1900" y="-175" font-family="FreeSans" font-size="10.00"> myForwardPredicate</text>
</g>
<!-- Node17 -->
<g id="node17" class="node"><title>Node17</title>
<g id="a_node17"><a xlink:href="classDGtal_1_1MelkmanConvexHull.html" target="_top" xlink:title="Aim: This class implements the on&#45;line algorithm of Melkman for the computation of the convex hull of...">
<polygon fill="white" stroke="black" points="1816,-102 1816,-132 1984,-132 1984,-102 1816,-102"/>
<text text-anchor="start" x="1824" y="-120" font-family="FreeSans" font-size="10.00">DGtal::MelkmanConvexHull</text>
<text text-anchor="middle" x="1900" y="-109" font-family="FreeSans" font-size="10.00">&lt; TPoint, TOrientationFunctor &gt;</text>
</a>
</g>
</g>
<!-- Node3&#45;&gt;Node17 -->
<g id="edge28" class="edge"><title>Node3&#45;&gt;Node17</title>
<path fill="none" stroke="#9a32cd" stroke-dasharray="5,2" d="M1661.98,-152.953C1670.74,-151.201 1679.55,-149.512 1688,-148 1730,-140.479 1776.95,-133.447 1815.88,-127.988"/>
<polygon fill="#9a32cd" stroke="#9a32cd" points="1661.24,-149.532 1652.13,-154.95 1662.63,-156.393 1661.24,-149.532"/>
<text text-anchor="middle" x="1743" y="-151" font-family="FreeSans" font-size="10.00"> myForwardPredicate</text>
</g>
<!-- Node4 -->
<g id="node4" class="node"><title>Node4</title>
<g id="a_node4"><a xlink:href="classDGtal_1_1functors_1_1Thresholder.html" target="_top" xlink:title="Aim: A small functor with an operator () that compares one value to a threshold value according to tw...">
<polygon fill="white" stroke="black" points="868.5,-158 868.5,-188 1019.5,-188 1019.5,-158 868.5,-158"/>
<text text-anchor="start" x="876.5" y="-176" font-family="FreeSans" font-size="10.00">DGtal::functors::Thresholder</text>
<text text-anchor="middle" x="944" y="-165" font-family="FreeSans" font-size="10.00">&lt; T, isLower, isEqual &gt;</text>
</a>
</g>
</g>
<!-- Node4&#45;&gt;Node3 -->
<g id="edge3" class="edge"><title>Node4&#45;&gt;Node3</title>
<path fill="none" stroke="#9a32cd" stroke-dasharray="5,2" d="M1019.98,-155.837C1063.52,-146.754 1119.56,-136.559 1170,-132 1246.13,-125.12 1265.79,-126.004 1342,-132 1397.51,-136.368 1459.59,-146.334 1506.7,-154.965"/>
<polygon fill="#9a32cd" stroke="#9a32cd" points="1019.11,-152.445 1010.05,-157.937 1020.55,-159.294 1019.11,-152.445"/>
<text text-anchor="middle" x="1256" y="-135" font-family="FreeSans" font-size="10.00"> myThresholder</text>
</g>
<!-- Node11 -->
<g id="node11" class="node"><title>Node11</title>
<g id="a_node11"><a xlink:href="classDGtal_1_1PredicateFromOrientationFunctor2.html" target="_top" xlink:title="Aim: Small adapter to models of COrientationFunctor2. It is a model of concepts::CPointPredicate. It is also a ternary predicate on points, useful for basic geometric tasks such as convex hull computation. ">
<polygon fill="white" stroke="black" points="1170,-152.5 1170,-193.5 1342,-193.5 1342,-152.5 1170,-152.5"/>
<text text-anchor="start" x="1178" y="-181.5" font-family="FreeSans" font-size="10.00">DGtal::PredicateFromOrientation</text>
<text text-anchor="start" x="1178" y="-170.5" font-family="FreeSans" font-size="10.00">Functor2&lt; TOrientationFunctor,</text>
<text text-anchor="middle" x="1256" y="-159.5" font-family="FreeSans" font-size="10.00"> acceptNeg, acceptZero &gt;</text>
</a>
</g>
</g>
<!-- Node4&#45;&gt;Node11 -->
<g id="edge13" class="edge"><title>Node4&#45;&gt;Node11</title>
<path fill="none" stroke="#9a32cd" stroke-dasharray="5,2" d="M1029.92,-173C1073.41,-173 1126.23,-173 1169.77,-173"/>
<polygon fill="#9a32cd" stroke="#9a32cd" points="1029.65,-169.5 1019.65,-173 1029.65,-176.5 1029.65,-169.5"/>
<text text-anchor="middle" x="1095" y="-176" font-family="FreeSans" font-size="10.00"> myThresholder</text>
</g>
<!-- Node14 -->
<g id="node14" class="node"><title>Node14</title>
<g id="a_node14"><a xlink:href="classDGtal_1_1PredicateFromOrientationFunctor2.html" target="_top" xlink:title="DGtal::PredicateFromOrientation\lFunctor2\&lt; Functor, false, false \&gt;">
<polygon fill="white" stroke="black" points="1496.5,-215 1496.5,-245 1669.5,-245 1669.5,-215 1496.5,-215"/>
<text text-anchor="start" x="1504.5" y="-233" font-family="FreeSans" font-size="10.00">DGtal::PredicateFromOrientation</text>
<text text-anchor="middle" x="1583" y="-222" font-family="FreeSans" font-size="10.00">Functor2&lt; Functor, false, false &gt;</text>
</a>
</g>
</g>
<!-- Node4&#45;&gt;Node14 -->
<g id="edge18" class="edge"><title>Node4&#45;&gt;Node14</title>
<path fill="none" stroke="#9a32cd" stroke-dasharray="5,2" d="M1029.74,-186.864C1032.52,-187.257 1035.28,-187.637 1038,-188 1199.26,-209.54 1389,-221.082 1496.42,-226.346"/>
<polygon fill="#9a32cd" stroke="#9a32cd" points="1029.96,-183.361 1019.57,-185.392 1028.96,-190.289 1029.96,-183.361"/>
<text text-anchor="middle" x="1256" y="-221" font-family="FreeSans" font-size="10.00"> myThresholder</text>
</g>
<!-- Node5 -->
<g id="node5" class="node"><title>Node5</title>
<polygon fill="white" stroke="#bfbfbf" points="0.5,-139.5 0.5,-158.5 29.5,-158.5 29.5,-139.5 0.5,-139.5"/>
<text text-anchor="middle" x="15" y="-146.5" font-family="FreeSans" font-size="10.00">T</text>
</g>
<!-- Node5&#45;&gt;Node4 -->
<g id="edge4" class="edge"><title>Node5&#45;&gt;Node4</title>
<path fill="none" stroke="#9a32cd" stroke-dasharray="5,2" d="M39.5659,-155.386C67.9201,-162.496 117.075,-173 160,-173 160,-173 160,-173 680,-173 743.581,-173 815.808,-173 868.464,-173"/>
<polygon fill="#9a32cd" stroke="#9a32cd" points="40.3312,-151.969 29.7736,-152.856 38.5803,-158.746 40.3312,-151.969"/>
<text text-anchor="middle" x="421" y="-176" font-family="FreeSans" font-size="10.00"> myT</text>
</g>
<!-- Node9 -->
<g id="node9" class="node"><title>Node9</title>
<g id="a_node9"><a xlink:title="STL class. ">
<polygon fill="white" stroke="#bfbfbf" points="116,-204.5 116,-223.5 206,-223.5 206,-204.5 116,-204.5"/>
<text text-anchor="middle" x="161" y="-211.5" font-family="FreeSans" font-size="10.00">std::array&lt; T &gt;</text>
</a>
</g>
</g>
<!-- Node5&#45;&gt;Node9 -->
<g id="edge9" class="edge"><title>Node5&#45;&gt;Node9</title>
<path fill="none" stroke="#9a32cd" stroke-dasharray="5,2" d="M27.5248,-167.174C32.9274,-174.337 39.9533,-182.025 48,-187 68.3301,-199.569 94.0849,-206.287 115.77,-209.878"/>
<polygon fill="#9a32cd" stroke="#9a32cd" points="30.1706,-164.848 21.595,-158.626 24.419,-168.838 30.1706,-164.848"/>
<text text-anchor="middle" x="73" y="-210" font-family="FreeSans" font-size="10.00"> elements</text>
</g>
<!-- Node12 -->
<g id="node12" class="node"><title>Node12</title>
<polygon fill="white" stroke="#bfbfbf" points="889,-94.5 889,-113.5 999,-113.5 999,-94.5 889,-94.5"/>
<text text-anchor="middle" x="944" y="-101.5" font-family="FreeSans" font-size="10.00">Functor&lt; T, Point &gt;</text>
</g>
<!-- Node5&#45;&gt;Node12 -->
<g id="edge16" class="edge"><title>Node5&#45;&gt;Node12</title>
<path fill="none" stroke="#9a32cd" stroke-dasharray="5,2" d="M39.5821,-142.88C67.9522,-136.067 117.122,-126 160,-126 160,-126 160,-126 680,-126 752.509,-126 835.872,-117.593 888.963,-111.173"/>
<polygon fill="#9a32cd" stroke="#9a32cd" points="38.6505,-139.505 29.7839,-145.305 40.3319,-146.3 38.6505,-139.505"/>
<text text-anchor="middle" x="421" y="-129" font-family="FreeSans" font-size="10.00"> radius</text>
</g>
<!-- Node16 -->
<g id="node16" class="node"><title>Node16</title>
<g id="a_node16"><a xlink:title="STL class. ">
<polygon fill="white" stroke="#bfbfbf" points="232.5,-33.5 232.5,-52.5 327.5,-52.5 327.5,-33.5 232.5,-33.5"/>
<text text-anchor="middle" x="280" y="-40.5" font-family="FreeSans" font-size="10.00">std::deque&lt; T &gt;</text>
</a>
</g>
</g>
<!-- Node5&#45;&gt;Node16 -->
<g id="edge24" class="edge"><title>Node5&#45;&gt;Node16</title>
<path fill="none" stroke="#9a32cd" stroke-dasharray="5,2" d="M24.3977,-130.065C29.7753,-120.016 37.6884,-108.275 48,-101 103.411,-61.9086 182.629,-49.0998 232.411,-44.9422"/>
<polygon fill="#9a32cd" stroke="#9a32cd" points="21.1198,-128.801 19.8703,-139.322 27.408,-131.877 21.1198,-128.801"/>
<text text-anchor="middle" x="73" y="-104" font-family="FreeSans" font-size="10.00"> elements</text>
</g>
<!-- Node6 -->
<g id="node6" class="node"><title>Node6</title>
<g id="a_node6"><a xlink:href="classDGtal_1_1InHalfPlaneBySimple3x3Matrix.html" target="_top" xlink:title="Aim: Class that implements an orientation functor, ie. it provides a way to compute the orientation o...">
<polygon fill="white" stroke="black" points="1173.5,-279 1173.5,-309 1338.5,-309 1338.5,-279 1173.5,-279"/>
<text text-anchor="start" x="1181.5" y="-297" font-family="FreeSans" font-size="10.00">DGtal::InHalfPlaneBySimple3x3</text>
<text text-anchor="middle" x="1256" y="-286" font-family="FreeSans" font-size="10.00">Matrix&lt; TPoint, TInteger &gt;</text>
</a>
</g>
</g>
<!-- Node6&#45;&gt;Node2 -->
<g id="edge25" class="edge"><title>Node6&#45;&gt;Node2</title>
<path fill="none" stroke="#9a32cd" stroke-dasharray="5,2" d="M1348.8,-305.24C1352.58,-305.531 1356.32,-305.787 1360,-306 1412.36,-309.04 1425.68,-309.67 1478,-306 1786.04,-284.391 1866.14,-282.772 2166,-209 2182.45,-204.953 2199.97,-199.234 2215.71,-193.544"/>
<polygon fill="#9a32cd" stroke="#9a32cd" points="1348.98,-301.744 1338.73,-304.397 1348.4,-308.72 1348.98,-301.744"/>
<text text-anchor="middle" x="1743" y="-293" font-family="FreeSans" font-size="10.00"> myDefaultFunctor</text>
</g>
<!-- Node6&#45;&gt;Node3 -->
<g id="edge5" class="edge"><title>Node6&#45;&gt;Node3</title>
<path fill="none" stroke="#9a32cd" stroke-dasharray="5,2" d="M1314.81,-275.865C1375.26,-256.707 1463.38,-228.159 1478,-220 1487.09,-214.926 1487.07,-210.36 1496,-205 1508.85,-197.284 1523.72,-190.556 1537.44,-185.115"/>
<polygon fill="#9a32cd" stroke="#9a32cd" points="1313.47,-272.619 1304.99,-278.972 1315.58,-279.292 1313.47,-272.619"/>
<text text-anchor="middle" x="1419" y="-263" font-family="FreeSans" font-size="10.00"> myFunctorPtr</text>
</g>
<!-- Node6&#45;&gt;Node14 -->
<g id="edge19" class="edge"><title>Node6&#45;&gt;Node14</title>
<path fill="none" stroke="#9a32cd" stroke-dasharray="5,2" d="M1348.65,-292.727C1388.84,-290.484 1436.26,-285.527 1478,-275 1504.71,-268.264 1533.31,-255.437 1553.74,-245.196"/>
<polygon fill="#9a32cd" stroke="#9a32cd" points="1348.41,-289.235 1338.6,-293.241 1348.77,-296.226 1348.41,-289.235"/>
<text text-anchor="middle" x="1419" y="-294" font-family="FreeSans" font-size="10.00"> myFunctorPtr</text>
</g>
<!-- Node7 -->
<g id="node7" class="node"><title>Node7</title>
<g id="a_node7"><a xlink:href="classDGtal_1_1SimpleMatrix.html" target="_top" xlink:title="DGtal::SimpleMatrix\l\&lt; Integer, 3, 3 \&gt;">
<polygon fill="white" stroke="black" points="888,-263 888,-293 1000,-293 1000,-263 888,-263"/>
<text text-anchor="start" x="896" y="-281" font-family="FreeSans" font-size="10.00">DGtal::SimpleMatrix</text>
<text text-anchor="middle" x="944" y="-270" font-family="FreeSans" font-size="10.00">&lt; Integer, 3, 3 &gt;</text>
</a>
</g>
</g>
<!-- Node7&#45;&gt;Node6 -->
<g id="edge6" class="edge"><title>Node7&#45;&gt;Node6</title>
<path fill="none" stroke="#9a32cd" stroke-dasharray="5,2" d="M1010.23,-281.367C1057.74,-283.819 1122.41,-287.157 1173.34,-289.786"/>
<polygon fill="#9a32cd" stroke="#9a32cd" points="1010.23,-277.862 1000.06,-280.842 1009.87,-284.853 1010.23,-277.862"/>
<text text-anchor="middle" x="1095" y="-291" font-family="FreeSans" font-size="10.00"> myMatrix</text>
</g>
<!-- Node8 -->
<g id="node8" class="node"><title>Node8</title>
<polygon fill="white" stroke="#bfbfbf" points="354.5,-207 354.5,-237 487.5,-237 487.5,-207 354.5,-207"/>
<text text-anchor="start" x="362.5" y="-225" font-family="FreeSans" font-size="10.00">std::array&lt; Component,</text>
<text text-anchor="middle" x="421" y="-214" font-family="FreeSans" font-size="10.00"> M *N &gt;</text>
</g>
<!-- Node8&#45;&gt;Node7 -->
<g id="edge7" class="edge"><title>Node8&#45;&gt;Node7</title>
<path fill="none" stroke="#9a32cd" stroke-dasharray="5,2" d="M497.92,-220.032C564.214,-219.335 662.874,-220.77 748,-232 797.485,-238.528 852.765,-252.191 891.793,-262.939"/>
<polygon fill="#9a32cd" stroke="#9a32cd" points="497.521,-216.536 487.565,-220.161 497.608,-223.536 497.521,-216.536"/>
<text text-anchor="middle" x="679" y="-246" font-family="FreeSans" font-size="10.00"> myCofactorCoefs</text>
<text text-anchor="middle" x="679" y="-235" font-family="FreeSans" font-size="10.00">myValues</text>
</g>
<!-- Node10 -->
<g id="node10" class="node"><title>Node10</title>
<g id="a_node10"><a xlink:href="classDGtal_1_1SimpleMatrix.html" target="_top" xlink:title="Aim: implements basic MxN Matrix services (M,N&gt;=1). ">
<polygon fill="white" stroke="black" points="610,-263 610,-293 748,-293 748,-263 610,-263"/>
<text text-anchor="start" x="618" y="-281" font-family="FreeSans" font-size="10.00">DGtal::SimpleMatrix</text>
<text text-anchor="middle" x="679" y="-270" font-family="FreeSans" font-size="10.00">&lt; TComponent, TM, TN &gt;</text>
</a>
</g>
</g>
<!-- Node8&#45;&gt;Node10 -->
<g id="edge11" class="edge"><title>Node8&#45;&gt;Node10</title>
<path fill="none" stroke="#9a32cd" stroke-dasharray="5,2" d="M497.454,-238.506C533.074,-246.297 575.262,-255.526 609.896,-263.102"/>
<polygon fill="#9a32cd" stroke="#9a32cd" points="498.111,-235.067 487.594,-236.349 496.615,-241.905 498.111,-235.067"/>
<text text-anchor="middle" x="549" y="-273" font-family="FreeSans" font-size="10.00"> myCofactorCoefs</text>
<text text-anchor="middle" x="549" y="-262" font-family="FreeSans" font-size="10.00">myValues</text>
</g>
<!-- Node9&#45;&gt;Node8 -->
<g id="edge8" class="edge"><title>Node9&#45;&gt;Node8</title>
<path fill="none" stroke="orange" stroke-dasharray="5,2" d="M216.217,-215.681C256.475,-216.929 311.577,-218.638 354.333,-219.964"/>
<polygon fill="orange" stroke="orange" points="216.162,-212.178 206.059,-215.366 215.945,-219.175 216.162,-212.178"/>
<text text-anchor="middle" x="280" y="-223" font-family="FreeSans" font-size="10.00"> &lt; Component, M *N &gt;</text>
</g>
<!-- Node10&#45;&gt;Node7 -->
<g id="edge10" class="edge"><title>Node10&#45;&gt;Node7</title>
<path fill="none" stroke="orange" stroke-dasharray="5,2" d="M758.182,-278C799.815,-278 850.031,-278 887.605,-278"/>
<polygon fill="orange" stroke="orange" points="758.071,-274.5 748.071,-278 758.071,-281.5 758.071,-274.5"/>
<text text-anchor="middle" x="808" y="-281" font-family="FreeSans" font-size="10.00"> &lt; Integer, 3, 3 &gt;</text>
</g>
<!-- Node11&#45;&gt;Node3 -->
<g id="edge12" class="edge"><title>Node11&#45;&gt;Node3</title>
<path fill="none" stroke="orange" stroke-dasharray="5,2" d="M1352.28,-171.099C1354.88,-171.064 1357.46,-171.03 1360,-171 1405.19,-170.46 1455.55,-170.204 1496.87,-170.087"/>
<polygon fill="orange" stroke="orange" points="1352.1,-167.601 1342.15,-171.247 1352.2,-174.601 1352.1,-167.601"/>
<text text-anchor="middle" x="1419" y="-174" font-family="FreeSans" font-size="10.00"> &lt; Functor, true, false &gt;</text>
</g>
<!-- Node11&#45;&gt;Node14 -->
<g id="edge20" class="edge"><title>Node11&#45;&gt;Node14</title>
<path fill="none" stroke="orange" stroke-dasharray="5,2" d="M1352.36,-184.852C1391.44,-190.216 1437.02,-197.126 1478,-205 1492.86,-207.856 1508.8,-211.427 1523.63,-214.969"/>
<polygon fill="orange" stroke="orange" points="1352.43,-181.329 1342.05,-183.451 1351.49,-188.265 1352.43,-181.329"/>
<text text-anchor="middle" x="1419" y="-208" font-family="FreeSans" font-size="10.00"> &lt; Functor, false, false &gt;</text>
</g>
<!-- Node12&#45;&gt;Node11 -->
<g id="edge14" class="edge"><title>Node12&#45;&gt;Node11</title>
<path fill="none" stroke="#9a32cd" stroke-dasharray="5,2" d="M997.764,-115.744C1044.86,-126.227 1114.69,-141.77 1169.72,-154.017"/>
<polygon fill="#9a32cd" stroke="#9a32cd" points="998.3,-112.278 987.779,-113.522 996.779,-119.111 998.3,-112.278"/>
<text text-anchor="middle" x="1095" y="-152" font-family="FreeSans" font-size="10.00"> myFunctorPtr</text>
</g>
<!-- Node13 -->
<g id="node13" class="node"><title>Node13</title>
<polygon fill="white" stroke="#bfbfbf" points="648,-68.5 648,-87.5 710,-87.5 710,-68.5 648,-68.5"/>
<text text-anchor="middle" x="679" y="-75.5" font-family="FreeSans" font-size="10.00">MyPointD</text>
</g>
<!-- Node13&#45;&gt;Node12 -->
<g id="edge15" class="edge"><title>Node13&#45;&gt;Node12</title>
<path fill="none" stroke="#9a32cd" stroke-dasharray="5,2" d="M720.167,-81.9709C765.259,-86.4287 838.662,-93.6852 888.808,-98.6426"/>
<polygon fill="#9a32cd" stroke="#9a32cd" points="720.465,-78.4834 710.169,-80.9825 719.777,-85.4494 720.465,-78.4834"/>
<text text-anchor="middle" x="808" y="-98" font-family="FreeSans" font-size="10.00"> center</text>
</g>
<!-- Node15 -->
<g id="node15" class="node"><title>Node15</title>
<polygon fill="white" stroke="#bfbfbf" points="1038,-36.5 1038,-55.5 1152,-55.5 1152,-36.5 1038,-36.5"/>
<text text-anchor="middle" x="1095" y="-43.5" font-family="FreeSans" font-size="10.00">std::deque&lt; Point &gt;</text>
</g>
<!-- Node13&#45;&gt;Node15 -->
<g id="edge22" class="edge"><title>Node13&#45;&gt;Node15</title>
<path fill="none" stroke="#9a32cd" stroke-dasharray="5,2" d="M720.436,-74.8745C794.697,-69.1345 952.944,-56.9029 1037.68,-50.3533"/>
<polygon fill="#9a32cd" stroke="#9a32cd" points="719.808,-71.4125 710.107,-75.6729 720.347,-78.3917 719.808,-71.4125"/>
<text text-anchor="middle" x="808" y="-75" font-family="FreeSans" font-size="10.00"> elements</text>
</g>
<!-- Node14&#45;&gt;Node2 -->
<g id="edge17" class="edge"><title>Node14&#45;&gt;Node2</title>
<path fill="none" stroke="#9a32cd" stroke-dasharray="5,2" d="M1680.21,-225.086C1795.78,-218.677 1995.44,-205.992 2166,-187 2171.81,-186.354 2177.79,-185.641 2183.82,-184.89"/>
<polygon fill="#9a32cd" stroke="#9a32cd" points="1679.77,-221.605 1669.98,-225.649 1680.15,-228.594 1679.77,-221.605"/>
<text text-anchor="middle" x="1900" y="-220" font-family="FreeSans" font-size="10.00"> myBackwardPredicate</text>
</g>
<!-- Node14&#45;&gt;Node17 -->
<g id="edge29" class="edge"><title>Node14&#45;&gt;Node17</title>
<path fill="none" stroke="#9a32cd" stroke-dasharray="5,2" d="M1658.44,-212.299C1700.51,-200.926 1753.45,-184.286 1798,-163 1806.68,-158.855 1807.51,-155.511 1816,-151 1829.2,-143.986 1844.17,-137.451 1857.73,-132.022"/>
<polygon fill="#9a32cd" stroke="#9a32cd" points="1657.3,-208.979 1648.54,-214.932 1659.1,-215.744 1657.3,-208.979"/>
<text text-anchor="middle" x="1743" y="-207" font-family="FreeSans" font-size="10.00"> myBackwardPredicate</text>
</g>
<!-- Node15&#45;&gt;Node2 -->
<g id="edge21" class="edge"><title>Node15&#45;&gt;Node2</title>
<path fill="none" stroke="#9a32cd" stroke-dasharray="5,2" d="M1146.48,-34.2625C1209.61,-20.6338 1321.18,-0 1418,-0 1418,-0 1418,-0 1901,-0 2042.27,-0 2187.33,-106.649 2243.14,-152.475"/>
<polygon fill="#9a32cd" stroke="#9a32cd" points="1145.42,-30.9119 1136.4,-36.4688 1146.92,-37.7501 1145.42,-30.9119"/>
<text text-anchor="middle" x="1583" y="-3" font-family="FreeSans" font-size="10.00"> myContainer</text>
</g>
<!-- Node15&#45;&gt;Node17 -->
<g id="edge30" class="edge"><title>Node15&#45;&gt;Node17</title>
<path fill="none" stroke="#9a32cd" stroke-dasharray="5,2" d="M1162.22,-51.6693C1269.06,-60.8395 1486.13,-79.5612 1670,-96 1718.31,-100.32 1772.35,-105.269 1815.8,-109.278"/>
<polygon fill="#9a32cd" stroke="#9a32cd" points="1162.49,-48.1798 1152.23,-50.812 1161.89,-55.1542 1162.49,-48.1798"/>
<text text-anchor="middle" x="1419" y="-82" font-family="FreeSans" font-size="10.00"> myContainer</text>
</g>
<!-- Node16&#45;&gt;Node15 -->
<g id="edge23" class="edge"><title>Node16&#45;&gt;Node15</title>
<path fill="none" stroke="orange" stroke-dasharray="5,2" d="M337.944,-43.2101C487.345,-43.7614 889.252,-45.2445 1037.81,-45.7926"/>
<polygon fill="orange" stroke="orange" points="337.643,-39.7091 327.63,-43.1721 337.617,-46.709 337.643,-39.7091"/>
<text text-anchor="middle" x="679" y="-48" font-family="FreeSans" font-size="10.00"> &lt; Point &gt;</text>
</g>
<!-- Node17&#45;&gt;Node2 -->
<g id="edge26" class="edge"><title>Node17&#45;&gt;Node2</title>
<path fill="none" stroke="orange" stroke-dasharray="5,2" d="M1994.22,-117.973C2045.4,-120.018 2109.72,-125.072 2166,-137 2183.21,-140.648 2201.48,-146.508 2217.67,-152.45"/>
<polygon fill="orange" stroke="orange" points="1994.29,-114.473 1984.17,-117.603 1994.03,-121.468 1994.29,-114.473"/>
<text text-anchor="start" x="2002.5" y="-151" font-family="FreeSans" font-size="10.00"> &lt; InputPoint, DGtal</text>
<text text-anchor="middle" x="2084" y="-140" font-family="FreeSans" font-size="10.00">::InHalfPlaneBySimple3x3Matrix &gt;</text>
</g>
<!-- Node18 -->
<g id="node18" class="node"><title>Node18</title>
<polygon fill="white" stroke="#bfbfbf" points="1528,-29.5 1528,-48.5 1638,-48.5 1638,-29.5 1528,-29.5"/>
<text text-anchor="middle" x="1583" y="-36.5" font-family="FreeSans" font-size="10.00">TOrientationFunctor</text>
</g>
<!-- Node18&#45;&gt;Node17 -->
<g id="edge27" class="edge"><title>Node18&#45;&gt;Node17</title>
<path fill="none" stroke="#9a32cd" stroke-dasharray="5,2" d="M1648.3,-34.5353C1691.64,-33.532 1749.53,-36.1388 1798,-52 1830.5,-62.6358 1862.81,-86.3205 1881.84,-101.97"/>
<polygon fill="#9a32cd" stroke="#9a32cd" points="1648.06,-31.0408 1638.17,-34.8412 1648.27,-38.0377 1648.06,-31.0408"/>
<text text-anchor="middle" x="1743" y="-55" font-family="FreeSans" font-size="10.00"> myDefaultFunctor</text>
</g>
<!-- Node19 -->
<g id="node19" class="node"><title>Node19</title>
<polygon fill="white" stroke="#bfbfbf" points="1560,-105.5 1560,-124.5 1606,-124.5 1606,-105.5 1560,-105.5"/>
<text text-anchor="middle" x="1583" y="-112.5" font-family="FreeSans" font-size="10.00">TPoint</text>
</g>
<!-- Node19&#45;&gt;Node17 -->
<g id="edge31" class="edge"><title>Node19&#45;&gt;Node17</title>
<path fill="none" stroke="#9a32cd" stroke-dasharray="5,2" d="M1616.34,-114.456C1658.24,-113.842 1733.58,-113.044 1798,-114 1803.79,-114.086 1809.76,-114.2 1815.78,-114.332"/>
<polygon fill="#9a32cd" stroke="#9a32cd" points="1616.13,-110.959 1606.18,-114.611 1616.23,-117.958 1616.13,-110.959"/>
<text text-anchor="middle" x="1743" y="-117" font-family="FreeSans" font-size="10.00"> myFirstPoint</text>
</g>
</g>
</svg>
