<?xml version="1.0" encoding="UTF-8" standalone="no"?>
<!DOCTYPE svg PUBLIC "-//W3C//DTD SVG 1.1//EN"
 "http://www.w3.org/Graphics/SVG/1.1/DTD/svg11.dtd">
<!-- Generated by graphviz version 2.38.0 (20140413.2041)
 -->
<!-- Title: DGtal::functors::IsWithinPointPredicate&lt; TPoint &gt; Pages: 1 -->
<svg width="154pt" height="117pt"
 viewBox="0.00 0.00 153.50 117.00" xmlns="http://www.w3.org/2000/svg" xmlns:xlink="http://www.w3.org/1999/xlink">
<g id="graph0" class="graph" transform="scale(1 1) rotate(0) translate(4 113)">
<title>DGtal::functors::IsWithinPointPredicate&lt; TPoint &gt;</title>
<polygon fill="white" stroke="none" points="-4,4 -4,-113 149.5,-113 149.5,4 -4,4"/>
<!-- Node2 -->
<g id="node1" class="node"><title>Node2</title>
<polygon fill="#bfbfbf" stroke="black" points="0,-0.5 0,-30.5 137,-30.5 137,-0.5 0,-0.5"/>
<text text-anchor="start" x="8" y="-18.5" font-family="FreeSans" font-size="10.00">DGtal::functors::IsWithin</text>
<text text-anchor="middle" x="68.5" y="-7.5" font-family="FreeSans" font-size="10.00">PointPredicate&lt; TPoint &gt;</text>
</g>
<!-- Node3 -->
<g id="node2" class="node"><title>Node3</title>
<polygon fill="white" stroke="#bfbfbf" points="45.5,-89.5 45.5,-108.5 91.5,-108.5 91.5,-89.5 45.5,-89.5"/>
<text text-anchor="middle" x="68.5" y="-96.5" font-family="FreeSans" font-size="10.00">TPoint</text>
</g>
<!-- Node3&#45;&gt;Node2 -->
<g id="edge1" class="edge"><title>Node3&#45;&gt;Node2</title>
<path fill="none" stroke="#9a32cd" stroke-dasharray="5,2" d="M68.5,-79.229C68.5,-64.4075 68.5,-44.0505 68.5,-30.5974"/>
<polygon fill="#9a32cd" stroke="#9a32cd" points="65.0001,-79.278 68.5,-89.2781 72.0001,-79.2781 65.0001,-79.278"/>
<text text-anchor="middle" x="107" y="-63" font-family="FreeSans" font-size="10.00"> myLowerBound</text>
<text text-anchor="middle" x="107" y="-52" font-family="FreeSans" font-size="10.00">myUpperBound</text>
</g>
</g>
</svg>
