<?xml version="1.0" encoding="UTF-8" standalone="no"?>
<!DOCTYPE svg PUBLIC "-//W3C//DTD SVG 1.1//EN"
 "http://www.w3.org/Graphics/SVG/1.1/DTD/svg11.dtd">
<!-- Generated by graphviz version 2.36.0 (20140111.2315)
 -->
<!-- Title: DGtal::UnorderedSetByBlock&lt; Key, TSplitter, Hash, KeyEqual, UnorderedMapAllocator &gt; Pages: 1 -->
<svg width="263pt" height="298pt"
 viewBox="0.00 0.00 263.00 298.00" xmlns="http://www.w3.org/2000/svg" xmlns:xlink="http://www.w3.org/1999/xlink">
<g id="graph0" class="graph" transform="scale(1 1) rotate(0) translate(4 294)">
<title>DGtal::UnorderedSetByBlock&lt; Key, TSplitter, Hash, KeyEqual, UnorderedMapAllocator &gt;</title>
<polygon fill="white" stroke="none" points="-4,4 -4,-294 259,-294 259,4 -4,4"/>
<!-- Node2 -->
<g id="node1" class="node"><title>Node2</title>
<polygon fill="#bfbfbf" stroke="black" points="59.5,-0.5 59.5,-41.5 252.5,-41.5 252.5,-0.5 59.5,-0.5"/>
<text text-anchor="start" x="67.5" y="-29.5" font-family="FreeSans" font-size="10.00">DGtal::UnorderedSetByBlock</text>
<text text-anchor="start" x="67.5" y="-18.5" font-family="FreeSans" font-size="10.00">&lt; Key, TSplitter, Hash,</text>
<text text-anchor="middle" x="156" y="-7.5" font-family="FreeSans" font-size="10.00"> KeyEqual, UnorderedMapAllocator &gt;</text>
</g>
<!-- Node3 -->
<g id="node2" class="node"><title>Node3</title>
<polygon fill="white" stroke="#bfbfbf" points="0,-90.5 0,-131.5 156,-131.5 156,-90.5 0,-90.5"/>
<text text-anchor="start" x="8" y="-119.5" font-family="FreeSans" font-size="10.00">std::unordered_map</text>
<text text-anchor="start" x="8" y="-108.5" font-family="FreeSans" font-size="10.00">&lt; Key, Word, Hash, KeyEqual,</text>
<text text-anchor="middle" x="78" y="-97.5" font-family="FreeSans" font-size="10.00"> UnorderedMapAllocator &gt;</text>
</g>
<!-- Node3&#45;&gt;Node2 -->
<g id="edge1" class="edge"><title>Node3&#45;&gt;Node2</title>
<path fill="none" stroke="#9a32cd" stroke-dasharray="5,2" d="M89.7244,-80.6257C93.3606,-73.45 97.804,-66.0918 103,-60 108.804,-53.1948 116.074,-46.971 123.351,-41.6177"/>
<polygon fill="#9a32cd" stroke="#9a32cd" points="86.3313,-79.6198 85.2713,-90.1615 92.6738,-82.5817 86.3313,-79.6198"/>
<text text-anchor="middle" x="137.5" y="-63.5" font-family="FreeSans" font-size="10.00"> my_elements</text>
</g>
<!-- Node4 -->
<g id="node3" class="node"><title>Node4</title>
<g id="a_node3"><a xlink:title="STL class. ">
<polygon fill="white" stroke="#bfbfbf" points="21,-191 21,-221 135,-221 135,-191 21,-191"/>
<text text-anchor="start" x="29" y="-209" font-family="FreeSans" font-size="10.00">std::unordered_map</text>
<text text-anchor="middle" x="78" y="-198" font-family="FreeSans" font-size="10.00">&lt; K, T &gt;</text>
</a>
</g>
</g>
<!-- Node4&#45;&gt;Node3 -->
<g id="edge2" class="edge"><title>Node4&#45;&gt;Node3</title>
<path fill="none" stroke="orange" stroke-dasharray="5,2" d="M78,-180.651C78,-165.426 78,-146.066 78,-131.789"/>
<polygon fill="orange" stroke="orange" points="74.5001,-180.875 78,-190.875 81.5001,-180.875 74.5001,-180.875"/>
<text text-anchor="start" x="78" y="-164" font-family="FreeSans" font-size="10.00"> &lt; Key, Word, Hash,</text>
<text text-anchor="middle" x="166.5" y="-153" font-family="FreeSans" font-size="10.00"> KeyEqual, UnorderedMapAllocator &gt;</text>
</g>
<!-- Node5 -->
<g id="node4" class="node"><title>Node5</title>
<polygon fill="white" stroke="#bfbfbf" points="39.5,-270.5 39.5,-289.5 68.5,-289.5 68.5,-270.5 39.5,-270.5"/>
<text text-anchor="middle" x="54" y="-277.5" font-family="FreeSans" font-size="10.00">K</text>
</g>
<!-- Node5&#45;&gt;Node4 -->
<g id="edge3" class="edge"><title>Node5&#45;&gt;Node4</title>
<path fill="none" stroke="#9a32cd" stroke-dasharray="5,2" d="M52.3082,-260.36C52.2738,-253.785 52.889,-246.431 55,-240 57.2215,-233.232 61.324,-226.619 65.456,-221.111"/>
<polygon fill="#9a32cd" stroke="#9a32cd" points="48.8152,-260.587 52.8301,-270.392 55.8057,-260.223 48.8152,-260.587"/>
<text text-anchor="middle" x="67.5" y="-243.5" font-family="FreeSans" font-size="10.00"> keys</text>
</g>
<!-- Node6 -->
<g id="node5" class="node"><title>Node6</title>
<polygon fill="white" stroke="#bfbfbf" points="87.5,-270.5 87.5,-289.5 116.5,-289.5 116.5,-270.5 87.5,-270.5"/>
<text text-anchor="middle" x="102" y="-277.5" font-family="FreeSans" font-size="10.00">T</text>
</g>
<!-- Node6&#45;&gt;Node4 -->
<g id="edge4" class="edge"><title>Node6&#45;&gt;Node4</title>
<path fill="none" stroke="#9a32cd" stroke-dasharray="5,2" d="M95.9443,-260.833C91.8528,-248.558 86.5277,-232.583 82.7439,-221.232"/>
<polygon fill="#9a32cd" stroke="#9a32cd" points="92.6699,-262.078 99.1526,-270.458 99.3107,-259.864 92.6699,-262.078"/>
<text text-anchor="middle" x="117.5" y="-243.5" font-family="FreeSans" font-size="10.00"> elements</text>
</g>
<!-- Node7 -->
<g id="node6" class="node"><title>Node7</title>
<polygon fill="white" stroke="#bfbfbf" points="174,-101.5 174,-120.5 230,-120.5 230,-101.5 174,-101.5"/>
<text text-anchor="middle" x="202" y="-108.5" font-family="FreeSans" font-size="10.00">TSplitter</text>
</g>
<!-- Node7&#45;&gt;Node2 -->
<g id="edge5" class="edge"><title>Node7&#45;&gt;Node2</title>
<path fill="none" stroke="#9a32cd" stroke-dasharray="5,2" d="M192.693,-92.1962C185.017,-77.5101 174.139,-56.7009 166.221,-41.554"/>
<polygon fill="#9a32cd" stroke="#9a32cd" points="189.687,-93.9996 197.421,-101.241 195.89,-90.7568 189.687,-93.9996"/>
<text text-anchor="middle" x="209.5" y="-63.5" font-family="FreeSans" font-size="10.00"> my_splitter</text>
</g>
</g>
</svg>
