<?xml version="1.0" encoding="UTF-8" standalone="no"?>
<!DOCTYPE svg PUBLIC "-//W3C//DTD SVG 1.1//EN"
 "http://www.w3.org/Graphics/SVG/1.1/DTD/svg11.dtd">
<!-- Generated by graphviz version 2.38.0 (20140413.2041)
 -->
<!-- Title: DGtal::concepts::COrientationFunctor&lt; T &gt; Pages: 1 -->
<svg width="287pt" height="434pt"
 viewBox="0.00 0.00 286.50 434.00" xmlns="http://www.w3.org/2000/svg" xmlns:xlink="http://www.w3.org/1999/xlink">
<g id="graph0" class="graph" transform="scale(1 1) rotate(0) translate(4 430)">
<title>DGtal::concepts::COrientationFunctor&lt; T &gt;</title>
<polygon fill="white" stroke="none" points="-4,4 -4,-430 282.5,-430 282.5,4 -4,4"/>
<!-- Node0 -->
<g id="node1" class="node"><title>Node0</title>
<polygon fill="#bfbfbf" stroke="black" points="17,-68.5 17,-98.5 176,-98.5 176,-68.5 17,-68.5"/>
<text text-anchor="start" x="25" y="-86.5" font-family="FreeSans" font-size="10.00">DGtal::concepts::COrientation</text>
<text text-anchor="middle" x="96.5" y="-75.5" font-family="FreeSans" font-size="10.00">Functor&lt; T &gt;</text>
</g>
<!-- Node6 -->
<g id="node7" class="node"><title>Node6</title>
<g id="a_node7"><a xlink:href="structDGtal_1_1concepts_1_1COrientationFunctor2.html" target="_top" xlink:title="Aim: This concept is a refinement of COrientationFunctor, useful for simple algebraic curves that can...">
<polygon fill="white" stroke="black" points="17,-0.5 17,-30.5 176,-30.5 176,-0.5 17,-0.5"/>
<text text-anchor="start" x="25" y="-18.5" font-family="FreeSans" font-size="10.00">DGtal::concepts::COrientation</text>
<text text-anchor="middle" x="96.5" y="-7.5" font-family="FreeSans" font-size="10.00">Functor2&lt; T &gt;</text>
</a>
</g>
</g>
<!-- Node0&#45;&gt;Node6 -->
<g id="edge7" class="edge"><title>Node0&#45;&gt;Node6</title>
<path fill="none" stroke="midnightblue" d="M96.5,-58.0322C96.5,-48.8606 96.5,-38.7449 96.5,-30.7931"/>
<polygon fill="midnightblue" stroke="midnightblue" points="93.0001,-58.1789 96.5,-68.179 100,-58.179 93.0001,-58.1789"/>
</g>
<!-- Node1 -->
<g id="node2" class="node"><title>Node1</title>
<g id="a_node2"><a xlink:href="structDGtal_1_1concepts_1_1CPointFunctor.html" target="_top" xlink:title="Aim: Defines a functor on points. ">
<polygon fill="white" stroke="black" points="0,-136.5 0,-155.5 193,-155.5 193,-136.5 0,-136.5"/>
<text text-anchor="middle" x="96.5" y="-143.5" font-family="FreeSans" font-size="10.00">DGtal::concepts::CPointFunctor&lt; T &gt;</text>
</a>
</g>
</g>
<!-- Node1&#45;&gt;Node0 -->
<g id="edge1" class="edge"><title>Node1&#45;&gt;Node0</title>
<path fill="none" stroke="midnightblue" d="M96.5,-126.215C96.5,-117.356 96.5,-106.958 96.5,-98.7587"/>
<polygon fill="midnightblue" stroke="midnightblue" points="93.0001,-126.332 96.5,-136.332 100,-126.332 93.0001,-126.332"/>
</g>
<!-- Node2 -->
<g id="node3" class="node"><title>Node2</title>
<g id="a_node3"><a xlink:href="structDGtal_1_1concepts_1_1CUnaryFunctor.html" target="_top" xlink:title="DGtal::concepts::CUnaryFunctor\l\&lt; T, T::Point, T::Value \&gt;">
<polygon fill="white" stroke="black" points="11.5,-193.5 11.5,-223.5 181.5,-223.5 181.5,-193.5 11.5,-193.5"/>
<text text-anchor="start" x="19.5" y="-211.5" font-family="FreeSans" font-size="10.00">DGtal::concepts::CUnaryFunctor</text>
<text text-anchor="middle" x="96.5" y="-200.5" font-family="FreeSans" font-size="10.00">&lt; T, T::Point, T::Value &gt;</text>
</a>
</g>
</g>
<!-- Node2&#45;&gt;Node1 -->
<g id="edge2" class="edge"><title>Node2&#45;&gt;Node1</title>
<path fill="none" stroke="midnightblue" d="M96.5,-183.352C96.5,-173.513 96.5,-162.775 96.5,-155.54"/>
<polygon fill="midnightblue" stroke="midnightblue" points="93.0001,-183.468 96.5,-193.468 100,-183.468 93.0001,-183.468"/>
</g>
<!-- Node3 -->
<g id="node4" class="node"><title>Node3</title>
<g id="a_node4"><a xlink:href="structboost_1_1Assignable.html" target="_top" xlink:title="Go to http://www.sgi.com/tech/stl/Assignable.html. ">
<polygon fill="white" stroke="black" points="48,-406.5 48,-425.5 177,-425.5 177,-406.5 48,-406.5"/>
<text text-anchor="middle" x="112.5" y="-413.5" font-family="FreeSans" font-size="10.00">boost::Assignable&lt; T &gt;</text>
</a>
</g>
</g>
<!-- Node3&#45;&gt;Node2 -->
<g id="edge3" class="edge"><title>Node3&#45;&gt;Node2</title>
<path fill="none" stroke="midnightblue" d="M109.566,-396.278C107.928,-385.413 105.935,-371.455 104.5,-359 101.59,-333.736 101.024,-327.385 99.5,-302 97.8344,-274.253 97.0499,-241.765 96.7163,-223.615"/>
<polygon fill="midnightblue" stroke="midnightblue" points="106.126,-396.937 111.106,-406.289 113.045,-395.873 106.126,-396.937"/>
</g>
<!-- Node5 -->
<g id="node6" class="node"><title>Node5</title>
<g id="a_node6"><a xlink:href="structboost_1_1Assignable.html" target="_top" xlink:title="boost::Assignable\&lt; X \&gt;">
<polygon fill="white" stroke="black" points="113.5,-339.5 113.5,-358.5 243.5,-358.5 243.5,-339.5 113.5,-339.5"/>
<text text-anchor="middle" x="178.5" y="-346.5" font-family="FreeSans" font-size="10.00">boost::Assignable&lt; X &gt;</text>
</a>
</g>
</g>
<!-- Node3&#45;&gt;Node5 -->
<g id="edge6" class="edge"><title>Node3&#45;&gt;Node5</title>
<path fill="none" stroke="orange" stroke-dasharray="5,2" d="M128.749,-398.997C141.693,-386.25 159.315,-368.895 169.74,-358.627"/>
<polygon fill="orange" stroke="orange" points="126.07,-396.723 121.401,-406.234 130.982,-401.711 126.07,-396.723"/>
<text text-anchor="middle" x="164.5" y="-380" font-family="FreeSans" font-size="10.00"> &lt; X &gt;</text>
</g>
<!-- Node4 -->
<g id="node5" class="node"><title>Node4</title>
<g id="a_node5"><a xlink:href="structDGtal_1_1concepts_1_1CUnaryFunctor.html" target="_top" xlink:title="Aim: Defines a unary functor, which associates arguments to results. ">
<polygon fill="white" stroke="black" points="108.5,-271.5 108.5,-301.5 278.5,-301.5 278.5,-271.5 108.5,-271.5"/>
<text text-anchor="start" x="116.5" y="-289.5" font-family="FreeSans" font-size="10.00">DGtal::concepts::CUnaryFunctor</text>
<text text-anchor="middle" x="193.5" y="-278.5" font-family="FreeSans" font-size="10.00">&lt; X, A, R &gt;</text>
</a>
</g>
</g>
<!-- Node4&#45;&gt;Node2 -->
<g id="edge4" class="edge"><title>Node4&#45;&gt;Node2</title>
<path fill="none" stroke="orange" stroke-dasharray="5,2" d="M167.021,-264.753C150.403,-251.734 129.408,-235.284 114.663,-223.731"/>
<polygon fill="orange" stroke="orange" points="165.225,-267.793 175.255,-271.205 169.542,-262.282 165.225,-267.793"/>
<text text-anchor="middle" x="208" y="-245" font-family="FreeSans" font-size="10.00"> &lt; T, T::Point, T::Value &gt;</text>
</g>
<!-- Node5&#45;&gt;Node4 -->
<g id="edge5" class="edge"><title>Node5&#45;&gt;Node4</title>
<path fill="none" stroke="midnightblue" d="M183.084,-329.51C185.296,-320.588 187.909,-310.049 189.965,-301.759"/>
<polygon fill="midnightblue" stroke="midnightblue" points="179.659,-328.783 180.649,-339.332 186.453,-330.468 179.659,-328.783"/>
</g>
</g>
</svg>
