<?xml version="1.0" encoding="UTF-8" standalone="no"?>
<!DOCTYPE svg PUBLIC "-//W3C//DTD SVG 1.1//EN"
 "http://www.w3.org/Graphics/SVG/1.1/DTD/svg11.dtd">
<!-- Generated by graphviz version 2.38.0 (20140413.2041)
 -->
<!-- Title: DGtal::UnorderedSetAssociativeCategory Pages: 1 -->
<svg width="729pt" height="137pt"
 viewBox="0.00 0.00 729.00 137.00" xmlns="http://www.w3.org/2000/svg" xmlns:xlink="http://www.w3.org/1999/xlink">
<g id="graph0" class="graph" transform="scale(1 1) rotate(0) translate(4 133)">
<title>DGtal::UnorderedSetAssociativeCategory</title>
<polygon fill="white" stroke="none" points="-4,4 -4,-133 725,-133 725,4 -4,4"/>
<!-- Node6 -->
<g id="node1" class="node"><title>Node6</title>
<polygon fill="#bfbfbf" stroke="black" points="550,-49.5 550,-79.5 721,-79.5 721,-49.5 550,-49.5"/>
<text text-anchor="start" x="558" y="-67.5" font-family="FreeSans" font-size="10.00">DGtal::UnorderedSetAssociative</text>
<text text-anchor="middle" x="635.5" y="-56.5" font-family="FreeSans" font-size="10.00">Category</text>
</g>
<!-- Node7 -->
<g id="node2" class="node"><title>Node7</title>
<g id="a_node2"><a xlink:href="structDGtal_1_1UnorderedAssociativeCategory.html" target="_top" xlink:title="DGtal::UnorderedAssociative\lCategory">
<polygon fill="white" stroke="black" points="359,-98.5 359,-128.5 514,-128.5 514,-98.5 359,-98.5"/>
<text text-anchor="start" x="367" y="-116.5" font-family="FreeSans" font-size="10.00">DGtal::UnorderedAssociative</text>
<text text-anchor="middle" x="436.5" y="-105.5" font-family="FreeSans" font-size="10.00">Category</text>
</a>
</g>
</g>
<!-- Node7&#45;&gt;Node6 -->
<g id="edge1" class="edge"><title>Node7&#45;&gt;Node6</title>
<path fill="none" stroke="midnightblue" d="M507.764,-96.0232C529.477,-90.6225 553.189,-84.7245 574.169,-79.5062"/>
<polygon fill="midnightblue" stroke="midnightblue" points="506.805,-92.655 497.945,-98.4654 508.494,-99.4481 506.805,-92.655"/>
</g>
<!-- Node8 -->
<g id="node3" class="node"><title>Node8</title>
<g id="a_node3"><a xlink:href="structDGtal_1_1AssociativeCategory.html" target="_top" xlink:title="DGtal::AssociativeCategory">
<polygon fill="white" stroke="black" points="176,-55 176,-74 323,-74 323,-55 176,-55"/>
<text text-anchor="middle" x="249.5" y="-62" font-family="FreeSans" font-size="10.00">DGtal::AssociativeCategory</text>
</a>
</g>
</g>
<!-- Node8&#45;&gt;Node7 -->
<g id="edge2" class="edge"><title>Node8&#45;&gt;Node7</title>
<path fill="none" stroke="midnightblue" d="M296.522,-76.6896C321.407,-83.2808 352.356,-91.4782 378.728,-98.463"/>
<polygon fill="midnightblue" stroke="midnightblue" points="297.172,-73.2411 286.609,-74.064 295.38,-80.0078 297.172,-73.2411"/>
</g>
<!-- Node10 -->
<g id="node5" class="node"><title>Node10</title>
<g id="a_node5"><a xlink:href="structDGtal_1_1SimpleAssociativeCategory.html" target="_top" xlink:title="DGtal::SimpleAssociative\lCategory">
<polygon fill="white" stroke="black" points="368,-49.5 368,-79.5 505,-79.5 505,-49.5 368,-49.5"/>
<text text-anchor="start" x="376" y="-67.5" font-family="FreeSans" font-size="10.00">DGtal::SimpleAssociative</text>
<text text-anchor="middle" x="436.5" y="-56.5" font-family="FreeSans" font-size="10.00">Category</text>
</a>
</g>
</g>
<!-- Node8&#45;&gt;Node10 -->
<g id="edge5" class="edge"><title>Node8&#45;&gt;Node10</title>
<path fill="none" stroke="midnightblue" d="M333.222,-64.5C344.839,-64.5 356.663,-64.5 367.952,-64.5"/>
<polygon fill="midnightblue" stroke="midnightblue" points="333.086,-61.0001 323.086,-64.5 333.086,-68.0001 333.086,-61.0001"/>
</g>
<!-- Node11 -->
<g id="node6" class="node"><title>Node11</title>
<g id="a_node6"><a xlink:href="structDGtal_1_1UniqueAssociativeCategory.html" target="_top" xlink:title="DGtal::UniqueAssociative\lCategory">
<polygon fill="white" stroke="black" points="368,-0.5 368,-30.5 505,-30.5 505,-0.5 368,-0.5"/>
<text text-anchor="start" x="376" y="-18.5" font-family="FreeSans" font-size="10.00">DGtal::UniqueAssociative</text>
<text text-anchor="middle" x="436.5" y="-7.5" font-family="FreeSans" font-size="10.00">Category</text>
</a>
</g>
</g>
<!-- Node8&#45;&gt;Node11 -->
<g id="edge7" class="edge"><title>Node8&#45;&gt;Node11</title>
<path fill="none" stroke="midnightblue" d="M296.522,-52.3104C321.407,-45.7192 352.356,-37.5218 378.728,-30.537"/>
<polygon fill="midnightblue" stroke="midnightblue" points="295.38,-48.9922 286.609,-54.936 297.172,-55.7589 295.38,-48.9922"/>
</g>
<!-- Node9 -->
<g id="node4" class="node"><title>Node9</title>
<g id="a_node4"><a xlink:href="structDGtal_1_1ContainerCategory.html" target="_top" xlink:title="DGtal::ContainerCategory">
<polygon fill="white" stroke="black" points="0,-55 0,-74 140,-74 140,-55 0,-55"/>
<text text-anchor="middle" x="70" y="-62" font-family="FreeSans" font-size="10.00">DGtal::ContainerCategory</text>
</a>
</g>
</g>
<!-- Node9&#45;&gt;Node8 -->
<g id="edge3" class="edge"><title>Node9&#45;&gt;Node8</title>
<path fill="none" stroke="midnightblue" d="M150.363,-64.5C158.812,-64.5 167.376,-64.5 175.744,-64.5"/>
<polygon fill="midnightblue" stroke="midnightblue" points="150.134,-61.0001 140.134,-64.5 150.134,-68.0001 150.134,-61.0001"/>
</g>
<!-- Node10&#45;&gt;Node6 -->
<g id="edge4" class="edge"><title>Node10&#45;&gt;Node6</title>
<path fill="none" stroke="midnightblue" d="M515.267,-64.5C526.56,-64.5 538.233,-64.5 549.657,-64.5"/>
<polygon fill="midnightblue" stroke="midnightblue" points="515.021,-61.0001 505.021,-64.5 515.021,-68.0001 515.021,-61.0001"/>
</g>
<!-- Node11&#45;&gt;Node6 -->
<g id="edge6" class="edge"><title>Node11&#45;&gt;Node6</title>
<path fill="none" stroke="midnightblue" d="M507.764,-32.9768C529.477,-38.3775 553.189,-44.2755 574.169,-49.4938"/>
<polygon fill="midnightblue" stroke="midnightblue" points="508.494,-29.5519 497.945,-30.5346 506.805,-36.345 508.494,-29.5519"/>
</g>
</g>
</svg>
