<?xml version="1.0" encoding="UTF-8" standalone="no"?>
<!DOCTYPE svg PUBLIC "-//W3C//DTD SVG 1.1//EN"
 "http://www.w3.org/Graphics/SVG/1.1/DTD/svg11.dtd">
<!-- Generated by graphviz version 2.38.0 (20140413.2041)
 -->
<!-- Title: DGtal::concepts::CTrivialImage&lt; I &gt; Pages: 1 -->
<svg width="2006pt" height="110pt"
 viewBox="0.00 0.00 2006.00 109.50" xmlns="http://www.w3.org/2000/svg" xmlns:xlink="http://www.w3.org/1999/xlink">
<g id="graph0" class="graph" transform="scale(1 1) rotate(0) translate(4 105.5)">
<title>DGtal::concepts::CTrivialImage&lt; I &gt;</title>
<polygon fill="white" stroke="none" points="-4,4 -4,-105.5 2002,-105.5 2002,4 -4,4"/>
<!-- Node0 -->
<g id="node1" class="node"><title>Node0</title>
<polygon fill="#bfbfbf" stroke="black" points="1669,-31.5 1669,-61.5 1800,-61.5 1800,-31.5 1669,-31.5"/>
<text text-anchor="start" x="1677" y="-49.5" font-family="FreeSans" font-size="10.00">DGtal::concepts::CTrivial</text>
<text text-anchor="middle" x="1734.5" y="-38.5" font-family="FreeSans" font-size="10.00">Image&lt; I &gt;</text>
</g>
<!-- Node10 -->
<g id="node11" class="node"><title>Node10</title>
<g id="a_node11"><a xlink:href="structDGtal_1_1concepts_1_1CImage.html" target="_top" xlink:title="Aim: Defines the concept describing a read/write image, having an output iterator. ">
<polygon fill="white" stroke="black" points="1837,-37 1837,-56 1998,-56 1998,-37 1837,-37"/>
<text text-anchor="middle" x="1917.5" y="-44" font-family="FreeSans" font-size="10.00">DGtal::concepts::CImage&lt; I &gt;</text>
</a>
</g>
</g>
<!-- Node0&#45;&gt;Node10 -->
<g id="edge13" class="edge"><title>Node0&#45;&gt;Node10</title>
<path fill="none" stroke="midnightblue" d="M1810.23,-46.5C1818.98,-46.5 1827.93,-46.5 1836.75,-46.5"/>
<polygon fill="midnightblue" stroke="midnightblue" points="1810.08,-43.0001 1800.08,-46.5 1810.08,-50.0001 1810.08,-43.0001"/>
</g>
<!-- Node1 -->
<g id="node2" class="node"><title>Node1</title>
<g id="a_node2"><a xlink:href="structDGtal_1_1concepts_1_1CTrivialConstImage.html" target="_top" xlink:title="Aim: Defines the concept describing a read&#45;only image, which is a refinement of CPointFunctor. ">
<polygon fill="white" stroke="black" points="1501,-31.5 1501,-61.5 1632,-61.5 1632,-31.5 1501,-31.5"/>
<text text-anchor="start" x="1509" y="-49.5" font-family="FreeSans" font-size="10.00">DGtal::concepts::CTrivial</text>
<text text-anchor="middle" x="1566.5" y="-38.5" font-family="FreeSans" font-size="10.00">ConstImage&lt; I &gt;</text>
</a>
</g>
</g>
<!-- Node1&#45;&gt;Node0 -->
<g id="edge1" class="edge"><title>Node1&#45;&gt;Node0</title>
<path fill="none" stroke="midnightblue" d="M1642.4,-46.5C1651.19,-46.5 1660.11,-46.5 1668.75,-46.5"/>
<polygon fill="midnightblue" stroke="midnightblue" points="1642.16,-43.0001 1632.16,-46.5 1642.16,-50.0001 1642.16,-43.0001"/>
</g>
<!-- Node2 -->
<g id="node3" class="node"><title>Node2</title>
<g id="a_node3"><a xlink:href="structDGtal_1_1concepts_1_1CPointFunctor.html" target="_top" xlink:title="DGtal::concepts::CPointFunctor\&lt; I \&gt;">
<polygon fill="white" stroke="black" points="1274,-37 1274,-56 1464,-56 1464,-37 1274,-37"/>
<text text-anchor="middle" x="1369" y="-44" font-family="FreeSans" font-size="10.00">DGtal::concepts::CPointFunctor&lt; I &gt;</text>
</a>
</g>
</g>
<!-- Node2&#45;&gt;Node1 -->
<g id="edge2" class="edge"><title>Node2&#45;&gt;Node1</title>
<path fill="none" stroke="midnightblue" d="M1474.22,-46.5C1483.23,-46.5 1492.18,-46.5 1500.73,-46.5"/>
<polygon fill="midnightblue" stroke="midnightblue" points="1474.03,-43.0001 1464.03,-46.5 1474.03,-50.0001 1474.03,-43.0001"/>
</g>
<!-- Node3 -->
<g id="node4" class="node"><title>Node3</title>
<g id="a_node4"><a xlink:href="structDGtal_1_1concepts_1_1CUnaryFunctor.html" target="_top" xlink:title="DGtal::concepts::CUnaryFunctor\l\&lt; I, I ::Point, I ::Value \&gt;">
<polygon fill="white" stroke="black" points="810,-49.5 810,-79.5 980,-79.5 980,-49.5 810,-49.5"/>
<text text-anchor="start" x="818" y="-67.5" font-family="FreeSans" font-size="10.00">DGtal::concepts::CUnaryFunctor</text>
<text text-anchor="middle" x="895" y="-56.5" font-family="FreeSans" font-size="10.00">&lt; I, I ::Point, I ::Value &gt;</text>
</a>
</g>
</g>
<!-- Node3&#45;&gt;Node2 -->
<g id="edge3" class="edge"><title>Node3&#45;&gt;Node2</title>
<path fill="none" stroke="midnightblue" d="M990.214,-60.9071C1072.52,-57.7684 1191.38,-53.2355 1273.71,-50.096"/>
<polygon fill="midnightblue" stroke="midnightblue" points="989.971,-57.4137 980.112,-61.2923 990.238,-64.4086 989.971,-57.4137"/>
</g>
<!-- Node4 -->
<g id="node5" class="node"><title>Node4</title>
<g id="a_node5"><a xlink:href="structboost_1_1Assignable.html" target="_top" xlink:title="boost::Assignable\&lt; I \&gt;">
<polygon fill="white" stroke="black" points="345,-82 345,-101 471,-101 471,-82 345,-82"/>
<text text-anchor="middle" x="408" y="-89" font-family="FreeSans" font-size="10.00">boost::Assignable&lt; I &gt;</text>
</a>
</g>
</g>
<!-- Node4&#45;&gt;Node3 -->
<g id="edge4" class="edge"><title>Node4&#45;&gt;Node3</title>
<path fill="none" stroke="midnightblue" d="M481.259,-92.1502C558.383,-92.2077 684.075,-90.4739 792,-80.5 797.801,-79.9639 803.773,-79.3061 809.779,-78.566"/>
<polygon fill="midnightblue" stroke="midnightblue" points="481.177,-88.6501 471.17,-92.1322 481.164,-95.6501 481.177,-88.6501"/>
</g>
<!-- Node5 -->
<g id="node6" class="node"><title>Node5</title>
<g id="a_node6"><a xlink:href="structboost_1_1Assignable.html" target="_top" xlink:title="Go to http://www.sgi.com/tech/stl/Assignable.html. ">
<polygon fill="white" stroke="black" points="0,-28 0,-47 129,-47 129,-28 0,-28"/>
<text text-anchor="middle" x="64.5" y="-35" font-family="FreeSans" font-size="10.00">boost::Assignable&lt; T &gt;</text>
</a>
</g>
</g>
<!-- Node5&#45;&gt;Node4 -->
<g id="edge5" class="edge"><title>Node5&#45;&gt;Node4</title>
<path fill="none" stroke="orange" stroke-dasharray="5,2" d="M126.12,-48.8866C133.154,-50.1398 140.231,-51.3697 147,-52.5 214.531,-63.7761 292.188,-75.2276 344.92,-82.7776"/>
<polygon fill="orange" stroke="orange" points="126.348,-45.3713 115.886,-47.0429 125.107,-52.2605 126.348,-45.3713"/>
<text text-anchor="middle" x="163" y="-60.5" font-family="FreeSans" font-size="10.00"> &lt; I &gt;</text>
</g>
<!-- Node7 -->
<g id="node8" class="node"><title>Node7</title>
<g id="a_node8"><a xlink:href="structboost_1_1Assignable.html" target="_top" xlink:title="boost::Assignable\&lt; X \&gt;">
<polygon fill="white" stroke="black" points="197,-28 197,-47 327,-47 327,-28 197,-28"/>
<text text-anchor="middle" x="262" y="-35" font-family="FreeSans" font-size="10.00">boost::Assignable&lt; X &gt;</text>
</a>
</g>
</g>
<!-- Node5&#45;&gt;Node7 -->
<g id="edge8" class="edge"><title>Node5&#45;&gt;Node7</title>
<path fill="none" stroke="orange" stroke-dasharray="5,2" d="M139.282,-37.5C158.161,-37.5 178.312,-37.5 196.674,-37.5"/>
<polygon fill="orange" stroke="orange" points="139.244,-34.0001 129.243,-37.5 139.243,-41.0001 139.244,-34.0001"/>
<text text-anchor="middle" x="163" y="-40.5" font-family="FreeSans" font-size="10.00"> &lt; X &gt;</text>
</g>
<!-- Node9 -->
<g id="node10" class="node"><title>Node9</title>
<g id="a_node10"><a xlink:href="structDGtal_1_1concepts_1_1CUnaryFunctor.html" target="_top" xlink:title="DGtal::concepts::CUnaryFunctor\l\&lt; T, T::Point, T::Value \&gt;">
<polygon fill="white" stroke="black" points="810,-0.5 810,-30.5 980,-30.5 980,-0.5 810,-0.5"/>
<text text-anchor="start" x="818" y="-18.5" font-family="FreeSans" font-size="10.00">DGtal::concepts::CUnaryFunctor</text>
<text text-anchor="middle" x="895" y="-7.5" font-family="FreeSans" font-size="10.00">&lt; T, T::Point, T::Value &gt;</text>
</a>
</g>
</g>
<!-- Node5&#45;&gt;Node9 -->
<g id="edge11" class="edge"><title>Node5&#45;&gt;Node9</title>
<path fill="none" stroke="midnightblue" d="M130.802,-26.4481C151.869,-23.3166 175.367,-20.2783 197,-18.5 417.55,-0.369994 678.679,-6.61161 809.865,-11.6567"/>
<polygon fill="midnightblue" stroke="midnightblue" points="130.034,-23.0246 120.673,-27.9878 131.086,-29.9451 130.034,-23.0246"/>
</g>
<!-- Node6 -->
<g id="node7" class="node"><title>Node6</title>
<g id="a_node7"><a xlink:href="structDGtal_1_1concepts_1_1CUnaryFunctor.html" target="_top" xlink:title="Aim: Defines a unary functor, which associates arguments to results. ">
<polygon fill="white" stroke="black" points="489,-22.5 489,-52.5 659,-52.5 659,-22.5 489,-22.5"/>
<text text-anchor="start" x="497" y="-40.5" font-family="FreeSans" font-size="10.00">DGtal::concepts::CUnaryFunctor</text>
<text text-anchor="middle" x="574" y="-29.5" font-family="FreeSans" font-size="10.00">&lt; X, A, R &gt;</text>
</a>
</g>
</g>
<!-- Node6&#45;&gt;Node3 -->
<g id="edge6" class="edge"><title>Node6&#45;&gt;Node3</title>
<path fill="none" stroke="orange" stroke-dasharray="5,2" d="M669.2,-45.473C713.793,-49.2473 766.617,-53.7183 809.851,-57.3777"/>
<polygon fill="orange" stroke="orange" points="669.49,-41.9852 659.231,-44.6292 668.9,-48.9603 669.49,-41.9852"/>
<text text-anchor="start" x="699.5" y="-70.5" font-family="FreeSans" font-size="10.00"> &lt; I, I ::Point, I </text>
<text text-anchor="middle" x="734.5" y="-59.5" font-family="FreeSans" font-size="10.00">::Value &gt;</text>
</g>
<!-- Node6&#45;&gt;Node9 -->
<g id="edge12" class="edge"><title>Node6&#45;&gt;Node9</title>
<path fill="none" stroke="orange" stroke-dasharray="5,2" d="M669.323,-25.1865C671.908,-24.9429 674.471,-24.7132 677,-24.5 720.772,-20.8096 769.645,-18.6142 809.91,-17.3174"/>
<polygon fill="orange" stroke="orange" points="668.869,-21.7143 659.266,-26.1899 669.564,-28.6797 668.869,-21.7143"/>
<text text-anchor="middle" x="734.5" y="-27.5" font-family="FreeSans" font-size="10.00"> &lt; T, T::Point, T::Value &gt;</text>
</g>
<!-- Node7&#45;&gt;Node6 -->
<g id="edge7" class="edge"><title>Node7&#45;&gt;Node6</title>
<path fill="none" stroke="midnightblue" d="M337.351,-37.5C382.97,-37.5 441.509,-37.5 488.828,-37.5"/>
<polygon fill="midnightblue" stroke="midnightblue" points="337.232,-34.0001 327.232,-37.5 337.232,-41.0001 337.232,-34.0001"/>
</g>
<!-- Node8 -->
<g id="node9" class="node"><title>Node8</title>
<g id="a_node9"><a xlink:href="structDGtal_1_1concepts_1_1CPointFunctor.html" target="_top" xlink:title="Aim: Defines a functor on points. ">
<polygon fill="white" stroke="black" points="1017,-14 1017,-33 1210,-33 1210,-14 1017,-14"/>
<text text-anchor="middle" x="1113.5" y="-21" font-family="FreeSans" font-size="10.00">DGtal::concepts::CPointFunctor&lt; T &gt;</text>
</a>
</g>
</g>
<!-- Node8&#45;&gt;Node2 -->
<g id="edge9" class="edge"><title>Node8&#45;&gt;Node2</title>
<path fill="none" stroke="orange" stroke-dasharray="5,2" d="M1220.64,-33.1296C1238.25,-34.7278 1256.41,-36.3756 1273.71,-37.9448"/>
<polygon fill="orange" stroke="orange" points="1220.61,-29.6133 1210.34,-32.1953 1219.98,-36.5847 1220.61,-29.6133"/>
<text text-anchor="middle" x="1242" y="-39.5" font-family="FreeSans" font-size="10.00"> &lt; I &gt;</text>
</g>
<!-- Node9&#45;&gt;Node8 -->
<g id="edge10" class="edge"><title>Node9&#45;&gt;Node8</title>
<path fill="none" stroke="midnightblue" d="M990.229,-18.9819C998.991,-19.3057 1007.88,-19.6341 1016.65,-19.9584"/>
<polygon fill="midnightblue" stroke="midnightblue" points="990.137,-15.4762 980.014,-18.6045 989.878,-22.4714 990.137,-15.4762"/>
</g>
</g>
</svg>
