<?xml version="1.0" encoding="UTF-8" standalone="no"?>
<!DOCTYPE svg PUBLIC "-//W3C//DTD SVG 1.1//EN"
 "http://www.w3.org/Graphics/SVG/1.1/DTD/svg11.dtd">
<!-- Generated by graphviz version 2.38.0 (20140413.2041)
 -->
<!-- Title: DGtal::concepts::CGraphVisitor&lt; T &gt; Pages: 1 -->
<svg width="710pt" height="116pt"
 viewBox="0.00 0.00 710.00 116.00" xmlns="http://www.w3.org/2000/svg" xmlns:xlink="http://www.w3.org/1999/xlink">
<g id="graph0" class="graph" transform="scale(1 1) rotate(0) translate(4 112)">
<title>DGtal::concepts::CGraphVisitor&lt; T &gt;</title>
<polygon fill="white" stroke="none" points="-4,4 -4,-112 706,-112 706,4 -4,4"/>
<!-- Node2 -->
<g id="node1" class="node"><title>Node2</title>
<polygon fill="#bfbfbf" stroke="black" points="509,-44.5 509,-63.5 702,-63.5 702,-44.5 509,-44.5"/>
<text text-anchor="middle" x="605.5" y="-51.5" font-family="FreeSans" font-size="10.00">DGtal::concepts::CGraphVisitor&lt; T &gt;</text>
</g>
<!-- Node3 -->
<g id="node2" class="node"><title>Node3</title>
<g id="a_node2"><a xlink:href="structboost_1_1CopyConstructible.html" target="_top" xlink:title="Go to http://www.sgi.com/tech/stl/CopyConstructible.html. ">
<polygon fill="white" stroke="black" points="262,-88.5 262,-107.5 426,-107.5 426,-88.5 262,-88.5"/>
<text text-anchor="middle" x="344" y="-95.5" font-family="FreeSans" font-size="10.00">boost::CopyConstructible&lt; T &gt;</text>
</a>
</g>
</g>
<!-- Node3&#45;&gt;Node2 -->
<g id="edge1" class="edge"><title>Node3&#45;&gt;Node2</title>
<path fill="none" stroke="midnightblue" d="M411.257,-86.7656C453.645,-79.5784 508.032,-70.3569 548.302,-63.5287"/>
<polygon fill="midnightblue" stroke="midnightblue" points="410.582,-83.3301 401.308,-88.4527 411.752,-90.2316 410.582,-83.3301"/>
</g>
<!-- Node4 -->
<g id="node3" class="node"><title>Node4</title>
<g id="a_node3"><a xlink:href="structDGtal_1_1concepts_1_1CVertexPredicateArchetype.html" target="_top" xlink:title="DGtal::concepts::CVertex\lPredicateArchetype\&lt; Vertex \&gt;">
<polygon fill="white" stroke="black" points="262,-39 262,-69 426,-69 426,-39 262,-39"/>
<text text-anchor="start" x="270" y="-57" font-family="FreeSans" font-size="10.00">DGtal::concepts::CVertex</text>
<text text-anchor="middle" x="344" y="-46" font-family="FreeSans" font-size="10.00">PredicateArchetype&lt; Vertex &gt;</text>
</a>
</g>
</g>
<!-- Node4&#45;&gt;Node2 -->
<g id="edge2" class="edge"><title>Node4&#45;&gt;Node2</title>
<path fill="none" stroke="#9a32cd" stroke-dasharray="5,2" d="M436.305,-54C459.723,-54 484.979,-54 508.621,-54"/>
<polygon fill="#9a32cd" stroke="#9a32cd" points="436.04,-50.5001 426.04,-54 436.04,-57.5001 436.04,-50.5001"/>
<text text-anchor="middle" x="467.5" y="-57" font-family="FreeSans" font-size="10.00"> myVPred</text>
</g>
<!-- Node5 -->
<g id="node4" class="node"><title>Node5</title>
<g id="a_node4"><a xlink:href="structDGtal_1_1concepts_1_1CVertexPredicateArchetype.html" target="_top" xlink:title="Aim: Defines a an archetype for concept CVertexPredicate. ">
<polygon fill="white" stroke="black" points="0,-39 0,-69 169,-69 169,-39 0,-39"/>
<text text-anchor="start" x="8" y="-57" font-family="FreeSans" font-size="10.00">DGtal::concepts::CVertex</text>
<text text-anchor="middle" x="84.5" y="-46" font-family="FreeSans" font-size="10.00">PredicateArchetype&lt; TVertex &gt;</text>
</a>
</g>
</g>
<!-- Node5&#45;&gt;Node4 -->
<g id="edge3" class="edge"><title>Node5&#45;&gt;Node4</title>
<path fill="none" stroke="orange" stroke-dasharray="5,2" d="M179.314,-54C206.268,-54 235.432,-54 261.572,-54"/>
<polygon fill="orange" stroke="orange" points="179.103,-50.5001 169.103,-54 179.103,-57.5001 179.103,-50.5001"/>
<text text-anchor="middle" x="215.5" y="-57" font-family="FreeSans" font-size="10.00"> &lt; Vertex &gt;</text>
</g>
<!-- Node6 -->
<g id="node5" class="node"><title>Node6</title>
<polygon fill="white" stroke="#bfbfbf" points="329.5,-0.5 329.5,-19.5 358.5,-19.5 358.5,-0.5 329.5,-0.5"/>
<text text-anchor="middle" x="344" y="-7.5" font-family="FreeSans" font-size="10.00">T</text>
</g>
<!-- Node6&#45;&gt;Node2 -->
<g id="edge4" class="edge"><title>Node6&#45;&gt;Node2</title>
<path fill="none" stroke="#9a32cd" stroke-dasharray="5,2" d="M368.544,-13.992C408.892,-20.8334 492.311,-34.9776 548.354,-44.4801"/>
<polygon fill="#9a32cd" stroke="#9a32cd" points="369.031,-10.5247 358.586,-12.3037 367.861,-17.4262 369.031,-10.5247"/>
<text text-anchor="middle" x="467.5" y="-38" font-family="FreeSans" font-size="10.00"> myX</text>
</g>
</g>
</svg>
