<?xml version="1.0" encoding="UTF-8" standalone="no"?>
<!DOCTYPE svg PUBLIC "-//W3C//DTD SVG 1.1//EN"
 "http://www.w3.org/Graphics/SVG/1.1/DTD/svg11.dtd">
<!-- Generated by graphviz version 2.38.0 (20140413.2041)
 -->
<!-- Title: DGtal::CubicalComplex&lt; TKSpace, TCellContainer &gt;::Iterator Pages: 1 -->
<svg width="157pt" height="128pt"
 viewBox="0.00 0.00 157.00 128.00" xmlns="http://www.w3.org/2000/svg" xmlns:xlink="http://www.w3.org/1999/xlink">
<g id="graph0" class="graph" transform="scale(1 1) rotate(0) translate(4 124)">
<title>DGtal::CubicalComplex&lt; TKSpace, TCellContainer &gt;::Iterator</title>
<polygon fill="white" stroke="none" points="-4,4 -4,-124 153,-124 153,4 -4,4"/>
<!-- Node0 -->
<g id="node1" class="node"><title>Node0</title>
<polygon fill="#bfbfbf" stroke="black" points="3,-0.5 3,-41.5 146,-41.5 146,-0.5 3,-0.5"/>
<text text-anchor="start" x="11" y="-29.5" font-family="FreeSans" font-size="10.00">DGtal::CubicalComplex</text>
<text text-anchor="start" x="11" y="-18.5" font-family="FreeSans" font-size="10.00">&lt; TKSpace, TCellContainer</text>
<text text-anchor="middle" x="74.5" y="-7.5" font-family="FreeSans" font-size="10.00"> &gt;::Iterator</text>
</g>
<!-- Node1 -->
<g id="node2" class="node"><title>Node1</title>
<polygon fill="white" stroke="#bfbfbf" points="-1.42109e-14,-78.5 -1.42109e-14,-119.5 149,-119.5 149,-78.5 -1.42109e-14,-78.5"/>
<text text-anchor="start" x="8" y="-107.5" font-family="FreeSans" font-size="10.00">boost::iterator_facade</text>
<text text-anchor="start" x="8" y="-96.5" font-family="FreeSans" font-size="10.00">&lt; Iterator, Cell const,</text>
<text text-anchor="middle" x="74.5" y="-85.5" font-family="FreeSans" font-size="10.00"> std::forward_iterator_tag &gt;</text>
</g>
<!-- Node1&#45;&gt;Node0 -->
<g id="edge1" class="edge"><title>Node1&#45;&gt;Node0</title>
<path fill="none" stroke="midnightblue" d="M74.5,-68.2965C74.5,-59.3009 74.5,-49.6532 74.5,-41.5056"/>
<polygon fill="midnightblue" stroke="midnightblue" points="71.0001,-68.4281 74.5,-78.4281 78.0001,-68.4281 71.0001,-68.4281"/>
</g>
</g>
</svg>
