<?xml version="1.0" encoding="UTF-8" standalone="no"?>
<!DOCTYPE svg PUBLIC "-//W3C//DTD SVG 1.1//EN"
 "http://www.w3.org/Graphics/SVG/1.1/DTD/svg11.dtd">
<!-- Generated by graphviz version 2.38.0 (20140413.2041)
 -->
<!-- Title: DGtal::concepts::CPowerSeparableMetric&lt; T &gt; Pages: 1 -->
<svg width="320pt" height="151pt"
 viewBox="0.00 0.00 319.50 151.00" xmlns="http://www.w3.org/2000/svg" xmlns:xlink="http://www.w3.org/1999/xlink">
<g id="graph0" class="graph" transform="scale(1 1) rotate(0) translate(4 147)">
<title>DGtal::concepts::CPowerSeparableMetric&lt; T &gt;</title>
<polygon fill="white" stroke="none" points="-4,4 -4,-147 315.5,-147 315.5,4 -4,4"/>
<!-- Node0 -->
<g id="node1" class="node"><title>Node0</title>
<polygon fill="#bfbfbf" stroke="black" points="72.5,-0.5 72.5,-30.5 255.5,-30.5 255.5,-0.5 72.5,-0.5"/>
<text text-anchor="start" x="80.5" y="-18.5" font-family="FreeSans" font-size="10.00">DGtal::concepts::CPowerSeparable</text>
<text text-anchor="middle" x="164" y="-7.5" font-family="FreeSans" font-size="10.00">Metric&lt; T &gt;</text>
</g>
<!-- Node1 -->
<g id="node2" class="node"><title>Node1</title>
<g id="a_node2"><a xlink:href="structDGtal_1_1concepts_1_1CPowerMetric.html" target="_top" xlink:title="Aim: defines the concept of special weighted metrics, so called power metrics. ">
<polygon fill="white" stroke="black" points="68.5,-67.5 68.5,-86.5 259.5,-86.5 259.5,-67.5 68.5,-67.5"/>
<text text-anchor="middle" x="164" y="-74.5" font-family="FreeSans" font-size="10.00">DGtal::concepts::CPowerMetric&lt; T &gt;</text>
</a>
</g>
</g>
<!-- Node1&#45;&gt;Node0 -->
<g id="edge1" class="edge"><title>Node1&#45;&gt;Node0</title>
<path fill="none" stroke="midnightblue" d="M164,-57.2349C164,-48.5864 164,-38.4969 164,-30.523"/>
<polygon fill="midnightblue" stroke="midnightblue" points="160.5,-57.4751 164,-67.4751 167.5,-57.4751 160.5,-57.4751"/>
</g>
<!-- Node2 -->
<g id="node3" class="node"><title>Node2</title>
<g id="a_node3"><a xlink:href="structboost_1_1CopyConstructible.html" target="_top" xlink:title="Go to http://www.sgi.com/tech/stl/CopyConstructible.html. ">
<polygon fill="white" stroke="black" points="0,-123.5 0,-142.5 164,-142.5 164,-123.5 0,-123.5"/>
<text text-anchor="middle" x="82" y="-130.5" font-family="FreeSans" font-size="10.00">boost::CopyConstructible&lt; T &gt;</text>
</a>
</g>
</g>
<!-- Node2&#45;&gt;Node1 -->
<g id="edge2" class="edge"><title>Node2&#45;&gt;Node1</title>
<path fill="none" stroke="midnightblue" d="M103.833,-117.622C118.813,-107.757 138.197,-94.9919 150.858,-86.6545"/>
<polygon fill="midnightblue" stroke="midnightblue" points="101.601,-114.901 95.1747,-123.324 105.451,-120.747 101.601,-114.901"/>
</g>
<!-- Node3 -->
<g id="node4" class="node"><title>Node3</title>
<g id="a_node4"><a xlink:href="structboost_1_1Assignable.html" target="_top" xlink:title="Go to http://www.sgi.com/tech/stl/Assignable.html. ">
<polygon fill="white" stroke="black" points="182.5,-123.5 182.5,-142.5 311.5,-142.5 311.5,-123.5 182.5,-123.5"/>
<text text-anchor="middle" x="247" y="-130.5" font-family="FreeSans" font-size="10.00">boost::Assignable&lt; T &gt;</text>
</a>
</g>
</g>
<!-- Node3&#45;&gt;Node1 -->
<g id="edge3" class="edge"><title>Node3&#45;&gt;Node1</title>
<path fill="none" stroke="midnightblue" d="M224.901,-117.622C209.738,-107.757 190.117,-94.9919 177.302,-86.6545"/>
<polygon fill="midnightblue" stroke="midnightblue" points="223.374,-120.804 233.665,-123.324 227.191,-114.937 223.374,-120.804"/>
</g>
</g>
</svg>
