<?xml version="1.0" encoding="UTF-8" standalone="no"?>
<!DOCTYPE svg PUBLIC "-//W3C//DTD SVG 1.1//EN"
 "http://www.w3.org/Graphics/SVG/1.1/DTD/svg11.dtd">
<!-- Generated by graphviz version 2.36.0 (20140111.2315)
 -->
<!-- Title: DGtal::TangentFromDSS2DFunctor&lt; DSS, LambdaFunction &gt;::Value Pages: 1 -->
<svg width="252pt" height="278pt"
 viewBox="0.00 0.00 252.00 278.00" xmlns="http://www.w3.org/2000/svg" xmlns:xlink="http://www.w3.org/1999/xlink">
<g id="graph0" class="graph" transform="scale(1 1) rotate(0) translate(4 274)">
<title>DGtal::TangentFromDSS2DFunctor&lt; DSS, LambdaFunction &gt;::Value</title>
<polygon fill="white" stroke="none" points="-4,4 -4,-274 248,-274 248,4 -4,4"/>
<!-- Node1 -->
<g id="node1" class="node"><title>Node1</title>
<polygon fill="#bfbfbf" stroke="black" points="-0.5,-1 -0.5,-31 180.5,-31 180.5,-1 -0.5,-1"/>
<text text-anchor="start" x="7.5" y="-19" font-family="FreeSans" font-size="10.00">DGtal::TangentFromDSS2DFunctor</text>
<text text-anchor="middle" x="90" y="-8" font-family="FreeSans" font-size="10.00">&lt; DSS, LambdaFunction &gt;::Value</text>
</g>
<!-- Node2 -->
<g id="node2" class="node"><title>Node2</title>
<g id="a_node2"><a xlink:href="classDGtal_1_1PointVector.html" target="_top" xlink:title="DGtal::PointVector\l\&lt; 2, double \&gt;">
<polygon fill="white" stroke="black" points="38,-81 38,-111 142,-111 142,-81 38,-81"/>
<text text-anchor="start" x="46" y="-99" font-family="FreeSans" font-size="10.00">DGtal::PointVector</text>
<text text-anchor="middle" x="90" y="-88" font-family="FreeSans" font-size="10.00">&lt; 2, double &gt;</text>
</a>
</g>
</g>
<!-- Node2&#45;&gt;Node1 -->
<g id="edge1" class="edge"><title>Node2&#45;&gt;Node1</title>
<path fill="none" stroke="#9a32cd" stroke-dasharray="5,2" d="M90,-70.5644C90,-57.6243 90,-42.1862 90,-31.2157"/>
<polygon fill="#9a32cd" stroke="#9a32cd" points="86.5001,-70.6936 90,-80.6936 93.5001,-70.6936 86.5001,-70.6936"/>
<text text-anchor="middle" x="101" y="-53.5" font-family="FreeSans" font-size="10.00"> first</text>
</g>
<!-- Node3 -->
<g id="node3" class="node"><title>Node3</title>
<polygon fill="white" stroke="#bfbfbf" points="18,-250.5 18,-269.5 86,-269.5 86,-250.5 18,-250.5"/>
<text text-anchor="middle" x="52" y="-257.5" font-family="FreeSans" font-size="10.00">TContainer</text>
</g>
<!-- Node3&#45;&gt;Node2 -->
<g id="edge2" class="edge"><title>Node3&#45;&gt;Node2</title>
<path fill="none" stroke="#9a32cd" stroke-dasharray="5,2" d="M39.5999,-241.871C26.6855,-221.782 9.89981,-187.706 22,-160 31.0821,-139.205 50.7881,-122.205 66.6601,-111.129"/>
<polygon fill="#9a32cd" stroke="#9a32cd" points="36.7995,-243.978 45.3142,-250.282 42.5896,-240.044 36.7995,-243.978"/>
<text text-anchor="middle" x="44" y="-178.5" font-family="FreeSans" font-size="10.00"> myArray</text>
</g>
<!-- Node4 -->
<g id="node4" class="node"><title>Node4</title>
<g id="a_node4"><a xlink:href="classDGtal_1_1PointVector.html" target="_top" xlink:title="Aim: Implements basic operations that will be used in Point and Vector classes. ">
<polygon fill="white" stroke="black" points="75,-160.5 75,-201.5 201,-201.5 201,-160.5 75,-160.5"/>
<text text-anchor="start" x="83" y="-189.5" font-family="FreeSans" font-size="10.00">DGtal::PointVector</text>
<text text-anchor="start" x="83" y="-178.5" font-family="FreeSans" font-size="10.00">&lt; dim, TEuclideanRing,</text>
<text text-anchor="middle" x="138" y="-167.5" font-family="FreeSans" font-size="10.00"> TContainer &gt;</text>
</a>
</g>
</g>
<!-- Node3&#45;&gt;Node4 -->
<g id="edge4" class="edge"><title>Node3&#45;&gt;Node4</title>
<path fill="none" stroke="#9a32cd" stroke-dasharray="5,2" d="M69.1173,-243.674C82.5516,-231.646 101.354,-214.811 115.921,-201.768"/>
<polygon fill="#9a32cd" stroke="#9a32cd" points="66.6476,-241.187 61.5321,-250.465 71.3169,-246.402 66.6476,-241.187"/>
<text text-anchor="middle" x="117" y="-223.5" font-family="FreeSans" font-size="10.00"> myArray</text>
</g>
<!-- Node4&#45;&gt;Node2 -->
<g id="edge3" class="edge"><title>Node4&#45;&gt;Node2</title>
<path fill="none" stroke="#9a32cd" stroke-dasharray="5,2" d="M98.3745,-152.935C95.4675,-149.571 92.9255,-145.92 91,-142 86.3147,-132.461 86.3253,-120.357 87.3648,-111.105"/>
<polygon fill="#9a32cd" stroke="#9a32cd" points="96.1545,-155.664 105.702,-160.258 101.103,-150.713 96.1545,-155.664"/>
<text text-anchor="middle" x="103.5" y="-133.5" font-family="FreeSans" font-size="10.00"> zero</text>
</g>
<!-- Node4&#45;&gt;Node2 -->
<g id="edge6" class="edge"><title>Node4&#45;&gt;Node2</title>
<path fill="none" stroke="orange" stroke-dasharray="5,2" d="M126.773,-151.114C123.622,-144.032 119.962,-136.595 116,-130 112.094,-123.497 107.071,-116.832 102.482,-111.209"/>
<polygon fill="orange" stroke="orange" points="123.604,-152.605 130.737,-160.439 130.046,-149.867 123.604,-152.605"/>
<text text-anchor="middle" x="157" y="-133.5" font-family="FreeSans" font-size="10.00"> &lt; 2, double &gt;</text>
</g>
<!-- Node4&#45;&gt;Node4 -->
<g id="edge5" class="edge"><title>Node4&#45;&gt;Node4</title>
<path fill="none" stroke="#9a32cd" stroke-dasharray="5,2" d="M211.09,-186.937C216.012,-185.566 219,-183.588 219,-181 219,-176.961 211.719,-174.405 201.168,-173.332"/>
<polygon fill="#9a32cd" stroke="#9a32cd" points="210.418,-183.501 201.168,-188.668 211.621,-190.397 210.418,-183.501"/>
<text text-anchor="middle" x="231.5" y="-178.5" font-family="FreeSans" font-size="10.00"> zero</text>
</g>
</g>
</svg>
