<?xml version="1.0" encoding="UTF-8" standalone="no"?>
<!DOCTYPE svg PUBLIC "-//W3C//DTD SVG 1.1//EN"
 "http://www.w3.org/Graphics/SVG/1.1/DTD/svg11.dtd">
<!-- Generated by graphviz version 2.38.0 (20140413.2041)
 -->
<!-- Title: LibBoard::Circle Pages: 1 -->
<svg width="307pt" height="399pt"
 viewBox="0.00 0.00 306.50 399.00" xmlns="http://www.w3.org/2000/svg" xmlns:xlink="http://www.w3.org/1999/xlink">
<g id="graph0" class="graph" transform="scale(1 1) rotate(0) translate(4 395)">
<title>LibBoard::Circle</title>
<polygon fill="white" stroke="none" points="-4,4 -4,-395 302.5,-395 302.5,4 -4,4"/>
<!-- Node4 -->
<g id="node1" class="node"><title>Node4</title>
<polygon fill="#bfbfbf" stroke="black" points="0,-0.5 0,-19.5 91,-19.5 91,-0.5 0,-0.5"/>
<text text-anchor="middle" x="45.5" y="-7.5" font-family="FreeSans" font-size="10.00">LibBoard::Circle</text>
</g>
<!-- Node5 -->
<g id="node2" class="node"><title>Node5</title>
<g id="a_node2"><a xlink:href="structLibBoard_1_1Ellipse.html" target="_top" xlink:title="An ellipse. ">
<polygon fill="white" stroke="black" points="64,-57.5 64,-76.5 159,-76.5 159,-57.5 64,-57.5"/>
<text text-anchor="middle" x="111.5" y="-64.5" font-family="FreeSans" font-size="10.00">LibBoard::Ellipse</text>
</a>
</g>
</g>
<!-- Node5&#45;&gt;Node4 -->
<g id="edge1" class="edge"><title>Node5&#45;&gt;Node4</title>
<path fill="none" stroke="midnightblue" d="M93.4979,-50.9983C81.4542,-40.9619 66.0253,-28.1044 55.9579,-19.7149"/>
<polygon fill="midnightblue" stroke="midnightblue" points="91.2646,-53.6932 101.188,-57.4062 95.7459,-48.3156 91.2646,-53.6932"/>
</g>
<!-- Node6 -->
<g id="node3" class="node"><title>Node6</title>
<g id="a_node3"><a xlink:href="structLibBoard_1_1Shape.html" target="_top" xlink:title="Abstract structure for a 2D shape. ">
<polygon fill="white" stroke="black" points="123,-124.5 123,-143.5 218,-143.5 218,-124.5 123,-124.5"/>
<text text-anchor="middle" x="170.5" y="-131.5" font-family="FreeSans" font-size="10.00">LibBoard::Shape</text>
</a>
</g>
</g>
<!-- Node6&#45;&gt;Node5 -->
<g id="edge2" class="edge"><title>Node6&#45;&gt;Node5</title>
<path fill="none" stroke="midnightblue" d="M155.645,-116.635C144.107,-103.923 128.563,-86.7978 119.331,-76.6273"/>
<polygon fill="midnightblue" stroke="midnightblue" points="153.23,-119.182 162.543,-124.234 158.414,-114.477 153.23,-119.182"/>
</g>
<!-- Node7 -->
<g id="node4" class="node"><title>Node7</title>
<g id="a_node4"><a xlink:title="STL class. ">
<polygon fill="white" stroke="#bfbfbf" points="35,-253 35,-272 100,-272 100,-253 35,-253"/>
<text text-anchor="middle" x="67.5" y="-260" font-family="FreeSans" font-size="10.00">std::string</text>
</a>
</g>
</g>
<!-- Node7&#45;&gt;Node4 -->
<g id="edge9" class="edge"><title>Node7&#45;&gt;Node4</title>
<path fill="none" stroke="#9a32cd" stroke-dasharray="5,2" d="M63.8263,-242.805C58.3137,-213.702 48.1584,-155.736 44.5,-106 44.1414,-101.124 44.4709,-99.8888 44.5,-95 44.6632,-67.5819 45.126,-35.1324 45.3604,-19.8281"/>
<polygon fill="#9a32cd" stroke="#9a32cd" points="60.42,-243.626 65.7501,-252.782 67.2934,-242.3 60.42,-243.626"/>
<text text-anchor="middle" x="63" y="-98" font-family="FreeSans" font-size="10.00"> _name</text>
</g>
<!-- Node7&#45;&gt;Node5 -->
<g id="edge8" class="edge"><title>Node7&#45;&gt;Node5</title>
<path fill="none" stroke="#9a32cd" stroke-dasharray="5,2" d="M65.8735,-242.533C64.1891,-215.498 63.3875,-164.657 76.5,-124 82.4121,-105.669 95.6378,-87.2801 104.032,-76.804"/>
<polygon fill="#9a32cd" stroke="#9a32cd" points="62.4091,-243.145 66.637,-252.86 69.3901,-242.629 62.4091,-243.145"/>
<text text-anchor="middle" x="95" y="-131.5" font-family="FreeSans" font-size="10.00"> _name</text>
</g>
<!-- Node7&#45;&gt;Node6 -->
<g id="edge3" class="edge"><title>Node7&#45;&gt;Node6</title>
<path fill="none" stroke="#9a32cd" stroke-dasharray="5,2" d="M75.5826,-243.803C85.8929,-222.587 105.32,-186.795 129.5,-162 136.641,-154.678 146.096,-148.288 154.126,-143.564"/>
<polygon fill="#9a32cd" stroke="#9a32cd" points="72.3755,-242.398 71.2727,-252.935 78.7059,-245.385 72.3755,-242.398"/>
<text text-anchor="middle" x="148" y="-170.5" font-family="FreeSans" font-size="10.00"> _name</text>
</g>
<!-- Node8 -->
<g id="node5" class="node"><title>Node8</title>
<g id="a_node5"><a xlink:title="STL class. ">
<polygon fill="white" stroke="#bfbfbf" points="16,-360.5 16,-390.5 119,-390.5 119,-360.5 16,-360.5"/>
<text text-anchor="start" x="24" y="-378.5" font-family="FreeSans" font-size="10.00">std::basic_string&lt;</text>
<text text-anchor="middle" x="67.5" y="-367.5" font-family="FreeSans" font-size="10.00"> char &gt;</text>
</a>
</g>
</g>
<!-- Node8&#45;&gt;Node7 -->
<g id="edge4" class="edge"><title>Node8&#45;&gt;Node7</title>
<path fill="none" stroke="midnightblue" d="M67.5,-350.392C67.5,-325.685 67.5,-288.612 67.5,-272.037"/>
<polygon fill="midnightblue" stroke="midnightblue" points="64.0001,-350.442 67.5,-360.442 71.0001,-350.442 64.0001,-350.442"/>
</g>
<!-- Node9 -->
<g id="node6" class="node"><title>Node9</title>
<g id="a_node6"><a xlink:href="classDGtal_1_1Color.html" target="_top" xlink:title="Structure representing an RGB triple with alpha component. ">
<polygon fill="white" stroke="black" points="133.5,-253 133.5,-272 207.5,-272 207.5,-253 133.5,-253"/>
<text text-anchor="middle" x="170.5" y="-260" font-family="FreeSans" font-size="10.00">DGtal::Color</text>
</a>
</g>
</g>
<!-- Node9&#45;&gt;Node6 -->
<g id="edge5" class="edge"><title>Node9&#45;&gt;Node6</title>
<path fill="none" stroke="#9a32cd" stroke-dasharray="5,2" d="M170.5,-242.435C170.5,-214.624 170.5,-164.037 170.5,-143.756"/>
<polygon fill="#9a32cd" stroke="#9a32cd" points="167,-242.805 170.5,-252.805 174,-242.805 167,-242.805"/>
<text text-anchor="middle" x="196.5" y="-176" font-family="FreeSans" font-size="10.00"> _penColor</text>
<text text-anchor="middle" x="196.5" y="-165" font-family="FreeSans" font-size="10.00">_fillColor</text>
</g>
<!-- Node9&#45;&gt;Node9 -->
<g id="edge6" class="edge"><title>Node9&#45;&gt;Node9</title>
<path fill="none" stroke="#9a32cd" stroke-dasharray="5,2" d="M193.186,-275.573C209.389,-279.784 225.5,-275.426 225.5,-262.5 225.5,-247.037 202.444,-243.836 183.756,-252.896"/>
<polygon fill="#9a32cd" stroke="#9a32cd" points="194.35,-272.272 183.756,-272.104 191.933,-278.842 194.35,-272.272"/>
<text text-anchor="middle" x="247" y="-315" font-family="FreeSans" font-size="10.00"> Yellow</text>
<text text-anchor="middle" x="247" y="-304" font-family="FreeSans" font-size="10.00">Lime</text>
<text text-anchor="middle" x="247" y="-293" font-family="FreeSans" font-size="10.00">Navy</text>
<text text-anchor="middle" x="247" y="-282" font-family="FreeSans" font-size="10.00">Magenta</text>
<text text-anchor="middle" x="247" y="-271" font-family="FreeSans" font-size="10.00">White</text>
<text text-anchor="middle" x="247" y="-260" font-family="FreeSans" font-size="10.00">None</text>
<text text-anchor="middle" x="247" y="-249" font-family="FreeSans" font-size="10.00">Blue</text>
<text text-anchor="middle" x="247" y="-238" font-family="FreeSans" font-size="10.00">Aqua</text>
<text text-anchor="middle" x="247" y="-227" font-family="FreeSans" font-size="10.00">Purple</text>
<text text-anchor="middle" x="247" y="-216" font-family="FreeSans" font-size="10.00">Silver</text>
<text text-anchor="middle" x="247" y="-205" font-family="FreeSans" font-size="10.00">...</text>
</g>
<!-- Node10 -->
<g id="node7" class="node"><title>Node10</title>
<polygon fill="white" stroke="#bfbfbf" points="236.5,-124.5 236.5,-143.5 298.5,-143.5 298.5,-124.5 236.5,-124.5"/>
<text text-anchor="middle" x="267.5" y="-131.5" font-family="FreeSans" font-size="10.00">MyPointD</text>
</g>
<!-- Node10&#45;&gt;Node5 -->
<g id="edge7" class="edge"><title>Node10&#45;&gt;Node5</title>
<path fill="none" stroke="#9a32cd" stroke-dasharray="5,2" d="M237.376,-120.448C206.489,-107.579 159.268,-87.9032 132.301,-76.6672"/>
<polygon fill="#9a32cd" stroke="#9a32cd" points="236.207,-123.753 246.784,-124.369 238.9,-117.292 236.207,-123.753"/>
<text text-anchor="middle" x="219.5" y="-98" font-family="FreeSans" font-size="10.00"> _center</text>
</g>
</g>
</svg>
