<?xml version="1.0" encoding="UTF-8" standalone="no"?>
<!DOCTYPE svg PUBLIC "-//W3C//DTD SVG 1.1//EN"
 "http://www.w3.org/Graphics/SVG/1.1/DTD/svg11.dtd">
<!-- Generated by graphviz version 2.38.0 (20140413.2041)
 -->
<!-- Title: LibBoard::Transform Pages: 1 -->
<svg width="461pt" height="142pt"
 viewBox="0.00 0.00 461.00 142.00" xmlns="http://www.w3.org/2000/svg" xmlns:xlink="http://www.w3.org/1999/xlink">
<g id="graph0" class="graph" transform="scale(1 1) rotate(0) translate(4 138)">
<title>LibBoard::Transform</title>
<polygon fill="white" stroke="none" points="-4,4 -4,-138 457,-138 457,4 -4,4"/>
<!-- Node0 -->
<g id="node1" class="node"><title>Node0</title>
<polygon fill="#bfbfbf" stroke="black" points="0,-57.5 0,-76.5 112,-76.5 112,-57.5 0,-57.5"/>
<text text-anchor="middle" x="56" y="-64.5" font-family="FreeSans" font-size="10.00">LibBoard::Transform</text>
</g>
<!-- Node1 -->
<g id="node2" class="node"><title>Node1</title>
<g id="a_node2"><a xlink:href="structLibBoard_1_1TransformCairo.html" target="_top" xlink:title="Structure representing a scaling and translation suitable for an Cairo output. ">
<polygon fill="white" stroke="black" points="148,-114.5 148,-133.5 285,-133.5 285,-114.5 148,-114.5"/>
<text text-anchor="middle" x="216.5" y="-121.5" font-family="FreeSans" font-size="10.00">LibBoard::TransformCairo</text>
</a>
</g>
</g>
<!-- Node0&#45;&gt;Node1 -->
<g id="edge1" class="edge"><title>Node0&#45;&gt;Node1</title>
<path fill="none" stroke="midnightblue" d="M87.2226,-80.704C104.765,-88.3837 127.4,-97.8291 148,-105 157.773,-108.402 168.497,-111.639 178.464,-114.447"/>
<polygon fill="midnightblue" stroke="midnightblue" points="88.6074,-77.4895 78.0463,-76.6448 85.7755,-83.8911 88.6074,-77.4895"/>
</g>
<!-- Node2 -->
<g id="node3" class="node"><title>Node2</title>
<g id="a_node3"><a xlink:href="structLibBoard_1_1TransformEPS.html" target="_top" xlink:title="Structure representing a scaling and translation suitable for an EPS output. ">
<polygon fill="white" stroke="black" points="151,-76.5 151,-95.5 282,-95.5 282,-76.5 151,-76.5"/>
<text text-anchor="middle" x="216.5" y="-83.5" font-family="FreeSans" font-size="10.00">LibBoard::TransformEPS</text>
</a>
</g>
</g>
<!-- Node0&#45;&gt;Node2 -->
<g id="edge2" class="edge"><title>Node0&#45;&gt;Node2</title>
<path fill="none" stroke="midnightblue" d="M122.48,-74.8493C131.856,-75.9732 141.497,-77.129 150.857,-78.251"/>
<polygon fill="midnightblue" stroke="midnightblue" points="122.781,-71.3605 112.436,-73.6453 121.948,-78.3107 122.781,-71.3605"/>
</g>
<!-- Node3 -->
<g id="node4" class="node"><title>Node3</title>
<g id="a_node4"><a xlink:href="structLibBoard_1_1TransformFIG.html" target="_top" xlink:title="Structure representing a scaling and translation suitable for an XFig output. ">
<polygon fill="white" stroke="black" points="153,-38.5 153,-57.5 280,-57.5 280,-38.5 153,-38.5"/>
<text text-anchor="middle" x="216.5" y="-45.5" font-family="FreeSans" font-size="10.00">LibBoard::TransformFIG</text>
</a>
</g>
</g>
<!-- Node0&#45;&gt;Node3 -->
<g id="edge3" class="edge"><title>Node0&#45;&gt;Node3</title>
<path fill="none" stroke="midnightblue" d="M122.678,-59.127C132.635,-57.9334 142.886,-56.7045 152.778,-55.5187"/>
<polygon fill="midnightblue" stroke="midnightblue" points="121.948,-55.6893 112.436,-60.3547 122.781,-62.6395 121.948,-55.6893"/>
</g>
<!-- Node4 -->
<g id="node5" class="node"><title>Node4</title>
<g id="a_node5"><a xlink:href="structLibBoard_1_1TransformSVG.html" target="_top" xlink:title="Structure representing a scaling and translation suitable for an SVG output. ">
<polygon fill="white" stroke="black" points="150,-0.5 150,-19.5 283,-19.5 283,-0.5 150,-0.5"/>
<text text-anchor="middle" x="216.5" y="-7.5" font-family="FreeSans" font-size="10.00">LibBoard::TransformSVG</text>
</a>
</g>
</g>
<!-- Node0&#45;&gt;Node4 -->
<g id="edge4" class="edge"><title>Node0&#45;&gt;Node4</title>
<path fill="none" stroke="midnightblue" d="M87.2226,-53.296C104.765,-45.6163 127.4,-36.1709 148,-29 157.773,-25.5981 168.497,-22.3606 178.464,-19.5534"/>
<polygon fill="midnightblue" stroke="midnightblue" points="85.7755,-50.1089 78.0463,-57.3552 88.6074,-56.5105 85.7755,-50.1089"/>
</g>
<!-- Node5 -->
<g id="node6" class="node"><title>Node5</title>
<g id="a_node6"><a xlink:href="structLibBoard_1_1TransformTikZ.html" target="_top" xlink:title="Structure representing a scaling and translation suitable for an TikZ output. ">
<polygon fill="white" stroke="black" points="321,-0.5 321,-19.5 453,-19.5 453,-0.5 321,-0.5"/>
<text text-anchor="middle" x="387" y="-7.5" font-family="FreeSans" font-size="10.00">LibBoard::TransformTikZ</text>
</a>
</g>
</g>
<!-- Node4&#45;&gt;Node5 -->
<g id="edge5" class="edge"><title>Node4&#45;&gt;Node5</title>
<path fill="none" stroke="midnightblue" d="M293.39,-10C302.549,-10 311.841,-10 320.827,-10"/>
<polygon fill="midnightblue" stroke="midnightblue" points="293.129,-6.5001 283.129,-10 293.129,-13.5001 293.129,-6.5001"/>
</g>
</g>
</svg>
