<?xml version="1.0" encoding="UTF-8" standalone="no"?>
<!DOCTYPE svg PUBLIC "-//W3C//DTD SVG 1.1//EN"
 "http://www.w3.org/Graphics/SVG/1.1/DTD/svg11.dtd">
<!-- Generated by graphviz version 2.38.0 (20140413.2041)
 -->
<!-- Title: DGtal::SimpleAssociativeCategory Pages: 1 -->
<svg width="711pt" height="176pt"
 viewBox="0.00 0.00 711.00 176.00" xmlns="http://www.w3.org/2000/svg" xmlns:xlink="http://www.w3.org/1999/xlink">
<g id="graph0" class="graph" transform="scale(1 1) rotate(0) translate(4 172)">
<title>DGtal::SimpleAssociativeCategory</title>
<polygon fill="white" stroke="none" points="-4,4 -4,-172 707,-172 707,4 -4,4"/>
<!-- Node0 -->
<g id="node1" class="node"><title>Node0</title>
<polygon fill="#bfbfbf" stroke="black" points="359,-71.5 359,-101.5 496,-101.5 496,-71.5 359,-71.5"/>
<text text-anchor="start" x="367" y="-89.5" font-family="FreeSans" font-size="10.00">DGtal::SimpleAssociative</text>
<text text-anchor="middle" x="427.5" y="-78.5" font-family="FreeSans" font-size="10.00">Category</text>
</g>
<!-- Node3 -->
<g id="node4" class="node"><title>Node3</title>
<g id="a_node4"><a xlink:href="structDGtal_1_1MultisetAssociativeCategory.html" target="_top" xlink:title="DGtal::MultisetAssociative\lCategory">
<polygon fill="white" stroke="black" points="547,-137.5 547,-167.5 688,-167.5 688,-137.5 547,-137.5"/>
<text text-anchor="start" x="555" y="-155.5" font-family="FreeSans" font-size="10.00">DGtal::MultisetAssociative</text>
<text text-anchor="middle" x="617.5" y="-144.5" font-family="FreeSans" font-size="10.00">Category</text>
</a>
</g>
</g>
<!-- Node0&#45;&gt;Node3 -->
<g id="edge3" class="edge"><title>Node0&#45;&gt;Node3</title>
<path fill="none" stroke="midnightblue" d="M473.786,-105.457C491.773,-112.718 512.732,-120.848 532,-127.5 541.978,-130.945 552.716,-134.349 563.08,-137.484"/>
<polygon fill="midnightblue" stroke="midnightblue" points="474.711,-102.055 464.129,-101.527 472.073,-108.538 474.711,-102.055"/>
</g>
<!-- Node4 -->
<g id="node5" class="node"><title>Node4</title>
<g id="a_node5"><a xlink:href="structDGtal_1_1SetAssociativeCategory.html" target="_top" xlink:title="DGtal::SetAssociativeCategory">
<polygon fill="white" stroke="black" points="535.5,-99 535.5,-118 699.5,-118 699.5,-99 535.5,-99"/>
<text text-anchor="middle" x="617.5" y="-106" font-family="FreeSans" font-size="10.00">DGtal::SetAssociativeCategory</text>
</a>
</g>
</g>
<!-- Node0&#45;&gt;Node4 -->
<g id="edge4" class="edge"><title>Node0&#45;&gt;Node4</title>
<path fill="none" stroke="midnightblue" d="M506.081,-95.5786C515.752,-96.7104 525.663,-97.8701 535.386,-99.008"/>
<polygon fill="midnightblue" stroke="midnightblue" points="506.446,-92.0975 496.107,-94.4114 505.632,-99.0501 506.446,-92.0975"/>
</g>
<!-- Node5 -->
<g id="node6" class="node"><title>Node5</title>
<g id="a_node6"><a xlink:href="structDGtal_1_1UnorderedMultisetAssociativeCategory.html" target="_top" xlink:title="DGtal::UnorderedMultiset\lAssociativeCategory">
<polygon fill="white" stroke="black" points="548.5,-49.5 548.5,-79.5 686.5,-79.5 686.5,-49.5 548.5,-49.5"/>
<text text-anchor="start" x="556.5" y="-67.5" font-family="FreeSans" font-size="10.00">DGtal::UnorderedMultiset</text>
<text text-anchor="middle" x="617.5" y="-56.5" font-family="FreeSans" font-size="10.00">AssociativeCategory</text>
</a>
</g>
</g>
<!-- Node0&#45;&gt;Node5 -->
<g id="edge5" class="edge"><title>Node0&#45;&gt;Node5</title>
<path fill="none" stroke="midnightblue" d="M506.162,-77.4119C520.116,-75.779 534.566,-74.0881 548.229,-72.4891"/>
<polygon fill="midnightblue" stroke="midnightblue" points="505.632,-73.9499 496.107,-78.5886 506.446,-80.9025 505.632,-73.9499"/>
</g>
<!-- Node6 -->
<g id="node7" class="node"><title>Node6</title>
<g id="a_node7"><a xlink:href="structDGtal_1_1UnorderedSetAssociativeCategory.html" target="_top" xlink:title="DGtal::UnorderedSetAssociative\lCategory">
<polygon fill="white" stroke="black" points="532,-0.5 532,-30.5 703,-30.5 703,-0.5 532,-0.5"/>
<text text-anchor="start" x="540" y="-18.5" font-family="FreeSans" font-size="10.00">DGtal::UnorderedSetAssociative</text>
<text text-anchor="middle" x="617.5" y="-7.5" font-family="FreeSans" font-size="10.00">Category</text>
</a>
</g>
</g>
<!-- Node0&#45;&gt;Node6 -->
<g id="edge6" class="edge"><title>Node0&#45;&gt;Node6</title>
<path fill="none" stroke="midnightblue" d="M468.054,-66.8568C487.104,-57.8326 510.444,-47.4053 532,-39.5 540.591,-36.3495 549.796,-33.3575 558.857,-30.6226"/>
<polygon fill="midnightblue" stroke="midnightblue" points="466.302,-63.8152 458.795,-71.2917 469.325,-70.1284 466.302,-63.8152"/>
</g>
<!-- Node1 -->
<g id="node2" class="node"><title>Node1</title>
<g id="a_node2"><a xlink:href="structDGtal_1_1AssociativeCategory.html" target="_top" xlink:title="DGtal::AssociativeCategory">
<polygon fill="white" stroke="black" points="176,-77 176,-96 323,-96 323,-77 176,-77"/>
<text text-anchor="middle" x="249.5" y="-84" font-family="FreeSans" font-size="10.00">DGtal::AssociativeCategory</text>
</a>
</g>
</g>
<!-- Node1&#45;&gt;Node0 -->
<g id="edge1" class="edge"><title>Node1&#45;&gt;Node0</title>
<path fill="none" stroke="midnightblue" d="M333.16,-86.5C341.772,-86.5 350.452,-86.5 358.869,-86.5"/>
<polygon fill="midnightblue" stroke="midnightblue" points="333.102,-83.0001 323.102,-86.5 333.102,-90.0001 333.102,-83.0001"/>
</g>
<!-- Node2 -->
<g id="node3" class="node"><title>Node2</title>
<g id="a_node3"><a xlink:href="structDGtal_1_1ContainerCategory.html" target="_top" xlink:title="DGtal::ContainerCategory">
<polygon fill="white" stroke="black" points="0,-77 0,-96 140,-96 140,-77 0,-77"/>
<text text-anchor="middle" x="70" y="-84" font-family="FreeSans" font-size="10.00">DGtal::ContainerCategory</text>
</a>
</g>
</g>
<!-- Node2&#45;&gt;Node1 -->
<g id="edge2" class="edge"><title>Node2&#45;&gt;Node1</title>
<path fill="none" stroke="midnightblue" d="M150.363,-86.5C158.812,-86.5 167.376,-86.5 175.744,-86.5"/>
<polygon fill="midnightblue" stroke="midnightblue" points="150.134,-83.0001 140.134,-86.5 150.134,-90.0001 150.134,-83.0001"/>
</g>
</g>
</svg>
