<?xml version="1.0" encoding="UTF-8" standalone="no"?>
<!DOCTYPE svg PUBLIC "-//W3C//DTD SVG 1.1//EN"
 "http://www.w3.org/Graphics/SVG/1.1/DTD/svg11.dtd">
<!-- Generated by graphviz version 2.36.0 (20140111.2315)
 -->
<!-- Title: DGtal::NumberTraits&lt; T &gt; Pages: 1 -->
<svg width="177pt" height="266pt"
 viewBox="0.00 0.00 177.00 266.00" xmlns="http://www.w3.org/2000/svg" xmlns:xlink="http://www.w3.org/1999/xlink">
<g id="graph0" class="graph" transform="scale(1 1) rotate(0) translate(4 262)">
<title>DGtal::NumberTraits&lt; T &gt;</title>
<polygon fill="white" stroke="none" points="-4,4 -4,-262 173,-262 173,4 -4,4"/>
<!-- Node5 -->
<g id="node1" class="node"><title>Node5</title>
<polygon fill="#bfbfbf" stroke="black" points="0.5,-0.5 0.5,-19.5 141.5,-19.5 141.5,-0.5 0.5,-0.5"/>
<text text-anchor="middle" x="71" y="-7.5" font-family="FreeSans" font-size="10.00">DGtal::NumberTraits&lt; T &gt;</text>
</g>
<!-- Node6 -->
<g id="node2" class="node"><title>Node6</title>
<g id="a_node2"><a xlink:href="structDGtal_1_1NumberTraitsImpl.html" target="_top" xlink:title="DGtal::NumberTraitsImpl\l\&lt; std::decay\&lt; T \&gt;::type \&gt;">
<polygon fill="white" stroke="black" points="-0.5,-59 -0.5,-89 142.5,-89 142.5,-59 -0.5,-59"/>
<text text-anchor="start" x="7.5" y="-77" font-family="FreeSans" font-size="10.00">DGtal::NumberTraitsImpl</text>
<text text-anchor="middle" x="71" y="-66" font-family="FreeSans" font-size="10.00">&lt; std::decay&lt; T &gt;::type &gt;</text>
</a>
</g>
</g>
<!-- Node6&#45;&gt;Node5 -->
<g id="edge1" class="edge"><title>Node6&#45;&gt;Node5</title>
<path fill="none" stroke="midnightblue" d="M71,-48.8706C71,-38.6625 71,-27.4077 71,-19.8419"/>
<polygon fill="midnightblue" stroke="midnightblue" points="67.5001,-48.9312 71,-58.9312 74.5001,-48.9313 67.5001,-48.9312"/>
</g>
<!-- Node7 -->
<g id="node3" class="node"><title>Node7</title>
<g id="a_node3"><a xlink:href="structDGtal_1_1NumberTraitsImpl.html" target="_top" xlink:title="Aim: The traits class for all models of Cinteger (implementation) ">
<polygon fill="white" stroke="black" points="4,-149 4,-179 138,-179 138,-149 4,-149"/>
<text text-anchor="start" x="12" y="-167" font-family="FreeSans" font-size="10.00">DGtal::NumberTraitsImpl</text>
<text text-anchor="middle" x="71" y="-156" font-family="FreeSans" font-size="10.00">&lt; T, Enable &gt;</text>
</a>
</g>
</g>
<!-- Node7&#45;&gt;Node6 -->
<g id="edge2" class="edge"><title>Node7&#45;&gt;Node6</title>
<path fill="none" stroke="orange" stroke-dasharray="5,2" d="M71,-138.654C71,-122.711 71,-102.434 71,-89.1036"/>
<polygon fill="orange" stroke="orange" points="67.5001,-138.861 71,-148.861 74.5001,-138.861 67.5001,-138.861"/>
<text text-anchor="start" x="71" y="-122" font-family="FreeSans" font-size="10.00"> &lt; std::decay&lt; T &gt;::</text>
<text text-anchor="middle" x="120" y="-111" font-family="FreeSans" font-size="10.00">type &gt;</text>
</g>
<!-- Node8 -->
<g id="node4" class="node"><title>Node8</title>
<polygon fill="white" stroke="#bfbfbf" points="56.5,-238.5 56.5,-257.5 85.5,-257.5 85.5,-238.5 56.5,-238.5"/>
<text text-anchor="middle" x="71" y="-245.5" font-family="FreeSans" font-size="10.00">T</text>
</g>
<!-- Node8&#45;&gt;Node7 -->
<g id="edge3" class="edge"><title>Node8&#45;&gt;Node7</title>
<path fill="none" stroke="#9a32cd" stroke-dasharray="5,2" d="M71,-228.114C71,-213.201 71,-192.72 71,-179.184"/>
<polygon fill="#9a32cd" stroke="#9a32cd" points="67.5001,-228.225 71,-238.225 74.5001,-228.225 67.5001,-228.225"/>
<text text-anchor="middle" x="85" y="-212" font-family="FreeSans" font-size="10.00"> ONE</text>
<text text-anchor="middle" x="85" y="-201" font-family="FreeSans" font-size="10.00">ZERO</text>
</g>
</g>
</svg>
