<?xml version="1.0" encoding="UTF-8" standalone="no"?>
<!DOCTYPE svg PUBLIC "-//W3C//DTD SVG 1.1//EN"
 "http://www.w3.org/Graphics/SVG/1.1/DTD/svg11.dtd">
<!-- Generated by graphviz version 2.38.0 (20140413.2041)
 -->
<!-- Title: DGtal::ChordNaivePlaneComputer&lt; TSpace, TInputPoint, TInternalScalar &gt;::State Pages: 1 -->
<svg width="262pt" height="284pt"
 viewBox="0.00 0.00 262.00 284.00" xmlns="http://www.w3.org/2000/svg" xmlns:xlink="http://www.w3.org/1999/xlink">
<g id="graph0" class="graph" transform="scale(1 1) rotate(0) translate(4 280)">
<title>DGtal::ChordNaivePlaneComputer&lt; TSpace, TInputPoint, TInternalScalar &gt;::State</title>
<polygon fill="white" stroke="none" points="-4,4 -4,-280 258,-280 258,4 -4,4"/>
<!-- Node1 -->
<g id="node1" class="node"><title>Node1</title>
<polygon fill="#bfbfbf" stroke="black" points="0,-0.5 0,-41.5 200,-41.5 200,-0.5 0,-0.5"/>
<text text-anchor="start" x="8" y="-29.5" font-family="FreeSans" font-size="10.00">DGtal::ChordNaivePlaneComputer</text>
<text text-anchor="start" x="8" y="-18.5" font-family="FreeSans" font-size="10.00">&lt; TSpace, TInputPoint, TInternalScalar</text>
<text text-anchor="middle" x="100" y="-7.5" font-family="FreeSans" font-size="10.00"> &gt;::State</text>
</g>
<!-- Node2 -->
<g id="node2" class="node"><title>Node2</title>
<g id="a_node2"><a xlink:href="classDGtal_1_1PointVector.html" target="_top" xlink:title="DGtal::PointVector\l\&lt; 3, InternalScalar \&gt;">
<polygon fill="white" stroke="black" points="41.5,-89.5 41.5,-119.5 158.5,-119.5 158.5,-89.5 41.5,-89.5"/>
<text text-anchor="start" x="49.5" y="-107.5" font-family="FreeSans" font-size="10.00">DGtal::PointVector</text>
<text text-anchor="middle" x="100" y="-96.5" font-family="FreeSans" font-size="10.00">&lt; 3, InternalScalar &gt;</text>
</a>
</g>
</g>
<!-- Node2&#45;&gt;Node1 -->
<g id="edge1" class="edge"><title>Node2&#45;&gt;Node1</title>
<path fill="none" stroke="#9a32cd" stroke-dasharray="5,2" d="M100,-79.0662C100,-67.0614 100,-52.7937 100,-41.5278"/>
<polygon fill="#9a32cd" stroke="#9a32cd" points="96.5001,-79.3037 100,-89.3038 103.5,-79.3038 96.5001,-79.3037"/>
<text text-anchor="middle" x="105.5" y="-63" font-family="FreeSans" font-size="10.00"> N</text>
</g>
<!-- Node3 -->
<g id="node3" class="node"><title>Node3</title>
<polygon fill="white" stroke="#bfbfbf" points="28,-256.5 28,-275.5 96,-275.5 96,-256.5 28,-256.5"/>
<text text-anchor="middle" x="62" y="-263.5" font-family="FreeSans" font-size="10.00">TContainer</text>
</g>
<!-- Node3&#45;&gt;Node2 -->
<g id="edge2" class="edge"><title>Node3&#45;&gt;Node2</title>
<path fill="none" stroke="#9a32cd" stroke-dasharray="5,2" d="M49.5814,-248.027C36.6495,-228.125 19.8472,-194.377 32,-167 40.9769,-146.777 60.2529,-130.384 75.9973,-119.624"/>
<polygon fill="#9a32cd" stroke="#9a32cd" points="46.7579,-250.098 55.3039,-256.361 52.5284,-246.136 46.7579,-250.098"/>
<text text-anchor="middle" x="54" y="-185.5" font-family="FreeSans" font-size="10.00"> myArray</text>
</g>
<!-- Node4 -->
<g id="node4" class="node"><title>Node4</title>
<g id="a_node4"><a xlink:href="classDGtal_1_1PointVector.html" target="_top" xlink:title="Aim: Implements basic operations that will be used in Point and Vector classes. ">
<polygon fill="white" stroke="black" points="85,-167.5 85,-208.5 211,-208.5 211,-167.5 85,-167.5"/>
<text text-anchor="start" x="93" y="-196.5" font-family="FreeSans" font-size="10.00">DGtal::PointVector</text>
<text text-anchor="start" x="93" y="-185.5" font-family="FreeSans" font-size="10.00">&lt; dim, TEuclideanRing,</text>
<text text-anchor="middle" x="148" y="-174.5" font-family="FreeSans" font-size="10.00"> TContainer &gt;</text>
</a>
</g>
</g>
<!-- Node3&#45;&gt;Node4 -->
<g id="edge4" class="edge"><title>Node3&#45;&gt;Node4</title>
<path fill="none" stroke="#9a32cd" stroke-dasharray="5,2" d="M79.4331,-249.594C92.7939,-237.787 111.325,-221.41 125.755,-208.658"/>
<polygon fill="#9a32cd" stroke="#9a32cd" points="77.0409,-247.037 71.8653,-256.282 81.6763,-252.282 77.0409,-247.037"/>
<text text-anchor="middle" x="127" y="-230" font-family="FreeSans" font-size="10.00"> myArray</text>
</g>
<!-- Node4&#45;&gt;Node2 -->
<g id="edge3" class="edge"><title>Node4&#45;&gt;Node2</title>
<path fill="none" stroke="#9a32cd" stroke-dasharray="5,2" d="M108.378,-159.933C105.47,-156.569 102.927,-152.92 101,-149 96.534,-139.916 96.4693,-128.423 97.422,-119.533"/>
<polygon fill="#9a32cd" stroke="#9a32cd" points="106.158,-162.663 115.706,-167.256 111.106,-157.712 106.158,-162.663"/>
<text text-anchor="middle" x="113.5" y="-141" font-family="FreeSans" font-size="10.00"> zero</text>
</g>
<!-- Node4&#45;&gt;Node2 -->
<g id="edge6" class="edge"><title>Node4&#45;&gt;Node2</title>
<path fill="none" stroke="orange" stroke-dasharray="5,2" d="M136.375,-157.861C133.31,-151.169 129.789,-144.202 126,-138 122.158,-131.71 117.25,-125.273 112.735,-119.805"/>
<polygon fill="orange" stroke="orange" points="133.307,-159.583 140.517,-167.347 139.722,-156.782 133.307,-159.583"/>
<text text-anchor="middle" x="183" y="-141" font-family="FreeSans" font-size="10.00"> &lt; 3, InternalScalar &gt;</text>
</g>
<!-- Node4&#45;&gt;Node4 -->
<g id="edge5" class="edge"><title>Node4&#45;&gt;Node4</title>
<path fill="none" stroke="#9a32cd" stroke-dasharray="5,2" d="M221.09,-193.937C226.012,-192.566 229,-190.588 229,-188 229,-183.961 221.719,-181.405 211.168,-180.332"/>
<polygon fill="#9a32cd" stroke="#9a32cd" points="220.418,-190.501 211.168,-195.668 221.621,-197.397 220.418,-190.501"/>
<text text-anchor="middle" x="241.5" y="-185.5" font-family="FreeSans" font-size="10.00"> zero</text>
</g>
</g>
</svg>
