<?xml version="1.0" encoding="UTF-8" standalone="no"?>
<!DOCTYPE svg PUBLIC "-//W3C//DTD SVG 1.1//EN"
 "http://www.w3.org/Graphics/SVG/1.1/DTD/svg11.dtd">
<!-- Generated by graphviz version 2.38.0 (20140413.2041)
 -->
<!-- Title: DGtal::BidirectionalCategory Pages: 1 -->
<svg width="175pt" height="140pt"
 viewBox="0.00 0.00 175.00 140.00" xmlns="http://www.w3.org/2000/svg" xmlns:xlink="http://www.w3.org/1999/xlink">
<g id="graph0" class="graph" transform="scale(1 1) rotate(0) translate(4 136)">
<title>DGtal::BidirectionalCategory</title>
<polygon fill="white" stroke="none" points="-4,4 -4,-136 171,-136 171,4 -4,4"/>
<!-- Node0 -->
<g id="node1" class="node"><title>Node0</title>
<polygon fill="#bfbfbf" stroke="black" points="7.5,-56.5 7.5,-75.5 159.5,-75.5 159.5,-56.5 7.5,-56.5"/>
<text text-anchor="middle" x="83.5" y="-63.5" font-family="FreeSans" font-size="10.00">DGtal::BidirectionalCategory</text>
</g>
<!-- Node2 -->
<g id="node3" class="node"><title>Node2</title>
<g id="a_node3"><a xlink:href="structDGtal_1_1RandomAccessCategory.html" target="_top" xlink:title="DGtal::RandomAccessCategory">
<polygon fill="white" stroke="black" points="-1.42109e-14,-0.5 -1.42109e-14,-19.5 167,-19.5 167,-0.5 -1.42109e-14,-0.5"/>
<text text-anchor="middle" x="83.5" y="-7.5" font-family="FreeSans" font-size="10.00">DGtal::RandomAccessCategory</text>
</a>
</g>
</g>
<!-- Node0&#45;&gt;Node2 -->
<g id="edge2" class="edge"><title>Node0&#45;&gt;Node2</title>
<path fill="none" stroke="midnightblue" d="M83.5,-45.8045C83.5,-36.9102 83.5,-26.7798 83.5,-19.7511"/>
<polygon fill="midnightblue" stroke="midnightblue" points="80.0001,-46.083 83.5,-56.083 87.0001,-46.083 80.0001,-46.083"/>
</g>
<!-- Node1 -->
<g id="node2" class="node"><title>Node1</title>
<g id="a_node2"><a xlink:href="structDGtal_1_1ForwardCategory.html" target="_top" xlink:title="DGtal::ForwardCategory">
<polygon fill="white" stroke="black" points="18,-112.5 18,-131.5 149,-131.5 149,-112.5 18,-112.5"/>
<text text-anchor="middle" x="83.5" y="-119.5" font-family="FreeSans" font-size="10.00">DGtal::ForwardCategory</text>
</a>
</g>
</g>
<!-- Node1&#45;&gt;Node0 -->
<g id="edge1" class="edge"><title>Node1&#45;&gt;Node0</title>
<path fill="none" stroke="midnightblue" d="M83.5,-101.805C83.5,-92.9102 83.5,-82.7798 83.5,-75.7511"/>
<polygon fill="midnightblue" stroke="midnightblue" points="80.0001,-102.083 83.5,-112.083 87.0001,-102.083 80.0001,-102.083"/>
</g>
</g>
</svg>
