<?xml version="1.0" encoding="UTF-8" standalone="no"?>
<!DOCTYPE svg PUBLIC "-//W3C//DTD SVG 1.1//EN"
 "http://www.w3.org/Graphics/SVG/1.1/DTD/svg11.dtd">
<!-- Generated by graphviz version 2.38.0 (20140413.2041)
 -->
<!-- Title: DGtal::functors::NotPointPredicate&lt; TPointPredicate &gt; Pages: 1 -->
<svg width="246pt" height="117pt"
 viewBox="0.00 0.00 245.50 117.00" xmlns="http://www.w3.org/2000/svg" xmlns:xlink="http://www.w3.org/1999/xlink">
<g id="graph0" class="graph" transform="scale(1 1) rotate(0) translate(4 113)">
<title>DGtal::functors::NotPointPredicate&lt; TPointPredicate &gt;</title>
<polygon fill="white" stroke="none" points="-4,4 -4,-113 241.5,-113 241.5,4 -4,4"/>
<!-- Node0 -->
<g id="node1" class="node"><title>Node0</title>
<polygon fill="#bfbfbf" stroke="black" points="19.5,-78.5 19.5,-108.5 177.5,-108.5 177.5,-78.5 19.5,-78.5"/>
<text text-anchor="start" x="27.5" y="-96.5" font-family="FreeSans" font-size="10.00">DGtal::functors::NotPoint</text>
<text text-anchor="middle" x="98.5" y="-85.5" font-family="FreeSans" font-size="10.00">Predicate&lt; TPointPredicate &gt;</text>
</g>
<!-- Node1 -->
<g id="node2" class="node"><title>Node1</title>
<g id="a_node2"><a xlink:href="structDGtal_1_1functors_1_1NotPointPredicate.html" target="_top" xlink:title="DGtal::functors::NotPoint\lPredicate\&lt; InCoreDomainPredicate \&gt;">
<polygon fill="white" stroke="black" points="0,-0.5 0,-30.5 197,-30.5 197,-0.5 0,-0.5"/>
<text text-anchor="start" x="8" y="-18.5" font-family="FreeSans" font-size="10.00">DGtal::functors::NotPoint</text>
<text text-anchor="middle" x="98.5" y="-7.5" font-family="FreeSans" font-size="10.00">Predicate&lt; InCoreDomainPredicate &gt;</text>
</a>
</g>
</g>
<!-- Node0&#45;&gt;Node1 -->
<g id="edge1" class="edge"><title>Node0&#45;&gt;Node1</title>
<path fill="none" stroke="orange" stroke-dasharray="5,2" d="M98.5,-68.0898C98.5,-55.7565 98.5,-41.2237 98.5,-30.7309"/>
<polygon fill="orange" stroke="orange" points="95.0001,-68.2049 98.5,-78.205 102,-68.205 95.0001,-68.2049"/>
<text text-anchor="middle" x="168" y="-52" font-family="FreeSans" font-size="10.00"> &lt; InCoreDomainPredicate &gt;</text>
</g>
</g>
</svg>
