<?xml version="1.0" encoding="UTF-8" standalone="no"?>
<!DOCTYPE svg PUBLIC "-//W3C//DTD SVG 1.1//EN"
 "http://www.w3.org/Graphics/SVG/1.1/DTD/svg11.dtd">
<!-- Generated by graphviz version 2.38.0 (20140413.2041)
 -->
<!-- Title: DGtal::RayIntersectionPredicate&lt; TPoint &gt; Pages: 1 -->
<svg width="176pt" height="117pt"
 viewBox="0.00 0.00 176.00 117.00" xmlns="http://www.w3.org/2000/svg" xmlns:xlink="http://www.w3.org/1999/xlink">
<g id="graph0" class="graph" transform="scale(1 1) rotate(0) translate(4 113)">
<title>DGtal::RayIntersectionPredicate&lt; TPoint &gt;</title>
<polygon fill="white" stroke="none" points="-4,4 -4,-113 172,-113 172,4 -4,4"/>
<!-- Node1 -->
<g id="node1" class="node"><title>Node1</title>
<polygon fill="#bfbfbf" stroke="black" points="-1.42109e-14,-0.5 -1.42109e-14,-30.5 168,-30.5 168,-0.5 -1.42109e-14,-0.5"/>
<text text-anchor="start" x="8" y="-18.5" font-family="FreeSans" font-size="10.00">DGtal::RayIntersectionPredicate</text>
<text text-anchor="middle" x="84" y="-7.5" font-family="FreeSans" font-size="10.00">&lt; TPoint &gt;</text>
</g>
<!-- Node2 -->
<g id="node2" class="node"><title>Node2</title>
<polygon fill="white" stroke="#bfbfbf" points="61,-89.5 61,-108.5 107,-108.5 107,-89.5 61,-89.5"/>
<text text-anchor="middle" x="84" y="-96.5" font-family="FreeSans" font-size="10.00">TPoint</text>
</g>
<!-- Node2&#45;&gt;Node1 -->
<g id="edge1" class="edge"><title>Node2&#45;&gt;Node1</title>
<path fill="none" stroke="#9a32cd" stroke-dasharray="5,2" d="M84,-79.229C84,-64.4075 84,-44.0505 84,-30.5974"/>
<polygon fill="#9a32cd" stroke="#9a32cd" points="80.5001,-79.278 84,-89.2781 87.5001,-79.2781 80.5001,-79.278"/>
<text text-anchor="middle" x="105.5" y="-63" font-family="FreeSans" font-size="10.00"> myDest</text>
<text text-anchor="middle" x="105.5" y="-52" font-family="FreeSans" font-size="10.00">myOrigin</text>
</g>
</g>
</svg>
