<?xml version="1.0" encoding="UTF-8" standalone="no"?>
<!DOCTYPE svg PUBLIC "-//W3C//DTD SVG 1.1//EN"
 "http://www.w3.org/Graphics/SVG/1.1/DTD/svg11.dtd">
<!-- Generated by graphviz version 2.38.0 (20140413.2041)
 -->
<!-- Title: DGtal::functors::IIGaussianCurvature3DFunctor&lt; TSpace, TMatrix &gt; Pages: 1 -->
<svg width="195pt" height="206pt"
 viewBox="0.00 0.00 195.00 206.00" xmlns="http://www.w3.org/2000/svg" xmlns:xlink="http://www.w3.org/1999/xlink">
<g id="graph0" class="graph" transform="scale(1 1) rotate(0) translate(4 202)">
<title>DGtal::functors::IIGaussianCurvature3DFunctor&lt; TSpace, TMatrix &gt;</title>
<polygon fill="white" stroke="none" points="-4,4 -4,-202 191,-202 191,4 -4,4"/>
<!-- Node1 -->
<g id="node1" class="node"><title>Node1</title>
<polygon fill="#bfbfbf" stroke="black" points="0,-0.5 0,-41.5 162,-41.5 162,-0.5 0,-0.5"/>
<text text-anchor="start" x="8" y="-29.5" font-family="FreeSans" font-size="10.00">DGtal::functors::IIGaussian</text>
<text text-anchor="start" x="8" y="-18.5" font-family="FreeSans" font-size="10.00">Curvature3DFunctor&lt; TSpace,</text>
<text text-anchor="middle" x="81" y="-7.5" font-family="FreeSans" font-size="10.00"> TMatrix &gt;</text>
</g>
<!-- Node2 -->
<g id="node2" class="node"><title>Node2</title>
<g id="a_node2"><a xlink:href="classDGtal_1_1PointVector.html" target="_top" xlink:title="Aim: Implements basic operations that will be used in Point and Vector classes. ">
<polygon fill="white" stroke="black" points="18,-89.5 18,-130.5 144,-130.5 144,-89.5 18,-89.5"/>
<text text-anchor="start" x="26" y="-118.5" font-family="FreeSans" font-size="10.00">DGtal::PointVector</text>
<text text-anchor="start" x="26" y="-107.5" font-family="FreeSans" font-size="10.00">&lt; dim, TEuclideanRing,</text>
<text text-anchor="middle" x="81" y="-96.5" font-family="FreeSans" font-size="10.00"> TContainer &gt;</text>
</a>
</g>
</g>
<!-- Node2&#45;&gt;Node1 -->
<g id="edge1" class="edge"><title>Node2&#45;&gt;Node1</title>
<path fill="none" stroke="#9a32cd" stroke-dasharray="5,2" d="M81,-78.9407C81,-66.6014 81,-52.6619 81,-41.6635"/>
<polygon fill="#9a32cd" stroke="#9a32cd" points="77.5001,-79.2583 81,-89.2584 84.5001,-79.2584 77.5001,-79.2583"/>
<text text-anchor="middle" x="111.5" y="-63" font-family="FreeSans" font-size="10.00"> eigenValues</text>
</g>
<!-- Node2&#45;&gt;Node2 -->
<g id="edge3" class="edge"><title>Node2&#45;&gt;Node2</title>
<path fill="none" stroke="#9a32cd" stroke-dasharray="5,2" d="M154.09,-115.937C159.012,-114.566 162,-112.588 162,-110 162,-105.961 154.719,-103.405 144.168,-102.332"/>
<polygon fill="#9a32cd" stroke="#9a32cd" points="153.418,-112.501 144.168,-117.668 154.621,-119.397 153.418,-112.501"/>
<text text-anchor="middle" x="174.5" y="-107.5" font-family="FreeSans" font-size="10.00"> zero</text>
</g>
<!-- Node3 -->
<g id="node3" class="node"><title>Node3</title>
<polygon fill="white" stroke="#bfbfbf" points="47,-178.5 47,-197.5 115,-197.5 115,-178.5 47,-178.5"/>
<text text-anchor="middle" x="81" y="-185.5" font-family="FreeSans" font-size="10.00">TContainer</text>
</g>
<!-- Node3&#45;&gt;Node2 -->
<g id="edge2" class="edge"><title>Node3&#45;&gt;Node2</title>
<path fill="none" stroke="#9a32cd" stroke-dasharray="5,2" d="M81,-168.137C81,-156.729 81,-142.207 81,-130.658"/>
<polygon fill="#9a32cd" stroke="#9a32cd" points="77.5001,-168.282 81,-178.282 84.5001,-168.282 77.5001,-168.282"/>
<text text-anchor="middle" x="103" y="-152" font-family="FreeSans" font-size="10.00"> myArray</text>
</g>
</g>
</svg>
