<?xml version="1.0" encoding="UTF-8" standalone="no"?>
<!DOCTYPE svg PUBLIC "-//W3C//DTD SVG 1.1//EN"
 "http://www.w3.org/Graphics/SVG/1.1/DTD/svg11.dtd">
<!-- Generated by graphviz version 2.38.0 (20140413.2041)
 -->
<!-- Title: DGtal::concepts::COrientationFunctor2&lt; T &gt; Pages: 1 -->
<svg width="465pt" height="454pt"
 viewBox="0.00 0.00 465.00 454.00" xmlns="http://www.w3.org/2000/svg" xmlns:xlink="http://www.w3.org/1999/xlink">
<g id="graph0" class="graph" transform="scale(1 1) rotate(0) translate(4 450)">
<title>DGtal::concepts::COrientationFunctor2&lt; T &gt;</title>
<polygon fill="white" stroke="none" points="-4,4 -4,-450 461,-450 461,4 -4,4"/>
<!-- Node7 -->
<g id="node1" class="node"><title>Node7</title>
<polygon fill="#bfbfbf" stroke="black" points="298,-0.5 298,-30.5 457,-30.5 457,-0.5 298,-0.5"/>
<text text-anchor="start" x="306" y="-18.5" font-family="FreeSans" font-size="10.00">DGtal::concepts::COrientation</text>
<text text-anchor="middle" x="377.5" y="-7.5" font-family="FreeSans" font-size="10.00">Functor2&lt; T &gt;</text>
</g>
<!-- Node8 -->
<g id="node2" class="node"><title>Node8</title>
<g id="a_node2"><a xlink:href="structDGtal_1_1concepts_1_1COrientationFunctor.html" target="_top" xlink:title="Aim: This concept gathers models implementing an orientation test of &#160;points in a space of dimension ...">
<polygon fill="white" stroke="black" points="224,-68.5 224,-98.5 383,-98.5 383,-68.5 224,-68.5"/>
<text text-anchor="start" x="232" y="-86.5" font-family="FreeSans" font-size="10.00">DGtal::concepts::COrientation</text>
<text text-anchor="middle" x="303.5" y="-75.5" font-family="FreeSans" font-size="10.00">Functor&lt; T &gt;</text>
</a>
</g>
</g>
<!-- Node8&#45;&gt;Node7 -->
<g id="edge1" class="edge"><title>Node8&#45;&gt;Node7</title>
<path fill="none" stroke="midnightblue" d="M327.025,-61.5184C338.353,-51.4145 351.634,-39.5696 361.729,-30.5663"/>
<polygon fill="midnightblue" stroke="midnightblue" points="324.69,-58.9108 319.557,-68.179 329.35,-64.1348 324.69,-58.9108"/>
</g>
<!-- Node9 -->
<g id="node3" class="node"><title>Node9</title>
<g id="a_node3"><a xlink:href="structDGtal_1_1concepts_1_1CPointFunctor.html" target="_top" xlink:title="Aim: Defines a functor on points. ">
<polygon fill="white" stroke="black" points="138,-136.5 138,-155.5 331,-155.5 331,-136.5 138,-136.5"/>
<text text-anchor="middle" x="234.5" y="-143.5" font-family="FreeSans" font-size="10.00">DGtal::concepts::CPointFunctor&lt; T &gt;</text>
</a>
</g>
</g>
<!-- Node9&#45;&gt;Node8 -->
<g id="edge2" class="edge"><title>Node9&#45;&gt;Node8</title>
<path fill="none" stroke="midnightblue" d="M252.041,-129.62C262.958,-120.048 276.89,-107.832 287.503,-98.526"/>
<polygon fill="midnightblue" stroke="midnightblue" points="249.598,-127.107 244.386,-136.332 254.213,-132.371 249.598,-127.107"/>
</g>
<!-- Node10 -->
<g id="node4" class="node"><title>Node10</title>
<g id="a_node4"><a xlink:href="structDGtal_1_1concepts_1_1CUnaryFunctor.html" target="_top" xlink:title="DGtal::concepts::CUnaryFunctor\l\&lt; T, T::Point, T::Value \&gt;">
<polygon fill="white" stroke="black" points="122.5,-203.5 122.5,-233.5 292.5,-233.5 292.5,-203.5 122.5,-203.5"/>
<text text-anchor="start" x="130.5" y="-221.5" font-family="FreeSans" font-size="10.00">DGtal::concepts::CUnaryFunctor</text>
<text text-anchor="middle" x="207.5" y="-210.5" font-family="FreeSans" font-size="10.00">&lt; T, T::Point, T::Value &gt;</text>
</a>
</g>
</g>
<!-- Node10&#45;&gt;Node9 -->
<g id="edge3" class="edge"><title>Node10&#45;&gt;Node9</title>
<path fill="none" stroke="midnightblue" d="M216.553,-193.861C221.549,-180.817 227.46,-165.383 231.094,-155.893"/>
<polygon fill="midnightblue" stroke="midnightblue" points="213.272,-192.643 212.964,-203.233 219.809,-195.146 213.272,-192.643"/>
</g>
<!-- Node11 -->
<g id="node5" class="node"><title>Node11</title>
<g id="a_node5"><a xlink:href="structboost_1_1Assignable.html" target="_top" xlink:title="Go to http://www.sgi.com/tech/stl/Assignable.html. ">
<polygon fill="white" stroke="black" points="0,-426.5 0,-445.5 129,-445.5 129,-426.5 0,-426.5"/>
<text text-anchor="middle" x="64.5" y="-433.5" font-family="FreeSans" font-size="10.00">boost::Assignable&lt; T &gt;</text>
</a>
</g>
</g>
<!-- Node11&#45;&gt;Node10 -->
<g id="edge4" class="edge"><title>Node11&#45;&gt;Node10</title>
<path fill="none" stroke="midnightblue" d="M56.2187,-416.576C50.3523,-400.766 44.7747,-377.65 52.5,-359 77.2994,-299.129 143.199,-254.781 180.598,-233.52"/>
<polygon fill="midnightblue" stroke="midnightblue" points="53.1358,-418.283 60.1663,-426.209 59.613,-415.629 53.1358,-418.283"/>
</g>
<!-- Node14 -->
<g id="node8" class="node"><title>Node14</title>
<g id="a_node8"><a xlink:href="structboost_1_1Assignable.html" target="_top" xlink:title="boost::Assignable\&lt; X \&gt;">
<polygon fill="white" stroke="black" points="61.5,-359.5 61.5,-378.5 191.5,-378.5 191.5,-359.5 61.5,-359.5"/>
<text text-anchor="middle" x="126.5" y="-366.5" font-family="FreeSans" font-size="10.00">boost::Assignable&lt; X &gt;</text>
</a>
</g>
</g>
<!-- Node11&#45;&gt;Node14 -->
<g id="edge8" class="edge"><title>Node11&#45;&gt;Node14</title>
<path fill="none" stroke="orange" stroke-dasharray="5,2" d="M79.7646,-418.997C91.9235,-406.25 108.477,-388.895 118.271,-378.627"/>
<polygon fill="orange" stroke="orange" points="77.2311,-416.582 72.8616,-426.234 82.2964,-421.413 77.2311,-416.582"/>
<text text-anchor="middle" x="115.5" y="-400" font-family="FreeSans" font-size="10.00"> &lt; X &gt;</text>
</g>
<!-- Node12 -->
<g id="node6" class="node"><title>Node12</title>
<polygon fill="white" stroke="#bfbfbf" points="350,-287 350,-306 379,-306 379,-287 350,-287"/>
<text text-anchor="middle" x="364.5" y="-294" font-family="FreeSans" font-size="10.00">T</text>
</g>
<!-- Node12&#45;&gt;Node7 -->
<g id="edge13" class="edge"><title>Node12&#45;&gt;Node7</title>
<path fill="none" stroke="#9a32cd" stroke-dasharray="5,2" d="M381.506,-279.234C394.608,-264.889 410.5,-242.707 410.5,-219.5 410.5,-219.5 410.5,-219.5 410.5,-82.5 410.5,-63.0276 398.866,-43.4111 389.414,-30.6864"/>
<polygon fill="#9a32cd" stroke="#9a32cd" points="378.697,-277.104 374.255,-286.723 383.726,-281.973 378.697,-277.104"/>
<text text-anchor="middle" x="423" y="-143.5" font-family="FreeSans" font-size="10.00"> myX</text>
</g>
<!-- Node12&#45;&gt;Node8 -->
<g id="edge12" class="edge"><title>Node12&#45;&gt;Node8</title>
<path fill="none" stroke="#9a32cd" stroke-dasharray="5,2" d="M364.272,-276.76C363.314,-246.194 358.901,-184.185 339.5,-136 333.959,-122.238 324.145,-108.563 316.162,-98.7672"/>
<polygon fill="#9a32cd" stroke="#9a32cd" points="360.774,-276.92 364.494,-286.84 367.773,-276.766 360.774,-276.92"/>
<text text-anchor="middle" x="367" y="-177" font-family="FreeSans" font-size="10.00"> myX</text>
</g>
<!-- Node12&#45;&gt;Node10 -->
<g id="edge5" class="edge"><title>Node12&#45;&gt;Node10</title>
<path fill="none" stroke="#9a32cd" stroke-dasharray="5,2" d="M350.775,-279.137C342.314,-269.986 330.761,-259.039 318.5,-252 305.004,-244.252 289.506,-238.217 274.456,-233.567"/>
<polygon fill="#9a32cd" stroke="#9a32cd" points="348.364,-281.695 357.607,-286.873 353.61,-277.061 348.364,-281.695"/>
<text text-anchor="middle" x="338" y="-255" font-family="FreeSans" font-size="10.00"> x</text>
</g>
<!-- Node13 -->
<g id="node7" class="node"><title>Node13</title>
<g id="a_node7"><a xlink:href="structDGtal_1_1concepts_1_1CUnaryFunctor.html" target="_top" xlink:title="Aim: Defines a unary functor, which associates arguments to results. ">
<polygon fill="white" stroke="black" points="139.5,-281.5 139.5,-311.5 309.5,-311.5 309.5,-281.5 139.5,-281.5"/>
<text text-anchor="start" x="147.5" y="-299.5" font-family="FreeSans" font-size="10.00">DGtal::concepts::CUnaryFunctor</text>
<text text-anchor="middle" x="224.5" y="-288.5" font-family="FreeSans" font-size="10.00">&lt; X, A, R &gt;</text>
</a>
</g>
</g>
<!-- Node13&#45;&gt;Node10 -->
<g id="edge6" class="edge"><title>Node13&#45;&gt;Node10</title>
<path fill="none" stroke="orange" stroke-dasharray="5,2" d="M207.436,-272.493C205.83,-269.425 204.45,-266.222 203.5,-263 200.711,-253.544 201.786,-242.474 203.52,-233.868"/>
<polygon fill="orange" stroke="orange" points="204.536,-274.46 212.727,-281.181 210.515,-270.82 204.536,-274.46"/>
<text text-anchor="middle" x="261" y="-255" font-family="FreeSans" font-size="10.00"> &lt; T, T::Point, T::Value &gt;</text>
</g>
<!-- Node14&#45;&gt;Node13 -->
<g id="edge7" class="edge"><title>Node14&#45;&gt;Node13</title>
<path fill="none" stroke="midnightblue" d="M146.704,-353.465C163.768,-341.19 188.053,-323.72 204.933,-311.576"/>
<polygon fill="midnightblue" stroke="midnightblue" points="144.591,-350.674 138.517,-359.355 148.678,-356.357 144.591,-350.674"/>
</g>
<!-- Node15 -->
<g id="node9" class="node"><title>Node15</title>
<polygon fill="white" stroke="#bfbfbf" points="210,-359.5 210,-378.5 239,-378.5 239,-359.5 210,-359.5"/>
<text text-anchor="middle" x="224.5" y="-366.5" font-family="FreeSans" font-size="10.00">X</text>
</g>
<!-- Node15&#45;&gt;Node13 -->
<g id="edge9" class="edge"><title>Node15&#45;&gt;Node13</title>
<path fill="none" stroke="#9a32cd" stroke-dasharray="5,2" d="M224.5,-349.236C224.5,-337.408 224.5,-322.383 224.5,-311.576"/>
<polygon fill="#9a32cd" stroke="#9a32cd" points="221,-349.355 224.5,-359.355 228,-349.355 221,-349.355"/>
<text text-anchor="middle" x="229" y="-333" font-family="FreeSans" font-size="10.00"> x</text>
</g>
<!-- Node16 -->
<g id="node10" class="node"><title>Node16</title>
<polygon fill="white" stroke="#bfbfbf" points="257,-359.5 257,-378.5 286,-378.5 286,-359.5 257,-359.5"/>
<text text-anchor="middle" x="271.5" y="-366.5" font-family="FreeSans" font-size="10.00">R</text>
</g>
<!-- Node16&#45;&gt;Node13 -->
<g id="edge10" class="edge"><title>Node16&#45;&gt;Node13</title>
<path fill="none" stroke="#9a32cd" stroke-dasharray="5,2" d="M259.955,-350.683C251.936,-338.654 241.386,-322.829 233.884,-311.576"/>
<polygon fill="#9a32cd" stroke="#9a32cd" points="257.278,-352.976 265.737,-359.355 263.102,-349.093 257.278,-352.976"/>
<text text-anchor="middle" x="256" y="-333" font-family="FreeSans" font-size="10.00"> r</text>
</g>
<!-- Node17 -->
<g id="node11" class="node"><title>Node17</title>
<polygon fill="white" stroke="#bfbfbf" points="304,-359.5 304,-378.5 333,-378.5 333,-359.5 304,-359.5"/>
<text text-anchor="middle" x="318.5" y="-366.5" font-family="FreeSans" font-size="10.00">A</text>
</g>
<!-- Node17&#45;&gt;Node13 -->
<g id="edge11" class="edge"><title>Node17&#45;&gt;Node13</title>
<path fill="none" stroke="#9a32cd" stroke-dasharray="5,2" d="M298.668,-353.126C282.326,-340.87 259.311,-323.608 243.268,-311.576"/>
<polygon fill="#9a32cd" stroke="#9a32cd" points="296.874,-356.155 306.974,-359.355 301.074,-350.555 296.874,-356.155"/>
<text text-anchor="middle" x="285.5" y="-333" font-family="FreeSans" font-size="10.00"> a</text>
</g>
</g>
</svg>
