<?xml version="1.0" encoding="UTF-8" standalone="no"?>
<!DOCTYPE svg PUBLIC "-//W3C//DTD SVG 1.1//EN"
 "http://www.w3.org/Graphics/SVG/1.1/DTD/svg11.dtd">
<!-- Generated by graphviz version 2.38.0 (20140413.2041)
 -->
<!-- Title: DGtal::concepts::CPreCellularGridSpaceND&lt; T &gt; Pages: 1 -->
<svg width="413pt" height="106pt"
 viewBox="0.00 0.00 413.00 106.00" xmlns="http://www.w3.org/2000/svg" xmlns:xlink="http://www.w3.org/1999/xlink">
<g id="graph0" class="graph" transform="scale(1 1) rotate(0) translate(4 102)">
<title>DGtal::concepts::CPreCellularGridSpaceND&lt; T &gt;</title>
<polygon fill="white" stroke="none" points="-4,4 -4,-102 409,-102 409,4 -4,4"/>
<!-- Node4 -->
<g id="node1" class="node"><title>Node4</title>
<polygon fill="#bfbfbf" stroke="black" points="197,-0.5 197,-30.5 354,-30.5 354,-0.5 197,-0.5"/>
<text text-anchor="start" x="205" y="-18.5" font-family="FreeSans" font-size="10.00">DGtal::concepts::CPreCellular</text>
<text text-anchor="middle" x="275.5" y="-7.5" font-family="FreeSans" font-size="10.00">GridSpaceND&lt; T &gt;</text>
</g>
<!-- Node5 -->
<g id="node2" class="node"><title>Node5</title>
<g id="a_node2"><a xlink:href="structboost_1_1DefaultConstructible.html" target="_top" xlink:title="Go to http://www.sgi.com/tech/stl/DefaultConstructible.html. ">
<polygon fill="white" stroke="black" points="0,-78.5 0,-97.5 175,-97.5 175,-78.5 0,-78.5"/>
<text text-anchor="middle" x="87.5" y="-85.5" font-family="FreeSans" font-size="10.00">boost::DefaultConstructible&lt; T &gt;</text>
</a>
</g>
</g>
<!-- Node5&#45;&gt;Node4 -->
<g id="edge1" class="edge"><title>Node5&#45;&gt;Node4</title>
<path fill="none" stroke="midnightblue" d="M119.76,-74.9026C152.628,-62.577 203.554,-43.4797 238.151,-30.5059"/>
<polygon fill="midnightblue" stroke="midnightblue" points="118.312,-71.7076 110.177,-78.4961 120.769,-78.2619 118.312,-71.7076"/>
</g>
<!-- Node6 -->
<g id="node3" class="node"><title>Node6</title>
<g id="a_node3"><a xlink:href="structboost_1_1CopyConstructible.html" target="_top" xlink:title="Go to http://www.sgi.com/tech/stl/CopyConstructible.html. ">
<polygon fill="white" stroke="black" points="193.5,-78.5 193.5,-97.5 357.5,-97.5 357.5,-78.5 193.5,-78.5"/>
<text text-anchor="middle" x="275.5" y="-85.5" font-family="FreeSans" font-size="10.00">boost::CopyConstructible&lt; T &gt;</text>
</a>
</g>
</g>
<!-- Node6&#45;&gt;Node4 -->
<g id="edge2" class="edge"><title>Node6&#45;&gt;Node4</title>
<path fill="none" stroke="midnightblue" d="M275.5,-68.2362C275.5,-56.4079 275.5,-41.3829 275.5,-30.5762"/>
<polygon fill="midnightblue" stroke="midnightblue" points="272,-68.3553 275.5,-78.3553 279,-68.3554 272,-68.3553"/>
</g>
<!-- Node7 -->
<g id="node4" class="node"><title>Node7</title>
<polygon fill="white" stroke="#bfbfbf" points="376,-78.5 376,-97.5 405,-97.5 405,-78.5 376,-78.5"/>
<text text-anchor="middle" x="390.5" y="-85.5" font-family="FreeSans" font-size="10.00">T</text>
</g>
<!-- Node7&#45;&gt;Node4 -->
<g id="edge3" class="edge"><title>Node7&#45;&gt;Node4</title>
<path fill="none" stroke="#9a32cd" stroke-dasharray="5,2" d="M367.613,-72.9691C347.553,-60.6718 318.543,-42.8869 298.461,-30.5762"/>
<polygon fill="#9a32cd" stroke="#9a32cd" points="366.044,-76.1127 376.399,-78.3553 369.703,-70.1449 366.044,-76.1127"/>
<text text-anchor="middle" x="356" y="-52" font-family="FreeSans" font-size="10.00"> myX</text>
</g>
</g>
</svg>
