<?xml version="1.0" encoding="UTF-8" standalone="no"?>
<!DOCTYPE svg PUBLIC "-//W3C//DTD SVG 1.1//EN"
 "http://www.w3.org/Graphics/SVG/1.1/DTD/svg11.dtd">
<!-- Generated by graphviz version 2.38.0 (20140413.2041)
 -->
<!-- Title: DGtal::UnorderedSetByBlock&lt; Key, TSplitter, Hash, KeyEqual, UnorderedMapAllocator &gt; Pages: 1 -->
<svg width="540pt" height="119pt"
 viewBox="0.00 0.00 540.00 118.50" xmlns="http://www.w3.org/2000/svg" xmlns:xlink="http://www.w3.org/1999/xlink">
<g id="graph0" class="graph" transform="scale(1 1) rotate(0) translate(4 114.5)">
<title>DGtal::UnorderedSetByBlock&lt; Key, TSplitter, Hash, KeyEqual, UnorderedMapAllocator &gt;</title>
<polygon fill="white" stroke="none" points="-4,4 -4,-114.5 536,-114.5 536,4 -4,4"/>
<!-- Node0 -->
<g id="node1" class="node"><title>Node0</title>
<polygon fill="#bfbfbf" stroke="black" points="0,-25 0,-66 193,-66 193,-25 0,-25"/>
<text text-anchor="start" x="8" y="-54" font-family="FreeSans" font-size="10.00">DGtal::UnorderedSetByBlock</text>
<text text-anchor="start" x="8" y="-43" font-family="FreeSans" font-size="10.00">&lt; Key, TSplitter, Hash,</text>
<text text-anchor="middle" x="96.5" y="-32" font-family="FreeSans" font-size="10.00"> KeyEqual, UnorderedMapAllocator &gt;</text>
</g>
<!-- Node1 -->
<g id="node2" class="node"><title>Node1</title>
<g id="a_node2"><a xlink:href="structDGtal_1_1UnorderedSetByBlock.html" target="_top" xlink:title="DGtal::UnorderedSetByBlock\l\&lt; PointVector\&lt; dim, Integer\l \&gt;, DGtal::Splitter\&lt; PointVector\l\&lt; dim, Integer \&gt;, uint64_t \&gt; \&gt;">
<polygon fill="white" stroke="black" points="365,-49.5 365,-101.5 532,-101.5 532,-49.5 365,-49.5"/>
<text text-anchor="start" x="373" y="-89.5" font-family="FreeSans" font-size="10.00">DGtal::UnorderedSetByBlock</text>
<text text-anchor="start" x="373" y="-78.5" font-family="FreeSans" font-size="10.00">&lt; PointVector&lt; dim, Integer</text>
<text text-anchor="start" x="373" y="-67.5" font-family="FreeSans" font-size="10.00"> &gt;, DGtal::Splitter&lt; PointVector</text>
<text text-anchor="middle" x="448.5" y="-56.5" font-family="FreeSans" font-size="10.00">&lt; dim, Integer &gt;, uint64_t &gt; &gt;</text>
</a>
</g>
</g>
<!-- Node0&#45;&gt;Node1 -->
<g id="edge1" class="edge"><title>Node0&#45;&gt;Node1</title>
<path fill="none" stroke="orange" stroke-dasharray="5,2" d="M203.356,-54.5734C255.118,-59.0101 316.497,-64.2712 364.763,-68.4082"/>
<polygon fill="orange" stroke="orange" points="203.401,-51.0645 193.139,-53.6976 202.804,-58.0389 203.401,-51.0645"/>
<text text-anchor="start" x="211" y="-102.5" font-family="FreeSans" font-size="10.00"> &lt; PointVector&lt; dim,</text>
<text text-anchor="start" x="211" y="-91.5" font-family="FreeSans" font-size="10.00"> Integer &gt;, DGtal::Splitter</text>
<text text-anchor="start" x="211" y="-80.5" font-family="FreeSans" font-size="10.00">&lt; PointVector&lt; dim, Integer</text>
<text text-anchor="middle" x="279" y="-69.5" font-family="FreeSans" font-size="10.00"> &gt;, uint64_t &gt; &gt;</text>
</g>
<!-- Node2 -->
<g id="node3" class="node"><title>Node2</title>
<g id="a_node3"><a xlink:href="structDGtal_1_1UnorderedSetByBlock.html" target="_top" xlink:title="DGtal::UnorderedSetByBlock\l\&lt; Point \&gt;">
<polygon fill="white" stroke="black" points="371,-0.5 371,-30.5 526,-30.5 526,-0.5 371,-0.5"/>
<text text-anchor="start" x="379" y="-18.5" font-family="FreeSans" font-size="10.00">DGtal::UnorderedSetByBlock</text>
<text text-anchor="middle" x="448.5" y="-7.5" font-family="FreeSans" font-size="10.00">&lt; Point &gt;</text>
</a>
</g>
</g>
<!-- Node0&#45;&gt;Node2 -->
<g id="edge2" class="edge"><title>Node0&#45;&gt;Node2</title>
<path fill="none" stroke="orange" stroke-dasharray="5,2" d="M203.43,-36.4203C257.36,-31.7977 321.715,-26.2816 370.799,-22.0744"/>
<polygon fill="orange" stroke="orange" points="202.804,-32.9611 193.139,-37.3024 203.401,-39.9355 202.804,-32.9611"/>
<text text-anchor="middle" x="279" y="-38.5" font-family="FreeSans" font-size="10.00"> &lt; Point &gt;</text>
</g>
</g>
</svg>
