<?xml version="1.0" encoding="UTF-8" standalone="no"?>
<!DOCTYPE svg PUBLIC "-//W3C//DTD SVG 1.1//EN"
 "http://www.w3.org/Graphics/SVG/1.1/DTD/svg11.dtd">
<!-- Generated by graphviz version 2.38.0 (20140413.2041)
 -->
<!-- Title: DGtal::concepts::CSinglePassRangeFromPoint&lt; T &gt; Pages: 1 -->
<!--zoomable 164 -->
<svg id="main" version="1.1" xmlns="http://www.w3.org/2000/svg" xmlns:xlink="http://www.w3.org/1999/xlink" xml:space="preserve" onload="init(evt)">
<style type="text/css"><![CDATA[
.edge:hover path { stroke: red; }
.edge:hover polygon { stroke: red; fill: red; }
]]></style>
<script type="text/javascript"><![CDATA[
var edges = document.getElementsByTagName('g');
if (edges && edges.length) {
  for (var i=0;i<edges.length;i++) {
    if (edges[i].id.substr(0,4)=='edge') {
      edges[i].setAttribute('class','edge');
    }
  }
}
]]></script>
        <defs>
                <circle id="rim" cx="0" cy="0" r="7"/>
                <circle id="rim2" cx="0" cy="0" r="3.5"/>
                <g id="zoomPlus">
                        <use xlink:href="#rim" fill="#404040">
                                <set attributeName="fill" to="#808080" begin="zoomplus.mouseover" end="zoomplus.mouseout"/>
                        </use>
                        <path d="M-4,0h8M0,-4v8" fill="none" stroke="white" stroke-width="1.5" pointer-events="none"/>
                </g>
                <g id="zoomMin">
                        <use xlink:href="#rim" fill="#404040">
                                <set attributeName="fill" to="#808080" begin="zoomminus.mouseover" end="zoomminus.mouseout"/>
                        </use>
                        <path d="M-4,0h8" fill="none" stroke="white" stroke-width="1.5" pointer-events="none"/>
                </g>
                <g id="dirArrow">
                        <path fill="none" stroke="white" stroke-width="1.5" d="M0,-3.0v7 M-2.5,-0.5L0,-3.0L2.5,-0.5"/>
                </g>
               <g id="resetDef">
                       <use xlink:href="#rim2" fill="#404040">
                               <set attributeName="fill" to="#808080" begin="reset.mouseover" end="reset.mouseout"/>
                       </use>
               </g>
        </defs>

<script type="text/javascript">
var viewWidth = 647;
var viewHeight = 164;
var sectionId = 'dynsection-1';
</script>
<script xlink:href="svgpan.js"/>
<svg id="graph" class="graph">
<g id="viewport">
<title>DGtal::concepts::CSinglePassRangeFromPoint&lt; T &gt;</title>
<polygon fill="white" stroke="none" points="-4,4 -4,-159.584 643,-159.584 643,4 -4,4"/>
<!-- Node4 -->
<g id="node1" class="node"><title>Node4</title>
<polygon fill="#bfbfbf" stroke="black" points="495,-87.5839 495,-117.584 639,-117.584 639,-87.5839 495,-87.5839"/>
<text text-anchor="start" x="503" y="-105.584" font-family="FreeSans" font-size="10.00">DGtal::concepts::CSingle</text>
<text text-anchor="middle" x="567" y="-94.5839" font-family="FreeSans" font-size="10.00">PassRangeFromPoint&lt; T &gt;</text>
</g>
<!-- Node5 -->
<g id="node2" class="node"><title>Node5</title>
<g id="a_node2"><a xlink:href="structDGtal_1_1concepts_1_1CSinglePassRange.html" target="_top" xlink:title="Aim: Defines the concept describing a range. ">
<polygon fill="white" stroke="black" points="309,-87.5839 309,-117.584 444,-117.584 444,-87.5839 309,-87.5839"/>
<text text-anchor="start" x="317" y="-105.584" font-family="FreeSans" font-size="10.00">DGtal::concepts::CSingle</text>
<text text-anchor="middle" x="376.5" y="-94.5839" font-family="FreeSans" font-size="10.00">PassRange&lt; T &gt;</text>
</a>
</g>
</g>
<!-- Node5&#45;&gt;Node4 -->
<g id="edge1" class="edge"><title>Node5&#45;&gt;Node4</title>
<path fill="none" stroke="midnightblue" d="M454.359,-102.584C467.762,-102.584 481.651,-102.584 494.891,-102.584"/>
<polygon fill="midnightblue" stroke="midnightblue" points="454.223,-99.084 444.223,-102.584 454.223,-106.084 454.223,-99.084"/>
</g>
<!-- Node6 -->
<g id="node3" class="node"><title>Node6</title>
<g id="a_node3"><a xlink:href="structDGtal_1_1concepts_1_1CConstSinglePassRange.html" target="_top" xlink:title="Aim: Defines the concept describing a const single pass range. ">
<polygon fill="white" stroke="black" points="71,-40.5839 71,-70.5839 234,-70.5839 234,-40.5839 71,-40.5839"/>
<text text-anchor="start" x="79" y="-58.5839" font-family="FreeSans" font-size="10.00">DGtal::concepts::CConstSingle</text>
<text text-anchor="middle" x="152.5" y="-47.5839" font-family="FreeSans" font-size="10.00">PassRange&lt; T &gt;</text>
</a>
</g>
</g>
<!-- Node6&#45;&gt;Node5 -->
<g id="edge2" class="edge"><title>Node6&#45;&gt;Node5</title>
<path fill="none" stroke="midnightblue" d="M234.319,-72.6942C258.756,-77.8679 285.306,-83.4886 308.717,-88.4452"/>
<polygon fill="midnightblue" stroke="midnightblue" points="234.861,-69.2313 224.353,-70.5842 233.411,-76.0796 234.861,-69.2313"/>
</g>
<!-- Node8 -->
<g id="node5" class="node"><title>Node8</title>
<g id="a_node5"><a xlink:href="structDGtal_1_1concepts_1_1CConstSinglePassRangeFromPoint.html" target="_top" xlink:title="Aim: refined concept of const single pass range with a begin() method from a point. ">
<polygon fill="white" stroke="black" points="295,-38.5839 295,-68.5839 458,-68.5839 458,-38.5839 295,-38.5839"/>
<text text-anchor="start" x="303" y="-56.5839" font-family="FreeSans" font-size="10.00">DGtal::concepts::CConstSingle</text>
<text text-anchor="middle" x="376.5" y="-45.5839" font-family="FreeSans" font-size="10.00">PassRangeFromPoint&lt; T &gt;</text>
</a>
</g>
</g>
<!-- Node6&#45;&gt;Node8 -->
<g id="edge6" class="edge"><title>Node6&#45;&gt;Node8</title>
<path fill="none" stroke="midnightblue" d="M244.547,-54.7636C261.196,-54.6136 278.463,-54.4581 294.785,-54.311"/>
<polygon fill="midnightblue" stroke="midnightblue" points="244.243,-51.2661 234.275,-54.8561 244.306,-58.2658 244.243,-51.2661"/>
</g>
<!-- Node7 -->
<g id="node4" class="node"><title>Node7</title>
<polygon fill="white" stroke="#bfbfbf" points="0,-78.0839 0,-97.0839 29,-97.0839 29,-78.0839 0,-78.0839"/>
<text text-anchor="middle" x="14.5" y="-85.0839" font-family="FreeSans" font-size="10.00">T</text>
</g>
<!-- Node7&#45;&gt;Node4 -->
<g id="edge8" class="edge"><title>Node7&#45;&gt;Node4</title>
<path fill="none" stroke="#9a32cd" stroke-dasharray="5,2" d="M35.7744,-103.119C45.7851,-109.745 58.3988,-116.627 71,-119.584 238.478,-158.886 286.999,-145.355 458,-126.584 474.802,-124.74 492.814,-121.327 509.219,-117.643"/>
<polygon fill="#9a32cd" stroke="#9a32cd" points="37.5818,-100.111 27.3878,-97.2242 33.5567,-105.838 37.5818,-100.111"/>
<text text-anchor="middle" x="264.5" y="-147.584" font-family="FreeSans" font-size="10.00"> myX</text>
</g>
<!-- Node7&#45;&gt;Node5 -->
<g id="edge4" class="edge"><title>Node7&#45;&gt;Node5</title>
<path fill="none" stroke="#9a32cd" stroke-dasharray="5,2" d="M39.1103,-92.5057C41.7627,-92.932 44.4333,-93.3061 47,-93.5839 137.329,-103.36 242.396,-104.456 308.91,-103.888"/>
<polygon fill="#9a32cd" stroke="#9a32cd" points="39.6949,-89.0546 29.2279,-90.6957 38.4337,-95.9401 39.6949,-89.0546"/>
<text text-anchor="middle" x="152.5" y="-107.584" font-family="FreeSans" font-size="10.00"> i</text>
</g>
<!-- Node7&#45;&gt;Node6 -->
<g id="edge3" class="edge"><title>Node7&#45;&gt;Node6</title>
<path fill="none" stroke="#9a32cd" stroke-dasharray="5,2" d="M38.9213,-82.073C52.4864,-78.8812 70.2828,-74.6938 87.7092,-70.5934"/>
<polygon fill="#9a32cd" stroke="#9a32cd" points="37.9699,-78.7011 29.0374,-84.3986 39.5732,-85.5151 37.9699,-78.7011"/>
<text text-anchor="middle" x="50" y="-83.5839" font-family="FreeSans" font-size="10.00"> i</text>
</g>
<!-- Node7&#45;&gt;Node8 -->
<g id="edge7" class="edge"><title>Node7&#45;&gt;Node8</title>
<path fill="none" stroke="#9a32cd" stroke-dasharray="5,2" d="M24.8086,-68.6029C34.0151,-52.219 49.795,-29.6481 71,-19.5839 161.104,23.1808 282.566,-14.9371 341.116,-38.398"/>
<polygon fill="#9a32cd" stroke="#9a32cd" points="21.5072,-67.3599 19.936,-77.8376 27.6983,-70.6266 21.5072,-67.3599"/>
<text text-anchor="middle" x="152.5" y="-22.5839" font-family="FreeSans" font-size="10.00"> myX</text>
</g>
<!-- Node8&#45;&gt;Node4 -->
<g id="edge5" class="edge"><title>Node8&#45;&gt;Node4</title>
<path fill="none" stroke="midnightblue" d="M445.294,-71.2067C465.917,-76.5676 488.379,-82.4064 508.272,-87.5777"/>
<polygon fill="midnightblue" stroke="midnightblue" points="445.896,-67.747 435.337,-68.6185 444.135,-74.5218 445.896,-67.747"/>
</g>
</g>
</svg>
        <g id="navigator" transform="translate(0 0)" fill="#404254">
                <rect fill="#f2f5e9" fill-opacity="0.5" stroke="#606060" stroke-width=".5" x="0" y="0" width="60" height="60"/>
                <use id="zoomplus" xlink:href="#zoomPlus" x="17" y="9" onmousedown="handleZoom(evt,'in')"/>
                <use id="zoomminus" xlink:href="#zoomMin" x="42" y="9" onmousedown="handleZoom(evt,'out')"/>
                <use id="reset" xlink:href="#resetDef" x="30" y="36" onmousedown="handleReset()"/>
                <g id="arrowUp" xlink:href="#dirArrow" transform="translate(30 24)" onmousedown="handlePan(0,-1)">
                  <use xlink:href="#rim" fill="#404040">
                        <set attributeName="fill" to="#808080" begin="arrowUp.mouseover" end="arrowUp.mouseout"/>
                  </use>
                  <path fill="none" stroke="white" stroke-width="1.5" d="M0,-3.0v7 M-2.5,-0.5L0,-3.0L2.5,-0.5"/>
                </g>
                <g id="arrowRight" xlink:href="#dirArrow" transform="rotate(90) translate(36 -43)" onmousedown="handlePan(1,0)">
                  <use xlink:href="#rim" fill="#404040">
                        <set attributeName="fill" to="#808080" begin="arrowRight.mouseover" end="arrowRight.mouseout"/>
                  </use>
                  <path fill="none" stroke="white" stroke-width="1.5" d="M0,-3.0v7 M-2.5,-0.5L0,-3.0L2.5,-0.5"/>
                </g>
                <g id="arrowDown" xlink:href="#dirArrow" transform="rotate(180) translate(-30 -48)" onmousedown="handlePan(0,1)">
                  <use xlink:href="#rim" fill="#404040">
                        <set attributeName="fill" to="#808080" begin="arrowDown.mouseover" end="arrowDown.mouseout"/>
                  </use>
                  <path fill="none" stroke="white" stroke-width="1.5" d="M0,-3.0v7 M-2.5,-0.5L0,-3.0L2.5,-0.5"/>
                </g>
                <g id="arrowLeft" xlink:href="#dirArrow" transform="rotate(270) translate(-36 17)" onmousedown="handlePan(-1,0)">
                  <use xlink:href="#rim" fill="#404040">
                        <set attributeName="fill" to="#808080" begin="arrowLeft.mouseover" end="arrowLeft.mouseout"/>
                  </use>
                  <path fill="none" stroke="white" stroke-width="1.5" d="M0,-3.0v7 M-2.5,-0.5L0,-3.0L2.5,-0.5"/>
                </g>
        </g>
        <svg viewBox="0 0 15 15" width="100%" height="30px" preserveAspectRatio="xMaxYMin meet">
         <g id="arrow_out" transform="scale(0.3 0.3)">
          <a xlink:href="structDGtal_1_1concepts_1_1CSinglePassRangeFromPoint__coll__graph_org.svg" target="_base">
           <rect id="button" ry="5" rx="5" y="6" x="6" height="38" width="38"
                fill="#f2f5e9" fill-opacity="0.5" stroke="#606060" stroke-width="1.0"/>
           <path id="arrow"
             d="M 11.500037,31.436501 C 11.940474,20.09759 22.043105,11.32322 32.158766,21.979434 L 37.068811,17.246167 C 37.068811,17.246167 37.088388,32 37.088388,32 L 22.160133,31.978069 C 22.160133,31.978069 26.997745,27.140456 26.997745,27.140456 C 18.528582,18.264221 13.291696,25.230495 11.500037,31.436501 z"
             style="fill:#404040;"/>
          </a>
         </g>
        </svg>
</svg>
