<?xml version="1.0" encoding="UTF-8" standalone="no"?>
<!DOCTYPE svg PUBLIC "-//W3C//DTD SVG 1.1//EN"
 "http://www.w3.org/Graphics/SVG/1.1/DTD/svg11.dtd">
<!-- Generated by graphviz version 2.38.0 (20140413.2041)
 -->
<!-- Title: DGtal::Viewer3D&lt; TSpace, TKSpace &gt;::Extension Pages: 1 -->
<svg width="152pt" height="106pt"
 viewBox="0.00 0.00 152.00 106.00" xmlns="http://www.w3.org/2000/svg" xmlns:xlink="http://www.w3.org/1999/xlink">
<g id="graph0" class="graph" transform="scale(1 1) rotate(0) translate(4 102)">
<title>DGtal::Viewer3D&lt; TSpace, TKSpace &gt;::Extension</title>
<polygon fill="white" stroke="none" points="-4,4 -4,-102 148,-102 148,4 -4,4"/>
<!-- Node0 -->
<g id="node1" class="node"><title>Node0</title>
<polygon fill="#bfbfbf" stroke="black" points="0,-67.5 0,-97.5 144,-97.5 144,-67.5 0,-67.5"/>
<text text-anchor="start" x="8" y="-85.5" font-family="FreeSans" font-size="10.00">DGtal::Viewer3D&lt; TSpace,</text>
<text text-anchor="middle" x="72" y="-74.5" font-family="FreeSans" font-size="10.00"> TKSpace &gt;::Extension</text>
</g>
<!-- Node1 -->
<g id="node2" class="node"><title>Node1</title>
<g id="a_node2"><a xlink:title="[viewer3D&#45;extension&#45;derivation] ">
<polygon fill="white" stroke="#bfbfbf" points="0.5,-0.5 0.5,-30.5 143.5,-30.5 143.5,-0.5 0.5,-0.5"/>
<text text-anchor="start" x="8.5" y="-18.5" font-family="FreeSans" font-size="10.00">RandomPointKeyExtension</text>
<text text-anchor="middle" x="72" y="-7.5" font-family="FreeSans" font-size="10.00">&lt; Space, KSpace &gt;</text>
</a>
</g>
</g>
<!-- Node0&#45;&gt;Node1 -->
<g id="edge1" class="edge"><title>Node0&#45;&gt;Node1</title>
<path fill="none" stroke="midnightblue" d="M72,-57.1081C72,-48.1539 72,-38.3227 72,-30.5765"/>
<polygon fill="midnightblue" stroke="midnightblue" points="68.5001,-57.3959 72,-67.396 75.5001,-57.396 68.5001,-57.3959"/>
</g>
</g>
</svg>
