<?xml version="1.0" encoding="UTF-8" standalone="no"?>
<!DOCTYPE svg PUBLIC "-//W3C//DTD SVG 1.1//EN"
 "http://www.w3.org/Graphics/SVG/1.1/DTD/svg11.dtd">
<!-- Generated by graphviz version 2.38.0 (20140413.2041)
 -->
<!-- Title: DGtal::concepts::CBoundedNumber&lt; T &gt; Pages: 1 -->
<svg width="795pt" height="104pt"
 viewBox="0.00 0.00 795.00 104.00" xmlns="http://www.w3.org/2000/svg" xmlns:xlink="http://www.w3.org/1999/xlink">
<g id="graph0" class="graph" transform="scale(1 1) rotate(0) translate(4 100)">
<title>DGtal::concepts::CBoundedNumber&lt; T &gt;</title>
<polygon fill="white" stroke="none" points="-4,4 -4,-100 791,-100 791,4 -4,4"/>
<!-- Node0 -->
<g id="node1" class="node"><title>Node0</title>
<polygon fill="#bfbfbf" stroke="black" points="638,-14 638,-44 787,-44 787,-14 638,-14"/>
<text text-anchor="start" x="646" y="-32" font-family="FreeSans" font-size="10.00">DGtal::concepts::CBounded</text>
<text text-anchor="middle" x="712.5" y="-21" font-family="FreeSans" font-size="10.00">Number&lt; T &gt;</text>
</g>
<!-- Node1 -->
<g id="node2" class="node"><title>Node1</title>
<g id="a_node2"><a xlink:href="structDGtal_1_1concepts_1_1CQuantity.html" target="_top" xlink:title="Aim: defines the concept of quantity in DGtal. ">
<polygon fill="white" stroke="black" points="428,-19.5 428,-38.5 602,-38.5 602,-19.5 428,-19.5"/>
<text text-anchor="middle" x="515" y="-26.5" font-family="FreeSans" font-size="10.00">DGtal::concepts::CQuantity&lt; T &gt;</text>
</a>
</g>
</g>
<!-- Node1&#45;&gt;Node0 -->
<g id="edge1" class="edge"><title>Node1&#45;&gt;Node0</title>
<path fill="none" stroke="midnightblue" d="M612.187,-29C620.856,-29 629.542,-29 637.971,-29"/>
<polygon fill="midnightblue" stroke="midnightblue" points="612.034,-25.5001 602.034,-29 612.034,-32.5001 612.034,-25.5001"/>
</g>
<!-- Node2 -->
<g id="node3" class="node"><title>Node2</title>
<g id="a_node3"><a xlink:href="structDGtal_1_1concepts_1_1CLabel.html" target="_top" xlink:title="Aim: Define the concept of DGtal labels. Models of CLabel can be default&#45;constructible, assignable and equality comparable. ">
<polygon fill="white" stroke="black" points="222,-38.5 222,-57.5 381,-57.5 381,-38.5 222,-38.5"/>
<text text-anchor="middle" x="301.5" y="-45.5" font-family="FreeSans" font-size="10.00">DGtal::concepts::CLabel&lt; T &gt;</text>
</a>
</g>
</g>
<!-- Node2&#45;&gt;Node1 -->
<g id="edge2" class="edge"><title>Node2&#45;&gt;Node1</title>
<path fill="none" stroke="midnightblue" d="M391.297,-40.023C403.353,-38.9399 415.711,-37.8297 427.722,-36.7507"/>
<polygon fill="midnightblue" stroke="midnightblue" points="390.901,-36.5443 381.255,-40.9251 391.528,-43.5162 390.901,-36.5443"/>
</g>
<!-- Node3 -->
<g id="node4" class="node"><title>Node3</title>
<g id="a_node4"><a xlink:href="structboost_1_1DefaultConstructible.html" target="_top" xlink:title="Go to http://www.sgi.com/tech/stl/DefaultConstructible.html. ">
<polygon fill="white" stroke="black" points="0,-76.5 0,-95.5 175,-95.5 175,-76.5 0,-76.5"/>
<text text-anchor="middle" x="87.5" y="-83.5" font-family="FreeSans" font-size="10.00">boost::DefaultConstructible&lt; T &gt;</text>
</a>
</g>
</g>
<!-- Node3&#45;&gt;Node2 -->
<g id="edge3" class="edge"><title>Node3&#45;&gt;Node2</title>
<path fill="none" stroke="midnightblue" d="M151.804,-74.653C182.221,-69.2009 218.27,-62.7393 247.255,-57.5439"/>
<polygon fill="midnightblue" stroke="midnightblue" points="150.948,-71.2505 141.723,-76.46 152.184,-78.1407 150.948,-71.2505"/>
</g>
<!-- Node4 -->
<g id="node5" class="node"><title>Node4</title>
<g id="a_node5"><a xlink:href="structboost_1_1Assignable.html" target="_top" xlink:title="Go to http://www.sgi.com/tech/stl/Assignable.html. ">
<polygon fill="white" stroke="black" points="23,-38.5 23,-57.5 152,-57.5 152,-38.5 23,-38.5"/>
<text text-anchor="middle" x="87.5" y="-45.5" font-family="FreeSans" font-size="10.00">boost::Assignable&lt; T &gt;</text>
</a>
</g>
</g>
<!-- Node4&#45;&gt;Node2 -->
<g id="edge4" class="edge"><title>Node4&#45;&gt;Node2</title>
<path fill="none" stroke="midnightblue" d="M162.326,-48C181.592,-48 202.424,-48 221.926,-48"/>
<polygon fill="midnightblue" stroke="midnightblue" points="162.107,-44.5001 152.107,-48 162.107,-51.5001 162.107,-44.5001"/>
</g>
<!-- Node5 -->
<g id="node6" class="node"><title>Node5</title>
<g id="a_node6"><a xlink:href="structboost_1_1EqualityComparable.html" target="_top" xlink:title="Go to http://www.sgi.com/tech/stl/EqualityComparable.html. ">
<polygon fill="white" stroke="black" points="1,-0.5 1,-19.5 174,-19.5 174,-0.5 1,-0.5"/>
<text text-anchor="middle" x="87.5" y="-7.5" font-family="FreeSans" font-size="10.00">boost::EqualityComparable&lt; T &gt;</text>
</a>
</g>
</g>
<!-- Node5&#45;&gt;Node2 -->
<g id="edge5" class="edge"><title>Node5&#45;&gt;Node2</title>
<path fill="none" stroke="midnightblue" d="M151.804,-21.347C182.221,-26.7991 218.27,-33.2607 247.255,-38.4561"/>
<polygon fill="midnightblue" stroke="midnightblue" points="152.184,-17.8593 141.723,-19.54 150.948,-24.7495 152.184,-17.8593"/>
</g>
<!-- Node6 -->
<g id="node7" class="node"><title>Node6</title>
<g id="a_node7"><a xlink:href="structboost_1_1LessThanComparable.html" target="_top" xlink:title="Go to http://www.sgi.com/tech/stl/LessThanComparable.html. ">
<polygon fill="white" stroke="black" points="211,-0.5 211,-19.5 392,-19.5 392,-0.5 211,-0.5"/>
<text text-anchor="middle" x="301.5" y="-7.5" font-family="FreeSans" font-size="10.00">boost::LessThanComparable&lt; T &gt;</text>
</a>
</g>
</g>
<!-- Node6&#45;&gt;Node1 -->
<g id="edge6" class="edge"><title>Node6&#45;&gt;Node1</title>
<path fill="none" stroke="midnightblue" d="M402.221,-18.9584C410.794,-19.7285 419.42,-20.5034 427.872,-21.2628"/>
<polygon fill="midnightblue" stroke="midnightblue" points="402.468,-15.4666 392.195,-18.0577 401.842,-22.4385 402.468,-15.4666"/>
</g>
</g>
</svg>
