<?xml version="1.0" encoding="UTF-8" standalone="no"?>
<!DOCTYPE svg PUBLIC "-//W3C//DTD SVG 1.1//EN"
 "http://www.w3.org/Graphics/SVG/1.1/DTD/svg11.dtd">
<!-- Generated by graphviz version 2.38.0 (20140413.2041)
 -->
<!-- Title: DGtal::Display3D&lt; Space, KSpace &gt;::PolygonD3D Pages: 1 -->
<!--zoomable 305 -->
<svg id="main" version="1.1" xmlns="http://www.w3.org/2000/svg" xmlns:xlink="http://www.w3.org/1999/xlink" xml:space="preserve" onload="init(evt)">
<style type="text/css"><![CDATA[
.edge:hover path { stroke: red; }
.edge:hover polygon { stroke: red; fill: red; }
]]></style>
<script type="text/javascript"><![CDATA[
var edges = document.getElementsByTagName('g');
if (edges && edges.length) {
  for (var i=0;i<edges.length;i++) {
    if (edges[i].id.substr(0,4)=='edge') {
      edges[i].setAttribute('class','edge');
    }
  }
}
]]></script>
        <defs>
                <circle id="rim" cx="0" cy="0" r="7"/>
                <circle id="rim2" cx="0" cy="0" r="3.5"/>
                <g id="zoomPlus">
                        <use xlink:href="#rim" fill="#404040">
                                <set attributeName="fill" to="#808080" begin="zoomplus.mouseover" end="zoomplus.mouseout"/>
                        </use>
                        <path d="M-4,0h8M0,-4v8" fill="none" stroke="white" stroke-width="1.5" pointer-events="none"/>
                </g>
                <g id="zoomMin">
                        <use xlink:href="#rim" fill="#404040">
                                <set attributeName="fill" to="#808080" begin="zoomminus.mouseover" end="zoomminus.mouseout"/>
                        </use>
                        <path d="M-4,0h8" fill="none" stroke="white" stroke-width="1.5" pointer-events="none"/>
                </g>
                <g id="dirArrow">
                        <path fill="none" stroke="white" stroke-width="1.5" d="M0,-3.0v7 M-2.5,-0.5L0,-3.0L2.5,-0.5"/>
                </g>
               <g id="resetDef">
                       <use xlink:href="#rim2" fill="#404040">
                               <set attributeName="fill" to="#808080" begin="reset.mouseover" end="reset.mouseout"/>
                       </use>
               </g>
        </defs>

<script type="text/javascript">
var viewWidth = 798;
var viewHeight = 305;
var sectionId = 'dynsection-1';
</script>
<script xlink:href="svgpan.js"/>
<svg id="graph" class="graph">
<g id="viewport">
<title>DGtal::Display3D&lt; Space, KSpace &gt;::PolygonD3D</title>
<polygon fill="white" stroke="none" points="-4,4 -4,-301 794,-301 794,4 -4,4"/>
<!-- Node2 -->
<g id="node1" class="node"><title>Node2</title>
<polygon fill="#bfbfbf" stroke="black" points="648,-84 648,-114 790,-114 790,-84 648,-84"/>
<text text-anchor="start" x="656" y="-102" font-family="FreeSans" font-size="10.00">DGtal::Display3D&lt; Space,</text>
<text text-anchor="middle" x="719" y="-91" font-family="FreeSans" font-size="10.00"> KSpace &gt;::PolygonD3D</text>
</g>
<!-- Node3 -->
<g id="node2" class="node"><title>Node3</title>
<g id="a_node2"><a xlink:href="structDGtal_1_1Display3D_1_1CommonD3D.html" target="_top" xlink:title="DGtal::Display3D\&lt; Space,\l KSpace \&gt;::CommonD3D">
<polygon fill="white" stroke="black" points="429,-84 429,-114 571,-114 571,-84 429,-84"/>
<text text-anchor="start" x="437" y="-102" font-family="FreeSans" font-size="10.00">DGtal::Display3D&lt; Space,</text>
<text text-anchor="middle" x="500" y="-91" font-family="FreeSans" font-size="10.00"> KSpace &gt;::CommonD3D</text>
</a>
</g>
</g>
<!-- Node3&#45;&gt;Node2 -->
<g id="edge1" class="edge"><title>Node3&#45;&gt;Node2</title>
<path fill="none" stroke="midnightblue" d="M581.363,-99C603.14,-99 626.541,-99 647.716,-99"/>
<polygon fill="midnightblue" stroke="midnightblue" points="581.154,-95.5001 571.154,-99 581.154,-102.5 581.154,-95.5001"/>
</g>
<!-- Node4 -->
<g id="node3" class="node"><title>Node4</title>
<g id="a_node3"><a xlink:href="classDGtal_1_1Color.html" target="_top" xlink:title="Structure representing an RGB triple with alpha component. ">
<polygon fill="white" stroke="black" points="179,-138.5 179,-157.5 253,-157.5 253,-138.5 179,-138.5"/>
<text text-anchor="middle" x="216" y="-145.5" font-family="FreeSans" font-size="10.00">DGtal::Color</text>
</a>
</g>
</g>
<!-- Node4&#45;&gt;Node2 -->
<g id="edge10" class="edge"><title>Node4&#45;&gt;Node2</title>
<path fill="none" stroke="#9a32cd" stroke-dasharray="5,2" d="M263.393,-146.543C331.187,-144.033 461.203,-137.77 571,-124 596.172,-120.843 623.614,-116.439 647.899,-112.206"/>
<polygon fill="#9a32cd" stroke="#9a32cd" points="262.927,-143.058 253.059,-146.915 263.178,-150.053 262.927,-143.058"/>
<text text-anchor="middle" x="500" y="-140" font-family="FreeSans" font-size="10.00"> color</text>
</g>
<!-- Node4&#45;&gt;Node3 -->
<g id="edge2" class="edge"><title>Node4&#45;&gt;Node3</title>
<path fill="none" stroke="#9a32cd" stroke-dasharray="5,2" d="M257.634,-135.68C270.172,-132.188 284.08,-128.627 297,-126 340.513,-117.151 389.909,-110.49 428.963,-105.997"/>
<polygon fill="#9a32cd" stroke="#9a32cd" points="256.577,-132.341 247.917,-138.445 258.494,-139.074 256.577,-132.341"/>
<text text-anchor="middle" x="354" y="-129" font-family="FreeSans" font-size="10.00"> color</text>
</g>
<!-- Node4&#45;&gt;Node4 -->
<g id="edge3" class="edge"><title>Node4&#45;&gt;Node4</title>
<path fill="none" stroke="#9a32cd" stroke-dasharray="5,2" d="M196.742,-167.4C198.028,-172.315 204.447,-176 216,-176 234.484,-176 239.828,-166.565 232.029,-157.757"/>
<polygon fill="#9a32cd" stroke="#9a32cd" points="200.114,-168.351 199.971,-157.757 193.476,-166.128 200.114,-168.351"/>
<text text-anchor="middle" x="216" y="-289" font-family="FreeSans" font-size="10.00"> Yellow</text>
<text text-anchor="middle" x="216" y="-278" font-family="FreeSans" font-size="10.00">Lime</text>
<text text-anchor="middle" x="216" y="-267" font-family="FreeSans" font-size="10.00">Navy</text>
<text text-anchor="middle" x="216" y="-256" font-family="FreeSans" font-size="10.00">Magenta</text>
<text text-anchor="middle" x="216" y="-245" font-family="FreeSans" font-size="10.00">White</text>
<text text-anchor="middle" x="216" y="-234" font-family="FreeSans" font-size="10.00">None</text>
<text text-anchor="middle" x="216" y="-223" font-family="FreeSans" font-size="10.00">Blue</text>
<text text-anchor="middle" x="216" y="-212" font-family="FreeSans" font-size="10.00">Aqua</text>
<text text-anchor="middle" x="216" y="-201" font-family="FreeSans" font-size="10.00">Purple</text>
<text text-anchor="middle" x="216" y="-190" font-family="FreeSans" font-size="10.00">Silver</text>
<text text-anchor="middle" x="216" y="-179" font-family="FreeSans" font-size="10.00">...</text>
</g>
<!-- Node5 -->
<g id="node4" class="node"><title>Node5</title>
<polygon fill="white" stroke="#bfbfbf" points="447,-35 447,-65 553,-65 553,-35 447,-35"/>
<text text-anchor="start" x="455" y="-53" font-family="FreeSans" font-size="10.00">std::vector&lt; DGtal</text>
<text text-anchor="middle" x="500" y="-42" font-family="FreeSans" font-size="10.00">::PointVector &gt;</text>
</g>
<!-- Node5&#45;&gt;Node2 -->
<g id="edge4" class="edge"><title>Node5&#45;&gt;Node2</title>
<path fill="none" stroke="#9a32cd" stroke-dasharray="5,2" d="M563.181,-64.0408C590.779,-70.2726 623.299,-77.6159 651.392,-83.9595"/>
<polygon fill="#9a32cd" stroke="#9a32cd" points="563.778,-60.5877 553.253,-61.7991 562.237,-67.4158 563.778,-60.5877"/>
<text text-anchor="middle" x="609.5" y="-82" font-family="FreeSans" font-size="10.00"> vertices</text>
</g>
<!-- Node6 -->
<g id="node5" class="node"><title>Node6</title>
<g id="a_node5"><a xlink:href="classDGtal_1_1PointVector.html" target="_top" xlink:title="Aim: Implements basic operations that will be used in Point and Vector classes. ">
<polygon fill="white" stroke="black" points="153,-38.5 153,-79.5 279,-79.5 279,-38.5 153,-38.5"/>
<text text-anchor="start" x="161" y="-67.5" font-family="FreeSans" font-size="10.00">DGtal::PointVector</text>
<text text-anchor="start" x="161" y="-56.5" font-family="FreeSans" font-size="10.00">&lt; dim, TEuclideanRing,</text>
<text text-anchor="middle" x="216" y="-45.5" font-family="FreeSans" font-size="10.00"> TContainer &gt;</text>
</a>
</g>
</g>
<!-- Node6&#45;&gt;Node5 -->
<g id="edge5" class="edge"><title>Node6&#45;&gt;Node5</title>
<path fill="none" stroke="#9a32cd" stroke-dasharray="5,2" d="M289.5,-56.6862C338.709,-55.1157 402.621,-53.0759 446.849,-51.6644"/>
<polygon fill="#9a32cd" stroke="#9a32cd" points="289.118,-53.1965 279.235,-57.0138 289.342,-60.1929 289.118,-53.1965"/>
<text text-anchor="middle" x="354" y="-60" font-family="FreeSans" font-size="10.00"> elements</text>
</g>
<!-- Node6&#45;&gt;Node6 -->
<g id="edge7" class="edge"><title>Node6&#45;&gt;Node6</title>
<path fill="none" stroke="#9a32cd" stroke-dasharray="5,2" d="M198.107,-89.8561C200.768,-94.6966 206.732,-98 216,-98 230.828,-98 237.2,-89.5433 235.114,-79.8644"/>
<polygon fill="#9a32cd" stroke="#9a32cd" points="201.574,-89.3656 196.886,-79.8644 194.625,-90.2153 201.574,-89.3656"/>
<text text-anchor="middle" x="216" y="-101" font-family="FreeSans" font-size="10.00"> zero</text>
</g>
<!-- Node7 -->
<g id="node6" class="node"><title>Node7</title>
<polygon fill="white" stroke="#bfbfbf" points="0,-49.5 0,-68.5 68,-68.5 68,-49.5 0,-49.5"/>
<text text-anchor="middle" x="34" y="-56.5" font-family="FreeSans" font-size="10.00">TContainer</text>
</g>
<!-- Node7&#45;&gt;Node6 -->
<g id="edge6" class="edge"><title>Node7&#45;&gt;Node6</title>
<path fill="none" stroke="#9a32cd" stroke-dasharray="5,2" d="M78.1809,-59C100.491,-59 128.12,-59 152.696,-59"/>
<polygon fill="#9a32cd" stroke="#9a32cd" points="78.0148,-55.5001 68.0148,-59 78.0147,-62.5001 78.0148,-55.5001"/>
<text text-anchor="middle" x="110.5" y="-62" font-family="FreeSans" font-size="10.00"> myArray</text>
</g>
<!-- Node8 -->
<g id="node7" class="node"><title>Node8</title>
<g id="a_node7"><a xlink:title="STL class. ">
<polygon fill="white" stroke="#bfbfbf" points="168.5,-0.5 168.5,-19.5 263.5,-19.5 263.5,-0.5 168.5,-0.5"/>
<text text-anchor="middle" x="216" y="-7.5" font-family="FreeSans" font-size="10.00">std::vector&lt; T &gt;</text>
</a>
</g>
</g>
<!-- Node8&#45;&gt;Node5 -->
<g id="edge8" class="edge"><title>Node8&#45;&gt;Node5</title>
<path fill="none" stroke="orange" stroke-dasharray="5,2" d="M273.662,-18.0372C324.154,-25.1992 397.458,-35.5969 446.609,-42.5686"/>
<polygon fill="orange" stroke="orange" points="273.959,-14.5443 263.567,-16.6052 272.976,-21.475 273.959,-14.5443"/>
<text text-anchor="middle" x="354" y="-41" font-family="FreeSans" font-size="10.00"> &lt; DGtal::PointVector &gt;</text>
</g>
<!-- Node9 -->
<g id="node8" class="node"><title>Node9</title>
<polygon fill="white" stroke="#bfbfbf" points="19.5,-0.5 19.5,-19.5 48.5,-19.5 48.5,-0.5 19.5,-0.5"/>
<text text-anchor="middle" x="34" y="-7.5" font-family="FreeSans" font-size="10.00">T</text>
</g>
<!-- Node9&#45;&gt;Node8 -->
<g id="edge9" class="edge"><title>Node9&#45;&gt;Node8</title>
<path fill="none" stroke="#9a32cd" stroke-dasharray="5,2" d="M58.8771,-10C86.6945,-10 133.312,-10 168.38,-10"/>
<polygon fill="#9a32cd" stroke="#9a32cd" points="58.5293,-6.5001 48.5293,-10 58.5292,-13.5001 58.5293,-6.5001"/>
<text text-anchor="middle" x="110.5" y="-13" font-family="FreeSans" font-size="10.00"> elements</text>
</g>
</g>
</svg>
        <g id="navigator" transform="translate(0 0)" fill="#404254">
                <rect fill="#f2f5e9" fill-opacity="0.5" stroke="#606060" stroke-width=".5" x="0" y="0" width="60" height="60"/>
                <use id="zoomplus" xlink:href="#zoomPlus" x="17" y="9" onmousedown="handleZoom(evt,'in')"/>
                <use id="zoomminus" xlink:href="#zoomMin" x="42" y="9" onmousedown="handleZoom(evt,'out')"/>
                <use id="reset" xlink:href="#resetDef" x="30" y="36" onmousedown="handleReset()"/>
                <g id="arrowUp" xlink:href="#dirArrow" transform="translate(30 24)" onmousedown="handlePan(0,-1)">
                  <use xlink:href="#rim" fill="#404040">
                        <set attributeName="fill" to="#808080" begin="arrowUp.mouseover" end="arrowUp.mouseout"/>
                  </use>
                  <path fill="none" stroke="white" stroke-width="1.5" d="M0,-3.0v7 M-2.5,-0.5L0,-3.0L2.5,-0.5"/>
                </g>
                <g id="arrowRight" xlink:href="#dirArrow" transform="rotate(90) translate(36 -43)" onmousedown="handlePan(1,0)">
                  <use xlink:href="#rim" fill="#404040">
                        <set attributeName="fill" to="#808080" begin="arrowRight.mouseover" end="arrowRight.mouseout"/>
                  </use>
                  <path fill="none" stroke="white" stroke-width="1.5" d="M0,-3.0v7 M-2.5,-0.5L0,-3.0L2.5,-0.5"/>
                </g>
                <g id="arrowDown" xlink:href="#dirArrow" transform="rotate(180) translate(-30 -48)" onmousedown="handlePan(0,1)">
                  <use xlink:href="#rim" fill="#404040">
                        <set attributeName="fill" to="#808080" begin="arrowDown.mouseover" end="arrowDown.mouseout"/>
                  </use>
                  <path fill="none" stroke="white" stroke-width="1.5" d="M0,-3.0v7 M-2.5,-0.5L0,-3.0L2.5,-0.5"/>
                </g>
                <g id="arrowLeft" xlink:href="#dirArrow" transform="rotate(270) translate(-36 17)" onmousedown="handlePan(-1,0)">
                  <use xlink:href="#rim" fill="#404040">
                        <set attributeName="fill" to="#808080" begin="arrowLeft.mouseover" end="arrowLeft.mouseout"/>
                  </use>
                  <path fill="none" stroke="white" stroke-width="1.5" d="M0,-3.0v7 M-2.5,-0.5L0,-3.0L2.5,-0.5"/>
                </g>
        </g>
        <svg viewBox="0 0 15 15" width="100%" height="30px" preserveAspectRatio="xMaxYMin meet">
         <g id="arrow_out" transform="scale(0.3 0.3)">
          <a xlink:href="structDGtal_1_1Display3D_1_1PolygonD3D__coll__graph_org.svg" target="_base">
           <rect id="button" ry="5" rx="5" y="6" x="6" height="38" width="38"
                fill="#f2f5e9" fill-opacity="0.5" stroke="#606060" stroke-width="1.0"/>
           <path id="arrow"
             d="M 11.500037,31.436501 C 11.940474,20.09759 22.043105,11.32322 32.158766,21.979434 L 37.068811,17.246167 C 37.068811,17.246167 37.088388,32 37.088388,32 L 22.160133,31.978069 C 22.160133,31.978069 26.997745,27.140456 26.997745,27.140456 C 18.528582,18.264221 13.291696,25.230495 11.500037,31.436501 z"
             style="fill:#404040;"/>
          </a>
         </g>
        </svg>
</svg>
