<?xml version="1.0" encoding="UTF-8" standalone="no"?>
<!DOCTYPE svg PUBLIC "-//W3C//DTD SVG 1.1//EN"
 "http://www.w3.org/Graphics/SVG/1.1/DTD/svg11.dtd">
<!-- Generated by graphviz version 2.38.0 (20140413.2041)
 -->
<!-- Title: DGtal::functors::ShapeGeometricFunctors::ShapeSecondPrincipalCurvatureFunctor&lt; TShape &gt; Pages: 1 -->
<svg width="225pt" height="206pt"
 viewBox="0.00 0.00 225.00 206.00" xmlns="http://www.w3.org/2000/svg" xmlns:xlink="http://www.w3.org/1999/xlink">
<g id="graph0" class="graph" transform="scale(1 1) rotate(0) translate(4 202)">
<title>DGtal::functors::ShapeGeometricFunctors::ShapeSecondPrincipalCurvatureFunctor&lt; TShape &gt;</title>
<polygon fill="white" stroke="none" points="-4,4 -4,-202 221,-202 221,4 -4,4"/>
<!-- Node1 -->
<g id="node1" class="node"><title>Node1</title>
<polygon fill="#bfbfbf" stroke="black" points="0,-0.5 0,-41.5 217,-41.5 217,-0.5 0,-0.5"/>
<text text-anchor="start" x="8" y="-29.5" font-family="FreeSans" font-size="10.00">DGtal::functors::ShapeGeometric</text>
<text text-anchor="start" x="8" y="-18.5" font-family="FreeSans" font-size="10.00">Functors::ShapeSecondPrincipalCurvature</text>
<text text-anchor="middle" x="108.5" y="-7.5" font-family="FreeSans" font-size="10.00">Functor&lt; TShape &gt;</text>
</g>
<!-- Node2 -->
<g id="node2" class="node"><title>Node2</title>
<g id="a_node2"><a xlink:href="classDGtal_1_1CountedConstPtrOrConstPtr.html" target="_top" xlink:title="DGtal::CountedConstPtrOr\lConstPtr\&lt; Shape \&gt;">
<polygon fill="white" stroke="black" points="37,-89.5 37,-119.5 180,-119.5 180,-89.5 37,-89.5"/>
<text text-anchor="start" x="45" y="-107.5" font-family="FreeSans" font-size="10.00">DGtal::CountedConstPtrOr</text>
<text text-anchor="middle" x="108.5" y="-96.5" font-family="FreeSans" font-size="10.00">ConstPtr&lt; Shape &gt;</text>
</a>
</g>
</g>
<!-- Node2&#45;&gt;Node1 -->
<g id="edge1" class="edge"><title>Node2&#45;&gt;Node1</title>
<path fill="none" stroke="#9a32cd" stroke-dasharray="5,2" d="M108.5,-79.0662C108.5,-67.0614 108.5,-52.7937 108.5,-41.5278"/>
<polygon fill="#9a32cd" stroke="#9a32cd" points="105,-79.3037 108.5,-89.3038 112,-79.3038 105,-79.3037"/>
<text text-anchor="middle" x="133" y="-63" font-family="FreeSans" font-size="10.00"> myShape</text>
</g>
<!-- Node3 -->
<g id="node3" class="node"><title>Node3</title>
<g id="a_node3"><a xlink:href="classDGtal_1_1CountedConstPtrOrConstPtr.html" target="_top" xlink:title="Aim: Smart or simple const pointer on T. It can be a smart pointer based on reference counts or a sim...">
<polygon fill="white" stroke="black" points="37,-167.5 37,-197.5 180,-197.5 180,-167.5 37,-167.5"/>
<text text-anchor="start" x="45" y="-185.5" font-family="FreeSans" font-size="10.00">DGtal::CountedConstPtrOr</text>
<text text-anchor="middle" x="108.5" y="-174.5" font-family="FreeSans" font-size="10.00">ConstPtr&lt; T &gt;</text>
</a>
</g>
</g>
<!-- Node3&#45;&gt;Node2 -->
<g id="edge2" class="edge"><title>Node3&#45;&gt;Node2</title>
<path fill="none" stroke="orange" stroke-dasharray="5,2" d="M108.5,-157.09C108.5,-144.757 108.5,-130.224 108.5,-119.731"/>
<polygon fill="orange" stroke="orange" points="105,-157.205 108.5,-167.205 112,-157.205 105,-157.205"/>
<text text-anchor="middle" x="137" y="-141" font-family="FreeSans" font-size="10.00"> &lt; Shape &gt;</text>
</g>
</g>
</svg>
