<?xml version="1.0" encoding="UTF-8" standalone="no"?>
<!DOCTYPE svg PUBLIC "-//W3C//DTD SVG 1.1//EN"
 "http://www.w3.org/Graphics/SVG/1.1/DTD/svg11.dtd">
<!-- Generated by graphviz version 2.38.0 (20140413.2041)
 -->
<!-- Title: LibBoard::Image Pages: 1 -->
<!--zoomable 533 -->
<svg id="main" version="1.1" xmlns="http://www.w3.org/2000/svg" xmlns:xlink="http://www.w3.org/1999/xlink" xml:space="preserve" onload="init(evt)">
<style type="text/css"><![CDATA[
.edge:hover path { stroke: red; }
.edge:hover polygon { stroke: red; fill: red; }
]]></style>
<script type="text/javascript"><![CDATA[
var edges = document.getElementsByTagName('g');
if (edges && edges.length) {
  for (var i=0;i<edges.length;i++) {
    if (edges[i].id.substr(0,4)=='edge') {
      edges[i].setAttribute('class','edge');
    }
  }
}
]]></script>
        <defs>
                <circle id="rim" cx="0" cy="0" r="7"/>
                <circle id="rim2" cx="0" cy="0" r="3.5"/>
                <g id="zoomPlus">
                        <use xlink:href="#rim" fill="#404040">
                                <set attributeName="fill" to="#808080" begin="zoomplus.mouseover" end="zoomplus.mouseout"/>
                        </use>
                        <path d="M-4,0h8M0,-4v8" fill="none" stroke="white" stroke-width="1.5" pointer-events="none"/>
                </g>
                <g id="zoomMin">
                        <use xlink:href="#rim" fill="#404040">
                                <set attributeName="fill" to="#808080" begin="zoomminus.mouseover" end="zoomminus.mouseout"/>
                        </use>
                        <path d="M-4,0h8" fill="none" stroke="white" stroke-width="1.5" pointer-events="none"/>
                </g>
                <g id="dirArrow">
                        <path fill="none" stroke="white" stroke-width="1.5" d="M0,-3.0v7 M-2.5,-0.5L0,-3.0L2.5,-0.5"/>
                </g>
               <g id="resetDef">
                       <use xlink:href="#rim2" fill="#404040">
                               <set attributeName="fill" to="#808080" begin="reset.mouseover" end="reset.mouseout"/>
                       </use>
               </g>
        </defs>

<script type="text/javascript">
var viewWidth = 547;
var viewHeight = 533;
var sectionId = 'dynsection-1';
</script>
<script xlink:href="svgpan.js"/>
<svg id="graph" class="graph">
<g id="viewport">
<title>LibBoard::Image</title>
<polygon fill="white" stroke="none" points="-4,4 -4,-529 542.5,-529 542.5,4 -4,4"/>
<!-- Node4 -->
<g id="node1" class="node"><title>Node4</title>
<polygon fill="#bfbfbf" stroke="black" points="0,-0.5 0,-19.5 95,-19.5 95,-0.5 0,-0.5"/>
<text text-anchor="middle" x="47.5" y="-7.5" font-family="FreeSans" font-size="10.00">LibBoard::Image</text>
</g>
<!-- Node5 -->
<g id="node2" class="node"><title>Node5</title>
<g id="a_node2"><a xlink:href="structLibBoard_1_1Rectangle.html" target="_top" xlink:title="A rectangle. ">
<polygon fill="white" stroke="black" points="49,-57.5 49,-76.5 160,-76.5 160,-57.5 49,-57.5"/>
<text text-anchor="middle" x="104.5" y="-64.5" font-family="FreeSans" font-size="10.00">LibBoard::Rectangle</text>
</a>
</g>
</g>
<!-- Node5&#45;&gt;Node4 -->
<g id="edge1" class="edge"><title>Node5&#45;&gt;Node4</title>
<path fill="none" stroke="midnightblue" d="M88.3495,-50.4162C78.0406,-40.469 65.0592,-27.9431 56.5318,-19.7149"/>
<polygon fill="midnightblue" stroke="midnightblue" points="85.9672,-52.9812 95.5938,-57.4062 90.8278,-47.9439 85.9672,-52.9812"/>
</g>
<!-- Node6 -->
<g id="node3" class="node"><title>Node6</title>
<g id="a_node3"><a xlink:href="structLibBoard_1_1Polyline.html" target="_top" xlink:title="A polygonal line described by a series of 2D points. ">
<polygon fill="white" stroke="black" points="132,-114.5 132,-133.5 233,-133.5 233,-114.5 132,-114.5"/>
<text text-anchor="middle" x="182.5" y="-121.5" font-family="FreeSans" font-size="10.00">LibBoard::Polyline</text>
</a>
</g>
</g>
<!-- Node6&#45;&gt;Node5 -->
<g id="edge2" class="edge"><title>Node6&#45;&gt;Node5</title>
<path fill="none" stroke="midnightblue" d="M161.989,-108.537C147.547,-98.3539 128.705,-85.0678 116.602,-76.5334"/>
<polygon fill="midnightblue" stroke="midnightblue" points="160.123,-111.504 170.312,-114.406 164.157,-105.783 160.123,-111.504"/>
</g>
<!-- Node7 -->
<g id="node4" class="node"><title>Node7</title>
<g id="a_node4"><a xlink:href="structLibBoard_1_1Shape.html" target="_top" xlink:title="Abstract structure for a 2D shape. ">
<polygon fill="white" stroke="black" points="190,-181.5 190,-200.5 285,-200.5 285,-181.5 190,-181.5"/>
<text text-anchor="middle" x="237.5" y="-188.5" font-family="FreeSans" font-size="10.00">LibBoard::Shape</text>
</a>
</g>
</g>
<!-- Node7&#45;&gt;Node6 -->
<g id="edge3" class="edge"><title>Node7&#45;&gt;Node6</title>
<path fill="none" stroke="midnightblue" d="M223.344,-173.27C212.621,-160.597 198.324,-143.701 189.8,-133.627"/>
<polygon fill="midnightblue" stroke="midnightblue" points="220.951,-175.861 230.082,-181.234 226.295,-171.339 220.951,-175.861"/>
</g>
<!-- Node8 -->
<g id="node5" class="node"><title>Node8</title>
<g id="a_node5"><a xlink:title="STL class. ">
<polygon fill="white" stroke="#bfbfbf" points="67,-310 67,-329 132,-329 132,-310 67,-310"/>
<text text-anchor="middle" x="99.5" y="-317" font-family="FreeSans" font-size="10.00">std::string</text>
</a>
</g>
</g>
<!-- Node8&#45;&gt;Node4 -->
<g id="edge15" class="edge"><title>Node8&#45;&gt;Node4</title>
<path fill="none" stroke="#9a32cd" stroke-dasharray="5,2" d="M81.62,-302.932C58.3154,-280.815 20.5,-237.86 20.5,-192 20.5,-192 20.5,-192 20.5,-66 20.5,-48.1296 32.1279,-30.0276 40.1221,-19.6941"/>
<polygon fill="#9a32cd" stroke="#9a32cd" points="79.4361,-305.678 89.1721,-309.857 84.1669,-300.519 79.4361,-305.678"/>
<text text-anchor="middle" x="39" y="-121.5" font-family="FreeSans" font-size="10.00"> _name</text>
</g>
<!-- Node8&#45;&gt;Node5 -->
<g id="edge14" class="edge"><title>Node8&#45;&gt;Node5</title>
<path fill="none" stroke="#9a32cd" stroke-dasharray="5,2" d="M99.8739,-299.766C100.88,-249.363 103.616,-112.275 104.329,-76.5865"/>
<polygon fill="#9a32cd" stroke="#9a32cd" points="96.3725,-299.809 99.6721,-309.877 103.371,-299.949 96.3725,-299.809"/>
<text text-anchor="middle" x="122" y="-155" font-family="FreeSans" font-size="10.00"> _name</text>
</g>
<!-- Node8&#45;&gt;Node6 -->
<g id="edge8" class="edge"><title>Node8&#45;&gt;Node6</title>
<path fill="none" stroke="#9a32cd" stroke-dasharray="5,2" d="M103.612,-299.751C109.973,-272.634 123.58,-221.305 143.5,-181 152.424,-162.944 166.694,-144.174 175.274,-133.6"/>
<polygon fill="#9a32cd" stroke="#9a32cd" points="100.135,-299.26 101.333,-309.787 106.961,-300.811 100.135,-299.26"/>
<text text-anchor="middle" x="162" y="-188.5" font-family="FreeSans" font-size="10.00"> _name</text>
</g>
<!-- Node8&#45;&gt;Node7 -->
<g id="edge4" class="edge"><title>Node8&#45;&gt;Node7</title>
<path fill="none" stroke="#9a32cd" stroke-dasharray="5,2" d="M111.748,-301.926C127.895,-280.852 157.968,-244.184 189.5,-219 198.465,-211.84 209.572,-205.46 218.843,-200.702"/>
<polygon fill="#9a32cd" stroke="#9a32cd" points="108.943,-299.833 105.717,-309.924 114.532,-304.047 108.943,-299.833"/>
<text text-anchor="middle" x="208" y="-227.5" font-family="FreeSans" font-size="10.00"> _name</text>
</g>
<!-- Node9 -->
<g id="node6" class="node"><title>Node9</title>
<g id="a_node6"><a xlink:title="STL class. ">
<polygon fill="white" stroke="#bfbfbf" points="48,-427.5 48,-457.5 151,-457.5 151,-427.5 48,-427.5"/>
<text text-anchor="start" x="56" y="-445.5" font-family="FreeSans" font-size="10.00">std::basic_string&lt;</text>
<text text-anchor="middle" x="99.5" y="-434.5" font-family="FreeSans" font-size="10.00"> char &gt;</text>
</a>
</g>
</g>
<!-- Node9&#45;&gt;Node8 -->
<g id="edge5" class="edge"><title>Node9&#45;&gt;Node8</title>
<path fill="none" stroke="midnightblue" d="M99.5,-416.838C99.5,-389.559 99.5,-347.079 99.5,-329.052"/>
<polygon fill="midnightblue" stroke="midnightblue" points="96.0001,-417.145 99.5,-427.145 103,-417.145 96.0001,-417.145"/>
</g>
<!-- Node10 -->
<g id="node7" class="node"><title>Node10</title>
<g id="a_node7"><a xlink:href="classDGtal_1_1Color.html" target="_top" xlink:title="Structure representing an RGB triple with alpha component. ">
<polygon fill="white" stroke="black" points="180.5,-310 180.5,-329 254.5,-329 254.5,-310 180.5,-310"/>
<text text-anchor="middle" x="217.5" y="-317" font-family="FreeSans" font-size="10.00">DGtal::Color</text>
</a>
</g>
</g>
<!-- Node10&#45;&gt;Node7 -->
<g id="edge6" class="edge"><title>Node10&#45;&gt;Node7</title>
<path fill="none" stroke="#9a32cd" stroke-dasharray="5,2" d="M220.456,-299.806C224.84,-272.076 232.895,-221.128 236.116,-200.756"/>
<polygon fill="#9a32cd" stroke="#9a32cd" points="216.979,-299.381 218.875,-309.805 223.893,-300.474 216.979,-299.381"/>
<text text-anchor="middle" x="259.5" y="-233" font-family="FreeSans" font-size="10.00"> _penColor</text>
<text text-anchor="middle" x="259.5" y="-222" font-family="FreeSans" font-size="10.00">_fillColor</text>
</g>
<!-- Node10&#45;&gt;Node10 -->
<g id="edge7" class="edge"><title>Node10&#45;&gt;Node10</title>
<path fill="none" stroke="#9a32cd" stroke-dasharray="5,2" d="M238.988,-333.227C255.585,-338.339 272.5,-333.763 272.5,-319.5 272.5,-302.438 248.294,-299.238 229.384,-309.902"/>
<polygon fill="#9a32cd" stroke="#9a32cd" points="239.953,-329.832 229.384,-329.098 237.188,-336.263 239.953,-329.832"/>
<text text-anchor="middle" x="294" y="-372" font-family="FreeSans" font-size="10.00"> Yellow</text>
<text text-anchor="middle" x="294" y="-361" font-family="FreeSans" font-size="10.00">Lime</text>
<text text-anchor="middle" x="294" y="-350" font-family="FreeSans" font-size="10.00">Navy</text>
<text text-anchor="middle" x="294" y="-339" font-family="FreeSans" font-size="10.00">Magenta</text>
<text text-anchor="middle" x="294" y="-328" font-family="FreeSans" font-size="10.00">White</text>
<text text-anchor="middle" x="294" y="-317" font-family="FreeSans" font-size="10.00">None</text>
<text text-anchor="middle" x="294" y="-306" font-family="FreeSans" font-size="10.00">Blue</text>
<text text-anchor="middle" x="294" y="-295" font-family="FreeSans" font-size="10.00">Aqua</text>
<text text-anchor="middle" x="294" y="-284" font-family="FreeSans" font-size="10.00">Purple</text>
<text text-anchor="middle" x="294" y="-273" font-family="FreeSans" font-size="10.00">Silver</text>
<text text-anchor="middle" x="294" y="-262" font-family="FreeSans" font-size="10.00">...</text>
</g>
<!-- Node11 -->
<g id="node8" class="node"><title>Node11</title>
<g id="a_node8"><a xlink:href="structLibBoard_1_1Path.html" target="_top" xlink:title="A path, according to Postscript and SVG definition. ">
<polygon fill="white" stroke="black" points="311.5,-181.5 311.5,-200.5 397.5,-200.5 397.5,-181.5 311.5,-181.5"/>
<text text-anchor="middle" x="354.5" y="-188.5" font-family="FreeSans" font-size="10.00">LibBoard::Path</text>
</a>
</g>
</g>
<!-- Node11&#45;&gt;Node6 -->
<g id="edge9" class="edge"><title>Node11&#45;&gt;Node6</title>
<path fill="none" stroke="#9a32cd" stroke-dasharray="5,2" d="M322.139,-177.771C288.002,-164.87 235.094,-144.876 205.161,-133.564"/>
<polygon fill="#9a32cd" stroke="#9a32cd" points="321.068,-181.107 331.66,-181.369 323.543,-174.559 321.068,-181.107"/>
<text text-anchor="middle" x="295" y="-155" font-family="FreeSans" font-size="10.00"> _path</text>
</g>
<!-- Node12 -->
<g id="node9" class="node"><title>Node12</title>
<polygon fill="white" stroke="#bfbfbf" points="334,-304.5 334,-334.5 455,-334.5 455,-304.5 334,-304.5"/>
<text text-anchor="start" x="342" y="-322.5" font-family="FreeSans" font-size="10.00">std::vector&lt; LibBoard</text>
<text text-anchor="middle" x="394.5" y="-311.5" font-family="FreeSans" font-size="10.00">::Point &gt;</text>
</g>
<!-- Node12&#45;&gt;Node11 -->
<g id="edge10" class="edge"><title>Node12&#45;&gt;Node11</title>
<path fill="none" stroke="#9a32cd" stroke-dasharray="5,2" d="M387.034,-294.888C378.034,-266.427 363.363,-220.029 357.279,-200.789"/>
<polygon fill="#9a32cd" stroke="#9a32cd" points="383.714,-296 390.066,-304.479 390.389,-293.889 383.714,-296"/>
<text text-anchor="middle" x="389.5" y="-227.5" font-family="FreeSans" font-size="10.00"> _points</text>
</g>
<!-- Node13 -->
<g id="node10" class="node"><title>Node13</title>
<g id="a_node10"><a xlink:href="structLibBoard_1_1Point.html" target="_top" xlink:title="Struct representing a 2D point. ">
<polygon fill="white" stroke="black" points="304,-433 304,-452 393,-452 393,-433 304,-433"/>
<text text-anchor="middle" x="348.5" y="-440" font-family="FreeSans" font-size="10.00">LibBoard::Point</text>
</a>
</g>
</g>
<!-- Node13&#45;&gt;Node12 -->
<g id="edge11" class="edge"><title>Node13&#45;&gt;Node12</title>
<path fill="none" stroke="#9a32cd" stroke-dasharray="5,2" d="M355.403,-423.342C364.635,-399.059 380.806,-356.522 389.163,-334.539"/>
<polygon fill="#9a32cd" stroke="#9a32cd" points="352.09,-422.207 351.808,-432.798 358.633,-424.694 352.09,-422.207"/>
<text text-anchor="middle" x="390" y="-401" font-family="FreeSans" font-size="10.00"> elements</text>
</g>
<!-- Node14 -->
<g id="node11" class="node"><title>Node14</title>
<g id="a_node11"><a xlink:title="STL class. ">
<polygon fill="white" stroke="#bfbfbf" points="411,-433 411,-452 506,-452 506,-433 411,-433"/>
<text text-anchor="middle" x="458.5" y="-440" font-family="FreeSans" font-size="10.00">std::vector&lt; T &gt;</text>
</a>
</g>
</g>
<!-- Node14&#45;&gt;Node12 -->
<g id="edge12" class="edge"><title>Node14&#45;&gt;Node12</title>
<path fill="none" stroke="orange" stroke-dasharray="5,2" d="M449.068,-423.668C436.254,-399.441 413.605,-356.621 401.926,-334.539"/>
<polygon fill="orange" stroke="orange" points="446.128,-425.595 453.897,-432.798 452.316,-422.322 446.128,-425.595"/>
<text text-anchor="middle" x="489.5" y="-401" font-family="FreeSans" font-size="10.00"> &lt; LibBoard::Point &gt;</text>
</g>
<!-- Node15 -->
<g id="node12" class="node"><title>Node15</title>
<polygon fill="white" stroke="#bfbfbf" points="444,-505.5 444,-524.5 473,-524.5 473,-505.5 444,-505.5"/>
<text text-anchor="middle" x="458.5" y="-512.5" font-family="FreeSans" font-size="10.00">T</text>
</g>
<!-- Node15&#45;&gt;Node14 -->
<g id="edge13" class="edge"><title>Node15&#45;&gt;Node14</title>
<path fill="none" stroke="#9a32cd" stroke-dasharray="5,2" d="M458.5,-494.942C458.5,-481.03 458.5,-462.82 458.5,-452.215"/>
<polygon fill="#9a32cd" stroke="#9a32cd" points="455,-495.355 458.5,-505.355 462,-495.355 455,-495.355"/>
<text text-anchor="middle" x="483" y="-479" font-family="FreeSans" font-size="10.00"> elements</text>
</g>
</g>
</svg>
        <g id="navigator" transform="translate(0 0)" fill="#404254">
                <rect fill="#f2f5e9" fill-opacity="0.5" stroke="#606060" stroke-width=".5" x="0" y="0" width="60" height="60"/>
                <use id="zoomplus" xlink:href="#zoomPlus" x="17" y="9" onmousedown="handleZoom(evt,'in')"/>
                <use id="zoomminus" xlink:href="#zoomMin" x="42" y="9" onmousedown="handleZoom(evt,'out')"/>
                <use id="reset" xlink:href="#resetDef" x="30" y="36" onmousedown="handleReset()"/>
                <g id="arrowUp" xlink:href="#dirArrow" transform="translate(30 24)" onmousedown="handlePan(0,-1)">
                  <use xlink:href="#rim" fill="#404040">
                        <set attributeName="fill" to="#808080" begin="arrowUp.mouseover" end="arrowUp.mouseout"/>
                  </use>
                  <path fill="none" stroke="white" stroke-width="1.5" d="M0,-3.0v7 M-2.5,-0.5L0,-3.0L2.5,-0.5"/>
                </g>
                <g id="arrowRight" xlink:href="#dirArrow" transform="rotate(90) translate(36 -43)" onmousedown="handlePan(1,0)">
                  <use xlink:href="#rim" fill="#404040">
                        <set attributeName="fill" to="#808080" begin="arrowRight.mouseover" end="arrowRight.mouseout"/>
                  </use>
                  <path fill="none" stroke="white" stroke-width="1.5" d="M0,-3.0v7 M-2.5,-0.5L0,-3.0L2.5,-0.5"/>
                </g>
                <g id="arrowDown" xlink:href="#dirArrow" transform="rotate(180) translate(-30 -48)" onmousedown="handlePan(0,1)">
                  <use xlink:href="#rim" fill="#404040">
                        <set attributeName="fill" to="#808080" begin="arrowDown.mouseover" end="arrowDown.mouseout"/>
                  </use>
                  <path fill="none" stroke="white" stroke-width="1.5" d="M0,-3.0v7 M-2.5,-0.5L0,-3.0L2.5,-0.5"/>
                </g>
                <g id="arrowLeft" xlink:href="#dirArrow" transform="rotate(270) translate(-36 17)" onmousedown="handlePan(-1,0)">
                  <use xlink:href="#rim" fill="#404040">
                        <set attributeName="fill" to="#808080" begin="arrowLeft.mouseover" end="arrowLeft.mouseout"/>
                  </use>
                  <path fill="none" stroke="white" stroke-width="1.5" d="M0,-3.0v7 M-2.5,-0.5L0,-3.0L2.5,-0.5"/>
                </g>
        </g>
        <svg viewBox="0 0 15 15" width="100%" height="30px" preserveAspectRatio="xMaxYMin meet">
         <g id="arrow_out" transform="scale(0.3 0.3)">
          <a xlink:href="structLibBoard_1_1Image__coll__graph_org.svg" target="_base">
           <rect id="button" ry="5" rx="5" y="6" x="6" height="38" width="38"
                fill="#f2f5e9" fill-opacity="0.5" stroke="#606060" stroke-width="1.0"/>
           <path id="arrow"
             d="M 11.500037,31.436501 C 11.940474,20.09759 22.043105,11.32322 32.158766,21.979434 L 37.068811,17.246167 C 37.068811,17.246167 37.088388,32 37.088388,32 L 22.160133,31.978069 C 22.160133,31.978069 26.997745,27.140456 26.997745,27.140456 C 18.528582,18.264221 13.291696,25.230495 11.500037,31.436501 z"
             style="fill:#404040;"/>
          </a>
         </g>
        </svg>
</svg>
