<?xml version="1.0" encoding="UTF-8" standalone="no"?>
<!DOCTYPE svg PUBLIC "-//W3C//DTD SVG 1.1//EN"
 "http://www.w3.org/Graphics/SVG/1.1/DTD/svg11.dtd">
<!-- Generated by graphviz version 2.38.0 (20140413.2041)
 -->
<!-- Title: DGtal::TriangulatedSurface&lt; TPoint &gt;::IndexedPropertyMap&lt; TData &gt; Pages: 1 -->
<!--zoomable 360 -->
<svg id="main" version="1.1" xmlns="http://www.w3.org/2000/svg" xmlns:xlink="http://www.w3.org/1999/xlink" xml:space="preserve" onload="init(evt)">
<style type="text/css"><![CDATA[
.edge:hover path { stroke: red; }
.edge:hover polygon { stroke: red; fill: red; }
]]></style>
<script type="text/javascript"><![CDATA[
var edges = document.getElementsByTagName('g');
if (edges && edges.length) {
  for (var i=0;i<edges.length;i++) {
    if (edges[i].id.substr(0,4)=='edge') {
      edges[i].setAttribute('class','edge');
    }
  }
}
]]></script>
        <defs>
                <circle id="rim" cx="0" cy="0" r="7"/>
                <circle id="rim2" cx="0" cy="0" r="3.5"/>
                <g id="zoomPlus">
                        <use xlink:href="#rim" fill="#404040">
                                <set attributeName="fill" to="#808080" begin="zoomplus.mouseover" end="zoomplus.mouseout"/>
                        </use>
                        <path d="M-4,0h8M0,-4v8" fill="none" stroke="white" stroke-width="1.5" pointer-events="none"/>
                </g>
                <g id="zoomMin">
                        <use xlink:href="#rim" fill="#404040">
                                <set attributeName="fill" to="#808080" begin="zoomminus.mouseover" end="zoomminus.mouseout"/>
                        </use>
                        <path d="M-4,0h8" fill="none" stroke="white" stroke-width="1.5" pointer-events="none"/>
                </g>
                <g id="dirArrow">
                        <path fill="none" stroke="white" stroke-width="1.5" d="M0,-3.0v7 M-2.5,-0.5L0,-3.0L2.5,-0.5"/>
                </g>
               <g id="resetDef">
                       <use xlink:href="#rim2" fill="#404040">
                               <set attributeName="fill" to="#808080" begin="reset.mouseover" end="reset.mouseout"/>
                       </use>
               </g>
        </defs>

<script type="text/javascript">
var viewWidth = 1736;
var viewHeight = 360;
var sectionId = 'dynsection-0';
</script>
<script xlink:href="svgpan.js"/>
<svg id="graph" class="graph">
<g id="viewport">
<title>DGtal::TriangulatedSurface&lt; TPoint &gt;::IndexedPropertyMap&lt; TData &gt;</title>
<polygon fill="white" stroke="none" points="-4,4 -4,-355.5 1732,-355.5 1732,4 -4,4"/>
<!-- Node1 -->
<g id="node1" class="node"><title>Node1</title>
<polygon fill="#bfbfbf" stroke="black" points="1555,-43 1555,-84 1728,-84 1728,-43 1555,-43"/>
<text text-anchor="start" x="1563" y="-72" font-family="FreeSans" font-size="10.00">DGtal::TriangulatedSurface</text>
<text text-anchor="start" x="1563" y="-61" font-family="FreeSans" font-size="10.00">&lt; TPoint &gt;::IndexedPropertyMap</text>
<text text-anchor="middle" x="1641.5" y="-50" font-family="FreeSans" font-size="10.00">&lt; TData &gt;</text>
</g>
<!-- Node2 -->
<g id="node2" class="node"><title>Node2</title>
<g id="a_node2"><a xlink:href="classDGtal_1_1TriangulatedSurface.html" target="_top" xlink:title="Aim: Represents a triangulated surface. The topology is stored with a half&#45;edge data structure...">
<polygon fill="white" stroke="black" points="1320,-127.5 1320,-157.5 1464,-157.5 1464,-127.5 1320,-127.5"/>
<text text-anchor="start" x="1328" y="-145.5" font-family="FreeSans" font-size="10.00">DGtal::TriangulatedSurface</text>
<text text-anchor="middle" x="1392" y="-134.5" font-family="FreeSans" font-size="10.00">&lt; TPoint &gt;</text>
</a>
</g>
</g>
<!-- Node2&#45;&gt;Node1 -->
<g id="edge1" class="edge"><title>Node2&#45;&gt;Node1</title>
<path fill="none" stroke="#9a32cd" stroke-dasharray="5,2" d="M1449.94,-124.325C1487.64,-112.293 1537.14,-96.4919 1576.24,-84.0103"/>
<polygon fill="#9a32cd" stroke="#9a32cd" points="1448.6,-121.08 1440.14,-127.455 1450.73,-127.748 1448.6,-121.08"/>
<text text-anchor="middle" x="1509.5" y="-115.5" font-family="FreeSans" font-size="10.00"> mySurface</text>
</g>
<!-- Node3 -->
<g id="node3" class="node"><title>Node3</title>
<polygon fill="white" stroke="#bfbfbf" points="792.5,-146 792.5,-165 906.5,-165 906.5,-146 792.5,-146"/>
<text text-anchor="middle" x="849.5" y="-153" font-family="FreeSans" font-size="10.00">std::vector&lt; Point &gt;</text>
</g>
<!-- Node3&#45;&gt;Node2 -->
<g id="edge2" class="edge"><title>Node3&#45;&gt;Node2</title>
<path fill="none" stroke="#9a32cd" stroke-dasharray="5,2" d="M916.764,-153.906C1019.07,-151.445 1214.65,-146.741 1319.85,-144.211"/>
<polygon fill="#9a32cd" stroke="#9a32cd" points="916.473,-150.412 906.56,-154.152 916.641,-157.41 916.473,-150.412"/>
<text text-anchor="middle" x="1143.5" y="-153.5" font-family="FreeSans" font-size="10.00"> myPositions</text>
</g>
<!-- Node4 -->
<g id="node4" class="node"><title>Node4</title>
<polygon fill="white" stroke="#bfbfbf" points="462.5,-243 462.5,-262 524.5,-262 524.5,-243 462.5,-243"/>
<text text-anchor="middle" x="493.5" y="-250" font-family="FreeSans" font-size="10.00">MyPointD</text>
</g>
<!-- Node4&#45;&gt;Node3 -->
<g id="edge3" class="edge"><title>Node4&#45;&gt;Node3</title>
<path fill="none" stroke="#9a32cd" stroke-dasharray="5,2" d="M534.635,-256.142C598.339,-261.034 718.708,-266.382 751,-240.5 774.725,-221.485 747.163,-195.656 769,-174.5 775.523,-168.18 783.753,-163.833 792.429,-160.867"/>
<polygon fill="#9a32cd" stroke="#9a32cd" points="534.795,-252.643 524.547,-255.334 534.236,-259.621 534.795,-252.643"/>
<text text-anchor="middle" x="671.5" y="-263.5" font-family="FreeSans" font-size="10.00"> elements</text>
</g>
<!-- Node5 -->
<g id="node5" class="node"><title>Node5</title>
<g id="a_node5"><a xlink:title="STL class. ">
<polygon fill="white" stroke="#bfbfbf" points="446,-124 446,-143 541,-143 541,-124 446,-124"/>
<text text-anchor="middle" x="493.5" y="-131" font-family="FreeSans" font-size="10.00">std::vector&lt; T &gt;</text>
</a>
</g>
</g>
<!-- Node5&#45;&gt;Node3 -->
<g id="edge4" class="edge"><title>Node5&#45;&gt;Node3</title>
<path fill="none" stroke="orange" stroke-dasharray="5,2" d="M551.402,-137.036C617.68,-141.155 726.478,-147.917 792.407,-152.014"/>
<polygon fill="orange" stroke="orange" points="551.341,-133.526 541.143,-136.399 550.907,-140.512 551.341,-133.526"/>
<text text-anchor="middle" x="671.5" y="-152.5" font-family="FreeSans" font-size="10.00"> &lt; Point &gt;</text>
</g>
<!-- Node7 -->
<g id="node7" class="node"><title>Node7</title>
<polygon fill="white" stroke="#bfbfbf" points="1080.5,-100 1080.5,-119 1206.5,-119 1206.5,-100 1080.5,-100"/>
<text text-anchor="middle" x="1143.5" y="-107" font-family="FreeSans" font-size="10.00">std::vector&lt; Triangle &gt;</text>
</g>
<!-- Node5&#45;&gt;Node7 -->
<g id="edge11" class="edge"><title>Node5&#45;&gt;Node7</title>
<path fill="none" stroke="orange" stroke-dasharray="5,2" d="M551.256,-131.398C672.167,-126.92 954.352,-116.468 1080.11,-111.811"/>
<polygon fill="orange" stroke="orange" points="550.966,-127.906 541.103,-131.774 551.225,-134.901 550.966,-127.906"/>
<text text-anchor="middle" x="849.5" y="-126.5" font-family="FreeSans" font-size="10.00"> &lt; Triangle &gt;</text>
</g>
<!-- Node15 -->
<g id="node15" class="node"><title>Node15</title>
<polygon fill="white" stroke="#bfbfbf" points="782.5,-229 782.5,-270 916.5,-270 916.5,-229 782.5,-229"/>
<text text-anchor="start" x="790.5" y="-258" font-family="FreeSans" font-size="10.00">std::vector&lt; DGtal</text>
<text text-anchor="start" x="790.5" y="-247" font-family="FreeSans" font-size="10.00">::HalfEdgeDataStructure</text>
<text text-anchor="middle" x="849.5" y="-236" font-family="FreeSans" font-size="10.00">::HalfEdge &gt;</text>
</g>
<!-- Node5&#45;&gt;Node15 -->
<g id="edge19" class="edge"><title>Node5&#45;&gt;Node15</title>
<path fill="none" stroke="orange" stroke-dasharray="5,2" d="M513.926,-149.606C532.671,-164.195 562.478,-184.968 592,-195.5 659.032,-219.413 681.734,-198.151 751,-214.5 766.578,-218.177 783.109,-223.528 798.047,-228.944"/>
<polygon fill="orange" stroke="orange" points="515.898,-146.702 505.897,-143.205 511.534,-152.176 515.898,-146.702"/>
<text text-anchor="start" x="592" y="-228.5" font-family="FreeSans" font-size="10.00"> &lt; DGtal::HalfEdgeDataStructure</text>
<text text-anchor="middle" x="671.5" y="-217.5" font-family="FreeSans" font-size="10.00">::HalfEdge &gt;</text>
</g>
<!-- Node17 -->
<g id="node17" class="node"><title>Node17</title>
<polygon fill="white" stroke="#bfbfbf" points="791.5,-184 791.5,-203 907.5,-203 907.5,-184 791.5,-184"/>
<text text-anchor="middle" x="849.5" y="-191" font-family="FreeSans" font-size="10.00">std::vector&lt; Index &gt;</text>
</g>
<!-- Node5&#45;&gt;Node17 -->
<g id="edge21" class="edge"><title>Node5&#45;&gt;Node17</title>
<path fill="none" stroke="orange" stroke-dasharray="5,2" d="M533.207,-146.116C550.963,-151.514 572.385,-157.485 592,-161.5 628.876,-169.047 727.561,-180.444 791.217,-187.404"/>
<polygon fill="orange" stroke="orange" points="533.806,-142.638 523.218,-143.023 531.735,-149.325 533.806,-142.638"/>
<text text-anchor="middle" x="671.5" y="-186.5" font-family="FreeSans" font-size="10.00"> &lt; Index &gt;</text>
</g>
<!-- Node18 -->
<g id="node18" class="node"><title>Node18</title>
<g id="a_node18"><a xlink:href="classDGtal_1_1OwningOrAliasingPtr.html" target="_top" xlink:title="DGtal::OwningOrAliasingPtr\l\&lt; Storage \&gt;">
<polygon fill="white" stroke="black" points="776.5,-0.5 776.5,-30.5 922.5,-30.5 922.5,-0.5 776.5,-0.5"/>
<text text-anchor="start" x="784.5" y="-18.5" font-family="FreeSans" font-size="10.00">DGtal::OwningOrAliasingPtr</text>
<text text-anchor="middle" x="849.5" y="-7.5" font-family="FreeSans" font-size="10.00">&lt; Storage &gt;</text>
</a>
</g>
</g>
<!-- Node5&#45;&gt;Node18 -->
<g id="edge23" class="edge"><title>Node5&#45;&gt;Node18</title>
<path fill="none" stroke="#9a32cd" stroke-dasharray="5,2" d="M521.703,-119.479C540.878,-110.175 567.419,-98.441 592,-91.5 660.715,-72.0971 691.254,-107.599 751,-68.5 763.693,-60.1932 756.963,-48.7317 769,-39.5 773.462,-36.0782 778.409,-33.142 783.591,-30.6228"/>
<polygon fill="#9a32cd" stroke="#9a32cd" points="520.072,-116.381 512.661,-123.952 523.176,-122.656 520.072,-116.381"/>
<text text-anchor="middle" x="671.5" y="-94.5" font-family="FreeSans" font-size="10.00"> myPtr</text>
</g>
<!-- Node6 -->
<g id="node6" class="node"><title>Node6</title>
<polygon fill="white" stroke="#bfbfbf" points="0,-92 0,-111 29,-111 29,-92 0,-92"/>
<text text-anchor="middle" x="14.5" y="-99" font-family="FreeSans" font-size="10.00">T</text>
</g>
<!-- Node6&#45;&gt;Node5 -->
<g id="edge5" class="edge"><title>Node6&#45;&gt;Node5</title>
<path fill="none" stroke="#9a32cd" stroke-dasharray="5,2" d="M39.4223,-105.545C41.9758,-105.903 44.5385,-106.231 47,-106.5 192.002,-122.364 364.649,-129.497 445.876,-132.161"/>
<polygon fill="#9a32cd" stroke="#9a32cd" points="39.6773,-102.043 29.2611,-103.981 38.6119,-108.962 39.6773,-102.043"/>
<text text-anchor="middle" x="159" y="-123.5" font-family="FreeSans" font-size="10.00"> elements</text>
</g>
<!-- Node10 -->
<g id="node10" class="node"><title>Node10</title>
<g id="a_node10"><a xlink:title="STL class. ">
<polygon fill="white" stroke="#bfbfbf" points="114,-63 114,-82 204,-82 204,-63 114,-63"/>
<text text-anchor="middle" x="159" y="-70" font-family="FreeSans" font-size="10.00">std::array&lt; T &gt;</text>
</a>
</g>
</g>
<!-- Node6&#45;&gt;Node10 -->
<g id="edge10" class="edge"><title>Node6&#45;&gt;Node10</title>
<path fill="none" stroke="#9a32cd" stroke-dasharray="5,2" d="M39.07,-96.7033C59.3041,-92.5855 89.02,-86.538 113.686,-81.5184"/>
<polygon fill="#9a32cd" stroke="#9a32cd" points="38.2646,-93.2954 29.1635,-98.7194 39.6606,-100.155 38.2646,-93.2954"/>
<text text-anchor="middle" x="71.5" y="-97.5" font-family="FreeSans" font-size="10.00"> elements</text>
</g>
<!-- Node13 -->
<g id="node13" class="node"><title>Node13</title>
<g id="a_node13"><a xlink:title="STL class. ">
<polygon fill="white" stroke="#bfbfbf" points="444,-331 444,-350 543,-350 543,-331 444,-331"/>
<text text-anchor="middle" x="493.5" y="-338" font-family="FreeSans" font-size="10.00">std::map&lt; K, T &gt;</text>
</a>
</g>
</g>
<!-- Node6&#45;&gt;Node13 -->
<g id="edge16" class="edge"><title>Node6&#45;&gt;Node13</title>
<path fill="none" stroke="#9a32cd" stroke-dasharray="5,2" d="M36.8978,-116.927C40.2381,-119.195 43.6825,-121.453 47,-123.5 204.401,-220.606 240.255,-255.442 413,-321.5 422.808,-325.251 433.589,-328.421 443.961,-331.032"/>
<polygon fill="#9a32cd" stroke="#9a32cd" points="38.6625,-113.891 28.4569,-111.046 34.6606,-119.634 38.6625,-113.891"/>
<text text-anchor="middle" x="159" y="-223.5" font-family="FreeSans" font-size="10.00"> elements</text>
</g>
<!-- Node19 -->
<g id="node19" class="node"><title>Node19</title>
<g id="a_node19"><a xlink:href="classDGtal_1_1OwningOrAliasingPtr.html" target="_top" xlink:title="Aim: This class describes a smart pointer that is, given the constructor called by the user...">
<polygon fill="white" stroke="black" points="222,-13 222,-32 395,-32 395,-13 222,-13"/>
<text text-anchor="middle" x="308.5" y="-20" font-family="FreeSans" font-size="10.00">DGtal::OwningOrAliasingPtr&lt; T &gt;</text>
</a>
</g>
</g>
<!-- Node6&#45;&gt;Node19 -->
<g id="edge25" class="edge"><title>Node6&#45;&gt;Node19</title>
<path fill="none" stroke="#9a32cd" stroke-dasharray="5,2" d="M29.9573,-84.0903C34.9017,-79.0709 40.7701,-74.0089 47,-70.5 100.291,-40.4848 168.522,-28.7014 221.785,-24.3074"/>
<polygon fill="#9a32cd" stroke="#9a32cd" points="27.1644,-81.9594 23.0287,-91.7137 32.3446,-86.6675 27.1644,-81.9594"/>
<text text-anchor="middle" x="71.5" y="-73.5" font-family="FreeSans" font-size="10.00"> myPtr</text>
</g>
<!-- Node7&#45;&gt;Node2 -->
<g id="edge6" class="edge"><title>Node7&#45;&gt;Node2</title>
<path fill="none" stroke="#9a32cd" stroke-dasharray="5,2" d="M1216.66,-119.099C1243.46,-122.67 1274.12,-126.762 1302,-130.5 1307.72,-131.267 1313.64,-132.062 1319.59,-132.863"/>
<polygon fill="#9a32cd" stroke="#9a32cd" points="1216.97,-115.609 1206.59,-117.757 1216.04,-122.547 1216.97,-115.609"/>
<text text-anchor="middle" x="1272" y="-133.5" font-family="FreeSans" font-size="10.00"> myTriangles</text>
</g>
<!-- Node8 -->
<g id="node8" class="node"><title>Node8</title>
<g id="a_node8"><a xlink:href="structDGtal_1_1HalfEdgeDataStructure_1_1Triangle.html" target="_top" xlink:title="Represents an unoriented triangle as three vertices. ">
<polygon fill="white" stroke="black" points="769,-49.5 769,-79.5 930,-79.5 930,-49.5 769,-49.5"/>
<text text-anchor="start" x="777" y="-67.5" font-family="FreeSans" font-size="10.00">DGtal::HalfEdgeDataStructure</text>
<text text-anchor="middle" x="849.5" y="-56.5" font-family="FreeSans" font-size="10.00">::Triangle</text>
</a>
</g>
</g>
<!-- Node8&#45;&gt;Node7 -->
<g id="edge7" class="edge"><title>Node8&#45;&gt;Node7</title>
<path fill="none" stroke="#9a32cd" stroke-dasharray="5,2" d="M940.194,-76.0994C973.193,-80.5912 1010.84,-85.9787 1045,-91.5 1060.63,-94.0269 1077.62,-97.0622 1092.97,-99.9143"/>
<polygon fill="#9a32cd" stroke="#9a32cd" points="940.49,-72.6076 930.111,-74.735 939.551,-79.5444 940.49,-72.6076"/>
<text text-anchor="middle" x="996.5" y="-94.5" font-family="FreeSans" font-size="10.00"> elements</text>
</g>
<!-- Node9 -->
<g id="node9" class="node"><title>Node9</title>
<polygon fill="white" stroke="#bfbfbf" points="417,-54 417,-73 570,-73 570,-54 417,-54"/>
<text text-anchor="middle" x="493.5" y="-61" font-family="FreeSans" font-size="10.00">std::array&lt; VertexIndex, 3 &gt;</text>
</g>
<!-- Node9&#45;&gt;Node8 -->
<g id="edge8" class="edge"><title>Node9&#45;&gt;Node8</title>
<path fill="none" stroke="#9a32cd" stroke-dasharray="5,2" d="M580.108,-57.9337C584.127,-57.7662 588.107,-57.6197 592,-57.5 662.633,-55.3287 680.379,-54.9681 751,-57.5 756.851,-57.7098 762.896,-57.9901 768.976,-58.3183"/>
<polygon fill="#9a32cd" stroke="#9a32cd" points="579.894,-54.4398 570.063,-58.3903 580.212,-61.4325 579.894,-54.4398"/>
<text text-anchor="middle" x="671.5" y="-60.5" font-family="FreeSans" font-size="10.00"> v</text>
</g>
<!-- Node10&#45;&gt;Node9 -->
<g id="edge9" class="edge"><title>Node10&#45;&gt;Node9</title>
<path fill="none" stroke="orange" stroke-dasharray="5,2" d="M214.415,-71.0271C269.532,-69.5352 355.228,-67.2156 416.922,-65.5457"/>
<polygon fill="orange" stroke="orange" points="214.055,-67.5355 204.153,-71.3049 214.245,-74.5329 214.055,-67.5355"/>
<text text-anchor="middle" x="308.5" y="-74.5" font-family="FreeSans" font-size="10.00"> &lt; VertexIndex, 3 &gt;</text>
</g>
<!-- Node11 -->
<g id="node11" class="node"><title>Node11</title>
<g id="a_node11"><a xlink:href="classDGtal_1_1HalfEdgeDataStructure.html" target="_top" xlink:title="Aim: This class represents an half&#45;edge data structure, which is a structure for representing the top...">
<polygon fill="white" stroke="black" points="1063,-212 1063,-231 1224,-231 1224,-212 1063,-212"/>
<text text-anchor="middle" x="1143.5" y="-219" font-family="FreeSans" font-size="10.00">DGtal::HalfEdgeDataStructure</text>
</a>
</g>
</g>
<!-- Node11&#45;&gt;Node2 -->
<g id="edge12" class="edge"><title>Node11&#45;&gt;Node2</title>
<path fill="none" stroke="#9a32cd" stroke-dasharray="5,2" d="M1183.9,-208.874C1227.42,-194.926 1297.47,-172.476 1343.87,-157.606"/>
<polygon fill="#9a32cd" stroke="#9a32cd" points="1182.69,-205.586 1174.23,-211.971 1184.82,-212.252 1182.69,-205.586"/>
<text text-anchor="middle" x="1272" y="-192.5" font-family="FreeSans" font-size="10.00"> myHEDS</text>
</g>
<!-- Node12 -->
<g id="node12" class="node"><title>Node12</title>
<polygon fill="white" stroke="#bfbfbf" points="785,-310 785,-329 914,-329 914,-310 785,-310"/>
<text text-anchor="middle" x="849.5" y="-317" font-family="FreeSans" font-size="10.00">std::map&lt; Arc, Index &gt;</text>
</g>
<!-- Node12&#45;&gt;Node11 -->
<g id="edge13" class="edge"><title>Node12&#45;&gt;Node11</title>
<path fill="none" stroke="#9a32cd" stroke-dasharray="5,2" d="M889.946,-306.746C929.288,-293.972 991.419,-273.656 1045,-255.5 1068.94,-247.388 1096.09,-237.898 1115.64,-231.008"/>
<polygon fill="#9a32cd" stroke="#9a32cd" points="888.643,-303.489 880.211,-309.904 890.803,-310.148 888.643,-303.489"/>
<text text-anchor="middle" x="996.5" y="-290.5" font-family="FreeSans" font-size="10.00"> myArc2Index</text>
</g>
<!-- Node13&#45;&gt;Node12 -->
<g id="edge14" class="edge"><title>Node13&#45;&gt;Node12</title>
<path fill="none" stroke="orange" stroke-dasharray="5,2" d="M553.673,-336.99C617.651,-333.194 719.258,-327.167 784.908,-323.272"/>
<polygon fill="orange" stroke="orange" points="553.126,-333.516 543.351,-337.602 553.54,-340.504 553.126,-333.516"/>
<text text-anchor="middle" x="671.5" y="-336.5" font-family="FreeSans" font-size="10.00"> &lt; Arc, Index &gt;</text>
</g>
<!-- Node14 -->
<g id="node14" class="node"><title>Node14</title>
<polygon fill="white" stroke="#bfbfbf" points="144.5,-331 144.5,-350 173.5,-350 173.5,-331 144.5,-331"/>
<text text-anchor="middle" x="159" y="-338" font-family="FreeSans" font-size="10.00">K</text>
</g>
<!-- Node14&#45;&gt;Node13 -->
<g id="edge15" class="edge"><title>Node14&#45;&gt;Node13</title>
<path fill="none" stroke="#9a32cd" stroke-dasharray="5,2" d="M183.896,-340.5C238.1,-340.5 371.27,-340.5 443.688,-340.5"/>
<polygon fill="#9a32cd" stroke="#9a32cd" points="183.864,-337 173.864,-340.5 183.864,-344 183.864,-337"/>
<text text-anchor="middle" x="308.5" y="-343.5" font-family="FreeSans" font-size="10.00"> keys</text>
</g>
<!-- Node15&#45;&gt;Node11 -->
<g id="edge17" class="edge"><title>Node15&#45;&gt;Node11</title>
<path fill="none" stroke="#9a32cd" stroke-dasharray="5,2" d="M926.885,-242.175C968.684,-238.167 1020.42,-233.206 1062.74,-229.148"/>
<polygon fill="#9a32cd" stroke="#9a32cd" points="926.38,-238.708 916.759,-243.146 927.048,-245.676 926.38,-238.708"/>
<text text-anchor="middle" x="996.5" y="-243.5" font-family="FreeSans" font-size="10.00"> myHalfEdges</text>
</g>
<!-- Node16 -->
<g id="node16" class="node"><title>Node16</title>
<g id="a_node16"><a xlink:href="structDGtal_1_1HalfEdgeDataStructure_1_1HalfEdge.html" target="_top" xlink:title="DGtal::HalfEdgeDataStructure\l::HalfEdge">
<polygon fill="white" stroke="black" points="413,-281.5 413,-311.5 574,-311.5 574,-281.5 413,-281.5"/>
<text text-anchor="start" x="421" y="-299.5" font-family="FreeSans" font-size="10.00">DGtal::HalfEdgeDataStructure</text>
<text text-anchor="middle" x="493.5" y="-288.5" font-family="FreeSans" font-size="10.00">::HalfEdge</text>
</a>
</g>
</g>
<!-- Node16&#45;&gt;Node15 -->
<g id="edge18" class="edge"><title>Node16&#45;&gt;Node15</title>
<path fill="none" stroke="#9a32cd" stroke-dasharray="5,2" d="M584.114,-292.456C633.58,-289.313 695.967,-283.849 751,-274.5 761.251,-272.759 772.003,-270.476 782.471,-267.998"/>
<polygon fill="#9a32cd" stroke="#9a32cd" points="583.847,-288.966 574.08,-293.073 584.277,-295.953 583.847,-288.966"/>
<text text-anchor="middle" x="671.5" y="-294.5" font-family="FreeSans" font-size="10.00"> elements</text>
</g>
<!-- Node17&#45;&gt;Node11 -->
<g id="edge20" class="edge"><title>Node17&#45;&gt;Node11</title>
<path fill="none" stroke="#9a32cd" stroke-dasharray="5,2" d="M918.119,-189.474C955.665,-188.333 1003.11,-188.698 1045,-194.5 1069.36,-197.874 1096.23,-205.633 1115.59,-211.971"/>
<polygon fill="#9a32cd" stroke="#9a32cd" points="917.677,-185.987 907.805,-189.833 917.921,-192.983 917.677,-185.987"/>
<text text-anchor="middle" x="996.5" y="-219.5" font-family="FreeSans" font-size="10.00"> myVertexHalfEdges</text>
<text text-anchor="middle" x="996.5" y="-208.5" font-family="FreeSans" font-size="10.00">myFaceHalfEdges</text>
<text text-anchor="middle" x="996.5" y="-197.5" font-family="FreeSans" font-size="10.00">myEdgeHalfEdges</text>
</g>
<!-- Node18&#45;&gt;Node1 -->
<g id="edge22" class="edge"><title>Node18&#45;&gt;Node1</title>
<path fill="none" stroke="#9a32cd" stroke-dasharray="5,2" d="M932.812,-20.5012C1083.4,-29.651 1401.82,-48.998 1554.85,-58.2961"/>
<polygon fill="#9a32cd" stroke="#9a32cd" points="932.895,-16.9999 922.702,-19.8869 932.471,-23.9871 932.895,-16.9999"/>
<text text-anchor="middle" x="1272" y="-46.5" font-family="FreeSans" font-size="10.00"> myData</text>
</g>
<!-- Node19&#45;&gt;Node18 -->
<g id="edge24" class="edge"><title>Node19&#45;&gt;Node18</title>
<path fill="none" stroke="orange" stroke-dasharray="5,2" d="M405.28,-21.2561C511.474,-19.877 680.381,-17.6834 776.099,-16.4403"/>
<polygon fill="orange" stroke="orange" points="405.158,-17.7573 395.204,-21.387 405.249,-24.7567 405.158,-17.7573"/>
<text text-anchor="middle" x="493.5" y="-24.5" font-family="FreeSans" font-size="10.00"> &lt; Storage &gt;</text>
</g>
</g>
</svg>
        <g id="navigator" transform="translate(0 0)" fill="#404254">
                <rect fill="#f2f5e9" fill-opacity="0.5" stroke="#606060" stroke-width=".5" x="0" y="0" width="60" height="60"/>
                <use id="zoomplus" xlink:href="#zoomPlus" x="17" y="9" onmousedown="handleZoom(evt,'in')"/>
                <use id="zoomminus" xlink:href="#zoomMin" x="42" y="9" onmousedown="handleZoom(evt,'out')"/>
                <use id="reset" xlink:href="#resetDef" x="30" y="36" onmousedown="handleReset()"/>
                <g id="arrowUp" xlink:href="#dirArrow" transform="translate(30 24)" onmousedown="handlePan(0,-1)">
                  <use xlink:href="#rim" fill="#404040">
                        <set attributeName="fill" to="#808080" begin="arrowUp.mouseover" end="arrowUp.mouseout"/>
                  </use>
                  <path fill="none" stroke="white" stroke-width="1.5" d="M0,-3.0v7 M-2.5,-0.5L0,-3.0L2.5,-0.5"/>
                </g>
                <g id="arrowRight" xlink:href="#dirArrow" transform="rotate(90) translate(36 -43)" onmousedown="handlePan(1,0)">
                  <use xlink:href="#rim" fill="#404040">
                        <set attributeName="fill" to="#808080" begin="arrowRight.mouseover" end="arrowRight.mouseout"/>
                  </use>
                  <path fill="none" stroke="white" stroke-width="1.5" d="M0,-3.0v7 M-2.5,-0.5L0,-3.0L2.5,-0.5"/>
                </g>
                <g id="arrowDown" xlink:href="#dirArrow" transform="rotate(180) translate(-30 -48)" onmousedown="handlePan(0,1)">
                  <use xlink:href="#rim" fill="#404040">
                        <set attributeName="fill" to="#808080" begin="arrowDown.mouseover" end="arrowDown.mouseout"/>
                  </use>
                  <path fill="none" stroke="white" stroke-width="1.5" d="M0,-3.0v7 M-2.5,-0.5L0,-3.0L2.5,-0.5"/>
                </g>
                <g id="arrowLeft" xlink:href="#dirArrow" transform="rotate(270) translate(-36 17)" onmousedown="handlePan(-1,0)">
                  <use xlink:href="#rim" fill="#404040">
                        <set attributeName="fill" to="#808080" begin="arrowLeft.mouseover" end="arrowLeft.mouseout"/>
                  </use>
                  <path fill="none" stroke="white" stroke-width="1.5" d="M0,-3.0v7 M-2.5,-0.5L0,-3.0L2.5,-0.5"/>
                </g>
        </g>
        <svg viewBox="0 0 15 15" width="100%" height="30px" preserveAspectRatio="xMaxYMin meet">
         <g id="arrow_out" transform="scale(0.3 0.3)">
          <a xlink:href="structDGtal_1_1TriangulatedSurface_1_1IndexedPropertyMap__coll__graph_org.svg" target="_base">
           <rect id="button" ry="5" rx="5" y="6" x="6" height="38" width="38"
                fill="#f2f5e9" fill-opacity="0.5" stroke="#606060" stroke-width="1.0"/>
           <path id="arrow"
             d="M 11.500037,31.436501 C 11.940474,20.09759 22.043105,11.32322 32.158766,21.979434 L 37.068811,17.246167 C 37.068811,17.246167 37.088388,32 37.088388,32 L 22.160133,31.978069 C 22.160133,31.978069 26.997745,27.140456 26.997745,27.140456 C 18.528582,18.264221 13.291696,25.230495 11.500037,31.436501 z"
             style="fill:#404040;"/>
          </a>
         </g>
        </svg>
</svg>
