<?xml version="1.0" encoding="UTF-8" standalone="no"?>
<!DOCTYPE svg PUBLIC "-//W3C//DTD SVG 1.1//EN"
 "http://www.w3.org/Graphics/SVG/1.1/DTD/svg11.dtd">
<!-- Generated by graphviz version 2.38.0 (20140413.2041)
 -->
<!-- Title: LibBoard::Triangle Pages: 1 -->
<!--zoomable 476 -->
<svg id="main" version="1.1" xmlns="http://www.w3.org/2000/svg" xmlns:xlink="http://www.w3.org/1999/xlink" xml:space="preserve" onload="init(evt)">
<style type="text/css"><![CDATA[
.edge:hover path { stroke: red; }
.edge:hover polygon { stroke: red; fill: red; }
]]></style>
<script type="text/javascript"><![CDATA[
var edges = document.getElementsByTagName('g');
if (edges && edges.length) {
  for (var i=0;i<edges.length;i++) {
    if (edges[i].id.substr(0,4)=='edge') {
      edges[i].setAttribute('class','edge');
    }
  }
}
]]></script>
        <defs>
                <circle id="rim" cx="0" cy="0" r="7"/>
                <circle id="rim2" cx="0" cy="0" r="3.5"/>
                <g id="zoomPlus">
                        <use xlink:href="#rim" fill="#404040">
                                <set attributeName="fill" to="#808080" begin="zoomplus.mouseover" end="zoomplus.mouseout"/>
                        </use>
                        <path d="M-4,0h8M0,-4v8" fill="none" stroke="white" stroke-width="1.5" pointer-events="none"/>
                </g>
                <g id="zoomMin">
                        <use xlink:href="#rim" fill="#404040">
                                <set attributeName="fill" to="#808080" begin="zoomminus.mouseover" end="zoomminus.mouseout"/>
                        </use>
                        <path d="M-4,0h8" fill="none" stroke="white" stroke-width="1.5" pointer-events="none"/>
                </g>
                <g id="dirArrow">
                        <path fill="none" stroke="white" stroke-width="1.5" d="M0,-3.0v7 M-2.5,-0.5L0,-3.0L2.5,-0.5"/>
                </g>
               <g id="resetDef">
                       <use xlink:href="#rim2" fill="#404040">
                               <set attributeName="fill" to="#808080" begin="reset.mouseover" end="reset.mouseout"/>
                       </use>
               </g>
        </defs>

<script type="text/javascript">
var viewWidth = 496;
var viewHeight = 476;
var sectionId = 'dynsection-1';
</script>
<script xlink:href="svgpan.js"/>
<svg id="graph" class="graph">
<g id="viewport">
<title>LibBoard::Triangle</title>
<polygon fill="white" stroke="none" points="-4,4 -4,-472 491.5,-472 491.5,4 -4,4"/>
<!-- Node4 -->
<g id="node1" class="node"><title>Node4</title>
<polygon fill="#bfbfbf" stroke="black" points="0,-0.5 0,-19.5 101,-19.5 101,-0.5 0,-0.5"/>
<text text-anchor="middle" x="50.5" y="-7.5" font-family="FreeSans" font-size="10.00">LibBoard::Triangle</text>
</g>
<!-- Node5 -->
<g id="node2" class="node"><title>Node5</title>
<g id="a_node2"><a xlink:href="structLibBoard_1_1Polyline.html" target="_top" xlink:title="A polygonal line described by a series of 2D points. ">
<polygon fill="white" stroke="black" points="68,-57.5 68,-76.5 169,-76.5 169,-57.5 68,-57.5"/>
<text text-anchor="middle" x="118.5" y="-64.5" font-family="FreeSans" font-size="10.00">LibBoard::Polyline</text>
</a>
</g>
</g>
<!-- Node5&#45;&gt;Node4 -->
<g id="edge1" class="edge"><title>Node5&#45;&gt;Node4</title>
<path fill="none" stroke="midnightblue" d="M99.9524,-50.9983C87.5438,-40.9619 71.6472,-28.1044 61.2748,-19.7149"/>
<polygon fill="midnightblue" stroke="midnightblue" points="97.8988,-53.8388 107.875,-57.4062 102.301,-48.3962 97.8988,-53.8388"/>
</g>
<!-- Node6 -->
<g id="node3" class="node"><title>Node6</title>
<g id="a_node3"><a xlink:href="structLibBoard_1_1Shape.html" target="_top" xlink:title="Abstract structure for a 2D shape. ">
<polygon fill="white" stroke="black" points="128,-124.5 128,-143.5 223,-143.5 223,-124.5 128,-124.5"/>
<text text-anchor="middle" x="175.5" y="-131.5" font-family="FreeSans" font-size="10.00">LibBoard::Shape</text>
</a>
</g>
</g>
<!-- Node6&#45;&gt;Node5 -->
<g id="edge2" class="edge"><title>Node6&#45;&gt;Node5</title>
<path fill="none" stroke="midnightblue" d="M161.149,-116.635C150.002,-103.923 134.984,-86.7978 126.065,-76.6273"/>
<polygon fill="midnightblue" stroke="midnightblue" points="158.588,-119.023 167.813,-124.234 163.851,-114.408 158.588,-119.023"/>
</g>
<!-- Node7 -->
<g id="node4" class="node"><title>Node7</title>
<g id="a_node4"><a xlink:title="STL class. ">
<polygon fill="white" stroke="#bfbfbf" points="40,-253 40,-272 105,-272 105,-253 40,-253"/>
<text text-anchor="middle" x="72.5" y="-260" font-family="FreeSans" font-size="10.00">std::string</text>
</a>
</g>
</g>
<!-- Node7&#45;&gt;Node4 -->
<g id="edge13" class="edge"><title>Node7&#45;&gt;Node4</title>
<path fill="none" stroke="#9a32cd" stroke-dasharray="5,2" d="M68.8263,-242.805C63.3137,-213.702 53.1584,-155.736 49.5,-106 49.1414,-101.124 49.4709,-99.8888 49.5,-95 49.6632,-67.5819 50.126,-35.1324 50.3604,-19.8281"/>
<polygon fill="#9a32cd" stroke="#9a32cd" points="65.42,-243.626 70.7501,-252.782 72.2934,-242.3 65.42,-243.626"/>
<text text-anchor="middle" x="68" y="-98" font-family="FreeSans" font-size="10.00"> _name</text>
</g>
<!-- Node7&#45;&gt;Node5 -->
<g id="edge7" class="edge"><title>Node7&#45;&gt;Node5</title>
<path fill="none" stroke="#9a32cd" stroke-dasharray="5,2" d="M70.7578,-242.849C68.8883,-215.853 67.8137,-164.67 81.5,-124 87.7438,-105.446 101.727,-87.1269 110.603,-76.725"/>
<polygon fill="#9a32cd" stroke="#9a32cd" points="67.2708,-243.152 71.5669,-252.837 74.2479,-242.587 67.2708,-243.152"/>
<text text-anchor="middle" x="100" y="-131.5" font-family="FreeSans" font-size="10.00"> _name</text>
</g>
<!-- Node7&#45;&gt;Node6 -->
<g id="edge3" class="edge"><title>Node7&#45;&gt;Node6</title>
<path fill="none" stroke="#9a32cd" stroke-dasharray="5,2" d="M79.8643,-243.651C89.3523,-222.286 107.52,-186.346 131.5,-162 138.921,-154.465 148.849,-148.14 157.397,-143.51"/>
<polygon fill="#9a32cd" stroke="#9a32cd" points="76.6422,-242.285 75.9163,-252.855 83.0752,-245.044 76.6422,-242.285"/>
<text text-anchor="middle" x="150" y="-170.5" font-family="FreeSans" font-size="10.00"> _name</text>
</g>
<!-- Node8 -->
<g id="node5" class="node"><title>Node8</title>
<g id="a_node5"><a xlink:title="STL class. ">
<polygon fill="white" stroke="#bfbfbf" points="21,-370.5 21,-400.5 124,-400.5 124,-370.5 21,-370.5"/>
<text text-anchor="start" x="29" y="-388.5" font-family="FreeSans" font-size="10.00">std::basic_string&lt;</text>
<text text-anchor="middle" x="72.5" y="-377.5" font-family="FreeSans" font-size="10.00"> char &gt;</text>
</a>
</g>
</g>
<!-- Node8&#45;&gt;Node7 -->
<g id="edge4" class="edge"><title>Node8&#45;&gt;Node7</title>
<path fill="none" stroke="midnightblue" d="M72.5,-359.838C72.5,-332.559 72.5,-290.079 72.5,-272.052"/>
<polygon fill="midnightblue" stroke="midnightblue" points="69.0001,-360.145 72.5,-370.145 76.0001,-360.145 69.0001,-360.145"/>
</g>
<!-- Node9 -->
<g id="node6" class="node"><title>Node9</title>
<g id="a_node6"><a xlink:href="classDGtal_1_1Color.html" target="_top" xlink:title="Structure representing an RGB triple with alpha component. ">
<polygon fill="white" stroke="black" points="130.5,-253 130.5,-272 204.5,-272 204.5,-253 130.5,-253"/>
<text text-anchor="middle" x="167.5" y="-260" font-family="FreeSans" font-size="10.00">DGtal::Color</text>
</a>
</g>
</g>
<!-- Node9&#45;&gt;Node6 -->
<g id="edge5" class="edge"><title>Node9&#45;&gt;Node6</title>
<path fill="none" stroke="#9a32cd" stroke-dasharray="5,2" d="M168.682,-242.806C170.436,-215.076 173.658,-164.128 174.946,-143.756"/>
<polygon fill="#9a32cd" stroke="#9a32cd" points="165.188,-242.604 168.05,-252.805 172.174,-243.046 165.188,-242.604"/>
<text text-anchor="middle" x="200.5" y="-176" font-family="FreeSans" font-size="10.00"> _penColor</text>
<text text-anchor="middle" x="200.5" y="-165" font-family="FreeSans" font-size="10.00">_fillColor</text>
</g>
<!-- Node9&#45;&gt;Node9 -->
<g id="edge6" class="edge"><title>Node9&#45;&gt;Node9</title>
<path fill="none" stroke="#9a32cd" stroke-dasharray="5,2" d="M188.988,-276.227C205.585,-281.339 222.5,-276.763 222.5,-262.5 222.5,-245.438 198.294,-242.238 179.384,-252.902"/>
<polygon fill="#9a32cd" stroke="#9a32cd" points="189.953,-272.832 179.384,-272.098 187.188,-279.263 189.953,-272.832"/>
<text text-anchor="middle" x="244" y="-315" font-family="FreeSans" font-size="10.00"> Yellow</text>
<text text-anchor="middle" x="244" y="-304" font-family="FreeSans" font-size="10.00">Lime</text>
<text text-anchor="middle" x="244" y="-293" font-family="FreeSans" font-size="10.00">Navy</text>
<text text-anchor="middle" x="244" y="-282" font-family="FreeSans" font-size="10.00">Magenta</text>
<text text-anchor="middle" x="244" y="-271" font-family="FreeSans" font-size="10.00">White</text>
<text text-anchor="middle" x="244" y="-260" font-family="FreeSans" font-size="10.00">None</text>
<text text-anchor="middle" x="244" y="-249" font-family="FreeSans" font-size="10.00">Blue</text>
<text text-anchor="middle" x="244" y="-238" font-family="FreeSans" font-size="10.00">Aqua</text>
<text text-anchor="middle" x="244" y="-227" font-family="FreeSans" font-size="10.00">Purple</text>
<text text-anchor="middle" x="244" y="-216" font-family="FreeSans" font-size="10.00">Silver</text>
<text text-anchor="middle" x="244" y="-205" font-family="FreeSans" font-size="10.00">...</text>
</g>
<!-- Node10 -->
<g id="node7" class="node"><title>Node10</title>
<g id="a_node7"><a xlink:href="structLibBoard_1_1Path.html" target="_top" xlink:title="A path, according to Postscript and SVG definition. ">
<polygon fill="white" stroke="black" points="256.5,-124.5 256.5,-143.5 342.5,-143.5 342.5,-124.5 256.5,-124.5"/>
<text text-anchor="middle" x="299.5" y="-131.5" font-family="FreeSans" font-size="10.00">LibBoard::Path</text>
</a>
</g>
</g>
<!-- Node10&#45;&gt;Node5 -->
<g id="edge8" class="edge"><title>Node10&#45;&gt;Node5</title>
<path fill="none" stroke="#9a32cd" stroke-dasharray="5,2" d="M265.907,-120.936C230.001,-108.042 173.981,-87.9243 142.347,-76.5637"/>
<polygon fill="#9a32cd" stroke="#9a32cd" points="264.87,-124.283 275.465,-124.369 267.236,-117.695 264.87,-124.283"/>
<text text-anchor="middle" x="236" y="-98" font-family="FreeSans" font-size="10.00"> _path</text>
</g>
<!-- Node11 -->
<g id="node8" class="node"><title>Node11</title>
<polygon fill="white" stroke="#bfbfbf" points="284,-247.5 284,-277.5 405,-277.5 405,-247.5 284,-247.5"/>
<text text-anchor="start" x="292" y="-265.5" font-family="FreeSans" font-size="10.00">std::vector&lt; LibBoard</text>
<text text-anchor="middle" x="344.5" y="-254.5" font-family="FreeSans" font-size="10.00">::Point &gt;</text>
</g>
<!-- Node11&#45;&gt;Node10 -->
<g id="edge9" class="edge"><title>Node11&#45;&gt;Node10</title>
<path fill="none" stroke="#9a32cd" stroke-dasharray="5,2" d="M336.101,-237.888C325.976,-209.427 309.471,-163.029 302.626,-143.789"/>
<polygon fill="#9a32cd" stroke="#9a32cd" points="332.863,-239.23 339.512,-247.479 339.458,-236.884 332.863,-239.23"/>
<text text-anchor="middle" x="336.5" y="-170.5" font-family="FreeSans" font-size="10.00"> _points</text>
</g>
<!-- Node12 -->
<g id="node9" class="node"><title>Node12</title>
<g id="a_node9"><a xlink:href="structLibBoard_1_1Point.html" target="_top" xlink:title="Struct representing a 2D point. ">
<polygon fill="white" stroke="black" points="254,-376 254,-395 343,-395 343,-376 254,-376"/>
<text text-anchor="middle" x="298.5" y="-383" font-family="FreeSans" font-size="10.00">LibBoard::Point</text>
</a>
</g>
</g>
<!-- Node12&#45;&gt;Node11 -->
<g id="edge10" class="edge"><title>Node12&#45;&gt;Node11</title>
<path fill="none" stroke="#9a32cd" stroke-dasharray="5,2" d="M305.403,-366.342C314.635,-342.059 330.806,-299.522 339.163,-277.539"/>
<polygon fill="#9a32cd" stroke="#9a32cd" points="302.09,-365.207 301.808,-375.798 308.633,-367.694 302.09,-365.207"/>
<text text-anchor="middle" x="340" y="-344" font-family="FreeSans" font-size="10.00"> elements</text>
</g>
<!-- Node13 -->
<g id="node10" class="node"><title>Node13</title>
<g id="a_node10"><a xlink:title="STL class. ">
<polygon fill="white" stroke="#bfbfbf" points="361,-376 361,-395 456,-395 456,-376 361,-376"/>
<text text-anchor="middle" x="408.5" y="-383" font-family="FreeSans" font-size="10.00">std::vector&lt; T &gt;</text>
</a>
</g>
</g>
<!-- Node13&#45;&gt;Node11 -->
<g id="edge11" class="edge"><title>Node13&#45;&gt;Node11</title>
<path fill="none" stroke="orange" stroke-dasharray="5,2" d="M399.068,-366.668C386.254,-342.441 363.605,-299.621 351.926,-277.539"/>
<polygon fill="orange" stroke="orange" points="396.128,-368.595 403.897,-375.798 402.316,-365.322 396.128,-368.595"/>
<text text-anchor="middle" x="438.5" y="-344" font-family="FreeSans" font-size="10.00"> &lt; LibBoard::Point &gt;</text>
</g>
<!-- Node14 -->
<g id="node11" class="node"><title>Node14</title>
<polygon fill="white" stroke="#bfbfbf" points="394,-448.5 394,-467.5 423,-467.5 423,-448.5 394,-448.5"/>
<text text-anchor="middle" x="408.5" y="-455.5" font-family="FreeSans" font-size="10.00">T</text>
</g>
<!-- Node14&#45;&gt;Node13 -->
<g id="edge12" class="edge"><title>Node14&#45;&gt;Node13</title>
<path fill="none" stroke="#9a32cd" stroke-dasharray="5,2" d="M408.5,-437.942C408.5,-424.03 408.5,-405.82 408.5,-395.215"/>
<polygon fill="#9a32cd" stroke="#9a32cd" points="405,-438.355 408.5,-448.355 412,-438.355 405,-438.355"/>
<text text-anchor="middle" x="433" y="-422" font-family="FreeSans" font-size="10.00"> elements</text>
</g>
</g>
</svg>
        <g id="navigator" transform="translate(0 0)" fill="#404254">
                <rect fill="#f2f5e9" fill-opacity="0.5" stroke="#606060" stroke-width=".5" x="0" y="0" width="60" height="60"/>
                <use id="zoomplus" xlink:href="#zoomPlus" x="17" y="9" onmousedown="handleZoom(evt,'in')"/>
                <use id="zoomminus" xlink:href="#zoomMin" x="42" y="9" onmousedown="handleZoom(evt,'out')"/>
                <use id="reset" xlink:href="#resetDef" x="30" y="36" onmousedown="handleReset()"/>
                <g id="arrowUp" xlink:href="#dirArrow" transform="translate(30 24)" onmousedown="handlePan(0,-1)">
                  <use xlink:href="#rim" fill="#404040">
                        <set attributeName="fill" to="#808080" begin="arrowUp.mouseover" end="arrowUp.mouseout"/>
                  </use>
                  <path fill="none" stroke="white" stroke-width="1.5" d="M0,-3.0v7 M-2.5,-0.5L0,-3.0L2.5,-0.5"/>
                </g>
                <g id="arrowRight" xlink:href="#dirArrow" transform="rotate(90) translate(36 -43)" onmousedown="handlePan(1,0)">
                  <use xlink:href="#rim" fill="#404040">
                        <set attributeName="fill" to="#808080" begin="arrowRight.mouseover" end="arrowRight.mouseout"/>
                  </use>
                  <path fill="none" stroke="white" stroke-width="1.5" d="M0,-3.0v7 M-2.5,-0.5L0,-3.0L2.5,-0.5"/>
                </g>
                <g id="arrowDown" xlink:href="#dirArrow" transform="rotate(180) translate(-30 -48)" onmousedown="handlePan(0,1)">
                  <use xlink:href="#rim" fill="#404040">
                        <set attributeName="fill" to="#808080" begin="arrowDown.mouseover" end="arrowDown.mouseout"/>
                  </use>
                  <path fill="none" stroke="white" stroke-width="1.5" d="M0,-3.0v7 M-2.5,-0.5L0,-3.0L2.5,-0.5"/>
                </g>
                <g id="arrowLeft" xlink:href="#dirArrow" transform="rotate(270) translate(-36 17)" onmousedown="handlePan(-1,0)">
                  <use xlink:href="#rim" fill="#404040">
                        <set attributeName="fill" to="#808080" begin="arrowLeft.mouseover" end="arrowLeft.mouseout"/>
                  </use>
                  <path fill="none" stroke="white" stroke-width="1.5" d="M0,-3.0v7 M-2.5,-0.5L0,-3.0L2.5,-0.5"/>
                </g>
        </g>
        <svg viewBox="0 0 15 15" width="100%" height="30px" preserveAspectRatio="xMaxYMin meet">
         <g id="arrow_out" transform="scale(0.3 0.3)">
          <a xlink:href="structLibBoard_1_1Triangle__coll__graph_org.svg" target="_base">
           <rect id="button" ry="5" rx="5" y="6" x="6" height="38" width="38"
                fill="#f2f5e9" fill-opacity="0.5" stroke="#606060" stroke-width="1.0"/>
           <path id="arrow"
             d="M 11.500037,31.436501 C 11.940474,20.09759 22.043105,11.32322 32.158766,21.979434 L 37.068811,17.246167 C 37.068811,17.246167 37.088388,32 37.088388,32 L 22.160133,31.978069 C 22.160133,31.978069 26.997745,27.140456 26.997745,27.140456 C 18.528582,18.264221 13.291696,25.230495 11.500037,31.436501 z"
             style="fill:#404040;"/>
          </a>
         </g>
        </svg>
</svg>
