<?xml version="1.0" encoding="UTF-8" standalone="no"?>
<!DOCTYPE svg PUBLIC "-//W3C//DTD SVG 1.1//EN"
 "http://www.w3.org/Graphics/SVG/1.1/DTD/svg11.dtd">
<!-- Generated by graphviz version 2.38.0 (20140413.2041)
 -->
<!-- Title: DGtal::deprecated::concepts::CConvolutionWeights&lt; T &gt; Pages: 1 -->
<svg width="320pt" height="95pt"
 viewBox="0.00 0.00 319.50 95.00" xmlns="http://www.w3.org/2000/svg" xmlns:xlink="http://www.w3.org/1999/xlink">
<g id="graph0" class="graph" transform="scale(1 1) rotate(0) translate(4 91)">
<title>DGtal::deprecated::concepts::CConvolutionWeights&lt; T &gt;</title>
<polygon fill="white" stroke="none" points="-4,4 -4,-91 315.5,-91 315.5,4 -4,4"/>
<!-- Node0 -->
<g id="node1" class="node"><title>Node0</title>
<polygon fill="#bfbfbf" stroke="black" points="67,-0.5 67,-30.5 261,-30.5 261,-0.5 67,-0.5"/>
<text text-anchor="start" x="75" y="-18.5" font-family="FreeSans" font-size="10.00">DGtal::deprecated::</text>
<text text-anchor="middle" x="164" y="-7.5" font-family="FreeSans" font-size="10.00">concepts::CConvolutionWeights&lt; T &gt;</text>
</g>
<!-- Node1 -->
<g id="node2" class="node"><title>Node1</title>
<g id="a_node2"><a xlink:href="structboost_1_1CopyConstructible.html" target="_top" xlink:title="Go to http://www.sgi.com/tech/stl/CopyConstructible.html. ">
<polygon fill="white" stroke="black" points="0,-67.5 0,-86.5 164,-86.5 164,-67.5 0,-67.5"/>
<text text-anchor="middle" x="82" y="-74.5" font-family="FreeSans" font-size="10.00">boost::CopyConstructible&lt; T &gt;</text>
</a>
</g>
</g>
<!-- Node1&#45;&gt;Node0 -->
<g id="edge1" class="edge"><title>Node1&#45;&gt;Node0</title>
<path fill="none" stroke="midnightblue" d="M102.027,-61.468C115.01,-52.0474 131.833,-39.8408 144.674,-30.523"/>
<polygon fill="midnightblue" stroke="midnightblue" points="99.7868,-58.7693 93.7486,-67.4751 103.898,-64.435 99.7868,-58.7693"/>
</g>
<!-- Node2 -->
<g id="node3" class="node"><title>Node2</title>
<g id="a_node3"><a xlink:href="structboost_1_1Assignable.html" target="_top" xlink:title="Go to http://www.sgi.com/tech/stl/Assignable.html. ">
<polygon fill="white" stroke="black" points="182.5,-67.5 182.5,-86.5 311.5,-86.5 311.5,-67.5 182.5,-67.5"/>
<text text-anchor="middle" x="247" y="-74.5" font-family="FreeSans" font-size="10.00">boost::Assignable&lt; T &gt;</text>
</a>
</g>
</g>
<!-- Node2&#45;&gt;Node0 -->
<g id="edge2" class="edge"><title>Node2&#45;&gt;Node0</title>
<path fill="none" stroke="midnightblue" d="M226.728,-61.468C213.587,-52.0474 196.559,-39.8408 183.561,-30.523"/>
<polygon fill="midnightblue" stroke="midnightblue" points="224.941,-64.4934 235.108,-67.4751 229.02,-58.8042 224.941,-64.4934"/>
</g>
</g>
</svg>
