<?xml version="1.0" encoding="UTF-8" standalone="no"?>
<!DOCTYPE svg PUBLIC "-//W3C//DTD SVG 1.1//EN"
 "http://www.w3.org/Graphics/SVG/1.1/DTD/svg11.dtd">
<!-- Generated by graphviz version 2.38.0 (20140413.2041)
 -->
<!-- Title: DGtal::concepts::CMetricSpace&lt; T &gt; Pages: 1 -->
<svg width="332pt" height="162pt"
 viewBox="0.00 0.00 331.50 162.00" xmlns="http://www.w3.org/2000/svg" xmlns:xlink="http://www.w3.org/1999/xlink">
<g id="graph0" class="graph" transform="scale(1 1) rotate(0) translate(4 158)">
<title>DGtal::concepts::CMetricSpace&lt; T &gt;</title>
<polygon fill="white" stroke="none" points="-4,4 -4,-158 327.5,-158 327.5,4 -4,4"/>
<!-- Node0 -->
<g id="node1" class="node"><title>Node0</title>
<polygon fill="#bfbfbf" stroke="black" points="96.5,-67.5 96.5,-97.5 231.5,-97.5 231.5,-67.5 96.5,-67.5"/>
<text text-anchor="start" x="104.5" y="-85.5" font-family="FreeSans" font-size="10.00">DGtal::concepts::CMetric</text>
<text text-anchor="middle" x="164" y="-74.5" font-family="FreeSans" font-size="10.00">Space&lt; T &gt;</text>
</g>
<!-- Node3 -->
<g id="node4" class="node"><title>Node3</title>
<g id="a_node4"><a xlink:href="structDGtal_1_1concepts_1_1CDigitalMetricSpace.html" target="_top" xlink:title="Aim: defines the concept of digital metric spaces. ">
<polygon fill="white" stroke="black" points="14,-0.5 14,-30.5 150,-30.5 150,-0.5 14,-0.5"/>
<text text-anchor="start" x="22" y="-18.5" font-family="FreeSans" font-size="10.00">DGtal::concepts::CDigital</text>
<text text-anchor="middle" x="82" y="-7.5" font-family="FreeSans" font-size="10.00">MetricSpace&lt; T &gt;</text>
</a>
</g>
</g>
<!-- Node0&#45;&gt;Node3 -->
<g id="edge3" class="edge"><title>Node0&#45;&gt;Node3</title>
<path fill="none" stroke="midnightblue" d="M138.35,-61.1677C125.811,-51.2283 111.034,-39.5144 99.7581,-30.5765"/>
<polygon fill="midnightblue" stroke="midnightblue" points="136.196,-63.9268 146.207,-67.396 140.545,-58.4412 136.196,-63.9268"/>
</g>
<!-- Node4 -->
<g id="node5" class="node"><title>Node4</title>
<g id="a_node5"><a xlink:href="structDGtal_1_1concepts_1_1CSeparableMetric.html" target="_top" xlink:title="Aim: defines the concept of separable metrics. ">
<polygon fill="white" stroke="black" points="168.5,-0.5 168.5,-30.5 323.5,-30.5 323.5,-0.5 168.5,-0.5"/>
<text text-anchor="start" x="176.5" y="-18.5" font-family="FreeSans" font-size="10.00">DGtal::concepts::CSeparable</text>
<text text-anchor="middle" x="246" y="-7.5" font-family="FreeSans" font-size="10.00">Metric&lt; T &gt;</text>
</a>
</g>
</g>
<!-- Node0&#45;&gt;Node4 -->
<g id="edge4" class="edge"><title>Node0&#45;&gt;Node4</title>
<path fill="none" stroke="midnightblue" d="M189.65,-61.1677C202.189,-51.2283 216.966,-39.5144 228.242,-30.5765"/>
<polygon fill="midnightblue" stroke="midnightblue" points="187.455,-58.4412 181.793,-67.396 191.804,-63.9268 187.455,-58.4412"/>
</g>
<!-- Node1 -->
<g id="node2" class="node"><title>Node1</title>
<g id="a_node2"><a xlink:href="structboost_1_1CopyConstructible.html" target="_top" xlink:title="Go to http://www.sgi.com/tech/stl/CopyConstructible.html. ">
<polygon fill="white" stroke="black" points="0,-134.5 0,-153.5 164,-153.5 164,-134.5 0,-134.5"/>
<text text-anchor="middle" x="82" y="-141.5" font-family="FreeSans" font-size="10.00">boost::CopyConstructible&lt; T &gt;</text>
</a>
</g>
</g>
<!-- Node1&#45;&gt;Node0 -->
<g id="edge1" class="edge"><title>Node1&#45;&gt;Node0</title>
<path fill="none" stroke="midnightblue" d="M102.027,-128.468C115.01,-119.047 131.833,-106.841 144.674,-97.523"/>
<polygon fill="midnightblue" stroke="midnightblue" points="99.7868,-125.769 93.7486,-134.475 103.898,-131.435 99.7868,-125.769"/>
</g>
<!-- Node2 -->
<g id="node3" class="node"><title>Node2</title>
<g id="a_node3"><a xlink:href="structboost_1_1Assignable.html" target="_top" xlink:title="Go to http://www.sgi.com/tech/stl/Assignable.html. ">
<polygon fill="white" stroke="black" points="182.5,-134.5 182.5,-153.5 311.5,-153.5 311.5,-134.5 182.5,-134.5"/>
<text text-anchor="middle" x="247" y="-141.5" font-family="FreeSans" font-size="10.00">boost::Assignable&lt; T &gt;</text>
</a>
</g>
</g>
<!-- Node2&#45;&gt;Node0 -->
<g id="edge2" class="edge"><title>Node2&#45;&gt;Node0</title>
<path fill="none" stroke="midnightblue" d="M226.728,-128.468C213.587,-119.047 196.559,-106.841 183.561,-97.523"/>
<polygon fill="midnightblue" stroke="midnightblue" points="224.941,-131.493 235.108,-134.475 229.02,-125.804 224.941,-131.493"/>
</g>
</g>
</svg>
