<?xml version="1.0" encoding="UTF-8" standalone="no"?>
<!DOCTYPE svg PUBLIC "-//W3C//DTD SVG 1.1//EN"
 "http://www.w3.org/Graphics/SVG/1.1/DTD/svg11.dtd">
<!-- Generated by graphviz version 2.36.0 (20140111.2315)
 -->
<!-- Title: DGtal::UnorderedSetByBlock&lt; Key, TSplitter, Hash, KeyEqual, UnorderedMapAllocator &gt;::const_iterator Pages: 1 -->
<!--zoomable 178 -->
<svg id="main" version="1.1" xmlns="http://www.w3.org/2000/svg" xmlns:xlink="http://www.w3.org/1999/xlink" xml:space="preserve" onload="init(evt)">
<style type="text/css"><![CDATA[
.edge:hover path { stroke: red; }
.edge:hover polygon { stroke: red; fill: red; }
]]></style>
<script type="text/javascript"><![CDATA[
var edges = document.getElementsByTagName('g');
if (edges && edges.length) {
  for (var i=0;i<edges.length;i++) {
    if (edges[i].id.substr(0,4)=='edge') {
      edges[i].setAttribute('class','edge');
    }
  }
}
]]></script>
        <defs>
                <circle id="rim" cx="0" cy="0" r="7"/>
                <circle id="rim2" cx="0" cy="0" r="3.5"/>
                <g id="zoomPlus">
                        <use xlink:href="#rim" fill="#404040">
                                <set attributeName="fill" to="#808080" begin="zoomplus.mouseover" end="zoomplus.mouseout"/>
                        </use>
                        <path d="M-4,0h8M0,-4v8" fill="none" stroke="white" stroke-width="1.5" pointer-events="none"/>
                </g>
                <g id="zoomMin">
                        <use xlink:href="#rim" fill="#404040">
                                <set attributeName="fill" to="#808080" begin="zoomminus.mouseover" end="zoomminus.mouseout"/>
                        </use>
                        <path d="M-4,0h8" fill="none" stroke="white" stroke-width="1.5" pointer-events="none"/>
                </g>
                <g id="dirArrow">
                        <path fill="none" stroke="white" stroke-width="1.5" d="M0,-3.0v7 M-2.5,-0.5L0,-3.0L2.5,-0.5"/>
                </g>
               <g id="resetDef">
                       <use xlink:href="#rim2" fill="#404040">
                               <set attributeName="fill" to="#808080" begin="reset.mouseover" end="reset.mouseout"/>
                       </use>
               </g>
        </defs>

<script type="text/javascript">
var viewWidth = 1176;
var viewHeight = 178;
var sectionId = 'dynsection-1';
</script>
<script xlink:href="svgpan.js"/>
<svg id="graph" class="graph">
<g id="viewport">
<title>DGtal::UnorderedSetByBlock&lt; Key, TSplitter, Hash, KeyEqual, UnorderedMapAllocator &gt;::const_iterator</title>
<polygon fill="white" stroke="none" points="-4,4 -4,-174 1172,-174 1172,4 -4,4"/>
<!-- Node2 -->
<g id="node1" class="node"><title>Node2</title>
<polygon fill="#bfbfbf" stroke="black" points="986,-58 986,-110 1168,-110 1168,-58 986,-58"/>
<text text-anchor="start" x="994" y="-98" font-family="FreeSans" font-size="10.00">DGtal::UnorderedSetByBlock</text>
<text text-anchor="start" x="994" y="-87" font-family="FreeSans" font-size="10.00">&lt; Key, TSplitter, Hash,</text>
<text text-anchor="start" x="994" y="-76" font-family="FreeSans" font-size="10.00"> KeyEqual, UnorderedMapAllocator</text>
<text text-anchor="middle" x="1077" y="-65" font-family="FreeSans" font-size="10.00"> &gt;::const_iterator</text>
</g>
<!-- Node3 -->
<g id="node2" class="node"><title>Node3</title>
<polygon fill="white" stroke="#bfbfbf" points="729,-118 729,-170 877,-170 877,-118 729,-118"/>
<text text-anchor="start" x="737" y="-158" font-family="FreeSans" font-size="10.00">boost::iterator_facade</text>
<text text-anchor="start" x="737" y="-147" font-family="FreeSans" font-size="10.00">&lt; const_iterator, Key</text>
<text text-anchor="start" x="737" y="-136" font-family="FreeSans" font-size="10.00"> const, boost::forward</text>
<text text-anchor="middle" x="803" y="-125" font-family="FreeSans" font-size="10.00">_traversal_tag, Key const &gt;</text>
</g>
<!-- Node3&#45;&gt;Node2 -->
<g id="edge1" class="edge"><title>Node3&#45;&gt;Node2</title>
<path fill="none" stroke="midnightblue" d="M887.196,-125.648C918.338,-118.778 953.853,-110.944 985.614,-103.938"/>
<polygon fill="midnightblue" stroke="midnightblue" points="886.26,-122.27 877.249,-127.842 887.768,-129.106 886.26,-122.27"/>
</g>
<!-- Node4 -->
<g id="node3" class="node"><title>Node4</title>
<g id="a_node3"><a xlink:title="STL iterator class. ">
<polygon fill="white" stroke="#bfbfbf" points="738.5,-69 738.5,-99 867.5,-99 867.5,-69 738.5,-69"/>
<text text-anchor="start" x="746.5" y="-87" font-family="FreeSans" font-size="10.00">std::unordered_map</text>
<text text-anchor="middle" x="803" y="-76" font-family="FreeSans" font-size="10.00">&lt; K, T &gt;::const_iterator</text>
</a>
</g>
</g>
<!-- Node4&#45;&gt;Node2 -->
<g id="edge2" class="edge"><title>Node4&#45;&gt;Node2</title>
<path fill="none" stroke="#9a32cd" stroke-dasharray="5,2" d="M877.892,-84C911.193,-84 950.821,-84 985.853,-84"/>
<polygon fill="#9a32cd" stroke="#9a32cd" points="877.772,-80.5001 867.772,-84 877.772,-87.5001 877.772,-80.5001"/>
<text text-anchor="middle" x="943" y="-87" font-family="FreeSans" font-size="10.00"> it</text>
</g>
<!-- Node5 -->
<g id="node4" class="node"><title>Node5</title>
<g id="a_node4"><a xlink:href="structDGtal_1_1UnorderedSetByBlock.html" target="_top" xlink:title="DGtal::UnorderedSetByBlock\l\&lt; Key, TSplitter, Hash,\l KeyEqual, UnorderedMapAllocator \&gt;">
<polygon fill="white" stroke="black" points="706.5,-9.5 706.5,-50.5 899.5,-50.5 899.5,-9.5 706.5,-9.5"/>
<text text-anchor="start" x="714.5" y="-38.5" font-family="FreeSans" font-size="10.00">DGtal::UnorderedSetByBlock</text>
<text text-anchor="start" x="714.5" y="-27.5" font-family="FreeSans" font-size="10.00">&lt; Key, TSplitter, Hash,</text>
<text text-anchor="middle" x="803" y="-16.5" font-family="FreeSans" font-size="10.00"> KeyEqual, UnorderedMapAllocator &gt;</text>
</a>
</g>
</g>
<!-- Node5&#45;&gt;Node2 -->
<g id="edge3" class="edge"><title>Node5&#45;&gt;Node2</title>
<path fill="none" stroke="#9a32cd" stroke-dasharray="5,2" d="M909.458,-50.9365C934.644,-55.9367 961.304,-61.2295 985.736,-66.0799"/>
<polygon fill="#9a32cd" stroke="#9a32cd" points="910.005,-47.4768 899.515,-48.9624 908.642,-54.3428 910.005,-47.4768"/>
<text text-anchor="middle" x="943" y="-64" font-family="FreeSans" font-size="10.00"> collection</text>
</g>
<!-- Node6 -->
<g id="node5" class="node"><title>Node6</title>
<polygon fill="white" stroke="#bfbfbf" points="444,-38.5 444,-79.5 600,-79.5 600,-38.5 444,-38.5"/>
<text text-anchor="start" x="452" y="-67.5" font-family="FreeSans" font-size="10.00">std::unordered_map</text>
<text text-anchor="start" x="452" y="-56.5" font-family="FreeSans" font-size="10.00">&lt; Key, Word, Hash, KeyEqual,</text>
<text text-anchor="middle" x="522" y="-45.5" font-family="FreeSans" font-size="10.00"> UnorderedMapAllocator &gt;</text>
</g>
<!-- Node6&#45;&gt;Node5 -->
<g id="edge4" class="edge"><title>Node6&#45;&gt;Node5</title>
<path fill="none" stroke="#9a32cd" stroke-dasharray="5,2" d="M610.514,-49.9036C640.961,-46.7388 675.263,-43.1733 706.336,-39.9436"/>
<polygon fill="#9a32cd" stroke="#9a32cd" points="609.931,-46.4452 600.347,-50.9604 610.655,-53.4077 609.931,-46.4452"/>
<text text-anchor="middle" x="653" y="-52" font-family="FreeSans" font-size="10.00"> my_elements</text>
</g>
<!-- Node7 -->
<g id="node6" class="node"><title>Node7</title>
<g id="a_node6"><a xlink:title="STL class. ">
<polygon fill="white" stroke="#bfbfbf" points="116,-44 116,-74 230,-74 230,-44 116,-44"/>
<text text-anchor="start" x="124" y="-62" font-family="FreeSans" font-size="10.00">std::unordered_map</text>
<text text-anchor="middle" x="173" y="-51" font-family="FreeSans" font-size="10.00">&lt; K, T &gt;</text>
</a>
</g>
</g>
<!-- Node7&#45;&gt;Node6 -->
<g id="edge5" class="edge"><title>Node7&#45;&gt;Node6</title>
<path fill="none" stroke="orange" stroke-dasharray="5,2" d="M240.303,-59C298.384,-59 382.82,-59 443.902,-59"/>
<polygon fill="orange" stroke="orange" points="240.137,-55.5001 230.137,-59 240.137,-62.5001 240.137,-55.5001"/>
<text text-anchor="start" x="248.5" y="-73" font-family="FreeSans" font-size="10.00"> &lt; Key, Word, Hash,</text>
<text text-anchor="middle" x="337" y="-62" font-family="FreeSans" font-size="10.00"> KeyEqual, UnorderedMapAllocator &gt;</text>
</g>
<!-- Node8 -->
<g id="node7" class="node"><title>Node8</title>
<polygon fill="white" stroke="#bfbfbf" points="0.5,-68.5 0.5,-87.5 29.5,-87.5 29.5,-68.5 0.5,-68.5"/>
<text text-anchor="middle" x="15" y="-75.5" font-family="FreeSans" font-size="10.00">K</text>
</g>
<!-- Node8&#45;&gt;Node7 -->
<g id="edge6" class="edge"><title>Node8&#45;&gt;Node7</title>
<path fill="none" stroke="#9a32cd" stroke-dasharray="5,2" d="M39.6897,-75.1147C59.8296,-72.6618 89.5607,-69.0407 115.741,-65.8521"/>
<polygon fill="#9a32cd" stroke="#9a32cd" points="39.0745,-71.6637 29.5711,-76.3471 39.9209,-78.6123 39.0745,-71.6637"/>
<text text-anchor="middle" x="73" y="-76" font-family="FreeSans" font-size="10.00"> keys</text>
</g>
<!-- Node9 -->
<g id="node8" class="node"><title>Node9</title>
<polygon fill="white" stroke="#bfbfbf" points="0.5,-30.5 0.5,-49.5 29.5,-49.5 29.5,-30.5 0.5,-30.5"/>
<text text-anchor="middle" x="15" y="-37.5" font-family="FreeSans" font-size="10.00">T</text>
</g>
<!-- Node9&#45;&gt;Node7 -->
<g id="edge7" class="edge"><title>Node9&#45;&gt;Node7</title>
<path fill="none" stroke="#9a32cd" stroke-dasharray="5,2" d="M39.6897,-42.8853C59.8296,-45.3382 89.5607,-48.9593 115.741,-52.1479"/>
<polygon fill="#9a32cd" stroke="#9a32cd" points="39.9209,-39.3877 29.5711,-41.6529 39.0745,-46.3363 39.9209,-39.3877"/>
<text text-anchor="middle" x="73" y="-53" font-family="FreeSans" font-size="10.00"> elements</text>
</g>
<!-- Node10 -->
<g id="node9" class="node"><title>Node10</title>
<polygon fill="white" stroke="#bfbfbf" points="494,-0.5 494,-19.5 550,-19.5 550,-0.5 494,-0.5"/>
<text text-anchor="middle" x="522" y="-7.5" font-family="FreeSans" font-size="10.00">TSplitter</text>
</g>
<!-- Node10&#45;&gt;Node5 -->
<g id="edge8" class="edge"><title>Node10&#45;&gt;Node5</title>
<path fill="none" stroke="#9a32cd" stroke-dasharray="5,2" d="M560.425,-11.2122C593.892,-12.4397 644.264,-14.6406 688,-18 693.953,-18.4572 700.076,-18.9721 706.248,-19.5248"/>
<polygon fill="#9a32cd" stroke="#9a32cd" points="560.301,-7.70571 550.183,-10.8477 560.052,-14.7013 560.301,-7.70571"/>
<text text-anchor="middle" x="653" y="-21" font-family="FreeSans" font-size="10.00"> my_splitter</text>
</g>
</g>
</svg>
        <g id="navigator" transform="translate(0 0)" fill="#404254">
                <rect fill="#f2f5e9" fill-opacity="0.5" stroke="#606060" stroke-width=".5" x="0" y="0" width="60" height="60"/>
                <use id="zoomplus" xlink:href="#zoomPlus" x="17" y="9" onmousedown="handleZoom(evt,'in')"/>
                <use id="zoomminus" xlink:href="#zoomMin" x="42" y="9" onmousedown="handleZoom(evt,'out')"/>
                <use id="reset" xlink:href="#resetDef" x="30" y="36" onmousedown="handleReset()"/>
                <g id="arrowUp" xlink:href="#dirArrow" transform="translate(30 24)" onmousedown="handlePan(0,-1)">
                  <use xlink:href="#rim" fill="#404040">
                        <set attributeName="fill" to="#808080" begin="arrowUp.mouseover" end="arrowUp.mouseout"/>
                  </use>
                  <path fill="none" stroke="white" stroke-width="1.5" d="M0,-3.0v7 M-2.5,-0.5L0,-3.0L2.5,-0.5"/>
                </g>
                <g id="arrowRight" xlink:href="#dirArrow" transform="rotate(90) translate(36 -43)" onmousedown="handlePan(1,0)">
                  <use xlink:href="#rim" fill="#404040">
                        <set attributeName="fill" to="#808080" begin="arrowRight.mouseover" end="arrowRight.mouseout"/>
                  </use>
                  <path fill="none" stroke="white" stroke-width="1.5" d="M0,-3.0v7 M-2.5,-0.5L0,-3.0L2.5,-0.5"/>
                </g>
                <g id="arrowDown" xlink:href="#dirArrow" transform="rotate(180) translate(-30 -48)" onmousedown="handlePan(0,1)">
                  <use xlink:href="#rim" fill="#404040">
                        <set attributeName="fill" to="#808080" begin="arrowDown.mouseover" end="arrowDown.mouseout"/>
                  </use>
                  <path fill="none" stroke="white" stroke-width="1.5" d="M0,-3.0v7 M-2.5,-0.5L0,-3.0L2.5,-0.5"/>
                </g>
                <g id="arrowLeft" xlink:href="#dirArrow" transform="rotate(270) translate(-36 17)" onmousedown="handlePan(-1,0)">
                  <use xlink:href="#rim" fill="#404040">
                        <set attributeName="fill" to="#808080" begin="arrowLeft.mouseover" end="arrowLeft.mouseout"/>
                  </use>
                  <path fill="none" stroke="white" stroke-width="1.5" d="M0,-3.0v7 M-2.5,-0.5L0,-3.0L2.5,-0.5"/>
                </g>
        </g>
        <svg viewBox="0 0 15 15" width="100%" height="30px" preserveAspectRatio="xMaxYMin meet">
         <g id="arrow_out" transform="scale(0.3 0.3)">
          <a xlink:href="structDGtal_1_1UnorderedSetByBlock_1_1const__iterator__coll__graph_org.svg" target="_base">
           <rect id="button" ry="5" rx="5" y="6" x="6" height="38" width="38"
                fill="#f2f5e9" fill-opacity="0.5" stroke="#606060" stroke-width="1.0"/>
           <path id="arrow"
             d="M 11.500037,31.436501 C 11.940474,20.09759 22.043105,11.32322 32.158766,21.979434 L 37.068811,17.246167 C 37.068811,17.246167 37.088388,32 37.088388,32 L 22.160133,31.978069 C 22.160133,31.978069 26.997745,27.140456 26.997745,27.140456 C 18.528582,18.264221 13.291696,25.230495 11.500037,31.436501 z"
             style="fill:#404040;"/>
          </a>
         </g>
        </svg>
</svg>
