<?xml version="1.0" encoding="UTF-8" standalone="no"?>
<!DOCTYPE svg PUBLIC "-//W3C//DTD SVG 1.1//EN"
 "http://www.w3.org/Graphics/SVG/1.1/DTD/svg11.dtd">
<!-- Generated by graphviz version 2.38.0 (20140413.2041)
 -->
<!-- Title: DGtal::concepts::CPredicate&lt; T, TElement &gt; Pages: 1 -->
<svg width="1724pt" height="137pt"
 viewBox="0.00 0.00 1724.00 137.00" xmlns="http://www.w3.org/2000/svg" xmlns:xlink="http://www.w3.org/1999/xlink">
<g id="graph0" class="graph" transform="scale(1 1) rotate(0) translate(4 133)">
<title>DGtal::concepts::CPredicate&lt; T, TElement &gt;</title>
<polygon fill="white" stroke="none" points="-4,4 -4,-133 1720,-133 1720,4 -4,4"/>
<!-- Node0 -->
<g id="node1" class="node"><title>Node0</title>
<polygon fill="#bfbfbf" stroke="black" points="886,-49.5 886,-79.5 1037,-79.5 1037,-49.5 886,-49.5"/>
<text text-anchor="start" x="894" y="-67.5" font-family="FreeSans" font-size="10.00">DGtal::concepts::CPredicate</text>
<text text-anchor="middle" x="961.5" y="-56.5" font-family="FreeSans" font-size="10.00">&lt; T, TElement &gt;</text>
</g>
<!-- Node5 -->
<g id="node6" class="node"><title>Node5</title>
<g id="a_node6"><a xlink:href="structDGtal_1_1concepts_1_1CPredicate.html" target="_top" xlink:title="DGtal::concepts::CPredicate\l\&lt; T, T::Surfel \&gt;">
<polygon fill="white" stroke="black" points="1152,-98.5 1152,-128.5 1303,-128.5 1303,-98.5 1152,-98.5"/>
<text text-anchor="start" x="1160" y="-116.5" font-family="FreeSans" font-size="10.00">DGtal::concepts::CPredicate</text>
<text text-anchor="middle" x="1227.5" y="-105.5" font-family="FreeSans" font-size="10.00">&lt; T, T::Surfel &gt;</text>
</a>
</g>
</g>
<!-- Node0&#45;&gt;Node5 -->
<g id="edge6" class="edge"><title>Node0&#45;&gt;Node5</title>
<path fill="none" stroke="orange" stroke-dasharray="5,2" d="M1047.34,-80.2476C1080.9,-86.4751 1119.13,-93.5712 1151.63,-99.6043"/>
<polygon fill="orange" stroke="orange" points="1047.56,-76.7287 1037.09,-78.345 1046.29,-83.6112 1047.56,-76.7287"/>
<text text-anchor="middle" x="1094.5" y="-99.5" font-family="FreeSans" font-size="10.00"> &lt; T, T::Surfel &gt;</text>
</g>
<!-- Node7 -->
<g id="node8" class="node"><title>Node7</title>
<g id="a_node8"><a xlink:href="structDGtal_1_1concepts_1_1CPredicate.html" target="_top" xlink:title="DGtal::concepts::CPredicate\l\&lt; T, T::Point \&gt;">
<polygon fill="white" stroke="black" points="1152,-49.5 1152,-79.5 1303,-79.5 1303,-49.5 1152,-49.5"/>
<text text-anchor="start" x="1160" y="-67.5" font-family="FreeSans" font-size="10.00">DGtal::concepts::CPredicate</text>
<text text-anchor="middle" x="1227.5" y="-56.5" font-family="FreeSans" font-size="10.00">&lt; T, T::Point &gt;</text>
</a>
</g>
</g>
<!-- Node0&#45;&gt;Node7 -->
<g id="edge8" class="edge"><title>Node0&#45;&gt;Node7</title>
<path fill="none" stroke="orange" stroke-dasharray="5,2" d="M1047.34,-64.5C1080.9,-64.5 1119.13,-64.5 1151.63,-64.5"/>
<polygon fill="orange" stroke="orange" points="1047.09,-61.0001 1037.09,-64.5 1047.09,-68.0001 1047.09,-61.0001"/>
<text text-anchor="middle" x="1094.5" y="-67.5" font-family="FreeSans" font-size="10.00"> &lt; T, T::Point &gt;</text>
</g>
<!-- Node10 -->
<g id="node11" class="node"><title>Node10</title>
<g id="a_node11"><a xlink:href="structDGtal_1_1concepts_1_1CPredicate.html" target="_top" xlink:title="DGtal::concepts::CPredicate\l\&lt; T, T::Vertex \&gt;">
<polygon fill="white" stroke="black" points="1152,-0.5 1152,-30.5 1303,-30.5 1303,-0.5 1152,-0.5"/>
<text text-anchor="start" x="1160" y="-18.5" font-family="FreeSans" font-size="10.00">DGtal::concepts::CPredicate</text>
<text text-anchor="middle" x="1227.5" y="-7.5" font-family="FreeSans" font-size="10.00">&lt; T, T::Vertex &gt;</text>
</a>
</g>
</g>
<!-- Node0&#45;&gt;Node10 -->
<g id="edge11" class="edge"><title>Node0&#45;&gt;Node10</title>
<path fill="none" stroke="orange" stroke-dasharray="5,2" d="M1047.34,-48.7524C1080.9,-42.5249 1119.13,-35.4288 1151.63,-29.3957"/>
<polygon fill="orange" stroke="orange" points="1046.29,-45.3888 1037.09,-50.655 1047.56,-52.2713 1046.29,-45.3888"/>
<text text-anchor="middle" x="1094.5" y="-50.5" font-family="FreeSans" font-size="10.00"> &lt; T, T::Vertex &gt;</text>
</g>
<!-- Node1 -->
<g id="node2" class="node"><title>Node1</title>
<g id="a_node2"><a xlink:href="structDGtal_1_1concepts_1_1CUnaryFunctor.html" target="_top" xlink:title="DGtal::concepts::CUnaryFunctor\l\&lt; T, TElement, bool \&gt;">
<polygon fill="white" stroke="black" points="679,-49.5 679,-79.5 849,-79.5 849,-49.5 679,-49.5"/>
<text text-anchor="start" x="687" y="-67.5" font-family="FreeSans" font-size="10.00">DGtal::concepts::CUnaryFunctor</text>
<text text-anchor="middle" x="764" y="-56.5" font-family="FreeSans" font-size="10.00">&lt; T, TElement, bool &gt;</text>
</a>
</g>
</g>
<!-- Node1&#45;&gt;Node0 -->
<g id="edge1" class="edge"><title>Node1&#45;&gt;Node0</title>
<path fill="none" stroke="midnightblue" d="M859.111,-64.5C868.057,-64.5 877.043,-64.5 885.77,-64.5"/>
<polygon fill="midnightblue" stroke="midnightblue" points="859.044,-61.0001 849.044,-64.5 859.044,-68.0001 859.044,-61.0001"/>
</g>
<!-- Node2 -->
<g id="node3" class="node"><title>Node2</title>
<g id="a_node3"><a xlink:href="structboost_1_1Assignable.html" target="_top" xlink:title="Go to http://www.sgi.com/tech/stl/Assignable.html. ">
<polygon fill="white" stroke="black" points="0,-57 0,-76 129,-76 129,-57 0,-57"/>
<text text-anchor="middle" x="64.5" y="-64" font-family="FreeSans" font-size="10.00">boost::Assignable&lt; T &gt;</text>
</a>
</g>
</g>
<!-- Node2&#45;&gt;Node1 -->
<g id="edge2" class="edge"><title>Node2&#45;&gt;Node1</title>
<path fill="none" stroke="midnightblue" d="M139.27,-68.3911C141.878,-68.4323 144.461,-68.4689 147,-68.5 375.427,-71.3024 432.599,-72.9767 661,-68.5 666.847,-68.3854 672.882,-68.2339 678.958,-68.0568"/>
<polygon fill="midnightblue" stroke="midnightblue" points="139.18,-64.8891 129.12,-68.2119 139.057,-71.888 139.18,-64.8891"/>
</g>
<!-- Node4 -->
<g id="node5" class="node"><title>Node4</title>
<g id="a_node5"><a xlink:href="structboost_1_1Assignable.html" target="_top" xlink:title="boost::Assignable\&lt; X \&gt;">
<polygon fill="white" stroke="black" points="197,-34 197,-53 327,-53 327,-34 197,-34"/>
<text text-anchor="middle" x="262" y="-41" font-family="FreeSans" font-size="10.00">boost::Assignable&lt; X &gt;</text>
</a>
</g>
</g>
<!-- Node2&#45;&gt;Node4 -->
<g id="edge5" class="edge"><title>Node2&#45;&gt;Node4</title>
<path fill="none" stroke="orange" stroke-dasharray="5,2" d="M139.282,-57.8198C158.161,-55.5987 178.312,-53.228 196.674,-51.0678"/>
<polygon fill="orange" stroke="orange" points="138.766,-54.3562 129.243,-59.0008 139.584,-61.3083 138.766,-54.3562"/>
<text text-anchor="middle" x="163" y="-59.5" font-family="FreeSans" font-size="10.00"> &lt; X &gt;</text>
</g>
<!-- Node3 -->
<g id="node4" class="node"><title>Node3</title>
<g id="a_node4"><a xlink:href="structDGtal_1_1concepts_1_1CUnaryFunctor.html" target="_top" xlink:title="Aim: Defines a unary functor, which associates arguments to results. ">
<polygon fill="white" stroke="black" points="364,-23.5 364,-53.5 534,-53.5 534,-23.5 364,-23.5"/>
<text text-anchor="start" x="372" y="-41.5" font-family="FreeSans" font-size="10.00">DGtal::concepts::CUnaryFunctor</text>
<text text-anchor="middle" x="449" y="-30.5" font-family="FreeSans" font-size="10.00">&lt; X, A, R &gt;</text>
</a>
</g>
</g>
<!-- Node3&#45;&gt;Node1 -->
<g id="edge3" class="edge"><title>Node3&#45;&gt;Node1</title>
<path fill="none" stroke="orange" stroke-dasharray="5,2" d="M544.427,-46.3438C587.202,-49.897 637.36,-54.0635 678.831,-57.5083"/>
<polygon fill="orange" stroke="orange" points="544.545,-42.8416 534.29,-45.5017 543.966,-49.8176 544.545,-42.8416"/>
<text text-anchor="middle" x="606.5" y="-58.5" font-family="FreeSans" font-size="10.00"> &lt; T, TElement, bool &gt;</text>
</g>
<!-- Node4&#45;&gt;Node3 -->
<g id="edge4" class="edge"><title>Node4&#45;&gt;Node3</title>
<path fill="none" stroke="midnightblue" d="M337.277,-41.4925C345.978,-41.2574 354.903,-41.0161 363.727,-40.7776"/>
<polygon fill="midnightblue" stroke="midnightblue" points="337.087,-37.9963 327.185,-41.7653 337.276,-44.9937 337.087,-37.9963"/>
</g>
<!-- Node6 -->
<g id="node7" class="node"><title>Node6</title>
<g id="a_node7"><a xlink:href="structDGtal_1_1concepts_1_1CSurfelPredicate.html" target="_top" xlink:title="Aim: Defines a predicate on a surfel. ">
<polygon fill="white" stroke="black" points="1374.5,-98.5 1374.5,-128.5 1508.5,-128.5 1508.5,-98.5 1374.5,-98.5"/>
<text text-anchor="start" x="1382.5" y="-116.5" font-family="FreeSans" font-size="10.00">DGtal::concepts::CSurfel</text>
<text text-anchor="middle" x="1441.5" y="-105.5" font-family="FreeSans" font-size="10.00">Predicate&lt; T &gt;</text>
</a>
</g>
</g>
<!-- Node5&#45;&gt;Node6 -->
<g id="edge7" class="edge"><title>Node5&#45;&gt;Node6</title>
<path fill="none" stroke="midnightblue" d="M1313.39,-113.5C1333.63,-113.5 1354.93,-113.5 1374.19,-113.5"/>
<polygon fill="midnightblue" stroke="midnightblue" points="1313.24,-110 1303.24,-113.5 1313.24,-117 1313.24,-110"/>
</g>
<!-- Node8 -->
<g id="node9" class="node"><title>Node8</title>
<g id="a_node9"><a xlink:href="structDGtal_1_1concepts_1_1CPointPredicate.html" target="_top" xlink:title="Aim: Defines a predicate on a point. ">
<polygon fill="white" stroke="black" points="1340,-55 1340,-74 1543,-74 1543,-55 1340,-55"/>
<text text-anchor="middle" x="1441.5" y="-62" font-family="FreeSans" font-size="10.00">DGtal::concepts::CPointPredicate&lt; T &gt;</text>
</a>
</g>
</g>
<!-- Node7&#45;&gt;Node8 -->
<g id="edge9" class="edge"><title>Node7&#45;&gt;Node8</title>
<path fill="none" stroke="midnightblue" d="M1313.32,-64.5C1322,-64.5 1330.87,-64.5 1339.69,-64.5"/>
<polygon fill="midnightblue" stroke="midnightblue" points="1313.24,-61.0001 1303.24,-64.5 1313.24,-68.0001 1313.24,-61.0001"/>
</g>
<!-- Node9 -->
<g id="node10" class="node"><title>Node9</title>
<g id="a_node10"><a xlink:href="structDGtal_1_1concepts_1_1CDigitalSet.html" target="_top" xlink:title="Aim: Represents a set of points within the given domain. This set of points is modifiable by the user...">
<polygon fill="white" stroke="black" points="1580,-49.5 1580,-79.5 1716,-79.5 1716,-49.5 1580,-49.5"/>
<text text-anchor="start" x="1588" y="-67.5" font-family="FreeSans" font-size="10.00">DGtal::concepts::CDigital</text>
<text text-anchor="middle" x="1648" y="-56.5" font-family="FreeSans" font-size="10.00">Set&lt; T &gt;</text>
</a>
</g>
</g>
<!-- Node8&#45;&gt;Node9 -->
<g id="edge10" class="edge"><title>Node8&#45;&gt;Node9</title>
<path fill="none" stroke="midnightblue" d="M1553.42,-64.5C1562.4,-64.5 1571.29,-64.5 1579.81,-64.5"/>
<polygon fill="midnightblue" stroke="midnightblue" points="1553.25,-61.0001 1543.25,-64.5 1553.25,-68.0001 1553.25,-61.0001"/>
</g>
<!-- Node11 -->
<g id="node12" class="node"><title>Node11</title>
<g id="a_node12"><a xlink:href="structDGtal_1_1concepts_1_1CVertexPredicate.html" target="_top" xlink:title="Aim: Defines a predicate on a vertex. ">
<polygon fill="white" stroke="black" points="1373,-0.5 1373,-30.5 1510,-30.5 1510,-0.5 1373,-0.5"/>
<text text-anchor="start" x="1381" y="-18.5" font-family="FreeSans" font-size="10.00">DGtal::concepts::CVertex</text>
<text text-anchor="middle" x="1441.5" y="-7.5" font-family="FreeSans" font-size="10.00">Predicate&lt; T &gt;</text>
</a>
</g>
</g>
<!-- Node10&#45;&gt;Node11 -->
<g id="edge12" class="edge"><title>Node10&#45;&gt;Node11</title>
<path fill="none" stroke="midnightblue" d="M1313.45,-15.5C1333.18,-15.5 1353.92,-15.5 1372.8,-15.5"/>
<polygon fill="midnightblue" stroke="midnightblue" points="1313.24,-12.0001 1303.24,-15.5 1313.24,-19.0001 1313.24,-12.0001"/>
</g>
</g>
</svg>
