<?xml version="1.0" encoding="UTF-8" standalone="no"?>
<!DOCTYPE svg PUBLIC "-//W3C//DTD SVG 1.1//EN"
 "http://www.w3.org/Graphics/SVG/1.1/DTD/svg11.dtd">
<!-- Generated by graphviz version 2.38.0 (20140413.2041)
 -->
<!-- Title: DGtal::concepts::CDigitalSurfaceContainer&lt; T &gt; Pages: 1 -->
<svg width="220pt" height="106pt"
 viewBox="0.00 0.00 219.50 106.00" xmlns="http://www.w3.org/2000/svg" xmlns:xlink="http://www.w3.org/1999/xlink">
<g id="graph0" class="graph" transform="scale(1 1) rotate(0) translate(4 102)">
<title>DGtal::concepts::CDigitalSurfaceContainer&lt; T &gt;</title>
<polygon fill="white" stroke="none" points="-4,4 -4,-102 215.5,-102 215.5,4 -4,4"/>
<!-- Node2 -->
<g id="node1" class="node"><title>Node2</title>
<polygon fill="#bfbfbf" stroke="black" points="71,-0.5 71,-30.5 207,-30.5 207,-0.5 71,-0.5"/>
<text text-anchor="start" x="79" y="-18.5" font-family="FreeSans" font-size="10.00">DGtal::concepts::CDigital</text>
<text text-anchor="middle" x="139" y="-7.5" font-family="FreeSans" font-size="10.00">SurfaceContainer&lt; T &gt;</text>
</g>
<!-- Node3 -->
<g id="node2" class="node"><title>Node3</title>
<g id="a_node2"><a xlink:href="structboost_1_1CopyConstructible.html" target="_top" xlink:title="Go to http://www.sgi.com/tech/stl/CopyConstructible.html. ">
<polygon fill="white" stroke="black" points="0,-78.5 0,-97.5 164,-97.5 164,-78.5 0,-78.5"/>
<text text-anchor="middle" x="82" y="-85.5" font-family="FreeSans" font-size="10.00">boost::CopyConstructible&lt; T &gt;</text>
</a>
</g>
</g>
<!-- Node3&#45;&gt;Node2 -->
<g id="edge1" class="edge"><title>Node3&#45;&gt;Node2</title>
<path fill="none" stroke="midnightblue" d="M95.4272,-70.3927C105.218,-58.2828 118.341,-42.0514 127.619,-30.5762"/>
<polygon fill="midnightblue" stroke="midnightblue" points="92.5549,-68.3785 88.9893,-78.3553 97.9983,-72.7795 92.5549,-68.3785"/>
</g>
<!-- Node4 -->
<g id="node3" class="node"><title>Node4</title>
<polygon fill="white" stroke="#bfbfbf" points="182.5,-78.5 182.5,-97.5 211.5,-97.5 211.5,-78.5 182.5,-78.5"/>
<text text-anchor="middle" x="197" y="-85.5" font-family="FreeSans" font-size="10.00">T</text>
</g>
<!-- Node4&#45;&gt;Node2 -->
<g id="edge2" class="edge"><title>Node4&#45;&gt;Node2</title>
<path fill="none" stroke="#9a32cd" stroke-dasharray="5,2" d="M183.337,-70.3927C173.374,-58.2828 160.021,-42.0514 150.58,-30.5762"/>
<polygon fill="#9a32cd" stroke="#9a32cd" points="180.832,-72.8565 189.888,-78.3553 186.238,-68.4092 180.832,-72.8565"/>
<text text-anchor="middle" x="186.5" y="-52" font-family="FreeSans" font-size="10.00"> myX</text>
</g>
</g>
</svg>
