<?xml version="1.0" encoding="UTF-8" standalone="no"?>
<!DOCTYPE svg PUBLIC "-//W3C//DTD SVG 1.1//EN"
 "http://www.w3.org/Graphics/SVG/1.1/DTD/svg11.dtd">
<!-- Generated by graphviz version 2.38.0 (20140413.2041)
 -->
<!-- Title: DGtal::concepts::CSparseMatrix&lt; T, TripletInterator &gt; Pages: 1 -->
<svg width="260pt" height="241pt"
 viewBox="0.00 0.00 260.00 241.00" xmlns="http://www.w3.org/2000/svg" xmlns:xlink="http://www.w3.org/1999/xlink">
<g id="graph0" class="graph" transform="scale(1 1) rotate(0) translate(4 237)">
<title>DGtal::concepts::CSparseMatrix&lt; T, TripletInterator &gt;</title>
<polygon fill="white" stroke="none" points="-4,4 -4,-237 256,-237 256,4 -4,4"/>
<!-- Node4 -->
<g id="node1" class="node"><title>Node4</title>
<polygon fill="#bfbfbf" stroke="black" points="0,-0.5 0,-30.5 149,-30.5 149,-0.5 0,-0.5"/>
<text text-anchor="start" x="8" y="-18.5" font-family="FreeSans" font-size="10.00">DGtal::concepts::CSparse</text>
<text text-anchor="middle" x="74.5" y="-7.5" font-family="FreeSans" font-size="10.00">Matrix&lt; T, TripletInterator &gt;</text>
</g>
<!-- Node5 -->
<g id="node2" class="node"><title>Node5</title>
<g id="a_node2"><a xlink:href="structDGtal_1_1concepts_1_1CMatrix.html" target="_top" xlink:title="Aim: Represent any static or dynamic sized matrix having sparse or dense representation. ">
<polygon fill="white" stroke="black" points="70,-68.5 70,-87.5 233,-87.5 233,-68.5 70,-68.5"/>
<text text-anchor="middle" x="151.5" y="-75.5" font-family="FreeSans" font-size="10.00">DGtal::concepts::CMatrix&lt; T &gt;</text>
</a>
</g>
</g>
<!-- Node5&#45;&gt;Node4 -->
<g id="edge1" class="edge"><title>Node5&#45;&gt;Node4</title>
<path fill="none" stroke="midnightblue" d="M132.282,-61.9003C120.048,-52.2876 104.312,-39.9235 92.3513,-30.526"/>
<polygon fill="midnightblue" stroke="midnightblue" points="130.442,-64.9057 140.468,-68.3318 134.767,-59.4015 130.442,-64.9057"/>
</g>
<!-- Node6 -->
<g id="node3" class="node"><title>Node6</title>
<g id="a_node3"><a xlink:href="structDGtal_1_1concepts_1_1CVectorSpace.html" target="_top" xlink:title="Aim: Base concept for vector space structure. ">
<polygon fill="white" stroke="black" points="115,-135.5 115,-165.5 252,-165.5 252,-135.5 115,-135.5"/>
<text text-anchor="start" x="123" y="-153.5" font-family="FreeSans" font-size="10.00">DGtal::concepts::CVector</text>
<text text-anchor="middle" x="183.5" y="-142.5" font-family="FreeSans" font-size="10.00">Space&lt; T &gt;</text>
</a>
</g>
</g>
<!-- Node6&#45;&gt;Node5 -->
<g id="edge2" class="edge"><title>Node6&#45;&gt;Node5</title>
<path fill="none" stroke="midnightblue" d="M172.77,-125.861C166.849,-112.817 159.844,-97.3835 155.537,-87.8932"/>
<polygon fill="midnightblue" stroke="midnightblue" points="169.704,-127.574 177.024,-135.233 176.078,-124.681 169.704,-127.574"/>
</g>
<!-- Node7 -->
<g id="node4" class="node"><title>Node7</title>
<g id="a_node4"><a xlink:href="structboost_1_1Assignable.html" target="_top" xlink:title="Go to http://www.sgi.com/tech/stl/Assignable.html. ">
<polygon fill="white" stroke="black" points="119,-213.5 119,-232.5 248,-232.5 248,-213.5 119,-213.5"/>
<text text-anchor="middle" x="183.5" y="-220.5" font-family="FreeSans" font-size="10.00">boost::Assignable&lt; T &gt;</text>
</a>
</g>
</g>
<!-- Node7&#45;&gt;Node6 -->
<g id="edge3" class="edge"><title>Node7&#45;&gt;Node6</title>
<path fill="none" stroke="midnightblue" d="M183.5,-203.236C183.5,-191.408 183.5,-176.383 183.5,-165.576"/>
<polygon fill="midnightblue" stroke="midnightblue" points="180,-203.355 183.5,-213.355 187,-203.355 180,-203.355"/>
</g>
<!-- Node8 -->
<g id="node5" class="node"><title>Node8</title>
<polygon fill="white" stroke="#bfbfbf" points="72,-213.5 72,-232.5 101,-232.5 101,-213.5 72,-213.5"/>
<text text-anchor="middle" x="86.5" y="-220.5" font-family="FreeSans" font-size="10.00">T</text>
</g>
<!-- Node8&#45;&gt;Node4 -->
<g id="edge6" class="edge"><title>Node8&#45;&gt;Node4</title>
<path fill="none" stroke="#9a32cd" stroke-dasharray="5,2" d="M79.8491,-203.832C70.1386,-175.091 53.9143,-117.331 60.5,-68 62.2165,-55.1424 66.2426,-40.9456 69.5388,-30.7197"/>
<polygon fill="#9a32cd" stroke="#9a32cd" points="76.5753,-205.073 83.1907,-213.348 83.1799,-202.754 76.5753,-205.073"/>
<text text-anchor="middle" x="65" y="-109" font-family="FreeSans" font-size="10.00"> z</text>
</g>
<!-- Node8&#45;&gt;Node5 -->
<g id="edge5" class="edge"><title>Node8&#45;&gt;Node5</title>
<path fill="none" stroke="#9a32cd" stroke-dasharray="5,2" d="M85.2266,-203.13C84.7627,-184.826 86.1343,-156.712 96.5,-135 106.128,-114.832 125.992,-97.5219 139.026,-87.6849"/>
<polygon fill="#9a32cd" stroke="#9a32cd" points="81.7409,-203.52 85.7044,-213.346 88.7333,-203.193 81.7409,-203.52"/>
<text text-anchor="middle" x="101" y="-148" font-family="FreeSans" font-size="10.00"> z</text>
</g>
<!-- Node8&#45;&gt;Node6 -->
<g id="edge4" class="edge"><title>Node8&#45;&gt;Node6</title>
<path fill="none" stroke="#9a32cd" stroke-dasharray="5,2" d="M106.498,-207.465C123.388,-195.19 147.424,-177.72 164.133,-165.576"/>
<polygon fill="#9a32cd" stroke="#9a32cd" points="104.426,-204.645 98.3941,-213.355 108.541,-210.307 104.426,-204.645"/>
<text text-anchor="middle" x="143" y="-187" font-family="FreeSans" font-size="10.00"> z</text>
</g>
</g>
</svg>
