<?xml version="1.0" encoding="UTF-8" standalone="no"?>
<!DOCTYPE svg PUBLIC "-//W3C//DTD SVG 1.1//EN"
 "http://www.w3.org/Graphics/SVG/1.1/DTD/svg11.dtd">
<!-- Generated by graphviz version 2.38.0 (20140413.2041)
 -->
<!-- Title: DGtal::concepts::CSurfelPredicate&lt; T &gt; Pages: 1 -->
<!--zoomable 279 -->
<svg id="main" version="1.1" xmlns="http://www.w3.org/2000/svg" xmlns:xlink="http://www.w3.org/1999/xlink" xml:space="preserve" onload="init(evt)">
<style type="text/css"><![CDATA[
.edge:hover path { stroke: red; }
.edge:hover polygon { stroke: red; fill: red; }
]]></style>
<script type="text/javascript"><![CDATA[
var edges = document.getElementsByTagName('g');
if (edges && edges.length) {
  for (var i=0;i<edges.length;i++) {
    if (edges[i].id.substr(0,4)=='edge') {
      edges[i].setAttribute('class','edge');
    }
  }
}
]]></script>
        <defs>
                <circle id="rim" cx="0" cy="0" r="7"/>
                <circle id="rim2" cx="0" cy="0" r="3.5"/>
                <g id="zoomPlus">
                        <use xlink:href="#rim" fill="#404040">
                                <set attributeName="fill" to="#808080" begin="zoomplus.mouseover" end="zoomplus.mouseout"/>
                        </use>
                        <path d="M-4,0h8M0,-4v8" fill="none" stroke="white" stroke-width="1.5" pointer-events="none"/>
                </g>
                <g id="zoomMin">
                        <use xlink:href="#rim" fill="#404040">
                                <set attributeName="fill" to="#808080" begin="zoomminus.mouseover" end="zoomminus.mouseout"/>
                        </use>
                        <path d="M-4,0h8" fill="none" stroke="white" stroke-width="1.5" pointer-events="none"/>
                </g>
                <g id="dirArrow">
                        <path fill="none" stroke="white" stroke-width="1.5" d="M0,-3.0v7 M-2.5,-0.5L0,-3.0L2.5,-0.5"/>
                </g>
               <g id="resetDef">
                       <use xlink:href="#rim2" fill="#404040">
                               <set attributeName="fill" to="#808080" begin="reset.mouseover" end="reset.mouseout"/>
                       </use>
               </g>
        </defs>

<script type="text/javascript">
var viewWidth = 1545;
var viewHeight = 279;
var sectionId = 'dynsection-1';
</script>
<script xlink:href="svgpan.js"/>
<svg id="graph" class="graph">
<g id="viewport">
<title>DGtal::concepts::CSurfelPredicate&lt; T &gt;</title>
<polygon fill="white" stroke="none" points="-4,4 -4,-275.421 1541,-275.421 1541,4 -4,4"/>
<!-- Node8 -->
<g id="node1" class="node"><title>Node8</title>
<polygon fill="#bfbfbf" stroke="black" points="1403,-130 1403,-160 1537,-160 1537,-130 1403,-130"/>
<text text-anchor="start" x="1411" y="-148" font-family="FreeSans" font-size="10.00">DGtal::concepts::CSurfel</text>
<text text-anchor="middle" x="1470" y="-137" font-family="FreeSans" font-size="10.00">Predicate&lt; T &gt;</text>
</g>
<!-- Node9 -->
<g id="node2" class="node"><title>Node9</title>
<g id="a_node2"><a xlink:href="structDGtal_1_1concepts_1_1CPredicate.html" target="_top" xlink:title="DGtal::concepts::CPredicate\l\&lt; T, T::Surfel \&gt;">
<polygon fill="white" stroke="black" points="1215,-130 1215,-160 1366,-160 1366,-130 1215,-130"/>
<text text-anchor="start" x="1223" y="-148" font-family="FreeSans" font-size="10.00">DGtal::concepts::CPredicate</text>
<text text-anchor="middle" x="1290.5" y="-137" font-family="FreeSans" font-size="10.00">&lt; T, T::Surfel &gt;</text>
</a>
</g>
</g>
<!-- Node9&#45;&gt;Node8 -->
<g id="edge1" class="edge"><title>Node9&#45;&gt;Node8</title>
<path fill="none" stroke="midnightblue" d="M1376.11,-145C1385.09,-145 1394.14,-145 1402.87,-145"/>
<polygon fill="midnightblue" stroke="midnightblue" points="1376,-141.5 1366,-145 1376,-148.5 1376,-141.5"/>
</g>
<!-- Node10 -->
<g id="node3" class="node"><title>Node10</title>
<g id="a_node3"><a xlink:href="structDGtal_1_1concepts_1_1CUnaryFunctor.html" target="_top" xlink:title="DGtal::concepts::CUnaryFunctor\l\&lt; T, T::Surfel, bool \&gt;">
<polygon fill="white" stroke="black" points="688,-195 688,-225 858,-225 858,-195 688,-195"/>
<text text-anchor="start" x="696" y="-213" font-family="FreeSans" font-size="10.00">DGtal::concepts::CUnaryFunctor</text>
<text text-anchor="middle" x="773" y="-202" font-family="FreeSans" font-size="10.00">&lt; T, T::Surfel, bool &gt;</text>
</a>
</g>
</g>
<!-- Node10&#45;&gt;Node9 -->
<g id="edge2" class="edge"><title>Node10&#45;&gt;Node9</title>
<path fill="none" stroke="midnightblue" d="M868.344,-199.452C954.137,-189.663 1084.19,-174.333 1197,-159 1202.79,-158.212 1208.79,-157.37 1214.81,-156.502"/>
<polygon fill="midnightblue" stroke="midnightblue" points="867.905,-195.979 858.366,-200.588 868.697,-202.934 867.905,-195.979"/>
</g>
<!-- Node11 -->
<g id="node4" class="node"><title>Node11</title>
<g id="a_node4"><a xlink:href="structboost_1_1Assignable.html" target="_top" xlink:title="Go to http://www.sgi.com/tech/stl/Assignable.html. ">
<polygon fill="white" stroke="black" points="0,-138.5 0,-157.5 129,-157.5 129,-138.5 0,-138.5"/>
<text text-anchor="middle" x="64.5" y="-145.5" font-family="FreeSans" font-size="10.00">boost::Assignable&lt; T &gt;</text>
</a>
</g>
</g>
<!-- Node11&#45;&gt;Node10 -->
<g id="edge3" class="edge"><title>Node11&#45;&gt;Node10</title>
<path fill="none" stroke="midnightblue" d="M81.7429,-165.129C104.804,-188.065 149.537,-227.649 197,-243 382.282,-302.926 618.429,-252.577 720.823,-225.054"/>
<polygon fill="midnightblue" stroke="midnightblue" points="84.0254,-162.458 74.5207,-157.777 79.0318,-167.363 84.0254,-162.458"/>
</g>
<!-- Node14 -->
<g id="node7" class="node"><title>Node14</title>
<g id="a_node7"><a xlink:href="structboost_1_1Assignable.html" target="_top" xlink:title="boost::Assignable\&lt; X \&gt;">
<polygon fill="white" stroke="black" points="197,-138.5 197,-157.5 327,-157.5 327,-138.5 197,-138.5"/>
<text text-anchor="middle" x="262" y="-145.5" font-family="FreeSans" font-size="10.00">boost::Assignable&lt; X &gt;</text>
</a>
</g>
</g>
<!-- Node11&#45;&gt;Node14 -->
<g id="edge7" class="edge"><title>Node11&#45;&gt;Node14</title>
<path fill="none" stroke="orange" stroke-dasharray="5,2" d="M139.282,-148C158.161,-148 178.312,-148 196.674,-148"/>
<polygon fill="orange" stroke="orange" points="139.244,-144.5 129.243,-148 139.243,-151.5 139.244,-144.5"/>
<text text-anchor="middle" x="163" y="-151" font-family="FreeSans" font-size="10.00"> &lt; X &gt;</text>
</g>
<!-- Node19 -->
<g id="node12" class="node"><title>Node19</title>
<g id="a_node12"><a xlink:href="structDGtal_1_1concepts_1_1CUnaryFunctor.html" target="_top" xlink:title="DGtal::concepts::CUnaryFunctor\l\&lt; T, TElement, bool \&gt;">
<polygon fill="white" stroke="black" points="688,-39 688,-69 858,-69 858,-39 688,-39"/>
<text text-anchor="start" x="696" y="-57" font-family="FreeSans" font-size="10.00">DGtal::concepts::CUnaryFunctor</text>
<text text-anchor="middle" x="773" y="-46" font-family="FreeSans" font-size="10.00">&lt; T, TElement, bool &gt;</text>
</a>
</g>
</g>
<!-- Node11&#45;&gt;Node19 -->
<g id="edge14" class="edge"><title>Node11&#45;&gt;Node19</title>
<path fill="none" stroke="midnightblue" d="M91.8737,-133.497C117.798,-119.991 158.905,-100.55 197,-91 367.288,-48.3113 574.331,-46.7637 687.703,-50.0116"/>
<polygon fill="midnightblue" stroke="midnightblue" points="89.9155,-130.573 82.7193,-138.349 93.194,-136.758 89.9155,-130.573"/>
</g>
<!-- Node12 -->
<g id="node5" class="node"><title>Node12</title>
<polygon fill="white" stroke="#bfbfbf" points="443.5,-108.5 443.5,-127.5 472.5,-127.5 472.5,-108.5 443.5,-108.5"/>
<text text-anchor="middle" x="458" y="-115.5" font-family="FreeSans" font-size="10.00">T</text>
</g>
<!-- Node12&#45;&gt;Node9 -->
<g id="edge11" class="edge"><title>Node12&#45;&gt;Node9</title>
<path fill="none" stroke="#9a32cd" stroke-dasharray="5,2" d="M482.898,-118.777C590.928,-122.289 1036.11,-136.762 1214.79,-142.571"/>
<polygon fill="#9a32cd" stroke="#9a32cd" points="482.83,-115.273 472.722,-118.446 482.603,-122.269 482.83,-115.273"/>
<text text-anchor="middle" x="905" y="-137" font-family="FreeSans" font-size="10.00"> myPred</text>
</g>
<!-- Node12&#45;&gt;Node10 -->
<g id="edge4" class="edge"><title>Node12&#45;&gt;Node10</title>
<path fill="none" stroke="#9a32cd" stroke-dasharray="5,2" d="M482.287,-123.641C502.938,-128.605 533.936,-135.961 561,-142 609.323,-152.782 622.875,-149.815 670,-165 695.054,-173.073 722.276,-185.269 742.29,-194.928"/>
<polygon fill="#9a32cd" stroke="#9a32cd" points="483.048,-120.224 472.507,-121.283 481.408,-127.029 483.048,-120.224"/>
<text text-anchor="middle" x="615.5" y="-168" font-family="FreeSans" font-size="10.00"> x</text>
</g>
<!-- Node18 -->
<g id="node11" class="node"><title>Node18</title>
<g id="a_node11"><a xlink:href="structDGtal_1_1concepts_1_1CPredicate.html" target="_top" xlink:title="Aim: Defines a predicate function, ie. a functor mapping a domain into the set of booleans...">
<polygon fill="white" stroke="black" points="952,-70 952,-100 1103,-100 1103,-70 952,-70"/>
<text text-anchor="start" x="960" y="-88" font-family="FreeSans" font-size="10.00">DGtal::concepts::CPredicate</text>
<text text-anchor="middle" x="1027.5" y="-77" font-family="FreeSans" font-size="10.00">&lt; T, TElement &gt;</text>
</a>
</g>
</g>
<!-- Node12&#45;&gt;Node18 -->
<g id="edge18" class="edge"><title>Node12&#45;&gt;Node18</title>
<path fill="none" stroke="#9a32cd" stroke-dasharray="5,2" d="M482.762,-116.618C562.452,-111.984 822.458,-96.865 951.899,-89.338"/>
<polygon fill="#9a32cd" stroke="#9a32cd" points="482.527,-113.126 472.747,-117.201 482.933,-120.114 482.527,-113.126"/>
<text text-anchor="middle" x="773" y="-108" font-family="FreeSans" font-size="10.00"> myPred</text>
</g>
<!-- Node12&#45;&gt;Node19 -->
<g id="edge15" class="edge"><title>Node12&#45;&gt;Node19</title>
<path fill="none" stroke="#9a32cd" stroke-dasharray="5,2" d="M481.936,-108.025C502.32,-99.5627 533.122,-87.7522 561,-81 602.187,-71.0244 648.845,-64.5669 687.794,-60.4779"/>
<polygon fill="#9a32cd" stroke="#9a32cd" points="480.41,-104.87 472.561,-111.987 483.135,-111.318 480.41,-104.87"/>
<text text-anchor="middle" x="615.5" y="-84" font-family="FreeSans" font-size="10.00"> x</text>
</g>
<!-- Node13 -->
<g id="node6" class="node"><title>Node13</title>
<g id="a_node6"><a xlink:href="structDGtal_1_1concepts_1_1CUnaryFunctor.html" target="_top" xlink:title="Aim: Defines a unary functor, which associates arguments to results. ">
<polygon fill="white" stroke="black" points="373,-179 373,-209 543,-209 543,-179 373,-179"/>
<text text-anchor="start" x="381" y="-197" font-family="FreeSans" font-size="10.00">DGtal::concepts::CUnaryFunctor</text>
<text text-anchor="middle" x="458" y="-186" font-family="FreeSans" font-size="10.00">&lt; X, A, R &gt;</text>
</a>
</g>
</g>
<!-- Node13&#45;&gt;Node10 -->
<g id="edge5" class="edge"><title>Node13&#45;&gt;Node10</title>
<path fill="none" stroke="orange" stroke-dasharray="5,2" d="M553.291,-209.327C555.886,-209.576 558.459,-209.802 561,-210 602.725,-213.253 649.233,-213.602 687.944,-212.992"/>
<polygon fill="orange" stroke="orange" points="553.519,-205.832 543.205,-208.257 552.78,-212.793 553.519,-205.832"/>
<text text-anchor="middle" x="615.5" y="-217" font-family="FreeSans" font-size="10.00"> &lt; T, T::Surfel, bool &gt;</text>
</g>
<!-- Node13&#45;&gt;Node19 -->
<g id="edge16" class="edge"><title>Node13&#45;&gt;Node19</title>
<path fill="none" stroke="orange" stroke-dasharray="5,2" d="M553.331,-196.761C601.158,-196.091 652.724,-191.502 670,-176 701.01,-148.174 660.826,-115.583 688,-84 693.252,-77.8959 699.836,-73.0338 706.994,-69.161"/>
<polygon fill="orange" stroke="orange" points="553.165,-193.262 543.195,-196.847 553.225,-200.262 553.165,-193.262"/>
<text text-anchor="middle" x="615.5" y="-200" font-family="FreeSans" font-size="10.00"> &lt; T, TElement, bool &gt;</text>
</g>
<!-- Node14&#45;&gt;Node13 -->
<g id="edge6" class="edge"><title>Node14&#45;&gt;Node13</title>
<path fill="none" stroke="midnightblue" d="M313.02,-159.86C337.573,-165.682 367.42,-172.759 393.559,-178.957"/>
<polygon fill="midnightblue" stroke="midnightblue" points="313.735,-156.433 303.197,-157.531 312.12,-163.244 313.735,-156.433"/>
</g>
<!-- Node15 -->
<g id="node8" class="node"><title>Node15</title>
<polygon fill="white" stroke="#bfbfbf" points="247.5,-100.5 247.5,-119.5 276.5,-119.5 276.5,-100.5 247.5,-100.5"/>
<text text-anchor="middle" x="262" y="-107.5" font-family="FreeSans" font-size="10.00">X</text>
</g>
<!-- Node15&#45;&gt;Node13 -->
<g id="edge8" class="edge"><title>Node15&#45;&gt;Node13</title>
<path fill="none" stroke="#9a32cd" stroke-dasharray="5,2" d="M286.61,-115.945C298.838,-119.29 313.91,-123.83 327,-129 363.847,-143.552 404.394,-164.702 430.244,-178.885"/>
<polygon fill="#9a32cd" stroke="#9a32cd" points="287.28,-112.502 276.718,-113.328 285.49,-119.269 287.28,-112.502"/>
<text text-anchor="middle" x="350" y="-143" font-family="FreeSans" font-size="10.00"> x</text>
</g>
<!-- Node16 -->
<g id="node9" class="node"><title>Node16</title>
<polygon fill="white" stroke="#bfbfbf" points="247.5,-214.5 247.5,-233.5 276.5,-233.5 276.5,-214.5 247.5,-214.5"/>
<text text-anchor="middle" x="262" y="-221.5" font-family="FreeSans" font-size="10.00">R</text>
</g>
<!-- Node16&#45;&gt;Node13 -->
<g id="edge9" class="edge"><title>Node16&#45;&gt;Node13</title>
<path fill="none" stroke="#9a32cd" stroke-dasharray="5,2" d="M286.78,-220.323C308.308,-216.994 341.343,-211.885 372.602,-207.051"/>
<polygon fill="#9a32cd" stroke="#9a32cd" points="285.989,-216.903 276.642,-221.89 287.059,-223.821 285.989,-216.903"/>
<text text-anchor="middle" x="350" y="-214" font-family="FreeSans" font-size="10.00"> r</text>
</g>
<!-- Node17 -->
<g id="node10" class="node"><title>Node17</title>
<polygon fill="white" stroke="#bfbfbf" points="247.5,-176.5 247.5,-195.5 276.5,-195.5 276.5,-176.5 247.5,-176.5"/>
<text text-anchor="middle" x="262" y="-183.5" font-family="FreeSans" font-size="10.00">A</text>
</g>
<!-- Node17&#45;&gt;Node13 -->
<g id="edge10" class="edge"><title>Node17&#45;&gt;Node13</title>
<path fill="none" stroke="#9a32cd" stroke-dasharray="5,2" d="M286.78,-186.981C308.308,-187.868 341.343,-189.231 372.602,-190.52"/>
<polygon fill="#9a32cd" stroke="#9a32cd" points="286.777,-183.478 276.642,-186.563 286.489,-190.472 286.777,-183.478"/>
<text text-anchor="middle" x="350" y="-193" font-family="FreeSans" font-size="10.00"> a</text>
</g>
<!-- Node18&#45;&gt;Node9 -->
<g id="edge12" class="edge"><title>Node18&#45;&gt;Node9</title>
<path fill="none" stroke="orange" stroke-dasharray="5,2" d="M1113.48,-101.631C1140.28,-107.149 1169.94,-113.539 1197,-120 1209.62,-123.013 1223.14,-126.511 1235.83,-129.919"/>
<polygon fill="orange" stroke="orange" points="1113.86,-98.137 1103.36,-99.5614 1112.46,-104.995 1113.86,-98.137"/>
<text text-anchor="middle" x="1159" y="-123" font-family="FreeSans" font-size="10.00"> &lt; T, T::Surfel &gt;</text>
</g>
<!-- Node19&#45;&gt;Node18 -->
<g id="edge13" class="edge"><title>Node19&#45;&gt;Node18</title>
<path fill="none" stroke="midnightblue" d="M868.132,-65.5568C895.716,-68.9434 925.492,-72.5991 951.7,-75.8166"/>
<polygon fill="midnightblue" stroke="midnightblue" points="868.431,-62.0673 858.079,-64.3226 867.578,-69.0151 868.431,-62.0673"/>
</g>
<!-- Node20 -->
<g id="node13" class="node"><title>Node20</title>
<polygon fill="white" stroke="#bfbfbf" points="742,-0.5 742,-19.5 804,-19.5 804,-0.5 742,-0.5"/>
<text text-anchor="middle" x="773" y="-7.5" font-family="FreeSans" font-size="10.00">TElement</text>
</g>
<!-- Node20&#45;&gt;Node18 -->
<g id="edge17" class="edge"><title>Node20&#45;&gt;Node18</title>
<path fill="none" stroke="#9a32cd" stroke-dasharray="5,2" d="M813.891,-18.4115C827.891,-21.5251 843.692,-25.2219 858,-29 902.41,-40.7264 952.205,-57.7731 986.072,-69.9745"/>
<polygon fill="#9a32cd" stroke="#9a32cd" points="814.579,-14.9794 804.062,-16.2545 813.079,-21.8167 814.579,-14.9794"/>
<text text-anchor="middle" x="905" y="-55" font-family="FreeSans" font-size="10.00"> myElement</text>
</g>
</g>
</svg>
        <g id="navigator" transform="translate(0 0)" fill="#404254">
                <rect fill="#f2f5e9" fill-opacity="0.5" stroke="#606060" stroke-width=".5" x="0" y="0" width="60" height="60"/>
                <use id="zoomplus" xlink:href="#zoomPlus" x="17" y="9" onmousedown="handleZoom(evt,'in')"/>
                <use id="zoomminus" xlink:href="#zoomMin" x="42" y="9" onmousedown="handleZoom(evt,'out')"/>
                <use id="reset" xlink:href="#resetDef" x="30" y="36" onmousedown="handleReset()"/>
                <g id="arrowUp" xlink:href="#dirArrow" transform="translate(30 24)" onmousedown="handlePan(0,-1)">
                  <use xlink:href="#rim" fill="#404040">
                        <set attributeName="fill" to="#808080" begin="arrowUp.mouseover" end="arrowUp.mouseout"/>
                  </use>
                  <path fill="none" stroke="white" stroke-width="1.5" d="M0,-3.0v7 M-2.5,-0.5L0,-3.0L2.5,-0.5"/>
                </g>
                <g id="arrowRight" xlink:href="#dirArrow" transform="rotate(90) translate(36 -43)" onmousedown="handlePan(1,0)">
                  <use xlink:href="#rim" fill="#404040">
                        <set attributeName="fill" to="#808080" begin="arrowRight.mouseover" end="arrowRight.mouseout"/>
                  </use>
                  <path fill="none" stroke="white" stroke-width="1.5" d="M0,-3.0v7 M-2.5,-0.5L0,-3.0L2.5,-0.5"/>
                </g>
                <g id="arrowDown" xlink:href="#dirArrow" transform="rotate(180) translate(-30 -48)" onmousedown="handlePan(0,1)">
                  <use xlink:href="#rim" fill="#404040">
                        <set attributeName="fill" to="#808080" begin="arrowDown.mouseover" end="arrowDown.mouseout"/>
                  </use>
                  <path fill="none" stroke="white" stroke-width="1.5" d="M0,-3.0v7 M-2.5,-0.5L0,-3.0L2.5,-0.5"/>
                </g>
                <g id="arrowLeft" xlink:href="#dirArrow" transform="rotate(270) translate(-36 17)" onmousedown="handlePan(-1,0)">
                  <use xlink:href="#rim" fill="#404040">
                        <set attributeName="fill" to="#808080" begin="arrowLeft.mouseover" end="arrowLeft.mouseout"/>
                  </use>
                  <path fill="none" stroke="white" stroke-width="1.5" d="M0,-3.0v7 M-2.5,-0.5L0,-3.0L2.5,-0.5"/>
                </g>
        </g>
        <svg viewBox="0 0 15 15" width="100%" height="30px" preserveAspectRatio="xMaxYMin meet">
         <g id="arrow_out" transform="scale(0.3 0.3)">
          <a xlink:href="structDGtal_1_1concepts_1_1CSurfelPredicate__coll__graph_org.svg" target="_base">
           <rect id="button" ry="5" rx="5" y="6" x="6" height="38" width="38"
                fill="#f2f5e9" fill-opacity="0.5" stroke="#606060" stroke-width="1.0"/>
           <path id="arrow"
             d="M 11.500037,31.436501 C 11.940474,20.09759 22.043105,11.32322 32.158766,21.979434 L 37.068811,17.246167 C 37.068811,17.246167 37.088388,32 37.088388,32 L 22.160133,31.978069 C 22.160133,31.978069 26.997745,27.140456 26.997745,27.140456 C 18.528582,18.264221 13.291696,25.230495 11.500037,31.436501 z"
             style="fill:#404040;"/>
          </a>
         </g>
        </svg>
</svg>
