<?xml version="1.0" encoding="UTF-8" standalone="no"?>
<!DOCTYPE svg PUBLIC "-//W3C//DTD SVG 1.1//EN"
 "http://www.w3.org/Graphics/SVG/1.1/DTD/svg11.dtd">
<!-- Generated by graphviz version 2.36.0 (20140111.2315)
 -->
<!-- Title: DGtal::NumberTraitsImpl&lt; T, typename std::enable_if&lt; std::is_floating_point&lt; T &gt;::value &gt;::type &gt; Pages: 1 -->
<svg width="158pt" height="130pt"
 viewBox="0.00 0.00 158.00 130.00" xmlns="http://www.w3.org/2000/svg" xmlns:xlink="http://www.w3.org/1999/xlink">
<g id="graph0" class="graph" transform="scale(1 1) rotate(0) translate(4 126)">
<title>DGtal::NumberTraitsImpl&lt; T, typename std::enable_if&lt; std::is_floating_point&lt; T &gt;::value &gt;::type &gt;</title>
<polygon fill="white" stroke="none" points="-4,4 -4,-126 154,-126 154,4 -4,4"/>
<!-- Node2 -->
<g id="node1" class="node"><title>Node2</title>
<polygon fill="#bfbfbf" stroke="black" points="3,-1 3,-53 147,-53 147,-1 3,-1"/>
<text text-anchor="start" x="11" y="-41" font-family="FreeSans" font-size="10.00">DGtal::NumberTraitsImpl</text>
<text text-anchor="start" x="11" y="-30" font-family="FreeSans" font-size="10.00">&lt; T, typename std::enable</text>
<text text-anchor="start" x="11" y="-19" font-family="FreeSans" font-size="10.00">_if&lt; std::is_floating_point</text>
<text text-anchor="middle" x="75" y="-8" font-family="FreeSans" font-size="10.00">&lt; T &gt;::value &gt;::type &gt;</text>
</g>
<!-- Node3 -->
<g id="node2" class="node"><title>Node3</title>
<g id="a_node2"><a xlink:href="structDGtal_1_1details_1_1NumberTraitsImplFundamental.html" target="_top" xlink:title="NumberTraits common part for fundamental integer and floating&#45;point types. ">
<polygon fill="white" stroke="black" points="-0.5,-91 -0.5,-121 150.5,-121 150.5,-91 -0.5,-91"/>
<text text-anchor="start" x="7.5" y="-109" font-family="FreeSans" font-size="10.00">DGtal::details::NumberTraits</text>
<text text-anchor="middle" x="75" y="-98" font-family="FreeSans" font-size="10.00">ImplFundamental&lt; T &gt;</text>
</a>
</g>
</g>
<!-- Node3&#45;&gt;Node2 -->
<g id="edge1" class="edge"><title>Node3&#45;&gt;Node2</title>
<path fill="none" stroke="midnightblue" d="M75,-80.5946C75,-71.8757 75,-62.0379 75,-53.2493"/>
<polygon fill="midnightblue" stroke="midnightblue" points="71.5001,-80.877 75,-90.877 78.5001,-80.877 71.5001,-80.877"/>
</g>
</g>
</svg>
