<?xml version="1.0" encoding="UTF-8" standalone="no"?>
<!DOCTYPE svg PUBLIC "-//W3C//DTD SVG 1.1//EN"
 "http://www.w3.org/Graphics/SVG/1.1/DTD/svg11.dtd">
<!-- Generated by graphviz version 2.38.0 (20140413.2041)
 -->
<!-- Title: DGtal::Translate2DDomain Pages: 1 -->
<svg width="187pt" height="140pt"
 viewBox="0.00 0.00 187.00 140.00" xmlns="http://www.w3.org/2000/svg" xmlns:xlink="http://www.w3.org/1999/xlink">
<g id="graph0" class="graph" transform="scale(1 1) rotate(0) translate(4 136)">
<title>DGtal::Translate2DDomain</title>
<polygon fill="white" stroke="none" points="-4,4 -4,-136 183,-136 183,4 -4,4"/>
<!-- Node0 -->
<g id="node1" class="node"><title>Node0</title>
<polygon fill="#bfbfbf" stroke="black" points="18,-0.5 18,-19.5 161,-19.5 161,-0.5 18,-0.5"/>
<text text-anchor="middle" x="89.5" y="-7.5" font-family="FreeSans" font-size="10.00">DGtal::Translate2DDomain</text>
</g>
<!-- Node1 -->
<g id="node2" class="node"><title>Node1</title>
<g id="a_node2"><a xlink:href="structDGtal_1_1DrawWithViewer3DModifier.html" target="_top" xlink:title="Base class specifying the methods for classes which intend to modify a Viewer3D stream. ">
<polygon fill="white" stroke="black" points="1.5,-56.5 1.5,-75.5 177.5,-75.5 177.5,-56.5 1.5,-56.5"/>
<text text-anchor="middle" x="89.5" y="-63.5" font-family="FreeSans" font-size="10.00">DGtal::DrawWithViewer3DModifier</text>
</a>
</g>
</g>
<!-- Node1&#45;&gt;Node0 -->
<g id="edge1" class="edge"><title>Node1&#45;&gt;Node0</title>
<path fill="none" stroke="midnightblue" d="M89.5,-45.8045C89.5,-36.9102 89.5,-26.7798 89.5,-19.7511"/>
<polygon fill="midnightblue" stroke="midnightblue" points="86.0001,-46.083 89.5,-56.083 93.0001,-46.083 86.0001,-46.083"/>
</g>
<!-- Node2 -->
<g id="node3" class="node"><title>Node2</title>
<g id="a_node3"><a xlink:href="structDGtal_1_1DrawWithDisplay3DModifier.html" target="_top" xlink:title="Base class specifying the methods for classes which intend to modify a Viewer3D stream. ">
<polygon fill="white" stroke="black" points="0,-112.5 0,-131.5 179,-131.5 179,-112.5 0,-112.5"/>
<text text-anchor="middle" x="89.5" y="-119.5" font-family="FreeSans" font-size="10.00">DGtal::DrawWithDisplay3DModifier</text>
</a>
</g>
</g>
<!-- Node2&#45;&gt;Node1 -->
<g id="edge2" class="edge"><title>Node2&#45;&gt;Node1</title>
<path fill="none" stroke="midnightblue" d="M89.5,-101.805C89.5,-92.9102 89.5,-82.7798 89.5,-75.7511"/>
<polygon fill="midnightblue" stroke="midnightblue" points="86.0001,-102.083 89.5,-112.083 93.0001,-102.083 86.0001,-102.083"/>
</g>
</g>
</svg>
