<?xml version="1.0" encoding="UTF-8" standalone="no"?>
<!DOCTYPE svg PUBLIC "-//W3C//DTD SVG 1.1//EN"
 "http://www.w3.org/Graphics/SVG/1.1/DTD/svg11.dtd">
<!-- Generated by graphviz version 2.38.0 (20140413.2041)
 -->
<!-- Title: DGtal::concepts::CPowerSeparableMetric&lt; T &gt; Pages: 1 -->
<svg width="437pt" height="163pt"
 viewBox="0.00 0.00 436.50 163.00" xmlns="http://www.w3.org/2000/svg" xmlns:xlink="http://www.w3.org/1999/xlink">
<g id="graph0" class="graph" transform="scale(1 1) rotate(0) translate(4 159)">
<title>DGtal::concepts::CPowerSeparableMetric&lt; T &gt;</title>
<polygon fill="white" stroke="none" points="-4,4 -4,-159 432.5,-159 432.5,4 -4,4"/>
<!-- Node4 -->
<g id="node1" class="node"><title>Node4</title>
<polygon fill="#bfbfbf" stroke="black" points="245.5,-0.5 245.5,-30.5 428.5,-30.5 428.5,-0.5 245.5,-0.5"/>
<text text-anchor="start" x="253.5" y="-18.5" font-family="FreeSans" font-size="10.00">DGtal::concepts::CPowerSeparable</text>
<text text-anchor="middle" x="337" y="-7.5" font-family="FreeSans" font-size="10.00">Metric&lt; T &gt;</text>
</g>
<!-- Node5 -->
<g id="node2" class="node"><title>Node5</title>
<g id="a_node2"><a xlink:href="structDGtal_1_1concepts_1_1CPowerMetric.html" target="_top" xlink:title="Aim: defines the concept of special weighted metrics, so called power metrics. ">
<polygon fill="white" stroke="black" points="142.5,-68.5 142.5,-87.5 333.5,-87.5 333.5,-68.5 142.5,-68.5"/>
<text text-anchor="middle" x="238" y="-75.5" font-family="FreeSans" font-size="10.00">DGtal::concepts::CPowerMetric&lt; T &gt;</text>
</a>
</g>
</g>
<!-- Node5&#45;&gt;Node4 -->
<g id="edge1" class="edge"><title>Node5&#45;&gt;Node4</title>
<path fill="none" stroke="midnightblue" d="M260.897,-63.0075C276.86,-53.2524 298.074,-40.2884 314.048,-30.526"/>
<polygon fill="midnightblue" stroke="midnightblue" points="258.892,-60.1308 252.184,-68.3318 262.542,-66.1038 258.892,-60.1308"/>
</g>
<!-- Node6 -->
<g id="node3" class="node"><title>Node6</title>
<g id="a_node3"><a xlink:href="structboost_1_1CopyConstructible.html" target="_top" xlink:title="Go to http://www.sgi.com/tech/stl/CopyConstructible.html. ">
<polygon fill="white" stroke="black" points="0,-135.5 0,-154.5 164,-154.5 164,-135.5 0,-135.5"/>
<text text-anchor="middle" x="82" y="-142.5" font-family="FreeSans" font-size="10.00">boost::CopyConstructible&lt; T &gt;</text>
</a>
</g>
</g>
<!-- Node6&#45;&gt;Node5 -->
<g id="edge2" class="edge"><title>Node6&#45;&gt;Node5</title>
<path fill="none" stroke="midnightblue" d="M112.124,-131.448C143.011,-118.579 190.232,-98.9032 217.199,-87.6672"/>
<polygon fill="midnightblue" stroke="midnightblue" points="110.6,-128.292 102.716,-135.369 113.293,-134.753 110.6,-128.292"/>
</g>
<!-- Node7 -->
<g id="node4" class="node"><title>Node7</title>
<g id="a_node4"><a xlink:href="structboost_1_1Assignable.html" target="_top" xlink:title="Go to http://www.sgi.com/tech/stl/Assignable.html. ">
<polygon fill="white" stroke="black" points="182.5,-135.5 182.5,-154.5 311.5,-154.5 311.5,-135.5 182.5,-135.5"/>
<text text-anchor="middle" x="247" y="-142.5" font-family="FreeSans" font-size="10.00">boost::Assignable&lt; T &gt;</text>
</a>
</g>
</g>
<!-- Node7&#45;&gt;Node5 -->
<g id="edge3" class="edge"><title>Node7&#45;&gt;Node5</title>
<path fill="none" stroke="midnightblue" d="M244.374,-125.037C242.662,-112.67 240.509,-97.1198 239.195,-87.6273"/>
<polygon fill="midnightblue" stroke="midnightblue" points="240.948,-125.808 245.786,-135.234 247.882,-124.848 240.948,-125.808"/>
</g>
<!-- Node8 -->
<g id="node5" class="node"><title>Node8</title>
<polygon fill="white" stroke="#bfbfbf" points="338.5,-135.5 338.5,-154.5 367.5,-154.5 367.5,-135.5 338.5,-135.5"/>
<text text-anchor="middle" x="353" y="-142.5" font-family="FreeSans" font-size="10.00">T</text>
</g>
<!-- Node8&#45;&gt;Node4 -->
<g id="edge5" class="edge"><title>Node8&#45;&gt;Node4</title>
<path fill="none" stroke="#9a32cd" stroke-dasharray="5,2" d="M350.646,-125.245C347.411,-99.462 341.662,-53.6483 338.768,-30.5878"/>
<polygon fill="#9a32cd" stroke="#9a32cd" points="347.182,-125.75 351.9,-135.236 354.128,-124.878 347.182,-125.75"/>
<text text-anchor="middle" x="358.5" y="-75.5" font-family="FreeSans" font-size="10.00"> myX</text>
</g>
<!-- Node8&#45;&gt;Node5 -->
<g id="edge4" class="edge"><title>Node8&#45;&gt;Node5</title>
<path fill="none" stroke="#9a32cd" stroke-dasharray="5,2" d="M329.707,-130.834C306.868,-117.925 272.716,-98.6223 253.177,-87.5781"/>
<polygon fill="#9a32cd" stroke="#9a32cd" points="328.007,-133.894 338.435,-135.768 331.452,-127.8 328.007,-133.894"/>
<text text-anchor="middle" x="315.5" y="-109" font-family="FreeSans" font-size="10.00"> myX</text>
</g>
</g>
</svg>
