<?xml version="1.0" encoding="UTF-8" standalone="no"?>
<!DOCTYPE svg PUBLIC "-//W3C//DTD SVG 1.1//EN"
 "http://www.w3.org/Graphics/SVG/1.1/DTD/svg11.dtd">
<!-- Generated by graphviz version 2.38.0 (20140413.2041)
 -->
<!-- Title: DGtal::concepts::CConstBidirectionalRange&lt; T &gt; Pages: 1 -->
<svg width="827pt" height="88pt"
 viewBox="0.00 0.00 827.00 88.00" xmlns="http://www.w3.org/2000/svg" xmlns:xlink="http://www.w3.org/1999/xlink">
<g id="graph0" class="graph" transform="scale(1 1) rotate(0) translate(4 84)">
<title>DGtal::concepts::CConstBidirectionalRange&lt; T &gt;</title>
<polygon fill="white" stroke="none" points="-4,4 -4,-84 823,-84 823,4 -4,4"/>
<!-- Node0 -->
<g id="node1" class="node"><title>Node0</title>
<polygon fill="#bfbfbf" stroke="black" points="199,-24.5 199,-54.5 391,-54.5 391,-24.5 199,-24.5"/>
<text text-anchor="start" x="207" y="-42.5" font-family="FreeSans" font-size="10.00">DGtal::concepts::CConstBidirectional</text>
<text text-anchor="middle" x="295" y="-31.5" font-family="FreeSans" font-size="10.00">Range&lt; T &gt;</text>
</g>
<!-- Node2 -->
<g id="node3" class="node"><title>Node2</title>
<g id="a_node3"><a xlink:href="structDGtal_1_1concepts_1_1CBidirectionalRange.html" target="_top" xlink:title="Aim: Defines the concept describing a bidirectional range. ">
<polygon fill="white" stroke="black" points="441,-49.5 441,-79.5 605,-79.5 605,-49.5 441,-49.5"/>
<text text-anchor="start" x="449" y="-67.5" font-family="FreeSans" font-size="10.00">DGtal::concepts::CBidirectional</text>
<text text-anchor="middle" x="523" y="-56.5" font-family="FreeSans" font-size="10.00">Range&lt; T &gt;</text>
</a>
</g>
</g>
<!-- Node0&#45;&gt;Node2 -->
<g id="edge2" class="edge"><title>Node0&#45;&gt;Node2</title>
<path fill="none" stroke="midnightblue" d="M401.313,-51.1496C414.603,-52.6198 428.036,-54.1058 440.871,-55.5256"/>
<polygon fill="midnightblue" stroke="midnightblue" points="401.514,-47.6506 391.189,-50.0298 400.744,-54.6081 401.514,-47.6506"/>
</g>
<!-- Node4 -->
<g id="node5" class="node"><title>Node4</title>
<g id="a_node5"><a xlink:href="structDGtal_1_1concepts_1_1CConstBidirectionalRangeFromPoint.html" target="_top" xlink:title="Aim: refined concept of const bidirectional range with a begin() method from a point. ">
<polygon fill="white" stroke="black" points="427,-0.5 427,-30.5 619,-30.5 619,-0.5 427,-0.5"/>
<text text-anchor="start" x="435" y="-18.5" font-family="FreeSans" font-size="10.00">DGtal::concepts::CConstBidirectional</text>
<text text-anchor="middle" x="523" y="-7.5" font-family="FreeSans" font-size="10.00">RangeFromPoint&lt; T &gt;</text>
</a>
</g>
</g>
<!-- Node0&#45;&gt;Node4 -->
<g id="edge4" class="edge"><title>Node0&#45;&gt;Node4</title>
<path fill="none" stroke="midnightblue" d="M401.216,-28.3267C409.79,-27.4161 418.425,-26.4991 426.921,-25.5969"/>
<polygon fill="midnightblue" stroke="midnightblue" points="400.764,-24.8549 391.189,-29.3914 401.503,-31.8157 400.764,-24.8549"/>
</g>
<!-- Node1 -->
<g id="node2" class="node"><title>Node1</title>
<g id="a_node2"><a xlink:href="structDGtal_1_1concepts_1_1CConstSinglePassRange.html" target="_top" xlink:title="Aim: Defines the concept describing a const single pass range. ">
<polygon fill="white" stroke="black" points="0,-24.5 0,-54.5 163,-54.5 163,-24.5 0,-24.5"/>
<text text-anchor="start" x="8" y="-42.5" font-family="FreeSans" font-size="10.00">DGtal::concepts::CConstSingle</text>
<text text-anchor="middle" x="81.5" y="-31.5" font-family="FreeSans" font-size="10.00">PassRange&lt; T &gt;</text>
</a>
</g>
</g>
<!-- Node1&#45;&gt;Node0 -->
<g id="edge1" class="edge"><title>Node1&#45;&gt;Node0</title>
<path fill="none" stroke="midnightblue" d="M173.28,-39.5C181.721,-39.5 190.293,-39.5 198.773,-39.5"/>
<polygon fill="midnightblue" stroke="midnightblue" points="173.062,-36.0001 163.062,-39.5 173.062,-43.0001 173.062,-36.0001"/>
</g>
<!-- Node3 -->
<g id="node4" class="node"><title>Node3</title>
<g id="a_node4"><a xlink:href="structDGtal_1_1concepts_1_1CBidirectionalRangeFromPoint.html" target="_top" xlink:title="Aim: refined concept of single pass range with a begin() method from a point. ">
<polygon fill="white" stroke="black" points="655,-24.5 655,-54.5 819,-54.5 819,-24.5 655,-24.5"/>
<text text-anchor="start" x="663" y="-42.5" font-family="FreeSans" font-size="10.00">DGtal::concepts::CBidirectional</text>
<text text-anchor="middle" x="737" y="-31.5" font-family="FreeSans" font-size="10.00">RangeFromPoint&lt; T &gt;</text>
</a>
</g>
</g>
<!-- Node2&#45;&gt;Node3 -->
<g id="edge3" class="edge"><title>Node2&#45;&gt;Node3</title>
<path fill="none" stroke="midnightblue" d="M615.118,-53.755C628.375,-52.1916 641.95,-50.5908 654.989,-49.0531"/>
<polygon fill="midnightblue" stroke="midnightblue" points="614.577,-50.2944 605.056,-54.9416 615.397,-57.2463 614.577,-50.2944"/>
</g>
<!-- Node4&#45;&gt;Node3 -->
<g id="edge5" class="edge"><title>Node4&#45;&gt;Node3</title>
<path fill="none" stroke="midnightblue" d="M629.209,-27.4104C637.793,-28.3822 646.384,-29.3548 654.758,-30.3027"/>
<polygon fill="midnightblue" stroke="midnightblue" points="629.478,-23.9186 619.148,-26.2714 628.691,-30.8742 629.478,-23.9186"/>
</g>
</g>
</svg>
