<?xml version="1.0" encoding="UTF-8" standalone="no"?>
<!DOCTYPE svg PUBLIC "-//W3C//DTD SVG 1.1//EN"
 "http://www.w3.org/Graphics/SVG/1.1/DTD/svg11.dtd">
<!-- Generated by graphviz version 2.38.0 (20140413.2041)
 -->
<!-- Title: DGtal::concepts::CCellEmbedder&lt; T &gt; Pages: 1 -->
<svg width="290pt" height="298pt"
 viewBox="0.00 0.00 290.00 298.00" xmlns="http://www.w3.org/2000/svg" xmlns:xlink="http://www.w3.org/1999/xlink">
<g id="graph0" class="graph" transform="scale(1 1) rotate(0) translate(4 294)">
<title>DGtal::concepts::CCellEmbedder&lt; T &gt;</title>
<polygon fill="white" stroke="none" points="-4,4 -4,-294 286,-294 286,4 -4,4"/>
<!-- Node0 -->
<g id="node1" class="node"><title>Node0</title>
<polygon fill="#bfbfbf" stroke="black" points="0,-0.5 0,-19.5 200,-19.5 200,-0.5 0,-0.5"/>
<text text-anchor="middle" x="100" y="-7.5" font-family="FreeSans" font-size="10.00">DGtal::concepts::CCellEmbedder&lt; T &gt;</text>
</g>
<!-- Node1 -->
<g id="node2" class="node"><title>Node1</title>
<g id="a_node2"><a xlink:href="structDGtal_1_1concepts_1_1CUnaryFunctor.html" target="_top" xlink:title="DGtal::concepts::CUnaryFunctor\l\&lt; T, T::Cell, T::RealPoint \&gt;">
<polygon fill="white" stroke="black" points="15,-57.5 15,-87.5 185,-87.5 185,-57.5 15,-57.5"/>
<text text-anchor="start" x="23" y="-75.5" font-family="FreeSans" font-size="10.00">DGtal::concepts::CUnaryFunctor</text>
<text text-anchor="middle" x="100" y="-64.5" font-family="FreeSans" font-size="10.00">&lt; T, T::Cell, T::RealPoint &gt;</text>
</a>
</g>
</g>
<!-- Node1&#45;&gt;Node0 -->
<g id="edge1" class="edge"><title>Node1&#45;&gt;Node0</title>
<path fill="none" stroke="midnightblue" d="M100,-47.3524C100,-37.5132 100,-26.7753 100,-19.5399"/>
<polygon fill="midnightblue" stroke="midnightblue" points="96.5001,-47.468 100,-57.468 103.5,-47.4681 96.5001,-47.468"/>
</g>
<!-- Node2 -->
<g id="node3" class="node"><title>Node2</title>
<g id="a_node3"><a xlink:href="structboost_1_1Assignable.html" target="_top" xlink:title="Go to http://www.sgi.com/tech/stl/Assignable.html. ">
<polygon fill="white" stroke="black" points="51.5,-270.5 51.5,-289.5 180.5,-289.5 180.5,-270.5 51.5,-270.5"/>
<text text-anchor="middle" x="116" y="-277.5" font-family="FreeSans" font-size="10.00">boost::Assignable&lt; T &gt;</text>
</a>
</g>
</g>
<!-- Node2&#45;&gt;Node1 -->
<g id="edge2" class="edge"><title>Node2&#45;&gt;Node1</title>
<path fill="none" stroke="midnightblue" d="M113.066,-260.278C111.428,-249.413 109.435,-235.455 108,-223 105.09,-197.736 104.524,-191.385 103,-166 101.334,-138.253 100.55,-105.765 100.216,-87.6151"/>
<polygon fill="midnightblue" stroke="midnightblue" points="109.626,-260.937 114.606,-270.289 116.545,-259.873 109.626,-260.937"/>
</g>
<!-- Node4 -->
<g id="node5" class="node"><title>Node4</title>
<g id="a_node5"><a xlink:href="structboost_1_1Assignable.html" target="_top" xlink:title="boost::Assignable\&lt; X \&gt;">
<polygon fill="white" stroke="black" points="117,-203.5 117,-222.5 247,-222.5 247,-203.5 117,-203.5"/>
<text text-anchor="middle" x="182" y="-210.5" font-family="FreeSans" font-size="10.00">boost::Assignable&lt; X &gt;</text>
</a>
</g>
</g>
<!-- Node2&#45;&gt;Node4 -->
<g id="edge5" class="edge"><title>Node2&#45;&gt;Node4</title>
<path fill="none" stroke="orange" stroke-dasharray="5,2" d="M132.249,-262.997C145.193,-250.25 162.815,-232.895 173.24,-222.627"/>
<polygon fill="orange" stroke="orange" points="129.57,-260.723 124.901,-270.234 134.482,-265.711 129.57,-260.723"/>
<text text-anchor="middle" x="168" y="-244" font-family="FreeSans" font-size="10.00"> &lt; X &gt;</text>
</g>
<!-- Node3 -->
<g id="node4" class="node"><title>Node3</title>
<g id="a_node4"><a xlink:href="structDGtal_1_1concepts_1_1CUnaryFunctor.html" target="_top" xlink:title="Aim: Defines a unary functor, which associates arguments to results. ">
<polygon fill="white" stroke="black" points="112,-135.5 112,-165.5 282,-165.5 282,-135.5 112,-135.5"/>
<text text-anchor="start" x="120" y="-153.5" font-family="FreeSans" font-size="10.00">DGtal::concepts::CUnaryFunctor</text>
<text text-anchor="middle" x="197" y="-142.5" font-family="FreeSans" font-size="10.00">&lt; X, A, R &gt;</text>
</a>
</g>
</g>
<!-- Node3&#45;&gt;Node1 -->
<g id="edge3" class="edge"><title>Node3&#45;&gt;Node1</title>
<path fill="none" stroke="orange" stroke-dasharray="5,2" d="M170.521,-128.753C153.903,-115.734 132.908,-99.2835 118.163,-87.7309"/>
<polygon fill="orange" stroke="orange" points="168.725,-131.793 178.755,-135.205 173.042,-126.282 168.725,-131.793"/>
<text text-anchor="middle" x="216.5" y="-109" font-family="FreeSans" font-size="10.00"> &lt; T, T::Cell, T::RealPoint &gt;</text>
</g>
<!-- Node4&#45;&gt;Node3 -->
<g id="edge4" class="edge"><title>Node4&#45;&gt;Node3</title>
<path fill="none" stroke="midnightblue" d="M186.584,-193.51C188.796,-184.588 191.409,-174.049 193.465,-165.759"/>
<polygon fill="midnightblue" stroke="midnightblue" points="183.159,-192.783 184.149,-203.332 189.953,-194.468 183.159,-192.783"/>
</g>
</g>
</svg>
