<?xml version="1.0" encoding="UTF-8" standalone="no"?>
<!DOCTYPE svg PUBLIC "-//W3C//DTD SVG 1.1//EN"
 "http://www.w3.org/Graphics/SVG/1.1/DTD/svg11.dtd">
<!-- Generated by graphviz version 2.38.0 (20140413.2041)
 -->
<!-- Title: DGtal::functors::VCMFirstPrincipalAbsoluteCurvatureFunctor&lt; TVCMOnDigitalSurface &gt; Pages: 1 -->
<svg width="227pt" height="206pt"
 viewBox="0.00 0.00 227.00 206.00" xmlns="http://www.w3.org/2000/svg" xmlns:xlink="http://www.w3.org/1999/xlink">
<g id="graph0" class="graph" transform="scale(1 1) rotate(0) translate(4 202)">
<title>DGtal::functors::VCMFirstPrincipalAbsoluteCurvatureFunctor&lt; TVCMOnDigitalSurface &gt;</title>
<polygon fill="white" stroke="none" points="-4,4 -4,-202 223,-202 223,4 -4,4"/>
<!-- Node1 -->
<g id="node1" class="node"><title>Node1</title>
<polygon fill="#bfbfbf" stroke="black" points="0.5,-0.5 0.5,-41.5 181.5,-41.5 181.5,-0.5 0.5,-0.5"/>
<text text-anchor="start" x="8.5" y="-29.5" font-family="FreeSans" font-size="10.00">DGtal::functors::VCMFirst</text>
<text text-anchor="start" x="8.5" y="-18.5" font-family="FreeSans" font-size="10.00">PrincipalAbsoluteCurvatureFunctor</text>
<text text-anchor="middle" x="91" y="-7.5" font-family="FreeSans" font-size="10.00">&lt; TVCMOnDigitalSurface &gt;</text>
</g>
<!-- Node2 -->
<g id="node2" class="node"><title>Node2</title>
<g id="a_node2"><a xlink:href="classDGtal_1_1CountedConstPtrOrConstPtr.html" target="_top" xlink:title="DGtal::CountedConstPtrOr\lConstPtr\&lt; VCMOnDigitalSurface \&gt;">
<polygon fill="white" stroke="black" points="0,-89.5 0,-119.5 182,-119.5 182,-89.5 0,-89.5"/>
<text text-anchor="start" x="8" y="-107.5" font-family="FreeSans" font-size="10.00">DGtal::CountedConstPtrOr</text>
<text text-anchor="middle" x="91" y="-96.5" font-family="FreeSans" font-size="10.00">ConstPtr&lt; VCMOnDigitalSurface &gt;</text>
</a>
</g>
</g>
<!-- Node2&#45;&gt;Node1 -->
<g id="edge1" class="edge"><title>Node2&#45;&gt;Node1</title>
<path fill="none" stroke="#9a32cd" stroke-dasharray="5,2" d="M91,-79.0662C91,-67.0614 91,-52.7937 91,-41.5278"/>
<polygon fill="#9a32cd" stroke="#9a32cd" points="87.5001,-79.3037 91,-89.3038 94.5001,-79.3038 87.5001,-79.3037"/>
<text text-anchor="middle" x="151.5" y="-63" font-family="FreeSans" font-size="10.00"> myVCMOnDigitalSurface</text>
</g>
<!-- Node3 -->
<g id="node3" class="node"><title>Node3</title>
<g id="a_node3"><a xlink:href="classDGtal_1_1CountedConstPtrOrConstPtr.html" target="_top" xlink:title="Aim: Smart or simple const pointer on T. It can be a smart pointer based on reference counts or a sim...">
<polygon fill="white" stroke="black" points="19.5,-167.5 19.5,-197.5 162.5,-197.5 162.5,-167.5 19.5,-167.5"/>
<text text-anchor="start" x="27.5" y="-185.5" font-family="FreeSans" font-size="10.00">DGtal::CountedConstPtrOr</text>
<text text-anchor="middle" x="91" y="-174.5" font-family="FreeSans" font-size="10.00">ConstPtr&lt; T &gt;</text>
</a>
</g>
</g>
<!-- Node3&#45;&gt;Node2 -->
<g id="edge2" class="edge"><title>Node3&#45;&gt;Node2</title>
<path fill="none" stroke="orange" stroke-dasharray="5,2" d="M91,-157.09C91,-144.757 91,-130.224 91,-119.731"/>
<polygon fill="orange" stroke="orange" points="87.5001,-157.205 91,-167.205 94.5001,-157.205 87.5001,-157.205"/>
<text text-anchor="middle" x="155" y="-141" font-family="FreeSans" font-size="10.00"> &lt; VCMOnDigitalSurface &gt;</text>
</g>
</g>
</svg>
