<?xml version="1.0" encoding="UTF-8" standalone="no"?>
<!DOCTYPE svg PUBLIC "-//W3C//DTD SVG 1.1//EN"
 "http://www.w3.org/Graphics/SVG/1.1/DTD/svg11.dtd">
<!-- Generated by graphviz version 2.38.0 (20140413.2041)
 -->
<!-- Title: boost::CopyConstructible&lt; T &gt; Pages: 1 -->
<!--zoomable 849 -->
<svg id="main" version="1.1" xmlns="http://www.w3.org/2000/svg" xmlns:xlink="http://www.w3.org/1999/xlink" xml:space="preserve" onload="init(evt)">
<style type="text/css"><![CDATA[
.edge:hover path { stroke: red; }
.edge:hover polygon { stroke: red; fill: red; }
]]></style>
<script type="text/javascript"><![CDATA[
var edges = document.getElementsByTagName('g');
if (edges && edges.length) {
  for (var i=0;i<edges.length;i++) {
    if (edges[i].id.substr(0,4)=='edge') {
      edges[i].setAttribute('class','edge');
    }
  }
}
]]></script>
        <defs>
                <circle id="rim" cx="0" cy="0" r="7"/>
                <circle id="rim2" cx="0" cy="0" r="3.5"/>
                <g id="zoomPlus">
                        <use xlink:href="#rim" fill="#404040">
                                <set attributeName="fill" to="#808080" begin="zoomplus.mouseover" end="zoomplus.mouseout"/>
                        </use>
                        <path d="M-4,0h8M0,-4v8" fill="none" stroke="white" stroke-width="1.5" pointer-events="none"/>
                </g>
                <g id="zoomMin">
                        <use xlink:href="#rim" fill="#404040">
                                <set attributeName="fill" to="#808080" begin="zoomminus.mouseover" end="zoomminus.mouseout"/>
                        </use>
                        <path d="M-4,0h8" fill="none" stroke="white" stroke-width="1.5" pointer-events="none"/>
                </g>
                <g id="dirArrow">
                        <path fill="none" stroke="white" stroke-width="1.5" d="M0,-3.0v7 M-2.5,-0.5L0,-3.0L2.5,-0.5"/>
                </g>
               <g id="resetDef">
                       <use xlink:href="#rim2" fill="#404040">
                               <set attributeName="fill" to="#808080" begin="reset.mouseover" end="reset.mouseout"/>
                       </use>
               </g>
        </defs>

<script type="text/javascript">
var viewWidth = 1439;
var viewHeight = 849;
var sectionId = 'dynsection-0';
</script>
<script xlink:href="svgpan.js"/>
<svg id="graph" class="graph">
<g id="viewport">
<title>boost::CopyConstructible&lt; T &gt;</title>
<polygon fill="white" stroke="none" points="-4,4 -4,-844.5 1435,-844.5 1435,4 -4,4"/>
<!-- Node0 -->
<g id="node1" class="node"><title>Node0</title>
<polygon fill="#bfbfbf" stroke="black" points="0,-417 0,-436 164,-436 164,-417 0,-417"/>
<text text-anchor="middle" x="82" y="-424" font-family="FreeSans" font-size="10.00">boost::CopyConstructible&lt; T &gt;</text>
</g>
<!-- Node1 -->
<g id="node2" class="node"><title>Node1</title>
<g id="a_node2"><a xlink:href="structDGtal_1_1C2x2DetComputer.html" target="_top" xlink:title="Aim: This concept gathers all models that are able to compute the (sign of the) determinant of a 2x2 ...">
<polygon fill="white" stroke="black" points="218,-821 218,-840 385,-840 385,-821 218,-821"/>
<text text-anchor="middle" x="301.5" y="-828" font-family="FreeSans" font-size="10.00">DGtal::C2x2DetComputer&lt; T &gt;</text>
</a>
</g>
</g>
<!-- Node0&#45;&gt;Node1 -->
<g id="edge1" class="edge"><title>Node0&#45;&gt;Node1</title>
<path fill="none" stroke="midnightblue" d="M82.4264,-446.395C81.7505,-510.272 88.8854,-711.799 200,-811.5 205.287,-816.244 211.375,-819.969 217.885,-822.878"/>
<polygon fill="midnightblue" stroke="midnightblue" points="85.9308,-446.189 82.6202,-436.125 78.932,-446.057 85.9308,-446.189"/>
</g>
<!-- Node2 -->
<g id="node3" class="node"><title>Node2</title>
<g id="a_node3"><a xlink:href="structDGtal_1_1concepts_1_1CBinner.html" target="_top" xlink:title="Aim: Represents an object that places a quantity into a bin, i.e. a functor that associates a natural...">
<polygon fill="white" stroke="black" points="219.5,-783 219.5,-802 383.5,-802 383.5,-783 219.5,-783"/>
<text text-anchor="middle" x="301.5" y="-790" font-family="FreeSans" font-size="10.00">DGtal::concepts::CBinner&lt; T &gt;</text>
</a>
</g>
</g>
<!-- Node0&#45;&gt;Node2 -->
<g id="edge2" class="edge"><title>Node0&#45;&gt;Node2</title>
<path fill="none" stroke="midnightblue" d="M83.1852,-446.387C84.8921,-506.12 98.6214,-685.26 200,-773.5 205.625,-778.396 212.11,-782.198 219.021,-785.131"/>
<polygon fill="midnightblue" stroke="midnightblue" points="86.6788,-446.024 82.9817,-436.095 79.6801,-446.162 86.6788,-446.024"/>
</g>
<!-- Node3 -->
<g id="node4" class="node"><title>Node3</title>
<g id="a_node4"><a xlink:href="structDGtal_1_1concepts_1_1CDigitalSet.html" target="_top" xlink:title="Aim: Represents a set of points within the given domain. This set of points is modifiable by the user...">
<polygon fill="white" stroke="black" points="233.5,-733.5 233.5,-763.5 369.5,-763.5 369.5,-733.5 233.5,-733.5"/>
<text text-anchor="start" x="241.5" y="-751.5" font-family="FreeSans" font-size="10.00">DGtal::concepts::CDigital</text>
<text text-anchor="middle" x="301.5" y="-740.5" font-family="FreeSans" font-size="10.00">Set&lt; T &gt;</text>
</a>
</g>
</g>
<!-- Node0&#45;&gt;Node3 -->
<g id="edge3" class="edge"><title>Node0&#45;&gt;Node3</title>
<path fill="none" stroke="midnightblue" d="M84.6141,-446.19C90.095,-499.683 112.849,-648.747 200,-724.5 209.477,-732.738 221.286,-738.265 233.442,-741.948"/>
<polygon fill="midnightblue" stroke="midnightblue" points="88.0798,-445.658 83.668,-436.025 81.1099,-446.307 88.0798,-445.658"/>
</g>
<!-- Node4 -->
<g id="node5" class="node"><title>Node4</title>
<g id="a_node5"><a xlink:href="structDGtal_1_1concepts_1_1CDigitalSurfaceContainer.html" target="_top" xlink:title="Aim: The digital surface container concept describes a minimal set of inner types and methods so as t...">
<polygon fill="white" stroke="black" points="233.5,-684.5 233.5,-714.5 369.5,-714.5 369.5,-684.5 233.5,-684.5"/>
<text text-anchor="start" x="241.5" y="-702.5" font-family="FreeSans" font-size="10.00">DGtal::concepts::CDigital</text>
<text text-anchor="middle" x="301.5" y="-691.5" font-family="FreeSans" font-size="10.00">SurfaceContainer&lt; T &gt;</text>
</a>
</g>
</g>
<!-- Node0&#45;&gt;Node4 -->
<g id="edge4" class="edge"><title>Node0&#45;&gt;Node4</title>
<path fill="none" stroke="midnightblue" d="M86.2692,-446.084C95.2274,-493.343 124.711,-614.245 200,-675.5 209.601,-683.312 221.328,-688.656 233.337,-692.295"/>
<polygon fill="midnightblue" stroke="midnightblue" points="89.7081,-445.432 84.4974,-436.207 82.8181,-446.668 89.7081,-445.432"/>
</g>
<!-- Node5 -->
<g id="node6" class="node"><title>Node5</title>
<g id="a_node6"><a xlink:href="structDGtal_1_1concepts_1_1CDigitalSurfaceTracker.html" target="_top" xlink:title="Aim: ">
<polygon fill="white" stroke="black" points="233.5,-635.5 233.5,-665.5 369.5,-665.5 369.5,-635.5 233.5,-635.5"/>
<text text-anchor="start" x="241.5" y="-653.5" font-family="FreeSans" font-size="10.00">DGtal::concepts::CDigital</text>
<text text-anchor="middle" x="301.5" y="-642.5" font-family="FreeSans" font-size="10.00">SurfaceTracker&lt; T &gt;</text>
</a>
</g>
</g>
<!-- Node0&#45;&gt;Node5 -->
<g id="edge5" class="edge"><title>Node0&#45;&gt;Node5</title>
<path fill="none" stroke="midnightblue" d="M88.7108,-445.844C101.579,-485.931 136.764,-578.265 200,-625.5 209.795,-632.817 221.478,-638.01 233.354,-641.692"/>
<polygon fill="midnightblue" stroke="midnightblue" points="92.0295,-444.729 85.7297,-436.21 85.3424,-446.798 92.0295,-444.729"/>
</g>
<!-- Node6 -->
<g id="node7" class="node"><title>Node6</title>
<g id="a_node7"><a xlink:href="structDGtal_1_1concepts_1_1CGraphVisitor.html" target="_top" xlink:title="Aim: Defines the concept of a visitor onto a graph, that is an object that traverses vertices of the ...">
<polygon fill="white" stroke="black" points="205,-597 205,-616 398,-616 398,-597 205,-597"/>
<text text-anchor="middle" x="301.5" y="-604" font-family="FreeSans" font-size="10.00">DGtal::concepts::CGraphVisitor&lt; T &gt;</text>
</a>
</g>
</g>
<!-- Node0&#45;&gt;Node6 -->
<g id="edge6" class="edge"><title>Node0&#45;&gt;Node6</title>
<path fill="none" stroke="midnightblue" d="M90.9619,-445.42C106.473,-479.78 144.183,-552.146 200,-587.5 206.075,-591.348 212.744,-594.454 219.666,-596.957"/>
<polygon fill="midnightblue" stroke="midnightblue" points="94.0811,-443.817 86.8653,-436.059 87.6683,-446.623 94.0811,-443.817"/>
</g>
<!-- Node7 -->
<g id="node8" class="node"><title>Node7</title>
<g id="a_node8"><a xlink:href="structDGtal_1_1concepts_1_1CLMSTDSSFilter.html" target="_top" xlink:title="Aim: Defines the concept describing a functor which filters DSSes for L&#45;MST calculations. ">
<polygon fill="white" stroke="black" points="200,-559 200,-578 403,-578 403,-559 200,-559"/>
<text text-anchor="middle" x="301.5" y="-566" font-family="FreeSans" font-size="10.00">DGtal::concepts::CLMSTDSSFilter&lt; T &gt;</text>
</a>
</g>
</g>
<!-- Node0&#45;&gt;Node7 -->
<g id="edge7" class="edge"><title>Node0&#45;&gt;Node7</title>
<path fill="none" stroke="midnightblue" d="M94.7187,-444.742C113.421,-472.229 152.767,-523.781 200,-549.5 207.096,-553.364 214.844,-556.454 222.788,-558.924"/>
<polygon fill="midnightblue" stroke="midnightblue" points="97.4318,-442.5 88.9852,-436.104 91.5997,-446.371 97.4318,-442.5"/>
</g>
<!-- Node8 -->
<g id="node9" class="node"><title>Node8</title>
<g id="a_node9"><a xlink:href="structDGtal_1_1concepts_1_1CLMSTTangentFromDSS.html" target="_top" xlink:title="Aim: Defines the concept describing a functor which calculates a direction of the 2D DSS and an eccen...">
<polygon fill="white" stroke="black" points="217,-509.5 217,-539.5 386,-539.5 386,-509.5 217,-509.5"/>
<text text-anchor="start" x="225" y="-527.5" font-family="FreeSans" font-size="10.00">DGtal::concepts::CLMSTTangent</text>
<text text-anchor="middle" x="301.5" y="-516.5" font-family="FreeSans" font-size="10.00">FromDSS&lt; T &gt;</text>
</a>
</g>
</g>
<!-- Node0&#45;&gt;Node8 -->
<g id="edge8" class="edge"><title>Node0&#45;&gt;Node8</title>
<path fill="none" stroke="midnightblue" d="M103.316,-442.304C125.786,-459.055 163.638,-485.161 200,-500.5 208.016,-503.881 216.602,-506.843 225.254,-509.423"/>
<polygon fill="midnightblue" stroke="midnightblue" points="105.306,-439.421 95.2207,-436.175 101.081,-445.002 105.306,-439.421"/>
</g>
<!-- Node9 -->
<g id="node10" class="node"><title>Node9</title>
<g id="a_node10"><a xlink:href="structDGtal_1_1concepts_1_1CMetricSpace.html" target="_top" xlink:title="Aim: defines the concept of metric spaces. ">
<polygon fill="white" stroke="black" points="234,-460.5 234,-490.5 369,-490.5 369,-460.5 234,-460.5"/>
<text text-anchor="start" x="242" y="-478.5" font-family="FreeSans" font-size="10.00">DGtal::concepts::CMetric</text>
<text text-anchor="middle" x="301.5" y="-467.5" font-family="FreeSans" font-size="10.00">Space&lt; T &gt;</text>
</a>
</g>
</g>
<!-- Node0&#45;&gt;Node9 -->
<g id="edge9" class="edge"><title>Node0&#45;&gt;Node9</title>
<path fill="none" stroke="midnightblue" d="M135.29,-438.28C164.8,-444.929 201.986,-453.306 233.602,-460.429"/>
<polygon fill="midnightblue" stroke="midnightblue" points="135.719,-434.789 125.194,-436.006 134.18,-441.618 135.719,-434.789"/>
</g>
<!-- Node12 -->
<g id="node13" class="node"><title>Node12</title>
<g id="a_node13"><a xlink:href="structDGtal_1_1concepts_1_1CPolarPointComparator2D.html" target="_top" xlink:title="Aim: This concept gathers classes that are able to compare the position of two given points &#160;around a...">
<polygon fill="white" stroke="black" points="224.5,-411.5 224.5,-441.5 378.5,-441.5 378.5,-411.5 224.5,-411.5"/>
<text text-anchor="start" x="232.5" y="-429.5" font-family="FreeSans" font-size="10.00">DGtal::concepts::CPolarPoint</text>
<text text-anchor="middle" x="301.5" y="-418.5" font-family="FreeSans" font-size="10.00">Comparator2D&lt; T &gt;</text>
</a>
</g>
</g>
<!-- Node0&#45;&gt;Node12 -->
<g id="edge12" class="edge"><title>Node0&#45;&gt;Node12</title>
<path fill="none" stroke="midnightblue" d="M174.539,-426.5C191.122,-426.5 208.253,-426.5 224.337,-426.5"/>
<polygon fill="midnightblue" stroke="midnightblue" points="174.298,-423 164.298,-426.5 174.298,-430 174.298,-423"/>
</g>
<!-- Node13 -->
<g id="node14" class="node"><title>Node13</title>
<g id="a_node14"><a xlink:href="structDGtal_1_1concepts_1_1CPositiveIrreducibleFraction.html" target="_top" xlink:title="Aim: Defines positive irreducible fractions, i.e. fraction p/q, p and q non&#45;negative integers...">
<polygon fill="white" stroke="black" points="230,-362.5 230,-392.5 373,-392.5 373,-362.5 230,-362.5"/>
<text text-anchor="start" x="238" y="-380.5" font-family="FreeSans" font-size="10.00">DGtal::concepts::CPositive</text>
<text text-anchor="middle" x="301.5" y="-369.5" font-family="FreeSans" font-size="10.00">IrreducibleFraction&lt; T &gt;</text>
</a>
</g>
</g>
<!-- Node0&#45;&gt;Node13 -->
<g id="edge13" class="edge"><title>Node0&#45;&gt;Node13</title>
<path fill="none" stroke="midnightblue" d="M135.29,-414.72C164.8,-408.071 201.986,-399.694 233.602,-392.571"/>
<polygon fill="midnightblue" stroke="midnightblue" points="134.18,-411.382 125.194,-416.994 135.719,-418.211 134.18,-411.382"/>
</g>
<!-- Node14 -->
<g id="node15" class="node"><title>Node14</title>
<g id="a_node15"><a xlink:href="structDGtal_1_1concepts_1_1CPowerMetric.html" target="_top" xlink:title="Aim: defines the concept of special weighted metrics, so called power metrics. ">
<polygon fill="white" stroke="black" points="206,-324 206,-343 397,-343 397,-324 206,-324"/>
<text text-anchor="middle" x="301.5" y="-331" font-family="FreeSans" font-size="10.00">DGtal::concepts::CPowerMetric&lt; T &gt;</text>
</a>
</g>
</g>
<!-- Node0&#45;&gt;Node14 -->
<g id="edge14" class="edge"><title>Node0&#45;&gt;Node14</title>
<path fill="none" stroke="midnightblue" d="M103.244,-410.657C125.651,-393.916 163.449,-367.977 200,-353.5 210.916,-349.176 222.884,-345.752 234.635,-343.052"/>
<polygon fill="midnightblue" stroke="midnightblue" points="101.018,-407.952 95.1728,-416.789 105.253,-413.526 101.018,-407.952"/>
</g>
<!-- Node16 -->
<g id="node17" class="node"><title>Node16</title>
<g id="a_node17"><a xlink:href="structDGtal_1_1concepts_1_1CPreCellularGridSpaceND.html" target="_top" xlink:title="Aim: This concept describes an unbounded cellular grid space in nD. In these spaces obtained by carte...">
<polygon fill="white" stroke="black" points="223,-274.5 223,-304.5 380,-304.5 380,-274.5 223,-274.5"/>
<text text-anchor="start" x="231" y="-292.5" font-family="FreeSans" font-size="10.00">DGtal::concepts::CPreCellular</text>
<text text-anchor="middle" x="301.5" y="-281.5" font-family="FreeSans" font-size="10.00">GridSpaceND&lt; T &gt;</text>
</a>
</g>
</g>
<!-- Node0&#45;&gt;Node16 -->
<g id="edge16" class="edge"><title>Node0&#45;&gt;Node16</title>
<path fill="none" stroke="midnightblue" d="M96.4178,-408.798C116.273,-383.88 155.914,-338.796 200,-314.5 207.165,-310.551 214.957,-307.217 222.928,-304.403"/>
<polygon fill="midnightblue" stroke="midnightblue" points="93.4182,-406.953 90.0264,-416.99 98.9372,-411.258 93.4182,-406.953"/>
</g>
<!-- Node18 -->
<g id="node19" class="node"><title>Node18</title>
<g id="a_node19"><a xlink:href="structDGtal_1_1concepts_1_1CPrimitiveComputer.html" target="_top" xlink:title="Aim: Defines the concept describing an object that computes some primitive from input points...">
<polygon fill="white" stroke="black" points="228,-225.5 228,-255.5 375,-255.5 375,-225.5 228,-225.5"/>
<text text-anchor="start" x="236" y="-243.5" font-family="FreeSans" font-size="10.00">DGtal::concepts::CPrimitive</text>
<text text-anchor="middle" x="301.5" y="-232.5" font-family="FreeSans" font-size="10.00">Computer&lt; T &gt;</text>
</a>
</g>
</g>
<!-- Node0&#45;&gt;Node18 -->
<g id="edge18" class="edge"><title>Node0&#45;&gt;Node18</title>
<path fill="none" stroke="midnightblue" d="M91.319,-407.23C107.182,-372.878 145.132,-301.226 200,-264.5 208.423,-258.862 218.023,-254.544 227.87,-251.237"/>
<polygon fill="midnightblue" stroke="midnightblue" points="88.0093,-406.057 87.1109,-416.613 94.3964,-408.921 88.0093,-406.057"/>
</g>
<!-- Node21 -->
<g id="node22" class="node"><title>Node21</title>
<g id="a_node22"><a xlink:href="structDGtal_1_1concepts_1_1CSegment.html" target="_top" xlink:title="Aim: Defines the concept describing a segment, ie. a valid and not empty range. ">
<polygon fill="white" stroke="black" points="212.5,-187 212.5,-206 390.5,-206 390.5,-187 212.5,-187"/>
<text text-anchor="middle" x="301.5" y="-194" font-family="FreeSans" font-size="10.00">DGtal::concepts::CSegment&lt; T &gt;</text>
</a>
</g>
</g>
<!-- Node0&#45;&gt;Node21 -->
<g id="edge21" class="edge"><title>Node0&#45;&gt;Node21</title>
<path fill="none" stroke="midnightblue" d="M87.8208,-406.847C99.3131,-364.439 132.536,-264.243 200,-215.5 205.254,-211.704 211.052,-208.605 217.133,-206.08"/>
<polygon fill="midnightblue" stroke="midnightblue" points="84.4306,-405.978 85.3054,-416.537 91.206,-407.737 84.4306,-405.978"/>
</g>
<!-- Node28 -->
<g id="node29" class="node"><title>Node28</title>
<g id="a_node29"><a xlink:href="structDGtal_1_1concepts_1_1CSegmentComputerEstimator.html" target="_top" xlink:title="Aim: This concept is a refinement of CCurveLocalGeometricEstimator devoted to the estimation of a geo...">
<polygon fill="white" stroke="black" points="226.5,-137.5 226.5,-167.5 376.5,-167.5 376.5,-137.5 226.5,-137.5"/>
<text text-anchor="start" x="234.5" y="-155.5" font-family="FreeSans" font-size="10.00">DGtal::concepts::CSegment</text>
<text text-anchor="middle" x="301.5" y="-144.5" font-family="FreeSans" font-size="10.00">ComputerEstimator&lt; T &gt;</text>
</a>
</g>
</g>
<!-- Node0&#45;&gt;Node28 -->
<g id="edge29" class="edge"><title>Node0&#45;&gt;Node28</title>
<path fill="none" stroke="midnightblue" d="M86.306,-406.961C95.3464,-359.802 124.999,-239.108 200,-177.5 207.711,-171.166 216.802,-166.404 226.312,-162.829"/>
<polygon fill="midnightblue" stroke="midnightblue" points="82.8594,-406.352 84.5164,-416.816 89.7468,-407.603 82.8594,-406.352"/>
</g>
<!-- Node29 -->
<g id="node30" class="node"><title>Node29</title>
<g id="a_node30"><a xlink:href="structDGtal_1_1concepts_1_1CStack.html" target="_top" xlink:title="Aim: This concept gathers classes that provide a stack interface. ">
<polygon fill="white" stroke="black" points="221,-99 221,-118 382,-118 382,-99 221,-99"/>
<text text-anchor="middle" x="301.5" y="-106" font-family="FreeSans" font-size="10.00">DGtal::concepts::CStack&lt; T &gt;</text>
</a>
</g>
</g>
<!-- Node0&#45;&gt;Node29 -->
<g id="edge30" class="edge"><title>Node0&#45;&gt;Node29</title>
<path fill="none" stroke="midnightblue" d="M84.3708,-406.862C89.2538,-352.919 110.668,-201.579 200,-127.5 206.151,-122.399 213.245,-118.505 220.76,-115.55"/>
<polygon fill="midnightblue" stroke="midnightblue" points="80.8822,-406.581 83.5613,-416.831 87.8592,-407.147 80.8822,-406.581"/>
</g>
<!-- Node30 -->
<g id="node31" class="node"><title>Node30</title>
<g id="a_node31"><a xlink:href="structDGtal_1_1concepts_1_1CSurfelLocalEstimator.html" target="_top" xlink:title="Aim: This concept describes an object that can process a range of surfels (that are supposed to belon...">
<polygon fill="white" stroke="black" points="234.5,-49.5 234.5,-79.5 368.5,-79.5 368.5,-49.5 234.5,-49.5"/>
<text text-anchor="start" x="242.5" y="-67.5" font-family="FreeSans" font-size="10.00">DGtal::concepts::CSurfel</text>
<text text-anchor="middle" x="301.5" y="-56.5" font-family="FreeSans" font-size="10.00">LocalEstimator&lt; T &gt;</text>
</a>
</g>
</g>
<!-- Node0&#45;&gt;Node30 -->
<g id="edge31" class="edge"><title>Node0&#45;&gt;Node30</title>
<path fill="none" stroke="midnightblue" d="M83.6537,-406.654C86.6838,-348.557 103.761,-177.414 200,-89.5 209.624,-80.7084 221.858,-74.8913 234.451,-71.069"/>
<polygon fill="midnightblue" stroke="midnightblue" points="80.1543,-406.565 83.2156,-416.708 87.1477,-406.87 80.1543,-406.565"/>
</g>
<!-- Node32 -->
<g id="node33" class="node"><title>Node32</title>
<g id="a_node33"><a xlink:href="structDGtal_1_1deprecated_1_1concepts_1_1CConvolutionWeights.html" target="_top" xlink:title="Aim: defines models of centered convolution kernel used for normal vector integration for instance...">
<polygon fill="white" stroke="black" points="204.5,-0.5 204.5,-30.5 398.5,-30.5 398.5,-0.5 204.5,-0.5"/>
<text text-anchor="start" x="212.5" y="-18.5" font-family="FreeSans" font-size="10.00">DGtal::deprecated::</text>
<text text-anchor="middle" x="301.5" y="-7.5" font-family="FreeSans" font-size="10.00">concepts::CConvolutionWeights&lt; T &gt;</text>
</a>
</g>
</g>
<!-- Node0&#45;&gt;Node32 -->
<g id="edge33" class="edge"><title>Node0&#45;&gt;Node32</title>
<path fill="none" stroke="midnightblue" d="M82.5869,-406.72C82.398,-343.172 90.8447,-142.38 200,-39.5 203.655,-36.055 207.713,-33.0764 212.042,-30.5036"/>
<polygon fill="midnightblue" stroke="midnightblue" points="79.0894,-406.973 82.7003,-416.934 86.0889,-406.895 79.0894,-406.973"/>
</g>
<!-- Node10 -->
<g id="node11" class="node"><title>Node10</title>
<g id="a_node11"><a xlink:href="structDGtal_1_1concepts_1_1CDigitalMetricSpace.html" target="_top" xlink:title="Aim: defines the concept of digital metric spaces. ">
<polygon fill="white" stroke="black" points="462.5,-484.5 462.5,-514.5 598.5,-514.5 598.5,-484.5 462.5,-484.5"/>
<text text-anchor="start" x="470.5" y="-502.5" font-family="FreeSans" font-size="10.00">DGtal::concepts::CDigital</text>
<text text-anchor="middle" x="530.5" y="-491.5" font-family="FreeSans" font-size="10.00">MetricSpace&lt; T &gt;</text>
</a>
</g>
</g>
<!-- Node9&#45;&gt;Node10 -->
<g id="edge10" class="edge"><title>Node9&#45;&gt;Node10</title>
<path fill="none" stroke="midnightblue" d="M379.213,-483.611C406.101,-486.453 436.077,-489.623 462.141,-492.378"/>
<polygon fill="midnightblue" stroke="midnightblue" points="379.386,-480.11 369.074,-482.539 378.65,-487.071 379.386,-480.11"/>
</g>
<!-- Node11 -->
<g id="node12" class="node"><title>Node11</title>
<g id="a_node12"><a xlink:href="structDGtal_1_1concepts_1_1CSeparableMetric.html" target="_top" xlink:title="Aim: defines the concept of separable metrics. ">
<polygon fill="white" stroke="black" points="453,-435.5 453,-465.5 608,-465.5 608,-435.5 453,-435.5"/>
<text text-anchor="start" x="461" y="-453.5" font-family="FreeSans" font-size="10.00">DGtal::concepts::CSeparable</text>
<text text-anchor="middle" x="530.5" y="-442.5" font-family="FreeSans" font-size="10.00">Metric&lt; T &gt;</text>
</a>
</g>
</g>
<!-- Node9&#45;&gt;Node11 -->
<g id="edge11" class="edge"><title>Node9&#45;&gt;Node11</title>
<path fill="none" stroke="midnightblue" d="M379.111,-467.063C402.913,-464.441 429.143,-461.553 452.941,-458.932"/>
<polygon fill="midnightblue" stroke="midnightblue" points="378.63,-463.594 369.074,-468.168 379.397,-470.552 378.63,-463.594"/>
</g>
<!-- Node15 -->
<g id="node16" class="node"><title>Node15</title>
<g id="a_node16"><a xlink:href="structDGtal_1_1concepts_1_1CPowerSeparableMetric.html" target="_top" xlink:title="Aim: defines the concept of separable metrics. ">
<polygon fill="white" stroke="black" points="439,-323.5 439,-353.5 622,-353.5 622,-323.5 439,-323.5"/>
<text text-anchor="start" x="447" y="-341.5" font-family="FreeSans" font-size="10.00">DGtal::concepts::CPowerSeparable</text>
<text text-anchor="middle" x="530.5" y="-330.5" font-family="FreeSans" font-size="10.00">Metric&lt; T &gt;</text>
</a>
</g>
</g>
<!-- Node14&#45;&gt;Node15 -->
<g id="edge15" class="edge"><title>Node14&#45;&gt;Node15</title>
<path fill="none" stroke="midnightblue" d="M407.168,-335.805C417.687,-336.037 428.309,-336.271 438.668,-336.499"/>
<polygon fill="midnightblue" stroke="midnightblue" points="407.199,-332.305 397.125,-335.584 407.045,-339.304 407.199,-332.305"/>
</g>
<!-- Node17 -->
<g id="node18" class="node"><title>Node17</title>
<g id="a_node18"><a xlink:href="structDGtal_1_1concepts_1_1CCellularGridSpaceND.html" target="_top" xlink:title="Aim: This concept describes a cellular grid space in nD. In these spaces obtained by cartesian produc...">
<polygon fill="white" stroke="black" points="460,-274.5 460,-304.5 601,-304.5 601,-274.5 460,-274.5"/>
<text text-anchor="start" x="468" y="-292.5" font-family="FreeSans" font-size="10.00">DGtal::concepts::CCellular</text>
<text text-anchor="middle" x="530.5" y="-281.5" font-family="FreeSans" font-size="10.00">GridSpaceND&lt; T &gt;</text>
</a>
</g>
</g>
<!-- Node16&#45;&gt;Node17 -->
<g id="edge17" class="edge"><title>Node16&#45;&gt;Node17</title>
<path fill="none" stroke="midnightblue" d="M390.403,-289.5C413.401,-289.5 437.878,-289.5 459.785,-289.5"/>
<polygon fill="midnightblue" stroke="midnightblue" points="390.303,-286 380.303,-289.5 390.303,-293 390.303,-286"/>
</g>
<!-- Node19 -->
<g id="node20" class="node"><title>Node19</title>
<g id="a_node20"><a xlink:href="structDGtal_1_1concepts_1_1CIncrementalPrimitiveComputer.html" target="_top" xlink:title="Aim: Defines the concept describing an object that computes some primitive from input points given on...">
<polygon fill="white" stroke="black" points="449,-225.5 449,-255.5 612,-255.5 612,-225.5 449,-225.5"/>
<text text-anchor="start" x="457" y="-243.5" font-family="FreeSans" font-size="10.00">DGtal::concepts::CIncremental</text>
<text text-anchor="middle" x="530.5" y="-232.5" font-family="FreeSans" font-size="10.00">PrimitiveComputer&lt; T &gt;</text>
</a>
</g>
</g>
<!-- Node18&#45;&gt;Node19 -->
<g id="edge19" class="edge"><title>Node18&#45;&gt;Node19</title>
<path fill="none" stroke="midnightblue" d="M385.309,-240.5C406.046,-240.5 428.261,-240.5 448.89,-240.5"/>
<polygon fill="midnightblue" stroke="midnightblue" points="385.261,-237 375.261,-240.5 385.261,-244 385.261,-237"/>
</g>
<!-- Node20 -->
<g id="node21" class="node"><title>Node20</title>
<g id="a_node21"><a xlink:href="structDGtal_1_1concepts_1_1CAdditivePrimitiveComputer.html" target="_top" xlink:title="Aim: Defines the concept describing an object that computes some primitive from input points given gr...">
<polygon fill="white" stroke="black" points="667.5,-225.5 667.5,-255.5 811.5,-255.5 811.5,-225.5 667.5,-225.5"/>
<text text-anchor="start" x="675.5" y="-243.5" font-family="FreeSans" font-size="10.00">DGtal::concepts::CAdditive</text>
<text text-anchor="middle" x="739.5" y="-232.5" font-family="FreeSans" font-size="10.00">PrimitiveComputer&lt; T &gt;</text>
</a>
</g>
</g>
<!-- Node19&#45;&gt;Node20 -->
<g id="edge20" class="edge"><title>Node19&#45;&gt;Node20</title>
<path fill="none" stroke="midnightblue" d="M622.43,-240.5C637.42,-240.5 652.768,-240.5 667.19,-240.5"/>
<polygon fill="midnightblue" stroke="midnightblue" points="622.124,-237 612.124,-240.5 622.124,-244 622.124,-237"/>
</g>
<!-- Node22 -->
<g id="node23" class="node"><title>Node22</title>
<g id="a_node23"><a xlink:href="structDGtal_1_1concepts_1_1CSegmentFactory.html" target="_top" xlink:title="Aim: Defines the concept describing a segment ie. a valid and not empty subrange, which can construct...">
<polygon fill="white" stroke="black" points="455.5,-176.5 455.5,-206.5 605.5,-206.5 605.5,-176.5 455.5,-176.5"/>
<text text-anchor="start" x="463.5" y="-194.5" font-family="FreeSans" font-size="10.00">DGtal::concepts::CSegment</text>
<text text-anchor="middle" x="530.5" y="-183.5" font-family="FreeSans" font-size="10.00">Factory&lt; T &gt;</text>
</a>
</g>
</g>
<!-- Node21&#45;&gt;Node22 -->
<g id="edge22" class="edge"><title>Node21&#45;&gt;Node22</title>
<path fill="none" stroke="midnightblue" d="M400.718,-194.337C419.073,-193.932 437.971,-193.516 455.444,-193.131"/>
<polygon fill="midnightblue" stroke="midnightblue" points="400.509,-190.84 390.589,-194.56 400.664,-197.839 400.509,-190.84"/>
</g>
<!-- Node23 -->
<g id="node24" class="node"><title>Node23</title>
<g id="a_node24"><a xlink:href="structDGtal_1_1concepts_1_1CIncrementalSegmentComputer.html" target="_top" xlink:title="Aim: Defines the concept describing an incremental segment computer, &#160;ie. a model of CSegmentFactory ...">
<polygon fill="white" stroke="black" points="658,-176.5 658,-206.5 821,-206.5 821,-176.5 658,-176.5"/>
<text text-anchor="start" x="666" y="-194.5" font-family="FreeSans" font-size="10.00">DGtal::concepts::CIncremental</text>
<text text-anchor="middle" x="739.5" y="-183.5" font-family="FreeSans" font-size="10.00">SegmentComputer&lt; T &gt;</text>
</a>
</g>
</g>
<!-- Node22&#45;&gt;Node23 -->
<g id="edge23" class="edge"><title>Node22&#45;&gt;Node23</title>
<path fill="none" stroke="midnightblue" d="M615.687,-191.5C629.613,-191.5 644.023,-191.5 657.859,-191.5"/>
<polygon fill="midnightblue" stroke="midnightblue" points="615.647,-188 605.647,-191.5 615.647,-195 615.647,-188"/>
</g>
<!-- Node24 -->
<g id="node25" class="node"><title>Node24</title>
<g id="a_node25"><a xlink:href="structDGtal_1_1concepts_1_1CForwardSegmentComputer.html" target="_top" xlink:title="Aim: Defines the concept describing a forward segment computer. Like any model of CIncrementalSegment...">
<polygon fill="white" stroke="black" points="857,-176.5 857,-206.5 1000,-206.5 1000,-176.5 857,-176.5"/>
<text text-anchor="start" x="865" y="-194.5" font-family="FreeSans" font-size="10.00">DGtal::concepts::CForward</text>
<text text-anchor="middle" x="928.5" y="-183.5" font-family="FreeSans" font-size="10.00">SegmentComputer&lt; T &gt;</text>
</a>
</g>
</g>
<!-- Node23&#45;&gt;Node24 -->
<g id="edge24" class="edge"><title>Node23&#45;&gt;Node24</title>
<path fill="none" stroke="midnightblue" d="M831.22,-191.5C839.814,-191.5 848.441,-191.5 856.807,-191.5"/>
<polygon fill="midnightblue" stroke="midnightblue" points="831.162,-188 821.162,-191.5 831.162,-195 831.162,-188"/>
</g>
<!-- Node25 -->
<g id="node26" class="node"><title>Node25</title>
<g id="a_node26"><a xlink:href="structDGtal_1_1concepts_1_1CBidirectionalSegmentComputer.html" target="_top" xlink:title="Aim: Defines the concept describing a bidirectional segment computer, &#160;ie. a model of concepts::CSegm...">
<polygon fill="white" stroke="black" points="1036,-201.5 1036,-231.5 1200,-231.5 1200,-201.5 1036,-201.5"/>
<text text-anchor="start" x="1044" y="-219.5" font-family="FreeSans" font-size="10.00">DGtal::concepts::CBidirectional</text>
<text text-anchor="middle" x="1118" y="-208.5" font-family="FreeSans" font-size="10.00">SegmentComputer&lt; T &gt;</text>
</a>
</g>
</g>
<!-- Node24&#45;&gt;Node25 -->
<g id="edge25" class="edge"><title>Node24&#45;&gt;Node25</title>
<path fill="none" stroke="midnightblue" d="M1010.03,-202.238C1018.55,-203.373 1027.21,-204.529 1035.74,-205.665"/>
<polygon fill="midnightblue" stroke="midnightblue" points="1010.49,-198.768 1000.12,-200.916 1009.57,-205.707 1010.49,-198.768"/>
</g>
<!-- Node27 -->
<g id="node28" class="node"><title>Node27</title>
<g id="a_node28"><a xlink:href="structDGtal_1_1concepts_1_1CDynamicSegmentComputer.html" target="_top" xlink:title="Aim: Defines the concept describing a dynamic segment computer, &#160;&#160;ie. a model of CSegment that can ex...">
<polygon fill="white" stroke="black" points="1044,-152.5 1044,-182.5 1192,-182.5 1192,-152.5 1044,-152.5"/>
<text text-anchor="start" x="1052" y="-170.5" font-family="FreeSans" font-size="10.00">DGtal::concepts::CDynamic</text>
<text text-anchor="middle" x="1118" y="-159.5" font-family="FreeSans" font-size="10.00">SegmentComputer&lt; T &gt;</text>
</a>
</g>
</g>
<!-- Node24&#45;&gt;Node27 -->
<g id="edge27" class="edge"><title>Node24&#45;&gt;Node27</title>
<path fill="none" stroke="midnightblue" d="M1010.3,-181.158C1021.48,-179.726 1032.92,-178.263 1043.95,-176.851"/>
<polygon fill="midnightblue" stroke="midnightblue" points="1009.59,-177.719 1000.12,-182.461 1010.48,-184.663 1009.59,-177.719"/>
</g>
<!-- Node26 -->
<g id="node27" class="node"><title>Node26</title>
<g id="a_node27"><a xlink:href="structDGtal_1_1concepts_1_1CDynamicBidirectionalSegmentComputer.html" target="_top" xlink:title="Aim: Defines the concept describing a dynamic and bidirectional segment computer, ie...">
<polygon fill="white" stroke="black" points="1236,-176.5 1236,-206.5 1431,-206.5 1431,-176.5 1236,-176.5"/>
<text text-anchor="start" x="1244" y="-194.5" font-family="FreeSans" font-size="10.00">DGtal::concepts::CDynamic</text>
<text text-anchor="middle" x="1333.5" y="-183.5" font-family="FreeSans" font-size="10.00">BidirectionalSegmentComputer&lt; T &gt;</text>
</a>
</g>
</g>
<!-- Node25&#45;&gt;Node26 -->
<g id="edge26" class="edge"><title>Node25&#45;&gt;Node26</title>
<path fill="none" stroke="midnightblue" d="M1209.96,-205.849C1218.5,-204.849 1227.17,-203.833 1235.76,-202.828"/>
<polygon fill="midnightblue" stroke="midnightblue" points="1209.54,-202.374 1200.02,-207.013 1210.36,-209.326 1209.54,-202.374"/>
</g>
<!-- Node27&#45;&gt;Node26 -->
<g id="edge28" class="edge"><title>Node27&#45;&gt;Node26</title>
<path fill="none" stroke="midnightblue" d="M1202.15,-176.847C1213.13,-178.081 1224.46,-179.355 1235.65,-180.613"/>
<polygon fill="midnightblue" stroke="midnightblue" points="1202.5,-173.365 1192.18,-175.726 1201.72,-180.321 1202.5,-173.365"/>
</g>
<!-- Node31 -->
<g id="node32" class="node"><title>Node31</title>
<g id="a_node32"><a xlink:href="structDGtal_1_1concepts_1_1CDigitalSurfaceLocalEstimator.html" target="_top" xlink:title="Aim: This concept describes an object that can process a range over some generic digital surface so a...">
<polygon fill="white" stroke="black" points="454.5,-49.5 454.5,-79.5 606.5,-79.5 606.5,-49.5 454.5,-49.5"/>
<text text-anchor="start" x="462.5" y="-67.5" font-family="FreeSans" font-size="10.00">DGtal::concepts::CDigital</text>
<text text-anchor="middle" x="530.5" y="-56.5" font-family="FreeSans" font-size="10.00">SurfaceLocalEstimator&lt; T &gt;</text>
</a>
</g>
</g>
<!-- Node30&#45;&gt;Node31 -->
<g id="edge32" class="edge"><title>Node30&#45;&gt;Node31</title>
<path fill="none" stroke="midnightblue" d="M379.014,-64.5C403.319,-64.5 430.165,-64.5 454.372,-64.5"/>
<polygon fill="midnightblue" stroke="midnightblue" points="378.768,-61.0001 368.768,-64.5 378.768,-68.0001 378.768,-61.0001"/>
</g>
</g>
</svg>
        <g id="navigator" transform="translate(0 0)" fill="#404254">
                <rect fill="#f2f5e9" fill-opacity="0.5" stroke="#606060" stroke-width=".5" x="0" y="0" width="60" height="60"/>
                <use id="zoomplus" xlink:href="#zoomPlus" x="17" y="9" onmousedown="handleZoom(evt,'in')"/>
                <use id="zoomminus" xlink:href="#zoomMin" x="42" y="9" onmousedown="handleZoom(evt,'out')"/>
                <use id="reset" xlink:href="#resetDef" x="30" y="36" onmousedown="handleReset()"/>
                <g id="arrowUp" xlink:href="#dirArrow" transform="translate(30 24)" onmousedown="handlePan(0,-1)">
                  <use xlink:href="#rim" fill="#404040">
                        <set attributeName="fill" to="#808080" begin="arrowUp.mouseover" end="arrowUp.mouseout"/>
                  </use>
                  <path fill="none" stroke="white" stroke-width="1.5" d="M0,-3.0v7 M-2.5,-0.5L0,-3.0L2.5,-0.5"/>
                </g>
                <g id="arrowRight" xlink:href="#dirArrow" transform="rotate(90) translate(36 -43)" onmousedown="handlePan(1,0)">
                  <use xlink:href="#rim" fill="#404040">
                        <set attributeName="fill" to="#808080" begin="arrowRight.mouseover" end="arrowRight.mouseout"/>
                  </use>
                  <path fill="none" stroke="white" stroke-width="1.5" d="M0,-3.0v7 M-2.5,-0.5L0,-3.0L2.5,-0.5"/>
                </g>
                <g id="arrowDown" xlink:href="#dirArrow" transform="rotate(180) translate(-30 -48)" onmousedown="handlePan(0,1)">
                  <use xlink:href="#rim" fill="#404040">
                        <set attributeName="fill" to="#808080" begin="arrowDown.mouseover" end="arrowDown.mouseout"/>
                  </use>
                  <path fill="none" stroke="white" stroke-width="1.5" d="M0,-3.0v7 M-2.5,-0.5L0,-3.0L2.5,-0.5"/>
                </g>
                <g id="arrowLeft" xlink:href="#dirArrow" transform="rotate(270) translate(-36 17)" onmousedown="handlePan(-1,0)">
                  <use xlink:href="#rim" fill="#404040">
                        <set attributeName="fill" to="#808080" begin="arrowLeft.mouseover" end="arrowLeft.mouseout"/>
                  </use>
                  <path fill="none" stroke="white" stroke-width="1.5" d="M0,-3.0v7 M-2.5,-0.5L0,-3.0L2.5,-0.5"/>
                </g>
        </g>
        <svg viewBox="0 0 15 15" width="100%" height="30px" preserveAspectRatio="xMaxYMin meet">
         <g id="arrow_out" transform="scale(0.3 0.3)">
          <a xlink:href="structboost_1_1CopyConstructible__inherit__graph_org.svg" target="_base">
           <rect id="button" ry="5" rx="5" y="6" x="6" height="38" width="38"
                fill="#f2f5e9" fill-opacity="0.5" stroke="#606060" stroke-width="1.0"/>
           <path id="arrow"
             d="M 11.500037,31.436501 C 11.940474,20.09759 22.043105,11.32322 32.158766,21.979434 L 37.068811,17.246167 C 37.068811,17.246167 37.088388,32 37.088388,32 L 22.160133,31.978069 C 22.160133,31.978069 26.997745,27.140456 26.997745,27.140456 C 18.528582,18.264221 13.291696,25.230495 11.500037,31.436501 z"
             style="fill:#404040;"/>
          </a>
         </g>
        </svg>
</svg>
