<?xml version="1.0" encoding="UTF-8" standalone="no"?>
<!DOCTYPE svg PUBLIC "-//W3C//DTD SVG 1.1//EN"
 "http://www.w3.org/Graphics/SVG/1.1/DTD/svg11.dtd">
<!-- Generated by graphviz version 2.38.0 (20140413.2041)
 -->
<!-- Title: DGtal::functors::PredicateCombiner&lt; TPredicate1, TPredicate2, TBinaryFunctor &gt; Pages: 1 -->
<svg width="172pt" height="117pt"
 viewBox="0.00 0.00 172.00 117.00" xmlns="http://www.w3.org/2000/svg" xmlns:xlink="http://www.w3.org/1999/xlink">
<g id="graph0" class="graph" transform="scale(1 1) rotate(0) translate(4 113)">
<title>DGtal::functors::PredicateCombiner&lt; TPredicate1, TPredicate2, TBinaryFunctor &gt;</title>
<polygon fill="white" stroke="none" points="-4,4 -4,-113 168,-113 168,4 -4,4"/>
<!-- Node2 -->
<g id="node1" class="node"><title>Node2</title>
<polygon fill="#bfbfbf" stroke="black" points="0,-0.5 0,-41.5 164,-41.5 164,-0.5 0,-0.5"/>
<text text-anchor="start" x="8" y="-29.5" font-family="FreeSans" font-size="10.00">DGtal::functors::Predicate</text>
<text text-anchor="start" x="8" y="-18.5" font-family="FreeSans" font-size="10.00">Combiner&lt; TPredicate1,</text>
<text text-anchor="middle" x="82" y="-7.5" font-family="FreeSans" font-size="10.00"> TPredicate2, TBinaryFunctor &gt;</text>
</g>
<!-- Node3 -->
<g id="node2" class="node"><title>Node3</title>
<polygon fill="white" stroke="#bfbfbf" points="38.5,-89.5 38.5,-108.5 125.5,-108.5 125.5,-89.5 38.5,-89.5"/>
<text text-anchor="middle" x="82" y="-96.5" font-family="FreeSans" font-size="10.00">TBinaryFunctor</text>
</g>
<!-- Node3&#45;&gt;Node2 -->
<g id="edge1" class="edge"><title>Node3&#45;&gt;Node2</title>
<path fill="none" stroke="#9a32cd" stroke-dasharray="5,2" d="M82,-79.1372C82,-67.7291 82,-53.2071 82,-41.6584"/>
<polygon fill="#9a32cd" stroke="#9a32cd" points="78.5001,-79.2818 82,-89.2818 85.5001,-79.2819 78.5001,-79.2818"/>
<text text-anchor="middle" x="119.5" y="-63" font-family="FreeSans" font-size="10.00"> myBoolFunctor</text>
</g>
</g>
</svg>
