<?xml version="1.0" encoding="UTF-8" standalone="no"?>
<!DOCTYPE svg PUBLIC "-//W3C//DTD SVG 1.1//EN"
 "http://www.w3.org/Graphics/SVG/1.1/DTD/svg11.dtd">
<!-- Generated by graphviz version 2.36.0 (20140111.2315)
 -->
<!-- Title: DGtal::Splitter&lt; TElement, TWord &gt; Pages: 1 -->
<svg width="189pt" height="130pt"
 viewBox="0.00 0.00 189.00 130.00" xmlns="http://www.w3.org/2000/svg" xmlns:xlink="http://www.w3.org/1999/xlink">
<g id="graph0" class="graph" transform="scale(1 1) rotate(0) translate(4 126)">
<title>DGtal::Splitter&lt; TElement, TWord &gt;</title>
<polygon fill="white" stroke="none" points="-4,4 -4,-126 185,-126 185,4 -4,4"/>
<!-- Node0 -->
<g id="node1" class="node"><title>Node0</title>
<polygon fill="#bfbfbf" stroke="black" points="4.5,-91 4.5,-121 147.5,-121 147.5,-91 4.5,-91"/>
<text text-anchor="start" x="12.5" y="-109" font-family="FreeSans" font-size="10.00">DGtal::Splitter&lt; TElement,</text>
<text text-anchor="middle" x="76" y="-98" font-family="FreeSans" font-size="10.00"> TWord &gt;</text>
</g>
<!-- Node1 -->
<g id="node2" class="node"><title>Node1</title>
<g id="a_node2"><a xlink:href="structDGtal_1_1Splitter.html" target="_top" xlink:title="DGtal::Splitter\&lt; PointVector\l\&lt; dim, Integer \&gt;, uint64_t \&gt;">
<polygon fill="white" stroke="black" points="-0.5,-1 -0.5,-31 152.5,-31 152.5,-1 -0.5,-1"/>
<text text-anchor="start" x="7.5" y="-19" font-family="FreeSans" font-size="10.00">DGtal::Splitter&lt; PointVector</text>
<text text-anchor="middle" x="76" y="-8" font-family="FreeSans" font-size="10.00">&lt; dim, Integer &gt;, uint64_t &gt;</text>
</a>
</g>
</g>
<!-- Node0&#45;&gt;Node1 -->
<g id="edge1" class="edge"><title>Node0&#45;&gt;Node1</title>
<path fill="none" stroke="orange" stroke-dasharray="5,2" d="M76,-80.6545C76,-64.711 76,-44.4341 76,-31.1036"/>
<polygon fill="orange" stroke="orange" points="72.5001,-80.8612 76,-90.8613 79.5001,-80.8613 72.5001,-80.8612"/>
<text text-anchor="start" x="76" y="-64" font-family="FreeSans" font-size="10.00"> &lt; PointVector&lt; dim,</text>
<text text-anchor="middle" x="128.5" y="-53" font-family="FreeSans" font-size="10.00"> Integer &gt;, uint64_t &gt;</text>
</g>
</g>
</svg>
