<?xml version="1.0" encoding="UTF-8" standalone="no"?>
<!DOCTYPE svg PUBLIC "-//W3C//DTD SVG 1.1//EN"
 "http://www.w3.org/Graphics/SVG/1.1/DTD/svg11.dtd">
<!-- Generated by graphviz version 2.38.0 (20140413.2041)
 -->
<!-- Title: DGtal::concepts::CVertexMap&lt; T &gt; Pages: 1 -->
<svg width="189pt" height="106pt"
 viewBox="0.00 0.00 189.00 106.00" xmlns="http://www.w3.org/2000/svg" xmlns:xlink="http://www.w3.org/1999/xlink">
<g id="graph0" class="graph" transform="scale(1 1) rotate(0) translate(4 102)">
<title>DGtal::concepts::CVertexMap&lt; T &gt;</title>
<polygon fill="white" stroke="none" points="-4,4 -4,-102 185,-102 185,4 -4,4"/>
<!-- Node2 -->
<g id="node1" class="node"><title>Node2</title>
<polygon fill="#bfbfbf" stroke="black" points="44,-0.5 44,-30.5 181,-30.5 181,-0.5 44,-0.5"/>
<text text-anchor="start" x="52" y="-18.5" font-family="FreeSans" font-size="10.00">DGtal::concepts::CVertex</text>
<text text-anchor="middle" x="112.5" y="-7.5" font-family="FreeSans" font-size="10.00">Map&lt; T &gt;</text>
</g>
<!-- Node3 -->
<g id="node2" class="node"><title>Node3</title>
<g id="a_node2"><a xlink:href="structboost_1_1Assignable.html" target="_top" xlink:title="Go to http://www.sgi.com/tech/stl/Assignable.html. ">
<polygon fill="white" stroke="black" points="0,-78.5 0,-97.5 129,-97.5 129,-78.5 0,-78.5"/>
<text text-anchor="middle" x="64.5" y="-85.5" font-family="FreeSans" font-size="10.00">boost::Assignable&lt; T &gt;</text>
</a>
</g>
</g>
<!-- Node3&#45;&gt;Node2 -->
<g id="edge1" class="edge"><title>Node3&#45;&gt;Node2</title>
<path fill="none" stroke="midnightblue" d="M76.048,-70.0389C84.2664,-57.968 95.1792,-41.94 102.916,-30.5762"/>
<polygon fill="midnightblue" stroke="midnightblue" points="73.1206,-68.1195 70.3857,-78.3553 78.9068,-72.0591 73.1206,-68.1195"/>
</g>
<!-- Node4 -->
<g id="node3" class="node"><title>Node4</title>
<polygon fill="white" stroke="#bfbfbf" points="147,-78.5 147,-97.5 176,-97.5 176,-78.5 147,-78.5"/>
<text text-anchor="middle" x="161.5" y="-85.5" font-family="FreeSans" font-size="10.00">T</text>
</g>
<!-- Node4&#45;&gt;Node2 -->
<g id="edge2" class="edge"><title>Node4&#45;&gt;Node2</title>
<path fill="none" stroke="#9a32cd" stroke-dasharray="5,2" d="M149.711,-70.0389C141.322,-57.968 130.182,-41.94 122.283,-30.5762"/>
<polygon fill="#9a32cd" stroke="#9a32cd" points="146.91,-72.1414 155.492,-78.3553 152.658,-68.1463 146.91,-72.1414"/>
<text text-anchor="middle" x="153" y="-52" font-family="FreeSans" font-size="10.00"> myX</text>
</g>
</g>
</svg>
