<?xml version="1.0" encoding="UTF-8" standalone="no"?>
<!DOCTYPE svg PUBLIC "-//W3C//DTD SVG 1.1//EN"
 "http://www.w3.org/Graphics/SVG/1.1/DTD/svg11.dtd">
<!-- Generated by graphviz version 2.38.0 (20140413.2041)
 -->
<!-- Title: DGtal::concepts::CDigitalSurfaceLocalEstimator&lt; T &gt; Pages: 1 -->
<svg width="567pt" height="149pt"
 viewBox="0.00 0.00 567.00 149.00" xmlns="http://www.w3.org/2000/svg" xmlns:xlink="http://www.w3.org/1999/xlink">
<g id="graph0" class="graph" transform="scale(1 1) rotate(0) translate(4 145)">
<title>DGtal::concepts::CDigitalSurfaceLocalEstimator&lt; T &gt;</title>
<polygon fill="white" stroke="none" points="-4,4 -4,-145 563,-145 563,4 -4,4"/>
<!-- Node5 -->
<g id="node1" class="node"><title>Node5</title>
<polygon fill="#bfbfbf" stroke="black" points="407,-9 407,-39 559,-39 559,-9 407,-9"/>
<text text-anchor="start" x="415" y="-27" font-family="FreeSans" font-size="10.00">DGtal::concepts::CDigital</text>
<text text-anchor="middle" x="483" y="-16" font-family="FreeSans" font-size="10.00">SurfaceLocalEstimator&lt; T &gt;</text>
</g>
<!-- Node6 -->
<g id="node2" class="node"><title>Node6</title>
<g id="a_node2"><a xlink:href="structDGtal_1_1concepts_1_1CSurfelLocalEstimator.html" target="_top" xlink:title="Aim: This concept describes an object that can process a range of surfels (that are supposed to belon...">
<polygon fill="white" stroke="black" points="236,-47 236,-77 370,-77 370,-47 236,-47"/>
<text text-anchor="start" x="244" y="-65" font-family="FreeSans" font-size="10.00">DGtal::concepts::CSurfel</text>
<text text-anchor="middle" x="303" y="-54" font-family="FreeSans" font-size="10.00">LocalEstimator&lt; T &gt;</text>
</a>
</g>
</g>
<!-- Node6&#45;&gt;Node5 -->
<g id="edge1" class="edge"><title>Node6&#45;&gt;Node5</title>
<path fill="none" stroke="midnightblue" d="M379.991,-45.7773C390.481,-43.5377 401.219,-41.2455 411.602,-39.0287"/>
<polygon fill="midnightblue" stroke="midnightblue" points="379.077,-42.3935 370.028,-47.9042 380.538,-49.2392 379.077,-42.3935"/>
</g>
<!-- Node7 -->
<g id="node3" class="node"><title>Node7</title>
<g id="a_node3"><a xlink:href="structboost_1_1DefaultConstructible.html" target="_top" xlink:title="Go to http://www.sgi.com/tech/stl/DefaultConstructible.html. ">
<polygon fill="white" stroke="black" points="0,-121.5 0,-140.5 175,-140.5 175,-121.5 0,-121.5"/>
<text text-anchor="middle" x="87.5" y="-128.5" font-family="FreeSans" font-size="10.00">boost::DefaultConstructible&lt; T &gt;</text>
</a>
</g>
</g>
<!-- Node7&#45;&gt;Node6 -->
<g id="edge2" class="edge"><title>Node7&#45;&gt;Node6</title>
<path fill="none" stroke="midnightblue" d="M148.034,-119.23C157.128,-117.056 166.359,-114.632 175,-112 207.188,-102.196 242.743,-87.8848 268.026,-77.0826"/>
<polygon fill="midnightblue" stroke="midnightblue" points="147.209,-115.828 138.253,-121.488 148.784,-122.649 147.209,-115.828"/>
</g>
<!-- Node8 -->
<g id="node4" class="node"><title>Node8</title>
<g id="a_node4"><a xlink:href="structboost_1_1CopyConstructible.html" target="_top" xlink:title="Go to http://www.sgi.com/tech/stl/CopyConstructible.html. ">
<polygon fill="white" stroke="black" points="5.5,-83.5 5.5,-102.5 169.5,-102.5 169.5,-83.5 5.5,-83.5"/>
<text text-anchor="middle" x="87.5" y="-90.5" font-family="FreeSans" font-size="10.00">boost::CopyConstructible&lt; T &gt;</text>
</a>
</g>
</g>
<!-- Node8&#45;&gt;Node6 -->
<g id="edge3" class="edge"><title>Node8&#45;&gt;Node6</title>
<path fill="none" stroke="midnightblue" d="M163.918,-82.0493C187.395,-78.6406 213.089,-74.9097 235.88,-71.6006"/>
<polygon fill="midnightblue" stroke="midnightblue" points="163.401,-78.5876 154.008,-83.4883 164.407,-85.515 163.401,-78.5876"/>
</g>
<!-- Node9 -->
<g id="node5" class="node"><title>Node9</title>
<g id="a_node5"><a xlink:href="structboost_1_1Assignable.html" target="_top" xlink:title="Go to http://www.sgi.com/tech/stl/Assignable.html. ">
<polygon fill="white" stroke="black" points="23,-45.5 23,-64.5 152,-64.5 152,-45.5 23,-45.5"/>
<text text-anchor="middle" x="87.5" y="-52.5" font-family="FreeSans" font-size="10.00">boost::Assignable&lt; T &gt;</text>
</a>
</g>
</g>
<!-- Node9&#45;&gt;Node6 -->
<g id="edge4" class="edge"><title>Node9&#45;&gt;Node6</title>
<path fill="none" stroke="midnightblue" d="M162.356,-57.4215C186.282,-58.206 212.651,-59.0705 235.97,-59.8351"/>
<polygon fill="midnightblue" stroke="midnightblue" points="162.377,-53.9204 152.268,-57.0907 162.148,-60.9167 162.377,-53.9204"/>
</g>
<!-- Node10 -->
<g id="node6" class="node"><title>Node10</title>
<polygon fill="white" stroke="#bfbfbf" points="73,-0.5 73,-19.5 102,-19.5 102,-0.5 73,-0.5"/>
<text text-anchor="middle" x="87.5" y="-7.5" font-family="FreeSans" font-size="10.00">T</text>
</g>
<!-- Node10&#45;&gt;Node5 -->
<g id="edge6" class="edge"><title>Node10&#45;&gt;Node5</title>
<path fill="none" stroke="#9a32cd" stroke-dasharray="5,2" d="M112.226,-10.8441C169.349,-12.8765 316.48,-18.1111 406.989,-21.3312"/>
<polygon fill="#9a32cd" stroke="#9a32cd" points="112.163,-7.33978 102.045,-10.4819 111.914,-14.3353 112.163,-7.33978"/>
<text text-anchor="middle" x="303" y="-23" font-family="FreeSans" font-size="10.00"> myX</text>
</g>
<!-- Node10&#45;&gt;Node6 -->
<g id="edge5" class="edge"><title>Node10&#45;&gt;Node6</title>
<path fill="none" stroke="#9a32cd" stroke-dasharray="5,2" d="M111.955,-15.7128C142.608,-23.1786 197.434,-36.5319 240.347,-46.9837"/>
<polygon fill="#9a32cd" stroke="#9a32cd" points="112.724,-12.2978 102.18,-13.3319 111.068,-19.099 112.724,-12.2978"/>
<text text-anchor="middle" x="205.5" y="-44" font-family="FreeSans" font-size="10.00"> myX</text>
</g>
</g>
</svg>
