<?xml version="1.0" encoding="UTF-8" standalone="no"?>
<!DOCTYPE svg PUBLIC "-//W3C//DTD SVG 1.1//EN"
 "http://www.w3.org/Graphics/SVG/1.1/DTD/svg11.dtd">
<!-- Generated by graphviz version 2.38.0 (20140413.2041)
 -->
<!-- Title: DGtal::concepts::CBackInsertable&lt; T &gt; Pages: 1 -->
<svg width="212pt" height="95pt"
 viewBox="0.00 0.00 212.00 95.00" xmlns="http://www.w3.org/2000/svg" xmlns:xlink="http://www.w3.org/1999/xlink">
<g id="graph0" class="graph" transform="scale(1 1) rotate(0) translate(4 91)">
<title>DGtal::concepts::CBackInsertable&lt; T &gt;</title>
<polygon fill="white" stroke="none" points="-4,4 -4,-91 208,-91 208,4 -4,4"/>
<!-- Node0 -->
<g id="node1" class="node"><title>Node0</title>
<polygon fill="#bfbfbf" stroke="black" points="-1.42109e-14,-67.5 -1.42109e-14,-86.5 204,-86.5 204,-67.5 -1.42109e-14,-67.5"/>
<text text-anchor="middle" x="102" y="-74.5" font-family="FreeSans" font-size="10.00">DGtal::concepts::CBackInsertable&lt; T &gt;</text>
</g>
<!-- Node1 -->
<g id="node2" class="node"><title>Node1</title>
<g id="a_node2"><a xlink:href="structDGtal_1_1concepts_1_1CPositiveIrreducibleFraction.html" target="_top" xlink:title="Aim: Defines positive irreducible fractions, i.e. fraction p/q, p and q non&#45;negative integers...">
<polygon fill="white" stroke="black" points="30.5,-0.5 30.5,-30.5 173.5,-30.5 173.5,-0.5 30.5,-0.5"/>
<text text-anchor="start" x="38.5" y="-18.5" font-family="FreeSans" font-size="10.00">DGtal::concepts::CPositive</text>
<text text-anchor="middle" x="102" y="-7.5" font-family="FreeSans" font-size="10.00">IrreducibleFraction&lt; T &gt;</text>
</a>
</g>
</g>
<!-- Node0&#45;&gt;Node1 -->
<g id="edge1" class="edge"><title>Node0&#45;&gt;Node1</title>
<path fill="none" stroke="midnightblue" d="M102,-57.2349C102,-48.5864 102,-38.4969 102,-30.523"/>
<polygon fill="midnightblue" stroke="midnightblue" points="98.5001,-57.4751 102,-67.4751 105.5,-57.4751 98.5001,-57.4751"/>
</g>
</g>
</svg>
