<?xml version="1.0" encoding="UTF-8" standalone="no"?>
<!DOCTYPE svg PUBLIC "-//W3C//DTD SVG 1.1//EN"
 "http://www.w3.org/Graphics/SVG/1.1/DTD/svg11.dtd">
<!-- Generated by graphviz version 2.38.0 (20140413.2041)
 -->
<!-- Title: DGtal::concepts::CDynamicMatrix&lt; T &gt; Pages: 1 -->
<svg width="171pt" height="218pt"
 viewBox="0.00 0.00 171.00 218.00" xmlns="http://www.w3.org/2000/svg" xmlns:xlink="http://www.w3.org/1999/xlink">
<g id="graph0" class="graph" transform="scale(1 1) rotate(0) translate(4 214)">
<title>DGtal::concepts::CDynamicMatrix&lt; T &gt;</title>
<polygon fill="white" stroke="none" points="-4,4 -4,-214 167,-214 167,4 -4,4"/>
<!-- Node0 -->
<g id="node1" class="node"><title>Node0</title>
<polygon fill="#bfbfbf" stroke="black" points="7.5,-0.5 7.5,-30.5 155.5,-30.5 155.5,-0.5 7.5,-0.5"/>
<text text-anchor="start" x="15.5" y="-18.5" font-family="FreeSans" font-size="10.00">DGtal::concepts::CDynamic</text>
<text text-anchor="middle" x="81.5" y="-7.5" font-family="FreeSans" font-size="10.00">Matrix&lt; T &gt;</text>
</g>
<!-- Node1 -->
<g id="node2" class="node"><title>Node1</title>
<g id="a_node2"><a xlink:href="structDGtal_1_1concepts_1_1CMatrix.html" target="_top" xlink:title="Aim: Represent any static or dynamic sized matrix having sparse or dense representation. ">
<polygon fill="white" stroke="black" points="0,-67.5 0,-86.5 163,-86.5 163,-67.5 0,-67.5"/>
<text text-anchor="middle" x="81.5" y="-74.5" font-family="FreeSans" font-size="10.00">DGtal::concepts::CMatrix&lt; T &gt;</text>
</a>
</g>
</g>
<!-- Node1&#45;&gt;Node0 -->
<g id="edge1" class="edge"><title>Node1&#45;&gt;Node0</title>
<path fill="none" stroke="midnightblue" d="M81.5,-57.2349C81.5,-48.5864 81.5,-38.4969 81.5,-30.523"/>
<polygon fill="midnightblue" stroke="midnightblue" points="78.0001,-57.4751 81.5,-67.4751 85.0001,-57.4751 78.0001,-57.4751"/>
</g>
<!-- Node2 -->
<g id="node3" class="node"><title>Node2</title>
<g id="a_node3"><a xlink:href="structDGtal_1_1concepts_1_1CVectorSpace.html" target="_top" xlink:title="Aim: Base concept for vector space structure. ">
<polygon fill="white" stroke="black" points="13,-123.5 13,-153.5 150,-153.5 150,-123.5 13,-123.5"/>
<text text-anchor="start" x="21" y="-141.5" font-family="FreeSans" font-size="10.00">DGtal::concepts::CVector</text>
<text text-anchor="middle" x="81.5" y="-130.5" font-family="FreeSans" font-size="10.00">Space&lt; T &gt;</text>
</a>
</g>
</g>
<!-- Node2&#45;&gt;Node1 -->
<g id="edge2" class="edge"><title>Node2&#45;&gt;Node1</title>
<path fill="none" stroke="midnightblue" d="M81.5,-113.289C81.5,-103.857 81.5,-93.6548 81.5,-86.6578"/>
<polygon fill="midnightblue" stroke="midnightblue" points="78.0001,-113.399 81.5,-123.399 85.0001,-113.399 78.0001,-113.399"/>
</g>
<!-- Node3 -->
<g id="node4" class="node"><title>Node3</title>
<g id="a_node4"><a xlink:href="structboost_1_1Assignable.html" target="_top" xlink:title="Go to http://www.sgi.com/tech/stl/Assignable.html. ">
<polygon fill="white" stroke="black" points="17,-190.5 17,-209.5 146,-209.5 146,-190.5 17,-190.5"/>
<text text-anchor="middle" x="81.5" y="-197.5" font-family="FreeSans" font-size="10.00">boost::Assignable&lt; T &gt;</text>
</a>
</g>
</g>
<!-- Node3&#45;&gt;Node2 -->
<g id="edge3" class="edge"><title>Node3&#45;&gt;Node2</title>
<path fill="none" stroke="midnightblue" d="M81.5,-180.235C81.5,-171.586 81.5,-161.497 81.5,-153.523"/>
<polygon fill="midnightblue" stroke="midnightblue" points="78.0001,-180.475 81.5,-190.475 85.0001,-180.475 78.0001,-180.475"/>
</g>
</g>
</svg>
