<?xml version="1.0" encoding="UTF-8" standalone="no"?>
<!DOCTYPE svg PUBLIC "-//W3C//DTD SVG 1.1//EN"
 "http://www.w3.org/Graphics/SVG/1.1/DTD/svg11.dtd">
<!-- Generated by graphviz version 2.36.0 (20140111.2315)
 -->
<!-- Title: DGtal::concepts::C3DParametricCurveDecorator&lt; T &gt; Pages: 1 -->
<svg width="265pt" height="178pt"
 viewBox="0.00 0.00 265.00 178.00" xmlns="http://www.w3.org/2000/svg" xmlns:xlink="http://www.w3.org/1999/xlink">
<g id="graph0" class="graph" transform="scale(1 1) rotate(0) translate(4 174)">
<title>DGtal::concepts::C3DParametricCurveDecorator&lt; T &gt;</title>
<polygon fill="white" stroke="none" points="-4,4 -4,-174 261,-174 261,4 -4,4"/>
<!-- Node2 -->
<g id="node1" class="node"><title>Node2</title>
<polygon fill="#bfbfbf" stroke="black" points="-0.5,-1 -0.5,-31 170.5,-31 170.5,-1 -0.5,-1"/>
<text text-anchor="start" x="7.5" y="-19" font-family="FreeSans" font-size="10.00">DGtal::concepts::C3DParametric</text>
<text text-anchor="middle" x="85" y="-8" font-family="FreeSans" font-size="10.00">CurveDecorator&lt; T &gt;</text>
</g>
<!-- Node3 -->
<g id="node2" class="node"><title>Node3</title>
<g id="a_node2"><a xlink:href="structDGtal_1_1concepts_1_1C3DParametricCurve.html" target="_top" xlink:title="Aim: ">
<polygon fill="white" stroke="black" points="86.5,-71 86.5,-101 257.5,-101 257.5,-71 86.5,-71"/>
<text text-anchor="start" x="94.5" y="-89" font-family="FreeSans" font-size="10.00">DGtal::concepts::C3DParametric</text>
<text text-anchor="middle" x="172" y="-78" font-family="FreeSans" font-size="10.00">Curve&lt; T &gt;</text>
</a>
</g>
</g>
<!-- Node3&#45;&gt;Node2 -->
<g id="edge1" class="edge"><title>Node3&#45;&gt;Node2</title>
<path fill="none" stroke="midnightblue" d="M145.789,-64.5136C131.967,-53.7099 115.363,-40.7321 103.003,-31.0716"/>
<polygon fill="midnightblue" stroke="midnightblue" points="143.939,-67.5097 153.974,-70.9104 148.25,-61.9945 143.939,-67.5097"/>
</g>
<!-- Node4 -->
<g id="node3" class="node"><title>Node4</title>
<polygon fill="white" stroke="#bfbfbf" points="72.5,-150.5 72.5,-169.5 101.5,-169.5 101.5,-150.5 72.5,-150.5"/>
<text text-anchor="middle" x="87" y="-157.5" font-family="FreeSans" font-size="10.00">T</text>
</g>
<!-- Node4&#45;&gt;Node2 -->
<g id="edge3" class="edge"><title>Node4&#45;&gt;Node2</title>
<path fill="none" stroke="#9a32cd" stroke-dasharray="5,2" d="M75.1156,-141.794C68.3449,-130.922 60.5271,-116.274 57,-102 53.5884,-88.193 53.5777,-83.8043 57,-70 60.5058,-55.8589 68.5511,-41.3338 75.1224,-31.0739"/>
<polygon fill="#9a32cd" stroke="#9a32cd" points="72.2583,-143.82 80.6618,-150.272 78.1162,-139.988 72.2583,-143.82"/>
<text text-anchor="middle" x="67" y="-83.5" font-family="FreeSans" font-size="10.00"> self</text>
</g>
<!-- Node4&#45;&gt;Node3 -->
<g id="edge2" class="edge"><title>Node4&#45;&gt;Node3</title>
<path fill="none" stroke="#9a32cd" stroke-dasharray="5,2" d="M105.025,-143.732C119.854,-131.17 140.715,-113.5 155.199,-101.232"/>
<polygon fill="#9a32cd" stroke="#9a32cd" points="102.453,-141.324 97.0844,-150.458 106.977,-146.665 102.453,-141.324"/>
<text text-anchor="middle" x="142" y="-123.5" font-family="FreeSans" font-size="10.00"> self</text>
</g>
</g>
</svg>
