<?xml version="1.0" encoding="UTF-8" standalone="no"?>
<!DOCTYPE svg PUBLIC "-//W3C//DTD SVG 1.1//EN"
 "http://www.w3.org/Graphics/SVG/1.1/DTD/svg11.dtd">
<!-- Generated by graphviz version 2.36.0 (20140111.2315)
 -->
<!-- Title: DGtal::ChordNaivePlaneComputer&lt; TSpace, TInputPoint, TInternalScalar &gt;::State Pages: 1 -->
<svg width="262pt" height="288pt"
 viewBox="0.00 0.00 262.00 288.00" xmlns="http://www.w3.org/2000/svg" xmlns:xlink="http://www.w3.org/1999/xlink">
<g id="graph0" class="graph" transform="scale(1 1) rotate(0) translate(4 284)">
<title>DGtal::ChordNaivePlaneComputer&lt; TSpace, TInputPoint, TInternalScalar &gt;::State</title>
<polygon fill="white" stroke="none" points="-4,4 -4,-284 258,-284 258,4 -4,4"/>
<!-- Node1 -->
<g id="node1" class="node"><title>Node1</title>
<polygon fill="#bfbfbf" stroke="black" points="0,-0.5 0,-41.5 200,-41.5 200,-0.5 0,-0.5"/>
<text text-anchor="start" x="8" y="-29.5" font-family="FreeSans" font-size="10.00">DGtal::ChordNaivePlaneComputer</text>
<text text-anchor="start" x="8" y="-18.5" font-family="FreeSans" font-size="10.00">&lt; TSpace, TInputPoint, TInternalScalar</text>
<text text-anchor="middle" x="100" y="-7.5" font-family="FreeSans" font-size="10.00"> &gt;::State</text>
</g>
<!-- Node2 -->
<g id="node2" class="node"><title>Node2</title>
<g id="a_node2"><a xlink:href="classDGtal_1_1PointVector.html" target="_top" xlink:title="DGtal::PointVector\l\&lt; 3, InternalScalar \&gt;">
<polygon fill="white" stroke="black" points="41.5,-91 41.5,-121 158.5,-121 158.5,-91 41.5,-91"/>
<text text-anchor="start" x="49.5" y="-109" font-family="FreeSans" font-size="10.00">DGtal::PointVector</text>
<text text-anchor="middle" x="100" y="-98" font-family="FreeSans" font-size="10.00">&lt; 3, InternalScalar &gt;</text>
</a>
</g>
</g>
<!-- Node2&#45;&gt;Node1 -->
<g id="edge1" class="edge"><title>Node2&#45;&gt;Node1</title>
<path fill="none" stroke="#9a32cd" stroke-dasharray="5,2" d="M100,-80.8051C100,-68.3941 100,-53.4676 100,-41.7587"/>
<polygon fill="#9a32cd" stroke="#9a32cd" points="96.5001,-80.9201 100,-90.9202 103.5,-80.9202 96.5001,-80.9201"/>
<text text-anchor="middle" x="105.5" y="-63.5" font-family="FreeSans" font-size="10.00"> N</text>
</g>
<!-- Node3 -->
<g id="node3" class="node"><title>Node3</title>
<polygon fill="white" stroke="#bfbfbf" points="28,-260.5 28,-279.5 96,-279.5 96,-260.5 28,-260.5"/>
<text text-anchor="middle" x="62" y="-267.5" font-family="FreeSans" font-size="10.00">TContainer</text>
</g>
<!-- Node3&#45;&gt;Node2 -->
<g id="edge2" class="edge"><title>Node3&#45;&gt;Node2</title>
<path fill="none" stroke="#9a32cd" stroke-dasharray="5,2" d="M49.5999,-251.871C36.6855,-231.782 19.8998,-197.706 32,-170 41.0821,-149.205 60.7881,-132.205 76.6601,-121.129"/>
<polygon fill="#9a32cd" stroke="#9a32cd" points="46.7995,-253.978 55.3142,-260.282 52.5896,-250.044 46.7995,-253.978"/>
<text text-anchor="middle" x="54" y="-188.5" font-family="FreeSans" font-size="10.00"> myArray</text>
</g>
<!-- Node4 -->
<g id="node4" class="node"><title>Node4</title>
<g id="a_node4"><a xlink:href="classDGtal_1_1PointVector.html" target="_top" xlink:title="Aim: Implements basic operations that will be used in Point and Vector classes. ">
<polygon fill="white" stroke="black" points="85,-170.5 85,-211.5 211,-211.5 211,-170.5 85,-170.5"/>
<text text-anchor="start" x="93" y="-199.5" font-family="FreeSans" font-size="10.00">DGtal::PointVector</text>
<text text-anchor="start" x="93" y="-188.5" font-family="FreeSans" font-size="10.00">&lt; dim, TEuclideanRing,</text>
<text text-anchor="middle" x="148" y="-177.5" font-family="FreeSans" font-size="10.00"> TContainer &gt;</text>
</a>
</g>
</g>
<!-- Node3&#45;&gt;Node4 -->
<g id="edge4" class="edge"><title>Node3&#45;&gt;Node4</title>
<path fill="none" stroke="#9a32cd" stroke-dasharray="5,2" d="M79.1173,-253.674C92.5516,-241.646 111.354,-224.811 125.921,-211.768"/>
<polygon fill="#9a32cd" stroke="#9a32cd" points="76.6476,-251.187 71.5321,-260.465 81.3169,-256.402 76.6476,-251.187"/>
<text text-anchor="middle" x="127" y="-233.5" font-family="FreeSans" font-size="10.00"> myArray</text>
</g>
<!-- Node4&#45;&gt;Node2 -->
<g id="edge3" class="edge"><title>Node4&#45;&gt;Node2</title>
<path fill="none" stroke="#9a32cd" stroke-dasharray="5,2" d="M108.375,-162.935C105.468,-159.571 102.926,-155.92 101,-152 96.3147,-142.461 96.3253,-130.357 97.3648,-121.105"/>
<polygon fill="#9a32cd" stroke="#9a32cd" points="106.154,-165.664 115.702,-170.258 111.103,-160.713 106.154,-165.664"/>
<text text-anchor="middle" x="113.5" y="-143.5" font-family="FreeSans" font-size="10.00"> zero</text>
</g>
<!-- Node4&#45;&gt;Node2 -->
<g id="edge6" class="edge"><title>Node4&#45;&gt;Node2</title>
<path fill="none" stroke="orange" stroke-dasharray="5,2" d="M136.773,-161.114C133.622,-154.032 129.962,-146.595 126,-140 122.094,-133.497 117.071,-126.832 112.482,-121.209"/>
<polygon fill="orange" stroke="orange" points="133.604,-162.605 140.737,-170.439 140.046,-159.867 133.604,-162.605"/>
<text text-anchor="middle" x="184" y="-143.5" font-family="FreeSans" font-size="10.00"> &lt; 3, InternalScalar &gt;</text>
</g>
<!-- Node4&#45;&gt;Node4 -->
<g id="edge5" class="edge"><title>Node4&#45;&gt;Node4</title>
<path fill="none" stroke="#9a32cd" stroke-dasharray="5,2" d="M221.09,-196.937C226.012,-195.566 229,-193.588 229,-191 229,-186.961 221.719,-184.405 211.168,-183.332"/>
<polygon fill="#9a32cd" stroke="#9a32cd" points="220.418,-193.501 211.168,-198.668 221.621,-200.397 220.418,-193.501"/>
<text text-anchor="middle" x="241.5" y="-188.5" font-family="FreeSans" font-size="10.00"> zero</text>
</g>
</g>
</svg>
