<?xml version="1.0" encoding="UTF-8" standalone="no"?>
<!DOCTYPE svg PUBLIC "-//W3C//DTD SVG 1.1//EN"
 "http://www.w3.org/Graphics/SVG/1.1/DTD/svg11.dtd">
<!-- Generated by graphviz version 2.38.0 (20140413.2041)
 -->
<!-- Title: DGtal::CustomColors3D Pages: 1 -->
<svg width="341pt" height="207pt"
 viewBox="0.00 0.00 340.50 207.00" xmlns="http://www.w3.org/2000/svg" xmlns:xlink="http://www.w3.org/1999/xlink">
<g id="graph0" class="graph" transform="scale(1 1) rotate(0) translate(4 203)">
<title>DGtal::CustomColors3D</title>
<polygon fill="white" stroke="none" points="-4,4 -4,-203 336.5,-203 336.5,4 -4,4"/>
<!-- Node2 -->
<g id="node1" class="node"><title>Node2</title>
<polygon fill="#bfbfbf" stroke="black" points="68,-0.5 68,-19.5 199,-19.5 199,-0.5 68,-0.5"/>
<text text-anchor="middle" x="133.5" y="-7.5" font-family="FreeSans" font-size="10.00">DGtal::CustomColors3D</text>
</g>
<!-- Node3 -->
<g id="node2" class="node"><title>Node3</title>
<g id="a_node2"><a xlink:href="structDGtal_1_1DrawWithDisplay3DModifier.html" target="_top" xlink:title="Base class specifying the methods for classes which intend to modify a Viewer3D stream. ">
<polygon fill="white" stroke="black" points="0,-129 0,-148 179,-148 179,-129 0,-129"/>
<text text-anchor="middle" x="89.5" y="-136" font-family="FreeSans" font-size="10.00">DGtal::DrawWithDisplay3DModifier</text>
</a>
</g>
</g>
<!-- Node3&#45;&gt;Node2 -->
<g id="edge1" class="edge"><title>Node3&#45;&gt;Node2</title>
<path fill="none" stroke="midnightblue" d="M95.874,-119.175C105.49,-91.5296 123.337,-40.2184 130.455,-19.7557"/>
<polygon fill="midnightblue" stroke="midnightblue" points="92.5038,-118.21 92.5243,-128.805 99.1153,-120.51 92.5038,-118.21"/>
</g>
<!-- Node4 -->
<g id="node3" class="node"><title>Node4</title>
<g id="a_node3"><a xlink:href="classDGtal_1_1Color.html" target="_top" xlink:title="Structure representing an RGB triple with alpha component. ">
<polygon fill="white" stroke="black" points="197.5,-129 197.5,-148 271.5,-148 271.5,-129 197.5,-129"/>
<text text-anchor="middle" x="234.5" y="-136" font-family="FreeSans" font-size="10.00">DGtal::Color</text>
</a>
</g>
</g>
<!-- Node4&#45;&gt;Node2 -->
<g id="edge2" class="edge"><title>Node4&#45;&gt;Node2</title>
<path fill="none" stroke="#9a32cd" stroke-dasharray="5,2" d="M221.79,-120.792C212.625,-108.81 199.911,-92.3224 188.5,-78 171.62,-56.8136 151.287,-32.2968 140.701,-19.6072"/>
<polygon fill="#9a32cd" stroke="#9a32cd" points="219.178,-123.138 228.026,-128.966 224.743,-118.892 219.178,-123.138"/>
<text text-anchor="middle" x="205" y="-52" font-family="FreeSans" font-size="10.00"> myPenColor</text>
<text text-anchor="middle" x="205" y="-41" font-family="FreeSans" font-size="10.00">myFillColor</text>
</g>
<!-- Node4&#45;&gt;Node4 -->
<g id="edge3" class="edge"><title>Node4&#45;&gt;Node4</title>
<path fill="none" stroke="#9a32cd" stroke-dasharray="5,2" d="M254.799,-152.479C271.767,-158.459 289.5,-153.8 289.5,-138.5 289.5,-120.367 264.591,-117.18 245.569,-128.938"/>
<polygon fill="#9a32cd" stroke="#9a32cd" points="256.1,-149.222 245.569,-148.062 253.078,-155.536 256.1,-149.222"/>
<text text-anchor="middle" x="311" y="-191" font-family="FreeSans" font-size="10.00"> Yellow</text>
<text text-anchor="middle" x="311" y="-180" font-family="FreeSans" font-size="10.00">Lime</text>
<text text-anchor="middle" x="311" y="-169" font-family="FreeSans" font-size="10.00">Navy</text>
<text text-anchor="middle" x="311" y="-158" font-family="FreeSans" font-size="10.00">Magenta</text>
<text text-anchor="middle" x="311" y="-147" font-family="FreeSans" font-size="10.00">White</text>
<text text-anchor="middle" x="311" y="-136" font-family="FreeSans" font-size="10.00">None</text>
<text text-anchor="middle" x="311" y="-125" font-family="FreeSans" font-size="10.00">Blue</text>
<text text-anchor="middle" x="311" y="-114" font-family="FreeSans" font-size="10.00">Aqua</text>
<text text-anchor="middle" x="311" y="-103" font-family="FreeSans" font-size="10.00">Purple</text>
<text text-anchor="middle" x="311" y="-92" font-family="FreeSans" font-size="10.00">Silver</text>
<text text-anchor="middle" x="311" y="-81" font-family="FreeSans" font-size="10.00">...</text>
</g>
</g>
</svg>
