<?xml version="1.0" encoding="UTF-8" standalone="no"?>
<!DOCTYPE svg PUBLIC "-//W3C//DTD SVG 1.1//EN"
 "http://www.w3.org/Graphics/SVG/1.1/DTD/svg11.dtd">
<!-- Generated by graphviz version 2.38.0 (20140413.2041)
 -->
<!-- Title: DGtal::concepts::CCommutativeRing&lt; T &gt; Pages: 1 -->
<!--zoomable 140 -->
<svg id="main" version="1.1" xmlns="http://www.w3.org/2000/svg" xmlns:xlink="http://www.w3.org/1999/xlink" xml:space="preserve" onload="init(evt)">
<style type="text/css"><![CDATA[
.edge:hover path { stroke: red; }
.edge:hover polygon { stroke: red; fill: red; }
]]></style>
<script type="text/javascript"><![CDATA[
var edges = document.getElementsByTagName('g');
if (edges && edges.length) {
  for (var i=0;i<edges.length;i++) {
    if (edges[i].id.substr(0,4)=='edge') {
      edges[i].setAttribute('class','edge');
    }
  }
}
]]></script>
        <defs>
                <circle id="rim" cx="0" cy="0" r="7"/>
                <circle id="rim2" cx="0" cy="0" r="3.5"/>
                <g id="zoomPlus">
                        <use xlink:href="#rim" fill="#404040">
                                <set attributeName="fill" to="#808080" begin="zoomplus.mouseover" end="zoomplus.mouseout"/>
                        </use>
                        <path d="M-4,0h8M0,-4v8" fill="none" stroke="white" stroke-width="1.5" pointer-events="none"/>
                </g>
                <g id="zoomMin">
                        <use xlink:href="#rim" fill="#404040">
                                <set attributeName="fill" to="#808080" begin="zoomminus.mouseover" end="zoomminus.mouseout"/>
                        </use>
                        <path d="M-4,0h8" fill="none" stroke="white" stroke-width="1.5" pointer-events="none"/>
                </g>
                <g id="dirArrow">
                        <path fill="none" stroke="white" stroke-width="1.5" d="M0,-3.0v7 M-2.5,-0.5L0,-3.0L2.5,-0.5"/>
                </g>
               <g id="resetDef">
                       <use xlink:href="#rim2" fill="#404040">
                               <set attributeName="fill" to="#808080" begin="reset.mouseover" end="reset.mouseout"/>
                       </use>
               </g>
        </defs>

<script type="text/javascript">
var viewWidth = 1005;
var viewHeight = 140;
var sectionId = 'dynsection-1';
</script>
<script xlink:href="svgpan.js"/>
<svg id="graph" class="graph">
<g id="viewport">
<title>DGtal::concepts::CCommutativeRing&lt; T &gt;</title>
<polygon fill="white" stroke="none" points="-4,4 -4,-136 1001,-136 1001,4 -4,4"/>
<!-- Node10 -->
<g id="node1" class="node"><title>Node10</title>
<polygon fill="#bfbfbf" stroke="black" points="826,-19 826,-49 997,-49 997,-19 826,-19"/>
<text text-anchor="start" x="834" y="-37" font-family="FreeSans" font-size="10.00">DGtal::concepts::CCommutative</text>
<text text-anchor="middle" x="911.5" y="-26" font-family="FreeSans" font-size="10.00">Ring&lt; T &gt;</text>
</g>
<!-- Node11 -->
<g id="node2" class="node"><title>Node11</title>
<g id="a_node2"><a xlink:href="structDGtal_1_1concepts_1_1CSignedNumber.html" target="_top" xlink:title="Aim: Concept checking for Signed Numbers. Models of this concept should be listed in NumberTraits cla...">
<polygon fill="white" stroke="black" points="641,-43 641,-73 780,-73 780,-43 641,-43"/>
<text text-anchor="start" x="649" y="-61" font-family="FreeSans" font-size="10.00">DGtal::concepts::CSigned</text>
<text text-anchor="middle" x="710.5" y="-50" font-family="FreeSans" font-size="10.00">Number&lt; T &gt;</text>
</a>
</g>
</g>
<!-- Node11&#45;&gt;Node10 -->
<g id="edge1" class="edge"><title>Node11&#45;&gt;Node10</title>
<path fill="none" stroke="midnightblue" d="M790.402,-48.4842C802.075,-47.0764 814.144,-45.6209 825.926,-44.1998"/>
<polygon fill="midnightblue" stroke="midnightblue" points="789.772,-45.0347 780.263,-49.707 790.61,-51.9843 789.772,-45.0347"/>
</g>
<!-- Node12 -->
<g id="node3" class="node"><title>Node12</title>
<g id="a_node3"><a xlink:href="structDGtal_1_1concepts_1_1CQuantity.html" target="_top" xlink:title="Aim: defines the concept of quantity in DGtal. ">
<polygon fill="white" stroke="black" points="430,-48.5 430,-67.5 604,-67.5 604,-48.5 430,-48.5"/>
<text text-anchor="middle" x="517" y="-55.5" font-family="FreeSans" font-size="10.00">DGtal::concepts::CQuantity&lt; T &gt;</text>
</a>
</g>
</g>
<!-- Node12&#45;&gt;Node11 -->
<g id="edge2" class="edge"><title>Node12&#45;&gt;Node11</title>
<path fill="none" stroke="midnightblue" d="M614.355,-58C623.339,-58 632.315,-58 640.968,-58"/>
<polygon fill="midnightblue" stroke="midnightblue" points="614.226,-54.5001 604.226,-58 614.226,-61.5001 614.226,-54.5001"/>
</g>
<!-- Node13 -->
<g id="node4" class="node"><title>Node13</title>
<g id="a_node4"><a xlink:href="structDGtal_1_1concepts_1_1CLabel.html" target="_top" xlink:title="Aim: Define the concept of DGtal labels. Models of CLabel can be default&#45;constructible, assignable and equality comparable. ">
<polygon fill="white" stroke="black" points="223,-74.5 223,-93.5 382,-93.5 382,-74.5 223,-74.5"/>
<text text-anchor="middle" x="302.5" y="-81.5" font-family="FreeSans" font-size="10.00">DGtal::concepts::CLabel&lt; T &gt;</text>
</a>
</g>
</g>
<!-- Node13&#45;&gt;Node12 -->
<g id="edge3" class="edge"><title>Node13&#45;&gt;Node12</title>
<path fill="none" stroke="midnightblue" d="M391.487,-73.2346C406.943,-71.3434 422.931,-69.3873 438.089,-67.5327"/>
<polygon fill="midnightblue" stroke="midnightblue" points="390.921,-69.7775 381.421,-74.4662 391.772,-76.7257 390.921,-69.7775"/>
</g>
<!-- Node14 -->
<g id="node5" class="node"><title>Node14</title>
<g id="a_node5"><a xlink:href="structboost_1_1DefaultConstructible.html" target="_top" xlink:title="Go to http://www.sgi.com/tech/stl/DefaultConstructible.html. ">
<polygon fill="white" stroke="black" points="0,-112.5 0,-131.5 175,-131.5 175,-112.5 0,-112.5"/>
<text text-anchor="middle" x="87.5" y="-119.5" font-family="FreeSans" font-size="10.00">boost::DefaultConstructible&lt; T &gt;</text>
</a>
</g>
</g>
<!-- Node14&#45;&gt;Node13 -->
<g id="edge4" class="edge"><title>Node14&#45;&gt;Node13</title>
<path fill="none" stroke="midnightblue" d="M152.103,-110.653C182.663,-105.201 218.882,-98.7393 248.004,-93.5439"/>
<polygon fill="midnightblue" stroke="midnightblue" points="151.204,-107.258 141.974,-112.46 152.433,-114.149 151.204,-107.258"/>
</g>
<!-- Node15 -->
<g id="node6" class="node"><title>Node15</title>
<g id="a_node6"><a xlink:href="structboost_1_1Assignable.html" target="_top" xlink:title="Go to http://www.sgi.com/tech/stl/Assignable.html. ">
<polygon fill="white" stroke="black" points="23,-74.5 23,-93.5 152,-93.5 152,-74.5 23,-74.5"/>
<text text-anchor="middle" x="87.5" y="-81.5" font-family="FreeSans" font-size="10.00">boost::Assignable&lt; T &gt;</text>
</a>
</g>
</g>
<!-- Node15&#45;&gt;Node13 -->
<g id="edge5" class="edge"><title>Node15&#45;&gt;Node13</title>
<path fill="none" stroke="midnightblue" d="M162.18,-84C181.737,-84 202.93,-84 222.745,-84"/>
<polygon fill="midnightblue" stroke="midnightblue" points="162.119,-80.5001 152.119,-84 162.118,-87.5001 162.119,-80.5001"/>
</g>
<!-- Node16 -->
<g id="node7" class="node"><title>Node16</title>
<g id="a_node7"><a xlink:href="structboost_1_1EqualityComparable.html" target="_top" xlink:title="Go to http://www.sgi.com/tech/stl/EqualityComparable.html. ">
<polygon fill="white" stroke="black" points="1,-36.5 1,-55.5 174,-55.5 174,-36.5 1,-36.5"/>
<text text-anchor="middle" x="87.5" y="-43.5" font-family="FreeSans" font-size="10.00">boost::EqualityComparable&lt; T &gt;</text>
</a>
</g>
</g>
<!-- Node16&#45;&gt;Node13 -->
<g id="edge6" class="edge"><title>Node16&#45;&gt;Node13</title>
<path fill="none" stroke="midnightblue" d="M152.103,-57.347C182.663,-62.7991 218.882,-69.2607 248.004,-74.4561"/>
<polygon fill="midnightblue" stroke="midnightblue" points="152.433,-53.8507 141.974,-55.54 151.204,-60.7419 152.433,-53.8507"/>
</g>
<!-- Node17 -->
<g id="node8" class="node"><title>Node17</title>
<g id="a_node8"><a xlink:href="structboost_1_1LessThanComparable.html" target="_top" xlink:title="Go to http://www.sgi.com/tech/stl/LessThanComparable.html. ">
<polygon fill="white" stroke="black" points="212,-36.5 212,-55.5 393,-55.5 393,-36.5 212,-36.5"/>
<text text-anchor="middle" x="302.5" y="-43.5" font-family="FreeSans" font-size="10.00">boost::LessThanComparable&lt; T &gt;</text>
</a>
</g>
</g>
<!-- Node17&#45;&gt;Node12 -->
<g id="edge7" class="edge"><title>Node17&#45;&gt;Node12</title>
<path fill="none" stroke="midnightblue" d="M403.107,-51.6249C412.092,-52.1322 421.14,-52.6432 429.994,-53.1432"/>
<polygon fill="midnightblue" stroke="midnightblue" points="403.185,-48.1238 393.003,-51.0543 402.79,-55.1126 403.185,-48.1238"/>
</g>
<!-- Node18 -->
<g id="node9" class="node"><title>Node18</title>
<polygon fill="white" stroke="#bfbfbf" points="696,-0.5 696,-19.5 725,-19.5 725,-0.5 696,-0.5"/>
<text text-anchor="middle" x="710.5" y="-7.5" font-family="FreeSans" font-size="10.00">T</text>
</g>
<!-- Node18&#45;&gt;Node10 -->
<g id="edge8" class="edge"><title>Node18&#45;&gt;Node10</title>
<path fill="none" stroke="#9a32cd" stroke-dasharray="5,2" d="M735.456,-8.4775C755.036,-7.59825 783.4,-7.15841 808,-10 823.977,-11.8455 841.082,-15.2582 856.651,-18.9425"/>
<polygon fill="#9a32cd" stroke="#9a32cd" points="735.104,-4.99107 725.3,-9.00875 735.469,-11.9815 735.104,-4.99107"/>
<text text-anchor="middle" x="803" y="-35" font-family="FreeSans" font-size="10.00"> a</text>
<text text-anchor="middle" x="803" y="-24" font-family="FreeSans" font-size="10.00">b</text>
<text text-anchor="middle" x="803" y="-13" font-family="FreeSans" font-size="10.00">c</text>
</g>
</g>
</svg>
        <g id="navigator" transform="translate(0 0)" fill="#404254">
                <rect fill="#f2f5e9" fill-opacity="0.5" stroke="#606060" stroke-width=".5" x="0" y="0" width="60" height="60"/>
                <use id="zoomplus" xlink:href="#zoomPlus" x="17" y="9" onmousedown="handleZoom(evt,'in')"/>
                <use id="zoomminus" xlink:href="#zoomMin" x="42" y="9" onmousedown="handleZoom(evt,'out')"/>
                <use id="reset" xlink:href="#resetDef" x="30" y="36" onmousedown="handleReset()"/>
                <g id="arrowUp" xlink:href="#dirArrow" transform="translate(30 24)" onmousedown="handlePan(0,-1)">
                  <use xlink:href="#rim" fill="#404040">
                        <set attributeName="fill" to="#808080" begin="arrowUp.mouseover" end="arrowUp.mouseout"/>
                  </use>
                  <path fill="none" stroke="white" stroke-width="1.5" d="M0,-3.0v7 M-2.5,-0.5L0,-3.0L2.5,-0.5"/>
                </g>
                <g id="arrowRight" xlink:href="#dirArrow" transform="rotate(90) translate(36 -43)" onmousedown="handlePan(1,0)">
                  <use xlink:href="#rim" fill="#404040">
                        <set attributeName="fill" to="#808080" begin="arrowRight.mouseover" end="arrowRight.mouseout"/>
                  </use>
                  <path fill="none" stroke="white" stroke-width="1.5" d="M0,-3.0v7 M-2.5,-0.5L0,-3.0L2.5,-0.5"/>
                </g>
                <g id="arrowDown" xlink:href="#dirArrow" transform="rotate(180) translate(-30 -48)" onmousedown="handlePan(0,1)">
                  <use xlink:href="#rim" fill="#404040">
                        <set attributeName="fill" to="#808080" begin="arrowDown.mouseover" end="arrowDown.mouseout"/>
                  </use>
                  <path fill="none" stroke="white" stroke-width="1.5" d="M0,-3.0v7 M-2.5,-0.5L0,-3.0L2.5,-0.5"/>
                </g>
                <g id="arrowLeft" xlink:href="#dirArrow" transform="rotate(270) translate(-36 17)" onmousedown="handlePan(-1,0)">
                  <use xlink:href="#rim" fill="#404040">
                        <set attributeName="fill" to="#808080" begin="arrowLeft.mouseover" end="arrowLeft.mouseout"/>
                  </use>
                  <path fill="none" stroke="white" stroke-width="1.5" d="M0,-3.0v7 M-2.5,-0.5L0,-3.0L2.5,-0.5"/>
                </g>
        </g>
        <svg viewBox="0 0 15 15" width="100%" height="30px" preserveAspectRatio="xMaxYMin meet">
         <g id="arrow_out" transform="scale(0.3 0.3)">
          <a xlink:href="structDGtal_1_1concepts_1_1CCommutativeRing__coll__graph_org.svg" target="_base">
           <rect id="button" ry="5" rx="5" y="6" x="6" height="38" width="38"
                fill="#f2f5e9" fill-opacity="0.5" stroke="#606060" stroke-width="1.0"/>
           <path id="arrow"
             d="M 11.500037,31.436501 C 11.940474,20.09759 22.043105,11.32322 32.158766,21.979434 L 37.068811,17.246167 C 37.068811,17.246167 37.088388,32 37.088388,32 L 22.160133,31.978069 C 22.160133,31.978069 26.997745,27.140456 26.997745,27.140456 C 18.528582,18.264221 13.291696,25.230495 11.500037,31.436501 z"
             style="fill:#404040;"/>
          </a>
         </g>
        </svg>
</svg>
