<?xml version="1.0" encoding="UTF-8" standalone="no"?>
<!DOCTYPE svg PUBLIC "-//W3C//DTD SVG 1.1//EN"
 "http://www.w3.org/Graphics/SVG/1.1/DTD/svg11.dtd">
<!-- Generated by graphviz version 2.36.0 (20140111.2315)
 -->
<!-- Title: DGtal::concepts::CBoundedNumber&lt; T &gt; Pages: 1 -->
<svg width="828pt" height="123pt"
 viewBox="0.00 0.00 828.00 123.00" xmlns="http://www.w3.org/2000/svg" xmlns:xlink="http://www.w3.org/1999/xlink">
<g id="graph0" class="graph" transform="scale(1 1) rotate(0) translate(4 119)">
<title>DGtal::concepts::CBoundedNumber&lt; T &gt;</title>
<polygon fill="white" stroke="none" points="-4,4 -4,-119 824,-119 824,4 -4,4"/>
<!-- Node7 -->
<g id="node1" class="node"><title>Node7</title>
<polygon fill="#bfbfbf" stroke="black" points="670.5,-11 670.5,-41 819.5,-41 819.5,-11 670.5,-11"/>
<text text-anchor="start" x="678.5" y="-29" font-family="FreeSans" font-size="10.00">DGtal::concepts::CBounded</text>
<text text-anchor="middle" x="745" y="-18" font-family="FreeSans" font-size="10.00">Number&lt; T &gt;</text>
</g>
<!-- Node8 -->
<g id="node2" class="node"><title>Node8</title>
<g id="a_node2"><a xlink:href="structDGtal_1_1concepts_1_1CQuantity.html" target="_top" xlink:title="Aim: defines the concept of quantity in DGtal. ">
<polygon fill="white" stroke="black" points="434,-38.5 434,-57.5 608,-57.5 608,-38.5 434,-38.5"/>
<text text-anchor="middle" x="521" y="-45.5" font-family="FreeSans" font-size="10.00">DGtal::concepts::CQuantity&lt; T &gt;</text>
</a>
</g>
</g>
<!-- Node8&#45;&gt;Node7 -->
<g id="edge1" class="edge"><title>Node8&#45;&gt;Node7</title>
<path fill="none" stroke="midnightblue" d="M618.31,-38.4558C635.685,-36.7339 653.55,-34.9636 670.159,-33.3176"/>
<polygon fill="midnightblue" stroke="midnightblue" points="617.755,-34.9935 608.149,-39.4627 618.445,-41.9594 617.755,-34.9935"/>
</g>
<!-- Node9 -->
<g id="node3" class="node"><title>Node9</title>
<g id="a_node3"><a xlink:href="structDGtal_1_1concepts_1_1CLabel.html" target="_top" xlink:title="Aim: Define the concept of DGtal labels. Models of CLabel can be default&#45;constructible, assignable and equality comparable. ">
<polygon fill="white" stroke="black" points="225.5,-57.5 225.5,-76.5 384.5,-76.5 384.5,-57.5 225.5,-57.5"/>
<text text-anchor="middle" x="305" y="-64.5" font-family="FreeSans" font-size="10.00">DGtal::concepts::CLabel&lt; T &gt;</text>
</a>
</g>
</g>
<!-- Node9&#45;&gt;Node8 -->
<g id="edge2" class="edge"><title>Node9&#45;&gt;Node8</title>
<path fill="none" stroke="midnightblue" d="M394.986,-59.0994C407.832,-57.9588 421.036,-56.7865 433.826,-55.6509"/>
<polygon fill="midnightblue" stroke="midnightblue" points="394.425,-55.6353 384.774,-60.006 395.044,-62.6079 394.425,-55.6353"/>
</g>
<!-- Node10 -->
<g id="node4" class="node"><title>Node10</title>
<g id="a_node4"><a xlink:href="structboost_1_1DefaultConstructible.html" target="_top" xlink:title="Go to http://www.sgi.com/tech/stl/DefaultConstructible.html. ">
<polygon fill="white" stroke="black" points="0.5,-95.5 0.5,-114.5 175.5,-114.5 175.5,-95.5 0.5,-95.5"/>
<text text-anchor="middle" x="88" y="-102.5" font-family="FreeSans" font-size="10.00">boost::DefaultConstructible&lt; T &gt;</text>
</a>
</g>
</g>
<!-- Node10&#45;&gt;Node9 -->
<g id="edge3" class="edge"><title>Node10&#45;&gt;Node9</title>
<path fill="none" stroke="midnightblue" d="M153.2,-93.653C184.047,-88.2009 220.606,-81.7393 250.002,-76.5439"/>
<polygon fill="midnightblue" stroke="midnightblue" points="152.214,-90.2729 142.976,-95.46 153.433,-97.1661 152.214,-90.2729"/>
</g>
<!-- Node11 -->
<g id="node5" class="node"><title>Node11</title>
<g id="a_node5"><a xlink:href="structboost_1_1Assignable.html" target="_top" xlink:title="Go to http://www.sgi.com/tech/stl/Assignable.html. ">
<polygon fill="white" stroke="black" points="23.5,-57.5 23.5,-76.5 152.5,-76.5 152.5,-57.5 23.5,-57.5"/>
<text text-anchor="middle" x="88" y="-64.5" font-family="FreeSans" font-size="10.00">boost::Assignable&lt; T &gt;</text>
</a>
</g>
</g>
<!-- Node11&#45;&gt;Node9 -->
<g id="edge4" class="edge"><title>Node11&#45;&gt;Node9</title>
<path fill="none" stroke="midnightblue" d="M162.696,-67C182.879,-67 204.83,-67 225.282,-67"/>
<polygon fill="midnightblue" stroke="midnightblue" points="162.634,-63.5001 152.634,-67 162.634,-70.5001 162.634,-63.5001"/>
</g>
<!-- Node12 -->
<g id="node6" class="node"><title>Node12</title>
<g id="a_node6"><a xlink:href="structboost_1_1EqualityComparable.html" target="_top" xlink:title="Go to http://www.sgi.com/tech/stl/EqualityComparable.html. ">
<polygon fill="white" stroke="black" points="1.5,-19.5 1.5,-38.5 174.5,-38.5 174.5,-19.5 1.5,-19.5"/>
<text text-anchor="middle" x="88" y="-26.5" font-family="FreeSans" font-size="10.00">boost::EqualityComparable&lt; T &gt;</text>
</a>
</g>
</g>
<!-- Node12&#45;&gt;Node9 -->
<g id="edge5" class="edge"><title>Node12&#45;&gt;Node9</title>
<path fill="none" stroke="midnightblue" d="M153.2,-40.347C184.047,-45.7991 220.606,-52.2607 250.002,-57.4561"/>
<polygon fill="midnightblue" stroke="midnightblue" points="153.433,-36.8339 142.976,-38.54 152.214,-43.7271 153.433,-36.8339"/>
</g>
<!-- Node13 -->
<g id="node7" class="node"><title>Node13</title>
<g id="a_node7"><a xlink:href="structboost_1_1LessThanComparable.html" target="_top" xlink:title="Go to http://www.sgi.com/tech/stl/LessThanComparable.html. ">
<polygon fill="white" stroke="black" points="214.5,-19.5 214.5,-38.5 395.5,-38.5 395.5,-19.5 214.5,-19.5"/>
<text text-anchor="middle" x="305" y="-26.5" font-family="FreeSans" font-size="10.00">boost::LessThanComparable&lt; T &gt;</text>
</a>
</g>
</g>
<!-- Node13&#45;&gt;Node8 -->
<g id="edge6" class="edge"><title>Node13&#45;&gt;Node8</title>
<path fill="none" stroke="midnightblue" d="M405.704,-37.8522C415.134,-38.6894 424.639,-39.5334 433.926,-40.3579"/>
<polygon fill="midnightblue" stroke="midnightblue" points="405.786,-34.3458 395.515,-36.9476 405.167,-41.3184 405.786,-34.3458"/>
</g>
<!-- Node14 -->
<g id="node8" class="node"><title>Node14</title>
<polygon fill="white" stroke="#bfbfbf" points="506.5,-0.5 506.5,-19.5 535.5,-19.5 535.5,-0.5 506.5,-0.5"/>
<text text-anchor="middle" x="521" y="-7.5" font-family="FreeSans" font-size="10.00">T</text>
</g>
<!-- Node14&#45;&gt;Node7 -->
<g id="edge7" class="edge"><title>Node14&#45;&gt;Node7</title>
<path fill="none" stroke="#9a32cd" stroke-dasharray="5,2" d="M545.742,-10.9665C571.82,-12.1008 614.926,-14.1898 652,-17 657.921,-17.4488 664.052,-17.9559 670.209,-18.495"/>
<polygon fill="#9a32cd" stroke="#9a32cd" points="545.815,-7.46653 535.676,-10.5395 545.518,-14.4602 545.815,-7.46653"/>
<text text-anchor="middle" x="639" y="-20" font-family="FreeSans" font-size="10.00"> myX</text>
</g>
</g>
</svg>
