<?xml version="1.0" encoding="UTF-8" standalone="no"?>
<!DOCTYPE svg PUBLIC "-//W3C//DTD SVG 1.1//EN"
 "http://www.w3.org/Graphics/SVG/1.1/DTD/svg11.dtd">
<!-- Generated by graphviz version 2.38.0 (20140413.2041)
 -->
<!-- Title: DGtal::concepts::CSinglePassRangeFromPoint&lt; T &gt; Pages: 1 -->
<svg width="550pt" height="88pt"
 viewBox="0.00 0.00 550.00 88.00" xmlns="http://www.w3.org/2000/svg" xmlns:xlink="http://www.w3.org/1999/xlink">
<g id="graph0" class="graph" transform="scale(1 1) rotate(0) translate(4 84)">
<title>DGtal::concepts::CSinglePassRangeFromPoint&lt; T &gt;</title>
<polygon fill="white" stroke="none" points="-4,4 -4,-84 546,-84 546,4 -4,4"/>
<!-- Node0 -->
<g id="node1" class="node"><title>Node0</title>
<polygon fill="#bfbfbf" stroke="black" points="398,-24.5 398,-54.5 542,-54.5 542,-24.5 398,-24.5"/>
<text text-anchor="start" x="406" y="-42.5" font-family="FreeSans" font-size="10.00">DGtal::concepts::CSingle</text>
<text text-anchor="middle" x="470" y="-31.5" font-family="FreeSans" font-size="10.00">PassRangeFromPoint&lt; T &gt;</text>
</g>
<!-- Node1 -->
<g id="node2" class="node"><title>Node1</title>
<g id="a_node2"><a xlink:href="structDGtal_1_1concepts_1_1CSinglePassRange.html" target="_top" xlink:title="Aim: Defines the concept describing a range. ">
<polygon fill="white" stroke="black" points="213,-49.5 213,-79.5 348,-79.5 348,-49.5 213,-49.5"/>
<text text-anchor="start" x="221" y="-67.5" font-family="FreeSans" font-size="10.00">DGtal::concepts::CSingle</text>
<text text-anchor="middle" x="280.5" y="-56.5" font-family="FreeSans" font-size="10.00">PassRange&lt; T &gt;</text>
</a>
</g>
</g>
<!-- Node1&#45;&gt;Node0 -->
<g id="edge1" class="edge"><title>Node1&#45;&gt;Node0</title>
<path fill="none" stroke="midnightblue" d="M358.074,-54.2901C371.215,-52.538 384.823,-50.7236 397.816,-48.9913"/>
<polygon fill="midnightblue" stroke="midnightblue" points="357.583,-50.8245 348.133,-55.6155 358.508,-57.7631 357.583,-50.8245"/>
</g>
<!-- Node2 -->
<g id="node3" class="node"><title>Node2</title>
<g id="a_node3"><a xlink:href="structDGtal_1_1concepts_1_1CConstSinglePassRange.html" target="_top" xlink:title="Aim: Defines the concept describing a const single pass range. ">
<polygon fill="white" stroke="black" points="0,-24.5 0,-54.5 163,-54.5 163,-24.5 0,-24.5"/>
<text text-anchor="start" x="8" y="-42.5" font-family="FreeSans" font-size="10.00">DGtal::concepts::CConstSingle</text>
<text text-anchor="middle" x="81.5" y="-31.5" font-family="FreeSans" font-size="10.00">PassRange&lt; T &gt;</text>
</a>
</g>
</g>
<!-- Node2&#45;&gt;Node1 -->
<g id="edge2" class="edge"><title>Node2&#45;&gt;Node1</title>
<path fill="none" stroke="midnightblue" d="M173.301,-51.023C186.585,-52.7087 200.056,-54.4183 212.741,-56.0281"/>
<polygon fill="midnightblue" stroke="midnightblue" points="173.557,-47.5275 163.196,-49.7406 172.676,-54.4718 173.557,-47.5275"/>
</g>
<!-- Node3 -->
<g id="node4" class="node"><title>Node3</title>
<g id="a_node4"><a xlink:href="structDGtal_1_1concepts_1_1CConstSinglePassRangeFromPoint.html" target="_top" xlink:title="Aim: refined concept of const single pass range with a begin() method from a point. ">
<polygon fill="white" stroke="black" points="199,-0.5 199,-30.5 362,-30.5 362,-0.5 199,-0.5"/>
<text text-anchor="start" x="207" y="-18.5" font-family="FreeSans" font-size="10.00">DGtal::concepts::CConstSingle</text>
<text text-anchor="middle" x="280.5" y="-7.5" font-family="FreeSans" font-size="10.00">PassRangeFromPoint&lt; T &gt;</text>
</a>
</g>
</g>
<!-- Node2&#45;&gt;Node3 -->
<g id="edge4" class="edge"><title>Node2&#45;&gt;Node3</title>
<path fill="none" stroke="midnightblue" d="M173.215,-28.4484C181.795,-27.4031 190.454,-26.3482 198.93,-25.3157"/>
<polygon fill="midnightblue" stroke="midnightblue" points="172.699,-24.9853 163.196,-29.669 173.546,-31.9339 172.699,-24.9853"/>
</g>
<!-- Node3&#45;&gt;Node0 -->
<g id="edge3" class="edge"><title>Node3&#45;&gt;Node0</title>
<path fill="none" stroke="midnightblue" d="M372.206,-27.1103C380.838,-28.2153 389.505,-29.3247 397.914,-30.401"/>
<polygon fill="midnightblue" stroke="midnightblue" points="372.469,-23.6155 362.105,-25.8174 371.58,-30.5588 372.469,-23.6155"/>
</g>
</g>
</svg>
