<?xml version="1.0" encoding="UTF-8" standalone="no"?>
<!DOCTYPE svg PUBLIC "-//W3C//DTD SVG 1.1//EN"
 "http://www.w3.org/Graphics/SVG/1.1/DTD/svg11.dtd">
<!-- Generated by graphviz version 2.38.0 (20140413.2041)
 -->
<!-- Title: boost::LessThanComparable&lt; T &gt; Pages: 1 -->
<svg width="1184pt" height="176pt"
 viewBox="0.00 0.00 1184.00 176.00" xmlns="http://www.w3.org/2000/svg" xmlns:xlink="http://www.w3.org/1999/xlink">
<g id="graph0" class="graph" transform="scale(1 1) rotate(0) translate(4 172)">
<title>boost::LessThanComparable&lt; T &gt;</title>
<polygon fill="white" stroke="none" points="-4,4 -4,-172 1180,-172 1180,4 -4,4"/>
<!-- Node0 -->
<g id="node1" class="node"><title>Node0</title>
<polygon fill="#bfbfbf" stroke="black" points="0,-77 0,-96 181,-96 181,-77 0,-77"/>
<text text-anchor="middle" x="90.5" y="-84" font-family="FreeSans" font-size="10.00">boost::LessThanComparable&lt; T &gt;</text>
</g>
<!-- Node1 -->
<g id="node2" class="node"><title>Node1</title>
<g id="a_node2"><a xlink:href="structDGtal_1_1concepts_1_1CQuantity.html" target="_top" xlink:title="Aim: defines the concept of quantity in DGtal. ">
<polygon fill="white" stroke="black" points="217,-77 217,-96 391,-96 391,-77 217,-77"/>
<text text-anchor="middle" x="304" y="-84" font-family="FreeSans" font-size="10.00">DGtal::concepts::CQuantity&lt; T &gt;</text>
</a>
</g>
</g>
<!-- Node0&#45;&gt;Node1 -->
<g id="edge1" class="edge"><title>Node0&#45;&gt;Node1</title>
<path fill="none" stroke="midnightblue" d="M191.221,-86.5C199.794,-86.5 208.42,-86.5 216.872,-86.5"/>
<polygon fill="midnightblue" stroke="midnightblue" points="191.195,-83.0001 181.195,-86.5 191.195,-90.0001 191.195,-83.0001"/>
</g>
<!-- Node2 -->
<g id="node3" class="node"><title>Node2</title>
<g id="a_node3"><a xlink:href="structDGtal_1_1concepts_1_1CBoundedNumber.html" target="_top" xlink:title="Aim: The concept CBoundedNumber specifies what are the bounded numbers. Models of this concept should...">
<polygon fill="white" stroke="black" points="428,-137.5 428,-167.5 577,-167.5 577,-137.5 428,-137.5"/>
<text text-anchor="start" x="436" y="-155.5" font-family="FreeSans" font-size="10.00">DGtal::concepts::CBounded</text>
<text text-anchor="middle" x="502.5" y="-144.5" font-family="FreeSans" font-size="10.00">Number&lt; T &gt;</text>
</a>
</g>
</g>
<!-- Node1&#45;&gt;Node2 -->
<g id="edge2" class="edge"><title>Node1&#45;&gt;Node2</title>
<path fill="none" stroke="midnightblue" d="M343.158,-99.3166C375.609,-110.216 422.26,-125.885 456.522,-137.393"/>
<polygon fill="midnightblue" stroke="midnightblue" points="344.167,-95.9632 333.573,-96.097 341.938,-102.599 344.167,-95.9632"/>
</g>
<!-- Node3 -->
<g id="node4" class="node"><title>Node3</title>
<g id="a_node4"><a xlink:href="structDGtal_1_1concepts_1_1CIntegralNumber.html" target="_top" xlink:title="Aim: Concept checking for Integral Numbers. Models of this concept should be listed in NumberTraits c...">
<polygon fill="white" stroke="black" points="628.5,-95.5 628.5,-125.5 770.5,-125.5 770.5,-95.5 628.5,-95.5"/>
<text text-anchor="start" x="636.5" y="-113.5" font-family="FreeSans" font-size="10.00">DGtal::concepts::CIntegral</text>
<text text-anchor="middle" x="699.5" y="-102.5" font-family="FreeSans" font-size="10.00">Number&lt; T &gt;</text>
</a>
</g>
</g>
<!-- Node1&#45;&gt;Node3 -->
<g id="edge3" class="edge"><title>Node1&#45;&gt;Node3</title>
<path fill="none" stroke="midnightblue" d="M401.542,-92.3882C471.774,-96.6717 565.244,-102.373 628.413,-106.225"/>
<polygon fill="midnightblue" stroke="midnightblue" points="401.55,-88.8823 391.355,-91.7669 401.124,-95.8693 401.55,-88.8823"/>
</g>
<!-- Node5 -->
<g id="node6" class="node"><title>Node5</title>
<g id="a_node6"><a xlink:href="structDGtal_1_1concepts_1_1CSignedNumber.html" target="_top" xlink:title="Aim: Concept checking for Signed Numbers. Models of this concept should be listed in NumberTraits cla...">
<polygon fill="white" stroke="black" points="433,-49.5 433,-79.5 572,-79.5 572,-49.5 433,-49.5"/>
<text text-anchor="start" x="441" y="-67.5" font-family="FreeSans" font-size="10.00">DGtal::concepts::CSigned</text>
<text text-anchor="middle" x="502.5" y="-56.5" font-family="FreeSans" font-size="10.00">Number&lt; T &gt;</text>
</a>
</g>
</g>
<!-- Node1&#45;&gt;Node5 -->
<g id="edge5" class="edge"><title>Node1&#45;&gt;Node5</title>
<path fill="none" stroke="midnightblue" d="M400.156,-75.8464C411.199,-74.61 422.295,-73.3677 432.884,-72.1822"/>
<polygon fill="midnightblue" stroke="midnightblue" points="399.593,-72.3874 390.045,-76.9784 400.372,-79.344 399.593,-72.3874"/>
</g>
<!-- Node8 -->
<g id="node9" class="node"><title>Node8</title>
<g id="a_node9"><a xlink:href="structDGtal_1_1concepts_1_1CUnsignedNumber.html" target="_top" xlink:title="Aim: Concept checking for Unsigned numbers. Models of this concept should be listed in NumberTraits c...">
<polygon fill="white" stroke="black" points="427,-0.5 427,-30.5 578,-30.5 578,-0.5 427,-0.5"/>
<text text-anchor="start" x="435" y="-18.5" font-family="FreeSans" font-size="10.00">DGtal::concepts::CUnsigned</text>
<text text-anchor="middle" x="502.5" y="-7.5" font-family="FreeSans" font-size="10.00">Number&lt; T &gt;</text>
</a>
</g>
</g>
<!-- Node1&#45;&gt;Node8 -->
<g id="edge9" class="edge"><title>Node1&#45;&gt;Node8</title>
<path fill="none" stroke="midnightblue" d="M339.191,-73.2234C363.581,-63.8472 397.201,-51.1137 427,-40.5 436.253,-37.2042 446.195,-33.7847 455.705,-30.5719"/>
<polygon fill="midnightblue" stroke="midnightblue" points="337.742,-70.0309 329.67,-76.8934 340.26,-76.5625 337.742,-70.0309"/>
</g>
<!-- Node4 -->
<g id="node5" class="node"><title>Node4</title>
<g id="a_node5"><a xlink:href="structDGtal_1_1concepts_1_1CInteger.html" target="_top" xlink:title="Aim: Concept checking for Integer Numbers. More precisely, this concept is a refinement of both CEucl...">
<polygon fill="white" stroke="black" points="1009,-76 1009,-95 1176,-95 1176,-76 1009,-76"/>
<text text-anchor="middle" x="1092.5" y="-83" font-family="FreeSans" font-size="10.00">DGtal::concepts::CInteger&lt; T &gt;</text>
</a>
</g>
</g>
<!-- Node3&#45;&gt;Node4 -->
<g id="edge4" class="edge"><title>Node3&#45;&gt;Node4</title>
<path fill="none" stroke="midnightblue" d="M780.879,-105.361C847.438,-101.105 941.65,-95.0812 1008.83,-90.7856"/>
<polygon fill="midnightblue" stroke="midnightblue" points="780.611,-101.871 770.855,-106.002 781.058,-108.856 780.611,-101.871"/>
</g>
<!-- Node6 -->
<g id="node7" class="node"><title>Node6</title>
<g id="a_node7"><a xlink:href="structDGtal_1_1concepts_1_1CCommutativeRing.html" target="_top" xlink:title="Aim: Defines the mathematical concept equivalent to a unitary commutative ring. ">
<polygon fill="white" stroke="black" points="614,-46.5 614,-76.5 785,-76.5 785,-46.5 614,-46.5"/>
<text text-anchor="start" x="622" y="-64.5" font-family="FreeSans" font-size="10.00">DGtal::concepts::CCommutative</text>
<text text-anchor="middle" x="699.5" y="-53.5" font-family="FreeSans" font-size="10.00">Ring&lt; T &gt;</text>
</a>
</g>
</g>
<!-- Node5&#45;&gt;Node6 -->
<g id="edge6" class="edge"><title>Node5&#45;&gt;Node6</title>
<path fill="none" stroke="midnightblue" d="M582.498,-63.2846C592.861,-63.1252 603.513,-62.9613 613.964,-62.8006"/>
<polygon fill="midnightblue" stroke="midnightblue" points="582.195,-59.7888 572.25,-63.4423 582.302,-66.788 582.195,-59.7888"/>
</g>
<!-- Node7 -->
<g id="node8" class="node"><title>Node7</title>
<g id="a_node8"><a xlink:href="structDGtal_1_1concepts_1_1CEuclideanRing.html" target="_top" xlink:title="Aim: Defines the mathematical concept equivalent to a unitary commutative ring with a division operat...">
<polygon fill="white" stroke="black" points="821,-48.5 821,-78.5 973,-78.5 973,-48.5 821,-48.5"/>
<text text-anchor="start" x="829" y="-66.5" font-family="FreeSans" font-size="10.00">DGtal::concepts::CEuclidean</text>
<text text-anchor="middle" x="897" y="-55.5" font-family="FreeSans" font-size="10.00">Ring&lt; T &gt;</text>
</a>
</g>
</g>
<!-- Node6&#45;&gt;Node7 -->
<g id="edge7" class="edge"><title>Node6&#45;&gt;Node7</title>
<path fill="none" stroke="midnightblue" d="M795.172,-62.4685C803.767,-62.5564 812.394,-62.6447 820.787,-62.7306"/>
<polygon fill="midnightblue" stroke="midnightblue" points="795.147,-58.9682 785.112,-62.3656 795.076,-65.9678 795.147,-58.9682"/>
</g>
<!-- Node7&#45;&gt;Node4 -->
<g id="edge8" class="edge"><title>Node7&#45;&gt;Node4</title>
<path fill="none" stroke="midnightblue" d="M983.038,-73.1684C991.575,-74.1391 1000.24,-75.1237 1008.75,-76.0916"/>
<polygon fill="midnightblue" stroke="midnightblue" points="983.421,-69.6894 973.089,-72.0373 982.63,-76.6446 983.421,-69.6894"/>
</g>
</g>
</svg>
