<?xml version="1.0" encoding="UTF-8" standalone="no"?>
<!DOCTYPE svg PUBLIC "-//W3C//DTD SVG 1.1//EN"
 "http://www.w3.org/Graphics/SVG/1.1/DTD/svg11.dtd">
<!-- Generated by graphviz version 2.38.0 (20140413.2041)
 -->
<!-- Title: DGtal::IsAPointVector&lt; PointVector&lt; dim, TEuclideanRing, TContainer &gt; &gt; Pages: 1 -->
<svg width="177pt" height="106pt"
 viewBox="0.00 0.00 177.00 106.00" xmlns="http://www.w3.org/2000/svg" xmlns:xlink="http://www.w3.org/1999/xlink">
<g id="graph0" class="graph" transform="scale(1 1) rotate(0) translate(4 102)">
<title>DGtal::IsAPointVector&lt; PointVector&lt; dim, TEuclideanRing, TContainer &gt; &gt;</title>
<polygon fill="white" stroke="none" points="-4,4 -4,-102 173,-102 173,4 -4,4"/>
<!-- Node2 -->
<g id="node1" class="node"><title>Node2</title>
<polygon fill="#bfbfbf" stroke="black" points="-1.42109e-14,-0.5 -1.42109e-14,-41.5 169,-41.5 169,-0.5 -1.42109e-14,-0.5"/>
<text text-anchor="start" x="8" y="-29.5" font-family="FreeSans" font-size="10.00">DGtal::IsAPointVector</text>
<text text-anchor="start" x="8" y="-18.5" font-family="FreeSans" font-size="10.00">&lt; PointVector&lt; dim, TEuclidean</text>
<text text-anchor="middle" x="84.5" y="-7.5" font-family="FreeSans" font-size="10.00">Ring, TContainer &gt; &gt;</text>
</g>
<!-- Node3 -->
<g id="node2" class="node"><title>Node3</title>
<polygon fill="white" stroke="#bfbfbf" points="43,-78.5 43,-97.5 126,-97.5 126,-78.5 43,-78.5"/>
<text text-anchor="middle" x="84.5" y="-85.5" font-family="FreeSans" font-size="10.00">std::true_type</text>
</g>
<!-- Node3&#45;&gt;Node2 -->
<g id="edge1" class="edge"><title>Node3&#45;&gt;Node2</title>
<path fill="none" stroke="midnightblue" d="M84.5,-68.037C84.5,-59.7084 84.5,-49.9358 84.5,-41.5421"/>
<polygon fill="midnightblue" stroke="midnightblue" points="81.0001,-68.2338 84.5,-78.2338 88.0001,-68.2338 81.0001,-68.2338"/>
</g>
</g>
</svg>
