<?xml version="1.0" encoding="UTF-8" standalone="no"?>
<!DOCTYPE svg PUBLIC "-//W3C//DTD SVG 1.1//EN"
 "http://www.w3.org/Graphics/SVG/1.1/DTD/svg11.dtd">
<!-- Generated by graphviz version 2.36.0 (20140111.2315)
 -->
<!-- Title: DGtal::IsArithmeticConversionValid&lt; T, U, typename std::conditional&lt; false, ArithmeticConversionType&lt; T, U &gt;, void &gt;::type &gt; Pages: 1 -->
<svg width="224pt" height="118pt"
 viewBox="0.00 0.00 224.00 118.00" xmlns="http://www.w3.org/2000/svg" xmlns:xlink="http://www.w3.org/1999/xlink">
<g id="graph0" class="graph" transform="scale(1 1) rotate(0) translate(4 114)">
<title>DGtal::IsArithmeticConversionValid&lt; T, U, typename std::conditional&lt; false, ArithmeticConversionType&lt; T, U &gt;, void &gt;::type &gt;</title>
<polygon fill="white" stroke="none" points="-4,4 -4,-114 220,-114 220,4 -4,4"/>
<!-- Node2 -->
<g id="node1" class="node"><title>Node2</title>
<polygon fill="#bfbfbf" stroke="black" points="-0.5,-1 -0.5,-53 216.5,-53 216.5,-1 -0.5,-1"/>
<text text-anchor="start" x="7.5" y="-41" font-family="FreeSans" font-size="10.00">DGtal::IsArithmeticConversion</text>
<text text-anchor="start" x="7.5" y="-30" font-family="FreeSans" font-size="10.00">Valid&lt; T, U, typename std</text>
<text text-anchor="start" x="7.5" y="-19" font-family="FreeSans" font-size="10.00">::conditional&lt; false, ArithmeticConversion</text>
<text text-anchor="middle" x="108" y="-8" font-family="FreeSans" font-size="10.00">Type&lt; T, U &gt;, void &gt;::type &gt;</text>
</g>
<!-- Node3 -->
<g id="node2" class="node"><title>Node3</title>
<polygon fill="white" stroke="#bfbfbf" points="77,-90.5 77,-109.5 139,-109.5 139,-90.5 77,-90.5"/>
<text text-anchor="middle" x="108" y="-97.5" font-family="FreeSans" font-size="10.00">true_type</text>
</g>
<!-- Node3&#45;&gt;Node2 -->
<g id="edge1" class="edge"><title>Node3&#45;&gt;Node2</title>
<path fill="none" stroke="midnightblue" d="M108,-80.244C108,-71.9897 108,-62.1688 108,-53.2819"/>
<polygon fill="midnightblue" stroke="midnightblue" points="104.5,-80.294 108,-90.294 111.5,-80.294 104.5,-80.294"/>
</g>
</g>
</svg>
