<?xml version="1.0" encoding="UTF-8" standalone="no"?>
<!DOCTYPE svg PUBLIC "-//W3C//DTD SVG 1.1//EN"
 "http://www.w3.org/Graphics/SVG/1.1/DTD/svg11.dtd">
<!-- Generated by graphviz version 2.38.0 (20140413.2041)
 -->
<!-- Title: DGtal::concepts::CIncrementalPrimitiveComputer&lt; T &gt; Pages: 1 -->
<svg width="591pt" height="149pt"
 viewBox="0.00 0.00 591.00 149.00" xmlns="http://www.w3.org/2000/svg" xmlns:xlink="http://www.w3.org/1999/xlink">
<g id="graph0" class="graph" transform="scale(1 1) rotate(0) translate(4 145)">
<title>DGtal::concepts::CIncrementalPrimitiveComputer&lt; T &gt;</title>
<polygon fill="white" stroke="none" points="-4,4 -4,-145 587,-145 587,4 -4,4"/>
<!-- Node6 -->
<g id="node1" class="node"><title>Node6</title>
<polygon fill="#bfbfbf" stroke="black" points="420,-9 420,-39 583,-39 583,-9 420,-9"/>
<text text-anchor="start" x="428" y="-27" font-family="FreeSans" font-size="10.00">DGtal::concepts::CIncremental</text>
<text text-anchor="middle" x="501.5" y="-16" font-family="FreeSans" font-size="10.00">PrimitiveComputer&lt; T &gt;</text>
</g>
<!-- Node7 -->
<g id="node2" class="node"><title>Node7</title>
<g id="a_node2"><a xlink:href="structDGtal_1_1concepts_1_1CPrimitiveComputer.html" target="_top" xlink:title="Aim: Defines the concept describing an object that computes some primitive from input points...">
<polygon fill="white" stroke="black" points="236,-47 236,-77 383,-77 383,-47 236,-47"/>
<text text-anchor="start" x="244" y="-65" font-family="FreeSans" font-size="10.00">DGtal::concepts::CPrimitive</text>
<text text-anchor="middle" x="309.5" y="-54" font-family="FreeSans" font-size="10.00">Computer&lt; T &gt;</text>
</a>
</g>
</g>
<!-- Node7&#45;&gt;Node6 -->
<g id="edge1" class="edge"><title>Node7&#45;&gt;Node6</title>
<path fill="none" stroke="midnightblue" d="M392.961,-45.5077C403.736,-43.3528 414.73,-41.154 425.375,-39.025"/>
<polygon fill="midnightblue" stroke="midnightblue" points="392.264,-42.0779 383.144,-47.4712 393.636,-48.942 392.264,-42.0779"/>
</g>
<!-- Node8 -->
<g id="node3" class="node"><title>Node8</title>
<g id="a_node3"><a xlink:href="structboost_1_1DefaultConstructible.html" target="_top" xlink:title="Go to http://www.sgi.com/tech/stl/DefaultConstructible.html. ">
<polygon fill="white" stroke="black" points="0,-121.5 0,-140.5 175,-140.5 175,-121.5 0,-121.5"/>
<text text-anchor="middle" x="87.5" y="-128.5" font-family="FreeSans" font-size="10.00">boost::DefaultConstructible&lt; T &gt;</text>
</a>
</g>
</g>
<!-- Node8&#45;&gt;Node7 -->
<g id="edge2" class="edge"><title>Node8&#45;&gt;Node7</title>
<path fill="none" stroke="midnightblue" d="M147.654,-119.182C156.864,-117.005 166.229,-114.592 175,-112 208.585,-102.077 245.829,-87.8477 272.427,-77.1043"/>
<polygon fill="midnightblue" stroke="midnightblue" points="146.723,-115.805 137.757,-121.45 148.286,-122.628 146.723,-115.805"/>
</g>
<!-- Node9 -->
<g id="node4" class="node"><title>Node9</title>
<g id="a_node4"><a xlink:href="structboost_1_1CopyConstructible.html" target="_top" xlink:title="Go to http://www.sgi.com/tech/stl/CopyConstructible.html. ">
<polygon fill="white" stroke="black" points="5.5,-83.5 5.5,-102.5 169.5,-102.5 169.5,-83.5 5.5,-83.5"/>
<text text-anchor="middle" x="87.5" y="-90.5" font-family="FreeSans" font-size="10.00">boost::CopyConstructible&lt; T &gt;</text>
</a>
</g>
</g>
<!-- Node9&#45;&gt;Node7 -->
<g id="edge3" class="edge"><title>Node9&#45;&gt;Node7</title>
<path fill="none" stroke="midnightblue" d="M165.934,-82.0889C188.637,-78.8898 213.374,-75.4041 235.773,-72.2479"/>
<polygon fill="midnightblue" stroke="midnightblue" points="165.416,-78.6271 156.002,-83.4883 166.393,-85.5587 165.416,-78.6271"/>
</g>
<!-- Node10 -->
<g id="node5" class="node"><title>Node10</title>
<g id="a_node5"><a xlink:href="structboost_1_1Assignable.html" target="_top" xlink:title="Go to http://www.sgi.com/tech/stl/Assignable.html. ">
<polygon fill="white" stroke="black" points="23,-45.5 23,-64.5 152,-64.5 152,-45.5 23,-45.5"/>
<text text-anchor="middle" x="87.5" y="-52.5" font-family="FreeSans" font-size="10.00">boost::Assignable&lt; T &gt;</text>
</a>
</g>
</g>
<!-- Node10&#45;&gt;Node7 -->
<g id="edge4" class="edge"><title>Node10&#45;&gt;Node7</title>
<path fill="none" stroke="midnightblue" d="M162.439,-57.3526C186.061,-58.1042 212.177,-58.9352 235.716,-59.6841"/>
<polygon fill="midnightblue" stroke="midnightblue" points="162.239,-53.8446 152.133,-57.0247 162.017,-60.841 162.239,-53.8446"/>
</g>
<!-- Node11 -->
<g id="node6" class="node"><title>Node11</title>
<polygon fill="white" stroke="#bfbfbf" points="73,-0.5 73,-19.5 102,-19.5 102,-0.5 73,-0.5"/>
<text text-anchor="middle" x="87.5" y="-7.5" font-family="FreeSans" font-size="10.00">T</text>
</g>
<!-- Node11&#45;&gt;Node6 -->
<g id="edge6" class="edge"><title>Node11&#45;&gt;Node6</title>
<path fill="none" stroke="#9a32cd" stroke-dasharray="5,2" d="M112.323,-10.8095C170.962,-12.8021 324.448,-18.0176 419.916,-21.2617"/>
<polygon fill="#9a32cd" stroke="#9a32cd" points="112.321,-7.30753 102.208,-10.4658 112.083,-14.3035 112.321,-7.30753"/>
<text text-anchor="middle" x="309.5" y="-24" font-family="FreeSans" font-size="10.00"> myX</text>
</g>
<!-- Node11&#45;&gt;Node7 -->
<g id="edge5" class="edge"><title>Node11&#45;&gt;Node7</title>
<path fill="none" stroke="#9a32cd" stroke-dasharray="5,2" d="M112.293,-15.6239C143.806,-23.0724 200.576,-36.4907 244.972,-46.9843"/>
<polygon fill="#9a32cd" stroke="#9a32cd" points="112.799,-12.147 102.262,-13.2528 111.189,-18.9593 112.799,-12.147"/>
<text text-anchor="middle" x="205.5" y="-43" font-family="FreeSans" font-size="10.00"> myX</text>
</g>
</g>
</svg>
