<?xml version="1.0" encoding="UTF-8" standalone="no"?>
<!DOCTYPE svg PUBLIC "-//W3C//DTD SVG 1.1//EN"
 "http://www.w3.org/Graphics/SVG/1.1/DTD/svg11.dtd">
<!-- Generated by graphviz version 2.38.0 (20140413.2041)
 -->
<!-- Title: DGtal::concepts::CAdjacency&lt; Adj &gt; Pages: 1 -->
<svg width="190pt" height="320pt"
 viewBox="0.00 0.00 190.00 320.00" xmlns="http://www.w3.org/2000/svg" xmlns:xlink="http://www.w3.org/1999/xlink">
<g id="graph0" class="graph" transform="scale(1 1) rotate(0) translate(4 316)">
<title>DGtal::concepts::CAdjacency&lt; Adj &gt;</title>
<polygon fill="white" stroke="none" points="-4,4 -4,-316 186,-316 186,4 -4,4"/>
<!-- Node0 -->
<g id="node1" class="node"><title>Node0</title>
<polygon fill="#bfbfbf" stroke="black" points="13.5,-135.5 13.5,-165.5 168.5,-165.5 168.5,-135.5 13.5,-135.5"/>
<text text-anchor="start" x="21.5" y="-153.5" font-family="FreeSans" font-size="10.00">DGtal::concepts::CAdjacency</text>
<text text-anchor="middle" x="91" y="-142.5" font-family="FreeSans" font-size="10.00">&lt; Adj &gt;</text>
</g>
<!-- Node3 -->
<g id="node4" class="node"><title>Node3</title>
<g id="a_node4"><a xlink:href="structDGtal_1_1concepts_1_1CAdjacency.html" target="_top" xlink:title="DGtal::concepts::CAdjacency\&lt; T \&gt;">
<polygon fill="white" stroke="black" points="0,-68.5 0,-87.5 182,-87.5 182,-68.5 0,-68.5"/>
<text text-anchor="middle" x="91" y="-75.5" font-family="FreeSans" font-size="10.00">DGtal::concepts::CAdjacency&lt; T &gt;</text>
</a>
</g>
</g>
<!-- Node0&#45;&gt;Node3 -->
<g id="edge3" class="edge"><title>Node0&#45;&gt;Node3</title>
<path fill="none" stroke="orange" stroke-dasharray="5,2" d="M91,-125.091C91,-112.214 91,-97.1974 91,-87.8932"/>
<polygon fill="orange" stroke="orange" points="87.5001,-125.233 91,-135.233 94.5001,-125.233 87.5001,-125.233"/>
<text text-anchor="middle" x="106.5" y="-109" font-family="FreeSans" font-size="10.00"> &lt; T &gt;</text>
</g>
<!-- Node1 -->
<g id="node2" class="node"><title>Node1</title>
<g id="a_node2"><a xlink:href="structDGtal_1_1concepts_1_1CUndirectedSimpleLocalGraph.html" target="_top" xlink:title="DGtal::concepts::CUndirected\lSimpleLocalGraph\&lt; Adj \&gt;">
<polygon fill="white" stroke="black" points="12,-203.5 12,-233.5 170,-233.5 170,-203.5 12,-203.5"/>
<text text-anchor="start" x="20" y="-221.5" font-family="FreeSans" font-size="10.00">DGtal::concepts::CUndirected</text>
<text text-anchor="middle" x="91" y="-210.5" font-family="FreeSans" font-size="10.00">SimpleLocalGraph&lt; Adj &gt;</text>
</a>
</g>
</g>
<!-- Node1&#45;&gt;Node0 -->
<g id="edge1" class="edge"><title>Node1&#45;&gt;Node0</title>
<path fill="none" stroke="midnightblue" d="M91,-193.032C91,-183.861 91,-173.745 91,-165.793"/>
<polygon fill="midnightblue" stroke="midnightblue" points="87.5001,-193.179 91,-203.179 94.5001,-193.179 87.5001,-193.179"/>
</g>
<!-- Node2 -->
<g id="node3" class="node"><title>Node2</title>
<g id="a_node3"><a xlink:href="structDGtal_1_1concepts_1_1CUndirectedSimpleLocalGraph.html" target="_top" xlink:title="Aim: Represents the concept of local graph: each vertex has neighboring vertices, but we do not neces...">
<polygon fill="white" stroke="black" points="12,-281.5 12,-311.5 170,-311.5 170,-281.5 12,-281.5"/>
<text text-anchor="start" x="20" y="-299.5" font-family="FreeSans" font-size="10.00">DGtal::concepts::CUndirected</text>
<text text-anchor="middle" x="91" y="-288.5" font-family="FreeSans" font-size="10.00">SimpleLocalGraph&lt; T &gt;</text>
</a>
</g>
</g>
<!-- Node2&#45;&gt;Node1 -->
<g id="edge2" class="edge"><title>Node2&#45;&gt;Node1</title>
<path fill="none" stroke="orange" stroke-dasharray="5,2" d="M91,-271.09C91,-258.757 91,-244.224 91,-233.731"/>
<polygon fill="orange" stroke="orange" points="87.5001,-271.205 91,-281.205 94.5001,-271.205 87.5001,-271.205"/>
<text text-anchor="middle" x="111.5" y="-255" font-family="FreeSans" font-size="10.00"> &lt; Adj &gt;</text>
</g>
<!-- Node4 -->
<g id="node5" class="node"><title>Node4</title>
<g id="a_node5"><a xlink:href="structDGtal_1_1concepts_1_1CDomainAdjacency.html" target="_top" xlink:title="Aim: Refines the concept CAdjacency by telling that the adjacency is specific to a given domain of th...">
<polygon fill="white" stroke="black" points="19.5,-0.5 19.5,-30.5 162.5,-30.5 162.5,-0.5 19.5,-0.5"/>
<text text-anchor="start" x="27.5" y="-18.5" font-family="FreeSans" font-size="10.00">DGtal::concepts::CDomain</text>
<text text-anchor="middle" x="91" y="-7.5" font-family="FreeSans" font-size="10.00">Adjacency&lt; T &gt;</text>
</a>
</g>
</g>
<!-- Node3&#45;&gt;Node4 -->
<g id="edge4" class="edge"><title>Node3&#45;&gt;Node4</title>
<path fill="none" stroke="midnightblue" d="M91,-58.2154C91,-49.3565 91,-38.9577 91,-30.7587"/>
<polygon fill="midnightblue" stroke="midnightblue" points="87.5001,-58.3318 91,-68.3318 94.5001,-58.3319 87.5001,-58.3318"/>
</g>
</g>
</svg>
