<?xml version="1.0" encoding="UTF-8" standalone="no"?>
<!DOCTYPE svg PUBLIC "-//W3C//DTD SVG 1.1//EN"
 "http://www.w3.org/Graphics/SVG/1.1/DTD/svg11.dtd">
<!-- Generated by graphviz version 2.38.0 (20140413.2041)
 -->
<!-- Title: DGtal::ImageSelector&lt; Domain, Value, Preferences &gt; Pages: 1 -->
<svg width="196pt" height="128pt"
 viewBox="0.00 0.00 196.00 128.00" xmlns="http://www.w3.org/2000/svg" xmlns:xlink="http://www.w3.org/1999/xlink">
<g id="graph0" class="graph" transform="scale(1 1) rotate(0) translate(4 124)">
<title>DGtal::ImageSelector&lt; Domain, Value, Preferences &gt;</title>
<polygon fill="white" stroke="none" points="-4,4 -4,-124 192,-124 192,4 -4,4"/>
<!-- Node0 -->
<g id="node1" class="node"><title>Node0</title>
<polygon fill="#bfbfbf" stroke="black" points="0,-89.5 0,-119.5 172,-119.5 172,-89.5 0,-89.5"/>
<text text-anchor="start" x="8" y="-107.5" font-family="FreeSans" font-size="10.00">DGtal::ImageSelector</text>
<text text-anchor="middle" x="86" y="-96.5" font-family="FreeSans" font-size="10.00">&lt; Domain, Value, Preferences &gt;</text>
</g>
<!-- Node1 -->
<g id="node2" class="node"><title>Node1</title>
<g id="a_node2"><a xlink:href="structDGtal_1_1ImageSelector.html" target="_top" xlink:title="DGtal::ImageSelector\l\&lt; Domain, unsigned char \&gt;">
<polygon fill="white" stroke="black" points="11,-0.5 11,-30.5 161,-30.5 161,-0.5 11,-0.5"/>
<text text-anchor="start" x="19" y="-18.5" font-family="FreeSans" font-size="10.00">DGtal::ImageSelector</text>
<text text-anchor="middle" x="86" y="-7.5" font-family="FreeSans" font-size="10.00">&lt; Domain, unsigned char &gt;</text>
</a>
</g>
</g>
<!-- Node0&#45;&gt;Node1 -->
<g id="edge1" class="edge"><title>Node0&#45;&gt;Node1</title>
<path fill="none" stroke="orange" stroke-dasharray="5,2" d="M86,-79.0903C86,-63.4429 86,-43.6846 86,-30.599"/>
<polygon fill="orange" stroke="orange" points="82.5001,-79.1337 86,-89.1337 89.5001,-79.1338 82.5001,-79.1337"/>
<text text-anchor="start" x="86" y="-63" font-family="FreeSans" font-size="10.00"> &lt; Domain, unsigned</text>
<text text-anchor="middle" x="137" y="-52" font-family="FreeSans" font-size="10.00"> char &gt;</text>
</g>
</g>
</svg>
