<?xml version="1.0" encoding="UTF-8" standalone="no"?>
<!DOCTYPE svg PUBLIC "-//W3C//DTD SVG 1.1//EN"
 "http://www.w3.org/Graphics/SVG/1.1/DTD/svg11.dtd">
<!-- Generated by graphviz version 2.38.0 (20140413.2041)
 -->
<!-- Title: DGtal::concepts::CPositiveIrreducibleFraction&lt; T &gt; Pages: 1 -->
<svg width="391pt" height="192pt"
 viewBox="0.00 0.00 391.00 191.50" xmlns="http://www.w3.org/2000/svg" xmlns:xlink="http://www.w3.org/1999/xlink">
<g id="graph0" class="graph" transform="scale(1 1) rotate(0) translate(4 187.5)">
<title>DGtal::concepts::CPositiveIrreducibleFraction&lt; T &gt;</title>
<polygon fill="white" stroke="none" points="-4,4 -4,-187.5 387,-187.5 387,4 -4,4"/>
<!-- Node0 -->
<g id="node1" class="node"><title>Node0</title>
<polygon fill="#bfbfbf" stroke="black" points="240,-82.5 240,-112.5 383,-112.5 383,-82.5 240,-82.5"/>
<text text-anchor="start" x="248" y="-100.5" font-family="FreeSans" font-size="10.00">DGtal::concepts::CPositive</text>
<text text-anchor="middle" x="311.5" y="-89.5" font-family="FreeSans" font-size="10.00">IrreducibleFraction&lt; T &gt;</text>
</g>
<!-- Node1 -->
<g id="node2" class="node"><title>Node1</title>
<g id="a_node2"><a xlink:href="structboost_1_1CopyConstructible.html" target="_top" xlink:title="Go to http://www.sgi.com/tech/stl/CopyConstructible.html. ">
<polygon fill="white" stroke="black" points="20,-164 20,-183 184,-183 184,-164 20,-164"/>
<text text-anchor="middle" x="102" y="-171" font-family="FreeSans" font-size="10.00">boost::CopyConstructible&lt; T &gt;</text>
</a>
</g>
</g>
<!-- Node1&#45;&gt;Node0 -->
<g id="edge1" class="edge"><title>Node1&#45;&gt;Node0</title>
<path fill="none" stroke="midnightblue" d="M179.373,-161.72C187.782,-159.661 196.138,-157.269 204,-154.5 234.263,-143.84 266.394,-125.562 287.349,-112.579"/>
<polygon fill="midnightblue" stroke="midnightblue" points="178.468,-158.337 169.505,-163.987 180.035,-165.159 178.468,-158.337"/>
</g>
<!-- Node2 -->
<g id="node3" class="node"><title>Node2</title>
<g id="a_node3"><a xlink:href="structboost_1_1DefaultConstructible.html" target="_top" xlink:title="Go to http://www.sgi.com/tech/stl/DefaultConstructible.html. ">
<polygon fill="white" stroke="black" points="14.5,-126 14.5,-145 189.5,-145 189.5,-126 14.5,-126"/>
<text text-anchor="middle" x="102" y="-133" font-family="FreeSans" font-size="10.00">boost::DefaultConstructible&lt; T &gt;</text>
</a>
</g>
</g>
<!-- Node2&#45;&gt;Node0 -->
<g id="edge2" class="edge"><title>Node2&#45;&gt;Node0</title>
<path fill="none" stroke="midnightblue" d="M164.975,-124.15C188.569,-119.829 215.624,-114.875 239.955,-110.419"/>
<polygon fill="midnightblue" stroke="midnightblue" points="164.299,-120.716 155.093,-125.96 165.56,-127.601 164.299,-120.716"/>
</g>
<!-- Node3 -->
<g id="node4" class="node"><title>Node3</title>
<g id="a_node4"><a xlink:href="structboost_1_1Assignable.html" target="_top" xlink:title="Go to http://www.sgi.com/tech/stl/Assignable.html. ">
<polygon fill="white" stroke="black" points="37.5,-88 37.5,-107 166.5,-107 166.5,-88 37.5,-88"/>
<text text-anchor="middle" x="102" y="-95" font-family="FreeSans" font-size="10.00">boost::Assignable&lt; T &gt;</text>
</a>
</g>
</g>
<!-- Node3&#45;&gt;Node0 -->
<g id="edge3" class="edge"><title>Node3&#45;&gt;Node0</title>
<path fill="none" stroke="midnightblue" d="M176.867,-97.5C197.312,-97.5 219.45,-97.5 239.715,-97.5"/>
<polygon fill="midnightblue" stroke="midnightblue" points="176.667,-94.0001 166.667,-97.5 176.667,-101 176.667,-94.0001"/>
</g>
<!-- Node4 -->
<g id="node5" class="node"><title>Node4</title>
<g id="a_node5"><a xlink:href="structDGtal_1_1concepts_1_1CBackInsertable.html" target="_top" xlink:title="Aim: Represents types for which a std::back_insert_iterator can be constructed with std::back_inserte...">
<polygon fill="white" stroke="black" points="0,-50 0,-69 204,-69 204,-50 0,-50"/>
<text text-anchor="middle" x="102" y="-57" font-family="FreeSans" font-size="10.00">DGtal::concepts::CBackInsertable&lt; T &gt;</text>
</a>
</g>
</g>
<!-- Node4&#45;&gt;Node0 -->
<g id="edge4" class="edge"><title>Node4&#45;&gt;Node0</title>
<path fill="none" stroke="midnightblue" d="M164.975,-70.8497C188.569,-75.1705 215.624,-80.1251 239.955,-84.5809"/>
<polygon fill="midnightblue" stroke="midnightblue" points="165.56,-67.3987 155.093,-69.04 164.299,-74.2842 165.56,-67.3987"/>
</g>
<!-- Node5 -->
<g id="node6" class="node"><title>Node5</title>
<g id="a_node6"><a xlink:href="structDGtal_1_1concepts_1_1CConstSinglePassRange.html" target="_top" xlink:title="Aim: Defines the concept describing a const single pass range. ">
<polygon fill="white" stroke="black" points="20.5,-0.5 20.5,-30.5 183.5,-30.5 183.5,-0.5 20.5,-0.5"/>
<text text-anchor="start" x="28.5" y="-18.5" font-family="FreeSans" font-size="10.00">DGtal::concepts::CConstSingle</text>
<text text-anchor="middle" x="102" y="-7.5" font-family="FreeSans" font-size="10.00">PassRange&lt; T &gt;</text>
</a>
</g>
</g>
<!-- Node5&#45;&gt;Node0 -->
<g id="edge5" class="edge"><title>Node5&#45;&gt;Node0</title>
<path fill="none" stroke="midnightblue" d="M183.222,-33.3991C190.32,-35.5703 197.335,-37.9375 204,-40.5 233.557,-51.8635 265.299,-69.6528 286.365,-82.3339"/>
<polygon fill="midnightblue" stroke="midnightblue" points="184.097,-30.0085 173.516,-30.56 182.131,-36.7269 184.097,-30.0085"/>
</g>
</g>
</svg>
