<?xml version="1.0" encoding="UTF-8" standalone="no"?>
<!DOCTYPE svg PUBLIC "-//W3C//DTD SVG 1.1//EN"
 "http://www.w3.org/Graphics/SVG/1.1/DTD/svg11.dtd">
<!-- Generated by graphviz version 2.38.0 (20140413.2041)
 -->
<!-- Title: DGtal::NumberTraits&lt; T &gt; Pages: 1 -->
<svg width="178pt" height="263pt"
 viewBox="0.00 0.00 177.50 263.00" xmlns="http://www.w3.org/2000/svg" xmlns:xlink="http://www.w3.org/1999/xlink">
<g id="graph0" class="graph" transform="scale(1 1) rotate(0) translate(4 259)">
<title>DGtal::NumberTraits&lt; T &gt;</title>
<polygon fill="white" stroke="none" points="-4,4 -4,-259 173.5,-259 173.5,4 -4,4"/>
<!-- Node5 -->
<g id="node1" class="node"><title>Node5</title>
<polygon fill="#bfbfbf" stroke="black" points="1,-0.5 1,-19.5 142,-19.5 142,-0.5 1,-0.5"/>
<text text-anchor="middle" x="71.5" y="-7.5" font-family="FreeSans" font-size="10.00">DGtal::NumberTraits&lt; T &gt;</text>
</g>
<!-- Node6 -->
<g id="node2" class="node"><title>Node6</title>
<g id="a_node2"><a xlink:href="structDGtal_1_1NumberTraitsImpl.html" target="_top" xlink:title="DGtal::NumberTraitsImpl\l\&lt; std::decay\&lt; T \&gt;::type \&gt;">
<polygon fill="white" stroke="black" points="0,-57.5 0,-87.5 143,-87.5 143,-57.5 0,-57.5"/>
<text text-anchor="start" x="8" y="-75.5" font-family="FreeSans" font-size="10.00">DGtal::NumberTraitsImpl</text>
<text text-anchor="middle" x="71.5" y="-64.5" font-family="FreeSans" font-size="10.00">&lt; std::decay&lt; T &gt;::type &gt;</text>
</a>
</g>
</g>
<!-- Node6&#45;&gt;Node5 -->
<g id="edge1" class="edge"><title>Node6&#45;&gt;Node5</title>
<path fill="none" stroke="midnightblue" d="M71.5,-47.3524C71.5,-37.5132 71.5,-26.7753 71.5,-19.5399"/>
<polygon fill="midnightblue" stroke="midnightblue" points="68.0001,-47.468 71.5,-57.468 75.0001,-47.4681 68.0001,-47.468"/>
</g>
<!-- Node7 -->
<g id="node3" class="node"><title>Node7</title>
<g id="a_node3"><a xlink:href="structDGtal_1_1NumberTraitsImpl.html" target="_top" xlink:title="Aim: The traits class for all models of Cinteger (implementation) ">
<polygon fill="white" stroke="black" points="4.5,-146.5 4.5,-176.5 138.5,-176.5 138.5,-146.5 4.5,-146.5"/>
<text text-anchor="start" x="12.5" y="-164.5" font-family="FreeSans" font-size="10.00">DGtal::NumberTraitsImpl</text>
<text text-anchor="middle" x="71.5" y="-153.5" font-family="FreeSans" font-size="10.00">&lt; T, Enable &gt;</text>
</a>
</g>
</g>
<!-- Node7&#45;&gt;Node6 -->
<g id="edge2" class="edge"><title>Node7&#45;&gt;Node6</title>
<path fill="none" stroke="orange" stroke-dasharray="5,2" d="M71.5,-136.09C71.5,-120.443 71.5,-100.685 71.5,-87.599"/>
<polygon fill="orange" stroke="orange" points="68.0001,-136.134 71.5,-146.134 75.0001,-136.134 68.0001,-136.134"/>
<text text-anchor="start" x="71.5" y="-120" font-family="FreeSans" font-size="10.00"> &lt; std::decay&lt; T &gt;::</text>
<text text-anchor="middle" x="120.5" y="-109" font-family="FreeSans" font-size="10.00">type &gt;</text>
</g>
<!-- Node8 -->
<g id="node4" class="node"><title>Node8</title>
<polygon fill="white" stroke="#bfbfbf" points="57,-235.5 57,-254.5 86,-254.5 86,-235.5 57,-235.5"/>
<text text-anchor="middle" x="71.5" y="-242.5" font-family="FreeSans" font-size="10.00">T</text>
</g>
<!-- Node8&#45;&gt;Node7 -->
<g id="edge3" class="edge"><title>Node8&#45;&gt;Node7</title>
<path fill="none" stroke="#9a32cd" stroke-dasharray="5,2" d="M71.5,-225.229C71.5,-210.408 71.5,-190.051 71.5,-176.597"/>
<polygon fill="#9a32cd" stroke="#9a32cd" points="68.0001,-225.278 71.5,-235.278 75.0001,-225.278 68.0001,-225.278"/>
<text text-anchor="middle" x="85.5" y="-209" font-family="FreeSans" font-size="10.00"> ONE</text>
<text text-anchor="middle" x="85.5" y="-198" font-family="FreeSans" font-size="10.00">ZERO</text>
</g>
</g>
</svg>
