<?xml version="1.0" encoding="UTF-8" standalone="no"?>
<!DOCTYPE svg PUBLIC "-//W3C//DTD SVG 1.1//EN"
 "http://www.w3.org/Graphics/SVG/1.1/DTD/svg11.dtd">
<!-- Generated by graphviz version 2.38.0 (20140413.2041)
 -->
<!-- Title: LibBoard::Polyline Pages: 1 -->
<svg width="428pt" height="207pt"
 viewBox="0.00 0.00 427.50 207.00" xmlns="http://www.w3.org/2000/svg" xmlns:xlink="http://www.w3.org/1999/xlink">
<g id="graph0" class="graph" transform="scale(1 1) rotate(0) translate(4 203)">
<title>LibBoard::Polyline</title>
<polygon fill="white" stroke="none" points="-4,4 -4,-203 423.5,-203 423.5,4 -4,4"/>
<!-- Node0 -->
<g id="node1" class="node"><title>Node0</title>
<polygon fill="#bfbfbf" stroke="black" points="165.5,-123.5 165.5,-142.5 266.5,-142.5 266.5,-123.5 165.5,-123.5"/>
<text text-anchor="middle" x="216" y="-130.5" font-family="FreeSans" font-size="10.00">LibBoard::Polyline</text>
</g>
<!-- Node2 -->
<g id="node3" class="node"><title>Node2</title>
<g id="a_node3"><a xlink:href="structLibBoard_1_1GouraudTriangle.html" target="_top" xlink:title="A triangle with shaded filling according to colors given for each vertex. ">
<polygon fill="white" stroke="black" points="0,-67.5 0,-86.5 142,-86.5 142,-67.5 0,-67.5"/>
<text text-anchor="middle" x="71" y="-74.5" font-family="FreeSans" font-size="10.00">LibBoard::GouraudTriangle</text>
</a>
</g>
</g>
<!-- Node0&#45;&gt;Node2 -->
<g id="edge2" class="edge"><title>Node0&#45;&gt;Node2</title>
<path fill="none" stroke="midnightblue" d="M183.525,-119.906C156.264,-109.754 118.008,-95.5063 93.8682,-86.5164"/>
<polygon fill="midnightblue" stroke="midnightblue" points="182.432,-123.233 193.024,-123.444 184.875,-116.674 182.432,-123.233"/>
</g>
<!-- Node3 -->
<g id="node4" class="node"><title>Node3</title>
<g id="a_node4"><a xlink:href="structLibBoard_1_1Rectangle.html" target="_top" xlink:title="A rectangle. ">
<polygon fill="white" stroke="black" points="160.5,-67.5 160.5,-86.5 271.5,-86.5 271.5,-67.5 160.5,-67.5"/>
<text text-anchor="middle" x="216" y="-74.5" font-family="FreeSans" font-size="10.00">LibBoard::Rectangle</text>
</a>
</g>
</g>
<!-- Node0&#45;&gt;Node3 -->
<g id="edge3" class="edge"><title>Node0&#45;&gt;Node3</title>
<path fill="none" stroke="midnightblue" d="M216,-112.805C216,-103.91 216,-93.7798 216,-86.7511"/>
<polygon fill="midnightblue" stroke="midnightblue" points="212.5,-113.083 216,-123.083 219.5,-113.083 212.5,-113.083"/>
</g>
<!-- Node5 -->
<g id="node6" class="node"><title>Node5</title>
<g id="a_node6"><a xlink:href="structLibBoard_1_1Triangle.html" target="_top" xlink:title="A triangle. Basically a Polyline with a convenient constructor. ">
<polygon fill="white" stroke="black" points="295.5,-67.5 295.5,-86.5 396.5,-86.5 396.5,-67.5 295.5,-67.5"/>
<text text-anchor="middle" x="346" y="-74.5" font-family="FreeSans" font-size="10.00">LibBoard::Triangle</text>
</a>
</g>
</g>
<!-- Node0&#45;&gt;Node5 -->
<g id="edge5" class="edge"><title>Node0&#45;&gt;Node5</title>
<path fill="none" stroke="midnightblue" d="M246.085,-119.503C270.457,-109.38 304.14,-95.388 325.497,-86.5164"/>
<polygon fill="midnightblue" stroke="midnightblue" points="244.491,-116.375 236.599,-123.444 247.177,-122.84 244.491,-116.375"/>
</g>
<!-- Node1 -->
<g id="node2" class="node"><title>Node1</title>
<g id="a_node2"><a xlink:href="structLibBoard_1_1Shape.html" target="_top" xlink:title="Abstract structure for a 2D shape. ">
<polygon fill="white" stroke="black" points="168.5,-179.5 168.5,-198.5 263.5,-198.5 263.5,-179.5 168.5,-179.5"/>
<text text-anchor="middle" x="216" y="-186.5" font-family="FreeSans" font-size="10.00">LibBoard::Shape</text>
</a>
</g>
</g>
<!-- Node1&#45;&gt;Node0 -->
<g id="edge1" class="edge"><title>Node1&#45;&gt;Node0</title>
<path fill="none" stroke="midnightblue" d="M216,-168.805C216,-159.91 216,-149.78 216,-142.751"/>
<polygon fill="midnightblue" stroke="midnightblue" points="212.5,-169.083 216,-179.083 219.5,-169.083 212.5,-169.083"/>
</g>
<!-- Node4 -->
<g id="node5" class="node"><title>Node4</title>
<g id="a_node5"><a xlink:href="structLibBoard_1_1Image.html" target="_top" xlink:title="Used to draw image in figure. ">
<polygon fill="white" stroke="black" points="165.5,-6 165.5,-25 260.5,-25 260.5,-6 165.5,-6"/>
<text text-anchor="middle" x="213" y="-13" font-family="FreeSans" font-size="10.00">LibBoard::Image</text>
</a>
</g>
</g>
<!-- Node3&#45;&gt;Node4 -->
<g id="edge4" class="edge"><title>Node3&#45;&gt;Node4</title>
<path fill="none" stroke="midnightblue" d="M215.058,-57.3165C214.512,-46.4962 213.852,-33.398 213.429,-25.0091"/>
<polygon fill="midnightblue" stroke="midnightblue" points="211.571,-57.6641 215.57,-67.4751 218.562,-57.3115 211.571,-57.6641"/>
</g>
<!-- Node6 -->
<g id="node7" class="node"><title>Node6</title>
<g id="a_node7"><a xlink:href="structLibBoard_1_1QuadraticBezierCurve.html" target="_top" xlink:title="A quadratic Bezier curve having 3 control points. NB. It is also a parabola arc. ">
<polygon fill="white" stroke="black" points="278.5,-0.5 278.5,-30.5 419.5,-30.5 419.5,-0.5 278.5,-0.5"/>
<text text-anchor="start" x="286.5" y="-18.5" font-family="FreeSans" font-size="10.00">LibBoard::QuadraticBezier</text>
<text text-anchor="middle" x="349" y="-7.5" font-family="FreeSans" font-size="10.00">Curve</text>
</a>
</g>
</g>
<!-- Node5&#45;&gt;Node6 -->
<g id="edge6" class="edge"><title>Node5&#45;&gt;Node6</title>
<path fill="none" stroke="midnightblue" d="M346.946,-57.2349C347.382,-48.5864 347.891,-38.4969 348.293,-30.523"/>
<polygon fill="midnightblue" stroke="midnightblue" points="343.438,-57.3115 346.43,-67.4751 350.429,-57.6641 343.438,-57.3115"/>
</g>
</g>
</svg>
