<?xml version="1.0" encoding="UTF-8" standalone="no"?>
<!DOCTYPE svg PUBLIC "-//W3C//DTD SVG 1.1//EN"
 "http://www.w3.org/Graphics/SVG/1.1/DTD/svg11.dtd">
<!-- Generated by graphviz version 2.38.0 (20140413.2041)
 -->
<!-- Title: DGtal::concepts::CBidirectionalRange&lt; T &gt; Pages: 1 -->
<svg width="200pt" height="240pt"
 viewBox="0.00 0.00 200.00 240.00" xmlns="http://www.w3.org/2000/svg" xmlns:xlink="http://www.w3.org/1999/xlink">
<g id="graph0" class="graph" transform="scale(1 1) rotate(0) translate(4 236)">
<title>DGtal::concepts::CBidirectionalRange&lt; T &gt;</title>
<polygon fill="white" stroke="none" points="-4,4 -4,-236 196,-236 196,4 -4,4"/>
<!-- Node0 -->
<g id="node1" class="node"><title>Node0</title>
<polygon fill="#bfbfbf" stroke="black" points="14,-67.5 14,-97.5 178,-97.5 178,-67.5 14,-67.5"/>
<text text-anchor="start" x="22" y="-85.5" font-family="FreeSans" font-size="10.00">DGtal::concepts::CBidirectional</text>
<text text-anchor="middle" x="96" y="-74.5" font-family="FreeSans" font-size="10.00">Range&lt; T &gt;</text>
</g>
<!-- Node3 -->
<g id="node4" class="node"><title>Node3</title>
<g id="a_node4"><a xlink:href="structDGtal_1_1concepts_1_1CBidirectionalRangeFromPoint.html" target="_top" xlink:title="Aim: refined concept of single pass range with a begin() method from a point. ">
<polygon fill="white" stroke="black" points="14,-0.5 14,-30.5 178,-30.5 178,-0.5 14,-0.5"/>
<text text-anchor="start" x="22" y="-18.5" font-family="FreeSans" font-size="10.00">DGtal::concepts::CBidirectional</text>
<text text-anchor="middle" x="96" y="-7.5" font-family="FreeSans" font-size="10.00">RangeFromPoint&lt; T &gt;</text>
</a>
</g>
</g>
<!-- Node0&#45;&gt;Node3 -->
<g id="edge3" class="edge"><title>Node0&#45;&gt;Node3</title>
<path fill="none" stroke="midnightblue" d="M96,-57.1081C96,-48.1539 96,-38.3227 96,-30.5765"/>
<polygon fill="midnightblue" stroke="midnightblue" points="92.5001,-57.3959 96,-67.396 99.5001,-57.396 92.5001,-57.3959"/>
</g>
<!-- Node1 -->
<g id="node2" class="node"><title>Node1</title>
<g id="a_node2"><a xlink:href="structDGtal_1_1concepts_1_1CConstBidirectionalRange.html" target="_top" xlink:title="Aim: Defines the concept describing a bidirectional const range. ">
<polygon fill="white" stroke="black" points="0,-134.5 0,-164.5 192,-164.5 192,-134.5 0,-134.5"/>
<text text-anchor="start" x="8" y="-152.5" font-family="FreeSans" font-size="10.00">DGtal::concepts::CConstBidirectional</text>
<text text-anchor="middle" x="96" y="-141.5" font-family="FreeSans" font-size="10.00">Range&lt; T &gt;</text>
</a>
</g>
</g>
<!-- Node1&#45;&gt;Node0 -->
<g id="edge1" class="edge"><title>Node1&#45;&gt;Node0</title>
<path fill="none" stroke="midnightblue" d="M96,-124.108C96,-115.154 96,-105.323 96,-97.5765"/>
<polygon fill="midnightblue" stroke="midnightblue" points="92.5001,-124.396 96,-134.396 99.5001,-124.396 92.5001,-124.396"/>
</g>
<!-- Node2 -->
<g id="node3" class="node"><title>Node2</title>
<g id="a_node3"><a xlink:href="structDGtal_1_1concepts_1_1CConstSinglePassRange.html" target="_top" xlink:title="Aim: Defines the concept describing a const single pass range. ">
<polygon fill="white" stroke="black" points="14.5,-201.5 14.5,-231.5 177.5,-231.5 177.5,-201.5 14.5,-201.5"/>
<text text-anchor="start" x="22.5" y="-219.5" font-family="FreeSans" font-size="10.00">DGtal::concepts::CConstSingle</text>
<text text-anchor="middle" x="96" y="-208.5" font-family="FreeSans" font-size="10.00">PassRange&lt; T &gt;</text>
</a>
</g>
</g>
<!-- Node2&#45;&gt;Node1 -->
<g id="edge2" class="edge"><title>Node2&#45;&gt;Node1</title>
<path fill="none" stroke="midnightblue" d="M96,-191.108C96,-182.154 96,-172.323 96,-164.577"/>
<polygon fill="midnightblue" stroke="midnightblue" points="92.5001,-191.396 96,-201.396 99.5001,-191.396 92.5001,-191.396"/>
</g>
</g>
</svg>
