<?xml version="1.0" encoding="UTF-8" standalone="no"?>
<!DOCTYPE svg PUBLIC "-//W3C//DTD SVG 1.1//EN"
 "http://www.w3.org/Graphics/SVG/1.1/DTD/svg11.dtd">
<!-- Generated by graphviz version 2.38.0 (20140413.2041)
 -->
<!-- Title: DGtal::UnorderedSetByBlock&lt; Key, TSplitter, Hash, KeyEqual, UnorderedMapAllocator &gt;::const_iterator Pages: 1 -->
<svg width="374pt" height="61pt"
 viewBox="0.00 0.00 374.00 61.00" xmlns="http://www.w3.org/2000/svg" xmlns:xlink="http://www.w3.org/1999/xlink">
<g id="graph0" class="graph" transform="scale(1 1) rotate(0) translate(4 57)">
<title>DGtal::UnorderedSetByBlock&lt; Key, TSplitter, Hash, KeyEqual, UnorderedMapAllocator &gt;::const_iterator</title>
<polygon fill="white" stroke="none" points="-4,4 -4,-57 370,-57 370,4 -4,4"/>
<!-- Node0 -->
<g id="node1" class="node"><title>Node0</title>
<polygon fill="#bfbfbf" stroke="black" points="184,-0.5 184,-52.5 366,-52.5 366,-0.5 184,-0.5"/>
<text text-anchor="start" x="192" y="-40.5" font-family="FreeSans" font-size="10.00">DGtal::UnorderedSetByBlock</text>
<text text-anchor="start" x="192" y="-29.5" font-family="FreeSans" font-size="10.00">&lt; Key, TSplitter, Hash,</text>
<text text-anchor="start" x="192" y="-18.5" font-family="FreeSans" font-size="10.00"> KeyEqual, UnorderedMapAllocator</text>
<text text-anchor="middle" x="275" y="-7.5" font-family="FreeSans" font-size="10.00"> &gt;::const_iterator</text>
</g>
<!-- Node1 -->
<g id="node2" class="node"><title>Node1</title>
<polygon fill="white" stroke="#bfbfbf" points="0,-0.5 0,-52.5 148,-52.5 148,-0.5 0,-0.5"/>
<text text-anchor="start" x="8" y="-40.5" font-family="FreeSans" font-size="10.00">boost::iterator_facade</text>
<text text-anchor="start" x="8" y="-29.5" font-family="FreeSans" font-size="10.00">&lt; const_iterator, Key</text>
<text text-anchor="start" x="8" y="-18.5" font-family="FreeSans" font-size="10.00"> const, boost::forward</text>
<text text-anchor="middle" x="74" y="-7.5" font-family="FreeSans" font-size="10.00">_traversal_tag, Key const &gt;</text>
</g>
<!-- Node1&#45;&gt;Node0 -->
<g id="edge1" class="edge"><title>Node1&#45;&gt;Node0</title>
<path fill="none" stroke="midnightblue" d="M158.358,-26.5C166.719,-26.5 175.237,-26.5 183.666,-26.5"/>
<polygon fill="midnightblue" stroke="midnightblue" points="158.253,-23.0001 148.252,-26.5 158.252,-30.0001 158.253,-23.0001"/>
</g>
</g>
</svg>
