<?xml version="1.0" encoding="UTF-8" standalone="no"?>
<!DOCTYPE svg PUBLIC "-//W3C//DTD SVG 1.1//EN"
 "http://www.w3.org/Graphics/SVG/1.1/DTD/svg11.dtd">
<!-- Generated by graphviz version 2.38.0 (20140413.2041)
 -->
<!-- Title: DGtal::concepts::CDomainAdjacency&lt; T &gt; Pages: 1 -->
<!--zoomable 202 -->
<svg id="main" version="1.1" xmlns="http://www.w3.org/2000/svg" xmlns:xlink="http://www.w3.org/1999/xlink" xml:space="preserve" onload="init(evt)">
<style type="text/css"><![CDATA[
.edge:hover path { stroke: red; }
.edge:hover polygon { stroke: red; fill: red; }
]]></style>
<script type="text/javascript"><![CDATA[
var edges = document.getElementsByTagName('g');
if (edges && edges.length) {
  for (var i=0;i<edges.length;i++) {
    if (edges[i].id.substr(0,4)=='edge') {
      edges[i].setAttribute('class','edge');
    }
  }
}
]]></script>
        <defs>
                <circle id="rim" cx="0" cy="0" r="7"/>
                <circle id="rim2" cx="0" cy="0" r="3.5"/>
                <g id="zoomPlus">
                        <use xlink:href="#rim" fill="#404040">
                                <set attributeName="fill" to="#808080" begin="zoomplus.mouseover" end="zoomplus.mouseout"/>
                        </use>
                        <path d="M-4,0h8M0,-4v8" fill="none" stroke="white" stroke-width="1.5" pointer-events="none"/>
                </g>
                <g id="zoomMin">
                        <use xlink:href="#rim" fill="#404040">
                                <set attributeName="fill" to="#808080" begin="zoomminus.mouseover" end="zoomminus.mouseout"/>
                        </use>
                        <path d="M-4,0h8" fill="none" stroke="white" stroke-width="1.5" pointer-events="none"/>
                </g>
                <g id="dirArrow">
                        <path fill="none" stroke="white" stroke-width="1.5" d="M0,-3.0v7 M-2.5,-0.5L0,-3.0L2.5,-0.5"/>
                </g>
               <g id="resetDef">
                       <use xlink:href="#rim2" fill="#404040">
                               <set attributeName="fill" to="#808080" begin="reset.mouseover" end="reset.mouseout"/>
                       </use>
               </g>
        </defs>

<script type="text/javascript">
var viewWidth = 1564;
var viewHeight = 202;
var sectionId = 'dynsection-1';
</script>
<script xlink:href="svgpan.js"/>
<svg id="graph" class="graph">
<g id="viewport">
<title>DGtal::concepts::CDomainAdjacency&lt; T &gt;</title>
<polygon fill="white" stroke="none" points="-4,4 -4,-197.5 1560,-197.5 1560,4 -4,4"/>
<!-- Node5 -->
<g id="node1" class="node"><title>Node5</title>
<polygon fill="#bfbfbf" stroke="black" points="1413,-139.5 1413,-169.5 1556,-169.5 1556,-139.5 1413,-139.5"/>
<text text-anchor="start" x="1421" y="-157.5" font-family="FreeSans" font-size="10.00">DGtal::concepts::CDomain</text>
<text text-anchor="middle" x="1484.5" y="-146.5" font-family="FreeSans" font-size="10.00">Adjacency&lt; T &gt;</text>
</g>
<!-- Node6 -->
<g id="node2" class="node"><title>Node6</title>
<g id="a_node2"><a xlink:href="structDGtal_1_1concepts_1_1CAdjacency.html" target="_top" xlink:title="DGtal::concepts::CAdjacency\&lt; T \&gt;">
<polygon fill="white" stroke="black" points="1194,-88 1194,-107 1376,-107 1376,-88 1194,-88"/>
<text text-anchor="middle" x="1285" y="-95" font-family="FreeSans" font-size="10.00">DGtal::concepts::CAdjacency&lt; T &gt;</text>
</a>
</g>
</g>
<!-- Node6&#45;&gt;Node5 -->
<g id="edge1" class="edge"><title>Node6&#45;&gt;Node5</title>
<path fill="none" stroke="midnightblue" d="M1328.84,-109.865C1358.95,-118.553 1399.39,-130.224 1431.36,-139.453"/>
<polygon fill="midnightblue" stroke="midnightblue" points="1329.64,-106.451 1319.06,-107.041 1327.69,-113.176 1329.64,-106.451"/>
</g>
<!-- Node7 -->
<g id="node3" class="node"><title>Node7</title>
<g id="a_node3"><a xlink:href="structDGtal_1_1concepts_1_1CUndirectedSimpleLocalGraph.html" target="_top" xlink:title="Aim: Represents the concept of local graph: each vertex has neighboring vertices, but we do not neces...">
<polygon fill="white" stroke="black" points="509,-67.5 509,-97.5 667,-97.5 667,-67.5 509,-67.5"/>
<text text-anchor="start" x="517" y="-85.5" font-family="FreeSans" font-size="10.00">DGtal::concepts::CUndirected</text>
<text text-anchor="middle" x="588" y="-74.5" font-family="FreeSans" font-size="10.00">SimpleLocalGraph&lt; T &gt;</text>
</a>
</g>
</g>
<!-- Node7&#45;&gt;Node6 -->
<g id="edge2" class="edge"><title>Node7&#45;&gt;Node6</title>
<path fill="none" stroke="midnightblue" d="M677.171,-84.403C809.924,-87.2681 1059.82,-92.6615 1193.77,-95.5526"/>
<polygon fill="midnightblue" stroke="midnightblue" points="677.111,-80.901 667.038,-84.1843 676.96,-87.8993 677.111,-80.901"/>
</g>
<!-- Node13 -->
<g id="node9" class="node"><title>Node13</title>
<g id="a_node9"><a xlink:href="structDGtal_1_1concepts_1_1CUndirectedSimpleLocalGraph.html" target="_top" xlink:title="DGtal::concepts::CUndirected\lSimpleLocalGraph\&lt; Adj \&gt;">
<polygon fill="white" stroke="black" points="744,-0.5 744,-30.5 902,-30.5 902,-0.5 744,-0.5"/>
<text text-anchor="start" x="752" y="-18.5" font-family="FreeSans" font-size="10.00">DGtal::concepts::CUndirected</text>
<text text-anchor="middle" x="823" y="-7.5" font-family="FreeSans" font-size="10.00">SimpleLocalGraph&lt; Adj &gt;</text>
</a>
</g>
</g>
<!-- Node7&#45;&gt;Node13 -->
<g id="edge11" class="edge"><title>Node7&#45;&gt;Node13</title>
<path fill="none" stroke="orange" stroke-dasharray="5,2" d="M650.956,-64.6842C687.915,-54.0568 734.331,-40.7095 769.482,-30.6017"/>
<polygon fill="orange" stroke="orange" points="649.933,-61.3366 641.29,-67.4639 651.868,-68.064 649.933,-61.3366"/>
<text text-anchor="middle" x="705.5" y="-56.5" font-family="FreeSans" font-size="10.00"> &lt; Adj &gt;</text>
</g>
<!-- Node8 -->
<g id="node4" class="node"><title>Node8</title>
<g id="a_node4"><a xlink:href="structDGtal_1_1concepts_1_1CVertexPredicateArchetype.html" target="_top" xlink:title="DGtal::concepts::CVertex\lPredicateArchetype\&lt; Vertex \&gt;">
<polygon fill="white" stroke="black" points="262,-28.5 262,-58.5 426,-58.5 426,-28.5 262,-28.5"/>
<text text-anchor="start" x="270" y="-46.5" font-family="FreeSans" font-size="10.00">DGtal::concepts::CVertex</text>
<text text-anchor="middle" x="344" y="-35.5" font-family="FreeSans" font-size="10.00">PredicateArchetype&lt; Vertex &gt;</text>
</a>
</g>
</g>
<!-- Node8&#45;&gt;Node7 -->
<g id="edge3" class="edge"><title>Node8&#45;&gt;Node7</title>
<path fill="none" stroke="#9a32cd" stroke-dasharray="5,2" d="M436.369,-58.2247C460.228,-62.0698 485.724,-66.1787 508.829,-69.9022"/>
<polygon fill="#9a32cd" stroke="#9a32cd" points="436.685,-54.7306 426.256,-56.5949 435.571,-61.6415 436.685,-54.7306"/>
<text text-anchor="middle" x="467.5" y="-69.5" font-family="FreeSans" font-size="10.00"> myVPred</text>
</g>
<!-- Node8&#45;&gt;Node13 -->
<g id="edge10" class="edge"><title>Node8&#45;&gt;Node13</title>
<path fill="none" stroke="#9a32cd" stroke-dasharray="5,2" d="M436.287,-38.1414C525.431,-32.9087 659.637,-25.0307 743.952,-20.0815"/>
<polygon fill="#9a32cd" stroke="#9a32cd" points="435.964,-34.6542 426.187,-38.7343 436.375,-41.6422 435.964,-34.6542"/>
<text text-anchor="middle" x="588" y="-37.5" font-family="FreeSans" font-size="10.00"> myVPred</text>
</g>
<!-- Node9 -->
<g id="node5" class="node"><title>Node9</title>
<g id="a_node5"><a xlink:href="structDGtal_1_1concepts_1_1CVertexPredicateArchetype.html" target="_top" xlink:title="Aim: Defines a an archetype for concept CVertexPredicate. ">
<polygon fill="white" stroke="black" points="0,-28.5 0,-58.5 169,-58.5 169,-28.5 0,-28.5"/>
<text text-anchor="start" x="8" y="-46.5" font-family="FreeSans" font-size="10.00">DGtal::concepts::CVertex</text>
<text text-anchor="middle" x="84.5" y="-35.5" font-family="FreeSans" font-size="10.00">PredicateArchetype&lt; TVertex &gt;</text>
</a>
</g>
</g>
<!-- Node9&#45;&gt;Node8 -->
<g id="edge4" class="edge"><title>Node9&#45;&gt;Node8</title>
<path fill="none" stroke="orange" stroke-dasharray="5,2" d="M179.314,-43.5C206.268,-43.5 235.432,-43.5 261.572,-43.5"/>
<polygon fill="orange" stroke="orange" points="179.103,-40.0001 169.103,-43.5 179.103,-47.0001 179.103,-40.0001"/>
<text text-anchor="middle" x="215.5" y="-46.5" font-family="FreeSans" font-size="10.00"> &lt; Vertex &gt;</text>
</g>
<!-- Node10 -->
<g id="node6" class="node"><title>Node10</title>
<polygon fill="white" stroke="#bfbfbf" points="329.5,-134 329.5,-153 358.5,-153 358.5,-134 329.5,-134"/>
<text text-anchor="middle" x="344" y="-141" font-family="FreeSans" font-size="10.00">T</text>
</g>
<!-- Node10&#45;&gt;Node5 -->
<g id="edge13" class="edge"><title>Node10&#45;&gt;Node5</title>
<path fill="none" stroke="#9a32cd" stroke-dasharray="5,2" d="M368.277,-149.796C411.184,-160.829 505.791,-182.5 587,-182.5 587,-182.5 587,-182.5 1286,-182.5 1328.42,-182.5 1375.47,-176.089 1413,-169.402"/>
<polygon fill="#9a32cd" stroke="#9a32cd" points="369.083,-146.389 358.522,-147.239 367.308,-153.16 369.083,-146.389"/>
<text text-anchor="middle" x="937" y="-185.5" font-family="FreeSans" font-size="10.00"> myT</text>
</g>
<!-- Node10&#45;&gt;Node6 -->
<g id="edge7" class="edge"><title>Node10&#45;&gt;Node6</title>
<path fill="none" stroke="#9a32cd" stroke-dasharray="5,2" d="M368.754,-143.5C412.113,-143.5 506.996,-143.5 587,-143.5 587,-143.5 587,-143.5 1050.5,-143.5 1125.28,-143.5 1211.04,-120.505 1254.88,-107.031"/>
<polygon fill="#9a32cd" stroke="#9a32cd" points="368.645,-140 358.645,-143.5 368.645,-147 368.645,-140"/>
<text text-anchor="middle" x="823" y="-146.5" font-family="FreeSans" font-size="10.00"> myAdj</text>
</g>
<!-- Node10&#45;&gt;Node7 -->
<g id="edge5" class="edge"><title>Node10&#45;&gt;Node7</title>
<path fill="none" stroke="#9a32cd" stroke-dasharray="5,2" d="M368.588,-137.538C388.645,-132.47 418.21,-125.003 444,-118.5 471.307,-111.615 501.549,-104 527.162,-97.5537"/>
<polygon fill="#9a32cd" stroke="#9a32cd" points="367.61,-134.175 358.773,-140.019 369.325,-140.962 367.61,-134.175"/>
<text text-anchor="middle" x="467.5" y="-121.5" font-family="FreeSans" font-size="10.00"> myX</text>
</g>
<!-- Node11 -->
<g id="node7" class="node"><title>Node11</title>
<polygon fill="white" stroke="#bfbfbf" points="1018.5,-50 1018.5,-69 1080.5,-69 1080.5,-50 1018.5,-50"/>
<text text-anchor="middle" x="1049.5" y="-57" font-family="FreeSans" font-size="10.00">MyPointD</text>
</g>
<!-- Node11&#45;&gt;Node6 -->
<g id="edge6" class="edge"><title>Node11&#45;&gt;Node6</title>
<path fill="none" stroke="#9a32cd" stroke-dasharray="5,2" d="M1090.78,-57.0381C1115.53,-56.2902 1147.81,-56.6939 1176,-61.5 1206.59,-66.7143 1240.28,-79.073 1261.76,-87.8519"/>
<polygon fill="#9a32cd" stroke="#9a32cd" points="1090.52,-53.5451 1080.66,-57.4196 1090.78,-60.5402 1090.52,-53.5451"/>
<text text-anchor="middle" x="1160.5" y="-75.5" font-family="FreeSans" font-size="10.00"> myP1</text>
<text text-anchor="middle" x="1160.5" y="-64.5" font-family="FreeSans" font-size="10.00">myP2</text>
</g>
<!-- Node12 -->
<g id="node8" class="node"><title>Node12</title>
<g id="a_node8"><a xlink:href="structDGtal_1_1concepts_1_1CAdjacency.html" target="_top" xlink:title="Aim: The concept CAdjacency defines an elementary adjacency relation between points of a digital spac...">
<polygon fill="white" stroke="black" points="972,-0.5 972,-30.5 1127,-30.5 1127,-0.5 972,-0.5"/>
<text text-anchor="start" x="980" y="-18.5" font-family="FreeSans" font-size="10.00">DGtal::concepts::CAdjacency</text>
<text text-anchor="middle" x="1049.5" y="-7.5" font-family="FreeSans" font-size="10.00">&lt; Adj &gt;</text>
</a>
</g>
</g>
<!-- Node12&#45;&gt;Node6 -->
<g id="edge8" class="edge"><title>Node12&#45;&gt;Node6</title>
<path fill="none" stroke="orange" stroke-dasharray="5,2" d="M1137.05,-31.891C1150.25,-35.2265 1163.6,-39.0903 1176,-43.5 1210.17,-55.6483 1247.48,-76.0382 1268.08,-87.9827"/>
<polygon fill="orange" stroke="orange" points="1137.55,-28.4099 1127,-29.4431 1135.89,-35.2109 1137.55,-28.4099"/>
<text text-anchor="middle" x="1160.5" y="-46.5" font-family="FreeSans" font-size="10.00"> &lt; T &gt;</text>
</g>
<!-- Node13&#45;&gt;Node12 -->
<g id="edge9" class="edge"><title>Node13&#45;&gt;Node12</title>
<path fill="none" stroke="midnightblue" d="M912.355,-15.5C931.969,-15.5 952.605,-15.5 971.712,-15.5"/>
<polygon fill="midnightblue" stroke="midnightblue" points="912.204,-12.0001 902.204,-15.5 912.204,-19.0001 912.204,-12.0001"/>
</g>
<!-- Node14 -->
<g id="node10" class="node"><title>Node14</title>
<polygon fill="white" stroke="#bfbfbf" points="807,-50 807,-69 839,-69 839,-50 807,-50"/>
<text text-anchor="middle" x="823" y="-57" font-family="FreeSans" font-size="10.00">Adj</text>
</g>
<!-- Node14&#45;&gt;Node12 -->
<g id="edge12" class="edge"><title>Node14&#45;&gt;Node12</title>
<path fill="none" stroke="#9a32cd" stroke-dasharray="5,2" d="M848.942,-54.6116C878.436,-48.831 928.933,-38.934 971.749,-30.5425"/>
<polygon fill="#9a32cd" stroke="#9a32cd" points="848.219,-51.1867 839.079,-56.5447 849.565,-58.056 848.219,-51.1867"/>
<text text-anchor="middle" x="937" y="-43.5" font-family="FreeSans" font-size="10.00"> myAdj</text>
</g>
</g>
</svg>
        <g id="navigator" transform="translate(0 0)" fill="#404254">
                <rect fill="#f2f5e9" fill-opacity="0.5" stroke="#606060" stroke-width=".5" x="0" y="0" width="60" height="60"/>
                <use id="zoomplus" xlink:href="#zoomPlus" x="17" y="9" onmousedown="handleZoom(evt,'in')"/>
                <use id="zoomminus" xlink:href="#zoomMin" x="42" y="9" onmousedown="handleZoom(evt,'out')"/>
                <use id="reset" xlink:href="#resetDef" x="30" y="36" onmousedown="handleReset()"/>
                <g id="arrowUp" xlink:href="#dirArrow" transform="translate(30 24)" onmousedown="handlePan(0,-1)">
                  <use xlink:href="#rim" fill="#404040">
                        <set attributeName="fill" to="#808080" begin="arrowUp.mouseover" end="arrowUp.mouseout"/>
                  </use>
                  <path fill="none" stroke="white" stroke-width="1.5" d="M0,-3.0v7 M-2.5,-0.5L0,-3.0L2.5,-0.5"/>
                </g>
                <g id="arrowRight" xlink:href="#dirArrow" transform="rotate(90) translate(36 -43)" onmousedown="handlePan(1,0)">
                  <use xlink:href="#rim" fill="#404040">
                        <set attributeName="fill" to="#808080" begin="arrowRight.mouseover" end="arrowRight.mouseout"/>
                  </use>
                  <path fill="none" stroke="white" stroke-width="1.5" d="M0,-3.0v7 M-2.5,-0.5L0,-3.0L2.5,-0.5"/>
                </g>
                <g id="arrowDown" xlink:href="#dirArrow" transform="rotate(180) translate(-30 -48)" onmousedown="handlePan(0,1)">
                  <use xlink:href="#rim" fill="#404040">
                        <set attributeName="fill" to="#808080" begin="arrowDown.mouseover" end="arrowDown.mouseout"/>
                  </use>
                  <path fill="none" stroke="white" stroke-width="1.5" d="M0,-3.0v7 M-2.5,-0.5L0,-3.0L2.5,-0.5"/>
                </g>
                <g id="arrowLeft" xlink:href="#dirArrow" transform="rotate(270) translate(-36 17)" onmousedown="handlePan(-1,0)">
                  <use xlink:href="#rim" fill="#404040">
                        <set attributeName="fill" to="#808080" begin="arrowLeft.mouseover" end="arrowLeft.mouseout"/>
                  </use>
                  <path fill="none" stroke="white" stroke-width="1.5" d="M0,-3.0v7 M-2.5,-0.5L0,-3.0L2.5,-0.5"/>
                </g>
        </g>
        <svg viewBox="0 0 15 15" width="100%" height="30px" preserveAspectRatio="xMaxYMin meet">
         <g id="arrow_out" transform="scale(0.3 0.3)">
          <a xlink:href="structDGtal_1_1concepts_1_1CDomainAdjacency__coll__graph_org.svg" target="_base">
           <rect id="button" ry="5" rx="5" y="6" x="6" height="38" width="38"
                fill="#f2f5e9" fill-opacity="0.5" stroke="#606060" stroke-width="1.0"/>
           <path id="arrow"
             d="M 11.500037,31.436501 C 11.940474,20.09759 22.043105,11.32322 32.158766,21.979434 L 37.068811,17.246167 C 37.068811,17.246167 37.088388,32 37.088388,32 L 22.160133,31.978069 C 22.160133,31.978069 26.997745,27.140456 26.997745,27.140456 C 18.528582,18.264221 13.291696,25.230495 11.500037,31.436501 z"
             style="fill:#404040;"/>
          </a>
         </g>
        </svg>
</svg>
