<?xml version="1.0" encoding="UTF-8" standalone="no"?>
<!DOCTYPE svg PUBLIC "-//W3C//DTD SVG 1.1//EN"
 "http://www.w3.org/Graphics/SVG/1.1/DTD/svg11.dtd">
<!-- Generated by graphviz version 2.38.0 (20140413.2041)
 -->
<!-- Title: DGtal::concepts::CDigitalSurfaceEmbedder&lt; T &gt; Pages: 1 -->
<svg width="463pt" height="386pt"
 viewBox="0.00 0.00 462.50 386.00" xmlns="http://www.w3.org/2000/svg" xmlns:xlink="http://www.w3.org/1999/xlink">
<g id="graph0" class="graph" transform="scale(1 1) rotate(0) translate(4 382)">
<title>DGtal::concepts::CDigitalSurfaceEmbedder&lt; T &gt;</title>
<polygon fill="white" stroke="none" points="-4,4 -4,-382 458.5,-382 458.5,4 -4,4"/>
<!-- Node6 -->
<g id="node1" class="node"><title>Node6</title>
<polygon fill="#bfbfbf" stroke="black" points="318.5,-0.5 318.5,-30.5 454.5,-30.5 454.5,-0.5 318.5,-0.5"/>
<text text-anchor="start" x="326.5" y="-18.5" font-family="FreeSans" font-size="10.00">DGtal::concepts::CDigital</text>
<text text-anchor="middle" x="386.5" y="-7.5" font-family="FreeSans" font-size="10.00">SurfaceEmbedder&lt; T &gt;</text>
</g>
<!-- Node7 -->
<g id="node2" class="node"><title>Node7</title>
<g id="a_node2"><a xlink:href="structDGtal_1_1concepts_1_1CSCellEmbedder.html" target="_top" xlink:title="Aim: A cell embedder is a mapping from signed cells to Euclidean points. It adds inner types to funct...">
<polygon fill="white" stroke="black" points="190,-68.5 190,-87.5 397,-87.5 397,-68.5 190,-68.5"/>
<text text-anchor="middle" x="293.5" y="-75.5" font-family="FreeSans" font-size="10.00">DGtal::concepts::CSCellEmbedder&lt; T &gt;</text>
</a>
</g>
</g>
<!-- Node7&#45;&gt;Node6 -->
<g id="edge1" class="edge"><title>Node7&#45;&gt;Node6</title>
<path fill="none" stroke="midnightblue" d="M315.431,-62.7331C330.377,-53.0104 350.073,-40.1972 364.939,-30.526"/>
<polygon fill="midnightblue" stroke="midnightblue" points="313.298,-59.9449 306.825,-68.3318 317.116,-65.8126 313.298,-59.9449"/>
</g>
<!-- Node8 -->
<g id="node3" class="node"><title>Node8</title>
<g id="a_node3"><a xlink:href="structDGtal_1_1concepts_1_1CUnaryFunctor.html" target="_top" xlink:title="DGtal::concepts::CUnaryFunctor\l\&lt; T, T::SCell, T::RealPoint \&gt;">
<polygon fill="white" stroke="black" points="133.5,-135.5 133.5,-165.5 303.5,-165.5 303.5,-135.5 133.5,-135.5"/>
<text text-anchor="start" x="141.5" y="-153.5" font-family="FreeSans" font-size="10.00">DGtal::concepts::CUnaryFunctor</text>
<text text-anchor="middle" x="218.5" y="-142.5" font-family="FreeSans" font-size="10.00">&lt; T, T::SCell, T::RealPoint &gt;</text>
</a>
</g>
</g>
<!-- Node8&#45;&gt;Node7 -->
<g id="edge2" class="edge"><title>Node8&#45;&gt;Node7</title>
<path fill="none" stroke="midnightblue" d="M241.227,-128.137C255.571,-114.653 273.349,-97.9417 284.039,-87.8932"/>
<polygon fill="midnightblue" stroke="midnightblue" points="238.566,-125.834 233.677,-135.233 243.361,-130.934 238.566,-125.834"/>
</g>
<!-- Node9 -->
<g id="node4" class="node"><title>Node9</title>
<g id="a_node4"><a xlink:href="structboost_1_1Assignable.html" target="_top" xlink:title="Go to http://www.sgi.com/tech/stl/Assignable.html. ">
<polygon fill="white" stroke="black" points="0,-358.5 0,-377.5 129,-377.5 129,-358.5 0,-358.5"/>
<text text-anchor="middle" x="64.5" y="-365.5" font-family="FreeSans" font-size="10.00">boost::Assignable&lt; T &gt;</text>
</a>
</g>
</g>
<!-- Node9&#45;&gt;Node8 -->
<g id="edge3" class="edge"><title>Node9&#45;&gt;Node8</title>
<path fill="none" stroke="midnightblue" d="M56.2187,-348.576C50.3523,-332.766 44.7747,-309.65 52.5,-291 77.9985,-229.441 147.592,-186.32 188.117,-165.568"/>
<polygon fill="midnightblue" stroke="midnightblue" points="53.1358,-350.283 60.1663,-358.209 59.613,-347.629 53.1358,-350.283"/>
</g>
<!-- Node12 -->
<g id="node7" class="node"><title>Node12</title>
<g id="a_node7"><a xlink:href="structboost_1_1Assignable.html" target="_top" xlink:title="boost::Assignable\&lt; X \&gt;">
<polygon fill="white" stroke="black" points="61.5,-291.5 61.5,-310.5 191.5,-310.5 191.5,-291.5 61.5,-291.5"/>
<text text-anchor="middle" x="126.5" y="-298.5" font-family="FreeSans" font-size="10.00">boost::Assignable&lt; X &gt;</text>
</a>
</g>
</g>
<!-- Node9&#45;&gt;Node12 -->
<g id="edge7" class="edge"><title>Node9&#45;&gt;Node12</title>
<path fill="none" stroke="orange" stroke-dasharray="5,2" d="M79.7646,-350.997C91.9235,-338.25 108.477,-320.895 118.271,-310.627"/>
<polygon fill="orange" stroke="orange" points="77.2311,-348.582 72.8616,-358.234 82.2964,-353.413 77.2311,-348.582"/>
<text text-anchor="middle" x="115.5" y="-332" font-family="FreeSans" font-size="10.00"> &lt; X &gt;</text>
</g>
<!-- Node10 -->
<g id="node5" class="node"><title>Node10</title>
<polygon fill="white" stroke="#bfbfbf" points="358,-219 358,-238 387,-238 387,-219 358,-219"/>
<text text-anchor="middle" x="372.5" y="-226" font-family="FreeSans" font-size="10.00">T</text>
</g>
<!-- Node10&#45;&gt;Node6 -->
<g id="edge12" class="edge"><title>Node10&#45;&gt;Node6</title>
<path fill="none" stroke="#9a32cd" stroke-dasharray="5,2" d="M380.778,-209.503C393.31,-180.025 414.709,-119.568 405.5,-68 403.154,-54.8657 397.692,-40.6948 393.223,-30.5492"/>
<polygon fill="#9a32cd" stroke="#9a32cd" points="377.472,-208.325 376.636,-218.887 383.876,-211.152 377.472,-208.325"/>
<text text-anchor="middle" x="420" y="-109" font-family="FreeSans" font-size="10.00"> myX</text>
</g>
<!-- Node10&#45;&gt;Node7 -->
<g id="edge11" class="edge"><title>Node10&#45;&gt;Node7</title>
<path fill="none" stroke="#9a32cd" stroke-dasharray="5,2" d="M365.61,-209.322C362.458,-201.432 358.531,-192.15 354.5,-184 336.274,-147.151 310.421,-105.516 299.135,-87.7673"/>
<polygon fill="#9a32cd" stroke="#9a32cd" points="362.363,-210.631 369.251,-218.681 368.887,-208.093 362.363,-210.631"/>
<text text-anchor="middle" x="357" y="-148" font-family="FreeSans" font-size="10.00"> myX</text>
</g>
<!-- Node10&#45;&gt;Node8 -->
<g id="edge4" class="edge"><title>Node10&#45;&gt;Node8</title>
<path fill="none" stroke="#9a32cd" stroke-dasharray="5,2" d="M358.755,-211.171C350.287,-202.032 338.735,-191.085 326.5,-184 313.114,-176.248 297.704,-170.186 282.796,-165.508"/>
<polygon fill="#9a32cd" stroke="#9a32cd" points="356.345,-213.728 365.595,-218.894 361.585,-209.087 356.345,-213.728"/>
<text text-anchor="middle" x="346" y="-187" font-family="FreeSans" font-size="10.00"> x</text>
</g>
<!-- Node11 -->
<g id="node6" class="node"><title>Node11</title>
<g id="a_node6"><a xlink:href="structDGtal_1_1concepts_1_1CUnaryFunctor.html" target="_top" xlink:title="Aim: Defines a unary functor, which associates arguments to results. ">
<polygon fill="white" stroke="black" points="139.5,-213.5 139.5,-243.5 309.5,-243.5 309.5,-213.5 139.5,-213.5"/>
<text text-anchor="start" x="147.5" y="-231.5" font-family="FreeSans" font-size="10.00">DGtal::concepts::CUnaryFunctor</text>
<text text-anchor="middle" x="224.5" y="-220.5" font-family="FreeSans" font-size="10.00">&lt; X, A, R &gt;</text>
</a>
</g>
</g>
<!-- Node11&#45;&gt;Node8 -->
<g id="edge5" class="edge"><title>Node11&#45;&gt;Node8</title>
<path fill="none" stroke="orange" stroke-dasharray="5,2" d="M200.55,-205.657C198.096,-202.336 195.968,-198.755 194.5,-195 190.48,-184.718 196.48,-173.843 203.485,-165.538"/>
<polygon fill="orange" stroke="orange" points="197.968,-208.022 207.138,-213.329 203.278,-203.462 197.968,-208.022"/>
<text text-anchor="middle" x="260.5" y="-187" font-family="FreeSans" font-size="10.00"> &lt; T, T::SCell, T::RealPoint &gt;</text>
</g>
<!-- Node12&#45;&gt;Node11 -->
<g id="edge6" class="edge"><title>Node12&#45;&gt;Node11</title>
<path fill="none" stroke="midnightblue" d="M146.704,-285.465C163.768,-273.19 188.053,-255.72 204.933,-243.576"/>
<polygon fill="midnightblue" stroke="midnightblue" points="144.591,-282.674 138.517,-291.355 148.678,-288.357 144.591,-282.674"/>
</g>
<!-- Node13 -->
<g id="node8" class="node"><title>Node13</title>
<polygon fill="white" stroke="#bfbfbf" points="210,-291.5 210,-310.5 239,-310.5 239,-291.5 210,-291.5"/>
<text text-anchor="middle" x="224.5" y="-298.5" font-family="FreeSans" font-size="10.00">X</text>
</g>
<!-- Node13&#45;&gt;Node11 -->
<g id="edge8" class="edge"><title>Node13&#45;&gt;Node11</title>
<path fill="none" stroke="#9a32cd" stroke-dasharray="5,2" d="M224.5,-281.236C224.5,-269.408 224.5,-254.383 224.5,-243.576"/>
<polygon fill="#9a32cd" stroke="#9a32cd" points="221,-281.355 224.5,-291.355 228,-281.355 221,-281.355"/>
<text text-anchor="middle" x="229" y="-265" font-family="FreeSans" font-size="10.00"> x</text>
</g>
<!-- Node14 -->
<g id="node9" class="node"><title>Node14</title>
<polygon fill="white" stroke="#bfbfbf" points="257,-291.5 257,-310.5 286,-310.5 286,-291.5 257,-291.5"/>
<text text-anchor="middle" x="271.5" y="-298.5" font-family="FreeSans" font-size="10.00">R</text>
</g>
<!-- Node14&#45;&gt;Node11 -->
<g id="edge9" class="edge"><title>Node14&#45;&gt;Node11</title>
<path fill="none" stroke="#9a32cd" stroke-dasharray="5,2" d="M259.955,-282.683C251.936,-270.654 241.386,-254.829 233.884,-243.576"/>
<polygon fill="#9a32cd" stroke="#9a32cd" points="257.278,-284.976 265.737,-291.355 263.102,-281.093 257.278,-284.976"/>
<text text-anchor="middle" x="256" y="-265" font-family="FreeSans" font-size="10.00"> r</text>
</g>
<!-- Node15 -->
<g id="node10" class="node"><title>Node15</title>
<polygon fill="white" stroke="#bfbfbf" points="304,-291.5 304,-310.5 333,-310.5 333,-291.5 304,-291.5"/>
<text text-anchor="middle" x="318.5" y="-298.5" font-family="FreeSans" font-size="10.00">A</text>
</g>
<!-- Node15&#45;&gt;Node11 -->
<g id="edge10" class="edge"><title>Node15&#45;&gt;Node11</title>
<path fill="none" stroke="#9a32cd" stroke-dasharray="5,2" d="M298.668,-285.126C282.326,-272.87 259.311,-255.608 243.268,-243.576"/>
<polygon fill="#9a32cd" stroke="#9a32cd" points="296.874,-288.155 306.974,-291.355 301.074,-282.555 296.874,-288.155"/>
<text text-anchor="middle" x="285.5" y="-265" font-family="FreeSans" font-size="10.00"> a</text>
</g>
</g>
</svg>
