<?xml version="1.0" encoding="UTF-8" standalone="no"?>
<!DOCTYPE svg PUBLIC "-//W3C//DTD SVG 1.1//EN"
 "http://www.w3.org/Graphics/SVG/1.1/DTD/svg11.dtd">
<!-- Generated by graphviz version 2.36.0 (20140111.2315)
 -->
<!-- Title: boost::DefaultConstructible&lt; T &gt; Pages: 1 -->
<!--zoomable 730 -->
<svg id="main" version="1.1" xmlns="http://www.w3.org/2000/svg" xmlns:xlink="http://www.w3.org/1999/xlink" xml:space="preserve" onload="init(evt)">
<style type="text/css"><![CDATA[
.edge:hover path { stroke: red; }
.edge:hover polygon { stroke: red; fill: red; }
]]></style>
<script type="text/javascript"><![CDATA[
var edges = document.getElementsByTagName('g');
if (edges && edges.length) {
  for (var i=0;i<edges.length;i++) {
    if (edges[i].id.substr(0,4)=='edge') {
      edges[i].setAttribute('class','edge');
    }
  }
}
]]></script>
        <defs>
                <circle id="rim" cx="0" cy="0" r="7"/>
                <circle id="rim2" cx="0" cy="0" r="3.5"/>
                <g id="zoomPlus">
                        <use xlink:href="#rim" fill="#404040">
                                <set attributeName="fill" to="#808080" begin="zoomplus.mouseover" end="zoomplus.mouseout"/>
                        </use>
                        <path d="M-4,0h8M0,-4v8" fill="none" stroke="white" stroke-width="1.5" pointer-events="none"/>
                </g>
                <g id="zoomMin">
                        <use xlink:href="#rim" fill="#404040">
                                <set attributeName="fill" to="#808080" begin="zoomminus.mouseover" end="zoomminus.mouseout"/>
                        </use>
                        <path d="M-4,0h8" fill="none" stroke="white" stroke-width="1.5" pointer-events="none"/>
                </g>
                <g id="dirArrow">
                        <path fill="none" stroke="white" stroke-width="1.5" d="M0,-3.0v7 M-2.5,-0.5L0,-3.0L2.5,-0.5"/>
                </g>
               <g id="resetDef">
                       <use xlink:href="#rim2" fill="#404040">
                               <set attributeName="fill" to="#808080" begin="reset.mouseover" end="reset.mouseout"/>
                       </use>
               </g>
        </defs>

<script type="text/javascript">
var viewWidth = 1658;
var viewHeight = 730;
var sectionId = 'dynsection-0';
</script>
<script xlink:href="svgpan.js"/>
<svg id="graph" class="graph">
<g id="viewport">
<title>boost::DefaultConstructible&lt; T &gt;</title>
<polygon fill="white" stroke="none" points="-4,4 -4,-726 1654,-726 1654,4 -4,4"/>
<!-- Node0 -->
<g id="node1" class="node"><title>Node0</title>
<polygon fill="#bfbfbf" stroke="black" points="0.5,-366.5 0.5,-385.5 175.5,-385.5 175.5,-366.5 0.5,-366.5"/>
<text text-anchor="middle" x="88" y="-373.5" font-family="FreeSans" font-size="10.00">boost::DefaultConstructible&lt; T &gt;</text>
</g>
<!-- Node1 -->
<g id="node2" class="node"><title>Node1</title>
<g id="a_node2"><a xlink:href="structDGtal_1_1C2x2DetComputer.html" target="_top" xlink:title="Aim: This concept gathers all models that are able to compute the (sign of the) determinant of a 2x2 ...">
<polygon fill="white" stroke="black" points="264.5,-702.5 264.5,-721.5 431.5,-721.5 431.5,-702.5 264.5,-702.5"/>
<text text-anchor="middle" x="348" y="-709.5" font-family="FreeSans" font-size="10.00">DGtal::C2x2DetComputer&lt; T &gt;</text>
</a>
</g>
</g>
<!-- Node0&#45;&gt;Node1 -->
<g id="edge1" class="edge"><title>Node0&#45;&gt;Node1</title>
<path fill="none" stroke="midnightblue" d="M91.5912,-395.731C100.435,-453.991 135.3,-625.344 246,-692 253.197,-696.334 261.156,-699.75 269.355,-702.44"/>
<polygon fill="midnightblue" stroke="midnightblue" points="95.0307,-395.057 90.1546,-385.651 88.1007,-396.045 95.0307,-395.057"/>
</g>
<!-- Node2 -->
<g id="node3" class="node"><title>Node2</title>
<g id="a_node3"><a xlink:href="structDGtal_1_1concepts_1_1CCurveLocalGeometricEstimator.html" target="_top" xlink:title="Aim: This concept describes an object that can process a range so as to return one estimated quantity...">
<polygon fill="white" stroke="black" points="269,-653 269,-683 427,-683 427,-653 269,-653"/>
<text text-anchor="start" x="277" y="-671" font-family="FreeSans" font-size="10.00">DGtal::concepts::CCurveLocal</text>
<text text-anchor="middle" x="348" y="-660" font-family="FreeSans" font-size="10.00">GeometricEstimator&lt; T &gt;</text>
</a>
</g>
</g>
<!-- Node0&#45;&gt;Node2 -->
<g id="edge2" class="edge"><title>Node0&#45;&gt;Node2</title>
<path fill="none" stroke="midnightblue" d="M93.6823,-395.297C107.181,-446.255 151.403,-584.512 246,-643 253.068,-647.37 260.856,-650.976 268.879,-653.953"/>
<polygon fill="midnightblue" stroke="midnightblue" points="97.061,-394.381 91.1993,-385.556 90.2778,-396.11 97.061,-394.381"/>
</g>
<!-- Node4 -->
<g id="node5" class="node"><title>Node4</title>
<g id="a_node5"><a xlink:href="structDGtal_1_1concepts_1_1CGlobalGeometricEstimator.html" target="_top" xlink:title="Aim: This concept describes an object that can process a range so as to return one estimated quantity...">
<polygon fill="white" stroke="black" points="277.5,-604 277.5,-634 418.5,-634 418.5,-604 277.5,-604"/>
<text text-anchor="start" x="285.5" y="-622" font-family="FreeSans" font-size="10.00">DGtal::concepts::CGlobal</text>
<text text-anchor="middle" x="348" y="-611" font-family="FreeSans" font-size="10.00">GeometricEstimator&lt; T &gt;</text>
</a>
</g>
</g>
<!-- Node0&#45;&gt;Node4 -->
<g id="edge4" class="edge"><title>Node0&#45;&gt;Node4</title>
<path fill="none" stroke="midnightblue" d="M95.9526,-395.221C113.245,-439.801 162.892,-549.8 246,-594 255.729,-599.174 266.556,-603.302 277.405,-606.588"/>
<polygon fill="midnightblue" stroke="midnightblue" points="99.2155,-393.954 92.417,-385.828 92.6642,-396.42 99.2155,-393.954"/>
</g>
<!-- Node5 -->
<g id="node6" class="node"><title>Node5</title>
<g id="a_node6"><a xlink:href="structDGtal_1_1concepts_1_1CLabel.html" target="_top" xlink:title="Aim: Define the concept of DGtal labels. Models of CLabel can be default&#45;constructible, assignable and equality comparable. ">
<polygon fill="white" stroke="black" points="268.5,-565.5 268.5,-584.5 427.5,-584.5 427.5,-565.5 268.5,-565.5"/>
<text text-anchor="middle" x="348" y="-572.5" font-family="FreeSans" font-size="10.00">DGtal::concepts::CLabel&lt; T &gt;</text>
</a>
</g>
</g>
<!-- Node0&#45;&gt;Node5 -->
<g id="edge5" class="edge"><title>Node0&#45;&gt;Node5</title>
<path fill="none" stroke="midnightblue" d="M98.6574,-394.879C119.508,-433.348 172.831,-520.194 246,-556 253.933,-559.882 262.574,-562.973 271.353,-565.434"/>
<polygon fill="midnightblue" stroke="midnightblue" points="101.623,-393 93.8547,-385.795 95.4349,-396.272 101.623,-393"/>
</g>
<!-- Node14 -->
<g id="node15" class="node"><title>Node14</title>
<g id="a_node15"><a xlink:href="structDGtal_1_1concepts_1_1CLMSTDSSFilter.html" target="_top" xlink:title="Aim: Defines the concept describing a functor which filters DSSes for L&#45;MST calculations. ">
<polygon fill="white" stroke="black" points="246.5,-527.5 246.5,-546.5 449.5,-546.5 449.5,-527.5 246.5,-527.5"/>
<text text-anchor="middle" x="348" y="-534.5" font-family="FreeSans" font-size="10.00">DGtal::concepts::CLMSTDSSFilter&lt; T &gt;</text>
</a>
</g>
</g>
<!-- Node0&#45;&gt;Node14 -->
<g id="edge15" class="edge"><title>Node0&#45;&gt;Node14</title>
<path fill="none" stroke="midnightblue" d="M103.146,-393.845C128.363,-424.331 184.264,-486.134 246,-517 254.714,-521.357 264.295,-524.765 273.979,-527.431"/>
<polygon fill="midnightblue" stroke="midnightblue" points="105.623,-391.344 96.5986,-385.792 100.191,-395.759 105.623,-391.344"/>
</g>
<!-- Node15 -->
<g id="node16" class="node"><title>Node15</title>
<g id="a_node16"><a xlink:href="structDGtal_1_1concepts_1_1CLMSTTangentFromDSS.html" target="_top" xlink:title="Aim: Defines the concept describing a functor which calculates a direction of the 2D DSS and an eccen...">
<polygon fill="white" stroke="black" points="263.5,-478 263.5,-508 432.5,-508 432.5,-478 263.5,-478"/>
<text text-anchor="start" x="271.5" y="-496" font-family="FreeSans" font-size="10.00">DGtal::concepts::CLMSTTangent</text>
<text text-anchor="middle" x="348" y="-485" font-family="FreeSans" font-size="10.00">FromDSS&lt; T &gt;</text>
</a>
</g>
</g>
<!-- Node0&#45;&gt;Node15 -->
<g id="edge16" class="edge"><title>Node0&#45;&gt;Node15</title>
<path fill="none" stroke="midnightblue" d="M110.418,-391.264C139.72,-411.497 194.551,-447.071 246,-468 255.286,-471.778 265.294,-475.092 275.272,-477.967"/>
<polygon fill="midnightblue" stroke="midnightblue" points="112.379,-388.365 102.176,-385.511 108.373,-394.105 112.379,-388.365"/>
</g>
<!-- Node16 -->
<g id="node17" class="node"><title>Node16</title>
<g id="a_node17"><a xlink:href="structDGtal_1_1concepts_1_1CPolarPointComparator2D.html" target="_top" xlink:title="Aim: This concept gathers classes that are able to compare the position of two given points &#160;around a...">
<polygon fill="white" stroke="black" points="271,-429 271,-459 425,-459 425,-429 271,-429"/>
<text text-anchor="start" x="279" y="-447" font-family="FreeSans" font-size="10.00">DGtal::concepts::CPolarPoint</text>
<text text-anchor="middle" x="348" y="-436" font-family="FreeSans" font-size="10.00">Comparator2D&lt; T &gt;</text>
</a>
</g>
</g>
<!-- Node0&#45;&gt;Node16 -->
<g id="edge17" class="edge"><title>Node0&#45;&gt;Node16</title>
<path fill="none" stroke="midnightblue" d="M132.699,-388.279C164.154,-397.042 207.628,-408.998 246,-419 258.673,-422.303 272.268,-425.741 285.247,-428.971"/>
<polygon fill="midnightblue" stroke="midnightblue" points="133.503,-384.87 122.93,-385.553 131.621,-391.612 133.503,-384.87"/>
</g>
<!-- Node17 -->
<g id="node18" class="node"><title>Node17</title>
<g id="a_node18"><a xlink:href="structDGtal_1_1concepts_1_1CPositiveIrreducibleFraction.html" target="_top" xlink:title="Aim: Defines positive irreducible fractions, i.e. fraction p/q, p and q non&#45;negative integers...">
<polygon fill="white" stroke="black" points="276.5,-380 276.5,-410 419.5,-410 419.5,-380 276.5,-380"/>
<text text-anchor="start" x="284.5" y="-398" font-family="FreeSans" font-size="10.00">DGtal::concepts::CPositive</text>
<text text-anchor="middle" x="348" y="-387" font-family="FreeSans" font-size="10.00">IrreducibleFraction&lt; T &gt;</text>
</a>
</g>
</g>
<!-- Node0&#45;&gt;Node17 -->
<g id="edge18" class="edge"><title>Node0&#45;&gt;Node17</title>
<path fill="none" stroke="midnightblue" d="M185.736,-383.124C215.855,-385.342 248.482,-387.745 276.458,-389.805"/>
<polygon fill="midnightblue" stroke="midnightblue" points="185.858,-379.624 175.628,-382.38 185.344,-386.605 185.858,-379.624"/>
</g>
<!-- Node18 -->
<g id="node19" class="node"><title>Node18</title>
<g id="a_node19"><a xlink:href="structDGtal_1_1concepts_1_1CPreCellularGridSpaceND.html" target="_top" xlink:title="Aim: This concept describes an unbounded cellular grid space in nD. In these spaces obtained by carte...">
<polygon fill="white" stroke="black" points="269.5,-331 269.5,-361 426.5,-361 426.5,-331 269.5,-331"/>
<text text-anchor="start" x="277.5" y="-349" font-family="FreeSans" font-size="10.00">DGtal::concepts::CPreCellular</text>
<text text-anchor="middle" x="348" y="-338" font-family="FreeSans" font-size="10.00">GridSpaceND&lt; T &gt;</text>
</a>
</g>
</g>
<!-- Node0&#45;&gt;Node18 -->
<g id="edge19" class="edge"><title>Node0&#45;&gt;Node18</title>
<path fill="none" stroke="midnightblue" d="M181.065,-365.295C209.902,-361.942 241.429,-358.276 269.183,-355.048"/>
<polygon fill="midnightblue" stroke="midnightblue" points="180.516,-361.835 170.987,-366.467 181.325,-368.788 180.516,-361.835"/>
</g>
<!-- Node20 -->
<g id="node21" class="node"><title>Node20</title>
<g id="a_node21"><a xlink:href="structDGtal_1_1concepts_1_1CPrimitiveComputer.html" target="_top" xlink:title="Aim: Defines the concept describing an object that computes some primitive from input points...">
<polygon fill="white" stroke="black" points="274.5,-282 274.5,-312 421.5,-312 421.5,-282 274.5,-282"/>
<text text-anchor="start" x="282.5" y="-300" font-family="FreeSans" font-size="10.00">DGtal::concepts::CPrimitive</text>
<text text-anchor="middle" x="348" y="-289" font-family="FreeSans" font-size="10.00">Computer&lt; T &gt;</text>
</a>
</g>
</g>
<!-- Node0&#45;&gt;Node20 -->
<g id="edge21" class="edge"><title>Node0&#45;&gt;Node20</title>
<path fill="none" stroke="midnightblue" d="M123.399,-362.791C154.986,-350.94 203.235,-333.535 246,-321 256.723,-317.857 268.176,-314.829 279.377,-312.044"/>
<polygon fill="midnightblue" stroke="midnightblue" points="121.877,-359.625 113.757,-366.431 124.349,-366.174 121.877,-359.625"/>
</g>
<!-- Node23 -->
<g id="node24" class="node"><title>Node23</title>
<g id="a_node24"><a xlink:href="structDGtal_1_1concepts_1_1CSegment.html" target="_top" xlink:title="Aim: Defines the concept describing a segment, ie. a valid and not empty range. ">
<polygon fill="white" stroke="black" points="259,-243.5 259,-262.5 437,-262.5 437,-243.5 259,-243.5"/>
<text text-anchor="middle" x="348" y="-250.5" font-family="FreeSans" font-size="10.00">DGtal::concepts::CSegment&lt; T &gt;</text>
</a>
</g>
</g>
<!-- Node0&#45;&gt;Node23 -->
<g id="edge24" class="edge"><title>Node0&#45;&gt;Node23</title>
<path fill="none" stroke="midnightblue" d="M107.716,-359.928C135.792,-336.717 191.364,-294.171 246,-272 255.589,-268.109 266.017,-265.005 276.413,-262.533"/>
<polygon fill="midnightblue" stroke="midnightblue" points="105.332,-357.36 99.9177,-366.467 109.829,-362.724 105.332,-357.36"/>
</g>
<!-- Node30 -->
<g id="node31" class="node"><title>Node30</title>
<g id="a_node31"><a xlink:href="structDGtal_1_1concepts_1_1CStaticMatrix.html" target="_top" xlink:title="Aim: Represent any static sized matrix having sparse or dense representation. ">
<polygon fill="white" stroke="black" points="281,-194 281,-224 415,-224 415,-194 281,-194"/>
<text text-anchor="start" x="289" y="-212" font-family="FreeSans" font-size="10.00">DGtal::concepts::CStatic</text>
<text text-anchor="middle" x="348" y="-201" font-family="FreeSans" font-size="10.00">Matrix&lt; T &gt;</text>
</a>
</g>
</g>
<!-- Node0&#45;&gt;Node30 -->
<g id="edge32" class="edge"><title>Node0&#45;&gt;Node30</title>
<path fill="none" stroke="midnightblue" d="M103.125,-358.044C128.311,-327.366 184.166,-265.16 246,-234 256.808,-228.553 268.877,-224.245 280.806,-220.853"/>
<polygon fill="midnightblue" stroke="midnightblue" points="100.143,-356.167 96.5869,-366.147 105.59,-360.563 100.143,-356.167"/>
</g>
<!-- Node31 -->
<g id="node32" class="node"><title>Node31</title>
<g id="a_node32"><a xlink:href="structDGtal_1_1concepts_1_1CStaticVector.html" target="_top" xlink:title="Aim: Represent any static sized column vector having sparse or dense representation. ">
<polygon fill="white" stroke="black" points="281,-145 281,-175 415,-175 415,-145 281,-145"/>
<text text-anchor="start" x="289" y="-163" font-family="FreeSans" font-size="10.00">DGtal::concepts::CStatic</text>
<text text-anchor="middle" x="348" y="-152" font-family="FreeSans" font-size="10.00">Vector&lt; T &gt;</text>
</a>
</g>
</g>
<!-- Node0&#45;&gt;Node31 -->
<g id="edge33" class="edge"><title>Node0&#45;&gt;Node31</title>
<path fill="none" stroke="midnightblue" d="M98.3093,-357.483C118.997,-318.405 172.806,-227.536 246,-184 256.611,-177.689 268.774,-173.037 280.9,-169.608"/>
<polygon fill="midnightblue" stroke="midnightblue" points="95.1589,-355.955 93.6687,-366.445 101.375,-359.174 95.1589,-355.955"/>
</g>
<!-- Node32 -->
<g id="node33" class="node"><title>Node32</title>
<g id="a_node33"><a xlink:href="structDGtal_1_1concepts_1_1CSTLAssociativeContainer.html" target="_top" xlink:title="Aim: Defines the concept describing an Associative Container of the STL (https://www.sgi.com/tech/stl/AssociativeContainer.html). ">
<polygon fill="white" stroke="black" points="259.5,-96 259.5,-126 436.5,-126 436.5,-96 259.5,-96"/>
<text text-anchor="start" x="267.5" y="-114" font-family="FreeSans" font-size="10.00">DGtal::concepts::CSTLAssociative</text>
<text text-anchor="middle" x="348" y="-103" font-family="FreeSans" font-size="10.00">Container&lt; T &gt;</text>
</a>
</g>
</g>
<!-- Node0&#45;&gt;Node32 -->
<g id="edge34" class="edge"><title>Node0&#45;&gt;Node32</title>
<path fill="none" stroke="midnightblue" d="M94.9956,-356.816C110.867,-309.613 158.846,-187.837 246,-135 251.702,-131.543 257.866,-128.584 264.239,-126.051"/>
<polygon fill="midnightblue" stroke="midnightblue" points="91.6361,-355.829 91.8678,-366.422 98.2921,-357.997 91.6361,-355.829"/>
</g>
<!-- Node33 -->
<g id="node34" class="node"><title>Node33</title>
<g id="a_node34"><a xlink:href="structDGtal_1_1concepts_1_1CSurfelLocalEstimator.html" target="_top" xlink:title="Aim: This concept describes an object that can process a range of surfels (that are supposed to belon...">
<polygon fill="white" stroke="black" points="281,-47 281,-77 415,-77 415,-47 281,-47"/>
<text text-anchor="start" x="289" y="-65" font-family="FreeSans" font-size="10.00">DGtal::concepts::CSurfel</text>
<text text-anchor="middle" x="348" y="-54" font-family="FreeSans" font-size="10.00">LocalEstimator&lt; T &gt;</text>
</a>
</g>
</g>
<!-- Node0&#45;&gt;Node33 -->
<g id="edge35" class="edge"><title>Node0&#45;&gt;Node33</title>
<path fill="none" stroke="midnightblue" d="M92.6148,-356.225C103.821,-301.407 143.589,-147.505 246,-86 256.584,-79.6437 268.735,-74.9707 280.857,-71.5352"/>
<polygon fill="midnightblue" stroke="midnightblue" points="89.1192,-355.866 90.6447,-366.35 95.9903,-357.203 89.1192,-355.866"/>
</g>
<!-- Node35 -->
<g id="node36" class="node"><title>Node35</title>
<g id="a_node36"><a xlink:href="structboost_1_1DefaultConstructible.html" target="_top" xlink:title="boost::DefaultConstructible\&lt; S \&gt;">
<polygon fill="white" stroke="black" points="260,-7.5 260,-26.5 436,-26.5 436,-7.5 260,-7.5"/>
<text text-anchor="middle" x="348" y="-14.5" font-family="FreeSans" font-size="10.00">boost::DefaultConstructible&lt; S &gt;</text>
</a>
</g>
</g>
<!-- Node0&#45;&gt;Node35 -->
<g id="edge37" class="edge"><title>Node0&#45;&gt;Node35</title>
<path fill="none" stroke="orange" stroke-dasharray="5,2" d="M92.871,-356.444C103.168,-307.731 134.587,-178.33 194,-87 211.483,-60.1246 217.571,-51.8237 246,-37 254.4,-32.6198 263.652,-29.196 273.041,-26.5204"/>
<polygon fill="orange" stroke="orange" points="89.4297,-355.803 90.8459,-366.302 96.2865,-357.211 89.4297,-355.803"/>
<text text-anchor="middle" x="211" y="-90" font-family="FreeSans" font-size="10.00"> &lt; S &gt;</text>
</g>
<!-- Node3 -->
<g id="node4" class="node"><title>Node3</title>
<g id="a_node4"><a xlink:href="structDGtal_1_1concepts_1_1CSegmentComputerEstimator.html" target="_top" xlink:title="Aim: This concept is a refinement of CCurveLocalGeometricEstimator devoted to the estimation of a geo...">
<polygon fill="white" stroke="black" points="500,-653 500,-683 650,-683 650,-653 500,-653"/>
<text text-anchor="start" x="508" y="-671" font-family="FreeSans" font-size="10.00">DGtal::concepts::CSegment</text>
<text text-anchor="middle" x="575" y="-660" font-family="FreeSans" font-size="10.00">ComputerEstimator&lt; T &gt;</text>
</a>
</g>
</g>
<!-- Node2&#45;&gt;Node3 -->
<g id="edge3" class="edge"><title>Node2&#45;&gt;Node3</title>
<path fill="none" stroke="midnightblue" d="M437.142,-668C457.891,-668 479.8,-668 499.861,-668"/>
<polygon fill="midnightblue" stroke="midnightblue" points="437.063,-664.5 427.063,-668 437.063,-671.5 437.063,-664.5"/>
</g>
<!-- Node6 -->
<g id="node7" class="node"><title>Node6</title>
<g id="a_node7"><a xlink:href="structDGtal_1_1concepts_1_1CQuantity.html" target="_top" xlink:title="Aim: defines the concept of quantity in DGtal. ">
<polygon fill="white" stroke="black" points="488,-565.5 488,-584.5 662,-584.5 662,-565.5 488,-565.5"/>
<text text-anchor="middle" x="575" y="-572.5" font-family="FreeSans" font-size="10.00">DGtal::concepts::CQuantity&lt; T &gt;</text>
</a>
</g>
</g>
<!-- Node5&#45;&gt;Node6 -->
<g id="edge6" class="edge"><title>Node5&#45;&gt;Node6</title>
<path fill="none" stroke="midnightblue" d="M437.809,-575C454.222,-575 471.34,-575 487.678,-575"/>
<polygon fill="midnightblue" stroke="midnightblue" points="437.694,-571.5 427.694,-575 437.694,-578.5 437.694,-571.5"/>
</g>
<!-- Node7 -->
<g id="node8" class="node"><title>Node7</title>
<g id="a_node8"><a xlink:href="structDGtal_1_1concepts_1_1CBoundedNumber.html" target="_top" xlink:title="Aim: The concept CBoundedNumber specifies what are the bounded numbers. Models of this concept should...">
<polygon fill="white" stroke="black" points="707.5,-621 707.5,-651 856.5,-651 856.5,-621 707.5,-621"/>
<text text-anchor="start" x="715.5" y="-639" font-family="FreeSans" font-size="10.00">DGtal::concepts::CBounded</text>
<text text-anchor="middle" x="782" y="-628" font-family="FreeSans" font-size="10.00">Number&lt; T &gt;</text>
</a>
</g>
</g>
<!-- Node6&#45;&gt;Node7 -->
<g id="edge7" class="edge"><title>Node6&#45;&gt;Node7</title>
<path fill="none" stroke="midnightblue" d="M617.703,-587.441C636.705,-593.107 659.488,-599.897 680,-606 696.393,-610.878 714.284,-616.194 730.393,-620.978"/>
<polygon fill="midnightblue" stroke="midnightblue" points="618.443,-584.009 607.86,-584.505 616.442,-590.717 618.443,-584.009"/>
</g>
<!-- Node8 -->
<g id="node9" class="node"><title>Node8</title>
<g id="a_node9"><a xlink:href="structDGtal_1_1concepts_1_1CIntegralNumber.html" target="_top" xlink:title="Aim: Concept checking for Integral Numbers. Models of this concept should be listed in NumberTraits c...">
<polygon fill="white" stroke="black" points="882,-577 882,-607 1024,-607 1024,-577 882,-577"/>
<text text-anchor="start" x="890" y="-595" font-family="FreeSans" font-size="10.00">DGtal::concepts::CIntegral</text>
<text text-anchor="middle" x="953" y="-584" font-family="FreeSans" font-size="10.00">Number&lt; T &gt;</text>
</a>
</g>
</g>
<!-- Node6&#45;&gt;Node8 -->
<g id="edge8" class="edge"><title>Node6&#45;&gt;Node8</title>
<path fill="none" stroke="midnightblue" d="M672.584,-579.367C737.982,-582.324 822.888,-586.162 881.861,-588.829"/>
<polygon fill="midnightblue" stroke="midnightblue" points="672.41,-575.855 662.262,-578.9 672.094,-582.848 672.41,-575.855"/>
</g>
<!-- Node10 -->
<g id="node11" class="node"><title>Node10</title>
<g id="a_node11"><a xlink:href="structDGtal_1_1concepts_1_1CSignedNumber.html" target="_top" xlink:title="Aim: Concept checking for Signed Numbers. Models of this concept should be listed in NumberTraits cla...">
<polygon fill="white" stroke="black" points="712.5,-533 712.5,-563 851.5,-563 851.5,-533 712.5,-533"/>
<text text-anchor="start" x="720.5" y="-551" font-family="FreeSans" font-size="10.00">DGtal::concepts::CSigned</text>
<text text-anchor="middle" x="782" y="-540" font-family="FreeSans" font-size="10.00">Number&lt; T &gt;</text>
</a>
</g>
</g>
<!-- Node6&#45;&gt;Node10 -->
<g id="edge10" class="edge"><title>Node6&#45;&gt;Node10</title>
<path fill="none" stroke="midnightblue" d="M658.425,-564.144C676.358,-561.782 695.144,-559.308 712.47,-557.026"/>
<polygon fill="midnightblue" stroke="midnightblue" points="657.733,-560.705 648.275,-565.481 658.647,-567.645 657.733,-560.705"/>
</g>
<!-- Node13 -->
<g id="node14" class="node"><title>Node13</title>
<g id="a_node14"><a xlink:href="structDGtal_1_1concepts_1_1CUnsignedNumber.html" target="_top" xlink:title="Aim: Concept checking for Unsigned numbers. Models of this concept should be listed in NumberTraits c...">
<polygon fill="white" stroke="black" points="706.5,-484 706.5,-514 857.5,-514 857.5,-484 706.5,-484"/>
<text text-anchor="start" x="714.5" y="-502" font-family="FreeSans" font-size="10.00">DGtal::concepts::CUnsigned</text>
<text text-anchor="middle" x="782" y="-491" font-family="FreeSans" font-size="10.00">Number&lt; T &gt;</text>
</a>
</g>
</g>
<!-- Node6&#45;&gt;Node13 -->
<g id="edge14" class="edge"><title>Node6&#45;&gt;Node13</title>
<path fill="none" stroke="midnightblue" d="M607.013,-561.326C631.913,-550.572 667.895,-535.53 700,-524 709.557,-520.568 719.847,-517.17 729.78,-514.036"/>
<polygon fill="midnightblue" stroke="midnightblue" points="605.495,-558.17 597.717,-565.364 608.284,-564.59 605.495,-558.17"/>
</g>
<!-- Node9 -->
<g id="node10" class="node"><title>Node9</title>
<g id="a_node10"><a xlink:href="structDGtal_1_1concepts_1_1CInteger.html" target="_top" xlink:title="Aim: Concept checking for Integer Numbers. More precisely, this concept is a refinement of both CEucl...">
<polygon fill="white" stroke="black" points="1468.5,-564.5 1468.5,-583.5 1635.5,-583.5 1635.5,-564.5 1468.5,-564.5"/>
<text text-anchor="middle" x="1552" y="-571.5" font-family="FreeSans" font-size="10.00">DGtal::concepts::CInteger&lt; T &gt;</text>
</a>
</g>
</g>
<!-- Node8&#45;&gt;Node9 -->
<g id="edge9" class="edge"><title>Node8&#45;&gt;Node9</title>
<path fill="none" stroke="midnightblue" d="M1034.24,-589.581C1147.56,-586.164 1353.41,-579.957 1468.13,-576.498"/>
<polygon fill="midnightblue" stroke="midnightblue" points="1034.13,-586.082 1024.24,-589.882 1034.34,-593.079 1034.13,-586.082"/>
</g>
<!-- Node11 -->
<g id="node12" class="node"><title>Node11</title>
<g id="a_node12"><a xlink:href="structDGtal_1_1concepts_1_1CCommutativeRing.html" target="_top" xlink:title="Aim: Defines the mathematical concept equivalent to a unitary commutative ring. ">
<polygon fill="white" stroke="black" points="1042.5,-533 1042.5,-563 1213.5,-563 1213.5,-533 1042.5,-533"/>
<text text-anchor="start" x="1050.5" y="-551" font-family="FreeSans" font-size="10.00">DGtal::concepts::CCommutative</text>
<text text-anchor="middle" x="1128" y="-540" font-family="FreeSans" font-size="10.00">Ring&lt; T &gt;</text>
</a>
</g>
</g>
<!-- Node10&#45;&gt;Node11 -->
<g id="edge11" class="edge"><title>Node10&#45;&gt;Node11</title>
<path fill="none" stroke="midnightblue" d="M861.976,-548C915.843,-548 987.122,-548 1042.19,-548"/>
<polygon fill="midnightblue" stroke="midnightblue" points="861.787,-544.5 851.787,-548 861.787,-551.5 861.787,-544.5"/>
</g>
<!-- Node12 -->
<g id="node13" class="node"><title>Node12</title>
<g id="a_node13"><a xlink:href="structDGtal_1_1concepts_1_1CEuclideanRing.html" target="_top" xlink:title="Aim: Defines the mathematical concept equivalent to a unitary commutative ring with a division operat...">
<polygon fill="white" stroke="black" points="1258,-533 1258,-563 1410,-563 1410,-533 1258,-533"/>
<text text-anchor="start" x="1266" y="-551" font-family="FreeSans" font-size="10.00">DGtal::concepts::CEuclidean</text>
<text text-anchor="middle" x="1334" y="-540" font-family="FreeSans" font-size="10.00">Ring&lt; T &gt;</text>
</a>
</g>
</g>
<!-- Node11&#45;&gt;Node12 -->
<g id="edge12" class="edge"><title>Node11&#45;&gt;Node12</title>
<path fill="none" stroke="midnightblue" d="M1223.77,-548C1235.24,-548 1246.83,-548 1257.96,-548"/>
<polygon fill="midnightblue" stroke="midnightblue" points="1223.74,-544.5 1213.74,-548 1223.74,-551.5 1223.74,-544.5"/>
</g>
<!-- Node12&#45;&gt;Node9 -->
<g id="edge13" class="edge"><title>Node12&#45;&gt;Node9</title>
<path fill="none" stroke="midnightblue" d="M1420.19,-558.254C1437.26,-560.31 1455.14,-562.461 1471.99,-564.49"/>
<polygon fill="midnightblue" stroke="midnightblue" points="1420.59,-554.777 1410.24,-557.057 1419.75,-561.727 1420.59,-554.777"/>
</g>
<!-- Node19 -->
<g id="node20" class="node"><title>Node19</title>
<g id="a_node20"><a xlink:href="structDGtal_1_1concepts_1_1CCellularGridSpaceND.html" target="_top" xlink:title="Aim: This concept describes a cellular grid space in nD. In these spaces obtained by cartesian produc...">
<polygon fill="white" stroke="black" points="504.5,-331 504.5,-361 645.5,-361 645.5,-331 504.5,-331"/>
<text text-anchor="start" x="512.5" y="-349" font-family="FreeSans" font-size="10.00">DGtal::concepts::CCellular</text>
<text text-anchor="middle" x="575" y="-338" font-family="FreeSans" font-size="10.00">GridSpaceND&lt; T &gt;</text>
</a>
</g>
</g>
<!-- Node18&#45;&gt;Node19 -->
<g id="edge20" class="edge"><title>Node18&#45;&gt;Node19</title>
<path fill="none" stroke="midnightblue" d="M436.891,-346C459.205,-346 482.877,-346 504.159,-346"/>
<polygon fill="midnightblue" stroke="midnightblue" points="436.747,-342.5 426.747,-346 436.747,-349.5 436.747,-342.5"/>
</g>
<!-- Node21 -->
<g id="node22" class="node"><title>Node21</title>
<g id="a_node22"><a xlink:href="structDGtal_1_1concepts_1_1CIncrementalPrimitiveComputer.html" target="_top" xlink:title="Aim: Defines the concept describing an object that computes some primitive from input points given on...">
<polygon fill="white" stroke="black" points="493.5,-282 493.5,-312 656.5,-312 656.5,-282 493.5,-282"/>
<text text-anchor="start" x="501.5" y="-300" font-family="FreeSans" font-size="10.00">DGtal::concepts::CIncremental</text>
<text text-anchor="middle" x="575" y="-289" font-family="FreeSans" font-size="10.00">PrimitiveComputer&lt; T &gt;</text>
</a>
</g>
</g>
<!-- Node20&#45;&gt;Node21 -->
<g id="edge22" class="edge"><title>Node20&#45;&gt;Node21</title>
<path fill="none" stroke="midnightblue" d="M431.793,-297C451.885,-297 473.338,-297 493.33,-297"/>
<polygon fill="midnightblue" stroke="midnightblue" points="431.74,-293.5 421.74,-297 431.74,-300.5 431.74,-293.5"/>
</g>
<!-- Node22 -->
<g id="node23" class="node"><title>Node22</title>
<g id="a_node23"><a xlink:href="structDGtal_1_1concepts_1_1CAdditivePrimitiveComputer.html" target="_top" xlink:title="Aim: Defines the concept describing an object that computes some primitive from input points given gr...">
<polygon fill="white" stroke="black" points="710,-282 710,-312 854,-312 854,-282 710,-282"/>
<text text-anchor="start" x="718" y="-300" font-family="FreeSans" font-size="10.00">DGtal::concepts::CAdditive</text>
<text text-anchor="middle" x="782" y="-289" font-family="FreeSans" font-size="10.00">PrimitiveComputer&lt; T &gt;</text>
</a>
</g>
</g>
<!-- Node21&#45;&gt;Node22 -->
<g id="edge23" class="edge"><title>Node21&#45;&gt;Node22</title>
<path fill="none" stroke="midnightblue" d="M667.121,-297C681.49,-297 696.162,-297 709.987,-297"/>
<polygon fill="midnightblue" stroke="midnightblue" points="666.727,-293.5 656.727,-297 666.727,-300.5 666.727,-293.5"/>
</g>
<!-- Node24 -->
<g id="node25" class="node"><title>Node24</title>
<g id="a_node25"><a xlink:href="structDGtal_1_1concepts_1_1CSegmentFactory.html" target="_top" xlink:title="Aim: Defines the concept describing a segment ie. a valid and not empty subrange, which can construct...">
<polygon fill="white" stroke="black" points="500,-233 500,-263 650,-263 650,-233 500,-233"/>
<text text-anchor="start" x="508" y="-251" font-family="FreeSans" font-size="10.00">DGtal::concepts::CSegment</text>
<text text-anchor="middle" x="575" y="-240" font-family="FreeSans" font-size="10.00">Factory&lt; T &gt;</text>
</a>
</g>
</g>
<!-- Node23&#45;&gt;Node24 -->
<g id="edge25" class="edge"><title>Node23&#45;&gt;Node24</title>
<path fill="none" stroke="midnightblue" d="M447.54,-250.81C465.077,-250.421 483.074,-250.021 499.791,-249.649"/>
<polygon fill="midnightblue" stroke="midnightblue" points="447.2,-247.317 437.28,-251.038 447.356,-254.315 447.2,-247.317"/>
</g>
<!-- Node25 -->
<g id="node26" class="node"><title>Node25</title>
<g id="a_node26"><a xlink:href="structDGtal_1_1concepts_1_1CIncrementalSegmentComputer.html" target="_top" xlink:title="Aim: Defines the concept describing an incremental segment computer, &#160;ie. a model of CSegmentFactory ...">
<polygon fill="white" stroke="black" points="700.5,-233 700.5,-263 863.5,-263 863.5,-233 700.5,-233"/>
<text text-anchor="start" x="708.5" y="-251" font-family="FreeSans" font-size="10.00">DGtal::concepts::CIncremental</text>
<text text-anchor="middle" x="782" y="-240" font-family="FreeSans" font-size="10.00">SegmentComputer&lt; T &gt;</text>
</a>
</g>
</g>
<!-- Node24&#45;&gt;Node25 -->
<g id="edge26" class="edge"><title>Node24&#45;&gt;Node25</title>
<path fill="none" stroke="midnightblue" d="M660.047,-248C673.302,-248 686.983,-248 700.163,-248"/>
<polygon fill="midnightblue" stroke="midnightblue" points="660.01,-244.5 650.01,-248 660.01,-251.5 660.01,-244.5"/>
</g>
<!-- Node26 -->
<g id="node27" class="node"><title>Node26</title>
<g id="a_node27"><a xlink:href="structDGtal_1_1concepts_1_1CForwardSegmentComputer.html" target="_top" xlink:title="Aim: Defines the concept describing a forward segment computer. Like any model of CIncrementalSegment...">
<polygon fill="white" stroke="black" points="1056.5,-233 1056.5,-263 1199.5,-263 1199.5,-233 1056.5,-233"/>
<text text-anchor="start" x="1064.5" y="-251" font-family="FreeSans" font-size="10.00">DGtal::concepts::CForward</text>
<text text-anchor="middle" x="1128" y="-240" font-family="FreeSans" font-size="10.00">SegmentComputer&lt; T &gt;</text>
</a>
</g>
</g>
<!-- Node25&#45;&gt;Node26 -->
<g id="edge27" class="edge"><title>Node25&#45;&gt;Node26</title>
<path fill="none" stroke="midnightblue" d="M873.774,-248C930.938,-248 1003.64,-248 1056.47,-248"/>
<polygon fill="midnightblue" stroke="midnightblue" points="873.653,-244.5 863.653,-248 873.653,-251.5 873.653,-244.5"/>
</g>
<!-- Node27 -->
<g id="node28" class="node"><title>Node27</title>
<g id="a_node28"><a xlink:href="structDGtal_1_1concepts_1_1CBidirectionalSegmentComputer.html" target="_top" xlink:title="Aim: Defines the concept describing a bidirectional segment computer, &#160;ie. a model of concepts::CSegm...">
<polygon fill="white" stroke="black" points="1252,-252 1252,-282 1416,-282 1416,-252 1252,-252"/>
<text text-anchor="start" x="1260" y="-270" font-family="FreeSans" font-size="10.00">DGtal::concepts::CBidirectional</text>
<text text-anchor="middle" x="1334" y="-259" font-family="FreeSans" font-size="10.00">SegmentComputer&lt; T &gt;</text>
</a>
</g>
</g>
<!-- Node26&#45;&gt;Node27 -->
<g id="edge28" class="edge"><title>Node26&#45;&gt;Node27</title>
<path fill="none" stroke="midnightblue" d="M1209.75,-255.521C1223.6,-256.811 1237.99,-258.151 1251.85,-259.442"/>
<polygon fill="midnightblue" stroke="midnightblue" points="1210.06,-252.034 1199.78,-254.592 1209.41,-259.004 1210.06,-252.034"/>
</g>
<!-- Node29 -->
<g id="node30" class="node"><title>Node29</title>
<g id="a_node30"><a xlink:href="structDGtal_1_1concepts_1_1CDynamicSegmentComputer.html" target="_top" xlink:title="Aim: Defines the concept describing a dynamic segment computer, &#160;&#160;ie. a model of CSegment that can ex...">
<polygon fill="white" stroke="black" points="1260,-203 1260,-233 1408,-233 1408,-203 1260,-203"/>
<text text-anchor="start" x="1268" y="-221" font-family="FreeSans" font-size="10.00">DGtal::concepts::CDynamic</text>
<text text-anchor="middle" x="1334" y="-210" font-family="FreeSans" font-size="10.00">SegmentComputer&lt; T &gt;</text>
</a>
</g>
</g>
<!-- Node26&#45;&gt;Node29 -->
<g id="edge30" class="edge"><title>Node26&#45;&gt;Node29</title>
<path fill="none" stroke="midnightblue" d="M1209.94,-236.098C1226.44,-233.67 1243.71,-231.13 1259.92,-228.746"/>
<polygon fill="midnightblue" stroke="midnightblue" points="1209.16,-232.674 1199.78,-237.592 1210.18,-239.599 1209.16,-232.674"/>
</g>
<!-- Node28 -->
<g id="node29" class="node"><title>Node28</title>
<g id="a_node29"><a xlink:href="structDGtal_1_1concepts_1_1CDynamicBidirectionalSegmentComputer.html" target="_top" xlink:title="Aim: Defines the concept describing a dynamic and bidirectional segment computer, ie...">
<polygon fill="white" stroke="black" points="1454.5,-224 1454.5,-254 1649.5,-254 1649.5,-224 1454.5,-224"/>
<text text-anchor="start" x="1462.5" y="-242" font-family="FreeSans" font-size="10.00">DGtal::concepts::CDynamic</text>
<text text-anchor="middle" x="1552" y="-231" font-family="FreeSans" font-size="10.00">BidirectionalSegmentComputer&lt; T &gt;</text>
</a>
</g>
</g>
<!-- Node27&#45;&gt;Node28 -->
<g id="edge29" class="edge"><title>Node27&#45;&gt;Node28</title>
<path fill="none" stroke="midnightblue" d="M1426.06,-255.196C1435.36,-253.99 1444.84,-252.761 1454.2,-251.548"/>
<polygon fill="midnightblue" stroke="midnightblue" points="1425.51,-251.738 1416.04,-256.494 1426.41,-258.68 1425.51,-251.738"/>
</g>
<!-- Node29&#45;&gt;Node28 -->
<g id="edge31" class="edge"><title>Node29&#45;&gt;Node28</title>
<path fill="none" stroke="midnightblue" d="M1418.33,-226.101C1430.08,-227.243 1442.23,-228.425 1454.2,-229.589"/>
<polygon fill="midnightblue" stroke="midnightblue" points="1418.42,-222.594 1408.13,-225.11 1417.74,-229.561 1418.42,-222.594"/>
</g>
<!-- Node34 -->
<g id="node35" class="node"><title>Node34</title>
<g id="a_node35"><a xlink:href="structDGtal_1_1concepts_1_1CDigitalSurfaceLocalEstimator.html" target="_top" xlink:title="Aim: This concept describes an object that can process a range over some generic digital surface so a...">
<polygon fill="white" stroke="black" points="499,-49 499,-79 651,-79 651,-49 499,-49"/>
<text text-anchor="start" x="507" y="-67" font-family="FreeSans" font-size="10.00">DGtal::concepts::CDigital</text>
<text text-anchor="middle" x="575" y="-56" font-family="FreeSans" font-size="10.00">SurfaceLocalEstimator&lt; T &gt;</text>
</a>
</g>
</g>
<!-- Node33&#45;&gt;Node34 -->
<g id="edge36" class="edge"><title>Node33&#45;&gt;Node34</title>
<path fill="none" stroke="midnightblue" d="M425.603,-62.6809C449.215,-62.8908 475.184,-63.1216 498.707,-63.3307"/>
<polygon fill="midnightblue" stroke="midnightblue" points="425.321,-59.1784 415.29,-62.5892 425.259,-66.1781 425.321,-59.1784"/>
</g>
<!-- Node36 -->
<g id="node37" class="node"><title>Node36</title>
<g id="a_node37"><a xlink:href="structDGtal_1_1concepts_1_1CLinearAlgebraSolver.html" target="_top" xlink:title="Aim: Describe a linear solver defined over a linear algebra. Problems are of the form: ...">
<polygon fill="white" stroke="black" points="505,-0 505,-30 645,-30 645,-0 505,-0"/>
<text text-anchor="start" x="513" y="-18" font-family="FreeSans" font-size="10.00">DGtal::concepts::CLinear</text>
<text text-anchor="middle" x="575" y="-7" font-family="FreeSans" font-size="10.00">AlgebraSolver&lt; S, V, M &gt;</text>
</a>
</g>
</g>
<!-- Node35&#45;&gt;Node36 -->
<g id="edge38" class="edge"><title>Node35&#45;&gt;Node36</title>
<path fill="none" stroke="midnightblue" d="M446.517,-16.1332C466.163,-15.9586 486.43,-15.7784 504.863,-15.6146"/>
<polygon fill="midnightblue" stroke="midnightblue" points="446.281,-12.635 436.313,-16.2239 446.344,-19.6348 446.281,-12.635"/>
</g>
</g>
</svg>
        <g id="navigator" transform="translate(0 0)" fill="#404254">
                <rect fill="#f2f5e9" fill-opacity="0.5" stroke="#606060" stroke-width=".5" x="0" y="0" width="60" height="60"/>
                <use id="zoomplus" xlink:href="#zoomPlus" x="17" y="9" onmousedown="handleZoom(evt,'in')"/>
                <use id="zoomminus" xlink:href="#zoomMin" x="42" y="9" onmousedown="handleZoom(evt,'out')"/>
                <use id="reset" xlink:href="#resetDef" x="30" y="36" onmousedown="handleReset()"/>
                <g id="arrowUp" xlink:href="#dirArrow" transform="translate(30 24)" onmousedown="handlePan(0,-1)">
                  <use xlink:href="#rim" fill="#404040">
                        <set attributeName="fill" to="#808080" begin="arrowUp.mouseover" end="arrowUp.mouseout"/>
                  </use>
                  <path fill="none" stroke="white" stroke-width="1.5" d="M0,-3.0v7 M-2.5,-0.5L0,-3.0L2.5,-0.5"/>
                </g>
                <g id="arrowRight" xlink:href="#dirArrow" transform="rotate(90) translate(36 -43)" onmousedown="handlePan(1,0)">
                  <use xlink:href="#rim" fill="#404040">
                        <set attributeName="fill" to="#808080" begin="arrowRight.mouseover" end="arrowRight.mouseout"/>
                  </use>
                  <path fill="none" stroke="white" stroke-width="1.5" d="M0,-3.0v7 M-2.5,-0.5L0,-3.0L2.5,-0.5"/>
                </g>
                <g id="arrowDown" xlink:href="#dirArrow" transform="rotate(180) translate(-30 -48)" onmousedown="handlePan(0,1)">
                  <use xlink:href="#rim" fill="#404040">
                        <set attributeName="fill" to="#808080" begin="arrowDown.mouseover" end="arrowDown.mouseout"/>
                  </use>
                  <path fill="none" stroke="white" stroke-width="1.5" d="M0,-3.0v7 M-2.5,-0.5L0,-3.0L2.5,-0.5"/>
                </g>
                <g id="arrowLeft" xlink:href="#dirArrow" transform="rotate(270) translate(-36 17)" onmousedown="handlePan(-1,0)">
                  <use xlink:href="#rim" fill="#404040">
                        <set attributeName="fill" to="#808080" begin="arrowLeft.mouseover" end="arrowLeft.mouseout"/>
                  </use>
                  <path fill="none" stroke="white" stroke-width="1.5" d="M0,-3.0v7 M-2.5,-0.5L0,-3.0L2.5,-0.5"/>
                </g>
        </g>
        <svg viewBox="0 0 15 15" width="100%" height="30px" preserveAspectRatio="xMaxYMin meet">
         <g id="arrow_out" transform="scale(0.3 0.3)">
          <a xlink:href="structboost_1_1DefaultConstructible__inherit__graph_org.svg" target="_base">
           <rect id="button" ry="5" rx="5" y="6" x="6" height="38" width="38"
                fill="#f2f5e9" fill-opacity="0.5" stroke="#606060" stroke-width="1.0"/>
           <path id="arrow"
             d="M 11.500037,31.436501 C 11.940474,20.09759 22.043105,11.32322 32.158766,21.979434 L 37.068811,17.246167 C 37.068811,17.246167 37.088388,32 37.088388,32 L 22.160133,31.978069 C 22.160133,31.978069 26.997745,27.140456 26.997745,27.140456 C 18.528582,18.264221 13.291696,25.230495 11.500037,31.436501 z"
             style="fill:#404040;"/>
          </a>
         </g>
        </svg>
</svg>
