<?xml version="1.0" encoding="UTF-8" standalone="no"?>
<!DOCTYPE svg PUBLIC "-//W3C//DTD SVG 1.1//EN"
 "http://www.w3.org/Graphics/SVG/1.1/DTD/svg11.dtd">
<!-- Generated by graphviz version 2.38.0 (20140413.2041)
 -->
<!-- Title: DGtal::IntersectionTargetTrait&lt; TSpace, TSeparation, TDimension &gt; Pages: 1 -->
<svg width="215pt" height="128pt"
 viewBox="0.00 0.00 214.50 128.00" xmlns="http://www.w3.org/2000/svg" xmlns:xlink="http://www.w3.org/1999/xlink">
<g id="graph0" class="graph" transform="scale(1 1) rotate(0) translate(4 124)">
<title>DGtal::IntersectionTargetTrait&lt; TSpace, TSeparation, TDimension &gt;</title>
<polygon fill="white" stroke="none" points="-4,4 -4,-124 210.5,-124 210.5,4 -4,4"/>
<!-- Node0 -->
<g id="node1" class="node"><title>Node0</title>
<polygon fill="#bfbfbf" stroke="black" points="5,-78.5 5,-119.5 154,-119.5 154,-78.5 5,-78.5"/>
<text text-anchor="start" x="13" y="-107.5" font-family="FreeSans" font-size="10.00">DGtal::IntersectionTarget</text>
<text text-anchor="start" x="13" y="-96.5" font-family="FreeSans" font-size="10.00">Trait&lt; TSpace, TSeparation,</text>
<text text-anchor="middle" x="79.5" y="-85.5" font-family="FreeSans" font-size="10.00"> TDimension &gt;</text>
</g>
<!-- Node1 -->
<g id="node2" class="node"><title>Node1</title>
<g id="a_node2"><a xlink:href="structDGtal_1_1IntersectionTargetTrait.html" target="_top" xlink:title="DGtal::IntersectionTarget\lTrait\&lt; Space, Separation, 1 \&gt;">
<polygon fill="white" stroke="black" points="-1.42109e-14,-0.5 -1.42109e-14,-30.5 159,-30.5 159,-0.5 -1.42109e-14,-0.5"/>
<text text-anchor="start" x="8" y="-18.5" font-family="FreeSans" font-size="10.00">DGtal::IntersectionTarget</text>
<text text-anchor="middle" x="79.5" y="-7.5" font-family="FreeSans" font-size="10.00">Trait&lt; Space, Separation, 1 &gt;</text>
</a>
</g>
</g>
<!-- Node0&#45;&gt;Node1 -->
<g id="edge1" class="edge"><title>Node0&#45;&gt;Node1</title>
<path fill="none" stroke="orange" stroke-dasharray="5,2" d="M79.5,-68.0254C79.5,-55.258 79.5,-40.9702 79.5,-30.6846"/>
<polygon fill="orange" stroke="orange" points="76.0001,-68.2711 79.5,-78.2711 83.0001,-68.2712 76.0001,-68.2711"/>
<text text-anchor="middle" x="143" y="-52" font-family="FreeSans" font-size="10.00"> &lt; Space, Separation, 1 &gt;</text>
</g>
</g>
</svg>
