<?xml version="1.0" encoding="UTF-8" standalone="no"?>
<!DOCTYPE svg PUBLIC "-//W3C//DTD SVG 1.1//EN"
 "http://www.w3.org/Graphics/SVG/1.1/DTD/svg11.dtd">
<!-- Generated by graphviz version 2.38.0 (20140413.2041)
 -->
<!-- Title: DGtal::C2x2DetComputer&lt; T &gt; Pages: 1 -->
<svg width="411pt" height="142pt"
 viewBox="0.00 0.00 411.00 142.00" xmlns="http://www.w3.org/2000/svg" xmlns:xlink="http://www.w3.org/1999/xlink">
<g id="graph0" class="graph" transform="scale(1 1) rotate(0) translate(4 138)">
<title>DGtal::C2x2DetComputer&lt; T &gt;</title>
<polygon fill="white" stroke="none" points="-4,4 -4,-138 407,-138 407,4 -4,4"/>
<!-- Node4 -->
<g id="node1" class="node"><title>Node4</title>
<polygon fill="#bfbfbf" stroke="black" points="236,-57.5 236,-76.5 403,-76.5 403,-57.5 236,-57.5"/>
<text text-anchor="middle" x="319.5" y="-64.5" font-family="FreeSans" font-size="10.00">DGtal::C2x2DetComputer&lt; T &gt;</text>
</g>
<!-- Node5 -->
<g id="node2" class="node"><title>Node5</title>
<g id="a_node2"><a xlink:href="structboost_1_1DefaultConstructible.html" target="_top" xlink:title="Go to http://www.sgi.com/tech/stl/DefaultConstructible.html. ">
<polygon fill="white" stroke="black" points="0,-114.5 0,-133.5 175,-133.5 175,-114.5 0,-114.5"/>
<text text-anchor="middle" x="87.5" y="-121.5" font-family="FreeSans" font-size="10.00">boost::DefaultConstructible&lt; T &gt;</text>
</a>
</g>
</g>
<!-- Node5&#45;&gt;Node4 -->
<g id="edge1" class="edge"><title>Node5&#45;&gt;Node4</title>
<path fill="none" stroke="midnightblue" d="M143.749,-112.233C154.149,-109.913 164.921,-107.44 175,-105 212.447,-95.9335 255.096,-84.497 284.1,-76.5505"/>
<polygon fill="midnightblue" stroke="midnightblue" points="142.935,-108.828 133.926,-114.403 144.445,-115.663 142.935,-108.828"/>
</g>
<!-- Node6 -->
<g id="node3" class="node"><title>Node6</title>
<g id="a_node3"><a xlink:href="structboost_1_1CopyConstructible.html" target="_top" xlink:title="Go to http://www.sgi.com/tech/stl/CopyConstructible.html. ">
<polygon fill="white" stroke="black" points="5.5,-76.5 5.5,-95.5 169.5,-95.5 169.5,-76.5 5.5,-76.5"/>
<text text-anchor="middle" x="87.5" y="-83.5" font-family="FreeSans" font-size="10.00">boost::CopyConstructible&lt; T &gt;</text>
</a>
</g>
</g>
<!-- Node6&#45;&gt;Node4 -->
<g id="edge2" class="edge"><title>Node6&#45;&gt;Node4</title>
<path fill="none" stroke="midnightblue" d="M179.767,-78.4605C198.269,-76.9322 217.627,-75.333 235.813,-73.8307"/>
<polygon fill="midnightblue" stroke="midnightblue" points="179.267,-74.9898 169.589,-79.3013 179.844,-81.9661 179.267,-74.9898"/>
</g>
<!-- Node7 -->
<g id="node4" class="node"><title>Node7</title>
<g id="a_node4"><a xlink:href="structboost_1_1Assignable.html" target="_top" xlink:title="Go to http://www.sgi.com/tech/stl/Assignable.html. ">
<polygon fill="white" stroke="black" points="23,-38.5 23,-57.5 152,-57.5 152,-38.5 23,-38.5"/>
<text text-anchor="middle" x="87.5" y="-45.5" font-family="FreeSans" font-size="10.00">boost::Assignable&lt; T &gt;</text>
</a>
</g>
</g>
<!-- Node7&#45;&gt;Node4 -->
<g id="edge3" class="edge"><title>Node7&#45;&gt;Node4</title>
<path fill="none" stroke="midnightblue" d="M162.437,-54.1078C185.773,-56.0356 211.706,-58.1779 235.623,-60.1537"/>
<polygon fill="midnightblue" stroke="midnightblue" points="162.517,-50.6026 152.262,-53.2673 161.94,-57.5788 162.517,-50.6026"/>
</g>
<!-- Node8 -->
<g id="node5" class="node"><title>Node8</title>
<polygon fill="white" stroke="#bfbfbf" points="73,-0.5 73,-19.5 102,-19.5 102,-0.5 73,-0.5"/>
<text text-anchor="middle" x="87.5" y="-7.5" font-family="FreeSans" font-size="10.00">T</text>
</g>
<!-- Node8&#45;&gt;Node4 -->
<g id="edge4" class="edge"><title>Node8&#45;&gt;Node4</title>
<path fill="none" stroke="#9a32cd" stroke-dasharray="5,2" d="M111.898,-14.8572C129.337,-18.5458 153.715,-23.8465 175,-29 212.447,-38.0665 255.096,-49.503 284.1,-57.4495"/>
<polygon fill="#9a32cd" stroke="#9a32cd" points="112.531,-11.4139 102.026,-12.7845 111.093,-18.2646 112.531,-11.4139"/>
<text text-anchor="middle" x="205.5" y="-42" font-family="FreeSans" font-size="10.00"> myX</text>
</g>
</g>
</svg>
