<?xml version="1.0" encoding="UTF-8" standalone="no"?>
<!DOCTYPE svg PUBLIC "-//W3C//DTD SVG 1.1//EN"
 "http://www.w3.org/Graphics/SVG/1.1/DTD/svg11.dtd">
<!-- Generated by graphviz version 2.38.0 (20140413.2041)
 -->
<!-- Title: DGtal::concepts::CEuclideanRing&lt; T &gt; Pages: 1 -->
<!--zoomable 157 -->
<svg id="main" version="1.1" xmlns="http://www.w3.org/2000/svg" xmlns:xlink="http://www.w3.org/1999/xlink" xml:space="preserve" onload="init(evt)">
<style type="text/css"><![CDATA[
.edge:hover path { stroke: red; }
.edge:hover polygon { stroke: red; fill: red; }
]]></style>
<script type="text/javascript"><![CDATA[
var edges = document.getElementsByTagName('g');
if (edges && edges.length) {
  for (var i=0;i<edges.length;i++) {
    if (edges[i].id.substr(0,4)=='edge') {
      edges[i].setAttribute('class','edge');
    }
  }
}
]]></script>
        <defs>
                <circle id="rim" cx="0" cy="0" r="7"/>
                <circle id="rim2" cx="0" cy="0" r="3.5"/>
                <g id="zoomPlus">
                        <use xlink:href="#rim" fill="#404040">
                                <set attributeName="fill" to="#808080" begin="zoomplus.mouseover" end="zoomplus.mouseout"/>
                        </use>
                        <path d="M-4,0h8M0,-4v8" fill="none" stroke="white" stroke-width="1.5" pointer-events="none"/>
                </g>
                <g id="zoomMin">
                        <use xlink:href="#rim" fill="#404040">
                                <set attributeName="fill" to="#808080" begin="zoomminus.mouseover" end="zoomminus.mouseout"/>
                        </use>
                        <path d="M-4,0h8" fill="none" stroke="white" stroke-width="1.5" pointer-events="none"/>
                </g>
                <g id="dirArrow">
                        <path fill="none" stroke="white" stroke-width="1.5" d="M0,-3.0v7 M-2.5,-0.5L0,-3.0L2.5,-0.5"/>
                </g>
               <g id="resetDef">
                       <use xlink:href="#rim2" fill="#404040">
                               <set attributeName="fill" to="#808080" begin="reset.mouseover" end="reset.mouseout"/>
                       </use>
               </g>
        </defs>

<script type="text/javascript">
var viewWidth = 1194;
var viewHeight = 157;
var sectionId = 'dynsection-1';
</script>
<script xlink:href="svgpan.js"/>
<svg id="graph" class="graph">
<g id="viewport">
<title>DGtal::concepts::CEuclideanRing&lt; T &gt;</title>
<polygon fill="white" stroke="none" points="-4,4 -4,-153.024 1190,-153.024 1190,4 -4,4"/>
<!-- Node10 -->
<g id="node1" class="node"><title>Node10</title>
<polygon fill="#bfbfbf" stroke="black" points="1034,-2.02377 1034,-32.0238 1186,-32.0238 1186,-2.02377 1034,-2.02377"/>
<text text-anchor="start" x="1042" y="-20.0238" font-family="FreeSans" font-size="10.00">DGtal::concepts::CEuclidean</text>
<text text-anchor="middle" x="1110" y="-9.02377" font-family="FreeSans" font-size="10.00">Ring&lt; T &gt;</text>
</g>
<!-- Node11 -->
<g id="node2" class="node"><title>Node11</title>
<g id="a_node2"><a xlink:href="structDGtal_1_1concepts_1_1CCommutativeRing.html" target="_top" xlink:title="Aim: Defines the mathematical concept equivalent to a unitary commutative ring. ">
<polygon fill="white" stroke="black" points="826,-46.0238 826,-76.0238 997,-76.0238 997,-46.0238 826,-46.0238"/>
<text text-anchor="start" x="834" y="-64.0238" font-family="FreeSans" font-size="10.00">DGtal::concepts::CCommutative</text>
<text text-anchor="middle" x="911.5" y="-53.0238" font-family="FreeSans" font-size="10.00">Ring&lt; T &gt;</text>
</a>
</g>
</g>
<!-- Node11&#45;&gt;Node10 -->
<g id="edge1" class="edge"><title>Node11&#45;&gt;Node10</title>
<path fill="none" stroke="midnightblue" d="M989.619,-43.7553C1006.89,-39.8886 1025.07,-35.8171 1041.89,-32.05"/>
<polygon fill="midnightblue" stroke="midnightblue" points="988.568,-40.404 979.575,-46.0045 990.098,-47.2348 988.568,-40.404"/>
</g>
<!-- Node12 -->
<g id="node3" class="node"><title>Node12</title>
<g id="a_node3"><a xlink:href="structDGtal_1_1concepts_1_1CSignedNumber.html" target="_top" xlink:title="Aim: Concept checking for Signed Numbers. Models of this concept should be listed in NumberTraits cla...">
<polygon fill="white" stroke="black" points="641,-60.0238 641,-90.0238 780,-90.0238 780,-60.0238 641,-60.0238"/>
<text text-anchor="start" x="649" y="-78.0238" font-family="FreeSans" font-size="10.00">DGtal::concepts::CSigned</text>
<text text-anchor="middle" x="710.5" y="-67.0238" font-family="FreeSans" font-size="10.00">Number&lt; T &gt;</text>
</a>
</g>
</g>
<!-- Node12&#45;&gt;Node11 -->
<g id="edge2" class="edge"><title>Node12&#45;&gt;Node11</title>
<path fill="none" stroke="midnightblue" d="M790.402,-69.4729C802.075,-68.6516 814.144,-67.8026 825.926,-66.9737"/>
<polygon fill="midnightblue" stroke="midnightblue" points="789.993,-65.9929 780.263,-70.1862 790.484,-72.9757 789.993,-65.9929"/>
</g>
<!-- Node13 -->
<g id="node4" class="node"><title>Node13</title>
<g id="a_node4"><a xlink:href="structDGtal_1_1concepts_1_1CQuantity.html" target="_top" xlink:title="Aim: defines the concept of quantity in DGtal. ">
<polygon fill="white" stroke="black" points="430,-65.5238 430,-84.5238 604,-84.5238 604,-65.5238 430,-65.5238"/>
<text text-anchor="middle" x="517" y="-72.5238" font-family="FreeSans" font-size="10.00">DGtal::concepts::CQuantity&lt; T &gt;</text>
</a>
</g>
</g>
<!-- Node13&#45;&gt;Node12 -->
<g id="edge3" class="edge"><title>Node13&#45;&gt;Node12</title>
<path fill="none" stroke="midnightblue" d="M614.355,-75.0238C623.339,-75.0238 632.315,-75.0238 640.968,-75.0238"/>
<polygon fill="midnightblue" stroke="midnightblue" points="614.226,-71.5239 604.226,-75.0238 614.226,-78.5239 614.226,-71.5239"/>
</g>
<!-- Node14 -->
<g id="node5" class="node"><title>Node14</title>
<g id="a_node5"><a xlink:href="structDGtal_1_1concepts_1_1CLabel.html" target="_top" xlink:title="Aim: Define the concept of DGtal labels. Models of CLabel can be default&#45;constructible, assignable and equality comparable. ">
<polygon fill="white" stroke="black" points="223,-91.5238 223,-110.524 382,-110.524 382,-91.5238 223,-91.5238"/>
<text text-anchor="middle" x="302.5" y="-98.5238" font-family="FreeSans" font-size="10.00">DGtal::concepts::CLabel&lt; T &gt;</text>
</a>
</g>
</g>
<!-- Node14&#45;&gt;Node13 -->
<g id="edge4" class="edge"><title>Node14&#45;&gt;Node13</title>
<path fill="none" stroke="midnightblue" d="M391.487,-90.2583C406.943,-88.3672 422.931,-86.411 438.089,-84.5564"/>
<polygon fill="midnightblue" stroke="midnightblue" points="390.921,-86.8013 381.421,-91.49 391.772,-93.7495 390.921,-86.8013"/>
</g>
<!-- Node15 -->
<g id="node6" class="node"><title>Node15</title>
<g id="a_node6"><a xlink:href="structboost_1_1DefaultConstructible.html" target="_top" xlink:title="Go to http://www.sgi.com/tech/stl/DefaultConstructible.html. ">
<polygon fill="white" stroke="black" points="0,-129.524 0,-148.524 175,-148.524 175,-129.524 0,-129.524"/>
<text text-anchor="middle" x="87.5" y="-136.524" font-family="FreeSans" font-size="10.00">boost::DefaultConstructible&lt; T &gt;</text>
</a>
</g>
</g>
<!-- Node15&#45;&gt;Node14 -->
<g id="edge5" class="edge"><title>Node15&#45;&gt;Node14</title>
<path fill="none" stroke="midnightblue" d="M152.103,-127.677C182.663,-122.225 218.882,-115.763 248.004,-110.568"/>
<polygon fill="midnightblue" stroke="midnightblue" points="151.204,-124.282 141.974,-129.484 152.433,-131.173 151.204,-124.282"/>
</g>
<!-- Node16 -->
<g id="node7" class="node"><title>Node16</title>
<g id="a_node7"><a xlink:href="structboost_1_1Assignable.html" target="_top" xlink:title="Go to http://www.sgi.com/tech/stl/Assignable.html. ">
<polygon fill="white" stroke="black" points="23,-91.5238 23,-110.524 152,-110.524 152,-91.5238 23,-91.5238"/>
<text text-anchor="middle" x="87.5" y="-98.5238" font-family="FreeSans" font-size="10.00">boost::Assignable&lt; T &gt;</text>
</a>
</g>
</g>
<!-- Node16&#45;&gt;Node14 -->
<g id="edge6" class="edge"><title>Node16&#45;&gt;Node14</title>
<path fill="none" stroke="midnightblue" d="M162.18,-101.024C181.737,-101.024 202.93,-101.024 222.745,-101.024"/>
<polygon fill="midnightblue" stroke="midnightblue" points="162.119,-97.5239 152.119,-101.024 162.118,-104.524 162.119,-97.5239"/>
</g>
<!-- Node17 -->
<g id="node8" class="node"><title>Node17</title>
<g id="a_node8"><a xlink:href="structboost_1_1EqualityComparable.html" target="_top" xlink:title="Go to http://www.sgi.com/tech/stl/EqualityComparable.html. ">
<polygon fill="white" stroke="black" points="1,-53.5238 1,-72.5238 174,-72.5238 174,-53.5238 1,-53.5238"/>
<text text-anchor="middle" x="87.5" y="-60.5238" font-family="FreeSans" font-size="10.00">boost::EqualityComparable&lt; T &gt;</text>
</a>
</g>
</g>
<!-- Node17&#45;&gt;Node14 -->
<g id="edge7" class="edge"><title>Node17&#45;&gt;Node14</title>
<path fill="none" stroke="midnightblue" d="M152.103,-74.3707C182.663,-79.8228 218.882,-86.2844 248.004,-91.4799"/>
<polygon fill="midnightblue" stroke="midnightblue" points="152.433,-70.8745 141.974,-72.5637 151.204,-77.7657 152.433,-70.8745"/>
</g>
<!-- Node18 -->
<g id="node9" class="node"><title>Node18</title>
<g id="a_node9"><a xlink:href="structboost_1_1LessThanComparable.html" target="_top" xlink:title="Go to http://www.sgi.com/tech/stl/LessThanComparable.html. ">
<polygon fill="white" stroke="black" points="212,-53.5238 212,-72.5238 393,-72.5238 393,-53.5238 212,-53.5238"/>
<text text-anchor="middle" x="302.5" y="-60.5238" font-family="FreeSans" font-size="10.00">boost::LessThanComparable&lt; T &gt;</text>
</a>
</g>
</g>
<!-- Node18&#45;&gt;Node13 -->
<g id="edge8" class="edge"><title>Node18&#45;&gt;Node13</title>
<path fill="none" stroke="midnightblue" d="M403.107,-68.6486C412.092,-69.156 421.14,-69.667 429.994,-70.167"/>
<polygon fill="midnightblue" stroke="midnightblue" points="403.185,-65.1475 393.003,-68.0781 402.79,-72.1364 403.185,-65.1475"/>
</g>
<!-- Node19 -->
<g id="node10" class="node"><title>Node19</title>
<polygon fill="white" stroke="#bfbfbf" points="696,-1.52377 696,-20.5238 725,-20.5238 725,-1.52377 696,-1.52377"/>
<text text-anchor="middle" x="710.5" y="-8.52377" font-family="FreeSans" font-size="10.00">T</text>
</g>
<!-- Node19&#45;&gt;Node10 -->
<g id="edge10" class="edge"><title>Node19&#45;&gt;Node10</title>
<path fill="none" stroke="#9a32cd" stroke-dasharray="5,2" d="M735.482,-8.85935C758.631,-6.8858 794.681,-4.11655 826,-3.02377 901.954,-0.37359 921.147,1.69868 997,-3.02377 1008.93,-3.76652 1021.53,-4.9502 1033.81,-6.3225"/>
<polygon fill="#9a32cd" stroke="#9a32cd" points="734.889,-5.39764 725.231,-9.75342 735.498,-12.3712 734.889,-5.39764"/>
<text text-anchor="middle" x="911.5" y="-28.0238" font-family="FreeSans" font-size="10.00"> a</text>
<text text-anchor="middle" x="911.5" y="-17.0238" font-family="FreeSans" font-size="10.00">b</text>
<text text-anchor="middle" x="911.5" y="-6.02377" font-family="FreeSans" font-size="10.00">c</text>
</g>
<!-- Node19&#45;&gt;Node11 -->
<g id="edge9" class="edge"><title>Node19&#45;&gt;Node11</title>
<path fill="none" stroke="#9a32cd" stroke-dasharray="5,2" d="M735.191,-15.7559C754.784,-19.7708 783.299,-25.848 808,-32.0238 824.955,-36.2628 843.359,-41.3239 859.833,-46.0225"/>
<polygon fill="#9a32cd" stroke="#9a32cd" points="735.801,-12.3085 725.305,-13.75 734.409,-19.1687 735.801,-12.3085"/>
<text text-anchor="middle" x="803" y="-57.0238" font-family="FreeSans" font-size="10.00"> a</text>
<text text-anchor="middle" x="803" y="-46.0238" font-family="FreeSans" font-size="10.00">b</text>
<text text-anchor="middle" x="803" y="-35.0238" font-family="FreeSans" font-size="10.00">c</text>
</g>
</g>
</svg>
        <g id="navigator" transform="translate(0 0)" fill="#404254">
                <rect fill="#f2f5e9" fill-opacity="0.5" stroke="#606060" stroke-width=".5" x="0" y="0" width="60" height="60"/>
                <use id="zoomplus" xlink:href="#zoomPlus" x="17" y="9" onmousedown="handleZoom(evt,'in')"/>
                <use id="zoomminus" xlink:href="#zoomMin" x="42" y="9" onmousedown="handleZoom(evt,'out')"/>
                <use id="reset" xlink:href="#resetDef" x="30" y="36" onmousedown="handleReset()"/>
                <g id="arrowUp" xlink:href="#dirArrow" transform="translate(30 24)" onmousedown="handlePan(0,-1)">
                  <use xlink:href="#rim" fill="#404040">
                        <set attributeName="fill" to="#808080" begin="arrowUp.mouseover" end="arrowUp.mouseout"/>
                  </use>
                  <path fill="none" stroke="white" stroke-width="1.5" d="M0,-3.0v7 M-2.5,-0.5L0,-3.0L2.5,-0.5"/>
                </g>
                <g id="arrowRight" xlink:href="#dirArrow" transform="rotate(90) translate(36 -43)" onmousedown="handlePan(1,0)">
                  <use xlink:href="#rim" fill="#404040">
                        <set attributeName="fill" to="#808080" begin="arrowRight.mouseover" end="arrowRight.mouseout"/>
                  </use>
                  <path fill="none" stroke="white" stroke-width="1.5" d="M0,-3.0v7 M-2.5,-0.5L0,-3.0L2.5,-0.5"/>
                </g>
                <g id="arrowDown" xlink:href="#dirArrow" transform="rotate(180) translate(-30 -48)" onmousedown="handlePan(0,1)">
                  <use xlink:href="#rim" fill="#404040">
                        <set attributeName="fill" to="#808080" begin="arrowDown.mouseover" end="arrowDown.mouseout"/>
                  </use>
                  <path fill="none" stroke="white" stroke-width="1.5" d="M0,-3.0v7 M-2.5,-0.5L0,-3.0L2.5,-0.5"/>
                </g>
                <g id="arrowLeft" xlink:href="#dirArrow" transform="rotate(270) translate(-36 17)" onmousedown="handlePan(-1,0)">
                  <use xlink:href="#rim" fill="#404040">
                        <set attributeName="fill" to="#808080" begin="arrowLeft.mouseover" end="arrowLeft.mouseout"/>
                  </use>
                  <path fill="none" stroke="white" stroke-width="1.5" d="M0,-3.0v7 M-2.5,-0.5L0,-3.0L2.5,-0.5"/>
                </g>
        </g>
        <svg viewBox="0 0 15 15" width="100%" height="30px" preserveAspectRatio="xMaxYMin meet">
         <g id="arrow_out" transform="scale(0.3 0.3)">
          <a xlink:href="structDGtal_1_1concepts_1_1CEuclideanRing__coll__graph_org.svg" target="_base">
           <rect id="button" ry="5" rx="5" y="6" x="6" height="38" width="38"
                fill="#f2f5e9" fill-opacity="0.5" stroke="#606060" stroke-width="1.0"/>
           <path id="arrow"
             d="M 11.500037,31.436501 C 11.940474,20.09759 22.043105,11.32322 32.158766,21.979434 L 37.068811,17.246167 C 37.068811,17.246167 37.088388,32 37.088388,32 L 22.160133,31.978069 C 22.160133,31.978069 26.997745,27.140456 26.997745,27.140456 C 18.528582,18.264221 13.291696,25.230495 11.500037,31.436501 z"
             style="fill:#404040;"/>
          </a>
         </g>
        </svg>
</svg>
