<?xml version="1.0" encoding="UTF-8" standalone="no"?>
<!DOCTYPE svg PUBLIC "-//W3C//DTD SVG 1.1//EN"
 "http://www.w3.org/Graphics/SVG/1.1/DTD/svg11.dtd">
<!-- Generated by graphviz version 2.38.0 (20140413.2041)
 -->
<!-- Title: DGtal::concepts::CDiscreteExteriorCalculusVectorSpace&lt; T &gt; Pages: 1 -->
<svg width="212pt" height="174pt"
 viewBox="0.00 0.00 211.50 174.00" xmlns="http://www.w3.org/2000/svg" xmlns:xlink="http://www.w3.org/1999/xlink">
<g id="graph0" class="graph" transform="scale(1 1) rotate(0) translate(4 170)">
<title>DGtal::concepts::CDiscreteExteriorCalculusVectorSpace&lt; T &gt;</title>
<polygon fill="white" stroke="none" points="-4,4 -4,-170 207.5,-170 207.5,4 -4,4"/>
<!-- Node3 -->
<g id="node1" class="node"><title>Node3</title>
<polygon fill="#bfbfbf" stroke="black" points="21.5,-0.5 21.5,-30.5 203.5,-30.5 203.5,-0.5 21.5,-0.5"/>
<text text-anchor="start" x="29.5" y="-18.5" font-family="FreeSans" font-size="10.00">DGtal::concepts::CDiscrete</text>
<text text-anchor="middle" x="112.5" y="-7.5" font-family="FreeSans" font-size="10.00">ExteriorCalculusVectorSpace&lt; T &gt;</text>
</g>
<!-- Node4 -->
<g id="node2" class="node"><title>Node4</title>
<g id="a_node2"><a xlink:href="structDGtal_1_1concepts_1_1CVectorSpace.html" target="_top" xlink:title="Aim: Base concept for vector space structure. ">
<polygon fill="white" stroke="black" points="44,-68.5 44,-98.5 181,-98.5 181,-68.5 44,-68.5"/>
<text text-anchor="start" x="52" y="-86.5" font-family="FreeSans" font-size="10.00">DGtal::concepts::CVector</text>
<text text-anchor="middle" x="112.5" y="-75.5" font-family="FreeSans" font-size="10.00">Space&lt; T &gt;</text>
</a>
</g>
</g>
<!-- Node4&#45;&gt;Node3 -->
<g id="edge1" class="edge"><title>Node4&#45;&gt;Node3</title>
<path fill="none" stroke="midnightblue" d="M112.5,-58.0322C112.5,-48.8606 112.5,-38.7449 112.5,-30.7931"/>
<polygon fill="midnightblue" stroke="midnightblue" points="109,-58.1789 112.5,-68.179 116,-58.179 109,-58.1789"/>
</g>
<!-- Node5 -->
<g id="node3" class="node"><title>Node5</title>
<g id="a_node3"><a xlink:href="structboost_1_1Assignable.html" target="_top" xlink:title="Go to http://www.sgi.com/tech/stl/Assignable.html. ">
<polygon fill="white" stroke="black" points="0,-146.5 0,-165.5 129,-165.5 129,-146.5 0,-146.5"/>
<text text-anchor="middle" x="64.5" y="-153.5" font-family="FreeSans" font-size="10.00">boost::Assignable&lt; T &gt;</text>
</a>
</g>
</g>
<!-- Node5&#45;&gt;Node4 -->
<g id="edge2" class="edge"><title>Node5&#45;&gt;Node4</title>
<path fill="none" stroke="midnightblue" d="M76.048,-138.039C84.2664,-125.968 95.1792,-109.94 102.916,-98.5762"/>
<polygon fill="midnightblue" stroke="midnightblue" points="73.1206,-136.12 70.3857,-146.355 78.9068,-140.059 73.1206,-136.12"/>
</g>
<!-- Node6 -->
<g id="node4" class="node"><title>Node6</title>
<polygon fill="white" stroke="#bfbfbf" points="147,-146.5 147,-165.5 176,-165.5 176,-146.5 147,-146.5"/>
<text text-anchor="middle" x="161.5" y="-153.5" font-family="FreeSans" font-size="10.00">T</text>
</g>
<!-- Node6&#45;&gt;Node4 -->
<g id="edge3" class="edge"><title>Node6&#45;&gt;Node4</title>
<path fill="none" stroke="#9a32cd" stroke-dasharray="5,2" d="M149.711,-138.039C141.322,-125.968 130.182,-109.94 122.283,-98.5762"/>
<polygon fill="#9a32cd" stroke="#9a32cd" points="146.91,-140.141 155.492,-146.355 152.658,-136.146 146.91,-140.141"/>
<text text-anchor="middle" x="145" y="-120" font-family="FreeSans" font-size="10.00"> z</text>
</g>
</g>
</svg>
