<?xml version="1.0" encoding="UTF-8" standalone="no"?>
<!DOCTYPE svg PUBLIC "-//W3C//DTD SVG 1.1//EN"
 "http://www.w3.org/Graphics/SVG/1.1/DTD/svg11.dtd">
<!-- Generated by graphviz version 2.38.0 (20140413.2041)
 -->
<!-- Title: DGtal::concepts::CDynamicSegmentComputer&lt; T &gt; Pages: 1 -->
<svg width="1222pt" height="266pt"
 viewBox="0.00 0.00 1222.00 266.00" xmlns="http://www.w3.org/2000/svg" xmlns:xlink="http://www.w3.org/1999/xlink">
<g id="graph0" class="graph" transform="scale(1 1) rotate(0) translate(4 262)">
<title>DGtal::concepts::CDynamicSegmentComputer&lt; T &gt;</title>
<polygon fill="white" stroke="none" points="-4,4 -4,-262 1218,-262 1218,4 -4,4"/>
<!-- Node10 -->
<g id="node1" class="node"><title>Node10</title>
<polygon fill="#bfbfbf" stroke="black" points="1066,-215 1066,-245 1214,-245 1214,-215 1066,-215"/>
<text text-anchor="start" x="1074" y="-233" font-family="FreeSans" font-size="10.00">DGtal::concepts::CDynamic</text>
<text text-anchor="middle" x="1140" y="-222" font-family="FreeSans" font-size="10.00">SegmentComputer&lt; T &gt;</text>
</g>
<!-- Node11 -->
<g id="node2" class="node"><title>Node11</title>
<g id="a_node2"><a xlink:href="structDGtal_1_1concepts_1_1CForwardSegmentComputer.html" target="_top" xlink:title="Aim: Defines the concept describing a forward segment computer. Like any model of CIncrementalSegment...">
<polygon fill="white" stroke="black" points="886,-188 886,-218 1029,-218 1029,-188 886,-188"/>
<text text-anchor="start" x="894" y="-206" font-family="FreeSans" font-size="10.00">DGtal::concepts::CForward</text>
<text text-anchor="middle" x="957.5" y="-195" font-family="FreeSans" font-size="10.00">SegmentComputer&lt; T &gt;</text>
</a>
</g>
</g>
<!-- Node11&#45;&gt;Node10 -->
<g id="edge1" class="edge"><title>Node11&#45;&gt;Node10</title>
<path fill="none" stroke="midnightblue" d="M1039.05,-215.049C1047.96,-216.382 1057,-217.734 1065.81,-219.052"/>
<polygon fill="midnightblue" stroke="midnightblue" points="1039.47,-211.573 1029.06,-213.555 1038.43,-218.496 1039.47,-211.573"/>
</g>
<!-- Node12 -->
<g id="node3" class="node"><title>Node12</title>
<g id="a_node3"><a xlink:href="structDGtal_1_1concepts_1_1CIncrementalSegmentComputer.html" target="_top" xlink:title="Aim: Defines the concept describing an incremental segment computer, &#160;ie. a model of CSegmentFactory ...">
<polygon fill="white" stroke="black" points="686,-188 686,-218 849,-218 849,-188 686,-188"/>
<text text-anchor="start" x="694" y="-206" font-family="FreeSans" font-size="10.00">DGtal::concepts::CIncremental</text>
<text text-anchor="middle" x="767.5" y="-195" font-family="FreeSans" font-size="10.00">SegmentComputer&lt; T &gt;</text>
</a>
</g>
</g>
<!-- Node12&#45;&gt;Node11 -->
<g id="edge2" class="edge"><title>Node12&#45;&gt;Node11</title>
<path fill="none" stroke="midnightblue" d="M859.155,-203C868.139,-203 877.163,-203 885.9,-203"/>
<polygon fill="midnightblue" stroke="midnightblue" points="859.047,-199.5 849.047,-203 859.047,-206.5 859.047,-199.5"/>
</g>
<!-- Node13 -->
<g id="node4" class="node"><title>Node13</title>
<g id="a_node4"><a xlink:href="structDGtal_1_1concepts_1_1CSegmentFactory.html" target="_top" xlink:title="Aim: Defines the concept describing a segment ie. a valid and not empty subrange, which can construct...">
<polygon fill="white" stroke="black" points="475,-150 475,-180 625,-180 625,-150 475,-150"/>
<text text-anchor="start" x="483" y="-168" font-family="FreeSans" font-size="10.00">DGtal::concepts::CSegment</text>
<text text-anchor="middle" x="550" y="-157" font-family="FreeSans" font-size="10.00">Factory&lt; T &gt;</text>
</a>
</g>
</g>
<!-- Node13&#45;&gt;Node12 -->
<g id="edge3" class="edge"><title>Node13&#45;&gt;Node12</title>
<path fill="none" stroke="midnightblue" d="M635.401,-179.883C652.03,-182.815 669.439,-185.885 685.937,-188.794"/>
<polygon fill="midnightblue" stroke="midnightblue" points="635.619,-176.367 625.163,-178.077 634.403,-183.261 635.619,-176.367"/>
</g>
<!-- Node14 -->
<g id="node5" class="node"><title>Node14</title>
<g id="a_node5"><a xlink:href="structDGtal_1_1concepts_1_1CSegment.html" target="_top" xlink:title="Aim: Defines the concept describing a segment, ie. a valid and not empty range. ">
<polygon fill="white" stroke="black" points="236,-88.5 236,-107.5 414,-107.5 414,-88.5 236,-88.5"/>
<text text-anchor="middle" x="325" y="-95.5" font-family="FreeSans" font-size="10.00">DGtal::concepts::CSegment&lt; T &gt;</text>
</a>
</g>
</g>
<!-- Node14&#45;&gt;Node13 -->
<g id="edge4" class="edge"><title>Node14&#45;&gt;Node13</title>
<path fill="none" stroke="midnightblue" d="M367.961,-110.607C405.163,-121.784 459.555,-138.126 499.002,-149.978"/>
<polygon fill="midnightblue" stroke="midnightblue" points="368.535,-107.125 357.95,-107.599 366.52,-113.829 368.535,-107.125"/>
</g>
<!-- Node15 -->
<g id="node6" class="node"><title>Node15</title>
<g id="a_node6"><a xlink:href="structboost_1_1DefaultConstructible.html" target="_top" xlink:title="Go to http://www.sgi.com/tech/stl/DefaultConstructible.html. ">
<polygon fill="white" stroke="black" points="0,-114.5 0,-133.5 175,-133.5 175,-114.5 0,-114.5"/>
<text text-anchor="middle" x="87.5" y="-121.5" font-family="FreeSans" font-size="10.00">boost::DefaultConstructible&lt; T &gt;</text>
</a>
</g>
</g>
<!-- Node15&#45;&gt;Node14 -->
<g id="edge5" class="edge"><title>Node15&#45;&gt;Node14</title>
<path fill="none" stroke="midnightblue" d="M185.032,-113.343C202.464,-111.418 220.538,-109.423 237.656,-107.533"/>
<polygon fill="midnightblue" stroke="midnightblue" points="184.41,-109.89 174.854,-114.466 185.178,-116.848 184.41,-109.89"/>
</g>
<!-- Node16 -->
<g id="node7" class="node"><title>Node16</title>
<g id="a_node7"><a xlink:href="structboost_1_1CopyConstructible.html" target="_top" xlink:title="Go to http://www.sgi.com/tech/stl/CopyConstructible.html. ">
<polygon fill="white" stroke="black" points="5.5,-76.5 5.5,-95.5 169.5,-95.5 169.5,-76.5 5.5,-76.5"/>
<text text-anchor="middle" x="87.5" y="-83.5" font-family="FreeSans" font-size="10.00">boost::CopyConstructible&lt; T &gt;</text>
</a>
</g>
</g>
<!-- Node16&#45;&gt;Node14 -->
<g id="edge6" class="edge"><title>Node16&#45;&gt;Node14</title>
<path fill="none" stroke="midnightblue" d="M179.706,-90.6475C198.188,-91.5892 217.59,-92.5779 235.961,-93.5139"/>
<polygon fill="midnightblue" stroke="midnightblue" points="179.711,-87.1432 169.546,-90.1297 179.355,-94.1342 179.711,-87.1432"/>
</g>
<!-- Node17 -->
<g id="node8" class="node"><title>Node17</title>
<g id="a_node8"><a xlink:href="structboost_1_1Assignable.html" target="_top" xlink:title="Go to http://www.sgi.com/tech/stl/Assignable.html. ">
<polygon fill="white" stroke="black" points="23,-38.5 23,-57.5 152,-57.5 152,-38.5 23,-38.5"/>
<text text-anchor="middle" x="87.5" y="-45.5" font-family="FreeSans" font-size="10.00">boost::Assignable&lt; T &gt;</text>
</a>
</g>
</g>
<!-- Node17&#45;&gt;Node14 -->
<g id="edge7" class="edge"><title>Node17&#45;&gt;Node14</title>
<path fill="none" stroke="midnightblue" d="M143.229,-59.6197C184.442,-68.3698 240.258,-80.2204 278.916,-88.4281"/>
<polygon fill="midnightblue" stroke="midnightblue" points="143.859,-56.1755 133.35,-57.5223 142.405,-63.0229 143.859,-56.1755"/>
</g>
<!-- Node18 -->
<g id="node9" class="node"><title>Node18</title>
<g id="a_node9"><a xlink:href="structboost_1_1EqualityComparable.html" target="_top" xlink:title="Go to http://www.sgi.com/tech/stl/EqualityComparable.html. ">
<polygon fill="white" stroke="black" points="1,-0.5 1,-19.5 174,-19.5 174,-0.5 1,-0.5"/>
<text text-anchor="middle" x="87.5" y="-7.5" font-family="FreeSans" font-size="10.00">boost::EqualityComparable&lt; T &gt;</text>
</a>
</g>
</g>
<!-- Node18&#45;&gt;Node14 -->
<g id="edge8" class="edge"><title>Node18&#45;&gt;Node14</title>
<path fill="none" stroke="midnightblue" d="M150.424,-21.8802C158.763,-23.9797 167.145,-26.3539 175,-29 224.438,-45.6553 279.334,-73.7579 306.622,-88.4308"/>
<polygon fill="midnightblue" stroke="midnightblue" points="151.229,-18.4741 140.689,-19.542 149.595,-25.2806 151.229,-18.4741"/>
</g>
<!-- Node19 -->
<g id="node10" class="node"><title>Node19</title>
<polygon fill="white" stroke="#bfbfbf" points="73,-179.5 73,-198.5 102,-198.5 102,-179.5 73,-179.5"/>
<text text-anchor="middle" x="87.5" y="-186.5" font-family="FreeSans" font-size="10.00">T</text>
</g>
<!-- Node19&#45;&gt;Node10 -->
<g id="edge12" class="edge"><title>Node19&#45;&gt;Node10</title>
<path fill="none" stroke="#9a32cd" stroke-dasharray="5,2" d="M111.497,-198.602C153.115,-215.083 244.036,-247 324,-247 324,-247 324,-247 958.5,-247 993.91,-247 1033.06,-243.717 1065.82,-240.036"/>
<polygon fill="#9a32cd" stroke="#9a32cd" points="112.598,-195.272 102.015,-194.773 109.977,-201.763 112.598,-195.272"/>
<text text-anchor="middle" x="655.5" y="-250" font-family="FreeSans" font-size="10.00"> myX</text>
</g>
<!-- Node19&#45;&gt;Node12 -->
<g id="edge11" class="edge"><title>Node19&#45;&gt;Node12</title>
<path fill="none" stroke="#9a32cd" stroke-dasharray="5,2" d="M112.026,-190.643C133.197,-192.052 165.163,-194.007 193,-195 368.639,-201.264 574.699,-202.694 685.743,-202.977"/>
<polygon fill="#9a32cd" stroke="#9a32cd" points="112.233,-187.149 102.019,-189.964 111.759,-194.133 112.233,-187.149"/>
<text text-anchor="middle" x="444.5" y="-205" font-family="FreeSans" font-size="10.00"> myX</text>
</g>
<!-- Node19&#45;&gt;Node13 -->
<g id="edge10" class="edge"><title>Node19&#45;&gt;Node13</title>
<path fill="none" stroke="#9a32cd" stroke-dasharray="5,2" d="M112.297,-187.76C178.807,-184.293 368.707,-174.396 474.878,-168.863"/>
<polygon fill="#9a32cd" stroke="#9a32cd" points="111.837,-184.279 102.032,-188.295 112.201,-191.269 111.837,-184.279"/>
<text text-anchor="middle" x="325" y="-185" font-family="FreeSans" font-size="10.00"> myT</text>
</g>
<!-- Node19&#45;&gt;Node14 -->
<g id="edge9" class="edge"><title>Node19&#45;&gt;Node14</title>
<path fill="none" stroke="#9a32cd" stroke-dasharray="5,2" d="M111.667,-178.821C132.746,-169.661 164.785,-155.992 193,-145 228.235,-131.273 269.347,-116.764 295.983,-107.56"/>
<polygon fill="#9a32cd" stroke="#9a32cd" points="110.03,-175.717 102.264,-182.924 112.829,-182.133 110.03,-175.717"/>
<text text-anchor="middle" x="205.5" y="-148" font-family="FreeSans" font-size="10.00"> myX</text>
</g>
</g>
</svg>
