<?xml version="1.0" encoding="UTF-8" standalone="no"?>
<!DOCTYPE svg PUBLIC "-//W3C//DTD SVG 1.1//EN"
 "http://www.w3.org/Graphics/SVG/1.1/DTD/svg11.dtd">
<!-- Generated by graphviz version 2.36.0 (20140111.2315)
 -->
<!-- Title: DGtal::SurfaceMesh&lt; TRealPoint, TRealVector &gt; Pages: 1 -->
<!--zoomable 289 -->
<svg id="main" version="1.1" xmlns="http://www.w3.org/2000/svg" xmlns:xlink="http://www.w3.org/1999/xlink" xml:space="preserve" onload="init(evt)">
<style type="text/css"><![CDATA[
.edge:hover path { stroke: red; }
.edge:hover polygon { stroke: red; fill: red; }
]]></style>
<script type="text/javascript"><![CDATA[
var edges = document.getElementsByTagName('g');
if (edges && edges.length) {
  for (var i=0;i<edges.length;i++) {
    if (edges[i].id.substr(0,4)=='edge') {
      edges[i].setAttribute('class','edge');
    }
  }
}
]]></script>
        <defs>
                <circle id="rim" cx="0" cy="0" r="7"/>
                <circle id="rim2" cx="0" cy="0" r="3.5"/>
                <g id="zoomPlus">
                        <use xlink:href="#rim" fill="#404040">
                                <set attributeName="fill" to="#808080" begin="zoomplus.mouseover" end="zoomplus.mouseout"/>
                        </use>
                        <path d="M-4,0h8M0,-4v8" fill="none" stroke="white" stroke-width="1.5" pointer-events="none"/>
                </g>
                <g id="zoomMin">
                        <use xlink:href="#rim" fill="#404040">
                                <set attributeName="fill" to="#808080" begin="zoomminus.mouseover" end="zoomminus.mouseout"/>
                        </use>
                        <path d="M-4,0h8" fill="none" stroke="white" stroke-width="1.5" pointer-events="none"/>
                </g>
                <g id="dirArrow">
                        <path fill="none" stroke="white" stroke-width="1.5" d="M0,-3.0v7 M-2.5,-0.5L0,-3.0L2.5,-0.5"/>
                </g>
               <g id="resetDef">
                       <use xlink:href="#rim2" fill="#404040">
                               <set attributeName="fill" to="#808080" begin="reset.mouseover" end="reset.mouseout"/>
                       </use>
               </g>
        </defs>

<script type="text/javascript">
var viewWidth = 826;
var viewHeight = 289;
var sectionId = 'dynsection-0';
</script>
<script xlink:href="svgpan.js"/>
<svg id="graph" class="graph">
<g id="viewport">
<title>DGtal::SurfaceMesh&lt; TRealPoint, TRealVector &gt;</title>
<polygon fill="white" stroke="none" points="-4,4 -4,-285 822,-285 822,4 -4,4"/>
<!-- Node1 -->
<g id="node1" class="node"><title>Node1</title>
<polygon fill="#bfbfbf" stroke="black" points="668.5,-85 668.5,-115 817.5,-115 817.5,-85 668.5,-85"/>
<text text-anchor="start" x="676.5" y="-103" font-family="FreeSans" font-size="10.00">DGtal::SurfaceMesh</text>
<text text-anchor="middle" x="743" y="-92" font-family="FreeSans" font-size="10.00">&lt; TRealPoint, TRealVector &gt;</text>
</g>
<!-- Node2 -->
<g id="node2" class="node"><title>Node2</title>
<polygon fill="white" stroke="#bfbfbf" points="393,-156.5 393,-175.5 531,-175.5 531,-156.5 393,-156.5"/>
<text text-anchor="middle" x="462" y="-163.5" font-family="FreeSans" font-size="10.00">std::vector&lt; VertexPair &gt;</text>
</g>
<!-- Node2&#45;&gt;Node1 -->
<g id="edge1" class="edge"><title>Node2&#45;&gt;Node1</title>
<path fill="none" stroke="#9a32cd" stroke-dasharray="5,2" d="M541.407,-170.281C575.454,-169.993 615.379,-166.713 650,-156 677.866,-147.377 705.933,-128.468 723.609,-115.012"/>
<polygon fill="#9a32cd" stroke="#9a32cd" points="541.043,-166.781 531.042,-170.28 541.042,-173.781 541.043,-166.781"/>
<text text-anchor="middle" x="600" y="-173" font-family="FreeSans" font-size="10.00"> myEdgeVertices</text>
</g>
<!-- Node3 -->
<g id="node3" class="node"><title>Node3</title>
<g id="a_node3"><a xlink:title="STL class. ">
<polygon fill="white" stroke="#bfbfbf" points="169.5,-85.5 169.5,-104.5 264.5,-104.5 264.5,-85.5 169.5,-85.5"/>
<text text-anchor="middle" x="217" y="-92.5" font-family="FreeSans" font-size="10.00">std::vector&lt; T &gt;</text>
</a>
</g>
</g>
<!-- Node3&#45;&gt;Node2 -->
<g id="edge2" class="edge"><title>Node3&#45;&gt;Node2</title>
<path fill="none" stroke="orange" stroke-dasharray="5,2" d="M253.401,-108.064C267.234,-112.991 283.282,-118.491 298,-123 339.694,-135.774 388.072,-148.245 421.228,-156.439"/>
<polygon fill="orange" stroke="orange" points="254.365,-104.691 243.77,-104.599 251.995,-111.278 254.365,-104.691"/>
<text text-anchor="middle" x="336" y="-147" font-family="FreeSans" font-size="10.00"> &lt; VertexPair &gt;</text>
</g>
<!-- Node5 -->
<g id="node5" class="node"><title>Node5</title>
<polygon fill="white" stroke="#bfbfbf" points="395,-202.5 395,-221.5 529,-221.5 529,-202.5 395,-202.5"/>
<text text-anchor="middle" x="462" y="-209.5" font-family="FreeSans" font-size="10.00">std::vector&lt; RealPoint &gt;</text>
</g>
<!-- Node3&#45;&gt;Node5 -->
<g id="edge8" class="edge"><title>Node3&#45;&gt;Node5</title>
<path fill="none" stroke="orange" stroke-dasharray="5,2" d="M235.138,-111.787C250.502,-126.045 274.224,-146.178 298,-159 336.24,-179.621 383.879,-193.96 417.759,-202.475"/>
<polygon fill="orange" stroke="orange" points="237.179,-108.899 227.515,-104.555 232.361,-113.977 237.179,-108.899"/>
<text text-anchor="middle" x="336" y="-192" font-family="FreeSans" font-size="10.00"> &lt; RealPoint &gt;</text>
</g>
<!-- Node8 -->
<g id="node8" class="node"><title>Node8</title>
<polygon fill="white" stroke="#bfbfbf" points="403.5,-90.5 403.5,-109.5 520.5,-109.5 520.5,-90.5 403.5,-90.5"/>
<text text-anchor="middle" x="462" y="-97.5" font-family="FreeSans" font-size="10.00">std::vector&lt; Faces &gt;</text>
</g>
<!-- Node3&#45;&gt;Node8 -->
<g id="edge10" class="edge"><title>Node3&#45;&gt;Node8</title>
<path fill="none" stroke="#9a32cd" stroke-dasharray="5,2" d="M274.897,-104.596C282.641,-105.591 290.502,-106.441 298,-107 332.884,-109.602 372.046,-108.064 403.239,-105.775"/>
<polygon fill="#9a32cd" stroke="#9a32cd" points="275.206,-101.105 264.824,-103.216 274.257,-108.041 275.206,-101.105"/>
<text text-anchor="middle" x="336" y="-111" font-family="FreeSans" font-size="10.00"> elements</text>
</g>
<!-- Node3&#45;&gt;Node8 -->
<g id="edge11" class="edge"><title>Node3&#45;&gt;Node8</title>
<path fill="none" stroke="orange" stroke-dasharray="5,2" d="M274.712,-94.2034C282.535,-94.1191 290.467,-94.0471 298,-94 331.777,-93.7889 340.242,-92.8373 374,-94 383.533,-94.3283 393.642,-94.8584 403.468,-95.4711"/>
<polygon fill="orange" stroke="orange" points="274.491,-90.7056 264.532,-94.3201 274.572,-97.7051 274.491,-90.7056"/>
<text text-anchor="middle" x="336" y="-97" font-family="FreeSans" font-size="10.00"> &lt; Faces &gt;</text>
</g>
<!-- Node9 -->
<g id="node9" class="node"><title>Node9</title>
<polygon fill="white" stroke="#bfbfbf" points="392,-48.5 392,-67.5 532,-67.5 532,-48.5 392,-48.5"/>
<text text-anchor="middle" x="462" y="-55.5" font-family="FreeSans" font-size="10.00">std::vector&lt; RealVector &gt;</text>
</g>
<!-- Node3&#45;&gt;Node9 -->
<g id="edge13" class="edge"><title>Node3&#45;&gt;Node9</title>
<path fill="none" stroke="orange" stroke-dasharray="5,2" d="M272.588,-83.5584C281.078,-81.9306 289.762,-80.3527 298,-79 328.689,-73.9604 362.795,-69.4052 391.844,-65.8356"/>
<polygon fill="orange" stroke="orange" points="271.893,-80.1279 262.75,-85.4815 273.236,-86.9979 271.893,-80.1279"/>
<text text-anchor="middle" x="336" y="-82" font-family="FreeSans" font-size="10.00"> &lt; RealVector &gt;</text>
</g>
<!-- Node10 -->
<g id="node10" class="node"><title>Node10</title>
<polygon fill="white" stroke="#bfbfbf" points="398,-0.5 398,-19.5 526,-19.5 526,-0.5 398,-0.5"/>
<text text-anchor="middle" x="462" y="-7.5" font-family="FreeSans" font-size="10.00">std::vector&lt; Vertices &gt;</text>
</g>
<!-- Node3&#45;&gt;Node10 -->
<g id="edge15" class="edge"><title>Node3&#45;&gt;Node10</title>
<path fill="none" stroke="#9a32cd" stroke-dasharray="5,2" d="M243.009,-80.4592C258.476,-71.9052 278.951,-61.3581 298,-54 336.69,-39.0549 382.408,-27.1884 415.565,-19.5633"/>
<polygon fill="#9a32cd" stroke="#9a32cd" points="241.081,-77.5274 234.082,-85.4814 244.514,-83.6281 241.081,-77.5274"/>
<text text-anchor="middle" x="336" y="-57" font-family="FreeSans" font-size="10.00"> elements</text>
</g>
<!-- Node3&#45;&gt;Node10 -->
<g id="edge16" class="edge"><title>Node3&#45;&gt;Node10</title>
<path fill="none" stroke="orange" stroke-dasharray="5,2" d="M229.932,-76.9936C243.748,-57.9022 268.436,-28.7775 298,-16 329.063,-2.57478 366.643,-0.375865 397.888,-1.84779"/>
<polygon fill="orange" stroke="orange" points="226.89,-75.2372 224.05,-85.4441 232.636,-79.2365 226.89,-75.2372"/>
<text text-anchor="middle" x="336" y="-19" font-family="FreeSans" font-size="10.00"> &lt; Vertices &gt;</text>
</g>
<!-- Node4 -->
<g id="node4" class="node"><title>Node4</title>
<polygon fill="white" stroke="#bfbfbf" points="19.5,-85.5 19.5,-104.5 48.5,-104.5 48.5,-85.5 19.5,-85.5"/>
<text text-anchor="middle" x="34" y="-92.5" font-family="FreeSans" font-size="10.00">T</text>
</g>
<!-- Node4&#45;&gt;Node3 -->
<g id="edge3" class="edge"><title>Node4&#45;&gt;Node3</title>
<path fill="none" stroke="#9a32cd" stroke-dasharray="5,2" d="M58.6379,-95C86.5648,-95 133.702,-95 169.121,-95"/>
<polygon fill="#9a32cd" stroke="#9a32cd" points="58.6045,-91.5001 48.6044,-95 58.6044,-98.5001 58.6045,-91.5001"/>
<text text-anchor="middle" x="111" y="-98" font-family="FreeSans" font-size="10.00"> elements</text>
</g>
<!-- Node5&#45;&gt;Node1 -->
<g id="edge4" class="edge"><title>Node5&#45;&gt;Node1</title>
<path fill="none" stroke="#9a32cd" stroke-dasharray="5,2" d="M539.58,-211.227C574.654,-208.338 615.906,-201.244 650,-185 684.355,-168.631 714.732,-134.921 730.515,-115.228"/>
<polygon fill="#9a32cd" stroke="#9a32cd" points="539.108,-207.752 529.386,-211.964 539.613,-214.734 539.108,-207.752"/>
<text text-anchor="middle" x="600" y="-213" font-family="FreeSans" font-size="10.00"> myPositions</text>
</g>
<!-- Node6 -->
<g id="node6" class="node"><title>Node6</title>
<g id="a_node6"><a xlink:href="classDGtal_1_1PointVector.html" target="_top" xlink:title="Aim: Implements basic operations that will be used in Point and Vector classes. ">
<polygon fill="white" stroke="black" points="154,-210.5 154,-251.5 280,-251.5 280,-210.5 154,-210.5"/>
<text text-anchor="start" x="162" y="-239.5" font-family="FreeSans" font-size="10.00">DGtal::PointVector</text>
<text text-anchor="start" x="162" y="-228.5" font-family="FreeSans" font-size="10.00">&lt; dim, TEuclideanRing,</text>
<text text-anchor="middle" x="217" y="-217.5" font-family="FreeSans" font-size="10.00"> TContainer &gt;</text>
</a>
</g>
</g>
<!-- Node6&#45;&gt;Node5 -->
<g id="edge5" class="edge"><title>Node6&#45;&gt;Node5</title>
<path fill="none" stroke="#9a32cd" stroke-dasharray="5,2" d="M290.326,-225.345C323.401,-222.759 362.325,-219.715 394.642,-217.188"/>
<polygon fill="#9a32cd" stroke="#9a32cd" points="289.96,-221.863 280.263,-226.132 290.505,-228.841 289.96,-221.863"/>
<text text-anchor="middle" x="336" y="-227" font-family="FreeSans" font-size="10.00"> elements</text>
</g>
<!-- Node6&#45;&gt;Node6 -->
<g id="edge7" class="edge"><title>Node6&#45;&gt;Node6</title>
<path fill="none" stroke="#9a32cd" stroke-dasharray="5,2" d="M199.09,-261.601C201.947,-266.023 207.917,-269 217,-269 231.906,-269 238.428,-260.984 236.564,-251.716"/>
<polygon fill="#9a32cd" stroke="#9a32cd" points="202.539,-261.001 197.436,-251.716 195.635,-262.157 202.539,-261.001"/>
<text text-anchor="middle" x="217" y="-272" font-family="FreeSans" font-size="10.00"> zero</text>
</g>
<!-- Node7 -->
<g id="node7" class="node"><title>Node7</title>
<polygon fill="white" stroke="#bfbfbf" points="0,-221.5 0,-240.5 68,-240.5 68,-221.5 0,-221.5"/>
<text text-anchor="middle" x="34" y="-228.5" font-family="FreeSans" font-size="10.00">TContainer</text>
</g>
<!-- Node7&#45;&gt;Node6 -->
<g id="edge6" class="edge"><title>Node7&#45;&gt;Node6</title>
<path fill="none" stroke="#9a32cd" stroke-dasharray="5,2" d="M78.4665,-231C101.004,-231 128.93,-231 153.718,-231"/>
<polygon fill="#9a32cd" stroke="#9a32cd" points="78.1982,-227.5 68.1982,-231 78.1982,-234.5 78.1982,-227.5"/>
<text text-anchor="middle" x="111" y="-234" font-family="FreeSans" font-size="10.00"> myArray</text>
</g>
<!-- Node8&#45;&gt;Node1 -->
<g id="edge9" class="edge"><title>Node8&#45;&gt;Node1</title>
<path fill="none" stroke="#9a32cd" stroke-dasharray="5,2" d="M530.847,-100C572.44,-100 625.697,-100 668.32,-100"/>
<polygon fill="#9a32cd" stroke="#9a32cd" points="530.809,-96.5001 520.809,-100 530.809,-103.5 530.809,-96.5001"/>
<text text-anchor="middle" x="600" y="-147" font-family="FreeSans" font-size="10.00"> myIncidentFaces</text>
<text text-anchor="middle" x="600" y="-136" font-family="FreeSans" font-size="10.00">myEdgeLeftFaces</text>
<text text-anchor="middle" x="600" y="-125" font-family="FreeSans" font-size="10.00">myNeighborFaces</text>
<text text-anchor="middle" x="600" y="-114" font-family="FreeSans" font-size="10.00">myEdgeRightFaces</text>
<text text-anchor="middle" x="600" y="-103" font-family="FreeSans" font-size="10.00">myEdgeFaces</text>
</g>
<!-- Node9&#45;&gt;Node1 -->
<g id="edge12" class="edge"><title>Node9&#45;&gt;Node1</title>
<path fill="none" stroke="#9a32cd" stroke-dasharray="5,2" d="M542.417,-61.4521C575.827,-63.7671 614.995,-67.616 650,-74 664.859,-76.7099 680.779,-80.7785 695.128,-84.8975"/>
<polygon fill="#9a32cd" stroke="#9a32cd" points="542.453,-57.9469 532.244,-60.7817 541.992,-64.9318 542.453,-57.9469"/>
<text text-anchor="middle" x="600" y="-88" font-family="FreeSans" font-size="10.00"> myVertexNormals</text>
<text text-anchor="middle" x="600" y="-77" font-family="FreeSans" font-size="10.00">myFaceNormals</text>
</g>
<!-- Node10&#45;&gt;Node1 -->
<g id="edge14" class="edge"><title>Node10&#45;&gt;Node1</title>
<path fill="none" stroke="#9a32cd" stroke-dasharray="5,2" d="M536.53,-12.8661C571.817,-16.1672 614.12,-23.0044 650,-37 678.856,-48.2557 707.579,-70.0512 725.064,-84.8149"/>
<polygon fill="#9a32cd" stroke="#9a32cd" points="536.561,-9.35597 526.298,-11.9884 535.963,-16.3304 536.561,-9.35597"/>
<text text-anchor="middle" x="600" y="-51" font-family="FreeSans" font-size="10.00"> myNeighborVertices</text>
<text text-anchor="middle" x="600" y="-40" font-family="FreeSans" font-size="10.00">myIncidentVertices</text>
</g>
</g>
</svg>
        <g id="navigator" transform="translate(0 0)" fill="#404254">
                <rect fill="#f2f5e9" fill-opacity="0.5" stroke="#606060" stroke-width=".5" x="0" y="0" width="60" height="60"/>
                <use id="zoomplus" xlink:href="#zoomPlus" x="17" y="9" onmousedown="handleZoom(evt,'in')"/>
                <use id="zoomminus" xlink:href="#zoomMin" x="42" y="9" onmousedown="handleZoom(evt,'out')"/>
                <use id="reset" xlink:href="#resetDef" x="30" y="36" onmousedown="handleReset()"/>
                <g id="arrowUp" xlink:href="#dirArrow" transform="translate(30 24)" onmousedown="handlePan(0,-1)">
                  <use xlink:href="#rim" fill="#404040">
                        <set attributeName="fill" to="#808080" begin="arrowUp.mouseover" end="arrowUp.mouseout"/>
                  </use>
                  <path fill="none" stroke="white" stroke-width="1.5" d="M0,-3.0v7 M-2.5,-0.5L0,-3.0L2.5,-0.5"/>
                </g>
                <g id="arrowRight" xlink:href="#dirArrow" transform="rotate(90) translate(36 -43)" onmousedown="handlePan(1,0)">
                  <use xlink:href="#rim" fill="#404040">
                        <set attributeName="fill" to="#808080" begin="arrowRight.mouseover" end="arrowRight.mouseout"/>
                  </use>
                  <path fill="none" stroke="white" stroke-width="1.5" d="M0,-3.0v7 M-2.5,-0.5L0,-3.0L2.5,-0.5"/>
                </g>
                <g id="arrowDown" xlink:href="#dirArrow" transform="rotate(180) translate(-30 -48)" onmousedown="handlePan(0,1)">
                  <use xlink:href="#rim" fill="#404040">
                        <set attributeName="fill" to="#808080" begin="arrowDown.mouseover" end="arrowDown.mouseout"/>
                  </use>
                  <path fill="none" stroke="white" stroke-width="1.5" d="M0,-3.0v7 M-2.5,-0.5L0,-3.0L2.5,-0.5"/>
                </g>
                <g id="arrowLeft" xlink:href="#dirArrow" transform="rotate(270) translate(-36 17)" onmousedown="handlePan(-1,0)">
                  <use xlink:href="#rim" fill="#404040">
                        <set attributeName="fill" to="#808080" begin="arrowLeft.mouseover" end="arrowLeft.mouseout"/>
                  </use>
                  <path fill="none" stroke="white" stroke-width="1.5" d="M0,-3.0v7 M-2.5,-0.5L0,-3.0L2.5,-0.5"/>
                </g>
        </g>
        <svg viewBox="0 0 15 15" width="100%" height="30px" preserveAspectRatio="xMaxYMin meet">
         <g id="arrow_out" transform="scale(0.3 0.3)">
          <a xlink:href="structDGtal_1_1SurfaceMesh__coll__graph_org.svg" target="_base">
           <rect id="button" ry="5" rx="5" y="6" x="6" height="38" width="38"
                fill="#f2f5e9" fill-opacity="0.5" stroke="#606060" stroke-width="1.0"/>
           <path id="arrow"
             d="M 11.500037,31.436501 C 11.940474,20.09759 22.043105,11.32322 32.158766,21.979434 L 37.068811,17.246167 C 37.068811,17.246167 37.088388,32 37.088388,32 L 22.160133,31.978069 C 22.160133,31.978069 26.997745,27.140456 26.997745,27.140456 C 18.528582,18.264221 13.291696,25.230495 11.500037,31.436501 z"
             style="fill:#404040;"/>
          </a>
         </g>
        </svg>
</svg>
