<?xml version="1.0" encoding="UTF-8" standalone="no"?>
<!DOCTYPE svg PUBLIC "-//W3C//DTD SVG 1.1//EN"
 "http://www.w3.org/Graphics/SVG/1.1/DTD/svg11.dtd">
<!-- Generated by graphviz version 2.38.0 (20140413.2041)
 -->
<!-- Title: DGtal::concepts::CConstImage&lt; I &gt; Pages: 1 -->
<!--zoomable 230 -->
<svg id="main" version="1.1" xmlns="http://www.w3.org/2000/svg" xmlns:xlink="http://www.w3.org/1999/xlink" xml:space="preserve" onload="init(evt)">
<style type="text/css"><![CDATA[
.edge:hover path { stroke: red; }
.edge:hover polygon { stroke: red; fill: red; }
]]></style>
<script type="text/javascript"><![CDATA[
var edges = document.getElementsByTagName('g');
if (edges && edges.length) {
  for (var i=0;i<edges.length;i++) {
    if (edges[i].id.substr(0,4)=='edge') {
      edges[i].setAttribute('class','edge');
    }
  }
}
]]></script>
        <defs>
                <circle id="rim" cx="0" cy="0" r="7"/>
                <circle id="rim2" cx="0" cy="0" r="3.5"/>
                <g id="zoomPlus">
                        <use xlink:href="#rim" fill="#404040">
                                <set attributeName="fill" to="#808080" begin="zoomplus.mouseover" end="zoomplus.mouseout"/>
                        </use>
                        <path d="M-4,0h8M0,-4v8" fill="none" stroke="white" stroke-width="1.5" pointer-events="none"/>
                </g>
                <g id="zoomMin">
                        <use xlink:href="#rim" fill="#404040">
                                <set attributeName="fill" to="#808080" begin="zoomminus.mouseover" end="zoomminus.mouseout"/>
                        </use>
                        <path d="M-4,0h8" fill="none" stroke="white" stroke-width="1.5" pointer-events="none"/>
                </g>
                <g id="dirArrow">
                        <path fill="none" stroke="white" stroke-width="1.5" d="M0,-3.0v7 M-2.5,-0.5L0,-3.0L2.5,-0.5"/>
                </g>
               <g id="resetDef">
                       <use xlink:href="#rim2" fill="#404040">
                               <set attributeName="fill" to="#808080" begin="reset.mouseover" end="reset.mouseout"/>
                       </use>
               </g>
        </defs>

<script type="text/javascript">
var viewWidth = 1865;
var viewHeight = 230;
var sectionId = 'dynsection-1';
</script>
<script xlink:href="svgpan.js"/>
<svg id="graph" class="graph">
<g id="viewport">
<title>DGtal::concepts::CConstImage&lt; I &gt;</title>
<polygon fill="white" stroke="none" points="-4,4 -4,-226.274 1861,-226.274 1861,4 -4,4"/>
<!-- Node11 -->
<g id="node1" class="node"><title>Node11</title>
<polygon fill="#bfbfbf" stroke="black" points="1669,-89.5 1669,-108.5 1857,-108.5 1857,-89.5 1669,-89.5"/>
<text text-anchor="middle" x="1763" y="-96.5" font-family="FreeSans" font-size="10.00">DGtal::concepts::CConstImage&lt; I &gt;</text>
</g>
<!-- Node12 -->
<g id="node2" class="node"><title>Node12</title>
<g id="a_node2"><a xlink:href="structDGtal_1_1concepts_1_1CTrivialConstImage.html" target="_top" xlink:title="Aim: Defines the concept describing a read&#45;only image, which is a refinement of CPointFunctor. ">
<polygon fill="white" stroke="black" points="1501,-84 1501,-114 1632,-114 1632,-84 1501,-84"/>
<text text-anchor="start" x="1509" y="-102" font-family="FreeSans" font-size="10.00">DGtal::concepts::CTrivial</text>
<text text-anchor="middle" x="1566.5" y="-91" font-family="FreeSans" font-size="10.00">ConstImage&lt; I &gt;</text>
</a>
</g>
</g>
<!-- Node12&#45;&gt;Node11 -->
<g id="edge1" class="edge"><title>Node12&#45;&gt;Node11</title>
<path fill="none" stroke="midnightblue" d="M1642.3,-99C1650.96,-99 1659.87,-99 1668.74,-99"/>
<polygon fill="midnightblue" stroke="midnightblue" points="1642.27,-95.5001 1632.27,-99 1642.27,-102.5 1642.27,-95.5001"/>
</g>
<!-- Node13 -->
<g id="node3" class="node"><title>Node13</title>
<g id="a_node3"><a xlink:href="structDGtal_1_1concepts_1_1CPointFunctor.html" target="_top" xlink:title="DGtal::concepts::CPointFunctor\&lt; I \&gt;">
<polygon fill="white" stroke="black" points="1274,-89.5 1274,-108.5 1464,-108.5 1464,-89.5 1274,-89.5"/>
<text text-anchor="middle" x="1369" y="-96.5" font-family="FreeSans" font-size="10.00">DGtal::concepts::CPointFunctor&lt; I &gt;</text>
</a>
</g>
</g>
<!-- Node13&#45;&gt;Node12 -->
<g id="edge2" class="edge"><title>Node13&#45;&gt;Node12</title>
<path fill="none" stroke="midnightblue" d="M1474.22,-99C1483.23,-99 1492.18,-99 1500.73,-99"/>
<polygon fill="midnightblue" stroke="midnightblue" points="1474.03,-95.5001 1464.03,-99 1474.03,-102.5 1474.03,-95.5001"/>
</g>
<!-- Node14 -->
<g id="node4" class="node"><title>Node14</title>
<g id="a_node4"><a xlink:href="structDGtal_1_1concepts_1_1CUnaryFunctor.html" target="_top" xlink:title="DGtal::concepts::CUnaryFunctor\l\&lt; I, I ::Point, I ::Value \&gt;">
<polygon fill="white" stroke="black" points="810,-37 810,-67 980,-67 980,-37 810,-37"/>
<text text-anchor="start" x="818" y="-55" font-family="FreeSans" font-size="10.00">DGtal::concepts::CUnaryFunctor</text>
<text text-anchor="middle" x="895" y="-44" font-family="FreeSans" font-size="10.00">&lt; I, I ::Point, I ::Value &gt;</text>
</a>
</g>
</g>
<!-- Node14&#45;&gt;Node13 -->
<g id="edge3" class="edge"><title>Node14&#45;&gt;Node13</title>
<path fill="none" stroke="midnightblue" d="M990.214,-61.3815C1072.52,-69.577 1191.38,-81.4128 1273.71,-89.6106"/>
<polygon fill="midnightblue" stroke="midnightblue" points="990.41,-57.8837 980.112,-60.3756 989.716,-64.8493 990.41,-57.8837"/>
</g>
<!-- Node15 -->
<g id="node5" class="node"><title>Node15</title>
<g id="a_node5"><a xlink:href="structboost_1_1Assignable.html" target="_top" xlink:title="boost::Assignable\&lt; I \&gt;">
<polygon fill="white" stroke="black" points="345,-17.5 345,-36.5 471,-36.5 471,-17.5 345,-17.5"/>
<text text-anchor="middle" x="408" y="-24.5" font-family="FreeSans" font-size="10.00">boost::Assignable&lt; I &gt;</text>
</a>
</g>
</g>
<!-- Node15&#45;&gt;Node14 -->
<g id="edge4" class="edge"><title>Node15&#45;&gt;Node14</title>
<path fill="none" stroke="midnightblue" d="M481.559,-30.7402C569.412,-35.2687 717.102,-42.8815 809.859,-47.6628"/>
<polygon fill="midnightblue" stroke="midnightblue" points="481.579,-27.2366 471.412,-30.2171 481.219,-34.2274 481.579,-27.2366"/>
</g>
<!-- Node16 -->
<g id="node6" class="node"><title>Node16</title>
<g id="a_node6"><a xlink:href="structboost_1_1Assignable.html" target="_top" xlink:title="Go to http://www.sgi.com/tech/stl/Assignable.html. ">
<polygon fill="white" stroke="black" points="0,-128.5 0,-147.5 129,-147.5 129,-128.5 0,-128.5"/>
<text text-anchor="middle" x="64.5" y="-135.5" font-family="FreeSans" font-size="10.00">boost::Assignable&lt; T &gt;</text>
</a>
</g>
</g>
<!-- Node16&#45;&gt;Node15 -->
<g id="edge5" class="edge"><title>Node16&#45;&gt;Node15</title>
<path fill="none" stroke="orange" stroke-dasharray="5,2" d="M82.273,-121.042C105.639,-98.6473 150.392,-60.0575 197,-43 244.556,-25.5956 302.122,-22.3401 344.947,-23.0183"/>
<polygon fill="orange" stroke="orange" points="79.6311,-118.731 74.9321,-128.226 84.5271,-123.734 79.6311,-118.731"/>
<text text-anchor="middle" x="163" y="-71" font-family="FreeSans" font-size="10.00"> &lt; I &gt;</text>
</g>
<!-- Node19 -->
<g id="node9" class="node"><title>Node19</title>
<g id="a_node9"><a xlink:href="structboost_1_1Assignable.html" target="_top" xlink:title="boost::Assignable\&lt; X \&gt;">
<polygon fill="white" stroke="black" points="197,-128.5 197,-147.5 327,-147.5 327,-128.5 197,-128.5"/>
<text text-anchor="middle" x="262" y="-135.5" font-family="FreeSans" font-size="10.00">boost::Assignable&lt; X &gt;</text>
</a>
</g>
</g>
<!-- Node16&#45;&gt;Node19 -->
<g id="edge9" class="edge"><title>Node16&#45;&gt;Node19</title>
<path fill="none" stroke="orange" stroke-dasharray="5,2" d="M139.282,-138C158.161,-138 178.312,-138 196.674,-138"/>
<polygon fill="orange" stroke="orange" points="139.244,-134.5 129.243,-138 139.243,-141.5 139.244,-134.5"/>
<text text-anchor="middle" x="163" y="-141" font-family="FreeSans" font-size="10.00"> &lt; X &gt;</text>
</g>
<!-- Node24 -->
<g id="node14" class="node"><title>Node24</title>
<g id="a_node14"><a xlink:href="structDGtal_1_1concepts_1_1CUnaryFunctor.html" target="_top" xlink:title="DGtal::concepts::CUnaryFunctor\l\&lt; T, T::Point, T::Value \&gt;">
<polygon fill="white" stroke="black" points="810,-128 810,-158 980,-158 980,-128 810,-128"/>
<text text-anchor="start" x="818" y="-146" font-family="FreeSans" font-size="10.00">DGtal::concepts::CUnaryFunctor</text>
<text text-anchor="middle" x="895" y="-135" font-family="FreeSans" font-size="10.00">&lt; T, T::Point, T::Value &gt;</text>
</a>
</g>
</g>
<!-- Node16&#45;&gt;Node24 -->
<g id="edge15" class="edge"><title>Node16&#45;&gt;Node24</title>
<path fill="none" stroke="midnightblue" d="M90.8506,-152.727C116.599,-166.769 158.113,-186.935 197,-195 456.162,-248.752 530.838,-212.996 792,-170 809.442,-167.128 828.228,-162.585 844.867,-158.039"/>
<polygon fill="midnightblue" stroke="midnightblue" points="92.2319,-149.49 81.7924,-147.683 88.8264,-155.606 92.2319,-149.49"/>
</g>
<!-- Node17 -->
<g id="node7" class="node"><title>Node17</title>
<polygon fill="white" stroke="#bfbfbf" points="543,-0.5 543,-19.5 605,-19.5 605,-0.5 543,-0.5"/>
<text text-anchor="middle" x="574" y="-7.5" font-family="FreeSans" font-size="10.00">MyPointD</text>
</g>
<!-- Node17&#45;&gt;Node14 -->
<g id="edge6" class="edge"><title>Node17&#45;&gt;Node14</title>
<path fill="none" stroke="#9a32cd" stroke-dasharray="5,2" d="M615.308,-9.81036C659.103,-10.2082 730.988,-12.6261 792,-23 810.966,-26.2249 831.445,-31.6492 849.04,-36.94"/>
<polygon fill="#9a32cd" stroke="#9a32cd" points="615.09,-6.30911 605.069,-9.74983 615.048,-13.309 615.09,-6.30911"/>
<text text-anchor="middle" x="734.5" y="-26" font-family="FreeSans" font-size="10.00"> a</text>
</g>
<!-- Node18 -->
<g id="node8" class="node"><title>Node18</title>
<g id="a_node8"><a xlink:href="structDGtal_1_1concepts_1_1CUnaryFunctor.html" target="_top" xlink:title="Aim: Defines a unary functor, which associates arguments to results. ">
<polygon fill="white" stroke="black" points="489,-89 489,-119 659,-119 659,-89 489,-89"/>
<text text-anchor="start" x="497" y="-107" font-family="FreeSans" font-size="10.00">DGtal::concepts::CUnaryFunctor</text>
<text text-anchor="middle" x="574" y="-96" font-family="FreeSans" font-size="10.00">&lt; X, A, R &gt;</text>
</a>
</g>
</g>
<!-- Node18&#45;&gt;Node14 -->
<g id="edge7" class="edge"><title>Node18&#45;&gt;Node14</title>
<path fill="none" stroke="orange" stroke-dasharray="5,2" d="M669.2,-88.6446C713.793,-81.3755 766.617,-72.7647 809.851,-65.7171"/>
<polygon fill="orange" stroke="orange" points="668.537,-85.2062 659.231,-90.2696 669.664,-92.1151 668.537,-85.2062"/>
<text text-anchor="start" x="699.5" y="-102" font-family="FreeSans" font-size="10.00"> &lt; I, I ::Point, I </text>
<text text-anchor="middle" x="734.5" y="-91" font-family="FreeSans" font-size="10.00">::Value &gt;</text>
</g>
<!-- Node18&#45;&gt;Node24 -->
<g id="edge17" class="edge"><title>Node18&#45;&gt;Node24</title>
<path fill="none" stroke="orange" stroke-dasharray="5,2" d="M669.2,-115.517C713.793,-120.968 766.617,-127.426 809.851,-132.712"/>
<polygon fill="orange" stroke="orange" points="669.582,-112.037 659.231,-114.298 668.732,-118.986 669.582,-112.037"/>
<text text-anchor="middle" x="734.5" y="-134" font-family="FreeSans" font-size="10.00"> &lt; T, T::Point, T::Value &gt;</text>
</g>
<!-- Node19&#45;&gt;Node18 -->
<g id="edge8" class="edge"><title>Node19&#45;&gt;Node18</title>
<path fill="none" stroke="midnightblue" d="M337.387,-131.584C377.085,-127.974 426.748,-123.162 471,-118 476.859,-117.317 482.902,-116.577 488.985,-115.806"/>
<polygon fill="midnightblue" stroke="midnightblue" points="336.901,-128.114 327.257,-132.499 337.531,-135.085 336.901,-128.114"/>
</g>
<!-- Node20 -->
<g id="node10" class="node"><title>Node20</title>
<polygon fill="white" stroke="#bfbfbf" points="247.5,-52.5 247.5,-71.5 276.5,-71.5 276.5,-52.5 247.5,-52.5"/>
<text text-anchor="middle" x="262" y="-59.5" font-family="FreeSans" font-size="10.00">X</text>
</g>
<!-- Node20&#45;&gt;Node18 -->
<g id="edge10" class="edge"><title>Node20&#45;&gt;Node18</title>
<path fill="none" stroke="#9a32cd" stroke-dasharray="5,2" d="M286.903,-64.515C325.634,-68.6706 404.48,-77.4642 471,-87 476.864,-87.8407 482.912,-88.7471 488.998,-89.6884"/>
<polygon fill="#9a32cd" stroke="#9a32cd" points="286.971,-61.0026 276.657,-63.4237 286.23,-67.9632 286.971,-61.0026"/>
<text text-anchor="middle" x="408" y="-90" font-family="FreeSans" font-size="10.00"> x</text>
</g>
<!-- Node21 -->
<g id="node11" class="node"><title>Node21</title>
<polygon fill="white" stroke="#bfbfbf" points="247.5,-166.5 247.5,-185.5 276.5,-185.5 276.5,-166.5 247.5,-166.5"/>
<text text-anchor="middle" x="262" y="-173.5" font-family="FreeSans" font-size="10.00">R</text>
</g>
<!-- Node21&#45;&gt;Node18 -->
<g id="edge11" class="edge"><title>Node21&#45;&gt;Node18</title>
<path fill="none" stroke="#9a32cd" stroke-dasharray="5,2" d="M286.828,-172.983C325.753,-167.782 405.234,-156.024 471,-139 492.024,-133.558 514.938,-125.861 533.713,-119.071"/>
<polygon fill="#9a32cd" stroke="#9a32cd" points="286,-169.561 276.539,-174.33 286.908,-176.502 286,-169.561"/>
<text text-anchor="middle" x="408" y="-167" font-family="FreeSans" font-size="10.00"> r</text>
</g>
<!-- Node22 -->
<g id="node12" class="node"><title>Node22</title>
<polygon fill="white" stroke="#bfbfbf" points="247.5,-90.5 247.5,-109.5 276.5,-109.5 276.5,-90.5 247.5,-90.5"/>
<text text-anchor="middle" x="262" y="-97.5" font-family="FreeSans" font-size="10.00">A</text>
</g>
<!-- Node22&#45;&gt;Node18 -->
<g id="edge12" class="edge"><title>Node22&#45;&gt;Node18</title>
<path fill="none" stroke="#9a32cd" stroke-dasharray="5,2" d="M286.95,-100.309C329.628,-100.86 420.724,-102.035 488.715,-102.912"/>
<polygon fill="#9a32cd" stroke="#9a32cd" points="286.765,-96.8064 276.72,-100.177 286.674,-103.806 286.765,-96.8064"/>
<text text-anchor="middle" x="408" y="-106" font-family="FreeSans" font-size="10.00"> a</text>
</g>
<!-- Node23 -->
<g id="node13" class="node"><title>Node23</title>
<g id="a_node13"><a xlink:href="structDGtal_1_1concepts_1_1CPointFunctor.html" target="_top" xlink:title="Aim: Defines a functor on points. ">
<polygon fill="white" stroke="black" points="1017,-115.5 1017,-134.5 1210,-134.5 1210,-115.5 1017,-115.5"/>
<text text-anchor="middle" x="1113.5" y="-122.5" font-family="FreeSans" font-size="10.00">DGtal::concepts::CPointFunctor&lt; T &gt;</text>
</a>
</g>
</g>
<!-- Node23&#45;&gt;Node13 -->
<g id="edge13" class="edge"><title>Node23&#45;&gt;Node13</title>
<path fill="none" stroke="orange" stroke-dasharray="5,2" d="M1217.62,-114.423C1236.63,-112.474 1256.37,-110.449 1275.06,-108.533"/>
<polygon fill="orange" stroke="orange" points="1217.05,-110.964 1207.45,-115.466 1217.76,-117.928 1217.05,-110.964"/>
<text text-anchor="middle" x="1242" y="-116" font-family="FreeSans" font-size="10.00"> &lt; I &gt;</text>
</g>
<!-- Node24&#45;&gt;Node23 -->
<g id="edge14" class="edge"><title>Node24&#45;&gt;Node23</title>
<path fill="none" stroke="midnightblue" d="M990.229,-135.166C998.991,-134.437 1007.88,-133.698 1016.65,-132.969"/>
<polygon fill="midnightblue" stroke="midnightblue" points="989.69,-131.698 980.014,-136.015 990.27,-138.674 989.69,-131.698"/>
</g>
<!-- Node25 -->
<g id="node15" class="node"><title>Node25</title>
<polygon fill="white" stroke="#bfbfbf" points="559.5,-150.5 559.5,-169.5 588.5,-169.5 588.5,-150.5 559.5,-150.5"/>
<text text-anchor="middle" x="574" y="-157.5" font-family="FreeSans" font-size="10.00">T</text>
</g>
<!-- Node25&#45;&gt;Node24 -->
<g id="edge16" class="edge"><title>Node25&#45;&gt;Node24</title>
<path fill="none" stroke="#9a32cd" stroke-dasharray="5,2" d="M598.734,-158.735C642.791,-156.387 739.164,-151.251 809.874,-147.483"/>
<polygon fill="#9a32cd" stroke="#9a32cd" points="598.507,-155.242 588.707,-159.27 598.879,-162.232 598.507,-155.242"/>
<text text-anchor="middle" x="734.5" y="-158" font-family="FreeSans" font-size="10.00"> x</text>
</g>
</g>
</svg>
        <g id="navigator" transform="translate(0 0)" fill="#404254">
                <rect fill="#f2f5e9" fill-opacity="0.5" stroke="#606060" stroke-width=".5" x="0" y="0" width="60" height="60"/>
                <use id="zoomplus" xlink:href="#zoomPlus" x="17" y="9" onmousedown="handleZoom(evt,'in')"/>
                <use id="zoomminus" xlink:href="#zoomMin" x="42" y="9" onmousedown="handleZoom(evt,'out')"/>
                <use id="reset" xlink:href="#resetDef" x="30" y="36" onmousedown="handleReset()"/>
                <g id="arrowUp" xlink:href="#dirArrow" transform="translate(30 24)" onmousedown="handlePan(0,-1)">
                  <use xlink:href="#rim" fill="#404040">
                        <set attributeName="fill" to="#808080" begin="arrowUp.mouseover" end="arrowUp.mouseout"/>
                  </use>
                  <path fill="none" stroke="white" stroke-width="1.5" d="M0,-3.0v7 M-2.5,-0.5L0,-3.0L2.5,-0.5"/>
                </g>
                <g id="arrowRight" xlink:href="#dirArrow" transform="rotate(90) translate(36 -43)" onmousedown="handlePan(1,0)">
                  <use xlink:href="#rim" fill="#404040">
                        <set attributeName="fill" to="#808080" begin="arrowRight.mouseover" end="arrowRight.mouseout"/>
                  </use>
                  <path fill="none" stroke="white" stroke-width="1.5" d="M0,-3.0v7 M-2.5,-0.5L0,-3.0L2.5,-0.5"/>
                </g>
                <g id="arrowDown" xlink:href="#dirArrow" transform="rotate(180) translate(-30 -48)" onmousedown="handlePan(0,1)">
                  <use xlink:href="#rim" fill="#404040">
                        <set attributeName="fill" to="#808080" begin="arrowDown.mouseover" end="arrowDown.mouseout"/>
                  </use>
                  <path fill="none" stroke="white" stroke-width="1.5" d="M0,-3.0v7 M-2.5,-0.5L0,-3.0L2.5,-0.5"/>
                </g>
                <g id="arrowLeft" xlink:href="#dirArrow" transform="rotate(270) translate(-36 17)" onmousedown="handlePan(-1,0)">
                  <use xlink:href="#rim" fill="#404040">
                        <set attributeName="fill" to="#808080" begin="arrowLeft.mouseover" end="arrowLeft.mouseout"/>
                  </use>
                  <path fill="none" stroke="white" stroke-width="1.5" d="M0,-3.0v7 M-2.5,-0.5L0,-3.0L2.5,-0.5"/>
                </g>
        </g>
        <svg viewBox="0 0 15 15" width="100%" height="30px" preserveAspectRatio="xMaxYMin meet">
         <g id="arrow_out" transform="scale(0.3 0.3)">
          <a xlink:href="structDGtal_1_1concepts_1_1CConstImage__coll__graph_org.svg" target="_base">
           <rect id="button" ry="5" rx="5" y="6" x="6" height="38" width="38"
                fill="#f2f5e9" fill-opacity="0.5" stroke="#606060" stroke-width="1.0"/>
           <path id="arrow"
             d="M 11.500037,31.436501 C 11.940474,20.09759 22.043105,11.32322 32.158766,21.979434 L 37.068811,17.246167 C 37.068811,17.246167 37.088388,32 37.088388,32 L 22.160133,31.978069 C 22.160133,31.978069 26.997745,27.140456 26.997745,27.140456 C 18.528582,18.264221 13.291696,25.230495 11.500037,31.436501 z"
             style="fill:#404040;"/>
          </a>
         </g>
        </svg>
</svg>
