<?xml version="1.0" encoding="UTF-8" standalone="no"?>
<!DOCTYPE svg PUBLIC "-//W3C//DTD SVG 1.1//EN"
 "http://www.w3.org/Graphics/SVG/1.1/DTD/svg11.dtd">
<!-- Generated by graphviz version 2.38.0 (20140413.2041)
 -->
<!-- Title: DGtal::concepts::CSCellEmbedder&lt; T &gt; Pages: 1 -->
<svg width="467pt" height="308pt"
 viewBox="0.00 0.00 467.00 308.00" xmlns="http://www.w3.org/2000/svg" xmlns:xlink="http://www.w3.org/1999/xlink">
<g id="graph0" class="graph" transform="scale(1 1) rotate(0) translate(4 304)">
<title>DGtal::concepts::CSCellEmbedder&lt; T &gt;</title>
<polygon fill="white" stroke="none" points="-4,4 -4,-304 463,-304 463,4 -4,4"/>
<!-- Node6 -->
<g id="node1" class="node"><title>Node6</title>
<polygon fill="#bfbfbf" stroke="black" points="252,-0.5 252,-19.5 459,-19.5 459,-0.5 252,-0.5"/>
<text text-anchor="middle" x="355.5" y="-7.5" font-family="FreeSans" font-size="10.00">DGtal::concepts::CSCellEmbedder&lt; T &gt;</text>
</g>
<!-- Node7 -->
<g id="node2" class="node"><title>Node7</title>
<g id="a_node2"><a xlink:href="structDGtal_1_1concepts_1_1CUnaryFunctor.html" target="_top" xlink:title="DGtal::concepts::CUnaryFunctor\l\&lt; T, T::SCell, T::RealPoint \&gt;">
<polygon fill="white" stroke="black" points="136.5,-57.5 136.5,-87.5 306.5,-87.5 306.5,-57.5 136.5,-57.5"/>
<text text-anchor="start" x="144.5" y="-75.5" font-family="FreeSans" font-size="10.00">DGtal::concepts::CUnaryFunctor</text>
<text text-anchor="middle" x="221.5" y="-64.5" font-family="FreeSans" font-size="10.00">&lt; T, T::SCell, T::RealPoint &gt;</text>
</a>
</g>
</g>
<!-- Node7&#45;&gt;Node6 -->
<g id="edge1" class="edge"><title>Node7&#45;&gt;Node6</title>
<path fill="none" stroke="midnightblue" d="M261.765,-53.3205C286.575,-42.1191 317.235,-28.2763 336.585,-19.5399"/>
<polygon fill="midnightblue" stroke="midnightblue" points="260.253,-50.1631 252.579,-57.468 263.133,-56.5429 260.253,-50.1631"/>
</g>
<!-- Node8 -->
<g id="node3" class="node"><title>Node8</title>
<g id="a_node3"><a xlink:href="structboost_1_1Assignable.html" target="_top" xlink:title="Go to http://www.sgi.com/tech/stl/Assignable.html. ">
<polygon fill="white" stroke="black" points="0,-280.5 0,-299.5 129,-299.5 129,-280.5 0,-280.5"/>
<text text-anchor="middle" x="64.5" y="-287.5" font-family="FreeSans" font-size="10.00">boost::Assignable&lt; T &gt;</text>
</a>
</g>
</g>
<!-- Node8&#45;&gt;Node7 -->
<g id="edge2" class="edge"><title>Node8&#45;&gt;Node7</title>
<path fill="none" stroke="midnightblue" d="M56.2187,-270.576C50.3523,-254.766 44.7747,-231.65 52.5,-213 78.1968,-150.962 148.794,-108.158 190.163,-87.5555"/>
<polygon fill="midnightblue" stroke="midnightblue" points="53.1358,-272.283 60.1663,-280.209 59.613,-269.629 53.1358,-272.283"/>
</g>
<!-- Node11 -->
<g id="node6" class="node"><title>Node11</title>
<g id="a_node6"><a xlink:href="structboost_1_1Assignable.html" target="_top" xlink:title="boost::Assignable\&lt; X \&gt;">
<polygon fill="white" stroke="black" points="61.5,-213.5 61.5,-232.5 191.5,-232.5 191.5,-213.5 61.5,-213.5"/>
<text text-anchor="middle" x="126.5" y="-220.5" font-family="FreeSans" font-size="10.00">boost::Assignable&lt; X &gt;</text>
</a>
</g>
</g>
<!-- Node8&#45;&gt;Node11 -->
<g id="edge6" class="edge"><title>Node8&#45;&gt;Node11</title>
<path fill="none" stroke="orange" stroke-dasharray="5,2" d="M79.7646,-272.997C91.9235,-260.25 108.477,-242.895 118.271,-232.627"/>
<polygon fill="orange" stroke="orange" points="77.2311,-270.582 72.8616,-280.234 82.2964,-275.413 77.2311,-270.582"/>
<text text-anchor="middle" x="115.5" y="-254" font-family="FreeSans" font-size="10.00"> &lt; X &gt;</text>
</g>
<!-- Node9 -->
<g id="node4" class="node"><title>Node9</title>
<polygon fill="white" stroke="#bfbfbf" points="352,-141 352,-160 381,-160 381,-141 352,-141"/>
<text text-anchor="middle" x="366.5" y="-148" font-family="FreeSans" font-size="10.00">T</text>
</g>
<!-- Node9&#45;&gt;Node6 -->
<g id="edge10" class="edge"><title>Node9&#45;&gt;Node6</title>
<path fill="none" stroke="#9a32cd" stroke-dasharray="5,2" d="M365.009,-130.726C362.599,-100.377 357.939,-41.712 356.188,-19.6605"/>
<polygon fill="#9a32cd" stroke="#9a32cd" points="361.531,-131.145 365.812,-140.836 368.509,-130.59 361.531,-131.145"/>
<text text-anchor="middle" x="375" y="-70" font-family="FreeSans" font-size="10.00"> myX</text>
</g>
<!-- Node9&#45;&gt;Node7 -->
<g id="edge3" class="edge"><title>Node9&#45;&gt;Node7</title>
<path fill="none" stroke="#9a32cd" stroke-dasharray="5,2" d="M356.647,-132.202C350.712,-123.203 342.39,-112.71 332.5,-106 320.868,-98.1087 307.298,-92.103 293.72,-87.5418"/>
<polygon fill="#9a32cd" stroke="#9a32cd" points="353.72,-134.125 361.933,-140.818 359.687,-130.464 353.72,-134.125"/>
<text text-anchor="middle" x="350" y="-109" font-family="FreeSans" font-size="10.00"> x</text>
</g>
<!-- Node10 -->
<g id="node5" class="node"><title>Node10</title>
<g id="a_node5"><a xlink:href="structDGtal_1_1concepts_1_1CUnaryFunctor.html" target="_top" xlink:title="Aim: Defines a unary functor, which associates arguments to results. ">
<polygon fill="white" stroke="black" points="139.5,-135.5 139.5,-165.5 309.5,-165.5 309.5,-135.5 139.5,-135.5"/>
<text text-anchor="start" x="147.5" y="-153.5" font-family="FreeSans" font-size="10.00">DGtal::concepts::CUnaryFunctor</text>
<text text-anchor="middle" x="224.5" y="-142.5" font-family="FreeSans" font-size="10.00">&lt; X, A, R &gt;</text>
</a>
</g>
</g>
<!-- Node10&#45;&gt;Node7 -->
<g id="edge4" class="edge"><title>Node10&#45;&gt;Node7</title>
<path fill="none" stroke="orange" stroke-dasharray="5,2" d="M205.192,-126.997C203.28,-123.805 201.631,-120.435 200.5,-117 197.143,-106.804 202.393,-95.9291 208.483,-87.6031"/>
<polygon fill="orange" stroke="orange" points="202.478,-129.224 211.069,-135.425 208.22,-125.22 202.478,-129.224"/>
<text text-anchor="middle" x="266.5" y="-109" font-family="FreeSans" font-size="10.00"> &lt; T, T::SCell, T::RealPoint &gt;</text>
</g>
<!-- Node11&#45;&gt;Node10 -->
<g id="edge5" class="edge"><title>Node11&#45;&gt;Node10</title>
<path fill="none" stroke="midnightblue" d="M146.704,-207.465C163.768,-195.19 188.053,-177.72 204.933,-165.576"/>
<polygon fill="midnightblue" stroke="midnightblue" points="144.591,-204.674 138.517,-213.355 148.678,-210.357 144.591,-204.674"/>
</g>
<!-- Node12 -->
<g id="node7" class="node"><title>Node12</title>
<polygon fill="white" stroke="#bfbfbf" points="210,-213.5 210,-232.5 239,-232.5 239,-213.5 210,-213.5"/>
<text text-anchor="middle" x="224.5" y="-220.5" font-family="FreeSans" font-size="10.00">X</text>
</g>
<!-- Node12&#45;&gt;Node10 -->
<g id="edge7" class="edge"><title>Node12&#45;&gt;Node10</title>
<path fill="none" stroke="#9a32cd" stroke-dasharray="5,2" d="M224.5,-203.236C224.5,-191.408 224.5,-176.383 224.5,-165.576"/>
<polygon fill="#9a32cd" stroke="#9a32cd" points="221,-203.355 224.5,-213.355 228,-203.355 221,-203.355"/>
<text text-anchor="middle" x="229" y="-187" font-family="FreeSans" font-size="10.00"> x</text>
</g>
<!-- Node13 -->
<g id="node8" class="node"><title>Node13</title>
<polygon fill="white" stroke="#bfbfbf" points="257,-213.5 257,-232.5 286,-232.5 286,-213.5 257,-213.5"/>
<text text-anchor="middle" x="271.5" y="-220.5" font-family="FreeSans" font-size="10.00">R</text>
</g>
<!-- Node13&#45;&gt;Node10 -->
<g id="edge8" class="edge"><title>Node13&#45;&gt;Node10</title>
<path fill="none" stroke="#9a32cd" stroke-dasharray="5,2" d="M259.955,-204.683C251.936,-192.654 241.386,-176.829 233.884,-165.576"/>
<polygon fill="#9a32cd" stroke="#9a32cd" points="257.278,-206.976 265.737,-213.355 263.102,-203.093 257.278,-206.976"/>
<text text-anchor="middle" x="256" y="-187" font-family="FreeSans" font-size="10.00"> r</text>
</g>
<!-- Node14 -->
<g id="node9" class="node"><title>Node14</title>
<polygon fill="white" stroke="#bfbfbf" points="304,-213.5 304,-232.5 333,-232.5 333,-213.5 304,-213.5"/>
<text text-anchor="middle" x="318.5" y="-220.5" font-family="FreeSans" font-size="10.00">A</text>
</g>
<!-- Node14&#45;&gt;Node10 -->
<g id="edge9" class="edge"><title>Node14&#45;&gt;Node10</title>
<path fill="none" stroke="#9a32cd" stroke-dasharray="5,2" d="M298.668,-207.126C282.326,-194.87 259.311,-177.608 243.268,-165.576"/>
<polygon fill="#9a32cd" stroke="#9a32cd" points="296.874,-210.155 306.974,-213.355 301.074,-204.555 296.874,-210.155"/>
<text text-anchor="middle" x="285.5" y="-187" font-family="FreeSans" font-size="10.00"> a</text>
</g>
</g>
</svg>
