<?xml version="1.0" encoding="UTF-8" standalone="no"?>
<!DOCTYPE svg PUBLIC "-//W3C//DTD SVG 1.1//EN"
 "http://www.w3.org/Graphics/SVG/1.1/DTD/svg11.dtd">
<!-- Generated by graphviz version 2.38.0 (20140413.2041)
 -->
<!-- Title: DGtal::IndexedDigitalSurface&lt; TDigitalSurfaceContainer &gt;::IndexedPropertyMap&lt; TData &gt; Pages: 1 -->
<!--zoomable 576 -->
<svg id="main" version="1.1" xmlns="http://www.w3.org/2000/svg" xmlns:xlink="http://www.w3.org/1999/xlink" xml:space="preserve" onload="init(evt)">
<style type="text/css"><![CDATA[
.edge:hover path { stroke: red; }
.edge:hover polygon { stroke: red; fill: red; }
]]></style>
<script type="text/javascript"><![CDATA[
var edges = document.getElementsByTagName('g');
if (edges && edges.length) {
  for (var i=0;i<edges.length;i++) {
    if (edges[i].id.substr(0,4)=='edge') {
      edges[i].setAttribute('class','edge');
    }
  }
}
]]></script>
        <defs>
                <circle id="rim" cx="0" cy="0" r="7"/>
                <circle id="rim2" cx="0" cy="0" r="3.5"/>
                <g id="zoomPlus">
                        <use xlink:href="#rim" fill="#404040">
                                <set attributeName="fill" to="#808080" begin="zoomplus.mouseover" end="zoomplus.mouseout"/>
                        </use>
                        <path d="M-4,0h8M0,-4v8" fill="none" stroke="white" stroke-width="1.5" pointer-events="none"/>
                </g>
                <g id="zoomMin">
                        <use xlink:href="#rim" fill="#404040">
                                <set attributeName="fill" to="#808080" begin="zoomminus.mouseover" end="zoomminus.mouseout"/>
                        </use>
                        <path d="M-4,0h8" fill="none" stroke="white" stroke-width="1.5" pointer-events="none"/>
                </g>
                <g id="dirArrow">
                        <path fill="none" stroke="white" stroke-width="1.5" d="M0,-3.0v7 M-2.5,-0.5L0,-3.0L2.5,-0.5"/>
                </g>
               <g id="resetDef">
                       <use xlink:href="#rim2" fill="#404040">
                               <set attributeName="fill" to="#808080" begin="reset.mouseover" end="reset.mouseout"/>
                       </use>
               </g>
        </defs>

<script type="text/javascript">
var viewWidth = 2340;
var viewHeight = 576;
var sectionId = 'dynsection-0';
</script>
<script xlink:href="svgpan.js"/>
<svg id="graph" class="graph">
<g id="viewport">
<title>DGtal::IndexedDigitalSurface&lt; TDigitalSurfaceContainer &gt;::IndexedPropertyMap&lt; TData &gt;</title>
<polygon fill="white" stroke="none" points="-4,4 -4,-571.971 2336,-571.971 2336,4 -4,4"/>
<!-- Node1 -->
<g id="node1" class="node"><title>Node1</title>
<polygon fill="#bfbfbf" stroke="black" points="2149,-469.971 2149,-510.971 2332,-510.971 2332,-469.971 2149,-469.971"/>
<text text-anchor="start" x="2157" y="-498.971" font-family="FreeSans" font-size="10.00">DGtal::IndexedDigitalSurface</text>
<text text-anchor="start" x="2157" y="-487.971" font-family="FreeSans" font-size="10.00">&lt; TDigitalSurfaceContainer</text>
<text text-anchor="middle" x="2240.5" y="-476.971" font-family="FreeSans" font-size="10.00"> &gt;::IndexedPropertyMap&lt; TData &gt;</text>
</g>
<!-- Node2 -->
<g id="node2" class="node"><title>Node2</title>
<g id="a_node2"><a xlink:href="classDGtal_1_1OwningOrAliasingPtr.html" target="_top" xlink:title="DGtal::OwningOrAliasingPtr\l\&lt; Storage \&gt;">
<polygon fill="white" stroke="black" points="1234,-537.471 1234,-567.471 1380,-567.471 1380,-537.471 1234,-537.471"/>
<text text-anchor="start" x="1242" y="-555.471" font-family="FreeSans" font-size="10.00">DGtal::OwningOrAliasingPtr</text>
<text text-anchor="middle" x="1307" y="-544.471" font-family="FreeSans" font-size="10.00">&lt; Storage &gt;</text>
</a>
</g>
</g>
<!-- Node2&#45;&gt;Node1 -->
<g id="edge1" class="edge"><title>Node2&#45;&gt;Node1</title>
<path fill="none" stroke="#9a32cd" stroke-dasharray="5,2" d="M1390.14,-548.957C1479.84,-544.954 1627.7,-537.867 1755,-529.471 1892.46,-520.404 2051.63,-507.041 2148.92,-498.549"/>
<polygon fill="#9a32cd" stroke="#9a32cd" points="1389.87,-545.465 1380.04,-549.406 1390.18,-552.459 1389.87,-545.465"/>
<text text-anchor="middle" x="1827.5" y="-530.471" font-family="FreeSans" font-size="10.00"> myData</text>
</g>
<!-- Node3 -->
<g id="node3" class="node"><title>Node3</title>
<g id="a_node3"><a xlink:title="STL class. ">
<polygon fill="white" stroke="#bfbfbf" points="899,-410.971 899,-429.971 994,-429.971 994,-410.971 899,-410.971"/>
<text text-anchor="middle" x="946.5" y="-417.971" font-family="FreeSans" font-size="10.00">std::vector&lt; T &gt;</text>
</a>
</g>
</g>
<!-- Node3&#45;&gt;Node2 -->
<g id="edge2" class="edge"><title>Node3&#45;&gt;Node2</title>
<path fill="none" stroke="#9a32cd" stroke-dasharray="5,2" d="M967.212,-436.606C994.525,-458.824 1041.6,-496.553 1051,-500.471 1116.8,-527.878 1140.54,-505.461 1210,-521.471 1218.22,-523.365 1219.98,-524.85 1228,-527.471 1237.87,-530.696 1248.45,-534.115 1258.54,-537.355"/>
<polygon fill="#9a32cd" stroke="#9a32cd" points="969.395,-433.87 959.433,-430.264 964.971,-439.296 969.395,-433.87"/>
<text text-anchor="middle" x="1130.5" y="-524.471" font-family="FreeSans" font-size="10.00"> myPtr</text>
</g>
<!-- Node7 -->
<g id="node7" class="node"><title>Node7</title>
<polygon fill="white" stroke="#bfbfbf" points="1601,-269.971 1601,-288.971 1715,-288.971 1715,-269.971 1601,-269.971"/>
<text text-anchor="middle" x="1658" y="-276.971" font-family="FreeSans" font-size="10.00">std::vector&lt; SCell &gt;</text>
</g>
<!-- Node3&#45;&gt;Node7 -->
<g id="edge18" class="edge"><title>Node3&#45;&gt;Node7</title>
<path fill="none" stroke="orange" stroke-dasharray="5,2" d="M962.73,-403.52C981.522,-383.676 1015.38,-351.266 1051,-333.471 1123.24,-297.383 1147.92,-302.855 1228,-292.471 1360.83,-275.246 1518.63,-275.801 1600.85,-277.659"/>
<polygon fill="orange" stroke="orange" points="960.088,-401.223 955.856,-410.936 965.221,-405.982 960.088,-401.223"/>
<text text-anchor="middle" x="1307" y="-295.471" font-family="FreeSans" font-size="10.00"> &lt; SCell &gt;</text>
</g>
<!-- Node17 -->
<g id="node17" class="node"><title>Node17</title>
<polygon fill="white" stroke="#bfbfbf" points="1240,-410.971 1240,-429.971 1374,-429.971 1374,-410.971 1240,-410.971"/>
<text text-anchor="middle" x="1307" y="-417.971" font-family="FreeSans" font-size="10.00">std::vector&lt; RealPoint &gt;</text>
</g>
<!-- Node3&#45;&gt;Node17 -->
<g id="edge26" class="edge"><title>Node3&#45;&gt;Node17</title>
<path fill="none" stroke="orange" stroke-dasharray="5,2" d="M1004.3,-420.471C1068.29,-420.471 1172.16,-420.471 1239.78,-420.471"/>
<polygon fill="orange" stroke="orange" points="1004,-416.971 994,-420.471 1004,-423.971 1004,-416.971"/>
<text text-anchor="middle" x="1130.5" y="-423.471" font-family="FreeSans" font-size="10.00"> &lt; RealPoint &gt;</text>
</g>
<!-- Node18 -->
<g id="node18" class="node"><title>Node18</title>
<polygon fill="white" stroke="#bfbfbf" points="1228,-498.971 1228,-517.971 1386,-517.971 1386,-498.971 1228,-498.971"/>
<text text-anchor="middle" x="1307" y="-505.971" font-family="FreeSans" font-size="10.00">std::vector&lt; PolygonalFace &gt;</text>
</g>
<!-- Node3&#45;&gt;Node18 -->
<g id="edge28" class="edge"><title>Node3&#45;&gt;Node18</title>
<path fill="none" stroke="#9a32cd" stroke-dasharray="5,2" d="M1004.43,-427.412C1080.35,-436.763 1205.78,-452.572 1210,-455.471 1223.77,-464.932 1214.81,-478.211 1228,-488.471 1233.63,-492.849 1240.11,-496.277 1246.88,-498.958"/>
<polygon fill="#9a32cd" stroke="#9a32cd" points="1004.41,-423.884 994.06,-426.138 1003.56,-430.832 1004.41,-423.884"/>
<text text-anchor="middle" x="1130.5" y="-458.471" font-family="FreeSans" font-size="10.00"> elements</text>
</g>
<!-- Node3&#45;&gt;Node18 -->
<g id="edge29" class="edge"><title>Node3&#45;&gt;Node18</title>
<path fill="none" stroke="orange" stroke-dasharray="5,2" d="M973.904,-434.636C994.379,-445.015 1023.76,-458.611 1051,-466.471 1119.6,-486.268 1139.62,-477.424 1210,-489.471 1226.41,-492.28 1244.33,-495.723 1260.19,-498.902"/>
<polygon fill="orange" stroke="orange" points="975.382,-431.46 964.89,-429.983 972.171,-437.68 975.382,-431.46"/>
<text text-anchor="middle" x="1130.5" y="-492.471" font-family="FreeSans" font-size="10.00"> &lt; PolygonalFace &gt;</text>
</g>
<!-- Node23 -->
<g id="node23" class="node"><title>Node23</title>
<polygon fill="white" stroke="#bfbfbf" points="1240,-312.971 1240,-353.971 1374,-353.971 1374,-312.971 1240,-312.971"/>
<text text-anchor="start" x="1248" y="-341.971" font-family="FreeSans" font-size="10.00">std::vector&lt; DGtal</text>
<text text-anchor="start" x="1248" y="-330.971" font-family="FreeSans" font-size="10.00">::HalfEdgeDataStructure</text>
<text text-anchor="middle" x="1307" y="-319.971" font-family="FreeSans" font-size="10.00">::HalfEdge &gt;</text>
</g>
<!-- Node3&#45;&gt;Node23 -->
<g id="edge41" class="edge"><title>Node3&#45;&gt;Node23</title>
<path fill="none" stroke="orange" stroke-dasharray="5,2" d="M969.623,-405.304C989.864,-392.227 1021.12,-373.991 1051,-364.471 1113.14,-344.669 1187.51,-337.375 1239.85,-334.76"/>
<polygon fill="orange" stroke="orange" points="967.561,-402.471 961.142,-410.9 971.417,-408.314 967.561,-402.471"/>
<text text-anchor="start" x="1051" y="-378.471" font-family="FreeSans" font-size="10.00"> &lt; DGtal::HalfEdgeDataStructure</text>
<text text-anchor="middle" x="1130.5" y="-367.471" font-family="FreeSans" font-size="10.00">::HalfEdge &gt;</text>
</g>
<!-- Node25 -->
<g id="node25" class="node"><title>Node25</title>
<polygon fill="white" stroke="#bfbfbf" points="1249,-372.971 1249,-391.971 1365,-391.971 1365,-372.971 1249,-372.971"/>
<text text-anchor="middle" x="1307" y="-379.971" font-family="FreeSans" font-size="10.00">std::vector&lt; Index &gt;</text>
</g>
<!-- Node3&#45;&gt;Node25 -->
<g id="edge43" class="edge"><title>Node3&#45;&gt;Node25</title>
<path fill="none" stroke="orange" stroke-dasharray="5,2" d="M1004.32,-411.673C1019.47,-409.482 1035.84,-407.252 1051,-405.471 1118.88,-397.497 1197.2,-390.805 1248.94,-386.731"/>
<polygon fill="orange" stroke="orange" points="1003.44,-408.264 994.057,-413.178 1004.46,-415.19 1003.44,-408.264"/>
<text text-anchor="middle" x="1130.5" y="-408.471" font-family="FreeSans" font-size="10.00"> &lt; Index &gt;</text>
</g>
<!-- Node4 -->
<g id="node4" class="node"><title>Node4</title>
<polygon fill="white" stroke="#bfbfbf" points="652.5,-410.971 652.5,-429.971 681.5,-429.971 681.5,-410.971 652.5,-410.971"/>
<text text-anchor="middle" x="667" y="-417.971" font-family="FreeSans" font-size="10.00">T</text>
</g>
<!-- Node4&#45;&gt;Node3 -->
<g id="edge3" class="edge"><title>Node4&#45;&gt;Node3</title>
<path fill="none" stroke="#9a32cd" stroke-dasharray="5,2" d="M691.945,-420.471C737.898,-420.471 839.181,-420.471 898.899,-420.471"/>
<polygon fill="#9a32cd" stroke="#9a32cd" points="691.761,-416.971 681.761,-420.471 691.761,-423.971 691.761,-416.971"/>
<text text-anchor="middle" x="800" y="-423.471" font-family="FreeSans" font-size="10.00"> elements</text>
</g>
<!-- Node5 -->
<g id="node5" class="node"><title>Node5</title>
<g id="a_node5"><a xlink:href="classDGtal_1_1OwningOrAliasingPtr.html" target="_top" xlink:title="Aim: This class describes a smart pointer that is, given the constructor called by the user...">
<polygon fill="white" stroke="black" points="860,-497.971 860,-516.971 1033,-516.971 1033,-497.971 860,-497.971"/>
<text text-anchor="middle" x="946.5" y="-504.971" font-family="FreeSans" font-size="10.00">DGtal::OwningOrAliasingPtr&lt; T &gt;</text>
</a>
</g>
</g>
<!-- Node4&#45;&gt;Node5 -->
<g id="edge5" class="edge"><title>Node4&#45;&gt;Node5</title>
<path fill="none" stroke="#9a32cd" stroke-dasharray="5,2" d="M691.377,-427.8C741.459,-443.501 859.088,-480.379 914.978,-497.902"/>
<polygon fill="#9a32cd" stroke="#9a32cd" points="692.35,-424.437 681.761,-424.785 690.256,-431.116 692.35,-424.437"/>
<text text-anchor="middle" x="800" y="-477.471" font-family="FreeSans" font-size="10.00"> myPtr</text>
</g>
<!-- Node15 -->
<g id="node15" class="node"><title>Node15</title>
<g id="a_node15"><a xlink:title="STL class. ">
<polygon fill="white" stroke="#bfbfbf" points="897,-190.971 897,-209.971 996,-209.971 996,-190.971 897,-190.971"/>
<text text-anchor="middle" x="946.5" y="-197.971" font-family="FreeSans" font-size="10.00">std::map&lt; K, T &gt;</text>
</a>
</g>
</g>
<!-- Node4&#45;&gt;Node15 -->
<g id="edge23" class="edge"><title>Node4&#45;&gt;Node15</title>
<path fill="none" stroke="#9a32cd" stroke-dasharray="5,2" d="M690.183,-406.33C704.935,-396.484 724.394,-382.625 740,-368.471 799.71,-314.316 793.605,-278.184 860,-232.471 874.49,-222.494 892.489,-215.153 908.23,-210.037"/>
<polygon fill="#9a32cd" stroke="#9a32cd" points="688.122,-403.496 681.682,-411.909 691.962,-409.349 688.122,-403.496"/>
<text text-anchor="middle" x="800" y="-353.471" font-family="FreeSans" font-size="10.00"> elements</text>
</g>
<!-- Node5&#45;&gt;Node2 -->
<g id="edge4" class="edge"><title>Node5&#45;&gt;Node2</title>
<path fill="none" stroke="orange" stroke-dasharray="5,2" d="M987.789,-519.831C1006.79,-525.18 1029.88,-531 1051,-534.471 1112.2,-544.525 1182.58,-548.966 1233.87,-550.926"/>
<polygon fill="orange" stroke="orange" points="988.555,-516.409 977.977,-517.008 986.62,-523.136 988.555,-516.409"/>
<text text-anchor="middle" x="1130.5" y="-552.471" font-family="FreeSans" font-size="10.00"> &lt; Storage &gt;</text>
</g>
<!-- Node6 -->
<g id="node6" class="node"><title>Node6</title>
<g id="a_node6"><a xlink:href="classDGtal_1_1IndexedDigitalSurface.html" target="_top" xlink:title="Aim: Represents a digital surface with the topology of its dual surface. Its aim is to mimick the sta...">
<polygon fill="white" stroke="black" points="1900,-320.471 1900,-350.471 2058,-350.471 2058,-320.471 1900,-320.471"/>
<text text-anchor="start" x="1908" y="-338.471" font-family="FreeSans" font-size="10.00">DGtal::IndexedDigitalSurface</text>
<text text-anchor="middle" x="1979" y="-327.471" font-family="FreeSans" font-size="10.00">&lt; TDigitalSurfaceContainer &gt;</text>
</a>
</g>
</g>
<!-- Node6&#45;&gt;Node1 -->
<g id="edge6" class="edge"><title>Node6&#45;&gt;Node1</title>
<path fill="none" stroke="#9a32cd" stroke-dasharray="5,2" d="M2014.11,-355.845C2063.72,-385.475 2155.27,-440.158 2205.06,-469.9"/>
<polygon fill="#9a32cd" stroke="#9a32cd" points="2015.73,-352.738 2005.35,-350.615 2012.14,-358.748 2015.73,-352.738"/>
<text text-anchor="middle" x="2103.5" y="-425.471" font-family="FreeSans" font-size="10.00"> mySurface</text>
</g>
<!-- Node7&#45;&gt;Node6 -->
<g id="edge7" class="edge"><title>Node7&#45;&gt;Node6</title>
<path fill="none" stroke="#9a32cd" stroke-dasharray="5,2" d="M1725.32,-279.707C1770.09,-281.109 1830.23,-285.42 1882,-297.471 1904.35,-302.673 1928.35,-312.173 1946.76,-320.372"/>
<polygon fill="#9a32cd" stroke="#9a32cd" points="1725.24,-276.203 1715.15,-279.43 1725.05,-283.201 1725.24,-276.203"/>
<text text-anchor="middle" x="1827.5" y="-322.471" font-family="FreeSans" font-size="10.00"> myVertexIndex2Surfel</text>
<text text-anchor="middle" x="1827.5" y="-311.471" font-family="FreeSans" font-size="10.00">myArc2Linel</text>
<text text-anchor="middle" x="1827.5" y="-300.471" font-family="FreeSans" font-size="10.00">myFaceIndex2Pointel</text>
</g>
<!-- Node8 -->
<g id="node8" class="node"><title>Node8</title>
<g id="a_node8"><a xlink:href="structDGtal_1_1SignedKhalimskyCell.html" target="_top" xlink:title="Represents a signed cell in a cellular grid space by its Khalimsky coordinates and a boolean value...">
<polygon fill="white" stroke="black" points="1233,-54.4708 1233,-84.4708 1381,-84.4708 1381,-54.4708 1233,-54.4708"/>
<text text-anchor="start" x="1241" y="-72.4708" font-family="FreeSans" font-size="10.00">DGtal::SignedKhalimskyCell</text>
<text text-anchor="middle" x="1307" y="-61.4708" font-family="FreeSans" font-size="10.00">&lt; dim, TInteger &gt;</text>
</a>
</g>
</g>
<!-- Node8&#45;&gt;Node7 -->
<g id="edge8" class="edge"><title>Node8&#45;&gt;Node7</title>
<path fill="none" stroke="#9a32cd" stroke-dasharray="5,2" d="M1359.73,-89.0292C1369.16,-94.0967 1378.41,-100.218 1386,-107.471 1398.08,-119.009 1392.2,-128.639 1404,-140.471 1471.23,-207.904 1578.03,-251.808 1628.63,-269.964"/>
<polygon fill="#9a32cd" stroke="#9a32cd" points="1361.19,-85.8444 1350.68,-84.491 1358.05,-92.1019 1361.19,-85.8444"/>
<text text-anchor="middle" x="1473.5" y="-235.471" font-family="FreeSans" font-size="10.00"> elements</text>
</g>
<!-- Node14 -->
<g id="node14" class="node"><title>Node14</title>
<polygon fill="white" stroke="#bfbfbf" points="1565.5,-20.4708 1565.5,-50.4708 1750.5,-50.4708 1750.5,-20.4708 1565.5,-20.4708"/>
<text text-anchor="start" x="1573.5" y="-38.4708" font-family="FreeSans" font-size="10.00">std::map&lt; DGtal::SignedKhalimsky</text>
<text text-anchor="middle" x="1658" y="-27.4708" font-family="FreeSans" font-size="10.00">Cell, VertexIndex &gt;</text>
</g>
<!-- Node8&#45;&gt;Node14 -->
<g id="edge20" class="edge"><title>Node8&#45;&gt;Node14</title>
<path fill="none" stroke="#9a32cd" stroke-dasharray="5,2" d="M1352.44,-50.8075C1368.4,-45.0168 1386.73,-39.3911 1404,-36.4708 1456.95,-27.5172 1517.02,-26.887 1565.34,-28.6724"/>
<polygon fill="#9a32cd" stroke="#9a32cd" points="1350.97,-47.6208 1342.84,-54.4116 1353.43,-54.1744 1350.97,-47.6208"/>
<text text-anchor="middle" x="1473.5" y="-39.4708" font-family="FreeSans" font-size="10.00"> keys</text>
</g>
<!-- Node19 -->
<g id="node19" class="node"><title>Node19</title>
<polygon fill="white" stroke="#bfbfbf" points="1565.5,-114.471 1565.5,-144.471 1750.5,-144.471 1750.5,-114.471 1565.5,-114.471"/>
<text text-anchor="start" x="1573.5" y="-132.471" font-family="FreeSans" font-size="10.00">std::map&lt; DGtal::SignedKhalimsky</text>
<text text-anchor="middle" x="1658" y="-121.471" font-family="FreeSans" font-size="10.00">Cell, Arc &gt;</text>
</g>
<!-- Node8&#45;&gt;Node19 -->
<g id="edge31" class="edge"><title>Node8&#45;&gt;Node19</title>
<path fill="none" stroke="#9a32cd" stroke-dasharray="5,2" d="M1391.19,-60.4028C1436.67,-57.7828 1493.64,-58.3438 1543,-70.4708 1577.63,-78.9782 1613.5,-99.8982 1635.54,-114.392"/>
<polygon fill="#9a32cd" stroke="#9a32cd" points="1390.83,-56.9184 1381.07,-61.0482 1391.27,-63.9042 1390.83,-56.9184"/>
<text text-anchor="middle" x="1473.5" y="-73.4708" font-family="FreeSans" font-size="10.00"> keys</text>
</g>
<!-- Node20 -->
<g id="node20" class="node"><title>Node20</title>
<polygon fill="white" stroke="#bfbfbf" points="1565.5,-173.471 1565.5,-203.471 1750.5,-203.471 1750.5,-173.471 1565.5,-173.471"/>
<text text-anchor="start" x="1573.5" y="-191.471" font-family="FreeSans" font-size="10.00">std::map&lt; DGtal::SignedKhalimsky</text>
<text text-anchor="middle" x="1658" y="-180.471" font-family="FreeSans" font-size="10.00">Cell, FaceIndex &gt;</text>
</g>
<!-- Node8&#45;&gt;Node20 -->
<g id="edge34" class="edge"><title>Node8&#45;&gt;Node20</title>
<path fill="none" stroke="#9a32cd" stroke-dasharray="5,2" d="M1391.25,-84.642C1448.34,-96.1768 1518.1,-112.847 1543,-129.471 1554.09,-136.874 1550.29,-145.525 1561,-153.471 1572.25,-161.823 1585.7,-168.353 1598.92,-173.391"/>
<polygon fill="#9a32cd" stroke="#9a32cd" points="1391.61,-81.1444 1381.12,-82.621 1390.24,-88.0093 1391.61,-81.1444"/>
<text text-anchor="middle" x="1473.5" y="-132.471" font-family="FreeSans" font-size="10.00"> keys</text>
</g>
<!-- Node9 -->
<g id="node9" class="node"><title>Node9</title>
<g id="a_node9"><a xlink:href="structDGtal_1_1SignedKhalimskyPreCell.html" target="_top" xlink:title="DGtal::SignedKhalimskyPre\lCell\&lt; dim, Integer \&gt;">
<polygon fill="white" stroke="black" points="873.5,-118.471 873.5,-148.471 1019.5,-148.471 1019.5,-118.471 873.5,-118.471"/>
<text text-anchor="start" x="881.5" y="-136.471" font-family="FreeSans" font-size="10.00">DGtal::SignedKhalimskyPre</text>
<text text-anchor="middle" x="946.5" y="-125.471" font-family="FreeSans" font-size="10.00">Cell&lt; dim, Integer &gt;</text>
</a>
</g>
</g>
<!-- Node9&#45;&gt;Node8 -->
<g id="edge9" class="edge"><title>Node9&#45;&gt;Node8</title>
<path fill="none" stroke="#9a32cd" stroke-dasharray="5,2" d="M1005.81,-115.629C1020.47,-111.561 1036.23,-107.539 1051,-104.471 1111.71,-91.8617 1181.52,-82.6392 1232.73,-76.8363"/>
<polygon fill="#9a32cd" stroke="#9a32cd" points="1004.54,-112.352 995.866,-118.442 1006.44,-119.088 1004.54,-112.352"/>
<text text-anchor="middle" x="1130.5" y="-107.471" font-family="FreeSans" font-size="10.00"> mySPreCell</text>
</g>
<!-- Node10 -->
<g id="node10" class="node"><title>Node10</title>
<g id="a_node10"><a xlink:href="classDGtal_1_1PointVector.html" target="_top" xlink:title="DGtal::PointVector\l\&lt; dim, Integer \&gt;">
<polygon fill="white" stroke="black" points="394,-243.471 394,-273.471 498,-273.471 498,-243.471 394,-243.471"/>
<text text-anchor="start" x="402" y="-261.471" font-family="FreeSans" font-size="10.00">DGtal::PointVector</text>
<text text-anchor="middle" x="446" y="-250.471" font-family="FreeSans" font-size="10.00">&lt; dim, Integer &gt;</text>
</a>
</g>
</g>
<!-- Node10&#45;&gt;Node9 -->
<g id="edge10" class="edge"><title>Node10&#45;&gt;Node9</title>
<path fill="none" stroke="#9a32cd" stroke-dasharray="5,2" d="M485.065,-238.891C514.199,-224.653 555.746,-205.937 594,-194.471 645.022,-179.177 786.156,-156.898 873.282,-143.924"/>
<polygon fill="#9a32cd" stroke="#9a32cd" points="483.475,-235.773 476.062,-243.342 486.577,-242.048 483.475,-235.773"/>
<text text-anchor="middle" x="667" y="-197.471" font-family="FreeSans" font-size="10.00"> coordinates</text>
</g>
<!-- Node13 -->
<g id="node13" class="node"><title>Node13</title>
<g id="a_node13"><a xlink:href="structDGtal_1_1SignedKhalimskyPreCell.html" target="_top" xlink:title="Represents a signed cell in an unbounded cellular grid space by its Khalimsky coordinates and a boole...">
<polygon fill="white" stroke="black" points="594,-118.471 594,-148.471 740,-148.471 740,-118.471 594,-118.471"/>
<text text-anchor="start" x="602" y="-136.471" font-family="FreeSans" font-size="10.00">DGtal::SignedKhalimskyPre</text>
<text text-anchor="middle" x="667" y="-125.471" font-family="FreeSans" font-size="10.00">Cell&lt; dim, TInteger &gt;</text>
</a>
</g>
</g>
<!-- Node10&#45;&gt;Node13 -->
<g id="edge17" class="edge"><title>Node10&#45;&gt;Node13</title>
<path fill="none" stroke="#9a32cd" stroke-dasharray="5,2" d="M457.477,-234.01C468.577,-211.196 488.339,-178.112 516,-160.471 538.979,-145.816 567.749,-138.583 593.93,-135.172"/>
<polygon fill="#9a32cd" stroke="#9a32cd" points="454.163,-232.836 453.12,-243.38 460.51,-235.787 454.163,-232.836"/>
<text text-anchor="middle" x="546" y="-163.471" font-family="FreeSans" font-size="10.00"> coordinates</text>
</g>
<!-- Node11 -->
<g id="node11" class="node"><title>Node11</title>
<polygon fill="white" stroke="#bfbfbf" points="0,-340.971 0,-359.971 68,-359.971 68,-340.971 0,-340.971"/>
<text text-anchor="middle" x="34" y="-347.971" font-family="FreeSans" font-size="10.00">TContainer</text>
</g>
<!-- Node11&#45;&gt;Node10 -->
<g id="edge11" class="edge"><title>Node11&#45;&gt;Node10</title>
<path fill="none" stroke="#9a32cd" stroke-dasharray="5,2" d="M78.2092,-356.929C126.668,-362.735 207.22,-368.057 274,-351.471 333.691,-336.645 394.938,-295.894 425.359,-273.574"/>
<polygon fill="#9a32cd" stroke="#9a32cd" points="78.438,-353.43 68.0786,-355.651 77.5621,-360.375 78.438,-353.43"/>
<text text-anchor="middle" x="211" y="-366.471" font-family="FreeSans" font-size="10.00"> myArray</text>
</g>
<!-- Node12 -->
<g id="node12" class="node"><title>Node12</title>
<g id="a_node12"><a xlink:href="classDGtal_1_1PointVector.html" target="_top" xlink:title="Aim: Implements basic operations that will be used in Point and Vector classes. ">
<polygon fill="white" stroke="black" points="148,-271.971 148,-312.971 274,-312.971 274,-271.971 148,-271.971"/>
<text text-anchor="start" x="156" y="-300.971" font-family="FreeSans" font-size="10.00">DGtal::PointVector</text>
<text text-anchor="start" x="156" y="-289.971" font-family="FreeSans" font-size="10.00">&lt; dim, TEuclideanRing,</text>
<text text-anchor="middle" x="211" y="-278.971" font-family="FreeSans" font-size="10.00"> TContainer &gt;</text>
</a>
</g>
</g>
<!-- Node11&#45;&gt;Node12 -->
<g id="edge13" class="edge"><title>Node11&#45;&gt;Node12</title>
<path fill="none" stroke="#9a32cd" stroke-dasharray="5,2" d="M73.4757,-337.719C95.3137,-330.481 123.167,-321.25 148.013,-313.015"/>
<polygon fill="#9a32cd" stroke="#9a32cd" points="72.2888,-334.425 63.8977,-340.893 74.4911,-341.069 72.2888,-334.425"/>
<text text-anchor="middle" x="108" y="-336.471" font-family="FreeSans" font-size="10.00"> myArray</text>
</g>
<!-- Node12&#45;&gt;Node10 -->
<g id="edge12" class="edge"><title>Node12&#45;&gt;Node10</title>
<path fill="none" stroke="#9a32cd" stroke-dasharray="5,2" d="M284.671,-283.339C313.183,-279.595 346.161,-275.065 376,-270.471 381.768,-269.583 387.799,-268.606 393.792,-267.604"/>
<polygon fill="#9a32cd" stroke="#9a32cd" points="283.846,-279.917 274.383,-284.681 284.752,-286.858 283.846,-279.917"/>
<text text-anchor="middle" x="334" y="-285.471" font-family="FreeSans" font-size="10.00"> zero</text>
</g>
<!-- Node12&#45;&gt;Node10 -->
<g id="edge15" class="edge"><title>Node12&#45;&gt;Node10</title>
<path fill="none" stroke="orange" stroke-dasharray="5,2" d="M259.702,-267.812C270.089,-263.529 281.207,-259.728 292,-257.471 325.41,-250.482 363.829,-250.761 393.811,-252.773"/>
<polygon fill="orange" stroke="orange" points="258.178,-264.659 250.399,-271.852 260.966,-271.079 258.178,-264.659"/>
<text text-anchor="middle" x="334" y="-260.471" font-family="FreeSans" font-size="10.00"> &lt; dim, Integer &gt;</text>
</g>
<!-- Node12&#45;&gt;Node12 -->
<g id="edge14" class="edge"><title>Node12&#45;&gt;Node12</title>
<path fill="none" stroke="#9a32cd" stroke-dasharray="5,2" d="M193.452,-323.327C196.061,-328.167 201.911,-331.471 211,-331.471 225.543,-331.471 231.792,-323.014 229.747,-313.335"/>
<polygon fill="#9a32cd" stroke="#9a32cd" points="196.919,-322.847 192.253,-313.335 189.969,-323.681 196.919,-322.847"/>
<text text-anchor="middle" x="211" y="-334.471" font-family="FreeSans" font-size="10.00"> zero</text>
</g>
<!-- Node12&#45;&gt;Node17 -->
<g id="edge25" class="edge"><title>Node12&#45;&gt;Node17</title>
<path fill="none" stroke="#9a32cd" stroke-dasharray="5,2" d="M270.616,-316.706C317.082,-333.728 384.101,-353.471 445,-353.471 445,-353.471 445,-353.471 947.5,-353.471 1065.08,-353.471 1102.16,-339.611 1210,-386.471 1219.55,-390.621 1218.7,-396.784 1228,-401.471 1235.59,-405.297 1243.99,-408.379 1252.39,-410.853"/>
<polygon fill="#9a32cd" stroke="#9a32cd" points="271.615,-313.343 261.023,-313.123 269.166,-319.9 271.615,-313.343"/>
<text text-anchor="middle" x="667" y="-356.471" font-family="FreeSans" font-size="10.00"> elements</text>
</g>
<!-- Node13&#45;&gt;Node9 -->
<g id="edge16" class="edge"><title>Node13&#45;&gt;Node9</title>
<path fill="none" stroke="orange" stroke-dasharray="5,2" d="M750.457,-133.471C789.449,-133.471 835.585,-133.471 873.194,-133.471"/>
<polygon fill="orange" stroke="orange" points="750.185,-129.971 740.185,-133.471 750.185,-136.971 750.185,-129.971"/>
<text text-anchor="middle" x="800" y="-136.471" font-family="FreeSans" font-size="10.00"> &lt; dim, Integer &gt;</text>
</g>
<!-- Node14&#45;&gt;Node6 -->
<g id="edge19" class="edge"><title>Node14&#45;&gt;Node6</title>
<path fill="none" stroke="#9a32cd" stroke-dasharray="5,2" d="M1722.6,-53.7882C1771.26,-70.5073 1837.38,-99.4089 1882,-143.471 1935.43,-196.234 1964.23,-284.888 1974.07,-320.244"/>
<polygon fill="#9a32cd" stroke="#9a32cd" points="1723.71,-50.4677 1713.11,-50.6059 1721.48,-57.1043 1723.71,-50.4677"/>
<text text-anchor="middle" x="1827.5" y="-146.471" font-family="FreeSans" font-size="10.00"> mySurfel2VertexIndex</text>
</g>
<!-- Node15&#45;&gt;Node14 -->
<g id="edge21" class="edge"><title>Node15&#45;&gt;Node14</title>
<path fill="none" stroke="orange" stroke-dasharray="5,2" d="M977.901,-186.459C994.486,-178.499 1015.2,-168.036 1033,-157.471 1123.64,-103.66 1127.39,-53.9004 1228,-22.4708 1351.76,16.1876 1505.47,-3.71092 1591.24,-20.4248"/>
<polygon fill="orange" stroke="orange" points="976.203,-183.391 968.667,-190.838 979.202,-189.715 976.203,-183.391"/>
<text text-anchor="start" x="1242.5" y="-36.4708" font-family="FreeSans" font-size="10.00"> &lt; DGtal::SignedKhalimsky</text>
<text text-anchor="middle" x="1307" y="-25.4708" font-family="FreeSans" font-size="10.00">Cell, VertexIndex &gt;</text>
</g>
<!-- Node15&#45;&gt;Node19 -->
<g id="edge32" class="edge"><title>Node15&#45;&gt;Node19</title>
<path fill="none" stroke="orange" stroke-dasharray="5,2" d="M1005.93,-191.864C1092.63,-179.393 1260.53,-156.382 1404,-143.471 1457.34,-138.67 1517.17,-135.269 1565.25,-133.023"/>
<polygon fill="orange" stroke="orange" points="1005.42,-188.402 996.025,-193.295 1006.42,-195.33 1005.42,-188.402"/>
<text text-anchor="start" x="1242.5" y="-176.471" font-family="FreeSans" font-size="10.00"> &lt; DGtal::SignedKhalimsky</text>
<text text-anchor="middle" x="1307" y="-165.471" font-family="FreeSans" font-size="10.00">Cell, Arc &gt;</text>
</g>
<!-- Node15&#45;&gt;Node20 -->
<g id="edge35" class="edge"><title>Node15&#45;&gt;Node20</title>
<path fill="none" stroke="orange" stroke-dasharray="5,2" d="M1006.29,-199.476C1129.86,-197.386 1417.3,-192.525 1565.31,-190.022"/>
<polygon fill="orange" stroke="orange" points="1006.21,-195.977 996.267,-199.646 1006.32,-202.976 1006.21,-195.977"/>
<text text-anchor="start" x="1242.5" y="-210.471" font-family="FreeSans" font-size="10.00"> &lt; DGtal::SignedKhalimsky</text>
<text text-anchor="middle" x="1307" y="-199.471" font-family="FreeSans" font-size="10.00">Cell, FaceIndex &gt;</text>
</g>
<!-- Node22 -->
<g id="node22" class="node"><title>Node22</title>
<polygon fill="white" stroke="#bfbfbf" points="1242.5,-227.971 1242.5,-246.971 1371.5,-246.971 1371.5,-227.971 1242.5,-227.971"/>
<text text-anchor="middle" x="1307" y="-234.971" font-family="FreeSans" font-size="10.00">std::map&lt; Arc, Index &gt;</text>
</g>
<!-- Node15&#45;&gt;Node22 -->
<g id="edge38" class="edge"><title>Node15&#45;&gt;Node22</title>
<path fill="none" stroke="orange" stroke-dasharray="5,2" d="M1006.71,-205.145C1059.96,-209.526 1140.3,-216.569 1210,-224.471 1220.44,-225.655 1231.51,-227.036 1242.27,-228.447"/>
<polygon fill="orange" stroke="orange" points="1006.68,-201.632 996.428,-204.305 1006.11,-208.608 1006.68,-201.632"/>
<text text-anchor="middle" x="1130.5" y="-227.471" font-family="FreeSans" font-size="10.00"> &lt; Arc, Index &gt;</text>
</g>
<!-- Node16 -->
<g id="node16" class="node"><title>Node16</title>
<polygon fill="white" stroke="#bfbfbf" points="652.5,-214.971 652.5,-233.971 681.5,-233.971 681.5,-214.971 652.5,-214.971"/>
<text text-anchor="middle" x="667" y="-221.971" font-family="FreeSans" font-size="10.00">K</text>
</g>
<!-- Node16&#45;&gt;Node15 -->
<g id="edge22" class="edge"><title>Node16&#45;&gt;Node15</title>
<path fill="none" stroke="#9a32cd" stroke-dasharray="5,2" d="M691.834,-222.409C737.249,-218.482 836.995,-209.855 896.989,-204.666"/>
<polygon fill="#9a32cd" stroke="#9a32cd" points="691.422,-218.932 681.761,-223.281 692.026,-225.906 691.422,-218.932"/>
<text text-anchor="middle" x="800" y="-219.471" font-family="FreeSans" font-size="10.00"> keys</text>
</g>
<!-- Node17&#45;&gt;Node6 -->
<g id="edge24" class="edge"><title>Node17&#45;&gt;Node6</title>
<path fill="none" stroke="#9a32cd" stroke-dasharray="5,2" d="M1384.39,-414.702C1430.41,-410.964 1490.14,-405.648 1543,-399.471 1694.2,-381.8 1731.46,-373.111 1882,-350.471 1887.84,-349.593 1893.87,-348.674 1899.95,-347.743"/>
<polygon fill="#9a32cd" stroke="#9a32cd" points="1383.88,-411.232 1374.19,-415.523 1384.44,-418.209 1383.88,-411.232"/>
<text text-anchor="middle" x="1658" y="-400.471" font-family="FreeSans" font-size="10.00"> myPositions</text>
</g>
<!-- Node18&#45;&gt;Node6 -->
<g id="edge27" class="edge"><title>Node18&#45;&gt;Node6</title>
<path fill="none" stroke="#9a32cd" stroke-dasharray="5,2" d="M1396.38,-512.093C1536.43,-516.302 1801.69,-517.589 1882,-471.471 1930.62,-443.55 1960.68,-379.845 1972.39,-350.625"/>
<polygon fill="#9a32cd" stroke="#9a32cd" points="1396.21,-508.586 1386.11,-511.772 1396,-515.583 1396.21,-508.586"/>
<text text-anchor="middle" x="1658" y="-517.471" font-family="FreeSans" font-size="10.00"> myPolygonalFaces</text>
</g>
<!-- Node19&#45;&gt;Node6 -->
<g id="edge30" class="edge"><title>Node19&#45;&gt;Node6</title>
<path fill="none" stroke="#9a32cd" stroke-dasharray="5,2" d="M1744.08,-147.131C1788.21,-159.237 1841.26,-178.637 1882,-208.471 1924.15,-239.332 1956.39,-293.847 1970.38,-320.269"/>
<polygon fill="#9a32cd" stroke="#9a32cd" points="1744.79,-143.699 1734.23,-144.508 1742.99,-150.463 1744.79,-143.699"/>
<text text-anchor="middle" x="1827.5" y="-211.471" font-family="FreeSans" font-size="10.00"> myLinel2Arc</text>
</g>
<!-- Node20&#45;&gt;Node6 -->
<g id="edge33" class="edge"><title>Node20&#45;&gt;Node6</title>
<path fill="none" stroke="#9a32cd" stroke-dasharray="5,2" d="M1724.59,-206.478C1770.09,-220.214 1831.39,-241.224 1882,-267.471 1911.01,-282.514 1941.26,-305.316 1959.86,-320.302"/>
<polygon fill="#9a32cd" stroke="#9a32cd" points="1725.42,-203.073 1714.83,-203.572 1723.42,-209.782 1725.42,-203.073"/>
<text text-anchor="middle" x="1827.5" y="-270.471" font-family="FreeSans" font-size="10.00"> myPointel2FaceIndex</text>
</g>
<!-- Node21 -->
<g id="node21" class="node"><title>Node21</title>
<g id="a_node21"><a xlink:href="classDGtal_1_1HalfEdgeDataStructure.html" target="_top" xlink:title="Aim: This class represents an half&#45;edge data structure, which is a structure for representing the top...">
<polygon fill="white" stroke="black" points="1577.5,-323.971 1577.5,-342.971 1738.5,-342.971 1738.5,-323.971 1577.5,-323.971"/>
<text text-anchor="middle" x="1658" y="-330.971" font-family="FreeSans" font-size="10.00">DGtal::HalfEdgeDataStructure</text>
</a>
</g>
</g>
<!-- Node21&#45;&gt;Node6 -->
<g id="edge36" class="edge"><title>Node21&#45;&gt;Node6</title>
<path fill="none" stroke="#9a32cd" stroke-dasharray="5,2" d="M1748.96,-334.035C1796.49,-334.333 1854.26,-334.695 1899.89,-334.981"/>
<polygon fill="#9a32cd" stroke="#9a32cd" points="1748.7,-330.533 1738.67,-333.97 1748.65,-337.533 1748.7,-330.533"/>
<text text-anchor="middle" x="1827.5" y="-338.471" font-family="FreeSans" font-size="10.00"> myHEDS</text>
</g>
<!-- Node22&#45;&gt;Node21 -->
<g id="edge37" class="edge"><title>Node22&#45;&gt;Node21</title>
<path fill="none" stroke="#9a32cd" stroke-dasharray="5,2" d="M1352.65,-249.753C1423.15,-269.145 1558.75,-306.444 1622.4,-323.954"/>
<polygon fill="#9a32cd" stroke="#9a32cd" points="1353.31,-246.304 1342.74,-247.027 1351.45,-253.054 1353.31,-246.304"/>
<text text-anchor="middle" x="1473.5" y="-303.471" font-family="FreeSans" font-size="10.00"> myArc2Index</text>
</g>
<!-- Node23&#45;&gt;Node21 -->
<g id="edge39" class="edge"><title>Node23&#45;&gt;Node21</title>
<path fill="none" stroke="#9a32cd" stroke-dasharray="5,2" d="M1384.47,-332.602C1391.08,-332.549 1397.66,-332.504 1404,-332.471 1465.78,-332.149 1481.22,-332.2 1543,-332.471 1554.08,-332.519 1565.77,-332.595 1577.27,-332.682"/>
<polygon fill="#9a32cd" stroke="#9a32cd" points="1384.07,-329.106 1374.1,-332.692 1384.13,-336.105 1384.07,-329.106"/>
<text text-anchor="middle" x="1473.5" y="-335.471" font-family="FreeSans" font-size="10.00"> myHalfEdges</text>
</g>
<!-- Node24 -->
<g id="node24" class="node"><title>Node24</title>
<g id="a_node24"><a xlink:href="structDGtal_1_1HalfEdgeDataStructure_1_1HalfEdge.html" target="_top" xlink:title="DGtal::HalfEdgeDataStructure\l::HalfEdge">
<polygon fill="white" stroke="black" points="866,-242.471 866,-272.471 1027,-272.471 1027,-242.471 866,-242.471"/>
<text text-anchor="start" x="874" y="-260.471" font-family="FreeSans" font-size="10.00">DGtal::HalfEdgeDataStructure</text>
<text text-anchor="middle" x="946.5" y="-249.471" font-family="FreeSans" font-size="10.00">::HalfEdge</text>
</a>
</g>
</g>
<!-- Node24&#45;&gt;Node23 -->
<g id="edge40" class="edge"><title>Node24&#45;&gt;Node23</title>
<path fill="none" stroke="#9a32cd" stroke-dasharray="5,2" d="M1037.38,-253.47C1089.62,-254.252 1155.65,-260.701 1210,-283.471 1219.6,-287.495 1219.17,-292.955 1228,-298.471 1236.31,-303.66 1245.52,-308.5 1254.61,-312.825"/>
<polygon fill="#9a32cd" stroke="#9a32cd" points="1037.15,-249.968 1027.12,-253.386 1037.1,-256.968 1037.15,-249.968"/>
<text text-anchor="middle" x="1130.5" y="-286.471" font-family="FreeSans" font-size="10.00"> elements</text>
</g>
<!-- Node25&#45;&gt;Node21 -->
<g id="edge42" class="edge"><title>Node25&#45;&gt;Node21</title>
<path fill="none" stroke="#9a32cd" stroke-dasharray="5,2" d="M1373.21,-371.283C1383.5,-369.609 1394.03,-367.951 1404,-366.471 1462.38,-357.801 1528.53,-349.216 1578.55,-342.976"/>
<polygon fill="#9a32cd" stroke="#9a32cd" points="1372.33,-367.881 1363.03,-372.955 1373.46,-374.788 1372.33,-367.881"/>
<text text-anchor="middle" x="1473.5" y="-391.471" font-family="FreeSans" font-size="10.00"> myVertexHalfEdges</text>
<text text-anchor="middle" x="1473.5" y="-380.471" font-family="FreeSans" font-size="10.00">myFaceHalfEdges</text>
<text text-anchor="middle" x="1473.5" y="-369.471" font-family="FreeSans" font-size="10.00">myEdgeHalfEdges</text>
</g>
<!-- Node26 -->
<g id="node26" class="node"><title>Node26</title>
<g id="a_node26"><a xlink:href="classDGtal_1_1CountedConstPtrOrConstPtr.html" target="_top" xlink:title="DGtal::CountedConstPtrOr\lConstPtr\&lt; DigitalSurfaceContainer \&gt;">
<polygon fill="white" stroke="black" points="1561,-443.471 1561,-473.471 1755,-473.471 1755,-443.471 1561,-443.471"/>
<text text-anchor="start" x="1569" y="-461.471" font-family="FreeSans" font-size="10.00">DGtal::CountedConstPtrOr</text>
<text text-anchor="middle" x="1658" y="-450.471" font-family="FreeSans" font-size="10.00">ConstPtr&lt; DigitalSurfaceContainer &gt;</text>
</a>
</g>
</g>
<!-- Node26&#45;&gt;Node6 -->
<g id="edge44" class="edge"><title>Node26&#45;&gt;Node6</title>
<path fill="none" stroke="#9a32cd" stroke-dasharray="5,2" d="M1765.17,-457.172C1803.52,-453.288 1846.16,-444.835 1882,-427.471 1919.19,-409.456 1951.31,-371.654 1967.26,-350.544"/>
<polygon fill="#9a32cd" stroke="#9a32cd" points="1764.64,-453.706 1755,-458.107 1765.28,-460.676 1764.64,-453.706"/>
<text text-anchor="middle" x="1827.5" y="-459.471" font-family="FreeSans" font-size="10.00"> myContainer</text>
</g>
<!-- Node27 -->
<g id="node27" class="node"><title>Node27</title>
<g id="a_node27"><a xlink:href="classDGtal_1_1CountedConstPtrOrConstPtr.html" target="_top" xlink:title="Aim: Smart or simple const pointer on T. It can be a smart pointer based on reference counts or a sim...">
<polygon fill="white" stroke="black" points="1235.5,-449.471 1235.5,-479.471 1378.5,-479.471 1378.5,-449.471 1235.5,-449.471"/>
<text text-anchor="start" x="1243.5" y="-467.471" font-family="FreeSans" font-size="10.00">DGtal::CountedConstPtrOr</text>
<text text-anchor="middle" x="1307" y="-456.471" font-family="FreeSans" font-size="10.00">ConstPtr&lt; T &gt;</text>
</a>
</g>
</g>
<!-- Node27&#45;&gt;Node26 -->
<g id="edge45" class="edge"><title>Node27&#45;&gt;Node26</title>
<path fill="none" stroke="orange" stroke-dasharray="5,2" d="M1388.67,-463.084C1439.96,-462.202 1506.63,-461.056 1560.69,-460.127"/>
<polygon fill="orange" stroke="orange" points="1388.56,-459.585 1378.63,-463.257 1388.68,-466.584 1388.56,-459.585"/>
<text text-anchor="middle" x="1473.5" y="-466.471" font-family="FreeSans" font-size="10.00"> &lt; DigitalSurfaceContainer &gt;</text>
</g>
</g>
</svg>
        <g id="navigator" transform="translate(0 0)" fill="#404254">
                <rect fill="#f2f5e9" fill-opacity="0.5" stroke="#606060" stroke-width=".5" x="0" y="0" width="60" height="60"/>
                <use id="zoomplus" xlink:href="#zoomPlus" x="17" y="9" onmousedown="handleZoom(evt,'in')"/>
                <use id="zoomminus" xlink:href="#zoomMin" x="42" y="9" onmousedown="handleZoom(evt,'out')"/>
                <use id="reset" xlink:href="#resetDef" x="30" y="36" onmousedown="handleReset()"/>
                <g id="arrowUp" xlink:href="#dirArrow" transform="translate(30 24)" onmousedown="handlePan(0,-1)">
                  <use xlink:href="#rim" fill="#404040">
                        <set attributeName="fill" to="#808080" begin="arrowUp.mouseover" end="arrowUp.mouseout"/>
                  </use>
                  <path fill="none" stroke="white" stroke-width="1.5" d="M0,-3.0v7 M-2.5,-0.5L0,-3.0L2.5,-0.5"/>
                </g>
                <g id="arrowRight" xlink:href="#dirArrow" transform="rotate(90) translate(36 -43)" onmousedown="handlePan(1,0)">
                  <use xlink:href="#rim" fill="#404040">
                        <set attributeName="fill" to="#808080" begin="arrowRight.mouseover" end="arrowRight.mouseout"/>
                  </use>
                  <path fill="none" stroke="white" stroke-width="1.5" d="M0,-3.0v7 M-2.5,-0.5L0,-3.0L2.5,-0.5"/>
                </g>
                <g id="arrowDown" xlink:href="#dirArrow" transform="rotate(180) translate(-30 -48)" onmousedown="handlePan(0,1)">
                  <use xlink:href="#rim" fill="#404040">
                        <set attributeName="fill" to="#808080" begin="arrowDown.mouseover" end="arrowDown.mouseout"/>
                  </use>
                  <path fill="none" stroke="white" stroke-width="1.5" d="M0,-3.0v7 M-2.5,-0.5L0,-3.0L2.5,-0.5"/>
                </g>
                <g id="arrowLeft" xlink:href="#dirArrow" transform="rotate(270) translate(-36 17)" onmousedown="handlePan(-1,0)">
                  <use xlink:href="#rim" fill="#404040">
                        <set attributeName="fill" to="#808080" begin="arrowLeft.mouseover" end="arrowLeft.mouseout"/>
                  </use>
                  <path fill="none" stroke="white" stroke-width="1.5" d="M0,-3.0v7 M-2.5,-0.5L0,-3.0L2.5,-0.5"/>
                </g>
        </g>
        <svg viewBox="0 0 15 15" width="100%" height="30px" preserveAspectRatio="xMaxYMin meet">
         <g id="arrow_out" transform="scale(0.3 0.3)">
          <a xlink:href="structDGtal_1_1IndexedDigitalSurface_1_1IndexedPropertyMap__coll__graph_org.svg" target="_base">
           <rect id="button" ry="5" rx="5" y="6" x="6" height="38" width="38"
                fill="#f2f5e9" fill-opacity="0.5" stroke="#606060" stroke-width="1.0"/>
           <path id="arrow"
             d="M 11.500037,31.436501 C 11.940474,20.09759 22.043105,11.32322 32.158766,21.979434 L 37.068811,17.246167 C 37.068811,17.246167 37.088388,32 37.088388,32 L 22.160133,31.978069 C 22.160133,31.978069 26.997745,27.140456 26.997745,27.140456 C 18.528582,18.264221 13.291696,25.230495 11.500037,31.436501 z"
             style="fill:#404040;"/>
          </a>
         </g>
        </svg>
</svg>
