<?xml version="1.0" encoding="UTF-8" standalone="no"?>
<!DOCTYPE svg PUBLIC "-//W3C//DTD SVG 1.1//EN"
 "http://www.w3.org/Graphics/SVG/1.1/DTD/svg11.dtd">
<!-- Generated by graphviz version 2.38.0 (20140413.2041)
 -->
<!-- Title: DGtal::functors::PositionFunctorFrom2DPoint&lt; Vector, TPosition &gt; Pages: 1 -->
<svg width="166pt" height="306pt"
 viewBox="0.00 0.00 166.00 306.00" xmlns="http://www.w3.org/2000/svg" xmlns:xlink="http://www.w3.org/1999/xlink">
<g id="graph0" class="graph" transform="scale(1 1) rotate(0) translate(4 302)">
<title>DGtal::functors::PositionFunctorFrom2DPoint&lt; Vector, TPosition &gt;</title>
<polygon fill="white" stroke="none" points="-4,4 -4,-302 162,-302 162,4 -4,4"/>
<!-- Node1 -->
<g id="node1" class="node"><title>Node1</title>
<polygon fill="#bfbfbf" stroke="black" points="-1.42109e-14,-0.5 -1.42109e-14,-41.5 158,-41.5 158,-0.5 -1.42109e-14,-0.5"/>
<text text-anchor="start" x="8" y="-29.5" font-family="FreeSans" font-size="10.00">DGtal::functors::Position</text>
<text text-anchor="start" x="8" y="-18.5" font-family="FreeSans" font-size="10.00">FunctorFrom2DPoint&lt; Vector,</text>
<text text-anchor="middle" x="79" y="-7.5" font-family="FreeSans" font-size="10.00"> TPosition &gt;</text>
</g>
<!-- Node2 -->
<g id="node2" class="node"><title>Node2</title>
<g id="a_node2"><a xlink:href="classDGtal_1_1FreemanChain.html" target="_top" xlink:title="DGtal::FreemanChain\l\&lt; int \&gt;">
<polygon fill="white" stroke="black" points="19.5,-89.5 19.5,-119.5 138.5,-119.5 138.5,-89.5 19.5,-89.5"/>
<text text-anchor="start" x="27.5" y="-107.5" font-family="FreeSans" font-size="10.00">DGtal::FreemanChain</text>
<text text-anchor="middle" x="79" y="-96.5" font-family="FreeSans" font-size="10.00">&lt; int &gt;</text>
</a>
</g>
</g>
<!-- Node2&#45;&gt;Node1 -->
<g id="edge1" class="edge"><title>Node2&#45;&gt;Node1</title>
<path fill="none" stroke="#9a32cd" stroke-dasharray="5,2" d="M79,-79.0662C79,-67.0614 79,-52.7937 79,-41.5278"/>
<polygon fill="#9a32cd" stroke="#9a32cd" points="75.5001,-79.3037 79,-89.3038 82.5001,-79.3038 75.5001,-79.3037"/>
<text text-anchor="middle" x="99" y="-63" font-family="FreeSans" font-size="10.00"> myShift</text>
</g>
<!-- Node3 -->
<g id="node3" class="node"><title>Node3</title>
<g id="a_node3"><a xlink:href="classDGtal_1_1FreemanChain.html" target="_top" xlink:title="DGtal::FreemanChain\l\&lt; TInteger \&gt;">
<polygon fill="white" stroke="black" points="19.5,-167.5 19.5,-197.5 138.5,-197.5 138.5,-167.5 19.5,-167.5"/>
<text text-anchor="start" x="27.5" y="-185.5" font-family="FreeSans" font-size="10.00">DGtal::FreemanChain</text>
<text text-anchor="middle" x="79" y="-174.5" font-family="FreeSans" font-size="10.00">&lt; TInteger &gt;</text>
</a>
</g>
</g>
<!-- Node3&#45;&gt;Node2 -->
<g id="edge2" class="edge"><title>Node3&#45;&gt;Node2</title>
<path fill="none" stroke="orange" stroke-dasharray="5,2" d="M79,-157.09C79,-144.757 79,-130.224 79,-119.731"/>
<polygon fill="orange" stroke="orange" points="75.5001,-157.205 79,-167.205 82.5001,-157.205 75.5001,-157.205"/>
<text text-anchor="middle" x="98" y="-141" font-family="FreeSans" font-size="10.00"> &lt; int &gt;</text>
</g>
<!-- Node4 -->
<g id="node4" class="node"><title>Node4</title>
<polygon fill="white" stroke="#bfbfbf" points="51,-278.5 51,-297.5 107,-297.5 107,-278.5 51,-278.5"/>
<text text-anchor="middle" x="79" y="-285.5" font-family="FreeSans" font-size="10.00">TInteger</text>
</g>
<!-- Node4&#45;&gt;Node3 -->
<g id="edge3" class="edge"><title>Node4&#45;&gt;Node3</title>
<path fill="none" stroke="#9a32cd" stroke-dasharray="5,2" d="M79,-267.996C79,-247.736 79,-216.109 79,-197.84"/>
<polygon fill="#9a32cd" stroke="#9a32cd" points="75.5001,-268.176 79,-278.176 82.5001,-268.176 75.5001,-268.176"/>
<text text-anchor="middle" x="86.5" y="-252" font-family="FreeSans" font-size="10.00"> yn</text>
<text text-anchor="middle" x="86.5" y="-241" font-family="FreeSans" font-size="10.00">xn</text>
<text text-anchor="middle" x="86.5" y="-230" font-family="FreeSans" font-size="10.00">y0</text>
<text text-anchor="middle" x="86.5" y="-219" font-family="FreeSans" font-size="10.00">x0</text>
</g>
</g>
</svg>
