<?xml version="1.0" encoding="UTF-8" standalone="no"?>
<!DOCTYPE svg PUBLIC "-//W3C//DTD SVG 1.1//EN"
 "http://www.w3.org/Graphics/SVG/1.1/DTD/svg11.dtd">
<!-- Generated by graphviz version 2.38.0 (20140413.2041)
 -->
<!-- Title: DGtal::PairAssociativeCategory Pages: 1 -->
<!--zoomable 176 -->
<svg id="main" version="1.1" xmlns="http://www.w3.org/2000/svg" xmlns:xlink="http://www.w3.org/1999/xlink" xml:space="preserve" onload="init(evt)">
<style type="text/css"><![CDATA[
.edge:hover path { stroke: red; }
.edge:hover polygon { stroke: red; fill: red; }
]]></style>
<script type="text/javascript"><![CDATA[
var edges = document.getElementsByTagName('g');
if (edges && edges.length) {
  for (var i=0;i<edges.length;i++) {
    if (edges[i].id.substr(0,4)=='edge') {
      edges[i].setAttribute('class','edge');
    }
  }
}
]]></script>
        <defs>
                <circle id="rim" cx="0" cy="0" r="7"/>
                <circle id="rim2" cx="0" cy="0" r="3.5"/>
                <g id="zoomPlus">
                        <use xlink:href="#rim" fill="#404040">
                                <set attributeName="fill" to="#808080" begin="zoomplus.mouseover" end="zoomplus.mouseout"/>
                        </use>
                        <path d="M-4,0h8M0,-4v8" fill="none" stroke="white" stroke-width="1.5" pointer-events="none"/>
                </g>
                <g id="zoomMin">
                        <use xlink:href="#rim" fill="#404040">
                                <set attributeName="fill" to="#808080" begin="zoomminus.mouseover" end="zoomminus.mouseout"/>
                        </use>
                        <path d="M-4,0h8" fill="none" stroke="white" stroke-width="1.5" pointer-events="none"/>
                </g>
                <g id="dirArrow">
                        <path fill="none" stroke="white" stroke-width="1.5" d="M0,-3.0v7 M-2.5,-0.5L0,-3.0L2.5,-0.5"/>
                </g>
               <g id="resetDef">
                       <use xlink:href="#rim2" fill="#404040">
                               <set attributeName="fill" to="#808080" begin="reset.mouseover" end="reset.mouseout"/>
                       </use>
               </g>
        </defs>

<script type="text/javascript">
var viewWidth = 742;
var viewHeight = 176;
var sectionId = 'dynsection-0';
</script>
<script xlink:href="svgpan.js"/>
<svg id="graph" class="graph">
<g id="viewport">
<title>DGtal::PairAssociativeCategory</title>
<polygon fill="white" stroke="none" points="-4,4 -4,-171.5 738,-171.5 738,4 -4,4"/>
<!-- Node0 -->
<g id="node1" class="node"><title>Node0</title>
<polygon fill="#bfbfbf" stroke="black" points="359,-79 359,-98 523,-98 523,-79 359,-79"/>
<text text-anchor="middle" x="441" y="-86" font-family="FreeSans" font-size="10.00">DGtal::PairAssociativeCategory</text>
</g>
<!-- Node3 -->
<g id="node4" class="node"><title>Node3</title>
<g id="a_node4"><a xlink:href="structDGtal_1_1MapAssociativeCategory.html" target="_top" xlink:title="DGtal::MapAssociativeCategory">
<polygon fill="white" stroke="black" points="563,-148 563,-167 730,-167 730,-148 563,-148"/>
<text text-anchor="middle" x="646.5" y="-155" font-family="FreeSans" font-size="10.00">DGtal::MapAssociativeCategory</text>
</a>
</g>
</g>
<!-- Node0&#45;&gt;Node3 -->
<g id="edge3" class="edge"><title>Node0&#45;&gt;Node3</title>
<path fill="none" stroke="midnightblue" d="M470.752,-102.586C494.089,-113.577 528.077,-128.593 559,-138.5 570.275,-142.112 582.592,-145.27 594.306,-147.921"/>
<polygon fill="midnightblue" stroke="midnightblue" points="471.976,-99.2924 461.443,-98.1491 468.964,-105.611 471.976,-99.2924"/>
</g>
<!-- Node4 -->
<g id="node5" class="node"><title>Node4</title>
<g id="a_node5"><a xlink:href="structDGtal_1_1MultimapAssociativeCategory.html" target="_top" xlink:title="DGtal::MultimapAssociative\lCategory">
<polygon fill="white" stroke="black" points="572.5,-98.5 572.5,-128.5 720.5,-128.5 720.5,-98.5 572.5,-98.5"/>
<text text-anchor="start" x="580.5" y="-116.5" font-family="FreeSans" font-size="10.00">DGtal::MultimapAssociative</text>
<text text-anchor="middle" x="646.5" y="-105.5" font-family="FreeSans" font-size="10.00">Category</text>
</a>
</g>
</g>
<!-- Node0&#45;&gt;Node4 -->
<g id="edge4" class="edge"><title>Node0&#45;&gt;Node4</title>
<path fill="none" stroke="midnightblue" d="M529.748,-99.2798C543.913,-101.02 558.446,-102.805 572.223,-104.498"/>
<polygon fill="midnightblue" stroke="midnightblue" points="529.867,-95.7683 519.515,-98.0227 529.014,-102.716 529.867,-95.7683"/>
</g>
<!-- Node5 -->
<g id="node6" class="node"><title>Node5</title>
<g id="a_node6"><a xlink:href="structDGtal_1_1UnorderedMapAssociativeCategory.html" target="_top" xlink:title="DGtal::UnorderedMapAssociative\lCategory">
<polygon fill="white" stroke="black" points="559,-49.5 559,-79.5 734,-79.5 734,-49.5 559,-49.5"/>
<text text-anchor="start" x="567" y="-67.5" font-family="FreeSans" font-size="10.00">DGtal::UnorderedMapAssociative</text>
<text text-anchor="middle" x="646.5" y="-56.5" font-family="FreeSans" font-size="10.00">Category</text>
</a>
</g>
</g>
<!-- Node0&#45;&gt;Node5 -->
<g id="edge5" class="edge"><title>Node0&#45;&gt;Node5</title>
<path fill="none" stroke="midnightblue" d="M532.819,-77.7892C541.476,-76.7682 550.239,-75.7347 558.855,-74.7186"/>
<polygon fill="midnightblue" stroke="midnightblue" points="532.242,-74.3329 522.721,-78.9801 533.062,-81.2847 532.242,-74.3329"/>
</g>
<!-- Node6 -->
<g id="node7" class="node"><title>Node6</title>
<g id="a_node7"><a xlink:href="structDGtal_1_1UnorderedMultimapAssociativeCategory.html" target="_top" xlink:title="DGtal::UnorderedMultimap\lAssociativeCategory">
<polygon fill="white" stroke="black" points="574,-0.5 574,-30.5 719,-30.5 719,-0.5 574,-0.5"/>
<text text-anchor="start" x="582" y="-18.5" font-family="FreeSans" font-size="10.00">DGtal::UnorderedMultimap</text>
<text text-anchor="middle" x="646.5" y="-7.5" font-family="FreeSans" font-size="10.00">AssociativeCategory</text>
</a>
</g>
</g>
<!-- Node0&#45;&gt;Node6 -->
<g id="edge6" class="edge"><title>Node0&#45;&gt;Node6</title>
<path fill="none" stroke="midnightblue" d="M472.201,-74.6144C495.59,-64.1646 528.959,-49.9118 559,-39.5 568.13,-36.3358 577.911,-33.2965 587.492,-30.5073"/>
<polygon fill="midnightblue" stroke="midnightblue" points="470.506,-71.5389 462.827,-78.8378 473.382,-77.9211 470.506,-71.5389"/>
</g>
<!-- Node1 -->
<g id="node2" class="node"><title>Node1</title>
<g id="a_node2"><a xlink:href="structDGtal_1_1AssociativeCategory.html" target="_top" xlink:title="DGtal::AssociativeCategory">
<polygon fill="white" stroke="black" points="176,-79 176,-98 323,-98 323,-79 176,-79"/>
<text text-anchor="middle" x="249.5" y="-86" font-family="FreeSans" font-size="10.00">DGtal::AssociativeCategory</text>
</a>
</g>
</g>
<!-- Node1&#45;&gt;Node0 -->
<g id="edge1" class="edge"><title>Node1&#45;&gt;Node0</title>
<path fill="none" stroke="midnightblue" d="M333.461,-88.5C341.921,-88.5 350.509,-88.5 358.948,-88.5"/>
<polygon fill="midnightblue" stroke="midnightblue" points="333.224,-85.0001 323.224,-88.5 333.224,-92.0001 333.224,-85.0001"/>
</g>
<!-- Node2 -->
<g id="node3" class="node"><title>Node2</title>
<g id="a_node3"><a xlink:href="structDGtal_1_1ContainerCategory.html" target="_top" xlink:title="DGtal::ContainerCategory">
<polygon fill="white" stroke="black" points="0,-79 0,-98 140,-98 140,-79 0,-79"/>
<text text-anchor="middle" x="70" y="-86" font-family="FreeSans" font-size="10.00">DGtal::ContainerCategory</text>
</a>
</g>
</g>
<!-- Node2&#45;&gt;Node1 -->
<g id="edge2" class="edge"><title>Node2&#45;&gt;Node1</title>
<path fill="none" stroke="midnightblue" d="M150.363,-88.5C158.812,-88.5 167.376,-88.5 175.744,-88.5"/>
<polygon fill="midnightblue" stroke="midnightblue" points="150.134,-85.0001 140.134,-88.5 150.134,-92.0001 150.134,-85.0001"/>
</g>
</g>
</svg>
        <g id="navigator" transform="translate(0 0)" fill="#404254">
                <rect fill="#f2f5e9" fill-opacity="0.5" stroke="#606060" stroke-width=".5" x="0" y="0" width="60" height="60"/>
                <use id="zoomplus" xlink:href="#zoomPlus" x="17" y="9" onmousedown="handleZoom(evt,'in')"/>
                <use id="zoomminus" xlink:href="#zoomMin" x="42" y="9" onmousedown="handleZoom(evt,'out')"/>
                <use id="reset" xlink:href="#resetDef" x="30" y="36" onmousedown="handleReset()"/>
                <g id="arrowUp" xlink:href="#dirArrow" transform="translate(30 24)" onmousedown="handlePan(0,-1)">
                  <use xlink:href="#rim" fill="#404040">
                        <set attributeName="fill" to="#808080" begin="arrowUp.mouseover" end="arrowUp.mouseout"/>
                  </use>
                  <path fill="none" stroke="white" stroke-width="1.5" d="M0,-3.0v7 M-2.5,-0.5L0,-3.0L2.5,-0.5"/>
                </g>
                <g id="arrowRight" xlink:href="#dirArrow" transform="rotate(90) translate(36 -43)" onmousedown="handlePan(1,0)">
                  <use xlink:href="#rim" fill="#404040">
                        <set attributeName="fill" to="#808080" begin="arrowRight.mouseover" end="arrowRight.mouseout"/>
                  </use>
                  <path fill="none" stroke="white" stroke-width="1.5" d="M0,-3.0v7 M-2.5,-0.5L0,-3.0L2.5,-0.5"/>
                </g>
                <g id="arrowDown" xlink:href="#dirArrow" transform="rotate(180) translate(-30 -48)" onmousedown="handlePan(0,1)">
                  <use xlink:href="#rim" fill="#404040">
                        <set attributeName="fill" to="#808080" begin="arrowDown.mouseover" end="arrowDown.mouseout"/>
                  </use>
                  <path fill="none" stroke="white" stroke-width="1.5" d="M0,-3.0v7 M-2.5,-0.5L0,-3.0L2.5,-0.5"/>
                </g>
                <g id="arrowLeft" xlink:href="#dirArrow" transform="rotate(270) translate(-36 17)" onmousedown="handlePan(-1,0)">
                  <use xlink:href="#rim" fill="#404040">
                        <set attributeName="fill" to="#808080" begin="arrowLeft.mouseover" end="arrowLeft.mouseout"/>
                  </use>
                  <path fill="none" stroke="white" stroke-width="1.5" d="M0,-3.0v7 M-2.5,-0.5L0,-3.0L2.5,-0.5"/>
                </g>
        </g>
        <svg viewBox="0 0 15 15" width="100%" height="30px" preserveAspectRatio="xMaxYMin meet">
         <g id="arrow_out" transform="scale(0.3 0.3)">
          <a xlink:href="structDGtal_1_1PairAssociativeCategory__inherit__graph_org.svg" target="_base">
           <rect id="button" ry="5" rx="5" y="6" x="6" height="38" width="38"
                fill="#f2f5e9" fill-opacity="0.5" stroke="#606060" stroke-width="1.0"/>
           <path id="arrow"
             d="M 11.500037,31.436501 C 11.940474,20.09759 22.043105,11.32322 32.158766,21.979434 L 37.068811,17.246167 C 37.068811,17.246167 37.088388,32 37.088388,32 L 22.160133,31.978069 C 22.160133,31.978069 26.997745,27.140456 26.997745,27.140456 C 18.528582,18.264221 13.291696,25.230495 11.500037,31.436501 z"
             style="fill:#404040;"/>
          </a>
         </g>
        </svg>
</svg>
