<?xml version="1.0" encoding="UTF-8" standalone="no"?>
<!DOCTYPE svg PUBLIC "-//W3C//DTD SVG 1.1//EN"
 "http://www.w3.org/Graphics/SVG/1.1/DTD/svg11.dtd">
<!-- Generated by graphviz version 2.38.0 (20140413.2041)
 -->
<!-- Title: DGtal::concepts::CImplicitFunctionDiff1&lt; T &gt; Pages: 1 -->
<svg width="199pt" height="117pt"
 viewBox="0.00 0.00 199.00 117.00" xmlns="http://www.w3.org/2000/svg" xmlns:xlink="http://www.w3.org/1999/xlink">
<g id="graph0" class="graph" transform="scale(1 1) rotate(0) translate(4 113)">
<title>DGtal::concepts::CImplicitFunctionDiff1&lt; T &gt;</title>
<polygon fill="white" stroke="none" points="-4,4 -4,-113 195,-113 195,4 -4,4"/>
<!-- Node2 -->
<g id="node1" class="node"><title>Node2</title>
<polygon fill="#bfbfbf" stroke="black" points="51,-0.5 51,-30.5 191,-30.5 191,-0.5 51,-0.5"/>
<text text-anchor="start" x="59" y="-18.5" font-family="FreeSans" font-size="10.00">DGtal::concepts::CImplicit</text>
<text text-anchor="middle" x="121" y="-7.5" font-family="FreeSans" font-size="10.00">FunctionDiff1&lt; T &gt;</text>
</g>
<!-- Node3 -->
<g id="node2" class="node"><title>Node3</title>
<g id="a_node2"><a xlink:href="structDGtal_1_1concepts_1_1CImplicitFunction.html" target="_top" xlink:title="Aim: Describes any function of the form f(x), where x is some real point in the given space...">
<polygon fill="white" stroke="black" points="0,-78.5 0,-108.5 140,-108.5 140,-78.5 0,-78.5"/>
<text text-anchor="start" x="8" y="-96.5" font-family="FreeSans" font-size="10.00">DGtal::concepts::CImplicit</text>
<text text-anchor="middle" x="70" y="-85.5" font-family="FreeSans" font-size="10.00">Function&lt; T &gt;</text>
</a>
</g>
</g>
<!-- Node3&#45;&gt;Node2 -->
<g id="edge1" class="edge"><title>Node3&#45;&gt;Node2</title>
<path fill="none" stroke="midnightblue" d="M85.3849,-69.5735C93.8643,-56.9375 104.125,-41.6476 111.45,-30.7309"/>
<polygon fill="midnightblue" stroke="midnightblue" points="82.2587,-67.951 79.5927,-78.205 88.0712,-71.8516 82.2587,-67.951"/>
</g>
<!-- Node4 -->
<g id="node3" class="node"><title>Node4</title>
<polygon fill="white" stroke="#bfbfbf" points="158.5,-84 158.5,-103 187.5,-103 187.5,-84 158.5,-84"/>
<text text-anchor="middle" x="173" y="-91" font-family="FreeSans" font-size="10.00">T</text>
</g>
<!-- Node4&#45;&gt;Node2 -->
<g id="edge2" class="edge"><title>Node4&#45;&gt;Node2</title>
<path fill="none" stroke="#9a32cd" stroke-dasharray="5,2" d="M161.276,-75.3655C152.015,-61.8297 139.251,-43.1748 130.593,-30.5198"/>
<polygon fill="#9a32cd" stroke="#9a32cd" points="158.499,-77.5052 167.035,-83.7818 164.277,-73.5523 158.499,-77.5052"/>
<text text-anchor="middle" x="163.5" y="-52" font-family="FreeSans" font-size="10.00"> myX</text>
</g>
</g>
</svg>
