<?xml version="1.0" encoding="UTF-8" standalone="no"?>
<!DOCTYPE svg PUBLIC "-//W3C//DTD SVG 1.1//EN"
 "http://www.w3.org/Graphics/SVG/1.1/DTD/svg11.dtd">
<!-- Generated by graphviz version 2.38.0 (20140413.2041)
 -->
<!-- Title: DGtal::MapAssociativeCategory Pages: 1 -->
<svg width="734pt" height="127pt"
 viewBox="0.00 0.00 734.00 127.00" xmlns="http://www.w3.org/2000/svg" xmlns:xlink="http://www.w3.org/1999/xlink">
<g id="graph0" class="graph" transform="scale(1 1) rotate(0) translate(4 123)">
<title>DGtal::MapAssociativeCategory</title>
<polygon fill="white" stroke="none" points="-4,4 -4,-123 730,-123 730,4 -4,4"/>
<!-- Node6 -->
<g id="node1" class="node"><title>Node6</title>
<polygon fill="#bfbfbf" stroke="black" points="559,-50 559,-69 726,-69 726,-50 559,-50"/>
<text text-anchor="middle" x="642.5" y="-57" font-family="FreeSans" font-size="10.00">DGtal::MapAssociativeCategory</text>
</g>
<!-- Node7 -->
<g id="node2" class="node"><title>Node7</title>
<g id="a_node2"><a xlink:href="structDGtal_1_1OrderedAssociativeCategory.html" target="_top" xlink:title="DGtal::OrderedAssociative\lCategory">
<polygon fill="white" stroke="black" points="369.5,-88.5 369.5,-118.5 512.5,-118.5 512.5,-88.5 369.5,-88.5"/>
<text text-anchor="start" x="377.5" y="-106.5" font-family="FreeSans" font-size="10.00">DGtal::OrderedAssociative</text>
<text text-anchor="middle" x="441" y="-95.5" font-family="FreeSans" font-size="10.00">Category</text>
</a>
</g>
</g>
<!-- Node7&#45;&gt;Node6 -->
<g id="edge1" class="edge"><title>Node7&#45;&gt;Node6</title>
<path fill="none" stroke="midnightblue" d="M520.173,-86.2588C546.778,-80.3911 575.534,-74.049 598.37,-69.0124"/>
<polygon fill="midnightblue" stroke="midnightblue" points="519.11,-82.9091 510.099,-88.4808 520.618,-89.7448 519.11,-82.9091"/>
</g>
<!-- Node8 -->
<g id="node3" class="node"><title>Node8</title>
<g id="a_node3"><a xlink:href="structDGtal_1_1AssociativeCategory.html" target="_top" xlink:title="DGtal::AssociativeCategory">
<polygon fill="white" stroke="black" points="176,-50 176,-69 323,-69 323,-50 176,-50"/>
<text text-anchor="middle" x="249.5" y="-57" font-family="FreeSans" font-size="10.00">DGtal::AssociativeCategory</text>
</a>
</g>
</g>
<!-- Node8&#45;&gt;Node7 -->
<g id="edge2" class="edge"><title>Node8&#45;&gt;Node7</title>
<path fill="none" stroke="midnightblue" d="M301.377,-71.3132C324.047,-76.5769 351.017,-82.8391 375.116,-88.4346"/>
<polygon fill="midnightblue" stroke="midnightblue" points="302.151,-67.8998 291.619,-69.0473 300.568,-74.7185 302.151,-67.8998"/>
</g>
<!-- Node10 -->
<g id="node5" class="node"><title>Node10</title>
<g id="a_node5"><a xlink:href="structDGtal_1_1PairAssociativeCategory.html" target="_top" xlink:title="DGtal::PairAssociativeCategory">
<polygon fill="white" stroke="black" points="359,-50 359,-69 523,-69 523,-50 359,-50"/>
<text text-anchor="middle" x="441" y="-57" font-family="FreeSans" font-size="10.00">DGtal::PairAssociativeCategory</text>
</a>
</g>
</g>
<!-- Node8&#45;&gt;Node10 -->
<g id="edge5" class="edge"><title>Node8&#45;&gt;Node10</title>
<path fill="none" stroke="midnightblue" d="M333.461,-59.5C341.921,-59.5 350.509,-59.5 358.948,-59.5"/>
<polygon fill="midnightblue" stroke="midnightblue" points="333.224,-56.0001 323.224,-59.5 333.224,-63.0001 333.224,-56.0001"/>
</g>
<!-- Node11 -->
<g id="node6" class="node"><title>Node11</title>
<g id="a_node6"><a xlink:href="structDGtal_1_1UniqueAssociativeCategory.html" target="_top" xlink:title="DGtal::UniqueAssociative\lCategory">
<polygon fill="white" stroke="black" points="372.5,-0.5 372.5,-30.5 509.5,-30.5 509.5,-0.5 372.5,-0.5"/>
<text text-anchor="start" x="380.5" y="-18.5" font-family="FreeSans" font-size="10.00">DGtal::UniqueAssociative</text>
<text text-anchor="middle" x="441" y="-7.5" font-family="FreeSans" font-size="10.00">Category</text>
</a>
</g>
</g>
<!-- Node8&#45;&gt;Node11 -->
<g id="edge7" class="edge"><title>Node8&#45;&gt;Node11</title>
<path fill="none" stroke="midnightblue" d="M301.377,-47.6868C324.047,-42.4231 351.017,-36.1609 375.116,-30.5654"/>
<polygon fill="midnightblue" stroke="midnightblue" points="300.568,-44.2815 291.619,-49.9527 302.151,-51.1002 300.568,-44.2815"/>
</g>
<!-- Node9 -->
<g id="node4" class="node"><title>Node9</title>
<g id="a_node4"><a xlink:href="structDGtal_1_1ContainerCategory.html" target="_top" xlink:title="DGtal::ContainerCategory">
<polygon fill="white" stroke="black" points="0,-50 0,-69 140,-69 140,-50 0,-50"/>
<text text-anchor="middle" x="70" y="-57" font-family="FreeSans" font-size="10.00">DGtal::ContainerCategory</text>
</a>
</g>
</g>
<!-- Node9&#45;&gt;Node8 -->
<g id="edge3" class="edge"><title>Node9&#45;&gt;Node8</title>
<path fill="none" stroke="midnightblue" d="M150.363,-59.5C158.812,-59.5 167.376,-59.5 175.744,-59.5"/>
<polygon fill="midnightblue" stroke="midnightblue" points="150.134,-56.0001 140.134,-59.5 150.134,-63.0001 150.134,-56.0001"/>
</g>
<!-- Node10&#45;&gt;Node6 -->
<g id="edge4" class="edge"><title>Node10&#45;&gt;Node6</title>
<path fill="none" stroke="midnightblue" d="M533.414,-59.5C541.88,-59.5 550.427,-59.5 558.807,-59.5"/>
<polygon fill="midnightblue" stroke="midnightblue" points="533.144,-56.0001 523.144,-59.5 533.144,-63.0001 533.144,-56.0001"/>
</g>
<!-- Node11&#45;&gt;Node6 -->
<g id="edge6" class="edge"><title>Node11&#45;&gt;Node6</title>
<path fill="none" stroke="midnightblue" d="M519.634,-32.6223C546.295,-38.5024 575.175,-44.872 598.127,-49.934"/>
<polygon fill="midnightblue" stroke="midnightblue" points="520.061,-29.1324 509.542,-30.3964 518.553,-35.9681 520.061,-29.1324"/>
</g>
</g>
</svg>
