<?xml version="1.0" encoding="UTF-8" standalone="no"?>
<!DOCTYPE svg PUBLIC "-//W3C//DTD SVG 1.1//EN"
 "http://www.w3.org/Graphics/SVG/1.1/DTD/svg11.dtd">
<!-- Generated by graphviz version 2.38.0 (20140413.2041)
 -->
<!-- Title: DGtal::DelaunayRationalKernel&lt; dim, TCoordinateInteger, TInternalInteger &gt; Pages: 1 -->
<svg width="243pt" height="229pt"
 viewBox="0.00 0.00 243.00 229.00" xmlns="http://www.w3.org/2000/svg" xmlns:xlink="http://www.w3.org/1999/xlink">
<g id="graph0" class="graph" transform="scale(1 1) rotate(0) translate(4 225)">
<title>DGtal::DelaunayRationalKernel&lt; dim, TCoordinateInteger, TInternalInteger &gt;</title>
<polygon fill="white" stroke="none" points="-4,4 -4,-225 239,-225 239,4 -4,4"/>
<!-- Node0 -->
<g id="node1" class="node"><title>Node0</title>
<polygon fill="#bfbfbf" stroke="black" points="7,-0.5 7,-41.5 169,-41.5 169,-0.5 7,-0.5"/>
<text text-anchor="start" x="15" y="-29.5" font-family="FreeSans" font-size="10.00">DGtal::DelaunayRationalKernel</text>
<text text-anchor="start" x="15" y="-18.5" font-family="FreeSans" font-size="10.00">&lt; dim, TCoordinateInteger,</text>
<text text-anchor="middle" x="88" y="-7.5" font-family="FreeSans" font-size="10.00"> TInternalInteger &gt;</text>
</g>
<!-- Node1 -->
<g id="node2" class="node"><title>Node1</title>
<g id="a_node2"><a xlink:href="structDGtal_1_1ConvexHullCommonKernel.html" target="_top" xlink:title="DGtal::ConvexHullCommonKernel\l\&lt; dim+1, TCoordinateInteger,\l TInternalInteger \&gt;">
<polygon fill="white" stroke="black" points="-1.42109e-14,-79.5 -1.42109e-14,-120.5 176,-120.5 176,-79.5 -1.42109e-14,-79.5"/>
<text text-anchor="start" x="8" y="-108.5" font-family="FreeSans" font-size="10.00">DGtal::ConvexHullCommonKernel</text>
<text text-anchor="start" x="8" y="-97.5" font-family="FreeSans" font-size="10.00">&lt; dim+1, TCoordinateInteger,</text>
<text text-anchor="middle" x="88" y="-86.5" font-family="FreeSans" font-size="10.00"> TInternalInteger &gt;</text>
</a>
</g>
</g>
<!-- Node1&#45;&gt;Node0 -->
<g id="edge1" class="edge"><title>Node1&#45;&gt;Node0</title>
<path fill="none" stroke="midnightblue" d="M88,-68.9057C88,-59.7917 88,-50.017 88,-41.7622"/>
<polygon fill="midnightblue" stroke="midnightblue" points="84.5001,-69.1706 88,-79.1706 91.5001,-69.1706 84.5001,-69.1706"/>
</g>
<!-- Node2 -->
<g id="node3" class="node"><title>Node2</title>
<g id="a_node3"><a xlink:href="structDGtal_1_1ConvexHullCommonKernel.html" target="_top" xlink:title="Aim: the common part of all geometric kernels for computing the convex hull or Delaunay triangulation...">
<polygon fill="white" stroke="black" points="-1.42109e-14,-179.5 -1.42109e-14,-220.5 176,-220.5 176,-179.5 -1.42109e-14,-179.5"/>
<text text-anchor="start" x="8" y="-208.5" font-family="FreeSans" font-size="10.00">DGtal::ConvexHullCommonKernel</text>
<text text-anchor="start" x="8" y="-197.5" font-family="FreeSans" font-size="10.00">&lt; dim, TCoordinateInteger,</text>
<text text-anchor="middle" x="88" y="-186.5" font-family="FreeSans" font-size="10.00"> TInternalInteger &gt;</text>
</a>
</g>
</g>
<!-- Node2&#45;&gt;Node1 -->
<g id="edge2" class="edge"><title>Node2&#45;&gt;Node1</title>
<path fill="none" stroke="orange" stroke-dasharray="5,2" d="M88,-168.925C88,-153.286 88,-134.61 88,-120.802"/>
<polygon fill="orange" stroke="orange" points="84.5001,-169.168 88,-179.168 91.5001,-169.168 84.5001,-169.168"/>
<text text-anchor="start" x="88" y="-153" font-family="FreeSans" font-size="10.00"> &lt; dim+1, TCoordinateInteger,</text>
<text text-anchor="middle" x="161.5" y="-142" font-family="FreeSans" font-size="10.00"> TInternalInteger &gt;</text>
</g>
</g>
</svg>
