<?xml version="1.0" encoding="UTF-8" standalone="no"?>
<!DOCTYPE svg PUBLIC "-//W3C//DTD SVG 1.1//EN"
 "http://www.w3.org/Graphics/SVG/1.1/DTD/svg11.dtd">
<!-- Generated by graphviz version 2.36.0 (20140111.2315)
 -->
<!-- Title: DGtal::functors::ShapeGeometricFunctors::ShapeSecondPrincipalDirectionFunctor&lt; TShape &gt; Pages: 1 -->
<svg width="218pt" height="210pt"
 viewBox="0.00 0.00 218.00 210.00" xmlns="http://www.w3.org/2000/svg" xmlns:xlink="http://www.w3.org/1999/xlink">
<g id="graph0" class="graph" transform="scale(1 1) rotate(0) translate(4 206)">
<title>DGtal::functors::ShapeGeometricFunctors::ShapeSecondPrincipalDirectionFunctor&lt; TShape &gt;</title>
<polygon fill="white" stroke="none" points="-4,4 -4,-206 214,-206 214,4 -4,4"/>
<!-- Node1 -->
<g id="node1" class="node"><title>Node1</title>
<polygon fill="#bfbfbf" stroke="black" points="-1,-0.5 -1,-41.5 211,-41.5 211,-0.5 -1,-0.5"/>
<text text-anchor="start" x="7" y="-29.5" font-family="FreeSans" font-size="10.00">DGtal::functors::ShapeGeometric</text>
<text text-anchor="start" x="7" y="-18.5" font-family="FreeSans" font-size="10.00">Functors::ShapeSecondPrincipalDirection</text>
<text text-anchor="middle" x="105" y="-7.5" font-family="FreeSans" font-size="10.00">Functor&lt; TShape &gt;</text>
</g>
<!-- Node2 -->
<g id="node2" class="node"><title>Node2</title>
<g id="a_node2"><a xlink:href="classDGtal_1_1CountedConstPtrOrConstPtr.html" target="_top" xlink:title="DGtal::CountedConstPtrOr\lConstPtr\&lt; Shape \&gt;">
<polygon fill="white" stroke="black" points="33.5,-91 33.5,-121 176.5,-121 176.5,-91 33.5,-91"/>
<text text-anchor="start" x="41.5" y="-109" font-family="FreeSans" font-size="10.00">DGtal::CountedConstPtrOr</text>
<text text-anchor="middle" x="105" y="-98" font-family="FreeSans" font-size="10.00">ConstPtr&lt; Shape &gt;</text>
</a>
</g>
</g>
<!-- Node2&#45;&gt;Node1 -->
<g id="edge1" class="edge"><title>Node2&#45;&gt;Node1</title>
<path fill="none" stroke="#9a32cd" stroke-dasharray="5,2" d="M105,-80.8051C105,-68.3941 105,-53.4676 105,-41.7587"/>
<polygon fill="#9a32cd" stroke="#9a32cd" points="101.5,-80.9201 105,-90.9202 108.5,-80.9202 101.5,-80.9201"/>
<text text-anchor="middle" x="129.5" y="-63.5" font-family="FreeSans" font-size="10.00"> myShape</text>
</g>
<!-- Node3 -->
<g id="node3" class="node"><title>Node3</title>
<g id="a_node3"><a xlink:href="classDGtal_1_1CountedConstPtrOrConstPtr.html" target="_top" xlink:title="Aim: Smart or simple const pointer on T. It can be a smart pointer based on reference counts or a sim...">
<polygon fill="white" stroke="black" points="33.5,-171 33.5,-201 176.5,-201 176.5,-171 33.5,-171"/>
<text text-anchor="start" x="41.5" y="-189" font-family="FreeSans" font-size="10.00">DGtal::CountedConstPtrOr</text>
<text text-anchor="middle" x="105" y="-178" font-family="FreeSans" font-size="10.00">ConstPtr&lt; T &gt;</text>
</a>
</g>
</g>
<!-- Node3&#45;&gt;Node2 -->
<g id="edge2" class="edge"><title>Node3&#45;&gt;Node2</title>
<path fill="none" stroke="orange" stroke-dasharray="5,2" d="M105,-160.564C105,-147.624 105,-132.186 105,-121.216"/>
<polygon fill="orange" stroke="orange" points="101.5,-160.694 105,-170.694 108.5,-160.694 101.5,-160.694"/>
<text text-anchor="middle" x="133.5" y="-143.5" font-family="FreeSans" font-size="10.00"> &lt; Shape &gt;</text>
</g>
</g>
</svg>
