<?xml version="1.0" encoding="UTF-8" standalone="no"?>
<!DOCTYPE svg PUBLIC "-//W3C//DTD SVG 1.1//EN"
 "http://www.w3.org/Graphics/SVG/1.1/DTD/svg11.dtd">
<!-- Generated by graphviz version 2.38.0 (20140413.2041)
 -->
<!-- Title: LibBoard::Ellipse Pages: 1 -->
<svg width="103pt" height="196pt"
 viewBox="0.00 0.00 103.00 196.00" xmlns="http://www.w3.org/2000/svg" xmlns:xlink="http://www.w3.org/1999/xlink">
<g id="graph0" class="graph" transform="scale(1 1) rotate(0) translate(4 192)">
<title>LibBoard::Ellipse</title>
<polygon fill="white" stroke="none" points="-4,4 -4,-192 99,-192 99,4 -4,4"/>
<!-- Node0 -->
<g id="node1" class="node"><title>Node0</title>
<polygon fill="#bfbfbf" stroke="black" points="0,-112.5 0,-131.5 95,-131.5 95,-112.5 0,-112.5"/>
<text text-anchor="middle" x="47.5" y="-119.5" font-family="FreeSans" font-size="10.00">LibBoard::Ellipse</text>
</g>
<!-- Node2 -->
<g id="node3" class="node"><title>Node2</title>
<g id="a_node3"><a xlink:href="structLibBoard_1_1Circle.html" target="_top" xlink:title="A circle. ">
<polygon fill="white" stroke="black" points="2,-56.5 2,-75.5 93,-75.5 93,-56.5 2,-56.5"/>
<text text-anchor="middle" x="47.5" y="-63.5" font-family="FreeSans" font-size="10.00">LibBoard::Circle</text>
</a>
</g>
</g>
<!-- Node0&#45;&gt;Node2 -->
<g id="edge2" class="edge"><title>Node0&#45;&gt;Node2</title>
<path fill="none" stroke="midnightblue" d="M47.5,-101.805C47.5,-92.9102 47.5,-82.7798 47.5,-75.7511"/>
<polygon fill="midnightblue" stroke="midnightblue" points="44.0001,-102.083 47.5,-112.083 51.0001,-102.083 44.0001,-102.083"/>
</g>
<!-- Node1 -->
<g id="node2" class="node"><title>Node1</title>
<g id="a_node2"><a xlink:href="structLibBoard_1_1Shape.html" target="_top" xlink:title="Abstract structure for a 2D shape. ">
<polygon fill="white" stroke="black" points="0,-168.5 0,-187.5 95,-187.5 95,-168.5 0,-168.5"/>
<text text-anchor="middle" x="47.5" y="-175.5" font-family="FreeSans" font-size="10.00">LibBoard::Shape</text>
</a>
</g>
</g>
<!-- Node1&#45;&gt;Node0 -->
<g id="edge1" class="edge"><title>Node1&#45;&gt;Node0</title>
<path fill="none" stroke="midnightblue" d="M47.5,-157.805C47.5,-148.91 47.5,-138.78 47.5,-131.751"/>
<polygon fill="midnightblue" stroke="midnightblue" points="44.0001,-158.083 47.5,-168.083 51.0001,-158.083 44.0001,-158.083"/>
</g>
<!-- Node3 -->
<g id="node4" class="node"><title>Node3</title>
<g id="a_node4"><a xlink:href="structLibBoard_1_1Arc.html" target="_top" xlink:title="An arc. ">
<polygon fill="white" stroke="black" points="7.5,-0.5 7.5,-19.5 87.5,-19.5 87.5,-0.5 7.5,-0.5"/>
<text text-anchor="middle" x="47.5" y="-7.5" font-family="FreeSans" font-size="10.00">LibBoard::Arc</text>
</a>
</g>
</g>
<!-- Node2&#45;&gt;Node3 -->
<g id="edge3" class="edge"><title>Node2&#45;&gt;Node3</title>
<path fill="none" stroke="midnightblue" d="M47.5,-45.8045C47.5,-36.9102 47.5,-26.7798 47.5,-19.7511"/>
<polygon fill="midnightblue" stroke="midnightblue" points="44.0001,-46.083 47.5,-56.083 51.0001,-46.083 44.0001,-46.083"/>
</g>
</g>
</svg>
