<?xml version="1.0" encoding="UTF-8" standalone="no"?>
<!DOCTYPE svg PUBLIC "-//W3C//DTD SVG 1.1//EN"
 "http://www.w3.org/Graphics/SVG/1.1/DTD/svg11.dtd">
<!-- Generated by graphviz version 2.38.0 (20140413.2041)
 -->
<!-- Title: DGtal::KhalimskyCell&lt; dim, TInteger &gt; Pages: 1 -->
<svg width="274pt" height="429pt"
 viewBox="0.00 0.00 273.77 429.00" xmlns="http://www.w3.org/2000/svg" xmlns:xlink="http://www.w3.org/1999/xlink">
<g id="graph0" class="graph" transform="scale(1 1) rotate(0) translate(4 425)">
<title>DGtal::KhalimskyCell&lt; dim, TInteger &gt;</title>
<polygon fill="white" stroke="none" points="-4,4 -4,-425 269.767,-425 269.767,4 -4,4"/>
<!-- Node2 -->
<g id="node1" class="node"><title>Node2</title>
<polygon fill="#bfbfbf" stroke="black" points="42.7667,-0.5 42.7667,-30.5 157.767,-30.5 157.767,-0.5 42.7667,-0.5"/>
<text text-anchor="start" x="50.7667" y="-18.5" font-family="FreeSans" font-size="10.00">DGtal::KhalimskyCell</text>
<text text-anchor="middle" x="100.267" y="-7.5" font-family="FreeSans" font-size="10.00">&lt; dim, TInteger &gt;</text>
</g>
<!-- Node3 -->
<g id="node2" class="node"><title>Node3</title>
<g id="a_node2"><a xlink:href="structDGtal_1_1KhalimskyPreCell.html" target="_top" xlink:title="DGtal::KhalimskyPreCell\l\&lt; dim, Integer \&gt;">
<polygon fill="white" stroke="black" points="34.7667,-78.5 34.7667,-108.5 165.767,-108.5 165.767,-78.5 34.7667,-78.5"/>
<text text-anchor="start" x="42.7667" y="-96.5" font-family="FreeSans" font-size="10.00">DGtal::KhalimskyPreCell</text>
<text text-anchor="middle" x="100.267" y="-85.5" font-family="FreeSans" font-size="10.00">&lt; dim, Integer &gt;</text>
</a>
</g>
</g>
<!-- Node3&#45;&gt;Node2 -->
<g id="edge1" class="edge"><title>Node3&#45;&gt;Node2</title>
<path fill="none" stroke="#9a32cd" stroke-dasharray="5,2" d="M100.267,-68.0898C100.267,-55.7565 100.267,-41.2237 100.267,-30.7309"/>
<polygon fill="#9a32cd" stroke="#9a32cd" points="96.7668,-68.2049 100.267,-78.205 103.767,-68.205 96.7668,-68.2049"/>
<text text-anchor="middle" x="126.267" y="-52" font-family="FreeSans" font-size="10.00"> myPreCell</text>
</g>
<!-- Node4 -->
<g id="node3" class="node"><title>Node4</title>
<g id="a_node3"><a xlink:href="classDGtal_1_1PointVector.html" target="_top" xlink:title="DGtal::PointVector\l\&lt; dim, Integer \&gt;">
<polygon fill="white" stroke="black" points="20.2667,-234.5 20.2667,-264.5 124.267,-264.5 124.267,-234.5 20.2667,-234.5"/>
<text text-anchor="start" x="28.2667" y="-252.5" font-family="FreeSans" font-size="10.00">DGtal::PointVector</text>
<text text-anchor="middle" x="72.2667" y="-241.5" font-family="FreeSans" font-size="10.00">&lt; dim, Integer &gt;</text>
</a>
</g>
</g>
<!-- Node4&#45;&gt;Node3 -->
<g id="edge2" class="edge"><title>Node4&#45;&gt;Node3</title>
<path fill="none" stroke="#9a32cd" stroke-dasharray="5,2" d="M66.1787,-224.584C62.3799,-205.669 59.2461,-178.751 65.2667,-156 69.918,-138.423 80.8892,-120.614 89.3184,-108.717"/>
<polygon fill="#9a32cd" stroke="#9a32cd" points="62.7838,-225.441 68.3657,-234.447 69.6179,-223.926 62.7838,-225.441"/>
<text text-anchor="middle" x="95.2667" y="-169" font-family="FreeSans" font-size="10.00"> coordinates</text>
</g>
<!-- Node7 -->
<g id="node6" class="node"><title>Node7</title>
<g id="a_node6"><a xlink:href="structDGtal_1_1KhalimskyPreCell.html" target="_top" xlink:title="Represents an unsigned cell in an unbounded cellular grid space by its Khalimsky coordinates. ">
<polygon fill="white" stroke="black" points="134.767,-156.5 134.767,-186.5 265.767,-186.5 265.767,-156.5 134.767,-156.5"/>
<text text-anchor="start" x="142.767" y="-174.5" font-family="FreeSans" font-size="10.00">DGtal::KhalimskyPreCell</text>
<text text-anchor="middle" x="200.267" y="-163.5" font-family="FreeSans" font-size="10.00">&lt; dim, TInteger &gt;</text>
</a>
</g>
</g>
<!-- Node4&#45;&gt;Node7 -->
<g id="edge9" class="edge"><title>Node4&#45;&gt;Node7</title>
<path fill="none" stroke="#9a32cd" stroke-dasharray="5,2" d="M104.866,-229.144C127.251,-215.853 156.449,-198.517 176.618,-186.541"/>
<polygon fill="#9a32cd" stroke="#9a32cd" points="102.854,-226.268 96.0425,-234.383 106.428,-232.287 102.854,-226.268"/>
<text text-anchor="middle" x="174.267" y="-208" font-family="FreeSans" font-size="10.00"> coordinates</text>
</g>
<!-- Node5 -->
<g id="node4" class="node"><title>Node5</title>
<polygon fill="white" stroke="#bfbfbf" points="0.266706,-401.5 0.266706,-420.5 68.2667,-420.5 68.2667,-401.5 0.266706,-401.5"/>
<text text-anchor="middle" x="34.2667" y="-408.5" font-family="FreeSans" font-size="10.00">TContainer</text>
</g>
<!-- Node5&#45;&gt;Node4 -->
<g id="edge3" class="edge"><title>Node5&#45;&gt;Node4</title>
<path fill="none" stroke="#9a32cd" stroke-dasharray="5,2" d="M21.8481,-393.027C8.91617,-373.125 -7.88609,-339.377 4.26671,-312 13.2436,-291.777 32.5196,-275.384 48.264,-264.624"/>
<polygon fill="#9a32cd" stroke="#9a32cd" points="19.0246,-395.098 27.5706,-401.361 24.7951,-391.136 19.0246,-395.098"/>
<text text-anchor="middle" x="26.2667" y="-330.5" font-family="FreeSans" font-size="10.00"> myArray</text>
</g>
<!-- Node6 -->
<g id="node5" class="node"><title>Node6</title>
<g id="a_node5"><a xlink:href="classDGtal_1_1PointVector.html" target="_top" xlink:title="Aim: Implements basic operations that will be used in Point and Vector classes. ">
<polygon fill="white" stroke="black" points="57.2667,-312.5 57.2667,-353.5 183.267,-353.5 183.267,-312.5 57.2667,-312.5"/>
<text text-anchor="start" x="65.2667" y="-341.5" font-family="FreeSans" font-size="10.00">DGtal::PointVector</text>
<text text-anchor="start" x="65.2667" y="-330.5" font-family="FreeSans" font-size="10.00">&lt; dim, TEuclideanRing,</text>
<text text-anchor="middle" x="120.267" y="-319.5" font-family="FreeSans" font-size="10.00"> TContainer &gt;</text>
</a>
</g>
</g>
<!-- Node5&#45;&gt;Node6 -->
<g id="edge5" class="edge"><title>Node5&#45;&gt;Node6</title>
<path fill="none" stroke="#9a32cd" stroke-dasharray="5,2" d="M51.6998,-394.594C65.0606,-382.787 83.5922,-366.41 98.0217,-353.658"/>
<polygon fill="#9a32cd" stroke="#9a32cd" points="49.3076,-392.037 44.132,-401.282 53.943,-397.282 49.3076,-392.037"/>
<text text-anchor="middle" x="99.2667" y="-375" font-family="FreeSans" font-size="10.00"> myArray</text>
</g>
<!-- Node6&#45;&gt;Node4 -->
<g id="edge4" class="edge"><title>Node6&#45;&gt;Node4</title>
<path fill="none" stroke="#9a32cd" stroke-dasharray="5,2" d="M80.6444,-304.933C77.7367,-301.569 75.1938,-297.92 73.2667,-294 68.8007,-284.916 68.736,-273.423 69.6887,-264.533"/>
<polygon fill="#9a32cd" stroke="#9a32cd" points="78.4248,-307.663 87.9725,-312.256 83.3728,-302.712 78.4248,-307.663"/>
<text text-anchor="middle" x="85.7667" y="-286" font-family="FreeSans" font-size="10.00"> zero</text>
</g>
<!-- Node6&#45;&gt;Node4 -->
<g id="edge7" class="edge"><title>Node6&#45;&gt;Node4</title>
<path fill="none" stroke="orange" stroke-dasharray="5,2" d="M108.641,-302.861C105.576,-296.169 102.055,-289.202 98.2667,-283 94.4246,-276.71 89.5166,-270.273 85.002,-264.805"/>
<polygon fill="orange" stroke="orange" points="105.574,-304.583 112.784,-312.347 111.989,-301.782 105.574,-304.583"/>
<text text-anchor="middle" x="146.267" y="-286" font-family="FreeSans" font-size="10.00"> &lt; dim, Integer &gt;</text>
</g>
<!-- Node6&#45;&gt;Node6 -->
<g id="edge6" class="edge"><title>Node6&#45;&gt;Node6</title>
<path fill="none" stroke="#9a32cd" stroke-dasharray="5,2" d="M193.357,-338.937C198.279,-337.566 201.267,-335.588 201.267,-333 201.267,-328.961 193.986,-326.405 183.435,-325.332"/>
<polygon fill="#9a32cd" stroke="#9a32cd" points="192.684,-335.501 183.435,-340.668 193.888,-342.397 192.684,-335.501"/>
<text text-anchor="middle" x="213.767" y="-330.5" font-family="FreeSans" font-size="10.00"> zero</text>
</g>
<!-- Node7&#45;&gt;Node3 -->
<g id="edge8" class="edge"><title>Node7&#45;&gt;Node3</title>
<path fill="none" stroke="orange" stroke-dasharray="5,2" d="M173.439,-150.111C156.235,-137.036 134.332,-120.39 118.992,-108.731"/>
<polygon fill="orange" stroke="orange" points="171.378,-152.941 181.457,-156.205 175.614,-147.368 171.378,-152.941"/>
<text text-anchor="middle" x="197.267" y="-130" font-family="FreeSans" font-size="10.00"> &lt; dim, Integer &gt;</text>
</g>
</g>
</svg>
