<?xml version="1.0" encoding="UTF-8" standalone="no"?>
<!DOCTYPE svg PUBLIC "-//W3C//DTD SVG 1.1//EN"
 "http://www.w3.org/Graphics/SVG/1.1/DTD/svg11.dtd">
<!-- Generated by graphviz version 2.38.0 (20140413.2041)
 -->
<!-- Title: DGtal::concepts::CLMSTDSSFilter&lt; T &gt; Pages: 1 -->
<svg width="431pt" height="142pt"
 viewBox="0.00 0.00 431.00 142.00" xmlns="http://www.w3.org/2000/svg" xmlns:xlink="http://www.w3.org/1999/xlink">
<g id="graph0" class="graph" transform="scale(1 1) rotate(0) translate(4 138)">
<title>DGtal::concepts::CLMSTDSSFilter&lt; T &gt;</title>
<polygon fill="white" stroke="none" points="-4,4 -4,-138 427,-138 427,4 -4,4"/>
<!-- Node4 -->
<g id="node1" class="node"><title>Node4</title>
<polygon fill="#bfbfbf" stroke="black" points="220,-57.5 220,-76.5 423,-76.5 423,-57.5 220,-57.5"/>
<text text-anchor="middle" x="321.5" y="-64.5" font-family="FreeSans" font-size="10.00">DGtal::concepts::CLMSTDSSFilter&lt; T &gt;</text>
</g>
<!-- Node5 -->
<g id="node2" class="node"><title>Node5</title>
<g id="a_node2"><a xlink:href="structboost_1_1DefaultConstructible.html" target="_top" xlink:title="Go to http://www.sgi.com/tech/stl/DefaultConstructible.html. ">
<polygon fill="white" stroke="black" points="0,-114.5 0,-133.5 175,-133.5 175,-114.5 0,-114.5"/>
<text text-anchor="middle" x="87.5" y="-121.5" font-family="FreeSans" font-size="10.00">boost::DefaultConstructible&lt; T &gt;</text>
</a>
</g>
</g>
<!-- Node5&#45;&gt;Node4 -->
<g id="edge1" class="edge"><title>Node5&#45;&gt;Node4</title>
<path fill="none" stroke="midnightblue" d="M143.391,-112.283C153.901,-109.944 164.804,-107.45 175,-105 212.951,-95.88 256.197,-84.4524 285.611,-76.5227"/>
<polygon fill="midnightblue" stroke="midnightblue" points="142.483,-108.899 133.472,-114.472 143.991,-115.735 142.483,-108.899"/>
</g>
<!-- Node6 -->
<g id="node3" class="node"><title>Node6</title>
<g id="a_node3"><a xlink:href="structboost_1_1CopyConstructible.html" target="_top" xlink:title="Go to http://www.sgi.com/tech/stl/CopyConstructible.html. ">
<polygon fill="white" stroke="black" points="5.5,-76.5 5.5,-95.5 169.5,-95.5 169.5,-76.5 5.5,-76.5"/>
<text text-anchor="middle" x="87.5" y="-83.5" font-family="FreeSans" font-size="10.00">boost::CopyConstructible&lt; T &gt;</text>
</a>
</g>
</g>
<!-- Node6&#45;&gt;Node4 -->
<g id="edge2" class="edge"><title>Node6&#45;&gt;Node4</title>
<path fill="none" stroke="midnightblue" d="M179.628,-78.537C192.816,-77.4569 206.454,-76.3399 219.817,-75.2456"/>
<polygon fill="midnightblue" stroke="midnightblue" points="179.323,-75.0501 169.642,-79.3547 179.895,-82.0267 179.323,-75.0501"/>
</g>
<!-- Node7 -->
<g id="node4" class="node"><title>Node7</title>
<g id="a_node4"><a xlink:href="structboost_1_1Assignable.html" target="_top" xlink:title="Go to http://www.sgi.com/tech/stl/Assignable.html. ">
<polygon fill="white" stroke="black" points="23,-38.5 23,-57.5 152,-57.5 152,-38.5 23,-38.5"/>
<text text-anchor="middle" x="87.5" y="-45.5" font-family="FreeSans" font-size="10.00">boost::Assignable&lt; T &gt;</text>
</a>
</g>
</g>
<!-- Node7&#45;&gt;Node4 -->
<g id="edge3" class="edge"><title>Node7&#45;&gt;Node4</title>
<path fill="none" stroke="midnightblue" d="M162.207,-54.0364C180.545,-55.5382 200.517,-57.1738 219.904,-58.7615"/>
<polygon fill="midnightblue" stroke="midnightblue" points="162.454,-50.545 152.202,-53.217 161.883,-57.5216 162.454,-50.545"/>
</g>
<!-- Node8 -->
<g id="node5" class="node"><title>Node8</title>
<polygon fill="white" stroke="#bfbfbf" points="73,-0.5 73,-19.5 102,-19.5 102,-0.5 73,-0.5"/>
<text text-anchor="middle" x="87.5" y="-7.5" font-family="FreeSans" font-size="10.00">T</text>
</g>
<!-- Node8&#45;&gt;Node4 -->
<g id="edge4" class="edge"><title>Node8&#45;&gt;Node4</title>
<path fill="none" stroke="#9a32cd" stroke-dasharray="5,2" d="M111.893,-14.8785C129.329,-18.578 153.706,-23.8828 175,-29 212.951,-38.12 256.197,-49.5476 285.611,-57.4773"/>
<polygon fill="#9a32cd" stroke="#9a32cd" points="112.529,-11.4359 102.022,-12.7986 111.086,-18.2854 112.529,-11.4359"/>
<text text-anchor="middle" x="197.5" y="-38" font-family="FreeSans" font-size="10.00"> x</text>
</g>
</g>
</svg>
