<?xml version="1.0" encoding="UTF-8" standalone="no"?>
<!DOCTYPE svg PUBLIC "-//W3C//DTD SVG 1.1//EN"
 "http://www.w3.org/Graphics/SVG/1.1/DTD/svg11.dtd">
<!-- Generated by graphviz version 2.38.0 (20140413.2041)
 -->
<!-- Title: boost::ForwardContainer&lt; C &gt; Pages: 1 -->
<svg width="185pt" height="163pt"
 viewBox="0.00 0.00 185.00 163.00" xmlns="http://www.w3.org/2000/svg" xmlns:xlink="http://www.w3.org/1999/xlink">
<g id="graph0" class="graph" transform="scale(1 1) rotate(0) translate(4 159)">
<title>boost::ForwardContainer&lt; C &gt;</title>
<polygon fill="white" stroke="none" points="-4,4 -4,-159 181,-159 181,4 -4,4"/>
<!-- Node0 -->
<g id="node1" class="node"><title>Node0</title>
<polygon fill="#bfbfbf" stroke="black" points="7,-135.5 7,-154.5 170,-154.5 170,-135.5 7,-135.5"/>
<text text-anchor="middle" x="88.5" y="-142.5" font-family="FreeSans" font-size="10.00">boost::ForwardContainer&lt; C &gt;</text>
</g>
<!-- Node1 -->
<g id="node2" class="node"><title>Node1</title>
<g id="a_node2"><a xlink:href="structboost_1_1ForwardContainer.html" target="_top" xlink:title="boost::ForwardContainer\&lt; T \&gt;">
<polygon fill="white" stroke="black" points="8,-68.5 8,-87.5 169,-87.5 169,-68.5 8,-68.5"/>
<text text-anchor="middle" x="88.5" y="-75.5" font-family="FreeSans" font-size="10.00">boost::ForwardContainer&lt; T &gt;</text>
</a>
</g>
</g>
<!-- Node0&#45;&gt;Node1 -->
<g id="edge1" class="edge"><title>Node0&#45;&gt;Node1</title>
<path fill="none" stroke="orange" stroke-dasharray="5,2" d="M88.5,-125.037C88.5,-112.67 88.5,-97.1198 88.5,-87.6273"/>
<polygon fill="orange" stroke="orange" points="85.0001,-125.234 88.5,-135.234 92.0001,-125.234 85.0001,-125.234"/>
<text text-anchor="middle" x="104" y="-109" font-family="FreeSans" font-size="10.00"> &lt; T &gt;</text>
</g>
<!-- Node2 -->
<g id="node3" class="node"><title>Node2</title>
<g id="a_node3"><a xlink:href="structDGtal_1_1concepts_1_1CSTLAssociativeContainer.html" target="_top" xlink:title="Aim: Defines the concept describing an Associative Container of the STL (https://www.sgi.com/tech/stl/AssociativeContainer.html). ">
<polygon fill="white" stroke="black" points="-1.42109e-14,-0.5 -1.42109e-14,-30.5 177,-30.5 177,-0.5 -1.42109e-14,-0.5"/>
<text text-anchor="start" x="8" y="-18.5" font-family="FreeSans" font-size="10.00">DGtal::concepts::CSTLAssociative</text>
<text text-anchor="middle" x="88.5" y="-7.5" font-family="FreeSans" font-size="10.00">Container&lt; T &gt;</text>
</a>
</g>
</g>
<!-- Node1&#45;&gt;Node2 -->
<g id="edge2" class="edge"><title>Node1&#45;&gt;Node2</title>
<path fill="none" stroke="midnightblue" d="M88.5,-58.2154C88.5,-49.3565 88.5,-38.9577 88.5,-30.7587"/>
<polygon fill="midnightblue" stroke="midnightblue" points="85.0001,-58.3318 88.5,-68.3318 92.0001,-58.3319 85.0001,-58.3318"/>
</g>
</g>
</svg>
