<?xml version="1.0" encoding="UTF-8" standalone="no"?>
<!DOCTYPE svg PUBLIC "-//W3C//DTD SVG 1.1//EN"
 "http://www.w3.org/Graphics/SVG/1.1/DTD/svg11.dtd">
<!-- Generated by graphviz version 2.36.0 (20140111.2315)
 -->
<!-- Title: testSignal.cpp Pages: 1 -->
<svg width="2565pt" height="488pt"
 viewBox="0.00 0.00 2564.83 488.00" xmlns="http://www.w3.org/2000/svg" xmlns:xlink="http://www.w3.org/1999/xlink">
<g id="graph0" class="graph" transform="scale(1 1) rotate(0) translate(4 484)">
<title>testSignal.cpp</title>
<polygon fill="white" stroke="none" points="-4,4 -4,-484 2560.83,-484 2560.83,4 -4,4"/>
<!-- Node0 -->
<g id="node1" class="node"><title>Node0</title>
<polygon fill="#bfbfbf" stroke="black" points="271.5,-460.5 271.5,-479.5 356.5,-479.5 356.5,-460.5 271.5,-460.5"/>
<text text-anchor="middle" x="314" y="-467.5" font-family="FreeSans" font-size="10.00">testSignal.cpp</text>
</g>
<!-- Node1 -->
<g id="node2" class="node"><title>Node1</title>
<polygon fill="white" stroke="#bfbfbf" points="1114.5,-0.5 1114.5,-19.5 1173.5,-19.5 1173.5,-0.5 1114.5,-0.5"/>
<text text-anchor="middle" x="1144" y="-7.5" font-family="FreeSans" font-size="10.00">iostream</text>
</g>
<!-- Node0&#45;&gt;Node1 -->
<g id="edge1" class="edge"><title>Node0&#45;&gt;Node1</title>
<path fill="none" stroke="midnightblue" d="M271.326,-463.182C185.472,-450.277 0,-415.824 0,-359 0,-359 0,-359 0,-121 0,-82.8683 21.6726,-72.6028 56,-56 151.735,-9.69712 919.687,-10.025 1104.23,-10.783"/>
<polygon fill="midnightblue" stroke="midnightblue" points="1104.29,-14.2832 1114.31,-10.8273 1104.32,-7.28329 1104.29,-14.2832"/>
</g>
<!-- Node2 -->
<g id="node3" class="node"><title>Node2</title>
<g id="a_node3"><a xlink:href="Common_8h_source.html" target="_top" xlink:title="DGtal/base/Common.h">
<polygon fill="white" stroke="black" points="794,-236.5 794,-255.5 920,-255.5 920,-236.5 794,-236.5"/>
<text text-anchor="middle" x="857" y="-243.5" font-family="FreeSans" font-size="10.00">DGtal/base/Common.h</text>
</a>
</g>
</g>
<!-- Node0&#45;&gt;Node2 -->
<g id="edge2" class="edge"><title>Node0&#45;&gt;Node2</title>
<path fill="none" stroke="midnightblue" d="M334.954,-460.433C418.523,-426.267 728.245,-299.64 826.727,-259.377"/>
<polygon fill="midnightblue" stroke="midnightblue" points="828.177,-262.565 836.109,-255.541 825.528,-256.086 828.177,-262.565"/>
</g>
<!-- Node42 -->
<g id="node43" class="node"><title>Node42</title>
<g id="a_node43"><a xlink:href="Signal_8h_source.html" target="_top" xlink:title="DGtal/math/Signal.h">
<polygon fill="white" stroke="black" points="257.5,-404.5 257.5,-423.5 370.5,-423.5 370.5,-404.5 257.5,-404.5"/>
<text text-anchor="middle" x="314" y="-411.5" font-family="FreeSans" font-size="10.00">DGtal/math/Signal.h</text>
</a>
</g>
</g>
<!-- Node0&#45;&gt;Node42 -->
<g id="edge73" class="edge"><title>Node0&#45;&gt;Node42</title>
<path fill="none" stroke="midnightblue" d="M314,-460.083C314,-453.006 314,-442.861 314,-433.986"/>
<polygon fill="midnightblue" stroke="midnightblue" points="317.5,-433.751 314,-423.751 310.5,-433.751 317.5,-433.751"/>
</g>
<!-- Node2&#45;&gt;Node1 -->
<g id="edge3" class="edge"><title>Node2&#45;&gt;Node1</title>
<path fill="none" stroke="midnightblue" d="M832.531,-236.438C816.433,-229.378 796.623,-217.626 787,-200 780.185,-187.517 778.424,-179.345 787,-168 822.379,-121.199 859.524,-153.78 914,-132 931.721,-124.915 934.23,-118.963 952,-112 1009.42,-89.5008 1033.5,-108.356 1086,-76 1105.64,-63.8922 1122.48,-43.1274 1132.87,-28.3259"/>
<polygon fill="midnightblue" stroke="midnightblue" points="1136.05,-29.8616 1138.73,-19.6113 1130.25,-25.9533 1136.05,-29.8616"/>
</g>
<!-- Node3 -->
<g id="node4" class="node"><title>Node3</title>
<polygon fill="white" stroke="#bfbfbf" points="642.5,-174.5 642.5,-193.5 705.5,-193.5 705.5,-174.5 642.5,-174.5"/>
<text text-anchor="middle" x="674" y="-181.5" font-family="FreeSans" font-size="10.00">exception</text>
</g>
<!-- Node2&#45;&gt;Node3 -->
<g id="edge4" class="edge"><title>Node2&#45;&gt;Node3</title>
<path fill="none" stroke="midnightblue" d="M830.781,-236.403C798.982,-225.978 745.235,-208.356 709.683,-196.699"/>
<polygon fill="midnightblue" stroke="midnightblue" points="710.764,-193.37 700.171,-193.581 708.583,-200.022 710.764,-193.37"/>
</g>
<!-- Node4 -->
<g id="node5" class="node"><title>Node4</title>
<polygon fill="white" stroke="#bfbfbf" points="432,-56.5 432,-75.5 494,-75.5 494,-56.5 432,-56.5"/>
<text text-anchor="middle" x="463" y="-63.5" font-family="FreeSans" font-size="10.00">algorithm</text>
</g>
<!-- Node2&#45;&gt;Node4 -->
<g id="edge5" class="edge"><title>Node2&#45;&gt;Node4</title>
<path fill="none" stroke="midnightblue" d="M793.84,-243.522C672.761,-240.034 417.569,-229.259 391,-200 357.763,-163.399 412.373,-108.686 443.582,-82.3067"/>
<polygon fill="midnightblue" stroke="midnightblue" points="446.17,-84.7104 451.672,-75.6563 441.724,-79.303 446.17,-84.7104"/>
</g>
<!-- Node5 -->
<g id="node6" class="node"><title>Node5</title>
<polygon fill="white" stroke="#bfbfbf" points="990,-174.5 990,-193.5 1092,-193.5 1092,-174.5 990,-174.5"/>
<text text-anchor="middle" x="1041" y="-181.5" font-family="FreeSans" font-size="10.00">boost/version.hpp</text>
</g>
<!-- Node2&#45;&gt;Node5 -->
<g id="edge6" class="edge"><title>Node2&#45;&gt;Node5</title>
<path fill="none" stroke="midnightblue" d="M883.363,-236.403C915.335,-225.978 969.376,-208.356 1005.12,-196.699"/>
<polygon fill="midnightblue" stroke="midnightblue" points="1006.26,-200.008 1014.69,-193.581 1004.09,-193.353 1006.26,-200.008"/>
</g>
<!-- Node6 -->
<g id="node7" class="node"><title>Node6</title>
<polygon fill="white" stroke="#bfbfbf" points="1110.5,-174.5 1110.5,-193.5 1249.5,-193.5 1249.5,-174.5 1110.5,-174.5"/>
<text text-anchor="middle" x="1180" y="-181.5" font-family="FreeSans" font-size="10.00">boost/concept_check.hpp</text>
</g>
<!-- Node2&#45;&gt;Node6 -->
<g id="edge7" class="edge"><title>Node2&#45;&gt;Node6</title>
<path fill="none" stroke="midnightblue" d="M903.138,-236.488C952.022,-227.461 1031.46,-212.772 1100,-200 1108,-198.509 1116.45,-196.93 1124.74,-195.378"/>
<polygon fill="midnightblue" stroke="midnightblue" points="1125.55,-198.787 1134.73,-193.506 1124.26,-191.907 1125.55,-198.787"/>
</g>
<!-- Node7 -->
<g id="node8" class="node"><title>Node7</title>
<polygon fill="white" stroke="#bfbfbf" points="1267.5,-174.5 1267.5,-193.5 1396.5,-193.5 1396.5,-174.5 1267.5,-174.5"/>
<text text-anchor="middle" x="1332" y="-181.5" font-family="FreeSans" font-size="10.00">boost/static_assert.hpp</text>
</g>
<!-- Node2&#45;&gt;Node7 -->
<g id="edge8" class="edge"><title>Node2&#45;&gt;Node7</title>
<path fill="none" stroke="midnightblue" d="M920.087,-239.656C999.273,-232.549 1139.14,-218.679 1258,-200 1266.19,-198.712 1274.86,-197.145 1283.26,-195.515"/>
<polygon fill="midnightblue" stroke="midnightblue" points="1284.2,-198.895 1293.33,-193.509 1282.84,-192.03 1284.2,-198.895"/>
</g>
<!-- Node8 -->
<g id="node9" class="node"><title>Node8</title>
<polygon fill="white" stroke="#bfbfbf" points="1414.5,-174.5 1414.5,-193.5 1553.5,-193.5 1553.5,-174.5 1414.5,-174.5"/>
<text text-anchor="middle" x="1484" y="-181.5" font-family="FreeSans" font-size="10.00">boost/concept/assert.hpp</text>
</g>
<!-- Node2&#45;&gt;Node8 -->
<g id="edge9" class="edge"><title>Node2&#45;&gt;Node8</title>
<path fill="none" stroke="midnightblue" d="M920.107,-241.99C1022.31,-236.629 1230.24,-223.699 1405,-200 1414.24,-198.746 1424.05,-197.125 1433.48,-195.413"/>
<polygon fill="midnightblue" stroke="midnightblue" points="1434.35,-198.812 1443.54,-193.534 1433.07,-191.931 1434.35,-198.812"/>
</g>
<!-- Node9 -->
<g id="node10" class="node"><title>Node9</title>
<polygon fill="white" stroke="#bfbfbf" points="1572,-174.5 1572,-193.5 1720,-193.5 1720,-174.5 1572,-174.5"/>
<text text-anchor="middle" x="1646" y="-181.5" font-family="FreeSans" font-size="10.00">boost/concept/requires.hpp</text>
</g>
<!-- Node2&#45;&gt;Node9 -->
<g id="edge10" class="edge"><title>Node2&#45;&gt;Node9</title>
<path fill="none" stroke="midnightblue" d="M920.416,-243.353C1044.18,-239.608 1326.4,-228.463 1562,-200 1572.15,-198.774 1582.93,-197.119 1593.26,-195.356"/>
<polygon fill="midnightblue" stroke="midnightblue" points="1594.17,-198.75 1603.41,-193.568 1592.95,-191.857 1594.17,-198.75"/>
</g>
<!-- Node10 -->
<g id="node11" class="node"><title>Node10</title>
<polygon fill="white" stroke="#bfbfbf" points="1738,-169 1738,-199 1858,-199 1858,-169 1738,-169"/>
<text text-anchor="start" x="1746" y="-187" font-family="FreeSans" font-size="10.00">boost/iterator/iterator</text>
<text text-anchor="middle" x="1798" y="-176" font-family="FreeSans" font-size="10.00">_concepts.hpp</text>
</g>
<!-- Node2&#45;&gt;Node10 -->
<g id="edge11" class="edge"><title>Node2&#45;&gt;Node10</title>
<path fill="none" stroke="midnightblue" d="M920.244,-245.246C1062.84,-245.045 1420.32,-240.301 1727.89,-199.995"/>
<polygon fill="midnightblue" stroke="midnightblue" points="1728.44,-203.453 1737.89,-198.669 1727.52,-196.514 1728.44,-203.453"/>
</g>
<!-- Node11 -->
<g id="node12" class="node"><title>Node11</title>
<polygon fill="white" stroke="#bfbfbf" points="1875.5,-174.5 1875.5,-193.5 2034.5,-193.5 2034.5,-174.5 1875.5,-174.5"/>
<text text-anchor="middle" x="1955" y="-181.5" font-family="FreeSans" font-size="10.00">boost/concept_archetype.hpp</text>
</g>
<!-- Node2&#45;&gt;Node11 -->
<g id="edge12" class="edge"><title>Node2&#45;&gt;Node11</title>
<path fill="none" stroke="midnightblue" d="M920.072,-244.864C1079.19,-243.94 1509.64,-237.834 1866,-200 1877.33,-198.797 1889.4,-197.068 1900.88,-195.208"/>
<polygon fill="midnightblue" stroke="midnightblue" points="1901.5,-198.653 1910.78,-193.55 1900.34,-191.75 1901.5,-198.653"/>
</g>
<!-- Node12 -->
<g id="node13" class="node"><title>Node12</title>
<polygon fill="white" stroke="#bfbfbf" points="705.5,-112.5 705.5,-131.5 752.5,-131.5 752.5,-112.5 705.5,-112.5"/>
<text text-anchor="middle" x="729" y="-119.5" font-family="FreeSans" font-size="10.00">cmath</text>
</g>
<!-- Node2&#45;&gt;Node12 -->
<g id="edge13" class="edge"><title>Node2&#45;&gt;Node12</title>
<path fill="none" stroke="midnightblue" d="M793.866,-241.682C732.106,-236.959 644.307,-225.795 623,-200 613.943,-189.035 615.15,-179.86 623,-168 631.451,-155.231 667.744,-141.63 695.531,-132.766"/>
<polygon fill="midnightblue" stroke="midnightblue" points="696.806,-136.035 705.317,-129.724 694.729,-129.35 696.806,-136.035"/>
</g>
<!-- Node13 -->
<g id="node14" class="node"><title>Node13</title>
<polygon fill="white" stroke="#bfbfbf" points="2052.5,-174.5 2052.5,-193.5 2101.5,-193.5 2101.5,-174.5 2052.5,-174.5"/>
<text text-anchor="middle" x="2077" y="-181.5" font-family="FreeSans" font-size="10.00">stdio.h</text>
</g>
<!-- Node2&#45;&gt;Node13 -->
<g id="edge14" class="edge"><title>Node2&#45;&gt;Node13</title>
<path fill="none" stroke="midnightblue" d="M920.01,-243.995C1149.58,-240.143 1933.51,-225.256 2043,-200 2045.83,-199.347 2048.71,-198.461 2051.55,-197.443"/>
<polygon fill="midnightblue" stroke="midnightblue" points="2052.91,-200.665 2060.83,-193.622 2050.25,-194.192 2052.91,-200.665"/>
</g>
<!-- Node14 -->
<g id="node15" class="node"><title>Node14</title>
<g id="a_node15"><a xlink:href="Config_8h_source.html" target="_top" xlink:title="DGtal/base/Config.h">
<polygon fill="white" stroke="black" points="2228,-56.5 2228,-75.5 2340,-75.5 2340,-56.5 2228,-56.5"/>
<text text-anchor="middle" x="2284" y="-63.5" font-family="FreeSans" font-size="10.00">DGtal/base/Config.h</text>
</a>
</g>
</g>
<!-- Node2&#45;&gt;Node14 -->
<g id="edge15" class="edge"><title>Node2&#45;&gt;Node14</title>
<path fill="none" stroke="midnightblue" d="M920.209,-244.234C1196.74,-240.735 2287.43,-225.346 2312,-200 2342.69,-168.341 2313.66,-112.031 2295.74,-83.9297"/>
<polygon fill="midnightblue" stroke="midnightblue" points="2298.63,-81.9595 2290.19,-75.5575 2292.79,-85.8266 2298.63,-81.9595"/>
</g>
<!-- Node16 -->
<g id="node17" class="node"><title>Node16</title>
<g id="a_node17"><a xlink:href="Trace_8h_source.html" target="_top" xlink:title="DGtal/base/Trace.h">
<polygon fill="white" stroke="black" points="2196.5,-174.5 2196.5,-193.5 2303.5,-193.5 2303.5,-174.5 2196.5,-174.5"/>
<text text-anchor="middle" x="2250" y="-181.5" font-family="FreeSans" font-size="10.00">DGtal/base/Trace.h</text>
</a>
</g>
</g>
<!-- Node2&#45;&gt;Node16 -->
<g id="edge18" class="edge"><title>Node2&#45;&gt;Node16</title>
<path fill="none" stroke="midnightblue" d="M920.25,-244.388C1149.07,-241.933 1933.38,-231.375 2182,-200 2190.19,-198.967 2198.84,-197.419 2207.13,-195.703"/>
<polygon fill="midnightblue" stroke="midnightblue" points="2207.98,-199.1 2217.01,-193.551 2206.49,-192.26 2207.98,-199.1"/>
</g>
<!-- Node23 -->
<g id="node24" class="node"><title>Node23</title>
<g id="a_node24"><a xlink:href="TraceWriterTerm_8h_source.html" target="_top" xlink:title="DGtal/base/TraceWriterTerm.h">
<polygon fill="white" stroke="black" points="1839.5,-112.5 1839.5,-131.5 1996.5,-131.5 1996.5,-112.5 1839.5,-112.5"/>
<text text-anchor="middle" x="1918" y="-119.5" font-family="FreeSans" font-size="10.00">DGtal/base/TraceWriterTerm.h</text>
</a>
</g>
</g>
<!-- Node2&#45;&gt;Node23 -->
<g id="edge41" class="edge"><title>Node2&#45;&gt;Node23</title>
<path fill="none" stroke="midnightblue" d="M920.251,-245.169C1171.27,-245.533 2085.69,-243.837 2128,-200 2137.88,-189.767 2136.94,-179.06 2128,-168 2118.89,-156.734 2043.44,-142.561 1985.56,-133.164"/>
<polygon fill="midnightblue" stroke="midnightblue" points="1985.77,-129.653 1975.34,-131.524 1984.66,-136.564 1985.77,-129.653"/>
</g>
<!-- Node24 -->
<g id="node25" class="node"><title>Node24</title>
<g id="a_node25"><a xlink:href="Assert_8h_source.html" target="_top" xlink:title="DGtal/base/Assert.h">
<polygon fill="white" stroke="black" points="2396.5,-112.5 2396.5,-131.5 2509.5,-131.5 2509.5,-112.5 2396.5,-112.5"/>
<text text-anchor="middle" x="2453" y="-119.5" font-family="FreeSans" font-size="10.00">DGtal/base/Assert.h</text>
</a>
</g>
</g>
<!-- Node2&#45;&gt;Node24 -->
<g id="edge46" class="edge"><title>Node2&#45;&gt;Node24</title>
<path fill="none" stroke="midnightblue" d="M920.27,-245.265C1186.7,-246.087 2209.84,-246.182 2346,-200 2382.98,-187.457 2418.2,-157.429 2437.57,-138.795"/>
<polygon fill="midnightblue" stroke="midnightblue" points="2440.21,-141.108 2444.87,-131.591 2435.29,-136.128 2440.21,-141.108"/>
</g>
<!-- Node27 -->
<g id="node28" class="node"><title>Node27</title>
<g id="a_node28"><a xlink:href="TraceWriterFile_8h_source.html" target="_top" xlink:title="DGtal/base/TraceWriterFile.h">
<polygon fill="white" stroke="black" points="1672.5,-112.5 1672.5,-131.5 1821.5,-131.5 1821.5,-112.5 1672.5,-112.5"/>
<text text-anchor="middle" x="1747" y="-119.5" font-family="FreeSans" font-size="10.00">DGtal/base/TraceWriterFile.h</text>
</a>
</g>
</g>
<!-- Node2&#45;&gt;Node27 -->
<g id="edge42" class="edge"><title>Node2&#45;&gt;Node27</title>
<path fill="none" stroke="midnightblue" d="M920.199,-245.135C1168.86,-245.36 2068.34,-243.179 2110,-200 2119.87,-189.764 2119.42,-178.657 2110,-168 2107.69,-165.385 1937.31,-145.134 1830.83,-132.707"/>
<polygon fill="midnightblue" stroke="midnightblue" points="1831.07,-129.211 1820.73,-131.529 1830.26,-136.164 1831.07,-129.211"/>
</g>
<!-- Node28 -->
<g id="node29" class="node"><title>Node28</title>
<g id="a_node29"><a xlink:href="ConceptUtils_8h_source.html" target="_top" xlink:title="DGtal/base/ConceptUtils.h">
<polygon fill="white" stroke="black" points="961.5,-112.5 961.5,-131.5 1104.5,-131.5 1104.5,-112.5 961.5,-112.5"/>
<text text-anchor="middle" x="1033" y="-119.5" font-family="FreeSans" font-size="10.00">DGtal/base/ConceptUtils.h</text>
</a>
</g>
</g>
<!-- Node2&#45;&gt;Node28 -->
<g id="edge47" class="edge"><title>Node2&#45;&gt;Node28</title>
<path fill="none" stroke="midnightblue" d="M837.094,-236.41C822.775,-229.04 804.542,-216.916 796,-200 789.589,-187.305 786.93,-178.955 796,-168 806.252,-155.618 889.456,-141.902 954.418,-132.905"/>
<polygon fill="midnightblue" stroke="midnightblue" points="955.24,-136.326 964.674,-131.503 954.291,-129.39 955.24,-136.326"/>
</g>
<!-- Node29 -->
<g id="node30" class="node"><title>Node29</title>
<g id="a_node30"><a xlink:href="BasicTypes_8h_source.html" target="_top" xlink:title="DGtal/base/BasicTypes.h">
<polygon fill="white" stroke="black" points="771,-112.5 771,-131.5 905,-131.5 905,-112.5 771,-112.5"/>
<text text-anchor="middle" x="838" y="-119.5" font-family="FreeSans" font-size="10.00">DGtal/base/BasicTypes.h</text>
</a>
</g>
</g>
<!-- Node2&#45;&gt;Node29 -->
<g id="edge49" class="edge"><title>Node2&#45;&gt;Node29</title>
<path fill="none" stroke="midnightblue" d="M793.776,-241.046C734.809,-235.882 653.013,-224.434 633,-200 623.988,-188.997 624.086,-179.082 633,-168 641.9,-156.934 715.978,-142.659 772.554,-133.186"/>
<polygon fill="midnightblue" stroke="midnightblue" points="773.243,-136.62 782.537,-131.533 772.1,-129.714 773.243,-136.62"/>
</g>
<!-- Node32 -->
<g id="node33" class="node"><title>Node32</title>
<g id="a_node33"><a xlink:href="BasicFunctors_8h_source.html" target="_top" xlink:title="DGtal/base/BasicFunctors.h">
<polygon fill="white" stroke="black" points="400,-174.5 400,-193.5 548,-193.5 548,-174.5 400,-174.5"/>
<text text-anchor="middle" x="474" y="-181.5" font-family="FreeSans" font-size="10.00">DGtal/base/BasicFunctors.h</text>
</a>
</g>
</g>
<!-- Node2&#45;&gt;Node32 -->
<g id="edge54" class="edge"><title>Node2&#45;&gt;Node32</title>
<path fill="none" stroke="midnightblue" d="M793.967,-236.707C732.277,-227.891 635.983,-213.401 553,-200 543.787,-198.512 534.038,-196.894 524.634,-195.29"/>
<polygon fill="midnightblue" stroke="midnightblue" points="525.055,-191.811 514.606,-193.561 523.866,-198.709 525.055,-191.811"/>
</g>
<!-- Node40 -->
<g id="node41" class="node"><title>Node40</title>
<g id="a_node41"><a xlink:href="BasicArchetypes_8h_source.html" target="_top" xlink:title="DGtal/base/BasicArchetypes.h">
<polygon fill="white" stroke="black" points="1122.5,-112.5 1122.5,-131.5 1283.5,-131.5 1283.5,-112.5 1122.5,-112.5"/>
<text text-anchor="middle" x="1203" y="-119.5" font-family="FreeSans" font-size="10.00">DGtal/base/BasicArchetypes.h</text>
</a>
</g>
</g>
<!-- Node2&#45;&gt;Node40 -->
<g id="edge69" class="edge"><title>Node2&#45;&gt;Node40</title>
<path fill="none" stroke="midnightblue" d="M848.801,-236.317C835.177,-220.841 811.067,-188.22 829,-168 833.695,-162.707 1003.03,-143.998 1112.21,-132.436"/>
<polygon fill="midnightblue" stroke="midnightblue" points="1112.68,-135.906 1122.26,-131.375 1111.94,-128.945 1112.68,-135.906"/>
</g>
<!-- Node41 -->
<g id="node42" class="node"><title>Node41</title>
<g id="a_node42"><a xlink:href="Exceptions_8h_source.html" target="_top" xlink:title="DGtal/base/Exceptions.h">
<polygon fill="white" stroke="black" points="838,-174.5 838,-193.5 972,-193.5 972,-174.5 838,-174.5"/>
<text text-anchor="middle" x="905" y="-181.5" font-family="FreeSans" font-size="10.00">DGtal/base/Exceptions.h</text>
</a>
</g>
</g>
<!-- Node2&#45;&gt;Node41 -->
<g id="edge71" class="edge"><title>Node2&#45;&gt;Node41</title>
<path fill="none" stroke="midnightblue" d="M863.877,-236.403C871.149,-227.314 882.795,-212.756 891.841,-201.449"/>
<polygon fill="midnightblue" stroke="midnightblue" points="894.622,-203.576 898.136,-193.581 889.155,-199.203 894.622,-203.576"/>
</g>
<!-- Node14&#45;&gt;Node1 -->
<g id="edge16" class="edge"><title>Node14&#45;&gt;Node1</title>
<path fill="none" stroke="midnightblue" d="M2227.86,-62.3406C2028.13,-52.8798 1354.89,-20.9896 1183.8,-12.8855"/>
<polygon fill="midnightblue" stroke="midnightblue" points="1183.88,-9.38529 1173.73,-12.4081 1183.55,-16.3775 1183.88,-9.38529"/>
</g>
<!-- Node15 -->
<g id="node16" class="node"><title>Node15</title>
<polygon fill="white" stroke="#bfbfbf" points="2262,-0.5 2262,-19.5 2306,-19.5 2306,-0.5 2262,-0.5"/>
<text text-anchor="middle" x="2284" y="-7.5" font-family="FreeSans" font-size="10.00">string</text>
</g>
<!-- Node14&#45;&gt;Node15 -->
<g id="edge17" class="edge"><title>Node14&#45;&gt;Node15</title>
<path fill="none" stroke="midnightblue" d="M2284,-56.083C2284,-49.0059 2284,-38.8611 2284,-29.9865"/>
<polygon fill="midnightblue" stroke="midnightblue" points="2287.5,-29.751 2284,-19.7511 2280.5,-29.7511 2287.5,-29.751"/>
</g>
<!-- Node16&#45;&gt;Node1 -->
<g id="edge19" class="edge"><title>Node16&#45;&gt;Node1</title>
<path fill="none" stroke="midnightblue" d="M2196.18,-176.899C2170.17,-174.034 2138.48,-170.672 2110,-168 2010.78,-158.691 1756.09,-167.583 1663,-132 1610.86,-112.068 1614.87,-76.6246 1563,-56 1494.58,-28.7966 1274.73,-16.552 1183.87,-12.5604"/>
<polygon fill="midnightblue" stroke="midnightblue" points="1183.84,-9.05606 1173.7,-12.1246 1183.54,-16.0496 1183.84,-9.05606"/>
</g>
<!-- Node16&#45;&gt;Node14 -->
<g id="edge23" class="edge"><title>Node16&#45;&gt;Node14</title>
<path fill="none" stroke="midnightblue" d="M2252.55,-174.338C2255.54,-164.193 2260.64,-146.879 2265,-132 2269.6,-116.311 2274.81,-98.4867 2278.61,-85.4765"/>
<polygon fill="midnightblue" stroke="midnightblue" points="2281.98,-86.4129 2281.42,-75.8327 2275.26,-84.4513 2281.98,-86.4129"/>
</g>
<!-- Node16&#45;&gt;Node15 -->
<g id="edge21" class="edge"><title>Node16&#45;&gt;Node15</title>
<path fill="none" stroke="midnightblue" d="M2262.37,-174.482C2284.6,-158.335 2330.57,-120.844 2348,-76 2351.22,-67.7151 2352.1,-63.8885 2348,-56 2340.85,-42.2262 2327.33,-31.783 2314.55,-24.4413"/>
<polygon fill="midnightblue" stroke="midnightblue" points="2315.96,-21.2252 2305.48,-19.6403 2312.68,-27.412 2315.96,-21.2252"/>
</g>
<!-- Node17 -->
<g id="node18" class="node"><title>Node17</title>
<polygon fill="white" stroke="#bfbfbf" points="2009.5,-0.5 2009.5,-19.5 2066.5,-19.5 2066.5,-0.5 2009.5,-0.5"/>
<text text-anchor="middle" x="2038" y="-7.5" font-family="FreeSans" font-size="10.00">ostream</text>
</g>
<!-- Node16&#45;&gt;Node17 -->
<g id="edge20" class="edge"><title>Node16&#45;&gt;Node17</title>
<path fill="none" stroke="midnightblue" d="M2248.08,-174.134C2244.56,-159.614 2235.81,-130.529 2219,-112 2178.66,-67.5279 2114.01,-38.1207 2073.88,-23.0333"/>
<polygon fill="midnightblue" stroke="midnightblue" points="2074.83,-19.6538 2064.24,-19.5056 2072.42,-26.2278 2074.83,-19.6538"/>
</g>
<!-- Node18 -->
<g id="node19" class="node"><title>Node18</title>
<polygon fill="white" stroke="#bfbfbf" points="2015,-112.5 2015,-131.5 2057,-131.5 2057,-112.5 2015,-112.5"/>
<text text-anchor="middle" x="2036" y="-119.5" font-family="FreeSans" font-size="10.00">stack</text>
</g>
<!-- Node16&#45;&gt;Node18 -->
<g id="edge22" class="edge"><title>Node16&#45;&gt;Node18</title>
<path fill="none" stroke="midnightblue" d="M2218.36,-174.448C2183.59,-165.002 2125.85,-149.176 2067.11,-132.278"/>
<polygon fill="midnightblue" stroke="midnightblue" points="2067.87,-128.855 2057.29,-129.447 2065.93,-135.581 2067.87,-128.855"/>
</g>
<!-- Node19 -->
<g id="node20" class="node"><title>Node19</title>
<g id="a_node20"><a xlink:href="Clock_8h_source.html" target="_top" xlink:title="DGtal/base/Clock.h">
<polygon fill="white" stroke="black" points="1403.5,-112.5 1403.5,-131.5 1510.5,-131.5 1510.5,-112.5 1403.5,-112.5"/>
<text text-anchor="middle" x="1457" y="-119.5" font-family="FreeSans" font-size="10.00">DGtal/base/Clock.h</text>
</a>
</g>
</g>
<!-- Node16&#45;&gt;Node19 -->
<g id="edge24" class="edge"><title>Node16&#45;&gt;Node19</title>
<path fill="none" stroke="midnightblue" d="M2196.2,-176.753C2170.18,-173.856 2138.49,-170.507 2110,-168 1996.8,-158.039 1661.93,-136.177 1520.83,-127.089"/>
<polygon fill="midnightblue" stroke="midnightblue" points="1520.81,-123.58 1510.61,-126.431 1520.36,-130.566 1520.81,-123.58"/>
</g>
<!-- Node22 -->
<g id="node23" class="node"><title>Node22</title>
<g id="a_node23"><a xlink:href="TraceWriter_8h_source.html" target="_top" xlink:title="DGtal/base/TraceWriter.h">
<polygon fill="white" stroke="black" points="1851.5,-56.5 1851.5,-75.5 1984.5,-75.5 1984.5,-56.5 1851.5,-56.5"/>
<text text-anchor="middle" x="1918" y="-63.5" font-family="FreeSans" font-size="10.00">DGtal/base/TraceWriter.h</text>
</a>
</g>
</g>
<!-- Node16&#45;&gt;Node22 -->
<g id="edge28" class="edge"><title>Node16&#45;&gt;Node22</title>
<path fill="none" stroke="midnightblue" d="M2245.76,-174.294C2237.77,-158.915 2218.94,-127.138 2193,-112 2160.19,-92.8549 2064.17,-80.2655 1994.82,-73.3927"/>
<polygon fill="midnightblue" stroke="midnightblue" points="1995.08,-69.902 1984.79,-72.4201 1994.41,-76.8693 1995.08,-69.902"/>
</g>
<!-- Node16&#45;&gt;Node23 -->
<g id="edge31" class="edge"><title>Node16&#45;&gt;Node23</title>
<path fill="none" stroke="midnightblue" d="M2212.66,-174.423C2202.71,-172.232 2191.97,-169.948 2182,-168 2114.16,-154.744 2036.08,-141.708 1982.53,-133.107"/>
<polygon fill="midnightblue" stroke="midnightblue" points="1982.92,-129.625 1972.49,-131.501 1981.81,-136.537 1982.92,-129.625"/>
</g>
<!-- Node16&#45;&gt;Node24 -->
<g id="edge36" class="edge"><title>Node16&#45;&gt;Node24</title>
<path fill="none" stroke="midnightblue" d="M2274.18,-174.403C2307.56,-163.866 2367.9,-145.978 2409.26,-134.328"/>
<polygon fill="midnightblue" stroke="midnightblue" points="2410.39,-137.646 2419.07,-131.581 2408.5,-130.905 2410.39,-137.646"/>
</g>
<!-- Node26 -->
<g id="node27" class="node"><title>Node26</title>
<g id="a_node27"><a xlink:href="Trace_8ih_source.html" target="_top" xlink:title="DGtal/base/Trace.ih">
<polygon fill="white" stroke="black" points="2075.5,-112.5 2075.5,-131.5 2184.5,-131.5 2184.5,-112.5 2075.5,-112.5"/>
<text text-anchor="middle" x="2130" y="-119.5" font-family="FreeSans" font-size="10.00">DGtal/base/Trace.ih</text>
</a>
</g>
</g>
<!-- Node16&#45;&gt;Node26 -->
<g id="edge40" class="edge"><title>Node16&#45;&gt;Node26</title>
<path fill="none" stroke="midnightblue" d="M2232.81,-174.403C2212.76,-164.379 2179.4,-147.701 2156.14,-136.07"/>
<polygon fill="midnightblue" stroke="midnightblue" points="2157.67,-132.922 2147.16,-131.581 2154.54,-139.183 2157.67,-132.922"/>
</g>
<!-- Node19&#45;&gt;Node1 -->
<g id="edge25" class="edge"><title>Node19&#45;&gt;Node1</title>
<path fill="none" stroke="midnightblue" d="M1451.49,-112.156C1442.04,-97.8175 1421.3,-69.7224 1396,-56 1327.84,-19.0339 1235.53,-11.5535 1183.65,-10.5378"/>
<polygon fill="midnightblue" stroke="midnightblue" points="1183.57,-7.03663 1173.53,-10.4124 1183.48,-14.0361 1183.57,-7.03663"/>
</g>
<!-- Node20 -->
<g id="node21" class="node"><title>Node20</title>
<polygon fill="white" stroke="#bfbfbf" points="1340.5,-56.5 1340.5,-75.5 1387.5,-75.5 1387.5,-56.5 1340.5,-56.5"/>
<text text-anchor="middle" x="1364" y="-63.5" font-family="FreeSans" font-size="10.00">cstdlib</text>
</g>
<!-- Node19&#45;&gt;Node20 -->
<g id="edge26" class="edge"><title>Node19&#45;&gt;Node20</title>
<path fill="none" stroke="midnightblue" d="M1442.06,-112.324C1427.41,-103.822 1404.87,-90.7288 1387.76,-80.7975"/>
<polygon fill="midnightblue" stroke="midnightblue" points="1389.31,-77.6491 1378.9,-75.6545 1385.8,-83.7027 1389.31,-77.6491"/>
</g>
<!-- Node21 -->
<g id="node22" class="node"><title>Node21</title>
<g id="a_node22"><a xlink:href="Clock_8ih_source.html" target="_top" xlink:title="DGtal/base/Clock.ih">
<polygon fill="white" stroke="black" points="1444,-56.5 1444,-75.5 1554,-75.5 1554,-56.5 1444,-56.5"/>
<text text-anchor="middle" x="1499" y="-63.5" font-family="FreeSans" font-size="10.00">DGtal/base/Clock.ih</text>
</a>
</g>
</g>
<!-- Node19&#45;&gt;Node21 -->
<g id="edge27" class="edge"><title>Node19&#45;&gt;Node21</title>
<path fill="none" stroke="midnightblue" d="M1463.94,-112.083C1469.93,-104.377 1478.75,-93.0333 1486.05,-83.6531"/>
<polygon fill="midnightblue" stroke="midnightblue" points="1488.82,-85.7934 1492.19,-75.7511 1483.29,-81.4958 1488.82,-85.7934"/>
</g>
<!-- Node22&#45;&gt;Node1 -->
<g id="edge29" class="edge"><title>Node22&#45;&gt;Node1</title>
<path fill="none" stroke="midnightblue" d="M1851.32,-58.7828C1840.2,-57.8077 1828.77,-56.8444 1818,-56 1577.24,-37.1309 1287.69,-19.5006 1183.64,-13.3256"/>
<polygon fill="midnightblue" stroke="midnightblue" points="1183.77,-9.82755 1173.58,-12.7304 1183.36,-16.8153 1183.77,-9.82755"/>
</g>
<!-- Node22&#45;&gt;Node17 -->
<g id="edge30" class="edge"><title>Node22&#45;&gt;Node17</title>
<path fill="none" stroke="midnightblue" d="M1937.01,-56.4435C1956.59,-47.6356 1987.31,-33.8116 2009.73,-23.722"/>
<polygon fill="midnightblue" stroke="midnightblue" points="2011.39,-26.8119 2019.07,-19.5164 2008.52,-20.4284 2011.39,-26.8119"/>
</g>
<!-- Node23&#45;&gt;Node1 -->
<g id="edge32" class="edge"><title>Node23&#45;&gt;Node1</title>
<path fill="none" stroke="midnightblue" d="M1890.99,-112.485C1845.06,-98.3639 1748.6,-70.2487 1665,-56 1486.98,-25.6576 1271.06,-15.2994 1183.61,-12.1886"/>
<polygon fill="midnightblue" stroke="midnightblue" points="1183.71,-8.69003 1173.59,-11.8443 1183.47,-15.6859 1183.71,-8.69003"/>
</g>
<!-- Node23&#45;&gt;Node14 -->
<g id="edge35" class="edge"><title>Node23&#45;&gt;Node14</title>
<path fill="none" stroke="midnightblue" d="M1975.99,-112.444C2041.66,-102.755 2148.46,-86.9978 2217.46,-76.8171"/>
<polygon fill="midnightblue" stroke="midnightblue" points="2218.4,-80.2171 2227.78,-75.2948 2217.38,-73.292 2218.4,-80.2171"/>
</g>
<!-- Node23&#45;&gt;Node15 -->
<g id="edge33" class="edge"><title>Node23&#45;&gt;Node15</title>
<path fill="none" stroke="midnightblue" d="M1946.41,-112.46C2013.49,-92.301 2181.31,-41.8619 2251.91,-20.6443"/>
<polygon fill="midnightblue" stroke="midnightblue" points="2253.03,-23.9632 2261.6,-17.7329 2251.01,-17.2594 2253.03,-23.9632"/>
</g>
<!-- Node23&#45;&gt;Node22 -->
<g id="edge34" class="edge"><title>Node23&#45;&gt;Node22</title>
<path fill="none" stroke="midnightblue" d="M1918,-112.083C1918,-105.006 1918,-94.8611 1918,-85.9865"/>
<polygon fill="midnightblue" stroke="midnightblue" points="1921.5,-85.751 1918,-75.7511 1914.5,-85.7511 1921.5,-85.751"/>
</g>
<!-- Node24&#45;&gt;Node15 -->
<g id="edge39" class="edge"><title>Node24&#45;&gt;Node15</title>
<path fill="none" stroke="midnightblue" d="M2487.95,-112.429C2524.31,-101.882 2573.08,-82.1131 2551,-56 2521.3,-20.8798 2381.01,-13.1575 2316.54,-11.4682"/>
<polygon fill="midnightblue" stroke="midnightblue" points="2316.23,-7.96023 2306.15,-11.2314 2316.07,-14.9584 2316.23,-7.96023"/>
</g>
<!-- Node24&#45;&gt;Node16 -->
<g id="edge37" class="edge"><title>Node24&#45;&gt;Node16</title>
<path fill="none" stroke="midnightblue" d="M2428.87,-131.581C2395.52,-142.11 2335.18,-159.998 2293.81,-171.655"/>
<polygon fill="midnightblue" stroke="midnightblue" points="2292.67,-168.338 2283.99,-174.403 2294.56,-175.079 2292.67,-168.338"/>
</g>
<!-- Node25 -->
<g id="node26" class="node"><title>Node25</title>
<polygon fill="white" stroke="#bfbfbf" points="2396,-56.5 2396,-75.5 2542,-75.5 2542,-56.5 2396,-56.5"/>
<text text-anchor="middle" x="2469" y="-63.5" font-family="FreeSans" font-size="10.00">boost/current_function.hpp</text>
</g>
<!-- Node24&#45;&gt;Node25 -->
<g id="edge38" class="edge"><title>Node24&#45;&gt;Node25</title>
<path fill="none" stroke="midnightblue" d="M2455.64,-112.083C2457.79,-104.849 2460.88,-94.4087 2463.55,-85.3968"/>
<polygon fill="midnightblue" stroke="midnightblue" points="2466.92,-86.3334 2466.41,-75.7511 2460.21,-84.3447 2466.92,-86.3334"/>
</g>
<!-- Node27&#45;&gt;Node1 -->
<g id="edge43" class="edge"><title>Node27&#45;&gt;Node1</title>
<path fill="none" stroke="midnightblue" d="M1735.23,-112.413C1714.66,-97.9204 1670.33,-68.9232 1628,-56 1545.17,-30.7125 1284.07,-17.0483 1183.78,-12.6236"/>
<polygon fill="midnightblue" stroke="midnightblue" points="1183.89,-9.1253 1173.75,-12.1884 1183.59,-16.1187 1183.89,-9.1253"/>
</g>
<!-- Node27&#45;&gt;Node15 -->
<g id="edge44" class="edge"><title>Node27&#45;&gt;Node15</title>
<path fill="none" stroke="midnightblue" d="M1756.08,-112.41C1772.02,-97.913 1806.72,-68.9094 1842,-56 1917.52,-28.3671 2163.27,-15.8939 2251.83,-12.2179"/>
<polygon fill="midnightblue" stroke="midnightblue" points="2251.97,-15.7149 2261.82,-11.8128 2251.69,-8.72061 2251.97,-15.7149"/>
</g>
<!-- Node27&#45;&gt;Node22 -->
<g id="edge45" class="edge"><title>Node27&#45;&gt;Node22</title>
<path fill="none" stroke="midnightblue" d="M1774.1,-112.444C1802.99,-103.32 1848.92,-88.8133 1881.11,-78.6509"/>
<polygon fill="midnightblue" stroke="midnightblue" points="1882.55,-81.8654 1891.03,-75.5164 1880.44,-75.1903 1882.55,-81.8654"/>
</g>
<!-- Node28&#45;&gt;Node1 -->
<g id="edge48" class="edge"><title>Node28&#45;&gt;Node1</title>
<path fill="none" stroke="midnightblue" d="M1061.1,-112.494C1080.05,-105.459 1104.35,-93.7146 1120,-76 1131.56,-62.9109 1137.73,-43.7614 1140.9,-29.6358"/>
<polygon fill="midnightblue" stroke="midnightblue" points="1144.38,-30.0798 1142.85,-19.5962 1137.51,-28.7465 1144.38,-30.0798"/>
</g>
<!-- Node29&#45;&gt;Node1 -->
<g id="edge51" class="edge"><title>Node29&#45;&gt;Node1</title>
<path fill="none" stroke="midnightblue" d="M842.745,-112.158C850.939,-97.8231 869.18,-69.7327 893,-56 959.92,-17.4201 1052.22,-10.5257 1104.21,-10.0469"/>
<polygon fill="midnightblue" stroke="midnightblue" points="1104.37,-13.5467 1114.36,-10.031 1104.36,-6.54674 1104.37,-13.5467"/>
</g>
<!-- Node29&#45;&gt;Node20 -->
<g id="edge50" class="edge"><title>Node29&#45;&gt;Node20</title>
<path fill="none" stroke="midnightblue" d="M905.153,-114.106C1018.7,-102.449 1244.59,-79.2583 1330.12,-70.4779"/>
<polygon fill="midnightblue" stroke="midnightblue" points="1330.72,-73.9355 1340.31,-69.4325 1330,-66.9721 1330.72,-73.9355"/>
</g>
<!-- Node30 -->
<g id="node31" class="node"><title>Node30</title>
<polygon fill="white" stroke="#bfbfbf" points="902,-56.5 902,-75.5 1002,-75.5 1002,-56.5 902,-56.5"/>
<text text-anchor="middle" x="952" y="-63.5" font-family="FreeSans" font-size="10.00">boost/cstdint.hpp</text>
</g>
<!-- Node29&#45;&gt;Node30 -->
<g id="edge52" class="edge"><title>Node29&#45;&gt;Node30</title>
<path fill="none" stroke="midnightblue" d="M856.064,-112.444C874.575,-103.675 903.581,-89.9355 924.855,-79.8579"/>
<polygon fill="midnightblue" stroke="midnightblue" points="926.482,-82.9604 934.021,-75.5164 923.485,-76.6343 926.482,-82.9604"/>
</g>
<!-- Node31 -->
<g id="node32" class="node"><title>Node31</title>
<polygon fill="white" stroke="#bfbfbf" points="1020,-56.5 1020,-75.5 1078,-75.5 1078,-56.5 1020,-56.5"/>
<text text-anchor="middle" x="1049" y="-63.5" font-family="FreeSans" font-size="10.00">gmpxx.h</text>
</g>
<!-- Node29&#45;&gt;Node31 -->
<g id="edge53" class="edge"><title>Node29&#45;&gt;Node31</title>
<path fill="none" stroke="midnightblue" d="M871.434,-112.444C909.062,-102.814 970.119,-87.1876 1009.92,-77.0018"/>
<polygon fill="midnightblue" stroke="midnightblue" points="1010.98,-80.3431 1019.8,-74.473 1009.24,-73.5617 1010.98,-80.3431"/>
</g>
<!-- Node32&#45;&gt;Node2 -->
<g id="edge64" class="edge"><title>Node32&#45;&gt;Node2</title>
<path fill="none" stroke="midnightblue" d="M532.014,-193.561C544.917,-195.707 558.454,-197.974 571,-200 648.559,-212.525 737.746,-226.001 795.699,-234.907"/>
<polygon fill="midnightblue" stroke="midnightblue" points="795.374,-238.398 805.79,-236.461 796.439,-231.48 795.374,-238.398"/>
</g>
<!-- Node32&#45;&gt;Node4 -->
<g id="edge55" class="edge"><title>Node32&#45;&gt;Node4</title>
<path fill="none" stroke="midnightblue" d="M462.333,-174.376C451.102,-165.278 434.845,-149.808 428,-132 421.298,-114.563 433.572,-95.912 445.388,-83.081"/>
<polygon fill="midnightblue" stroke="midnightblue" points="447.949,-85.4692 452.511,-75.907 442.982,-80.5369 447.949,-85.4692"/>
</g>
<!-- Node32&#45;&gt;Node12 -->
<g id="edge57" class="edge"><title>Node32&#45;&gt;Node12</title>
<path fill="none" stroke="midnightblue" d="M513.415,-174.45C555.89,-165.125 625.703,-149.475 695.405,-132.071"/>
<polygon fill="midnightblue" stroke="midnightblue" points="696.39,-135.433 705.237,-129.604 694.686,-128.643 696.39,-135.433"/>
</g>
<!-- Node33 -->
<g id="node34" class="node"><title>Node33</title>
<polygon fill="white" stroke="#bfbfbf" points="624.5,-112.5 624.5,-131.5 687.5,-131.5 687.5,-112.5 624.5,-112.5"/>
<text text-anchor="middle" x="656" y="-119.5" font-family="FreeSans" font-size="10.00">functional</text>
</g>
<!-- Node32&#45;&gt;Node33 -->
<g id="edge56" class="edge"><title>Node32&#45;&gt;Node33</title>
<path fill="none" stroke="midnightblue" d="M500.076,-174.403C531.566,-164.022 584.698,-146.506 620.058,-134.849"/>
<polygon fill="midnightblue" stroke="midnightblue" points="621.571,-138.036 629.972,-131.581 619.379,-131.388 621.571,-138.036"/>
</g>
<!-- Node34 -->
<g id="node35" class="node"><title>Node34</title>
<g id="a_node35"><a xlink:href="Color_8h_source.html" target="_top" xlink:title="DGtal/io/Color.h">
<polygon fill="white" stroke="black" points="252.5,-112.5 252.5,-131.5 343.5,-131.5 343.5,-112.5 252.5,-112.5"/>
<text text-anchor="middle" x="298" y="-119.5" font-family="FreeSans" font-size="10.00">DGtal/io/Color.h</text>
</a>
</g>
</g>
<!-- Node32&#45;&gt;Node34 -->
<g id="edge58" class="edge"><title>Node32&#45;&gt;Node34</title>
<path fill="none" stroke="midnightblue" d="M448.783,-174.403C418.332,-164.022 366.951,-146.506 332.757,-134.849"/>
<polygon fill="midnightblue" stroke="midnightblue" points="333.764,-131.495 323.17,-131.581 331.505,-138.12 333.764,-131.495"/>
</g>
<!-- Node37 -->
<g id="node38" class="node"><title>Node37</title>
<g id="a_node38"><a xlink:href="BasicBoolFunctors_8h_source.html" target="_top" xlink:title="DGtal/base/BasicBoolFunctors.h">
<polygon fill="white" stroke="black" points="437.5,-112.5 437.5,-131.5 606.5,-131.5 606.5,-112.5 437.5,-112.5"/>
<text text-anchor="middle" x="522" y="-119.5" font-family="FreeSans" font-size="10.00">DGtal/base/BasicBoolFunctors.h</text>
</a>
</g>
</g>
<!-- Node32&#45;&gt;Node37 -->
<g id="edge65" class="edge"><title>Node32&#45;&gt;Node37</title>
<path fill="none" stroke="midnightblue" d="M480.877,-174.403C488.149,-165.314 499.795,-150.756 508.841,-139.449"/>
<polygon fill="midnightblue" stroke="midnightblue" points="511.622,-141.576 515.136,-131.581 506.155,-137.203 511.622,-141.576"/>
</g>
<!-- Node34&#45;&gt;Node1 -->
<g id="edge59" class="edge"><title>Node34&#45;&gt;Node1</title>
<path fill="none" stroke="midnightblue" d="M252.266,-113.741C205.184,-104.462 142.435,-85.9165 171,-56 203.74,-21.7113 925.944,-12.9634 1104.4,-11.3221"/>
<polygon fill="midnightblue" stroke="midnightblue" points="1104.44,-14.822 1114.41,-11.2323 1104.38,-7.82227 1104.44,-14.822"/>
</g>
<!-- Node34&#45;&gt;Node2 -->
<g id="edge60" class="edge"><title>Node34&#45;&gt;Node2</title>
<path fill="none" stroke="midnightblue" d="M301.774,-131.591C309.563,-148.154 329.137,-184.255 358,-200 429.415,-238.958 662.867,-245.01 783.443,-245.444"/>
<polygon fill="midnightblue" stroke="midnightblue" points="783.683,-248.944 793.691,-245.468 783.699,-241.944 783.683,-248.944"/>
</g>
<!-- Node34&#45;&gt;Node4 -->
<g id="edge62" class="edge"><title>Node34&#45;&gt;Node4</title>
<path fill="none" stroke="midnightblue" d="M324.145,-112.444C352.023,-103.32 396.348,-88.8133 427.4,-78.6509"/>
<polygon fill="midnightblue" stroke="midnightblue" points="428.562,-81.9533 436.978,-75.5164 426.385,-75.3005 428.562,-81.9533"/>
</g>
<!-- Node35 -->
<g id="node36" class="node"><title>Node35</title>
<polygon fill="white" stroke="#bfbfbf" points="292,-56.5 292,-75.5 414,-75.5 414,-56.5 292,-56.5"/>
<text text-anchor="middle" x="353" y="-63.5" font-family="FreeSans" font-size="10.00">boost/lexical_cast.hpp</text>
</g>
<!-- Node34&#45;&gt;Node35 -->
<g id="edge61" class="edge"><title>Node34&#45;&gt;Node35</title>
<path fill="none" stroke="midnightblue" d="M307.082,-112.083C315.171,-104.141 327.195,-92.3354 336.91,-82.7973"/>
<polygon fill="midnightblue" stroke="midnightblue" points="339.403,-85.2545 344.087,-75.7511 334.499,-80.2595 339.403,-85.2545"/>
</g>
<!-- Node36 -->
<g id="node37" class="node"><title>Node36</title>
<g id="a_node37"><a xlink:href="Color_8ih_source.html" target="_top" xlink:title="DGtal/io/Color.ih">
<polygon fill="white" stroke="black" points="180.5,-56.5 180.5,-75.5 273.5,-75.5 273.5,-56.5 180.5,-56.5"/>
<text text-anchor="middle" x="227" y="-63.5" font-family="FreeSans" font-size="10.00">DGtal/io/Color.ih</text>
</a>
</g>
</g>
<!-- Node34&#45;&gt;Node36 -->
<g id="edge63" class="edge"><title>Node34&#45;&gt;Node36</title>
<path fill="none" stroke="midnightblue" d="M286.593,-112.324C275.891,-104.185 259.659,-91.8395 246.837,-82.0874"/>
<polygon fill="midnightblue" stroke="midnightblue" points="248.693,-79.1018 238.615,-75.8339 244.456,-84.6734 248.693,-79.1018"/>
</g>
<!-- Node37&#45;&gt;Node1 -->
<g id="edge66" class="edge"><title>Node37&#45;&gt;Node1</title>
<path fill="none" stroke="midnightblue" d="M521.672,-112.164C521.674,-97.837 524.002,-69.758 541,-56 584.652,-20.6677 976.638,-12.9612 1104.13,-11.3834"/>
<polygon fill="midnightblue" stroke="midnightblue" points="1104.28,-14.8819 1114.24,-11.2643 1104.2,-7.88238 1104.28,-14.8819"/>
</g>
<!-- Node38 -->
<g id="node39" class="node"><title>Node38</title>
<polygon fill="white" stroke="#bfbfbf" points="740,-56.5 740,-75.5 846,-75.5 846,-56.5 740,-56.5"/>
<text text-anchor="middle" x="793" y="-63.5" font-family="FreeSans" font-size="10.00">boost/function.hpp</text>
</g>
<!-- Node37&#45;&gt;Node38 -->
<g id="edge67" class="edge"><title>Node37&#45;&gt;Node38</title>
<path fill="none" stroke="midnightblue" d="M564.941,-112.444C612.513,-102.964 689.244,-87.6747 740.389,-77.4835"/>
<polygon fill="midnightblue" stroke="midnightblue" points="741.137,-80.9032 750.26,-75.5164 739.769,-74.0382 741.137,-80.9032"/>
</g>
<!-- Node39 -->
<g id="node40" class="node"><title>Node39</title>
<g id="a_node40"><a xlink:href="BasicBoolFunctors_8ih_source.html" target="_top" xlink:title="DGtal/base/BasicBoolFunctors.ih">
<polygon fill="white" stroke="black" points="550.5,-56.5 550.5,-75.5 721.5,-75.5 721.5,-56.5 550.5,-56.5"/>
<text text-anchor="middle" x="636" y="-63.5" font-family="FreeSans" font-size="10.00">DGtal/base/BasicBoolFunctors.ih</text>
</a>
</g>
</g>
<!-- Node37&#45;&gt;Node39 -->
<g id="edge68" class="edge"><title>Node37&#45;&gt;Node39</title>
<path fill="none" stroke="midnightblue" d="M540.064,-112.444C558.575,-103.675 587.581,-89.9355 608.855,-79.8579"/>
<polygon fill="midnightblue" stroke="midnightblue" points="610.482,-82.9604 618.021,-75.5164 607.485,-76.6343 610.482,-82.9604"/>
</g>
<!-- Node40&#45;&gt;Node1 -->
<g id="edge70" class="edge"><title>Node40&#45;&gt;Node1</title>
<path fill="none" stroke="midnightblue" d="M1198.37,-112.368C1188.72,-94.376 1166.29,-52.5503 1153.45,-28.6267"/>
<polygon fill="midnightblue" stroke="midnightblue" points="1156.42,-26.7495 1148.61,-19.5914 1150.25,-30.0582 1156.42,-26.7495"/>
</g>
<!-- Node41&#45;&gt;Node1 -->
<g id="edge72" class="edge"><title>Node41&#45;&gt;Node1</title>
<path fill="none" stroke="midnightblue" d="M945.125,-174.46C956.672,-172.171 969.307,-169.828 981,-168 1049.74,-157.256 1245.72,-183.947 1292,-132 1333.03,-85.9473 1236.49,-42.9916 1180.5,-22.9059"/>
<polygon fill="midnightblue" stroke="midnightblue" points="1181.49,-19.5428 1170.89,-19.5396 1179.17,-26.1491 1181.49,-19.5428"/>
</g>
<!-- Node42&#45;&gt;Node1 -->
<g id="edge74" class="edge"><title>Node42&#45;&gt;Node1</title>
<path fill="none" stroke="midnightblue" d="M267.804,-404.482C189.233,-388.666 38,-351.874 38,-303 38,-303 38,-303 38,-121 38,-82.2823 61.0127,-72.5817 96,-56 188.323,-12.2447 924.066,-10.6218 1104.27,-10.8877"/>
<polygon fill="midnightblue" stroke="midnightblue" points="1104.36,-14.3878 1114.37,-10.9055 1104.37,-7.38776 1104.36,-14.3878"/>
</g>
<!-- Node42&#45;&gt;Node2 -->
<g id="edge75" class="edge"><title>Node42&#45;&gt;Node2</title>
<path fill="none" stroke="midnightblue" d="M342.051,-404.425C432.53,-376.764 716.73,-289.882 819.471,-258.473"/>
<polygon fill="midnightblue" stroke="midnightblue" points="820.577,-261.795 829.117,-255.524 818.531,-255.101 820.577,-261.795"/>
</g>
<!-- Node43 -->
<g id="node44" class="node"><title>Node43</title>
<g id="a_node44"><a xlink:href="CowPtr_8h_source.html" target="_top" xlink:title="DGtal/base/CowPtr.h">
<polygon fill="white" stroke="black" points="191,-348.5 191,-367.5 305,-367.5 305,-348.5 191,-348.5"/>
<text text-anchor="middle" x="248" y="-355.5" font-family="FreeSans" font-size="10.00">DGtal/base/CowPtr.h</text>
</a>
</g>
</g>
<!-- Node42&#45;&gt;Node43 -->
<g id="edge76" class="edge"><title>Node42&#45;&gt;Node43</title>
<path fill="none" stroke="midnightblue" d="M303.396,-404.324C293.544,-396.263 278.649,-384.077 266.785,-374.369"/>
<polygon fill="midnightblue" stroke="midnightblue" points="268.753,-371.457 258.797,-367.834 264.32,-376.875 268.753,-371.457"/>
</g>
<!-- Node48 -->
<g id="node49" class="node"><title>Node48</title>
<g id="a_node49"><a xlink:href="Signal_8ih_source.html" target="_top" xlink:title="DGtal/math/Signal.ih">
<polygon fill="white" stroke="black" points="323,-348.5 323,-367.5 439,-367.5 439,-348.5 323,-348.5"/>
<text text-anchor="middle" x="381" y="-355.5" font-family="FreeSans" font-size="10.00">DGtal/math/Signal.ih</text>
</a>
</g>
</g>
<!-- Node42&#45;&gt;Node48 -->
<g id="edge85" class="edge"><title>Node42&#45;&gt;Node48</title>
<path fill="none" stroke="midnightblue" d="M324.765,-404.324C334.766,-396.263 349.887,-384.077 361.93,-374.369"/>
<polygon fill="midnightblue" stroke="midnightblue" points="364.45,-376.834 370.039,-367.834 360.057,-371.384 364.45,-376.834"/>
</g>
<!-- Node43&#45;&gt;Node1 -->
<g id="edge77" class="edge"><title>Node43&#45;&gt;Node1</title>
<path fill="none" stroke="midnightblue" d="M190.654,-353.369C158.588,-348.418 120.137,-337.179 95,-312 73.7354,-290.7 76,-277.098 76,-247 76,-247 76,-247 76,-121 76,-79.5116 104.91,-72.4458 143,-56 232.31,-17.4392 929.757,-11.9086 1104.44,-11.1268"/>
<polygon fill="midnightblue" stroke="midnightblue" points="1104.49,-14.6267 1114.48,-11.0846 1104.46,-7.62675 1104.49,-14.6267"/>
</g>
<!-- Node43&#45;&gt;Node2 -->
<g id="edge79" class="edge"><title>Node43&#45;&gt;Node2</title>
<path fill="none" stroke="midnightblue" d="M295.28,-348.46C405.667,-328.522 680.044,-278.963 799.69,-257.352"/>
<polygon fill="midnightblue" stroke="midnightblue" points="800.531,-260.756 809.75,-255.535 799.287,-253.868 800.531,-260.756"/>
</g>
<!-- Node44 -->
<g id="node45" class="node"><title>Node44</title>
<polygon fill="white" stroke="#bfbfbf" points="104,-292.5 104,-311.5 172,-311.5 172,-292.5 104,-292.5"/>
<text text-anchor="middle" x="138" y="-299.5" font-family="FreeSans" font-size="10.00">type_traits</text>
</g>
<!-- Node43&#45;&gt;Node44 -->
<g id="edge78" class="edge"><title>Node43&#45;&gt;Node44</title>
<path fill="none" stroke="midnightblue" d="M230.327,-348.324C212.606,-339.625 185.097,-326.12 164.712,-316.113"/>
<polygon fill="midnightblue" stroke="midnightblue" points="166.149,-312.919 155.63,-311.655 163.064,-319.203 166.149,-312.919"/>
</g>
<!-- Node45 -->
<g id="node46" class="node"><title>Node45</title>
<g id="a_node46"><a xlink:href="CountedPtr_8h_source.html" target="_top" xlink:title="DGtal/base/CountedPtr.h">
<polygon fill="white" stroke="black" points="324.5,-292.5 324.5,-311.5 459.5,-311.5 459.5,-292.5 324.5,-292.5"/>
<text text-anchor="middle" x="392" y="-299.5" font-family="FreeSans" font-size="10.00">DGtal/base/CountedPtr.h</text>
</a>
</g>
</g>
<!-- Node43&#45;&gt;Node45 -->
<g id="edge80" class="edge"><title>Node43&#45;&gt;Node45</title>
<path fill="none" stroke="midnightblue" d="M270.817,-348.444C294.832,-339.438 332.829,-325.189 359.869,-315.049"/>
<polygon fill="midnightblue" stroke="midnightblue" points="361.155,-318.305 369.29,-311.516 358.697,-311.751 361.155,-318.305"/>
</g>
<!-- Node47 -->
<g id="node48" class="node"><title>Node47</title>
<g id="a_node48"><a xlink:href="CowPtr_8ih_source.html" target="_top" xlink:title="DGtal/base/CowPtr.ih">
<polygon fill="white" stroke="black" points="190,-292.5 190,-311.5 306,-311.5 306,-292.5 190,-292.5"/>
<text text-anchor="middle" x="248" y="-299.5" font-family="FreeSans" font-size="10.00">DGtal/base/CowPtr.ih</text>
</a>
</g>
</g>
<!-- Node43&#45;&gt;Node47 -->
<g id="edge84" class="edge"><title>Node43&#45;&gt;Node47</title>
<path fill="none" stroke="midnightblue" d="M248,-348.083C248,-341.006 248,-330.861 248,-321.986"/>
<polygon fill="midnightblue" stroke="midnightblue" points="251.5,-321.751 248,-311.751 244.5,-321.751 251.5,-321.751"/>
</g>
<!-- Node45&#45;&gt;Node1 -->
<g id="edge81" class="edge"><title>Node45&#45;&gt;Node1</title>
<path fill="none" stroke="midnightblue" d="M371.865,-292.294C300.994,-260.56 71.9899,-148.127 160,-56 193.136,-21.314 924.279,-12.8604 1104.25,-11.3021"/>
<polygon fill="midnightblue" stroke="midnightblue" points="1104.37,-14.8013 1114.34,-11.2171 1104.31,-7.80159 1104.37,-14.8013"/>
</g>
<!-- Node45&#45;&gt;Node2 -->
<g id="edge82" class="edge"><title>Node45&#45;&gt;Node2</title>
<path fill="none" stroke="midnightblue" d="M459.615,-293.148C545.959,-283.121 694.812,-265.835 783.77,-255.504"/>
<polygon fill="midnightblue" stroke="midnightblue" points="784.252,-258.972 793.781,-254.342 783.444,-252.019 784.252,-258.972"/>
</g>
<!-- Node46 -->
<g id="node47" class="node"><title>Node46</title>
<g id="a_node47"><a xlink:href="CountedPtr_8ih_source.html" target="_top" xlink:title="DGtal/base/CountedPtr.ih">
<polygon fill="white" stroke="black" points="104.5,-236.5 104.5,-255.5 241.5,-255.5 241.5,-236.5 104.5,-236.5"/>
<text text-anchor="middle" x="173" y="-243.5" font-family="FreeSans" font-size="10.00">DGtal/base/CountedPtr.ih</text>
</a>
</g>
</g>
<!-- Node45&#45;&gt;Node46 -->
<g id="edge83" class="edge"><title>Node45&#45;&gt;Node46</title>
<path fill="none" stroke="midnightblue" d="M357.299,-292.444C319.415,-283.102 258.651,-268.119 217.338,-257.933"/>
<polygon fill="midnightblue" stroke="midnightblue" points="218.086,-254.512 207.539,-255.516 216.41,-261.309 218.086,-254.512"/>
</g>
</g>
</svg>
