<?xml version="1.0" encoding="UTF-8" standalone="no"?>
<!DOCTYPE svg PUBLIC "-//W3C//DTD SVG 1.1//EN"
 "http://www.w3.org/Graphics/SVG/1.1/DTD/svg11.dtd">
<!-- Generated by graphviz version 2.38.0 (20140413.2041)
 -->
<!-- Title: testBasicFunctors.cpp Pages: 1 -->
<svg width="2344pt" height="375pt"
 viewBox="0.00 0.00 2343.99 375.00" xmlns="http://www.w3.org/2000/svg" xmlns:xlink="http://www.w3.org/1999/xlink">
<g id="graph0" class="graph" transform="scale(1 1) rotate(0) translate(4 371)">
<title>testBasicFunctors.cpp</title>
<polygon fill="white" stroke="none" points="-4,4 -4,-371 2339.99,-371 2339.99,4 -4,4"/>
<!-- Node0 -->
<g id="node1" class="node"><title>Node0</title>
<polygon fill="#bfbfbf" stroke="black" points="1848.99,-347.5 1848.99,-366.5 1970.99,-366.5 1970.99,-347.5 1848.99,-347.5"/>
<text text-anchor="middle" x="1909.99" y="-354.5" font-family="FreeSans" font-size="10.00">testBasicFunctors.cpp</text>
</g>
<!-- Node1 -->
<g id="node2" class="node"><title>Node1</title>
<polygon fill="white" stroke="#bfbfbf" points="1194.49,-0.5 1194.49,-19.5 1253.49,-19.5 1253.49,-0.5 1194.49,-0.5"/>
<text text-anchor="middle" x="1223.99" y="-7.5" font-family="FreeSans" font-size="10.00">iostream</text>
</g>
<!-- Node0&#45;&gt;Node1 -->
<g id="edge1" class="edge"><title>Node0&#45;&gt;Node1</title>
<path fill="none" stroke="midnightblue" d="M1971.03,-352.925C2088.82,-345.315 2335.99,-320.475 2335.99,-246 2335.99,-246 2335.99,-246 2335.99,-121 2335.99,-88.3976 2329.53,-73.4638 2301.99,-56 2257.36,-27.6882 1453.28,-14.3171 1263.77,-11.5511"/>
<polygon fill="midnightblue" stroke="midnightblue" points="1263.74,-8.05039 1253.69,-11.4056 1263.64,-15.0497 1263.74,-8.05039"/>
</g>
<!-- Node2 -->
<g id="node3" class="node"><title>Node2</title>
<polygon fill="white" stroke="#bfbfbf" points="1878.49,-112.5 1878.49,-131.5 1941.49,-131.5 1941.49,-112.5 1878.49,-112.5"/>
<text text-anchor="middle" x="1909.99" y="-119.5" font-family="FreeSans" font-size="10.00">functional</text>
</g>
<!-- Node0&#45;&gt;Node2 -->
<g id="edge2" class="edge"><title>Node0&#45;&gt;Node2</title>
<path fill="none" stroke="midnightblue" d="M1909.99,-347.431C1909.99,-313.754 1909.99,-189.994 1909.99,-142.102"/>
<polygon fill="midnightblue" stroke="midnightblue" points="1913.49,-141.896 1909.99,-131.896 1906.49,-141.896 1913.49,-141.896"/>
</g>
<!-- Node3 -->
<g id="node4" class="node"><title>Node3</title>
<g id="a_node4"><a xlink:href="Common_8h_source.html" target="_top" xlink:title="DGtal/base/Common.h">
<polygon fill="white" stroke="black" points="1110.99,-235.5 1110.99,-254.5 1236.99,-254.5 1236.99,-235.5 1110.99,-235.5"/>
<text text-anchor="middle" x="1173.99" y="-242.5" font-family="FreeSans" font-size="10.00">DGtal/base/Common.h</text>
</a>
</g>
</g>
<!-- Node0&#45;&gt;Node3 -->
<g id="edge3" class="edge"><title>Node0&#45;&gt;Node3</title>
<path fill="none" stroke="midnightblue" d="M1852.85,-347.46C1718.78,-327.421 1384.52,-277.464 1241.09,-256.028"/>
<polygon fill="midnightblue" stroke="midnightblue" points="1241.51,-252.551 1231.1,-254.535 1240.47,-259.474 1241.51,-252.551"/>
</g>
<!-- Node33 -->
<g id="node34" class="node"><title>Node33</title>
<g id="a_node34"><a xlink:href="BasicFunctors_8h_source.html" target="_top" xlink:title="DGtal/base/BasicFunctors.h">
<polygon fill="white" stroke="black" points="1733.99,-174 1733.99,-193 1881.99,-193 1881.99,-174 1733.99,-174"/>
<text text-anchor="middle" x="1807.99" y="-181" font-family="FreeSans" font-size="10.00">DGtal/base/BasicFunctors.h</text>
</a>
</g>
</g>
<!-- Node0&#45;&gt;Node33 -->
<g id="edge78" class="edge"><title>Node0&#45;&gt;Node33</title>
<path fill="none" stroke="midnightblue" d="M1904.8,-347.26C1888.77,-320.306 1839.88,-238.116 1818.36,-201.924"/>
<polygon fill="midnightblue" stroke="midnightblue" points="1821.18,-199.825 1813.06,-193.019 1815.17,-203.403 1821.18,-199.825"/>
</g>
<!-- Node42 -->
<g id="node43" class="node"><title>Node42</title>
<g id="a_node43"><a xlink:href="CUnaryFunctor_8h_source.html" target="_top" xlink:title="DGtal/base/CUnaryFunctor.h">
<polygon fill="white" stroke="black" points="1937.99,-291.5 1937.99,-310.5 2089.99,-310.5 2089.99,-291.5 1937.99,-291.5"/>
<text text-anchor="middle" x="2013.99" y="-298.5" font-family="FreeSans" font-size="10.00">DGtal/base/CUnaryFunctor.h</text>
</a>
</g>
</g>
<!-- Node0&#45;&gt;Node42 -->
<g id="edge74" class="edge"><title>Node0&#45;&gt;Node42</title>
<path fill="none" stroke="midnightblue" d="M1926.7,-347.324C1943.31,-338.703 1969,-325.364 1988.22,-315.386"/>
<polygon fill="midnightblue" stroke="midnightblue" points="1990.06,-318.369 1997.33,-310.655 1986.84,-312.156 1990.06,-318.369"/>
</g>
<!-- Node3&#45;&gt;Node1 -->
<g id="edge4" class="edge"><title>Node3&#45;&gt;Node1</title>
<path fill="none" stroke="midnightblue" d="M1167.34,-235.21C1151.98,-213.811 1116.69,-157.426 1133.99,-112 1147.94,-75.3793 1181.94,-43.5903 1203.93,-25.8911"/>
<polygon fill="midnightblue" stroke="midnightblue" points="1206.25,-28.522 1211.97,-19.6092 1201.94,-23.0045 1206.25,-28.522"/>
</g>
<!-- Node4 -->
<g id="node5" class="node"><title>Node4</title>
<polygon fill="white" stroke="#bfbfbf" points="1259.49,-174 1259.49,-193 1322.49,-193 1322.49,-174 1259.49,-174"/>
<text text-anchor="middle" x="1290.99" y="-181" font-family="FreeSans" font-size="10.00">exception</text>
</g>
<!-- Node3&#45;&gt;Node4 -->
<g id="edge5" class="edge"><title>Node3&#45;&gt;Node4</title>
<path fill="none" stroke="midnightblue" d="M1190.76,-235.475C1210.22,-225.578 1242.54,-209.142 1265.21,-197.615"/>
<polygon fill="midnightblue" stroke="midnightblue" points="1266.94,-200.662 1274.26,-193.009 1263.76,-194.422 1266.94,-200.662"/>
</g>
<!-- Node5 -->
<g id="node6" class="node"><title>Node5</title>
<polygon fill="white" stroke="#bfbfbf" points="1817.99,-56.5 1817.99,-75.5 1879.99,-75.5 1879.99,-56.5 1817.99,-56.5"/>
<text text-anchor="middle" x="1848.99" y="-63.5" font-family="FreeSans" font-size="10.00">algorithm</text>
</g>
<!-- Node3&#45;&gt;Node5 -->
<g id="edge6" class="edge"><title>Node3&#45;&gt;Node5</title>
<path fill="none" stroke="midnightblue" d="M1237.07,-242.864C1355.17,-240.014 1604.98,-230.364 1684.99,-199 1705.94,-190.792 1706.13,-180.254 1724.99,-168 1753.34,-149.583 1765.54,-153.044 1791.99,-132 1809.53,-118.05 1826,-98.2641 1836.68,-84.1934"/>
<polygon fill="midnightblue" stroke="midnightblue" points="1839.69,-86.0131 1842.82,-75.891 1834.06,-81.8521 1839.69,-86.0131"/>
</g>
<!-- Node6 -->
<g id="node7" class="node"><title>Node6</title>
<polygon fill="white" stroke="#bfbfbf" points="1416.99,-174 1416.99,-193 1518.99,-193 1518.99,-174 1416.99,-174"/>
<text text-anchor="middle" x="1467.99" y="-181" font-family="FreeSans" font-size="10.00">boost/version.hpp</text>
</g>
<!-- Node3&#45;&gt;Node6 -->
<g id="edge7" class="edge"><title>Node3&#45;&gt;Node6</title>
<path fill="none" stroke="midnightblue" d="M1219.25,-235.459C1265.5,-226.648 1339.35,-212.35 1402.99,-199 1408.72,-197.799 1414.72,-196.506 1420.67,-195.204"/>
<polygon fill="midnightblue" stroke="midnightblue" points="1421.55,-198.594 1430.56,-193.021 1420.05,-191.758 1421.55,-198.594"/>
</g>
<!-- Node7 -->
<g id="node8" class="node"><title>Node7</title>
<polygon fill="white" stroke="#bfbfbf" points="1537.49,-174 1537.49,-193 1676.49,-193 1676.49,-174 1537.49,-174"/>
<text text-anchor="middle" x="1606.99" y="-181" font-family="FreeSans" font-size="10.00">boost/concept_check.hpp</text>
</g>
<!-- Node3&#45;&gt;Node7 -->
<g id="edge8" class="edge"><title>Node3&#45;&gt;Node7</title>
<path fill="none" stroke="midnightblue" d="M1237.13,-237.037C1308.05,-228.969 1426.52,-214.75 1527.99,-199 1536.03,-197.753 1544.5,-196.322 1552.79,-194.856"/>
<polygon fill="midnightblue" stroke="midnightblue" points="1553.56,-198.275 1562.78,-193.059 1552.32,-191.385 1553.56,-198.275"/>
</g>
<!-- Node8 -->
<g id="node9" class="node"><title>Node8</title>
<polygon fill="white" stroke="#bfbfbf" points="53.4948,-174 53.4948,-193 182.495,-193 182.495,-174 53.4948,-174"/>
<text text-anchor="middle" x="117.995" y="-181" font-family="FreeSans" font-size="10.00">boost/static_assert.hpp</text>
</g>
<!-- Node3&#45;&gt;Node8 -->
<g id="edge9" class="edge"><title>Node3&#45;&gt;Node8</title>
<path fill="none" stroke="midnightblue" d="M1110.76,-244.389C954.219,-244.639 536.325,-240.959 190.995,-199 182.605,-197.981 173.737,-196.536 165.183,-194.949"/>
<polygon fill="midnightblue" stroke="midnightblue" points="165.817,-191.507 155.333,-193.038 164.484,-198.379 165.817,-191.507"/>
</g>
<!-- Node9 -->
<g id="node10" class="node"><title>Node9</title>
<polygon fill="white" stroke="#bfbfbf" points="200.495,-174 200.495,-193 339.495,-193 339.495,-174 200.495,-174"/>
<text text-anchor="middle" x="269.995" y="-181" font-family="FreeSans" font-size="10.00">boost/concept/assert.hpp</text>
</g>
<!-- Node3&#45;&gt;Node9 -->
<g id="edge10" class="edge"><title>Node3&#45;&gt;Node9</title>
<path fill="none" stroke="midnightblue" d="M1110.89,-243.287C972.456,-241.125 631.925,-232.544 348.995,-199 339.843,-197.915 330.15,-196.424 320.807,-194.808"/>
<polygon fill="midnightblue" stroke="midnightblue" points="321.308,-191.342 310.847,-193.02 320.071,-198.232 321.308,-191.342"/>
</g>
<!-- Node10 -->
<g id="node11" class="node"><title>Node10</title>
<polygon fill="white" stroke="#bfbfbf" points="357.995,-174 357.995,-193 505.995,-193 505.995,-174 357.995,-174"/>
<text text-anchor="middle" x="431.995" y="-181" font-family="FreeSans" font-size="10.00">boost/concept/requires.hpp</text>
</g>
<!-- Node3&#45;&gt;Node10 -->
<g id="edge11" class="edge"><title>Node3&#45;&gt;Node10</title>
<path fill="none" stroke="midnightblue" d="M1110.63,-241.882C992.931,-237.459 732.721,-225.378 514.995,-199 505.51,-197.851 495.463,-196.344 485.757,-194.738"/>
<polygon fill="midnightblue" stroke="midnightblue" points="486.251,-191.271 475.804,-193.037 485.072,-198.171 486.251,-191.271"/>
</g>
<!-- Node11 -->
<g id="node12" class="node"><title>Node11</title>
<polygon fill="white" stroke="#bfbfbf" points="523.995,-168.5 523.995,-198.5 643.995,-198.5 643.995,-168.5 523.995,-168.5"/>
<text text-anchor="start" x="531.995" y="-186.5" font-family="FreeSans" font-size="10.00">boost/iterator/iterator</text>
<text text-anchor="middle" x="583.995" y="-175.5" font-family="FreeSans" font-size="10.00">_concepts.hpp</text>
</g>
<!-- Node3&#45;&gt;Node11 -->
<g id="edge12" class="edge"><title>Node3&#45;&gt;Node11</title>
<path fill="none" stroke="midnightblue" d="M1110.62,-241.078C1014.02,-236.064 824.015,-224.003 654.466,-199.271"/>
<polygon fill="midnightblue" stroke="midnightblue" points="654.763,-195.777 644.359,-197.778 653.74,-202.702 654.763,-195.777"/>
</g>
<!-- Node12 -->
<g id="node13" class="node"><title>Node12</title>
<polygon fill="white" stroke="#bfbfbf" points="661.495,-174 661.495,-193 820.495,-193 820.495,-174 661.495,-174"/>
<text text-anchor="middle" x="740.995" y="-181" font-family="FreeSans" font-size="10.00">boost/concept_archetype.hpp</text>
</g>
<!-- Node3&#45;&gt;Node12 -->
<g id="edge13" class="edge"><title>Node3&#45;&gt;Node12</title>
<path fill="none" stroke="midnightblue" d="M1110.95,-236.422C1041.72,-227.95 927.294,-213.505 828.995,-199 819.996,-197.672 810.492,-196.19 801.19,-194.694"/>
<polygon fill="midnightblue" stroke="midnightblue" points="801.64,-191.222 791.208,-193.073 800.518,-198.131 801.64,-191.222"/>
</g>
<!-- Node13 -->
<g id="node14" class="node"><title>Node13</title>
<polygon fill="white" stroke="#bfbfbf" points="1627.49,-112.5 1627.49,-131.5 1674.49,-131.5 1674.49,-112.5 1627.49,-112.5"/>
<text text-anchor="middle" x="1650.99" y="-119.5" font-family="FreeSans" font-size="10.00">cmath</text>
</g>
<!-- Node3&#45;&gt;Node13 -->
<g id="edge14" class="edge"><title>Node3&#45;&gt;Node13</title>
<path fill="none" stroke="midnightblue" d="M1182.42,-235.261C1201.32,-215.712 1245.76,-170.003 1249.99,-168 1395.67,-99.1575 1454.08,-159.279 1617.42,-131.725"/>
<polygon fill="midnightblue" stroke="midnightblue" points="1618.08,-135.164 1627.31,-129.973 1616.85,-128.272 1618.08,-135.164"/>
</g>
<!-- Node14 -->
<g id="node15" class="node"><title>Node14</title>
<polygon fill="white" stroke="#bfbfbf" points="963.495,-174 963.495,-193 1012.49,-193 1012.49,-174 963.495,-174"/>
<text text-anchor="middle" x="987.995" y="-181" font-family="FreeSans" font-size="10.00">stdio.h</text>
</g>
<!-- Node3&#45;&gt;Node14 -->
<g id="edge15" class="edge"><title>Node3&#45;&gt;Node14</title>
<path fill="none" stroke="midnightblue" d="M1144.27,-235.458C1114.46,-226.762 1067.32,-212.654 1026.99,-199 1024.6,-198.189 1022.13,-197.329 1019.65,-196.448"/>
<polygon fill="midnightblue" stroke="midnightblue" points="1020.78,-193.134 1010.19,-193.009 1018.39,-199.713 1020.78,-193.134"/>
</g>
<!-- Node15 -->
<g id="node16" class="node"><title>Node15</title>
<g id="a_node16"><a xlink:href="Config_8h_source.html" target="_top" xlink:title="DGtal/base/Config.h">
<polygon fill="white" stroke="black" points="339.995,-56.5 339.995,-75.5 451.995,-75.5 451.995,-56.5 339.995,-56.5"/>
<text text-anchor="middle" x="395.995" y="-63.5" font-family="FreeSans" font-size="10.00">DGtal/base/Config.h</text>
</a>
</g>
</g>
<!-- Node3&#45;&gt;Node15 -->
<g id="edge16" class="edge"><title>Node3&#45;&gt;Node15</title>
<path fill="none" stroke="midnightblue" d="M1110.83,-243.905C876.516,-243.249 68.6295,-238.146 30.9948,-199 -40.4944,-124.641 19.3665,-154.754 155.995,-112 188.121,-101.947 272.751,-87.0488 332.379,-77.1859"/>
<polygon fill="midnightblue" stroke="midnightblue" points="333.162,-80.6041 342.461,-75.5266 332.025,-73.697 333.162,-80.6041"/>
</g>
<!-- Node17 -->
<g id="node18" class="node"><title>Node17</title>
<g id="a_node18"><a xlink:href="Trace_8h_source.html" target="_top" xlink:title="DGtal/base/Trace.h">
<polygon fill="white" stroke="black" points="838.495,-174 838.495,-193 945.495,-193 945.495,-174 838.495,-174"/>
<text text-anchor="middle" x="891.995" y="-181" font-family="FreeSans" font-size="10.00">DGtal/base/Trace.h</text>
</a>
</g>
</g>
<!-- Node3&#45;&gt;Node17 -->
<g id="edge19" class="edge"><title>Node3&#45;&gt;Node17</title>
<path fill="none" stroke="midnightblue" d="M1130.51,-235.478C1086.07,-226.682 1015.12,-212.395 953.995,-199 948.663,-197.832 943.082,-196.574 937.546,-195.306"/>
<polygon fill="midnightblue" stroke="midnightblue" points="938.224,-191.871 927.692,-193.029 936.647,-198.691 938.224,-191.871"/>
</g>
<!-- Node24 -->
<g id="node25" class="node"><title>Node24</title>
<g id="a_node25"><a xlink:href="TraceWriterTerm_8h_source.html" target="_top" xlink:title="DGtal/base/TraceWriterTerm.h">
<polygon fill="white" stroke="black" points="599.495,-112.5 599.495,-131.5 756.495,-131.5 756.495,-112.5 599.495,-112.5"/>
<text text-anchor="middle" x="677.995" y="-119.5" font-family="FreeSans" font-size="10.00">DGtal/base/TraceWriterTerm.h</text>
</a>
</g>
</g>
<!-- Node3&#45;&gt;Node24 -->
<g id="edge42" class="edge"><title>Node3&#45;&gt;Node24</title>
<path fill="none" stroke="midnightblue" d="M1141.93,-235.481C1117.08,-228.047 1082.39,-215.809 1054.99,-199 1037.57,-188.304 1039.54,-176.615 1020.99,-168 1009.32,-162.578 859.466,-144.238 761.733,-132.712"/>
<polygon fill="midnightblue" stroke="midnightblue" points="761.902,-129.208 751.562,-131.515 761.084,-136.16 761.902,-129.208"/>
</g>
<!-- Node25 -->
<g id="node26" class="node"><title>Node25</title>
<g id="a_node26"><a xlink:href="Assert_8h_source.html" target="_top" xlink:title="DGtal/base/Assert.h">
<polygon fill="white" stroke="black" points="165.495,-112.5 165.495,-131.5 278.495,-131.5 278.495,-112.5 165.495,-112.5"/>
<text text-anchor="middle" x="221.995" y="-119.5" font-family="FreeSans" font-size="10.00">DGtal/base/Assert.h</text>
</a>
</g>
</g>
<!-- Node3&#45;&gt;Node25 -->
<g id="edge47" class="edge"><title>Node3&#45;&gt;Node25</title>
<path fill="none" stroke="midnightblue" d="M1110.75,-243.875C878.073,-243.11 81.1508,-237.665 43.9948,-199 5.7615,-159.214 89.8216,-139.198 155.013,-129.96"/>
<polygon fill="midnightblue" stroke="midnightblue" points="155.853,-133.379 165.293,-128.569 154.914,-126.442 155.853,-133.379"/>
</g>
<!-- Node28 -->
<g id="node29" class="node"><title>Node28</title>
<g id="a_node29"><a xlink:href="TraceWriterFile_8h_source.html" target="_top" xlink:title="DGtal/base/TraceWriterFile.h">
<polygon fill="white" stroke="black" points="774.495,-112.5 774.495,-131.5 923.495,-131.5 923.495,-112.5 774.495,-112.5"/>
<text text-anchor="middle" x="848.995" y="-119.5" font-family="FreeSans" font-size="10.00">DGtal/base/TraceWriterFile.h</text>
</a>
</g>
</g>
<!-- Node3&#45;&gt;Node28 -->
<g id="edge43" class="edge"><title>Node3&#45;&gt;Node28</title>
<path fill="none" stroke="midnightblue" d="M1160.36,-235.408C1146.05,-226.377 1122.91,-211.741 1102.99,-199 1081.6,-185.313 1078.44,-177.755 1054.99,-168 1014.26,-151.054 966.231,-140.091 926.797,-133.233"/>
<polygon fill="midnightblue" stroke="midnightblue" points="927.148,-129.742 916.705,-131.534 925.986,-136.645 927.148,-129.742"/>
</g>
<!-- Node29 -->
<g id="node30" class="node"><title>Node29</title>
<g id="a_node30"><a xlink:href="ConceptUtils_8h_source.html" target="_top" xlink:title="DGtal/base/ConceptUtils.h">
<polygon fill="white" stroke="black" points="1938.49,-174 1938.49,-193 2081.49,-193 2081.49,-174 1938.49,-174"/>
<text text-anchor="middle" x="2009.99" y="-181" font-family="FreeSans" font-size="10.00">DGtal/base/ConceptUtils.h</text>
</a>
</g>
</g>
<!-- Node3&#45;&gt;Node29 -->
<g id="edge48" class="edge"><title>Node3&#45;&gt;Node29</title>
<path fill="none" stroke="midnightblue" d="M1237.39,-241.27C1362.53,-235.606 1650.05,-221.221 1890.99,-199 1905.48,-197.664 1920.92,-195.978 1935.72,-194.231"/>
<polygon fill="midnightblue" stroke="midnightblue" points="1936.33,-197.683 1945.84,-193.016 1935.49,-190.733 1936.33,-197.683"/>
</g>
<!-- Node30 -->
<g id="node31" class="node"><title>Node30</title>
<g id="a_node31"><a xlink:href="BasicTypes_8h_source.html" target="_top" xlink:title="DGtal/base/BasicTypes.h">
<polygon fill="white" stroke="black" points="1474.99,-112.5 1474.99,-131.5 1608.99,-131.5 1608.99,-112.5 1474.99,-112.5"/>
<text text-anchor="middle" x="1541.99" y="-119.5" font-family="FreeSans" font-size="10.00">DGtal/base/BasicTypes.h</text>
</a>
</g>
</g>
<!-- Node3&#45;&gt;Node30 -->
<g id="edge50" class="edge"><title>Node3&#45;&gt;Node30</title>
<path fill="none" stroke="midnightblue" d="M1218.4,-235.443C1250.66,-228.244 1294.81,-216.323 1330.99,-199 1352.57,-188.671 1353.34,-178.156 1374.99,-168 1409.24,-151.941 1450.22,-140.79 1483.01,-133.606"/>
<polygon fill="midnightblue" stroke="midnightblue" points="1483.86,-137.005 1492.91,-131.502 1482.4,-130.157 1483.86,-137.005"/>
</g>
<!-- Node3&#45;&gt;Node33 -->
<g id="edge55" class="edge"><title>Node3&#45;&gt;Node33</title>
<path fill="none" stroke="midnightblue" d="M1237.31,-240.104C1337.94,-233.848 1540.14,-220.082 1710.99,-199 1721.01,-197.764 1731.63,-196.218 1742.04,-194.599"/>
<polygon fill="midnightblue" stroke="midnightblue" points="1742.61,-198.053 1751.94,-193.033 1741.52,-191.139 1742.61,-198.053"/>
</g>
<!-- Node40 -->
<g id="node41" class="node"><title>Node40</title>
<g id="a_node41"><a xlink:href="BasicArchetypes_8h_source.html" target="_top" xlink:title="DGtal/base/BasicArchetypes.h">
<polygon fill="white" stroke="black" points="1143.49,-112.5 1143.49,-131.5 1304.49,-131.5 1304.49,-112.5 1143.49,-112.5"/>
<text text-anchor="middle" x="1223.99" y="-119.5" font-family="FreeSans" font-size="10.00">DGtal/base/BasicArchetypes.h</text>
</a>
</g>
</g>
<!-- Node3&#45;&gt;Node40 -->
<g id="edge70" class="edge"><title>Node3&#45;&gt;Node40</title>
<path fill="none" stroke="midnightblue" d="M1172.63,-235.085C1170.8,-220.371 1168.84,-190.401 1178.99,-168 1184.3,-156.289 1194.08,-145.926 1203.17,-138.106"/>
<polygon fill="midnightblue" stroke="midnightblue" points="1205.58,-140.665 1211.18,-131.673 1201.19,-135.208 1205.58,-140.665"/>
</g>
<!-- Node41 -->
<g id="node42" class="node"><title>Node41</title>
<g id="a_node42"><a xlink:href="Exceptions_8h_source.html" target="_top" xlink:title="DGtal/base/Exceptions.h">
<polygon fill="white" stroke="black" points="1322.99,-112.5 1322.99,-131.5 1456.99,-131.5 1456.99,-112.5 1322.99,-112.5"/>
<text text-anchor="middle" x="1389.99" y="-119.5" font-family="FreeSans" font-size="10.00">DGtal/base/Exceptions.h</text>
</a>
</g>
</g>
<!-- Node3&#45;&gt;Node41 -->
<g id="edge72" class="edge"><title>Node3&#45;&gt;Node41</title>
<path fill="none" stroke="midnightblue" d="M1176.39,-235.45C1181.27,-219.618 1193.91,-185.735 1216.99,-168 1234.71,-154.389 1287.21,-141.856 1329.77,-133.492"/>
<polygon fill="midnightblue" stroke="midnightblue" points="1330.63,-136.891 1339.79,-131.563 1329.31,-130.017 1330.63,-136.891"/>
</g>
<!-- Node15&#45;&gt;Node1 -->
<g id="edge17" class="edge"><title>Node15&#45;&gt;Node1</title>
<path fill="none" stroke="midnightblue" d="M452.256,-61.3308C609.073,-51.1036 1048.42,-22.4504 1183.78,-13.6226"/>
<polygon fill="midnightblue" stroke="midnightblue" points="1184.35,-17.0932 1194.1,-12.9498 1183.89,-10.1081 1184.35,-17.0932"/>
</g>
<!-- Node16 -->
<g id="node17" class="node"><title>Node16</title>
<polygon fill="white" stroke="#bfbfbf" points="373.995,-0.5 373.995,-19.5 417.995,-19.5 417.995,-0.5 373.995,-0.5"/>
<text text-anchor="middle" x="395.995" y="-7.5" font-family="FreeSans" font-size="10.00">string</text>
</g>
<!-- Node15&#45;&gt;Node16 -->
<g id="edge18" class="edge"><title>Node15&#45;&gt;Node16</title>
<path fill="none" stroke="midnightblue" d="M395.995,-56.083C395.995,-49.0059 395.995,-38.8611 395.995,-29.9865"/>
<polygon fill="midnightblue" stroke="midnightblue" points="399.495,-29.751 395.995,-19.7511 392.495,-29.7511 399.495,-29.751"/>
</g>
<!-- Node17&#45;&gt;Node1 -->
<g id="edge20" class="edge"><title>Node17&#45;&gt;Node1</title>
<path fill="none" stroke="midnightblue" d="M929.45,-173.979C971.476,-163.913 1036.46,-146.679 1056.99,-132 1090.91,-107.751 1079.14,-81.6691 1111.99,-56 1133.28,-39.3679 1161.54,-28.0751 1184.34,-20.9619"/>
<polygon fill="midnightblue" stroke="midnightblue" points="1185.47,-24.2762 1194.06,-18.0749 1183.48,-17.5657 1185.47,-24.2762"/>
</g>
<!-- Node17&#45;&gt;Node15 -->
<g id="edge24" class="edge"><title>Node17&#45;&gt;Node15</title>
<path fill="none" stroke="midnightblue" d="M859.155,-173.935C849.497,-171.69 838.873,-169.485 828.995,-168 774.133,-159.754 368.783,-172.618 330.995,-132 313.838,-113.558 342.545,-93.1481 367.084,-80.2074"/>
<polygon fill="midnightblue" stroke="midnightblue" points="368.819,-83.2528 376.18,-75.6332 365.674,-76.999 368.819,-83.2528"/>
</g>
<!-- Node17&#45;&gt;Node16 -->
<g id="edge22" class="edge"><title>Node17&#45;&gt;Node16</title>
<path fill="none" stroke="midnightblue" d="M859.821,-173.968C849.992,-171.667 839.108,-169.423 828.995,-168 754.841,-157.563 207.513,-186.347 155.995,-132 145.252,-120.667 133.346,-85.3415 158.995,-56 185.397,-25.7959 305.008,-15.5971 363.537,-12.3767"/>
<polygon fill="midnightblue" stroke="midnightblue" points="363.912,-15.8622 373.719,-11.8534 363.553,-8.87142 363.912,-15.8622"/>
</g>
<!-- Node18 -->
<g id="node19" class="node"><title>Node18</title>
<polygon fill="white" stroke="#bfbfbf" points="534.495,-0.5 534.495,-19.5 591.495,-19.5 591.495,-0.5 534.495,-0.5"/>
<text text-anchor="middle" x="562.995" y="-7.5" font-family="FreeSans" font-size="10.00">ostream</text>
</g>
<!-- Node17&#45;&gt;Node18 -->
<g id="edge21" class="edge"><title>Node17&#45;&gt;Node18</title>
<path fill="none" stroke="midnightblue" d="M859.15,-173.967C849.492,-171.723 838.869,-169.51 828.995,-168 777.769,-160.167 399.195,-170.031 363.995,-132 357.957,-125.477 358.919,-119.297 363.995,-112 390.251,-74.2487 419.818,-96.4711 460.995,-76 490.834,-61.1653 522.875,-39.7445 542.921,-25.6038"/>
<polygon fill="midnightblue" stroke="midnightblue" points="545.131,-28.3271 551.237,-19.6689 541.064,-22.6294 545.131,-28.3271"/>
</g>
<!-- Node19 -->
<g id="node20" class="node"><title>Node19</title>
<polygon fill="white" stroke="#bfbfbf" points="538.995,-112.5 538.995,-131.5 580.995,-131.5 580.995,-112.5 538.995,-112.5"/>
<text text-anchor="middle" x="559.995" y="-119.5" font-family="FreeSans" font-size="10.00">stack</text>
</g>
<!-- Node17&#45;&gt;Node19 -->
<g id="edge23" class="edge"><title>Node17&#45;&gt;Node19</title>
<path fill="none" stroke="midnightblue" d="M857.106,-173.968C847.986,-171.876 838.146,-169.74 828.995,-168 726.556,-148.526 696.56,-155.074 590.972,-131.945"/>
<polygon fill="midnightblue" stroke="midnightblue" points="591.723,-128.526 581.202,-129.768 590.201,-135.359 591.723,-128.526"/>
</g>
<!-- Node20 -->
<g id="node21" class="node"><title>Node20</title>
<g id="a_node21"><a xlink:href="Clock_8h_source.html" target="_top" xlink:title="DGtal/base/Clock.h">
<polygon fill="white" stroke="black" points="941.495,-112.5 941.495,-131.5 1048.49,-131.5 1048.49,-112.5 941.495,-112.5"/>
<text text-anchor="middle" x="994.995" y="-119.5" font-family="FreeSans" font-size="10.00">DGtal/base/Clock.h</text>
</a>
</g>
</g>
<!-- Node17&#45;&gt;Node20 -->
<g id="edge25" class="edge"><title>Node17&#45;&gt;Node20</title>
<path fill="none" stroke="midnightblue" d="M906.752,-173.975C923.655,-164.211 951.578,-148.081 971.485,-136.581"/>
<polygon fill="midnightblue" stroke="midnightblue" points="973.356,-139.542 980.265,-131.509 969.855,-133.481 973.356,-139.542"/>
</g>
<!-- Node23 -->
<g id="node24" class="node"><title>Node23</title>
<g id="a_node24"><a xlink:href="TraceWriter_8h_source.html" target="_top" xlink:title="DGtal/base/TraceWriter.h">
<polygon fill="white" stroke="black" points="580.495,-56.5 580.495,-75.5 713.495,-75.5 713.495,-56.5 580.495,-56.5"/>
<text text-anchor="middle" x="646.995" y="-63.5" font-family="FreeSans" font-size="10.00">DGtal/base/TraceWriter.h</text>
</a>
</g>
</g>
<!-- Node17&#45;&gt;Node23 -->
<g id="edge29" class="edge"><title>Node17&#45;&gt;Node23</title>
<path fill="none" stroke="midnightblue" d="M857.798,-173.933C848.495,-171.793 838.392,-169.642 828.995,-168 763.07,-156.478 574.399,-182.071 529.995,-132 506.992,-106.062 550.542,-88.2793 590.883,-77.9565"/>
<polygon fill="midnightblue" stroke="midnightblue" points="591.868,-81.3191 600.758,-75.5548 590.214,-74.5174 591.868,-81.3191"/>
</g>
<!-- Node17&#45;&gt;Node24 -->
<g id="edge32" class="edge"><title>Node17&#45;&gt;Node24</title>
<path fill="none" stroke="midnightblue" d="M861.334,-173.975C823.751,-163.526 759.951,-145.787 718.397,-134.233"/>
<polygon fill="midnightblue" stroke="midnightblue" points="719.171,-130.816 708.599,-131.509 717.296,-137.56 719.171,-130.816"/>
</g>
<!-- Node17&#45;&gt;Node25 -->
<g id="edge37" class="edge"><title>Node17&#45;&gt;Node25</title>
<path fill="none" stroke="midnightblue" d="M850.876,-173.978C840.741,-171.706 829.987,-169.476 819.995,-168 587.143,-133.607 523.436,-154.413 288.952,-132.446"/>
<polygon fill="midnightblue" stroke="midnightblue" points="289.028,-128.937 278.741,-131.473 288.364,-135.906 289.028,-128.937"/>
</g>
<!-- Node27 -->
<g id="node28" class="node"><title>Node27</title>
<g id="a_node28"><a xlink:href="Trace_8ih_source.html" target="_top" xlink:title="DGtal/base/Trace.ih">
<polygon fill="white" stroke="black" points="373.495,-112.5 373.495,-131.5 482.495,-131.5 482.495,-112.5 373.495,-112.5"/>
<text text-anchor="middle" x="427.995" y="-119.5" font-family="FreeSans" font-size="10.00">DGtal/base/Trace.ih</text>
</a>
</g>
</g>
<!-- Node17&#45;&gt;Node27 -->
<g id="edge41" class="edge"><title>Node17&#45;&gt;Node27</title>
<path fill="none" stroke="midnightblue" d="M858.139,-173.934C848.745,-171.769 838.512,-169.606 828.995,-168 682.642,-143.312 644.368,-149.599 496.995,-132 495.533,-131.825 494.054,-131.647 492.562,-131.466"/>
<polygon fill="midnightblue" stroke="midnightblue" points="492.948,-127.987 482.594,-130.233 492.089,-134.934 492.948,-127.987"/>
</g>
<!-- Node20&#45;&gt;Node1 -->
<g id="edge26" class="edge"><title>Node20&#45;&gt;Node1</title>
<path fill="none" stroke="midnightblue" d="M993.167,-112.113C990.873,-98.22 988.793,-71.3615 1002.99,-56 1027.02,-30.0163 1127.29,-18.2913 1184.16,-13.6434"/>
<polygon fill="midnightblue" stroke="midnightblue" points="1184.55,-17.1238 1194.25,-12.8561 1184.01,-10.145 1184.55,-17.1238"/>
</g>
<!-- Node21 -->
<g id="node22" class="node"><title>Node21</title>
<polygon fill="white" stroke="#bfbfbf" points="1012.49,-56.5 1012.49,-75.5 1059.49,-75.5 1059.49,-56.5 1012.49,-56.5"/>
<text text-anchor="middle" x="1035.99" y="-63.5" font-family="FreeSans" font-size="10.00">cstdlib</text>
</g>
<!-- Node20&#45;&gt;Node21 -->
<g id="edge27" class="edge"><title>Node20&#45;&gt;Node21</title>
<path fill="none" stroke="midnightblue" d="M1001.77,-112.083C1007.56,-104.455 1016.05,-93.2645 1023.13,-83.9408"/>
<polygon fill="midnightblue" stroke="midnightblue" points="1026.09,-85.8321 1029.35,-75.7511 1020.52,-81.5991 1026.09,-85.8321"/>
</g>
<!-- Node22 -->
<g id="node23" class="node"><title>Node22</title>
<g id="a_node23"><a xlink:href="Clock_8ih_source.html" target="_top" xlink:title="DGtal/base/Clock.ih">
<polygon fill="white" stroke="black" points="845.995,-56.5 845.995,-75.5 955.995,-75.5 955.995,-56.5 845.995,-56.5"/>
<text text-anchor="middle" x="900.995" y="-63.5" font-family="FreeSans" font-size="10.00">DGtal/base/Clock.ih</text>
</a>
</g>
</g>
<!-- Node20&#45;&gt;Node22 -->
<g id="edge28" class="edge"><title>Node20&#45;&gt;Node22</title>
<path fill="none" stroke="midnightblue" d="M979.892,-112.324C965.091,-103.822 942.301,-90.7288 925.013,-80.7975"/>
<polygon fill="midnightblue" stroke="midnightblue" points="926.475,-77.6009 916.06,-75.6545 922.988,-83.6707 926.475,-77.6009"/>
</g>
<!-- Node23&#45;&gt;Node1 -->
<g id="edge30" class="edge"><title>Node23&#45;&gt;Node1</title>
<path fill="none" stroke="midnightblue" d="M713.729,-57.4772C718.555,-56.9663 723.349,-56.4688 727.995,-56 897.531,-38.8924 1099.98,-21.4567 1184.2,-14.3361"/>
<polygon fill="midnightblue" stroke="midnightblue" points="1184.67,-17.8085 1194.34,-13.4799 1184.09,-10.8333 1184.67,-17.8085"/>
</g>
<!-- Node23&#45;&gt;Node18 -->
<g id="edge31" class="edge"><title>Node23&#45;&gt;Node18</title>
<path fill="none" stroke="midnightblue" d="M633.499,-56.324C620.395,-47.9002 600.283,-34.9709 584.888,-25.0741"/>
<polygon fill="midnightblue" stroke="midnightblue" points="586.762,-22.118 576.457,-19.6545 582.976,-28.0063 586.762,-22.118"/>
</g>
<!-- Node24&#45;&gt;Node1 -->
<g id="edge33" class="edge"><title>Node24&#45;&gt;Node1</title>
<path fill="none" stroke="midnightblue" d="M693.524,-112.36C720.013,-98.0548 776.022,-69.6753 826.995,-56 954.546,-21.7802 1111.95,-13.5699 1184.26,-11.6092"/>
<polygon fill="midnightblue" stroke="midnightblue" points="1184.39,-15.1072 1194.3,-11.3629 1184.22,-8.10933 1184.39,-15.1072"/>
</g>
<!-- Node24&#45;&gt;Node15 -->
<g id="edge36" class="edge"><title>Node24&#45;&gt;Node15</title>
<path fill="none" stroke="midnightblue" d="M633.311,-112.444C583.704,-102.944 503.63,-87.611 450.41,-77.4198"/>
<polygon fill="midnightblue" stroke="midnightblue" points="450.949,-73.9597 440.469,-75.5164 449.633,-80.8348 450.949,-73.9597"/>
</g>
<!-- Node24&#45;&gt;Node16 -->
<g id="edge34" class="edge"><title>Node24&#45;&gt;Node16</title>
<path fill="none" stroke="midnightblue" d="M655.867,-112.368C606.034,-92.9302 484.887,-45.6744 427.342,-23.2278"/>
<polygon fill="midnightblue" stroke="midnightblue" points="428.608,-19.9648 418.02,-19.5914 426.064,-26.4862 428.608,-19.9648"/>
</g>
<!-- Node24&#45;&gt;Node23 -->
<g id="edge35" class="edge"><title>Node24&#45;&gt;Node23</title>
<path fill="none" stroke="midnightblue" d="M672.876,-112.083C668.587,-104.613 662.337,-93.7244 657.052,-84.5199"/>
<polygon fill="midnightblue" stroke="midnightblue" points="660.033,-82.6811 652.019,-75.7511 653.962,-86.1662 660.033,-82.6811"/>
</g>
<!-- Node25&#45;&gt;Node16 -->
<g id="edge40" class="edge"><title>Node25&#45;&gt;Node16</title>
<path fill="none" stroke="midnightblue" d="M205.498,-112.442C183.772,-100.072 150.185,-76.4349 166.995,-56 191.539,-26.1631 306.601,-15.8074 363.695,-12.4659"/>
<polygon fill="midnightblue" stroke="midnightblue" points="364.178,-15.9448 373.972,-11.9039 363.796,-8.95521 364.178,-15.9448"/>
</g>
<!-- Node25&#45;&gt;Node17 -->
<g id="edge38" class="edge"><title>Node25&#45;&gt;Node17</title>
<path fill="none" stroke="midnightblue" d="M278.569,-129.438C286.471,-130.376 294.451,-131.269 301.995,-132 539.641,-155.023 601.798,-133.113 837.995,-168 844.552,-168.969 851.438,-170.262 858.04,-171.679"/>
<polygon fill="midnightblue" stroke="midnightblue" points="857.565,-175.161 868.093,-173.978 859.125,-168.337 857.565,-175.161"/>
</g>
<!-- Node26 -->
<g id="node27" class="node"><title>Node26</title>
<polygon fill="white" stroke="#bfbfbf" points="175.995,-56.5 175.995,-75.5 321.995,-75.5 321.995,-56.5 175.995,-56.5"/>
<text text-anchor="middle" x="248.995" y="-63.5" font-family="FreeSans" font-size="10.00">boost/current_function.hpp</text>
</g>
<!-- Node25&#45;&gt;Node26 -->
<g id="edge39" class="edge"><title>Node25&#45;&gt;Node26</title>
<path fill="none" stroke="midnightblue" d="M226.453,-112.083C230.149,-104.691 235.518,-93.9533 240.089,-84.8111"/>
<polygon fill="midnightblue" stroke="midnightblue" points="243.278,-86.2606 244.619,-75.7511 237.017,-83.1301 243.278,-86.2606"/>
</g>
<!-- Node28&#45;&gt;Node1 -->
<g id="edge44" class="edge"><title>Node28&#45;&gt;Node1</title>
<path fill="none" stroke="midnightblue" d="M843.349,-112.209C835.296,-98.4492 822.953,-71.7691 836.995,-56 859.838,-30.3463 1090.1,-17.0712 1184.22,-12.6825"/>
<polygon fill="midnightblue" stroke="midnightblue" points="1184.39,-16.1787 1194.22,-12.2262 1184.07,-9.18602 1184.39,-16.1787"/>
</g>
<!-- Node28&#45;&gt;Node16 -->
<g id="edge45" class="edge"><title>Node28&#45;&gt;Node16</title>
<path fill="none" stroke="midnightblue" d="M835.918,-112.412C813.575,-98.1833 766.173,-69.9137 721.995,-56 667.569,-38.8588 499.606,-21.0706 428.417,-14.0807"/>
<polygon fill="midnightblue" stroke="midnightblue" points="428.539,-10.5761 418.247,-13.0911 427.861,-17.5432 428.539,-10.5761"/>
</g>
<!-- Node28&#45;&gt;Node23 -->
<g id="edge46" class="edge"><title>Node28&#45;&gt;Node23</title>
<path fill="none" stroke="midnightblue" d="M816.987,-112.444C782.266,-103.162 726.707,-88.3093 688.618,-78.127"/>
<polygon fill="midnightblue" stroke="midnightblue" points="689.417,-74.7178 678.853,-75.5164 687.609,-81.4803 689.417,-74.7178"/>
</g>
<!-- Node29&#45;&gt;Node1 -->
<g id="edge49" class="edge"><title>Node29&#45;&gt;Node1</title>
<path fill="none" stroke="midnightblue" d="M2003.12,-173.699C1982.15,-147.117 1918.6,-68.6969 1888.99,-56 1831.66,-31.4107 1398.99,-16.3152 1264.06,-12.1683"/>
<polygon fill="midnightblue" stroke="midnightblue" points="1263.87,-8.66094 1253.76,-11.8555 1263.65,-15.6577 1263.87,-8.66094"/>
</g>
<!-- Node30&#45;&gt;Node1 -->
<g id="edge52" class="edge"><title>Node30&#45;&gt;Node1</title>
<path fill="none" stroke="midnightblue" d="M1490.61,-112.498C1436.54,-103.16 1355.27,-87.9087 1325.99,-76 1317.48,-72.5342 1272.85,-43.3697 1245.52,-25.3039"/>
<polygon fill="midnightblue" stroke="midnightblue" points="1247.26,-22.2605 1236.99,-19.6558 1243.4,-28.0962 1247.26,-22.2605"/>
</g>
<!-- Node30&#45;&gt;Node21 -->
<g id="edge51" class="edge"><title>Node30&#45;&gt;Node21</title>
<path fill="none" stroke="midnightblue" d="M1474.86,-113C1471.87,-112.659 1468.9,-112.324 1465.99,-112 1318.76,-95.579 1142.96,-77.7305 1070.16,-70.4161"/>
<polygon fill="midnightblue" stroke="midnightblue" points="1070.08,-66.8905 1059.78,-69.3746 1069.38,-73.8556 1070.08,-66.8905"/>
</g>
<!-- Node31 -->
<g id="node32" class="node"><title>Node31</title>
<polygon fill="white" stroke="#bfbfbf" points="1334.99,-56.5 1334.99,-75.5 1434.99,-75.5 1434.99,-56.5 1334.99,-56.5"/>
<text text-anchor="middle" x="1384.99" y="-63.5" font-family="FreeSans" font-size="10.00">boost/cstdint.hpp</text>
</g>
<!-- Node30&#45;&gt;Node31 -->
<g id="edge53" class="edge"><title>Node30&#45;&gt;Node31</title>
<path fill="none" stroke="midnightblue" d="M1517.12,-112.444C1490.71,-103.359 1448.78,-88.9388 1419.25,-78.7831"/>
<polygon fill="midnightblue" stroke="midnightblue" points="1420.35,-75.4593 1409.76,-75.5164 1418.07,-82.0787 1420.35,-75.4593"/>
</g>
<!-- Node32 -->
<g id="node33" class="node"><title>Node32</title>
<polygon fill="white" stroke="#bfbfbf" points="1452.99,-56.5 1452.99,-75.5 1510.99,-75.5 1510.99,-56.5 1452.99,-56.5"/>
<text text-anchor="middle" x="1481.99" y="-63.5" font-family="FreeSans" font-size="10.00">gmpxx.h</text>
</g>
<!-- Node30&#45;&gt;Node32 -->
<g id="edge54" class="edge"><title>Node30&#45;&gt;Node32</title>
<path fill="none" stroke="midnightblue" d="M1532.35,-112.324C1523.49,-104.341 1510.12,-92.3128 1499.39,-82.6529"/>
<polygon fill="midnightblue" stroke="midnightblue" points="1501.58,-79.922 1491.81,-75.8339 1496.9,-85.1251 1501.58,-79.922"/>
</g>
<!-- Node33&#45;&gt;Node2 -->
<g id="edge57" class="edge"><title>Node33&#45;&gt;Node2</title>
<path fill="none" stroke="midnightblue" d="M1822.61,-173.975C1839.35,-164.211 1867,-148.081 1886.71,-136.581"/>
<polygon fill="midnightblue" stroke="midnightblue" points="1888.53,-139.571 1895.41,-131.509 1885.01,-133.525 1888.53,-139.571"/>
</g>
<!-- Node33&#45;&gt;Node3 -->
<g id="edge65" class="edge"><title>Node33&#45;&gt;Node3</title>
<path fill="none" stroke="midnightblue" d="M1769.26,-193.033C1756.48,-195.198 1742.21,-197.369 1728.99,-199 1557.3,-220.185 1353.97,-233.982 1247.39,-240.195"/>
<polygon fill="midnightblue" stroke="midnightblue" points="1247.17,-236.703 1237.38,-240.773 1247.57,-243.691 1247.17,-236.703"/>
</g>
<!-- Node33&#45;&gt;Node5 -->
<g id="edge56" class="edge"><title>Node33&#45;&gt;Node5</title>
<path fill="none" stroke="midnightblue" d="M1811.06,-173.924C1814.65,-163.879 1820.76,-146.735 1825.99,-132 1831.57,-116.314 1837.87,-98.4891 1842.47,-85.4781"/>
<polygon fill="midnightblue" stroke="midnightblue" points="1845.85,-86.4284 1845.88,-75.8336 1839.25,-84.0967 1845.85,-86.4284"/>
</g>
<!-- Node33&#45;&gt;Node13 -->
<g id="edge58" class="edge"><title>Node33&#45;&gt;Node13</title>
<path fill="none" stroke="midnightblue" d="M1785.5,-173.975C1758.69,-163.813 1713.68,-146.756 1683.19,-135.2"/>
<polygon fill="midnightblue" stroke="midnightblue" points="1684.04,-131.78 1673.45,-131.509 1681.56,-138.326 1684.04,-131.78"/>
</g>
<!-- Node34 -->
<g id="node35" class="node"><title>Node34</title>
<g id="a_node35"><a xlink:href="Color_8h_source.html" target="_top" xlink:title="DGtal/io/Color.h">
<polygon fill="white" stroke="black" points="1692.49,-112.5 1692.49,-131.5 1783.49,-131.5 1783.49,-112.5 1692.49,-112.5"/>
<text text-anchor="middle" x="1737.99" y="-119.5" font-family="FreeSans" font-size="10.00">DGtal/io/Color.h</text>
</a>
</g>
</g>
<!-- Node33&#45;&gt;Node34 -->
<g id="edge59" class="edge"><title>Node33&#45;&gt;Node34</title>
<path fill="none" stroke="midnightblue" d="M1797.97,-173.975C1786.95,-164.608 1769.03,-149.384 1755.65,-138.008"/>
<polygon fill="midnightblue" stroke="midnightblue" points="1757.89,-135.319 1748.01,-131.509 1753.36,-140.652 1757.89,-135.319"/>
</g>
<!-- Node37 -->
<g id="node38" class="node"><title>Node37</title>
<g id="a_node38"><a xlink:href="BasicBoolFunctors_8h_source.html" target="_top" xlink:title="DGtal/base/BasicBoolFunctors.h">
<polygon fill="white" stroke="black" points="1997.49,-112.5 1997.49,-131.5 2166.49,-131.5 2166.49,-112.5 1997.49,-112.5"/>
<text text-anchor="middle" x="2081.99" y="-119.5" font-family="FreeSans" font-size="10.00">DGtal/base/BasicBoolFunctors.h</text>
</a>
</g>
</g>
<!-- Node33&#45;&gt;Node37 -->
<g id="edge66" class="edge"><title>Node33&#45;&gt;Node37</title>
<path fill="none" stroke="midnightblue" d="M1847.25,-173.975C1896.19,-163.349 1979.83,-145.185 2032.94,-133.652"/>
<polygon fill="midnightblue" stroke="midnightblue" points="2033.78,-137.052 2042.81,-131.509 2032.3,-130.211 2033.78,-137.052"/>
</g>
<!-- Node34&#45;&gt;Node1 -->
<g id="edge60" class="edge"><title>Node34&#45;&gt;Node1</title>
<path fill="none" stroke="midnightblue" d="M1692.32,-112.735C1655.38,-105.304 1602.38,-92.9474 1557.99,-76 1540.16,-69.1924 1538.13,-61.9614 1519.99,-56 1431.44,-26.8823 1321.69,-16.4768 1263.91,-12.8559"/>
<polygon fill="midnightblue" stroke="midnightblue" points="1263.93,-9.3511 1253.74,-12.2558 1263.51,-16.3389 1263.93,-9.3511"/>
</g>
<!-- Node34&#45;&gt;Node3 -->
<g id="edge61" class="edge"><title>Node34&#45;&gt;Node3</title>
<path fill="none" stroke="midnightblue" d="M1692.39,-130.577C1689.21,-131.07 1686.06,-131.549 1682.99,-132 1561.04,-149.955 1522.06,-121.275 1407.99,-168 1386.86,-176.659 1387.68,-189.306 1366.99,-199 1329.4,-216.615 1284.38,-227.622 1247.27,-234.337"/>
<polygon fill="midnightblue" stroke="midnightblue" points="1246.28,-230.956 1237.03,-236.119 1247.48,-237.853 1246.28,-230.956"/>
</g>
<!-- Node34&#45;&gt;Node5 -->
<g id="edge63" class="edge"><title>Node34&#45;&gt;Node5</title>
<path fill="none" stroke="midnightblue" d="M1755.83,-112.324C1773.71,-103.625 1801.47,-90.1202 1822.04,-80.113"/>
<polygon fill="midnightblue" stroke="midnightblue" points="1823.74,-83.1765 1831.2,-75.6545 1820.68,-76.8819 1823.74,-83.1765"/>
</g>
<!-- Node35 -->
<g id="node36" class="node"><title>Node35</title>
<polygon fill="white" stroke="#bfbfbf" points="1566.99,-56.5 1566.99,-75.5 1688.99,-75.5 1688.99,-56.5 1566.99,-56.5"/>
<text text-anchor="middle" x="1627.99" y="-63.5" font-family="FreeSans" font-size="10.00">boost/lexical_cast.hpp</text>
</g>
<!-- Node34&#45;&gt;Node35 -->
<g id="edge62" class="edge"><title>Node34&#45;&gt;Node35</title>
<path fill="none" stroke="midnightblue" d="M1720.32,-112.324C1702.6,-103.625 1675.09,-90.1202 1654.71,-80.113"/>
<polygon fill="midnightblue" stroke="midnightblue" points="1656.14,-76.9195 1645.62,-75.6545 1653.06,-83.2031 1656.14,-76.9195"/>
</g>
<!-- Node36 -->
<g id="node37" class="node"><title>Node36</title>
<g id="a_node37"><a xlink:href="Color_8ih_source.html" target="_top" xlink:title="DGtal/io/Color.ih">
<polygon fill="white" stroke="black" points="1707.49,-56.5 1707.49,-75.5 1800.49,-75.5 1800.49,-56.5 1707.49,-56.5"/>
<text text-anchor="middle" x="1753.99" y="-63.5" font-family="FreeSans" font-size="10.00">DGtal/io/Color.ih</text>
</a>
</g>
</g>
<!-- Node34&#45;&gt;Node36 -->
<g id="edge64" class="edge"><title>Node34&#45;&gt;Node36</title>
<path fill="none" stroke="midnightblue" d="M1740.64,-112.083C1742.78,-104.849 1745.87,-94.4087 1748.54,-85.3968"/>
<polygon fill="midnightblue" stroke="midnightblue" points="1751.92,-86.3334 1751.4,-75.7511 1745.21,-84.3447 1751.92,-86.3334"/>
</g>
<!-- Node37&#45;&gt;Node1 -->
<g id="edge67" class="edge"><title>Node37&#45;&gt;Node1</title>
<path fill="none" stroke="midnightblue" d="M2058.5,-112.499C2034.74,-103.778 1997.05,-89.6004 1964.99,-76 1945.59,-67.7676 1942.42,-61.2119 1921.99,-56 1796.11,-23.8733 1392.99,-14.0135 1264.06,-11.6424"/>
<polygon fill="midnightblue" stroke="midnightblue" points="1263.9,-8.13925 1253.84,-11.4599 1263.78,-15.1381 1263.9,-8.13925"/>
</g>
<!-- Node38 -->
<g id="node39" class="node"><title>Node38</title>
<polygon fill="white" stroke="#bfbfbf" points="2163.99,-56.5 2163.99,-75.5 2269.99,-75.5 2269.99,-56.5 2163.99,-56.5"/>
<text text-anchor="middle" x="2216.99" y="-63.5" font-family="FreeSans" font-size="10.00">boost/function.hpp</text>
</g>
<!-- Node37&#45;&gt;Node38 -->
<g id="edge68" class="edge"><title>Node37&#45;&gt;Node38</title>
<path fill="none" stroke="midnightblue" d="M2103.39,-112.444C2125.7,-103.517 2160.9,-89.4387 2186.2,-79.3168"/>
<polygon fill="midnightblue" stroke="midnightblue" points="2187.72,-82.4801 2195.7,-75.5164 2185.12,-75.9807 2187.72,-82.4801"/>
</g>
<!-- Node39 -->
<g id="node40" class="node"><title>Node39</title>
<g id="a_node40"><a xlink:href="BasicBoolFunctors_8ih_source.html" target="_top" xlink:title="DGtal/base/BasicBoolFunctors.ih">
<polygon fill="white" stroke="black" points="1974.49,-56.5 1974.49,-75.5 2145.49,-75.5 2145.49,-56.5 1974.49,-56.5"/>
<text text-anchor="middle" x="2059.99" y="-63.5" font-family="FreeSans" font-size="10.00">DGtal/base/BasicBoolFunctors.ih</text>
</a>
</g>
</g>
<!-- Node37&#45;&gt;Node39 -->
<g id="edge69" class="edge"><title>Node37&#45;&gt;Node39</title>
<path fill="none" stroke="midnightblue" d="M2078.36,-112.083C2075.38,-104.77 2071.07,-94.1814 2067.37,-85.1034"/>
<polygon fill="midnightblue" stroke="midnightblue" points="2070.57,-83.6914 2063.56,-75.7511 2064.09,-86.3326 2070.57,-83.6914"/>
</g>
<!-- Node40&#45;&gt;Node1 -->
<g id="edge71" class="edge"><title>Node40&#45;&gt;Node1</title>
<path fill="none" stroke="midnightblue" d="M1223.99,-112.368C1223.99,-94.617 1223.99,-53.6664 1223.99,-29.5974"/>
<polygon fill="midnightblue" stroke="midnightblue" points="1227.49,-29.5914 1223.99,-19.5914 1220.49,-29.5915 1227.49,-29.5914"/>
</g>
<!-- Node41&#45;&gt;Node1 -->
<g id="edge73" class="edge"><title>Node41&#45;&gt;Node1</title>
<path fill="none" stroke="midnightblue" d="M1365.45,-112.36C1344.88,-104.517 1315.23,-91.7791 1291.99,-76 1271.22,-61.8857 1250.86,-41.2672 1237.92,-27.0556"/>
<polygon fill="midnightblue" stroke="midnightblue" points="1240.47,-24.6633 1231.21,-19.5259 1235.25,-29.3203 1240.47,-24.6633"/>
</g>
<!-- Node42&#45;&gt;Node1 -->
<g id="edge75" class="edge"><title>Node42&#45;&gt;Node1</title>
<path fill="none" stroke="midnightblue" d="M2058.68,-291.469C2138.66,-274.915 2297.99,-235.531 2297.99,-184.5 2297.99,-184.5 2297.99,-184.5 2297.99,-121 2297.99,-90.9022 2302.69,-74.5607 2278.99,-56 2238.34,-24.1506 1451.59,-13.5024 1263.93,-11.4105"/>
<polygon fill="midnightblue" stroke="midnightblue" points="1263.73,-7.90817 1253.69,-11.2983 1263.65,-14.9078 1263.73,-7.90817"/>
</g>
<!-- Node42&#45;&gt;Node3 -->
<g id="edge76" class="edge"><title>Node42&#45;&gt;Node3</title>
<path fill="none" stroke="midnightblue" d="M1937.97,-295.113C1777.33,-284.786 1405.19,-260.862 1247.13,-250.701"/>
<polygon fill="midnightblue" stroke="midnightblue" points="1247.23,-247.201 1237.03,-250.052 1246.78,-254.187 1247.23,-247.201"/>
</g>
<!-- Node42&#45;&gt;Node29 -->
<g id="edge77" class="edge"><title>Node42&#45;&gt;Node29</title>
<path fill="none" stroke="midnightblue" d="M2013.69,-291.319C2013.05,-272.757 2011.53,-228.839 2010.65,-203.473"/>
<polygon fill="midnightblue" stroke="midnightblue" points="2014.14,-203.155 2010.3,-193.282 2007.15,-203.397 2014.14,-203.155"/>
</g>
</g>
</svg>
