<?xml version="1.0" encoding="UTF-8" standalone="no"?>
<!DOCTYPE svg PUBLIC "-//W3C//DTD SVG 1.1//EN"
 "http://www.w3.org/Graphics/SVG/1.1/DTD/svg11.dtd">
<!-- Generated by graphviz version 2.36.0 (20140111.2315)
 -->
<!-- Title: testCountedPtrOrPtr.cpp Pages: 1 -->
<svg width="2663pt" height="432pt"
 viewBox="0.00 0.00 2662.83 432.00" xmlns="http://www.w3.org/2000/svg" xmlns:xlink="http://www.w3.org/1999/xlink">
<g id="graph0" class="graph" transform="scale(1 1) rotate(0) translate(4 428)">
<title>testCountedPtrOrPtr.cpp</title>
<polygon fill="white" stroke="none" points="-4,4 -4,-428 2658.83,-428 2658.83,4 -4,4"/>
<!-- Node0 -->
<g id="node1" class="node"><title>Node0</title>
<polygon fill="#bfbfbf" stroke="black" points="881,-404.5 881,-423.5 1015,-423.5 1015,-404.5 881,-404.5"/>
<text text-anchor="middle" x="948" y="-411.5" font-family="FreeSans" font-size="10.00">testCountedPtrOrPtr.cpp</text>
</g>
<!-- Node1 -->
<g id="node2" class="node"><title>Node1</title>
<polygon fill="white" stroke="#bfbfbf" points="1374.5,-0.5 1374.5,-19.5 1433.5,-19.5 1433.5,-0.5 1374.5,-0.5"/>
<text text-anchor="middle" x="1404" y="-7.5" font-family="FreeSans" font-size="10.00">iostream</text>
</g>
<!-- Node0&#45;&gt;Node1 -->
<g id="edge1" class="edge"><title>Node0&#45;&gt;Node1</title>
<path fill="none" stroke="midnightblue" d="M880.961,-412.264C664.778,-409.013 0,-391.798 0,-303 0,-303 0,-303 0,-121 0,-63.8306 56.093,-71.9238 111,-56 233.723,-20.4085 1159.88,-12.5353 1364.2,-11.225"/>
<polygon fill="midnightblue" stroke="midnightblue" points="1364.49,-14.7234 1374.46,-11.1609 1364.44,-7.72354 1364.49,-14.7234"/>
</g>
<!-- Node2 -->
<g id="node3" class="node"><title>Node2</title>
<g id="a_node3"><a xlink:href="Common_8h_source.html" target="_top" xlink:title="DGtal/base/Common.h">
<polygon fill="white" stroke="black" points="1006,-236.5 1006,-255.5 1132,-255.5 1132,-236.5 1006,-236.5"/>
<text text-anchor="middle" x="1069" y="-243.5" font-family="FreeSans" font-size="10.00">DGtal/base/Common.h</text>
</a>
</g>
</g>
<!-- Node0&#45;&gt;Node2 -->
<g id="edge2" class="edge"><title>Node0&#45;&gt;Node2</title>
<path fill="none" stroke="midnightblue" d="M979.426,-404.366C998.7,-397.516 1022.4,-386.032 1037,-368 1061.19,-338.125 1067.23,-291.757 1068.65,-265.958"/>
<polygon fill="midnightblue" stroke="midnightblue" points="1072.16,-265.807 1069.03,-255.685 1065.16,-265.55 1072.16,-265.807"/>
</g>
<!-- Node42 -->
<g id="node43" class="node"><title>Node42</title>
<g id="a_node43"><a xlink:href="CountedPtrOrPtr_8h_source.html" target="_top" xlink:title="DGtal/base/CountedPtrOrPtr.h">
<polygon fill="white" stroke="black" points="868,-348.5 868,-367.5 1028,-367.5 1028,-348.5 868,-348.5"/>
<text text-anchor="middle" x="948" y="-355.5" font-family="FreeSans" font-size="10.00">DGtal/base/CountedPtrOrPtr.h</text>
</a>
</g>
</g>
<!-- Node0&#45;&gt;Node42 -->
<g id="edge73" class="edge"><title>Node0&#45;&gt;Node42</title>
<path fill="none" stroke="midnightblue" d="M948,-404.083C948,-397.006 948,-386.861 948,-377.986"/>
<polygon fill="midnightblue" stroke="midnightblue" points="951.5,-377.751 948,-367.751 944.5,-377.751 951.5,-377.751"/>
</g>
<!-- Node2&#45;&gt;Node1 -->
<g id="edge3" class="edge"><title>Node2&#45;&gt;Node1</title>
<path fill="none" stroke="midnightblue" d="M1132,-243.687C1312.9,-239.612 1822.58,-225.874 1847,-200 1856.76,-189.657 1856.64,-178.453 1847,-168 1779.58,-94.9162 1468.42,-205.084 1401,-132 1375.33,-104.172 1387.28,-55.5779 1396.61,-29.2332"/>
<polygon fill="midnightblue" stroke="midnightblue" points="1399.94,-30.315 1400.21,-19.7236 1393.4,-27.8351 1399.94,-30.315"/>
</g>
<!-- Node3 -->
<g id="node4" class="node"><title>Node3</title>
<polygon fill="white" stroke="#bfbfbf" points="569.5,-174.5 569.5,-193.5 632.5,-193.5 632.5,-174.5 569.5,-174.5"/>
<text text-anchor="middle" x="601" y="-181.5" font-family="FreeSans" font-size="10.00">exception</text>
</g>
<!-- Node2&#45;&gt;Node3 -->
<g id="edge4" class="edge"><title>Node2&#45;&gt;Node3</title>
<path fill="none" stroke="midnightblue" d="M1005.7,-237.118C1002.42,-236.734 999.172,-236.359 996,-236 841.056,-218.459 799.541,-232.354 647,-200 642.748,-199.098 638.335,-197.948 634,-196.687"/>
<polygon fill="midnightblue" stroke="midnightblue" points="634.728,-193.247 624.14,-193.606 632.641,-199.929 634.728,-193.247"/>
</g>
<!-- Node4 -->
<g id="node5" class="node"><title>Node4</title>
<polygon fill="white" stroke="#bfbfbf" points="556,-56.5 556,-75.5 618,-75.5 618,-56.5 556,-56.5"/>
<text text-anchor="middle" x="587" y="-63.5" font-family="FreeSans" font-size="10.00">algorithm</text>
</g>
<!-- Node2&#45;&gt;Node4 -->
<g id="edge5" class="edge"><title>Node2&#45;&gt;Node4</title>
<path fill="none" stroke="midnightblue" d="M1005.71,-237.039C1002.43,-236.675 999.176,-236.327 996,-236 947.646,-231.025 592.927,-235.758 560,-200 530.447,-167.906 557.772,-112.657 575.155,-84.5405"/>
<polygon fill="midnightblue" stroke="midnightblue" points="578.307,-86.1114 580.78,-75.8093 572.422,-82.3205 578.307,-86.1114"/>
</g>
<!-- Node5 -->
<g id="node6" class="node"><title>Node5</title>
<polygon fill="white" stroke="#bfbfbf" points="727,-174.5 727,-193.5 829,-193.5 829,-174.5 727,-174.5"/>
<text text-anchor="middle" x="778" y="-181.5" font-family="FreeSans" font-size="10.00">boost/version.hpp</text>
</g>
<!-- Node2&#45;&gt;Node5 -->
<g id="edge6" class="edge"><title>Node2&#45;&gt;Node5</title>
<path fill="none" stroke="midnightblue" d="M1021.07,-236.423C974.241,-227.864 901.018,-214.005 838,-200 832.497,-198.777 826.728,-197.425 821.033,-196.048"/>
<polygon fill="midnightblue" stroke="midnightblue" points="821.483,-192.554 810.936,-193.565 819.811,-199.352 821.483,-192.554"/>
</g>
<!-- Node6 -->
<g id="node7" class="node"><title>Node6</title>
<polygon fill="white" stroke="#bfbfbf" points="847.5,-174.5 847.5,-193.5 986.5,-193.5 986.5,-174.5 847.5,-174.5"/>
<text text-anchor="middle" x="917" y="-181.5" font-family="FreeSans" font-size="10.00">boost/concept_check.hpp</text>
</g>
<!-- Node2&#45;&gt;Node6 -->
<g id="edge7" class="edge"><title>Node2&#45;&gt;Node6</title>
<path fill="none" stroke="midnightblue" d="M1047.22,-236.403C1021.26,-226.156 977.689,-208.956 948.165,-197.302"/>
<polygon fill="midnightblue" stroke="midnightblue" points="949.324,-193.997 938.737,-193.581 946.754,-200.508 949.324,-193.997"/>
</g>
<!-- Node7 -->
<g id="node8" class="node"><title>Node7</title>
<polygon fill="white" stroke="#bfbfbf" points="1004.5,-174.5 1004.5,-193.5 1133.5,-193.5 1133.5,-174.5 1004.5,-174.5"/>
<text text-anchor="middle" x="1069" y="-181.5" font-family="FreeSans" font-size="10.00">boost/static_assert.hpp</text>
</g>
<!-- Node2&#45;&gt;Node7 -->
<g id="edge8" class="edge"><title>Node2&#45;&gt;Node7</title>
<path fill="none" stroke="midnightblue" d="M1069,-236.403C1069,-227.938 1069,-214.728 1069,-203.82"/>
<polygon fill="midnightblue" stroke="midnightblue" points="1072.5,-203.581 1069,-193.581 1065.5,-203.581 1072.5,-203.581"/>
</g>
<!-- Node8 -->
<g id="node9" class="node"><title>Node8</title>
<polygon fill="white" stroke="#bfbfbf" points="1151.5,-174.5 1151.5,-193.5 1290.5,-193.5 1290.5,-174.5 1151.5,-174.5"/>
<text text-anchor="middle" x="1221" y="-181.5" font-family="FreeSans" font-size="10.00">boost/concept/assert.hpp</text>
</g>
<!-- Node2&#45;&gt;Node8 -->
<g id="edge9" class="edge"><title>Node2&#45;&gt;Node8</title>
<path fill="none" stroke="midnightblue" d="M1090.78,-236.403C1116.74,-226.156 1160.31,-208.956 1189.83,-197.302"/>
<polygon fill="midnightblue" stroke="midnightblue" points="1191.25,-200.508 1199.26,-193.581 1188.68,-193.997 1191.25,-200.508"/>
</g>
<!-- Node9 -->
<g id="node10" class="node"><title>Node9</title>
<polygon fill="white" stroke="#bfbfbf" points="1309,-174.5 1309,-193.5 1457,-193.5 1457,-174.5 1309,-174.5"/>
<text text-anchor="middle" x="1383" y="-181.5" font-family="FreeSans" font-size="10.00">boost/concept/requires.hpp</text>
</g>
<!-- Node2&#45;&gt;Node9 -->
<g id="edge10" class="edge"><title>Node2&#45;&gt;Node9</title>
<path fill="none" stroke="midnightblue" d="M1113.66,-236.467C1170.16,-225.671 1267.42,-207.086 1328.31,-195.45"/>
<polygon fill="midnightblue" stroke="midnightblue" points="1329.33,-198.818 1338.5,-193.503 1328.02,-191.943 1329.33,-198.818"/>
</g>
<!-- Node10 -->
<g id="node11" class="node"><title>Node10</title>
<polygon fill="white" stroke="#bfbfbf" points="1475,-169 1475,-199 1595,-199 1595,-169 1475,-169"/>
<text text-anchor="start" x="1483" y="-187" font-family="FreeSans" font-size="10.00">boost/iterator/iterator</text>
<text text-anchor="middle" x="1535" y="-176" font-family="FreeSans" font-size="10.00">_concepts.hpp</text>
</g>
<!-- Node2&#45;&gt;Node10 -->
<g id="edge11" class="edge"><title>Node2&#45;&gt;Node10</title>
<path fill="none" stroke="midnightblue" d="M1132.19,-239.826C1208.67,-233.118 1341.56,-220.044 1464.86,-200.086"/>
<polygon fill="midnightblue" stroke="midnightblue" points="1465.56,-203.519 1474.86,-198.45 1464.42,-196.611 1465.56,-203.519"/>
</g>
<!-- Node11 -->
<g id="node12" class="node"><title>Node11</title>
<polygon fill="white" stroke="#bfbfbf" points="1612.5,-174.5 1612.5,-193.5 1771.5,-193.5 1771.5,-174.5 1612.5,-174.5"/>
<text text-anchor="middle" x="1692" y="-181.5" font-family="FreeSans" font-size="10.00">boost/concept_archetype.hpp</text>
</g>
<!-- Node2&#45;&gt;Node11 -->
<g id="edge12" class="edge"><title>Node2&#45;&gt;Node11</title>
<path fill="none" stroke="midnightblue" d="M1132.06,-241.384C1232.15,-235.264 1433.39,-221.402 1603,-200 1613.71,-198.648 1625.11,-196.938 1636.04,-195.159"/>
<polygon fill="midnightblue" stroke="midnightblue" points="1636.63,-198.609 1645.91,-193.515 1635.48,-191.704 1636.63,-198.609"/>
</g>
<!-- Node12 -->
<g id="node13" class="node"><title>Node12</title>
<polygon fill="white" stroke="#bfbfbf" points="789.5,-112.5 789.5,-131.5 836.5,-131.5 836.5,-112.5 789.5,-112.5"/>
<text text-anchor="middle" x="813" y="-119.5" font-family="FreeSans" font-size="10.00">cmath</text>
</g>
<!-- Node2&#45;&gt;Node12 -->
<g id="edge13" class="edge"><title>Node2&#45;&gt;Node12</title>
<path fill="none" stroke="midnightblue" d="M1005.6,-237.184C901.874,-224.39 707.308,-200.348 707,-200 697.584,-189.341 699.15,-179.86 707,-168 715.451,-155.231 751.744,-141.63 779.531,-132.766"/>
<polygon fill="midnightblue" stroke="midnightblue" points="780.806,-136.035 789.317,-129.724 778.729,-129.35 780.806,-136.035"/>
</g>
<!-- Node13 -->
<g id="node14" class="node"><title>Node13</title>
<polygon fill="white" stroke="#bfbfbf" points="1789.5,-174.5 1789.5,-193.5 1838.5,-193.5 1838.5,-174.5 1789.5,-174.5"/>
<text text-anchor="middle" x="1814" y="-181.5" font-family="FreeSans" font-size="10.00">stdio.h</text>
</g>
<!-- Node2&#45;&gt;Node13 -->
<g id="edge14" class="edge"><title>Node2&#45;&gt;Node13</title>
<path fill="none" stroke="midnightblue" d="M1132.12,-243.839C1282.42,-240.619 1658.04,-229.762 1780,-200 1782.82,-199.312 1785.7,-198.402 1788.53,-197.37"/>
<polygon fill="midnightblue" stroke="midnightblue" points="1789.91,-200.589 1797.81,-193.533 1787.23,-194.12 1789.91,-200.589"/>
</g>
<!-- Node14 -->
<g id="node15" class="node"><title>Node14</title>
<g id="a_node15"><a xlink:href="Config_8h_source.html" target="_top" xlink:title="DGtal/base/Config.h">
<polygon fill="white" stroke="black" points="2326,-56.5 2326,-75.5 2438,-75.5 2438,-56.5 2326,-56.5"/>
<text text-anchor="middle" x="2382" y="-63.5" font-family="FreeSans" font-size="10.00">DGtal/base/Config.h</text>
</a>
</g>
</g>
<!-- Node2&#45;&gt;Node14 -->
<g id="edge15" class="edge"><title>Node2&#45;&gt;Node14</title>
<path fill="none" stroke="midnightblue" d="M1132.14,-244.277C1380.66,-241.234 2280.45,-228.301 2334,-200 2367.17,-182.473 2372.31,-167.644 2384,-132 2388.9,-117.065 2387.88,-99.1509 2385.93,-85.9146"/>
<polygon fill="midnightblue" stroke="midnightblue" points="2389.3,-84.9079 2384.1,-75.6793 2382.41,-86.139 2389.3,-84.9079"/>
</g>
<!-- Node16 -->
<g id="node17" class="node"><title>Node16</title>
<g id="a_node17"><a xlink:href="Trace_8h_source.html" target="_top" xlink:title="DGtal/base/Trace.h">
<polygon fill="white" stroke="black" points="2218.5,-174.5 2218.5,-193.5 2325.5,-193.5 2325.5,-174.5 2218.5,-174.5"/>
<text text-anchor="middle" x="2272" y="-181.5" font-family="FreeSans" font-size="10.00">DGtal/base/Trace.h</text>
</a>
</g>
</g>
<!-- Node2&#45;&gt;Node16 -->
<g id="edge18" class="edge"><title>Node2&#45;&gt;Node16</title>
<path fill="none" stroke="midnightblue" d="M1132.18,-242.402C1286.22,-235.99 1693.39,-218.582 2033,-200 2092.37,-196.752 2159.99,-192.452 2208.12,-189.289"/>
<polygon fill="midnightblue" stroke="midnightblue" points="2208.64,-192.762 2218.38,-188.612 2208.18,-185.777 2208.64,-192.762"/>
</g>
<!-- Node23 -->
<g id="node24" class="node"><title>Node23</title>
<g id="a_node24"><a xlink:href="TraceWriterTerm_8h_source.html" target="_top" xlink:title="DGtal/base/TraceWriterTerm.h">
<polygon fill="white" stroke="black" points="1940.5,-112.5 1940.5,-131.5 2097.5,-131.5 2097.5,-112.5 1940.5,-112.5"/>
<text text-anchor="middle" x="2019" y="-119.5" font-family="FreeSans" font-size="10.00">DGtal/base/TraceWriterTerm.h</text>
</a>
</g>
</g>
<!-- Node2&#45;&gt;Node23 -->
<g id="edge41" class="edge"><title>Node2&#45;&gt;Node23</title>
<path fill="none" stroke="midnightblue" d="M1132.28,-243.774C1316.49,-239.909 1844.03,-226.622 1917,-200 1952.41,-187.083 1985.73,-157.407 2004.15,-138.899"/>
<polygon fill="midnightblue" stroke="midnightblue" points="2006.87,-141.126 2011.31,-131.506 2001.84,-136.257 2006.87,-141.126"/>
</g>
<!-- Node24 -->
<g id="node25" class="node"><title>Node24</title>
<g id="a_node25"><a xlink:href="Assert_8h_source.html" target="_top" xlink:title="DGtal/base/Assert.h">
<polygon fill="white" stroke="black" points="2494.5,-112.5 2494.5,-131.5 2607.5,-131.5 2607.5,-112.5 2494.5,-112.5"/>
<text text-anchor="middle" x="2551" y="-119.5" font-family="FreeSans" font-size="10.00">DGtal/base/Assert.h</text>
</a>
</g>
</g>
<!-- Node2&#45;&gt;Node24 -->
<g id="edge46" class="edge"><title>Node2&#45;&gt;Node24</title>
<path fill="none" stroke="midnightblue" d="M1132.4,-245.058C1385.66,-245 2317.15,-241.913 2442,-200 2479.64,-187.362 2515.74,-157.134 2535.49,-138.533"/>
<polygon fill="midnightblue" stroke="midnightblue" points="2537.92,-141.049 2542.68,-131.583 2533.06,-136.015 2537.92,-141.049"/>
</g>
<!-- Node27 -->
<g id="node28" class="node"><title>Node27</title>
<g id="a_node28"><a xlink:href="TraceWriterFile_8h_source.html" target="_top" xlink:title="DGtal/base/TraceWriterFile.h">
<polygon fill="white" stroke="black" points="1773.5,-112.5 1773.5,-131.5 1922.5,-131.5 1922.5,-112.5 1773.5,-112.5"/>
<text text-anchor="middle" x="1848" y="-119.5" font-family="FreeSans" font-size="10.00">DGtal/base/TraceWriterFile.h</text>
</a>
</g>
</g>
<!-- Node2&#45;&gt;Node27 -->
<g id="edge42" class="edge"><title>Node2&#45;&gt;Node27</title>
<path fill="none" stroke="midnightblue" d="M1132.13,-243.923C1321.4,-240.389 1872.72,-227.747 1899,-200 1917.32,-180.663 1890.39,-154 1869.22,-137.661"/>
<polygon fill="midnightblue" stroke="midnightblue" points="1871.06,-134.665 1860.93,-131.541 1866.9,-140.297 1871.06,-134.665"/>
</g>
<!-- Node28 -->
<g id="node29" class="node"><title>Node28</title>
<g id="a_node29"><a xlink:href="ConceptUtils_8h_source.html" target="_top" xlink:title="DGtal/base/ConceptUtils.h">
<polygon fill="white" stroke="black" points="1410.5,-112.5 1410.5,-131.5 1553.5,-131.5 1553.5,-112.5 1410.5,-112.5"/>
<text text-anchor="middle" x="1482" y="-119.5" font-family="FreeSans" font-size="10.00">DGtal/base/ConceptUtils.h</text>
</a>
</g>
</g>
<!-- Node2&#45;&gt;Node28 -->
<g id="edge47" class="edge"><title>Node2&#45;&gt;Node28</title>
<path fill="none" stroke="midnightblue" d="M1132.08,-243.845C1318.48,-240.126 1855.36,-227.098 1881,-200 1890.77,-189.669 1890.48,-178.605 1881,-168 1879.68,-166.528 1680.29,-144.591 1563.91,-131.9"/>
<polygon fill="midnightblue" stroke="midnightblue" points="1564.28,-128.419 1553.96,-130.814 1563.52,-135.377 1564.28,-128.419"/>
</g>
<!-- Node29 -->
<g id="node30" class="node"><title>Node29</title>
<g id="a_node30"><a xlink:href="BasicTypes_8h_source.html" target="_top" xlink:title="DGtal/base/BasicTypes.h">
<polygon fill="white" stroke="black" points="1220,-112.5 1220,-131.5 1354,-131.5 1354,-112.5 1220,-112.5"/>
<text text-anchor="middle" x="1287" y="-119.5" font-family="FreeSans" font-size="10.00">DGtal/base/BasicTypes.h</text>
</a>
</g>
</g>
<!-- Node2&#45;&gt;Node29 -->
<g id="edge49" class="edge"><title>Node2&#45;&gt;Node29</title>
<path fill="none" stroke="midnightblue" d="M1005.7,-237.148C904.93,-224.613 719.183,-201.344 718,-200 708.605,-189.323 708.348,-178.446 718,-168 750.673,-132.641 1061.64,-125.034 1209.55,-123.42"/>
<polygon fill="midnightblue" stroke="midnightblue" points="1209.95,-126.917 1219.91,-123.314 1209.88,-119.917 1209.95,-126.917"/>
</g>
<!-- Node32 -->
<g id="node33" class="node"><title>Node32</title>
<g id="a_node33"><a xlink:href="BasicFunctors_8h_source.html" target="_top" xlink:title="DGtal/base/BasicFunctors.h">
<polygon fill="white" stroke="black" points="365,-174.5 365,-193.5 513,-193.5 513,-174.5 365,-174.5"/>
<text text-anchor="middle" x="439" y="-181.5" font-family="FreeSans" font-size="10.00">DGtal/base/BasicFunctors.h</text>
</a>
</g>
</g>
<!-- Node2&#45;&gt;Node32 -->
<g id="edge54" class="edge"><title>Node2&#45;&gt;Node32</title>
<path fill="none" stroke="midnightblue" d="M1005.88,-238.038C999.477,-237.307 993.099,-236.61 987,-236 778.979,-215.204 725.485,-225.591 518,-200 507.393,-198.692 496.114,-197 485.472,-195.226"/>
<polygon fill="midnightblue" stroke="midnightblue" points="485.956,-191.758 475.507,-193.51 484.768,-198.656 485.956,-191.758"/>
</g>
<!-- Node40 -->
<g id="node41" class="node"><title>Node40</title>
<g id="a_node41"><a xlink:href="BasicArchetypes_8h_source.html" target="_top" xlink:title="DGtal/base/BasicArchetypes.h">
<polygon fill="white" stroke="black" points="66.5,-112.5 66.5,-131.5 227.5,-131.5 227.5,-112.5 66.5,-112.5"/>
<text text-anchor="middle" x="147" y="-119.5" font-family="FreeSans" font-size="10.00">DGtal/base/BasicArchetypes.h</text>
</a>
</g>
</g>
<!-- Node2&#45;&gt;Node40 -->
<g id="edge69" class="edge"><title>Node2&#45;&gt;Node40</title>
<path fill="none" stroke="midnightblue" d="M1005.72,-236.887C1002.44,-236.564 999.181,-236.265 996,-236 950.004,-232.173 201.71,-229.24 166,-200 149.141,-186.196 145.865,-160.034 145.821,-142.068"/>
<polygon fill="midnightblue" stroke="midnightblue" points="149.325,-141.994 146.134,-131.891 142.328,-141.779 149.325,-141.994"/>
</g>
<!-- Node41 -->
<g id="node42" class="node"><title>Node41</title>
<g id="a_node42"><a xlink:href="Exceptions_8h_source.html" target="_top" xlink:title="DGtal/base/Exceptions.h">
<polygon fill="white" stroke="black" points="175,-174.5 175,-193.5 309,-193.5 309,-174.5 175,-174.5"/>
<text text-anchor="middle" x="242" y="-181.5" font-family="FreeSans" font-size="10.00">DGtal/base/Exceptions.h</text>
</a>
</g>
</g>
<!-- Node2&#45;&gt;Node41 -->
<g id="edge71" class="edge"><title>Node2&#45;&gt;Node41</title>
<path fill="none" stroke="midnightblue" d="M1005.72,-236.926C1002.44,-236.592 999.18,-236.281 996,-236 697.622,-209.658 620.446,-235.346 323,-200 312.988,-198.81 302.347,-197.138 292.183,-195.34"/>
<polygon fill="midnightblue" stroke="midnightblue" points="292.687,-191.874 282.22,-193.512 291.424,-198.759 292.687,-191.874"/>
</g>
<!-- Node14&#45;&gt;Node1 -->
<g id="edge16" class="edge"><title>Node14&#45;&gt;Node1</title>
<path fill="none" stroke="midnightblue" d="M2325.91,-61.9028C2147.74,-52.0652 1597.42,-21.6799 1444.05,-13.2113"/>
<polygon fill="midnightblue" stroke="midnightblue" points="1443.88,-9.69674 1433.7,-12.64 1443.49,-16.6861 1443.88,-9.69674"/>
</g>
<!-- Node15 -->
<g id="node16" class="node"><title>Node15</title>
<polygon fill="white" stroke="#bfbfbf" points="2360,-0.5 2360,-19.5 2404,-19.5 2404,-0.5 2360,-0.5"/>
<text text-anchor="middle" x="2382" y="-7.5" font-family="FreeSans" font-size="10.00">string</text>
</g>
<!-- Node14&#45;&gt;Node15 -->
<g id="edge17" class="edge"><title>Node14&#45;&gt;Node15</title>
<path fill="none" stroke="midnightblue" d="M2382,-56.083C2382,-49.0059 2382,-38.8611 2382,-29.9865"/>
<polygon fill="midnightblue" stroke="midnightblue" points="2385.5,-29.751 2382,-19.7511 2378.5,-29.7511 2385.5,-29.751"/>
</g>
<!-- Node16&#45;&gt;Node1 -->
<g id="edge19" class="edge"><title>Node16&#45;&gt;Node1</title>
<path fill="none" stroke="midnightblue" d="M2218.39,-180.938C2069.3,-174.921 1657.05,-156.27 1601,-132 1555.1,-112.125 1560.41,-82.5126 1518,-56 1494.9,-41.5575 1466.38,-30.3043 1443.65,-22.6634"/>
<polygon fill="midnightblue" stroke="midnightblue" points="1444.57,-19.2812 1433.98,-19.5099 1442.4,-25.9366 1444.57,-19.2812"/>
</g>
<!-- Node16&#45;&gt;Node14 -->
<g id="edge23" class="edge"><title>Node16&#45;&gt;Node14</title>
<path fill="none" stroke="midnightblue" d="M2300.85,-174.408C2321.96,-166.653 2349.66,-153.162 2366,-132 2376.21,-118.777 2380,-99.909 2381.36,-85.9049"/>
<polygon fill="midnightblue" stroke="midnightblue" points="2384.88,-85.7175 2382.02,-75.5162 2377.89,-85.2748 2384.88,-85.7175"/>
</g>
<!-- Node16&#45;&gt;Node15 -->
<g id="edge21" class="edge"><title>Node16&#45;&gt;Node15</title>
<path fill="none" stroke="midnightblue" d="M2306.41,-174.455C2349.57,-161.556 2420.95,-132.39 2446,-76 2455.58,-54.4421 2432.34,-35.965 2411.24,-24.2822"/>
<polygon fill="midnightblue" stroke="midnightblue" points="2412.61,-21.0509 2402.12,-19.5541 2409.38,-27.2649 2412.61,-21.0509"/>
</g>
<!-- Node17 -->
<g id="node18" class="node"><title>Node17</title>
<polygon fill="white" stroke="#bfbfbf" points="2129.5,-0.5 2129.5,-19.5 2186.5,-19.5 2186.5,-0.5 2129.5,-0.5"/>
<text text-anchor="middle" x="2158" y="-7.5" font-family="FreeSans" font-size="10.00">ostream</text>
</g>
<!-- Node16&#45;&gt;Node17 -->
<g id="edge20" class="edge"><title>Node16&#45;&gt;Node17</title>
<path fill="none" stroke="midnightblue" d="M2282.7,-174.253C2297.74,-160.85 2322.02,-134.425 2310,-112 2285.54,-66.3741 2230.38,-37.845 2193.67,-23.1756"/>
<polygon fill="midnightblue" stroke="midnightblue" points="2194.9,-19.8977 2184.31,-19.5727 2192.39,-26.4307 2194.9,-19.8977"/>
</g>
<!-- Node18 -->
<g id="node19" class="node"><title>Node18</title>
<polygon fill="white" stroke="#bfbfbf" points="2116,-112.5 2116,-131.5 2158,-131.5 2158,-112.5 2116,-112.5"/>
<text text-anchor="middle" x="2137" y="-119.5" font-family="FreeSans" font-size="10.00">stack</text>
</g>
<!-- Node16&#45;&gt;Node18 -->
<g id="edge22" class="edge"><title>Node16&#45;&gt;Node18</title>
<path fill="none" stroke="midnightblue" d="M2252.66,-174.403C2229.9,-164.29 2191.91,-147.404 2165.71,-135.761"/>
<polygon fill="midnightblue" stroke="midnightblue" points="2166.87,-132.444 2156.31,-131.581 2164.02,-138.84 2166.87,-132.444"/>
</g>
<!-- Node19 -->
<g id="node20" class="node"><title>Node19</title>
<g id="a_node20"><a xlink:href="Clock_8h_source.html" target="_top" xlink:title="DGtal/base/Clock.h">
<polygon fill="white" stroke="black" points="1610.5,-112.5 1610.5,-131.5 1717.5,-131.5 1717.5,-112.5 1610.5,-112.5"/>
<text text-anchor="middle" x="1664" y="-119.5" font-family="FreeSans" font-size="10.00">DGtal/base/Clock.h</text>
</a>
</g>
</g>
<!-- Node16&#45;&gt;Node19 -->
<g id="edge24" class="edge"><title>Node16&#45;&gt;Node19</title>
<path fill="none" stroke="midnightblue" d="M2218.31,-177.702C2106.36,-166.654 1848.45,-141.202 1728.06,-129.322"/>
<polygon fill="midnightblue" stroke="midnightblue" points="1728.19,-125.818 1717.89,-128.319 1727.5,-132.784 1728.19,-125.818"/>
</g>
<!-- Node22 -->
<g id="node23" class="node"><title>Node22</title>
<g id="a_node23"><a xlink:href="TraceWriter_8h_source.html" target="_top" xlink:title="DGtal/base/TraceWriter.h">
<polygon fill="white" stroke="black" points="1952.5,-56.5 1952.5,-75.5 2085.5,-75.5 2085.5,-56.5 1952.5,-56.5"/>
<text text-anchor="middle" x="2019" y="-63.5" font-family="FreeSans" font-size="10.00">DGtal/base/TraceWriter.h</text>
</a>
</g>
</g>
<!-- Node16&#45;&gt;Node22 -->
<g id="edge28" class="edge"><title>Node16&#45;&gt;Node22</title>
<path fill="none" stroke="midnightblue" d="M2279.52,-174.08C2290.89,-159.484 2309.54,-130.291 2294,-112 2268.98,-82.5547 2168.12,-72.3351 2095.8,-68.8129"/>
<polygon fill="midnightblue" stroke="midnightblue" points="2095.94,-65.316 2085.79,-68.3591 2095.62,-72.3088 2095.94,-65.316"/>
</g>
<!-- Node16&#45;&gt;Node23 -->
<g id="edge31" class="edge"><title>Node16&#45;&gt;Node23</title>
<path fill="none" stroke="midnightblue" d="M2236.02,-174.467C2190.97,-163.783 2113.74,-145.469 2064.59,-133.813"/>
<polygon fill="midnightblue" stroke="midnightblue" points="2065.39,-130.405 2054.86,-131.503 2063.78,-137.217 2065.39,-130.405"/>
</g>
<!-- Node16&#45;&gt;Node24 -->
<g id="edge36" class="edge"><title>Node16&#45;&gt;Node24</title>
<path fill="none" stroke="midnightblue" d="M2306.79,-174.467C2354.44,-163.716 2440.23,-145.239 2496.44,-133.595"/>
<polygon fill="midnightblue" stroke="midnightblue" points="2497.49,-136.952 2506.58,-131.503 2496.08,-130.096 2497.49,-136.952"/>
</g>
<!-- Node26 -->
<g id="node27" class="node"><title>Node26</title>
<g id="a_node27"><a xlink:href="Trace_8ih_source.html" target="_top" xlink:title="DGtal/base/Trace.ih">
<polygon fill="white" stroke="black" points="2176.5,-112.5 2176.5,-131.5 2285.5,-131.5 2285.5,-112.5 2176.5,-112.5"/>
<text text-anchor="middle" x="2231" y="-119.5" font-family="FreeSans" font-size="10.00">DGtal/base/Trace.ih</text>
</a>
</g>
</g>
<!-- Node16&#45;&gt;Node26 -->
<g id="edge40" class="edge"><title>Node16&#45;&gt;Node26</title>
<path fill="none" stroke="midnightblue" d="M2266.13,-174.403C2260.04,-165.493 2250.36,-151.325 2242.7,-140.118"/>
<polygon fill="midnightblue" stroke="midnightblue" points="2245.4,-137.862 2236.86,-131.581 2239.62,-141.812 2245.4,-137.862"/>
</g>
<!-- Node19&#45;&gt;Node1 -->
<g id="edge25" class="edge"><title>Node19&#45;&gt;Node1</title>
<path fill="none" stroke="midnightblue" d="M1651.92,-112.318C1632.52,-98.7073 1592.85,-72.2279 1556,-56 1519.23,-39.8071 1474.96,-27.448 1443.71,-19.8164"/>
<polygon fill="midnightblue" stroke="midnightblue" points="1444.18,-16.3301 1433.64,-17.4108 1442.55,-23.1385 1444.18,-16.3301"/>
</g>
<!-- Node20 -->
<g id="node21" class="node"><title>Node20</title>
<polygon fill="white" stroke="#bfbfbf" points="1462.5,-56.5 1462.5,-75.5 1509.5,-75.5 1509.5,-56.5 1462.5,-56.5"/>
<text text-anchor="middle" x="1486" y="-63.5" font-family="FreeSans" font-size="10.00">cstdlib</text>
</g>
<!-- Node19&#45;&gt;Node20 -->
<g id="edge26" class="edge"><title>Node19&#45;&gt;Node20</title>
<path fill="none" stroke="midnightblue" d="M1635.8,-112.444C1604.17,-102.849 1552.92,-87.3021 1519.34,-77.1141"/>
<polygon fill="midnightblue" stroke="midnightblue" points="1520.11,-73.6907 1509.53,-74.1368 1518.08,-80.3892 1520.11,-73.6907"/>
</g>
<!-- Node21 -->
<g id="node22" class="node"><title>Node21</title>
<g id="a_node22"><a xlink:href="Clock_8ih_source.html" target="_top" xlink:title="DGtal/base/Clock.ih">
<polygon fill="white" stroke="black" points="1608,-56.5 1608,-75.5 1718,-75.5 1718,-56.5 1608,-56.5"/>
<text text-anchor="middle" x="1663" y="-63.5" font-family="FreeSans" font-size="10.00">DGtal/base/Clock.ih</text>
</a>
</g>
</g>
<!-- Node19&#45;&gt;Node21 -->
<g id="edge27" class="edge"><title>Node19&#45;&gt;Node21</title>
<path fill="none" stroke="midnightblue" d="M1663.83,-112.083C1663.7,-105.006 1663.52,-94.8611 1663.35,-85.9865"/>
<polygon fill="midnightblue" stroke="midnightblue" points="1666.85,-85.6845 1663.16,-75.7511 1659.85,-85.8142 1666.85,-85.6845"/>
</g>
<!-- Node22&#45;&gt;Node1 -->
<g id="edge29" class="edge"><title>Node22&#45;&gt;Node1</title>
<path fill="none" stroke="midnightblue" d="M1952.3,-58.9729C1941.18,-57.9749 1929.77,-56.9548 1919,-56 1741.78,-40.2827 1530.22,-21.9242 1443.77,-14.4391"/>
<polygon fill="midnightblue" stroke="midnightblue" points="1443.88,-10.9358 1433.61,-13.5603 1443.27,-17.9097 1443.88,-10.9358"/>
</g>
<!-- Node22&#45;&gt;Node17 -->
<g id="edge30" class="edge"><title>Node22&#45;&gt;Node17</title>
<path fill="none" stroke="midnightblue" d="M2041.02,-56.4435C2064.1,-47.4776 2100.56,-33.314 2126.64,-23.1827"/>
<polygon fill="midnightblue" stroke="midnightblue" points="2128.02,-26.4002 2136.08,-19.5164 2125.49,-19.8753 2128.02,-26.4002"/>
</g>
<!-- Node23&#45;&gt;Node1 -->
<g id="edge32" class="edge"><title>Node23&#45;&gt;Node1</title>
<path fill="none" stroke="midnightblue" d="M1994.14,-112.428C1952.72,-98.4816 1866.77,-70.9368 1792,-56 1666.45,-30.9182 1515.04,-18.3558 1444.21,-13.4892"/>
<polygon fill="midnightblue" stroke="midnightblue" points="1444.16,-9.97838 1433.95,-12.7999 1443.69,-16.9626 1444.16,-9.97838"/>
</g>
<!-- Node23&#45;&gt;Node14 -->
<g id="edge35" class="edge"><title>Node23&#45;&gt;Node14</title>
<path fill="none" stroke="midnightblue" d="M2076.52,-112.444C2141.55,-102.769 2247.26,-87.0438 2315.71,-76.8617"/>
<polygon fill="midnightblue" stroke="midnightblue" points="2316.57,-80.2724 2325.94,-75.339 2315.54,-73.3486 2316.57,-80.2724"/>
</g>
<!-- Node23&#45;&gt;Node15 -->
<g id="edge33" class="edge"><title>Node23&#45;&gt;Node15</title>
<path fill="none" stroke="midnightblue" d="M2047.18,-112.46C2113.71,-92.301 2280.16,-41.8619 2350.17,-20.6443"/>
<polygon fill="midnightblue" stroke="midnightblue" points="2351.23,-23.9827 2359.78,-17.7329 2349.2,-17.2835 2351.23,-23.9827"/>
</g>
<!-- Node23&#45;&gt;Node22 -->
<g id="edge34" class="edge"><title>Node23&#45;&gt;Node22</title>
<path fill="none" stroke="midnightblue" d="M2019,-112.083C2019,-105.006 2019,-94.8611 2019,-85.9865"/>
<polygon fill="midnightblue" stroke="midnightblue" points="2022.5,-85.751 2019,-75.7511 2015.5,-85.7511 2022.5,-85.751"/>
</g>
<!-- Node24&#45;&gt;Node15 -->
<g id="edge39" class="edge"><title>Node24&#45;&gt;Node15</title>
<path fill="none" stroke="midnightblue" d="M2585.95,-112.429C2622.31,-101.882 2671.08,-82.1131 2649,-56 2619.3,-20.8798 2479.01,-13.1575 2414.54,-11.4682"/>
<polygon fill="midnightblue" stroke="midnightblue" points="2414.23,-7.96023 2404.15,-11.2314 2414.07,-14.9584 2414.23,-7.96023"/>
</g>
<!-- Node24&#45;&gt;Node16 -->
<g id="edge37" class="edge"><title>Node24&#45;&gt;Node16</title>
<path fill="none" stroke="midnightblue" d="M2516.34,-131.503C2468.66,-142.263 2382.63,-160.793 2326.36,-172.446"/>
<polygon fill="midnightblue" stroke="midnightblue" points="2325.65,-169.019 2316.56,-174.467 2327.07,-175.874 2325.65,-169.019"/>
</g>
<!-- Node25 -->
<g id="node26" class="node"><title>Node25</title>
<polygon fill="white" stroke="#bfbfbf" points="2494,-56.5 2494,-75.5 2640,-75.5 2640,-56.5 2494,-56.5"/>
<text text-anchor="middle" x="2567" y="-63.5" font-family="FreeSans" font-size="10.00">boost/current_function.hpp</text>
</g>
<!-- Node24&#45;&gt;Node25 -->
<g id="edge38" class="edge"><title>Node24&#45;&gt;Node25</title>
<path fill="none" stroke="midnightblue" d="M2553.64,-112.083C2555.79,-104.849 2558.88,-94.4087 2561.55,-85.3968"/>
<polygon fill="midnightblue" stroke="midnightblue" points="2564.92,-86.3334 2564.41,-75.7511 2558.21,-84.3447 2564.92,-86.3334"/>
</g>
<!-- Node27&#45;&gt;Node1 -->
<g id="edge43" class="edge"><title>Node27&#45;&gt;Node1</title>
<path fill="none" stroke="midnightblue" d="M1839.69,-112.488C1825.07,-98.1082 1793.15,-69.2767 1760,-56 1703.27,-33.278 1524.4,-18.9533 1443.92,-13.5003"/>
<polygon fill="midnightblue" stroke="midnightblue" points="1443.91,-9.99162 1433.7,-12.8195 1443.44,-16.9762 1443.91,-9.99162"/>
</g>
<!-- Node27&#45;&gt;Node15 -->
<g id="edge44" class="edge"><title>Node27&#45;&gt;Node15</title>
<path fill="none" stroke="midnightblue" d="M1857.08,-112.413C1873.02,-97.9195 1907.72,-68.9215 1943,-56 2017.93,-28.5548 2261.59,-15.9788 2349.77,-12.2457"/>
<polygon fill="midnightblue" stroke="midnightblue" points="2350.13,-15.7343 2359.97,-11.8244 2349.84,-8.74026 2350.13,-15.7343"/>
</g>
<!-- Node27&#45;&gt;Node22 -->
<g id="edge45" class="edge"><title>Node27&#45;&gt;Node22</title>
<path fill="none" stroke="midnightblue" d="M1875.1,-112.444C1903.99,-103.32 1949.92,-88.8133 1982.11,-78.6509"/>
<polygon fill="midnightblue" stroke="midnightblue" points="1983.55,-81.8654 1992.03,-75.5164 1981.44,-75.1903 1983.55,-81.8654"/>
</g>
<!-- Node28&#45;&gt;Node1 -->
<g id="edge48" class="edge"><title>Node28&#45;&gt;Node1</title>
<path fill="none" stroke="midnightblue" d="M1475.88,-112.368C1463.01,-94.2153 1432.93,-51.8015 1416.05,-27.9902"/>
<polygon fill="midnightblue" stroke="midnightblue" points="1418.73,-25.7243 1410.09,-19.5914 1413.02,-29.7733 1418.73,-25.7243"/>
</g>
<!-- Node29&#45;&gt;Node1 -->
<g id="edge51" class="edge"><title>Node29&#45;&gt;Node1</title>
<path fill="none" stroke="midnightblue" d="M1296.18,-112.368C1315.83,-93.8941 1362.21,-50.2926 1387.25,-26.7436"/>
<polygon fill="midnightblue" stroke="midnightblue" points="1389.97,-28.9912 1394.86,-19.5914 1385.18,-23.8912 1389.97,-28.9912"/>
</g>
<!-- Node29&#45;&gt;Node20 -->
<g id="edge50" class="edge"><title>Node29&#45;&gt;Node20</title>
<path fill="none" stroke="midnightblue" d="M1318.53,-112.444C1355.1,-102.522 1415.12,-86.2343 1452.5,-76.0904"/>
<polygon fill="midnightblue" stroke="midnightblue" points="1453.67,-79.3994 1462.41,-73.4026 1451.84,-72.6437 1453.67,-79.3994"/>
</g>
<!-- Node30 -->
<g id="node31" class="node"><title>Node30</title>
<polygon fill="white" stroke="#bfbfbf" points="1140,-56.5 1140,-75.5 1240,-75.5 1240,-56.5 1140,-56.5"/>
<text text-anchor="middle" x="1190" y="-63.5" font-family="FreeSans" font-size="10.00">boost/cstdint.hpp</text>
</g>
<!-- Node29&#45;&gt;Node30 -->
<g id="edge52" class="edge"><title>Node29&#45;&gt;Node30</title>
<path fill="none" stroke="midnightblue" d="M1271.42,-112.324C1256,-103.743 1232.19,-90.486 1214.29,-80.5224"/>
<polygon fill="midnightblue" stroke="midnightblue" points="1215.99,-77.4606 1205.55,-75.6545 1212.58,-83.5767 1215.99,-77.4606"/>
</g>
<!-- Node31 -->
<g id="node32" class="node"><title>Node31</title>
<polygon fill="white" stroke="#bfbfbf" points="1258,-56.5 1258,-75.5 1316,-75.5 1316,-56.5 1258,-56.5"/>
<text text-anchor="middle" x="1287" y="-63.5" font-family="FreeSans" font-size="10.00">gmpxx.h</text>
</g>
<!-- Node29&#45;&gt;Node31 -->
<g id="edge53" class="edge"><title>Node29&#45;&gt;Node31</title>
<path fill="none" stroke="midnightblue" d="M1287,-112.083C1287,-105.006 1287,-94.8611 1287,-85.9865"/>
<polygon fill="midnightblue" stroke="midnightblue" points="1290.5,-85.751 1287,-75.7511 1283.5,-85.7511 1290.5,-85.751"/>
</g>
<!-- Node32&#45;&gt;Node2 -->
<g id="edge64" class="edge"><title>Node32&#45;&gt;Node2</title>
<path fill="none" stroke="midnightblue" d="M492.698,-193.51C506.837,-195.879 522.003,-198.274 536,-200 740.142,-225.179 795.215,-215.53 999.464,-235.469"/>
<polygon fill="midnightblue" stroke="midnightblue" points="999.325,-238.972 1009.62,-236.473 1000.01,-232.006 999.325,-238.972"/>
</g>
<!-- Node32&#45;&gt;Node4 -->
<g id="edge55" class="edge"><title>Node32&#45;&gt;Node4</title>
<path fill="none" stroke="midnightblue" d="M449.469,-174.354C465.862,-160.862 498.647,-134.059 527,-112 540.267,-101.678 555.411,-90.3234 567.165,-81.602"/>
<polygon fill="midnightblue" stroke="midnightblue" points="569.447,-84.2674 575.406,-75.5069 565.285,-78.6395 569.447,-84.2674"/>
</g>
<!-- Node32&#45;&gt;Node12 -->
<g id="edge57" class="edge"><title>Node32&#45;&gt;Node12</title>
<path fill="none" stroke="midnightblue" d="M501.922,-174.495C581.157,-163.635 713.878,-144.916 779.373,-131.869"/>
<polygon fill="midnightblue" stroke="midnightblue" points="780.2,-135.272 789.288,-129.826 778.788,-128.416 780.2,-135.272"/>
</g>
<!-- Node33 -->
<g id="node34" class="node"><title>Node33</title>
<polygon fill="white" stroke="#bfbfbf" points="411.5,-112.5 411.5,-131.5 474.5,-131.5 474.5,-112.5 411.5,-112.5"/>
<text text-anchor="middle" x="443" y="-119.5" font-family="FreeSans" font-size="10.00">functional</text>
</g>
<!-- Node32&#45;&gt;Node33 -->
<g id="edge56" class="edge"><title>Node32&#45;&gt;Node33</title>
<path fill="none" stroke="midnightblue" d="M439.573,-174.403C440.137,-165.938 441.018,-152.728 441.745,-141.82"/>
<polygon fill="midnightblue" stroke="midnightblue" points="445.255,-141.791 442.428,-131.581 438.27,-141.326 445.255,-141.791"/>
</g>
<!-- Node34 -->
<g id="node35" class="node"><title>Node34</title>
<g id="a_node35"><a xlink:href="Color_8h_source.html" target="_top" xlink:title="DGtal/io/Color.h">
<polygon fill="white" stroke="black" points="302.5,-112.5 302.5,-131.5 393.5,-131.5 393.5,-112.5 302.5,-112.5"/>
<text text-anchor="middle" x="348" y="-119.5" font-family="FreeSans" font-size="10.00">DGtal/io/Color.h</text>
</a>
</g>
</g>
<!-- Node32&#45;&gt;Node34 -->
<g id="edge58" class="edge"><title>Node32&#45;&gt;Node34</title>
<path fill="none" stroke="midnightblue" d="M425.962,-174.403C411.231,-164.691 387.027,-148.732 369.491,-137.17"/>
<polygon fill="midnightblue" stroke="midnightblue" points="371.289,-134.163 361.014,-131.581 367.436,-140.007 371.289,-134.163"/>
</g>
<!-- Node37 -->
<g id="node38" class="node"><title>Node37</title>
<g id="a_node38"><a xlink:href="BasicBoolFunctors_8h_source.html" target="_top" xlink:title="DGtal/base/BasicBoolFunctors.h">
<polygon fill="white" stroke="black" points="602.5,-112.5 602.5,-131.5 771.5,-131.5 771.5,-112.5 602.5,-112.5"/>
<text text-anchor="middle" x="687" y="-119.5" font-family="FreeSans" font-size="10.00">DGtal/base/BasicBoolFunctors.h</text>
</a>
</g>
</g>
<!-- Node32&#45;&gt;Node37 -->
<g id="edge65" class="edge"><title>Node32&#45;&gt;Node37</title>
<path fill="none" stroke="midnightblue" d="M474.269,-174.467C518.34,-163.805 593.813,-145.545 642.004,-133.886"/>
<polygon fill="midnightblue" stroke="midnightblue" points="642.956,-137.257 651.853,-131.503 641.31,-130.453 642.956,-137.257"/>
</g>
<!-- Node34&#45;&gt;Node1 -->
<g id="edge59" class="edge"><title>Node34&#45;&gt;Node1</title>
<path fill="none" stroke="midnightblue" d="M387.475,-112.441C420.547,-104.687 468.682,-92.0339 509,-76 526.734,-68.9473 528.598,-61.0625 547,-56 703.788,-12.866 1216.29,-10.5732 1363.89,-10.8338"/>
<polygon fill="midnightblue" stroke="midnightblue" points="1364.27,-14.3345 1374.28,-10.8575 1364.28,-7.33455 1364.27,-14.3345"/>
</g>
<!-- Node34&#45;&gt;Node2 -->
<g id="edge60" class="edge"><title>Node34&#45;&gt;Node2</title>
<path fill="none" stroke="midnightblue" d="M345.749,-131.692C342.163,-147.783 337.327,-182.19 356,-200 405.728,-247.429 889.249,-230.926 995.632,-236.263"/>
<polygon fill="midnightblue" stroke="midnightblue" points="995.508,-239.762 1005.72,-236.937 995.975,-232.778 995.508,-239.762"/>
</g>
<!-- Node34&#45;&gt;Node4 -->
<g id="edge62" class="edge"><title>Node34&#45;&gt;Node4</title>
<path fill="none" stroke="midnightblue" d="M385.87,-112.444C429.464,-102.594 500.821,-86.4714 545.781,-76.3132"/>
<polygon fill="midnightblue" stroke="midnightblue" points="546.798,-79.6716 555.781,-74.0537 545.255,-72.8437 546.798,-79.6716"/>
</g>
<!-- Node35 -->
<g id="node36" class="node"><title>Node35</title>
<polygon fill="white" stroke="#bfbfbf" points="378,-56.5 378,-75.5 500,-75.5 500,-56.5 378,-56.5"/>
<text text-anchor="middle" x="439" y="-63.5" font-family="FreeSans" font-size="10.00">boost/lexical_cast.hpp</text>
</g>
<!-- Node34&#45;&gt;Node35 -->
<g id="edge61" class="edge"><title>Node34&#45;&gt;Node35</title>
<path fill="none" stroke="midnightblue" d="M362.621,-112.324C376.949,-103.822 399.013,-90.7288 415.749,-80.7975"/>
<polygon fill="midnightblue" stroke="midnightblue" points="417.602,-83.7677 424.416,-75.6545 414.03,-77.7478 417.602,-83.7677"/>
</g>
<!-- Node36 -->
<g id="node37" class="node"><title>Node36</title>
<g id="a_node37"><a xlink:href="Color_8ih_source.html" target="_top" xlink:title="DGtal/io/Color.ih">
<polygon fill="white" stroke="black" points="266.5,-56.5 266.5,-75.5 359.5,-75.5 359.5,-56.5 266.5,-56.5"/>
<text text-anchor="middle" x="313" y="-63.5" font-family="FreeSans" font-size="10.00">DGtal/io/Color.ih</text>
</a>
</g>
</g>
<!-- Node34&#45;&gt;Node36 -->
<g id="edge63" class="edge"><title>Node34&#45;&gt;Node36</title>
<path fill="none" stroke="midnightblue" d="M342.22,-112.083C337.328,-104.534 330.173,-93.4948 324.167,-84.2298"/>
<polygon fill="midnightblue" stroke="midnightblue" points="327.048,-82.239 318.672,-75.7511 321.174,-86.0463 327.048,-82.239"/>
</g>
<!-- Node37&#45;&gt;Node1 -->
<g id="edge66" class="edge"><title>Node37&#45;&gt;Node1</title>
<path fill="none" stroke="midnightblue" d="M742.665,-112.46C882.078,-91.0717 1243.67,-35.5979 1364.22,-17.1023"/>
<polygon fill="midnightblue" stroke="midnightblue" points="1365.11,-20.5067 1374.47,-15.5306 1364.05,-13.5876 1365.11,-20.5067"/>
</g>
<!-- Node38 -->
<g id="node39" class="node"><title>Node38</title>
<polygon fill="white" stroke="#bfbfbf" points="826,-56.5 826,-75.5 932,-75.5 932,-56.5 826,-56.5"/>
<text text-anchor="middle" x="879" y="-63.5" font-family="FreeSans" font-size="10.00">boost/function.hpp</text>
</g>
<!-- Node37&#45;&gt;Node38 -->
<g id="edge67" class="edge"><title>Node37&#45;&gt;Node38</title>
<path fill="none" stroke="midnightblue" d="M717.423,-112.444C750.285,-103.201 802.785,-88.4356 838.974,-78.2572"/>
<polygon fill="midnightblue" stroke="midnightblue" points="840.04,-81.5932 848.719,-75.5164 838.145,-74.8547 840.04,-81.5932"/>
</g>
<!-- Node39 -->
<g id="node40" class="node"><title>Node39</title>
<g id="a_node40"><a xlink:href="BasicBoolFunctors_8ih_source.html" target="_top" xlink:title="DGtal/base/BasicBoolFunctors.ih">
<polygon fill="white" stroke="black" points="636.5,-56.5 636.5,-75.5 807.5,-75.5 807.5,-56.5 636.5,-56.5"/>
<text text-anchor="middle" x="722" y="-63.5" font-family="FreeSans" font-size="10.00">DGtal/base/BasicBoolFunctors.ih</text>
</a>
</g>
</g>
<!-- Node37&#45;&gt;Node39 -->
<g id="edge68" class="edge"><title>Node37&#45;&gt;Node39</title>
<path fill="none" stroke="midnightblue" d="M692.78,-112.083C697.672,-104.534 704.827,-93.4948 710.833,-84.2298"/>
<polygon fill="midnightblue" stroke="midnightblue" points="713.826,-86.0463 716.328,-75.7511 707.952,-82.239 713.826,-86.0463"/>
</g>
<!-- Node40&#45;&gt;Node1 -->
<g id="edge70" class="edge"><title>Node40&#45;&gt;Node1</title>
<path fill="none" stroke="midnightblue" d="M153.921,-112.193C166.181,-97.3668 193.332,-67.8811 224,-56 332.115,-14.1153 1170.61,-11.1159 1364.21,-10.9848"/>
<polygon fill="midnightblue" stroke="midnightblue" points="1364.49,-14.4848 1374.49,-10.9802 1364.49,-7.48478 1364.49,-14.4848"/>
</g>
<!-- Node41&#45;&gt;Node1 -->
<g id="edge72" class="edge"><title>Node41&#45;&gt;Node1</title>
<path fill="none" stroke="midnightblue" d="M241.646,-174.45C240.773,-148.587 239.72,-71.9765 257,-56 298.466,-17.6619 1165.99,-11.9354 1364,-11.1269"/>
<polygon fill="midnightblue" stroke="midnightblue" points="1364.26,-14.626 1374.24,-11.087 1364.23,-7.62604 1364.26,-14.626"/>
</g>
<!-- Node42&#45;&gt;Node1 -->
<g id="edge74" class="edge"><title>Node42&#45;&gt;Node1</title>
<path fill="none" stroke="midnightblue" d="M1028,-356.444C1236.32,-353.13 1787.15,-331.827 1899,-200 1963.66,-123.787 1852.59,-204.99 1764,-132 1735.01,-108.111 1757.4,-78.0747 1727,-56 1682.53,-23.7099 1519.78,-14.5152 1443.7,-11.9568"/>
<polygon fill="midnightblue" stroke="midnightblue" points="1443.67,-8.45406 1433.56,-11.6381 1443.45,-15.4506 1443.67,-8.45406"/>
</g>
<!-- Node42&#45;&gt;Node2 -->
<g id="edge75" class="edge"><title>Node42&#45;&gt;Node2</title>
<path fill="none" stroke="midnightblue" d="M961.931,-348.338C975.156,-339.825 995.292,-326.092 1011,-312 1027.81,-296.921 1044.74,-277.323 1055.93,-263.605"/>
<polygon fill="midnightblue" stroke="midnightblue" points="1058.87,-265.535 1062.4,-255.546 1053.41,-261.154 1058.87,-265.535"/>
</g>
<!-- Node43 -->
<g id="node44" class="node"><title>Node43</title>
<g id="a_node44"><a xlink:href="CountedPtr_8h_source.html" target="_top" xlink:title="DGtal/base/CountedPtr.h">
<polygon fill="white" stroke="black" points="867.5,-292.5 867.5,-311.5 1002.5,-311.5 1002.5,-292.5 867.5,-292.5"/>
<text text-anchor="middle" x="935" y="-299.5" font-family="FreeSans" font-size="10.00">DGtal/base/CountedPtr.h</text>
</a>
</g>
</g>
<!-- Node42&#45;&gt;Node43 -->
<g id="edge76" class="edge"><title>Node42&#45;&gt;Node43</title>
<path fill="none" stroke="midnightblue" d="M945.853,-348.083C944.131,-340.927 941.653,-330.635 939.5,-321.691"/>
<polygon fill="midnightblue" stroke="midnightblue" points="942.85,-320.654 937.107,-311.751 936.045,-322.293 942.85,-320.654"/>
</g>
<!-- Node45 -->
<g id="node46" class="node"><title>Node45</title>
<g id="a_node46"><a xlink:href="CountedPtrOrPtr_8ih_source.html" target="_top" xlink:title="DGtal/base/CountedPtrOrPtr.ih">
<polygon fill="white" stroke="black" points="687,-292.5 687,-311.5 849,-311.5 849,-292.5 687,-292.5"/>
<text text-anchor="middle" x="768" y="-299.5" font-family="FreeSans" font-size="10.00">DGtal/base/CountedPtrOrPtr.ih</text>
</a>
</g>
</g>
<!-- Node42&#45;&gt;Node45 -->
<g id="edge80" class="edge"><title>Node42&#45;&gt;Node45</title>
<path fill="none" stroke="midnightblue" d="M919.478,-348.444C888.934,-339.28 840.292,-324.688 806.397,-314.519"/>
<polygon fill="midnightblue" stroke="midnightblue" points="806.972,-311.038 796.388,-311.516 804.961,-317.742 806.972,-311.038"/>
</g>
<!-- Node43&#45;&gt;Node1 -->
<g id="edge77" class="edge"><title>Node43&#45;&gt;Node1</title>
<path fill="none" stroke="midnightblue" d="M867.212,-292.678C658.243,-266.969 38,-190.223 38,-185 38,-185 38,-185 38,-121 38,-113.448 -0.0941896,-98.1563 188,-56 304.77,-29.8292 1167.42,-14.7333 1364.14,-11.6094"/>
<polygon fill="midnightblue" stroke="midnightblue" points="1364.37,-15.1063 1374.31,-11.4491 1364.26,-8.10717 1364.37,-15.1063"/>
</g>
<!-- Node43&#45;&gt;Node2 -->
<g id="edge78" class="edge"><title>Node43&#45;&gt;Node2</title>
<path fill="none" stroke="midnightblue" d="M956.233,-292.444C978.384,-283.517 1013.32,-269.439 1038.44,-259.317"/>
<polygon fill="midnightblue" stroke="midnightblue" points="1039.9,-262.501 1047.87,-255.516 1037.28,-256.008 1039.9,-262.501"/>
</g>
<!-- Node44 -->
<g id="node45" class="node"><title>Node44</title>
<g id="a_node45"><a xlink:href="CountedPtr_8ih_source.html" target="_top" xlink:title="DGtal/base/CountedPtr.ih">
<polygon fill="white" stroke="black" points="850.5,-236.5 850.5,-255.5 987.5,-255.5 987.5,-236.5 850.5,-236.5"/>
<text text-anchor="middle" x="919" y="-243.5" font-family="FreeSans" font-size="10.00">DGtal/base/CountedPtr.ih</text>
</a>
</g>
</g>
<!-- Node43&#45;&gt;Node44 -->
<g id="edge79" class="edge"><title>Node43&#45;&gt;Node44</title>
<path fill="none" stroke="midnightblue" d="M932.358,-292.083C930.214,-284.849 927.121,-274.409 924.451,-265.397"/>
<polygon fill="midnightblue" stroke="midnightblue" points="927.79,-264.345 921.593,-255.751 921.078,-266.333 927.79,-264.345"/>
</g>
</g>
</svg>
