<?xml version="1.0" encoding="UTF-8" standalone="no"?>
<!DOCTYPE svg PUBLIC "-//W3C//DTD SVG 1.1//EN"
 "http://www.w3.org/Graphics/SVG/1.1/DTD/svg11.dtd">
<!-- Generated by graphviz version 2.36.0 (20140111.2315)
 -->
<!-- Title: testStabbingLineComputer.cpp Pages: 1 -->
<svg width="3087pt" height="704pt"
 viewBox="0.00 0.00 3087.12 704.00" xmlns="http://www.w3.org/2000/svg" xmlns:xlink="http://www.w3.org/1999/xlink">
<g id="graph0" class="graph" transform="scale(1 1) rotate(0) translate(4 700)">
<title>testStabbingLineComputer.cpp</title>
<polygon fill="white" stroke="none" points="-4,4 -4,-700 3083.12,-700 3083.12,4 -4,4"/>
<!-- Node0 -->
<g id="node1" class="node"><title>Node0</title>
<polygon fill="#bfbfbf" stroke="black" points="2309.62,-676.5 2309.62,-695.5 2474.62,-695.5 2474.62,-676.5 2309.62,-676.5"/>
<text text-anchor="middle" x="2392.12" y="-683.5" font-family="FreeSans" font-size="10.00">testStabbingLineComputer.cpp</text>
</g>
<!-- Node1 -->
<g id="node2" class="node"><title>Node1</title>
<polygon fill="white" stroke="#bfbfbf" points="1733.62,-0.5 1733.62,-19.5 1792.62,-19.5 1792.62,-0.5 1733.62,-0.5"/>
<text text-anchor="middle" x="1763.12" y="-7.5" font-family="FreeSans" font-size="10.00">iostream</text>
</g>
<!-- Node0&#45;&gt;Node1 -->
<g id="edge1" class="edge"><title>Node0&#45;&gt;Node1</title>
<path fill="none" stroke="midnightblue" d="M2474.7,-683.96C2635.96,-679.683 2977.12,-658.626 2977.12,-557 2977.12,-557 2977.12,-557 2977.12,-121 2977.12,15.4271 2812.38,-73.859 2677.12,-56 2341.24,-11.649 1930.7,-9.96212 1802.97,-10.6353"/>
<polygon fill="midnightblue" stroke="midnightblue" points="1802.85,-7.13585 1792.87,-10.6968 1802.89,-14.1357 1802.85,-7.13585"/>
</g>
<!-- Node2 -->
<g id="node3" class="node"><title>Node2</title>
<g id="a_node3"><a xlink:href="Common_8h_source.html" target="_top" xlink:title="DGtal/base/Common.h">
<polygon fill="white" stroke="black" points="1484.12,-236.5 1484.12,-255.5 1610.12,-255.5 1610.12,-236.5 1484.12,-236.5"/>
<text text-anchor="middle" x="1547.12" y="-243.5" font-family="FreeSans" font-size="10.00">DGtal/base/Common.h</text>
</a>
</g>
</g>
<!-- Node0&#45;&gt;Node2 -->
<g id="edge2" class="edge"><title>Node0&#45;&gt;Node2</title>
<path fill="none" stroke="midnightblue" d="M2309.36,-683.001C2135.61,-678.33 1744.28,-665.141 1689.12,-640 1641.94,-618.492 1607.12,-608.855 1607.12,-557 1607.12,-557 1607.12,-557 1607.12,-369 1607.12,-327.742 1579.15,-285.948 1561.41,-263.584"/>
<polygon fill="midnightblue" stroke="midnightblue" points="1564.02,-261.256 1554.97,-255.753 1558.61,-265.7 1564.02,-261.256"/>
</g>
<!-- Node42 -->
<g id="node26" class="node"><title>Node42</title>
<g id="a_node26"><a xlink:href="PointVector_8h_source.html" target="_top" xlink:title="DGtal/kernel/PointVector.h">
<polygon fill="white" stroke="black" points="771.124,-360.5 771.124,-379.5 913.124,-379.5 913.124,-360.5 771.124,-360.5"/>
<text text-anchor="middle" x="842.124" y="-367.5" font-family="FreeSans" font-size="10.00">DGtal/kernel/PointVector.h</text>
</a>
</g>
</g>
<!-- Node0&#45;&gt;Node42 -->
<g id="edge46" class="edge"><title>Node0&#45;&gt;Node42</title>
<path fill="none" stroke="midnightblue" d="M2309.25,-684.278C2048.99,-680.926 1265.12,-662.105 1265.12,-557 1265.12,-557 1265.12,-557 1265.12,-487 1265.12,-416.914 1046.42,-387.643 923.532,-376.728"/>
<polygon fill="midnightblue" stroke="midnightblue" points="923.667,-373.226 913.402,-375.85 923.063,-380.2 923.667,-373.226"/>
</g>
<!-- Node59 -->
<g id="node34" class="node"><title>Node59</title>
<g id="a_node34"><a xlink:href="KhalimskySpaceND_8h_source.html" target="_top" xlink:title="DGtal/topology/Khalimsky\lSpaceND.h">
<polygon fill="white" stroke="black" points="1019.62,-541 1019.62,-571 1158.62,-571 1158.62,-541 1019.62,-541"/>
<text text-anchor="start" x="1027.62" y="-559" font-family="FreeSans" font-size="10.00">DGtal/topology/Khalimsky</text>
<text text-anchor="middle" x="1089.12" y="-548" font-family="FreeSans" font-size="10.00">SpaceND.h</text>
</a>
</g>
</g>
<!-- Node0&#45;&gt;Node59 -->
<g id="edge64" class="edge"><title>Node0&#45;&gt;Node59</title>
<path fill="none" stroke="midnightblue" d="M2309.44,-683.797C2064.33,-679.943 1352.46,-666.572 1251.12,-640 1201.32,-626.941 1149.3,-596.888 1118.05,-576.76"/>
<polygon fill="midnightblue" stroke="midnightblue" points="1119.71,-573.663 1109.43,-571.116 1115.88,-579.52 1119.71,-573.663"/>
</g>
<!-- Node68 -->
<g id="node41" class="node"><title>Node68</title>
<g id="a_node41"><a xlink:href="GridCurve_8h_source.html" target="_top" xlink:title="Header file for module GridCurve.cpp. ">
<polygon fill="white" stroke="red" points="1698.12,-609 1698.12,-639 1826.12,-639 1826.12,-609 1698.12,-609"/>
<text text-anchor="start" x="1706.12" y="-627" font-family="FreeSans" font-size="10.00">DGtal/geometry/curves</text>
<text text-anchor="middle" x="1762.12" y="-616" font-family="FreeSans" font-size="10.00">/GridCurve.h</text>
</a>
</g>
</g>
<!-- Node0&#45;&gt;Node68 -->
<g id="edge91" class="edge"><title>Node0&#45;&gt;Node68</title>
<path fill="none" stroke="midnightblue" d="M2309.44,-677.125C2185.85,-665.355 1954.84,-643.354 1836.37,-632.071"/>
<polygon fill="midnightblue" stroke="midnightblue" points="1836.59,-628.576 1826.3,-631.112 1835.92,-635.544 1836.59,-628.576"/>
</g>
<!-- Node109 -->
<g id="node44" class="node"><title>Node109</title>
<g id="a_node44"><a xlink:href="CBidirectionalSegmentComputer_8h_source.html" target="_top" xlink:title="DGtal/geometry/curves\l/CBidirectionalSegmentComputer.h">
<polygon fill="white" stroke="red" points="2086.62,-293 2086.62,-323 2271.62,-323 2271.62,-293 2086.62,-293"/>
<text text-anchor="start" x="2094.62" y="-311" font-family="FreeSans" font-size="10.00">DGtal/geometry/curves</text>
<text text-anchor="middle" x="2179.12" y="-300" font-family="FreeSans" font-size="10.00">/CBidirectionalSegmentComputer.h</text>
</a>
</g>
</g>
<!-- Node0&#45;&gt;Node109 -->
<g id="edge99" class="edge"><title>Node0&#45;&gt;Node109</title>
<path fill="none" stroke="midnightblue" d="M2389.94,-676.374C2384.95,-655.84 2373.12,-602.381 2373.12,-557 2373.12,-557 2373.12,-557 2373.12,-425 2373.12,-394.205 2371.57,-381.087 2349.12,-360 2335.31,-347.023 2295.52,-334.742 2257.91,-325.484"/>
<polygon fill="midnightblue" stroke="midnightblue" points="2258.44,-322.012 2247.9,-323.076 2256.81,-328.818 2258.44,-322.012"/>
</g>
<!-- Node114 -->
<g id="node45" class="node"><title>Node114</title>
<g id="a_node45"><a xlink:href="StabbingLineComputer_8h_source.html" target="_top" xlink:title="DGtal/geometry/curves\l/StabbingLineComputer.h">
<polygon fill="white" stroke="red" points="1893.12,-293 1893.12,-323 2031.12,-323 2031.12,-293 1893.12,-293"/>
<text text-anchor="start" x="1901.12" y="-311" font-family="FreeSans" font-size="10.00">DGtal/geometry/curves</text>
<text text-anchor="middle" x="1962.12" y="-300" font-family="FreeSans" font-size="10.00">/StabbingLineComputer.h</text>
</a>
</g>
</g>
<!-- Node0&#45;&gt;Node114 -->
<g id="edge102" class="edge"><title>Node0&#45;&gt;Node114</title>
<path fill="none" stroke="midnightblue" d="M2385.14,-676.289C2369.91,-656.41 2335.12,-605.652 2335.12,-557 2335.12,-557 2335.12,-557 2335.12,-425 2335.12,-394.338 2148.96,-349.105 2039.67,-325.192"/>
<polygon fill="midnightblue" stroke="midnightblue" points="2040.19,-321.721 2029.67,-323.015 2038.7,-328.561 2040.19,-321.721"/>
</g>
<!-- Node125 -->
<g id="node46" class="node"><title>Node125</title>
<g id="a_node46"><a xlink:href="GreedySegmentation_8h_source.html" target="_top" xlink:title="Header file for module GreedySegmentation.cpp. ">
<polygon fill="white" stroke="red" points="2289.62,-293 2289.62,-323 2420.62,-323 2420.62,-293 2289.62,-293"/>
<text text-anchor="start" x="2297.62" y="-311" font-family="FreeSans" font-size="10.00">DGtal/geometry/curves</text>
<text text-anchor="middle" x="2355.12" y="-300" font-family="FreeSans" font-size="10.00">/GreedySegmentation.h</text>
</a>
</g>
</g>
<!-- Node0&#45;&gt;Node125 -->
<g id="edge107" class="edge"><title>Node0&#45;&gt;Node125</title>
<path fill="none" stroke="midnightblue" d="M2394.3,-676.374C2399.29,-655.84 2411.12,-602.381 2411.12,-557 2411.12,-557 2411.12,-557 2411.12,-425 2411.12,-389.661 2389.79,-353.751 2373.45,-331.439"/>
<polygon fill="midnightblue" stroke="midnightblue" points="2376.11,-329.152 2367.28,-323.306 2370.54,-333.386 2376.11,-329.152"/>
</g>
<!-- Node127 -->
<g id="node47" class="node"><title>Node127</title>
<g id="a_node47"><a xlink:href="SaturatedSegmentation_8h_source.html" target="_top" xlink:title="Header file for module SaturatedSegmentation.cpp. ">
<polygon fill="white" stroke="red" points="2477.62,-293 2477.62,-323 2622.62,-323 2622.62,-293 2477.62,-293"/>
<text text-anchor="start" x="2485.62" y="-311" font-family="FreeSans" font-size="10.00">DGtal/geometry/curves</text>
<text text-anchor="middle" x="2550.12" y="-300" font-family="FreeSans" font-size="10.00">/SaturatedSegmentation.h</text>
</a>
</g>
</g>
<!-- Node0&#45;&gt;Node127 -->
<g id="edge110" class="edge"><title>Node0&#45;&gt;Node127</title>
<path fill="none" stroke="midnightblue" d="M2411.26,-676.494C2446.51,-659.373 2518.12,-617.182 2518.12,-557 2518.12,-557 2518.12,-557 2518.12,-425 2518.12,-392.061 2530.26,-355.695 2539.59,-332.617"/>
<polygon fill="midnightblue" stroke="midnightblue" points="2542.86,-333.874 2543.49,-323.299 2536.4,-331.168 2542.86,-333.874"/>
</g>
<!-- Node129 -->
<g id="node48" class="node"><title>Node129</title>
<g id="a_node48"><a xlink:href="Board2D_8h_source.html" target="_top" xlink:title="DGtal/io/boards/Board2D.h">
<polygon fill="white" stroke="red" points="2640.62,-298.5 2640.62,-317.5 2785.62,-317.5 2785.62,-298.5 2640.62,-298.5"/>
<text text-anchor="middle" x="2713.12" y="-305.5" font-family="FreeSans" font-size="10.00">DGtal/io/boards/Board2D.h</text>
</a>
</g>
</g>
<!-- Node0&#45;&gt;Node129 -->
<g id="edge113" class="edge"><title>Node0&#45;&gt;Node129</title>
<path fill="none" stroke="midnightblue" d="M2456.87,-676.452C2523.96,-663.533 2619.12,-631.991 2619.12,-557 2619.12,-557 2619.12,-557 2619.12,-425 2619.12,-379.858 2662.63,-342.452 2690.44,-323.147"/>
<polygon fill="midnightblue" stroke="midnightblue" points="2692.48,-325.996 2698.85,-317.529 2688.59,-320.176 2692.48,-325.996"/>
</g>
<!-- Node326 -->
<g id="node49" class="node"><title>Node326</title>
<g id="a_node49"><a xlink:href="CDrawableWithBoard2D_8h_source.html" target="_top" xlink:title="DGtal/io/boards/CDrawable\lWithBoard2D.h">
<polygon fill="white" stroke="red" points="2803.62,-293 2803.62,-323 2948.62,-323 2948.62,-293 2803.62,-293"/>
<text text-anchor="start" x="2811.62" y="-311" font-family="FreeSans" font-size="10.00">DGtal/io/boards/CDrawable</text>
<text text-anchor="middle" x="2876.12" y="-300" font-family="FreeSans" font-size="10.00">WithBoard2D.h</text>
</a>
</g>
</g>
<!-- Node0&#45;&gt;Node326 -->
<g id="edge116" class="edge"><title>Node0&#45;&gt;Node326</title>
<path fill="none" stroke="midnightblue" d="M2457.02,-676.455C2564.35,-660.487 2767.12,-621.751 2767.12,-557 2767.12,-557 2767.12,-557 2767.12,-425 2767.12,-381.679 2808,-347.917 2839.68,-328.25"/>
<polygon fill="midnightblue" stroke="midnightblue" points="2841.55,-331.214 2848.34,-323.081 2837.96,-325.205 2841.55,-331.214"/>
</g>
<!-- Node327 -->
<g id="node50" class="node"><title>Node327</title>
<polygon fill="white" stroke="#bfbfbf" points="3005.12,-614.5 3005.12,-633.5 3079.12,-633.5 3079.12,-614.5 3005.12,-614.5"/>
<text text-anchor="middle" x="3042.12" y="-621.5" font-family="FreeSans" font-size="10.00">ConfigTest.h</text>
</g>
<!-- Node0&#45;&gt;Node327 -->
<g id="edge119" class="edge"><title>Node0&#45;&gt;Node327</title>
<path fill="none" stroke="midnightblue" d="M2474.69,-684.285C2590.87,-682.04 2808.77,-673.281 2991.12,-640 2996.33,-639.051 3001.75,-637.775 3007.04,-636.367"/>
<polygon fill="midnightblue" stroke="midnightblue" points="3008.3,-639.65 3016.96,-633.547 3006.38,-632.917 3008.3,-639.65"/>
</g>
<!-- Node2&#45;&gt;Node1 -->
<g id="edge3" class="edge"><title>Node2&#45;&gt;Node1</title>
<path fill="none" stroke="midnightblue" d="M1577.78,-236.435C1596.92,-229.568 1620.59,-218.041 1635.12,-200 1676.64,-148.451 1631.37,-107.361 1673.12,-56 1686.05,-40.1022 1706.02,-29.3262 1723.87,-22.3157"/>
<polygon fill="midnightblue" stroke="midnightblue" points="1725.31,-25.5145 1733.51,-18.7998 1722.92,-18.9383 1725.31,-25.5145"/>
</g>
<!-- Node3 -->
<g id="node4" class="node"><title>Node3</title>
<polygon fill="white" stroke="#bfbfbf" points="1826.62,-174.5 1826.62,-193.5 1889.62,-193.5 1889.62,-174.5 1826.62,-174.5"/>
<text text-anchor="middle" x="1858.12" y="-181.5" font-family="FreeSans" font-size="10.00">exception</text>
</g>
<!-- Node2&#45;&gt;Node3 -->
<g id="edge4" class="edge"><title>Node2&#45;&gt;Node3</title>
<path fill="none" stroke="midnightblue" d="M1610.3,-236.937C1664.33,-229.409 1743.93,-216.811 1812.12,-200 1816.05,-199.032 1820.12,-197.898 1824.15,-196.695"/>
<polygon fill="midnightblue" stroke="midnightblue" points="1825.47,-199.949 1833.97,-193.615 1823.38,-193.27 1825.47,-199.949"/>
</g>
<!-- Node4 -->
<g id="node5" class="node"><title>Node4</title>
<polygon fill="white" stroke="#bfbfbf" points="780.124,-112.5 780.124,-131.5 842.124,-131.5 842.124,-112.5 780.124,-112.5"/>
<text text-anchor="middle" x="811.124" y="-119.5" font-family="FreeSans" font-size="10.00">algorithm</text>
</g>
<!-- Node2&#45;&gt;Node4 -->
<g id="edge5" class="edge"><title>Node2&#45;&gt;Node4</title>
<path fill="none" stroke="midnightblue" d="M1484.12,-237.33C1479.39,-236.848 1474.68,-236.397 1470.12,-236 1400.72,-229.953 901.163,-240.008 844.124,-200 824.995,-186.582 816.879,-159.68 813.487,-141.503"/>
<polygon fill="midnightblue" stroke="midnightblue" points="816.928,-140.852 811.929,-131.511 810.011,-141.93 816.928,-140.852"/>
</g>
<!-- Node5 -->
<g id="node6" class="node"><title>Node5</title>
<polygon fill="white" stroke="#bfbfbf" points="886.124,-174.5 886.124,-193.5 988.124,-193.5 988.124,-174.5 886.124,-174.5"/>
<text text-anchor="middle" x="937.124" y="-181.5" font-family="FreeSans" font-size="10.00">boost/version.hpp</text>
</g>
<!-- Node2&#45;&gt;Node5 -->
<g id="edge6" class="edge"><title>Node2&#45;&gt;Node5</title>
<path fill="none" stroke="midnightblue" d="M1484.11,-237.425C1479.38,-236.921 1474.68,-236.439 1470.12,-236 1260.27,-215.758 1205.25,-233.687 997.124,-200 990.655,-198.953 983.861,-197.553 977.263,-196.027"/>
<polygon fill="midnightblue" stroke="midnightblue" points="977.678,-192.526 967.134,-193.559 976.021,-199.327 977.678,-192.526"/>
</g>
<!-- Node6 -->
<g id="node7" class="node"><title>Node6</title>
<polygon fill="white" stroke="#bfbfbf" points="22.6244,-174.5 22.6244,-193.5 161.624,-193.5 161.624,-174.5 22.6244,-174.5"/>
<text text-anchor="middle" x="92.1244" y="-181.5" font-family="FreeSans" font-size="10.00">boost/concept_check.hpp</text>
</g>
<!-- Node2&#45;&gt;Node6 -->
<g id="edge7" class="edge"><title>Node2&#45;&gt;Node6</title>
<path fill="none" stroke="midnightblue" d="M1483.74,-244.132C1249.76,-240.737 434.728,-227.191 176.124,-200 165.296,-198.861 153.761,-197.14 142.818,-195.265"/>
<polygon fill="midnightblue" stroke="midnightblue" points="143.431,-191.819 132.972,-193.511 142.203,-198.71 143.431,-191.819"/>
</g>
<!-- Node7 -->
<g id="node8" class="node"><title>Node7</title>
<polygon fill="white" stroke="#bfbfbf" points="2150.62,-174.5 2150.62,-193.5 2279.62,-193.5 2279.62,-174.5 2150.62,-174.5"/>
<text text-anchor="middle" x="2215.12" y="-181.5" font-family="FreeSans" font-size="10.00">boost/static_assert.hpp</text>
</g>
<!-- Node2&#45;&gt;Node7 -->
<g id="edge8" class="edge"><title>Node2&#45;&gt;Node7</title>
<path fill="none" stroke="midnightblue" d="M1610.18,-240.977C1713.38,-234.149 1924.75,-219.15 2103.12,-200 2116.94,-198.517 2131.68,-196.707 2145.78,-194.864"/>
<polygon fill="midnightblue" stroke="midnightblue" points="2146.45,-198.305 2155.91,-193.52 2145.53,-191.366 2146.45,-198.305"/>
</g>
<!-- Node8 -->
<g id="node9" class="node"><title>Node8</title>
<polygon fill="white" stroke="#bfbfbf" points="1006.62,-174.5 1006.62,-193.5 1145.62,-193.5 1145.62,-174.5 1006.62,-174.5"/>
<text text-anchor="middle" x="1076.12" y="-181.5" font-family="FreeSans" font-size="10.00">boost/concept/assert.hpp</text>
</g>
<!-- Node2&#45;&gt;Node8 -->
<g id="edge9" class="edge"><title>Node2&#45;&gt;Node8</title>
<path fill="none" stroke="midnightblue" d="M1484.09,-237.619C1479.37,-237.07 1474.67,-236.525 1470.12,-236 1330.14,-219.821 1294.44,-221.157 1155.12,-200 1146.3,-198.66 1136.96,-197.053 1127.9,-195.397"/>
<polygon fill="midnightblue" stroke="midnightblue" points="1128.32,-191.915 1117.84,-193.518 1127.03,-198.796 1128.32,-191.915"/>
</g>
<!-- Node9 -->
<g id="node10" class="node"><title>Node9</title>
<polygon fill="white" stroke="#bfbfbf" points="1164.12,-174.5 1164.12,-193.5 1312.12,-193.5 1312.12,-174.5 1164.12,-174.5"/>
<text text-anchor="middle" x="1238.12" y="-181.5" font-family="FreeSans" font-size="10.00">boost/concept/requires.hpp</text>
</g>
<!-- Node2&#45;&gt;Node9 -->
<g id="edge10" class="edge"><title>Node2&#45;&gt;Node9</title>
<path fill="none" stroke="midnightblue" d="M1503.18,-236.467C1447.58,-225.671 1351.87,-207.086 1291.94,-195.45"/>
<polygon fill="midnightblue" stroke="midnightblue" points="1292.4,-191.974 1281.92,-193.503 1291.07,-198.845 1292.4,-191.974"/>
</g>
<!-- Node10 -->
<g id="node11" class="node"><title>Node10</title>
<polygon fill="white" stroke="#bfbfbf" points="1330.12,-169 1330.12,-199 1450.12,-199 1450.12,-169 1330.12,-169"/>
<text text-anchor="start" x="1338.12" y="-187" font-family="FreeSans" font-size="10.00">boost/iterator/iterator</text>
<text text-anchor="middle" x="1390.12" y="-176" font-family="FreeSans" font-size="10.00">_concepts.hpp</text>
</g>
<!-- Node2&#45;&gt;Node10 -->
<g id="edge11" class="edge"><title>Node2&#45;&gt;Node10</title>
<path fill="none" stroke="midnightblue" d="M1524.63,-236.403C1501.7,-227.641 1465.47,-213.794 1436.38,-202.679"/>
<polygon fill="midnightblue" stroke="midnightblue" points="1437.41,-199.326 1426.82,-199.025 1434.92,-205.865 1437.41,-199.326"/>
</g>
<!-- Node11 -->
<g id="node12" class="node"><title>Node11</title>
<polygon fill="white" stroke="#bfbfbf" points="1467.62,-174.5 1467.62,-193.5 1626.62,-193.5 1626.62,-174.5 1467.62,-174.5"/>
<text text-anchor="middle" x="1547.12" y="-181.5" font-family="FreeSans" font-size="10.00">boost/concept_archetype.hpp</text>
</g>
<!-- Node2&#45;&gt;Node11 -->
<g id="edge12" class="edge"><title>Node2&#45;&gt;Node11</title>
<path fill="none" stroke="midnightblue" d="M1547.12,-236.403C1547.12,-227.938 1547.12,-214.728 1547.12,-203.82"/>
<polygon fill="midnightblue" stroke="midnightblue" points="1550.62,-203.581 1547.12,-193.581 1543.62,-203.581 1550.62,-203.581"/>
</g>
<!-- Node12 -->
<g id="node13" class="node"><title>Node12</title>
<polygon fill="white" stroke="#bfbfbf" points="1972.62,-112.5 1972.62,-131.5 2019.62,-131.5 2019.62,-112.5 1972.62,-112.5"/>
<text text-anchor="middle" x="1996.12" y="-119.5" font-family="FreeSans" font-size="10.00">cmath</text>
</g>
<!-- Node2&#45;&gt;Node12 -->
<g id="edge13" class="edge"><title>Node2&#45;&gt;Node12</title>
<path fill="none" stroke="midnightblue" d="M1610.31,-241.097C1696.99,-235.03 1847.78,-221.721 1898.12,-200 1918.71,-191.118 1919.54,-181.912 1937.12,-168 1950.17,-157.681 1965.06,-146.326 1976.62,-137.604"/>
<polygon fill="midnightblue" stroke="midnightblue" points="1978.83,-140.317 1984.72,-131.508 1974.63,-134.722 1978.83,-140.317"/>
</g>
<!-- Node13 -->
<g id="node14" class="node"><title>Node13</title>
<polygon fill="white" stroke="#bfbfbf" points="1682.62,-174.5 1682.62,-193.5 1731.62,-193.5 1731.62,-174.5 1682.62,-174.5"/>
<text text-anchor="middle" x="1707.12" y="-181.5" font-family="FreeSans" font-size="10.00">stdio.h</text>
</g>
<!-- Node2&#45;&gt;Node13 -->
<g id="edge14" class="edge"><title>Node2&#45;&gt;Node13</title>
<path fill="none" stroke="midnightblue" d="M1570.35,-236.45C1594.73,-227.454 1634.16,-212.845 1668.12,-200 1670.5,-199.102 1672.95,-198.169 1675.42,-197.227"/>
<polygon fill="midnightblue" stroke="midnightblue" points="1676.78,-200.455 1684.87,-193.61 1674.28,-193.918 1676.78,-200.455"/>
</g>
<!-- Node14 -->
<g id="node15" class="node"><title>Node14</title>
<g id="a_node15"><a xlink:href="Config_8h_source.html" target="_top" xlink:title="DGtal/base/Config.h">
<polygon fill="white" stroke="black" points="384.124,-56.5 384.124,-75.5 496.124,-75.5 496.124,-56.5 384.124,-56.5"/>
<text text-anchor="middle" x="440.124" y="-63.5" font-family="FreeSans" font-size="10.00">DGtal/base/Config.h</text>
</a>
</g>
</g>
<!-- Node2&#45;&gt;Node14 -->
<g id="edge15" class="edge"><title>Node2&#45;&gt;Node14</title>
<path fill="none" stroke="midnightblue" d="M1483.77,-237.455C1478.48,-236.925 1473.21,-236.43 1468.12,-236 1323.97,-223.807 957.166,-239.944 818.124,-200 789.828,-191.871 787.184,-179.599 760.124,-168 665.021,-127.235 547.849,-94.4185 485.009,-78.1436"/>
<polygon fill="midnightblue" stroke="midnightblue" points="485.589,-74.679 475.033,-75.5808 483.847,-81.4588 485.589,-74.679"/>
</g>
<!-- Node16 -->
<g id="node17" class="node"><title>Node16</title>
<g id="a_node17"><a xlink:href="Trace_8h_source.html" target="_top" xlink:title="DGtal/base/Trace.h">
<polygon fill="white" stroke="red" points="256.624,-174.5 256.624,-193.5 363.624,-193.5 363.624,-174.5 256.624,-174.5"/>
<text text-anchor="middle" x="310.124" y="-181.5" font-family="FreeSans" font-size="10.00">DGtal/base/Trace.h</text>
</a>
</g>
</g>
<!-- Node2&#45;&gt;Node16 -->
<g id="edge18" class="edge"><title>Node2&#45;&gt;Node16</title>
<path fill="none" stroke="midnightblue" d="M1484.08,-242.413C1327.97,-235.942 910.868,-218.259 563.124,-200 498.79,-196.622 425.289,-192.201 374.149,-189.036"/>
<polygon fill="midnightblue" stroke="midnightblue" points="374.106,-185.526 363.909,-188.4 373.673,-192.513 374.106,-185.526"/>
</g>
<!-- Node23 -->
<g id="node18" class="node"><title>Node23</title>
<g id="a_node18"><a xlink:href="TraceWriterTerm_8h_source.html" target="_top" xlink:title="DGtal/base/TraceWriterTerm.h">
<polygon fill="white" stroke="red" points="338.624,-112.5 338.624,-131.5 495.624,-131.5 495.624,-112.5 338.624,-112.5"/>
<text text-anchor="middle" x="417.124" y="-119.5" font-family="FreeSans" font-size="10.00">DGtal/base/TraceWriterTerm.h</text>
</a>
</g>
</g>
<!-- Node2&#45;&gt;Node23 -->
<g id="edge29" class="edge"><title>Node2&#45;&gt;Node23</title>
<path fill="none" stroke="midnightblue" d="M1483.71,-237.256C1479.11,-236.797 1474.55,-236.372 1470.12,-236 1314.47,-222.926 915.386,-252.095 768.124,-200 745.328,-191.936 746.515,-177.13 724.124,-168 703.513,-159.596 581.547,-143.286 497.693,-132.782"/>
<polygon fill="midnightblue" stroke="midnightblue" points="498.022,-129.296 487.666,-131.531 497.155,-136.242 498.022,-129.296"/>
</g>
<!-- Node24 -->
<g id="node19" class="node"><title>Node24</title>
<g id="a_node19"><a xlink:href="Assert_8h_source.html" target="_top" xlink:title="DGtal/base/Assert.h">
<polygon fill="white" stroke="red" points="130.624,-112.5 130.624,-131.5 243.624,-131.5 243.624,-112.5 130.624,-112.5"/>
<text text-anchor="middle" x="187.124" y="-119.5" font-family="FreeSans" font-size="10.00">DGtal/base/Assert.h</text>
</a>
</g>
</g>
<!-- Node2&#45;&gt;Node24 -->
<g id="edge33" class="edge"><title>Node2&#45;&gt;Node24</title>
<path fill="none" stroke="midnightblue" d="M1483.99,-244.296C1231.15,-241.288 302.696,-228.35 247.124,-200 222.413,-187.394 204.773,-159.428 195.264,-140.899"/>
<polygon fill="midnightblue" stroke="midnightblue" points="198.333,-139.207 190.824,-131.733 192.033,-142.258 198.333,-139.207"/>
</g>
<!-- Node27 -->
<g id="node20" class="node"><title>Node27</title>
<g id="a_node20"><a xlink:href="TraceWriterFile_8h_source.html" target="_top" xlink:title="DGtal/base/TraceWriterFile.h">
<polygon fill="white" stroke="red" points="179.624,-56.5 179.624,-75.5 328.624,-75.5 328.624,-56.5 179.624,-56.5"/>
<text text-anchor="middle" x="254.124" y="-63.5" font-family="FreeSans" font-size="10.00">DGtal/base/TraceWriterFile.h</text>
</a>
</g>
</g>
<!-- Node2&#45;&gt;Node27 -->
<g id="edge30" class="edge"><title>Node2&#45;&gt;Node27</title>
<path fill="none" stroke="midnightblue" d="M1483.99,-245.25C1235.02,-245.915 329.018,-245.179 209.124,-200 188.143,-192.094 187.832,-181.754 170.124,-168 148.782,-151.423 133.329,-156.111 121.124,-132 117.11,-124.069 115.943,-119.223 121.124,-112 132.854,-95.6488 150.849,-85.1637 169.849,-78.4618"/>
<polygon fill="midnightblue" stroke="midnightblue" points="171.071,-81.7458 179.54,-75.3788 168.949,-75.0752 171.071,-81.7458"/>
</g>
<!-- Node28 -->
<g id="node21" class="node"><title>Node28</title>
<g id="a_node21"><a xlink:href="ConceptUtils_8h_source.html" target="_top" xlink:title="DGtal/base/ConceptUtils.h">
<polygon fill="white" stroke="black" points="572.624,-174.5 572.624,-193.5 715.624,-193.5 715.624,-174.5 572.624,-174.5"/>
<text text-anchor="middle" x="644.124" y="-181.5" font-family="FreeSans" font-size="10.00">DGtal/base/ConceptUtils.h</text>
</a>
</g>
</g>
<!-- Node2&#45;&gt;Node28 -->
<g id="edge34" class="edge"><title>Node2&#45;&gt;Node28</title>
<path fill="none" stroke="midnightblue" d="M1483.71,-237.243C1479.12,-236.787 1474.55,-236.366 1470.12,-236 1141.97,-208.871 1057.39,-236.359 730.124,-200 719.284,-198.796 707.741,-197.083 696.749,-195.243"/>
<polygon fill="midnightblue" stroke="midnightblue" points="697.294,-191.785 686.844,-193.528 696.1,-198.683 697.294,-191.785"/>
</g>
<!-- Node29 -->
<g id="node22" class="node"><title>Node29</title>
<g id="a_node22"><a xlink:href="BasicTypes_8h_source.html" target="_top" xlink:title="DGtal/base/BasicTypes.h">
<polygon fill="white" stroke="red" points="1148.12,-56.5 1148.12,-75.5 1282.12,-75.5 1282.12,-56.5 1148.12,-56.5"/>
<text text-anchor="middle" x="1215.12" y="-63.5" font-family="FreeSans" font-size="10.00">DGtal/base/BasicTypes.h</text>
</a>
</g>
</g>
<!-- Node2&#45;&gt;Node29 -->
<g id="edge36" class="edge"><title>Node2&#45;&gt;Node29</title>
<path fill="none" stroke="midnightblue" d="M1483.77,-237.486C1478.48,-236.948 1473.21,-236.444 1468.12,-236 1402.59,-230.275 922.207,-247.913 877.124,-200 796.213,-114.01 1014.47,-82.6587 1137.55,-72.0203"/>
<polygon fill="midnightblue" stroke="midnightblue" points="1138.02,-75.4931 1147.7,-71.1714 1137.44,-68.5174 1138.02,-75.4931"/>
</g>
<!-- Node32 -->
<g id="node23" class="node"><title>Node32</title>
<g id="a_node23"><a xlink:href="BasicFunctors_8h_source.html" target="_top" xlink:title="DGtal/base/BasicFunctors.h">
<polygon fill="white" stroke="red" points="1946.12,-174.5 1946.12,-193.5 2094.12,-193.5 2094.12,-174.5 1946.12,-174.5"/>
<text text-anchor="middle" x="2020.12" y="-181.5" font-family="FreeSans" font-size="10.00">DGtal/base/BasicFunctors.h</text>
</a>
</g>
</g>
<!-- Node2&#45;&gt;Node32 -->
<g id="edge38" class="edge"><title>Node2&#45;&gt;Node32</title>
<path fill="none" stroke="midnightblue" d="M1610.23,-237.966C1685.05,-229.912 1813.21,-215.78 1923.12,-200 1933.12,-198.565 1943.73,-196.888 1954.14,-195.186"/>
<polygon fill="midnightblue" stroke="midnightblue" points="1954.74,-198.634 1964.04,-193.553 1953.6,-191.728 1954.74,-198.634"/>
</g>
<!-- Node40 -->
<g id="node24" class="node"><title>Node40</title>
<g id="a_node24"><a xlink:href="BasicArchetypes_8h_source.html" target="_top" xlink:title="DGtal/base/BasicArchetypes.h">
<polygon fill="white" stroke="black" points="1682.62,-56.5 1682.62,-75.5 1843.62,-75.5 1843.62,-56.5 1682.62,-56.5"/>
<text text-anchor="middle" x="1763.12" y="-63.5" font-family="FreeSans" font-size="10.00">DGtal/base/BasicArchetypes.h</text>
</a>
</g>
</g>
<!-- Node2&#45;&gt;Node40 -->
<g id="edge42" class="edge"><title>Node2&#45;&gt;Node40</title>
<path fill="none" stroke="midnightblue" d="M1610.37,-237.827C1659.62,-230.909 1722.47,-218.704 1740.12,-200 1769.53,-168.846 1768.67,-114.363 1765.77,-85.7568"/>
<polygon fill="midnightblue" stroke="midnightblue" points="1769.21,-85.0415 1764.53,-75.5354 1762.26,-85.8839 1769.21,-85.0415"/>
</g>
<!-- Node41 -->
<g id="node25" class="node"><title>Node41</title>
<g id="a_node25"><a xlink:href="Exceptions_8h_source.html" target="_top" xlink:title="DGtal/base/Exceptions.h">
<polygon fill="white" stroke="black" points="1796.12,-112.5 1796.12,-131.5 1930.12,-131.5 1930.12,-112.5 1796.12,-112.5"/>
<text text-anchor="middle" x="1863.12" y="-119.5" font-family="FreeSans" font-size="10.00">DGtal/base/Exceptions.h</text>
</a>
</g>
</g>
<!-- Node2&#45;&gt;Node41 -->
<g id="edge44" class="edge"><title>Node2&#45;&gt;Node41</title>
<path fill="none" stroke="midnightblue" d="M1610.59,-241.179C1657.72,-236.306 1722.5,-225.221 1774.12,-200 1790.24,-192.126 1826.11,-158.836 1847.06,-138.694"/>
<polygon fill="midnightblue" stroke="midnightblue" points="1849.54,-141.169 1854.29,-131.699 1844.67,-136.14 1849.54,-141.169"/>
</g>
<!-- Node14&#45;&gt;Node1 -->
<g id="edge16" class="edge"><title>Node14&#45;&gt;Node1</title>
<path fill="none" stroke="midnightblue" d="M496.24,-57.3238C500.932,-56.8224 505.606,-56.3708 510.124,-56 986.758,-16.8838 1568.15,-11.7638 1723.44,-11.0983"/>
<polygon fill="midnightblue" stroke="midnightblue" points="1723.48,-14.5983 1733.47,-11.0591 1723.45,-7.59835 1723.48,-14.5983"/>
</g>
<!-- Node15 -->
<g id="node16" class="node"><title>Node15</title>
<polygon fill="white" stroke="#bfbfbf" points="181.124,-0.5 181.124,-19.5 225.124,-19.5 225.124,-0.5 181.124,-0.5"/>
<text text-anchor="middle" x="203.124" y="-7.5" font-family="FreeSans" font-size="10.00">string</text>
</g>
<!-- Node14&#45;&gt;Node15 -->
<g id="edge17" class="edge"><title>Node14&#45;&gt;Node15</title>
<path fill="none" stroke="midnightblue" d="M402.571,-56.4435C356.291,-45.8987 278.458,-28.1646 234.97,-18.256"/>
<polygon fill="midnightblue" stroke="midnightblue" points="235.735,-14.8406 225.207,-16.0315 234.18,-21.6657 235.735,-14.8406"/>
</g>
<!-- Node16&#45;&gt;Node1 -->
<g id="edge19" class="edge"><title>Node16&#45;&gt;Node1</title>
<path fill="none" stroke="midnightblue" d="M346.332,-174.489C398.547,-162.063 490.274,-139.607 504.124,-132 547.678,-108.079 540.219,-75.0216 586.124,-56 692.961,-11.7306 1530.02,-10.5608 1723.37,-10.8879"/>
<polygon fill="midnightblue" stroke="midnightblue" points="1723.37,-14.3878 1733.38,-10.9072 1723.38,-7.38782 1723.37,-14.3878"/>
</g>
<!-- Node16&#45;&gt;Node14 -->
<g id="edge21" class="edge"><title>Node16&#45;&gt;Node14</title>
<path fill="none" stroke="midnightblue" d="M310.072,-174.438C310.44,-159.842 313.242,-129.979 329.124,-112 343.499,-95.7278 364.613,-85.2434 384.578,-78.5324"/>
<polygon fill="midnightblue" stroke="midnightblue" points="385.738,-81.8373 394.252,-75.5322 383.664,-75.1515 385.738,-81.8373"/>
</g>
<!-- Node16&#45;&gt;Node15 -->
<g id="edge20" class="edge"><title>Node16&#45;&gt;Node15</title>
<path fill="none" stroke="midnightblue" d="M305.065,-174.465C296.061,-159.908 275.95,-130.103 252.124,-112 220.433,-87.9199 191.889,-109.324 170.124,-76 159.711,-60.0562 172.94,-40.3992 185.616,-26.9022"/>
<polygon fill="midnightblue" stroke="midnightblue" points="188.199,-29.2698 192.832,-19.7419 183.268,-24.3007 188.199,-29.2698"/>
</g>
<!-- Node16&#45;&gt;Node23 -->
<g id="edge22" class="edge"><title>Node16&#45;&gt;Node23</title>
<path fill="none" stroke="midnightblue" d="M325.455,-174.403C343.094,-164.512 372.284,-148.144 392.982,-136.538"/>
<polygon fill="midnightblue" stroke="midnightblue" points="394.812,-139.524 401.822,-131.581 391.388,-133.419 394.812,-139.524"/>
</g>
<!-- Node16&#45;&gt;Node24 -->
<g id="edge26" class="edge"><title>Node16&#45;&gt;Node24</title>
<path fill="none" stroke="midnightblue" d="M287.601,-174.403C265.084,-164.468 231.042,-147.997 208.827,-136.381"/>
<polygon fill="midnightblue" stroke="midnightblue" points="210.289,-133.194 199.817,-131.581 206.997,-139.372 210.289,-133.194"/>
</g>
<!-- Node23&#45;&gt;Node1 -->
<g id="edge23" class="edge"><title>Node23&#45;&gt;Node1</title>
<path fill="none" stroke="midnightblue" d="M433.352,-112.467C465.683,-95.5378 536.067,-59.0634 548.124,-56 664.011,-26.5569 1526.56,-13.9812 1723.27,-11.4797"/>
<polygon fill="midnightblue" stroke="midnightblue" points="1723.49,-14.9774 1733.44,-11.3519 1723.4,-7.97794 1723.49,-14.9774"/>
</g>
<!-- Node23&#45;&gt;Node14 -->
<g id="edge25" class="edge"><title>Node23&#45;&gt;Node14</title>
<path fill="none" stroke="midnightblue" d="M420.922,-112.083C424.037,-104.77 428.547,-94.1814 432.414,-85.1034"/>
<polygon fill="midnightblue" stroke="midnightblue" points="435.698,-86.3229 436.397,-75.7511 429.258,-83.5798 435.698,-86.3229"/>
</g>
<!-- Node23&#45;&gt;Node15 -->
<g id="edge24" class="edge"><title>Node23&#45;&gt;Node15</title>
<path fill="none" stroke="midnightblue" d="M408.545,-112.235C394.679,-98.5101 365.971,-71.8773 337.124,-56 304.525,-38.0574 263.533,-25.5827 235.527,-18.3933"/>
<polygon fill="midnightblue" stroke="midnightblue" points="236.023,-14.9101 225.474,-15.8963 234.335,-21.7037 236.023,-14.9101"/>
</g>
<!-- Node24&#45;&gt;Node15 -->
<g id="edge28" class="edge"><title>Node24&#45;&gt;Node15</title>
<path fill="none" stroke="midnightblue" d="M172.378,-112.379C154.07,-100.492 126.581,-78.0314 138.124,-56 145.403,-42.1082 159.134,-31.6523 172.107,-24.3328"/>
<polygon fill="midnightblue" stroke="midnightblue" points="174.053,-27.2662 181.316,-19.553 170.828,-21.0532 174.053,-27.2662"/>
</g>
<!-- Node24&#45;&gt;Node16 -->
<g id="edge27" class="edge"><title>Node24&#45;&gt;Node16</title>
<path fill="none" stroke="midnightblue" d="M209.612,-131.581C232.117,-141.509 266.159,-157.98 288.386,-169.6"/>
<polygon fill="midnightblue" stroke="midnightblue" points="286.931,-172.79 297.402,-174.403 290.222,-166.612 286.931,-172.79"/>
</g>
<!-- Node27&#45;&gt;Node1 -->
<g id="edge31" class="edge"><title>Node27&#45;&gt;Node1</title>
<path fill="none" stroke="midnightblue" d="M328.644,-58.965C344.007,-57.8592 360.084,-56.8028 375.124,-56 908.132,-27.5496 1557.31,-14.6524 1723.1,-11.6851"/>
<polygon fill="midnightblue" stroke="midnightblue" points="1723.38,-15.1808 1733.32,-11.504 1723.25,-8.18191 1723.38,-15.1808"/>
</g>
<!-- Node27&#45;&gt;Node15 -->
<g id="edge32" class="edge"><title>Node27&#45;&gt;Node15</title>
<path fill="none" stroke="midnightblue" d="M245.703,-56.083C238.276,-48.2195 227.273,-36.5688 218.312,-27.0813"/>
<polygon fill="midnightblue" stroke="midnightblue" points="220.8,-24.618 211.389,-19.7511 215.711,-29.4244 220.8,-24.618"/>
</g>
<!-- Node28&#45;&gt;Node1 -->
<g id="edge35" class="edge"><title>Node28&#45;&gt;Node1</title>
<path fill="none" stroke="midnightblue" d="M657.924,-174.451C685.703,-157.383 747.708,-120.031 771.124,-112 952.206,-49.8958 1560.82,-19.7147 1723.08,-12.6514"/>
<polygon fill="midnightblue" stroke="midnightblue" points="1723.71,-16.1277 1733.55,-12.201 1723.41,-9.13421 1723.71,-16.1277"/>
</g>
<!-- Node29&#45;&gt;Node1 -->
<g id="edge37" class="edge"><title>Node29&#45;&gt;Node1</title>
<path fill="none" stroke="midnightblue" d="M1282.32,-58.3785C1397.77,-47.0025 1630.31,-24.0873 1723.34,-14.9207"/>
<polygon fill="midnightblue" stroke="midnightblue" points="1723.85,-18.3875 1733.46,-13.9236 1723.16,-11.4212 1723.85,-18.3875"/>
</g>
<!-- Node32&#45;&gt;Node2 -->
<g id="edge41" class="edge"><title>Node32&#45;&gt;Node2</title>
<path fill="none" stroke="midnightblue" d="M1981.36,-193.553C1968.58,-195.792 1954.32,-198.106 1941.12,-200 1829.88,-215.971 1699.94,-230.255 1620.53,-238.256"/>
<polygon fill="midnightblue" stroke="midnightblue" points="1619.75,-234.817 1610.15,-239.296 1620.45,-241.782 1619.75,-234.817"/>
</g>
<!-- Node32&#45;&gt;Node4 -->
<g id="edge39" class="edge"><title>Node32&#45;&gt;Node4</title>
<path fill="none" stroke="midnightblue" d="M1958.79,-174.474C1939.41,-172.046 1917.9,-169.623 1898.12,-168 1491.34,-134.628 996.786,-125.532 852.48,-123.507"/>
<polygon fill="midnightblue" stroke="midnightblue" points="852.358,-120.005 842.311,-123.368 852.262,-127.004 852.358,-120.005"/>
</g>
<!-- Node32&#45;&gt;Node12 -->
<g id="edge40" class="edge"><title>Node32&#45;&gt;Node12</title>
<path fill="none" stroke="midnightblue" d="M2016.69,-174.403C2013.23,-165.76 2007.79,-152.17 2003.38,-141.134"/>
<polygon fill="midnightblue" stroke="midnightblue" points="2006.52,-139.565 1999.56,-131.581 2000.02,-142.165 2006.52,-139.565"/>
</g>
<!-- Node40&#45;&gt;Node1 -->
<g id="edge43" class="edge"><title>Node40&#45;&gt;Node1</title>
<path fill="none" stroke="midnightblue" d="M1763.12,-56.083C1763.12,-49.0059 1763.12,-38.8611 1763.12,-29.9865"/>
<polygon fill="midnightblue" stroke="midnightblue" points="1766.62,-29.751 1763.12,-19.7511 1759.62,-29.7511 1766.62,-29.751"/>
</g>
<!-- Node41&#45;&gt;Node1 -->
<g id="edge45" class="edge"><title>Node41&#45;&gt;Node1</title>
<path fill="none" stroke="midnightblue" d="M1863.97,-112.49C1864.84,-99.1147 1864.62,-72.9522 1852.12,-56 1840.08,-39.6538 1820.39,-28.8403 1802.59,-21.9208"/>
<polygon fill="midnightblue" stroke="midnightblue" points="1803.55,-18.5471 1792.95,-18.4669 1801.19,-25.1364 1803.55,-18.5471"/>
</g>
<!-- Node42&#45;&gt;Node1 -->
<g id="edge47" class="edge"><title>Node42&#45;&gt;Node1</title>
<path fill="none" stroke="midnightblue" d="M770.816,-368.94C685.941,-367.253 551.357,-358.941 517.124,-324 467.328,-273.173 497.468,-212.333 553.124,-168 589.745,-138.83 609.31,-150.946 652.124,-132 669.577,-124.277 672.74,-119.876 690.124,-112 753.43,-83.3212 768.115,-70.3095 836.124,-56 1009.35,-19.5522 1568.13,-12.5201 1723,-11.2591"/>
<polygon fill="midnightblue" stroke="midnightblue" points="1723.47,-14.7556 1733.44,-11.1779 1723.41,-7.75584 1723.47,-14.7556"/>
</g>
<!-- Node42&#45;&gt;Node2 -->
<g id="edge53" class="edge"><title>Node42&#45;&gt;Node2</title>
<path fill="none" stroke="midnightblue" d="M859.766,-360.447C876.575,-352.011 902.329,-338.334 923.124,-324 941.304,-311.469 940.688,-300.359 961.124,-292 1052.02,-254.822 1337.52,-248.111 1473.59,-247.07"/>
<polygon fill="midnightblue" stroke="midnightblue" points="1473.94,-250.568 1483.92,-247 1473.89,-243.568 1473.94,-250.568"/>
</g>
<!-- Node42&#45;&gt;Node4 -->
<g id="edge50" class="edge"><title>Node42&#45;&gt;Node4</title>
<path fill="none" stroke="midnightblue" d="M770.971,-368.56C692.027,-366.383 571.934,-357.47 543.124,-324 515.48,-291.884 483.55,-249.149 563.124,-168 577.447,-153.394 703.169,-136.116 769.904,-127.862"/>
<polygon fill="midnightblue" stroke="midnightblue" points="770.582,-131.306 780.082,-126.617 769.731,-124.357 770.582,-131.306"/>
</g>
<!-- Node42&#45;&gt;Node15 -->
<g id="edge48" class="edge"><title>Node42&#45;&gt;Node15</title>
<path fill="none" stroke="midnightblue" d="M770.917,-365.647C695.696,-360.878 574.097,-349.663 472.124,-324 434.186,-314.452 427.432,-303.774 390.124,-292 225.649,-240.091 119.648,-335.645 13.1244,-200 -44.3929,-126.759 104.179,-52.5096 171.735,-23.6014"/>
<polygon fill="midnightblue" stroke="midnightblue" points="173.219,-26.7741 181.08,-19.6708 170.505,-20.3217 173.219,-26.7741"/>
</g>
<!-- Node43 -->
<g id="node27" class="node"><title>Node43</title>
<polygon fill="white" stroke="#bfbfbf" points="708.124,-298.5 708.124,-317.5 752.124,-317.5 752.124,-298.5 708.124,-298.5"/>
<text text-anchor="middle" x="730.124" y="-305.5" font-family="FreeSans" font-size="10.00">bitset</text>
</g>
<!-- Node42&#45;&gt;Node43 -->
<g id="edge49" class="edge"><title>Node42&#45;&gt;Node43</title>
<path fill="none" stroke="midnightblue" d="M826.078,-360.403C807.531,-350.468 776.785,-333.997 755.103,-322.381"/>
<polygon fill="midnightblue" stroke="midnightblue" points="756.609,-319.218 746.141,-317.581 753.303,-325.388 756.609,-319.218"/>
</g>
<!-- Node44 -->
<g id="node28" class="node"><title>Node44</title>
<polygon fill="white" stroke="#bfbfbf" points="340.624,-298.5 340.624,-317.5 381.624,-317.5 381.624,-298.5 340.624,-298.5"/>
<text text-anchor="middle" x="361.124" y="-305.5" font-family="FreeSans" font-size="10.00">array</text>
</g>
<!-- Node42&#45;&gt;Node44 -->
<g id="edge51" class="edge"><title>Node42&#45;&gt;Node44</title>
<path fill="none" stroke="midnightblue" d="M771.054,-368.446C682.053,-366.253 525.541,-357.421 396.124,-324 393.304,-323.272 390.418,-322.35 387.571,-321.322"/>
<polygon fill="midnightblue" stroke="midnightblue" points="388.788,-318.039 378.205,-317.551 386.174,-324.533 388.788,-318.039"/>
</g>
<!-- Node45 -->
<g id="node29" class="node"><title>Node45</title>
<polygon fill="white" stroke="#bfbfbf" points="970.624,-298.5 970.624,-317.5 1017.62,-317.5 1017.62,-298.5 970.624,-298.5"/>
<text text-anchor="middle" x="994.124" y="-305.5" font-family="FreeSans" font-size="10.00">vector</text>
</g>
<!-- Node42&#45;&gt;Node45 -->
<g id="edge52" class="edge"><title>Node42&#45;&gt;Node45</title>
<path fill="none" stroke="midnightblue" d="M863.902,-360.403C889.863,-350.156 933.436,-332.956 962.959,-321.302"/>
<polygon fill="midnightblue" stroke="midnightblue" points="964.37,-324.508 972.387,-317.581 961.8,-317.997 964.37,-324.508"/>
</g>
<!-- Node46 -->
<g id="node30" class="node"><title>Node46</title>
<g id="a_node30"><a xlink:href="CBidirectionalRange_8h_source.html" target="_top" xlink:title="DGtal/base/CBidirectional\lRange.h">
<polygon fill="white" stroke="red" points="552.124,-293 552.124,-323 690.124,-323 690.124,-293 552.124,-293"/>
<text text-anchor="start" x="560.124" y="-311" font-family="FreeSans" font-size="10.00">DGtal/base/CBidirectional</text>
<text text-anchor="middle" x="621.124" y="-300" font-family="FreeSans" font-size="10.00">Range.h</text>
</a>
</g>
</g>
<!-- Node42&#45;&gt;Node46 -->
<g id="edge54" class="edge"><title>Node42&#45;&gt;Node46</title>
<path fill="none" stroke="midnightblue" d="M810.46,-360.403C777.202,-351.374 724.061,-336.947 682.532,-325.672"/>
<polygon fill="midnightblue" stroke="midnightblue" points="683.352,-322.268 672.784,-323.025 681.518,-329.023 683.352,-322.268"/>
</g>
<!-- Node49 -->
<g id="node31" class="node"><title>Node49</title>
<g id="a_node31"><a xlink:href="NumberTraits_8h_source.html" target="_top" xlink:title="DGtal/kernel/NumberTraits.h">
<polygon fill="white" stroke="red" points="1253.12,-298.5 1253.12,-317.5 1405.12,-317.5 1405.12,-298.5 1253.12,-298.5"/>
<text text-anchor="middle" x="1329.12" y="-305.5" font-family="FreeSans" font-size="10.00">DGtal/kernel/NumberTraits.h</text>
</a>
</g>
</g>
<!-- Node42&#45;&gt;Node49 -->
<g id="edge58" class="edge"><title>Node42&#45;&gt;Node49</title>
<path fill="none" stroke="midnightblue" d="M911.124,-360.499C1000.49,-349.488 1155.93,-330.338 1249.99,-318.749"/>
<polygon fill="midnightblue" stroke="midnightblue" points="1250.53,-322.21 1260.03,-317.513 1249.67,-315.262 1250.53,-322.21"/>
</g>
<!-- Node53 -->
<g id="node32" class="node"><title>Node53</title>
<g id="a_node32"><a xlink:href="CEuclideanRing_8h_source.html" target="_top" xlink:title="DGtal/kernel/CEuclideanRing.h">
<polygon fill="white" stroke="red" points="1035.62,-298.5 1035.62,-317.5 1196.62,-317.5 1196.62,-298.5 1035.62,-298.5"/>
<text text-anchor="middle" x="1116.12" y="-305.5" font-family="FreeSans" font-size="10.00">DGtal/kernel/CEuclideanRing.h</text>
</a>
</g>
</g>
<!-- Node42&#45;&gt;Node53 -->
<g id="edge60" class="edge"><title>Node42&#45;&gt;Node53</title>
<path fill="none" stroke="midnightblue" d="M881.091,-360.467C930.088,-349.738 1014.22,-331.316 1067.41,-319.667"/>
<polygon fill="midnightblue" stroke="midnightblue" points="1068.27,-323.062 1077.29,-317.503 1066.78,-316.224 1068.27,-323.062"/>
</g>
<!-- Node58 -->
<g id="node33" class="node"><title>Node58</title>
<g id="a_node33"><a xlink:href="PointVector_8ih_source.html" target="_top" xlink:title="DGtal/kernel/PointVector.ih">
<polygon fill="white" stroke="black" points="770.124,-298.5 770.124,-317.5 914.124,-317.5 914.124,-298.5 770.124,-298.5"/>
<text text-anchor="middle" x="842.124" y="-305.5" font-family="FreeSans" font-size="10.00">DGtal/kernel/PointVector.ih</text>
</a>
</g>
</g>
<!-- Node42&#45;&gt;Node58 -->
<g id="edge63" class="edge"><title>Node42&#45;&gt;Node58</title>
<path fill="none" stroke="midnightblue" d="M842.124,-360.403C842.124,-351.938 842.124,-338.728 842.124,-327.82"/>
<polygon fill="midnightblue" stroke="midnightblue" points="845.624,-327.581 842.124,-317.581 838.624,-327.581 845.624,-327.581"/>
</g>
<!-- Node46&#45;&gt;Node2 -->
<g id="edge55" class="edge"><title>Node46&#45;&gt;Node2</title>
<path fill="none" stroke="midnightblue" d="M690.369,-293.174C693.322,-292.745 696.25,-292.351 699.124,-292 984.235,-257.187 1326.52,-249.299 1473.84,-247.517"/>
<polygon fill="midnightblue" stroke="midnightblue" points="1474.14,-251.014 1484.1,-247.399 1474.06,-244.014 1474.14,-251.014"/>
</g>
<!-- Node46&#45;&gt;Node6 -->
<g id="edge56" class="edge"><title>Node46&#45;&gt;Node6</title>
<path fill="none" stroke="midnightblue" d="M560.183,-292.946C453.496,-268.341 235.126,-217.98 139.147,-195.845"/>
<polygon fill="midnightblue" stroke="midnightblue" points="139.685,-192.377 129.155,-193.54 138.112,-199.198 139.685,-192.377"/>
</g>
<!-- Node46&#45;&gt;Node28 -->
<g id="edge57" class="edge"><title>Node46&#45;&gt;Node28</title>
<path fill="none" stroke="midnightblue" d="M623.853,-292.526C628.024,-270.403 635.984,-228.181 640.591,-203.744"/>
<polygon fill="midnightblue" stroke="midnightblue" points="644.085,-204.098 642.499,-193.623 637.207,-202.801 644.085,-204.098"/>
</g>
<!-- Node49&#45;&gt;Node2 -->
<g id="edge59" class="edge"><title>Node49&#45;&gt;Node2</title>
<path fill="none" stroke="midnightblue" d="M1360.36,-298.403C1398.72,-287.844 1463.91,-269.903 1506.24,-258.254"/>
<polygon fill="midnightblue" stroke="midnightblue" points="1507.24,-261.609 1515.95,-255.581 1505.38,-254.86 1507.24,-261.609"/>
</g>
<!-- Node53&#45;&gt;Node1 -->
<g id="edge61" class="edge"><title>Node53&#45;&gt;Node1</title>
<path fill="none" stroke="midnightblue" d="M1067.39,-298.416C933.825,-274.78 571.244,-209.841 563.124,-200 554.073,-189.03 554.548,-179.345 563.124,-168 598.503,-121.199 635.649,-153.78 690.124,-132 707.846,-124.915 710.298,-118.817 728.124,-112 823.572,-75.4995 850.094,-71.3413 951.124,-56 1245.16,-11.3514 1605.07,-9.7119 1723.38,-10.5325"/>
<polygon fill="midnightblue" stroke="midnightblue" points="1723.39,-14.0327 1733.42,-10.6124 1723.45,-7.03288 1723.39,-14.0327"/>
</g>
<!-- Node53&#45;&gt;Node2 -->
<g id="edge62" class="edge"><title>Node53&#45;&gt;Node2</title>
<path fill="none" stroke="midnightblue" d="M1168.85,-298.449C1182.6,-296.281 1197.41,-294.001 1211.12,-292 1301.42,-278.827 1405.58,-265.105 1473.7,-256.33"/>
<polygon fill="midnightblue" stroke="midnightblue" points="1474.43,-259.765 1483.9,-255.018 1473.53,-252.823 1474.43,-259.765"/>
</g>
<!-- Node59&#45;&gt;Node1 -->
<g id="edge65" class="edge"><title>Node59&#45;&gt;Node1</title>
<path fill="none" stroke="midnightblue" d="M1019.49,-550.82C828.772,-538.448 312.124,-498.348 312.124,-427 312.124,-427 312.124,-427 312.124,-369 312.124,-333.751 312.133,-321.695 331.124,-292 384.478,-208.575 613.276,-80.8886 709.124,-56 808.577,-30.1756 1543.56,-15.0478 1723.47,-11.7071"/>
<polygon fill="midnightblue" stroke="midnightblue" points="1723.62,-15.205 1733.55,-11.5215 1723.49,-8.20623 1723.62,-15.205"/>
</g>
<!-- Node59&#45;&gt;Node2 -->
<g id="edge69" class="edge"><title>Node59&#45;&gt;Node2</title>
<path fill="none" stroke="midnightblue" d="M1158.73,-541.481C1187.24,-533.684 1219.49,-521.783 1245.12,-504 1312.42,-457.319 1298.56,-414.021 1360.12,-360 1374.1,-347.741 1476.29,-288.017 1523.42,-260.693"/>
<polygon fill="midnightblue" stroke="midnightblue" points="1525.43,-263.573 1532.33,-255.533 1521.93,-257.515 1525.43,-263.573"/>
</g>
<!-- Node59&#45;&gt;Node42 -->
<g id="edge76" class="edge"><title>Node59&#45;&gt;Node42</title>
<path fill="none" stroke="midnightblue" d="M1019.25,-550.497C977.745,-544.799 925.999,-532.103 888.124,-504 859.783,-482.971 857.879,-469.612 847.124,-436 842.322,-420.993 841.265,-403.085 841.299,-389.869"/>
<polygon fill="midnightblue" stroke="midnightblue" points="844.803,-389.735 841.543,-379.654 837.805,-389.568 844.803,-389.735"/>
</g>
<!-- Node59&#45;&gt;Node44 -->
<g id="edge68" class="edge"><title>Node59&#45;&gt;Node44</title>
<path fill="none" stroke="midnightblue" d="M1019.57,-542.752C972.87,-533.803 910.219,-520.392 856.124,-504 673.394,-448.627 463.007,-355.531 388.778,-321.741"/>
<polygon fill="midnightblue" stroke="midnightblue" points="390.168,-318.528 379.618,-317.557 387.26,-324.895 390.168,-318.528"/>
</g>
<!-- Node60 -->
<g id="node35" class="node"><title>Node60</title>
<polygon fill="white" stroke="#bfbfbf" points="856.124,-416.5 856.124,-435.5 888.124,-435.5 888.124,-416.5 856.124,-416.5"/>
<text text-anchor="middle" x="872.124" y="-423.5" font-family="FreeSans" font-size="10.00">set</text>
</g>
<!-- Node59&#45;&gt;Node60 -->
<g id="edge66" class="edge"><title>Node59&#45;&gt;Node60</title>
<path fill="none" stroke="midnightblue" d="M1019.55,-546.554C985.835,-539.607 946.411,-526.969 917.124,-504 897.753,-488.807 885.085,-462.783 878.267,-445.243"/>
<polygon fill="midnightblue" stroke="midnightblue" points="881.467,-443.801 874.77,-435.591 874.886,-446.186 881.467,-443.801"/>
</g>
<!-- Node61 -->
<g id="node36" class="node"><title>Node61</title>
<polygon fill="white" stroke="#bfbfbf" points="906.124,-416.5 906.124,-435.5 944.124,-435.5 944.124,-416.5 906.124,-416.5"/>
<text text-anchor="middle" x="925.124" y="-423.5" font-family="FreeSans" font-size="10.00">map</text>
</g>
<!-- Node59&#45;&gt;Node61 -->
<g id="edge67" class="edge"><title>Node59&#45;&gt;Node61</title>
<path fill="none" stroke="midnightblue" d="M1019.26,-549.793C987.412,-543.62 952.197,-530.698 931.124,-504 918.177,-487.596 918.771,-462.624 921.217,-445.599"/>
<polygon fill="midnightblue" stroke="midnightblue" points="924.667,-446.185 922.968,-435.727 917.775,-444.962 924.667,-446.185"/>
</g>
<!-- Node62 -->
<g id="node37" class="node"><title>Node62</title>
<g id="a_node37"><a xlink:href="CInteger_8h_source.html" target="_top" xlink:title="DGtal/kernel/CInteger.h">
<polygon fill="white" stroke="red" points="1369.12,-360.5 1369.12,-379.5 1497.12,-379.5 1497.12,-360.5 1369.12,-360.5"/>
<text text-anchor="middle" x="1433.12" y="-367.5" font-family="FreeSans" font-size="10.00">DGtal/kernel/CInteger.h</text>
</a>
</g>
</g>
<!-- Node59&#45;&gt;Node62 -->
<g id="edge70" class="edge"><title>Node59&#45;&gt;Node62</title>
<path fill="none" stroke="midnightblue" d="M1158.88,-550.758C1206.3,-545.255 1268.94,-532.677 1317.12,-504 1366.33,-474.719 1405.51,-417.315 1423.08,-388.45"/>
<polygon fill="midnightblue" stroke="midnightblue" points="1426.1,-390.222 1428.2,-379.837 1420.08,-386.648 1426.1,-390.222"/>
</g>
<!-- Node64 -->
<g id="node38" class="node"><title>Node64</title>
<g id="a_node38"><a xlink:href="SpaceND_8h_source.html" target="_top" xlink:title="DGtal/kernel/SpaceND.h">
<polygon fill="white" stroke="black" points="1445.62,-416.5 1445.62,-435.5 1578.62,-435.5 1578.62,-416.5 1445.62,-416.5"/>
<text text-anchor="middle" x="1512.12" y="-423.5" font-family="FreeSans" font-size="10.00">DGtal/kernel/SpaceND.h</text>
</a>
</g>
</g>
<!-- Node59&#45;&gt;Node64 -->
<g id="edge77" class="edge"><title>Node59&#45;&gt;Node64</title>
<path fill="none" stroke="midnightblue" d="M1158.95,-549.576C1244.68,-542.06 1384.46,-526.776 1431.12,-504 1459.89,-489.958 1485.23,-462.03 1499.6,-443.949"/>
<polygon fill="midnightblue" stroke="midnightblue" points="1502.42,-446.027 1505.75,-435.968 1496.87,-441.757 1502.42,-446.027"/>
</g>
<!-- Node65 -->
<g id="node39" class="node"><title>Node65</title>
<g id="a_node39"><a xlink:href="KhalimskyPreSpaceND_8h_source.html" target="_top" xlink:title="DGtal/topology/Khalimsky\lPreSpaceND.h">
<polygon fill="white" stroke="red" points="940.624,-473 940.624,-503 1079.62,-503 1079.62,-473 940.624,-473"/>
<text text-anchor="start" x="948.624" y="-491" font-family="FreeSans" font-size="10.00">DGtal/topology/Khalimsky</text>
<text text-anchor="middle" x="1010.12" y="-480" font-family="FreeSans" font-size="10.00">PreSpaceND.h</text>
</a>
</g>
</g>
<!-- Node59&#45;&gt;Node65 -->
<g id="edge82" class="edge"><title>Node59&#45;&gt;Node65</title>
<path fill="none" stroke="midnightblue" d="M1071.98,-540.679C1061.14,-531.623 1046.95,-519.768 1034.9,-509.697"/>
<polygon fill="midnightblue" stroke="midnightblue" points="1036.88,-506.792 1026.96,-503.066 1032.39,-512.164 1036.88,-506.792"/>
</g>
<!-- Node67 -->
<g id="node40" class="node"><title>Node67</title>
<g id="a_node40"><a xlink:href="KhalimskySpaceND_8ih_source.html" target="_top" xlink:title="DGtal/topology/Khalimsky\lSpaceND.ih">
<polygon fill="white" stroke="black" points="1097.62,-473 1097.62,-503 1236.62,-503 1236.62,-473 1097.62,-473"/>
<text text-anchor="start" x="1105.62" y="-491" font-family="FreeSans" font-size="10.00">DGtal/topology/Khalimsky</text>
<text text-anchor="middle" x="1167.12" y="-480" font-family="FreeSans" font-size="10.00">SpaceND.ih</text>
</a>
</g>
</g>
<!-- Node59&#45;&gt;Node67 -->
<g id="edge90" class="edge"><title>Node59&#45;&gt;Node67</title>
<path fill="none" stroke="midnightblue" d="M1106.05,-540.679C1116.75,-531.623 1130.76,-519.768 1142.66,-509.697"/>
<polygon fill="midnightblue" stroke="midnightblue" points="1145.13,-512.198 1150.5,-503.066 1140.61,-506.854 1145.13,-512.198"/>
</g>
<!-- Node62&#45;&gt;Node1 -->
<g id="edge71" class="edge"><title>Node62&#45;&gt;Node1</title>
<path fill="none" stroke="midnightblue" d="M1480.68,-360.469C1627.14,-333.727 2063.91,-250.333 2103.12,-200 2189.69,-88.8923 1909.56,-33.38 1802.75,-16.62"/>
<polygon fill="midnightblue" stroke="midnightblue" points="1803.09,-13.1316 1792.68,-15.074 1802.03,-20.0506 1803.09,-13.1316"/>
</g>
<!-- Node62&#45;&gt;Node2 -->
<g id="edge72" class="edge"><title>Node62&#45;&gt;Node2</title>
<path fill="none" stroke="midnightblue" d="M1444.39,-360.232C1455.29,-351.533 1472.02,-337.573 1485.12,-324 1503.66,-304.799 1522.55,-280.517 1534.53,-264.41"/>
<polygon fill="midnightblue" stroke="midnightblue" points="1537.63,-266.102 1540.73,-255.971 1531.98,-261.958 1537.63,-266.102"/>
</g>
<!-- Node62&#45;&gt;Node28 -->
<g id="edge73" class="edge"><title>Node62&#45;&gt;Node28</title>
<path fill="none" stroke="midnightblue" d="M1433.85,-360.276C1434.66,-344.131 1433.82,-309.636 1414.12,-292 1298.23,-188.215 873.625,-225.297 720.124,-200 712.011,-198.663 703.438,-197.109 695.088,-195.518"/>
<polygon fill="midnightblue" stroke="midnightblue" points="695.542,-192.041 685.059,-193.571 694.208,-198.913 695.542,-192.041"/>
</g>
<!-- Node62&#45;&gt;Node49 -->
<g id="edge75" class="edge"><title>Node62&#45;&gt;Node49</title>
<path fill="none" stroke="midnightblue" d="M1418.22,-360.403C1401.16,-350.557 1372.96,-334.291 1352.86,-322.695"/>
<polygon fill="midnightblue" stroke="midnightblue" points="1354.41,-319.546 1344,-317.581 1350.91,-325.61 1354.41,-319.546"/>
</g>
<!-- Node62&#45;&gt;Node53 -->
<g id="edge74" class="edge"><title>Node62&#45;&gt;Node53</title>
<path fill="none" stroke="midnightblue" d="M1388.04,-360.467C1330.89,-349.649 1232.4,-331.009 1170.96,-319.378"/>
<polygon fill="midnightblue" stroke="midnightblue" points="1171.53,-315.924 1161.05,-317.503 1170.23,-322.802 1171.53,-315.924"/>
</g>
<!-- Node64&#45;&gt;Node1 -->
<g id="edge78" class="edge"><title>Node64&#45;&gt;Node1</title>
<path fill="none" stroke="midnightblue" d="M1578.94,-423.206C1682.65,-418.069 1886.41,-398.447 2040.12,-324 2059.69,-314.523 2058.09,-302.511 2077.12,-292 2125.12,-265.492 2143.84,-275.402 2195.12,-256 2264.49,-229.759 2346.12,-259.16 2346.12,-185 2346.12,-185 2346.12,-185 2346.12,-121 2346.12,-76.5533 2311.1,-73.2278 2270.12,-56 2185.96,-20.6091 1907.3,-13.0325 1803,-11.4265"/>
<polygon fill="midnightblue" stroke="midnightblue" points="1802.93,-7.92532 1792.88,-11.2813 1802.83,-14.9246 1802.93,-7.92532"/>
</g>
<!-- Node64&#45;&gt;Node2 -->
<g id="edge79" class="edge"><title>Node64&#45;&gt;Node2</title>
<path fill="none" stroke="midnightblue" d="M1513.81,-416.415C1519.16,-389.227 1535.81,-304.563 1543.35,-266.217"/>
<polygon fill="midnightblue" stroke="midnightblue" points="1546.88,-266.406 1545.37,-255.918 1540.01,-265.055 1546.88,-266.406"/>
</g>
<!-- Node64&#45;&gt;Node42 -->
<g id="edge81" class="edge"><title>Node64&#45;&gt;Node42</title>
<path fill="none" stroke="midnightblue" d="M1445.43,-419.625C1321.8,-409.66 1057.47,-388.356 923.521,-377.56"/>
<polygon fill="midnightblue" stroke="midnightblue" points="923.572,-374.053 913.323,-376.738 923.009,-381.031 923.572,-374.053"/>
</g>
<!-- Node64&#45;&gt;Node62 -->
<g id="edge80" class="edge"><title>Node64&#45;&gt;Node62</title>
<path fill="none" stroke="midnightblue" d="M1499.43,-416.324C1487.22,-407.979 1468.55,-395.212 1454.12,-385.352"/>
<polygon fill="midnightblue" stroke="midnightblue" points="1456.02,-382.408 1445.79,-379.655 1452.07,-388.187 1456.02,-382.408"/>
</g>
<!-- Node65&#45;&gt;Node1 -->
<g id="edge83" class="edge"><title>Node65&#45;&gt;Node1</title>
<path fill="none" stroke="midnightblue" d="M1002.79,-472.735C993.536,-456.283 976.033,-429.742 953.124,-416 863.728,-362.375 561.246,-402.91 493.124,-324 447.284,-270.9 466.655,-216.721 517.124,-168 550.208,-136.062 572.135,-150.748 614.124,-132 631.551,-124.219 635.144,-120.713 652.124,-112 701.64,-86.594 710.261,-70.0023 764.124,-56 950.123,-7.64773 1561.55,-9.27102 1723.48,-10.5938"/>
<polygon fill="midnightblue" stroke="midnightblue" points="1723.46,-14.0936 1733.49,-10.6799 1723.52,-7.09385 1723.46,-14.0936"/>
</g>
<!-- Node65&#45;&gt;Node2 -->
<g id="edge86" class="edge"><title>Node65&#45;&gt;Node2</title>
<path fill="none" stroke="midnightblue" d="M1027.2,-472.721C1080.84,-427.868 1242.51,-292.721 1244.12,-292 1317.69,-259.053 1410.35,-249.345 1473.71,-246.907"/>
<polygon fill="midnightblue" stroke="midnightblue" points="1474.14,-250.395 1484.01,-246.565 1473.9,-243.399 1474.14,-250.395"/>
</g>
<!-- Node65&#45;&gt;Node42 -->
<g id="edge88" class="edge"><title>Node65&#45;&gt;Node42</title>
<path fill="none" stroke="midnightblue" d="M1009.07,-472.729C1007.14,-456.774 1001.67,-431.187 986.124,-416 968.995,-399.262 945.731,-388.74 922.9,-382.128"/>
<polygon fill="midnightblue" stroke="midnightblue" points="923.726,-378.726 913.162,-379.528 921.92,-385.489 923.726,-378.726"/>
</g>
<!-- Node65&#45;&gt;Node60 -->
<g id="edge84" class="edge"><title>Node65&#45;&gt;Node60</title>
<path fill="none" stroke="midnightblue" d="M977.77,-472.933C953.342,-462.312 920.283,-447.938 897.691,-438.116"/>
<polygon fill="midnightblue" stroke="midnightblue" points="898.978,-434.859 888.412,-434.081 896.187,-441.278 898.978,-434.859"/>
</g>
<!-- Node65&#45;&gt;Node61 -->
<g id="edge85" class="edge"><title>Node65&#45;&gt;Node61</title>
<path fill="none" stroke="midnightblue" d="M989.981,-472.781C976.53,-463.286 958.903,-450.843 945.42,-441.327"/>
<polygon fill="midnightblue" stroke="midnightblue" points="947.433,-438.463 937.245,-435.556 943.396,-444.182 947.433,-438.463"/>
</g>
<!-- Node65&#45;&gt;Node62 -->
<g id="edge87" class="edge"><title>Node65&#45;&gt;Node62</title>
<path fill="none" stroke="midnightblue" d="M1079.74,-473.463C1125.36,-464.108 1186.15,-450.731 1239.12,-436 1296.61,-420.014 1362.19,-397.019 1400.49,-383.097"/>
<polygon fill="midnightblue" stroke="midnightblue" points="1401.88,-386.313 1410.07,-379.594 1399.48,-379.739 1401.88,-386.313"/>
</g>
<!-- Node65&#45;&gt;Node64 -->
<g id="edge89" class="edge"><title>Node65&#45;&gt;Node64</title>
<path fill="none" stroke="midnightblue" d="M1079.82,-473.296C1082.62,-472.841 1085.4,-472.406 1088.12,-472 1208.96,-454.001 1350.22,-440.507 1435.34,-433.189"/>
<polygon fill="midnightblue" stroke="midnightblue" points="1435.78,-436.665 1445.44,-432.328 1435.18,-429.691 1435.78,-436.665"/>
</g>
<!-- Node68&#45;&gt;Node1 -->
<g id="edge92" class="edge"><title>Node68&#45;&gt;Node1</title>
<path fill="none" stroke="midnightblue" d="M1826.14,-618.467C1996.69,-604.645 2449.12,-555.836 2449.12,-427 2449.12,-427 2449.12,-427 2449.12,-369 2449.12,-287.076 2460.12,-266.924 2460.12,-185 2460.12,-185 2460.12,-185 2460.12,-121 2460.12,-84.5528 2442.24,-73.2259 2410.12,-56 2356.75,-27.373 1936.01,-15.0778 1803.17,-11.8842"/>
<polygon fill="midnightblue" stroke="midnightblue" points="1803.1,-8.38179 1793.02,-11.6447 1802.94,-15.3798 1803.1,-8.38179"/>
</g>
<!-- Node68&#45;&gt;Node2 -->
<g id="edge96" class="edge"><title>Node68&#45;&gt;Node2</title>
<path fill="none" stroke="midnightblue" d="M1766.95,-608.715C1774.72,-584.423 1789.12,-533.378 1789.12,-489 1789.12,-489 1789.12,-489 1789.12,-369 1789.12,-292.651 1691.89,-264.074 1620.69,-253.383"/>
<polygon fill="midnightblue" stroke="midnightblue" points="1620.78,-249.861 1610.39,-251.932 1619.8,-256.793 1620.78,-249.861"/>
</g>
<!-- Node68&#45;&gt;Node32 -->
<g id="edge97" class="edge"><title>Node68&#45;&gt;Node32</title>
<path fill="none" stroke="midnightblue" d="M1783.47,-608.91C1813.64,-587.105 1865.12,-542.11 1865.12,-489 1865.12,-489 1865.12,-489 1865.12,-307 1865.12,-248.296 1934.62,-213.507 1980.55,-196.928"/>
<polygon fill="midnightblue" stroke="midnightblue" points="1981.94,-200.151 1990.24,-193.57 1979.64,-193.537 1981.94,-200.151"/>
</g>
<!-- Node68&#45;&gt;Node45 -->
<g id="edge94" class="edge"><title>Node68&#45;&gt;Node45</title>
<path fill="none" stroke="midnightblue" d="M1697.73,-616.04C1579.79,-601.493 1341.12,-562.923 1341.12,-489 1341.12,-489 1341.12,-489 1341.12,-425 1341.12,-277.98 1162.97,-377.755 1026.12,-324 1024.28,-323.277 1022.4,-322.497 1020.51,-321.688"/>
<polygon fill="midnightblue" stroke="midnightblue" points="1021.77,-318.42 1011.22,-317.507 1018.9,-324.803 1021.77,-318.42"/>
</g>
<!-- Node68&#45;&gt;Node59 -->
<g id="edge98" class="edge"><title>Node68&#45;&gt;Node59</title>
<path fill="none" stroke="midnightblue" d="M1697.9,-616.702C1574.38,-604.588 1304.02,-578.074 1169.06,-564.84"/>
<polygon fill="midnightblue" stroke="midnightblue" points="1169.09,-561.325 1158.8,-563.833 1168.41,-568.292 1169.09,-561.325"/>
</g>
<!-- Node69 -->
<g id="node42" class="node"><title>Node69</title>
<polygon fill="white" stroke="#bfbfbf" points="1635.12,-546.5 1635.12,-565.5 1691.12,-565.5 1691.12,-546.5 1635.12,-546.5"/>
<text text-anchor="middle" x="1663.12" y="-553.5" font-family="FreeSans" font-size="10.00">sstream</text>
</g>
<!-- Node68&#45;&gt;Node69 -->
<g id="edge93" class="edge"><title>Node68&#45;&gt;Node69</title>
<path fill="none" stroke="midnightblue" d="M1740.64,-608.679C1724.04,-597.611 1701.17,-582.363 1684.57,-571.3"/>
<polygon fill="midnightblue" stroke="midnightblue" points="1686.34,-568.273 1676.08,-565.638 1682.46,-574.097 1686.34,-568.273"/>
</g>
<!-- Node70 -->
<g id="node43" class="node"><title>Node70</title>
<polygon fill="white" stroke="#bfbfbf" points="1709.12,-546.5 1709.12,-565.5 1761.12,-565.5 1761.12,-546.5 1709.12,-546.5"/>
<text text-anchor="middle" x="1735.12" y="-553.5" font-family="FreeSans" font-size="10.00">iterator</text>
</g>
<!-- Node68&#45;&gt;Node70 -->
<g id="edge95" class="edge"><title>Node68&#45;&gt;Node70</title>
<path fill="none" stroke="midnightblue" d="M1756.27,-608.679C1752.26,-598.898 1746.93,-585.852 1742.62,-575.315"/>
<polygon fill="midnightblue" stroke="midnightblue" points="1745.76,-573.759 1738.74,-565.828 1739.28,-576.409 1745.76,-573.759"/>
</g>
<!-- Node109&#45;&gt;Node1 -->
<g id="edge100" class="edge"><title>Node109&#45;&gt;Node1</title>
<path fill="none" stroke="midnightblue" d="M2255.35,-292.93C2297.59,-283.737 2344.62,-270.728 2360.12,-256 2384.27,-233.059 2384.12,-218.31 2384.12,-185 2384.12,-185 2384.12,-185 2384.12,-121 2384.12,-90.2048 2384.71,-74.5427 2360.12,-56 2315.78,-22.5575 1929.31,-13.5894 1802.93,-11.54"/>
<polygon fill="midnightblue" stroke="midnightblue" points="1802.96,-8.04002 1792.9,-11.3831 1802.85,-15.0392 1802.96,-8.04002"/>
</g>
<!-- Node109&#45;&gt;Node2 -->
<g id="edge101" class="edge"><title>Node109&#45;&gt;Node2</title>
<path fill="none" stroke="midnightblue" d="M2086.43,-296.783C2070.97,-295.14 2055.1,-293.491 2040.12,-292 1891.18,-277.167 1716.73,-261.69 1620.41,-253.309"/>
<polygon fill="midnightblue" stroke="midnightblue" points="1620.46,-249.801 1610.19,-252.422 1619.85,-256.775 1620.46,-249.801"/>
</g>
<!-- Node114&#45;&gt;Node1 -->
<g id="edge103" class="edge"><title>Node114&#45;&gt;Node1</title>
<path fill="none" stroke="midnightblue" d="M2018.87,-292.986C2117.03,-267.941 2308.12,-215.295 2308.12,-185 2308.12,-185 2308.12,-185 2308.12,-121 2308.12,-17.9456 1928.97,-10.2768 1803.15,-10.5688"/>
<polygon fill="midnightblue" stroke="midnightblue" points="1802.8,-7.0702 1792.81,-10.6125 1802.83,-14.0701 1802.8,-7.0702"/>
</g>
<!-- Node114&#45;&gt;Node2 -->
<g id="edge104" class="edge"><title>Node114&#45;&gt;Node2</title>
<path fill="none" stroke="midnightblue" d="M1892.66,-296.957C1815.81,-285.847 1692.74,-268.052 1616.09,-256.971"/>
<polygon fill="midnightblue" stroke="midnightblue" points="1616.45,-253.487 1606.05,-255.52 1615.45,-260.415 1616.45,-253.487"/>
</g>
<!-- Node114&#45;&gt;Node7 -->
<g id="edge105" class="edge"><title>Node114&#45;&gt;Node7</title>
<path fill="none" stroke="midnightblue" d="M1991.64,-292.766C2041.27,-268.833 2140.69,-220.895 2188.39,-197.893"/>
<polygon fill="midnightblue" stroke="midnightblue" points="2189.99,-201.006 2197.48,-193.51 2186.95,-194.701 2189.99,-201.006"/>
</g>
<!-- Node114&#45;&gt;Node28 -->
<g id="edge106" class="edge"><title>Node114&#45;&gt;Node28</title>
<path fill="none" stroke="midnightblue" d="M1893.05,-306.887C1797.44,-305.137 1620.15,-296.113 1475.12,-256 1454.81,-250.381 1452.58,-241.07 1432.12,-236 1124.58,-159.781 1034.59,-238.777 720.124,-200 710.91,-198.864 701.139,-197.25 691.781,-195.498"/>
<polygon fill="midnightblue" stroke="midnightblue" points="692.32,-192.037 681.835,-193.559 690.981,-198.908 692.32,-192.037"/>
</g>
<!-- Node125&#45;&gt;Node1 -->
<g id="edge108" class="edge"><title>Node125&#45;&gt;Node1</title>
<path fill="none" stroke="midnightblue" d="M2369.01,-292.984C2388.63,-271.614 2422.12,-228.738 2422.12,-185 2422.12,-185 2422.12,-185 2422.12,-121 2422.12,-87.3101 2411.82,-73.6499 2383.12,-56 2333.84,-25.6848 1931.97,-14.5802 1802.89,-11.7751"/>
<polygon fill="midnightblue" stroke="midnightblue" points="1802.73,-8.27117 1792.66,-11.558 1802.59,-15.2696 1802.73,-8.27117"/>
</g>
<!-- Node125&#45;&gt;Node2 -->
<g id="edge109" class="edge"><title>Node125&#45;&gt;Node2</title>
<path fill="none" stroke="midnightblue" d="M2289.36,-293.321C2286.24,-292.838 2283.15,-292.394 2280.12,-292 2039.84,-260.744 1752.35,-251.095 1620.16,-248.198"/>
<polygon fill="midnightblue" stroke="midnightblue" points="1620.22,-244.698 1610.15,-247.985 1620.07,-251.697 1620.22,-244.698"/>
</g>
<!-- Node127&#45;&gt;Node1 -->
<g id="edge111" class="edge"><title>Node127&#45;&gt;Node1</title>
<path fill="none" stroke="midnightblue" d="M2545.11,-292.933C2537.56,-270.44 2524.12,-224.847 2524.12,-185 2524.12,-185 2524.12,-185 2524.12,-121 2524.12,-84.5528 2506.3,-73.1258 2474.12,-56 2414.87,-24.458 1944.8,-14.0512 1803.29,-11.6166"/>
<polygon fill="midnightblue" stroke="midnightblue" points="1802.97,-8.11081 1792.91,-11.4423 1802.85,-15.1098 1802.97,-8.11081"/>
</g>
<!-- Node127&#45;&gt;Node2 -->
<g id="edge112" class="edge"><title>Node127&#45;&gt;Node2</title>
<path fill="none" stroke="midnightblue" d="M2477.59,-297.142C2461.65,-295.217 2444.83,-293.373 2429.12,-292 2129.75,-265.842 1771.79,-253.36 1620.44,-248.946"/>
<polygon fill="midnightblue" stroke="midnightblue" points="1620.43,-245.445 1610.33,-248.655 1620.23,-252.442 1620.43,-245.445"/>
</g>
<!-- Node129&#45;&gt;Node1 -->
<g id="edge114" class="edge"><title>Node129&#45;&gt;Node1</title>
<path fill="none" stroke="midnightblue" d="M2700.89,-298.472C2676.71,-280.508 2625.12,-236.187 2625.12,-185 2625.12,-185 2625.12,-185 2625.12,-121 2625.12,-59.954 2562.85,-72.6829 2504.12,-56 2370.59,-18.0635 1937.11,-12.1086 1803.02,-11.174"/>
<polygon fill="midnightblue" stroke="midnightblue" points="1802.82,-7.67273 1792.8,-11.1086 1802.77,-14.6726 1802.82,-7.67273"/>
</g>
<!-- Node129&#45;&gt;Node2 -->
<g id="edge115" class="edge"><title>Node129&#45;&gt;Node2</title>
<path fill="none" stroke="midnightblue" d="M2672.83,-298.474C2659.6,-295.985 2644.79,-293.526 2631.12,-292 2252.58,-249.728 1795.68,-246.16 1620.42,-246.527"/>
<polygon fill="midnightblue" stroke="midnightblue" points="1620.28,-243.027 1610.29,-246.553 1620.29,-250.027 1620.28,-243.027"/>
</g>
<!-- Node326&#45;&gt;Node1 -->
<g id="edge117" class="edge"><title>Node326&#45;&gt;Node1</title>
<path fill="none" stroke="midnightblue" d="M2851,-292.835C2819.66,-273.083 2770.12,-234.102 2770.12,-185 2770.12,-185 2770.12,-185 2770.12,-121 2770.12,-21.9104 1989.65,-12.0362 1802.91,-11.0918"/>
<polygon fill="midnightblue" stroke="midnightblue" points="1802.73,-7.59104 1792.72,-11.0463 1802.7,-14.591 1802.73,-7.59104"/>
</g>
<!-- Node326&#45;&gt;Node2 -->
<g id="edge118" class="edge"><title>Node326&#45;&gt;Node2</title>
<path fill="none" stroke="midnightblue" d="M2803.33,-293.118C2800.22,-292.705 2797.15,-292.329 2794.12,-292 2564.53,-266.991 1852.32,-252.424 1620.71,-248.255"/>
<polygon fill="midnightblue" stroke="midnightblue" points="1620.44,-244.749 1610.38,-248.07 1620.31,-251.748 1620.44,-244.749"/>
</g>
</g>
</svg>
