<?xml version="1.0" encoding="UTF-8" standalone="no"?>
<!DOCTYPE svg PUBLIC "-//W3C//DTD SVG 1.1//EN"
 "http://www.w3.org/Graphics/SVG/1.1/DTD/svg11.dtd">
<!-- Generated by graphviz version 2.38.0 (20140413.2041)
 -->
<!-- Title: testBoard3D.cpp Pages: 1 -->
<svg width="3324pt" height="833pt"
 viewBox="0.00 0.00 3324.38 833.00" xmlns="http://www.w3.org/2000/svg" xmlns:xlink="http://www.w3.org/1999/xlink">
<g id="graph0" class="graph" transform="scale(1 1) rotate(0) translate(4 829)">
<title>testBoard3D.cpp</title>
<polygon fill="white" stroke="none" points="-4,4 -4,-829 3320.38,-829 3320.38,4 -4,4"/>
<!-- Node0 -->
<g id="node1" class="node"><title>Node0</title>
<polygon fill="#bfbfbf" stroke="black" points="1258.38,-805.5 1258.38,-824.5 1356.38,-824.5 1356.38,-805.5 1258.38,-805.5"/>
<text text-anchor="middle" x="1307.38" y="-812.5" font-family="FreeSans" font-size="10.00">testBoard3D.cpp</text>
</g>
<!-- Node1 -->
<g id="node2" class="node"><title>Node1</title>
<polygon fill="white" stroke="#bfbfbf" points="1073.88,-0.5 1073.88,-19.5 1132.88,-19.5 1132.88,-0.5 1073.88,-0.5"/>
<text text-anchor="middle" x="1103.38" y="-7.5" font-family="FreeSans" font-size="10.00">iostream</text>
</g>
<!-- Node0&#45;&gt;Node1 -->
<g id="edge1" class="edge"><title>Node0&#45;&gt;Node1</title>
<path fill="none" stroke="midnightblue" d="M1257.96,-814.456C1123.56,-814.375 761.38,-804.806 761.38,-704 761.38,-704 761.38,-704 761.38,-244 761.38,-143.661 803.242,-112.179 886.38,-56 940.06,-19.7273 1017.01,-11.7027 1063.39,-10.4587"/>
<polygon fill="midnightblue" stroke="midnightblue" points="1063.71,-13.9538 1073.64,-10.2813 1063.59,-6.95489 1063.71,-13.9538"/>
</g>
<!-- Node2 -->
<g id="node3" class="node"><title>Node2</title>
<g id="a_node3"><a xlink:href="Common_8h_source.html" target="_top" xlink:title="DGtal/base/Common.h">
<polygon fill="white" stroke="black" points="1674.38,-235.5 1674.38,-254.5 1800.38,-254.5 1800.38,-235.5 1674.38,-235.5"/>
<text text-anchor="middle" x="1737.38" y="-242.5" font-family="FreeSans" font-size="10.00">DGtal/base/Common.h</text>
</a>
</g>
</g>
<!-- Node0&#45;&gt;Node2 -->
<g id="edge2" class="edge"><title>Node0&#45;&gt;Node2</title>
<path fill="none" stroke="midnightblue" d="M1279.15,-805.496C1229.07,-788.802 1132.63,-748.479 1162.38,-693 1273.58,-485.615 1429.45,-558.5 1603.38,-400 1649.4,-358.063 1649.5,-337.071 1691.38,-291 1700.59,-280.873 1711.51,-270.134 1720.41,-261.687"/>
<polygon fill="midnightblue" stroke="midnightblue" points="1723,-264.054 1727.9,-254.658 1718.21,-258.95 1723,-264.054"/>
</g>
<!-- Node42 -->
<g id="node31" class="node"><title>Node42</title>
<polygon fill="white" stroke="#bfbfbf" points="1270.38,-749.5 1270.38,-768.5 1344.38,-768.5 1344.38,-749.5 1270.38,-749.5"/>
<text text-anchor="middle" x="1307.38" y="-756.5" font-family="FreeSans" font-size="10.00">ConfigTest.h</text>
</g>
<!-- Node0&#45;&gt;Node42 -->
<g id="edge59" class="edge"><title>Node0&#45;&gt;Node42</title>
<path fill="none" stroke="midnightblue" d="M1307.38,-805.083C1307.38,-798.006 1307.38,-787.861 1307.38,-778.986"/>
<polygon fill="midnightblue" stroke="midnightblue" points="1310.88,-778.751 1307.38,-768.751 1303.88,-778.751 1310.88,-778.751"/>
</g>
<!-- Node43 -->
<g id="node32" class="node"><title>Node43</title>
<g id="a_node32"><a xlink:href="StdDefs_8h_source.html" target="_top" xlink:title="DGtal/helpers/StdDefs.h">
<polygon fill="white" stroke="black" points="1956.38,-570.5 1956.38,-589.5 2088.38,-589.5 2088.38,-570.5 1956.38,-570.5"/>
<text text-anchor="middle" x="2022.38" y="-577.5" font-family="FreeSans" font-size="10.00">DGtal/helpers/StdDefs.h</text>
</a>
</g>
</g>
<!-- Node0&#45;&gt;Node43 -->
<g id="edge60" class="edge"><title>Node0&#45;&gt;Node43</title>
<path fill="none" stroke="midnightblue" d="M1356.58,-813.294C1439.94,-811.164 1613.8,-802.674 1756.38,-769 1824.42,-752.93 1845.7,-752.509 1903.38,-713 1950.52,-680.714 1991.72,-626.074 2010.92,-598.309"/>
<polygon fill="midnightblue" stroke="midnightblue" points="2014.05,-599.931 2016.76,-589.69 2008.25,-596.002 2014.05,-599.931"/>
</g>
<!-- Node160 -->
<g id="node47" class="node"><title>Node160</title>
<g id="a_node47"><a xlink:href="Board3D_8h_source.html" target="_top" xlink:title="Header file for module Board3D.cpp. ">
<polygon fill="white" stroke="black" points="1602.88,-749.5 1602.88,-768.5 1747.88,-768.5 1747.88,-749.5 1602.88,-749.5"/>
<text text-anchor="middle" x="1675.38" y="-756.5" font-family="FreeSans" font-size="10.00">DGtal/io/boards/Board3D.h</text>
</a>
</g>
</g>
<!-- Node0&#45;&gt;Node160 -->
<g id="edge114" class="edge"><title>Node0&#45;&gt;Node160</title>
<path fill="none" stroke="midnightblue" d="M1356.63,-806.773C1421.16,-797.304 1534.65,-780.651 1607.35,-769.982"/>
<polygon fill="midnightblue" stroke="midnightblue" points="1607.95,-773.433 1617.33,-768.518 1606.93,-766.507 1607.95,-773.433"/>
</g>
<!-- Node2&#45;&gt;Node1 -->
<g id="edge3" class="edge"><title>Node2&#45;&gt;Node1</title>
<path fill="none" stroke="midnightblue" d="M1674.12,-240.575C1576.08,-234.614 1396.66,-220.839 1377.38,-199 1292.92,-103.327 1712.67,-150.028 1626.38,-56 1593.89,-20.5942 1259.93,-12.9836 1143.31,-11.4011"/>
<polygon fill="midnightblue" stroke="midnightblue" points="1143.08,-7.89801 1133.04,-11.2699 1142.99,-14.8974 1143.08,-7.89801"/>
</g>
<!-- Node3 -->
<g id="node4" class="node"><title>Node3</title>
<polygon fill="white" stroke="#bfbfbf" points="2526.88,-174 2526.88,-193 2589.88,-193 2589.88,-174 2526.88,-174"/>
<text text-anchor="middle" x="2558.38" y="-181" font-family="FreeSans" font-size="10.00">exception</text>
</g>
<!-- Node2&#45;&gt;Node3 -->
<g id="edge4" class="edge"><title>Node2&#45;&gt;Node3</title>
<path fill="none" stroke="midnightblue" d="M1800.51,-242.65C1960.86,-238.856 2380.75,-226.522 2517.38,-199 2520.89,-198.293 2524.51,-197.35 2528.07,-196.283"/>
<polygon fill="midnightblue" stroke="midnightblue" points="2529.46,-199.512 2537.84,-193.039 2527.25,-192.868 2529.46,-199.512"/>
</g>
<!-- Node4 -->
<g id="node5" class="node"><title>Node4</title>
<polygon fill="white" stroke="#bfbfbf" points="2757.38,-56.5 2757.38,-75.5 2819.38,-75.5 2819.38,-56.5 2757.38,-56.5"/>
<text text-anchor="middle" x="2788.38" y="-63.5" font-family="FreeSans" font-size="10.00">algorithm</text>
</g>
<!-- Node2&#45;&gt;Node4 -->
<g id="edge5" class="edge"><title>Node2&#45;&gt;Node4</title>
<path fill="none" stroke="midnightblue" d="M1800.47,-244.449C1988,-245.27 2533.09,-243.741 2598.38,-199 2633.33,-175.046 2605.51,-139.925 2637.38,-112 2667.92,-85.2415 2713.81,-74.3846 2746.98,-69.9852"/>
<polygon fill="midnightblue" stroke="midnightblue" points="2747.75,-73.4191 2757.27,-68.7717 2746.93,-66.4673 2747.75,-73.4191"/>
</g>
<!-- Node5 -->
<g id="node6" class="node"><title>Node5</title>
<polygon fill="white" stroke="#bfbfbf" points="1397.38,-174 1397.38,-193 1499.38,-193 1499.38,-174 1397.38,-174"/>
<text text-anchor="middle" x="1448.38" y="-181" font-family="FreeSans" font-size="10.00">boost/version.hpp</text>
</g>
<!-- Node2&#45;&gt;Node5 -->
<g id="edge6" class="edge"><title>Node2&#45;&gt;Node5</title>
<path fill="none" stroke="midnightblue" d="M1690.77,-235.449C1644.41,-226.802 1571.31,-212.781 1508.38,-199 1503.28,-197.882 1497.94,-196.665 1492.65,-195.425"/>
<polygon fill="midnightblue" stroke="midnightblue" points="1493.13,-191.942 1482.59,-193.037 1491.51,-198.753 1493.13,-191.942"/>
</g>
<!-- Node6 -->
<g id="node7" class="node"><title>Node6</title>
<polygon fill="white" stroke="#bfbfbf" points="1517.88,-174 1517.88,-193 1656.88,-193 1656.88,-174 1517.88,-174"/>
<text text-anchor="middle" x="1587.38" y="-181" font-family="FreeSans" font-size="10.00">boost/concept_check.hpp</text>
</g>
<!-- Node2&#45;&gt;Node6 -->
<g id="edge7" class="edge"><title>Node2&#45;&gt;Node6</title>
<path fill="none" stroke="midnightblue" d="M1715.89,-235.475C1690.27,-225.313 1647.27,-208.256 1618.14,-196.7"/>
<polygon fill="midnightblue" stroke="midnightblue" points="1619.42,-193.443 1608.83,-193.009 1616.84,-199.95 1619.42,-193.443"/>
</g>
<!-- Node7 -->
<g id="node8" class="node"><title>Node7</title>
<polygon fill="white" stroke="#bfbfbf" points="1674.88,-174 1674.88,-193 1803.88,-193 1803.88,-174 1674.88,-174"/>
<text text-anchor="middle" x="1739.38" y="-181" font-family="FreeSans" font-size="10.00">boost/static_assert.hpp</text>
</g>
<!-- Node2&#45;&gt;Node7 -->
<g id="edge8" class="edge"><title>Node2&#45;&gt;Node7</title>
<path fill="none" stroke="midnightblue" d="M1737.67,-235.475C1737.95,-227.08 1738.39,-213.981 1738.75,-203.163"/>
<polygon fill="midnightblue" stroke="midnightblue" points="1742.26,-203.121 1739.09,-193.009 1735.26,-202.886 1742.26,-203.121"/>
</g>
<!-- Node8 -->
<g id="node9" class="node"><title>Node8</title>
<polygon fill="white" stroke="#bfbfbf" points="1821.88,-174 1821.88,-193 1960.88,-193 1960.88,-174 1821.88,-174"/>
<text text-anchor="middle" x="1891.38" y="-181" font-family="FreeSans" font-size="10.00">boost/concept/assert.hpp</text>
</g>
<!-- Node2&#45;&gt;Node8 -->
<g id="edge9" class="edge"><title>Node2&#45;&gt;Node8</title>
<path fill="none" stroke="midnightblue" d="M1759.44,-235.475C1785.75,-225.313 1829.89,-208.256 1859.8,-196.7"/>
<polygon fill="midnightblue" stroke="midnightblue" points="1861.29,-199.878 1869.36,-193.009 1858.77,-193.348 1861.29,-199.878"/>
</g>
<!-- Node9 -->
<g id="node10" class="node"><title>Node9</title>
<polygon fill="white" stroke="#bfbfbf" points="1979.38,-174 1979.38,-193 2127.38,-193 2127.38,-174 1979.38,-174"/>
<text text-anchor="middle" x="2053.38" y="-181" font-family="FreeSans" font-size="10.00">boost/concept/requires.hpp</text>
</g>
<!-- Node2&#45;&gt;Node9 -->
<g id="edge10" class="edge"><title>Node2&#45;&gt;Node9</title>
<path fill="none" stroke="midnightblue" d="M1782.66,-235.475C1839.56,-224.761 1937.17,-206.382 1998.33,-194.866"/>
<polygon fill="midnightblue" stroke="midnightblue" points="1999.01,-198.299 2008.19,-193.009 1997.71,-191.42 1999.01,-198.299"/>
</g>
<!-- Node10 -->
<g id="node11" class="node"><title>Node10</title>
<polygon fill="white" stroke="#bfbfbf" points="2145.38,-168.5 2145.38,-198.5 2265.38,-198.5 2265.38,-168.5 2145.38,-168.5"/>
<text text-anchor="start" x="2153.38" y="-186.5" font-family="FreeSans" font-size="10.00">boost/iterator/iterator</text>
<text text-anchor="middle" x="2205.38" y="-175.5" font-family="FreeSans" font-size="10.00">_concepts.hpp</text>
</g>
<!-- Node2&#45;&gt;Node10 -->
<g id="edge11" class="edge"><title>Node2&#45;&gt;Node10</title>
<path fill="none" stroke="midnightblue" d="M1800.52,-238.743C1877.31,-231.932 2011.06,-218.733 2135.17,-199.1"/>
<polygon fill="midnightblue" stroke="midnightblue" points="2135.91,-202.526 2145.23,-197.49 2134.8,-195.614 2135.91,-202.526"/>
</g>
<!-- Node11 -->
<g id="node12" class="node"><title>Node11</title>
<polygon fill="white" stroke="#bfbfbf" points="2282.88,-174 2282.88,-193 2441.88,-193 2441.88,-174 2282.88,-174"/>
<text text-anchor="middle" x="2362.38" y="-181" font-family="FreeSans" font-size="10.00">boost/concept_archetype.hpp</text>
</g>
<!-- Node2&#45;&gt;Node11 -->
<g id="edge12" class="edge"><title>Node2&#45;&gt;Node11</title>
<path fill="none" stroke="midnightblue" d="M1800.79,-240.329C1901.42,-234.133 2103.78,-220.169 2274.38,-199 2284.29,-197.77 2294.79,-196.24 2304.96,-194.638"/>
<polygon fill="midnightblue" stroke="midnightblue" points="2305.67,-198.069 2314.98,-193.021 2304.55,-191.159 2305.67,-198.069"/>
</g>
<!-- Node12 -->
<g id="node13" class="node"><title>Node12</title>
<polygon fill="white" stroke="#bfbfbf" points="2646.88,-112.5 2646.88,-131.5 2693.88,-131.5 2693.88,-112.5 2646.88,-112.5"/>
<text text-anchor="middle" x="2670.38" y="-119.5" font-family="FreeSans" font-size="10.00">cmath</text>
</g>
<!-- Node2&#45;&gt;Node12 -->
<g id="edge13" class="edge"><title>Node2&#45;&gt;Node12</title>
<path fill="none" stroke="midnightblue" d="M1674.1,-240.306C1578.65,-234.08 1406.91,-220.075 1388.38,-199 1379.28,-188.653 1378.81,-177.912 1388.38,-168 1433,-121.787 2438.8,-122.323 2636.74,-122.878"/>
<polygon fill="midnightblue" stroke="midnightblue" points="2636.82,-126.378 2646.83,-122.909 2636.84,-119.378 2636.82,-126.378"/>
</g>
<!-- Node13 -->
<g id="node14" class="node"><title>Node13</title>
<polygon fill="white" stroke="#bfbfbf" points="2459.88,-174 2459.88,-193 2508.88,-193 2508.88,-174 2459.88,-174"/>
<text text-anchor="middle" x="2484.38" y="-181" font-family="FreeSans" font-size="10.00">stdio.h</text>
</g>
<!-- Node2&#45;&gt;Node13 -->
<g id="edge14" class="edge"><title>Node2&#45;&gt;Node13</title>
<path fill="none" stroke="midnightblue" d="M1800.66,-242.751C1951.33,-239.336 2327.89,-228.077 2450.38,-199 2452.89,-198.403 2455.46,-197.636 2457.99,-196.766"/>
<polygon fill="midnightblue" stroke="midnightblue" points="2459.44,-199.959 2467.47,-193.049 2456.88,-193.442 2459.44,-199.959"/>
</g>
<!-- Node14 -->
<g id="node15" class="node"><title>Node14</title>
<g id="a_node15"><a xlink:href="Config_8h_source.html" target="_top" xlink:title="DGtal/base/Config.h">
<polygon fill="white" stroke="black" points="153.38,-56.5 153.38,-75.5 265.38,-75.5 265.38,-56.5 153.38,-56.5"/>
<text text-anchor="middle" x="209.38" y="-63.5" font-family="FreeSans" font-size="10.00">DGtal/base/Config.h</text>
</a>
</g>
</g>
<!-- Node2&#45;&gt;Node14 -->
<g id="edge15" class="edge"><title>Node2&#45;&gt;Node14</title>
<path fill="none" stroke="midnightblue" d="M1674.3,-243.331C1403.82,-240.303 349.207,-226.803 203.38,-199 117.479,-182.622 68.5959,-203.593 18.3804,-132 -15.0521,-84.3345 75.4503,-71.1639 143.043,-67.7885"/>
<polygon fill="midnightblue" stroke="midnightblue" points="143.414,-71.2757 153.252,-67.3428 143.109,-64.2824 143.414,-71.2757"/>
</g>
<!-- Node16 -->
<g id="node17" class="node"><title>Node16</title>
<g id="a_node17"><a xlink:href="Trace_8h_source.html" target="_top" xlink:title="DGtal/base/Trace.h">
<polygon fill="white" stroke="red" points="367.88,-174 367.88,-193 474.88,-193 474.88,-174 367.88,-174"/>
<text text-anchor="middle" x="421.38" y="-181" font-family="FreeSans" font-size="10.00">DGtal/base/Trace.h</text>
</a>
</g>
</g>
<!-- Node2&#45;&gt;Node16 -->
<g id="edge18" class="edge"><title>Node2&#45;&gt;Node16</title>
<path fill="none" stroke="midnightblue" d="M1674.35,-241.15C1452.41,-231.116 708.506,-197.482 485.253,-187.388"/>
<polygon fill="midnightblue" stroke="midnightblue" points="485.167,-183.881 475.02,-186.925 484.851,-190.873 485.167,-183.881"/>
</g>
<!-- Node23 -->
<g id="node22" class="node"><title>Node23</title>
<g id="a_node22"><a xlink:href="TraceWriterTerm_8h_source.html" target="_top" xlink:title="DGtal/base/TraceWriterTerm.h">
<polygon fill="white" stroke="black" points="235.88,-112.5 235.88,-131.5 392.88,-131.5 392.88,-112.5 235.88,-112.5"/>
<text text-anchor="middle" x="314.38" y="-119.5" font-family="FreeSans" font-size="10.00">DGtal/base/TraceWriterTerm.h</text>
</a>
</g>
</g>
<!-- Node2&#45;&gt;Node23 -->
<g id="edge37" class="edge"><title>Node2&#45;&gt;Node23</title>
<path fill="none" stroke="midnightblue" d="M1674.33,-243.639C1411.68,-241.918 415.449,-233.155 358.38,-199 337.264,-186.362 325.284,-159.447 319.313,-141.283"/>
<polygon fill="midnightblue" stroke="midnightblue" points="322.62,-140.123 316.407,-131.541 315.912,-142.125 322.62,-140.123"/>
</g>
<!-- Node24 -->
<g id="node23" class="node"><title>Node24</title>
<g id="a_node23"><a xlink:href="Assert_8h_source.html" target="_top" xlink:title="DGtal/base/Assert.h">
<polygon fill="white" stroke="red" points="27.8804,-112.5 27.8804,-131.5 140.88,-131.5 140.88,-112.5 27.8804,-112.5"/>
<text text-anchor="middle" x="84.3804" y="-119.5" font-family="FreeSans" font-size="10.00">DGtal/base/Assert.h</text>
</a>
</g>
</g>
<!-- Node2&#45;&gt;Node24 -->
<g id="edge42" class="edge"><title>Node2&#45;&gt;Node24</title>
<path fill="none" stroke="midnightblue" d="M1674.36,-242.988C1418.14,-238.739 461.947,-221.507 328.38,-199 249.267,-185.669 160.179,-153.252 114.679,-135.363"/>
<polygon fill="midnightblue" stroke="midnightblue" points="115.712,-132.008 105.127,-131.568 113.128,-138.513 115.712,-132.008"/>
</g>
<!-- Node27 -->
<g id="node24" class="node"><title>Node27</title>
<g id="a_node24"><a xlink:href="TraceWriterFile_8h_source.html" target="_top" xlink:title="DGtal/base/TraceWriterFile.h">
<polygon fill="white" stroke="black" points="584.88,-112.5 584.88,-131.5 733.88,-131.5 733.88,-112.5 584.88,-112.5"/>
<text text-anchor="middle" x="659.38" y="-119.5" font-family="FreeSans" font-size="10.00">DGtal/base/TraceWriterFile.h</text>
</a>
</g>
</g>
<!-- Node2&#45;&gt;Node27 -->
<g id="edge38" class="edge"><title>Node2&#45;&gt;Node27</title>
<path fill="none" stroke="midnightblue" d="M1674.18,-240.49C1568.59,-234.299 1349.71,-220.067 1165.38,-199 1002.95,-180.435 812.542,-149.283 718.338,-133.238"/>
<polygon fill="midnightblue" stroke="midnightblue" points="718.876,-129.779 708.429,-131.545 717.697,-136.679 718.876,-129.779"/>
</g>
<!-- Node28 -->
<g id="node25" class="node"><title>Node28</title>
<g id="a_node25"><a xlink:href="ConceptUtils_8h_source.html" target="_top" xlink:title="DGtal/base/ConceptUtils.h">
<polygon fill="white" stroke="black" points="1131.88,-56.5 1131.88,-75.5 1274.88,-75.5 1274.88,-56.5 1131.88,-56.5"/>
<text text-anchor="middle" x="1203.38" y="-63.5" font-family="FreeSans" font-size="10.00">DGtal/base/ConceptUtils.h</text>
</a>
</g>
</g>
<!-- Node2&#45;&gt;Node28 -->
<g id="edge43" class="edge"><title>Node2&#45;&gt;Node28</title>
<path fill="none" stroke="midnightblue" d="M1674.11,-242.454C1546.14,-238.742 1265.92,-227.433 1233.38,-199 1200.89,-170.604 1199.57,-115.03 1201.43,-85.8769"/>
<polygon fill="midnightblue" stroke="midnightblue" points="1204.92,-86.0453 1202.27,-75.7892 1197.95,-85.464 1204.92,-86.0453"/>
</g>
<!-- Node29 -->
<g id="node26" class="node"><title>Node29</title>
<g id="a_node26"><a xlink:href="BasicTypes_8h_source.html" target="_top" xlink:title="DGtal/base/BasicTypes.h">
<polygon fill="white" stroke="red" points="1293.38,-56.5 1293.38,-75.5 1427.38,-75.5 1427.38,-56.5 1293.38,-56.5"/>
<text text-anchor="middle" x="1360.38" y="-63.5" font-family="FreeSans" font-size="10.00">DGtal/base/BasicTypes.h</text>
</a>
</g>
</g>
<!-- Node2&#45;&gt;Node29 -->
<g id="edge45" class="edge"><title>Node2&#45;&gt;Node29</title>
<path fill="none" stroke="midnightblue" d="M1674.22,-241.277C1554.38,-235.625 1303.02,-221.261 1270.38,-199 1236.08,-175.606 1212.55,-145.995 1236.38,-112 1247.79,-95.7162 1265.73,-85.3017 1284.45,-78.6484"/>
<polygon fill="midnightblue" stroke="midnightblue" points="1285.53,-81.9784 1293.98,-75.5881 1283.39,-75.3137 1285.53,-81.9784"/>
</g>
<!-- Node32 -->
<g id="node27" class="node"><title>Node32</title>
<g id="a_node27"><a xlink:href="BasicFunctors_8h_source.html" target="_top" xlink:title="DGtal/base/BasicFunctors.h">
<polygon fill="white" stroke="red" points="2684.38,-174 2684.38,-193 2832.38,-193 2832.38,-174 2684.38,-174"/>
<text text-anchor="middle" x="2758.38" y="-181" font-family="FreeSans" font-size="10.00">DGtal/base/BasicFunctors.h</text>
</a>
</g>
</g>
<!-- Node2&#45;&gt;Node32 -->
<g id="edge47" class="edge"><title>Node2&#45;&gt;Node32</title>
<path fill="none" stroke="midnightblue" d="M1800.62,-242.074C1946.09,-237.507 2315.22,-224.452 2623.38,-199 2639.65,-197.657 2657.05,-195.876 2673.8,-194.023"/>
<polygon fill="midnightblue" stroke="midnightblue" points="2674.58,-197.458 2684.12,-192.864 2673.79,-190.502 2674.58,-197.458"/>
</g>
<!-- Node40 -->
<g id="node29" class="node"><title>Node40</title>
<g id="a_node29"><a xlink:href="BasicArchetypes_8h_source.html" target="_top" xlink:title="DGtal/base/BasicArchetypes.h">
<polygon fill="white" stroke="black" points="1245.88,-112.5 1245.88,-131.5 1406.88,-131.5 1406.88,-112.5 1245.88,-112.5"/>
<text text-anchor="middle" x="1326.38" y="-119.5" font-family="FreeSans" font-size="10.00">DGtal/base/BasicArchetypes.h</text>
</a>
</g>
</g>
<!-- Node2&#45;&gt;Node40 -->
<g id="edge55" class="edge"><title>Node2&#45;&gt;Node40</title>
<path fill="none" stroke="midnightblue" d="M1673.92,-242.398C1554.36,-238.72 1305.37,-227.672 1279.38,-199 1262.24,-180.093 1286.53,-154.104 1306.09,-137.94"/>
<polygon fill="midnightblue" stroke="midnightblue" points="1308.36,-140.606 1314.05,-131.664 1304.03,-135.11 1308.36,-140.606"/>
</g>
<!-- Node41 -->
<g id="node30" class="node"><title>Node41</title>
<g id="a_node30"><a xlink:href="Exceptions_8h_source.html" target="_top" xlink:title="DGtal/base/Exceptions.h">
<polygon fill="white" stroke="black" points="1483.38,-56.5 1483.38,-75.5 1617.38,-75.5 1617.38,-56.5 1483.38,-56.5"/>
<text text-anchor="middle" x="1550.38" y="-63.5" font-family="FreeSans" font-size="10.00">DGtal/base/Exceptions.h</text>
</a>
</g>
</g>
<!-- Node2&#45;&gt;Node41 -->
<g id="edge57" class="edge"><title>Node2&#45;&gt;Node41</title>
<path fill="none" stroke="midnightblue" d="M1673.99,-241.79C1562.48,-237.244 1340.75,-225.012 1317.38,-199 1308.17,-188.752 1309.49,-179.298 1317.38,-168 1343.94,-129.951 1372.65,-150.086 1415.38,-132 1454.21,-115.565 1497.99,-93.8833 1524.89,-80.1879"/>
<polygon fill="midnightblue" stroke="midnightblue" points="1526.68,-83.2 1533.99,-75.5281 1523.49,-76.9688 1526.68,-83.2"/>
</g>
<!-- Node14&#45;&gt;Node1 -->
<g id="edge16" class="edge"><title>Node14&#45;&gt;Node1</title>
<path fill="none" stroke="midnightblue" d="M265.413,-60.0525C282.125,-58.652 300.489,-57.1872 317.38,-56 603.301,-35.9053 948.212,-18.5363 1063.61,-12.9113"/>
<polygon fill="midnightblue" stroke="midnightblue" points="1063.92,-16.4005 1073.74,-12.4191 1063.58,-9.40871 1063.92,-16.4005"/>
</g>
<!-- Node15 -->
<g id="node16" class="node"><title>Node15</title>
<polygon fill="white" stroke="#bfbfbf" points="145.38,-0.5 145.38,-19.5 189.38,-19.5 189.38,-0.5 145.38,-0.5"/>
<text text-anchor="middle" x="167.38" y="-7.5" font-family="FreeSans" font-size="10.00">string</text>
</g>
<!-- Node14&#45;&gt;Node15 -->
<g id="edge17" class="edge"><title>Node14&#45;&gt;Node15</title>
<path fill="none" stroke="midnightblue" d="M202.445,-56.083C196.451,-48.3768 187.629,-37.0333 180.333,-27.6531"/>
<polygon fill="midnightblue" stroke="midnightblue" points="183.089,-25.4958 174.187,-19.7511 177.563,-29.7934 183.089,-25.4958"/>
</g>
<!-- Node16&#45;&gt;Node1 -->
<g id="edge19" class="edge"><title>Node16&#45;&gt;Node1</title>
<path fill="none" stroke="midnightblue" d="M431.398,-173.878C448.172,-159.721 483.359,-131.209 516.38,-112 569.703,-80.9816 583.709,-71.6445 643.38,-56 794.919,-16.2698 982.862,-10.9663 1063.55,-10.6871"/>
<polygon fill="midnightblue" stroke="midnightblue" points="1063.76,-14.187 1073.75,-10.6772 1063.75,-7.187 1063.76,-14.187"/>
</g>
<!-- Node16&#45;&gt;Node14 -->
<g id="edge23" class="edge"><title>Node16&#45;&gt;Node14</title>
<path fill="none" stroke="midnightblue" d="M367.562,-174.779C316.962,-166.453 246.125,-151.697 226.38,-132 214.391,-120.039 210.533,-100.738 209.439,-86.2702"/>
<polygon fill="midnightblue" stroke="midnightblue" points="212.924,-85.7976 209.052,-75.9356 205.929,-86.0596 212.924,-85.7976"/>
</g>
<!-- Node16&#45;&gt;Node15 -->
<g id="edge21" class="edge"><title>Node16&#45;&gt;Node15</title>
<path fill="none" stroke="midnightblue" d="M367.704,-176.502C323.821,-170.01 261.125,-157.025 211.38,-132 176.711,-114.559 160.816,-111.157 144.38,-76 136.966,-60.1407 145.53,-41.1878 154.235,-27.8519"/>
<polygon fill="midnightblue" stroke="midnightblue" points="157.144,-29.8009 160.09,-19.6239 151.441,-25.7426 157.144,-29.8009"/>
</g>
<!-- Node17 -->
<g id="node18" class="node"><title>Node17</title>
<polygon fill="white" stroke="#bfbfbf" points="425.88,-0.5 425.88,-19.5 482.88,-19.5 482.88,-0.5 425.88,-0.5"/>
<text text-anchor="middle" x="454.38" y="-7.5" font-family="FreeSans" font-size="10.00">ostream</text>
</g>
<!-- Node16&#45;&gt;Node17 -->
<g id="edge20" class="edge"><title>Node16&#45;&gt;Node17</title>
<path fill="none" stroke="midnightblue" d="M420.25,-173.963C417.811,-153.203 413.278,-98.6501 426.38,-56 429.482,-45.9028 435.433,-35.8125 441.053,-27.7532"/>
<polygon fill="midnightblue" stroke="midnightblue" points="443.937,-29.7401 447.089,-19.625 438.317,-25.5667 443.937,-29.7401"/>
</g>
<!-- Node18 -->
<g id="node19" class="node"><title>Node18</title>
<polygon fill="white" stroke="#bfbfbf" points="525.38,-112.5 525.38,-131.5 567.38,-131.5 567.38,-112.5 525.38,-112.5"/>
<text text-anchor="middle" x="546.38" y="-119.5" font-family="FreeSans" font-size="10.00">stack</text>
</g>
<!-- Node16&#45;&gt;Node18 -->
<g id="edge22" class="edge"><title>Node16&#45;&gt;Node18</title>
<path fill="none" stroke="midnightblue" d="M439.29,-173.975C460.268,-163.99 495.23,-147.348 519.474,-135.807"/>
<polygon fill="midnightblue" stroke="midnightblue" points="520.979,-138.967 528.504,-131.509 517.971,-132.647 520.979,-138.967"/>
</g>
<!-- Node19 -->
<g id="node20" class="node"><title>Node19</title>
<g id="a_node20"><a xlink:href="Clock_8h_source.html" target="_top" xlink:title="DGtal/base/Clock.h">
<polygon fill="white" stroke="red" points="663.88,-56.5 663.88,-75.5 770.88,-75.5 770.88,-56.5 663.88,-56.5"/>
<text text-anchor="middle" x="717.38" y="-63.5" font-family="FreeSans" font-size="10.00">DGtal/base/Clock.h</text>
</a>
</g>
</g>
<!-- Node16&#45;&gt;Node19 -->
<g id="edge24" class="edge"><title>Node16&#45;&gt;Node19</title>
<path fill="none" stroke="midnightblue" d="M474.934,-182.132C557.169,-180.302 708.607,-171.502 742.38,-132 754.352,-117.997 743.216,-97.6355 732.238,-83.4456"/>
<polygon fill="midnightblue" stroke="midnightblue" points="734.723,-80.9603 725.631,-75.5201 729.346,-85.4424 734.723,-80.9603"/>
</g>
<!-- Node22 -->
<g id="node21" class="node"><title>Node22</title>
<g id="a_node21"><a xlink:href="TraceWriter_8h_source.html" target="_top" xlink:title="DGtal/base/TraceWriter.h">
<polygon fill="white" stroke="black" points="435.88,-56.5 435.88,-75.5 568.88,-75.5 568.88,-56.5 435.88,-56.5"/>
<text text-anchor="middle" x="502.38" y="-63.5" font-family="FreeSans" font-size="10.00">DGtal/base/TraceWriter.h</text>
</a>
</g>
</g>
<!-- Node16&#45;&gt;Node22 -->
<g id="edge26" class="edge"><title>Node16&#45;&gt;Node22</title>
<path fill="none" stroke="midnightblue" d="M427.469,-173.819C440.779,-154.839 472.682,-109.348 490.256,-84.2882"/>
<polygon fill="midnightblue" stroke="midnightblue" points="493.345,-85.979 496.222,-75.782 487.614,-81.9597 493.345,-85.979"/>
</g>
<!-- Node16&#45;&gt;Node23 -->
<g id="edge29" class="edge"><title>Node16&#45;&gt;Node23</title>
<path fill="none" stroke="midnightblue" d="M406.05,-173.975C388.411,-164.166 359.221,-147.935 338.523,-136.425"/>
<polygon fill="midnightblue" stroke="midnightblue" points="340.123,-133.31 329.682,-131.509 336.721,-139.428 340.123,-133.31"/>
</g>
<!-- Node16&#45;&gt;Node24 -->
<g id="edge34" class="edge"><title>Node16&#45;&gt;Node24</title>
<path fill="none" stroke="midnightblue" d="M368.196,-173.975C305.174,-163.261 200.958,-144.882 137.825,-133.366"/>
<polygon fill="midnightblue" stroke="midnightblue" points="138.144,-129.866 127.678,-131.509 136.884,-136.752 138.144,-129.866"/>
</g>
<!-- Node19&#45;&gt;Node1 -->
<g id="edge25" class="edge"><title>Node19&#45;&gt;Node1</title>
<path fill="none" stroke="midnightblue" d="M771.052,-57.4915C849.473,-46.5207 993.609,-26.3566 1063.41,-16.5917"/>
<polygon fill="midnightblue" stroke="midnightblue" points="1064.13,-20.0246 1073.55,-15.1728 1063.16,-13.0921 1064.13,-20.0246"/>
</g>
<!-- Node22&#45;&gt;Node1 -->
<g id="edge27" class="edge"><title>Node22&#45;&gt;Node1</title>
<path fill="none" stroke="midnightblue" d="M569.112,-57.4553C573.939,-56.9494 578.734,-56.4591 583.38,-56 762.355,-38.3156 976.37,-21.0042 1063.52,-14.1169"/>
<polygon fill="midnightblue" stroke="midnightblue" points="1064.06,-17.5855 1073.75,-13.3102 1063.5,-10.6072 1064.06,-17.5855"/>
</g>
<!-- Node22&#45;&gt;Node17 -->
<g id="edge28" class="edge"><title>Node22&#45;&gt;Node17</title>
<path fill="none" stroke="midnightblue" d="M494.454,-56.083C487.534,-48.2982 477.315,-36.8015 468.928,-27.3665"/>
<polygon fill="midnightblue" stroke="midnightblue" points="471.419,-24.8999 462.159,-19.7511 466.187,-29.5505 471.419,-24.8999"/>
</g>
<!-- Node23&#45;&gt;Node1 -->
<g id="edge30" class="edge"><title>Node23&#45;&gt;Node1</title>
<path fill="none" stroke="midnightblue" d="M325.332,-112.288C344.502,-97.607 385.954,-68.3333 426.38,-56 546.652,-19.3075 937.181,-12.5181 1063.54,-11.2751"/>
<polygon fill="midnightblue" stroke="midnightblue" points="1063.59,-14.7749 1073.56,-11.1829 1063.53,-7.77517 1063.59,-14.7749"/>
</g>
<!-- Node23&#45;&gt;Node14 -->
<g id="edge33" class="edge"><title>Node23&#45;&gt;Node14</title>
<path fill="none" stroke="midnightblue" d="M297.51,-112.324C280.672,-103.664 254.574,-90.2424 235.142,-80.249"/>
<polygon fill="midnightblue" stroke="midnightblue" points="236.702,-77.1155 226.209,-75.6545 233.501,-83.3405 236.702,-77.1155"/>
</g>
<!-- Node23&#45;&gt;Node15 -->
<g id="edge31" class="edge"><title>Node23&#45;&gt;Node15</title>
<path fill="none" stroke="midnightblue" d="M311.061,-112.233C305.457,-98.5041 292.892,-71.8666 274.38,-56 252.752,-37.4618 222.387,-25.6762 199.526,-18.838"/>
<polygon fill="midnightblue" stroke="midnightblue" points="200.184,-15.387 189.61,-16.0378 198.282,-22.1236 200.184,-15.387"/>
</g>
<!-- Node23&#45;&gt;Node22 -->
<g id="edge32" class="edge"><title>Node23&#45;&gt;Node22</title>
<path fill="none" stroke="midnightblue" d="M344.17,-112.444C376.209,-103.241 427.314,-88.5617 462.733,-78.3879"/>
<polygon fill="midnightblue" stroke="midnightblue" points="464.085,-81.6412 472.731,-75.5164 462.153,-74.9132 464.085,-81.6412"/>
</g>
<!-- Node24&#45;&gt;Node15 -->
<g id="edge36" class="edge"><title>Node24&#45;&gt;Node15</title>
<path fill="none" stroke="midnightblue" d="M86.4981,-112.305C90.0164,-99.1367 98.0315,-73.7878 111.38,-56 120.359,-44.0355 133.217,-33.4045 144.348,-25.4836"/>
<polygon fill="midnightblue" stroke="midnightblue" points="146.495,-28.2556 152.797,-19.7386 142.56,-22.4669 146.495,-28.2556"/>
</g>
<!-- Node24&#45;&gt;Node16 -->
<g id="edge35" class="edge"><title>Node24&#45;&gt;Node16</title>
<path fill="none" stroke="midnightblue" d="M137.472,-131.509C200.454,-142.216 304.669,-160.594 367.842,-172.117"/>
<polygon fill="midnightblue" stroke="midnightblue" points="367.53,-175.618 377.997,-173.975 368.79,-168.732 367.53,-175.618"/>
</g>
<!-- Node27&#45;&gt;Node1 -->
<g id="edge39" class="edge"><title>Node27&#45;&gt;Node1</title>
<path fill="none" stroke="midnightblue" d="M655.101,-112.132C649.104,-98.2655 640.408,-71.4425 654.38,-56 681.599,-25.9173 958.724,-15.0552 1063.52,-12.0046"/>
<polygon fill="midnightblue" stroke="midnightblue" points="1063.8,-15.4983 1073.7,-11.7174 1063.6,-8.50113 1063.8,-15.4983"/>
</g>
<!-- Node27&#45;&gt;Node15 -->
<g id="edge40" class="edge"><title>Node27&#45;&gt;Node15</title>
<path fill="none" stroke="midnightblue" d="M611.026,-112.464C563.789,-103.937 489.929,-90.0997 426.38,-76 344.158,-57.7572 248.201,-32.6723 199.41,-19.6434"/>
<polygon fill="midnightblue" stroke="midnightblue" points="200.021,-16.1837 189.456,-16.9775 198.21,-22.9454 200.021,-16.1837"/>
</g>
<!-- Node27&#45;&gt;Node22 -->
<g id="edge41" class="edge"><title>Node27&#45;&gt;Node22</title>
<path fill="none" stroke="midnightblue" d="M634.503,-112.444C608.091,-103.359 566.165,-88.9388 536.639,-78.7831"/>
<polygon fill="midnightblue" stroke="midnightblue" points="537.736,-75.4593 527.141,-75.5164 535.459,-82.0787 537.736,-75.4593"/>
</g>
<!-- Node28&#45;&gt;Node1 -->
<g id="edge44" class="edge"><title>Node28&#45;&gt;Node1</title>
<path fill="none" stroke="midnightblue" d="M1187.31,-56.324C1171.42,-47.7428 1146.87,-34.486 1128.42,-24.5224"/>
<polygon fill="midnightblue" stroke="midnightblue" points="1129.87,-21.3264 1119.41,-19.6545 1126.54,-27.4857 1129.87,-21.3264"/>
</g>
<!-- Node29&#45;&gt;Node1 -->
<g id="edge46" class="edge"><title>Node29&#45;&gt;Node1</title>
<path fill="none" stroke="midnightblue" d="M1319.66,-56.4435C1271.26,-46.2753 1191.06,-29.422 1143.1,-19.3468"/>
<polygon fill="midnightblue" stroke="midnightblue" points="1143.6,-15.8749 1133.1,-17.2437 1142.16,-22.7253 1143.6,-15.8749"/>
</g>
<!-- Node32&#45;&gt;Node2 -->
<g id="edge54" class="edge"><title>Node32&#45;&gt;Node2</title>
<path fill="none" stroke="midnightblue" d="M2700.07,-193.015C2681.38,-195.218 2660.58,-197.414 2641.38,-199 2333.7,-224.412 1965.24,-237.467 1810.92,-242.052"/>
<polygon fill="midnightblue" stroke="midnightblue" points="1810.51,-238.563 1800.62,-242.355 1810.72,-245.56 1810.51,-238.563"/>
</g>
<!-- Node32&#45;&gt;Node4 -->
<g id="edge48" class="edge"><title>Node32&#45;&gt;Node4</title>
<path fill="none" stroke="midnightblue" d="M2760.13,-173.763C2762.87,-160.387 2768.46,-134.061 2774.38,-112 2776.77,-103.099 2779.77,-93.3192 2782.38,-85.1567"/>
<polygon fill="midnightblue" stroke="midnightblue" points="2785.73,-86.1605 2785.49,-75.5683 2779.07,-83.9951 2785.73,-86.1605"/>
</g>
<!-- Node32&#45;&gt;Node12 -->
<g id="edge49" class="edge"><title>Node32&#45;&gt;Node12</title>
<path fill="none" stroke="midnightblue" d="M2745.77,-173.975C2731.66,-164.431 2708.55,-148.807 2691.63,-137.368"/>
<polygon fill="midnightblue" stroke="midnightblue" points="2693.21,-134.211 2682.97,-131.509 2689.29,-140.01 2693.21,-134.211"/>
</g>
<!-- Node34 -->
<g id="node28" class="node"><title>Node34</title>
<g id="a_node28"><a xlink:href="Color_8h_source.html" target="_top" xlink:title="DGtal/io/Color.h">
<polygon fill="white" stroke="red" points="2816.88,-112.5 2816.88,-131.5 2907.88,-131.5 2907.88,-112.5 2816.88,-112.5"/>
<text text-anchor="middle" x="2862.38" y="-119.5" font-family="FreeSans" font-size="10.00">DGtal/io/Color.h</text>
</a>
</g>
</g>
<!-- Node32&#45;&gt;Node34 -->
<g id="edge50" class="edge"><title>Node32&#45;&gt;Node34</title>
<path fill="none" stroke="midnightblue" d="M2773.28,-173.975C2790.35,-164.211 2818.54,-148.081 2838.64,-136.581"/>
<polygon fill="midnightblue" stroke="midnightblue" points="2840.57,-139.513 2847.51,-131.509 2837.09,-133.437 2840.57,-139.513"/>
</g>
<!-- Node34&#45;&gt;Node1 -->
<g id="edge51" class="edge"><title>Node34&#45;&gt;Node1</title>
<path fill="none" stroke="midnightblue" d="M2860.76,-112.359C2857.51,-97.784 2848.7,-68.6665 2828.38,-56 2754.56,-9.98059 1394.46,-10.4251 1143.14,-10.9022"/>
<polygon fill="midnightblue" stroke="midnightblue" points="1142.99,-7.40243 1133,-10.9227 1143.01,-14.4024 1142.99,-7.40243"/>
</g>
<!-- Node34&#45;&gt;Node2 -->
<g id="edge52" class="edge"><title>Node34&#45;&gt;Node2</title>
<path fill="none" stroke="midnightblue" d="M2862.96,-131.811C2863.49,-148.079 2861.97,-182.659 2841.38,-199 2801.02,-231.04 2050.36,-240.999 1810.45,-243.371"/>
<polygon fill="midnightblue" stroke="midnightblue" points="1810.39,-239.871 1800.43,-243.468 1810.46,-246.871 1810.39,-239.871"/>
</g>
<!-- Node34&#45;&gt;Node4 -->
<g id="edge53" class="edge"><title>Node34&#45;&gt;Node4</title>
<path fill="none" stroke="midnightblue" d="M2850.49,-112.324C2839.23,-104.107 2822.09,-91.6017 2808.67,-81.8069"/>
<polygon fill="midnightblue" stroke="midnightblue" points="2810.63,-78.9014 2800.49,-75.8339 2806.5,-84.5559 2810.63,-78.9014"/>
</g>
<!-- Node40&#45;&gt;Node1 -->
<g id="edge56" class="edge"><title>Node40&#45;&gt;Node1</title>
<path fill="none" stroke="midnightblue" d="M1368.06,-112.462C1408.44,-102.364 1460.32,-83.392 1436.38,-56 1398.72,-12.9099 1223.2,-9.43625 1143.25,-10.1651"/>
<polygon fill="midnightblue" stroke="midnightblue" points="1143.04,-6.66726 1133.08,-10.2855 1143.12,-13.6668 1143.04,-6.66726"/>
</g>
<!-- Node41&#45;&gt;Node1 -->
<g id="edge58" class="edge"><title>Node41&#45;&gt;Node1</title>
<path fill="none" stroke="midnightblue" d="M1482.98,-56.8572C1388.52,-45.4464 1219.77,-25.0604 1143.16,-15.806"/>
<polygon fill="midnightblue" stroke="midnightblue" points="1143.33,-12.3008 1132.98,-14.5761 1142.49,-19.2503 1143.33,-12.3008"/>
</g>
<!-- Node43&#45;&gt;Node1 -->
<g id="edge61" class="edge"><title>Node43&#45;&gt;Node1</title>
<path fill="none" stroke="midnightblue" d="M2088.58,-577.687C2272.06,-573.725 2778.18,-560.503 2848.38,-534 3066.75,-451.561 3240.38,-417.913 3240.38,-184.5 3240.38,-184.5 3240.38,-184.5 3240.38,-121 3240.38,-84.2802 3222.23,-72.418 3189.38,-56 3094.41,-8.52801 1423.31,-10.2666 1143.09,-10.8942"/>
<polygon fill="midnightblue" stroke="midnightblue" points="1142.97,-7.39437 1132.98,-10.9177 1142.99,-14.3943 1142.97,-7.39437"/>
</g>
<!-- Node43&#45;&gt;Node2 -->
<g id="edge62" class="edge"><title>Node43&#45;&gt;Node2</title>
<path fill="none" stroke="midnightblue" d="M2023.04,-570.375C2025.51,-531.501 2030.15,-371.004 1946.38,-291 1926.96,-272.456 1862.74,-260.5 1810.56,-253.608"/>
<polygon fill="midnightblue" stroke="midnightblue" points="1811,-250.135 1800.64,-252.338 1810.11,-257.079 1811,-250.135"/>
</g>
<!-- Node44 -->
<g id="node33" class="node"><title>Node44</title>
<g id="a_node33"><a xlink:href="SpaceND_8h_source.html" target="_top" xlink:title="DGtal/kernel/SpaceND.h">
<polygon fill="white" stroke="red" points="2598.88,-302.5 2598.88,-321.5 2731.88,-321.5 2731.88,-302.5 2598.88,-302.5"/>
<text text-anchor="middle" x="2665.38" y="-309.5" font-family="FreeSans" font-size="10.00">DGtal/kernel/SpaceND.h</text>
</a>
</g>
</g>
<!-- Node43&#45;&gt;Node44 -->
<g id="edge63" class="edge"><title>Node43&#45;&gt;Node44</title>
<path fill="none" stroke="midnightblue" d="M2088.71,-577.719C2161.55,-574.699 2281.22,-564.947 2379.38,-534 2440.24,-514.81 2454.72,-504.466 2506.38,-467 2565.84,-423.879 2625.15,-359.303 2651.38,-329.346"/>
<polygon fill="midnightblue" stroke="midnightblue" points="2654.24,-331.388 2658.15,-321.541 2648.96,-326.801 2654.24,-331.388"/>
</g>
<!-- Node66 -->
<g id="node34" class="node"><title>Node66</title>
<g id="a_node34"><a xlink:href="HyperRectDomain_8h_source.html" target="_top" xlink:title="DGtal/kernel/domains\l/HyperRectDomain.h">
<polygon fill="white" stroke="red" points="1475.38,-297 1475.38,-327 1595.38,-327 1595.38,-297 1475.38,-297"/>
<text text-anchor="start" x="1483.38" y="-315" font-family="FreeSans" font-size="10.00">DGtal/kernel/domains</text>
<text text-anchor="middle" x="1535.38" y="-304" font-family="FreeSans" font-size="10.00">/HyperRectDomain.h</text>
</a>
</g>
</g>
<!-- Node43&#45;&gt;Node66 -->
<g id="edge66" class="edge"><title>Node43&#45;&gt;Node66</title>
<path fill="none" stroke="midnightblue" d="M2015.6,-570.158C1987.19,-533.383 1876.96,-393.32 1827.38,-369 1756.96,-334.458 1667.25,-321.192 1605.97,-316.114"/>
<polygon fill="midnightblue" stroke="midnightblue" points="1605.87,-312.596 1595.63,-315.313 1605.33,-319.575 1605.87,-312.596"/>
</g>
<!-- Node89 -->
<g id="node35" class="node"><title>Node89</title>
<g id="a_node35"><a xlink:href="DigitalSetSelector_8h_source.html" target="_top" xlink:title="DGtal/kernel/sets/Digital\lSetSelector.h">
<polygon fill="white" stroke="red" points="1133.38,-297 1133.38,-327 1265.38,-327 1265.38,-297 1133.38,-297"/>
<text text-anchor="start" x="1141.38" y="-315" font-family="FreeSans" font-size="10.00">DGtal/kernel/sets/Digital</text>
<text text-anchor="middle" x="1199.38" y="-304" font-family="FreeSans" font-size="10.00">SetSelector.h</text>
</a>
</g>
</g>
<!-- Node43&#45;&gt;Node89 -->
<g id="edge69" class="edge"><title>Node43&#45;&gt;Node89</title>
<path fill="none" stroke="midnightblue" d="M1997.56,-570.419C1973.8,-561.963 1937.15,-548.272 1906.38,-534 1836.83,-501.735 1676.54,-391.937 1603.38,-369 1463.02,-324.994 1418.97,-360.028 1274.38,-333 1269,-331.994 1263.44,-330.804 1257.89,-329.513"/>
<polygon fill="midnightblue" stroke="midnightblue" points="1258.5,-326.059 1247.95,-327.099 1256.84,-332.861 1258.5,-326.059"/>
</g>
<!-- Node102 -->
<g id="node36" class="node"><title>Node102</title>
<g id="a_node36"><a xlink:href="DigitalTopology_8h_source.html" target="_top" xlink:title="DGtal/topology/DigitalTopology.h">
<polygon fill="white" stroke="red" points="2864.38,-302.5 2864.38,-321.5 3034.38,-321.5 3034.38,-302.5 2864.38,-302.5"/>
<text text-anchor="middle" x="2949.38" y="-309.5" font-family="FreeSans" font-size="10.00">DGtal/topology/DigitalTopology.h</text>
</a>
</g>
</g>
<!-- Node43&#45;&gt;Node102 -->
<g id="edge72" class="edge"><title>Node43&#45;&gt;Node102</title>
<path fill="none" stroke="midnightblue" d="M2088.52,-578.763C2267.99,-577.63 2754.83,-571.131 2816.38,-534 2894.14,-487.086 2932.17,-375.798 2944.61,-331.58"/>
<polygon fill="midnightblue" stroke="midnightblue" points="2948.01,-332.429 2947.23,-321.863 2941.25,-330.606 2948.01,-332.429"/>
</g>
<!-- Node109 -->
<g id="node37" class="node"><title>Node109</title>
<g id="a_node37"><a xlink:href="MetricAdjacency_8h_source.html" target="_top" xlink:title="DGtal/topology/MetricAdjacency.h">
<polygon fill="white" stroke="red" points="2069.38,-375 2069.38,-394 2245.38,-394 2245.38,-375 2069.38,-375"/>
<text text-anchor="middle" x="2157.38" y="-382" font-family="FreeSans" font-size="10.00">DGtal/topology/MetricAdjacency.h</text>
</a>
</g>
</g>
<!-- Node43&#45;&gt;Node109 -->
<g id="edge75" class="edge"><title>Node43&#45;&gt;Node109</title>
<path fill="none" stroke="midnightblue" d="M2028.36,-570.436C2049,-540.851 2117.55,-442.586 2145.43,-402.624"/>
<polygon fill="midnightblue" stroke="midnightblue" points="2148.31,-404.611 2151.17,-394.407 2142.57,-400.605 2148.31,-404.611"/>
</g>
<!-- Node112 -->
<g id="node39" class="node"><title>Node112</title>
<g id="a_node39"><a xlink:href="Object_8h_source.html" target="_top" xlink:title="DGtal/topology/Object.h">
<polygon fill="white" stroke="red" points="1463.88,-375 1463.88,-394 1594.88,-394 1594.88,-375 1463.88,-375"/>
<text text-anchor="middle" x="1529.38" y="-382" font-family="FreeSans" font-size="10.00">DGtal/topology/Object.h</text>
</a>
</g>
</g>
<!-- Node43&#45;&gt;Node112 -->
<g id="edge80" class="edge"><title>Node43&#45;&gt;Node112</title>
<path fill="none" stroke="midnightblue" d="M1962.33,-570.494C1916.93,-563.2 1853.4,-551.135 1799.38,-534 1729.01,-511.679 1711.82,-503.028 1647.38,-467 1610.74,-446.513 1571.17,-417.656 1548.43,-400.344"/>
<polygon fill="midnightblue" stroke="midnightblue" points="1550.37,-397.422 1540.31,-394.106 1546.11,-402.973 1550.37,-397.422"/>
</g>
<!-- Node121 -->
<g id="node41" class="node"><title>Node121</title>
<g id="a_node41"><a xlink:href="KhalimskySpaceND_8h_source.html" target="_top" xlink:title="DGtal/topology/Khalimsky\lSpaceND.h">
<polygon fill="white" stroke="red" points="2358.88,-436.5 2358.88,-466.5 2497.88,-466.5 2497.88,-436.5 2358.88,-436.5"/>
<text text-anchor="start" x="2366.88" y="-454.5" font-family="FreeSans" font-size="10.00">DGtal/topology/Khalimsky</text>
<text text-anchor="middle" x="2428.38" y="-443.5" font-family="FreeSans" font-size="10.00">SpaceND.h</text>
</a>
</g>
</g>
<!-- Node43&#45;&gt;Node121 -->
<g id="edge89" class="edge"><title>Node43&#45;&gt;Node121</title>
<path fill="none" stroke="midnightblue" d="M2088.49,-574.61C2169.26,-568.414 2300.58,-555.407 2344.38,-534 2372.37,-520.322 2396.96,-493.796 2412.19,-474.717"/>
<polygon fill="midnightblue" stroke="midnightblue" points="2414.96,-476.853 2418.31,-466.802 2409.42,-472.569 2414.96,-476.853"/>
</g>
<!-- Node122 -->
<g id="node42" class="node"><title>Node122</title>
<g id="a_node42"><a xlink:href="KhalimskyPreSpaceND_8h_source.html" target="_top" xlink:title="DGtal/topology/Khalimsky\lPreSpaceND.h">
<polygon fill="white" stroke="red" points="2339.88,-369.5 2339.88,-399.5 2478.88,-399.5 2478.88,-369.5 2339.88,-369.5"/>
<text text-anchor="start" x="2347.88" y="-387.5" font-family="FreeSans" font-size="10.00">DGtal/topology/Khalimsky</text>
<text text-anchor="middle" x="2409.38" y="-376.5" font-family="FreeSans" font-size="10.00">PreSpaceND.h</text>
</a>
</g>
</g>
<!-- Node43&#45;&gt;Node122 -->
<g id="edge99" class="edge"><title>Node43&#45;&gt;Node122</title>
<path fill="none" stroke="midnightblue" d="M2088.52,-579.022C2140.64,-576.303 2213.42,-566.238 2268.38,-534 2317.12,-505.409 2309.6,-476.135 2349.38,-436 2359.84,-425.443 2372.29,-414.706 2383.13,-405.862"/>
<polygon fill="midnightblue" stroke="midnightblue" points="2385.45,-408.495 2391.05,-399.503 2381.06,-403.037 2385.45,-408.495"/>
</g>
<!-- Node125 -->
<g id="node43" class="node"><title>Node125</title>
<g id="a_node43"><a xlink:href="GridCurve_8h_source.html" target="_top" xlink:title="Header file for module GridCurve.cpp. ">
<polygon fill="white" stroke="red" points="2679.38,-503.5 2679.38,-533.5 2807.38,-533.5 2807.38,-503.5 2679.38,-503.5"/>
<text text-anchor="start" x="2687.38" y="-521.5" font-family="FreeSans" font-size="10.00">DGtal/geometry/curves</text>
<text text-anchor="middle" x="2743.38" y="-510.5" font-family="FreeSans" font-size="10.00">/GridCurve.h</text>
</a>
</g>
</g>
<!-- Node43&#45;&gt;Node125 -->
<g id="edge100" class="edge"><title>Node43&#45;&gt;Node125</title>
<path fill="none" stroke="midnightblue" d="M2088.6,-573.536C2223.17,-562.43 2527.8,-537.29 2668.98,-525.64"/>
<polygon fill="midnightblue" stroke="midnightblue" points="2669.59,-529.102 2679.27,-524.791 2669.01,-522.125 2669.59,-529.102"/>
</g>
<!-- Node153 -->
<g id="node45" class="node"><title>Node153</title>
<g id="a_node45"><a xlink:href="ExactPredicateLpSeparableMetric_8h_source.html" target="_top" xlink:title="DGtal/geometry/volumes\l/distance/ExactPredicateLpSeparable\lMetric.h">
<polygon fill="white" stroke="red" points="2348.38,-291.5 2348.38,-332.5 2542.38,-332.5 2542.38,-291.5 2348.38,-291.5"/>
<text text-anchor="start" x="2356.38" y="-320.5" font-family="FreeSans" font-size="10.00">DGtal/geometry/volumes</text>
<text text-anchor="start" x="2356.38" y="-309.5" font-family="FreeSans" font-size="10.00">/distance/ExactPredicateLpSeparable</text>
<text text-anchor="middle" x="2445.38" y="-298.5" font-family="FreeSans" font-size="10.00">Metric.h</text>
</a>
</g>
</g>
<!-- Node43&#45;&gt;Node153 -->
<g id="edge106" class="edge"><title>Node43&#45;&gt;Node153</title>
<path fill="none" stroke="midnightblue" d="M2033.73,-570.36C2073.33,-540.427 2209.47,-439.161 2330.38,-369 2350.11,-357.55 2372.53,-346.272 2392.29,-336.871"/>
<polygon fill="midnightblue" stroke="midnightblue" points="2393.91,-339.98 2401.46,-332.553 2390.93,-333.647 2393.91,-339.98"/>
</g>
<!-- Node158 -->
<g id="node46" class="node"><title>Node158</title>
<g id="a_node46"><a xlink:href="ExactPredicateLpPowerSeparableMetric_8h_source.html" target="_top" xlink:title="DGtal/geometry/volumes\l/distance/ExactPredicateLpPower\lSeparableMetric.h">
<polygon fill="white" stroke="red" points="1283.38,-291.5 1283.38,-332.5 1457.38,-332.5 1457.38,-291.5 1283.38,-291.5"/>
<text text-anchor="start" x="1291.38" y="-320.5" font-family="FreeSans" font-size="10.00">DGtal/geometry/volumes</text>
<text text-anchor="start" x="1291.38" y="-309.5" font-family="FreeSans" font-size="10.00">/distance/ExactPredicateLpPower</text>
<text text-anchor="middle" x="1370.38" y="-298.5" font-family="FreeSans" font-size="10.00">SeparableMetric.h</text>
</a>
</g>
</g>
<!-- Node43&#45;&gt;Node158 -->
<g id="edge110" class="edge"><title>Node43&#45;&gt;Node158</title>
<path fill="none" stroke="midnightblue" d="M2009.52,-570.318C1955.78,-534.186 1748.6,-396.344 1675.38,-369 1590.01,-337.12 1560.91,-349.698 1467.35,-333.099"/>
<polygon fill="midnightblue" stroke="midnightblue" points="1467.94,-329.65 1457.47,-331.283 1466.68,-336.534 1467.94,-329.65"/>
</g>
<!-- Node44&#45;&gt;Node1 -->
<g id="edge64" class="edge"><title>Node44&#45;&gt;Node1</title>
<path fill="none" stroke="midnightblue" d="M2697.98,-302.42C2712.71,-298.68 2730.37,-294.386 2746.38,-291 2836.46,-271.954 2873.1,-305.041 2950.38,-255 3025.96,-206.059 3051.29,-120.425 2988.38,-56 2954.99,-21.8 1412.6,-12.5439 1143.28,-11.1874"/>
<polygon fill="midnightblue" stroke="midnightblue" points="1143.2,-7.68698 1133.18,-11.1372 1143.16,-14.6869 1143.2,-7.68698"/>
</g>
<!-- Node44&#45;&gt;Node2 -->
<g id="edge65" class="edge"><title>Node44&#45;&gt;Node2</title>
<path fill="none" stroke="midnightblue" d="M2623.86,-302.497C2602.32,-298.397 2575.53,-293.777 2551.38,-291 2279.43,-259.739 1953.78,-250.028 1810.79,-247.148"/>
<polygon fill="midnightblue" stroke="midnightblue" points="1810.47,-243.642 1800.41,-246.945 1810.33,-250.64 1810.47,-243.642"/>
</g>
<!-- Node66&#45;&gt;Node1 -->
<g id="edge67" class="edge"><title>Node66&#45;&gt;Node1</title>
<path fill="none" stroke="midnightblue" d="M1489.41,-296.933C1405.15,-270.896 1232.43,-216.27 1209.38,-199 1155.79,-158.849 1151.51,-136.293 1122.38,-76 1115.19,-61.1127 1110.17,-42.9675 1107.1,-29.6357"/>
<polygon fill="midnightblue" stroke="midnightblue" points="1110.5,-28.7899 1104.98,-19.7464 1103.65,-30.2581 1110.5,-28.7899"/>
</g>
<!-- Node66&#45;&gt;Node2 -->
<g id="edge68" class="edge"><title>Node66&#45;&gt;Node2</title>
<path fill="none" stroke="midnightblue" d="M1579.21,-296.896C1615.75,-285.138 1667.18,-268.589 1701.36,-257.592"/>
<polygon fill="midnightblue" stroke="midnightblue" points="1702.5,-260.902 1710.94,-254.507 1700.35,-254.238 1702.5,-260.902"/>
</g>
<!-- Node89&#45;&gt;Node1 -->
<g id="edge70" class="edge"><title>Node89&#45;&gt;Node1</title>
<path fill="none" stroke="midnightblue" d="M1148.99,-296.968C1111.82,-285.715 1065.37,-269.467 1051.38,-255 1028.37,-231.205 1027.38,-217.599 1027.38,-184.5 1027.38,-184.5 1027.38,-184.5 1027.38,-121 1027.38,-90.2048 1033.85,-81.3191 1051.38,-56 1059.56,-44.1903 1071.53,-33.5418 1081.93,-25.5714"/>
<polygon fill="midnightblue" stroke="midnightblue" points="1084.17,-28.2685 1090.18,-19.5395 1080.04,-22.6188 1084.17,-28.2685"/>
</g>
<!-- Node89&#45;&gt;Node2 -->
<g id="edge71" class="edge"><title>Node89&#45;&gt;Node2</title>
<path fill="none" stroke="midnightblue" d="M1247.53,-296.916C1256.4,-294.677 1265.63,-292.581 1274.38,-291 1410.73,-266.365 1572.28,-254.538 1664.01,-249.417"/>
<polygon fill="midnightblue" stroke="midnightblue" points="1664.23,-252.91 1674.02,-248.869 1663.85,-245.92 1664.23,-252.91"/>
</g>
<!-- Node102&#45;&gt;Node1 -->
<g id="edge73" class="edge"><title>Node102&#45;&gt;Node1</title>
<path fill="none" stroke="midnightblue" d="M3034.71,-303.483C3071.31,-296.213 3112.06,-282.132 3140.38,-255 3164.28,-232.103 3164.38,-217.599 3164.38,-184.5 3164.38,-184.5 3164.38,-184.5 3164.38,-121 3164.38,-90.2048 3165.45,-73.8828 3140.38,-56 3098.18,-25.8961 1424.29,-13.186 1143.23,-11.2622"/>
<polygon fill="midnightblue" stroke="midnightblue" points="1143.11,-7.76142 1133.09,-11.1933 1143.06,-14.7613 1143.11,-7.76142"/>
</g>
<!-- Node102&#45;&gt;Node2 -->
<g id="edge74" class="edge"><title>Node102&#45;&gt;Node2</title>
<path fill="none" stroke="midnightblue" d="M2870.06,-302.458C2831.04,-298.498 2783.29,-294.013 2740.38,-291 2392.73,-266.583 1976.31,-252.857 1810.6,-248.016"/>
<polygon fill="midnightblue" stroke="midnightblue" points="1810.62,-244.515 1800.52,-247.724 1810.42,-251.512 1810.62,-244.515"/>
</g>
<!-- Node109&#45;&gt;Node1 -->
<g id="edge76" class="edge"><title>Node109&#45;&gt;Node1</title>
<path fill="none" stroke="midnightblue" d="M2245.5,-375.462C2353.32,-365.123 2524.87,-346.851 2551.38,-333 2573.69,-321.344 2567.58,-303.592 2589.38,-291 2655.13,-253.021 2683.71,-277.001 2756.38,-255 2853.17,-225.696 2967.97,-207.031 2933.38,-112 2922.27,-81.4671 2915.65,-70.101 2886.38,-56 2805.29,-16.9407 1400.4,-11.711 1143.53,-11.0804"/>
<polygon fill="midnightblue" stroke="midnightblue" points="1143.19,-7.5797 1133.18,-11.056 1143.17,-14.5797 1143.19,-7.5797"/>
</g>
<!-- Node109&#45;&gt;Node2 -->
<g id="edge78" class="edge"><title>Node109&#45;&gt;Node2</title>
<path fill="none" stroke="midnightblue" d="M2147.68,-374.916C2126.03,-356.268 2071.4,-312.051 2017.38,-291 1950.3,-264.859 1868.5,-253.899 1810.68,-249.307"/>
<polygon fill="midnightblue" stroke="midnightblue" points="1810.77,-245.803 1800.54,-248.546 1810.25,-252.784 1810.77,-245.803"/>
</g>
<!-- Node109&#45;&gt;Node44 -->
<g id="edge79" class="edge"><title>Node109&#45;&gt;Node44</title>
<path fill="none" stroke="midnightblue" d="M2245.77,-376.279C2332.45,-368.439 2468.16,-354.137 2584.38,-333 2597.65,-330.587 2611.98,-327.283 2624.85,-324.056"/>
<polygon fill="midnightblue" stroke="midnightblue" points="2625.99,-327.378 2634.8,-321.503 2624.25,-320.597 2625.99,-327.378"/>
</g>
<!-- Node110 -->
<g id="node38" class="node"><title>Node110</title>
<polygon fill="white" stroke="#bfbfbf" points="1899.38,-302.5 1899.38,-321.5 1937.38,-321.5 1937.38,-302.5 1899.38,-302.5"/>
<text text-anchor="middle" x="1918.38" y="-309.5" font-family="FreeSans" font-size="10.00">map</text>
</g>
<!-- Node109&#45;&gt;Node110 -->
<g id="edge77" class="edge"><title>Node109&#45;&gt;Node110</title>
<path fill="none" stroke="midnightblue" d="M2128.55,-374.996C2082.61,-361.445 1993.31,-335.101 1947.31,-321.532"/>
<polygon fill="midnightblue" stroke="midnightblue" points="1948.23,-318.156 1937.65,-318.684 1946.25,-324.87 1948.23,-318.156"/>
</g>
<!-- Node112&#45;&gt;Node1 -->
<g id="edge81" class="edge"><title>Node112&#45;&gt;Node1</title>
<path fill="none" stroke="midnightblue" d="M1463.78,-375.454C1349.62,-361.432 1126.28,-333.915 1124.38,-333 1100.31,-321.408 1101.75,-308.284 1081.38,-291 1033.69,-250.531 989.38,-247.049 989.38,-184.5 989.38,-184.5 989.38,-184.5 989.38,-121 989.38,-74.1149 1039.93,-40.8944 1073.71,-23.9302"/>
<polygon fill="midnightblue" stroke="midnightblue" points="1075.25,-27.0742 1082.74,-19.5787 1072.21,-20.7687 1075.25,-27.0742"/>
</g>
<!-- Node112&#45;&gt;Node2 -->
<g id="edge84" class="edge"><title>Node112&#45;&gt;Node2</title>
<path fill="none" stroke="midnightblue" d="M1543.74,-374.917C1559.25,-365.405 1584.41,-349.25 1604.38,-333 1625.1,-316.137 1625.62,-306.493 1647.38,-291 1665.63,-278.007 1688.18,-266.738 1706.15,-258.727"/>
<polygon fill="midnightblue" stroke="midnightblue" points="1707.82,-261.816 1715.6,-254.622 1705.03,-255.396 1707.82,-261.816"/>
</g>
<!-- Node112&#45;&gt;Node15 -->
<g id="edge82" class="edge"><title>Node112&#45;&gt;Node15</title>
<path fill="none" stroke="midnightblue" d="M1463.62,-375.341C1446.31,-373.233 1427.64,-370.996 1410.38,-369 1337.32,-360.552 1145.94,-368.237 1081.38,-333 1060.3,-321.494 1068.56,-302.326 1047.38,-291 654.588,-80.934 428.802,-432.352 49.3804,-199 12.8071,-176.507 -13.3497,-149.601 7.38039,-112 34.6054,-62.6186 97.2605,-34.0493 135.589,-20.5847"/>
<polygon fill="midnightblue" stroke="midnightblue" points="136.881,-23.843 145.239,-17.3328 134.645,-17.2095 136.881,-23.843"/>
</g>
<!-- Node112&#45;&gt;Node89 -->
<g id="edge88" class="edge"><title>Node112&#45;&gt;Node89</title>
<path fill="none" stroke="midnightblue" d="M1484.47,-374.971C1422.42,-363.124 1313.67,-342.119 1274.38,-333 1269.7,-331.915 1264.88,-330.744 1260.03,-329.533"/>
<polygon fill="midnightblue" stroke="midnightblue" points="1260.66,-326.08 1250.1,-327.004 1258.93,-332.864 1260.66,-326.08"/>
</g>
<!-- Node112&#45;&gt;Node110 -->
<g id="edge83" class="edge"><title>Node112&#45;&gt;Node110</title>
<path fill="none" stroke="midnightblue" d="M1576.3,-374.996C1657.63,-360.257 1822.47,-330.382 1889.28,-318.274"/>
<polygon fill="midnightblue" stroke="midnightblue" points="1889.92,-321.716 1899.13,-316.489 1888.67,-314.828 1889.92,-321.716"/>
</g>
<!-- Node74 -->
<g id="node40" class="node"><title>Node74</title>
<g id="a_node40"><a xlink:href="CountedPtr_8h_source.html" target="_top" xlink:title="DGtal/base/CountedPtr.h">
<polygon fill="white" stroke="red" points="903.88,-302.5 903.88,-321.5 1038.88,-321.5 1038.88,-302.5 903.88,-302.5"/>
<text text-anchor="middle" x="971.38" y="-309.5" font-family="FreeSans" font-size="10.00">DGtal/base/CountedPtr.h</text>
</a>
</g>
</g>
<!-- Node112&#45;&gt;Node74 -->
<g id="edge85" class="edge"><title>Node112&#45;&gt;Node74</title>
<path fill="none" stroke="midnightblue" d="M1486.31,-374.971C1474.38,-372.806 1461.41,-370.634 1449.38,-369 1274.26,-345.218 1227.71,-362.018 1053.38,-333 1039.67,-330.718 1024.87,-327.383 1011.66,-324.087"/>
<polygon fill="midnightblue" stroke="midnightblue" points="1012.47,-320.682 1001.92,-321.593 1010.74,-327.464 1012.47,-320.682"/>
</g>
<!-- Node74&#45;&gt;Node1 -->
<g id="edge86" class="edge"><title>Node74&#45;&gt;Node1</title>
<path fill="none" stroke="midnightblue" d="M969.086,-302.484C963.833,-282.209 951.38,-229.414 951.38,-184.5 951.38,-184.5 951.38,-184.5 951.38,-121 951.38,-90.2048 953.435,-77.6046 975.38,-56 999.151,-32.5983 1035.79,-21.317 1063.79,-15.9076"/>
<polygon fill="midnightblue" stroke="midnightblue" points="1064.43,-19.3486 1073.67,-14.1688 1063.22,-12.4545 1064.43,-19.3486"/>
</g>
<!-- Node74&#45;&gt;Node2 -->
<g id="edge87" class="edge"><title>Node74&#45;&gt;Node2</title>
<path fill="none" stroke="midnightblue" d="M1030.5,-302.477C1058.86,-298.593 1093.33,-294.166 1124.38,-291 1318.89,-271.164 1548.97,-256.671 1664.08,-250.034"/>
<polygon fill="midnightblue" stroke="midnightblue" points="1664.4,-253.521 1674.18,-249.454 1664,-246.533 1664.4,-253.521"/>
</g>
<!-- Node121&#45;&gt;Node1 -->
<g id="edge90" class="edge"><title>Node121&#45;&gt;Node1</title>
<path fill="none" stroke="midnightblue" d="M2491.3,-436.494C2566.21,-418.447 2693.93,-383.298 2795.38,-333 2824.54,-318.541 2825.52,-303.966 2855.38,-291 2926.22,-260.236 2954.52,-285.717 3025.38,-255 3075.61,-233.227 3126.38,-239.243 3126.38,-184.5 3126.38,-184.5 3126.38,-184.5 3126.38,-121 3126.38,-76.2146 3091.26,-71.865 3049.38,-56 2957.09,-21.0397 1412.5,-12.411 1143.25,-11.1699"/>
<polygon fill="midnightblue" stroke="midnightblue" points="1143.16,-7.66962 1133.15,-11.1241 1143.13,-14.6695 1143.16,-7.66962"/>
</g>
<!-- Node121&#45;&gt;Node2 -->
<g id="edge92" class="edge"><title>Node121&#45;&gt;Node2</title>
<path fill="none" stroke="midnightblue" d="M2399.29,-436.451C2364.87,-419.924 2305.74,-391.844 2254.38,-369 2172.85,-332.735 2155.45,-314.531 2069.38,-291 1982.26,-267.182 1878.68,-255.702 1810.66,-250.355"/>
<polygon fill="midnightblue" stroke="midnightblue" points="1810.71,-246.849 1800.47,-249.58 1810.18,-253.829 1810.71,-246.849"/>
</g>
<!-- Node121&#45;&gt;Node44 -->
<g id="edge93" class="edge"><title>Node121&#45;&gt;Node44</title>
<path fill="none" stroke="midnightblue" d="M2445.14,-436.311C2469.47,-415.881 2513.6,-379.479 2531.38,-369 2562.91,-350.413 2601.77,-334.898 2629.51,-324.949"/>
<polygon fill="midnightblue" stroke="midnightblue" points="2630.92,-328.162 2639.19,-321.539 2628.6,-321.559 2630.92,-328.162"/>
</g>
<!-- Node121&#45;&gt;Node110 -->
<g id="edge91" class="edge"><title>Node121&#45;&gt;Node110</title>
<path fill="none" stroke="midnightblue" d="M2358.55,-449.404C2282.99,-446.292 2159.98,-435.572 2060.38,-400 2012.4,-382.864 1963.19,-348.094 1937.18,-328.088"/>
<polygon fill="midnightblue" stroke="midnightblue" points="1939.02,-325.084 1928.98,-321.681 1934.7,-330.598 1939.02,-325.084"/>
</g>
<!-- Node121&#45;&gt;Node122 -->
<g id="edge94" class="edge"><title>Node121&#45;&gt;Node122</title>
<path fill="none" stroke="midnightblue" d="M2424.26,-436.396C2421.94,-428.474 2418.99,-418.379 2416.33,-409.271"/>
<polygon fill="midnightblue" stroke="midnightblue" points="2419.66,-408.193 2413.5,-399.577 2412.94,-410.157 2419.66,-408.193"/>
</g>
<!-- Node122&#45;&gt;Node1 -->
<g id="edge95" class="edge"><title>Node122&#45;&gt;Node1</title>
<path fill="none" stroke="midnightblue" d="M2479.01,-379.4C2547.05,-373.887 2652.84,-361.271 2740.38,-333 2779.35,-320.416 2783.94,-305.098 2822.38,-291 2888.37,-266.799 2911.52,-282.095 2976.38,-255 3030.65,-232.327 3088.38,-243.318 3088.38,-184.5 3088.38,-184.5 3088.38,-184.5 3088.38,-121 3088.38,-75.8741 3052.63,-71.8614 3010.38,-56 2919.93,-22.0408 1409.38,-12.5992 1143.26,-11.1964"/>
<polygon fill="midnightblue" stroke="midnightblue" points="1142.94,-7.69473 1132.92,-11.1426 1142.9,-14.6946 1142.94,-7.69473"/>
</g>
<!-- Node122&#45;&gt;Node2 -->
<g id="edge97" class="edge"><title>Node122&#45;&gt;Node2</title>
<path fill="none" stroke="midnightblue" d="M2388.25,-369.475C2374.03,-359.748 2355.09,-346.215 2339.38,-333 2318.94,-315.804 2320.7,-302.063 2296.38,-291 2211.82,-252.528 1942.71,-246.407 1811.17,-245.784"/>
<polygon fill="midnightblue" stroke="midnightblue" points="1810.81,-242.283 1800.79,-245.745 1810.78,-249.283 1810.81,-242.283"/>
</g>
<!-- Node122&#45;&gt;Node44 -->
<g id="edge98" class="edge"><title>Node122&#45;&gt;Node44</title>
<path fill="none" stroke="midnightblue" d="M2460.26,-369.487C2508.42,-356.225 2579.8,-336.568 2624.4,-324.285"/>
<polygon fill="midnightblue" stroke="midnightblue" points="2625.6,-327.584 2634.32,-321.555 2623.75,-320.836 2625.6,-327.584"/>
</g>
<!-- Node122&#45;&gt;Node110 -->
<g id="edge96" class="edge"><title>Node122&#45;&gt;Node110</title>
<path fill="none" stroke="midnightblue" d="M2339.81,-373.511C2230.88,-357.871 2024.6,-328.252 1948,-317.252"/>
<polygon fill="midnightblue" stroke="midnightblue" points="1948.06,-313.725 1937.66,-315.768 1947.06,-320.654 1948.06,-313.725"/>
</g>
<!-- Node125&#45;&gt;Node1 -->
<g id="edge101" class="edge"><title>Node125&#45;&gt;Node1</title>
<path fill="none" stroke="midnightblue" d="M2769.5,-503.386C2850.96,-459.014 3098.72,-321.355 3161.38,-255 3186.27,-228.646 3202.38,-220.747 3202.38,-184.5 3202.38,-184.5 3202.38,-184.5 3202.38,-121 3202.38,-87.3101 3192.51,-72.9182 3163.38,-56 3118.02,-29.6595 1425.69,-13.8042 1143.18,-11.3384"/>
<polygon fill="midnightblue" stroke="midnightblue" points="1143.02,-7.83691 1132.99,-11.2499 1142.96,-14.8367 1143.02,-7.83691"/>
</g>
<!-- Node125&#45;&gt;Node2 -->
<g id="edge103" class="edge"><title>Node125&#45;&gt;Node2</title>
<path fill="none" stroke="midnightblue" d="M2679.16,-512.951C2529.43,-501.329 2162.17,-466.655 2060.38,-400 2009.89,-366.935 2030.59,-322.947 1979.38,-291 1951.73,-273.752 1871.14,-261.084 1810.5,-253.66"/>
<polygon fill="midnightblue" stroke="midnightblue" points="1810.91,-250.185 1800.57,-252.469 1810.08,-257.135 1810.91,-250.185"/>
</g>
<!-- Node125&#45;&gt;Node32 -->
<g id="edge104" class="edge"><title>Node125&#45;&gt;Node32</title>
<path fill="none" stroke="midnightblue" d="M2753.73,-503.27C2769.66,-479.911 2798.38,-431.429 2798.38,-385.5 2798.38,-385.5 2798.38,-385.5 2798.38,-311 2798.38,-270.49 2779.5,-225.935 2767.68,-202.014"/>
<polygon fill="midnightblue" stroke="midnightblue" points="2770.79,-200.409 2763.13,-193.097 2764.56,-203.594 2770.79,-200.409"/>
</g>
<!-- Node125&#45;&gt;Node121 -->
<g id="edge105" class="edge"><title>Node125&#45;&gt;Node121</title>
<path fill="none" stroke="midnightblue" d="M2679.26,-504.268C2629.23,-493.946 2559.54,-479.566 2506.31,-468.58"/>
<polygon fill="midnightblue" stroke="midnightblue" points="2506.73,-465.093 2496.23,-466.5 2505.31,-471.949 2506.73,-465.093"/>
</g>
<!-- Node59 -->
<g id="node44" class="node"><title>Node59</title>
<polygon fill="white" stroke="#bfbfbf" points="3166.88,-442 3166.88,-461 3213.88,-461 3213.88,-442 3166.88,-442"/>
<text text-anchor="middle" x="3190.38" y="-449" font-family="FreeSans" font-size="10.00">vector</text>
</g>
<!-- Node125&#45;&gt;Node59 -->
<g id="edge102" class="edge"><title>Node125&#45;&gt;Node59</title>
<path fill="none" stroke="midnightblue" d="M2807.42,-508.187C2903.6,-494.202 3081.98,-468.263 3156.4,-457.442"/>
<polygon fill="midnightblue" stroke="midnightblue" points="3157.21,-460.861 3166.6,-455.958 3156.2,-453.934 3157.21,-460.861"/>
</g>
<!-- Node153&#45;&gt;Node1 -->
<g id="edge107" class="edge"><title>Node153&#45;&gt;Node1</title>
<path fill="none" stroke="midnightblue" d="M2542.57,-292.418C2649.05,-270.781 2811.76,-233.58 2864.38,-199 2902.22,-174.136 2936.25,-153.158 2917.38,-112 2901.49,-77.3368 2887.95,-69.7335 2852.38,-56 2770.06,-24.2185 1395.67,-13.0539 1143.09,-11.2663"/>
<polygon fill="midnightblue" stroke="midnightblue" points="1142.94,-7.76518 1132.91,-11.195 1142.89,-14.765 1142.94,-7.76518"/>
</g>
<!-- Node153&#45;&gt;Node2 -->
<g id="edge109" class="edge"><title>Node153&#45;&gt;Node2</title>
<path fill="none" stroke="midnightblue" d="M2348.31,-292.914C2343.61,-292.225 2338.95,-291.582 2334.38,-291 2146.66,-267.078 1923.99,-254.421 1811.03,-249.106"/>
<polygon fill="midnightblue" stroke="midnightblue" points="1810.93,-245.598 1800.78,-248.63 1810.6,-252.59 1810.93,-245.598"/>
</g>
<!-- Node153&#45;&gt;Node12 -->
<g id="edge108" class="edge"><title>Node153&#45;&gt;Node12</title>
<path fill="none" stroke="midnightblue" d="M2493.53,-291.454C2534.69,-272.763 2593.28,-241.189 2632.38,-199 2647.84,-182.314 2658.47,-158.151 2664.47,-141.575"/>
<polygon fill="midnightblue" stroke="midnightblue" points="2667.84,-142.527 2667.75,-131.933 2661.22,-140.272 2667.84,-142.527"/>
</g>
<!-- Node158&#45;&gt;Node1 -->
<g id="edge111" class="edge"><title>Node158&#45;&gt;Node1</title>
<path fill="none" stroke="midnightblue" d="M1282.98,-292.535C1192.85,-270.909 1065.38,-231.937 1065.38,-184.5 1065.38,-184.5 1065.38,-184.5 1065.38,-121 1065.38,-86.8131 1081.98,-49.7639 1093.24,-28.5707"/>
<polygon fill="midnightblue" stroke="midnightblue" points="1096.33,-30.2151 1098.1,-19.769 1090.2,-26.832 1096.33,-30.2151"/>
</g>
<!-- Node158&#45;&gt;Node2 -->
<g id="edge113" class="edge"><title>Node158&#45;&gt;Node2</title>
<path fill="none" stroke="midnightblue" d="M1457.47,-292.694C1460.48,-292.114 1463.45,-291.548 1466.38,-291 1536.44,-277.891 1617.06,-264.751 1672.03,-256.085"/>
<polygon fill="midnightblue" stroke="midnightblue" points="1672.65,-259.53 1681.99,-254.519 1671.57,-252.615 1672.65,-259.53"/>
</g>
<!-- Node158&#45;&gt;Node12 -->
<g id="edge112" class="edge"><title>Node158&#45;&gt;Node12</title>
<path fill="none" stroke="midnightblue" d="M1364,-291.048C1355.45,-259.936 1344.81,-200.111 1377.38,-168 1423.52,-122.512 2437.03,-122.466 2636.48,-122.899"/>
<polygon fill="midnightblue" stroke="midnightblue" points="2636.65,-126.4 2646.65,-122.924 2636.66,-119.4 2636.65,-126.4"/>
</g>
<!-- Node160&#45;&gt;Node1 -->
<g id="edge115" class="edge"><title>Node160&#45;&gt;Node1</title>
<path fill="none" stroke="midnightblue" d="M1602.83,-758.289C1480.05,-757.688 1237.35,-751.475 1162.38,-713 999.191,-629.246 1002.18,-547.678 893.38,-400 817.197,-296.589 804.463,-222.831 869.38,-112 885.24,-84.9231 886.024,-73.0305 912.38,-56 958.708,-26.0648 1022.83,-15.9949 1063.71,-12.6366"/>
<polygon fill="midnightblue" stroke="midnightblue" points="1064.11,-16.117 1073.84,-11.9035 1063.61,-9.13526 1064.11,-16.117"/>
</g>
<!-- Node160&#45;&gt;Node2 -->
<g id="edge119" class="edge"><title>Node160&#45;&gt;Node2</title>
<path fill="none" stroke="midnightblue" d="M1664.83,-749.356C1646.3,-733.41 1608.54,-697.291 1594.38,-657 1589.81,-644.002 1591.91,-639.555 1594.38,-626 1620.99,-479.714 1700.84,-316.505 1728.12,-263.58"/>
<polygon fill="midnightblue" stroke="midnightblue" points="1731.33,-264.989 1732.85,-254.503 1725.12,-261.757 1731.33,-264.989"/>
</g>
<!-- Node160&#45;&gt;Node4 -->
<g id="edge117" class="edge"><title>Node160&#45;&gt;Node4</title>
<path fill="none" stroke="midnightblue" d="M1747.98,-756.677C1975.82,-752.313 2674.9,-737.255 2900.38,-713 3103.12,-691.191 3316.38,-723.412 3316.38,-519.5 3316.38,-519.5 3316.38,-519.5 3316.38,-182.5 3316.38,-83.0033 2954.05,-69.0912 2829.69,-67.2465"/>
<polygon fill="midnightblue" stroke="midnightblue" points="2829.48,-63.7436 2819.44,-67.1141 2829.39,-70.743 2829.48,-63.7436"/>
</g>
<!-- Node160&#45;&gt;Node34 -->
<g id="edge137" class="edge"><title>Node160&#45;&gt;Node34</title>
<path fill="none" stroke="midnightblue" d="M1747.98,-756.677C1975.82,-752.313 2674.9,-737.255 2900.38,-713 3070.3,-694.722 3278.38,-813.397 3278.38,-642.5 3278.38,-642.5 3278.38,-642.5 3278.38,-244 3278.38,-169.876 3031.79,-138.166 2918.32,-127.497"/>
<polygon fill="midnightblue" stroke="midnightblue" points="2918.37,-123.987 2908.09,-126.559 2917.73,-130.958 2918.37,-123.987"/>
</g>
<!-- Node160&#45;&gt;Node110 -->
<g id="edge118" class="edge"><title>Node160&#45;&gt;Node110</title>
<path fill="none" stroke="midnightblue" d="M1730.52,-749.484C1776.1,-741.506 1836.33,-728.505 1855.38,-713 1882.36,-691.04 1889.38,-677.287 1889.38,-642.5 1889.38,-642.5 1889.38,-642.5 1889.38,-579 1889.38,-485.611 1907.26,-374.859 1914.94,-331.606"/>
<polygon fill="midnightblue" stroke="midnightblue" points="1918.4,-332.151 1916.74,-321.688 1911.51,-330.905 1918.4,-332.151"/>
</g>
<!-- Node160&#45;&gt;Node74 -->
<g id="edge120" class="edge"><title>Node160&#45;&gt;Node74</title>
<path fill="none" stroke="midnightblue" d="M1602.86,-755.914C1473.37,-751.536 1212.92,-739.518 1181.38,-713 1156.54,-692.114 1162.38,-674.951 1162.38,-642.5 1162.38,-642.5 1162.38,-642.5 1162.38,-450.5 1162.38,-379.386 1074.09,-341.412 1017.57,-324.388"/>
<polygon fill="midnightblue" stroke="midnightblue" points="1018.33,-320.966 1007.76,-321.545 1016.39,-327.689 1018.33,-320.966"/>
</g>
<!-- Node160&#45;&gt;Node59 -->
<g id="edge116" class="edge"><title>Node160&#45;&gt;Node59</title>
<path fill="none" stroke="midnightblue" d="M1748,-756.358C2051.47,-749.028 3202.38,-716.36 3202.38,-642.5 3202.38,-642.5 3202.38,-642.5 3202.38,-579 3202.38,-540.53 3196.81,-495.773 3193.26,-471.145"/>
<polygon fill="midnightblue" stroke="midnightblue" points="3196.69,-470.437 3191.76,-461.063 3189.77,-471.47 3196.69,-470.437"/>
</g>
<!-- Node161 -->
<g id="node48" class="node"><title>Node161</title>
<g id="a_node48"><a xlink:href="Display3D_8h_source.html" target="_top" xlink:title="DGtal/io/Display3D.h">
<polygon fill="white" stroke="red" points="1731.88,-693.5 1731.88,-712.5 1846.88,-712.5 1846.88,-693.5 1731.88,-693.5"/>
<text text-anchor="middle" x="1789.38" y="-700.5" font-family="FreeSans" font-size="10.00">DGtal/io/Display3D.h</text>
</a>
</g>
</g>
<!-- Node160&#45;&gt;Node161 -->
<g id="edge121" class="edge"><title>Node160&#45;&gt;Node161</title>
<path fill="none" stroke="midnightblue" d="M1693.44,-749.444C1711.96,-740.675 1740.96,-726.935 1762.24,-716.858"/>
<polygon fill="midnightblue" stroke="midnightblue" points="1763.86,-719.96 1771.4,-712.516 1760.87,-713.634 1763.86,-719.96"/>
</g>
<!-- Node176 -->
<g id="node49" class="node"><title>Node176</title>
<g id="a_node49"><a xlink:href="DrawWithDisplay3DModifier_8h_source.html" target="_top" xlink:title="DGtal/io/DrawWithDisplay3\lDModifier.h">
<polygon fill="white" stroke="red" points="1603.88,-626.5 1603.88,-656.5 1746.88,-656.5 1746.88,-626.5 1603.88,-626.5"/>
<text text-anchor="start" x="1611.88" y="-644.5" font-family="FreeSans" font-size="10.00">DGtal/io/DrawWithDisplay3</text>
<text text-anchor="middle" x="1675.38" y="-633.5" font-family="FreeSans" font-size="10.00">DModifier.h</text>
</a>
</g>
</g>
<!-- Node160&#45;&gt;Node176 -->
<g id="edge136" class="edge"><title>Node160&#45;&gt;Node176</title>
<path fill="none" stroke="midnightblue" d="M1675.38,-749.319C1675.38,-731.967 1675.38,-692.457 1675.38,-666.658"/>
<polygon fill="midnightblue" stroke="midnightblue" points="1678.88,-666.545 1675.38,-656.545 1671.88,-666.545 1678.88,-666.545"/>
</g>
<!-- Node179 -->
<g id="node50" class="node"><title>Node179</title>
<g id="a_node50"><a xlink:href="Board3D_8ih_source.html" target="_top" xlink:title="DGtal/io/boards/Board3D.ih">
<polygon fill="white" stroke="black" points="1190.88,-693.5 1190.88,-712.5 1337.88,-712.5 1337.88,-693.5 1190.88,-693.5"/>
<text text-anchor="middle" x="1264.38" y="-700.5" font-family="FreeSans" font-size="10.00">DGtal/io/boards/Board3D.ih</text>
</a>
</g>
</g>
<!-- Node160&#45;&gt;Node179 -->
<g id="edge138" class="edge"><title>Node160&#45;&gt;Node179</title>
<path fill="none" stroke="midnightblue" d="M1610.26,-749.444C1536.6,-739.767 1416.87,-724.035 1339.37,-713.853"/>
<polygon fill="midnightblue" stroke="midnightblue" points="1339.57,-710.349 1329.2,-712.516 1338.66,-717.289 1339.57,-710.349"/>
</g>
<!-- Node161&#45;&gt;Node1 -->
<g id="edge122" class="edge"><title>Node161&#45;&gt;Node1</title>
<path fill="none" stroke="midnightblue" d="M1731.54,-698.079C1637.14,-691.239 1454.29,-676.023 1392.38,-657 1335.67,-639.576 966.693,-441.582 924.38,-400 815.257,-292.76 819.687,-153.758 937.38,-56 973.129,-26.3065 1026.77,-16.0852 1063.33,-12.6347"/>
<polygon fill="midnightblue" stroke="midnightblue" points="1063.94,-16.0967 1073.62,-11.7985 1063.37,-9.11967 1063.94,-16.0967"/>
</g>
<!-- Node161&#45;&gt;Node2 -->
<g id="edge126" class="edge"><title>Node161&#45;&gt;Node2</title>
<path fill="none" stroke="midnightblue" d="M1787.66,-693.235C1783.93,-673.356 1775.38,-623.294 1775.38,-581 1775.38,-581 1775.38,-581 1775.38,-383.5 1775.38,-339.312 1756.92,-289.929 1745.74,-264.056"/>
<polygon fill="midnightblue" stroke="midnightblue" points="1748.86,-262.48 1741.59,-254.776 1742.47,-265.334 1748.86,-262.48"/>
</g>
<!-- Node161&#45;&gt;Node4 -->
<g id="edge124" class="edge"><title>Node161&#45;&gt;Node4</title>
<path fill="none" stroke="midnightblue" d="M1846.97,-699.59C2095.34,-688.821 3062.38,-642.918 3062.38,-581 3062.38,-581 3062.38,-581 3062.38,-383.5 3062.38,-341.531 3066.74,-325.868 3043.38,-291 3008.18,-238.463 2844.69,-183.054 2807.38,-132 2797.52,-118.504 2792.75,-99.9476 2790.46,-86.116"/>
<polygon fill="midnightblue" stroke="midnightblue" points="2793.87,-85.2612 2789.06,-75.8233 2786.94,-86.2034 2793.87,-85.2612"/>
</g>
<!-- Node161&#45;&gt;Node34 -->
<g id="edge128" class="edge"><title>Node161&#45;&gt;Node34</title>
<path fill="none" stroke="midnightblue" d="M1847.1,-702.187C2091.81,-702.701 3033.16,-701.756 3076.38,-657 3189.38,-539.985 3147.52,-437.287 3076.38,-291 3037.75,-211.554 2941.34,-158.521 2892.2,-135.712"/>
<polygon fill="midnightblue" stroke="midnightblue" points="2893.58,-132.497 2883.03,-131.554 2890.69,-138.872 2893.58,-132.497"/>
</g>
<!-- Node161&#45;&gt;Node43 -->
<g id="edge129" class="edge"><title>Node161&#45;&gt;Node43</title>
<path fill="none" stroke="midnightblue" d="M1805.76,-693.492C1845.69,-672.757 1948.27,-619.488 1996.54,-594.421"/>
<polygon fill="midnightblue" stroke="midnightblue" points="1998.44,-597.376 2005.7,-589.661 1995.21,-591.164 1998.44,-597.376"/>
</g>
<!-- Node161&#45;&gt;Node110 -->
<g id="edge125" class="edge"><title>Node161&#45;&gt;Node110</title>
<path fill="none" stroke="midnightblue" d="M1797.49,-693.378C1814.29,-674.56 1851.38,-627.736 1851.38,-581 1851.38,-581 1851.38,-581 1851.38,-517.5 1851.38,-445.072 1889.8,-365.066 1908.45,-330.494"/>
<polygon fill="midnightblue" stroke="midnightblue" points="1911.58,-332.082 1913.34,-321.635 1905.45,-328.699 1911.58,-332.082"/>
</g>
<!-- Node161&#45;&gt;Node74 -->
<g id="edge127" class="edge"><title>Node161&#45;&gt;Node74</title>
<path fill="none" stroke="midnightblue" d="M1731.83,-697.892C1614.66,-687.941 1359.38,-657.486 1359.38,-581 1359.38,-581 1359.38,-581 1359.38,-450.5 1359.38,-414.406 1117.75,-349.65 1015.85,-323.947"/>
<polygon fill="midnightblue" stroke="midnightblue" points="1016.71,-320.552 1006.15,-321.512 1015,-327.341 1016.71,-320.552"/>
</g>
<!-- Node161&#45;&gt;Node59 -->
<g id="edge123" class="edge"><title>Node161&#45;&gt;Node59</title>
<path fill="none" stroke="midnightblue" d="M1847.14,-702.007C2098.82,-701.791 3089.52,-698.312 3140.38,-657 3169.41,-633.421 3183.98,-516.845 3188.66,-471.033"/>
<polygon fill="midnightblue" stroke="midnightblue" points="3192.15,-471.303 3189.64,-461.01 3185.18,-470.623 3192.15,-471.303"/>
</g>
<!-- Node161&#45;&gt;Node176 -->
<g id="edge130" class="edge"><title>Node161&#45;&gt;Node176</title>
<path fill="none" stroke="midnightblue" d="M1773.05,-693.475C1756.96,-685.078 1731.85,-671.973 1711.12,-661.153"/>
<polygon fill="midnightblue" stroke="midnightblue" points="1712.73,-658.047 1702.25,-656.523 1709.49,-664.253 1712.73,-658.047"/>
</g>
<!-- Node176&#45;&gt;Node1 -->
<g id="edge131" class="edge"><title>Node176&#45;&gt;Node1</title>
<path fill="none" stroke="midnightblue" d="M1603.78,-628.236C1559.52,-619.69 1501.91,-606.806 1452.38,-590 1323.1,-546.129 968.004,-447.966 894.38,-333 860.389,-279.921 910.46,-100.215 955.38,-56 984.222,-27.6111 1030.39,-17.0515 1063.49,-13.1678"/>
<polygon fill="midnightblue" stroke="midnightblue" points="1064.15,-16.6194 1073.74,-12.1273 1063.44,-9.65519 1064.15,-16.6194"/>
</g>
<!-- Node176&#45;&gt;Node2 -->
<g id="edge132" class="edge"><title>Node176&#45;&gt;Node2</title>
<path fill="none" stroke="midnightblue" d="M1688.23,-626.43C1706.39,-605.02 1737.38,-562.223 1737.38,-519.5 1737.38,-519.5 1737.38,-519.5 1737.38,-383.5 1737.38,-341.08 1737.38,-291.298 1737.38,-264.814"/>
<polygon fill="midnightblue" stroke="midnightblue" points="1740.88,-264.687 1737.38,-254.687 1733.88,-264.687 1740.88,-264.687"/>
</g>
<!-- Node176&#45;&gt;Node43 -->
<g id="edge133" class="edge"><title>Node176&#45;&gt;Node43</title>
<path fill="none" stroke="midnightblue" d="M1747.28,-628.172C1810.99,-617.247 1902.92,-601.484 1962.66,-591.241"/>
<polygon fill="midnightblue" stroke="midnightblue" points="1963.43,-594.66 1972.69,-589.52 1962.24,-587.761 1963.43,-594.66"/>
</g>
<!-- Node176&#45;&gt;Node74 -->
<g id="edge134" class="edge"><title>Node176&#45;&gt;Node74</title>
<path fill="none" stroke="midnightblue" d="M1603.7,-634.358C1532.98,-623.904 1435.38,-595.677 1435.38,-519.5 1435.38,-519.5 1435.38,-519.5 1435.38,-450.5 1435.38,-404.988 1412.96,-391.466 1373.38,-369 1311.15,-333.677 1123.84,-345.504 1053.38,-333 1039.95,-330.616 1025.44,-327.321 1012.41,-324.092"/>
<polygon fill="midnightblue" stroke="midnightblue" points="1012.89,-320.602 1002.33,-321.536 1011.17,-327.387 1012.89,-320.602"/>
</g>
<!-- Node176&#45;&gt;Node121 -->
<g id="edge135" class="edge"><title>Node176&#45;&gt;Node121</title>
<path fill="none" stroke="midnightblue" d="M1746.89,-637.661C1904.99,-630.137 2278.19,-605.137 2379.38,-534 2399.44,-519.9 2412.71,-494.734 2420.33,-476.085"/>
<polygon fill="midnightblue" stroke="midnightblue" points="2423.69,-477.097 2423.98,-466.507 2417.15,-474.602 2423.69,-477.097"/>
</g>
</g>
</svg>
