<?xml version="1.0" encoding="UTF-8" standalone="no"?>
<!DOCTYPE svg PUBLIC "-//W3C//DTD SVG 1.1//EN"
 "http://www.w3.org/Graphics/SVG/1.1/DTD/svg11.dtd">
<!-- Generated by graphviz version 2.36.0 (20140111.2315)
 -->
<!-- Title: testIndexedDigitalSurface.cpp Pages: 1 -->
<!--zoomable 782 -->
<svg id="main" version="1.1" xmlns="http://www.w3.org/2000/svg" xmlns:xlink="http://www.w3.org/1999/xlink" xml:space="preserve" onload="init(evt)">
<style type="text/css"><![CDATA[
.edge:hover path { stroke: red; }
.edge:hover polygon { stroke: red; fill: red; }
]]></style>
<script type="text/javascript"><![CDATA[
var edges = document.getElementsByTagName('g');
if (edges && edges.length) {
  for (var i=0;i<edges.length;i++) {
    if (edges[i].id.substr(0,4)=='edge') {
      edges[i].setAttribute('class','edge');
    }
  }
}
]]></script>
        <defs>
                <circle id="rim" cx="0" cy="0" r="7"/>
                <circle id="rim2" cx="0" cy="0" r="3.5"/>
                <g id="zoomPlus">
                        <use xlink:href="#rim" fill="#404040">
                                <set attributeName="fill" to="#808080" begin="zoomplus.mouseover" end="zoomplus.mouseout"/>
                        </use>
                        <path d="M-4,0h8M0,-4v8" fill="none" stroke="white" stroke-width="1.5" pointer-events="none"/>
                </g>
                <g id="zoomMin">
                        <use xlink:href="#rim" fill="#404040">
                                <set attributeName="fill" to="#808080" begin="zoomminus.mouseover" end="zoomminus.mouseout"/>
                        </use>
                        <path d="M-4,0h8" fill="none" stroke="white" stroke-width="1.5" pointer-events="none"/>
                </g>
                <g id="dirArrow">
                        <path fill="none" stroke="white" stroke-width="1.5" d="M0,-3.0v7 M-2.5,-0.5L0,-3.0L2.5,-0.5"/>
                </g>
               <g id="resetDef">
                       <use xlink:href="#rim2" fill="#404040">
                               <set attributeName="fill" to="#808080" begin="reset.mouseover" end="reset.mouseout"/>
                       </use>
               </g>
        </defs>

<script type="text/javascript">
var viewWidth = 3171;
var viewHeight = 782;
var sectionId = 'dynsection-0';
</script>
<script xlink:href="svgpan.js"/>
<svg id="graph" class="graph">
<g id="viewport">
<title>testIndexedDigitalSurface.cpp</title>
<polygon fill="white" stroke="none" points="-4,4 -4,-778 3166.69,-778 3166.69,4 -4,4"/>
<!-- Node0 -->
<g id="node1" class="node"><title>Node0</title>
<polygon fill="#bfbfbf" stroke="black" points="1706.69,-754.5 1706.69,-773.5 1866.69,-773.5 1866.69,-754.5 1706.69,-754.5"/>
<text text-anchor="middle" x="1786.69" y="-761.5" font-family="FreeSans" font-size="10.00">testIndexedDigitalSurface.cpp</text>
</g>
<!-- Node1 -->
<g id="node2" class="node"><title>Node1</title>
<polygon fill="white" stroke="#bfbfbf" points="1493.19,-0.5 1493.19,-19.5 1552.19,-19.5 1552.19,-0.5 1493.19,-0.5"/>
<text text-anchor="middle" x="1522.69" y="-7.5" font-family="FreeSans" font-size="10.00">iostream</text>
</g>
<!-- Node0&#45;&gt;Node1 -->
<g id="edge1" class="edge"><title>Node0&#45;&gt;Node1</title>
<path fill="none" stroke="midnightblue" d="M1866.79,-763.181C2036.48,-762.731 2444.4,-757.242 2783.69,-718 2953.93,-698.31 3162.69,-818.375 3162.69,-647 3162.69,-647 3162.69,-647 3162.69,-121 3162.69,-68.7348 3114.5,-71.815 3064.69,-56 2917.85,-9.38194 1789.23,-10.2119 1562.34,-10.8571"/>
<polygon fill="midnightblue" stroke="midnightblue" points="1562.22,-7.35734 1552.23,-10.8875 1562.24,-14.3573 1562.22,-7.35734"/>
</g>
<!-- Node2 -->
<g id="node3" class="node"><title>Node2</title>
<polygon fill="white" stroke="#bfbfbf" points="423.688,-112.5 423.688,-131.5 485.688,-131.5 485.688,-112.5 423.688,-112.5"/>
<text text-anchor="middle" x="454.688" y="-119.5" font-family="FreeSans" font-size="10.00">algorithm</text>
</g>
<!-- Node0&#45;&gt;Node2 -->
<g id="edge2" class="edge"><title>Node0&#45;&gt;Node2</title>
<path fill="none" stroke="midnightblue" d="M1706.51,-761.693C1372.98,-755.739 112.688,-727.887 112.688,-647 112.688,-647 112.688,-647 112.688,-385 112.688,-342.813 106.321,-325.708 131.688,-292 203.325,-196.809 344.255,-150.232 413.839,-132.245"/>
<polygon fill="midnightblue" stroke="midnightblue" points="414.727,-135.63 423.571,-129.796 413.019,-128.842 414.727,-135.63"/>
</g>
<!-- Node3 -->
<g id="node4" class="node"><title>Node3</title>
<g id="a_node4"><a xlink:href="Common_8h_source.html" target="_top" xlink:title="DGtal/base/Common.h">
<polygon fill="white" stroke="black" points="1187.69,-236.5 1187.69,-255.5 1313.69,-255.5 1313.69,-236.5 1187.69,-236.5"/>
<text text-anchor="middle" x="1250.69" y="-243.5" font-family="FreeSans" font-size="10.00">DGtal/base/Common.h</text>
</a>
</g>
</g>
<!-- Node0&#45;&gt;Node3 -->
<g id="edge3" class="edge"><title>Node0&#45;&gt;Node3</title>
<path fill="none" stroke="midnightblue" d="M1706.6,-760.048C1424.04,-749.112 490.688,-708.346 490.688,-647 490.688,-647 490.688,-647 490.688,-447 490.688,-368.071 568.658,-386.395 627.688,-334 647.907,-316.054 647.002,-303.02 671.688,-292 760.184,-252.496 1042.28,-246.946 1177.3,-246.632"/>
<polygon fill="midnightblue" stroke="midnightblue" points="1177.55,-250.132 1187.55,-246.618 1177.54,-243.132 1177.55,-250.132"/>
</g>
<!-- Node42 -->
<g id="node26" class="node"><title>Node42</title>
<polygon fill="white" stroke="#bfbfbf" points="1539.69,-698.5 1539.69,-717.5 1613.69,-717.5 1613.69,-698.5 1539.69,-698.5"/>
<text text-anchor="middle" x="1576.69" y="-705.5" font-family="FreeSans" font-size="10.00">ConfigTest.h</text>
</g>
<!-- Node0&#45;&gt;Node42 -->
<g id="edge47" class="edge"><title>Node0&#45;&gt;Node42</title>
<path fill="none" stroke="midnightblue" d="M1753.41,-754.444C1717.24,-745.142 1659.31,-730.246 1619.71,-720.062"/>
<polygon fill="midnightblue" stroke="midnightblue" points="1620.36,-716.617 1609.81,-717.516 1618.62,-723.397 1620.36,-716.617"/>
</g>
<!-- Node43 -->
<g id="node27" class="node"><title>Node43</title>
<polygon fill="white" stroke="#bfbfbf" points="1631.69,-698.5 1631.69,-717.5 1711.69,-717.5 1711.69,-698.5 1631.69,-698.5"/>
<text text-anchor="middle" x="1671.69" y="-705.5" font-family="FreeSans" font-size="10.00">DGtalCatch.h</text>
</g>
<!-- Node0&#45;&gt;Node43 -->
<g id="edge48" class="edge"><title>Node0&#45;&gt;Node43</title>
<path fill="none" stroke="midnightblue" d="M1768.47,-754.444C1749.79,-745.675 1720.53,-731.935 1699.07,-721.858"/>
<polygon fill="midnightblue" stroke="midnightblue" points="1700.36,-718.599 1689.83,-717.516 1697.39,-724.935 1700.36,-718.599"/>
</g>
<!-- Node44 -->
<g id="node28" class="node"><title>Node44</title>
<g id="a_node28"><a xlink:href="StdDefs_8h_source.html" target="_top" xlink:title="DGtal/helpers/StdDefs.h">
<polygon fill="white" stroke="black" points="1767.69,-698.5 1767.69,-717.5 1899.69,-717.5 1899.69,-698.5 1767.69,-698.5"/>
<text text-anchor="middle" x="1833.69" y="-705.5" font-family="FreeSans" font-size="10.00">DGtal/helpers/StdDefs.h</text>
</a>
</g>
</g>
<!-- Node0&#45;&gt;Node44 -->
<g id="edge49" class="edge"><title>Node0&#45;&gt;Node44</title>
<path fill="none" stroke="midnightblue" d="M1794.45,-754.083C1801.23,-746.298 1811.23,-734.801 1819.44,-725.367"/>
<polygon fill="midnightblue" stroke="midnightblue" points="1822.15,-727.592 1826.07,-717.751 1816.87,-722.996 1822.15,-727.592"/>
</g>
<!-- Node57 -->
<g id="node30" class="node"><title>Node57</title>
<g id="a_node30"><a xlink:href="PointVector_8h_source.html" target="_top" xlink:title="DGtal/kernel/PointVector.h">
<polygon fill="white" stroke="red" points="788.688,-376.5 788.688,-395.5 930.688,-395.5 930.688,-376.5 788.688,-376.5"/>
<text text-anchor="middle" x="859.688" y="-383.5" font-family="FreeSans" font-size="10.00">DGtal/kernel/PointVector.h</text>
</a>
</g>
</g>
<!-- Node0&#45;&gt;Node57 -->
<g id="edge114" class="edge"><title>Node0&#45;&gt;Node57</title>
<path fill="none" stroke="midnightblue" d="M1706.5,-762.123C1517.15,-758.734 1048.3,-742.241 916.688,-662 823.437,-605.149 811.514,-562.475 779.688,-458 777.098,-449.497 775.414,-445.794 779.688,-438 789.378,-420.331 808.078,-407.902 824.962,-399.741"/>
<polygon fill="midnightblue" stroke="midnightblue" points="826.401,-402.931 834.087,-395.639 823.532,-396.547 826.401,-402.931"/>
</g>
<!-- Node160 -->
<g id="node46" class="node"><title>Node160</title>
<g id="a_node46"><a xlink:href="CUndirectedSimpleGraph_8h_source.html" target="_top" xlink:title="DGtal/graph/CUndirectedSimple\lGraph.h">
<polygon fill="white" stroke="red" points="2888.69,-298 2888.69,-328 3058.69,-328 3058.69,-298 2888.69,-298"/>
<text text-anchor="start" x="2896.69" y="-316" font-family="FreeSans" font-size="10.00">DGtal/graph/CUndirectedSimple</text>
<text text-anchor="middle" x="2973.69" y="-305" font-family="FreeSans" font-size="10.00">Graph.h</text>
</a>
</g>
</g>
<!-- Node0&#45;&gt;Node160 -->
<g id="edge115" class="edge"><title>Node0&#45;&gt;Node160</title>
<path fill="none" stroke="midnightblue" d="M1866.96,-760.778C2025.87,-755.904 2375.28,-742.689 2492.69,-718 2708.28,-672.665 2819.64,-703.83 2949.69,-526 2991.12,-469.341 2984.37,-380.396 2978.06,-338.012"/>
<polygon fill="midnightblue" stroke="midnightblue" points="2981.5,-337.37 2976.45,-328.054 2974.59,-338.483 2981.5,-337.37"/>
</g>
<!-- Node161 -->
<g id="node47" class="node"><title>Node161</title>
<g id="a_node47"><a xlink:href="BreadthFirstVisitor_8h_source.html" target="_top" xlink:title="DGtal/graph/BreadthFirst\lVisitor.h">
<polygon fill="white" stroke="red" points="2402.19,-371 2402.19,-401 2537.19,-401 2537.19,-371 2402.19,-371"/>
<text text-anchor="start" x="2410.19" y="-389" font-family="FreeSans" font-size="10.00">DGtal/graph/BreadthFirst</text>
<text text-anchor="middle" x="2469.69" y="-378" font-family="FreeSans" font-size="10.00">Visitor.h</text>
</a>
</g>
</g>
<!-- Node0&#45;&gt;Node161 -->
<g id="edge118" class="edge"><title>Node0&#45;&gt;Node161</title>
<path fill="none" stroke="midnightblue" d="M1866.69,-758.765C2058.3,-747.556 2527.69,-713.327 2527.69,-647 2527.69,-647 2527.69,-647 2527.69,-509 2527.69,-471.36 2504.89,-432.964 2487.88,-409.554"/>
<polygon fill="midnightblue" stroke="midnightblue" points="2490.52,-407.233 2481.71,-401.348 2484.92,-411.443 2490.52,-407.233"/>
</g>
<!-- Node170 -->
<g id="node48" class="node"><title>Node170</title>
<g id="a_node48"><a xlink:href="DigitalSetBoundary_8h_source.html" target="_top" xlink:title="DGtal/topology/DigitalSet\lBoundary.h">
<polygon fill="white" stroke="red" points="2594.19,-371 2594.19,-401 2731.19,-401 2731.19,-371 2594.19,-371"/>
<text text-anchor="start" x="2602.19" y="-389" font-family="FreeSans" font-size="10.00">DGtal/topology/DigitalSet</text>
<text text-anchor="middle" x="2662.69" y="-378" font-family="FreeSans" font-size="10.00">Boundary.h</text>
</a>
</g>
</g>
<!-- Node0&#45;&gt;Node170 -->
<g id="edge122" class="edge"><title>Node0&#45;&gt;Node170</title>
<path fill="none" stroke="midnightblue" d="M1867.04,-760.339C2078.22,-752.281 2632.69,-723.812 2632.69,-647 2632.69,-647 2632.69,-647 2632.69,-509 2632.69,-474.074 2644.43,-435.109 2653.22,-410.822"/>
<polygon fill="midnightblue" stroke="midnightblue" points="2656.53,-411.959 2656.76,-401.366 2649.97,-409.501 2656.53,-411.959"/>
</g>
<!-- Node177 -->
<g id="node49" class="node"><title>Node177</title>
<g id="a_node49"><a xlink:href="IndexedDigitalSurface_8h_source.html" target="_top" xlink:title="DGtal/topology/IndexedDigital\lSurface.h">
<polygon fill="white" stroke="red" points="2749.69,-371 2749.69,-401 2907.69,-401 2907.69,-371 2749.69,-371"/>
<text text-anchor="start" x="2757.69" y="-389" font-family="FreeSans" font-size="10.00">DGtal/topology/IndexedDigital</text>
<text text-anchor="middle" x="2828.69" y="-378" font-family="FreeSans" font-size="10.00">Surface.h</text>
</a>
</g>
</g>
<!-- Node0&#45;&gt;Node177 -->
<g id="edge126" class="edge"><title>Node0&#45;&gt;Node177</title>
<path fill="none" stroke="midnightblue" d="M1867.04,-763.034C2122.24,-762.09 2897.69,-750.692 2897.69,-647 2897.69,-647 2897.69,-647 2897.69,-509 2897.69,-469.819 2870.39,-431.662 2850.14,-408.741"/>
<polygon fill="midnightblue" stroke="midnightblue" points="2852.65,-406.308 2843.32,-401.292 2847.49,-411.033 2852.65,-406.308"/>
</g>
<!-- Node186 -->
<g id="node50" class="node"><title>Node186</title>
<g id="a_node50"><a xlink:href="DGtal_2shapes_2Shapes_8h_source.html" target="_top" xlink:title="DGtal/shapes/Shapes.h">
<polygon fill="white" stroke="red" points="962.188,-636.5 962.188,-655.5 1091.19,-655.5 1091.19,-636.5 962.188,-636.5"/>
<text text-anchor="middle" x="1026.69" y="-643.5" font-family="FreeSans" font-size="10.00">DGtal/shapes/Shapes.h</text>
</a>
</g>
</g>
<!-- Node0&#45;&gt;Node186 -->
<g id="edge130" class="edge"><title>Node0&#45;&gt;Node186</title>
<path fill="none" stroke="midnightblue" d="M1781.03,-754.289C1770.95,-739.609 1748.29,-710.337 1720.69,-698 1604.41,-646.031 1275.51,-673.776 1148.69,-662 1133,-660.543 1116.21,-658.679 1100.27,-656.764"/>
<polygon fill="midnightblue" stroke="midnightblue" points="1100.28,-653.24 1089.93,-655.502 1099.43,-660.188 1100.28,-653.24"/>
</g>
<!-- Node3&#45;&gt;Node1 -->
<g id="edge4" class="edge"><title>Node3&#45;&gt;Node1</title>
<path fill="none" stroke="midnightblue" d="M1254.66,-236.359C1262.46,-220.353 1281.37,-186.08 1307.69,-168 1411.15,-96.9375 1504.71,-180.198 1574.69,-76 1587,-57.6682 1566.09,-38.0629 1547.23,-25.2354"/>
<polygon fill="midnightblue" stroke="midnightblue" points="1548.87,-22.1307 1538.56,-19.6828 1545.09,-28.0247 1548.87,-22.1307"/>
</g>
<!-- Node3&#45;&gt;Node2 -->
<g id="edge6" class="edge"><title>Node3&#45;&gt;Node2</title>
<path fill="none" stroke="midnightblue" d="M1187.53,-245.728C1093.85,-245.341 913.273,-238.942 765.688,-200 732.221,-191.169 727.71,-178.374 694.688,-168 626.677,-146.634 544.459,-133.921 496.044,-127.712"/>
<polygon fill="midnightblue" stroke="midnightblue" points="496.309,-124.218 485.951,-126.449 495.44,-131.164 496.309,-124.218"/>
</g>
<!-- Node4 -->
<g id="node5" class="node"><title>Node4</title>
<polygon fill="white" stroke="#bfbfbf" points="1317.19,-174.5 1317.19,-193.5 1380.19,-193.5 1380.19,-174.5 1317.19,-174.5"/>
<text text-anchor="middle" x="1348.69" y="-181.5" font-family="FreeSans" font-size="10.00">exception</text>
</g>
<!-- Node3&#45;&gt;Node4 -->
<g id="edge5" class="edge"><title>Node3&#45;&gt;Node4</title>
<path fill="none" stroke="midnightblue" d="M1264.73,-236.403C1280.74,-226.601 1307.14,-210.439 1326.06,-198.853"/>
<polygon fill="midnightblue" stroke="midnightblue" points="1327.97,-201.787 1334.67,-193.581 1324.32,-195.817 1327.97,-201.787"/>
</g>
<!-- Node5 -->
<g id="node6" class="node"><title>Node5</title>
<polygon fill="white" stroke="#bfbfbf" points="1398.69,-174.5 1398.69,-193.5 1500.69,-193.5 1500.69,-174.5 1398.69,-174.5"/>
<text text-anchor="middle" x="1449.69" y="-181.5" font-family="FreeSans" font-size="10.00">boost/version.hpp</text>
</g>
<!-- Node3&#45;&gt;Node5 -->
<g id="edge7" class="edge"><title>Node3&#45;&gt;Node5</title>
<path fill="none" stroke="midnightblue" d="M1279.2,-236.403C1313.93,-225.933 1372.73,-208.205 1411.38,-196.55"/>
<polygon fill="midnightblue" stroke="midnightblue" points="1412.67,-199.818 1421.23,-193.581 1410.64,-193.116 1412.67,-199.818"/>
</g>
<!-- Node6 -->
<g id="node7" class="node"><title>Node6</title>
<polygon fill="white" stroke="#bfbfbf" points="386.188,-174.5 386.188,-193.5 525.188,-193.5 525.188,-174.5 386.188,-174.5"/>
<text text-anchor="middle" x="455.688" y="-181.5" font-family="FreeSans" font-size="10.00">boost/concept_check.hpp</text>
</g>
<!-- Node3&#45;&gt;Node6 -->
<g id="edge8" class="edge"><title>Node3&#45;&gt;Node6</title>
<path fill="none" stroke="midnightblue" d="M1187.61,-243.737C1062.46,-240.636 774.034,-230.526 533.688,-200 524.345,-198.813 514.436,-197.192 504.927,-195.453"/>
<polygon fill="midnightblue" stroke="midnightblue" points="505.29,-191.959 494.812,-193.534 503.985,-198.837 505.29,-191.959"/>
</g>
<!-- Node7 -->
<g id="node8" class="node"><title>Node7</title>
<polygon fill="white" stroke="#bfbfbf" points="1519.19,-174.5 1519.19,-193.5 1648.19,-193.5 1648.19,-174.5 1519.19,-174.5"/>
<text text-anchor="middle" x="1583.69" y="-181.5" font-family="FreeSans" font-size="10.00">boost/static_assert.hpp</text>
</g>
<!-- Node3&#45;&gt;Node7 -->
<g id="edge9" class="edge"><title>Node3&#45;&gt;Node7</title>
<path fill="none" stroke="midnightblue" d="M1301.67,-236.491C1353.76,-227.706 1436.96,-213.426 1508.69,-200 1516.31,-198.574 1524.35,-197.019 1532.22,-195.467"/>
<polygon fill="midnightblue" stroke="midnightblue" points="1532.94,-198.893 1542.07,-193.514 1531.58,-192.027 1532.94,-198.893"/>
</g>
<!-- Node8 -->
<g id="node9" class="node"><title>Node8</title>
<polygon fill="white" stroke="#bfbfbf" points="1666.19,-174.5 1666.19,-193.5 1805.19,-193.5 1805.19,-174.5 1666.19,-174.5"/>
<text text-anchor="middle" x="1735.69" y="-181.5" font-family="FreeSans" font-size="10.00">boost/concept/assert.hpp</text>
</g>
<!-- Node3&#45;&gt;Node8 -->
<g id="edge10" class="edge"><title>Node3&#45;&gt;Node8</title>
<path fill="none" stroke="midnightblue" d="M1313.83,-239.526C1393.84,-232.239 1535.89,-218.136 1656.69,-200 1665.52,-198.675 1674.86,-197.076 1683.92,-195.423"/>
<polygon fill="midnightblue" stroke="midnightblue" points="1684.78,-198.821 1693.97,-193.545 1683.5,-191.94 1684.78,-198.821"/>
</g>
<!-- Node9 -->
<g id="node10" class="node"><title>Node9</title>
<polygon fill="white" stroke="#bfbfbf" points="1823.69,-174.5 1823.69,-193.5 1971.69,-193.5 1971.69,-174.5 1823.69,-174.5"/>
<text text-anchor="middle" x="1897.69" y="-181.5" font-family="FreeSans" font-size="10.00">boost/concept/requires.hpp</text>
</g>
<!-- Node3&#45;&gt;Node9 -->
<g id="edge11" class="edge"><title>Node3&#45;&gt;Node9</title>
<path fill="none" stroke="midnightblue" d="M1313.8,-241.956C1418.14,-236.475 1633.05,-223.292 1813.69,-200 1823.72,-198.707 1834.37,-197.037 1844.6,-195.284"/>
<polygon fill="midnightblue" stroke="midnightblue" points="1845.41,-198.695 1854.65,-193.513 1844.19,-191.801 1845.41,-198.695"/>
</g>
<!-- Node10 -->
<g id="node11" class="node"><title>Node10</title>
<polygon fill="white" stroke="#bfbfbf" points="1989.69,-169 1989.69,-199 2109.69,-199 2109.69,-169 1989.69,-169"/>
<text text-anchor="start" x="1997.69" y="-187" font-family="FreeSans" font-size="10.00">boost/iterator/iterator</text>
<text text-anchor="middle" x="2049.69" y="-176" font-family="FreeSans" font-size="10.00">_concepts.hpp</text>
</g>
<!-- Node3&#45;&gt;Node10 -->
<g id="edge12" class="edge"><title>Node3&#45;&gt;Node10</title>
<path fill="none" stroke="midnightblue" d="M1313.99,-244.339C1439.33,-242.326 1728,-234.19 1979.51,-200.017"/>
<polygon fill="midnightblue" stroke="midnightblue" points="1980.14,-203.463 1989.57,-198.633 1979.19,-196.529 1980.14,-203.463"/>
</g>
<!-- Node11 -->
<g id="node12" class="node"><title>Node11</title>
<polygon fill="white" stroke="#bfbfbf" points="2127.19,-174.5 2127.19,-193.5 2286.19,-193.5 2286.19,-174.5 2127.19,-174.5"/>
<text text-anchor="middle" x="2206.69" y="-181.5" font-family="FreeSans" font-size="10.00">boost/concept_archetype.hpp</text>
</g>
<!-- Node3&#45;&gt;Node11 -->
<g id="edge13" class="edge"><title>Node3&#45;&gt;Node11</title>
<path fill="none" stroke="midnightblue" d="M1313.72,-244.212C1456.97,-241.878 1817.86,-232.937 2117.69,-200 2128.78,-198.782 2140.58,-197.081 2151.85,-195.26"/>
<polygon fill="midnightblue" stroke="midnightblue" points="2152.72,-198.663 2162.01,-193.564 2151.57,-191.758 2152.72,-198.663"/>
</g>
<!-- Node12 -->
<g id="node13" class="node"><title>Node12</title>
<polygon fill="white" stroke="#bfbfbf" points="2406.19,-112.5 2406.19,-131.5 2453.19,-131.5 2453.19,-112.5 2406.19,-112.5"/>
<text text-anchor="middle" x="2429.69" y="-119.5" font-family="FreeSans" font-size="10.00">cmath</text>
</g>
<!-- Node3&#45;&gt;Node12 -->
<g id="edge14" class="edge"><title>Node3&#45;&gt;Node12</title>
<path fill="none" stroke="midnightblue" d="M1188.02,-236.465C1128.24,-225.926 1052.17,-204.728 1087.69,-168 1134.55,-119.536 2192.81,-121.916 2396.09,-122.823"/>
<polygon fill="midnightblue" stroke="midnightblue" points="2396.15,-126.324 2406.17,-122.87 2396.18,-119.324 2396.15,-126.324"/>
</g>
<!-- Node13 -->
<g id="node14" class="node"><title>Node13</title>
<polygon fill="white" stroke="#bfbfbf" points="1097.19,-174.5 1097.19,-193.5 1146.19,-193.5 1146.19,-174.5 1097.19,-174.5"/>
<text text-anchor="middle" x="1121.69" y="-181.5" font-family="FreeSans" font-size="10.00">stdio.h</text>
</g>
<!-- Node3&#45;&gt;Node13 -->
<g id="edge15" class="edge"><title>Node3&#45;&gt;Node13</title>
<path fill="none" stroke="midnightblue" d="M1232.21,-236.403C1210.56,-226.334 1174.48,-209.552 1149.46,-197.915"/>
<polygon fill="midnightblue" stroke="midnightblue" points="1150.68,-194.624 1140.14,-193.581 1147.73,-200.971 1150.68,-194.624"/>
</g>
<!-- Node14 -->
<g id="node15" class="node"><title>Node14</title>
<g id="a_node15"><a xlink:href="Config_8h_source.html" target="_top" xlink:title="DGtal/base/Config.h">
<polygon fill="white" stroke="black" points="862.688,-56.5 862.688,-75.5 974.688,-75.5 974.688,-56.5 862.688,-56.5"/>
<text text-anchor="middle" x="918.688" y="-63.5" font-family="FreeSans" font-size="10.00">DGtal/base/Config.h</text>
</a>
</g>
</g>
<!-- Node3&#45;&gt;Node14 -->
<g id="edge16" class="edge"><title>Node3&#45;&gt;Node14</title>
<path fill="none" stroke="midnightblue" d="M1187.28,-237.931C1139.87,-231.186 1080.75,-219.167 1065.69,-200 1041.52,-169.247 1089.98,-143.424 1066.69,-112 1055.76,-97.2579 1014.33,-85.4321 978.072,-77.6098"/>
<polygon fill="midnightblue" stroke="midnightblue" points="978.517,-74.1272 968.013,-75.5105 977.087,-80.9796 978.517,-74.1272"/>
</g>
<!-- Node16 -->
<g id="node17" class="node"><title>Node16</title>
<g id="a_node17"><a xlink:href="Trace_8h_source.html" target="_top" xlink:title="DGtal/base/Trace.h">
<polygon fill="white" stroke="red" points="819.188,-174.5 819.188,-193.5 926.188,-193.5 926.188,-174.5 819.188,-174.5"/>
<text text-anchor="middle" x="872.688" y="-181.5" font-family="FreeSans" font-size="10.00">DGtal/base/Trace.h</text>
</a>
</g>
</g>
<!-- Node3&#45;&gt;Node16 -->
<g id="edge19" class="edge"><title>Node3&#45;&gt;Node16</title>
<path fill="none" stroke="midnightblue" d="M1187.53,-237.205C1124.73,-229.131 1025.75,-215.534 940.688,-200 933.575,-198.701 926.074,-197.19 918.754,-195.637"/>
<polygon fill="midnightblue" stroke="midnightblue" points="919.453,-192.208 908.938,-193.51 917.97,-199.049 919.453,-192.208"/>
</g>
<!-- Node23 -->
<g id="node18" class="node"><title>Node23</title>
<g id="a_node18"><a xlink:href="TraceWriterTerm_8h_source.html" target="_top" xlink:title="DGtal/base/TraceWriterTerm.h">
<polygon fill="white" stroke="red" points="901.188,-112.5 901.188,-131.5 1058.19,-131.5 1058.19,-112.5 901.188,-112.5"/>
<text text-anchor="middle" x="979.688" y="-119.5" font-family="FreeSans" font-size="10.00">DGtal/base/TraceWriterTerm.h</text>
</a>
</g>
</g>
<!-- Node3&#45;&gt;Node23 -->
<g id="edge30" class="edge"><title>Node3&#45;&gt;Node23</title>
<path fill="none" stroke="midnightblue" d="M1187.5,-243.655C1115.66,-240.634 1004.93,-230.936 978.688,-200 965.139,-184.025 968.55,-158.762 973.235,-141.563"/>
<polygon fill="midnightblue" stroke="midnightblue" points="976.705,-142.193 976.333,-131.605 970.021,-140.114 976.705,-142.193"/>
</g>
<!-- Node24 -->
<g id="node19" class="node"><title>Node24</title>
<g id="a_node19"><a xlink:href="Assert_8h_source.html" target="_top" xlink:title="DGtal/base/Assert.h">
<polygon fill="white" stroke="red" points="655.188,-112.5 655.188,-131.5 768.188,-131.5 768.188,-112.5 655.188,-112.5"/>
<text text-anchor="middle" x="711.688" y="-119.5" font-family="FreeSans" font-size="10.00">DGtal/base/Assert.h</text>
</a>
</g>
</g>
<!-- Node3&#45;&gt;Node24 -->
<g id="edge34" class="edge"><title>Node3&#45;&gt;Node24</title>
<path fill="none" stroke="midnightblue" d="M1187.65,-242.879C1082.61,-238.63 876.678,-227.054 809.688,-200 805.117,-198.154 757.374,-159.901 730.254,-138.021"/>
<polygon fill="midnightblue" stroke="midnightblue" points="732.232,-135.121 722.254,-131.56 727.834,-140.566 732.232,-135.121"/>
</g>
<!-- Node27 -->
<g id="node20" class="node"><title>Node27</title>
<g id="a_node20"><a xlink:href="TraceWriterFile_8h_source.html" target="_top" xlink:title="DGtal/base/TraceWriterFile.h">
<polygon fill="white" stroke="red" points="1068.19,-56.5 1068.19,-75.5 1217.19,-75.5 1217.19,-56.5 1068.19,-56.5"/>
<text text-anchor="middle" x="1142.69" y="-63.5" font-family="FreeSans" font-size="10.00">DGtal/base/TraceWriterFile.h</text>
</a>
</g>
</g>
<!-- Node3&#45;&gt;Node27 -->
<g id="edge31" class="edge"><title>Node3&#45;&gt;Node27</title>
<path fill="none" stroke="midnightblue" d="M1187.56,-237.069C1142.94,-230.015 1088.66,-217.998 1074.69,-200 1065.97,-188.767 1070.31,-181.532 1074.69,-168 1080.76,-149.221 1089.55,-148.294 1100.69,-132 1111.67,-115.934 1123.67,-97.2399 1132.02,-84.0349"/>
<polygon fill="midnightblue" stroke="midnightblue" points="1135.02,-85.8333 1137.39,-75.5058 1129.1,-82.1042 1135.02,-85.8333"/>
</g>
<!-- Node28 -->
<g id="node21" class="node"><title>Node28</title>
<g id="a_node21"><a xlink:href="ConceptUtils_8h_source.html" target="_top" xlink:title="DGtal/base/ConceptUtils.h">
<polygon fill="white" stroke="black" points="543.188,-174.5 543.188,-193.5 686.188,-193.5 686.188,-174.5 543.188,-174.5"/>
<text text-anchor="middle" x="614.688" y="-181.5" font-family="FreeSans" font-size="10.00">DGtal/base/ConceptUtils.h</text>
</a>
</g>
</g>
<!-- Node3&#45;&gt;Node28 -->
<g id="edge35" class="edge"><title>Node3&#45;&gt;Node28</title>
<path fill="none" stroke="midnightblue" d="M1187.39,-241.699C1084.87,-235.932 876.259,-222.447 700.688,-200 690.435,-198.689 679.541,-197.012 669.075,-195.257"/>
<polygon fill="midnightblue" stroke="midnightblue" points="669.656,-191.805 659.207,-193.56 668.469,-198.704 669.656,-191.805"/>
</g>
<!-- Node29 -->
<g id="node22" class="node"><title>Node29</title>
<g id="a_node22"><a xlink:href="BasicTypes_8h_source.html" target="_top" xlink:title="DGtal/base/BasicTypes.h">
<polygon fill="white" stroke="red" points="1235.69,-56.5 1235.69,-75.5 1369.69,-75.5 1369.69,-56.5 1235.69,-56.5"/>
<text text-anchor="middle" x="1302.69" y="-63.5" font-family="FreeSans" font-size="10.00">DGtal/base/BasicTypes.h</text>
</a>
</g>
</g>
<!-- Node3&#45;&gt;Node29 -->
<g id="edge37" class="edge"><title>Node3&#45;&gt;Node29</title>
<path fill="none" stroke="midnightblue" d="M1234.9,-236.467C1222.49,-228.769 1206.08,-216.179 1198.69,-200 1182.43,-164.428 1177.21,-144.689 1198.69,-112 1209.26,-95.9065 1226.95,-85.5412 1244.77,-78.8764"/>
<polygon fill="midnightblue" stroke="midnightblue" points="1246.29,-82.0587 1254.64,-75.5415 1244.04,-75.4271 1246.29,-82.0587"/>
</g>
<!-- Node32 -->
<g id="node23" class="node"><title>Node32</title>
<g id="a_node23"><a xlink:href="BasicFunctors_8h_source.html" target="_top" xlink:title="DGtal/base/BasicFunctors.h">
<polygon fill="white" stroke="red" points="2304.69,-174.5 2304.69,-193.5 2452.69,-193.5 2452.69,-174.5 2304.69,-174.5"/>
<text text-anchor="middle" x="2378.69" y="-181.5" font-family="FreeSans" font-size="10.00">DGtal/base/BasicFunctors.h</text>
</a>
</g>
</g>
<!-- Node3&#45;&gt;Node32 -->
<g id="edge39" class="edge"><title>Node3&#45;&gt;Node32</title>
<path fill="none" stroke="midnightblue" d="M1313.92,-245.207C1476.02,-245.037 1918.95,-240.464 2285.69,-200 2296.4,-198.818 2307.8,-197.097 2318.85,-195.239"/>
<polygon fill="midnightblue" stroke="midnightblue" points="2319.61,-198.66 2328.86,-193.505 2318.41,-191.762 2319.61,-198.66"/>
</g>
<!-- Node40 -->
<g id="node24" class="node"><title>Node40</title>
<g id="a_node24"><a xlink:href="BasicArchetypes_8h_source.html" target="_top" xlink:title="DGtal/base/BasicArchetypes.h">
<polygon fill="white" stroke="black" points="1388.19,-56.5 1388.19,-75.5 1549.19,-75.5 1549.19,-56.5 1388.19,-56.5"/>
<text text-anchor="middle" x="1468.69" y="-63.5" font-family="FreeSans" font-size="10.00">DGtal/base/BasicArchetypes.h</text>
</a>
</g>
</g>
<!-- Node3&#45;&gt;Node40 -->
<g id="edge43" class="edge"><title>Node3&#45;&gt;Node40</title>
<path fill="none" stroke="midnightblue" d="M1249.79,-236.264C1247.81,-211.782 1246.06,-142.325 1285.69,-112 1304.23,-97.8132 1358.96,-85.4595 1403.78,-77.3037"/>
<polygon fill="midnightblue" stroke="midnightblue" points="1404.53,-80.7258 1413.76,-75.5263 1403.3,-73.8343 1404.53,-80.7258"/>
</g>
<!-- Node41 -->
<g id="node25" class="node"><title>Node41</title>
<g id="a_node25"><a xlink:href="Exceptions_8h_source.html" target="_top" xlink:title="DGtal/base/Exceptions.h">
<polygon fill="white" stroke="black" points="1294.69,-112.5 1294.69,-131.5 1428.69,-131.5 1428.69,-112.5 1294.69,-112.5"/>
<text text-anchor="middle" x="1361.69" y="-119.5" font-family="FreeSans" font-size="10.00">DGtal/base/Exceptions.h</text>
</a>
</g>
</g>
<!-- Node3&#45;&gt;Node41 -->
<g id="edge45" class="edge"><title>Node3&#45;&gt;Node41</title>
<path fill="none" stroke="midnightblue" d="M1251.24,-236.35C1252.65,-220.926 1257.59,-188.386 1274.69,-168 1287.2,-153.077 1305.93,-142.5 1322.81,-135.367"/>
<polygon fill="midnightblue" stroke="midnightblue" points="1324.45,-138.482 1332.47,-131.559 1321.89,-131.97 1324.45,-138.482"/>
</g>
<!-- Node14&#45;&gt;Node1 -->
<g id="edge17" class="edge"><title>Node14&#45;&gt;Node1</title>
<path fill="none" stroke="midnightblue" d="M974.698,-59.9925C1095.57,-49.1861 1378.39,-23.9013 1482.93,-14.5549"/>
<polygon fill="midnightblue" stroke="midnightblue" points="1483.4,-18.0262 1493.05,-13.6495 1482.78,-11.054 1483.4,-18.0262"/>
</g>
<!-- Node15 -->
<g id="node16" class="node"><title>Node15</title>
<polygon fill="white" stroke="#bfbfbf" points="774.688,-0.5 774.688,-19.5 818.688,-19.5 818.688,-0.5 774.688,-0.5"/>
<text text-anchor="middle" x="796.688" y="-7.5" font-family="FreeSans" font-size="10.00">string</text>
</g>
<!-- Node14&#45;&gt;Node15 -->
<g id="edge18" class="edge"><title>Node14&#45;&gt;Node15</title>
<path fill="none" stroke="midnightblue" d="M899.357,-56.4435C879.368,-47.5961 847.945,-33.6875 825.124,-23.5865"/>
<polygon fill="midnightblue" stroke="midnightblue" points="826.49,-20.3635 815.929,-19.5164 823.657,-26.7645 826.49,-20.3635"/>
</g>
<!-- Node16&#45;&gt;Node1 -->
<g id="edge20" class="edge"><title>Node16&#45;&gt;Node1</title>
<path fill="none" stroke="midnightblue" d="M867.207,-174.198C853.739,-151.339 822.323,-89.5463 853.688,-56 896.74,-9.95458 1345.89,-9.61272 1483.1,-10.5978"/>
<polygon fill="midnightblue" stroke="midnightblue" points="1483.15,-14.0982 1493.17,-10.6767 1483.2,-7.09841 1483.15,-14.0982"/>
</g>
<!-- Node16&#45;&gt;Node14 -->
<g id="edge22" class="edge"><title>Node16&#45;&gt;Node14</title>
<path fill="none" stroke="midnightblue" d="M874.177,-174.44C876.718,-160.838 882.525,-133.617 891.688,-112 895.778,-102.353 901.641,-92.2929 906.86,-84.1368"/>
<polygon fill="midnightblue" stroke="midnightblue" points="909.929,-85.8428 912.546,-75.5762 904.098,-81.9702 909.929,-85.8428"/>
</g>
<!-- Node16&#45;&gt;Node15 -->
<g id="edge21" class="edge"><title>Node16&#45;&gt;Node15</title>
<path fill="none" stroke="midnightblue" d="M860.293,-174.372C848.215,-165.271 830.307,-149.799 820.688,-132 802.933,-99.1447 798.23,-54.9051 797.037,-30.036"/>
<polygon fill="midnightblue" stroke="midnightblue" points="800.527,-29.6779 796.696,-19.8 793.531,-29.911 800.527,-29.6779"/>
</g>
<!-- Node16&#45;&gt;Node23 -->
<g id="edge23" class="edge"><title>Node16&#45;&gt;Node23</title>
<path fill="none" stroke="midnightblue" d="M888.019,-174.403C905.658,-164.512 934.848,-148.144 955.546,-136.538"/>
<polygon fill="midnightblue" stroke="midnightblue" points="957.376,-139.524 964.386,-131.581 953.952,-133.419 957.376,-139.524"/>
</g>
<!-- Node16&#45;&gt;Node24 -->
<g id="edge27" class="edge"><title>Node16&#45;&gt;Node24</title>
<path fill="none" stroke="midnightblue" d="M844.72,-174.403C815.006,-164.156 768.629,-146.956 739.126,-135.302"/>
<polygon fill="midnightblue" stroke="midnightblue" points="740.4,-132.042 729.816,-131.581 737.802,-138.542 740.4,-132.042"/>
</g>
<!-- Node23&#45;&gt;Node1 -->
<g id="edge24" class="edge"><title>Node23&#45;&gt;Node1</title>
<path fill="none" stroke="midnightblue" d="M986.919,-112.382C999.694,-97.8413 1027.84,-68.7744 1058.69,-56 1135.07,-24.3704 1385.07,-14.5649 1482.91,-11.8945"/>
<polygon fill="midnightblue" stroke="midnightblue" points="1483.08,-15.3914 1492.99,-11.6303 1482.9,-8.39379 1483.08,-15.3914"/>
</g>
<!-- Node23&#45;&gt;Node14 -->
<g id="edge26" class="edge"><title>Node23&#45;&gt;Node14</title>
<path fill="none" stroke="midnightblue" d="M969.888,-112.324C960.87,-104.341 947.282,-92.3128 936.37,-82.6529"/>
<polygon fill="midnightblue" stroke="midnightblue" points="938.475,-79.8416 928.667,-75.8339 933.835,-85.083 938.475,-79.8416"/>
</g>
<!-- Node23&#45;&gt;Node15 -->
<g id="edge25" class="edge"><title>Node23&#45;&gt;Node15</title>
<path fill="none" stroke="midnightblue" d="M940.383,-112.465C914.242,-105.518 880.007,-93.8883 853.688,-76 834.952,-63.2655 818.495,-42.9517 808.142,-28.423"/>
<polygon fill="midnightblue" stroke="midnightblue" points="810.802,-26.1136 802.258,-19.8487 805.031,-30.0744 810.802,-26.1136"/>
</g>
<!-- Node24&#45;&gt;Node15 -->
<g id="edge29" class="edge"><title>Node24&#45;&gt;Node15</title>
<path fill="none" stroke="midnightblue" d="M714.81,-112.395C719.807,-99.3433 730.5,-74.1452 744.688,-56 753.651,-44.5375 765.865,-33.7899 776.204,-25.6745"/>
<polygon fill="midnightblue" stroke="midnightblue" points="778.475,-28.3453 784.335,-19.5187 774.249,-22.7644 778.475,-28.3453"/>
</g>
<!-- Node24&#45;&gt;Node16 -->
<g id="edge28" class="edge"><title>Node24&#45;&gt;Node16</title>
<path fill="none" stroke="midnightblue" d="M739.61,-131.581C769.307,-141.821 815.684,-159.02 845.205,-170.68"/>
<polygon fill="midnightblue" stroke="midnightblue" points="843.937,-173.942 854.521,-174.403 846.535,-167.442 843.937,-173.942"/>
</g>
<!-- Node27&#45;&gt;Node1 -->
<g id="edge32" class="edge"><title>Node27&#45;&gt;Node1</title>
<path fill="none" stroke="midnightblue" d="M1202.9,-56.4435C1281.37,-45.293 1416.4,-26.1035 1483.08,-16.6288"/>
<polygon fill="midnightblue" stroke="midnightblue" points="1483.76,-20.0665 1493.17,-15.1943 1482.78,-13.1361 1483.76,-20.0665"/>
</g>
<!-- Node27&#45;&gt;Node15 -->
<g id="edge33" class="edge"><title>Node27&#45;&gt;Node15</title>
<path fill="none" stroke="midnightblue" d="M1087.86,-56.4435C1014.88,-45.0533 888.151,-25.2745 828.925,-16.0312"/>
<polygon fill="midnightblue" stroke="midnightblue" points="829.434,-12.5683 819.014,-14.4843 828.354,-19.4846 829.434,-12.5683"/>
</g>
<!-- Node28&#45;&gt;Node1 -->
<g id="edge36" class="edge"><title>Node28&#45;&gt;Node1</title>
<path fill="none" stroke="midnightblue" d="M611.038,-174.457C601.949,-151.693 581.219,-89.0643 612.688,-56 643.097,-24.0499 1311.51,-13.6122 1482.92,-11.456"/>
<polygon fill="midnightblue" stroke="midnightblue" points="1483.07,-14.9546 1493.02,-11.3314 1482.98,-7.95512 1483.07,-14.9546"/>
</g>
<!-- Node29&#45;&gt;Node1 -->
<g id="edge38" class="edge"><title>Node29&#45;&gt;Node1</title>
<path fill="none" stroke="midnightblue" d="M1337.55,-56.4435C1377.17,-46.7177 1441.71,-30.876 1483.17,-20.6993"/>
<polygon fill="midnightblue" stroke="midnightblue" points="1484.05,-24.0871 1492.93,-18.3042 1482.38,-17.2889 1484.05,-24.0871"/>
</g>
<!-- Node32&#45;&gt;Node2 -->
<g id="edge40" class="edge"><title>Node32&#45;&gt;Node2</title>
<path fill="none" stroke="midnightblue" d="M2338.28,-174.477C2324.51,-171.923 2308.99,-169.424 2294.69,-168 1929.96,-131.675 1012,-144.627 645.688,-132 594.135,-130.223 534.794,-127.287 496.114,-125.254"/>
<polygon fill="midnightblue" stroke="midnightblue" points="495.947,-121.741 485.776,-124.706 495.577,-128.731 495.947,-121.741"/>
</g>
<!-- Node32&#45;&gt;Node3 -->
<g id="edge42" class="edge"><title>Node32&#45;&gt;Node3</title>
<path fill="none" stroke="midnightblue" d="M2345.94,-193.505C2332.85,-195.993 2317.68,-198.457 2303.69,-200 1937.67,-240.386 1495.74,-245.019 1323.9,-245.206"/>
<polygon fill="midnightblue" stroke="midnightblue" points="1323.71,-241.706 1313.71,-245.212 1323.71,-248.706 1323.71,-241.706"/>
</g>
<!-- Node32&#45;&gt;Node12 -->
<g id="edge41" class="edge"><title>Node32&#45;&gt;Node12</title>
<path fill="none" stroke="midnightblue" d="M2386,-174.403C2393.72,-165.314 2406.1,-150.756 2415.71,-139.449"/>
<polygon fill="midnightblue" stroke="midnightblue" points="2418.59,-141.467 2422.39,-131.581 2413.25,-136.933 2418.59,-141.467"/>
</g>
<!-- Node40&#45;&gt;Node1 -->
<g id="edge44" class="edge"><title>Node40&#45;&gt;Node1</title>
<path fill="none" stroke="midnightblue" d="M1477.61,-56.083C1485.47,-48.2195 1497.12,-36.5688 1506.61,-27.0813"/>
<polygon fill="midnightblue" stroke="midnightblue" points="1509.34,-29.2971 1513.94,-19.7511 1504.39,-24.3473 1509.34,-29.2971"/>
</g>
<!-- Node41&#45;&gt;Node1 -->
<g id="edge46" class="edge"><title>Node41&#45;&gt;Node1</title>
<path fill="none" stroke="midnightblue" d="M1428.82,-114.456C1479.02,-108.012 1541.65,-96.1412 1557.69,-76 1569.95,-60.6044 1554.91,-40.2905 1540.91,-26.4984"/>
<polygon fill="midnightblue" stroke="midnightblue" points="1543.13,-23.7931 1533.41,-19.5798 1538.39,-28.9356 1543.13,-23.7931"/>
</g>
<!-- Node44&#45;&gt;Node1 -->
<g id="edge50" class="edge"><title>Node44&#45;&gt;Node1</title>
<path fill="none" stroke="midnightblue" d="M1899.69,-707.582C1994.72,-706.934 2174.92,-700.123 2322.69,-662 2601.34,-590.11 2758.27,-642.903 2915.69,-402 2923.47,-390.094 2921.13,-383.14 2915.69,-370 2907.03,-349.095 2890.54,-353.855 2879.69,-334 2860.71,-299.271 2860.69,-286.578 2860.69,-247 2860.69,-247 2860.69,-247 2860.69,-121 2860.69,-84.8221 2843.78,-72.7019 2811.69,-56 2754.98,-26.487 1773.47,-13.8168 1562.44,-11.4274"/>
<polygon fill="midnightblue" stroke="midnightblue" points="1562.46,-7.92749 1552.42,-11.3152 1562.38,-14.9271 1562.46,-7.92749"/>
</g>
<!-- Node44&#45;&gt;Node3 -->
<g id="edge51" class="edge"><title>Node44&#45;&gt;Node3</title>
<path fill="none" stroke="midnightblue" d="M1825.66,-698.294C1782.04,-651.374 1567.55,-425.795 1354.69,-292 1332.98,-278.353 1306.41,-266.936 1285.56,-259.017"/>
<polygon fill="midnightblue" stroke="midnightblue" points="1286.72,-255.714 1276.13,-255.522 1284.29,-262.278 1286.72,-255.714"/>
</g>
<!-- Node45 -->
<g id="node29" class="node"><title>Node45</title>
<g id="a_node29"><a xlink:href="SpaceND_8h_source.html" target="_top" xlink:title="DGtal/kernel/SpaceND.h">
<polygon fill="white" stroke="red" points="789.188,-438.5 789.188,-457.5 922.188,-457.5 922.188,-438.5 789.188,-438.5"/>
<text text-anchor="middle" x="855.688" y="-445.5" font-family="FreeSans" font-size="10.00">DGtal/kernel/SpaceND.h</text>
</a>
</g>
</g>
<!-- Node44&#45;&gt;Node45 -->
<g id="edge52" class="edge"><title>Node44&#45;&gt;Node45</title>
<path fill="none" stroke="midnightblue" d="M1767.69,-701.379C1752.27,-700.167 1735.91,-698.963 1720.69,-698 1635.43,-692.608 1023.43,-709.893 952.688,-662 885.046,-616.204 863.823,-510.98 857.828,-467.907"/>
<polygon fill="midnightblue" stroke="midnightblue" points="861.294,-467.416 856.564,-457.936 854.35,-468.297 861.294,-467.416"/>
</g>
<!-- Node65 -->
<g id="node36" class="node"><title>Node65</title>
<g id="a_node36"><a xlink:href="HyperRectDomain_8h_source.html" target="_top" xlink:title="DGtal/kernel/domains\l/HyperRectDomain.h">
<polygon fill="white" stroke="red" points="1016.69,-371 1016.69,-401 1136.69,-401 1136.69,-371 1016.69,-371"/>
<text text-anchor="start" x="1024.69" y="-389" font-family="FreeSans" font-size="10.00">DGtal/kernel/domains</text>
<text text-anchor="middle" x="1076.69" y="-378" font-family="FreeSans" font-size="10.00">/HyperRectDomain.h</text>
</a>
</g>
</g>
<!-- Node44&#45;&gt;Node65 -->
<g id="edge69" class="edge"><title>Node44&#45;&gt;Node65</title>
<path fill="none" stroke="midnightblue" d="M1813.44,-698.441C1712.31,-655.69 1261.15,-464.976 1119.43,-405.069"/>
<polygon fill="midnightblue" stroke="midnightblue" points="1120.74,-401.82 1110.16,-401.15 1118.01,-408.267 1120.74,-401.82"/>
</g>
<!-- Node86 -->
<g id="node37" class="node"><title>Node86</title>
<g id="a_node37"><a xlink:href="DigitalSetSelector_8h_source.html" target="_top" xlink:title="DGtal/kernel/sets/Digital\lSetSelector.h">
<polygon fill="white" stroke="red" points="2482.69,-298 2482.69,-328 2614.69,-328 2614.69,-298 2482.69,-298"/>
<text text-anchor="start" x="2490.69" y="-316" font-family="FreeSans" font-size="10.00">DGtal/kernel/sets/Digital</text>
<text text-anchor="middle" x="2548.69" y="-305" font-family="FreeSans" font-size="10.00">SetSelector.h</text>
</a>
</g>
</g>
<!-- Node44&#45;&gt;Node86 -->
<g id="edge73" class="edge"><title>Node44&#45;&gt;Node86</title>
<path fill="none" stroke="midnightblue" d="M1899.9,-704.609C2004.47,-700.086 2202.63,-688.273 2267.69,-662 2323.17,-639.594 2373.69,-638.835 2373.69,-579 2373.69,-579 2373.69,-579 2373.69,-447 2373.69,-411.751 2369.08,-396.171 2392.69,-370 2405.38,-355.928 2446.32,-341.51 2483.07,-330.829"/>
<polygon fill="midnightblue" stroke="midnightblue" points="2484.14,-334.163 2492.8,-328.058 2482.22,-327.431 2484.14,-334.163"/>
</g>
<!-- Node99 -->
<g id="node38" class="node"><title>Node99</title>
<g id="a_node38"><a xlink:href="DigitalTopology_8h_source.html" target="_top" xlink:title="DGtal/topology/DigitalTopology.h">
<polygon fill="white" stroke="red" points="140.688,-303.5 140.688,-322.5 310.688,-322.5 310.688,-303.5 140.688,-303.5"/>
<text text-anchor="middle" x="225.688" y="-310.5" font-family="FreeSans" font-size="10.00">DGtal/topology/DigitalTopology.h</text>
</a>
</g>
</g>
<!-- Node44&#45;&gt;Node99 -->
<g id="edge76" class="edge"><title>Node44&#45;&gt;Node99</title>
<path fill="none" stroke="midnightblue" d="M1767.39,-701.273C1752.07,-700.073 1735.82,-698.9 1720.69,-698 1517.78,-685.928 1003.05,-714.54 806.688,-662 557.798,-595.405 309.304,-387.843 242.885,-329.434"/>
<polygon fill="midnightblue" stroke="midnightblue" points="245.182,-326.793 235.376,-322.78 240.54,-332.032 245.182,-326.793"/>
</g>
<!-- Node106 -->
<g id="node39" class="node"><title>Node106</title>
<g id="a_node39"><a xlink:href="MetricAdjacency_8h_source.html" target="_top" xlink:title="DGtal/topology/MetricAdjacency.h">
<polygon fill="white" stroke="red" points="556.688,-500.5 556.688,-519.5 732.688,-519.5 732.688,-500.5 556.688,-500.5"/>
<text text-anchor="middle" x="644.688" y="-507.5" font-family="FreeSans" font-size="10.00">DGtal/topology/MetricAdjacency.h</text>
</a>
</g>
</g>
<!-- Node44&#45;&gt;Node106 -->
<g id="edge79" class="edge"><title>Node44&#45;&gt;Node106</title>
<path fill="none" stroke="midnightblue" d="M1767.39,-701.311C1752.06,-700.109 1735.81,-698.926 1720.69,-698 1534.2,-686.581 1058.85,-718.286 880.688,-662 789.228,-633.104 698.642,-559.131 661.849,-526.67"/>
<polygon fill="midnightblue" stroke="midnightblue" points="663.852,-523.765 654.065,-519.708 659.185,-528.983 663.852,-523.765"/>
</g>
<!-- Node109 -->
<g id="node40" class="node"><title>Node109</title>
<g id="a_node40"><a xlink:href="Object_8h_source.html" target="_top" xlink:title="DGtal/topology/Object.h">
<polygon fill="white" stroke="red" points="2214.19,-376.5 2214.19,-395.5 2345.19,-395.5 2345.19,-376.5 2214.19,-376.5"/>
<text text-anchor="middle" x="2279.69" y="-383.5" font-family="FreeSans" font-size="10.00">DGtal/topology/Object.h</text>
</a>
</g>
</g>
<!-- Node44&#45;&gt;Node109 -->
<g id="edge83" class="edge"><title>Node44&#45;&gt;Node109</title>
<path fill="none" stroke="midnightblue" d="M1899.83,-703.947C2036.15,-695.847 2335.69,-667.929 2335.69,-579 2335.69,-579 2335.69,-579 2335.69,-509 2335.69,-468.238 2309.55,-426.227 2292.99,-403.701"/>
<polygon fill="midnightblue" stroke="midnightblue" points="2295.62,-401.388 2286.78,-395.554 2290.06,-405.629 2295.62,-401.388"/>
</g>
<!-- Node118 -->
<g id="node41" class="node"><title>Node118</title>
<g id="a_node41"><a xlink:href="KhalimskySpaceND_8h_source.html" target="_top" xlink:title="DGtal/topology/Khalimsky\lSpaceND.h">
<polygon fill="white" stroke="red" points="1191.19,-563 1191.19,-593 1330.19,-593 1330.19,-563 1191.19,-563"/>
<text text-anchor="start" x="1199.19" y="-581" font-family="FreeSans" font-size="10.00">DGtal/topology/Khalimsky</text>
<text text-anchor="middle" x="1260.69" y="-570" font-family="FreeSans" font-size="10.00">SpaceND.h</text>
</a>
</g>
</g>
<!-- Node44&#45;&gt;Node118 -->
<g id="edge88" class="edge"><title>Node44&#45;&gt;Node118</title>
<path fill="none" stroke="midnightblue" d="M1767.35,-699.411C1762.73,-698.921 1758.14,-698.446 1753.69,-698 1662.9,-688.899 1427.49,-700.334 1344.69,-662 1315.84,-648.644 1291.12,-621.019 1276.11,-601.309"/>
<polygon fill="midnightblue" stroke="midnightblue" points="1278.86,-599.128 1270.11,-593.15 1273.22,-603.278 1278.86,-599.128"/>
</g>
<!-- Node119 -->
<g id="node42" class="node"><title>Node119</title>
<g id="a_node42"><a xlink:href="KhalimskyPreSpaceND_8h_source.html" target="_top" xlink:title="DGtal/topology/Khalimsky\lPreSpaceND.h">
<polygon fill="white" stroke="red" points="1093.19,-495 1093.19,-525 1232.19,-525 1232.19,-495 1093.19,-495"/>
<text text-anchor="start" x="1101.19" y="-513" font-family="FreeSans" font-size="10.00">DGtal/topology/Khalimsky</text>
<text text-anchor="middle" x="1162.69" y="-502" font-family="FreeSans" font-size="10.00">PreSpaceND.h</text>
</a>
</g>
</g>
<!-- Node44&#45;&gt;Node119 -->
<g id="edge99" class="edge"><title>Node44&#45;&gt;Node119</title>
<path fill="none" stroke="midnightblue" d="M1767.68,-699.758C1761.6,-699.142 1755.53,-698.546 1749.69,-698 1549.92,-679.311 1491.29,-721.544 1299.69,-662 1241.89,-644.037 1217.67,-642.676 1181.69,-594 1169.1,-576.969 1164.65,-553.006 1163.17,-535.203"/>
<polygon fill="midnightblue" stroke="midnightblue" points="1166.66,-534.815 1162.59,-525.031 1159.67,-535.215 1166.66,-534.815"/>
</g>
<!-- Node122 -->
<g id="node43" class="node"><title>Node122</title>
<g id="a_node43"><a xlink:href="GridCurve_8h_source.html" target="_top" xlink:title="Header file for module GridCurve.cpp. ">
<polygon fill="white" stroke="red" points="1930.69,-631 1930.69,-661 2058.69,-661 2058.69,-631 1930.69,-631"/>
<text text-anchor="start" x="1938.69" y="-649" font-family="FreeSans" font-size="10.00">DGtal/geometry/curves</text>
<text text-anchor="middle" x="1994.69" y="-638" font-family="FreeSans" font-size="10.00">/GridCurve.h</text>
</a>
</g>
</g>
<!-- Node44&#45;&gt;Node122 -->
<g id="edge100" class="edge"><title>Node44&#45;&gt;Node122</title>
<path fill="none" stroke="midnightblue" d="M1856.76,-698.403C1880.37,-689.603 1917.75,-675.674 1947.64,-664.534"/>
<polygon fill="midnightblue" stroke="midnightblue" points="1948.91,-667.797 1957.05,-661.025 1946.46,-661.238 1948.91,-667.797"/>
</g>
<!-- Node153 -->
<g id="node44" class="node"><title>Node153</title>
<g id="a_node44"><a xlink:href="ExactPredicateLpSeparableMetric_8h_source.html" target="_top" xlink:title="DGtal/geometry/volumes\l/distance/ExactPredicateLpSeparable\lMetric.h">
<polygon fill="white" stroke="red" points="2118.69,-292.5 2118.69,-333.5 2312.69,-333.5 2312.69,-292.5 2118.69,-292.5"/>
<text text-anchor="start" x="2126.69" y="-321.5" font-family="FreeSans" font-size="10.00">DGtal/geometry/volumes</text>
<text text-anchor="start" x="2126.69" y="-310.5" font-family="FreeSans" font-size="10.00">/distance/ExactPredicateLpSeparable</text>
<text text-anchor="middle" x="2215.69" y="-299.5" font-family="FreeSans" font-size="10.00">Metric.h</text>
</a>
</g>
</g>
<!-- Node44&#45;&gt;Node153 -->
<g id="edge106" class="edge"><title>Node44&#45;&gt;Node153</title>
<path fill="none" stroke="midnightblue" d="M1899.87,-707.124C1989.57,-703.416 2138.69,-681.791 2138.69,-579 2138.69,-579 2138.69,-579 2138.69,-447 2138.69,-406.072 2166.34,-366.439 2188.5,-341.244"/>
<polygon fill="midnightblue" stroke="midnightblue" points="2191.32,-343.342 2195.46,-333.588 2186.14,-338.633 2191.32,-343.342"/>
</g>
<!-- Node158 -->
<g id="node45" class="node"><title>Node158</title>
<g id="a_node45"><a xlink:href="ExactPredicateLpPowerSeparableMetric_8h_source.html" target="_top" xlink:title="DGtal/geometry/volumes\l/distance/ExactPredicateLpPower\lSeparableMetric.h">
<polygon fill="white" stroke="red" points="1888.69,-292.5 1888.69,-333.5 2062.69,-333.5 2062.69,-292.5 1888.69,-292.5"/>
<text text-anchor="start" x="1896.69" y="-321.5" font-family="FreeSans" font-size="10.00">DGtal/geometry/volumes</text>
<text text-anchor="start" x="1896.69" y="-310.5" font-family="FreeSans" font-size="10.00">/distance/ExactPredicateLpPower</text>
<text text-anchor="middle" x="1975.69" y="-299.5" font-family="FreeSans" font-size="10.00">SeparableMetric.h</text>
</a>
</g>
</g>
<!-- Node44&#45;&gt;Node158 -->
<g id="edge110" class="edge"><title>Node44&#45;&gt;Node158</title>
<path fill="none" stroke="midnightblue" d="M1836.21,-698.397C1841.99,-677.91 1855.69,-624.547 1855.69,-579 1855.69,-579 1855.69,-579 1855.69,-509 1855.69,-440.344 1910.31,-375.569 1945.85,-340.688"/>
<polygon fill="midnightblue" stroke="midnightblue" points="1948.33,-343.159 1953.12,-333.708 1943.48,-338.111 1948.33,-343.159"/>
</g>
<!-- Node45&#45;&gt;Node1 -->
<g id="edge53" class="edge"><title>Node45&#45;&gt;Node1</title>
<path fill="none" stroke="midnightblue" d="M820.838,-438.428C713.798,-412.099 396.987,-334.164 396.688,-334 372.986,-320.997 373.441,-309.326 352.688,-292 290.658,-240.21 205.688,-265.808 205.688,-185 205.688,-185 205.688,-185 205.688,-121 205.688,-20.7475 322.823,-72.6227 421.688,-56 632.001,-20.639 1311.1,-12.7386 1482.91,-11.2882"/>
<polygon fill="midnightblue" stroke="midnightblue" points="1483.05,-14.7873 1493.02,-11.2054 1482.99,-7.7875 1483.05,-14.7873"/>
</g>
<!-- Node45&#45;&gt;Node3 -->
<g id="edge54" class="edge"><title>Node45&#45;&gt;Node3</title>
<path fill="none" stroke="midnightblue" d="M827.673,-438.397C810.514,-431.515 789.94,-419.984 779.688,-402 759.067,-365.825 812.085,-293.882 814.688,-292 843.385,-271.255 1060.84,-256.888 1177.4,-250.59"/>
<polygon fill="midnightblue" stroke="midnightblue" points="1177.87,-254.07 1187.67,-250.042 1177.5,-247.08 1177.87,-254.07"/>
</g>
<!-- Node45&#45;&gt;Node57 -->
<g id="edge55" class="edge"><title>Node45&#45;&gt;Node57</title>
<path fill="none" stroke="midnightblue" d="M856.261,-438.403C856.826,-429.938 857.706,-416.728 858.434,-405.82"/>
<polygon fill="midnightblue" stroke="midnightblue" points="861.943,-405.791 859.116,-395.581 854.959,-405.326 861.943,-405.791"/>
</g>
<!-- Node57&#45;&gt;Node1 -->
<g id="edge56" class="edge"><title>Node57&#45;&gt;Node1</title>
<path fill="none" stroke="midnightblue" d="M788.616,-378.377C670,-367.073 443.162,-344.281 428.688,-334 402.015,-315.053 374.023,-232.099 367.688,-200 359.882,-160.448 364.836,-143.743 389.688,-112 416.219,-78.1127 427.968,-69.9322 468.688,-56 565.906,-22.7375 1302.57,-13.2118 1482.93,-11.3672"/>
<polygon fill="midnightblue" stroke="midnightblue" points="1483.07,-14.866 1493.04,-11.2659 1483,-7.86637 1483.07,-14.866"/>
</g>
<!-- Node57&#45;&gt;Node2 -->
<g id="edge59" class="edge"><title>Node57&#45;&gt;Node2</title>
<path fill="none" stroke="midnightblue" d="M788.669,-378.759C684.12,-369.107 498.237,-350.001 471.688,-334 440.425,-315.158 387.766,-234.78 376.688,-200 372.372,-186.449 369.575,-180.316 376.688,-168 385.365,-152.977 401.175,-142.523 416.305,-135.499"/>
<polygon fill="midnightblue" stroke="midnightblue" points="417.735,-138.694 425.567,-131.559 414.995,-132.253 417.735,-138.694"/>
</g>
<!-- Node57&#45;&gt;Node3 -->
<g id="edge62" class="edge"><title>Node57&#45;&gt;Node3</title>
<path fill="none" stroke="midnightblue" d="M851.493,-376.469C835.381,-358.677 803.037,-317.176 825.688,-292 848.721,-266.4 1061.85,-254.264 1177.26,-249.528"/>
<polygon fill="midnightblue" stroke="midnightblue" points="1177.58,-253.017 1187.43,-249.119 1177.3,-246.023 1177.58,-253.017"/>
</g>
<!-- Node57&#45;&gt;Node15 -->
<g id="edge57" class="edge"><title>Node57&#45;&gt;Node15</title>
<path fill="none" stroke="midnightblue" d="M788.469,-384.381C615.416,-382.264 183.195,-373.083 131.688,-334 28.0108,-255.331 -49.5664,-150.718 39.6882,-56 64.9051,-29.2396 622.733,-14.9128 764.269,-11.7004"/>
<polygon fill="midnightblue" stroke="midnightblue" points="764.548,-15.1951 774.467,-11.4719 764.391,-8.19689 764.548,-15.1951"/>
</g>
<!-- Node58 -->
<g id="node31" class="node"><title>Node58</title>
<polygon fill="white" stroke="#bfbfbf" points="834.688,-303.5 834.688,-322.5 878.688,-322.5 878.688,-303.5 834.688,-303.5"/>
<text text-anchor="middle" x="856.688" y="-310.5" font-family="FreeSans" font-size="10.00">bitset</text>
</g>
<!-- Node57&#45;&gt;Node58 -->
<g id="edge58" class="edge"><title>Node57&#45;&gt;Node58</title>
<path fill="none" stroke="midnightblue" d="M859.32,-376.294C858.866,-365.542 858.08,-346.949 857.485,-332.867"/>
<polygon fill="midnightblue" stroke="midnightblue" points="860.978,-332.621 857.059,-322.777 853.984,-332.916 860.978,-332.621"/>
</g>
<!-- Node59 -->
<g id="node32" class="node"><title>Node59</title>
<polygon fill="white" stroke="#bfbfbf" points="1181.19,-303.5 1181.19,-322.5 1222.19,-322.5 1222.19,-303.5 1181.19,-303.5"/>
<text text-anchor="middle" x="1201.69" y="-310.5" font-family="FreeSans" font-size="10.00">array</text>
</g>
<!-- Node57&#45;&gt;Node59 -->
<g id="edge60" class="edge"><title>Node57&#45;&gt;Node59</title>
<path fill="none" stroke="midnightblue" d="M900.941,-376.436C970.47,-362.001 1109.42,-333.154 1171.05,-320.362"/>
<polygon fill="midnightblue" stroke="midnightblue" points="1171.86,-323.768 1180.94,-318.308 1170.43,-316.914 1171.86,-323.768"/>
</g>
<!-- Node60 -->
<g id="node33" class="node"><title>Node60</title>
<polygon fill="white" stroke="#bfbfbf" points="2709.19,-303.5 2709.19,-322.5 2756.19,-322.5 2756.19,-303.5 2709.19,-303.5"/>
<text text-anchor="middle" x="2732.69" y="-310.5" font-family="FreeSans" font-size="10.00">vector</text>
</g>
<!-- Node57&#45;&gt;Node60 -->
<g id="edge61" class="edge"><title>Node57&#45;&gt;Node60</title>
<path fill="none" stroke="midnightblue" d="M930.734,-376.654C955.099,-374.097 982.556,-371.551 1007.69,-370 1724.72,-325.746 1909.01,-407.057 2623.69,-334 2649.18,-331.394 2677.66,-326.085 2699.11,-321.592"/>
<polygon fill="midnightblue" stroke="midnightblue" points="2699.98,-324.983 2709.03,-319.467 2698.52,-318.138 2699.98,-324.983"/>
</g>
<!-- Node61 -->
<g id="node34" class="node"><title>Node61</title>
<g id="a_node34"><a xlink:href="CBidirectionalRange_8h_source.html" target="_top" xlink:title="DGtal/base/CBidirectional\lRange.h">
<polygon fill="white" stroke="red" points="480.688,-298 480.688,-328 618.688,-328 618.688,-298 480.688,-298"/>
<text text-anchor="start" x="488.688" y="-316" font-family="FreeSans" font-size="10.00">DGtal/base/CBidirectional</text>
<text text-anchor="middle" x="549.688" y="-305" font-family="FreeSans" font-size="10.00">Range.h</text>
</a>
</g>
</g>
<!-- Node57&#45;&gt;Node61 -->
<g id="edge63" class="edge"><title>Node57&#45;&gt;Node61</title>
<path fill="none" stroke="midnightblue" d="M822.295,-376.436C772.54,-365.04 683.562,-344.661 620.819,-330.291"/>
<polygon fill="midnightblue" stroke="midnightblue" points="621.513,-326.86 610.984,-328.039 619.95,-333.683 621.513,-326.86"/>
</g>
<!-- Node50 -->
<g id="node35" class="node"><title>Node50</title>
<g id="a_node35"><a xlink:href="NumberTraits_8h_source.html" target="_top" xlink:title="DGtal/kernel/NumberTraits.h">
<polygon fill="white" stroke="red" points="896.688,-303.5 896.688,-322.5 1048.69,-322.5 1048.69,-303.5 896.688,-303.5"/>
<text text-anchor="middle" x="972.688" y="-310.5" font-family="FreeSans" font-size="10.00">DGtal/kernel/NumberTraits.h</text>
</a>
</g>
</g>
<!-- Node57&#45;&gt;Node50 -->
<g id="edge67" class="edge"><title>Node57&#45;&gt;Node50</title>
<path fill="none" stroke="midnightblue" d="M873.544,-376.294C892.709,-364.252 927.525,-342.377 950.379,-328.017"/>
<polygon fill="midnightblue" stroke="midnightblue" points="952.467,-330.839 959.072,-322.555 948.742,-324.912 952.467,-330.839"/>
</g>
<!-- Node61&#45;&gt;Node3 -->
<g id="edge64" class="edge"><title>Node61&#45;&gt;Node3</title>
<path fill="none" stroke="midnightblue" d="M602.118,-297.994C612.205,-295.69 622.729,-293.552 632.688,-292 827.955,-261.575 1061.21,-251.643 1177.39,-248.46"/>
<polygon fill="midnightblue" stroke="midnightblue" points="1177.68,-251.954 1187.58,-248.19 1177.49,-244.956 1177.68,-251.954"/>
</g>
<!-- Node61&#45;&gt;Node6 -->
<g id="edge65" class="edge"><title>Node61&#45;&gt;Node6</title>
<path fill="none" stroke="midnightblue" d="M539.269,-297.924C521.815,-274.341 486.744,-226.958 468.063,-201.719"/>
<polygon fill="midnightblue" stroke="midnightblue" points="470.747,-199.462 461.985,-193.507 465.121,-203.627 470.747,-199.462"/>
</g>
<!-- Node61&#45;&gt;Node28 -->
<g id="edge66" class="edge"><title>Node61&#45;&gt;Node28</title>
<path fill="none" stroke="midnightblue" d="M556.893,-297.924C568.804,-274.651 592.578,-228.201 605.616,-202.726"/>
<polygon fill="midnightblue" stroke="midnightblue" points="608.894,-204.003 610.334,-193.507 602.663,-200.814 608.894,-204.003"/>
</g>
<!-- Node50&#45;&gt;Node3 -->
<g id="edge68" class="edge"><title>Node50&#45;&gt;Node3</title>
<path fill="none" stroke="midnightblue" d="M1009.32,-303.436C1059.42,-291.72 1149.36,-270.693 1204.17,-257.877"/>
<polygon fill="midnightblue" stroke="midnightblue" points="1205.04,-261.268 1213.98,-255.583 1203.44,-254.452 1205.04,-261.268"/>
</g>
<!-- Node65&#45;&gt;Node1 -->
<g id="edge70" class="edge"><title>Node65&#45;&gt;Node1</title>
<path fill="none" stroke="midnightblue" d="M1078.36,-370.976C1079.95,-350.426 1079.48,-312.37 1057.69,-292 1001.91,-239.855 426.935,-257.491 376.688,-200 367.329,-189.291 372.511,-181.595 376.688,-168 408.913,-63.1197 488.617,-74.944 596.688,-56 770.861,-25.4689 1328.22,-14.1968 1482.67,-11.6154"/>
<polygon fill="midnightblue" stroke="midnightblue" points="1483.15,-15.1083 1493.09,-11.4445 1483.03,-8.1092 1483.15,-15.1083"/>
</g>
<!-- Node65&#45;&gt;Node3 -->
<g id="edge71" class="edge"><title>Node65&#45;&gt;Node3</title>
<path fill="none" stroke="midnightblue" d="M1088.93,-370.925C1106.15,-351.642 1139.07,-316.602 1171.69,-292 1187.86,-279.799 1207.68,-268.52 1223.42,-260.306"/>
<polygon fill="midnightblue" stroke="midnightblue" points="1225.31,-263.271 1232.62,-255.606 1222.12,-257.037 1225.31,-263.271"/>
</g>
<!-- Node65&#45;&gt;Node50 -->
<g id="edge72" class="edge"><title>Node65&#45;&gt;Node50</title>
<path fill="none" stroke="midnightblue" d="M1056.14,-370.973C1038.2,-358.721 1012.24,-341.004 994.058,-328.589"/>
<polygon fill="midnightblue" stroke="midnightblue" points="995.572,-325.385 985.34,-322.637 991.625,-331.166 995.572,-325.385"/>
</g>
<!-- Node86&#45;&gt;Node1 -->
<g id="edge74" class="edge"><title>Node86&#45;&gt;Node1</title>
<path fill="none" stroke="midnightblue" d="M2614.76,-301.563C2668.77,-291.792 2739.55,-275.754 2760.69,-256 2785.03,-233.257 2784.69,-218.31 2784.69,-185 2784.69,-185 2784.69,-185 2784.69,-121 2784.69,-90.2048 2785.63,-74.061 2760.69,-56 2711.06,-20.0648 1768.56,-12.4474 1562.33,-11.2085"/>
<polygon fill="midnightblue" stroke="midnightblue" points="1562.27,-7.70818 1552.25,-11.1495 1562.23,-14.7081 1562.27,-7.70818"/>
</g>
<!-- Node86&#45;&gt;Node3 -->
<g id="edge75" class="edge"><title>Node86&#45;&gt;Node3</title>
<path fill="none" stroke="midnightblue" d="M2482.4,-305.384C2436.94,-301.043 2375.21,-295.536 2320.69,-292 1946.17,-267.711 1497.02,-253.748 1323.78,-248.928"/>
<polygon fill="midnightblue" stroke="midnightblue" points="1323.85,-245.429 1313.76,-248.651 1323.66,-252.426 1323.85,-245.429"/>
</g>
<!-- Node99&#45;&gt;Node1 -->
<g id="edge77" class="edge"><title>Node99&#45;&gt;Node1</title>
<path fill="none" stroke="midnightblue" d="M209.706,-303.352C193.434,-293.782 168.549,-276.911 153.688,-256 134.392,-228.849 129.688,-218.31 129.688,-185 129.688,-185 129.688,-185 129.688,-121 129.688,-90.2048 128.714,-74.0176 153.688,-56 181.364,-36.0332 1260.74,-15.6822 1482.94,-11.6992"/>
<polygon fill="midnightblue" stroke="midnightblue" points="1483.22,-15.1948 1493.16,-11.5168 1483.1,-8.19596 1483.22,-15.1948"/>
</g>
<!-- Node99&#45;&gt;Node3 -->
<g id="edge78" class="edge"><title>Node99&#45;&gt;Node3</title>
<path fill="none" stroke="midnightblue" d="M310.753,-304.591C358.113,-300.59 418.149,-295.722 471.688,-292 731.089,-273.965 1039.44,-257.677 1177.51,-250.655"/>
<polygon fill="midnightblue" stroke="midnightblue" points="1177.74,-254.148 1187.55,-250.145 1177.38,-247.157 1177.74,-254.148"/>
</g>
<!-- Node106&#45;&gt;Node1 -->
<g id="edge80" class="edge"><title>Node106&#45;&gt;Node1</title>
<path fill="none" stroke="midnightblue" d="M625.362,-500.469C576.15,-478.136 443.586,-414.106 352.688,-334 334.878,-318.304 338.821,-306.053 319.688,-292 283.298,-265.27 261.218,-282.538 224.688,-256 191.949,-232.216 167.688,-225.466 167.688,-185 167.688,-185 167.688,-185 167.688,-121 167.688,-84.5528 185.272,-72.6617 217.688,-56 275.281,-26.3973 1269.9,-13.7873 1482.79,-11.421"/>
<polygon fill="midnightblue" stroke="midnightblue" points="1482.93,-14.9197 1492.89,-11.3099 1482.86,-7.92015 1482.93,-14.9197"/>
</g>
<!-- Node106&#45;&gt;Node3 -->
<g id="edge81" class="edge"><title>Node106&#45;&gt;Node3</title>
<path fill="none" stroke="midnightblue" d="M644.133,-500.115C642.571,-466.507 641.988,-346.316 708.688,-292 744.224,-263.062 1037.58,-252.135 1177.27,-248.544"/>
<polygon fill="midnightblue" stroke="midnightblue" points="1177.55,-252.038 1187.46,-248.288 1177.38,-245.04 1177.55,-252.038"/>
</g>
<!-- Node106&#45;&gt;Node45 -->
<g id="edge82" class="edge"><title>Node106&#45;&gt;Node45</title>
<path fill="none" stroke="midnightblue" d="M674.919,-500.403C711.975,-489.866 774.881,-471.978 815.853,-460.328"/>
<polygon fill="midnightblue" stroke="midnightblue" points="816.852,-463.682 825.513,-457.581 814.937,-456.949 816.852,-463.682"/>
</g>
<!-- Node109&#45;&gt;Node1 -->
<g id="edge84" class="edge"><title>Node109&#45;&gt;Node1</title>
<path fill="none" stroke="midnightblue" d="M2320.61,-376.453C2352.27,-368.631 2396.36,-355.032 2430.69,-334 2453.47,-320.044 2449.73,-303.827 2473.69,-292 2573.95,-242.498 2636.75,-327.538 2722.69,-256 2748.29,-234.689 2746.69,-218.31 2746.69,-185 2746.69,-185 2746.69,-185 2746.69,-121 2746.69,-90.2048 2747.62,-74.0753 2722.69,-56 2674.7,-21.2124 1764.87,-12.7189 1562.4,-11.2565"/>
<polygon fill="midnightblue" stroke="midnightblue" points="1562.24,-7.75539 1552.22,-11.1846 1562.19,-14.7552 1562.24,-7.75539"/>
</g>
<!-- Node109&#45;&gt;Node3 -->
<g id="edge86" class="edge"><title>Node109&#45;&gt;Node3</title>
<path fill="none" stroke="midnightblue" d="M2213.93,-381.677C2116,-375.882 1937.2,-361.799 1879.69,-334 1855.64,-322.375 1861.02,-303.018 1836.69,-292 1747.23,-251.497 1461,-246.461 1324.48,-246.456"/>
<polygon fill="midnightblue" stroke="midnightblue" points="1324.12,-242.956 1314.12,-246.465 1324.13,-249.956 1324.12,-242.956"/>
</g>
<!-- Node109&#45;&gt;Node15 -->
<g id="edge85" class="edge"><title>Node109&#45;&gt;Node15</title>
<path fill="none" stroke="midnightblue" d="M2293.83,-376.423C2341.25,-347.315 2492.91,-251.263 2515.69,-200 2534.32,-158.065 2503.69,-130.485 2461.69,-112 2318.96,-49.1813 1213.07,-97.9902 1058.69,-76 1024.11,-71.0746 1016.55,-64.5515 982.688,-56 928.659,-42.3565 865.582,-27.2736 828.508,-18.4944"/>
<polygon fill="midnightblue" stroke="midnightblue" points="829.307,-15.0869 818.77,-16.1918 827.696,-21.899 829.307,-15.0869"/>
</g>
<!-- Node109&#45;&gt;Node86 -->
<g id="edge87" class="edge"><title>Node109&#45;&gt;Node86</title>
<path fill="none" stroke="midnightblue" d="M2312.14,-376.436C2354.96,-365.134 2431.25,-344.996 2485.62,-330.647"/>
<polygon fill="midnightblue" stroke="midnightblue" points="2486.72,-333.975 2495.5,-328.039 2484.94,-327.207 2486.72,-333.975"/>
</g>
<!-- Node118&#45;&gt;Node1 -->
<g id="edge89" class="edge"><title>Node118&#45;&gt;Node1</title>
<path fill="none" stroke="midnightblue" d="M1322.99,-562.936C1546.57,-512.438 2296.55,-342.795 2320.69,-334 2359.16,-319.984 2364.79,-307.506 2402.69,-292 2521.39,-243.433 2670.69,-313.254 2670.69,-185 2670.69,-185 2670.69,-185 2670.69,-121 2670.69,-56.4025 2603.21,-72.2264 2540.69,-56 2444.88,-31.1366 1738.55,-15.3533 1562.4,-11.7765"/>
<polygon fill="midnightblue" stroke="midnightblue" points="1562.35,-8.27481 1552.28,-11.5726 1562.2,-15.2734 1562.35,-8.27481"/>
</g>
<!-- Node118&#45;&gt;Node3 -->
<g id="edge91" class="edge"><title>Node118&#45;&gt;Node3</title>
<path fill="none" stroke="midnightblue" d="M1286.84,-562.83C1320.5,-542.466 1374.69,-501.523 1374.69,-449 1374.69,-449 1374.69,-449 1374.69,-385 1374.69,-326.753 1312.81,-281.935 1276.48,-260.639"/>
<polygon fill="midnightblue" stroke="midnightblue" points="1277.84,-257.386 1267.41,-255.5 1274.39,-263.476 1277.84,-257.386"/>
</g>
<!-- Node118&#45;&gt;Node45 -->
<g id="edge93" class="edge"><title>Node118&#45;&gt;Node45</title>
<path fill="none" stroke="midnightblue" d="M1209.77,-562.986C1174.3,-553.064 1125.96,-539.221 1083.69,-526 1014.33,-504.307 933.956,-476.543 889.563,-460.974"/>
<polygon fill="midnightblue" stroke="midnightblue" points="890.461,-457.58 879.866,-457.566 888.14,-464.184 890.461,-457.58"/>
</g>
<!-- Node118&#45;&gt;Node57 -->
<g id="edge92" class="edge"><title>Node118&#45;&gt;Node57</title>
<path fill="none" stroke="midnightblue" d="M1261.35,-562.941C1261.42,-544.607 1258.68,-512.681 1240.69,-494 1240.69,-494 998.106,-425.873 900.071,-398.341"/>
<polygon fill="midnightblue" stroke="midnightblue" points="900.797,-394.91 890.223,-395.575 898.904,-401.649 900.797,-394.91"/>
</g>
<!-- Node118&#45;&gt;Node59 -->
<g id="edge90" class="edge"><title>Node118&#45;&gt;Node59</title>
<path fill="none" stroke="midnightblue" d="M1262.93,-562.789C1265.15,-546.171 1267.69,-517.892 1263.69,-494 1253.39,-432.496 1224.6,-363.879 1210.16,-332.04"/>
<polygon fill="midnightblue" stroke="midnightblue" points="1213.23,-330.333 1205.86,-322.716 1206.87,-333.263 1213.23,-330.333"/>
</g>
<!-- Node118&#45;&gt;Node119 -->
<g id="edge94" class="edge"><title>Node118&#45;&gt;Node119</title>
<path fill="none" stroke="midnightblue" d="M1239.42,-562.679C1225.59,-553.361 1207.35,-541.082 1192.13,-530.83"/>
<polygon fill="midnightblue" stroke="midnightblue" points="1193.82,-527.749 1183.57,-525.066 1189.91,-533.555 1193.82,-527.749"/>
</g>
<!-- Node119&#45;&gt;Node1 -->
<g id="edge95" class="edge"><title>Node119&#45;&gt;Node1</title>
<path fill="none" stroke="midnightblue" d="M1163.33,-494.932C1163.99,-469.076 1162.96,-412.734 1144.69,-370 1127.17,-329.027 1118.77,-316.71 1081.69,-292 960.316,-211.126 901.133,-256.538 766.688,-200 752.472,-194.022 653.477,-145.311 645.688,-132 641.199,-124.328 640.345,-119.104 645.688,-112 699.633,-40.2807 751.292,-71.484 839.688,-56 1081.3,-13.6789 1377.31,-10.3494 1482.93,-10.6474"/>
<polygon fill="midnightblue" stroke="midnightblue" points="1483.11,-14.1481 1493.13,-10.6895 1483.14,-7.14816 1483.11,-14.1481"/>
</g>
<!-- Node119&#45;&gt;Node3 -->
<g id="edge96" class="edge"><title>Node119&#45;&gt;Node3</title>
<path fill="none" stroke="midnightblue" d="M1169.05,-494.73C1182.03,-465.206 1211.91,-395.065 1230.69,-334 1237.86,-310.679 1243.77,-283.141 1247.27,-265.391"/>
<polygon fill="midnightblue" stroke="midnightblue" points="1250.71,-265.986 1249.16,-255.506 1243.84,-264.669 1250.71,-265.986"/>
</g>
<!-- Node119&#45;&gt;Node45 -->
<g id="edge98" class="edge"><title>Node119&#45;&gt;Node45</title>
<path fill="none" stroke="midnightblue" d="M1093.03,-495.385C1037.3,-484.494 960.307,-469.447 909.309,-459.48"/>
<polygon fill="midnightblue" stroke="midnightblue" points="909.956,-456.04 899.47,-457.557 908.613,-462.91 909.956,-456.04"/>
</g>
<!-- Node119&#45;&gt;Node57 -->
<g id="edge97" class="edge"><title>Node119&#45;&gt;Node57</title>
<path fill="none" stroke="midnightblue" d="M1120.14,-494.925C1091.3,-485.141 1052.43,-471.483 1018.69,-458 971.825,-439.273 918.471,-414.779 887.017,-400.002"/>
<polygon fill="midnightblue" stroke="midnightblue" points="888.148,-396.666 877.611,-395.565 885.162,-402.997 888.148,-396.666"/>
</g>
<!-- Node122&#45;&gt;Node1 -->
<g id="edge101" class="edge"><title>Node122&#45;&gt;Node1</title>
<path fill="none" stroke="midnightblue" d="M2051.99,-630.936C2108.25,-613.297 2185.69,-577.026 2185.69,-511 2185.69,-511 2185.69,-511 2185.69,-447 2185.69,-411.751 2179.34,-394.492 2204.69,-370 2260.54,-316.035 2305.09,-366.365 2375.69,-334 2403.65,-321.183 2402.4,-304.082 2430.69,-292 2525.84,-251.354 2573.35,-311.467 2660.69,-256 2692.84,-235.58 2708.69,-223.09 2708.69,-185 2708.69,-185 2708.69,-185 2708.69,-121 2708.69,-67.2443 2657.97,-72.1131 2606.69,-56 2505.66,-24.2581 1745.63,-13.5581 1562.36,-11.426"/>
<polygon fill="midnightblue" stroke="midnightblue" points="1562.39,-7.92617 1552.35,-11.3114 1562.31,-14.9257 1562.39,-7.92617"/>
</g>
<!-- Node122&#45;&gt;Node3 -->
<g id="edge103" class="edge"><title>Node122&#45;&gt;Node3</title>
<path fill="none" stroke="midnightblue" d="M1987.81,-630.83C1957,-567.586 1831.67,-313.28 1798.69,-292 1759.73,-266.868 1464.34,-253.966 1324.13,-249.204"/>
<polygon fill="midnightblue" stroke="midnightblue" points="1324.01,-245.698 1313.9,-248.862 1323.78,-252.694 1324.01,-245.698"/>
</g>
<!-- Node122&#45;&gt;Node32 -->
<g id="edge104" class="edge"><title>Node122&#45;&gt;Node32</title>
<path fill="none" stroke="midnightblue" d="M2014.12,-630.939C2042.17,-608.839 2090.69,-563.085 2090.69,-511 2090.69,-511 2090.69,-511 2090.69,-312 2090.69,-260.329 2247.85,-215.694 2329.98,-195.897"/>
<polygon fill="midnightblue" stroke="midnightblue" points="2330.93,-199.269 2339.85,-193.551 2329.31,-192.459 2330.93,-199.269"/>
</g>
<!-- Node122&#45;&gt;Node60 -->
<g id="edge102" class="edge"><title>Node122&#45;&gt;Node60</title>
<path fill="none" stroke="midnightblue" d="M2058.83,-633.563C2099.94,-625.139 2153.96,-612.01 2199.69,-594 2363.32,-529.549 2400.23,-500.847 2545.69,-402 2564.23,-389.398 2565.03,-380.783 2584.69,-370 2629.79,-345.261 2647.32,-354.05 2694.69,-334 2699.34,-332.033 2704.18,-329.708 2708.8,-327.352"/>
<polygon fill="midnightblue" stroke="midnightblue" points="2710.61,-330.352 2717.81,-322.576 2707.33,-324.167 2710.61,-330.352"/>
</g>
<!-- Node122&#45;&gt;Node118 -->
<g id="edge105" class="edge"><title>Node122&#45;&gt;Node118</title>
<path fill="none" stroke="midnightblue" d="M1930.51,-639.23C1796.54,-627.183 1487.4,-599.386 1340.72,-586.196"/>
<polygon fill="midnightblue" stroke="midnightblue" points="1340.72,-582.682 1330.44,-585.272 1340.09,-589.654 1340.72,-582.682"/>
</g>
<!-- Node153&#45;&gt;Node1 -->
<g id="edge107" class="edge"><title>Node153&#45;&gt;Node1</title>
<path fill="none" stroke="midnightblue" d="M2311.62,-292.469C2434.75,-266.042 2632.69,-218.37 2632.69,-185 2632.69,-185 2632.69,-185 2632.69,-121 2632.69,-11.1863 1761.26,-9.61393 1562.65,-10.6817"/>
<polygon fill="midnightblue" stroke="midnightblue" points="1562.36,-7.18324 1552.38,-10.7426 1562.4,-14.1831 1562.36,-7.18324"/>
</g>
<!-- Node153&#45;&gt;Node3 -->
<g id="edge109" class="edge"><title>Node153&#45;&gt;Node3</title>
<path fill="none" stroke="midnightblue" d="M2118.61,-297.394C2102.95,-295.361 2086.89,-293.469 2071.69,-292 1796.43,-265.388 1467.62,-253.283 1323.94,-248.969"/>
<polygon fill="midnightblue" stroke="midnightblue" points="1324.01,-245.47 1313.91,-248.672 1323.8,-252.467 1324.01,-245.47"/>
</g>
<!-- Node153&#45;&gt;Node12 -->
<g id="edge108" class="edge"><title>Node153&#45;&gt;Node12</title>
<path fill="none" stroke="midnightblue" d="M2313,-293.947C2392.3,-279.007 2491.69,-259.66 2494.69,-256 2519.47,-225.745 2512.84,-202.644 2494.69,-168 2487.41,-154.108 2473.68,-143.652 2460.71,-136.333"/>
<polygon fill="midnightblue" stroke="midnightblue" points="2461.98,-133.053 2451.5,-131.553 2458.76,-139.266 2461.98,-133.053"/>
</g>
<!-- Node158&#45;&gt;Node1 -->
<g id="edge111" class="edge"><title>Node158&#45;&gt;Node1</title>
<path fill="none" stroke="midnightblue" d="M2063.14,-298.955C2170.36,-282.935 2338.82,-257.662 2345.69,-256 2441.86,-232.73 2556.69,-283.945 2556.69,-185 2556.69,-185 2556.69,-185 2556.69,-121 2556.69,-19.0677 1751.87,-11.3748 1562.32,-10.9764"/>
<polygon fill="midnightblue" stroke="midnightblue" points="1562.25,-7.47637 1552.24,-10.961 1562.24,-14.4764 1562.25,-7.47637"/>
</g>
<!-- Node158&#45;&gt;Node3 -->
<g id="edge113" class="edge"><title>Node158&#45;&gt;Node3</title>
<path fill="none" stroke="midnightblue" d="M1888.48,-294.034C1883.83,-293.293 1879.21,-292.608 1874.69,-292 1676.68,-265.359 1441.05,-253.77 1324.1,-249.356"/>
<polygon fill="midnightblue" stroke="midnightblue" points="1323.96,-245.849 1313.84,-248.976 1323.7,-252.844 1323.96,-245.849"/>
</g>
<!-- Node158&#45;&gt;Node12 -->
<g id="edge112" class="edge"><title>Node158&#45;&gt;Node12</title>
<path fill="none" stroke="midnightblue" d="M2062.7,-297.938C2195.69,-275.571 2436.84,-231.23 2461.69,-200 2476.12,-181.865 2459.99,-156.299 2445.87,-139.688"/>
<polygon fill="midnightblue" stroke="midnightblue" points="2448.15,-136.984 2438.85,-131.905 2442.95,-141.674 2448.15,-136.984"/>
</g>
<!-- Node160&#45;&gt;Node1 -->
<g id="edge116" class="edge"><title>Node160&#45;&gt;Node1</title>
<path fill="none" stroke="midnightblue" d="M2966.54,-297.937C2955.53,-274.94 2935.69,-227.577 2935.69,-185 2935.69,-185 2935.69,-185 2935.69,-121 2935.69,-81.3821 2910.78,-72.3426 2874.69,-56 2813.45,-28.2677 1779.84,-14.141 1562.56,-11.4704"/>
<polygon fill="midnightblue" stroke="midnightblue" points="1562.31,-7.9671 1552.27,-11.3449 1562.22,-14.9666 1562.31,-7.9671"/>
</g>
<!-- Node160&#45;&gt;Node3 -->
<g id="edge117" class="edge"><title>Node160&#45;&gt;Node3</title>
<path fill="none" stroke="midnightblue" d="M2888.36,-297.975C2871.29,-295.612 2853.45,-293.456 2836.69,-292 2537.13,-265.974 1595.04,-251.611 1324.19,-247.946"/>
<polygon fill="midnightblue" stroke="midnightblue" points="1324.12,-244.445 1314.08,-247.81 1324.03,-251.445 1324.12,-244.445"/>
</g>
<!-- Node161&#45;&gt;Node1 -->
<g id="edge119" class="edge"><title>Node161&#45;&gt;Node1</title>
<path fill="none" stroke="midnightblue" d="M2537.04,-370.947C2569.92,-362.654 2609.45,-350.501 2642.69,-334 2670.87,-320.006 2672.41,-307.694 2699.69,-292 2734.54,-271.946 2752.82,-282.919 2782.69,-256 2809.59,-231.753 2822.69,-221.219 2822.69,-185 2822.69,-185 2822.69,-185 2822.69,-121 2822.69,-87.5366 2813.41,-73.1676 2784.69,-56 2731.05,-23.9401 1771.63,-13.2901 1562.66,-11.3459"/>
<polygon fill="midnightblue" stroke="midnightblue" points="1562.48,-7.84423 1552.44,-11.2523 1562.41,-14.8439 1562.48,-7.84423"/>
</g>
<!-- Node161&#45;&gt;Node3 -->
<g id="edge120" class="edge"><title>Node161&#45;&gt;Node3</title>
<path fill="none" stroke="midnightblue" d="M2536.67,-370.988C2573.12,-361.86 2612.93,-348.898 2623.69,-334 2634.62,-318.867 2636.67,-305.414 2623.69,-292 2578.22,-245.019 1603.05,-245.507 1324.43,-246.613"/>
<polygon fill="midnightblue" stroke="midnightblue" points="1324.01,-243.114 1314.03,-246.656 1324.04,-250.114 1324.01,-243.114"/>
</g>
<!-- Node161&#45;&gt;Node86 -->
<g id="edge121" class="edge"><title>Node161&#45;&gt;Node86</title>
<path fill="none" stroke="midnightblue" d="M2485.3,-370.973C2496.69,-360.732 2512.33,-346.672 2525.23,-335.082"/>
<polygon fill="midnightblue" stroke="midnightblue" points="2527.74,-337.529 2532.84,-328.241 2523.07,-332.322 2527.74,-337.529"/>
</g>
<!-- Node170&#45;&gt;Node1 -->
<g id="edge123" class="edge"><title>Node170&#45;&gt;Node1</title>
<path fill="none" stroke="midnightblue" d="M2731.54,-371.448C2734.63,-370.939 2737.69,-370.453 2740.69,-370 2812.98,-359.088 3013.34,-382.9 3067.69,-334 3097.11,-307.527 3086.69,-286.578 3086.69,-247 3086.69,-247 3086.69,-247 3086.69,-121 3086.69,-36.7792 2991.37,-72.0125 2908.69,-56 2773.66,-29.8502 1775.31,-14.5287 1562.51,-11.5404"/>
<polygon fill="midnightblue" stroke="midnightblue" points="1562.46,-8.03945 1552.41,-11.3996 1562.36,-15.0388 1562.46,-8.03945"/>
</g>
<!-- Node170&#45;&gt;Node3 -->
<g id="edge125" class="edge"><title>Node170&#45;&gt;Node3</title>
<path fill="none" stroke="midnightblue" d="M2716.42,-370.937C2735,-363.216 2753.86,-351.515 2764.69,-334 2774.5,-318.121 2777.69,-305.394 2764.69,-292 2739.33,-265.879 1624.44,-251.271 1324.39,-247.808"/>
<polygon fill="midnightblue" stroke="midnightblue" points="1324.1,-244.305 1314.07,-247.69 1324.02,-251.305 1324.1,-244.305"/>
</g>
<!-- Node170&#45;&gt;Node60 -->
<g id="edge124" class="edge"><title>Node170&#45;&gt;Node60</title>
<path fill="none" stroke="midnightblue" d="M2676.52,-370.973C2688.15,-359.171 2704.79,-342.297 2716.94,-329.977"/>
<polygon fill="midnightblue" stroke="midnightblue" points="2719.64,-332.216 2724.17,-322.637 2714.66,-327.301 2719.64,-332.216"/>
</g>
<!-- Node177&#45;&gt;Node1 -->
<g id="edge127" class="edge"><title>Node177&#45;&gt;Node1</title>
<path fill="none" stroke="midnightblue" d="M2907.98,-378.251C2975.33,-371.008 3065.3,-357.282 3092.69,-334 3124.08,-307.314 3124.69,-288.199 3124.69,-247 3124.69,-247 3124.69,-247 3124.69,-121 3124.69,-59.1695 3061.47,-71.7929 3001.69,-56 2859.19,-18.3546 1783.62,-12.0406 1562.4,-11.1366"/>
<polygon fill="midnightblue" stroke="midnightblue" points="1562.24,-7.63609 1552.22,-11.0965 1562.21,-14.636 1562.24,-7.63609"/>
</g>
<!-- Node177&#45;&gt;Node3 -->
<g id="edge129" class="edge"><title>Node177&#45;&gt;Node3</title>
<path fill="none" stroke="midnightblue" d="M2826.52,-370.979C2822.4,-349.7 2811.24,-309.844 2783.69,-292 2721.88,-251.969 1621.83,-247.52 1324.34,-247.05"/>
<polygon fill="midnightblue" stroke="midnightblue" points="1324.1,-243.549 1314.1,-247.034 1324.09,-250.549 1324.1,-243.549"/>
</g>
<!-- Node177&#45;&gt;Node60 -->
<g id="edge128" class="edge"><title>Node177&#45;&gt;Node60</title>
<path fill="none" stroke="midnightblue" d="M2809.72,-370.973C2793.16,-358.721 2769.2,-341.004 2752.41,-328.589"/>
<polygon fill="midnightblue" stroke="midnightblue" points="2754.49,-325.77 2744.37,-322.637 2750.33,-331.398 2754.49,-325.77"/>
</g>
<!-- Node186&#45;&gt;Node1 -->
<g id="edge131" class="edge"><title>Node186&#45;&gt;Node1</title>
<path fill="none" stroke="midnightblue" d="M981.603,-636.482C814.455,-603.893 234.509,-481.517 131.688,-334 61.0374,-232.637 34.2638,-131.99 131.688,-56 159.058,-34.6522 1258.63,-15.3623 1482.97,-11.6444"/>
<polygon fill="midnightblue" stroke="midnightblue" points="1483.05,-15.1438 1492.99,-11.4792 1482.93,-8.14471 1483.05,-15.1438"/>
</g>
<!-- Node186&#45;&gt;Node3 -->
<g id="edge132" class="edge"><title>Node186&#45;&gt;Node3</title>
<path fill="none" stroke="midnightblue" d="M1006.44,-636.37C957.947,-614.539 835.104,-552.076 779.688,-458 742.218,-394.39 731.412,-342.043 785.688,-292 813.854,-266.031 1053.73,-253.883 1177.48,-249.3"/>
<polygon fill="midnightblue" stroke="midnightblue" points="1177.76,-252.792 1187.63,-248.931 1177.51,-245.797 1177.76,-252.792"/>
</g>
<!-- Node186&#45;&gt;Node50 -->
<g id="edge133" class="edge"><title>Node186&#45;&gt;Node50</title>
<path fill="none" stroke="midnightblue" d="M1022.48,-636.46C1012.58,-615.585 988.688,-560.088 988.688,-511 988.688,-511 988.688,-511 988.688,-447 988.688,-406.059 981.122,-358.533 976.396,-332.838"/>
<polygon fill="midnightblue" stroke="midnightblue" points="979.769,-331.84 974.462,-322.671 972.892,-333.149 979.769,-331.84"/>
</g>
<!-- Node186&#45;&gt;Node65 -->
<g id="edge134" class="edge"><title>Node186&#45;&gt;Node65</title>
<path fill="none" stroke="midnightblue" d="M1028.35,-636.416C1035.18,-601.168 1061.22,-466.806 1071.99,-411.257"/>
<polygon fill="midnightblue" stroke="midnightblue" points="1075.46,-411.734 1073.93,-401.25 1068.59,-410.402 1075.46,-411.734"/>
</g>
<!-- Node186&#45;&gt;Node118 -->
<g id="edge135" class="edge"><title>Node186&#45;&gt;Node118</title>
<path fill="none" stroke="midnightblue" d="M1057.28,-636.372C1093.64,-626.117 1155.14,-608.77 1201.02,-595.829"/>
<polygon fill="midnightblue" stroke="midnightblue" points="1202.18,-599.139 1210.85,-593.056 1200.28,-592.402 1202.18,-599.139"/>
</g>
</g>
</svg>
        <g id="navigator" transform="translate(0 0)" fill="#404254">
                <rect fill="#f2f5e9" fill-opacity="0.5" stroke="#606060" stroke-width=".5" x="0" y="0" width="60" height="60"/>
                <use id="zoomplus" xlink:href="#zoomPlus" x="17" y="9" onmousedown="handleZoom(evt,'in')"/>
                <use id="zoomminus" xlink:href="#zoomMin" x="42" y="9" onmousedown="handleZoom(evt,'out')"/>
                <use id="reset" xlink:href="#resetDef" x="30" y="36" onmousedown="handleReset()"/>
                <g id="arrowUp" xlink:href="#dirArrow" transform="translate(30 24)" onmousedown="handlePan(0,-1)">
                  <use xlink:href="#rim" fill="#404040">
                        <set attributeName="fill" to="#808080" begin="arrowUp.mouseover" end="arrowUp.mouseout"/>
                  </use>
                  <path fill="none" stroke="white" stroke-width="1.5" d="M0,-3.0v7 M-2.5,-0.5L0,-3.0L2.5,-0.5"/>
                </g>
                <g id="arrowRight" xlink:href="#dirArrow" transform="rotate(90) translate(36 -43)" onmousedown="handlePan(1,0)">
                  <use xlink:href="#rim" fill="#404040">
                        <set attributeName="fill" to="#808080" begin="arrowRight.mouseover" end="arrowRight.mouseout"/>
                  </use>
                  <path fill="none" stroke="white" stroke-width="1.5" d="M0,-3.0v7 M-2.5,-0.5L0,-3.0L2.5,-0.5"/>
                </g>
                <g id="arrowDown" xlink:href="#dirArrow" transform="rotate(180) translate(-30 -48)" onmousedown="handlePan(0,1)">
                  <use xlink:href="#rim" fill="#404040">
                        <set attributeName="fill" to="#808080" begin="arrowDown.mouseover" end="arrowDown.mouseout"/>
                  </use>
                  <path fill="none" stroke="white" stroke-width="1.5" d="M0,-3.0v7 M-2.5,-0.5L0,-3.0L2.5,-0.5"/>
                </g>
                <g id="arrowLeft" xlink:href="#dirArrow" transform="rotate(270) translate(-36 17)" onmousedown="handlePan(-1,0)">
                  <use xlink:href="#rim" fill="#404040">
                        <set attributeName="fill" to="#808080" begin="arrowLeft.mouseover" end="arrowLeft.mouseout"/>
                  </use>
                  <path fill="none" stroke="white" stroke-width="1.5" d="M0,-3.0v7 M-2.5,-0.5L0,-3.0L2.5,-0.5"/>
                </g>
        </g>
        <svg viewBox="0 0 15 15" width="100%" height="30px" preserveAspectRatio="xMaxYMin meet">
         <g id="arrow_out" transform="scale(0.3 0.3)">
          <a xlink:href="testIndexedDigitalSurface_8cpp__incl_org.svg" target="_base">
           <rect id="button" ry="5" rx="5" y="6" x="6" height="38" width="38"
                fill="#f2f5e9" fill-opacity="0.5" stroke="#606060" stroke-width="1.0"/>
           <path id="arrow"
             d="M 11.500037,31.436501 C 11.940474,20.09759 22.043105,11.32322 32.158766,21.979434 L 37.068811,17.246167 C 37.068811,17.246167 37.088388,32 37.088388,32 L 22.160133,31.978069 C 22.160133,31.978069 26.997745,27.140456 26.997745,27.140456 C 18.528582,18.264221 13.291696,25.230495 11.500037,31.436501 z"
             style="fill:#404040;"/>
          </a>
         </g>
        </svg>
</svg>
