<?xml version="1.0" encoding="UTF-8" standalone="no"?>
<!DOCTYPE svg PUBLIC "-//W3C//DTD SVG 1.1//EN"
 "http://www.w3.org/Graphics/SVG/1.1/DTD/svg11.dtd">
<!-- Generated by graphviz version 2.38.0 (20140413.2041)
 -->
<!-- Title: testArithmeticDSS&#45;benchmark.cpp Pages: 1 -->
<svg width="3127pt" height="755pt"
 viewBox="0.00 0.00 3127.40 755.00" xmlns="http://www.w3.org/2000/svg" xmlns:xlink="http://www.w3.org/1999/xlink">
<g id="graph0" class="graph" transform="scale(1 1) rotate(0) translate(4 751)">
<title>testArithmeticDSS&#45;benchmark.cpp</title>
<polygon fill="white" stroke="none" points="-4,4 -4,-751 3123.4,-751 3123.4,4 -4,4"/>
<!-- Node0 -->
<g id="node1" class="node"><title>Node0</title>
<polygon fill="#bfbfbf" stroke="black" points="1298.4,-727.5 1298.4,-746.5 1482.4,-746.5 1482.4,-727.5 1298.4,-727.5"/>
<text text-anchor="middle" x="1390.4" y="-734.5" font-family="FreeSans" font-size="10.00">testArithmeticDSS&#45;benchmark.cpp</text>
</g>
<!-- Node1 -->
<g id="node2" class="node"><title>Node1</title>
<polygon fill="white" stroke="#bfbfbf" points="600.903,-112.5 600.903,-131.5 647.903,-131.5 647.903,-112.5 600.903,-112.5"/>
<text text-anchor="middle" x="624.403" y="-119.5" font-family="FreeSans" font-size="10.00">cstdlib</text>
</g>
<!-- Node0&#45;&gt;Node1 -->
<g id="edge1" class="edge"><title>Node0&#45;&gt;Node1</title>
<path fill="none" stroke="midnightblue" d="M1298.01,-735.488C1061.97,-733.679 449.431,-725.664 364.403,-691 314.127,-670.504 273.403,-663.794 273.403,-609.5 273.403,-609.5 273.403,-609.5 273.403,-412 273.403,-291.54 295.715,-241.174 391.403,-168 460.37,-115.261 498.326,-149.31 583.403,-132 585.753,-131.522 588.176,-131.018 590.615,-130.503"/>
<polygon fill="midnightblue" stroke="midnightblue" points="591.541,-133.884 600.581,-128.359 590.069,-127.04 591.541,-133.884"/>
</g>
<!-- Node2 -->
<g id="node3" class="node"><title>Node2</title>
<polygon fill="white" stroke="#bfbfbf" points="1585.9,-0.5 1585.9,-19.5 1644.9,-19.5 1644.9,-0.5 1585.9,-0.5"/>
<text text-anchor="middle" x="1615.4" y="-7.5" font-family="FreeSans" font-size="10.00">iostream</text>
</g>
<!-- Node0&#45;&gt;Node2 -->
<g id="edge2" class="edge"><title>Node0&#45;&gt;Node2</title>
<path fill="none" stroke="midnightblue" d="M1482.52,-735.231C1747.75,-732.658 2509.94,-722.642 2757.4,-691 2920.99,-670.083 3119.4,-774.416 3119.4,-609.5 3119.4,-609.5 3119.4,-609.5 3119.4,-121 3119.4,-74.4945 3081.07,-71.9881 3037.4,-56 2904.68,-7.4101 1872.56,-9.73476 1655.41,-10.7723"/>
<polygon fill="midnightblue" stroke="midnightblue" points="1655.1,-7.27366 1645.12,-10.8234 1655.14,-14.2736 1655.1,-7.27366"/>
</g>
<!-- Node3 -->
<g id="node4" class="node"><title>Node3</title>
<g id="a_node4"><a xlink:href="Common_8h_source.html" target="_top" xlink:title="DGtal/base/Common.h">
<polygon fill="white" stroke="black" points="1450.4,-235.5 1450.4,-254.5 1576.4,-254.5 1576.4,-235.5 1450.4,-235.5"/>
<text text-anchor="middle" x="1513.4" y="-242.5" font-family="FreeSans" font-size="10.00">DGtal/base/Common.h</text>
</a>
</g>
</g>
<!-- Node0&#45;&gt;Node3 -->
<g id="edge3" class="edge"><title>Node0&#45;&gt;Node3</title>
<path fill="none" stroke="midnightblue" d="M1298.23,-734.395C1114.17,-730.622 707.053,-719.279 570.403,-691 467.887,-669.785 349.403,-714.188 349.403,-609.5 349.403,-609.5 349.403,-609.5 349.403,-356 349.403,-290.207 418.641,-307.22 482.403,-291 663.826,-244.849 1236.06,-244.058 1440.18,-245.326"/>
<polygon fill="midnightblue" stroke="midnightblue" points="1440.17,-248.825 1450.19,-245.391 1440.22,-241.826 1440.17,-248.825"/>
</g>
<!-- Node42 -->
<g id="node27" class="node"><title>Node42</title>
<g id="a_node27"><a xlink:href="CPointPredicate_8h_source.html" target="_top" xlink:title="DGtal/kernel/CPointPredicate.h">
<polygon fill="white" stroke="black" points="2919.4,-347.5 2919.4,-366.5 3083.4,-366.5 3083.4,-347.5 2919.4,-347.5"/>
<text text-anchor="middle" x="3001.4" y="-354.5" font-family="FreeSans" font-size="10.00">DGtal/kernel/CPointPredicate.h</text>
</a>
</g>
</g>
<!-- Node0&#45;&gt;Node42 -->
<g id="edge48" class="edge"><title>Node0&#45;&gt;Node42</title>
<path fill="none" stroke="midnightblue" d="M1482.7,-736.642C1677.1,-737.053 2142.73,-733.082 2530.4,-691 2725.95,-669.773 2965.4,-806.197 2965.4,-609.5 2965.4,-609.5 2965.4,-609.5 2965.4,-473.5 2965.4,-437.599 2981.45,-398.148 2992.12,-375.893"/>
<polygon fill="midnightblue" stroke="midnightblue" points="2995.37,-377.208 2996.7,-366.696 2989.11,-374.088 2995.37,-377.208"/>
</g>
<!-- Node45 -->
<g id="node29" class="node"><title>Node45</title>
<g id="a_node29"><a xlink:href="IntegerComputer_8h_source.html" target="_top" xlink:title="DGtal/arithmetic/Integer\lComputer.h">
<polygon fill="white" stroke="black" points="1008.4,-526.5 1008.4,-556.5 1140.4,-556.5 1140.4,-526.5 1008.4,-526.5"/>
<text text-anchor="start" x="1016.4" y="-544.5" font-family="FreeSans" font-size="10.00">DGtal/arithmetic/Integer</text>
<text text-anchor="middle" x="1074.4" y="-533.5" font-family="FreeSans" font-size="10.00">Computer.h</text>
</a>
</g>
</g>
<!-- Node0&#45;&gt;Node45 -->
<g id="edge54" class="edge"><title>Node0&#45;&gt;Node45</title>
<path fill="none" stroke="midnightblue" d="M1376.42,-727.436C1329.07,-698.446 1174.04,-603.511 1106.42,-562.105"/>
<polygon fill="midnightblue" stroke="midnightblue" points="1107.83,-558.867 1097.48,-556.63 1104.18,-564.837 1107.83,-558.867"/>
</g>
<!-- Node70 -->
<g id="node38" class="node"><title>Node70</title>
<g id="a_node38"><a xlink:href="SternBrocot_8h_source.html" target="_top" xlink:title="DGtal/arithmetic/SternBrocot.h">
<polygon fill="white" stroke="black" points="1980.9,-532 1980.9,-551 2145.9,-551 2145.9,-532 1980.9,-532"/>
<text text-anchor="middle" x="2063.4" y="-539" font-family="FreeSans" font-size="10.00">DGtal/arithmetic/SternBrocot.h</text>
</a>
</g>
</g>
<!-- Node0&#45;&gt;Node70 -->
<g id="edge88" class="edge"><title>Node0&#45;&gt;Node70</title>
<path fill="none" stroke="midnightblue" d="M1420.19,-727.436C1528.44,-696.312 1901.07,-589.175 2023.83,-553.878"/>
<polygon fill="midnightblue" stroke="midnightblue" points="2024.94,-557.202 2033.58,-551.075 2023,-550.474 2024.94,-557.202"/>
</g>
<!-- Node77 -->
<g id="node41" class="node"><title>Node77</title>
<g id="a_node41"><a xlink:href="Pattern_8h_source.html" target="_top" xlink:title="DGtal/arithmetic/Pattern.h">
<polygon fill="white" stroke="black" points="1319.4,-599 1319.4,-618 1461.4,-618 1461.4,-599 1319.4,-599"/>
<text text-anchor="middle" x="1390.4" y="-606" font-family="FreeSans" font-size="10.00">DGtal/arithmetic/Pattern.h</text>
</a>
</g>
</g>
<!-- Node0&#45;&gt;Node77 -->
<g id="edge99" class="edge"><title>Node0&#45;&gt;Node77</title>
<path fill="none" stroke="midnightblue" d="M1390.4,-727.305C1390.4,-706.994 1390.4,-656.053 1390.4,-628.277"/>
<polygon fill="midnightblue" stroke="midnightblue" points="1393.9,-628.256 1390.4,-618.256 1386.9,-628.256 1393.9,-628.256"/>
</g>
<!-- Node81 -->
<g id="node44" class="node"><title>Node81</title>
<g id="a_node44"><a xlink:href="StandardDSLQ0_8h_source.html" target="_top" xlink:title="DGtal/arithmetic/Standard\lDSLQ0.h">
<polygon fill="white" stroke="black" points="579.903,-660.5 579.903,-690.5 722.903,-690.5 722.903,-660.5 579.903,-660.5"/>
<text text-anchor="start" x="587.903" y="-678.5" font-family="FreeSans" font-size="10.00">DGtal/arithmetic/Standard</text>
<text text-anchor="middle" x="651.403" y="-667.5" font-family="FreeSans" font-size="10.00">DSLQ0.h</text>
</a>
</g>
</g>
<!-- Node0&#45;&gt;Node81 -->
<g id="edge111" class="edge"><title>Node0&#45;&gt;Node81</title>
<path fill="none" stroke="midnightblue" d="M1298.3,-728.585C1152.79,-716.869 872.007,-694.262 733.193,-683.085"/>
<polygon fill="midnightblue" stroke="midnightblue" points="733.291,-679.582 723.042,-682.268 732.729,-686.559 733.291,-679.582"/>
</g>
<!-- Node90 -->
<g id="node47" class="node"><title>Node90</title>
<g id="a_node47"><a xlink:href="ArithmeticalDSSComputer_8h_source.html" target="_top" xlink:title="Header file for module ArithmeticalDSSComputer.cpp. ">
<polygon fill="white" stroke="red" points="2366.9,-660.5 2366.9,-690.5 2521.9,-690.5 2521.9,-660.5 2366.9,-660.5"/>
<text text-anchor="start" x="2374.9" y="-678.5" font-family="FreeSans" font-size="10.00">DGtal/geometry/curves</text>
<text text-anchor="middle" x="2444.4" y="-667.5" font-family="FreeSans" font-size="10.00">/ArithmeticalDSSComputer.h</text>
</a>
</g>
</g>
<!-- Node0&#45;&gt;Node90 -->
<g id="edge120" class="edge"><title>Node0&#45;&gt;Node90</title>
<path fill="none" stroke="midnightblue" d="M1482.55,-730.798C1683.71,-719.443 2159.84,-692.564 2356.78,-681.446"/>
<polygon fill="midnightblue" stroke="midnightblue" points="2357.01,-684.939 2366.8,-680.881 2356.62,-677.95 2357.01,-684.939"/>
</g>
<!-- Node3&#45;&gt;Node2 -->
<g id="edge4" class="edge"><title>Node3&#45;&gt;Node2</title>
<path fill="none" stroke="midnightblue" d="M1501.19,-235.236C1491.05,-227.143 1477.36,-214.112 1471.4,-199 1466.35,-186.182 1466.41,-180.84 1471.4,-168 1496.28,-104.086 1560.67,-50.3908 1594.28,-25.6436"/>
<polygon fill="midnightblue" stroke="midnightblue" points="1596.44,-28.4029 1602.5,-19.7161 1592.34,-22.7244 1596.44,-28.4029"/>
</g>
<!-- Node4 -->
<g id="node5" class="node"><title>Node4</title>
<polygon fill="white" stroke="#bfbfbf" points="1738.9,-174 1738.9,-193 1801.9,-193 1801.9,-174 1738.9,-174"/>
<text text-anchor="middle" x="1770.4" y="-181" font-family="FreeSans" font-size="10.00">exception</text>
</g>
<!-- Node3&#45;&gt;Node4 -->
<g id="edge5" class="edge"><title>Node3&#45;&gt;Node4</title>
<path fill="none" stroke="midnightblue" d="M1559.8,-235.424C1602.76,-227.173 1668.26,-213.798 1724.4,-199 1727.83,-198.098 1731.37,-197.098 1734.91,-196.057"/>
<polygon fill="midnightblue" stroke="midnightblue" points="1736.19,-199.325 1744.74,-193.064 1734.15,-192.629 1736.19,-199.325"/>
</g>
<!-- Node5 -->
<g id="node6" class="node"><title>Node5</title>
<polygon fill="white" stroke="#bfbfbf" points="2390.4,-112.5 2390.4,-131.5 2452.4,-131.5 2452.4,-112.5 2390.4,-112.5"/>
<text text-anchor="middle" x="2421.4" y="-119.5" font-family="FreeSans" font-size="10.00">algorithm</text>
</g>
<!-- Node3&#45;&gt;Node5 -->
<g id="edge6" class="edge"><title>Node3&#45;&gt;Node5</title>
<path fill="none" stroke="midnightblue" d="M1576.49,-242.85C1774.2,-238.98 2370.57,-225.18 2402.4,-199 2419.03,-185.33 2422.36,-159.519 2422.48,-141.801"/>
<polygon fill="midnightblue" stroke="midnightblue" points="2425.98,-141.67 2422.22,-131.765 2418.98,-141.854 2425.98,-141.67"/>
</g>
<!-- Node6 -->
<g id="node7" class="node"><title>Node6</title>
<polygon fill="white" stroke="#bfbfbf" points="1820.4,-174 1820.4,-193 1922.4,-193 1922.4,-174 1820.4,-174"/>
<text text-anchor="middle" x="1871.4" y="-181" font-family="FreeSans" font-size="10.00">boost/version.hpp</text>
</g>
<!-- Node3&#45;&gt;Node6 -->
<g id="edge7" class="edge"><title>Node3&#45;&gt;Node6</title>
<path fill="none" stroke="midnightblue" d="M1576.53,-235.982C1636.83,-227.959 1730.16,-214.589 1810.4,-199 1815.95,-197.923 1821.75,-196.687 1827.48,-195.401"/>
<polygon fill="midnightblue" stroke="midnightblue" points="1828.68,-198.716 1837.63,-193.055 1827.1,-191.895 1828.68,-198.716"/>
</g>
<!-- Node7 -->
<g id="node8" class="node"><title>Node7</title>
<polygon fill="white" stroke="#bfbfbf" points="491.903,-174 491.903,-193 630.903,-193 630.903,-174 491.903,-174"/>
<text text-anchor="middle" x="561.403" y="-181" font-family="FreeSans" font-size="10.00">boost/concept_check.hpp</text>
</g>
<!-- Node3&#45;&gt;Node7 -->
<g id="edge8" class="edge"><title>Node3&#45;&gt;Node7</title>
<path fill="none" stroke="midnightblue" d="M1450.37,-243.61C1306.24,-242.095 941.744,-234.726 639.403,-199 630.459,-197.943 620.995,-196.48 611.86,-194.887"/>
<polygon fill="midnightblue" stroke="midnightblue" points="612.196,-191.391 601.731,-193.049 610.945,-198.279 612.196,-191.391"/>
</g>
<!-- Node8 -->
<g id="node9" class="node"><title>Node8</title>
<polygon fill="white" stroke="#bfbfbf" points="1940.9,-174 1940.9,-193 2069.9,-193 2069.9,-174 1940.9,-174"/>
<text text-anchor="middle" x="2005.4" y="-181" font-family="FreeSans" font-size="10.00">boost/static_assert.hpp</text>
</g>
<!-- Node3&#45;&gt;Node8 -->
<g id="edge9" class="edge"><title>Node3&#45;&gt;Node8</title>
<path fill="none" stroke="midnightblue" d="M1576.65,-238.902C1658.71,-231.897 1806.2,-217.97 1931.4,-199 1939.14,-197.828 1947.3,-196.413 1955.26,-194.932"/>
<polygon fill="midnightblue" stroke="midnightblue" points="1956.02,-198.349 1965.19,-193.035 1954.71,-191.474 1956.02,-198.349"/>
</g>
<!-- Node9 -->
<g id="node10" class="node"><title>Node9</title>
<polygon fill="white" stroke="#bfbfbf" points="2087.9,-174 2087.9,-193 2226.9,-193 2226.9,-174 2087.9,-174"/>
<text text-anchor="middle" x="2157.4" y="-181" font-family="FreeSans" font-size="10.00">boost/concept/assert.hpp</text>
</g>
<!-- Node3&#45;&gt;Node9 -->
<g id="edge10" class="edge"><title>Node3&#45;&gt;Node9</title>
<path fill="none" stroke="midnightblue" d="M1576.75,-241.067C1681.48,-235.745 1897.18,-222.785 2078.4,-199 2087.14,-197.853 2096.38,-196.388 2105.34,-194.833"/>
<polygon fill="midnightblue" stroke="midnightblue" points="2106.07,-198.258 2115.3,-193.05 2104.84,-191.368 2106.07,-198.258"/>
</g>
<!-- Node10 -->
<g id="node11" class="node"><title>Node10</title>
<polygon fill="white" stroke="#bfbfbf" points="962.403,-174 962.403,-193 1110.4,-193 1110.4,-174 962.403,-174"/>
<text text-anchor="middle" x="1036.4" y="-181" font-family="FreeSans" font-size="10.00">boost/concept/requires.hpp</text>
</g>
<!-- Node3&#45;&gt;Node10 -->
<g id="edge11" class="edge"><title>Node3&#45;&gt;Node10</title>
<path fill="none" stroke="midnightblue" d="M1450.32,-237.003C1347.33,-225.548 1151.3,-203.604 1119.4,-199 1110.67,-197.74 1101.45,-196.269 1092.45,-194.756"/>
<polygon fill="midnightblue" stroke="midnightblue" points="1092.87,-191.277 1082.42,-193.04 1091.69,-198.177 1092.87,-191.277"/>
</g>
<!-- Node11 -->
<g id="node12" class="node"><title>Node11</title>
<polygon fill="white" stroke="#bfbfbf" points="1128.4,-168.5 1128.4,-198.5 1248.4,-198.5 1248.4,-168.5 1128.4,-168.5"/>
<text text-anchor="start" x="1136.4" y="-186.5" font-family="FreeSans" font-size="10.00">boost/iterator/iterator</text>
<text text-anchor="middle" x="1188.4" y="-175.5" font-family="FreeSans" font-size="10.00">_concepts.hpp</text>
</g>
<!-- Node3&#45;&gt;Node11 -->
<g id="edge12" class="edge"><title>Node3&#45;&gt;Node11</title>
<path fill="none" stroke="midnightblue" d="M1461.12,-235.425C1411.36,-227.131 1334.1,-213.919 1258.6,-199.393"/>
<polygon fill="midnightblue" stroke="midnightblue" points="1258.93,-195.892 1248.45,-197.429 1257.6,-202.764 1258.93,-195.892"/>
</g>
<!-- Node12 -->
<g id="node13" class="node"><title>Node12</title>
<polygon fill="white" stroke="#bfbfbf" points="1265.9,-174 1265.9,-193 1424.9,-193 1424.9,-174 1265.9,-174"/>
<text text-anchor="middle" x="1345.4" y="-181" font-family="FreeSans" font-size="10.00">boost/concept_archetype.hpp</text>
</g>
<!-- Node3&#45;&gt;Node12 -->
<g id="edge13" class="edge"><title>Node3&#45;&gt;Node12</title>
<path fill="none" stroke="midnightblue" d="M1489.33,-235.475C1460.39,-225.225 1411.64,-207.959 1379,-196.399"/>
<polygon fill="midnightblue" stroke="midnightblue" points="1380.02,-193.048 1369.43,-193.009 1377.69,-199.647 1380.02,-193.048"/>
</g>
<!-- Node13 -->
<g id="node14" class="node"><title>Node13</title>
<polygon fill="white" stroke="#bfbfbf" points="1991.9,-112.5 1991.9,-131.5 2038.9,-131.5 2038.9,-112.5 1991.9,-112.5"/>
<text text-anchor="middle" x="2015.4" y="-119.5" font-family="FreeSans" font-size="10.00">cmath</text>
</g>
<!-- Node3&#45;&gt;Node13 -->
<g id="edge14" class="edge"><title>Node3&#45;&gt;Node13</title>
<path fill="none" stroke="midnightblue" d="M1573.83,-235.48C1609.41,-228.843 1654.53,-217.545 1691.4,-199 1710.88,-189.208 1709.5,-176.891 1729.4,-168 1814.37,-130.036 1926.04,-123.448 1981.34,-122.709"/>
<polygon fill="midnightblue" stroke="midnightblue" points="1981.65,-126.207 1991.62,-122.632 1981.6,-119.207 1981.65,-126.207"/>
</g>
<!-- Node14 -->
<g id="node15" class="node"><title>Node14</title>
<polygon fill="white" stroke="#bfbfbf" points="1480.9,-174 1480.9,-193 1529.9,-193 1529.9,-174 1480.9,-174"/>
<text text-anchor="middle" x="1505.4" y="-181" font-family="FreeSans" font-size="10.00">stdio.h</text>
</g>
<!-- Node3&#45;&gt;Node14 -->
<g id="edge15" class="edge"><title>Node3&#45;&gt;Node14</title>
<path fill="none" stroke="midnightblue" d="M1512.26,-235.475C1511.13,-227.08 1509.37,-213.981 1507.91,-203.163"/>
<polygon fill="midnightblue" stroke="midnightblue" points="1511.35,-202.453 1506.55,-193.009 1504.41,-203.386 1511.35,-202.453"/>
</g>
<!-- Node15 -->
<g id="node16" class="node"><title>Node15</title>
<g id="a_node16"><a xlink:href="Config_8h_source.html" target="_top" xlink:title="DGtal/base/Config.h">
<polygon fill="white" stroke="black" points="152.403,-56.5 152.403,-75.5 264.403,-75.5 264.403,-56.5 152.403,-56.5"/>
<text text-anchor="middle" x="208.403" y="-63.5" font-family="FreeSans" font-size="10.00">DGtal/base/Config.h</text>
</a>
</g>
</g>
<!-- Node3&#45;&gt;Node15 -->
<g id="edge16" class="edge"><title>Node3&#45;&gt;Node15</title>
<path fill="none" stroke="midnightblue" d="M1449.99,-236.836C1443.38,-236.175 1436.76,-235.549 1430.4,-235 1306.61,-224.3 987.44,-245.973 872.403,-199 852.855,-191.018 855.772,-176.406 836.403,-168 700.252,-108.912 650.878,-155.952 504.403,-132 456.769,-124.211 325.369,-94.1984 254.742,-77.8188"/>
<polygon fill="midnightblue" stroke="midnightblue" points="255.312,-74.3582 244.78,-75.5053 253.729,-81.1768 255.312,-74.3582"/>
</g>
<!-- Node17 -->
<g id="node18" class="node"><title>Node17</title>
<g id="a_node18"><a xlink:href="Trace_8h_source.html" target="_top" xlink:title="DGtal/base/Trace.h">
<polygon fill="white" stroke="red" points="99.9032,-174 99.9032,-193 206.903,-193 206.903,-174 99.9032,-174"/>
<text text-anchor="middle" x="153.403" y="-181" font-family="FreeSans" font-size="10.00">DGtal/base/Trace.h</text>
</a>
</g>
</g>
<!-- Node3&#45;&gt;Node17 -->
<g id="edge19" class="edge"><title>Node3&#45;&gt;Node17</title>
<path fill="none" stroke="midnightblue" d="M1450.35,-241.257C1289.2,-234.245 849.112,-215.084 482.403,-199 390.233,-194.957 283.538,-190.25 217.252,-187.322"/>
<polygon fill="midnightblue" stroke="midnightblue" points="217.114,-183.813 206.969,-186.868 216.805,-190.806 217.114,-183.813"/>
</g>
<!-- Node23 -->
<g id="node19" class="node"><title>Node23</title>
<g id="a_node19"><a xlink:href="TraceWriterTerm_8h_source.html" target="_top" xlink:title="DGtal/base/TraceWriterTerm.h">
<polygon fill="white" stroke="red" points="234.903,-112.5 234.903,-131.5 391.903,-131.5 391.903,-112.5 234.903,-112.5"/>
<text text-anchor="middle" x="313.403" y="-119.5" font-family="FreeSans" font-size="10.00">DGtal/base/TraceWriterTerm.h</text>
</a>
</g>
</g>
<!-- Node3&#45;&gt;Node23 -->
<g id="edge30" class="edge"><title>Node3&#45;&gt;Node23</title>
<path fill="none" stroke="midnightblue" d="M1449.99,-236.816C1443.38,-236.159 1436.76,-235.539 1430.4,-235 1300.4,-223.965 967.508,-242.209 844.403,-199 821.832,-191.077 822.854,-176.258 800.403,-168 635.371,-107.301 581.471,-148.469 406.403,-132 405.086,-131.876 403.758,-131.751 402.422,-131.625"/>
<polygon fill="midnightblue" stroke="midnightblue" points="402.332,-128.101 392.046,-130.64 401.671,-135.069 402.332,-128.101"/>
</g>
<!-- Node24 -->
<g id="node20" class="node"><title>Node24</title>
<g id="a_node20"><a xlink:href="Assert_8h_source.html" target="_top" xlink:title="DGtal/base/Assert.h">
<polygon fill="white" stroke="red" points="26.9032,-112.5 26.9032,-131.5 139.903,-131.5 139.903,-112.5 26.9032,-112.5"/>
<text text-anchor="middle" x="83.4032" y="-119.5" font-family="FreeSans" font-size="10.00">DGtal/base/Assert.h</text>
</a>
</g>
</g>
<!-- Node3&#45;&gt;Node24 -->
<g id="edge34" class="edge"><title>Node3&#45;&gt;Node24</title>
<path fill="none" stroke="midnightblue" d="M1450.16,-244.307C1180.78,-245.325 140.511,-246.177 90.4032,-199 75.2088,-184.694 76.061,-159.224 78.9663,-141.742"/>
<polygon fill="midnightblue" stroke="midnightblue" points="82.4647,-142.102 81.024,-131.605 75.6046,-140.709 82.4647,-142.102"/>
</g>
<!-- Node27 -->
<g id="node21" class="node"><title>Node27</title>
<g id="a_node21"><a xlink:href="TraceWriterFile_8h_source.html" target="_top" xlink:title="DGtal/base/TraceWriterFile.h">
<polygon fill="white" stroke="red" points="281.903,-56.5 281.903,-75.5 430.903,-75.5 430.903,-56.5 281.903,-56.5"/>
<text text-anchor="middle" x="356.403" y="-63.5" font-family="FreeSans" font-size="10.00">DGtal/base/TraceWriterFile.h</text>
</a>
</g>
</g>
<!-- Node3&#45;&gt;Node27 -->
<g id="edge31" class="edge"><title>Node3&#45;&gt;Node27</title>
<path fill="none" stroke="midnightblue" d="M1449.98,-236.891C1443.37,-236.22 1436.75,-235.576 1430.4,-235 1211.61,-215.155 1149.77,-255.257 937.403,-199 906.464,-190.804 903.107,-177.036 872.403,-168 751.616,-132.452 714.837,-156.846 591.403,-132 519.837,-117.594 438.046,-93.0996 392.284,-78.6465"/>
<polygon fill="midnightblue" stroke="midnightblue" points="393.13,-75.2428 382.54,-75.5482 391.009,-81.9138 393.13,-75.2428"/>
</g>
<!-- Node28 -->
<g id="node22" class="node"><title>Node28</title>
<g id="a_node22"><a xlink:href="ConceptUtils_8h_source.html" target="_top" xlink:title="DGtal/base/ConceptUtils.h">
<polygon fill="white" stroke="black" points="648.903,-174 648.903,-193 791.903,-193 791.903,-174 648.903,-174"/>
<text text-anchor="middle" x="720.403" y="-181" font-family="FreeSans" font-size="10.00">DGtal/base/ConceptUtils.h</text>
</a>
</g>
</g>
<!-- Node3&#45;&gt;Node28 -->
<g id="edge35" class="edge"><title>Node3&#45;&gt;Node28</title>
<path fill="none" stroke="midnightblue" d="M1449.99,-236.792C1443.38,-236.14 1436.76,-235.528 1430.4,-235 1153.56,-212.019 1082.45,-230.139 806.403,-199 796.36,-197.867 785.707,-196.339 775.446,-194.699"/>
<polygon fill="midnightblue" stroke="midnightblue" points="775.789,-191.208 765.352,-193.032 774.648,-198.115 775.789,-191.208"/>
</g>
<!-- Node29 -->
<g id="node23" class="node"><title>Node29</title>
<g id="a_node23"><a xlink:href="BasicTypes_8h_source.html" target="_top" xlink:title="DGtal/base/BasicTypes.h">
<polygon fill="white" stroke="red" points="1548.4,-174 1548.4,-193 1682.4,-193 1682.4,-174 1548.4,-174"/>
<text text-anchor="middle" x="1615.4" y="-181" font-family="FreeSans" font-size="10.00">DGtal/base/BasicTypes.h</text>
</a>
</g>
</g>
<!-- Node3&#45;&gt;Node29 -->
<g id="edge37" class="edge"><title>Node3&#45;&gt;Node29</title>
<path fill="none" stroke="midnightblue" d="M1528.02,-235.475C1544.76,-225.711 1572.41,-209.581 1592.12,-198.081"/>
<polygon fill="midnightblue" stroke="midnightblue" points="1593.94,-201.071 1600.82,-193.009 1590.41,-195.025 1593.94,-201.071"/>
</g>
<!-- Node32 -->
<g id="node24" class="node"><title>Node32</title>
<g id="a_node24"><a xlink:href="BasicFunctors_8h_source.html" target="_top" xlink:title="DGtal/base/BasicFunctors.h">
<polygon fill="white" stroke="red" points="2245.4,-174 2245.4,-193 2393.4,-193 2393.4,-174 2245.4,-174"/>
<text text-anchor="middle" x="2319.4" y="-181" font-family="FreeSans" font-size="10.00">DGtal/base/BasicFunctors.h</text>
</a>
</g>
</g>
<!-- Node3&#45;&gt;Node32 -->
<g id="edge40" class="edge"><title>Node3&#45;&gt;Node32</title>
<path fill="none" stroke="midnightblue" d="M1576.59,-242.213C1701.28,-238.308 1987.22,-227.014 2226.4,-199 2236.21,-197.851 2246.62,-196.315 2256.8,-194.673"/>
<polygon fill="midnightblue" stroke="midnightblue" points="2257.59,-198.091 2266.88,-193.005 2256.44,-191.185 2257.59,-198.091"/>
</g>
<!-- Node40 -->
<g id="node25" class="node"><title>Node40</title>
<g id="a_node25"><a xlink:href="BasicArchetypes_8h_source.html" target="_top" xlink:title="DGtal/base/BasicArchetypes.h">
<polygon fill="white" stroke="black" points="1093.9,-56.5 1093.9,-75.5 1254.9,-75.5 1254.9,-56.5 1093.9,-56.5"/>
<text text-anchor="middle" x="1174.4" y="-63.5" font-family="FreeSans" font-size="10.00">DGtal/base/BasicArchetypes.h</text>
</a>
</g>
</g>
<!-- Node3&#45;&gt;Node40 -->
<g id="edge44" class="edge"><title>Node3&#45;&gt;Node40</title>
<path fill="none" stroke="midnightblue" d="M1449.98,-236.907C1443.37,-236.233 1436.75,-235.584 1430.4,-235 1377.48,-230.134 989.545,-237.972 953.403,-199 897.101,-138.288 1038.05,-96.3154 1120.22,-77.757"/>
<polygon fill="midnightblue" stroke="midnightblue" points="1121.17,-81.1321 1130.18,-75.5574 1119.66,-74.2969 1121.17,-81.1321"/>
</g>
<!-- Node41 -->
<g id="node26" class="node"><title>Node41</title>
<g id="a_node26"><a xlink:href="Exceptions_8h_source.html" target="_top" xlink:title="DGtal/base/Exceptions.h">
<polygon fill="white" stroke="black" points="2753.4,-174 2753.4,-193 2887.4,-193 2887.4,-174 2753.4,-174"/>
<text text-anchor="middle" x="2820.4" y="-181" font-family="FreeSans" font-size="10.00">DGtal/base/Exceptions.h</text>
</a>
</g>
</g>
<!-- Node3&#45;&gt;Node41 -->
<g id="edge46" class="edge"><title>Node3&#45;&gt;Node41</title>
<path fill="none" stroke="midnightblue" d="M1576.44,-241.13C1793,-231.272 2506.16,-198.805 2743.11,-188.019"/>
<polygon fill="midnightblue" stroke="midnightblue" points="2743.52,-191.504 2753.35,-187.552 2743.2,-184.511 2743.52,-191.504"/>
</g>
<!-- Node15&#45;&gt;Node2 -->
<g id="edge17" class="edge"><title>Node15&#45;&gt;Node2</title>
<path fill="none" stroke="midnightblue" d="M264.557,-56.7596C267.207,-56.479 269.832,-56.2232 272.403,-56 785.811,-11.4266 1413.16,-10.271 1575.54,-10.7921"/>
<polygon fill="midnightblue" stroke="midnightblue" points="1575.54,-14.292 1585.56,-10.8284 1575.57,-7.29206 1575.54,-14.292"/>
</g>
<!-- Node16 -->
<g id="node17" class="node"><title>Node16</title>
<polygon fill="white" stroke="#bfbfbf" points="64.4032,-0.5 64.4032,-19.5 108.403,-19.5 108.403,-0.5 64.4032,-0.5"/>
<text text-anchor="middle" x="86.4032" y="-7.5" font-family="FreeSans" font-size="10.00">string</text>
</g>
<!-- Node15&#45;&gt;Node16 -->
<g id="edge18" class="edge"><title>Node15&#45;&gt;Node16</title>
<path fill="none" stroke="midnightblue" d="M189.072,-56.4435C169.083,-47.5961 137.66,-33.6875 114.839,-23.5865"/>
<polygon fill="midnightblue" stroke="midnightblue" points="116.205,-20.3635 105.644,-19.5164 113.372,-26.7645 116.205,-20.3635"/>
</g>
<!-- Node17&#45;&gt;Node2 -->
<g id="edge20" class="edge"><title>Node17&#45;&gt;Node2</title>
<path fill="none" stroke="midnightblue" d="M192.94,-173.988C202.269,-172.002 212.184,-169.91 221.403,-168 300.864,-151.538 325.089,-162.214 400.403,-132 458.994,-108.495 460.146,-74.8262 520.403,-56 622.561,-24.083 1391.05,-13.5082 1575.63,-11.4156"/>
<polygon fill="midnightblue" stroke="midnightblue" points="1575.75,-14.9146 1585.71,-11.3032 1575.67,-7.91499 1575.75,-14.9146"/>
</g>
<!-- Node17&#45;&gt;Node15 -->
<g id="edge22" class="edge"><title>Node17&#45;&gt;Node15</title>
<path fill="none" stroke="midnightblue" d="M158.924,-173.765C165.067,-163.855 175.09,-147.106 182.403,-132 189.851,-116.617 196.962,-98.5202 201.859,-85.3334"/>
<polygon fill="midnightblue" stroke="midnightblue" points="205.278,-86.1725 205.41,-75.5785 198.7,-83.7779 205.278,-86.1725"/>
</g>
<!-- Node17&#45;&gt;Node16 -->
<g id="edge21" class="edge"><title>Node17&#45;&gt;Node16</title>
<path fill="none" stroke="midnightblue" d="M154.519,-173.844C155.917,-160.124 157.169,-132.806 148.403,-112 140.092,-92.272 128.126,-93.912 116.403,-76 106.736,-61.2297 98.5615,-42.8409 93.1988,-29.3953"/>
<polygon fill="midnightblue" stroke="midnightblue" points="96.3796,-27.9151 89.5262,-19.8355 89.8453,-30.4255 96.3796,-27.9151"/>
</g>
<!-- Node17&#45;&gt;Node23 -->
<g id="edge23" class="edge"><title>Node17&#45;&gt;Node23</title>
<path fill="none" stroke="midnightblue" d="M176.327,-173.975C203.773,-163.769 249.92,-146.608 281.002,-135.049"/>
<polygon fill="midnightblue" stroke="midnightblue" points="282.369,-138.275 290.522,-131.509 279.929,-131.714 282.369,-138.275"/>
</g>
<!-- Node17&#45;&gt;Node24 -->
<g id="edge27" class="edge"><title>Node17&#45;&gt;Node24</title>
<path fill="none" stroke="midnightblue" d="M138.473,-173.975C125.657,-164.785 107.836,-149.956 95.7963,-138.656"/>
<polygon fill="midnightblue" stroke="midnightblue" points="98.1046,-136.017 88.5168,-131.509 93.2005,-141.012 98.1046,-136.017"/>
</g>
<!-- Node23&#45;&gt;Node2 -->
<g id="edge24" class="edge"><title>Node23&#45;&gt;Node2</title>
<path fill="none" stroke="midnightblue" d="M339.732,-112.388C365.41,-103.803 405.447,-89.9256 439.403,-76 458.904,-68.0025 461.918,-60.9594 482.403,-56 590.264,-29.8874 1387.2,-14.862 1575.58,-11.6522"/>
<polygon fill="midnightblue" stroke="midnightblue" points="1575.91,-15.1471 1585.85,-11.4786 1575.79,-8.14814 1575.91,-15.1471"/>
</g>
<!-- Node23&#45;&gt;Node15 -->
<g id="edge26" class="edge"><title>Node23&#45;&gt;Node15</title>
<path fill="none" stroke="midnightblue" d="M296.533,-112.324C279.694,-103.664 253.597,-90.2424 234.165,-80.249"/>
<polygon fill="midnightblue" stroke="midnightblue" points="235.725,-77.1155 225.231,-75.6545 232.524,-83.3405 235.725,-77.1155"/>
</g>
<!-- Node23&#45;&gt;Node16 -->
<g id="edge25" class="edge"><title>Node23&#45;&gt;Node16</title>
<path fill="none" stroke="midnightblue" d="M245.572,-112.494C212.863,-106.115 174.155,-95.0586 143.403,-76 123.938,-63.9361 107.428,-43.1629 97.2646,-28.3474"/>
<polygon fill="midnightblue" stroke="midnightblue" points="99.9502,-26.0607 91.5354,-19.6233 94.0991,-29.9033 99.9502,-26.0607"/>
</g>
<!-- Node24&#45;&gt;Node16 -->
<g id="edge29" class="edge"><title>Node24&#45;&gt;Node16</title>
<path fill="none" stroke="midnightblue" d="M80.1096,-112.184C75.8562,-99.6984 69.3425,-76.1412 72.4032,-56 73.7707,-47.001 76.5936,-37.3251 79.3487,-29.2601"/>
<polygon fill="midnightblue" stroke="midnightblue" points="82.6685,-30.3722 82.8033,-19.7782 76.0914,-27.9759 82.6685,-30.3722"/>
</g>
<!-- Node24&#45;&gt;Node17 -->
<g id="edge28" class="edge"><title>Node24&#45;&gt;Node17</title>
<path fill="none" stroke="midnightblue" d="M98.3111,-131.509C111.122,-140.693 128.943,-155.52 140.989,-166.825"/>
<polygon fill="midnightblue" stroke="midnightblue" points="138.686,-169.468 148.275,-173.975 143.59,-164.472 138.686,-169.468"/>
</g>
<!-- Node27&#45;&gt;Node2 -->
<g id="edge32" class="edge"><title>Node27&#45;&gt;Node2</title>
<path fill="none" stroke="midnightblue" d="M431.268,-57.0168C435.71,-56.6446 440.114,-56.3015 444.403,-56 887.361,-24.8692 1426.2,-14.1111 1575.44,-11.6159"/>
<polygon fill="midnightblue" stroke="midnightblue" points="1575.57,-15.1144 1585.51,-11.4503 1575.45,-8.11534 1575.57,-15.1144"/>
</g>
<!-- Node27&#45;&gt;Node16 -->
<g id="edge33" class="edge"><title>Node27&#45;&gt;Node16</title>
<path fill="none" stroke="midnightblue" d="M313.621,-56.4435C259.455,-45.6103 167.349,-27.1892 118.708,-17.4609"/>
<polygon fill="midnightblue" stroke="midnightblue" points="119.227,-13.9955 108.734,-15.4662 117.854,-20.8595 119.227,-13.9955"/>
</g>
<!-- Node28&#45;&gt;Node2 -->
<g id="edge36" class="edge"><title>Node28&#45;&gt;Node2</title>
<path fill="none" stroke="midnightblue" d="M739.639,-173.878C793.064,-150.363 948.29,-84.9413 1084.4,-56 1264.85,-17.6331 1486.34,-11.7332 1575.47,-11"/>
<polygon fill="midnightblue" stroke="midnightblue" points="1575.69,-14.4987 1585.67,-10.9343 1575.65,-7.49883 1575.69,-14.4987"/>
</g>
<!-- Node29&#45;&gt;Node1 -->
<g id="edge38" class="edge"><title>Node29&#45;&gt;Node1</title>
<path fill="none" stroke="midnightblue" d="M1575.6,-173.929C1563.69,-171.656 1550.56,-169.437 1538.4,-168 1196.49,-127.583 778.48,-123.347 658.222,-122.998"/>
<polygon fill="midnightblue" stroke="midnightblue" points="658.165,-119.498 648.158,-122.977 658.15,-126.498 658.165,-119.498"/>
</g>
<!-- Node29&#45;&gt;Node2 -->
<g id="edge39" class="edge"><title>Node29&#45;&gt;Node2</title>
<path fill="none" stroke="midnightblue" d="M1615.4,-173.76C1615.4,-147.151 1615.4,-66.7148 1615.4,-29.8382"/>
<polygon fill="midnightblue" stroke="midnightblue" points="1618.9,-29.5193 1615.4,-19.5194 1611.9,-29.5194 1618.9,-29.5193"/>
</g>
<!-- Node32&#45;&gt;Node3 -->
<g id="edge43" class="edge"><title>Node32&#45;&gt;Node3</title>
<path fill="none" stroke="midnightblue" d="M2284.12,-193.005C2271.62,-195.248 2257.48,-197.468 2244.4,-199 2004.91,-227.05 1718.54,-238.337 1586.52,-242.228"/>
<polygon fill="midnightblue" stroke="midnightblue" points="1586.41,-238.73 1576.52,-242.517 1586.61,-245.727 1586.41,-238.73"/>
</g>
<!-- Node32&#45;&gt;Node5 -->
<g id="edge41" class="edge"><title>Node32&#45;&gt;Node5</title>
<path fill="none" stroke="midnightblue" d="M2334.02,-173.975C2350.76,-164.211 2378.41,-148.081 2398.12,-136.581"/>
<polygon fill="midnightblue" stroke="midnightblue" points="2399.94,-139.571 2406.82,-131.509 2396.41,-133.525 2399.94,-139.571"/>
</g>
<!-- Node32&#45;&gt;Node13 -->
<g id="edge42" class="edge"><title>Node32&#45;&gt;Node13</title>
<path fill="none" stroke="midnightblue" d="M2275.85,-173.975C2214.62,-161.991 2104.39,-140.417 2049.04,-129.584"/>
<polygon fill="midnightblue" stroke="midnightblue" points="2049.54,-126.115 2039.05,-127.629 2048.2,-132.985 2049.54,-126.115"/>
</g>
<!-- Node40&#45;&gt;Node2 -->
<g id="edge45" class="edge"><title>Node40&#45;&gt;Node2</title>
<path fill="none" stroke="midnightblue" d="M1244.28,-56.4435C1337.88,-44.9828 1500.83,-25.0294 1575.71,-15.8608"/>
<polygon fill="midnightblue" stroke="midnightblue" points="1576.17,-19.3302 1585.67,-14.6407 1575.32,-12.3821 1576.17,-19.3302"/>
</g>
<!-- Node41&#45;&gt;Node2 -->
<g id="edge47" class="edge"><title>Node41&#45;&gt;Node2</title>
<path fill="none" stroke="midnightblue" d="M2817.89,-173.672C2810.52,-149.628 2786.46,-82.9821 2739.4,-56 2691.45,-28.5005 1848.78,-14.4398 1654.94,-11.5608"/>
<polygon fill="midnightblue" stroke="midnightblue" points="1654.95,-8.06083 1644.9,-11.4133 1654.85,-15.0601 1654.95,-8.06083"/>
</g>
<!-- Node42&#45;&gt;Node2 -->
<g id="edge49" class="edge"><title>Node42&#45;&gt;Node2</title>
<path fill="none" stroke="midnightblue" d="M3018.58,-347.412C3032.35,-339.681 3051.17,-327.074 3062.4,-311 3079.64,-286.327 3081.4,-276.098 3081.4,-246 3081.4,-246 3081.4,-246 3081.4,-121 3081.4,-71.6587 3038.1,-71.9462 2991.4,-56 2862.18,-11.8702 1867.24,-10.6682 1655.11,-10.9187"/>
<polygon fill="midnightblue" stroke="midnightblue" points="1655.03,-7.41873 1645.04,-10.9325 1655.04,-14.4187 1655.03,-7.41873"/>
</g>
<!-- Node42&#45;&gt;Node3 -->
<g id="edge50" class="edge"><title>Node42&#45;&gt;Node3</title>
<path fill="none" stroke="midnightblue" d="M2919.13,-352.544C2818.77,-347.439 2644.21,-335.684 2496.4,-311 2459.83,-304.892 2452.09,-296.393 2415.4,-291 2256.12,-267.584 1771.91,-252.778 1586.61,-247.837"/>
<polygon fill="midnightblue" stroke="midnightblue" points="1586.51,-244.333 1576.42,-247.567 1586.33,-251.331 1586.51,-244.333"/>
</g>
<!-- Node43 -->
<g id="node28" class="node"><title>Node43</title>
<g id="a_node28"><a xlink:href="CPredicate_8h_source.html" target="_top" xlink:title="DGtal/base/CPredicate.h">
<polygon fill="white" stroke="red" points="2919.4,-291.5 2919.4,-310.5 3053.4,-310.5 3053.4,-291.5 2919.4,-291.5"/>
<text text-anchor="middle" x="2986.4" y="-298.5" font-family="FreeSans" font-size="10.00">DGtal/base/CPredicate.h</text>
</a>
</g>
</g>
<!-- Node42&#45;&gt;Node43 -->
<g id="edge51" class="edge"><title>Node42&#45;&gt;Node43</title>
<path fill="none" stroke="midnightblue" d="M2998.93,-347.083C2996.92,-339.849 2994.02,-329.409 2991.51,-320.397"/>
<polygon fill="midnightblue" stroke="midnightblue" points="2994.88,-319.449 2988.83,-310.751 2988.14,-321.323 2994.88,-319.449"/>
</g>
<!-- Node43&#45;&gt;Node2 -->
<g id="edge52" class="edge"><title>Node43&#45;&gt;Node2</title>
<path fill="none" stroke="midnightblue" d="M2987.04,-291.312C2988.38,-272.079 2991.4,-224.441 2991.4,-184.5 2991.4,-184.5 2991.4,-184.5 2991.4,-121 2991.4,-90.2048 2992.37,-74.0228 2967.4,-56 2912.86,-16.635 1872.94,-11.6872 1655.18,-11.0822"/>
<polygon fill="midnightblue" stroke="midnightblue" points="1655.16,-7.58222 1645.15,-11.0558 1655.14,-14.5822 1655.16,-7.58222"/>
</g>
<!-- Node43&#45;&gt;Node3 -->
<g id="edge53" class="edge"><title>Node43&#45;&gt;Node3</title>
<path fill="none" stroke="midnightblue" d="M2919.28,-297.539C2675.86,-288.616 1840.49,-257.991 1586.95,-248.696"/>
<polygon fill="midnightblue" stroke="midnightblue" points="1586.87,-245.191 1576.74,-248.322 1586.61,-252.186 1586.87,-245.191"/>
</g>
<!-- Node45&#45;&gt;Node2 -->
<g id="edge55" class="edge"><title>Node45&#45;&gt;Node2</title>
<path fill="none" stroke="midnightblue" d="M1008.16,-536.461C937.616,-530.866 823.29,-518.068 728.403,-490 602.729,-452.825 572.197,-435.396 460.403,-367 362.88,-307.335 222.52,-254.39 297.403,-168 334.311,-125.421 494.667,-148.959 548.403,-132 584.038,-120.753 662.282,-65.5704 698.403,-56 867.489,-11.2006 1420.69,-10.1416 1575.07,-10.751"/>
<polygon fill="midnightblue" stroke="midnightblue" points="1575.47,-14.2527 1585.49,-10.7972 1575.5,-7.25279 1575.47,-14.2527"/>
</g>
<!-- Node45&#45;&gt;Node3 -->
<g id="edge56" class="edge"><title>Node45&#45;&gt;Node3</title>
<path fill="none" stroke="midnightblue" d="M1074.4,-526.461C1074.4,-503.118 1074.4,-454.849 1074.4,-414 1074.4,-414 1074.4,-414 1074.4,-356 1074.4,-281.583 1314.76,-257.068 1439.78,-249.35"/>
<polygon fill="midnightblue" stroke="midnightblue" points="1440.26,-252.827 1450.04,-248.738 1439.85,-245.84 1440.26,-252.827"/>
</g>
<!-- Node46 -->
<g id="node30" class="node"><title>Node46</title>
<g id="a_node30"><a xlink:href="NumberTraits_8h_source.html" target="_top" xlink:title="DGtal/kernel/NumberTraits.h">
<polygon fill="white" stroke="red" points="1444.4,-291.5 1444.4,-310.5 1596.4,-310.5 1596.4,-291.5 1444.4,-291.5"/>
<text text-anchor="middle" x="1520.4" y="-298.5" font-family="FreeSans" font-size="10.00">DGtal/kernel/NumberTraits.h</text>
</a>
</g>
</g>
<!-- Node45&#45;&gt;Node46 -->
<g id="edge57" class="edge"><title>Node45&#45;&gt;Node46</title>
<path fill="none" stroke="midnightblue" d="M1140.53,-528.168C1173.19,-520.295 1212.37,-508.09 1244.4,-490 1262.21,-479.946 1262.22,-471.496 1278.4,-459 1354.3,-400.412 1452.03,-341.646 1496.48,-315.736"/>
<polygon fill="midnightblue" stroke="midnightblue" points="1498.48,-318.621 1505.38,-310.576 1494.97,-312.566 1498.48,-318.621"/>
</g>
<!-- Node50 -->
<g id="node31" class="node"><title>Node50</title>
<g id="a_node31"><a xlink:href="CUnsignedNumber_8h_source.html" target="_top" xlink:title="DGtal/kernel/CUnsignedNumber.h">
<polygon fill="white" stroke="red" points="867.403,-347.5 867.403,-366.5 1045.4,-366.5 1045.4,-347.5 867.403,-347.5"/>
<text text-anchor="middle" x="956.403" y="-354.5" font-family="FreeSans" font-size="10.00">DGtal/kernel/CUnsignedNumber.h</text>
</a>
</g>
</g>
<!-- Node45&#45;&gt;Node50 -->
<g id="edge59" class="edge"><title>Node45&#45;&gt;Node50</title>
<path fill="none" stroke="midnightblue" d="M1065.34,-526.483C1044.04,-493.536 990.833,-411.25 967.578,-375.283"/>
<polygon fill="midnightblue" stroke="midnightblue" points="970.474,-373.316 962.105,-366.819 964.596,-377.117 970.474,-373.316"/>
</g>
<!-- Node53 -->
<g id="node32" class="node"><title>Node53</title>
<g id="a_node32"><a xlink:href="CIntegralNumber_8h_source.html" target="_top" xlink:title="DGtal/kernel/CIntegralNumber.h">
<polygon fill="white" stroke="red" points="680.903,-347.5 680.903,-366.5 849.903,-366.5 849.903,-347.5 680.903,-347.5"/>
<text text-anchor="middle" x="765.403" y="-354.5" font-family="FreeSans" font-size="10.00">DGtal/kernel/CIntegralNumber.h</text>
</a>
</g>
</g>
<!-- Node45&#45;&gt;Node53 -->
<g id="edge64" class="edge"><title>Node45&#45;&gt;Node53</title>
<path fill="none" stroke="midnightblue" d="M1050.67,-526.483C992.972,-492.406 845.903,-405.544 788.68,-371.748"/>
<polygon fill="midnightblue" stroke="midnightblue" points="790.38,-368.687 779.99,-366.615 786.82,-374.714 790.38,-368.687"/>
</g>
<!-- Node54 -->
<g id="node33" class="node"><title>Node54</title>
<g id="a_node33"><a xlink:href="CInteger_8h_source.html" target="_top" xlink:title="DGtal/kernel/CInteger.h">
<polygon fill="white" stroke="red" points="1460.4,-403.5 1460.4,-422.5 1588.4,-422.5 1588.4,-403.5 1460.4,-403.5"/>
<text text-anchor="middle" x="1524.4" y="-410.5" font-family="FreeSans" font-size="10.00">DGtal/kernel/CInteger.h</text>
</a>
</g>
</g>
<!-- Node45&#45;&gt;Node54 -->
<g id="edge70" class="edge"><title>Node45&#45;&gt;Node54</title>
<path fill="none" stroke="midnightblue" d="M1134.89,-526.481C1175.61,-516.811 1230.42,-503.339 1278.4,-490 1353.79,-469.042 1441.1,-441.211 1488.78,-425.705"/>
<polygon fill="midnightblue" stroke="midnightblue" points="1489.91,-429.018 1498.33,-422.59 1487.74,-422.362 1489.91,-429.018"/>
</g>
<!-- Node58 -->
<g id="node34" class="node"><title>Node58</title>
<g id="a_node34"><a xlink:href="SpaceND_8h_source.html" target="_top" xlink:title="DGtal/kernel/SpaceND.h">
<polygon fill="white" stroke="black" points="1102.9,-465 1102.9,-484 1235.9,-484 1235.9,-465 1102.9,-465"/>
<text text-anchor="middle" x="1169.4" y="-472" font-family="FreeSans" font-size="10.00">DGtal/kernel/SpaceND.h</text>
</a>
</g>
</g>
<!-- Node45&#45;&gt;Node58 -->
<g id="edge76" class="edge"><title>Node45&#45;&gt;Node58</title>
<path fill="none" stroke="midnightblue" d="M1095.02,-526.396C1110.8,-515.597 1132.49,-500.756 1148.38,-489.887"/>
<polygon fill="midnightblue" stroke="midnightblue" points="1150.69,-492.542 1156.97,-484.007 1146.74,-486.765 1150.69,-492.542"/>
</g>
<!-- Node69 -->
<g id="node37" class="node"><title>Node69</title>
<g id="a_node37"><a xlink:href="IntegerComputer_8ih_source.html" target="_top" xlink:title="DGtal/arithmetic/Integer\lComputer.ih">
<polygon fill="white" stroke="black" points="737.403,-459.5 737.403,-489.5 869.403,-489.5 869.403,-459.5 737.403,-459.5"/>
<text text-anchor="start" x="745.403" y="-477.5" font-family="FreeSans" font-size="10.00">DGtal/arithmetic/Integer</text>
<text text-anchor="middle" x="803.403" y="-466.5" font-family="FreeSans" font-size="10.00">Computer.ih</text>
</a>
</g>
</g>
<!-- Node45&#45;&gt;Node69 -->
<g id="edge87" class="edge"><title>Node45&#45;&gt;Node69</title>
<path fill="none" stroke="midnightblue" d="M1015.93,-526.476C973.694,-516.345 916.498,-502.626 872.081,-491.973"/>
<polygon fill="midnightblue" stroke="midnightblue" points="872.775,-488.54 862.235,-489.611 871.143,-495.347 872.775,-488.54"/>
</g>
<!-- Node46&#45;&gt;Node3 -->
<g id="edge58" class="edge"><title>Node46&#45;&gt;Node3</title>
<path fill="none" stroke="midnightblue" d="M1519.25,-291.083C1518.32,-283.927 1516.99,-273.635 1515.83,-264.691"/>
<polygon fill="midnightblue" stroke="midnightblue" points="1519.29,-264.218 1514.54,-254.751 1512.35,-265.118 1519.29,-264.218"/>
</g>
<!-- Node50&#45;&gt;Node2 -->
<g id="edge60" class="edge"><title>Node50&#45;&gt;Node2</title>
<path fill="none" stroke="midnightblue" d="M867.191,-347.674C730.14,-334.864 483.362,-311.711 482.403,-311 428.768,-271.244 392.632,-218.412 436.403,-168 511.155,-81.9065 590.665,-187.247 690.403,-132 729.032,-110.603 714.865,-75.6661 754.403,-56 828.424,-19.1826 1415.91,-12.3975 1575.51,-11.2293"/>
<polygon fill="midnightblue" stroke="midnightblue" points="1575.85,-14.7272 1585.82,-11.1574 1575.8,-7.72735 1575.85,-14.7272"/>
</g>
<!-- Node50&#45;&gt;Node3 -->
<g id="edge61" class="edge"><title>Node50&#45;&gt;Node3</title>
<path fill="none" stroke="midnightblue" d="M966.5,-347.414C984.189,-332.922 1022.52,-303.926 1060.4,-291 1128.77,-267.675 1330.46,-254.717 1440.23,-249.213"/>
<polygon fill="midnightblue" stroke="midnightblue" points="1440.42,-252.708 1450.23,-248.719 1440.07,-245.716 1440.42,-252.708"/>
</g>
<!-- Node50&#45;&gt;Node28 -->
<g id="edge62" class="edge"><title>Node50&#45;&gt;Node28</title>
<path fill="none" stroke="midnightblue" d="M944.7,-347.495C906.953,-320.065 788.118,-233.708 740.463,-199.078"/>
<polygon fill="midnightblue" stroke="midnightblue" points="742.324,-196.103 732.177,-193.056 738.209,-201.766 742.324,-196.103"/>
</g>
<!-- Node50&#45;&gt;Node46 -->
<g id="edge63" class="edge"><title>Node50&#45;&gt;Node46</title>
<path fill="none" stroke="midnightblue" d="M1045.46,-347.473C1151.91,-337.281 1328.84,-320.342 1434.07,-310.266"/>
<polygon fill="midnightblue" stroke="midnightblue" points="1434.4,-313.75 1444.02,-309.313 1433.74,-306.782 1434.4,-313.75"/>
</g>
<!-- Node53&#45;&gt;Node2 -->
<g id="edge65" class="edge"><title>Node53&#45;&gt;Node2</title>
<path fill="none" stroke="midnightblue" d="M747.549,-347.414C687.803,-318.507 497.762,-225.084 482.403,-199 475.413,-187.127 473.33,-178.368 482.403,-168 522.12,-122.614 692.421,-144.589 751.403,-132 867.891,-107.137 891.232,-77.4139 1008.4,-56 1219.56,-17.4094 1477.8,-11.7281 1575.45,-11.0274"/>
<polygon fill="midnightblue" stroke="midnightblue" points="1575.77,-14.5258 1585.75,-10.9681 1575.73,-7.52587 1575.77,-14.5258"/>
</g>
<!-- Node53&#45;&gt;Node3 -->
<g id="edge67" class="edge"><title>Node53&#45;&gt;Node3</title>
<path fill="none" stroke="midnightblue" d="M792.68,-347.408C838.576,-333.304 934.374,-305.377 1017.4,-291 1166.34,-265.211 1343.16,-253.659 1440.33,-248.926"/>
<polygon fill="midnightblue" stroke="midnightblue" points="1440.52,-252.421 1450.34,-248.449 1440.18,-245.429 1440.52,-252.421"/>
</g>
<!-- Node53&#45;&gt;Node7 -->
<g id="edge66" class="edge"><title>Node53&#45;&gt;Node7</title>
<path fill="none" stroke="midnightblue" d="M757.804,-347.144C746.517,-334.203 724.391,-309.641 703.403,-291 663.071,-255.177 611.499,-218.547 582.919,-198.965"/>
<polygon fill="midnightblue" stroke="midnightblue" points="584.727,-195.962 574.491,-193.229 580.788,-201.749 584.727,-195.962"/>
</g>
<!-- Node53&#45;&gt;Node28 -->
<g id="edge68" class="edge"><title>Node53&#45;&gt;Node28</title>
<path fill="none" stroke="midnightblue" d="M764.289,-347.348C761.575,-327.291 753.916,-276.188 741.403,-235 738.038,-223.925 733.116,-211.946 728.883,-202.435"/>
<polygon fill="midnightblue" stroke="midnightblue" points="732.017,-200.874 724.666,-193.244 725.655,-203.793 732.017,-200.874"/>
</g>
<!-- Node53&#45;&gt;Node46 -->
<g id="edge69" class="edge"><title>Node53&#45;&gt;Node46</title>
<path fill="none" stroke="midnightblue" d="M850.041,-347.706C852.862,-347.462 855.655,-347.226 858.403,-347 1064.92,-329.992 1308.06,-314.668 1434.39,-307.059"/>
<polygon fill="midnightblue" stroke="midnightblue" points="1434.63,-310.551 1444.4,-306.458 1434.21,-303.564 1434.63,-310.551"/>
</g>
<!-- Node54&#45;&gt;Node2 -->
<g id="edge71" class="edge"><title>Node54&#45;&gt;Node2</title>
<path fill="none" stroke="midnightblue" d="M1588.78,-409.578C1679.28,-405.249 1838.75,-393.965 1889.4,-367 1928.89,-345.978 1916.49,-313.076 1955.4,-291 2056.71,-233.523 2390.22,-282.517 2471.4,-199 2492.39,-177.412 2479.17,-162.025 2481.4,-132 2482.06,-123.135 2486.63,-119.193 2481.4,-112 2434.17,-46.9457 2388.35,-71.1637 2309.4,-56 2182.54,-31.6341 1782.87,-16.5609 1655.1,-12.2696"/>
<polygon fill="midnightblue" stroke="midnightblue" points="1655.09,-8.76743 1644.98,-11.9332 1654.86,-15.7636 1655.09,-8.76743"/>
</g>
<!-- Node54&#45;&gt;Node3 -->
<g id="edge72" class="edge"><title>Node54&#45;&gt;Node3</title>
<path fill="none" stroke="midnightblue" d="M1538.18,-403.32C1567.68,-383.617 1632.17,-333.891 1605.4,-291 1595.65,-275.364 1578.71,-265.013 1562,-258.23"/>
<polygon fill="midnightblue" stroke="midnightblue" points="1562.84,-254.81 1552.25,-254.636 1560.42,-261.378 1562.84,-254.81"/>
</g>
<!-- Node54&#45;&gt;Node28 -->
<g id="edge73" class="edge"><title>Node54&#45;&gt;Node28</title>
<path fill="none" stroke="midnightblue" d="M1494.35,-403.497C1370.73,-368.517 901.319,-235.692 760.545,-195.859"/>
<polygon fill="midnightblue" stroke="midnightblue" points="761.18,-192.401 750.605,-193.046 759.274,-199.136 761.18,-192.401"/>
</g>
<!-- Node54&#45;&gt;Node46 -->
<g id="edge75" class="edge"><title>Node54&#45;&gt;Node46</title>
<path fill="none" stroke="midnightblue" d="M1524.09,-403.368C1523.44,-385.617 1521.95,-344.666 1521.08,-320.597"/>
<polygon fill="midnightblue" stroke="midnightblue" points="1524.58,-320.458 1520.72,-310.591 1517.58,-320.712 1524.58,-320.458"/>
</g>
<!-- Node54&#45;&gt;Node53 -->
<g id="edge74" class="edge"><title>Node54&#45;&gt;Node53</title>
<path fill="none" stroke="midnightblue" d="M1460.06,-408.275C1342.9,-401.356 1086.66,-385.594 860.124,-367.121"/>
<polygon fill="midnightblue" stroke="midnightblue" points="860.293,-363.624 850.041,-366.296 859.722,-370.6 860.293,-363.624"/>
</g>
<!-- Node58&#45;&gt;Node2 -->
<g id="edge77" class="edge"><title>Node58&#45;&gt;Node2</title>
<path fill="none" stroke="midnightblue" d="M1102.7,-470.226C884.508,-457.234 217.06,-398.172 415.403,-168 486.1,-85.9586 560.535,-182.379 656.403,-132 697.322,-110.497 685.484,-75.4801 727.403,-56 804.883,-19.9949 1412.47,-12.6097 1575.35,-11.2708"/>
<polygon fill="midnightblue" stroke="midnightblue" points="1575.45,-14.7702 1585.42,-11.1912 1575.39,-7.77045 1575.45,-14.7702"/>
</g>
<!-- Node58&#45;&gt;Node3 -->
<g id="edge78" class="edge"><title>Node58&#45;&gt;Node3</title>
<path fill="none" stroke="midnightblue" d="M1174.06,-464.972C1190.56,-435.628 1249.36,-338.053 1326.4,-291 1360.66,-270.08 1403.97,-258.885 1440.28,-252.894"/>
<polygon fill="midnightblue" stroke="midnightblue" points="1440.98,-256.328 1450.33,-251.339 1439.91,-249.41 1440.98,-256.328"/>
</g>
<!-- Node58&#45;&gt;Node54 -->
<g id="edge79" class="edge"><title>Node58&#45;&gt;Node54</title>
<path fill="none" stroke="midnightblue" d="M1220.27,-464.975C1284.46,-454.216 1394.75,-435.73 1463.4,-424.224"/>
<polygon fill="midnightblue" stroke="midnightblue" points="1464.35,-427.614 1473.63,-422.509 1463.19,-420.71 1464.35,-427.614"/>
</g>
<!-- Node59 -->
<g id="node35" class="node"><title>Node59</title>
<g id="a_node35"><a xlink:href="PointVector_8h_source.html" target="_top" xlink:title="DGtal/kernel/PointVector.h">
<polygon fill="white" stroke="red" points="1738.4,-347.5 1738.4,-366.5 1880.4,-366.5 1880.4,-347.5 1738.4,-347.5"/>
<text text-anchor="middle" x="1809.4" y="-354.5" font-family="FreeSans" font-size="10.00">DGtal/kernel/PointVector.h</text>
</a>
</g>
</g>
<!-- Node58&#45;&gt;Node59 -->
<g id="edge80" class="edge"><title>Node58&#45;&gt;Node59</title>
<path fill="none" stroke="midnightblue" d="M1198.78,-464.914C1249.78,-450.293 1358.15,-420.453 1451.4,-403 1545.79,-385.336 1655.5,-372.691 1728.34,-365.388"/>
<polygon fill="midnightblue" stroke="midnightblue" points="1728.76,-368.864 1738.37,-364.393 1728.07,-361.898 1728.76,-368.864"/>
</g>
<!-- Node59&#45;&gt;Node2 -->
<g id="edge81" class="edge"><title>Node59&#45;&gt;Node2</title>
<path fill="none" stroke="midnightblue" d="M1823.84,-347.374C1851.94,-330.636 1912.13,-295.033 1922.4,-291 2025.56,-250.483 2056.31,-254.56 2165.4,-235 2226.94,-223.967 2397.62,-240.47 2444.4,-199 2473.88,-172.865 2487.56,-141.464 2461.4,-112 2407.17,-50.9037 1816.49,-20.0388 1655.64,-12.7278"/>
<polygon fill="midnightblue" stroke="midnightblue" points="1655.4,-9.21323 1645.25,-12.2611 1655.08,-16.2062 1655.4,-9.21323"/>
</g>
<!-- Node59&#45;&gt;Node3 -->
<g id="edge85" class="edge"><title>Node59&#45;&gt;Node3</title>
<path fill="none" stroke="midnightblue" d="M1800.11,-347.367C1784.49,-333.333 1751.4,-305.665 1718.4,-291 1676.66,-272.448 1626.63,-261.275 1586.45,-254.702"/>
<polygon fill="midnightblue" stroke="midnightblue" points="1586.88,-251.227 1576.46,-253.128 1585.79,-258.141 1586.88,-251.227"/>
</g>
<!-- Node59&#45;&gt;Node5 -->
<g id="edge83" class="edge"><title>Node59&#45;&gt;Node5</title>
<path fill="none" stroke="midnightblue" d="M1817.98,-347.113C1831.27,-333.694 1858.07,-308.022 1884.4,-291 1934.17,-258.834 1948.13,-250.204 2005.4,-235 2095.94,-210.965 2362.06,-268.009 2425.4,-199 2439.54,-183.604 2434.68,-158.22 2428.9,-141.068"/>
<polygon fill="midnightblue" stroke="midnightblue" points="2432.14,-139.744 2425.35,-131.615 2425.59,-142.207 2432.14,-139.744"/>
</g>
<!-- Node59&#45;&gt;Node16 -->
<g id="edge82" class="edge"><title>Node59&#45;&gt;Node16</title>
<path fill="none" stroke="midnightblue" d="M1738.3,-355.779C1499.54,-354.695 727.817,-348.318 482.403,-311 296.499,-282.731 233.03,-299.98 74.4032,-199 35.4077,-174.176 3.75694,-156.166 17.4032,-112 27.8335,-78.2424 53.8512,-45.7025 70.7896,-27.0564"/>
<polygon fill="midnightblue" stroke="midnightblue" points="73.3631,-29.4287 77.633,-19.7323 68.2483,-24.6496 73.3631,-29.4287"/>
</g>
<!-- Node59&#45;&gt;Node46 -->
<g id="edge86" class="edge"><title>Node59&#45;&gt;Node46</title>
<path fill="none" stroke="midnightblue" d="M1763.61,-347.444C1712.67,-337.925 1630.37,-322.547 1575.83,-312.356"/>
<polygon fill="midnightblue" stroke="midnightblue" points="1576.45,-308.913 1565.98,-310.516 1575.17,-315.794 1576.45,-308.913"/>
</g>
<!-- Node62 -->
<g id="node36" class="node"><title>Node62</title>
<polygon fill="white" stroke="#bfbfbf" points="1964.9,-291.5 1964.9,-310.5 2011.9,-310.5 2011.9,-291.5 1964.9,-291.5"/>
<text text-anchor="middle" x="1988.4" y="-298.5" font-family="FreeSans" font-size="10.00">vector</text>
</g>
<!-- Node59&#45;&gt;Node62 -->
<g id="edge84" class="edge"><title>Node59&#45;&gt;Node62</title>
<path fill="none" stroke="midnightblue" d="M1837.77,-347.444C1869.57,-337.849 1921.11,-322.302 1954.88,-312.114"/>
<polygon fill="midnightblue" stroke="midnightblue" points="1956.18,-315.376 1964.75,-309.137 1954.16,-308.674 1956.18,-315.376"/>
</g>
<!-- Node70&#45;&gt;Node2 -->
<g id="edge89" class="edge"><title>Node70&#45;&gt;Node2</title>
<path fill="none" stroke="midnightblue" d="M2145.91,-540.468C2323.37,-535.622 2725.4,-496.951 2725.4,-246 2725.4,-246 2725.4,-246 2725.4,-121 2725.4,-84.8221 2708.43,-72.822 2676.4,-56 2584.73,-7.85354 1836.9,-9.55451 1655.12,-10.6932"/>
<polygon fill="midnightblue" stroke="midnightblue" points="1654.91,-7.19432 1644.94,-10.7601 1654.96,-14.1942 1654.91,-7.19432"/>
</g>
<!-- Node70&#45;&gt;Node3 -->
<g id="edge91" class="edge"><title>Node70&#45;&gt;Node3</title>
<path fill="none" stroke="midnightblue" d="M2059.86,-531.711C2055.98,-521.753 2049.86,-504.961 2046.4,-490 2026.3,-403.098 2084.77,-352.752 2020.4,-291 1989.8,-261.635 1719.92,-251.005 1586.89,-247.525"/>
<polygon fill="midnightblue" stroke="midnightblue" points="1586.86,-244.024 1576.78,-247.268 1586.68,-251.021 1586.86,-244.024"/>
</g>
<!-- Node70&#45;&gt;Node46 -->
<g id="edge97" class="edge"><title>Node70&#45;&gt;Node46</title>
<path fill="none" stroke="midnightblue" d="M1980.55,-540.296C1871.79,-538.438 1688.44,-529.338 1635.4,-490 1601.51,-464.862 1618.79,-439.371 1597.4,-403 1578.61,-371.046 1551.29,-337.502 1534.75,-318.238"/>
<polygon fill="midnightblue" stroke="midnightblue" points="1537.38,-315.927 1528.18,-310.675 1532.1,-320.519 1537.38,-315.927"/>
</g>
<!-- Node70&#45;&gt;Node54 -->
<g id="edge96" class="edge"><title>Node70&#45;&gt;Node54</title>
<path fill="none" stroke="midnightblue" d="M1980.58,-537.866C1866.44,-533.149 1667.48,-520.7 1602.4,-490 1574.44,-476.812 1550.38,-449.469 1536.64,-431.431"/>
<polygon fill="midnightblue" stroke="midnightblue" points="1539.17,-428.962 1530.43,-422.971 1533.53,-433.104 1539.17,-428.962"/>
</g>
<!-- Node70&#45;&gt;Node62 -->
<g id="edge90" class="edge"><title>Node70&#45;&gt;Node62</title>
<path fill="none" stroke="midnightblue" d="M2051.51,-531.933C2039.97,-522.902 2022.97,-507.567 2014.4,-490 1986.76,-433.329 1985.91,-356.33 1987.25,-321.063"/>
<polygon fill="midnightblue" stroke="midnightblue" points="1990.76,-320.95 1987.75,-310.792 1983.77,-320.609 1990.76,-320.95"/>
</g>
<!-- Node71 -->
<g id="node39" class="node"><title>Node71</title>
<g id="a_node39"><a xlink:href="InputIteratorWithRankOnSequence_8h_source.html" target="_top" xlink:title="DGtal/base/InputIterator\lWithRankOnSequence.h">
<polygon fill="white" stroke="red" points="2241.4,-459.5 2241.4,-489.5 2373.4,-489.5 2373.4,-459.5 2241.4,-459.5"/>
<text text-anchor="start" x="2249.4" y="-477.5" font-family="FreeSans" font-size="10.00">DGtal/base/InputIterator</text>
<text text-anchor="middle" x="2307.4" y="-466.5" font-family="FreeSans" font-size="10.00">WithRankOnSequence.h</text>
</a>
</g>
</g>
<!-- Node70&#45;&gt;Node71 -->
<g id="edge92" class="edge"><title>Node70&#45;&gt;Node71</title>
<path fill="none" stroke="midnightblue" d="M2095.55,-531.936C2133.37,-521.862 2197.03,-504.904 2244.71,-492.201"/>
<polygon fill="midnightblue" stroke="midnightblue" points="2245.87,-495.515 2254.63,-489.559 2244.06,-488.751 2245.87,-495.515"/>
</g>
<!-- Node76 -->
<g id="node40" class="node"><title>Node76</title>
<g id="a_node40"><a xlink:href="SternBrocot_8ih_source.html" target="_top" xlink:title="DGtal/arithmetic/SternBrocot.ih">
<polygon fill="white" stroke="black" points="2055.9,-465 2055.9,-484 2222.9,-484 2222.9,-465 2055.9,-465"/>
<text text-anchor="middle" x="2139.4" y="-472" font-family="FreeSans" font-size="10.00">DGtal/arithmetic/SternBrocot.ih</text>
</a>
</g>
</g>
<!-- Node70&#45;&gt;Node76 -->
<g id="edge98" class="edge"><title>Node70&#45;&gt;Node76</title>
<path fill="none" stroke="midnightblue" d="M2073.65,-531.734C2085.85,-521.305 2106.42,-503.709 2121.31,-490.973"/>
<polygon fill="midnightblue" stroke="midnightblue" points="2123.99,-493.287 2129.32,-484.127 2119.44,-487.967 2123.99,-493.287"/>
</g>
<!-- Node71&#45;&gt;Node2 -->
<g id="edge93" class="edge"><title>Node71&#45;&gt;Node2</title>
<path fill="none" stroke="midnightblue" d="M2328.52,-459.328C2351.65,-444.175 2390.17,-420.032 2425.4,-403 2477.39,-377.873 2629.19,-353.381 2668.4,-311 2688.84,-288.909 2687.4,-276.098 2687.4,-246 2687.4,-246 2687.4,-246 2687.4,-121 2687.4,-87.5366 2678.06,-73.2802 2649.4,-56 2606.1,-29.8887 1839.3,-14.9011 1655,-11.6662"/>
<polygon fill="midnightblue" stroke="midnightblue" points="1654.99,-8.16565 1644.93,-11.4911 1654.87,-15.1646 1654.99,-8.16565"/>
</g>
<!-- Node71&#45;&gt;Node3 -->
<g id="edge94" class="edge"><title>Node71&#45;&gt;Node3</title>
<path fill="none" stroke="midnightblue" d="M2293.94,-459.5C2258.62,-423.819 2158.8,-329.576 2054.4,-291 1970.59,-260.03 1714.13,-250.25 1586.77,-247.261"/>
<polygon fill="midnightblue" stroke="midnightblue" points="1586.78,-243.76 1576.71,-247.033 1586.63,-250.759 1586.78,-243.76"/>
</g>
<!-- Node71&#45;&gt;Node54 -->
<g id="edge95" class="edge"><title>Node71&#45;&gt;Node54</title>
<path fill="none" stroke="midnightblue" d="M2241.16,-460.357C2237.87,-459.862 2234.6,-459.405 2231.4,-459 2001.83,-429.909 1727.8,-419.272 1598.68,-415.677"/>
<polygon fill="midnightblue" stroke="midnightblue" points="1598.6,-412.174 1588.51,-415.4 1598.41,-419.171 1598.6,-412.174"/>
</g>
<!-- Node77&#45;&gt;Node2 -->
<g id="edge100" class="edge"><title>Node77&#45;&gt;Node2</title>
<path fill="none" stroke="midnightblue" d="M1461.6,-607.986C1597.43,-607.77 1902.47,-601.781 2154.4,-557 2258.39,-538.517 2302.58,-559.162 2382.4,-490 2489.88,-396.882 2484.12,-337.718 2515.4,-199 2523.91,-161.278 2533.95,-146.459 2516.4,-112 2497.2,-74.2919 2479.27,-70.1786 2439.4,-56 2365.17,-29.6009 1810.13,-15.3444 1655.36,-11.8544"/>
<polygon fill="midnightblue" stroke="midnightblue" points="1655,-8.34555 1644.92,-11.6217 1654.84,-15.3438 1655,-8.34555"/>
</g>
<!-- Node77&#45;&gt;Node3 -->
<g id="edge102" class="edge"><title>Node77&#45;&gt;Node3</title>
<path fill="none" stroke="midnightblue" d="M1383.75,-598.668C1376.73,-588.942 1365.81,-572.606 1359.4,-557 1345.27,-522.596 1340.4,-512.694 1340.4,-475.5 1340.4,-475.5 1340.4,-475.5 1340.4,-356 1340.4,-299.442 1407.06,-270.715 1457.62,-257.06"/>
<polygon fill="midnightblue" stroke="midnightblue" points="1458.68,-260.402 1467.5,-254.526 1456.94,-253.622 1458.68,-260.402"/>
</g>
<!-- Node77&#45;&gt;Node16 -->
<g id="edge101" class="edge"><title>Node77&#45;&gt;Node16</title>
<path fill="none" stroke="midnightblue" d="M1319.37,-603.958C1182.98,-595.543 876.224,-568.768 631.403,-490 489.575,-444.369 119.977,-315.737 27.4032,-199 -12.0958,-149.191 -6.45281,-107.795 30.4032,-56 39.076,-43.8118 51.9142,-33.1667 63.111,-25.2941"/>
<polygon fill="midnightblue" stroke="midnightblue" points="65.2612,-28.0668 71.6279,-19.5983 61.3698,-22.2481 65.2612,-28.0668"/>
</g>
<!-- Node77&#45;&gt;Node45 -->
<g id="edge108" class="edge"><title>Node77&#45;&gt;Node45</title>
<path fill="none" stroke="midnightblue" d="M1348.77,-598.936C1298.52,-588.6 1213.04,-571.018 1150.82,-558.22"/>
<polygon fill="midnightblue" stroke="midnightblue" points="1151.16,-554.715 1140.66,-556.129 1149.75,-561.572 1151.16,-554.715"/>
</g>
<!-- Node77&#45;&gt;Node70 -->
<g id="edge109" class="edge"><title>Node77&#45;&gt;Node70</title>
<path fill="none" stroke="midnightblue" d="M1461.47,-600.636C1583.93,-588.809 1834.64,-564.595 1970.66,-551.457"/>
<polygon fill="midnightblue" stroke="midnightblue" points="1971.04,-554.937 1980.66,-550.492 1970.37,-547.97 1971.04,-554.937"/>
</g>
<!-- Node78 -->
<g id="node42" class="node"><title>Node78</title>
<g id="a_node42"><a xlink:href="CPositiveIrreducibleFraction_8h_source.html" target="_top" xlink:title="DGtal/arithmetic/CPositive\lIrreducibleFraction.h">
<polygon fill="white" stroke="red" points="1644.4,-459.5 1644.4,-489.5 1786.4,-489.5 1786.4,-459.5 1644.4,-459.5"/>
<text text-anchor="start" x="1652.4" y="-477.5" font-family="FreeSans" font-size="10.00">DGtal/arithmetic/CPositive</text>
<text text-anchor="middle" x="1715.4" y="-466.5" font-family="FreeSans" font-size="10.00">IrreducibleFraction.h</text>
</a>
</g>
</g>
<!-- Node77&#45;&gt;Node78 -->
<g id="edge103" class="edge"><title>Node77&#45;&gt;Node78</title>
<path fill="none" stroke="midnightblue" d="M1413.2,-598.946C1439.4,-589.063 1483.64,-572.205 1521.4,-557 1573.89,-535.865 1633.87,-510.474 1673.07,-493.711"/>
<polygon fill="midnightblue" stroke="midnightblue" points="1674.76,-496.797 1682.57,-489.643 1672,-490.362 1674.76,-496.797"/>
</g>
<!-- Node80 -->
<g id="node43" class="node"><title>Node80</title>
<g id="a_node43"><a xlink:href="Pattern_8ih_source.html" target="_top" xlink:title="DGtal/arithmetic/Pattern.ih">
<polygon fill="white" stroke="black" points="1368.4,-532 1368.4,-551 1512.4,-551 1512.4,-532 1368.4,-532"/>
<text text-anchor="middle" x="1440.4" y="-539" font-family="FreeSans" font-size="10.00">DGtal/arithmetic/Pattern.ih</text>
</a>
</g>
</g>
<!-- Node77&#45;&gt;Node80 -->
<g id="edge110" class="edge"><title>Node77&#45;&gt;Node80</title>
<path fill="none" stroke="midnightblue" d="M1397.15,-598.734C1404.94,-588.598 1417.95,-571.69 1427.67,-559.056"/>
<polygon fill="midnightblue" stroke="midnightblue" points="1430.44,-561.188 1433.77,-551.127 1424.9,-556.92 1430.44,-561.188"/>
</g>
<!-- Node78&#45;&gt;Node2 -->
<g id="edge104" class="edge"><title>Node78&#45;&gt;Node2</title>
<path fill="none" stroke="midnightblue" d="M1758.74,-459.402C1789.2,-449.419 1830.87,-435.614 1867.4,-423 2146.33,-326.698 2313.69,-433.805 2492.4,-199 2515.86,-168.181 2517.52,-145.095 2497.4,-112 2469.32,-65.7984 2441.54,-70.3288 2389.4,-56 2248.99,-17.4108 1793.05,-11.9064 1655.22,-11.127"/>
<polygon fill="midnightblue" stroke="midnightblue" points="1655.13,-7.62657 1645.11,-11.0752 1655.09,-14.6265 1655.13,-7.62657"/>
</g>
<!-- Node78&#45;&gt;Node3 -->
<g id="edge106" class="edge"><title>Node78&#45;&gt;Node3</title>
<path fill="none" stroke="midnightblue" d="M1711.88,-459.059C1702.89,-425.153 1676.04,-339.651 1623.4,-291 1606.2,-275.101 1582.63,-264.453 1561.71,-257.527"/>
<polygon fill="midnightblue" stroke="midnightblue" points="1562.6,-254.137 1552.01,-254.51 1560.52,-260.822 1562.6,-254.137"/>
</g>
<!-- Node78&#45;&gt;Node54 -->
<g id="edge107" class="edge"><title>Node78&#45;&gt;Node54</title>
<path fill="none" stroke="midnightblue" d="M1670.14,-459.399C1636.99,-449.073 1592.56,-435.231 1561.5,-425.556"/>
<polygon fill="midnightblue" stroke="midnightblue" points="1562.51,-422.204 1551.92,-422.571 1560.42,-428.887 1562.51,-422.204"/>
</g>
<!-- Node78&#45;&gt;Node62 -->
<g id="edge105" class="edge"><title>Node78&#45;&gt;Node62</title>
<path fill="none" stroke="midnightblue" d="M1753.53,-459.349C1798.06,-441.751 1872.71,-408.855 1928.4,-367 1947.11,-352.941 1964.8,-332.59 1976.06,-318.418"/>
<polygon fill="midnightblue" stroke="midnightblue" points="1978.84,-320.553 1982.2,-310.504 1973.3,-316.266 1978.84,-320.553"/>
</g>
<!-- Node81&#45;&gt;Node2 -->
<g id="edge112" class="edge"><title>Node81&#45;&gt;Node2</title>
<path fill="none" stroke="midnightblue" d="M579.479,-670.444C537.926,-664.918 486.672,-652.328 449.403,-624 276.707,-492.736 140.241,-337.663 275.403,-168 320.01,-112.007 363.611,-151.813 432.403,-132 531.003,-103.602 549.662,-75.4815 650.403,-56 831.894,-20.9031 1416.33,-12.8831 1575.21,-11.3321"/>
<polygon fill="midnightblue" stroke="midnightblue" points="1575.51,-14.8295 1585.48,-11.2352 1575.45,-7.8298 1575.51,-14.8295"/>
</g>
<!-- Node81&#45;&gt;Node3 -->
<g id="edge113" class="edge"><title>Node81&#45;&gt;Node3</title>
<path fill="none" stroke="midnightblue" d="M651.403,-660.241C651.403,-636.034 651.403,-585.354 651.403,-542.5 651.403,-542.5 651.403,-542.5 651.403,-356 651.403,-276.766 1231.89,-253.498 1440.14,-247.7"/>
<polygon fill="midnightblue" stroke="midnightblue" points="1440.47,-251.193 1450.37,-247.421 1440.28,-244.195 1440.47,-251.193"/>
</g>
<!-- Node81&#45;&gt;Node45 -->
<g id="edge117" class="edge"><title>Node81&#45;&gt;Node45</title>
<path fill="none" stroke="midnightblue" d="M696.271,-660.499C774.401,-636.118 935.148,-585.956 1019.69,-559.575"/>
<polygon fill="midnightblue" stroke="midnightblue" points="1020.86,-562.877 1029.36,-556.556 1018.77,-556.194 1020.86,-562.877"/>
</g>
<!-- Node81&#45;&gt;Node77 -->
<g id="edge118" class="edge"><title>Node81&#45;&gt;Node77</title>
<path fill="none" stroke="midnightblue" d="M722.933,-668.208C861.068,-656.059 1163.71,-629.439 1309.18,-616.644"/>
<polygon fill="midnightblue" stroke="midnightblue" points="1309.72,-620.11 1319.38,-615.747 1309.11,-613.137 1309.72,-620.11"/>
</g>
<!-- Node82 -->
<g id="node45" class="node"><title>Node82</title>
<g id="a_node45"><a xlink:href="ConstAlias_8h_source.html" target="_top" xlink:title="DGtal/base/ConstAlias.h">
<polygon fill="white" stroke="red" points="491.403,-291.5 491.403,-310.5 623.403,-310.5 623.403,-291.5 491.403,-291.5"/>
<text text-anchor="middle" x="557.403" y="-298.5" font-family="FreeSans" font-size="10.00">DGtal/base/ConstAlias.h</text>
</a>
</g>
</g>
<!-- Node81&#45;&gt;Node82 -->
<g id="edge114" class="edge"><title>Node81&#45;&gt;Node82</title>
<path fill="none" stroke="midnightblue" d="M579.882,-671.497C542.426,-666.18 498.612,-653.45 470.403,-624 444.676,-597.14 451.403,-579.694 451.403,-542.5 451.403,-542.5 451.403,-542.5 451.403,-412 451.403,-366.815 498.353,-333.052 529.761,-315.521"/>
<polygon fill="midnightblue" stroke="midnightblue" points="531.775,-318.412 538.939,-310.607 528.471,-312.241 531.775,-318.412"/>
</g>
<!-- Node89 -->
<g id="node46" class="node"><title>Node89</title>
<g id="a_node46"><a xlink:href="StandardDSLQ0_8ih_source.html" target="_top" xlink:title="DGtal/arithmetic/Standard\lDSLQ0.ih">
<polygon fill="white" stroke="black" points="479.903,-593.5 479.903,-623.5 622.903,-623.5 622.903,-593.5 479.903,-593.5"/>
<text text-anchor="start" x="487.903" y="-611.5" font-family="FreeSans" font-size="10.00">DGtal/arithmetic/Standard</text>
<text text-anchor="middle" x="551.403" y="-600.5" font-family="FreeSans" font-size="10.00">DSLQ0.ih</text>
</a>
</g>
</g>
<!-- Node81&#45;&gt;Node89 -->
<g id="edge119" class="edge"><title>Node81&#45;&gt;Node89</title>
<path fill="none" stroke="midnightblue" d="M629.705,-660.396C615.683,-651.282 597.234,-639.29 581.766,-629.236"/>
<polygon fill="midnightblue" stroke="midnightblue" points="583.351,-626.092 573.059,-623.577 579.536,-631.961 583.351,-626.092"/>
</g>
<!-- Node82&#45;&gt;Node2 -->
<g id="edge115" class="edge"><title>Node82&#45;&gt;Node2</title>
<path fill="none" stroke="midnightblue" d="M540.908,-291.489C501.781,-270.25 409.518,-213.363 449.403,-168 490.682,-121.053 675.702,-165.624 728.403,-132 762.083,-110.512 741.944,-76.2147 776.403,-56 845.74,-15.325 1417.74,-11.3332 1575.34,-11.0091"/>
<polygon fill="midnightblue" stroke="midnightblue" points="1575.54,-14.5089 1585.53,-10.9922 1575.53,-7.50888 1575.54,-14.5089"/>
</g>
<!-- Node82&#45;&gt;Node3 -->
<g id="edge116" class="edge"><title>Node82&#45;&gt;Node3</title>
<path fill="none" stroke="midnightblue" d="M623.727,-292.225C628.352,-291.779 632.946,-291.365 637.403,-291 934.694,-266.664 1289.89,-253.224 1440.33,-248.254"/>
<polygon fill="midnightblue" stroke="midnightblue" points="1440.5,-251.75 1450.38,-247.924 1440.27,-244.754 1440.5,-251.75"/>
</g>
<!-- Node90&#45;&gt;Node2 -->
<g id="edge121" class="edge"><title>Node90&#45;&gt;Node2</title>
<path fill="none" stroke="midnightblue" d="M2522.07,-660.635C2523.53,-660.418 2524.97,-660.206 2526.4,-660 2597.89,-649.707 2789.92,-664.957 2849.4,-624 2882.97,-600.891 2891.4,-583.249 2891.4,-542.5 2891.4,-542.5 2891.4,-542.5 2891.4,-356 2891.4,-247.533 2962.15,-198.273 2896.4,-112 2867.39,-73.9264 2850.24,-69.7939 2804.4,-56 2692.48,-22.3176 1849.05,-13.0187 1655.09,-11.3159"/>
<polygon fill="midnightblue" stroke="midnightblue" points="1655.08,-7.81576 1645.05,-11.2295 1655.02,-14.8155 1655.08,-7.81576"/>
</g>
<!-- Node90&#45;&gt;Node3 -->
<g id="edge124" class="edge"><title>Node90&#45;&gt;Node3</title>
<path fill="none" stroke="midnightblue" d="M2436.61,-660.267C2431.44,-650.337 2424.81,-636.651 2420.4,-624 2395.66,-552.93 2427.15,-519.504 2382.4,-459 2293.37,-338.62 2233.51,-335.03 2090.4,-291 1998.33,-262.67 1720.46,-251.533 1586.79,-247.727"/>
<polygon fill="midnightblue" stroke="midnightblue" points="1586.73,-244.224 1576.64,-247.444 1586.54,-251.222 1586.73,-244.224"/>
</g>
<!-- Node90&#45;&gt;Node41 -->
<g id="edge123" class="edge"><title>Node90&#45;&gt;Node41</title>
<path fill="none" stroke="midnightblue" d="M2522.09,-660.735C2523.54,-660.487 2524.98,-660.242 2526.4,-660 2678.65,-634.14 2853.4,-696.931 2853.4,-542.5 2853.4,-542.5 2853.4,-542.5 2853.4,-300 2853.4,-264.354 2838.69,-224.817 2828.91,-202.477"/>
<polygon fill="midnightblue" stroke="midnightblue" points="2832.04,-200.898 2824.72,-193.241 2825.67,-203.793 2832.04,-200.898"/>
</g>
<!-- Node90&#45;&gt;Node54 -->
<g id="edge126" class="edge"><title>Node90&#45;&gt;Node54</title>
<path fill="none" stroke="midnightblue" d="M2366.77,-672.509C2266.67,-668.635 2087.69,-657.266 1938.4,-624 1763.61,-585.051 1690.1,-611.357 1558.4,-490 1541.75,-474.653 1532.74,-449.623 1528.26,-432.512"/>
<polygon fill="midnightblue" stroke="midnightblue" points="1531.63,-431.529 1525.94,-422.592 1524.81,-433.127 1531.63,-431.529"/>
</g>
<!-- Node90&#45;&gt;Node59 -->
<g id="edge125" class="edge"><title>Node90&#45;&gt;Node59</title>
<path fill="none" stroke="midnightblue" d="M2366.72,-669.731C2228.07,-659.076 1952.4,-627.234 1952.4,-542.5 1952.4,-542.5 1952.4,-542.5 1952.4,-473.5 1952.4,-419.32 1889.51,-386.204 1847.14,-370.043"/>
<polygon fill="midnightblue" stroke="midnightblue" points="1848.25,-366.721 1837.66,-366.573 1845.84,-373.295 1848.25,-366.721"/>
</g>
<!-- Node91 -->
<g id="node48" class="node"><title>Node91</title>
<polygon fill="white" stroke="#bfbfbf" points="2429.4,-599 2429.4,-618 2459.4,-618 2459.4,-599 2429.4,-599"/>
<text text-anchor="middle" x="2444.4" y="-606" font-family="FreeSans" font-size="10.00">list</text>
</g>
<!-- Node90&#45;&gt;Node91 -->
<g id="edge122" class="edge"><title>Node90&#45;&gt;Node91</title>
<path fill="none" stroke="midnightblue" d="M2444.4,-660.396C2444.4,-651.064 2444.4,-638.714 2444.4,-628.517"/>
<polygon fill="midnightblue" stroke="midnightblue" points="2447.9,-628.195 2444.4,-618.195 2440.9,-628.195 2447.9,-628.195"/>
</g>
<!-- Node92 -->
<g id="node49" class="node"><title>Node92</title>
<g id="a_node49"><a xlink:href="ReverseIterator_8h_source.html" target="_top" xlink:title="DGtal/base/ReverseIterator.h">
<polygon fill="white" stroke="red" points="2505.4,-291.5 2505.4,-310.5 2659.4,-310.5 2659.4,-291.5 2505.4,-291.5"/>
<text text-anchor="middle" x="2582.4" y="-298.5" font-family="FreeSans" font-size="10.00">DGtal/base/ReverseIterator.h</text>
</a>
</g>
</g>
<!-- Node90&#45;&gt;Node92 -->
<g id="edge127" class="edge"><title>Node90&#45;&gt;Node92</title>
<path fill="none" stroke="midnightblue" d="M2522.18,-662.928C2630.97,-644.515 2815.4,-604.199 2815.4,-542.5 2815.4,-542.5 2815.4,-542.5 2815.4,-412 2815.4,-345.092 2735.87,-318.818 2669.73,-308.536"/>
<polygon fill="midnightblue" stroke="midnightblue" points="2670.06,-305.048 2659.67,-307.075 2669.06,-311.975 2670.06,-305.048"/>
</g>
<!-- Node99 -->
<g id="node50" class="node"><title>Node99</title>
<g id="a_node50"><a xlink:href="ArithmeticalDSS_8h_source.html" target="_top" xlink:title="DGtal/geometry/curves\l/ArithmeticalDSS.h">
<polygon fill="white" stroke="red" points="2477.4,-593.5 2477.4,-623.5 2605.4,-623.5 2605.4,-593.5 2477.4,-593.5"/>
<text text-anchor="start" x="2485.4" y="-611.5" font-family="FreeSans" font-size="10.00">DGtal/geometry/curves</text>
<text text-anchor="middle" x="2541.4" y="-600.5" font-family="FreeSans" font-size="10.00">/ArithmeticalDSS.h</text>
</a>
</g>
</g>
<!-- Node90&#45;&gt;Node99 -->
<g id="edge130" class="edge"><title>Node90&#45;&gt;Node99</title>
<path fill="none" stroke="midnightblue" d="M2465.45,-660.396C2479.05,-651.282 2496.95,-639.29 2511.95,-629.236"/>
<polygon fill="midnightblue" stroke="midnightblue" points="2514.04,-632.051 2520.4,-623.577 2510.14,-626.236 2514.04,-632.051"/>
</g>
<!-- Node92&#45;&gt;Node2 -->
<g id="edge128" class="edge"><title>Node92&#45;&gt;Node2</title>
<path fill="none" stroke="midnightblue" d="M2591.72,-291.428C2610.13,-273.502 2649.4,-229.936 2649.4,-184.5 2649.4,-184.5 2649.4,-184.5 2649.4,-121 2649.4,-90.2048 2650.27,-74.163 2625.4,-56 2585.6,-26.9297 1837.88,-14.2267 1655.34,-11.5514"/>
<polygon fill="midnightblue" stroke="midnightblue" points="1655.17,-8.04858 1645.12,-11.4034 1655.07,-15.0478 1655.17,-8.04858"/>
</g>
<!-- Node92&#45;&gt;Node3 -->
<g id="edge129" class="edge"><title>Node92&#45;&gt;Node3</title>
<path fill="none" stroke="midnightblue" d="M2505.34,-294.347C2488.24,-293.17 2470.21,-291.989 2453.4,-291 2130.42,-272.005 1744.65,-255.47 1586.5,-248.956"/>
<polygon fill="midnightblue" stroke="midnightblue" points="1586.55,-245.455 1576.41,-248.541 1586.26,-252.449 1586.55,-245.455"/>
</g>
<!-- Node99&#45;&gt;Node2 -->
<g id="edge131" class="edge"><title>Node99&#45;&gt;Node2</title>
<path fill="none" stroke="midnightblue" d="M2605.58,-599.446C2675.46,-586.666 2777.4,-554.486 2777.4,-475.5 2777.4,-475.5 2777.4,-475.5 2777.4,-412 2777.4,-303.561 2869.08,-303.939 2896.4,-199 2918.05,-115.879 2846.32,-87.4694 2766.4,-56 2661.34,-14.6299 1845.77,-11.2309 1655.15,-11.004"/>
<polygon fill="midnightblue" stroke="midnightblue" points="1655.02,-7.50402 1645.02,-10.9943 1655.02,-14.504 1655.02,-7.50402"/>
</g>
<!-- Node99&#45;&gt;Node3 -->
<g id="edge132" class="edge"><title>Node99&#45;&gt;Node3</title>
<path fill="none" stroke="midnightblue" d="M2539.13,-593.48C2530,-542.206 2490.81,-364.073 2377.4,-291 2311.82,-248.74 1783.51,-245.436 1586.83,-245.69"/>
<polygon fill="midnightblue" stroke="midnightblue" points="1586.59,-242.19 1576.6,-245.707 1586.6,-249.19 1586.59,-242.19"/>
</g>
<!-- Node99&#45;&gt;Node41 -->
<g id="edge133" class="edge"><title>Node99&#45;&gt;Node41</title>
<path fill="none" stroke="midnightblue" d="M2604.6,-593.461C2662.54,-576.42 2739.4,-541.395 2739.4,-475.5 2739.4,-475.5 2739.4,-475.5 2739.4,-412 2739.4,-329.255 2787.55,-238.877 2809.6,-201.816"/>
<polygon fill="midnightblue" stroke="midnightblue" points="2812.63,-203.564 2814.84,-193.201 2806.65,-199.929 2812.63,-203.564"/>
</g>
<!-- Node99&#45;&gt;Node70 -->
<g id="edge134" class="edge"><title>Node99&#45;&gt;Node70</title>
<path fill="none" stroke="midnightblue" d="M2477.36,-594.507C2474.33,-593.979 2471.34,-593.474 2468.4,-593 2361.63,-575.763 2238.21,-561.128 2155.95,-552.12"/>
<polygon fill="midnightblue" stroke="midnightblue" points="2156.19,-548.626 2145.87,-551.022 2155.43,-555.585 2156.19,-548.626"/>
</g>
</g>
</svg>
