<?xml version="1.0" encoding="UTF-8" standalone="no"?>
<!DOCTYPE svg PUBLIC "-//W3C//DTD SVG 1.1//EN"
 "http://www.w3.org/Graphics/SVG/1.1/DTD/svg11.dtd">
<!-- Generated by graphviz version 2.36.0 (20140111.2315)
 -->
<!-- Title: testBasicBoolFunctors.cpp Pages: 1 -->
<svg width="2701pt" height="320pt"
 viewBox="0.00 0.00 2701.00 320.00" xmlns="http://www.w3.org/2000/svg" xmlns:xlink="http://www.w3.org/1999/xlink">
<g id="graph0" class="graph" transform="scale(1 1) rotate(0) translate(4 316)">
<title>testBasicBoolFunctors.cpp</title>
<polygon fill="white" stroke="none" points="-4,4 -4,-316 2697,-316 2697,4 -4,4"/>
<!-- Node0 -->
<g id="node1" class="node"><title>Node0</title>
<polygon fill="#bfbfbf" stroke="black" points="2550.5,-292.5 2550.5,-311.5 2693.5,-311.5 2693.5,-292.5 2550.5,-292.5"/>
<text text-anchor="middle" x="2622" y="-299.5" font-family="FreeSans" font-size="10.00">testBasicBoolFunctors.cpp</text>
</g>
<!-- Node1 -->
<g id="node2" class="node"><title>Node1</title>
<polygon fill="white" stroke="#bfbfbf" points="1459.5,-0.5 1459.5,-19.5 1518.5,-19.5 1518.5,-0.5 1459.5,-0.5"/>
<text text-anchor="middle" x="1489" y="-7.5" font-family="FreeSans" font-size="10.00">iostream</text>
</g>
<!-- Node0&#45;&gt;Node1 -->
<g id="edge1" class="edge"><title>Node0&#45;&gt;Node1</title>
<path fill="none" stroke="midnightblue" d="M2626.97,-292.297C2637.27,-273.405 2660,-226.96 2660,-185 2660,-185 2660,-185 2660,-121 2660,-82.5768 2637.67,-72.5613 2603,-56 2504.59,-8.99304 1716.05,-9.87581 1528.79,-10.7598"/>
<polygon fill="midnightblue" stroke="midnightblue" points="1528.55,-7.26078 1518.57,-10.8109 1528.59,-14.2607 1528.55,-7.26078"/>
</g>
<!-- Node2 -->
<g id="node3" class="node"><title>Node2</title>
<g id="a_node3"><a xlink:href="Common_8h_source.html" target="_top" xlink:title="DGtal/base/Common.h">
<polygon fill="white" stroke="black" points="1574,-236.5 1574,-255.5 1700,-255.5 1700,-236.5 1574,-236.5"/>
<text text-anchor="middle" x="1637" y="-243.5" font-family="FreeSans" font-size="10.00">DGtal/base/Common.h</text>
</a>
</g>
</g>
<!-- Node0&#45;&gt;Node2 -->
<g id="edge2" class="edge"><title>Node0&#45;&gt;Node2</title>
<path fill="none" stroke="midnightblue" d="M2550.37,-297.073C2369.08,-287.134 1893.49,-261.062 1710.35,-251.021"/>
<polygon fill="midnightblue" stroke="midnightblue" points="1710.46,-247.522 1700.28,-250.469 1710.08,-254.512 1710.46,-247.522"/>
</g>
<!-- Node37 -->
<g id="node38" class="node"><title>Node37</title>
<g id="a_node38"><a xlink:href="BasicBoolFunctors_8h_source.html" target="_top" xlink:title="DGtal/base/BasicBoolFunctors.h">
<polygon fill="white" stroke="black" points="2280.5,-112.5 2280.5,-131.5 2449.5,-131.5 2449.5,-112.5 2280.5,-112.5"/>
<text text-anchor="middle" x="2365" y="-119.5" font-family="FreeSans" font-size="10.00">DGtal/base/BasicBoolFunctors.h</text>
</a>
</g>
</g>
<!-- Node0&#45;&gt;Node37 -->
<g id="edge73" class="edge"><title>Node0&#45;&gt;Node37</title>
<path fill="none" stroke="midnightblue" d="M2615.23,-292.283C2596.76,-269.016 2542.97,-204.721 2485,-168 2461.4,-153.049 2432.08,-141.939 2408.33,-134.499"/>
<polygon fill="midnightblue" stroke="midnightblue" points="2409.11,-131.078 2398.53,-131.534 2407.09,-137.779 2409.11,-131.078"/>
</g>
<!-- Node2&#45;&gt;Node1 -->
<g id="edge3" class="edge"><title>Node2&#45;&gt;Node1</title>
<path fill="none" stroke="midnightblue" d="M1700.32,-244.628C1885.27,-243.126 2415.97,-235.718 2485,-200 2553.76,-164.423 2636.6,-111.854 2583,-56 2545.8,-17.2382 1720.93,-11.8433 1528.76,-11.1119"/>
<polygon fill="midnightblue" stroke="midnightblue" points="1528.56,-7.61126 1518.55,-11.0752 1528.54,-14.6112 1528.56,-7.61126"/>
</g>
<!-- Node3 -->
<g id="node4" class="node"><title>Node3</title>
<polygon fill="white" stroke="#bfbfbf" points="1931.5,-174.5 1931.5,-193.5 1994.5,-193.5 1994.5,-174.5 1931.5,-174.5"/>
<text text-anchor="middle" x="1963" y="-181.5" font-family="FreeSans" font-size="10.00">exception</text>
</g>
<!-- Node2&#45;&gt;Node3 -->
<g id="edge4" class="edge"><title>Node2&#45;&gt;Node3</title>
<path fill="none" stroke="midnightblue" d="M1700.11,-237.714C1757.23,-230.446 1843.42,-217.794 1917,-200 1921.13,-199 1925.43,-197.81 1929.67,-196.542"/>
<polygon fill="midnightblue" stroke="midnightblue" points="1930.84,-199.842 1939.33,-193.5 1928.74,-193.165 1930.84,-199.842"/>
</g>
<!-- Node4 -->
<g id="node5" class="node"><title>Node4</title>
<polygon fill="white" stroke="#bfbfbf" points="2161,-56.5 2161,-75.5 2223,-75.5 2223,-56.5 2161,-56.5"/>
<text text-anchor="middle" x="2192" y="-63.5" font-family="FreeSans" font-size="10.00">algorithm</text>
</g>
<!-- Node2&#45;&gt;Node4 -->
<g id="edge5" class="edge"><title>Node2&#45;&gt;Node4</title>
<path fill="none" stroke="midnightblue" d="M1700.03,-241.461C1750.75,-236.739 1822.9,-225.718 1881,-200 1902.46,-190.501 1902.14,-178.753 1923,-168 1970.98,-143.264 1988.92,-152.137 2039,-132 2057.44,-124.585 2060.86,-120.129 2079,-112 2105.69,-100.039 2136.58,-87.8485 2159.31,-79.1779"/>
<polygon fill="midnightblue" stroke="midnightblue" points="2160.71,-82.3887 2168.82,-75.572 2158.23,-75.843 2160.71,-82.3887"/>
</g>
<!-- Node5 -->
<g id="node6" class="node"><title>Node5</title>
<polygon fill="white" stroke="#bfbfbf" points="2217,-174.5 2217,-193.5 2319,-193.5 2319,-174.5 2217,-174.5"/>
<text text-anchor="middle" x="2268" y="-181.5" font-family="FreeSans" font-size="10.00">boost/version.hpp</text>
</g>
<!-- Node2&#45;&gt;Node5 -->
<g id="edge6" class="edge"><title>Node2&#45;&gt;Node5</title>
<path fill="none" stroke="midnightblue" d="M1700.36,-243.444C1806.16,-240.078 2025.21,-229.838 2208,-200 2214.47,-198.944 2221.26,-197.539 2227.86,-196.012"/>
<polygon fill="midnightblue" stroke="midnightblue" points="2229.1,-199.311 2237.99,-193.543 2227.44,-192.51 2229.1,-199.311"/>
</g>
<!-- Node6 -->
<g id="node7" class="node"><title>Node6</title>
<polygon fill="white" stroke="#bfbfbf" points="2337.5,-174.5 2337.5,-193.5 2476.5,-193.5 2476.5,-174.5 2337.5,-174.5"/>
<text text-anchor="middle" x="2407" y="-181.5" font-family="FreeSans" font-size="10.00">boost/concept_check.hpp</text>
</g>
<!-- Node2&#45;&gt;Node6 -->
<g id="edge7" class="edge"><title>Node2&#45;&gt;Node6</title>
<path fill="none" stroke="midnightblue" d="M1700.03,-243.424C1821.68,-239.821 2097.13,-228.94 2327,-200 2336.68,-198.782 2346.95,-197.13 2356.8,-195.367"/>
<polygon fill="midnightblue" stroke="midnightblue" points="2357.67,-198.766 2366.86,-193.503 2356.39,-191.883 2357.67,-198.766"/>
</g>
<!-- Node7 -->
<g id="node8" class="node"><title>Node7</title>
<polygon fill="white" stroke="#bfbfbf" points="-0.5,-174.5 -0.5,-193.5 128.5,-193.5 128.5,-174.5 -0.5,-174.5"/>
<text text-anchor="middle" x="64" y="-181.5" font-family="FreeSans" font-size="10.00">boost/static_assert.hpp</text>
</g>
<!-- Node2&#45;&gt;Node7 -->
<g id="edge8" class="edge"><title>Node2&#45;&gt;Node7</title>
<path fill="none" stroke="midnightblue" d="M1573.66,-244.557C1325.87,-242.599 421.812,-233.281 137,-200 128.036,-198.953 118.538,-197.362 109.462,-195.603"/>
<polygon fill="midnightblue" stroke="midnightblue" points="109.942,-192.129 99.445,-193.565 108.546,-198.988 109.942,-192.129"/>
</g>
<!-- Node8 -->
<g id="node9" class="node"><title>Node8</title>
<polygon fill="white" stroke="#bfbfbf" points="146.5,-174.5 146.5,-193.5 285.5,-193.5 285.5,-174.5 146.5,-174.5"/>
<text text-anchor="middle" x="216" y="-181.5" font-family="FreeSans" font-size="10.00">boost/concept/assert.hpp</text>
</g>
<!-- Node2&#45;&gt;Node8 -->
<g id="edge9" class="edge"><title>Node2&#45;&gt;Node8</title>
<path fill="none" stroke="midnightblue" d="M1573.76,-244.173C1343.14,-240.957 547.546,-228.041 295,-200 285.01,-198.891 274.39,-197.219 264.285,-195.389"/>
<polygon fill="midnightblue" stroke="midnightblue" points="264.87,-191.937 254.394,-193.521 263.571,-198.816 264.87,-191.937"/>
</g>
<!-- Node9 -->
<g id="node10" class="node"><title>Node9</title>
<polygon fill="white" stroke="#bfbfbf" points="304,-174.5 304,-193.5 452,-193.5 452,-174.5 304,-174.5"/>
<text text-anchor="middle" x="378" y="-181.5" font-family="FreeSans" font-size="10.00">boost/concept/requires.hpp</text>
</g>
<!-- Node2&#45;&gt;Node9 -->
<g id="edge10" class="edge"><title>Node2&#45;&gt;Node9</title>
<path fill="none" stroke="midnightblue" d="M1573.99,-245.695C1397.62,-246.971 884.239,-246.111 461,-200 450.52,-198.858 439.37,-197.172 428.757,-195.339"/>
<polygon fill="midnightblue" stroke="midnightblue" points="429.245,-191.871 418.784,-193.548 428.008,-198.76 429.245,-191.871"/>
</g>
<!-- Node10 -->
<g id="node11" class="node"><title>Node10</title>
<polygon fill="white" stroke="#bfbfbf" points="470,-169 470,-199 590,-199 590,-169 470,-169"/>
<text text-anchor="start" x="478" y="-187" font-family="FreeSans" font-size="10.00">boost/iterator/iterator</text>
<text text-anchor="middle" x="530" y="-176" font-family="FreeSans" font-size="10.00">_concepts.hpp</text>
</g>
<!-- Node2&#45;&gt;Node10 -->
<g id="edge11" class="edge"><title>Node2&#45;&gt;Node10</title>
<path fill="none" stroke="midnightblue" d="M1573.67,-243.701C1381.78,-239.541 807.704,-225.387 600.515,-200.167"/>
<polygon fill="midnightblue" stroke="midnightblue" points="600.699,-196.663 590.339,-198.88 599.821,-203.607 600.699,-196.663"/>
</g>
<!-- Node11 -->
<g id="node12" class="node"><title>Node11</title>
<polygon fill="white" stroke="#bfbfbf" points="607.5,-174.5 607.5,-193.5 766.5,-193.5 766.5,-174.5 607.5,-174.5"/>
<text text-anchor="middle" x="687" y="-181.5" font-family="FreeSans" font-size="10.00">boost/concept_archetype.hpp</text>
</g>
<!-- Node2&#45;&gt;Node11 -->
<g id="edge12" class="edge"><title>Node2&#45;&gt;Node11</title>
<path fill="none" stroke="midnightblue" d="M1573.92,-244.006C1431.81,-241.259 1075.93,-231.543 780,-200 768.184,-198.741 755.584,-196.988 743.597,-195.123"/>
<polygon fill="midnightblue" stroke="midnightblue" points="744.13,-191.664 733.703,-193.539 743.023,-198.576 744.13,-191.664"/>
</g>
<!-- Node12 -->
<g id="node13" class="node"><title>Node12</title>
<polygon fill="white" stroke="#bfbfbf" points="2087.5,-112.5 2087.5,-131.5 2134.5,-131.5 2134.5,-112.5 2087.5,-112.5"/>
<text text-anchor="middle" x="2111" y="-119.5" font-family="FreeSans" font-size="10.00">cmath</text>
</g>
<!-- Node2&#45;&gt;Node12 -->
<g id="edge13" class="edge"><title>Node2&#45;&gt;Node12</title>
<path fill="none" stroke="midnightblue" d="M1700.24,-241.479C1790.17,-235.755 1949.96,-222.72 2003,-200 2023.61,-191.171 2023.92,-181.255 2042,-168 2057,-157.009 2074.55,-145.576 2088.21,-136.985"/>
<polygon fill="midnightblue" stroke="midnightblue" points="2090.32,-139.792 2096.95,-131.531 2086.62,-133.852 2090.32,-139.792"/>
</g>
<!-- Node13 -->
<g id="node14" class="node"><title>Node13</title>
<polygon fill="white" stroke="#bfbfbf" points="822.5,-174.5 822.5,-193.5 871.5,-193.5 871.5,-174.5 822.5,-174.5"/>
<text text-anchor="middle" x="847" y="-181.5" font-family="FreeSans" font-size="10.00">stdio.h</text>
</g>
<!-- Node2&#45;&gt;Node13 -->
<g id="edge14" class="edge"><title>Node2&#45;&gt;Node13</title>
<path fill="none" stroke="midnightblue" d="M1573.86,-244.211C1416.62,-241.771 1010.82,-232.431 880,-200 877.343,-199.341 874.636,-198.473 871.973,-197.486"/>
<polygon fill="midnightblue" stroke="midnightblue" points="873.26,-194.23 862.687,-193.55 870.528,-200.675 873.26,-194.23"/>
</g>
<!-- Node14 -->
<g id="node15" class="node"><title>Node14</title>
<g id="a_node15"><a xlink:href="Config_8h_source.html" target="_top" xlink:title="DGtal/base/Config.h">
<polygon fill="white" stroke="black" points="777,-56.5 777,-75.5 889,-75.5 889,-56.5 777,-56.5"/>
<text text-anchor="middle" x="833" y="-63.5" font-family="FreeSans" font-size="10.00">DGtal/base/Config.h</text>
</a>
</g>
</g>
<!-- Node2&#45;&gt;Node14 -->
<g id="edge15" class="edge"><title>Node2&#45;&gt;Node14</title>
<path fill="none" stroke="midnightblue" d="M1573.91,-241.635C1482,-236.154 1306.08,-223.475 1158,-200 1149.48,-198.649 861.413,-137.769 855,-132 841.872,-120.19 836.571,-100.266 834.434,-85.5834"/>
<polygon fill="midnightblue" stroke="midnightblue" points="837.909,-85.1569 833.34,-75.5978 830.95,-85.9196 837.909,-85.1569"/>
</g>
<!-- Node16 -->
<g id="node17" class="node"><title>Node16</title>
<g id="a_node17"><a xlink:href="Trace_8h_source.html" target="_top" xlink:title="DGtal/base/Trace.h">
<polygon fill="white" stroke="black" points="889.5,-174.5 889.5,-193.5 996.5,-193.5 996.5,-174.5 889.5,-174.5"/>
<text text-anchor="middle" x="943" y="-181.5" font-family="FreeSans" font-size="10.00">DGtal/base/Trace.h</text>
</a>
</g>
</g>
<!-- Node2&#45;&gt;Node16 -->
<g id="edge18" class="edge"><title>Node2&#45;&gt;Node16</title>
<path fill="none" stroke="midnightblue" d="M1573.59,-243.484C1460.17,-240.098 1215.33,-229.72 1011,-200 1003.18,-198.862 994.914,-197.327 986.946,-195.672"/>
<polygon fill="midnightblue" stroke="midnightblue" points="987.58,-192.228 977.066,-193.531 986.098,-199.069 987.58,-192.228"/>
</g>
<!-- Node23 -->
<g id="node24" class="node"><title>Node23</title>
<g id="a_node24"><a xlink:href="TraceWriterTerm_8h_source.html" target="_top" xlink:title="DGtal/base/TraceWriterTerm.h">
<polygon fill="white" stroke="black" points="864.5,-112.5 864.5,-131.5 1021.5,-131.5 1021.5,-112.5 864.5,-112.5"/>
<text text-anchor="middle" x="943" y="-119.5" font-family="FreeSans" font-size="10.00">DGtal/base/TraceWriterTerm.h</text>
</a>
</g>
</g>
<!-- Node2&#45;&gt;Node23 -->
<g id="edge41" class="edge"><title>Node2&#45;&gt;Node23</title>
<path fill="none" stroke="midnightblue" d="M1573.98,-236.57C1512.4,-228.121 1416.07,-214.34 1333,-200 1210.24,-178.807 1066.69,-149.218 992.713,-133.61"/>
<polygon fill="midnightblue" stroke="midnightblue" points="993.253,-130.146 982.745,-131.502 991.805,-136.995 993.253,-130.146"/>
</g>
<!-- Node24 -->
<g id="node25" class="node"><title>Node24</title>
<g id="a_node25"><a xlink:href="Assert_8h_source.html" target="_top" xlink:title="DGtal/base/Assert.h">
<polygon fill="white" stroke="black" points="392.5,-112.5 392.5,-131.5 505.5,-131.5 505.5,-112.5 392.5,-112.5"/>
<text text-anchor="middle" x="449" y="-119.5" font-family="FreeSans" font-size="10.00">DGtal/base/Assert.h</text>
</a>
</g>
</g>
<!-- Node2&#45;&gt;Node24 -->
<g id="edge46" class="edge"><title>Node2&#45;&gt;Node24</title>
<path fill="none" stroke="midnightblue" d="M1573.84,-243.853C1393.22,-240.253 882.969,-227.722 813,-200 792.473,-191.867 795.174,-176.974 775,-168 769.105,-165.378 609.165,-144.044 515.544,-131.716"/>
<polygon fill="midnightblue" stroke="midnightblue" points="515.956,-128.24 505.585,-130.405 515.043,-135.18 515.956,-128.24"/>
</g>
<!-- Node27 -->
<g id="node28" class="node"><title>Node27</title>
<g id="a_node28"><a xlink:href="TraceWriterFile_8h_source.html" target="_top" xlink:title="DGtal/base/TraceWriterFile.h">
<polygon fill="white" stroke="black" points="1077.5,-112.5 1077.5,-131.5 1226.5,-131.5 1226.5,-112.5 1077.5,-112.5"/>
<text text-anchor="middle" x="1152" y="-119.5" font-family="FreeSans" font-size="10.00">DGtal/base/TraceWriterFile.h</text>
</a>
</g>
</g>
<!-- Node2&#45;&gt;Node27 -->
<g id="edge42" class="edge"><title>Node2&#45;&gt;Node27</title>
<path fill="none" stroke="midnightblue" d="M1602.9,-236.421C1516.98,-214.808 1291.68,-158.135 1196,-134.067"/>
<polygon fill="midnightblue" stroke="midnightblue" points="1196.62,-130.615 1186.07,-131.569 1194.91,-137.403 1196.62,-130.615"/>
</g>
<!-- Node28 -->
<g id="node29" class="node"><title>Node28</title>
<g id="a_node29"><a xlink:href="ConceptUtils_8h_source.html" target="_top" xlink:title="DGtal/base/ConceptUtils.h">
<polygon fill="white" stroke="black" points="1408.5,-112.5 1408.5,-131.5 1551.5,-131.5 1551.5,-112.5 1408.5,-112.5"/>
<text text-anchor="middle" x="1480" y="-119.5" font-family="FreeSans" font-size="10.00">DGtal/base/ConceptUtils.h</text>
</a>
</g>
</g>
<!-- Node2&#45;&gt;Node28 -->
<g id="edge47" class="edge"><title>Node2&#45;&gt;Node28</title>
<path fill="none" stroke="midnightblue" d="M1625.71,-236.226C1599.12,-215.563 1532.31,-163.645 1499.2,-137.922"/>
<polygon fill="midnightblue" stroke="midnightblue" points="1501.23,-135.067 1491.19,-131.694 1496.94,-140.594 1501.23,-135.067"/>
</g>
<!-- Node29 -->
<g id="node30" class="node"><title>Node29</title>
<g id="a_node30"><a xlink:href="BasicTypes_8h_source.html" target="_top" xlink:title="DGtal/base/BasicTypes.h">
<polygon fill="white" stroke="black" points="1749,-112.5 1749,-131.5 1883,-131.5 1883,-112.5 1749,-112.5"/>
<text text-anchor="middle" x="1816" y="-119.5" font-family="FreeSans" font-size="10.00">DGtal/base/BasicTypes.h</text>
</a>
</g>
</g>
<!-- Node2&#45;&gt;Node29 -->
<g id="edge49" class="edge"><title>Node2&#45;&gt;Node29</title>
<path fill="none" stroke="midnightblue" d="M1641.24,-236.315C1649.36,-220.541 1668.59,-187.06 1694,-168 1715.18,-152.119 1742.55,-141.345 1766,-134.332"/>
<polygon fill="midnightblue" stroke="midnightblue" points="1767.11,-137.653 1775.78,-131.553 1765.2,-130.92 1767.11,-137.653"/>
</g>
<!-- Node32 -->
<g id="node33" class="node"><title>Node32</title>
<g id="a_node33"><a xlink:href="BasicFunctors_8h_source.html" target="_top" xlink:title="DGtal/base/BasicFunctors.h">
<polygon fill="white" stroke="black" points="2051,-174.5 2051,-193.5 2199,-193.5 2199,-174.5 2051,-174.5"/>
<text text-anchor="middle" x="2125" y="-181.5" font-family="FreeSans" font-size="10.00">DGtal/base/BasicFunctors.h</text>
</a>
</g>
</g>
<!-- Node2&#45;&gt;Node32 -->
<g id="edge54" class="edge"><title>Node2&#45;&gt;Node32</title>
<path fill="none" stroke="midnightblue" d="M1700.02,-238.388C1777.43,-230.508 1912.45,-216.335 2028,-200 2038.12,-198.57 2048.86,-196.881 2059.39,-195.163"/>
<polygon fill="midnightblue" stroke="midnightblue" points="2060.09,-198.594 2069.39,-193.513 2058.95,-191.687 2060.09,-198.594"/>
</g>
<!-- Node40 -->
<g id="node41" class="node"><title>Node40</title>
<g id="a_node41"><a xlink:href="BasicArchetypes_8h_source.html" target="_top" xlink:title="DGtal/base/BasicArchetypes.h">
<polygon fill="white" stroke="black" points="1569.5,-112.5 1569.5,-131.5 1730.5,-131.5 1730.5,-112.5 1569.5,-112.5"/>
<text text-anchor="middle" x="1650" y="-119.5" font-family="FreeSans" font-size="10.00">DGtal/base/BasicArchetypes.h</text>
</a>
</g>
</g>
<!-- Node2&#45;&gt;Node40 -->
<g id="edge69" class="edge"><title>Node2&#45;&gt;Node40</title>
<path fill="none" stroke="midnightblue" d="M1637.93,-236.226C1640.03,-216.53 1645.16,-168.437 1648.01,-141.7"/>
<polygon fill="midnightblue" stroke="midnightblue" points="1651.49,-142.009 1649.07,-131.694 1644.53,-141.267 1651.49,-142.009"/>
</g>
<!-- Node41 -->
<g id="node42" class="node"><title>Node41</title>
<g id="a_node42"><a xlink:href="Exceptions_8h_source.html" target="_top" xlink:title="DGtal/base/Exceptions.h">
<polygon fill="white" stroke="black" points="1703,-174.5 1703,-193.5 1837,-193.5 1837,-174.5 1703,-174.5"/>
<text text-anchor="middle" x="1770" y="-181.5" font-family="FreeSans" font-size="10.00">DGtal/base/Exceptions.h</text>
</a>
</g>
</g>
<!-- Node2&#45;&gt;Node41 -->
<g id="edge71" class="edge"><title>Node2&#45;&gt;Node41</title>
<path fill="none" stroke="midnightblue" d="M1656.06,-236.403C1678.47,-226.29 1715.91,-209.404 1741.71,-197.761"/>
<polygon fill="midnightblue" stroke="midnightblue" points="1743.3,-200.883 1750.98,-193.581 1740.43,-194.502 1743.3,-200.883"/>
</g>
<!-- Node14&#45;&gt;Node1 -->
<g id="edge16" class="edge"><title>Node14&#45;&gt;Node1</title>
<path fill="none" stroke="midnightblue" d="M889.053,-60.316C905.766,-58.9229 924.124,-57.3961 941,-56 1131.34,-40.2539 1358.89,-21.6334 1449.22,-14.2497"/>
<polygon fill="midnightblue" stroke="midnightblue" points="1449.62,-17.7294 1459.3,-13.4264 1449.05,-10.7527 1449.62,-17.7294"/>
</g>
<!-- Node15 -->
<g id="node16" class="node"><title>Node15</title>
<polygon fill="white" stroke="#bfbfbf" points="811,-0.5 811,-19.5 855,-19.5 855,-0.5 811,-0.5"/>
<text text-anchor="middle" x="833" y="-7.5" font-family="FreeSans" font-size="10.00">string</text>
</g>
<!-- Node14&#45;&gt;Node15 -->
<g id="edge17" class="edge"><title>Node14&#45;&gt;Node15</title>
<path fill="none" stroke="midnightblue" d="M833,-56.083C833,-49.0059 833,-38.8611 833,-29.9865"/>
<polygon fill="midnightblue" stroke="midnightblue" points="836.5,-29.751 833,-19.7511 829.5,-29.7511 836.5,-29.751"/>
</g>
<!-- Node16&#45;&gt;Node1 -->
<g id="edge19" class="edge"><title>Node16&#45;&gt;Node1</title>
<path fill="none" stroke="midnightblue" d="M996.646,-180.574C1094.25,-175.486 1296.66,-161.63 1360,-132 1411.73,-107.803 1456.38,-54.9037 1476.94,-27.7753"/>
<polygon fill="midnightblue" stroke="midnightblue" points="1479.82,-29.7611 1482.96,-19.6418 1474.19,-25.5952 1479.82,-29.7611"/>
</g>
<!-- Node16&#45;&gt;Node14 -->
<g id="edge23" class="edge"><title>Node16&#45;&gt;Node14</title>
<path fill="none" stroke="midnightblue" d="M909.773,-174.489C900.201,-172.201 889.72,-169.85 880,-168 824.645,-157.463 665.908,-174.579 629,-132 587.377,-83.9814 692.324,-71.1093 766.642,-67.8562"/>
<polygon fill="midnightblue" stroke="midnightblue" points="767.05,-71.3432 776.907,-67.4584 766.779,-64.3484 767.05,-71.3432"/>
</g>
<!-- Node16&#45;&gt;Node15 -->
<g id="edge21" class="edge"><title>Node16&#45;&gt;Node15</title>
<path fill="none" stroke="midnightblue" d="M910.111,-174.499C900.453,-172.184 889.84,-169.818 880,-168 820.043,-156.924 648.186,-177.855 608,-132 548.532,-64.1428 725.659,-27.7231 800.911,-15.6272"/>
<polygon fill="midnightblue" stroke="midnightblue" points="801.478,-19.0812 810.818,-14.0811 800.398,-12.1649 801.478,-19.0812"/>
</g>
<!-- Node17 -->
<g id="node18" class="node"><title>Node17</title>
<polygon fill="white" stroke="#bfbfbf" points="947.5,-0.5 947.5,-19.5 1004.5,-19.5 1004.5,-0.5 947.5,-0.5"/>
<text text-anchor="middle" x="976" y="-7.5" font-family="FreeSans" font-size="10.00">ostream</text>
</g>
<!-- Node16&#45;&gt;Node17 -->
<g id="edge20" class="edge"><title>Node16&#45;&gt;Node17</title>
<path fill="none" stroke="midnightblue" d="M909.781,-174.446C900.21,-172.157 889.726,-169.816 880,-168 821.797,-157.13 654.936,-176.606 616,-132 610.155,-125.303 610.916,-119.291 616,-112 653.156,-58.7129 852.272,-27.0109 937.381,-15.715"/>
<polygon fill="midnightblue" stroke="midnightblue" points="937.951,-19.1704 947.415,-14.408 937.047,-12.229 937.951,-19.1704"/>
</g>
<!-- Node18 -->
<g id="node19" class="node"><title>Node18</title>
<polygon fill="white" stroke="#bfbfbf" points="766,-112.5 766,-131.5 808,-131.5 808,-112.5 766,-112.5"/>
<text text-anchor="middle" x="787" y="-119.5" font-family="FreeSans" font-size="10.00">stack</text>
</g>
<!-- Node16&#45;&gt;Node18 -->
<g id="edge22" class="edge"><title>Node16&#45;&gt;Node18</title>
<path fill="none" stroke="midnightblue" d="M920.649,-174.403C893.703,-164.039 848.267,-146.564 817.958,-134.907"/>
<polygon fill="midnightblue" stroke="midnightblue" points="818.898,-131.519 808.308,-131.195 816.385,-138.052 818.898,-131.519"/>
</g>
<!-- Node19 -->
<g id="node20" class="node"><title>Node19</title>
<g id="a_node20"><a xlink:href="Clock_8h_source.html" target="_top" xlink:title="DGtal/base/Clock.h">
<polygon fill="white" stroke="black" points="1244.5,-112.5 1244.5,-131.5 1351.5,-131.5 1351.5,-112.5 1244.5,-112.5"/>
<text text-anchor="middle" x="1298" y="-119.5" font-family="FreeSans" font-size="10.00">DGtal/base/Clock.h</text>
</a>
</g>
</g>
<!-- Node16&#45;&gt;Node19 -->
<g id="edge24" class="edge"><title>Node16&#45;&gt;Node19</title>
<path fill="none" stroke="midnightblue" d="M993.486,-174.467C1057.76,-163.604 1168.69,-144.855 1237.45,-133.235"/>
<polygon fill="midnightblue" stroke="midnightblue" points="1238.41,-136.621 1247.69,-131.503 1237.24,-129.719 1238.41,-136.621"/>
</g>
<!-- Node22 -->
<g id="node23" class="node"><title>Node22</title>
<g id="a_node23"><a xlink:href="TraceWriter_8h_source.html" target="_top" xlink:title="DGtal/base/TraceWriter.h">
<polygon fill="white" stroke="black" points="983.5,-56.5 983.5,-75.5 1116.5,-75.5 1116.5,-56.5 983.5,-56.5"/>
<text text-anchor="middle" x="1050" y="-63.5" font-family="FreeSans" font-size="10.00">DGtal/base/TraceWriter.h</text>
</a>
</g>
</g>
<!-- Node16&#45;&gt;Node22 -->
<g id="edge28" class="edge"><title>Node16&#45;&gt;Node22</title>
<path fill="none" stroke="midnightblue" d="M967.406,-174.439C986.994,-166.376 1013.81,-152.455 1030,-132 1040.52,-118.705 1045.53,-99.8712 1047.9,-85.8968"/>
<polygon fill="midnightblue" stroke="midnightblue" points="1051.38,-86.3179 1049.3,-75.9301 1044.45,-85.3504 1051.38,-86.3179"/>
</g>
<!-- Node16&#45;&gt;Node23 -->
<g id="edge31" class="edge"><title>Node16&#45;&gt;Node23</title>
<path fill="none" stroke="midnightblue" d="M943,-174.403C943,-165.938 943,-152.728 943,-141.82"/>
<polygon fill="midnightblue" stroke="midnightblue" points="946.5,-141.581 943,-131.581 939.5,-141.581 946.5,-141.581"/>
</g>
<!-- Node16&#45;&gt;Node24 -->
<g id="edge36" class="edge"><title>Node16&#45;&gt;Node24</title>
<path fill="none" stroke="midnightblue" d="M902.201,-174.454C891.967,-172.084 881.09,-169.698 871,-168 715.683,-141.865 672.532,-149.766 515.753,-132.514"/>
<polygon fill="midnightblue" stroke="midnightblue" points="516.081,-129.029 505.754,-131.397 515.303,-135.986 516.081,-129.029"/>
</g>
<!-- Node26 -->
<g id="node27" class="node"><title>Node26</title>
<g id="a_node27"><a xlink:href="Trace_8ih_source.html" target="_top" xlink:title="DGtal/base/Trace.ih">
<polygon fill="white" stroke="black" points="638.5,-112.5 638.5,-131.5 747.5,-131.5 747.5,-112.5 638.5,-112.5"/>
<text text-anchor="middle" x="693" y="-119.5" font-family="FreeSans" font-size="10.00">DGtal/base/Trace.ih</text>
</a>
</g>
</g>
<!-- Node16&#45;&gt;Node26 -->
<g id="edge40" class="edge"><title>Node16&#45;&gt;Node26</title>
<path fill="none" stroke="midnightblue" d="M907.447,-174.467C863.02,-163.805 786.938,-145.545 738.358,-133.886"/>
<polygon fill="midnightblue" stroke="midnightblue" points="738.971,-130.434 728.431,-131.503 737.338,-137.241 738.971,-130.434"/>
</g>
<!-- Node19&#45;&gt;Node1 -->
<g id="edge25" class="edge"><title>Node19&#45;&gt;Node1</title>
<path fill="none" stroke="midnightblue" d="M1306.02,-112.349C1318.98,-98.7796 1345.84,-72.3565 1373,-56 1396.96,-41.5681 1426.37,-30.222 1449.57,-22.5328"/>
<polygon fill="midnightblue" stroke="midnightblue" points="1450.66,-25.8598 1459.11,-19.4629 1448.51,-19.1968 1450.66,-25.8598"/>
</g>
<!-- Node20 -->
<g id="node21" class="node"><title>Node20</title>
<polygon fill="white" stroke="#bfbfbf" points="1536.5,-56.5 1536.5,-75.5 1583.5,-75.5 1583.5,-56.5 1536.5,-56.5"/>
<text text-anchor="middle" x="1560" y="-63.5" font-family="FreeSans" font-size="10.00">cstdlib</text>
</g>
<!-- Node19&#45;&gt;Node20 -->
<g id="edge26" class="edge"><title>Node19&#45;&gt;Node20</title>
<path fill="none" stroke="midnightblue" d="M1339.51,-112.444C1391.27,-101.777 1478.72,-83.7528 1526.45,-73.9148"/>
<polygon fill="midnightblue" stroke="midnightblue" points="1527.2,-77.3342 1536.29,-71.8876 1525.79,-70.4783 1527.2,-77.3342"/>
</g>
<!-- Node21 -->
<g id="node22" class="node"><title>Node21</title>
<g id="a_node22"><a xlink:href="Clock_8ih_source.html" target="_top" xlink:title="DGtal/base/Clock.ih">
<polygon fill="white" stroke="black" points="1211,-56.5 1211,-75.5 1321,-75.5 1321,-56.5 1211,-56.5"/>
<text text-anchor="middle" x="1266" y="-63.5" font-family="FreeSans" font-size="10.00">DGtal/base/Clock.ih</text>
</a>
</g>
</g>
<!-- Node19&#45;&gt;Node21 -->
<g id="edge27" class="edge"><title>Node19&#45;&gt;Node21</title>
<path fill="none" stroke="midnightblue" d="M1292.72,-112.083C1288.29,-104.613 1281.84,-93.7244 1276.38,-84.5199"/>
<polygon fill="midnightblue" stroke="midnightblue" points="1279.29,-82.5697 1271.19,-75.7511 1273.27,-86.1383 1279.29,-82.5697"/>
</g>
<!-- Node22&#45;&gt;Node1 -->
<g id="edge29" class="edge"><title>Node22&#45;&gt;Node1</title>
<path fill="none" stroke="midnightblue" d="M1116.67,-56.7986C1209.34,-45.4001 1374.15,-25.1279 1449.47,-15.8629"/>
<polygon fill="midnightblue" stroke="midnightblue" points="1449.99,-19.3255 1459.48,-14.6307 1449.13,-12.3779 1449.99,-19.3255"/>
</g>
<!-- Node22&#45;&gt;Node17 -->
<g id="edge30" class="edge"><title>Node22&#45;&gt;Node17</title>
<path fill="none" stroke="midnightblue" d="M1038.11,-56.324C1026.85,-48.1066 1009.71,-35.6017 996.291,-25.8069"/>
<polygon fill="midnightblue" stroke="midnightblue" points="998.247,-22.9014 988.106,-19.8339 994.12,-28.5559 998.247,-22.9014"/>
</g>
<!-- Node23&#45;&gt;Node1 -->
<g id="edge32" class="edge"><title>Node23&#45;&gt;Node1</title>
<path fill="none" stroke="midnightblue" d="M944.4,-112.051C947.186,-97.5615 954.893,-69.2543 974,-56 1012.75,-29.1196 1335.04,-16.044 1449.15,-12.225"/>
<polygon fill="midnightblue" stroke="midnightblue" points="1449.33,-15.721 1459.21,-11.8943 1449.1,-8.72474 1449.33,-15.721"/>
</g>
<!-- Node23&#45;&gt;Node14 -->
<g id="edge35" class="edge"><title>Node23&#45;&gt;Node14</title>
<path fill="none" stroke="midnightblue" d="M925.327,-112.324C907.606,-103.625 880.097,-90.1202 859.712,-80.113"/>
<polygon fill="midnightblue" stroke="midnightblue" points="861.149,-76.9195 850.63,-75.6545 858.064,-83.2031 861.149,-76.9195"/>
</g>
<!-- Node23&#45;&gt;Node15 -->
<g id="edge33" class="edge"><title>Node23&#45;&gt;Node15</title>
<path fill="none" stroke="midnightblue" d="M938.158,-112.299C930.551,-99.1231 914.819,-73.7644 897,-56 885.002,-44.0389 869.503,-33.0511 856.763,-24.9274"/>
<polygon fill="midnightblue" stroke="midnightblue" points="858.409,-21.8299 848.063,-19.5454 854.726,-27.7829 858.409,-21.8299"/>
</g>
<!-- Node23&#45;&gt;Node22 -->
<g id="edge34" class="edge"><title>Node23&#45;&gt;Node22</title>
<path fill="none" stroke="midnightblue" d="M960.191,-112.324C977.351,-103.664 1003.95,-90.2424 1023.75,-80.249"/>
<polygon fill="midnightblue" stroke="midnightblue" points="1025.5,-83.2847 1032.85,-75.6545 1022.35,-77.0354 1025.5,-83.2847"/>
</g>
<!-- Node24&#45;&gt;Node15 -->
<g id="edge39" class="edge"><title>Node24&#45;&gt;Node15</title>
<path fill="none" stroke="midnightblue" d="M455.72,-112.061C467.155,-97.5851 491.904,-69.2975 520,-56 569.339,-32.6483 730.896,-18.4219 800.556,-13.2347"/>
<polygon fill="midnightblue" stroke="midnightblue" points="801.197,-16.6973 810.916,-12.4797 800.688,-9.71586 801.197,-16.6973"/>
</g>
<!-- Node24&#45;&gt;Node16 -->
<g id="edge37" class="edge"><title>Node24&#45;&gt;Node16</title>
<path fill="none" stroke="midnightblue" d="M505.597,-129.224C513.496,-130.188 521.469,-131.146 529,-132 688.775,-150.112 730.431,-141.318 889,-168 895.621,-169.114 902.582,-170.525 909.248,-172.033"/>
<polygon fill="midnightblue" stroke="midnightblue" points="908.853,-175.537 919.392,-174.454 910.478,-168.728 908.853,-175.537"/>
</g>
<!-- Node25 -->
<g id="node26" class="node"><title>Node25</title>
<polygon fill="white" stroke="#bfbfbf" points="322,-56.5 322,-75.5 468,-75.5 468,-56.5 322,-56.5"/>
<text text-anchor="middle" x="395" y="-63.5" font-family="FreeSans" font-size="10.00">boost/current_function.hpp</text>
</g>
<!-- Node24&#45;&gt;Node25 -->
<g id="edge38" class="edge"><title>Node24&#45;&gt;Node25</title>
<path fill="none" stroke="midnightblue" d="M440.083,-112.083C432.22,-104.22 420.569,-92.5688 411.081,-83.0813"/>
<polygon fill="midnightblue" stroke="midnightblue" points="413.297,-80.3473 403.751,-75.7511 408.347,-85.2971 413.297,-80.3473"/>
</g>
<!-- Node27&#45;&gt;Node1 -->
<g id="edge43" class="edge"><title>Node27&#45;&gt;Node1</title>
<path fill="none" stroke="midnightblue" d="M1156.06,-112.108C1163.15,-97.7004 1179.22,-69.5083 1202,-56 1243.06,-31.651 1380.3,-18.7075 1449.05,-13.6147"/>
<polygon fill="midnightblue" stroke="midnightblue" points="1449.35,-17.1022 1459.07,-12.892 1448.84,-10.1203 1449.35,-17.1022"/>
</g>
<!-- Node27&#45;&gt;Node15 -->
<g id="edge44" class="edge"><title>Node27&#45;&gt;Node15</title>
<path fill="none" stroke="midnightblue" d="M1151.06,-112.224C1149.03,-97.9829 1142.89,-70.0248 1125,-56 1104.8,-40.157 937.578,-21.5694 865.669,-14.2216"/>
<polygon fill="midnightblue" stroke="midnightblue" points="865.682,-10.7052 855.381,-13.1808 864.977,-17.6697 865.682,-10.7052"/>
</g>
<!-- Node27&#45;&gt;Node22 -->
<g id="edge45" class="edge"><title>Node27&#45;&gt;Node22</title>
<path fill="none" stroke="midnightblue" d="M1135.61,-112.324C1119.33,-103.703 1094.13,-90.3643 1075.28,-80.3855"/>
<polygon fill="midnightblue" stroke="midnightblue" points="1076.82,-77.2402 1066.35,-75.6545 1073.55,-83.4267 1076.82,-77.2402"/>
</g>
<!-- Node28&#45;&gt;Node1 -->
<g id="edge48" class="edge"><title>Node28&#45;&gt;Node1</title>
<path fill="none" stroke="midnightblue" d="M1480.71,-112.368C1482.16,-94.617 1485.51,-53.6664 1487.48,-29.5974"/>
<polygon fill="midnightblue" stroke="midnightblue" points="1490.97,-29.8436 1488.3,-19.5914 1483.99,-29.2727 1490.97,-29.8436"/>
</g>
<!-- Node29&#45;&gt;Node1 -->
<g id="edge51" class="edge"><title>Node29&#45;&gt;Node1</title>
<path fill="none" stroke="midnightblue" d="M1767.55,-112.46C1729.67,-105.016 1676.07,-92.7726 1631,-76 1612.74,-69.2066 1609.6,-64.3478 1592,-56 1567.65,-44.4492 1539.59,-32.2627 1518.91,-23.4891"/>
<polygon fill="midnightblue" stroke="midnightblue" points="1520.26,-20.26 1509.69,-19.5936 1517.54,-26.7085 1520.26,-20.26"/>
</g>
<!-- Node29&#45;&gt;Node20 -->
<g id="edge50" class="edge"><title>Node29&#45;&gt;Node20</title>
<path fill="none" stroke="midnightblue" d="M1772.9,-112.487C1728.87,-103.699 1658.56,-89.4183 1598,-76 1596.55,-75.6792 1595.07,-75.3474 1593.58,-75.009"/>
<polygon fill="midnightblue" stroke="midnightblue" points="1594.22,-71.5652 1583.69,-72.7233 1592.65,-78.3854 1594.22,-71.5652"/>
</g>
<!-- Node30 -->
<g id="node31" class="node"><title>Node30</title>
<polygon fill="white" stroke="#bfbfbf" points="1716,-56.5 1716,-75.5 1816,-75.5 1816,-56.5 1716,-56.5"/>
<text text-anchor="middle" x="1766" y="-63.5" font-family="FreeSans" font-size="10.00">boost/cstdint.hpp</text>
</g>
<!-- Node29&#45;&gt;Node30 -->
<g id="edge52" class="edge"><title>Node29&#45;&gt;Node30</title>
<path fill="none" stroke="midnightblue" d="M1807.74,-112.083C1800.54,-104.298 1789.89,-92.8015 1781.15,-83.3665"/>
<polygon fill="midnightblue" stroke="midnightblue" points="1783.47,-80.7108 1774.1,-75.7511 1778.33,-85.4666 1783.47,-80.7108"/>
</g>
<!-- Node31 -->
<g id="node32" class="node"><title>Node31</title>
<polygon fill="white" stroke="#bfbfbf" points="1640,-56.5 1640,-75.5 1698,-75.5 1698,-56.5 1640,-56.5"/>
<text text-anchor="middle" x="1669" y="-63.5" font-family="FreeSans" font-size="10.00">gmpxx.h</text>
</g>
<!-- Node29&#45;&gt;Node31 -->
<g id="edge53" class="edge"><title>Node29&#45;&gt;Node31</title>
<path fill="none" stroke="midnightblue" d="M1792.71,-112.444C1768.19,-103.438 1729.4,-89.1891 1701.8,-79.049"/>
<polygon fill="midnightblue" stroke="midnightblue" points="1702.78,-75.6793 1692.18,-75.5164 1700.36,-82.25 1702.78,-75.6793"/>
</g>
<!-- Node32&#45;&gt;Node2 -->
<g id="edge64" class="edge"><title>Node32&#45;&gt;Node2</title>
<path fill="none" stroke="midnightblue" d="M2086.68,-193.513C2073.79,-195.776 2059.35,-198.113 2046,-200 1929.09,-216.526 1792.27,-230.839 1710.15,-238.662"/>
<polygon fill="midnightblue" stroke="midnightblue" points="1709.8,-235.18 1700.17,-239.607 1710.46,-242.149 1709.8,-235.18"/>
</g>
<!-- Node32&#45;&gt;Node4 -->
<g id="edge55" class="edge"><title>Node32&#45;&gt;Node4</title>
<path fill="none" stroke="midnightblue" d="M2161.83,-174.363C2184.02,-167.056 2210.51,-154.12 2224,-132 2233.76,-115.992 2221.31,-96.5881 2209.2,-83.1706"/>
<polygon fill="midnightblue" stroke="midnightblue" points="2211.38,-80.4009 2201.9,-75.6737 2206.37,-85.2821 2211.38,-80.4009"/>
</g>
<!-- Node32&#45;&gt;Node12 -->
<g id="edge57" class="edge"><title>Node32&#45;&gt;Node12</title>
<path fill="none" stroke="midnightblue" d="M2122.99,-174.403C2121,-165.849 2117.87,-152.45 2115.31,-141.476"/>
<polygon fill="midnightblue" stroke="midnightblue" points="2118.68,-140.524 2113,-131.581 2111.87,-142.114 2118.68,-140.524"/>
</g>
<!-- Node33 -->
<g id="node34" class="node"><title>Node33</title>
<polygon fill="white" stroke="#bfbfbf" points="2152.5,-112.5 2152.5,-131.5 2215.5,-131.5 2215.5,-112.5 2152.5,-112.5"/>
<text text-anchor="middle" x="2184" y="-119.5" font-family="FreeSans" font-size="10.00">functional</text>
</g>
<!-- Node32&#45;&gt;Node33 -->
<g id="edge56" class="edge"><title>Node32&#45;&gt;Node33</title>
<path fill="none" stroke="midnightblue" d="M2133.45,-174.403C2142.57,-165.136 2157.27,-150.183 2168.48,-138.788"/>
<polygon fill="midnightblue" stroke="midnightblue" points="2171.05,-141.165 2175.56,-131.581 2166.06,-136.257 2171.05,-141.165"/>
</g>
<!-- Node34 -->
<g id="node35" class="node"><title>Node34</title>
<g id="a_node35"><a xlink:href="Color_8h_source.html" target="_top" xlink:title="DGtal/io/Color.h">
<polygon fill="white" stroke="black" points="1939.5,-112.5 1939.5,-131.5 2030.5,-131.5 2030.5,-112.5 1939.5,-112.5"/>
<text text-anchor="middle" x="1985" y="-119.5" font-family="FreeSans" font-size="10.00">DGtal/io/Color.h</text>
</a>
</g>
</g>
<!-- Node32&#45;&gt;Node34 -->
<g id="edge58" class="edge"><title>Node32&#45;&gt;Node34</title>
<path fill="none" stroke="midnightblue" d="M2104.94,-174.403C2081.24,-164.245 2041.59,-147.255 2014.42,-135.607"/>
<polygon fill="midnightblue" stroke="midnightblue" points="2015.59,-132.303 2005.02,-131.581 2012.83,-138.737 2015.59,-132.303"/>
</g>
<!-- Node32&#45;&gt;Node37 -->
<g id="edge65" class="edge"><title>Node32&#45;&gt;Node37</title>
<path fill="none" stroke="midnightblue" d="M2159.13,-174.467C2201.69,-163.827 2274.51,-145.622 2321.16,-133.959"/>
<polygon fill="midnightblue" stroke="midnightblue" points="2322.13,-137.324 2330.99,-131.503 2320.44,-130.533 2322.13,-137.324"/>
</g>
<!-- Node34&#45;&gt;Node1 -->
<g id="edge59" class="edge"><title>Node34&#45;&gt;Node1</title>
<path fill="none" stroke="midnightblue" d="M1968.77,-112.289C1937.19,-95.3991 1869.55,-59.536 1858,-56 1742.32,-20.5691 1598.18,-12.8985 1529.3,-11.3307"/>
<polygon fill="midnightblue" stroke="midnightblue" points="1528.97,-7.82378 1518.91,-11.1282 1528.84,-14.8224 1528.97,-7.82378"/>
</g>
<!-- Node34&#45;&gt;Node2 -->
<g id="edge60" class="edge"><title>Node34&#45;&gt;Node2</title>
<path fill="none" stroke="midnightblue" d="M1963.4,-131.648C1943.51,-139.947 1913.48,-153.355 1889,-168 1868.56,-180.229 1867.69,-190.158 1846,-200 1803.06,-219.479 1751.28,-230.707 1710,-237.076"/>
<polygon fill="midnightblue" stroke="midnightblue" points="1709.39,-233.628 1700.01,-238.554 1710.42,-240.552 1709.39,-233.628"/>
</g>
<!-- Node34&#45;&gt;Node4 -->
<g id="edge62" class="edge"><title>Node34&#45;&gt;Node4</title>
<path fill="none" stroke="midnightblue" d="M2017.8,-112.444C2053.8,-103.052 2111.66,-87.959 2150.72,-77.7695"/>
<polygon fill="midnightblue" stroke="midnightblue" points="2151.92,-81.0739 2160.71,-75.1629 2150.15,-74.3006 2151.92,-81.0739"/>
</g>
<!-- Node35 -->
<g id="node36" class="node"><title>Node35</title>
<polygon fill="white" stroke="#bfbfbf" points="1910,-56.5 1910,-75.5 2032,-75.5 2032,-56.5 1910,-56.5"/>
<text text-anchor="middle" x="1971" y="-63.5" font-family="FreeSans" font-size="10.00">boost/lexical_cast.hpp</text>
</g>
<!-- Node34&#45;&gt;Node35 -->
<g id="edge61" class="edge"><title>Node34&#45;&gt;Node35</title>
<path fill="none" stroke="midnightblue" d="M1982.69,-112.083C1980.83,-104.927 1978.16,-94.6353 1975.85,-85.6911"/>
<polygon fill="midnightblue" stroke="midnightblue" points="1979.17,-84.5527 1973.27,-75.7511 1972.39,-86.3094 1979.17,-84.5527"/>
</g>
<!-- Node36 -->
<g id="node37" class="node"><title>Node36</title>
<g id="a_node37"><a xlink:href="Color_8ih_source.html" target="_top" xlink:title="DGtal/io/Color.ih">
<polygon fill="white" stroke="black" points="2050.5,-56.5 2050.5,-75.5 2143.5,-75.5 2143.5,-56.5 2050.5,-56.5"/>
<text text-anchor="middle" x="2097" y="-63.5" font-family="FreeSans" font-size="10.00">DGtal/io/Color.ih</text>
</a>
</g>
</g>
<!-- Node34&#45;&gt;Node36 -->
<g id="edge63" class="edge"><title>Node34&#45;&gt;Node36</title>
<path fill="none" stroke="midnightblue" d="M2002.99,-112.324C2021.04,-103.625 2049.05,-90.1202 2069.8,-80.113"/>
<polygon fill="midnightblue" stroke="midnightblue" points="2071.56,-83.1502 2079.05,-75.6545 2068.52,-76.8449 2071.56,-83.1502"/>
</g>
<!-- Node37&#45;&gt;Node1 -->
<g id="edge66" class="edge"><title>Node37&#45;&gt;Node1</title>
<path fill="none" stroke="midnightblue" d="M2346.94,-112.465C2327.98,-103.481 2297.33,-88.8827 2271,-76 2253.15,-67.264 2250.2,-61.1503 2231,-56 2096.74,-19.9814 1663.04,-12.7167 1528.91,-11.3186"/>
<polygon fill="midnightblue" stroke="midnightblue" points="1528.72,-7.81661 1518.68,-11.2174 1528.65,-14.8163 1528.72,-7.81661"/>
</g>
<!-- Node38 -->
<g id="node39" class="node"><title>Node38</title>
<polygon fill="white" stroke="#bfbfbf" points="2469,-56.5 2469,-75.5 2575,-75.5 2575,-56.5 2469,-56.5"/>
<text text-anchor="middle" x="2522" y="-63.5" font-family="FreeSans" font-size="10.00">boost/function.hpp</text>
</g>
<!-- Node37&#45;&gt;Node38 -->
<g id="edge67" class="edge"><title>Node37&#45;&gt;Node38</title>
<path fill="none" stroke="midnightblue" d="M2389.88,-112.444C2416.29,-103.359 2458.22,-88.9388 2487.74,-78.7831"/>
<polygon fill="midnightblue" stroke="midnightblue" points="2488.92,-82.0787 2497.24,-75.5164 2486.64,-75.4593 2488.92,-82.0787"/>
</g>
<!-- Node39 -->
<g id="node40" class="node"><title>Node39</title>
<g id="a_node40"><a xlink:href="BasicBoolFunctors_8ih_source.html" target="_top" xlink:title="DGtal/base/BasicBoolFunctors.ih">
<polygon fill="white" stroke="black" points="2279.5,-56.5 2279.5,-75.5 2450.5,-75.5 2450.5,-56.5 2279.5,-56.5"/>
<text text-anchor="middle" x="2365" y="-63.5" font-family="FreeSans" font-size="10.00">DGtal/base/BasicBoolFunctors.ih</text>
</a>
</g>
</g>
<!-- Node37&#45;&gt;Node39 -->
<g id="edge68" class="edge"><title>Node37&#45;&gt;Node39</title>
<path fill="none" stroke="midnightblue" d="M2365,-112.083C2365,-105.006 2365,-94.8611 2365,-85.9865"/>
<polygon fill="midnightblue" stroke="midnightblue" points="2368.5,-85.751 2365,-75.7511 2361.5,-85.7511 2368.5,-85.751"/>
</g>
<!-- Node40&#45;&gt;Node1 -->
<g id="edge70" class="edge"><title>Node40&#45;&gt;Node1</title>
<path fill="none" stroke="midnightblue" d="M1605.25,-112.5C1580.08,-105.916 1549.33,-94.6664 1527,-76 1512.15,-63.5873 1501.77,-43.7896 1495.65,-29.3017"/>
<polygon fill="midnightblue" stroke="midnightblue" points="1498.86,-27.9012 1491.95,-19.8721 1492.34,-30.4595 1498.86,-27.9012"/>
</g>
<!-- Node41&#45;&gt;Node1 -->
<g id="edge72" class="edge"><title>Node41&#45;&gt;Node1</title>
<path fill="none" stroke="midnightblue" d="M1800.42,-174.491C1832.99,-164.696 1881.41,-147.908 1892,-132 1896.93,-124.601 1895.76,-120.052 1892,-112 1883.78,-94.4213 1842.76,-63.8179 1825,-56 1772.65,-32.9572 1606.12,-18.965 1528.96,-13.5627"/>
<polygon fill="midnightblue" stroke="midnightblue" points="1528.9,-10.0506 1518.68,-12.8574 1528.42,-17.0342 1528.9,-10.0506"/>
</g>
</g>
</svg>
