<?xml version="1.0" encoding="UTF-8" standalone="no"?>
<!DOCTYPE svg PUBLIC "-//W3C//DTD SVG 1.1//EN"
 "http://www.w3.org/Graphics/SVG/1.1/DTD/svg11.dtd">
<!-- Generated by graphviz version 2.36.0 (20140111.2315)
 -->
<!-- Title: testDigitalConvexity.cpp Pages: 1 -->
<svg width="2928pt" height="796pt"
 viewBox="0.00 0.00 2928.00 796.00" xmlns="http://www.w3.org/2000/svg" xmlns:xlink="http://www.w3.org/1999/xlink">
<g id="graph0" class="graph" transform="scale(1 1) rotate(0) translate(4 792)">
<title>testDigitalConvexity.cpp</title>
<polygon fill="white" stroke="none" points="-4,4 -4,-792 2924,-792 2924,4 -4,4"/>
<!-- Node0 -->
<g id="node1" class="node"><title>Node0</title>
<polygon fill="#bfbfbf" stroke="black" points="1300.5,-768.5 1300.5,-787.5 1431.5,-787.5 1431.5,-768.5 1300.5,-768.5"/>
<text text-anchor="middle" x="1366" y="-775.5" font-family="FreeSans" font-size="10.00">testDigitalConvexity.cpp</text>
</g>
<!-- Node1 -->
<g id="node2" class="node"><title>Node1</title>
<polygon fill="white" stroke="#bfbfbf" points="651.5,-0.5 651.5,-19.5 710.5,-19.5 710.5,-0.5 651.5,-0.5"/>
<text text-anchor="middle" x="681" y="-7.5" font-family="FreeSans" font-size="10.00">iostream</text>
</g>
<!-- Node0&#45;&gt;Node1 -->
<g id="edge1" class="edge"><title>Node0&#45;&gt;Node1</title>
<path fill="none" stroke="midnightblue" d="M1300.11,-774.324C1027.25,-762.815 0,-715.098 0,-649 0,-649 0,-649 0,-121 0,-84.8221 17.2156,-73.2798 49,-56 100.876,-27.7974 510.32,-15.2476 641.036,-11.9332"/>
<polygon fill="midnightblue" stroke="midnightblue" points="641.476,-15.4234 651.385,-11.6754 641.301,-8.42555 641.476,-15.4234"/>
</g>
<!-- Node2 -->
<g id="node3" class="node"><title>Node2</title>
<polygon fill="white" stroke="#bfbfbf" points="2262.5,-236.5 2262.5,-255.5 2309.5,-255.5 2309.5,-236.5 2262.5,-236.5"/>
<text text-anchor="middle" x="2286" y="-243.5" font-family="FreeSans" font-size="10.00">vector</text>
</g>
<!-- Node0&#45;&gt;Node2 -->
<g id="edge2" class="edge"><title>Node0&#45;&gt;Node2</title>
<path fill="none" stroke="midnightblue" d="M1368.95,-768.457C1381.37,-732.867 1430.18,-596.708 1461,-564 1550.98,-468.521 1860.2,-332.473 1985,-292 2010.09,-283.863 2179.17,-261.042 2252.35,-251.394"/>
<polygon fill="midnightblue" stroke="midnightblue" points="2252.96,-254.844 2262.42,-250.07 2252.05,-247.903 2252.96,-254.844"/>
</g>
<!-- Node3 -->
<g id="node4" class="node"><title>Node3</title>
<polygon fill="white" stroke="#bfbfbf" points="587,-112.5 587,-131.5 649,-131.5 649,-112.5 587,-112.5"/>
<text text-anchor="middle" x="618" y="-119.5" font-family="FreeSans" font-size="10.00">algorithm</text>
</g>
<!-- Node0&#45;&gt;Node3 -->
<g id="edge3" class="edge"><title>Node0&#45;&gt;Node3</title>
<path fill="none" stroke="midnightblue" d="M1300.28,-775.163C1086.8,-767.873 417.683,-734.218 262,-596 206.401,-546.638 190,-519.35 190,-445 190,-445 190,-445 190,-307 190,-139.688 469.462,-122.627 576.746,-122.242"/>
<polygon fill="midnightblue" stroke="midnightblue" points="576.87,-125.742 586.875,-122.254 576.879,-118.742 576.87,-125.742"/>
</g>
<!-- Node4 -->
<g id="node5" class="node"><title>Node4</title>
<g id="a_node5"><a xlink:href="Common_8h_source.html" target="_top" xlink:title="DGtal/base/Common.h">
<polygon fill="white" stroke="black" points="1303,-236.5 1303,-255.5 1429,-255.5 1429,-236.5 1303,-236.5"/>
<text text-anchor="middle" x="1366" y="-243.5" font-family="FreeSans" font-size="10.00">DGtal/base/Common.h</text>
</a>
</g>
</g>
<!-- Node0&#45;&gt;Node4 -->
<g id="edge4" class="edge"><title>Node0&#45;&gt;Node4</title>
<path fill="none" stroke="midnightblue" d="M1366,-768.309C1366,-747.633 1366,-693.889 1366,-649 1366,-649 1366,-649 1366,-375 1366,-336.248 1366,-290.897 1366,-265.919"/>
<polygon fill="midnightblue" stroke="midnightblue" points="1369.5,-265.691 1366,-255.691 1362.5,-265.691 1369.5,-265.691"/>
</g>
<!-- Node43 -->
<g id="node28" class="node"><title>Node43</title>
<g id="a_node28"><a xlink:href="SpaceND_8h_source.html" target="_top" xlink:title="DGtal/kernel/SpaceND.h">
<polygon fill="white" stroke="black" points="522.5,-366.5 522.5,-385.5 655.5,-385.5 655.5,-366.5 522.5,-366.5"/>
<text text-anchor="middle" x="589" y="-373.5" font-family="FreeSans" font-size="10.00">DGtal/kernel/SpaceND.h</text>
</a>
</g>
</g>
<!-- Node0&#45;&gt;Node43 -->
<g id="edge49" class="edge"><title>Node0&#45;&gt;Node43</title>
<path fill="none" stroke="midnightblue" d="M1326.5,-768.432C1290.94,-760.329 1237.43,-747.173 1192,-732 894.967,-632.791 713.586,-721.972 542,-460 526.995,-437.091 550.99,-409.143 569.859,-392.227"/>
<polygon fill="midnightblue" stroke="midnightblue" points="572.171,-394.855 577.503,-385.7 567.626,-389.532 572.171,-394.855"/>
</g>
<!-- Node64 -->
<g id="node32" class="node"><title>Node64</title>
<g id="a_node32"><a xlink:href="KhalimskySpaceND_8h_source.html" target="_top" xlink:title="DGtal/topology/Khalimsky\lSpaceND.h">
<polygon fill="white" stroke="black" points="707.5,-497 707.5,-527 846.5,-527 846.5,-497 707.5,-497"/>
<text text-anchor="start" x="715.5" y="-515" font-family="FreeSans" font-size="10.00">DGtal/topology/Khalimsky</text>
<text text-anchor="middle" x="777" y="-504" font-family="FreeSans" font-size="10.00">SpaceND.h</text>
</a>
</g>
</g>
<!-- Node0&#45;&gt;Node64 -->
<g id="edge63" class="edge"><title>Node0&#45;&gt;Node64</title>
<path fill="none" stroke="midnightblue" d="M1346.74,-768.366C1263.53,-731.07 933.898,-583.325 817.757,-531.268"/>
<polygon fill="midnightblue" stroke="midnightblue" points="819.036,-528.006 808.479,-527.109 816.173,-534.393 819.036,-528.006"/>
</g>
<!-- Node70 -->
<g id="node37" class="node"><title>Node70</title>
<g id="a_node37"><a xlink:href="CellGeometry_8h_source.html" target="_top" xlink:title="DGtal/geometry/volumes\l/CellGeometry.h">
<polygon fill="white" stroke="black" points="1540.5,-633 1540.5,-663 1677.5,-663 1677.5,-633 1540.5,-633"/>
<text text-anchor="start" x="1548.5" y="-651" font-family="FreeSans" font-size="10.00">DGtal/geometry/volumes</text>
<text text-anchor="middle" x="1609" y="-640" font-family="FreeSans" font-size="10.00">/CellGeometry.h</text>
</a>
</g>
</g>
<!-- Node0&#45;&gt;Node70 -->
<g id="edge81" class="edge"><title>Node0&#45;&gt;Node70</title>
<path fill="none" stroke="midnightblue" d="M1382.32,-768.403C1421.07,-747.992 1519.36,-696.218 1572.9,-668.017"/>
<polygon fill="midnightblue" stroke="midnightblue" points="1574.82,-670.961 1582.04,-663.204 1571.56,-664.768 1574.82,-670.961"/>
</g>
<!-- Node125 -->
<g id="node47" class="node"><title>Node125</title>
<g id="a_node47"><a xlink:href="DigitalConvexity_8h_source.html" target="_top" xlink:title="DGtal/geometry/volumes\l/DigitalConvexity.h">
<polygon fill="white" stroke="black" points="2121.5,-701 2121.5,-731 2258.5,-731 2258.5,-701 2121.5,-701"/>
<text text-anchor="start" x="2129.5" y="-719" font-family="FreeSans" font-size="10.00">DGtal/geometry/volumes</text>
<text text-anchor="middle" x="2190" y="-708" font-family="FreeSans" font-size="10.00">/DigitalConvexity.h</text>
</a>
</g>
</g>
<!-- Node0&#45;&gt;Node125 -->
<g id="edge119" class="edge"><title>Node0&#45;&gt;Node125</title>
<path fill="none" stroke="midnightblue" d="M1431.69,-772.217C1581.67,-761.296 1948.8,-734.563 2110.88,-722.761"/>
<polygon fill="midnightblue" stroke="midnightblue" points="2111.54,-726.223 2121.26,-722.005 2111.03,-719.241 2111.54,-726.223"/>
</g>
<!-- Node128 -->
<g id="node50" class="node"><title>Node128</title>
<polygon fill="white" stroke="#bfbfbf" points="2277,-706.5 2277,-725.5 2357,-725.5 2357,-706.5 2277,-706.5"/>
<text text-anchor="middle" x="2317" y="-713.5" font-family="FreeSans" font-size="10.00">DGtalCatch.h</text>
</g>
<!-- Node0&#45;&gt;Node128 -->
<g id="edge135" class="edge"><title>Node0&#45;&gt;Node128</title>
<path fill="none" stroke="midnightblue" d="M1431.57,-775.778C1610.82,-772.112 2106.29,-759.699 2267,-732 2272.22,-731.099 2277.67,-729.827 2282.97,-728.4"/>
<polygon fill="midnightblue" stroke="midnightblue" points="2284.24,-731.675 2292.87,-725.522 2282.29,-724.953 2284.24,-731.675"/>
</g>
<!-- Node4&#45;&gt;Node1 -->
<g id="edge5" class="edge"><title>Node4&#45;&gt;Node1</title>
<path fill="none" stroke="midnightblue" d="M1302.91,-244.565C1151.61,-242.953 777.392,-235.395 734,-200 682.069,-157.64 678.647,-68.8293 679.852,-29.9311"/>
<polygon fill="midnightblue" stroke="midnightblue" points="683.365,-29.7177 680.326,-19.5683 676.372,-29.398 683.365,-29.7177"/>
</g>
<!-- Node4&#45;&gt;Node3 -->
<g id="edge7" class="edge"><title>Node4&#45;&gt;Node3</title>
<path fill="none" stroke="midnightblue" d="M1302.8,-243.738C1143.51,-240.151 734.411,-228.272 680,-200 655.071,-187.047 636.673,-159.178 626.647,-140.763"/>
<polygon fill="midnightblue" stroke="midnightblue" points="629.645,-138.942 621.949,-131.66 623.425,-142.152 629.645,-138.942"/>
</g>
<!-- Node5 -->
<g id="node6" class="node"><title>Node5</title>
<polygon fill="white" stroke="#bfbfbf" points="1588.5,-174.5 1588.5,-193.5 1651.5,-193.5 1651.5,-174.5 1588.5,-174.5"/>
<text text-anchor="middle" x="1620" y="-181.5" font-family="FreeSans" font-size="10.00">exception</text>
</g>
<!-- Node4&#45;&gt;Node5 -->
<g id="edge6" class="edge"><title>Node4&#45;&gt;Node5</title>
<path fill="none" stroke="midnightblue" d="M1411.77,-236.495C1454.13,-228.294 1518.72,-214.951 1574,-200 1577.81,-198.969 1581.78,-197.81 1585.71,-196.605"/>
<polygon fill="midnightblue" stroke="midnightblue" points="1586.84,-199.921 1595.31,-193.564 1584.72,-193.247 1586.84,-199.921"/>
</g>
<!-- Node6 -->
<g id="node7" class="node"><title>Node6</title>
<polygon fill="white" stroke="#bfbfbf" points="1670,-174.5 1670,-193.5 1772,-193.5 1772,-174.5 1670,-174.5"/>
<text text-anchor="middle" x="1721" y="-181.5" font-family="FreeSans" font-size="10.00">boost/version.hpp</text>
</g>
<!-- Node4&#45;&gt;Node6 -->
<g id="edge8" class="edge"><title>Node4&#45;&gt;Node6</title>
<path fill="none" stroke="midnightblue" d="M1429.08,-237.003C1488.81,-229.039 1580.87,-215.752 1660,-200 1665.96,-198.813 1672.22,-197.432 1678.36,-195.998"/>
<polygon fill="midnightblue" stroke="midnightblue" points="1679.61,-199.298 1688.51,-193.558 1677.97,-192.491 1679.61,-199.298"/>
</g>
<!-- Node7 -->
<g id="node8" class="node"><title>Node7</title>
<polygon fill="white" stroke="#bfbfbf" points="1790.5,-174.5 1790.5,-193.5 1929.5,-193.5 1929.5,-174.5 1790.5,-174.5"/>
<text text-anchor="middle" x="1860" y="-181.5" font-family="FreeSans" font-size="10.00">boost/concept_check.hpp</text>
</g>
<!-- Node4&#45;&gt;Node7 -->
<g id="edge9" class="edge"><title>Node4&#45;&gt;Node7</title>
<path fill="none" stroke="midnightblue" d="M1429.32,-239.646C1510.7,-232.415 1656.27,-218.296 1780,-200 1789.03,-198.664 1798.6,-197.047 1807.87,-195.375"/>
<polygon fill="midnightblue" stroke="midnightblue" points="1808.55,-198.807 1817.75,-193.551 1807.28,-191.924 1808.55,-198.807"/>
</g>
<!-- Node8 -->
<g id="node9" class="node"><title>Node8</title>
<polygon fill="white" stroke="#bfbfbf" points="1947.5,-174.5 1947.5,-193.5 2076.5,-193.5 2076.5,-174.5 1947.5,-174.5"/>
<text text-anchor="middle" x="2012" y="-181.5" font-family="FreeSans" font-size="10.00">boost/static_assert.hpp</text>
</g>
<!-- Node4&#45;&gt;Node8 -->
<g id="edge10" class="edge"><title>Node4&#45;&gt;Node8</title>
<path fill="none" stroke="midnightblue" d="M1429.33,-242.534C1535.11,-237.852 1754.27,-225.752 1938,-200 1946.58,-198.797 1955.67,-197.214 1964.43,-195.529"/>
<polygon fill="midnightblue" stroke="midnightblue" points="1965.38,-198.907 1974.51,-193.52 1964.02,-192.043 1965.38,-198.907"/>
</g>
<!-- Node9 -->
<g id="node10" class="node"><title>Node9</title>
<polygon fill="white" stroke="#bfbfbf" points="2094.5,-174.5 2094.5,-193.5 2233.5,-193.5 2233.5,-174.5 2094.5,-174.5"/>
<text text-anchor="middle" x="2164" y="-181.5" font-family="FreeSans" font-size="10.00">boost/concept/assert.hpp</text>
</g>
<!-- Node4&#45;&gt;Node9 -->
<g id="edge11" class="edge"><title>Node4&#45;&gt;Node9</title>
<path fill="none" stroke="midnightblue" d="M1429.24,-243.698C1554.74,-240.53 1843.95,-230.307 2085,-200 2094.56,-198.798 2104.71,-197.154 2114.43,-195.393"/>
<polygon fill="midnightblue" stroke="midnightblue" points="2115.19,-198.813 2124.37,-193.53 2113.9,-191.933 2115.19,-198.813"/>
</g>
<!-- Node10 -->
<g id="node11" class="node"><title>Node10</title>
<polygon fill="white" stroke="#bfbfbf" points="964,-174.5 964,-193.5 1112,-193.5 1112,-174.5 964,-174.5"/>
<text text-anchor="middle" x="1038" y="-181.5" font-family="FreeSans" font-size="10.00">boost/concept/requires.hpp</text>
</g>
<!-- Node4&#45;&gt;Node10 -->
<g id="edge12" class="edge"><title>Node4&#45;&gt;Node10</title>
<path fill="none" stroke="midnightblue" d="M1319.35,-236.467C1260.09,-225.626 1157.89,-206.932 1094.34,-195.306"/>
<polygon fill="midnightblue" stroke="midnightblue" points="1094.95,-191.86 1084.49,-193.503 1093.69,-198.746 1094.95,-191.86"/>
</g>
<!-- Node11 -->
<g id="node12" class="node"><title>Node11</title>
<polygon fill="white" stroke="#bfbfbf" points="1130,-169 1130,-199 1250,-199 1250,-169 1130,-169"/>
<text text-anchor="start" x="1138" y="-187" font-family="FreeSans" font-size="10.00">boost/iterator/iterator</text>
<text text-anchor="middle" x="1190" y="-176" font-family="FreeSans" font-size="10.00">_concepts.hpp</text>
</g>
<!-- Node4&#45;&gt;Node11 -->
<g id="edge13" class="edge"><title>Node4&#45;&gt;Node11</title>
<path fill="none" stroke="midnightblue" d="M1340.78,-236.403C1314.86,-227.564 1273.76,-213.553 1241.01,-202.39"/>
<polygon fill="midnightblue" stroke="midnightblue" points="1241.74,-198.939 1231.14,-199.025 1239.48,-205.565 1241.74,-198.939"/>
</g>
<!-- Node12 -->
<g id="node13" class="node"><title>Node12</title>
<polygon fill="white" stroke="#bfbfbf" points="1267.5,-174.5 1267.5,-193.5 1426.5,-193.5 1426.5,-174.5 1267.5,-174.5"/>
<text text-anchor="middle" x="1347" y="-181.5" font-family="FreeSans" font-size="10.00">boost/concept_archetype.hpp</text>
</g>
<!-- Node4&#45;&gt;Node12 -->
<g id="edge14" class="edge"><title>Node4&#45;&gt;Node12</title>
<path fill="none" stroke="midnightblue" d="M1363.28,-236.403C1360.54,-227.76 1356.24,-214.17 1352.74,-203.134"/>
<polygon fill="midnightblue" stroke="midnightblue" points="1356.07,-202.057 1349.72,-193.581 1349.4,-204.171 1356.07,-202.057"/>
</g>
<!-- Node13 -->
<g id="node14" class="node"><title>Node13</title>
<polygon fill="white" stroke="#bfbfbf" points="1224.5,-112.5 1224.5,-131.5 1271.5,-131.5 1271.5,-112.5 1224.5,-112.5"/>
<text text-anchor="middle" x="1248" y="-119.5" font-family="FreeSans" font-size="10.00">cmath</text>
</g>
<!-- Node4&#45;&gt;Node13 -->
<g id="edge15" class="edge"><title>Node4&#45;&gt;Node13</title>
<path fill="none" stroke="midnightblue" d="M1413.1,-236.441C1463.16,-225.308 1531.37,-203.035 1502,-168 1474.26,-134.91 1344.18,-126.138 1281.68,-123.823"/>
<polygon fill="midnightblue" stroke="midnightblue" points="1281.66,-120.321 1271.55,-123.483 1281.43,-127.317 1281.66,-120.321"/>
</g>
<!-- Node14 -->
<g id="node15" class="node"><title>Node14</title>
<polygon fill="white" stroke="#bfbfbf" points="1444.5,-174.5 1444.5,-193.5 1493.5,-193.5 1493.5,-174.5 1444.5,-174.5"/>
<text text-anchor="middle" x="1469" y="-181.5" font-family="FreeSans" font-size="10.00">stdio.h</text>
</g>
<!-- Node4&#45;&gt;Node14 -->
<g id="edge16" class="edge"><title>Node4&#45;&gt;Node14</title>
<path fill="none" stroke="midnightblue" d="M1380.76,-236.403C1397.66,-226.557 1425.58,-210.291 1445.49,-198.695"/>
<polygon fill="midnightblue" stroke="midnightblue" points="1447.39,-201.638 1454.27,-193.581 1443.87,-195.59 1447.39,-201.638"/>
</g>
<!-- Node15 -->
<g id="node16" class="node"><title>Node15</title>
<g id="a_node16"><a xlink:href="Config_8h_source.html" target="_top" xlink:title="DGtal/base/Config.h">
<polygon fill="white" stroke="black" points="2223,-56.5 2223,-75.5 2335,-75.5 2335,-56.5 2223,-56.5"/>
<text text-anchor="middle" x="2279" y="-63.5" font-family="FreeSans" font-size="10.00">DGtal/base/Config.h</text>
</a>
</g>
</g>
<!-- Node4&#45;&gt;Node15 -->
<g id="edge17" class="edge"><title>Node4&#45;&gt;Node15</title>
<path fill="none" stroke="midnightblue" d="M1429.13,-244.111C1625.49,-241.041 2214.06,-229.414 2242,-200 2251.8,-189.689 2249.26,-180.23 2242,-168 2224.94,-139.268 2193.06,-160.732 2176,-132 2171.46,-124.356 2171.13,-119.438 2176,-112 2186.5,-95.9494 2204.13,-85.5902 2221.85,-78.9182"/>
<polygon fill="midnightblue" stroke="midnightblue" points="2223.33,-82.1133 2231.67,-75.5781 2221.07,-75.4866 2223.33,-82.1133"/>
</g>
<!-- Node17 -->
<g id="node18" class="node"><title>Node17</title>
<g id="a_node18"><a xlink:href="Trace_8h_source.html" target="_top" xlink:title="DGtal/base/Trace.h">
<polygon fill="white" stroke="red" points="2480.5,-174.5 2480.5,-193.5 2587.5,-193.5 2587.5,-174.5 2480.5,-174.5"/>
<text text-anchor="middle" x="2534" y="-181.5" font-family="FreeSans" font-size="10.00">DGtal/base/Trace.h</text>
</a>
</g>
</g>
<!-- Node4&#45;&gt;Node17 -->
<g id="edge20" class="edge"><title>Node4&#45;&gt;Node17</title>
<path fill="none" stroke="midnightblue" d="M1429.29,-244.484C1594.12,-242.672 2050.12,-234.658 2428,-200 2442,-198.716 2456.98,-196.881 2471.14,-194.933"/>
<polygon fill="midnightblue" stroke="midnightblue" points="2471.87,-198.365 2481.28,-193.501 2470.89,-191.434 2471.87,-198.365"/>
</g>
<!-- Node24 -->
<g id="node20" class="node"><title>Node24</title>
<g id="a_node20"><a xlink:href="TraceWriterTerm_8h_source.html" target="_top" xlink:title="DGtal/base/TraceWriterTerm.h">
<polygon fill="white" stroke="red" points="2185.5,-112.5 2185.5,-131.5 2342.5,-131.5 2342.5,-112.5 2185.5,-112.5"/>
<text text-anchor="middle" x="2264" y="-119.5" font-family="FreeSans" font-size="10.00">DGtal/base/TraceWriterTerm.h</text>
</a>
</g>
</g>
<!-- Node4&#45;&gt;Node24 -->
<g id="edge32" class="edge"><title>Node4&#45;&gt;Node24</title>
<path fill="none" stroke="midnightblue" d="M1429.17,-244.369C1636.3,-241.993 2283.46,-232.027 2314,-200 2332.27,-180.839 2305.78,-154.124 2284.92,-137.726"/>
<polygon fill="midnightblue" stroke="midnightblue" points="2286.85,-134.796 2276.75,-131.582 2282.64,-140.39 2286.85,-134.796"/>
</g>
<!-- Node25 -->
<g id="node21" class="node"><title>Node25</title>
<g id="a_node21"><a xlink:href="Assert_8h_source.html" target="_top" xlink:title="DGtal/base/Assert.h">
<polygon fill="white" stroke="red" points="2512.5,-112.5 2512.5,-131.5 2625.5,-131.5 2625.5,-112.5 2512.5,-112.5"/>
<text text-anchor="middle" x="2569" y="-119.5" font-family="FreeSans" font-size="10.00">DGtal/base/Assert.h</text>
</a>
</g>
</g>
<!-- Node4&#45;&gt;Node25 -->
<g id="edge36" class="edge"><title>Node4&#45;&gt;Node25</title>
<path fill="none" stroke="midnightblue" d="M1429.29,-245.09C1675.14,-245.135 2555.19,-242.329 2596,-200 2611.99,-183.412 2596.76,-156.82 2583.53,-139.632"/>
<polygon fill="midnightblue" stroke="midnightblue" points="2586.01,-137.132 2576.97,-131.604 2580.59,-141.562 2586.01,-137.132"/>
</g>
<!-- Node28 -->
<g id="node22" class="node"><title>Node28</title>
<g id="a_node22"><a xlink:href="TraceWriterFile_8h_source.html" target="_top" xlink:title="DGtal/base/TraceWriterFile.h">
<polygon fill="white" stroke="red" points="2352.5,-56.5 2352.5,-75.5 2501.5,-75.5 2501.5,-56.5 2352.5,-56.5"/>
<text text-anchor="middle" x="2427" y="-63.5" font-family="FreeSans" font-size="10.00">DGtal/base/TraceWriterFile.h</text>
</a>
</g>
</g>
<!-- Node4&#45;&gt;Node28 -->
<g id="edge33" class="edge"><title>Node4&#45;&gt;Node28</title>
<path fill="none" stroke="midnightblue" d="M1429.04,-244.757C1676.05,-243.544 2566.83,-236.636 2614,-200 2645.68,-175.396 2659.17,-143.228 2634,-112 2618.42,-92.6718 2561.71,-81.2147 2511.58,-74.7021"/>
<polygon fill="midnightblue" stroke="midnightblue" points="2512.01,-71.229 2501.65,-73.4647 2511.14,-78.1752 2512.01,-71.229"/>
</g>
<!-- Node29 -->
<g id="node23" class="node"><title>Node29</title>
<g id="a_node23"><a xlink:href="ConceptUtils_8h_source.html" target="_top" xlink:title="DGtal/base/ConceptUtils.h">
<polygon fill="white" stroke="black" points="332.5,-174.5 332.5,-193.5 475.5,-193.5 475.5,-174.5 332.5,-174.5"/>
<text text-anchor="middle" x="404" y="-181.5" font-family="FreeSans" font-size="10.00">DGtal/base/ConceptUtils.h</text>
</a>
</g>
</g>
<!-- Node4&#45;&gt;Node29 -->
<g id="edge37" class="edge"><title>Node4&#45;&gt;Node29</title>
<path fill="none" stroke="midnightblue" d="M1302.57,-241.076C1176.64,-233.281 886.155,-215.282 642,-200 590.043,-196.748 531.708,-193.072 485.796,-190.173"/>
<polygon fill="midnightblue" stroke="midnightblue" points="485.8,-186.666 475.6,-189.529 485.359,-193.652 485.8,-186.666"/>
</g>
<!-- Node30 -->
<g id="node24" class="node"><title>Node30</title>
<g id="a_node24"><a xlink:href="BasicTypes_8h_source.html" target="_top" xlink:title="DGtal/base/BasicTypes.h">
<polygon fill="white" stroke="red" points="709,-56.5 709,-75.5 843,-75.5 843,-56.5 709,-56.5"/>
<text text-anchor="middle" x="776" y="-63.5" font-family="FreeSans" font-size="10.00">DGtal/base/BasicTypes.h</text>
</a>
</g>
</g>
<!-- Node4&#45;&gt;Node30 -->
<g id="edge39" class="edge"><title>Node4&#45;&gt;Node30</title>
<path fill="none" stroke="midnightblue" d="M1302.87,-245.13C1153.48,-244.78 788.012,-239.819 751,-200 721.381,-168.135 747.689,-112.784 764.515,-84.593"/>
<polygon fill="midnightblue" stroke="midnightblue" points="767.652,-86.1769 769.964,-75.8374 761.708,-82.4783 767.652,-86.1769"/>
</g>
<!-- Node33 -->
<g id="node25" class="node"><title>Node33</title>
<g id="a_node25"><a xlink:href="BasicFunctors_8h_source.html" target="_top" xlink:title="DGtal/base/BasicFunctors.h">
<polygon fill="white" stroke="red" points="760,-174.5 760,-193.5 908,-193.5 908,-174.5 760,-174.5"/>
<text text-anchor="middle" x="834" y="-181.5" font-family="FreeSans" font-size="10.00">DGtal/base/BasicFunctors.h</text>
</a>
</g>
</g>
<!-- Node4&#45;&gt;Node33 -->
<g id="edge41" class="edge"><title>Node4&#45;&gt;Node33</title>
<path fill="none" stroke="midnightblue" d="M1302.87,-240.446C1215.01,-233.426 1051.39,-218.785 913,-200 902.864,-198.624 892.106,-196.961 881.873,-195.249"/>
<polygon fill="midnightblue" stroke="midnightblue" points="882.307,-191.773 871.859,-193.531 881.123,-198.672 882.307,-191.773"/>
</g>
<!-- Node41 -->
<g id="node26" class="node"><title>Node41</title>
<g id="a_node26"><a xlink:href="BasicArchetypes_8h_source.html" target="_top" xlink:title="DGtal/base/BasicArchetypes.h">
<polygon fill="white" stroke="black" points="861.5,-56.5 861.5,-75.5 1022.5,-75.5 1022.5,-56.5 861.5,-56.5"/>
<text text-anchor="middle" x="942" y="-63.5" font-family="FreeSans" font-size="10.00">DGtal/base/BasicArchetypes.h</text>
</a>
</g>
</g>
<!-- Node4&#45;&gt;Node41 -->
<g id="edge45" class="edge"><title>Node4&#45;&gt;Node41</title>
<path fill="none" stroke="midnightblue" d="M1302.91,-242.404C1193.76,-237.291 978.969,-224.249 955,-200 925.052,-169.702 931.378,-114.44 937.349,-85.6154"/>
<polygon fill="midnightblue" stroke="midnightblue" points="940.809,-86.1823 939.622,-75.6542 933.985,-84.6248 940.809,-86.1823"/>
</g>
<!-- Node42 -->
<g id="node27" class="node"><title>Node42</title>
<g id="a_node27"><a xlink:href="Exceptions_8h_source.html" target="_top" xlink:title="DGtal/base/Exceptions.h">
<polygon fill="white" stroke="black" points="1270,-56.5 1270,-75.5 1404,-75.5 1404,-56.5 1270,-56.5"/>
<text text-anchor="middle" x="1337" y="-63.5" font-family="FreeSans" font-size="10.00">DGtal/base/Exceptions.h</text>
</a>
</g>
</g>
<!-- Node4&#45;&gt;Node42 -->
<g id="edge47" class="edge"><title>Node4&#45;&gt;Node42</title>
<path fill="none" stroke="midnightblue" d="M1418.9,-236.46C1458.43,-228.872 1507.68,-216.437 1520,-200 1528.53,-188.62 1527.23,-180.248 1520,-168 1490.85,-118.61 1427.94,-91.708 1384.07,-78.3521"/>
<polygon fill="midnightblue" stroke="midnightblue" points="1385.04,-74.9908 1374.46,-75.5503 1383.08,-81.7107 1385.04,-74.9908"/>
</g>
<!-- Node15&#45;&gt;Node1 -->
<g id="edge18" class="edge"><title>Node15&#45;&gt;Node1</title>
<path fill="none" stroke="midnightblue" d="M2222.89,-57.2917C2218.19,-56.7975 2213.52,-56.3562 2209,-56 1618.5,-9.45769 896.205,-9.86552 720.763,-10.7345"/>
<polygon fill="midnightblue" stroke="midnightblue" points="720.683,-7.23482 710.702,-10.788 720.72,-14.2347 720.683,-7.23482"/>
</g>
<!-- Node16 -->
<g id="node17" class="node"><title>Node16</title>
<polygon fill="white" stroke="#bfbfbf" points="2689,-0.5 2689,-19.5 2733,-19.5 2733,-0.5 2689,-0.5"/>
<text text-anchor="middle" x="2711" y="-7.5" font-family="FreeSans" font-size="10.00">string</text>
</g>
<!-- Node15&#45;&gt;Node16 -->
<g id="edge19" class="edge"><title>Node15&#45;&gt;Node16</title>
<path fill="none" stroke="midnightblue" d="M2335.18,-57.0407C2337.83,-56.6849 2340.44,-56.3363 2343,-56 2466.97,-39.705 2614.7,-22.2281 2678.74,-14.7461"/>
<polygon fill="midnightblue" stroke="midnightblue" points="2679.47,-18.1852 2689,-13.5501 2678.66,-11.2323 2679.47,-18.1852"/>
</g>
<!-- Node17&#45;&gt;Node1 -->
<g id="edge21" class="edge"><title>Node17&#45;&gt;Node1</title>
<path fill="none" stroke="midnightblue" d="M2498.13,-174.428C2487.8,-172.139 2476.48,-169.803 2466,-168 2402,-156.994 2229.97,-168.114 2176,-132 2143.75,-110.417 2166.22,-76.0679 2133,-56 2070.91,-18.4906 947.4,-12.0551 720.68,-11.1368"/>
<polygon fill="midnightblue" stroke="midnightblue" points="720.583,-7.63652 710.569,-11.0972 720.556,-14.6365 720.583,-7.63652"/>
</g>
<!-- Node17&#45;&gt;Node15 -->
<g id="edge24" class="edge"><title>Node17&#45;&gt;Node15</title>
<path fill="none" stroke="midnightblue" d="M2523.27,-174.431C2504.53,-159.823 2464.18,-129.942 2426,-112 2394.34,-97.1237 2356.58,-85.6858 2327.25,-78.0642"/>
<polygon fill="midnightblue" stroke="midnightblue" points="2327.81,-74.5946 2317.25,-75.5282 2326.09,-81.3797 2327.81,-74.5946"/>
</g>
<!-- Node17&#45;&gt;Node16 -->
<g id="edge23" class="edge"><title>Node17&#45;&gt;Node16</title>
<path fill="none" stroke="midnightblue" d="M2524.91,-174.288C2511.63,-160.478 2489.87,-132.976 2503,-112 2523.06,-79.9553 2626.21,-40.3875 2679.31,-21.7156"/>
<polygon fill="midnightblue" stroke="midnightblue" points="2680.63,-24.9645 2688.92,-18.3734 2678.33,-18.353 2680.63,-24.9645"/>
</g>
<!-- Node18 -->
<g id="node19" class="node"><title>Node18</title>
<polygon fill="white" stroke="#bfbfbf" points="2360.5,-112.5 2360.5,-131.5 2417.5,-131.5 2417.5,-112.5 2360.5,-112.5"/>
<text text-anchor="middle" x="2389" y="-119.5" font-family="FreeSans" font-size="10.00">ostream</text>
</g>
<!-- Node17&#45;&gt;Node18 -->
<g id="edge22" class="edge"><title>Node17&#45;&gt;Node18</title>
<path fill="none" stroke="midnightblue" d="M2513.23,-174.403C2488.57,-164.2 2447.25,-147.105 2419.1,-135.454"/>
<polygon fill="midnightblue" stroke="midnightblue" points="2420.31,-132.17 2409.74,-131.581 2417.64,-138.638 2420.31,-132.17"/>
</g>
<!-- Node17&#45;&gt;Node24 -->
<g id="edge25" class="edge"><title>Node17&#45;&gt;Node24</title>
<path fill="none" stroke="midnightblue" d="M2495.6,-174.467C2447.42,-163.76 2364.77,-145.392 2312.33,-133.74"/>
<polygon fill="midnightblue" stroke="midnightblue" points="2312.79,-130.256 2302.27,-131.503 2311.27,-137.089 2312.79,-130.256"/>
</g>
<!-- Node17&#45;&gt;Node25 -->
<g id="edge29" class="edge"><title>Node17&#45;&gt;Node25</title>
<path fill="none" stroke="midnightblue" d="M2534.11,-174.403C2537.42,-165.403 2545.39,-151.041 2553.08,-139.782"/>
<polygon fill="midnightblue" stroke="midnightblue" points="2556,-141.714 2559.1,-131.581 2550.36,-137.573 2556,-141.714"/>
</g>
<!-- Node24&#45;&gt;Node1 -->
<g id="edge26" class="edge"><title>Node24&#45;&gt;Node1</title>
<path fill="none" stroke="midnightblue" d="M2255.24,-112.144C2239.83,-97.2455 2206.15,-67.6529 2171,-56 2030.06,-9.27928 944.411,-10.1611 721.087,-10.8447"/>
<polygon fill="midnightblue" stroke="midnightblue" points="720.805,-7.34552 710.816,-10.8779 720.827,-14.3455 720.805,-7.34552"/>
</g>
<!-- Node24&#45;&gt;Node15 -->
<g id="edge28" class="edge"><title>Node24&#45;&gt;Node15</title>
<path fill="none" stroke="midnightblue" d="M2266.48,-112.083C2268.49,-104.849 2271.39,-94.4087 2273.89,-85.3968"/>
<polygon fill="midnightblue" stroke="midnightblue" points="2277.26,-86.323 2276.57,-75.7511 2270.52,-84.4495 2277.26,-86.323"/>
</g>
<!-- Node24&#45;&gt;Node16 -->
<g id="edge27" class="edge"><title>Node24&#45;&gt;Node16</title>
<path fill="none" stroke="midnightblue" d="M2337.85,-112.488C2387.34,-105.574 2453.53,-93.974 2510,-76 2530.08,-69.6076 2533.25,-63.354 2553,-56 2595.81,-40.0612 2646.9,-26.452 2679.15,-18.4963"/>
<polygon fill="midnightblue" stroke="midnightblue" points="2680.04,-21.8828 2688.92,-16.1162 2678.38,-15.0815 2680.04,-21.8828"/>
</g>
<!-- Node25&#45;&gt;Node16 -->
<g id="edge31" class="edge"><title>Node25&#45;&gt;Node16</title>
<path fill="none" stroke="midnightblue" d="M2580.14,-112.368C2604.3,-93.6531 2661.75,-49.1509 2691.85,-25.8324"/>
<polygon fill="midnightblue" stroke="midnightblue" points="2694.15,-28.4824 2699.91,-19.5914 2689.86,-22.9485 2694.15,-28.4824"/>
</g>
<!-- Node25&#45;&gt;Node17 -->
<g id="edge30" class="edge"><title>Node25&#45;&gt;Node17</title>
<path fill="none" stroke="midnightblue" d="M2568.89,-131.581C2565.59,-140.574 2557.63,-154.936 2549.93,-166.198"/>
<polygon fill="midnightblue" stroke="midnightblue" points="2547.01,-164.27 2543.92,-174.403 2552.65,-168.41 2547.01,-164.27"/>
</g>
<!-- Node28&#45;&gt;Node1 -->
<g id="edge34" class="edge"><title>Node28&#45;&gt;Node1</title>
<path fill="none" stroke="midnightblue" d="M2352.37,-56.6923C2349.21,-56.4386 2346.07,-56.2059 2343,-56 1696.04,-12.6518 904.749,-10.7294 720.587,-10.9089"/>
<polygon fill="midnightblue" stroke="midnightblue" points="720.549,-7.40885 710.554,-10.9215 720.558,-14.4088 720.549,-7.40885"/>
</g>
<!-- Node28&#45;&gt;Node16 -->
<g id="edge35" class="edge"><title>Node28&#45;&gt;Node16</title>
<path fill="none" stroke="midnightblue" d="M2472,-56.4435C2529.68,-45.4766 2628.26,-26.7331 2678.89,-17.1045"/>
<polygon fill="midnightblue" stroke="midnightblue" points="2679.77,-20.5007 2688.94,-15.1943 2678.46,-13.6239 2679.77,-20.5007"/>
</g>
<!-- Node29&#45;&gt;Node1 -->
<g id="edge38" class="edge"><title>Node29&#45;&gt;Node1</title>
<path fill="none" stroke="midnightblue" d="M407.258,-174.261C416.397,-151.01 444.615,-87.2811 490,-56 535.415,-24.6978 599.783,-14.9901 640.965,-12.0826"/>
<polygon fill="midnightblue" stroke="midnightblue" points="641.393,-15.5633 651.164,-11.4682 640.972,-8.57592 641.393,-15.5633"/>
</g>
<!-- Node30&#45;&gt;Node1 -->
<g id="edge40" class="edge"><title>Node30&#45;&gt;Node1</title>
<path fill="none" stroke="midnightblue" d="M760.737,-56.324C745.779,-47.8215 722.745,-34.7288 705.273,-24.7975"/>
<polygon fill="midnightblue" stroke="midnightblue" points="706.649,-21.5534 696.226,-19.6545 703.19,-27.639 706.649,-21.5534"/>
</g>
<!-- Node33&#45;&gt;Node3 -->
<g id="edge42" class="edge"><title>Node33&#45;&gt;Node3</title>
<path fill="none" stroke="midnightblue" d="M803.052,-174.403C765.119,-163.866 700.722,-145.978 658.78,-134.328"/>
<polygon fill="midnightblue" stroke="midnightblue" points="659.462,-130.885 648.89,-131.581 657.589,-137.629 659.462,-130.885"/>
</g>
<!-- Node33&#45;&gt;Node4 -->
<g id="edge44" class="edge"><title>Node33&#45;&gt;Node4</title>
<path fill="none" stroke="midnightblue" d="M889.128,-193.531C902.864,-195.82 917.486,-198.166 931,-200 1058.02,-217.242 1206.31,-230.994 1292.89,-238.564"/>
<polygon fill="midnightblue" stroke="midnightblue" points="1292.62,-242.053 1302.88,-239.434 1293.22,-235.08 1292.62,-242.053"/>
</g>
<!-- Node33&#45;&gt;Node13 -->
<g id="edge43" class="edge"><title>Node33&#45;&gt;Node13</title>
<path fill="none" stroke="midnightblue" d="M892.876,-174.467C980.784,-161.727 1143.54,-138.139 1214.01,-127.927"/>
<polygon fill="midnightblue" stroke="midnightblue" points="1214.71,-131.361 1224.11,-126.463 1213.71,-124.433 1214.71,-131.361"/>
</g>
<!-- Node41&#45;&gt;Node1 -->
<g id="edge46" class="edge"><title>Node41&#45;&gt;Node1</title>
<path fill="none" stroke="midnightblue" d="M900.644,-56.4435C851.26,-46.2262 769.253,-29.2592 720.64,-19.2013"/>
<polygon fill="midnightblue" stroke="midnightblue" points="721.299,-15.7636 710.797,-17.1649 719.88,-22.6184 721.299,-15.7636"/>
</g>
<!-- Node42&#45;&gt;Node1 -->
<g id="edge48" class="edge"><title>Node42&#45;&gt;Node1</title>
<path fill="none" stroke="midnightblue" d="M1269.88,-59.4748C1133.99,-48.2887 829.977,-23.2634 720.905,-14.2849"/>
<polygon fill="midnightblue" stroke="midnightblue" points="720.925,-10.7747 710.671,-13.4424 720.35,-17.7511 720.925,-10.7747"/>
</g>
<!-- Node43&#45;&gt;Node1 -->
<g id="edge50" class="edge"><title>Node43&#45;&gt;Node1</title>
<path fill="none" stroke="midnightblue" d="M585.63,-366.406C575.43,-341.62 542.345,-269.629 490,-236 418.792,-190.252 356.895,-265.26 303,-200 293.284,-188.235 303.962,-121.956 310,-112 332.694,-74.5774 350.347,-72.2102 391,-56 475.874,-22.1571 584.152,-13.6468 641.39,-11.5847"/>
<polygon fill="midnightblue" stroke="midnightblue" points="641.581,-15.0805 651.467,-11.27 641.363,-8.08393 641.581,-15.0805"/>
</g>
<!-- Node43&#45;&gt;Node4 -->
<g id="edge51" class="edge"><title>Node43&#45;&gt;Node4</title>
<path fill="none" stroke="midnightblue" d="M587.627,-366.321C585.461,-349.147 583.481,-310.863 605,-292 655.92,-247.365 1111.76,-245.336 1292.58,-246.318"/>
<polygon fill="midnightblue" stroke="midnightblue" points="1292.77,-249.819 1302.79,-246.378 1292.81,-242.819 1292.77,-249.819"/>
</g>
<!-- Node44 -->
<g id="node29" class="node"><title>Node44</title>
<g id="a_node29"><a xlink:href="CInteger_8h_source.html" target="_top" xlink:title="DGtal/kernel/CInteger.h">
<polygon fill="white" stroke="red" points="256,-298.5 256,-317.5 384,-317.5 384,-298.5 256,-298.5"/>
<text text-anchor="middle" x="320" y="-305.5" font-family="FreeSans" font-size="10.00">DGtal/kernel/CInteger.h</text>
</a>
</g>
</g>
<!-- Node43&#45;&gt;Node44 -->
<g id="edge52" class="edge"><title>Node43&#45;&gt;Node44</title>
<path fill="none" stroke="midnightblue" d="M554.109,-366.439C505.63,-354.545 417.872,-333.013 364.666,-319.959"/>
<polygon fill="midnightblue" stroke="midnightblue" points="365.375,-316.529 354.829,-317.546 363.707,-323.328 365.375,-316.529"/>
</g>
<!-- Node55 -->
<g id="node30" class="node"><title>Node55</title>
<g id="a_node30"><a xlink:href="PointVector_8h_source.html" target="_top" xlink:title="DGtal/kernel/PointVector.h">
<polygon fill="white" stroke="red" points="614,-298.5 614,-317.5 756,-317.5 756,-298.5 614,-298.5"/>
<text text-anchor="middle" x="685" y="-305.5" font-family="FreeSans" font-size="10.00">DGtal/kernel/PointVector.h</text>
</a>
</g>
</g>
<!-- Node43&#45;&gt;Node55 -->
<g id="edge56" class="edge"><title>Node43&#45;&gt;Node55</title>
<path fill="none" stroke="midnightblue" d="M601.55,-366.372C617.433,-355.452 645.016,-336.489 664.1,-323.369"/>
<polygon fill="midnightblue" stroke="midnightblue" points="666.189,-326.18 672.447,-317.63 662.223,-320.412 666.189,-326.18"/>
</g>
<!-- Node44&#45;&gt;Node1 -->
<g id="edge53" class="edge"><title>Node44&#45;&gt;Node1</title>
<path fill="none" stroke="midnightblue" d="M306.266,-298.493C282.137,-282.63 232.905,-245.945 214,-200 189.647,-140.814 170.97,-103.375 214,-56 242.487,-24.6363 533.171,-14.5287 641.017,-11.8433"/>
<polygon fill="midnightblue" stroke="midnightblue" points="641.253,-15.3387 651.166,-11.5992 641.085,-8.34077 641.253,-15.3387"/>
</g>
<!-- Node44&#45;&gt;Node4 -->
<g id="edge54" class="edge"><title>Node44&#45;&gt;Node4</title>
<path fill="none" stroke="midnightblue" d="M384.127,-302.237C426.63,-299.146 483.631,-295.127 534,-292 814.225,-274.602 1147.79,-257.718 1292.73,-250.57"/>
<polygon fill="midnightblue" stroke="midnightblue" points="1293.02,-254.06 1302.83,-250.072 1292.67,-247.068 1293.02,-254.06"/>
</g>
<!-- Node44&#45;&gt;Node29 -->
<g id="edge55" class="edge"><title>Node44&#45;&gt;Node29</title>
<path fill="none" stroke="midnightblue" d="M326.041,-298.226C339.905,-278.09 374.203,-228.276 392.335,-201.943"/>
<polygon fill="midnightblue" stroke="midnightblue" points="395.225,-203.916 398.014,-193.694 389.46,-199.946 395.225,-203.916"/>
</g>
<!-- Node55&#45;&gt;Node1 -->
<g id="edge57" class="edge"><title>Node55&#45;&gt;Node1</title>
<path fill="none" stroke="midnightblue" d="M669.036,-298.42C640.659,-283.523 579.221,-252.857 524,-236 437.199,-209.503 381.242,-269.601 323,-200 228.292,-86.822 529.796,-32.1539 641.265,-16.1554"/>
<polygon fill="midnightblue" stroke="midnightblue" points="642.023,-19.5834 651.44,-14.7273 641.05,-12.6514 642.023,-19.5834"/>
</g>
<!-- Node55&#45;&gt;Node2 -->
<g id="edge61" class="edge"><title>Node55&#45;&gt;Node2</title>
<path fill="none" stroke="midnightblue" d="M756.19,-306.753C974.071,-305.541 1651,-298.37 2210,-256 2223.9,-254.946 2239.18,-253.244 2252.37,-251.602"/>
<polygon fill="midnightblue" stroke="midnightblue" points="2252.96,-255.055 2262.43,-250.312 2252.06,-248.112 2252.96,-255.055"/>
</g>
<!-- Node55&#45;&gt;Node3 -->
<g id="edge59" class="edge"><title>Node55&#45;&gt;Node3</title>
<path fill="none" stroke="midnightblue" d="M675.299,-298.494C657.084,-281.797 618.315,-242.627 604,-200 597.463,-180.535 603.523,-157.217 609.585,-141.38"/>
<polygon fill="midnightblue" stroke="midnightblue" points="612.984,-142.325 613.628,-131.749 606.53,-139.615 612.984,-142.325"/>
</g>
<!-- Node55&#45;&gt;Node4 -->
<g id="edge62" class="edge"><title>Node55&#45;&gt;Node4</title>
<path fill="none" stroke="midnightblue" d="M756.322,-300.254C784.282,-297.635 816.642,-294.638 846,-292 1005.24,-277.692 1191.99,-261.731 1292.69,-253.192"/>
<polygon fill="midnightblue" stroke="midnightblue" points="1293.08,-256.671 1302.75,-252.338 1292.49,-249.696 1293.08,-256.671"/>
</g>
<!-- Node55&#45;&gt;Node16 -->
<g id="edge58" class="edge"><title>Node55&#45;&gt;Node16</title>
<path fill="none" stroke="midnightblue" d="M756.003,-304.184C1102.78,-290.302 2603.32,-228.661 2642,-200 2697.31,-159.016 2708.35,-69.1218 2710.51,-29.9135"/>
<polygon fill="midnightblue" stroke="midnightblue" points="2714.01,-29.815 2710.92,-19.6808 2707.02,-29.53 2714.01,-29.815"/>
</g>
<!-- Node57 -->
<g id="node31" class="node"><title>Node57</title>
<polygon fill="white" stroke="#bfbfbf" points="440.5,-236.5 440.5,-255.5 481.5,-255.5 481.5,-236.5 440.5,-236.5"/>
<text text-anchor="middle" x="461" y="-243.5" font-family="FreeSans" font-size="10.00">array</text>
</g>
<!-- Node55&#45;&gt;Node57 -->
<g id="edge60" class="edge"><title>Node55&#45;&gt;Node57</title>
<path fill="none" stroke="midnightblue" d="M652.906,-298.403C609.768,-286.848 533.629,-266.454 491.383,-255.138"/>
<polygon fill="midnightblue" stroke="midnightblue" points="492.228,-251.741 481.663,-252.535 490.416,-258.503 492.228,-251.741"/>
</g>
<!-- Node64&#45;&gt;Node1 -->
<g id="edge64" class="edge"><title>Node64&#45;&gt;Node1</title>
<path fill="none" stroke="midnightblue" d="M707.168,-506.569C606.813,-499.482 427.254,-483.913 367,-460 218.026,-400.877 76,-407.278 76,-247 76,-247 76,-247 76,-121 76,-90.2048 75.4323,-74.568 100,-56 142.987,-23.5109 516.794,-13.9317 641.04,-11.6316"/>
<polygon fill="midnightblue" stroke="midnightblue" points="641.317,-15.1273 651.253,-11.4487 641.192,-8.12843 641.317,-15.1273"/>
</g>
<!-- Node64&#45;&gt;Node4 -->
<g id="edge68" class="edge"><title>Node64&#45;&gt;Node4</title>
<path fill="none" stroke="midnightblue" d="M846.637,-501.867C879.202,-494.77 916.899,-482.205 945,-460 1012.82,-406.407 971.2,-340.134 1043,-292 1082.67,-265.405 1210.34,-254.319 1292.79,-249.852"/>
<polygon fill="midnightblue" stroke="midnightblue" points="1293.06,-253.342 1302.86,-249.326 1292.69,-246.352 1293.06,-253.342"/>
</g>
<!-- Node64&#45;&gt;Node43 -->
<g id="edge71" class="edge"><title>Node64&#45;&gt;Node43</title>
<path fill="none" stroke="midnightblue" d="M707.454,-504.718C648.449,-497.777 570.372,-484.23 551,-460 534.523,-439.39 555.553,-410.479 572.272,-392.784"/>
<polygon fill="midnightblue" stroke="midnightblue" points="574.932,-395.072 579.5,-385.513 569.968,-390.137 574.932,-395.072"/>
</g>
<!-- Node64&#45;&gt;Node44 -->
<g id="edge69" class="edge"><title>Node64&#45;&gt;Node44</title>
<path fill="none" stroke="midnightblue" d="M707.388,-503.175C646.621,-495.371 556.445,-481.427 480,-460 440.424,-448.907 331.111,-425.988 308,-392 294.799,-372.586 302.989,-344.698 310.86,-326.715"/>
<polygon fill="midnightblue" stroke="midnightblue" points="314.044,-328.168 315.178,-317.634 307.723,-325.163 314.044,-328.168"/>
</g>
<!-- Node64&#45;&gt;Node55 -->
<g id="edge70" class="edge"><title>Node64&#45;&gt;Node55</title>
<path fill="none" stroke="midnightblue" d="M846.663,-503.56C874.677,-496.796 904.447,-484.025 922,-460 948.225,-424.107 951.962,-394.558 924,-360 918.229,-352.868 811.121,-332.086 742.268,-319.359"/>
<polygon fill="midnightblue" stroke="midnightblue" points="742.872,-315.912 732.404,-317.542 741.604,-322.796 742.872,-315.912"/>
</g>
<!-- Node64&#45;&gt;Node57 -->
<g id="edge67" class="edge"><title>Node64&#45;&gt;Node57</title>
<path fill="none" stroke="midnightblue" d="M707.482,-503.035C647.567,-494.914 566.899,-480.579 542,-460 480.955,-409.546 465.851,-307.759 462.167,-265.768"/>
<polygon fill="midnightblue" stroke="midnightblue" points="465.642,-265.312 461.402,-255.603 458.662,-265.837 465.642,-265.312"/>
</g>
<!-- Node65 -->
<g id="node33" class="node"><title>Node65</title>
<polygon fill="white" stroke="#bfbfbf" points="827,-366.5 827,-385.5 859,-385.5 859,-366.5 827,-366.5"/>
<text text-anchor="middle" x="843" y="-373.5" font-family="FreeSans" font-size="10.00">set</text>
</g>
<!-- Node64&#45;&gt;Node65 -->
<g id="edge65" class="edge"><title>Node64&#45;&gt;Node65</title>
<path fill="none" stroke="midnightblue" d="M764.575,-496.751C751.213,-479.601 733.581,-450.325 747,-428 749.044,-424.6 789.831,-403.658 817.577,-389.689"/>
<polygon fill="midnightblue" stroke="midnightblue" points="819.394,-392.693 826.762,-385.079 816.254,-386.437 819.394,-392.693"/>
</g>
<!-- Node66 -->
<g id="node34" class="node"><title>Node66</title>
<polygon fill="white" stroke="#bfbfbf" points="877,-366.5 877,-385.5 915,-385.5 915,-366.5 877,-366.5"/>
<text text-anchor="middle" x="896" y="-373.5" font-family="FreeSans" font-size="10.00">map</text>
</g>
<!-- Node64&#45;&gt;Node66 -->
<g id="edge66" class="edge"><title>Node64&#45;&gt;Node66</title>
<path fill="none" stroke="midnightblue" d="M846.513,-499.083C868.626,-491.651 890.759,-479.585 904,-460 917.013,-440.751 910.564,-413.014 903.942,-394.998"/>
<polygon fill="midnightblue" stroke="midnightblue" points="907.158,-393.614 900.169,-385.651 900.667,-396.234 907.158,-393.614"/>
</g>
<!-- Node67 -->
<g id="node35" class="node"><title>Node67</title>
<g id="a_node35"><a xlink:href="KhalimskyPreSpaceND_8h_source.html" target="_top" xlink:title="DGtal/topology/Khalimsky\lPreSpaceND.h">
<polygon fill="white" stroke="red" points="560.5,-429 560.5,-459 699.5,-459 699.5,-429 560.5,-429"/>
<text text-anchor="start" x="568.5" y="-447" font-family="FreeSans" font-size="10.00">DGtal/topology/Khalimsky</text>
<text text-anchor="middle" x="630" y="-436" font-family="FreeSans" font-size="10.00">PreSpaceND.h</text>
</a>
</g>
</g>
<!-- Node64&#45;&gt;Node67 -->
<g id="edge72" class="edge"><title>Node64&#45;&gt;Node67</title>
<path fill="none" stroke="midnightblue" d="M745.465,-496.841C723.592,-487.021 694.262,-473.852 670.636,-463.245"/>
<polygon fill="midnightblue" stroke="midnightblue" points="671.787,-459.925 661.23,-459.022 668.92,-466.311 671.787,-459.925"/>
</g>
<!-- Node69 -->
<g id="node36" class="node"><title>Node69</title>
<g id="a_node36"><a xlink:href="KhalimskySpaceND_8ih_source.html" target="_top" xlink:title="DGtal/topology/Khalimsky\lSpaceND.ih">
<polygon fill="white" stroke="black" points="756.5,-429 756.5,-459 895.5,-459 895.5,-429 756.5,-429"/>
<text text-anchor="start" x="764.5" y="-447" font-family="FreeSans" font-size="10.00">DGtal/topology/Khalimsky</text>
<text text-anchor="middle" x="826" y="-436" font-family="FreeSans" font-size="10.00">SpaceND.ih</text>
</a>
</g>
</g>
<!-- Node64&#45;&gt;Node69 -->
<g id="edge80" class="edge"><title>Node64&#45;&gt;Node69</title>
<path fill="none" stroke="midnightblue" d="M787.632,-496.679C793.989,-488.117 802.203,-477.053 809.399,-467.36"/>
<polygon fill="midnightblue" stroke="midnightblue" points="812.238,-469.409 815.388,-459.293 806.617,-465.236 812.238,-469.409"/>
</g>
<!-- Node67&#45;&gt;Node1 -->
<g id="edge73" class="edge"><title>Node67&#45;&gt;Node1</title>
<path fill="none" stroke="midnightblue" d="M560.422,-437.451C479.142,-430.028 350.383,-415.063 308,-392 257.858,-364.715 152,-185.619 152,-185 152,-185 152,-185 152,-121 152,-86.1146 165.974,-73.7596 196,-56 270.954,-11.667 539.232,-9.54146 641.245,-10.4043"/>
<polygon fill="midnightblue" stroke="midnightblue" points="641.401,-13.906 651.435,-10.5054 641.47,-6.9063 641.401,-13.906"/>
</g>
<!-- Node67&#45;&gt;Node4 -->
<g id="edge76" class="edge"><title>Node67&#45;&gt;Node4</title>
<path fill="none" stroke="midnightblue" d="M660.342,-428.853C697.286,-411.802 761.725,-382.625 818,-360 900.053,-327.012 919.024,-312.711 1005,-292 1103.08,-268.372 1219.32,-256.71 1292.86,-251.281"/>
<polygon fill="midnightblue" stroke="midnightblue" points="1293.23,-254.764 1302.95,-250.555 1292.72,-247.782 1293.23,-254.764"/>
</g>
<!-- Node67&#45;&gt;Node43 -->
<g id="edge79" class="edge"><title>Node67&#45;&gt;Node43</title>
<path fill="none" stroke="midnightblue" d="M621.104,-428.679C614.837,-418.592 606.414,-405.033 599.768,-394.335"/>
<polygon fill="midnightblue" stroke="midnightblue" points="602.734,-392.476 594.484,-385.828 596.788,-396.17 602.734,-392.476"/>
</g>
<!-- Node67&#45;&gt;Node44 -->
<g id="edge77" class="edge"><title>Node67&#45;&gt;Node44</title>
<path fill="none" stroke="midnightblue" d="M560.46,-436.087C474.767,-426.869 338.518,-409.652 323,-392 307.633,-374.52 310.452,-346.085 314.633,-327.46"/>
<polygon fill="midnightblue" stroke="midnightblue" points="318.08,-328.108 317.193,-317.55 311.303,-326.357 318.08,-328.108"/>
</g>
<!-- Node67&#45;&gt;Node55 -->
<g id="edge78" class="edge"><title>Node67&#45;&gt;Node55</title>
<path fill="none" stroke="midnightblue" d="M641.537,-428.606C648.898,-418.794 658.126,-405.227 664,-392 673.402,-370.827 679.14,-344.67 682.19,-327.446"/>
<polygon fill="midnightblue" stroke="midnightblue" points="685.647,-327.995 683.818,-317.559 678.74,-326.858 685.647,-327.995"/>
</g>
<!-- Node67&#45;&gt;Node65 -->
<g id="edge74" class="edge"><title>Node67&#45;&gt;Node65</title>
<path fill="none" stroke="midnightblue" d="M691.534,-428.987C727.498,-420.026 773.452,-407.236 813,-392 814.644,-391.367 816.318,-390.674 817.992,-389.944"/>
<polygon fill="midnightblue" stroke="midnightblue" points="819.822,-392.951 827.376,-385.521 816.838,-386.619 819.822,-392.951"/>
</g>
<!-- Node67&#45;&gt;Node66 -->
<g id="edge75" class="edge"><title>Node67&#45;&gt;Node66</title>
<path fill="none" stroke="midnightblue" d="M699.662,-433.364C747.896,-425.423 813.051,-412.148 868,-392 869.602,-391.413 871.225,-390.748 872.842,-390.034"/>
<polygon fill="midnightblue" stroke="midnightblue" points="874.417,-393.159 881.827,-385.586 871.312,-386.886 874.417,-393.159"/>
</g>
<!-- Node70&#45;&gt;Node1 -->
<g id="edge82" class="edge"><title>Node70&#45;&gt;Node1</title>
<path fill="none" stroke="midnightblue" d="M1540.49,-644.801C1238.11,-634.654 38,-589.56 38,-513 38,-513 38,-513 38,-121 38,-86.8442 49.7278,-73.5998 79,-56 126.996,-27.1426 514.501,-15.1032 641.127,-11.9148"/>
<polygon fill="midnightblue" stroke="midnightblue" points="641.264,-15.4126 651.175,-11.6667 641.091,-8.41471 641.264,-15.4126"/>
</g>
<!-- Node70&#45;&gt;Node2 -->
<g id="edge84" class="edge"><title>Node70&#45;&gt;Node2</title>
<path fill="none" stroke="midnightblue" d="M1677.57,-633.52C1773.99,-612.569 1938,-568.738 1938,-513 1938,-513 1938,-513 1938,-375 1938,-308.424 2165.18,-265.87 2252.43,-251.982"/>
<polygon fill="midnightblue" stroke="midnightblue" points="2253.01,-255.434 2262.35,-250.431 2251.93,-248.518 2253.01,-255.434"/>
</g>
<!-- Node70&#45;&gt;Node4 -->
<g id="edge88" class="edge"><title>Node70&#45;&gt;Node4</title>
<path fill="none" stroke="midnightblue" d="M1612.75,-632.64C1618.79,-608.238 1630,-557.034 1630,-513 1630,-513 1630,-513 1630,-375 1630,-289.935 1517.65,-261.383 1439.54,-251.811"/>
<polygon fill="midnightblue" stroke="midnightblue" points="1439.57,-248.292 1429.23,-250.633 1438.77,-255.247 1439.57,-248.292"/>
</g>
<!-- Node70&#45;&gt;Node16 -->
<g id="edge85" class="edge"><title>Node70&#45;&gt;Node16</title>
<path fill="none" stroke="midnightblue" d="M1677.81,-647.301C1759.43,-645.627 1898.46,-636.314 2010,-596 2029.45,-588.97 2148.85,-505.924 2167,-496 2201.33,-477.227 2781.28,-230.322 2806,-200 2846.46,-150.379 2844.57,-103.825 2802,-56 2786.33,-38.3986 2762.21,-26.9084 2742.74,-19.9469"/>
<polygon fill="midnightblue" stroke="midnightblue" points="2743.64,-16.5587 2733.05,-16.7109 2741.42,-23.1982 2743.64,-16.5587"/>
</g>
<!-- Node70&#45;&gt;Node64 -->
<g id="edge93" class="edge"><title>Node70&#45;&gt;Node64</title>
<path fill="none" stroke="midnightblue" d="M1568.29,-632.961C1505.84,-611.635 1389.13,-572.633 1346,-564 1173.89,-529.551 967.812,-518.359 856.984,-514.731"/>
<polygon fill="midnightblue" stroke="midnightblue" points="856.992,-511.23 846.887,-514.413 856.772,-518.226 856.992,-511.23"/>
</g>
<!-- Node71 -->
<g id="node38" class="node"><title>Node71</title>
<polygon fill="white" stroke="#bfbfbf" points="2602,-236.5 2602,-255.5 2632,-255.5 2632,-236.5 2602,-236.5"/>
<text text-anchor="middle" x="2617" y="-243.5" font-family="FreeSans" font-size="10.00">list</text>
</g>
<!-- Node70&#45;&gt;Node71 -->
<g id="edge83" class="edge"><title>Node70&#45;&gt;Node71</title>
<path fill="none" stroke="midnightblue" d="M1677.52,-644.215C1787.44,-638.94 1997.78,-625.289 2066,-596 2086.29,-587.29 2085.44,-575.961 2104,-564 2194.23,-505.844 2228.96,-513.556 2322,-460 2414.84,-406.556 2434.93,-387.782 2521,-324 2548.84,-303.371 2579.93,-277.98 2598.98,-262.137"/>
<polygon fill="midnightblue" stroke="midnightblue" points="2601.4,-264.677 2606.83,-255.582 2596.91,-259.304 2601.4,-264.677"/>
</g>
<!-- Node72 -->
<g id="node39" class="node"><title>Node72</title>
<polygon fill="white" stroke="#bfbfbf" points="2194,-570.5 2194,-589.5 2280,-589.5 2280,-570.5 2194,-570.5"/>
<text text-anchor="middle" x="2237" y="-577.5" font-family="FreeSans" font-size="10.00">unordered_set</text>
</g>
<!-- Node70&#45;&gt;Node72 -->
<g id="edge86" class="edge"><title>Node70&#45;&gt;Node72</title>
<path fill="none" stroke="midnightblue" d="M1677.72,-641.777C1779.39,-633.745 1975.77,-617.056 2142,-596 2155.46,-594.294 2169.96,-592.16 2183.46,-590.041"/>
<polygon fill="midnightblue" stroke="midnightblue" points="2184.24,-593.46 2193.57,-588.43 2183.14,-586.548 2184.24,-593.46"/>
</g>
<!-- Node73 -->
<g id="node40" class="node"><title>Node73</title>
<polygon fill="white" stroke="#bfbfbf" points="1470.5,-570.5 1470.5,-589.5 1563.5,-589.5 1563.5,-570.5 1470.5,-570.5"/>
<text text-anchor="middle" x="1517" y="-577.5" font-family="FreeSans" font-size="10.00">unordered_map</text>
</g>
<!-- Node70&#45;&gt;Node73 -->
<g id="edge87" class="edge"><title>Node70&#45;&gt;Node73</title>
<path fill="none" stroke="midnightblue" d="M1589.04,-632.679C1573.75,-621.713 1552.75,-606.645 1537.36,-595.609"/>
<polygon fill="midnightblue" stroke="midnightblue" points="1539.21,-592.623 1529.04,-589.638 1535.13,-598.311 1539.21,-592.623"/>
</g>
<!-- Node74 -->
<g id="node41" class="node"><title>Node74</title>
<g id="a_node41"><a xlink:href="CCellularGridSpaceND_8h_source.html" target="_top" xlink:title="DGtal/topology/CCellular\lGridSpaceND.h">
<polygon fill="white" stroke="red" points="332.5,-361 332.5,-391 465.5,-391 465.5,-361 332.5,-361"/>
<text text-anchor="start" x="340.5" y="-379" font-family="FreeSans" font-size="10.00">DGtal/topology/CCellular</text>
<text text-anchor="middle" x="399" y="-368" font-family="FreeSans" font-size="10.00">GridSpaceND.h</text>
</a>
</g>
</g>
<!-- Node70&#45;&gt;Node74 -->
<g id="edge89" class="edge"><title>Node70&#45;&gt;Node74</title>
<path fill="none" stroke="midnightblue" d="M1540.31,-643.349C1387.1,-634.055 1006.65,-604.578 698,-528 612.167,-506.704 588.893,-501.875 511,-460 478.3,-442.421 444.573,-416.106 422.792,-397.838"/>
<polygon fill="midnightblue" stroke="midnightblue" points="424.943,-395.073 415.056,-391.265 420.41,-400.407 424.943,-395.073"/>
</g>
<!-- Node77 -->
<g id="node42" class="node"><title>Node77</title>
<g id="a_node42"><a xlink:href="KhalimskyCellHashFunctions_8h_source.html" target="_top" xlink:title="DGtal/topology/Khalimsky\lCellHashFunctions.h">
<polygon fill="white" stroke="red" points="1198.5,-565 1198.5,-595 1337.5,-595 1337.5,-565 1198.5,-565"/>
<text text-anchor="start" x="1206.5" y="-583" font-family="FreeSans" font-size="10.00">DGtal/topology/Khalimsky</text>
<text text-anchor="middle" x="1268" y="-572" font-family="FreeSans" font-size="10.00">CellHashFunctions.h</text>
</a>
</g>
</g>
<!-- Node70&#45;&gt;Node77 -->
<g id="edge94" class="edge"><title>Node70&#45;&gt;Node77</title>
<path fill="none" stroke="midnightblue" d="M1540.4,-633.723C1484.7,-622.941 1406.07,-607.722 1347.59,-596.405"/>
<polygon fill="midnightblue" stroke="midnightblue" points="1348.14,-592.946 1337.66,-594.482 1346.81,-599.818 1348.14,-592.946"/>
</g>
<!-- Node79 -->
<g id="node43" class="node"><title>Node79</title>
<g id="a_node43"><a xlink:href="CubicalComplex_8h_source.html" target="_top" xlink:title="DGtal/topology/CubicalComplex.h">
<polygon fill="white" stroke="red" points="1162,-434.5 1162,-453.5 1338,-453.5 1338,-434.5 1162,-434.5"/>
<text text-anchor="middle" x="1250" y="-441.5" font-family="FreeSans" font-size="10.00">DGtal/topology/CubicalComplex.h</text>
</a>
</g>
</g>
<!-- Node70&#45;&gt;Node79 -->
<g id="edge98" class="edge"><title>Node70&#45;&gt;Node79</title>
<path fill="none" stroke="midnightblue" d="M1606.28,-632.999C1602.04,-614.73 1592.15,-582.874 1572,-564 1502.73,-499.113 1395.03,-468.904 1323.52,-455.339"/>
<polygon fill="midnightblue" stroke="midnightblue" points="1324.14,-451.895 1313.68,-453.533 1322.88,-458.78 1324.14,-451.895"/>
</g>
<!-- Node99 -->
<g id="node44" class="node"><title>Node99</title>
<g id="a_node44"><a xlink:href="BoundedLatticePolytope_8h_source.html" target="_top" xlink:title="DGtal/geometry/volumes\l/BoundedLatticePolytope.h">
<polygon fill="white" stroke="red" points="2159.5,-293 2159.5,-323 2304.5,-323 2304.5,-293 2159.5,-293"/>
<text text-anchor="start" x="2167.5" y="-311" font-family="FreeSans" font-size="10.00">DGtal/geometry/volumes</text>
<text text-anchor="middle" x="2232" y="-300" font-family="FreeSans" font-size="10.00">/BoundedLatticePolytope.h</text>
</a>
</g>
</g>
<!-- Node70&#45;&gt;Node99 -->
<g id="edge105" class="edge"><title>Node70&#45;&gt;Node99</title>
<path fill="none" stroke="midnightblue" d="M1677.62,-645.358C1765.79,-641.838 1912.23,-630.773 1952,-596 1980.91,-570.724 1976,-551.4 1976,-513 1976,-513 1976,-513 1976,-443 1976,-363.304 2074.59,-330.918 2149.4,-317.815"/>
<polygon fill="midnightblue" stroke="midnightblue" points="2150.04,-321.258 2159.33,-316.164 2148.89,-314.352 2150.04,-321.258"/>
</g>
<!-- Node121 -->
<g id="node45" class="node"><title>Node121</title>
<g id="a_node45"><a xlink:href="BoundedRationalPolytope_8h_source.html" target="_top" xlink:title="DGtal/geometry/volumes\l/BoundedRationalPolytope.h">
<polygon fill="white" stroke="red" points="2361.5,-293 2361.5,-323 2512.5,-323 2512.5,-293 2361.5,-293"/>
<text text-anchor="start" x="2369.5" y="-311" font-family="FreeSans" font-size="10.00">DGtal/geometry/volumes</text>
<text text-anchor="middle" x="2437" y="-300" font-family="FreeSans" font-size="10.00">/BoundedRationalPolytope.h</text>
</a>
</g>
</g>
<!-- Node70&#45;&gt;Node121 -->
<g id="edge111" class="edge"><title>Node70&#45;&gt;Node121</title>
<path fill="none" stroke="midnightblue" d="M1677.73,-643.137C1769.56,-637.02 1926.58,-622.934 1977,-596 2029.48,-567.966 2017.54,-530.516 2066,-496 2164.02,-426.187 2210.26,-449.455 2316,-392 2350.29,-373.369 2386.87,-347.316 2410.72,-329.394"/>
<polygon fill="midnightblue" stroke="midnightblue" points="2413.05,-332.019 2418.9,-323.188 2408.82,-326.442 2413.05,-332.019"/>
</g>
<!-- Node123 -->
<g id="node46" class="node"><title>Node123</title>
<g id="a_node46"><a xlink:href="CellGeometry_8ih_source.html" target="_top" xlink:title="CellGeometry.ih">
<polygon fill="white" stroke="red" points="2374,-502.5 2374,-521.5 2466,-521.5 2466,-502.5 2374,-502.5"/>
<text text-anchor="middle" x="2420" y="-509.5" font-family="FreeSans" font-size="10.00">CellGeometry.ih</text>
</a>
</g>
</g>
<!-- Node70&#45;&gt;Node123 -->
<g id="edge117" class="edge"><title>Node70&#45;&gt;Node123</title>
<path fill="none" stroke="midnightblue" d="M1677.66,-645.827C1774.16,-642.852 1954.82,-632.421 2104,-596 2141.6,-586.82 2147.96,-575.253 2185,-564 2245.23,-545.701 2316.03,-531.266 2364.06,-522.491"/>
<polygon fill="midnightblue" stroke="midnightblue" points="2364.73,-525.926 2373.95,-520.705 2363.48,-519.038 2364.73,-525.926"/>
</g>
<!-- Node74&#45;&gt;Node1 -->
<g id="edge90" class="edge"><title>Node74&#45;&gt;Node1</title>
<path fill="none" stroke="midnightblue" d="M398.965,-360.638C399.573,-333.805 404.146,-275.235 431,-236 447.083,-212.501 467.101,-222.919 484,-200 523.714,-146.137 480.432,-103.071 528,-56 558.053,-26.261 606.691,-15.989 641.05,-12.5415"/>
<polygon fill="midnightblue" stroke="midnightblue" points="641.551,-16.0116 651.218,-11.6766 640.958,-9.03678 641.551,-16.0116"/>
</g>
<!-- Node74&#45;&gt;Node4 -->
<g id="edge91" class="edge"><title>Node74&#45;&gt;Node4</title>
<path fill="none" stroke="midnightblue" d="M422.956,-360.887C457.437,-341.386 523.67,-306.92 585,-292 717.895,-259.67 1125.1,-250.357 1292.73,-247.856"/>
<polygon fill="midnightblue" stroke="midnightblue" points="1292.99,-251.352 1302.94,-247.707 1292.89,-244.353 1292.99,-251.352"/>
</g>
<!-- Node74&#45;&gt;Node44 -->
<g id="edge92" class="edge"><title>Node74&#45;&gt;Node44</title>
<path fill="none" stroke="midnightblue" d="M381.858,-360.679C369.053,-349.981 351.572,-335.377 338.46,-324.422"/>
<polygon fill="midnightblue" stroke="midnightblue" points="340.485,-321.554 330.567,-317.828 335.997,-326.926 340.485,-321.554"/>
</g>
<!-- Node77&#45;&gt;Node1 -->
<g id="edge95" class="edge"><title>Node77&#45;&gt;Node1</title>
<path fill="none" stroke="midnightblue" d="M1198.41,-577.722C948.915,-571.287 114,-533.019 114,-309 114,-309 114,-309 114,-121 114,-84.2802 132.709,-73.4834 165,-56 246.993,-11.6054 534.752,-9.60667 641.102,-10.4489"/>
<polygon fill="midnightblue" stroke="midnightblue" points="641.37,-13.9514 651.402,-10.5441 641.435,-6.95172 641.37,-13.9514"/>
</g>
<!-- Node77&#45;&gt;Node4 -->
<g id="edge96" class="edge"><title>Node77&#45;&gt;Node4</title>
<path fill="none" stroke="midnightblue" d="M1198.33,-565.107C1136.87,-548.316 1057,-513.347 1057,-445 1057,-445 1057,-445 1057,-375 1057,-273.418 1201.3,-250.897 1292.68,-246.819"/>
<polygon fill="midnightblue" stroke="midnightblue" points="1292.86,-250.315 1302.72,-246.435 1292.6,-243.32 1292.86,-250.315"/>
</g>
<!-- Node77&#45;&gt;Node64 -->
<g id="edge97" class="edge"><title>Node77&#45;&gt;Node64</title>
<path fill="none" stroke="midnightblue" d="M1198.37,-566.279C1193.51,-565.48 1188.69,-564.712 1184,-564 1070.62,-546.786 938.838,-531.048 856.666,-521.741"/>
<polygon fill="midnightblue" stroke="midnightblue" points="856.977,-518.254 846.647,-520.61 856.192,-525.21 856.977,-518.254"/>
</g>
<!-- Node79&#45;&gt;Node1 -->
<g id="edge99" class="edge"><title>Node79&#45;&gt;Node1</title>
<path fill="none" stroke="midnightblue" d="M1194.7,-434.481C1146.7,-426.254 1075.71,-412.079 1016,-392 983.959,-381.225 978.484,-372.307 947,-360 898.302,-340.965 883.293,-344.04 835,-324 774.046,-298.706 759.69,-289.784 703,-256 665.089,-233.407 651.65,-231.752 621,-200 590.767,-168.681 561.145,-152.135 578,-112 594.151,-73.5428 632.881,-42.3762 657.976,-25.291"/>
<polygon fill="midnightblue" stroke="midnightblue" points="660.116,-28.0727 666.538,-19.6461 656.263,-22.2286 660.116,-28.0727"/>
</g>
<!-- Node79&#45;&gt;Node2 -->
<g id="edge100" class="edge"><title>Node79&#45;&gt;Node2</title>
<path fill="none" stroke="midnightblue" d="M1338.06,-437.102C1456.9,-426.551 1673.17,-398.099 1842,-324 1864.14,-314.282 1863.4,-300.608 1886,-292 2037.09,-234.445 2088.54,-282.691 2248,-256 2249.46,-255.755 2250.95,-255.486 2252.46,-255.2"/>
<polygon fill="midnightblue" stroke="midnightblue" points="2253.32,-258.595 2262.38,-253.109 2251.88,-251.745 2253.32,-258.595"/>
</g>
<!-- Node79&#45;&gt;Node3 -->
<g id="edge102" class="edge"><title>Node79&#45;&gt;Node3</title>
<path fill="none" stroke="midnightblue" d="M1224.75,-434.389C1115.12,-396.8 683.873,-246.888 641,-200 626.39,-184.021 621.041,-159.119 619.094,-141.984"/>
<polygon fill="midnightblue" stroke="midnightblue" points="622.544,-141.239 618.218,-131.568 615.568,-141.826 622.544,-141.239"/>
</g>
<!-- Node79&#45;&gt;Node4 -->
<g id="edge103" class="edge"><title>Node79&#45;&gt;Node4</title>
<path fill="none" stroke="midnightblue" d="M1255.13,-434.325C1272.88,-404.347 1331.82,-304.753 1355.76,-264.302"/>
<polygon fill="midnightblue" stroke="midnightblue" points="1358.84,-265.963 1360.93,-255.575 1352.82,-262.398 1358.84,-265.963"/>
</g>
<!-- Node79&#45;&gt;Node16 -->
<g id="edge101" class="edge"><title>Node79&#45;&gt;Node16</title>
<path fill="none" stroke="midnightblue" d="M1326.25,-434.477C1416.8,-424.353 1572.41,-406.954 1706,-392 1975.78,-361.802 2062.89,-429.549 2313,-324 2333.66,-315.282 2332.22,-302.563 2352,-292 2361.47,-286.941 2526.57,-238.549 2537,-236 2621.34,-215.393 2665.81,-259.534 2729,-200 2775.75,-155.962 2762.33,-116.577 2741,-56 2737.42,-45.8329 2731.02,-35.7354 2725.05,-27.6894"/>
<polygon fill="midnightblue" stroke="midnightblue" points="2727.6,-25.2707 2718.66,-19.5827 2722.1,-29.6034 2727.6,-25.2707"/>
</g>
<!-- Node79&#45;&gt;Node74 -->
<g id="edge104" class="edge"><title>Node79&#45;&gt;Node74</title>
<path fill="none" stroke="midnightblue" d="M1161.93,-438.667C1023.55,-431.463 746.858,-415.454 513,-392 500.854,-390.782 488.005,-389.29 475.483,-387.724"/>
<polygon fill="midnightblue" stroke="midnightblue" points="475.892,-384.248 465.53,-386.456 475.008,-391.192 475.892,-384.248"/>
</g>
<!-- Node99&#45;&gt;Node1 -->
<g id="edge106" class="edge"><title>Node99&#45;&gt;Node1</title>
<path fill="none" stroke="midnightblue" d="M2273.44,-292.993C2290.4,-284.978 2308.29,-273.044 2318,-256 2341.75,-214.296 2283.05,-180.882 2260,-168 2169.3,-117.312 2131.37,-149.814 2029,-132 1982.63,-123.93 1971.46,-119.551 1925,-112 1738.69,-81.7196 1691.94,-73.6105 1504,-56 1203.55,-27.8463 839.617,-15.5401 720.677,-12.077"/>
<polygon fill="midnightblue" stroke="midnightblue" points="720.682,-8.5758 710.586,-11.7874 720.482,-15.5729 720.682,-8.5758"/>
</g>
<!-- Node99&#45;&gt;Node2 -->
<g id="edge108" class="edge"><title>Node99&#45;&gt;Node2</title>
<path fill="none" stroke="midnightblue" d="M2244.8,-292.781C2252.72,-283.972 2262.94,-272.626 2271.21,-263.433"/>
<polygon fill="midnightblue" stroke="midnightblue" points="2274.05,-265.505 2278.14,-255.731 2268.85,-260.822 2274.05,-265.505"/>
</g>
<!-- Node99&#45;&gt;Node4 -->
<g id="edge110" class="edge"><title>Node99&#45;&gt;Node4</title>
<path fill="none" stroke="midnightblue" d="M2159.28,-301.962C1996.34,-290.672 1603.43,-263.45 1439.63,-252.101"/>
<polygon fill="midnightblue" stroke="midnightblue" points="1439.4,-248.577 1429.18,-251.377 1438.91,-255.56 1439.4,-248.577"/>
</g>
<!-- Node99&#45;&gt;Node16 -->
<g id="edge109" class="edge"><title>Node99&#45;&gt;Node16</title>
<path fill="none" stroke="midnightblue" d="M2277.97,-292.875C2329.47,-277.406 2415.64,-252.593 2491,-236 2538.31,-225.583 2674.22,-236.558 2706,-200 2748.14,-151.528 2728.78,-66.7279 2717.32,-29.4592"/>
<polygon fill="midnightblue" stroke="midnightblue" points="2720.63,-28.3284 2714.22,-19.8926 2713.97,-30.4845 2720.63,-28.3284"/>
</g>
<!-- Node99&#45;&gt;Node71 -->
<g id="edge107" class="edge"><title>Node99&#45;&gt;Node71</title>
<path fill="none" stroke="midnightblue" d="M2304.87,-295.644C2392.32,-282.015 2534.34,-259.882 2591.74,-250.937"/>
<polygon fill="midnightblue" stroke="midnightblue" points="2592.4,-254.376 2601.74,-249.377 2591.33,-247.459 2592.4,-254.376"/>
</g>
<!-- Node121&#45;&gt;Node1 -->
<g id="edge112" class="edge"><title>Node121&#45;&gt;Node1</title>
<path fill="none" stroke="midnightblue" d="M2427.34,-292.795C2406.96,-264.05 2356.5,-199.084 2297,-168 2289.34,-163.999 1999.53,-113.408 1991,-112 1822.57,-84.1858 1780.9,-72.5897 1611,-56 1267.52,-22.4623 850.118,-13.5656 720.988,-11.536"/>
<polygon fill="midnightblue" stroke="midnightblue" points="720.841,-8.03343 710.789,-11.3807 720.735,-15.0326 720.841,-8.03343"/>
</g>
<!-- Node121&#45;&gt;Node2 -->
<g id="edge114" class="edge"><title>Node121&#45;&gt;Node2</title>
<path fill="none" stroke="midnightblue" d="M2401.6,-292.933C2376.01,-282.765 2341.76,-269.157 2317.2,-259.396"/>
<polygon fill="midnightblue" stroke="midnightblue" points="2318.23,-256.04 2307.64,-255.6 2315.64,-262.545 2318.23,-256.04"/>
</g>
<!-- Node121&#45;&gt;Node4 -->
<g id="edge116" class="edge"><title>Node121&#45;&gt;Node4</title>
<path fill="none" stroke="midnightblue" d="M2361.35,-296.959C2345.4,-295.093 2328.67,-293.318 2313,-292 1988,-264.658 1598.76,-252.683 1439.43,-248.667"/>
<polygon fill="midnightblue" stroke="midnightblue" points="1439.36,-245.164 1429.28,-248.413 1439.18,-252.162 1439.36,-245.164"/>
</g>
<!-- Node121&#45;&gt;Node16 -->
<g id="edge115" class="edge"><title>Node121&#45;&gt;Node16</title>
<path fill="none" stroke="midnightblue" d="M2462.74,-292.966C2493.06,-276.985 2545.36,-251.139 2593,-236 2674.49,-210.105 2727.48,-265.879 2782,-200 2822.8,-150.693 2812.85,-112.075 2782,-56 2773.52,-40.5813 2757.27,-29.7037 2742.46,-22.5102"/>
<polygon fill="midnightblue" stroke="midnightblue" points="2743.59,-19.1809 2733.03,-18.3044 2740.74,-25.574 2743.59,-19.1809"/>
</g>
<!-- Node121&#45;&gt;Node71 -->
<g id="edge113" class="edge"><title>Node121&#45;&gt;Node71</title>
<path fill="none" stroke="midnightblue" d="M2479.2,-292.933C2514.18,-281.272 2562.74,-265.087 2591.89,-255.369"/>
<polygon fill="midnightblue" stroke="midnightblue" points="2593.32,-258.584 2601.7,-252.101 2591.1,-251.943 2593.32,-258.584"/>
</g>
<!-- Node123&#45;&gt;Node16 -->
<g id="edge118" class="edge"><title>Node123&#45;&gt;Node16</title>
<path fill="none" stroke="midnightblue" d="M2445.49,-502.465C2524.73,-474.361 2766.96,-376.294 2858,-200 2887.37,-143.135 2896.06,-107.454 2858,-56 2831.75,-20.511 2778.06,-12.0953 2743.34,-10.5839"/>
<polygon fill="midnightblue" stroke="midnightblue" points="2743.32,-7.08208 2733.23,-10.3141 2743.13,-14.0796 2743.32,-7.08208"/>
</g>
<!-- Node125&#45;&gt;Node1 -->
<g id="edge120" class="edge"><title>Node125&#45;&gt;Node1</title>
<path fill="none" stroke="midnightblue" d="M2258.87,-701.559C2261.95,-701.019 2265.01,-700.497 2268,-700 2364.75,-683.931 2693,-679.077 2693,-581 2693,-581 2693,-581 2693,-443 2693,-348.032 2708.51,-301.769 2640,-236 2584.6,-182.815 2545.94,-216.796 2471,-200 2410.41,-186.42 2395.67,-181.234 2335,-168 2255.72,-150.705 2235.46,-148.444 2156,-132 2114.17,-123.345 2104,-119.784 2062,-112 1905.38,-82.9707 1866.49,-71.9564 1708,-56 1325.1,-17.4499 858.594,-11.9152 720.993,-11.1283"/>
<polygon fill="midnightblue" stroke="midnightblue" points="720.934,-7.628 710.915,-11.0759 720.897,-14.6279 720.934,-7.628"/>
</g>
<!-- Node125&#45;&gt;Node2 -->
<g id="edge122" class="edge"><title>Node125&#45;&gt;Node2</title>
<path fill="none" stroke="midnightblue" d="M2229.77,-700.853C2275.99,-681.561 2346,-642.231 2346,-581 2346,-581 2346,-581 2346,-511 2346,-390.601 2197.38,-434.685 2150,-324 2144.4,-310.925 2141.67,-303.528 2150,-292 2162.13,-275.211 2216.04,-261.22 2252.24,-253.493"/>
<polygon fill="midnightblue" stroke="midnightblue" points="2253.3,-256.847 2262.38,-251.391 2251.88,-249.993 2253.3,-256.847"/>
</g>
<!-- Node125&#45;&gt;Node4 -->
<g id="edge125" class="edge"><title>Node125&#45;&gt;Node4</title>
<path fill="none" stroke="midnightblue" d="M2159.31,-700.985C2139.34,-691.435 2113.02,-678.019 2091,-664 1863.04,-518.847 1856.73,-402.282 1610,-292 1555.73,-267.744 1489.07,-256.562 1439.15,-251.408"/>
<polygon fill="midnightblue" stroke="midnightblue" points="1439.37,-247.913 1429.08,-250.426 1438.69,-254.88 1439.37,-247.913"/>
</g>
<!-- Node125&#45;&gt;Node16 -->
<g id="edge123" class="edge"><title>Node125&#45;&gt;Node16</title>
<path fill="none" stroke="midnightblue" d="M2258.84,-701.344C2261.93,-700.862 2264.99,-700.411 2268,-700 2413.92,-680.045 2920,-728.282 2920,-581 2920,-581 2920,-581 2920,-121 2920,-42.2541 2802.38,-19.7507 2743.61,-13.4216"/>
<polygon fill="midnightblue" stroke="midnightblue" points="2743.66,-9.90956 2733.37,-12.4181 2742.98,-16.8762 2743.66,-9.90956"/>
</g>
<!-- Node125&#45;&gt;Node64 -->
<g id="edge130" class="edge"><title>Node125&#45;&gt;Node64</title>
<path fill="none" stroke="midnightblue" d="M2121.41,-712.383C2001.3,-707.202 1745.29,-693.489 1531,-664 1377.47,-642.873 1340.96,-626.414 1189,-596 1073.15,-572.814 939.033,-545.754 856.097,-528.996"/>
<polygon fill="midnightblue" stroke="midnightblue" points="856.737,-525.555 846.242,-527.005 855.35,-532.416 856.737,-525.555"/>
</g>
<!-- Node125&#45;&gt;Node70 -->
<g id="edge133" class="edge"><title>Node125&#45;&gt;Node70</title>
<path fill="none" stroke="midnightblue" d="M2121.33,-709.645C2025.09,-701.76 1844.75,-685.591 1692,-664 1690.7,-663.816 1689.38,-663.626 1688.06,-663.431"/>
<polygon fill="midnightblue" stroke="midnightblue" points="1688.19,-659.911 1677.78,-661.849 1687.13,-666.829 1688.19,-659.911"/>
</g>
<!-- Node125&#45;&gt;Node71 -->
<g id="edge121" class="edge"><title>Node125&#45;&gt;Node71</title>
<path fill="none" stroke="midnightblue" d="M2258.75,-701.62C2316.59,-690.078 2394.59,-673.769 2425,-664 2513.51,-635.563 2617,-673.965 2617,-581 2617,-581 2617,-581 2617,-375 2617,-336.248 2617,-290.897 2617,-265.919"/>
<polygon fill="midnightblue" stroke="midnightblue" points="2620.5,-265.691 2617,-255.691 2613.5,-265.691 2620.5,-265.691"/>
</g>
<!-- Node125&#45;&gt;Node72 -->
<g id="edge124" class="edge"><title>Node125&#45;&gt;Node72</title>
<path fill="none" stroke="midnightblue" d="M2215.11,-700.998C2228.12,-692.234 2242.77,-679.635 2250,-664 2259.63,-643.17 2252.51,-616.591 2245.6,-599.199"/>
<polygon fill="midnightblue" stroke="midnightblue" points="2248.66,-597.468 2241.47,-589.69 2242.24,-600.257 2248.66,-597.468"/>
</g>
<!-- Node125&#45;&gt;Node74 -->
<g id="edge129" class="edge"><title>Node125&#45;&gt;Node74</title>
<path fill="none" stroke="midnightblue" d="M2121.24,-713.884C1777.95,-707.868 266,-675.984 266,-581 266,-581 266,-581 266,-511 266,-457.441 320.185,-417.662 359.384,-395.891"/>
<polygon fill="midnightblue" stroke="midnightblue" points="361.332,-398.818 368.487,-391.005 358.021,-392.65 361.332,-398.818"/>
</g>
<!-- Node125&#45;&gt;Node99 -->
<g id="edge131" class="edge"><title>Node125&#45;&gt;Node99</title>
<path fill="none" stroke="midnightblue" d="M2220.71,-700.936C2236.54,-692.297 2254.98,-679.836 2267,-664 2286.21,-638.7 2284.05,-627.377 2289,-596 2304.52,-497.621 2262.84,-381.599 2242.47,-332.657"/>
<polygon fill="midnightblue" stroke="midnightblue" points="2245.6,-331.095 2238.47,-323.262 2239.16,-333.835 2245.6,-331.095"/>
</g>
<!-- Node125&#45;&gt;Node121 -->
<g id="edge132" class="edge"><title>Node125&#45;&gt;Node121</title>
<path fill="none" stroke="midnightblue" d="M2251.89,-700.949C2340.77,-678.946 2494,-633.414 2494,-581 2494,-581 2494,-581 2494,-443 2494,-401.12 2470.13,-357.331 2453.29,-331.64"/>
<polygon fill="midnightblue" stroke="midnightblue" points="2455.96,-329.347 2447.45,-323.03 2450.17,-333.273 2455.96,-329.347"/>
</g>
<!-- Node126 -->
<g id="node48" class="node"><title>Node126</title>
<g id="a_node48"><a xlink:href="Clone_8h_source.html" target="_top" xlink:title="DGtal/base/Clone.h">
<polygon fill="white" stroke="red" points="1724.5,-298.5 1724.5,-317.5 1833.5,-317.5 1833.5,-298.5 1724.5,-298.5"/>
<text text-anchor="middle" x="1779" y="-305.5" font-family="FreeSans" font-size="10.00">DGtal/base/Clone.h</text>
</a>
</g>
</g>
<!-- Node125&#45;&gt;Node126 -->
<g id="edge126" class="edge"><title>Node125&#45;&gt;Node126</title>
<path fill="none" stroke="midnightblue" d="M2172.27,-700.926C2159.88,-690.919 2143.11,-677 2129,-664 1993.33,-539.016 1840.96,-376.076 1793.74,-325.014"/>
<polygon fill="midnightblue" stroke="midnightblue" points="1796.21,-322.526 1786.85,-317.552 1791.06,-327.274 1796.21,-322.526"/>
</g>
<!-- Node127 -->
<g id="node49" class="node"><title>Node127</title>
<g id="a_node49"><a xlink:href="DigitalConvexity_8ih_source.html" target="_top" xlink:title="DigitalConvexity.ih">
<polygon fill="white" stroke="red" points="2138.5,-638.5 2138.5,-657.5 2241.5,-657.5 2241.5,-638.5 2138.5,-638.5"/>
<text text-anchor="middle" x="2190" y="-645.5" font-family="FreeSans" font-size="10.00">DigitalConvexity.ih</text>
</a>
</g>
</g>
<!-- Node125&#45;&gt;Node127 -->
<g id="edge134" class="edge"><title>Node125&#45;&gt;Node127</title>
<path fill="none" stroke="midnightblue" d="M2190,-700.679C2190,-691.101 2190,-678.394 2190,-667.977"/>
<polygon fill="midnightblue" stroke="midnightblue" points="2193.5,-667.828 2190,-657.828 2186.5,-667.828 2193.5,-667.828"/>
</g>
<!-- Node126&#45;&gt;Node1 -->
<g id="edge127" class="edge"><title>Node126&#45;&gt;Node1</title>
<path fill="none" stroke="midnightblue" d="M1812.04,-298.445C1820.49,-296.299 1829.57,-294.03 1838,-292 2017.03,-248.865 2127.15,-343.948 2242,-200 2250.87,-188.883 2251.36,-178.709 2242,-168 2238.18,-163.626 1418.78,-56.5675 1413,-56 1149.38,-30.1243 830.809,-16.5863 720.693,-12.4219"/>
<polygon fill="midnightblue" stroke="midnightblue" points="720.82,-8.92432 710.696,-12.0481 720.558,-15.9194 720.82,-8.92432"/>
</g>
<!-- Node126&#45;&gt;Node4 -->
<g id="edge128" class="edge"><title>Node126&#45;&gt;Node4</title>
<path fill="none" stroke="midnightblue" d="M1742.59,-298.485C1732.1,-296.197 1720.63,-293.847 1710,-292 1616.96,-275.831 1508.85,-262.588 1439.03,-254.752"/>
<polygon fill="midnightblue" stroke="midnightblue" points="1439.34,-251.265 1429.01,-253.635 1438.56,-258.222 1439.34,-251.265"/>
</g>
</g>
</svg>
