<?xml version="1.0" encoding="UTF-8" standalone="no"?>
<!DOCTYPE svg PUBLIC "-//W3C//DTD SVG 1.1//EN"
 "http://www.w3.org/Graphics/SVG/1.1/DTD/svg11.dtd">
<!-- Generated by graphviz version 2.38.0 (20140413.2041)
 -->
<!-- Title: testMeshReader.cpp Pages: 1 -->
<svg width="3555pt" height="710pt"
 viewBox="0.00 0.00 3554.76 710.00" xmlns="http://www.w3.org/2000/svg" xmlns:xlink="http://www.w3.org/1999/xlink">
<g id="graph0" class="graph" transform="scale(1 1) rotate(0) translate(4 706)">
<title>testMeshReader.cpp</title>
<polygon fill="white" stroke="none" points="-4,4 -4,-706 3550.76,-706 3550.76,4 -4,4"/>
<!-- Node0 -->
<g id="node1" class="node"><title>Node0</title>
<polygon fill="#bfbfbf" stroke="black" points="2238.26,-682.5 2238.26,-701.5 2351.26,-701.5 2351.26,-682.5 2238.26,-682.5"/>
<text text-anchor="middle" x="2294.76" y="-689.5" font-family="FreeSans" font-size="10.00">testMeshReader.cpp</text>
</g>
<!-- Node1 -->
<g id="node2" class="node"><title>Node1</title>
<polygon fill="white" stroke="#bfbfbf" points="2469.26,-0.5 2469.26,-19.5 2528.26,-19.5 2528.26,-0.5 2469.26,-0.5"/>
<text text-anchor="middle" x="2498.76" y="-7.5" font-family="FreeSans" font-size="10.00">iostream</text>
</g>
<!-- Node0&#45;&gt;Node1 -->
<g id="edge1" class="edge"><title>Node0&#45;&gt;Node1</title>
<path fill="none" stroke="midnightblue" d="M2351.4,-691.325C2582.86,-691.921 3444.76,-686.677 3444.76,-575.5 3444.76,-575.5 3444.76,-575.5 3444.76,-121 3444.76,-71.6587 3401.29,-72.4083 3354.76,-56 3277.33,-28.6973 2697.31,-15.0268 2538.73,-11.7743"/>
<polygon fill="midnightblue" stroke="midnightblue" points="2538.54,-8.26994 2528.48,-11.5665 2538.4,-15.2685 2538.54,-8.26994"/>
</g>
<!-- Node2 -->
<g id="node3" class="node"><title>Node2</title>
<g id="a_node3"><a xlink:href="Common_8h_source.html" target="_top" xlink:title="DGtal/base/Common.h">
<polygon fill="white" stroke="black" points="2026.76,-235.5 2026.76,-254.5 2152.76,-254.5 2152.76,-235.5 2026.76,-235.5"/>
<text text-anchor="middle" x="2089.76" y="-242.5" font-family="FreeSans" font-size="10.00">DGtal/base/Common.h</text>
</a>
</g>
</g>
<!-- Node0&#45;&gt;Node2 -->
<g id="edge2" class="edge"><title>Node0&#45;&gt;Node2</title>
<path fill="none" stroke="midnightblue" d="M2243.88,-682.497C2157.34,-666.58 1990.76,-628.995 1990.76,-575.5 1990.76,-575.5 1990.76,-575.5 1990.76,-378 1990.76,-326.599 2039.4,-282.403 2068.49,-260.565"/>
<polygon fill="midnightblue" stroke="midnightblue" points="2070.78,-263.229 2076.82,-254.522 2066.67,-257.564 2070.78,-263.229"/>
</g>
<!-- Node42 -->
<g id="node32" class="node"><title>Node42</title>
<g id="a_node32"><a xlink:href="Mesh_8h_source.html" target="_top" xlink:title="DGtal/shapes/Mesh.h">
<polygon fill="white" stroke="black" points="910.262,-369.5 910.262,-388.5 1029.26,-388.5 1029.26,-369.5 910.262,-369.5"/>
<text text-anchor="middle" x="969.762" y="-376.5" font-family="FreeSans" font-size="10.00">DGtal/shapes/Mesh.h</text>
</a>
</g>
</g>
<!-- Node0&#45;&gt;Node42 -->
<g id="edge60" class="edge"><title>Node0&#45;&gt;Node42</title>
<path fill="none" stroke="midnightblue" d="M2238.11,-688.978C1988.09,-679.687 995.762,-638.824 995.762,-575.5 995.762,-575.5 995.762,-575.5 995.762,-506.5 995.762,-467.419 983.708,-422.912 976.015,-398.486"/>
<polygon fill="midnightblue" stroke="midnightblue" points="979.274,-397.19 972.846,-388.768 972.619,-399.36 979.274,-397.19"/>
</g>
<!-- Node63 -->
<g id="node36" class="node"><title>Node63</title>
<g id="a_node36"><a xlink:href="MeshReader_8h_source.html" target="_top" xlink:title="DGtal/io/readers/MeshReader.h">
<polygon fill="white" stroke="black" points="1068.76,-431 1068.76,-450 1232.76,-450 1232.76,-431 1068.76,-431"/>
<text text-anchor="middle" x="1150.76" y="-438" font-family="FreeSans" font-size="10.00">DGtal/io/readers/MeshReader.h</text>
</a>
</g>
</g>
<!-- Node0&#45;&gt;Node63 -->
<g id="edge72" class="edge"><title>Node0&#45;&gt;Node63</title>
<path fill="none" stroke="midnightblue" d="M2238.19,-691.469C2078.24,-690.8 1611.95,-674.993 1265.76,-523 1227.39,-506.152 1188.89,-475.37 1167.61,-456.838"/>
<polygon fill="midnightblue" stroke="midnightblue" points="1169.89,-454.182 1160.08,-450.167 1165.24,-459.42 1169.89,-454.182"/>
</g>
<!-- Node68 -->
<g id="node39" class="node"><title>Node68</title>
<g id="a_node39"><a xlink:href="StdDefs_8h_source.html" target="_top" xlink:title="DGtal/helpers/StdDefs.h">
<polygon fill="white" stroke="black" points="2422.76,-626.5 2422.76,-645.5 2554.76,-645.5 2554.76,-626.5 2422.76,-626.5"/>
<text text-anchor="middle" x="2488.76" y="-633.5" font-family="FreeSans" font-size="10.00">DGtal/helpers/StdDefs.h</text>
</a>
</g>
</g>
<!-- Node0&#45;&gt;Node68 -->
<g id="edge81" class="edge"><title>Node0&#45;&gt;Node68</title>
<path fill="none" stroke="midnightblue" d="M2325.5,-682.444C2358.71,-673.201 2411.75,-658.436 2448.32,-648.257"/>
<polygon fill="midnightblue" stroke="midnightblue" points="2449.47,-651.57 2458.17,-645.516 2447.59,-644.826 2449.47,-651.57"/>
</g>
<!-- Node163 -->
<g id="node50" class="node"><title>Node163</title>
<polygon fill="white" stroke="#bfbfbf" points="3472.76,-626.5 3472.76,-645.5 3546.76,-645.5 3546.76,-626.5 3472.76,-626.5"/>
<text text-anchor="middle" x="3509.76" y="-633.5" font-family="FreeSans" font-size="10.00">ConfigTest.h</text>
</g>
<!-- Node0&#45;&gt;Node163 -->
<g id="edge128" class="edge"><title>Node0&#45;&gt;Node163</title>
<path fill="none" stroke="midnightblue" d="M2351.29,-691.532C2520.07,-692.537 3034.97,-691.372 3458.76,-646 3460.02,-645.865 3461.29,-645.718 3462.58,-645.561"/>
<polygon fill="midnightblue" stroke="midnightblue" points="3463.1,-649.022 3472.52,-644.175 3462.13,-642.089 3463.1,-649.022"/>
</g>
<!-- Node2&#45;&gt;Node1 -->
<g id="edge3" class="edge"><title>Node2&#45;&gt;Node1</title>
<path fill="none" stroke="midnightblue" d="M2152.94,-240.537C2286.68,-232.926 2587.52,-214.209 2603.76,-199 2650.57,-155.183 2659.56,-108.502 2622.76,-56 2603.86,-29.0255 2567.05,-18.1569 2538.43,-13.8111"/>
<polygon fill="midnightblue" stroke="midnightblue" points="2538.67,-10.3132 2528.3,-12.4875 2537.76,-17.2541 2538.67,-10.3132"/>
</g>
<!-- Node3 -->
<g id="node4" class="node"><title>Node3</title>
<polygon fill="white" stroke="#bfbfbf" points="1344.26,-174 1344.26,-193 1407.26,-193 1407.26,-174 1344.26,-174"/>
<text text-anchor="middle" x="1375.76" y="-181" font-family="FreeSans" font-size="10.00">exception</text>
</g>
<!-- Node2&#45;&gt;Node3 -->
<g id="edge4" class="edge"><title>Node2&#45;&gt;Node3</title>
<path fill="none" stroke="midnightblue" d="M2026.69,-241.98C1882.48,-237.006 1532.24,-222.811 1416.76,-199 1413.25,-198.277 1409.64,-197.324 1406.08,-196.251"/>
<polygon fill="midnightblue" stroke="midnightblue" points="1406.9,-192.836 1396.31,-193.001 1404.69,-199.479 1406.9,-192.836"/>
</g>
<!-- Node4 -->
<g id="node5" class="node"><title>Node4</title>
<polygon fill="white" stroke="#bfbfbf" points="2119.76,-56.5 2119.76,-75.5 2181.76,-75.5 2181.76,-56.5 2119.76,-56.5"/>
<text text-anchor="middle" x="2150.76" y="-63.5" font-family="FreeSans" font-size="10.00">algorithm</text>
</g>
<!-- Node2&#45;&gt;Node4 -->
<g id="edge5" class="edge"><title>Node2&#45;&gt;Node4</title>
<path fill="none" stroke="midnightblue" d="M2026.73,-242.57C1849.55,-238.246 1358.36,-224.043 1334.76,-199 1325.31,-188.972 1325.64,-178.323 1334.76,-168 1386.69,-109.253 1950.49,-76.9515 2109.33,-68.9726"/>
<polygon fill="midnightblue" stroke="midnightblue" points="2109.81,-72.453 2119.63,-68.4611 2109.47,-65.4616 2109.81,-72.453"/>
</g>
<!-- Node5 -->
<g id="node6" class="node"><title>Node5</title>
<polygon fill="white" stroke="#bfbfbf" points="1425.76,-174 1425.76,-193 1527.76,-193 1527.76,-174 1425.76,-174"/>
<text text-anchor="middle" x="1476.76" y="-181" font-family="FreeSans" font-size="10.00">boost/version.hpp</text>
</g>
<!-- Node2&#45;&gt;Node5 -->
<g id="edge6" class="edge"><title>Node2&#45;&gt;Node5</title>
<path fill="none" stroke="midnightblue" d="M2026.35,-242.053C1923.15,-238.166 1712.71,-227.242 1536.76,-199 1530.58,-198.008 1524.1,-196.714 1517.77,-195.307"/>
<polygon fill="midnightblue" stroke="midnightblue" points="1518.56,-191.897 1508.03,-193.031 1516.97,-198.714 1518.56,-191.897"/>
</g>
<!-- Node6 -->
<g id="node7" class="node"><title>Node6</title>
<polygon fill="white" stroke="#bfbfbf" points="1546.26,-174 1546.26,-193 1685.26,-193 1685.26,-174 1546.26,-174"/>
<text text-anchor="middle" x="1615.76" y="-181" font-family="FreeSans" font-size="10.00">boost/concept_check.hpp</text>
</g>
<!-- Node2&#45;&gt;Node6 -->
<g id="edge7" class="edge"><title>Node2&#45;&gt;Node6</title>
<path fill="none" stroke="midnightblue" d="M2026.48,-238.2C1948.16,-230.701 1810.78,-216.503 1693.76,-199 1685.63,-197.783 1677.04,-196.345 1668.66,-194.855"/>
<polygon fill="midnightblue" stroke="midnightblue" points="1669.05,-191.368 1658.58,-193.023 1667.8,-198.255 1669.05,-191.368"/>
</g>
<!-- Node7 -->
<g id="node8" class="node"><title>Node7</title>
<polygon fill="white" stroke="#bfbfbf" points="1703.26,-174 1703.26,-193 1832.26,-193 1832.26,-174 1703.26,-174"/>
<text text-anchor="middle" x="1767.76" y="-181" font-family="FreeSans" font-size="10.00">boost/static_assert.hpp</text>
</g>
<!-- Node2&#45;&gt;Node7 -->
<g id="edge8" class="edge"><title>Node2&#45;&gt;Node7</title>
<path fill="none" stroke="midnightblue" d="M2041.05,-235.453C1990.82,-226.58 1910.25,-212.179 1840.76,-199 1834.11,-197.738 1827.12,-196.385 1820.21,-195.032"/>
<polygon fill="midnightblue" stroke="midnightblue" points="1820.69,-191.558 1810.2,-193.058 1819.33,-198.426 1820.69,-191.558"/>
</g>
<!-- Node8 -->
<g id="node9" class="node"><title>Node8</title>
<polygon fill="white" stroke="#bfbfbf" points="1850.26,-174 1850.26,-193 1989.26,-193 1989.26,-174 1850.26,-174"/>
<text text-anchor="middle" x="1919.76" y="-181" font-family="FreeSans" font-size="10.00">boost/concept/assert.hpp</text>
</g>
<!-- Node2&#45;&gt;Node8 -->
<g id="edge9" class="edge"><title>Node2&#45;&gt;Node8</title>
<path fill="none" stroke="midnightblue" d="M2065.4,-235.475C2036.12,-225.225 1986.79,-207.959 1953.76,-196.399"/>
<polygon fill="midnightblue" stroke="midnightblue" points="1954.67,-193.009 1944.07,-193.009 1952.36,-199.616 1954.67,-193.009"/>
</g>
<!-- Node9 -->
<g id="node10" class="node"><title>Node9</title>
<polygon fill="white" stroke="#bfbfbf" points="2007.76,-174 2007.76,-193 2155.76,-193 2155.76,-174 2007.76,-174"/>
<text text-anchor="middle" x="2081.76" y="-181" font-family="FreeSans" font-size="10.00">boost/concept/requires.hpp</text>
</g>
<!-- Node2&#45;&gt;Node9 -->
<g id="edge10" class="edge"><title>Node2&#45;&gt;Node9</title>
<path fill="none" stroke="midnightblue" d="M2088.62,-235.475C2087.49,-227.08 2085.73,-213.981 2084.27,-203.163"/>
<polygon fill="midnightblue" stroke="midnightblue" points="2087.71,-202.453 2082.91,-193.009 2080.77,-203.386 2087.71,-202.453"/>
</g>
<!-- Node10 -->
<g id="node11" class="node"><title>Node10</title>
<polygon fill="white" stroke="#bfbfbf" points="2173.76,-168.5 2173.76,-198.5 2293.76,-198.5 2293.76,-168.5 2173.76,-168.5"/>
<text text-anchor="start" x="2181.76" y="-186.5" font-family="FreeSans" font-size="10.00">boost/iterator/iterator</text>
<text text-anchor="middle" x="2233.76" y="-175.5" font-family="FreeSans" font-size="10.00">_concepts.hpp</text>
</g>
<!-- Node2&#45;&gt;Node10 -->
<g id="edge11" class="edge"><title>Node2&#45;&gt;Node10</title>
<path fill="none" stroke="midnightblue" d="M2110.39,-235.475C2131.17,-226.889 2163.86,-213.383 2190.37,-202.429"/>
<polygon fill="midnightblue" stroke="midnightblue" points="2191.92,-205.577 2199.82,-198.523 2189.25,-199.107 2191.92,-205.577"/>
</g>
<!-- Node11 -->
<g id="node12" class="node"><title>Node11</title>
<polygon fill="white" stroke="#bfbfbf" points="2311.26,-174 2311.26,-193 2470.26,-193 2470.26,-174 2311.26,-174"/>
<text text-anchor="middle" x="2390.76" y="-181" font-family="FreeSans" font-size="10.00">boost/concept_archetype.hpp</text>
</g>
<!-- Node2&#45;&gt;Node11 -->
<g id="edge12" class="edge"><title>Node2&#45;&gt;Node11</title>
<path fill="none" stroke="midnightblue" d="M2132.89,-235.475C2186.87,-224.805 2279.3,-206.534 2337.6,-195.009"/>
<polygon fill="midnightblue" stroke="midnightblue" points="2338.58,-198.382 2347.72,-193.009 2337.23,-191.515 2338.58,-198.382"/>
</g>
<!-- Node12 -->
<g id="node13" class="node"><title>Node12</title>
<polygon fill="white" stroke="#bfbfbf" points="3026.26,-112.5 3026.26,-131.5 3073.26,-131.5 3073.26,-112.5 3026.26,-112.5"/>
<text text-anchor="middle" x="3049.76" y="-119.5" font-family="FreeSans" font-size="10.00">cmath</text>
</g>
<!-- Node2&#45;&gt;Node12 -->
<g id="edge13" class="edge"><title>Node2&#45;&gt;Node12</title>
<path fill="none" stroke="midnightblue" d="M2153.04,-243.366C2315.33,-241.268 2743.22,-232.617 2880.76,-199 2935.7,-185.571 2994.89,-154.742 3026.58,-136.746"/>
<polygon fill="midnightblue" stroke="midnightblue" points="3028.58,-139.633 3035.49,-131.607 3025.08,-133.568 3028.58,-139.633"/>
</g>
<!-- Node13 -->
<g id="node14" class="node"><title>Node13</title>
<polygon fill="white" stroke="#bfbfbf" points="2526.26,-174 2526.26,-193 2575.26,-193 2575.26,-174 2526.26,-174"/>
<text text-anchor="middle" x="2550.76" y="-181" font-family="FreeSans" font-size="10.00">stdio.h</text>
</g>
<!-- Node2&#45;&gt;Node13 -->
<g id="edge14" class="edge"><title>Node2&#45;&gt;Node13</title>
<path fill="none" stroke="midnightblue" d="M2152.79,-242.175C2236,-238.659 2386.61,-228.448 2511.76,-199 2514.83,-198.279 2517.98,-197.383 2521.1,-196.392"/>
<polygon fill="midnightblue" stroke="midnightblue" points="2522.53,-199.602 2530.82,-193.005 2520.22,-192.992 2522.53,-199.602"/>
</g>
<!-- Node14 -->
<g id="node15" class="node"><title>Node14</title>
<g id="a_node15"><a xlink:href="Config_8h_source.html" target="_top" xlink:title="DGtal/base/Config.h">
<polygon fill="white" stroke="black" points="281.762,-56.5 281.762,-75.5 393.762,-75.5 393.762,-56.5 281.762,-56.5"/>
<text text-anchor="middle" x="337.762" y="-63.5" font-family="FreeSans" font-size="10.00">DGtal/base/Config.h</text>
</a>
</g>
</g>
<!-- Node2&#45;&gt;Node14 -->
<g id="edge15" class="edge"><title>Node2&#45;&gt;Node14</title>
<path fill="none" stroke="midnightblue" d="M2026.65,-243.599C1728.1,-241.543 464.859,-231.008 291.762,-199 204.126,-182.795 154.186,-204.789 102.762,-132 97.6329,-124.74 97.0982,-118.851 102.762,-112 123.853,-86.4866 209.767,-75.2993 271.615,-70.4888"/>
<polygon fill="midnightblue" stroke="midnightblue" points="271.991,-73.9707 281.706,-69.7434 271.475,-66.9898 271.991,-73.9707"/>
</g>
<!-- Node16 -->
<g id="node17" class="node"><title>Node16</title>
<g id="a_node17"><a xlink:href="Trace_8h_source.html" target="_top" xlink:title="DGtal/base/Trace.h">
<polygon fill="white" stroke="black" points="471.262,-174 471.262,-193 578.262,-193 578.262,-174 471.262,-174"/>
<text text-anchor="middle" x="524.762" y="-181" font-family="FreeSans" font-size="10.00">DGtal/base/Trace.h</text>
</a>
</g>
</g>
<!-- Node2&#45;&gt;Node16 -->
<g id="edge18" class="edge"><title>Node2&#45;&gt;Node16</title>
<path fill="none" stroke="midnightblue" d="M2026.61,-241.717C1847.42,-235.224 1320.43,-216.022 882.762,-199 779.827,-194.997 660.254,-190.105 588.646,-187.149"/>
<polygon fill="midnightblue" stroke="midnightblue" points="588.572,-183.644 578.436,-186.728 588.283,-190.638 588.572,-183.644"/>
</g>
<!-- Node23 -->
<g id="node22" class="node"><title>Node23</title>
<g id="a_node22"><a xlink:href="TraceWriterTerm_8h_source.html" target="_top" xlink:title="DGtal/base/TraceWriterTerm.h">
<polygon fill="white" stroke="black" points="320.262,-112.5 320.262,-131.5 477.262,-131.5 477.262,-112.5 320.262,-112.5"/>
<text text-anchor="middle" x="398.762" y="-119.5" font-family="FreeSans" font-size="10.00">DGtal/base/TraceWriterTerm.h</text>
</a>
</g>
</g>
<!-- Node2&#45;&gt;Node23 -->
<g id="edge38" class="edge"><title>Node2&#45;&gt;Node23</title>
<path fill="none" stroke="midnightblue" d="M2026.59,-243.709C1735.33,-242.184 533.219,-233.795 461.762,-199 436.54,-186.718 417.815,-159.071 407.591,-140.729"/>
<polygon fill="midnightblue" stroke="midnightblue" points="410.562,-138.861 402.798,-131.653 404.373,-142.13 410.562,-138.861"/>
</g>
<!-- Node24 -->
<g id="node23" class="node"><title>Node24</title>
<g id="a_node23"><a xlink:href="Assert_8h_source.html" target="_top" xlink:title="DGtal/base/Assert.h">
<polygon fill="white" stroke="red" points="112.262,-112.5 112.262,-131.5 225.262,-131.5 225.262,-112.5 112.262,-112.5"/>
<text text-anchor="middle" x="168.762" y="-119.5" font-family="FreeSans" font-size="10.00">DGtal/base/Assert.h</text>
</a>
</g>
</g>
<!-- Node2&#45;&gt;Node24 -->
<g id="edge43" class="edge"><title>Node2&#45;&gt;Node24</title>
<path fill="none" stroke="midnightblue" d="M2026.55,-243.285C1741.45,-239.924 582.11,-224.777 421.762,-199 339.71,-185.809 247.057,-153.215 199.92,-135.294"/>
<polygon fill="midnightblue" stroke="midnightblue" points="200.892,-131.918 190.302,-131.6 198.382,-138.452 200.892,-131.918"/>
</g>
<!-- Node27 -->
<g id="node25" class="node"><title>Node27</title>
<g id="a_node25"><a xlink:href="TraceWriterFile_8h_source.html" target="_top" xlink:title="DGtal/base/TraceWriterFile.h">
<polygon fill="white" stroke="black" points="759.262,-112.5 759.262,-131.5 908.262,-131.5 908.262,-112.5 759.262,-112.5"/>
<text text-anchor="middle" x="833.762" y="-119.5" font-family="FreeSans" font-size="10.00">DGtal/base/TraceWriterFile.h</text>
</a>
</g>
</g>
<!-- Node2&#45;&gt;Node27 -->
<g id="edge39" class="edge"><title>Node2&#45;&gt;Node27</title>
<path fill="none" stroke="midnightblue" d="M2026.62,-243.72C1883.56,-242.43 1523.94,-235.49 1225.76,-199 1099.02,-183.49 951.73,-150.955 879.072,-133.924"/>
<polygon fill="midnightblue" stroke="midnightblue" points="879.441,-130.415 868.904,-131.527 877.835,-137.228 879.441,-130.415"/>
</g>
<!-- Node28 -->
<g id="node26" class="node"><title>Node28</title>
<g id="a_node26"><a xlink:href="ConceptUtils_8h_source.html" target="_top" xlink:title="DGtal/base/ConceptUtils.h">
<polygon fill="white" stroke="black" points="1473.26,-56.5 1473.26,-75.5 1616.26,-75.5 1616.26,-56.5 1473.26,-56.5"/>
<text text-anchor="middle" x="1544.76" y="-63.5" font-family="FreeSans" font-size="10.00">DGtal/base/ConceptUtils.h</text>
</a>
</g>
</g>
<!-- Node2&#45;&gt;Node28 -->
<g id="edge44" class="edge"><title>Node2&#45;&gt;Node28</title>
<path fill="none" stroke="midnightblue" d="M2026.54,-242.617C1847.56,-238.396 1348.71,-224.394 1324.76,-199 1268,-138.802 1409.44,-96.4664 1491.33,-77.7649"/>
<polygon fill="midnightblue" stroke="midnightblue" points="1492.26,-81.1453 1501.25,-75.5486 1490.73,-74.3137 1492.26,-81.1453"/>
</g>
<!-- Node29 -->
<g id="node27" class="node"><title>Node29</title>
<g id="a_node27"><a xlink:href="BasicTypes_8h_source.html" target="_top" xlink:title="DGtal/base/BasicTypes.h">
<polygon fill="white" stroke="red" points="2479.76,-56.5 2479.76,-75.5 2613.76,-75.5 2613.76,-56.5 2479.76,-56.5"/>
<text text-anchor="middle" x="2546.76" y="-63.5" font-family="FreeSans" font-size="10.00">DGtal/base/BasicTypes.h</text>
</a>
</g>
</g>
<!-- Node2&#45;&gt;Node29 -->
<g id="edge46" class="edge"><title>Node2&#45;&gt;Node29</title>
<path fill="none" stroke="midnightblue" d="M2153.12,-240.484C2283.19,-232.959 2569.43,-214.701 2583.76,-199 2613.61,-166.313 2580.56,-111.454 2560.25,-83.8885"/>
<polygon fill="midnightblue" stroke="midnightblue" points="2562.81,-81.4778 2553.96,-75.658 2557.25,-85.7286 2562.81,-81.4778"/>
</g>
<!-- Node32 -->
<g id="node28" class="node"><title>Node32</title>
<g id="a_node28"><a xlink:href="BasicFunctors_8h_source.html" target="_top" xlink:title="DGtal/base/BasicFunctors.h">
<polygon fill="white" stroke="red" points="2669.76,-174 2669.76,-193 2817.76,-193 2817.76,-174 2669.76,-174"/>
<text text-anchor="middle" x="2743.76" y="-181" font-family="FreeSans" font-size="10.00">DGtal/base/BasicFunctors.h</text>
</a>
</g>
</g>
<!-- Node2&#45;&gt;Node32 -->
<g id="edge48" class="edge"><title>Node2&#45;&gt;Node32</title>
<path fill="none" stroke="midnightblue" d="M2153.04,-240.386C2256.57,-234.371 2468.19,-220.772 2646.76,-199 2656.78,-197.779 2667.4,-196.24 2677.81,-194.623"/>
<polygon fill="midnightblue" stroke="midnightblue" points="2678.38,-198.077 2687.71,-193.058 2677.29,-191.163 2678.38,-198.077"/>
</g>
<!-- Node40 -->
<g id="node30" class="node"><title>Node40</title>
<g id="a_node30"><a xlink:href="BasicArchetypes_8h_source.html" target="_top" xlink:title="DGtal/base/BasicArchetypes.h">
<polygon fill="white" stroke="black" points="2672.26,-56.5 2672.26,-75.5 2833.26,-75.5 2833.26,-56.5 2672.26,-56.5"/>
<text text-anchor="middle" x="2752.76" y="-63.5" font-family="FreeSans" font-size="10.00">DGtal/base/BasicArchetypes.h</text>
</a>
</g>
</g>
<!-- Node2&#45;&gt;Node40 -->
<g id="edge56" class="edge"><title>Node2&#45;&gt;Node40</title>
<path fill="none" stroke="midnightblue" d="M2153.05,-241.281C2329.59,-233.551 2815.27,-211.218 2826.76,-199 2836.2,-188.965 2832.21,-180.657 2826.76,-168 2817.57,-146.629 2803.01,-150.391 2788.76,-132 2777.3,-117.21 2767.27,-98.3158 2760.73,-84.7147"/>
<polygon fill="midnightblue" stroke="midnightblue" points="2763.84,-83.0898 2756.44,-75.5012 2757.49,-86.0442 2763.84,-83.0898"/>
</g>
<!-- Node41 -->
<g id="node31" class="node"><title>Node41</title>
<g id="a_node31"><a xlink:href="Exceptions_8h_source.html" target="_top" xlink:title="DGtal/base/Exceptions.h">
<polygon fill="white" stroke="black" points="2797.76,-112.5 2797.76,-131.5 2931.76,-131.5 2931.76,-112.5 2797.76,-112.5"/>
<text text-anchor="middle" x="2864.76" y="-119.5" font-family="FreeSans" font-size="10.00">DGtal/base/Exceptions.h</text>
</a>
</g>
</g>
<!-- Node2&#45;&gt;Node41 -->
<g id="edge58" class="edge"><title>Node2&#45;&gt;Node41</title>
<path fill="none" stroke="midnightblue" d="M2152.9,-241.417C2334.7,-233.837 2847.26,-211.412 2859.76,-199 2874.54,-184.328 2873.03,-158.942 2869.68,-141.579"/>
<polygon fill="midnightblue" stroke="midnightblue" points="2873.01,-140.481 2867.36,-131.521 2866.19,-142.052 2873.01,-140.481"/>
</g>
<!-- Node14&#45;&gt;Node1 -->
<g id="edge16" class="edge"><title>Node14&#45;&gt;Node1</title>
<path fill="none" stroke="midnightblue" d="M394.036,-62.0063C432.298,-60.0582 484.073,-57.5927 529.762,-56 1305.68,-28.9517 2254.19,-14.4835 2458.72,-11.5581"/>
<polygon fill="midnightblue" stroke="midnightblue" points="2459.02,-15.0542 2468.97,-11.4122 2458.93,-8.05491 2459.02,-15.0542"/>
</g>
<!-- Node15 -->
<g id="node16" class="node"><title>Node15</title>
<polygon fill="white" stroke="#bfbfbf" points="231.762,-0.5 231.762,-19.5 275.762,-19.5 275.762,-0.5 231.762,-0.5"/>
<text text-anchor="middle" x="253.762" y="-7.5" font-family="FreeSans" font-size="10.00">string</text>
</g>
<!-- Node14&#45;&gt;Node15 -->
<g id="edge17" class="edge"><title>Node14&#45;&gt;Node15</title>
<path fill="none" stroke="midnightblue" d="M324.266,-56.324C311.162,-47.9002 291.05,-34.9709 275.655,-25.0741"/>
<polygon fill="midnightblue" stroke="midnightblue" points="277.529,-22.118 267.224,-19.6545 273.744,-28.0063 277.529,-22.118"/>
</g>
<!-- Node16&#45;&gt;Node1 -->
<g id="edge19" class="edge"><title>Node16&#45;&gt;Node1</title>
<path fill="none" stroke="midnightblue" d="M578.341,-179.47C680.447,-173.147 894.756,-157.023 916.762,-132 943.463,-101.639 838.569,-84.9812 866.762,-56 895.411,-26.5501 2211.65,-13.5266 2458.94,-11.3377"/>
<polygon fill="midnightblue" stroke="midnightblue" points="2459.29,-14.8349 2469.26,-11.2472 2459.22,-7.83516 2459.29,-14.8349"/>
</g>
<!-- Node16&#45;&gt;Node14 -->
<g id="edge23" class="edge"><title>Node16&#45;&gt;Node14</title>
<path fill="none" stroke="midnightblue" d="M471.045,-177.345C414.315,-170.66 330.396,-156.806 310.762,-132 299.332,-117.559 310.719,-97.5916 322.019,-83.6109"/>
<polygon fill="midnightblue" stroke="midnightblue" points="324.909,-85.6217 328.838,-75.7824 319.631,-81.0238 324.909,-85.6217"/>
</g>
<!-- Node16&#45;&gt;Node15 -->
<g id="edge21" class="edge"><title>Node16&#45;&gt;Node15</title>
<path fill="none" stroke="midnightblue" d="M471.114,-182.465C422.591,-179.82 351.485,-169.142 302.762,-132 270.273,-107.234 259.243,-57.3566 255.56,-30.0078"/>
<polygon fill="midnightblue" stroke="midnightblue" points="259.006,-29.3414 254.39,-19.8051 252.052,-30.1388 259.006,-29.3414"/>
</g>
<!-- Node17 -->
<g id="node18" class="node"><title>Node17</title>
<polygon fill="white" stroke="#bfbfbf" points="543.262,-0.5 543.262,-19.5 600.262,-19.5 600.262,-0.5 543.262,-0.5"/>
<text text-anchor="middle" x="571.762" y="-7.5" font-family="FreeSans" font-size="10.00">ostream</text>
</g>
<!-- Node16&#45;&gt;Node17 -->
<g id="edge20" class="edge"><title>Node16&#45;&gt;Node17</title>
<path fill="none" stroke="midnightblue" d="M527.157,-173.76C534.481,-147.036 556.684,-66.0174 566.73,-29.3618"/>
<polygon fill="midnightblue" stroke="midnightblue" points="570.159,-30.0889 569.427,-19.5194 563.408,-28.2387 570.159,-30.0889"/>
</g>
<!-- Node18 -->
<g id="node19" class="node"><title>Node18</title>
<polygon fill="white" stroke="#bfbfbf" points="699.762,-112.5 699.762,-131.5 741.762,-131.5 741.762,-112.5 699.762,-112.5"/>
<text text-anchor="middle" x="720.762" y="-119.5" font-family="FreeSans" font-size="10.00">stack</text>
</g>
<!-- Node16&#45;&gt;Node18 -->
<g id="edge22" class="edge"><title>Node16&#45;&gt;Node18</title>
<path fill="none" stroke="midnightblue" d="M552.844,-173.975C589.127,-162.961 652.09,-143.847 689.747,-132.415"/>
<polygon fill="midnightblue" stroke="midnightblue" points="691.102,-135.662 699.654,-129.408 689.069,-128.964 691.102,-135.662"/>
</g>
<!-- Node19 -->
<g id="node20" class="node"><title>Node19</title>
<g id="a_node20"><a xlink:href="Clock_8h_source.html" target="_top" xlink:title="DGtal/base/Clock.h">
<polygon fill="white" stroke="red" points="876.262,-56.5 876.262,-75.5 983.262,-75.5 983.262,-56.5 876.262,-56.5"/>
<text text-anchor="middle" x="929.762" y="-63.5" font-family="FreeSans" font-size="10.00">DGtal/base/Clock.h</text>
</a>
</g>
</g>
<!-- Node16&#45;&gt;Node19 -->
<g id="edge24" class="edge"><title>Node16&#45;&gt;Node19</title>
<path fill="none" stroke="midnightblue" d="M578.621,-180.028C687.49,-174.478 925.491,-159.326 949.762,-132 961.596,-118.676 952.523,-98.4678 943.082,-84.1251"/>
<polygon fill="midnightblue" stroke="midnightblue" points="945.706,-81.7762 937.042,-75.6782 940.012,-85.8482 945.706,-81.7762"/>
</g>
<!-- Node22 -->
<g id="node21" class="node"><title>Node22</title>
<g id="a_node21"><a xlink:href="TraceWriter_8h_source.html" target="_top" xlink:title="DGtal/base/TraceWriter.h">
<polygon fill="white" stroke="black" points="572.262,-56.5 572.262,-75.5 705.262,-75.5 705.262,-56.5 572.262,-56.5"/>
<text text-anchor="middle" x="638.762" y="-63.5" font-family="FreeSans" font-size="10.00">DGtal/base/TraceWriter.h</text>
</a>
</g>
</g>
<!-- Node16&#45;&gt;Node22 -->
<g id="edge26" class="edge"><title>Node16&#45;&gt;Node22</title>
<path fill="none" stroke="midnightblue" d="M527.713,-173.753C532.904,-159.416 544.846,-130.651 562.762,-112 575.781,-98.4463 593.754,-87.556 608.953,-79.8856"/>
<polygon fill="midnightblue" stroke="midnightblue" points="610.501,-83.0252 617.99,-75.5307 607.462,-76.7193 610.501,-83.0252"/>
</g>
<!-- Node16&#45;&gt;Node23 -->
<g id="edge29" class="edge"><title>Node16&#45;&gt;Node23</title>
<path fill="none" stroke="midnightblue" d="M506.709,-173.975C485.563,-163.99 450.321,-147.348 425.884,-135.807"/>
<polygon fill="midnightblue" stroke="midnightblue" points="427.318,-132.614 416.781,-131.509 424.329,-138.944 427.318,-132.614"/>
</g>
<!-- Node16&#45;&gt;Node24 -->
<g id="edge34" class="edge"><title>Node16&#45;&gt;Node24</title>
<path fill="none" stroke="midnightblue" d="M471.191,-174.352C404.828,-163.665 292.472,-144.911 224.935,-133.266"/>
<polygon fill="midnightblue" stroke="midnightblue" points="225.35,-129.786 214.9,-131.531 224.158,-136.683 225.35,-129.786"/>
</g>
<!-- Node26 -->
<g id="node24" class="node"><title>Node26</title>
<g id="a_node24"><a xlink:href="Trace_8ih_source.html" target="_top" xlink:title="DGtal/base/Trace.ih">
<polygon fill="white" stroke="black" points="572.262,-112.5 572.262,-131.5 681.262,-131.5 681.262,-112.5 572.262,-112.5"/>
<text text-anchor="middle" x="626.762" y="-119.5" font-family="FreeSans" font-size="10.00">DGtal/base/Trace.ih</text>
</a>
</g>
</g>
<!-- Node16&#45;&gt;Node26 -->
<g id="edge37" class="edge"><title>Node16&#45;&gt;Node26</title>
<path fill="none" stroke="midnightblue" d="M539.376,-173.975C556.115,-164.211 583.766,-148.081 603.48,-136.581"/>
<polygon fill="midnightblue" stroke="midnightblue" points="605.301,-139.571 612.175,-131.509 601.773,-133.525 605.301,-139.571"/>
</g>
<!-- Node19&#45;&gt;Node1 -->
<g id="edge25" class="edge"><title>Node19&#45;&gt;Node1</title>
<path fill="none" stroke="midnightblue" d="M983.53,-57.3708C988.336,-56.8442 993.133,-56.3748 997.762,-56 1576.81,-9.12245 2285.07,-9.75824 2458.87,-10.7098"/>
<polygon fill="midnightblue" stroke="midnightblue" points="2459.05,-14.2108 2469.07,-10.7695 2459.1,-7.21094 2459.05,-14.2108"/>
</g>
<!-- Node22&#45;&gt;Node1 -->
<g id="edge27" class="edge"><title>Node22&#45;&gt;Node1</title>
<path fill="none" stroke="midnightblue" d="M705.586,-60.7136C733.455,-59.0445 766.165,-57.239 795.762,-56 1460.3,-28.1793 2271.48,-14.5113 2458.85,-11.5998"/>
<polygon fill="midnightblue" stroke="midnightblue" points="2459.11,-15.0963 2469.05,-11.4424 2459,-8.09717 2459.11,-15.0963"/>
</g>
<!-- Node22&#45;&gt;Node17 -->
<g id="edge28" class="edge"><title>Node22&#45;&gt;Node17</title>
<path fill="none" stroke="midnightblue" d="M627.997,-56.324C617.996,-48.2631 602.875,-36.0765 590.831,-26.3695"/>
<polygon fill="midnightblue" stroke="midnightblue" points="592.705,-23.3841 582.722,-19.8339 588.312,-28.8343 592.705,-23.3841"/>
</g>
<!-- Node23&#45;&gt;Node1 -->
<g id="edge30" class="edge"><title>Node23&#45;&gt;Node1</title>
<path fill="none" stroke="midnightblue" d="M414.925,-112.34C443.679,-97.4571 506.034,-67.5167 562.762,-56 754.599,-17.0539 2199.72,-11.7262 2458.99,-11.0818"/>
<polygon fill="midnightblue" stroke="midnightblue" points="2459.09,-14.5816 2469.08,-11.0576 2459.07,-7.58166 2459.09,-14.5816"/>
</g>
<!-- Node23&#45;&gt;Node14 -->
<g id="edge33" class="edge"><title>Node23&#45;&gt;Node14</title>
<path fill="none" stroke="midnightblue" d="M388.961,-112.324C379.944,-104.341 366.356,-92.3128 355.444,-82.6529"/>
<polygon fill="midnightblue" stroke="midnightblue" points="357.548,-79.8416 347.741,-75.8339 352.909,-85.083 357.548,-79.8416"/>
</g>
<!-- Node23&#45;&gt;Node15 -->
<g id="edge31" class="edge"><title>Node23&#45;&gt;Node15</title>
<path fill="none" stroke="midnightblue" d="M402.476,-112.431C407.672,-98.9738 415.164,-72.7017 402.762,-56 376.044,-20.0211 321.411,-11.7728 286.244,-10.4255"/>
<polygon fill="midnightblue" stroke="midnightblue" points="286.08,-6.92124 276.008,-10.2058 285.93,-13.9196 286.08,-6.92124"/>
</g>
<!-- Node23&#45;&gt;Node22 -->
<g id="edge32" class="edge"><title>Node23&#45;&gt;Node22</title>
<path fill="none" stroke="midnightblue" d="M436.791,-112.444C478.57,-103.043 545.743,-87.9291 591.032,-77.7393"/>
<polygon fill="midnightblue" stroke="midnightblue" points="591.923,-81.1263 600.911,-75.5164 590.387,-74.297 591.923,-81.1263"/>
</g>
<!-- Node24&#45;&gt;Node15 -->
<g id="edge36" class="edge"><title>Node24&#45;&gt;Node15</title>
<path fill="none" stroke="midnightblue" d="M175.432,-112.368C189.521,-94.135 222.524,-51.4257 240.876,-27.6752"/>
<polygon fill="midnightblue" stroke="midnightblue" points="243.778,-29.6444 247.123,-19.5914 238.239,-25.3642 243.778,-29.6444"/>
</g>
<!-- Node24&#45;&gt;Node16 -->
<g id="edge35" class="edge"><title>Node24&#45;&gt;Node16</title>
<path fill="none" stroke="midnightblue" d="M224.57,-131.509C291.245,-142.26 401.964,-160.746 468.733,-172.259"/>
<polygon fill="midnightblue" stroke="midnightblue" points="468.206,-175.72 478.656,-173.975 469.399,-168.822 468.206,-175.72"/>
</g>
<!-- Node27&#45;&gt;Node1 -->
<g id="edge40" class="edge"><title>Node27&#45;&gt;Node1</title>
<path fill="none" stroke="midnightblue" d="M830.478,-112.452C825.756,-98.5386 819.122,-71.041 833.762,-56 863.028,-25.9322 2208.61,-13.3904 2458.91,-11.3157"/>
<polygon fill="midnightblue" stroke="midnightblue" points="2459.04,-14.8148 2469.01,-11.2327 2458.98,-7.81507 2459.04,-14.8148"/>
</g>
<!-- Node27&#45;&gt;Node15 -->
<g id="edge41" class="edge"><title>Node27&#45;&gt;Node15</title>
<path fill="none" stroke="midnightblue" d="M778.104,-112.471C723.234,-103.895 637.052,-89.9751 562.762,-76 461.283,-56.9103 341.852,-30.7229 285.824,-18.2172"/>
<polygon fill="midnightblue" stroke="midnightblue" points="286.326,-14.7431 275.803,-15.9753 284.798,-21.5742 286.326,-14.7431"/>
</g>
<!-- Node27&#45;&gt;Node22 -->
<g id="edge42" class="edge"><title>Node27&#45;&gt;Node22</title>
<path fill="none" stroke="midnightblue" d="M802.863,-112.444C769.488,-103.201 716.168,-88.4356 679.413,-78.2572"/>
<polygon fill="midnightblue" stroke="midnightblue" points="680.087,-74.8122 669.516,-75.5164 678.219,-81.5583 680.087,-74.8122"/>
</g>
<!-- Node28&#45;&gt;Node1 -->
<g id="edge45" class="edge"><title>Node28&#45;&gt;Node1</title>
<path fill="none" stroke="midnightblue" d="M1616.47,-60.9412C1805.44,-50.2449 2312.56,-21.5396 2458.79,-13.2626"/>
<polygon fill="midnightblue" stroke="midnightblue" points="2459.29,-16.7399 2469.08,-12.6802 2458.9,-9.75105 2459.29,-16.7399"/>
</g>
<!-- Node29&#45;&gt;Node1 -->
<g id="edge47" class="edge"><title>Node29&#45;&gt;Node1</title>
<path fill="none" stroke="midnightblue" d="M2538.84,-56.083C2531.92,-48.2982 2521.7,-36.8015 2513.31,-27.3665"/>
<polygon fill="midnightblue" stroke="midnightblue" points="2515.8,-24.8999 2506.54,-19.7511 2510.57,-29.5505 2515.8,-24.8999"/>
</g>
<!-- Node32&#45;&gt;Node2 -->
<g id="edge55" class="edge"><title>Node32&#45;&gt;Node2</title>
<path fill="none" stroke="midnightblue" d="M2705.03,-193.058C2692.25,-195.223 2677.98,-197.388 2664.76,-199 2485.61,-220.843 2273.19,-234.46 2163.45,-240.444"/>
<polygon fill="midnightblue" stroke="midnightblue" points="2162.95,-236.966 2153.15,-241 2163.33,-243.956 2162.95,-236.966"/>
</g>
<!-- Node32&#45;&gt;Node4 -->
<g id="edge49" class="edge"><title>Node32&#45;&gt;Node4</title>
<path fill="none" stroke="midnightblue" d="M2719.77,-173.981C2677.21,-159.19 2585.47,-128.742 2505.76,-112 2393.51,-88.4228 2258.53,-75.4478 2191.99,-70.0454"/>
<polygon fill="midnightblue" stroke="midnightblue" points="2192.15,-66.5478 2181.91,-69.2429 2191.6,-73.5257 2192.15,-66.5478"/>
</g>
<!-- Node32&#45;&gt;Node12 -->
<g id="edge50" class="edge"><title>Node32&#45;&gt;Node12</title>
<path fill="none" stroke="midnightblue" d="M2787.6,-173.975C2849.24,-161.991 2960.19,-140.417 3015.9,-129.584"/>
<polygon fill="midnightblue" stroke="midnightblue" points="3016.81,-132.973 3025.96,-127.629 3015.47,-126.102 3016.81,-132.973"/>
</g>
<!-- Node34 -->
<g id="node29" class="node"><title>Node34</title>
<g id="a_node29"><a xlink:href="Color_8h_source.html" target="_top" xlink:title="DGtal/io/Color.h">
<polygon fill="white" stroke="red" points="2406.26,-112.5 2406.26,-131.5 2497.26,-131.5 2497.26,-112.5 2406.26,-112.5"/>
<text text-anchor="middle" x="2451.76" y="-119.5" font-family="FreeSans" font-size="10.00">DGtal/io/Color.h</text>
</a>
</g>
</g>
<!-- Node32&#45;&gt;Node34 -->
<g id="edge51" class="edge"><title>Node32&#45;&gt;Node34</title>
<path fill="none" stroke="midnightblue" d="M2701.93,-173.975C2649.56,-163.305 2559.89,-145.034 2503.33,-133.509"/>
<polygon fill="midnightblue" stroke="midnightblue" points="2504.02,-130.076 2493.52,-131.509 2502.62,-136.935 2504.02,-130.076"/>
</g>
<!-- Node34&#45;&gt;Node1 -->
<g id="edge52" class="edge"><title>Node34&#45;&gt;Node1</title>
<path fill="none" stroke="midnightblue" d="M2453.51,-112.323C2456.24,-99.6057 2462.12,-75.319 2470.76,-56 2475.13,-46.2352 2481.3,-36.0594 2486.74,-27.8595"/>
<polygon fill="midnightblue" stroke="midnightblue" points="2489.66,-29.793 2492.44,-19.5684 2483.89,-25.8298 2489.66,-29.793"/>
</g>
<!-- Node34&#45;&gt;Node2 -->
<g id="edge53" class="edge"><title>Node34&#45;&gt;Node2</title>
<path fill="none" stroke="midnightblue" d="M2459.75,-131.589C2473.01,-146.894 2496.46,-179.136 2478.76,-199 2458.17,-222.112 2269.99,-235.114 2163.1,-240.695"/>
<polygon fill="midnightblue" stroke="midnightblue" points="2162.83,-237.204 2153.02,-241.211 2163.19,-244.195 2162.83,-237.204"/>
</g>
<!-- Node34&#45;&gt;Node4 -->
<g id="edge54" class="edge"><title>Node34&#45;&gt;Node4</title>
<path fill="none" stroke="midnightblue" d="M2406.05,-112.799C2347.83,-102.355 2248.1,-84.4618 2192.07,-74.4111"/>
<polygon fill="midnightblue" stroke="midnightblue" points="2192.6,-70.9502 2182.14,-72.6293 2191.36,-77.8402 2192.6,-70.9502"/>
</g>
<!-- Node40&#45;&gt;Node1 -->
<g id="edge57" class="edge"><title>Node40&#45;&gt;Node1</title>
<path fill="none" stroke="midnightblue" d="M2712.51,-56.4435C2664.82,-46.303 2585.85,-29.5138 2538.41,-19.4293"/>
<polygon fill="midnightblue" stroke="midnightblue" points="2539.01,-15.9791 2528.5,-17.323 2537.56,-22.826 2539.01,-15.9791"/>
</g>
<!-- Node41&#45;&gt;Node1 -->
<g id="edge59" class="edge"><title>Node41&#45;&gt;Node1</title>
<path fill="none" stroke="midnightblue" d="M2864.42,-112.22C2863.37,-97.9747 2859.07,-70.0099 2841.76,-56 2795.97,-18.9282 2618.91,-12.2483 2538.68,-11.1505"/>
<polygon fill="midnightblue" stroke="midnightblue" points="2538.52,-7.64857 2528.48,-11.0342 2538.44,-14.6481 2538.52,-7.64857"/>
</g>
<!-- Node42&#45;&gt;Node1 -->
<g id="edge61" class="edge"><title>Node42&#45;&gt;Node1</title>
<path fill="none" stroke="midnightblue" d="M967.032,-369.486C964.311,-360.52 960.32,-345.935 958.762,-333 956.53,-314.467 956.637,-309.545 958.762,-291 961.67,-265.615 961.326,-258.323 971.762,-235 991.629,-190.598 1054.95,-79.0982 1097.76,-56 1159.2,-22.8517 2236.36,-12.9719 2458.78,-11.2813"/>
<polygon fill="midnightblue" stroke="midnightblue" points="2459.04,-14.7796 2469.02,-11.2048 2458.99,-7.77977 2459.04,-14.7796"/>
</g>
<!-- Node42&#45;&gt;Node2 -->
<g id="edge63" class="edge"><title>Node42&#45;&gt;Node2</title>
<path fill="none" stroke="midnightblue" d="M1028.55,-369.495C1098.36,-359.106 1207.56,-341.826 1224.76,-333 1248.53,-320.802 1243.31,-301.751 1267.76,-291 1335.25,-261.332 1827.91,-250.256 2016.56,-247.074"/>
<polygon fill="midnightblue" stroke="midnightblue" points="2016.71,-250.572 2026.65,-246.907 2016.6,-243.573 2016.71,-250.572"/>
</g>
<!-- Node42&#45;&gt;Node34 -->
<g id="edge70" class="edge"><title>Node42&#45;&gt;Node34</title>
<path fill="none" stroke="midnightblue" d="M967.818,-369.161C962.916,-344.299 952.861,-273.091 988.762,-235 1096.19,-121.014 1179.18,-186.093 1334.76,-168 1543.8,-143.691 2200.29,-128.274 2396.1,-124.129"/>
<polygon fill="midnightblue" stroke="midnightblue" points="2396.24,-127.627 2406.16,-123.917 2396.09,-120.628 2396.24,-127.627"/>
</g>
<!-- Node43 -->
<g id="node33" class="node"><title>Node43</title>
<polygon fill="white" stroke="#bfbfbf" points="998.262,-235.5 998.262,-254.5 1045.26,-254.5 1045.26,-235.5 998.262,-235.5"/>
<text text-anchor="middle" x="1021.76" y="-242.5" font-family="FreeSans" font-size="10.00">vector</text>
</g>
<!-- Node42&#45;&gt;Node43 -->
<g id="edge62" class="edge"><title>Node42&#45;&gt;Node43</title>
<path fill="none" stroke="midnightblue" d="M973.174,-369.339C981.548,-348.08 1003.26,-292.963 1014.61,-264.151"/>
<polygon fill="midnightblue" stroke="midnightblue" points="1018,-265.108 1018.4,-254.521 1011.48,-262.542 1018,-265.108"/>
</g>
<!-- Node44 -->
<g id="node34" class="node"><title>Node44</title>
<g id="a_node34"><a xlink:href="PointVector_8h_source.html" target="_top" xlink:title="DGtal/kernel/PointVector.h">
<polygon fill="white" stroke="red" points="1073.76,-302.5 1073.76,-321.5 1215.76,-321.5 1215.76,-302.5 1073.76,-302.5"/>
<text text-anchor="middle" x="1144.76" y="-309.5" font-family="FreeSans" font-size="10.00">DGtal/kernel/PointVector.h</text>
</a>
</g>
</g>
<!-- Node42&#45;&gt;Node44 -->
<g id="edge64" class="edge"><title>Node42&#45;&gt;Node44</title>
<path fill="none" stroke="midnightblue" d="M993,-369.369C1023.55,-358.022 1077.39,-338.025 1112.04,-325.152"/>
<polygon fill="midnightblue" stroke="midnightblue" points="1113.55,-328.327 1121.71,-321.564 1111.11,-321.765 1113.55,-328.327"/>
</g>
<!-- Node62 -->
<g id="node35" class="node"><title>Node62</title>
<g id="a_node35"><a xlink:href="Mesh_8ih_source.html" target="_top" xlink:title="DGtal/shapes/Mesh.ih">
<polygon fill="white" stroke="black" points="782.262,-302.5 782.262,-321.5 903.262,-321.5 903.262,-302.5 782.262,-302.5"/>
<text text-anchor="middle" x="842.762" y="-309.5" font-family="FreeSans" font-size="10.00">DGtal/shapes/Mesh.ih</text>
</a>
</g>
</g>
<!-- Node42&#45;&gt;Node62 -->
<g id="edge71" class="edge"><title>Node42&#45;&gt;Node62</title>
<path fill="none" stroke="midnightblue" d="M952.897,-369.369C931.358,-358.345 893.866,-339.155 868.685,-326.268"/>
<polygon fill="midnightblue" stroke="midnightblue" points="870.193,-323.108 859.696,-321.667 867.003,-329.339 870.193,-323.108"/>
</g>
<!-- Node44&#45;&gt;Node1 -->
<g id="edge65" class="edge"><title>Node44&#45;&gt;Node1</title>
<path fill="none" stroke="midnightblue" d="M1136.72,-302.297C1120.92,-284.531 1086.28,-242.114 1073.76,-199 1058.94,-147.944 1110.32,-57.0718 1111.76,-56 1167.28,-14.8334 2237.89,-11.3114 2459.01,-11.0234"/>
<polygon fill="midnightblue" stroke="midnightblue" points="2459.19,-14.5233 2469.18,-11.0117 2459.18,-7.52329 2459.19,-14.5233"/>
</g>
<!-- Node44&#45;&gt;Node2 -->
<g id="edge69" class="edge"><title>Node44&#45;&gt;Node2</title>
<path fill="none" stroke="midnightblue" d="M1175.2,-302.444C1191.29,-298.276 1211.45,-293.612 1229.76,-291 1518.67,-249.791 1866.97,-245.262 2016.14,-245.435"/>
<polygon fill="midnightblue" stroke="midnightblue" points="2016.53,-248.936 2026.54,-245.456 2016.54,-241.936 2016.53,-248.936"/>
</g>
<!-- Node44&#45;&gt;Node4 -->
<g id="edge67" class="edge"><title>Node44&#45;&gt;Node4</title>
<path fill="none" stroke="midnightblue" d="M1152.83,-302.36C1184.94,-268.726 1308.35,-146.702 1439.76,-112 1567.55,-78.2552 1977.48,-69.4905 2109.43,-67.5157"/>
<polygon fill="midnightblue" stroke="midnightblue" points="2109.58,-71.014 2119.53,-67.3698 2109.48,-64.0147 2109.58,-71.014"/>
</g>
<!-- Node44&#45;&gt;Node15 -->
<g id="edge66" class="edge"><title>Node44&#45;&gt;Node15</title>
<path fill="none" stroke="midnightblue" d="M1137.9,-302.297C1124.09,-285.559 1091.06,-249.273 1053.76,-235 1000.7,-214.693 71.2212,-239.874 31.7618,-199 -12.3806,-153.275 -8.46784,-105.202 31.7618,-56 55.3809,-27.1129 165.973,-16.3253 221.616,-12.677"/>
<polygon fill="midnightblue" stroke="midnightblue" points="221.886,-16.167 231.652,-12.0576 221.455,-9.18033 221.886,-16.167"/>
</g>
<!-- Node44&#45;&gt;Node43 -->
<g id="edge68" class="edge"><title>Node44&#45;&gt;Node43</title>
<path fill="none" stroke="midnightblue" d="M1128.43,-302.369C1107.66,-291.393 1071.58,-272.324 1047.19,-259.438"/>
<polygon fill="midnightblue" stroke="midnightblue" points="1048.64,-256.245 1038.16,-254.667 1045.37,-262.434 1048.64,-256.245"/>
</g>
<!-- Node63&#45;&gt;Node1 -->
<g id="edge73" class="edge"><title>Node63&#45;&gt;Node1</title>
<path fill="none" stroke="midnightblue" d="M1082.78,-430.964C983.448,-416.847 806.721,-384.925 772.762,-333 762.545,-317.378 764.631,-307.803 772.762,-291 777.344,-281.53 1059.88,-59.6116 1069.76,-56 1203.23,-7.21419 2241.46,-9.70146 2458.91,-10.7683"/>
<polygon fill="midnightblue" stroke="midnightblue" points="2459.19,-14.2697 2469.21,-10.8208 2459.23,-7.26976 2459.19,-14.2697"/>
</g>
<!-- Node63&#45;&gt;Node2 -->
<g id="edge78" class="edge"><title>Node63&#45;&gt;Node2</title>
<path fill="none" stroke="midnightblue" d="M1165.84,-430.967C1213.29,-404.594 1364.48,-324.172 1500.76,-291 1596.54,-267.687 1880.62,-254.011 2016.18,-248.645"/>
<polygon fill="midnightblue" stroke="midnightblue" points="2016.61,-252.131 2026.47,-248.243 2016.34,-245.137 2016.61,-252.131"/>
</g>
<!-- Node63&#45;&gt;Node42 -->
<g id="edge79" class="edge"><title>Node63&#45;&gt;Node42</title>
<path fill="none" stroke="midnightblue" d="M1124.83,-430.975C1093.51,-420.68 1040.67,-403.31 1005.51,-391.75"/>
<polygon fill="midnightblue" stroke="midnightblue" points="1006.24,-388.307 995.647,-388.509 1004.05,-394.957 1006.24,-388.307"/>
</g>
<!-- Node64 -->
<g id="node37" class="node"><title>Node64</title>
<g id="a_node37"><a xlink:href="SpaceND_8h_source.html" target="_top" xlink:title="DGtal/kernel/SpaceND.h">
<polygon fill="white" stroke="red" points="1384.26,-369.5 1384.26,-388.5 1517.26,-388.5 1517.26,-369.5 1384.26,-369.5"/>
<text text-anchor="middle" x="1450.76" y="-376.5" font-family="FreeSans" font-size="10.00">DGtal/kernel/SpaceND.h</text>
</a>
</g>
</g>
<!-- Node63&#45;&gt;Node64 -->
<g id="edge74" class="edge"><title>Node63&#45;&gt;Node64</title>
<path fill="none" stroke="midnightblue" d="M1193.74,-430.975C1247.54,-420.305 1339.67,-402.034 1397.78,-390.509"/>
<polygon fill="midnightblue" stroke="midnightblue" points="1398.73,-393.888 1407.86,-388.509 1397.37,-387.021 1398.73,-393.888"/>
</g>
<!-- Node67 -->
<g id="node38" class="node"><title>Node67</title>
<g id="a_node38"><a xlink:href="MeshReader_8ih_source.html" target="_top" xlink:title="DGtal/io/readers/MeshReader.ih">
<polygon fill="white" stroke="black" points="1047.26,-369.5 1047.26,-388.5 1214.26,-388.5 1214.26,-369.5 1047.26,-369.5"/>
<text text-anchor="middle" x="1130.76" y="-376.5" font-family="FreeSans" font-size="10.00">DGtal/io/readers/MeshReader.ih</text>
</a>
</g>
</g>
<!-- Node63&#45;&gt;Node67 -->
<g id="edge80" class="edge"><title>Node63&#45;&gt;Node67</title>
<path fill="none" stroke="midnightblue" d="M1147.9,-430.975C1145.04,-422.492 1140.58,-409.204 1136.92,-398.322"/>
<polygon fill="midnightblue" stroke="midnightblue" points="1140.13,-396.873 1133.62,-388.509 1133.49,-399.103 1140.13,-396.873"/>
</g>
<!-- Node64&#45;&gt;Node1 -->
<g id="edge75" class="edge"><title>Node64&#45;&gt;Node1</title>
<path fill="none" stroke="midnightblue" d="M1416.1,-369.488C1350.13,-351.2 1207.93,-301.262 1149.76,-199 1118.34,-143.755 1105.58,-101.684 1149.76,-56 1196.45,-7.7332 2241.29,-9.82568 2459.17,-10.7902"/>
<polygon fill="midnightblue" stroke="midnightblue" points="2459.18,-14.2902 2469.2,-10.8365 2459.22,-7.29031 2459.18,-14.2902"/>
</g>
<!-- Node64&#45;&gt;Node2 -->
<g id="edge76" class="edge"><title>Node64&#45;&gt;Node2</title>
<path fill="none" stroke="midnightblue" d="M1459.52,-369.373C1478.68,-351.126 1526.54,-308.837 1575.76,-291 1654.81,-262.353 1894.31,-251.522 2016.45,-247.782"/>
<polygon fill="midnightblue" stroke="midnightblue" points="2016.57,-251.28 2026.46,-247.483 2016.36,-244.283 2016.57,-251.28"/>
</g>
<!-- Node64&#45;&gt;Node44 -->
<g id="edge77" class="edge"><title>Node64&#45;&gt;Node44</title>
<path fill="none" stroke="midnightblue" d="M1410.44,-369.436C1355.06,-357.671 1255.48,-336.518 1195.22,-323.718"/>
<polygon fill="midnightblue" stroke="midnightblue" points="1195.68,-320.238 1185.17,-321.583 1194.22,-327.085 1195.68,-320.238"/>
</g>
<!-- Node68&#45;&gt;Node1 -->
<g id="edge82" class="edge"><title>Node68&#45;&gt;Node1</title>
<path fill="none" stroke="midnightblue" d="M2554.78,-632.853C2765.27,-625.139 3406.76,-594.571 3406.76,-508.5 3406.76,-508.5 3406.76,-508.5 3406.76,-121 3406.76,-66.1152 3354.11,-72.4891 3301.76,-56 3157.2,-10.4659 2680.35,-9.79831 2538.75,-10.6471"/>
<polygon fill="midnightblue" stroke="midnightblue" points="2538.35,-7.14953 2528.38,-10.7157 2538.4,-14.1494 2538.35,-7.14953"/>
</g>
<!-- Node68&#45;&gt;Node2 -->
<g id="edge83" class="edge"><title>Node68&#45;&gt;Node2</title>
<path fill="none" stroke="midnightblue" d="M2422.71,-633.118C2365.19,-629.436 2280.61,-619.011 2212.76,-590 2157.47,-566.359 2104.76,-568.634 2104.76,-508.5 2104.76,-508.5 2104.76,-508.5 2104.76,-378 2104.76,-337.398 2097.67,-290.218 2093.24,-264.706"/>
<polygon fill="midnightblue" stroke="midnightblue" points="2096.64,-263.834 2091.42,-254.61 2089.75,-265.072 2096.64,-263.834"/>
</g>
<!-- Node68&#45;&gt;Node64 -->
<g id="edge84" class="edge"><title>Node68&#45;&gt;Node64</title>
<path fill="none" stroke="midnightblue" d="M2422.62,-633.997C2316.12,-631.437 2100.38,-622.336 1920.76,-590 1706.56,-551.439 1580.92,-629.679 1449.76,-456 1437.37,-439.588 1440.44,-414.989 1444.73,-398.256"/>
<polygon fill="midnightblue" stroke="midnightblue" points="1448.12,-399.142 1447.58,-388.56 1441.4,-397.167 1448.12,-399.142"/>
</g>
<!-- Node69 -->
<g id="node40" class="node"><title>Node69</title>
<g id="a_node40"><a xlink:href="HyperRectDomain_8h_source.html" target="_top" xlink:title="DGtal/kernel/domains\l/HyperRectDomain.h">
<polygon fill="white" stroke="red" points="2402.76,-297 2402.76,-327 2522.76,-327 2522.76,-297 2402.76,-297"/>
<text text-anchor="start" x="2410.76" y="-315" font-family="FreeSans" font-size="10.00">DGtal/kernel/domains</text>
<text text-anchor="middle" x="2462.76" y="-304" font-family="FreeSans" font-size="10.00">/HyperRectDomain.h</text>
</a>
</g>
</g>
<!-- Node68&#45;&gt;Node69 -->
<g id="edge85" class="edge"><title>Node68&#45;&gt;Node69</title>
<path fill="none" stroke="midnightblue" d="M2498.57,-626.247C2518.9,-607.08 2563.76,-559.053 2563.76,-508.5 2563.76,-508.5 2563.76,-508.5 2563.76,-439.5 2563.76,-393.971 2523.31,-355.405 2493.61,-333.224"/>
<polygon fill="midnightblue" stroke="midnightblue" points="2495.34,-330.153 2485.18,-327.143 2491.24,-335.831 2495.34,-330.153"/>
</g>
<!-- Node92 -->
<g id="node41" class="node"><title>Node92</title>
<g id="a_node41"><a xlink:href="DigitalSetSelector_8h_source.html" target="_top" xlink:title="DGtal/kernel/sets/Digital\lSetSelector.h">
<polygon fill="white" stroke="red" points="3020.76,-297 3020.76,-327 3152.76,-327 3152.76,-297 3020.76,-297"/>
<text text-anchor="start" x="3028.76" y="-315" font-family="FreeSans" font-size="10.00">DGtal/kernel/sets/Digital</text>
<text text-anchor="middle" x="3086.76" y="-304" font-family="FreeSans" font-size="10.00">SetSelector.h</text>
</a>
</g>
</g>
<!-- Node68&#45;&gt;Node92 -->
<g id="edge88" class="edge"><title>Node68&#45;&gt;Node92</title>
<path fill="none" stroke="midnightblue" d="M2554.91,-632.267C2692.07,-624.794 2994.76,-598.145 2994.76,-508.5 2994.76,-508.5 2994.76,-508.5 2994.76,-439.5 2994.76,-395.448 3031.7,-356.431 3058.77,-333.756"/>
<polygon fill="midnightblue" stroke="midnightblue" points="3061.23,-336.268 3066.8,-327.256 3056.82,-330.827 3061.23,-336.268"/>
</g>
<!-- Node105 -->
<g id="node42" class="node"><title>Node105</title>
<g id="a_node42"><a xlink:href="DigitalTopology_8h_source.html" target="_top" xlink:title="DGtal/topology/DigitalTopology.h">
<polygon fill="white" stroke="red" points="3208.76,-302.5 3208.76,-321.5 3378.76,-321.5 3378.76,-302.5 3208.76,-302.5"/>
<text text-anchor="middle" x="3293.76" y="-309.5" font-family="FreeSans" font-size="10.00">DGtal/topology/DigitalTopology.h</text>
</a>
</g>
</g>
<!-- Node68&#45;&gt;Node105 -->
<g id="edge91" class="edge"><title>Node68&#45;&gt;Node105</title>
<path fill="none" stroke="midnightblue" d="M2555,-633.224C2642.47,-629.76 2800.84,-619.607 2932.76,-590 3038.58,-566.251 3162.76,-616.95 3162.76,-508.5 3162.76,-508.5 3162.76,-508.5 3162.76,-439.5 3162.76,-383.686 3225.06,-344.693 3263.73,-325.865"/>
<polygon fill="midnightblue" stroke="midnightblue" points="3265.44,-328.931 3273,-321.514 3262.46,-322.594 3265.44,-328.931"/>
</g>
<!-- Node112 -->
<g id="node43" class="node"><title>Node112</title>
<g id="a_node43"><a xlink:href="MetricAdjacency_8h_source.html" target="_top" xlink:title="DGtal/topology/MetricAdjacency.h">
<polygon fill="white" stroke="red" points="2170.76,-431 2170.76,-450 2346.76,-450 2346.76,-431 2170.76,-431"/>
<text text-anchor="middle" x="2258.76" y="-438" font-family="FreeSans" font-size="10.00">DGtal/topology/MetricAdjacency.h</text>
</a>
</g>
</g>
<!-- Node68&#45;&gt;Node112 -->
<g id="edge94" class="edge"><title>Node68&#45;&gt;Node112</title>
<path fill="none" stroke="midnightblue" d="M2478.58,-626.436C2442.82,-596.346 2322.61,-495.213 2276.75,-456.63"/>
<polygon fill="midnightblue" stroke="midnightblue" points="2278.99,-453.944 2269.08,-450.185 2274.48,-459.301 2278.99,-453.944"/>
</g>
<!-- Node115 -->
<g id="node44" class="node"><title>Node115</title>
<g id="a_node44"><a xlink:href="Object_8h_source.html" target="_top" xlink:title="DGtal/topology/Object.h">
<polygon fill="white" stroke="red" points="2744.26,-369.5 2744.26,-388.5 2875.26,-388.5 2875.26,-369.5 2744.26,-369.5"/>
<text text-anchor="middle" x="2809.76" y="-376.5" font-family="FreeSans" font-size="10.00">DGtal/topology/Object.h</text>
</a>
</g>
</g>
<!-- Node68&#45;&gt;Node115 -->
<g id="edge98" class="edge"><title>Node68&#45;&gt;Node115</title>
<path fill="none" stroke="midnightblue" d="M2554.77,-633.894C2597.51,-630.131 2652.34,-619.26 2691.76,-590 2758.82,-540.228 2793.06,-440.326 2804.88,-398.786"/>
<polygon fill="midnightblue" stroke="midnightblue" points="2808.32,-399.485 2807.57,-388.916 2801.56,-397.642 2808.32,-399.485"/>
</g>
<!-- Node124 -->
<g id="node45" class="node"><title>Node124</title>
<g id="a_node45"><a xlink:href="KhalimskySpaceND_8h_source.html" target="_top" xlink:title="DGtal/topology/Khalimsky\lSpaceND.h">
<polygon fill="white" stroke="red" points="1823.26,-492.5 1823.26,-522.5 1962.26,-522.5 1962.26,-492.5 1823.26,-492.5"/>
<text text-anchor="start" x="1831.26" y="-510.5" font-family="FreeSans" font-size="10.00">DGtal/topology/Khalimsky</text>
<text text-anchor="middle" x="1892.76" y="-499.5" font-family="FreeSans" font-size="10.00">SpaceND.h</text>
</a>
</g>
</g>
<!-- Node68&#45;&gt;Node124 -->
<g id="edge103" class="edge"><title>Node68&#45;&gt;Node124</title>
<path fill="none" stroke="midnightblue" d="M2422.76,-631.203C2325.89,-625.011 2150.27,-611.253 2090.76,-590 2066.85,-581.459 2065.64,-570.026 2042.76,-559 2014.76,-545.507 1982.22,-534.078 1954.62,-525.525"/>
<polygon fill="midnightblue" stroke="midnightblue" points="1955.28,-522.066 1944.69,-522.505 1953.24,-528.763 1955.28,-522.066"/>
</g>
<!-- Node125 -->
<g id="node46" class="node"><title>Node125</title>
<g id="a_node46"><a xlink:href="KhalimskyPreSpaceND_8h_source.html" target="_top" xlink:title="DGtal/topology/Khalimsky\lPreSpaceND.h">
<polygon fill="white" stroke="red" points="1479.26,-425.5 1479.26,-455.5 1618.26,-455.5 1618.26,-425.5 1479.26,-425.5"/>
<text text-anchor="start" x="1487.26" y="-443.5" font-family="FreeSans" font-size="10.00">DGtal/topology/Khalimsky</text>
<text text-anchor="middle" x="1548.76" y="-432.5" font-family="FreeSans" font-size="10.00">PreSpaceND.h</text>
</a>
</g>
</g>
<!-- Node68&#45;&gt;Node125 -->
<g id="edge113" class="edge"><title>Node68&#45;&gt;Node125</title>
<path fill="none" stroke="midnightblue" d="M2422.46,-632.125C2334.86,-627.459 2176.05,-615.993 2042.76,-590 1938.68,-569.702 1915.33,-553.476 1813.76,-523 1740.85,-501.122 1656.88,-475.17 1603.35,-458.528"/>
<polygon fill="midnightblue" stroke="midnightblue" points="1604.31,-455.16 1593.72,-455.532 1602.23,-461.844 1604.31,-455.16"/>
</g>
<!-- Node128 -->
<g id="node47" class="node"><title>Node128</title>
<g id="a_node47"><a xlink:href="GridCurve_8h_source.html" target="_top" xlink:title="Header file for module GridCurve.cpp. ">
<polygon fill="white" stroke="red" points="2221.76,-559.5 2221.76,-589.5 2349.76,-589.5 2349.76,-559.5 2221.76,-559.5"/>
<text text-anchor="start" x="2229.76" y="-577.5" font-family="FreeSans" font-size="10.00">DGtal/geometry/curves</text>
<text text-anchor="middle" x="2285.76" y="-566.5" font-family="FreeSans" font-size="10.00">/GridCurve.h</text>
</a>
</g>
</g>
<!-- Node68&#45;&gt;Node128 -->
<g id="edge114" class="edge"><title>Node68&#45;&gt;Node128</title>
<path fill="none" stroke="midnightblue" d="M2459.68,-626.475C2429.49,-617.626 2381.46,-603.549 2343.52,-592.428"/>
<polygon fill="midnightblue" stroke="midnightblue" points="2344.19,-588.977 2333.6,-589.523 2342.22,-595.694 2344.19,-588.977"/>
</g>
<!-- Node156 -->
<g id="node48" class="node"><title>Node156</title>
<g id="a_node48"><a xlink:href="ExactPredicateLpSeparableMetric_8h_source.html" target="_top" xlink:title="DGtal/geometry/volumes\l/distance/ExactPredicateLpSeparable\lMetric.h">
<polygon fill="white" stroke="red" points="2578.76,-291.5 2578.76,-332.5 2772.76,-332.5 2772.76,-291.5 2578.76,-291.5"/>
<text text-anchor="start" x="2586.76" y="-320.5" font-family="FreeSans" font-size="10.00">DGtal/geometry/volumes</text>
<text text-anchor="start" x="2586.76" y="-309.5" font-family="FreeSans" font-size="10.00">/distance/ExactPredicateLpSeparable</text>
<text text-anchor="middle" x="2675.76" y="-298.5" font-family="FreeSans" font-size="10.00">Metric.h</text>
</a>
</g>
</g>
<!-- Node68&#45;&gt;Node156 -->
<g id="edge120" class="edge"><title>Node68&#45;&gt;Node156</title>
<path fill="none" stroke="midnightblue" d="M2505.44,-626.387C2536.87,-608.818 2601.76,-565.629 2601.76,-508.5 2601.76,-508.5 2601.76,-508.5 2601.76,-439.5 2601.76,-401.325 2627.18,-364.445 2648.22,-340.455"/>
<polygon fill="midnightblue" stroke="midnightblue" points="2651.02,-342.586 2655.15,-332.83 2645.83,-337.88 2651.02,-342.586"/>
</g>
<!-- Node161 -->
<g id="node49" class="node"><title>Node161</title>
<g id="a_node49"><a xlink:href="ExactPredicateLpPowerSeparableMetric_8h_source.html" target="_top" xlink:title="DGtal/geometry/volumes\l/distance/ExactPredicateLpPower\lSeparableMetric.h">
<polygon fill="white" stroke="red" points="2790.76,-291.5 2790.76,-332.5 2964.76,-332.5 2964.76,-291.5 2790.76,-291.5"/>
<text text-anchor="start" x="2798.76" y="-320.5" font-family="FreeSans" font-size="10.00">DGtal/geometry/volumes</text>
<text text-anchor="start" x="2798.76" y="-309.5" font-family="FreeSans" font-size="10.00">/distance/ExactPredicateLpPower</text>
<text text-anchor="middle" x="2877.76" y="-298.5" font-family="FreeSans" font-size="10.00">SeparableMetric.h</text>
</a>
</g>
</g>
<!-- Node68&#45;&gt;Node161 -->
<g id="edge124" class="edge"><title>Node68&#45;&gt;Node161</title>
<path fill="none" stroke="midnightblue" d="M2530.71,-626.499C2586.39,-612.485 2677.76,-578.781 2677.76,-508.5 2677.76,-508.5 2677.76,-508.5 2677.76,-439.5 2677.76,-385.738 2730.02,-353.886 2781.11,-335.592"/>
<polygon fill="midnightblue" stroke="midnightblue" points="2782.3,-338.884 2790.62,-332.331 2780.03,-332.262 2782.3,-338.884"/>
</g>
<!-- Node69&#45;&gt;Node1 -->
<g id="edge86" class="edge"><title>Node69&#45;&gt;Node1</title>
<path fill="none" stroke="midnightblue" d="M2523.14,-298.923C2649.16,-273.548 2932.01,-215.659 2973.76,-199 2985.34,-194.382 2997.76,-196.962 2997.76,-184.5 2997.76,-184.5 2997.76,-184.5 2997.76,-121 2997.76,-90.2048 2998.17,-74.7781 2973.76,-56 2939.57,-29.6951 2646.5,-16.4035 2538.51,-12.3644"/>
<polygon fill="midnightblue" stroke="midnightblue" points="2538.47,-8.86083 2528.35,-11.9915 2538.22,-15.8561 2538.47,-8.86083"/>
</g>
<!-- Node69&#45;&gt;Node2 -->
<g id="edge87" class="edge"><title>Node69&#45;&gt;Node2</title>
<path fill="none" stroke="midnightblue" d="M2402.42,-300.484C2332.46,-288.293 2217.91,-268.331 2148.6,-256.252"/>
<polygon fill="midnightblue" stroke="midnightblue" points="2149.16,-252.798 2138.71,-254.529 2147.96,-259.694 2149.16,-252.798"/>
</g>
<!-- Node92&#45;&gt;Node1 -->
<g id="edge89" class="edge"><title>Node92&#45;&gt;Node1</title>
<path fill="none" stroke="midnightblue" d="M3135.59,-296.967C3158.42,-288.197 3184.35,-274.734 3201.76,-255 3223.66,-230.179 3225.76,-217.599 3225.76,-184.5 3225.76,-184.5 3225.76,-184.5 3225.76,-121 3225.76,-90.2048 3226.45,-74.4033 3201.76,-56 3148.54,-16.3337 2680.03,-11.5818 2538.85,-11.0537"/>
<polygon fill="midnightblue" stroke="midnightblue" points="2538.51,-7.55264 2528.5,-11.0204 2538.48,-14.5526 2538.51,-7.55264"/>
</g>
<!-- Node92&#45;&gt;Node2 -->
<g id="edge90" class="edge"><title>Node92&#45;&gt;Node2</title>
<path fill="none" stroke="midnightblue" d="M3020.64,-297.877C3005.3,-295.229 2989,-292.73 2973.76,-291 2674.31,-257.011 2314.86,-248.689 2163.08,-246.656"/>
<polygon fill="midnightblue" stroke="midnightblue" points="2163,-243.154 2152.95,-246.525 2162.91,-250.154 2163,-243.154"/>
</g>
<!-- Node105&#45;&gt;Node1 -->
<g id="edge92" class="edge"><title>Node105&#45;&gt;Node1</title>
<path fill="none" stroke="midnightblue" d="M3294.68,-302.422C3296.78,-282.014 3301.76,-228.951 3301.76,-184.5 3301.76,-184.5 3301.76,-184.5 3301.76,-121 3301.76,-90.2048 3302.51,-74.3264 3277.76,-56 3218.09,-11.8135 2689.29,-10.3057 2538.65,-10.7838"/>
<polygon fill="midnightblue" stroke="midnightblue" points="2538.45,-7.28441 2528.47,-10.8211 2538.48,-14.2844 2538.45,-7.28441"/>
</g>
<!-- Node105&#45;&gt;Node2 -->
<g id="edge93" class="edge"><title>Node105&#45;&gt;Node2</title>
<path fill="none" stroke="midnightblue" d="M3245.95,-302.478C3220.95,-298.346 3189.79,-293.704 3161.76,-291 2787.5,-254.898 2336.96,-247.751 2163.12,-246.343"/>
<polygon fill="midnightblue" stroke="midnightblue" points="2163.09,-242.842 2153.06,-246.265 2163.03,-249.842 2163.09,-242.842"/>
</g>
<!-- Node112&#45;&gt;Node1 -->
<g id="edge95" class="edge"><title>Node112&#45;&gt;Node1</title>
<path fill="none" stroke="midnightblue" d="M2263.86,-430.674C2279.49,-404.495 2329.59,-326.88 2393.76,-291 2489.89,-237.249 2784.83,-253.11 2880.76,-199 2915.58,-179.361 2926.49,-169.337 2940.76,-132 2957.93,-87.0862 2908.49,-73.6447 2863.76,-56 2805.23,-32.9093 2620.44,-18.6987 2538.53,-13.3826"/>
<polygon fill="midnightblue" stroke="midnightblue" points="2538.57,-9.87831 2528.37,-12.7348 2538.12,-16.8641 2538.57,-9.87831"/>
</g>
<!-- Node112&#45;&gt;Node2 -->
<g id="edge96" class="edge"><title>Node112&#45;&gt;Node2</title>
<path fill="none" stroke="midnightblue" d="M2254.41,-430.971C2241.81,-406.862 2203.22,-336.982 2156.76,-291 2144.3,-278.667 2128.01,-267.64 2114.62,-259.588"/>
<polygon fill="midnightblue" stroke="midnightblue" points="2116.29,-256.513 2105.89,-254.51 2112.77,-262.564 2116.29,-256.513"/>
</g>
<!-- Node112&#45;&gt;Node64 -->
<g id="edge97" class="edge"><title>Node112&#45;&gt;Node64</title>
<path fill="none" stroke="midnightblue" d="M2170.75,-433.019C2011.52,-421.294 1678.17,-396.746 1527.55,-385.655"/>
<polygon fill="midnightblue" stroke="midnightblue" points="1527.69,-382.156 1517.46,-384.912 1527.18,-389.137 1527.69,-382.156"/>
</g>
<!-- Node115&#45;&gt;Node1 -->
<g id="edge99" class="edge"><title>Node115&#45;&gt;Node1</title>
<path fill="none" stroke="midnightblue" d="M2875.32,-375.473C2963.33,-371.096 3114.13,-359.843 3161.76,-333 3179.2,-323.173 3263.76,-204.517 3263.76,-184.5 3263.76,-184.5 3263.76,-184.5 3263.76,-121 3263.76,-87.5366 3254.26,-73.542 3225.76,-56 3167.13,-19.9049 2682.04,-12.6556 2538.58,-11.2958"/>
<polygon fill="midnightblue" stroke="midnightblue" points="2538.49,-7.79499 2528.46,-11.2044 2538.43,-14.7947 2538.49,-7.79499"/>
</g>
<!-- Node115&#45;&gt;Node2 -->
<g id="edge101" class="edge"><title>Node115&#45;&gt;Node2</title>
<path fill="none" stroke="midnightblue" d="M2744.04,-376.909C2693.51,-373.512 2623.49,-363.079 2569.76,-333 2547.8,-320.703 2554.22,-302.365 2531.76,-291 2469.09,-259.289 2271.88,-249.923 2163.28,-247.157"/>
<polygon fill="midnightblue" stroke="midnightblue" points="2163.14,-243.653 2153.06,-246.91 2162.97,-250.651 2163.14,-243.653"/>
</g>
<!-- Node115&#45;&gt;Node15 -->
<g id="edge100" class="edge"><title>Node115&#45;&gt;Node15</title>
<path fill="none" stroke="midnightblue" d="M2744.07,-371.481C2515.46,-349.02 1733.3,-274.092 1085.76,-235 1032.99,-231.814 180.24,-225.965 134.762,-199 98.1552,-177.295 74.2675,-149.298 94.7618,-112 121.796,-62.8008 184.066,-34.1694 222.163,-20.644"/>
<polygon fill="midnightblue" stroke="midnightblue" points="223.417,-23.9142 231.754,-17.376 221.16,-17.2882 223.417,-23.9142"/>
</g>
<!-- Node115&#45;&gt;Node92 -->
<g id="edge102" class="edge"><title>Node115&#45;&gt;Node92</title>
<path fill="none" stroke="midnightblue" d="M2848.32,-369.437C2888.07,-360.55 2951.83,-346.139 3006.76,-333 3011.47,-331.873 3016.34,-330.694 3021.23,-329.497"/>
<polygon fill="midnightblue" stroke="midnightblue" points="3022.41,-332.813 3031.28,-327.026 3020.73,-326.016 3022.41,-332.813"/>
</g>
<!-- Node124&#45;&gt;Node1 -->
<g id="edge104" class="edge"><title>Node124&#45;&gt;Node1</title>
<path fill="none" stroke="midnightblue" d="M1861.67,-492.456C1745.27,-439.58 1340.24,-252.77 1307.76,-199 1286.61,-163.991 1307.8,-139.838 1337.76,-112 1382.66,-70.2905 1404.11,-70.0208 1463.76,-56 1658,-10.3484 2293.02,-10.0269 2458.85,-10.7522"/>
<polygon fill="midnightblue" stroke="midnightblue" points="2459.07,-14.2531 2469.09,-10.801 2459.11,-7.25322 2459.07,-14.2531"/>
</g>
<!-- Node124&#45;&gt;Node2 -->
<g id="edge105" class="edge"><title>Node124&#45;&gt;Node2</title>
<path fill="none" stroke="midnightblue" d="M1894.38,-492.32C1899.42,-454.481 1918.2,-349.99 1976.76,-291 1992.82,-274.829 2015.41,-264.295 2036.19,-257.519"/>
<polygon fill="midnightblue" stroke="midnightblue" points="2037.33,-260.829 2045.88,-254.575 2035.3,-254.131 2037.33,-260.829"/>
</g>
<!-- Node124&#45;&gt;Node44 -->
<g id="edge106" class="edge"><title>Node124&#45;&gt;Node44</title>
<path fill="none" stroke="midnightblue" d="M1823.07,-506.939C1734.28,-505.62 1577.06,-496.935 1449.76,-456 1374.19,-431.698 1365.78,-402.391 1293.76,-369 1256.14,-351.56 1211.44,-335.327 1180.88,-324.877"/>
<polygon fill="midnightblue" stroke="midnightblue" points="1181.68,-321.453 1171.09,-321.561 1179.43,-328.083 1181.68,-321.453"/>
</g>
<!-- Node124&#45;&gt;Node64 -->
<g id="edge107" class="edge"><title>Node124&#45;&gt;Node64</title>
<path fill="none" stroke="midnightblue" d="M1822.88,-507.438C1716.47,-507.375 1520.74,-500.923 1469.76,-456 1453.69,-441.838 1450.2,-416.335 1449.9,-398.806"/>
<polygon fill="midnightblue" stroke="midnightblue" points="1453.4,-398.692 1450.06,-388.638 1446.4,-398.582 1453.4,-398.692"/>
</g>
<!-- Node124&#45;&gt;Node125 -->
<g id="edge108" class="edge"><title>Node124&#45;&gt;Node125</title>
<path fill="none" stroke="midnightblue" d="M1823.15,-493.346C1766.73,-482.686 1687.2,-467.659 1628.28,-456.526"/>
<polygon fill="midnightblue" stroke="midnightblue" points="1628.75,-453.052 1618.27,-454.634 1627.45,-459.93 1628.75,-453.052"/>
</g>
<!-- Node125&#45;&gt;Node1 -->
<g id="edge109" class="edge"><title>Node125&#45;&gt;Node1</title>
<path fill="none" stroke="midnightblue" d="M1547.4,-425.495C1545.23,-410.038 1539.69,-385.206 1525.76,-369 1416.15,-241.487 1276,-342.144 1187.76,-199 1154.41,-144.897 1143.6,-101.705 1187.76,-56 1233.01,-9.16818 2244.27,-10.1008 2458.94,-10.8294"/>
<polygon fill="midnightblue" stroke="midnightblue" points="2459.11,-14.3299 2469.12,-10.8659 2459.13,-7.32998 2459.11,-14.3299"/>
</g>
<!-- Node125&#45;&gt;Node2 -->
<g id="edge110" class="edge"><title>Node125&#45;&gt;Node2</title>
<path fill="none" stroke="midnightblue" d="M1578.54,-425.452C1639.46,-397.106 1783.19,-332.259 1908.76,-291 1951.64,-276.911 2001.49,-264.823 2038,-256.734"/>
<polygon fill="midnightblue" stroke="midnightblue" points="2038.91,-260.118 2047.93,-254.56 2037.42,-253.28 2038.91,-260.118"/>
</g>
<!-- Node125&#45;&gt;Node44 -->
<g id="edge111" class="edge"><title>Node125&#45;&gt;Node44</title>
<path fill="none" stroke="midnightblue" d="M1492.41,-425.49C1458,-416.358 1413.34,-403.474 1374.76,-389 1355.03,-381.597 1351.46,-376.487 1331.76,-369 1283.63,-350.71 1226.77,-334.406 1188.49,-324.173"/>
<polygon fill="midnightblue" stroke="midnightblue" points="1189.25,-320.755 1178.69,-321.577 1187.46,-327.521 1189.25,-320.755"/>
</g>
<!-- Node125&#45;&gt;Node64 -->
<g id="edge112" class="edge"><title>Node125&#45;&gt;Node64</title>
<path fill="none" stroke="midnightblue" d="M1525.54,-425.399C1509.98,-415.951 1489.56,-403.559 1474,-394.109"/>
<polygon fill="midnightblue" stroke="midnightblue" points="1475.39,-390.856 1465.02,-388.658 1471.75,-396.839 1475.39,-390.856"/>
</g>
<!-- Node128&#45;&gt;Node1 -->
<g id="edge115" class="edge"><title>Node128&#45;&gt;Node1</title>
<path fill="none" stroke="midnightblue" d="M2310.13,-559.435C2376.12,-522.015 2564.78,-419.437 2734.76,-369 2837.74,-338.443 2879.1,-383.785 2973.76,-333 2995.94,-321.099 2990.99,-305.225 3011.76,-291 3087.19,-239.334 3187.76,-275.928 3187.76,-184.5 3187.76,-184.5 3187.76,-184.5 3187.76,-121 3187.76,-69.8406 3141.03,-72.9564 3092.76,-56 2990.1,-19.9344 2654.86,-12.7549 2538.77,-11.3417"/>
<polygon fill="midnightblue" stroke="midnightblue" points="2538.59,-7.83949 2528.55,-11.2255 2538.51,-14.839 2538.59,-7.83949"/>
</g>
<!-- Node128&#45;&gt;Node2 -->
<g id="edge117" class="edge"><title>Node128&#45;&gt;Node2</title>
<path fill="none" stroke="midnightblue" d="M2250.78,-559.473C2208.45,-539.913 2142.76,-500.119 2142.76,-441.5 2142.76,-441.5 2142.76,-441.5 2142.76,-378 2142.76,-337.889 2135.15,-327.612 2118.76,-291 2114.35,-281.138 2107.96,-270.953 2102.31,-262.773"/>
<polygon fill="midnightblue" stroke="midnightblue" points="2105.05,-260.593 2096.37,-254.512 2099.36,-264.676 2105.05,-260.593"/>
</g>
<!-- Node128&#45;&gt;Node32 -->
<g id="edge118" class="edge"><title>Node128&#45;&gt;Node32</title>
<path fill="none" stroke="midnightblue" d="M2303.77,-559.397C2329.78,-537.299 2374.76,-491.803 2374.76,-441.5 2374.76,-441.5 2374.76,-441.5 2374.76,-311 2374.76,-249.33 2561.52,-211.382 2669.31,-194.616"/>
<polygon fill="midnightblue" stroke="midnightblue" points="2670.13,-198.032 2679.49,-193.06 2669.07,-191.112 2670.13,-198.032"/>
</g>
<!-- Node128&#45;&gt;Node43 -->
<g id="edge116" class="edge"><title>Node128&#45;&gt;Node43</title>
<path fill="none" stroke="midnightblue" d="M2221.63,-573.732C2070.88,-572.462 1683.93,-558.577 1381.76,-456 1305.48,-430.106 1298.08,-397.554 1222.76,-369 1155.42,-343.47 1121.31,-377.605 1064.76,-333 1042.89,-315.744 1031.33,-284.476 1025.89,-264.501"/>
<polygon fill="midnightblue" stroke="midnightblue" points="1029.27,-263.592 1023.47,-254.727 1022.47,-265.275 1029.27,-263.592"/>
</g>
<!-- Node128&#45;&gt;Node124 -->
<g id="edge119" class="edge"><title>Node128&#45;&gt;Node124</title>
<path fill="none" stroke="midnightblue" d="M2221.74,-562.912C2153.71,-551.66 2046.02,-533.848 1972.52,-521.692"/>
<polygon fill="midnightblue" stroke="midnightblue" points="1972.82,-518.194 1962.38,-520.015 1971.68,-525.1 1972.82,-518.194"/>
</g>
<!-- Node156&#45;&gt;Node1 -->
<g id="edge121" class="edge"><title>Node156&#45;&gt;Node1</title>
<path fill="none" stroke="midnightblue" d="M2772.78,-292.516C2775.81,-291.996 2778.81,-291.49 2781.76,-291 2837.57,-281.754 2988.36,-288.738 3033.76,-255 3087.57,-215.017 3113.56,-171.021 3081.76,-112 3060.31,-72.1717 3039.47,-70.9304 2996.76,-56 2912.37,-26.496 2641.43,-15.3385 2538.73,-12.104"/>
<polygon fill="midnightblue" stroke="midnightblue" points="2538.58,-8.59779 2528.48,-11.7899 2538.36,-15.5945 2538.58,-8.59779"/>
</g>
<!-- Node156&#45;&gt;Node2 -->
<g id="edge123" class="edge"><title>Node156&#45;&gt;Node2</title>
<path fill="none" stroke="midnightblue" d="M2578.68,-293.023C2573.98,-292.305 2569.32,-291.626 2564.76,-291 2423.17,-271.572 2256.68,-257.892 2163.16,-251.036"/>
<polygon fill="midnightblue" stroke="midnightblue" points="2163.19,-247.528 2152.96,-250.294 2162.68,-254.51 2163.19,-247.528"/>
</g>
<!-- Node156&#45;&gt;Node12 -->
<g id="edge122" class="edge"><title>Node156&#45;&gt;Node12</title>
<path fill="none" stroke="midnightblue" d="M2772.79,-292.568C2775.81,-292.033 2778.81,-291.51 2781.76,-291 2832.74,-282.203 2972.97,-289.224 3011.76,-255 3044.6,-226.031 3049.88,-170.706 3050.24,-141.74"/>
<polygon fill="midnightblue" stroke="midnightblue" points="3053.74,-141.698 3050.18,-131.721 3046.74,-141.743 3053.74,-141.698"/>
</g>
<!-- Node161&#45;&gt;Node1 -->
<g id="edge125" class="edge"><title>Node161&#45;&gt;Node1</title>
<path fill="none" stroke="midnightblue" d="M2965.06,-294.129C2999.06,-285.396 3037.52,-272.745 3069.76,-255 3111.28,-232.151 3149.76,-231.892 3149.76,-184.5 3149.76,-184.5 3149.76,-184.5 3149.76,-121 3149.76,-63.4466 3092.67,-73.2594 3037.76,-56 2944.57,-26.7037 2646.8,-15.3028 2538.57,-12.0607"/>
<polygon fill="midnightblue" stroke="midnightblue" points="2538.5,-8.55729 2528.4,-11.7636 2538.29,-15.5543 2538.5,-8.55729"/>
</g>
<!-- Node161&#45;&gt;Node2 -->
<g id="edge127" class="edge"><title>Node161&#45;&gt;Node2</title>
<path fill="none" stroke="midnightblue" d="M2790.73,-292.313C2787.71,-291.842 2784.71,-291.401 2781.76,-291 2557.82,-260.545 2290.21,-250.557 2163.39,-247.396"/>
<polygon fill="midnightblue" stroke="midnightblue" points="2163.11,-243.889 2153.03,-247.146 2162.94,-250.887 2163.11,-243.889"/>
</g>
<!-- Node161&#45;&gt;Node12 -->
<g id="edge126" class="edge"><title>Node161&#45;&gt;Node12</title>
<path fill="none" stroke="midnightblue" d="M2964.8,-292.672C3001.8,-282.951 3038.92,-269.929 3049.76,-255 3074.25,-221.276 3063.94,-168.852 3055.92,-141.316"/>
<polygon fill="midnightblue" stroke="midnightblue" points="3059.26,-140.266 3052.94,-131.768 3052.58,-142.356 3059.26,-140.266"/>
</g>
</g>
</svg>
