<?xml version="1.0" encoding="UTF-8" standalone="no"?>
<!DOCTYPE svg PUBLIC "-//W3C//DTD SVG 1.1//EN"
 "http://www.w3.org/Graphics/SVG/1.1/DTD/svg11.dtd">
<!-- Generated by graphviz version 2.38.0 (20140413.2041)
 -->
<!-- Title: testBenchmark.cpp Pages: 1 -->
<svg width="359pt" height="84pt"
 viewBox="0.00 0.00 359.00 84.00" xmlns="http://www.w3.org/2000/svg" xmlns:xlink="http://www.w3.org/1999/xlink">
<g id="graph0" class="graph" transform="scale(1 1) rotate(0) translate(4 80)">
<title>testBenchmark.cpp</title>
<polygon fill="white" stroke="none" points="-4,4 -4,-80 355,-80 355,4 -4,4"/>
<!-- Node0 -->
<g id="node1" class="node"><title>Node0</title>
<polygon fill="#bfbfbf" stroke="black" points="78.5,-56.5 78.5,-75.5 188.5,-75.5 188.5,-56.5 78.5,-56.5"/>
<text text-anchor="middle" x="133.5" y="-63.5" font-family="FreeSans" font-size="10.00">testBenchmark.cpp</text>
</g>
<!-- Node1 -->
<g id="node2" class="node"><title>Node1</title>
<polygon fill="white" stroke="#bfbfbf" points="0,-0.5 0,-19.5 59,-19.5 59,-0.5 0,-0.5"/>
<text text-anchor="middle" x="29.5" y="-7.5" font-family="FreeSans" font-size="10.00">iostream</text>
</g>
<!-- Node0&#45;&gt;Node1 -->
<g id="edge1" class="edge"><title>Node0&#45;&gt;Node1</title>
<path fill="none" stroke="midnightblue" d="M116.791,-56.324C100.188,-47.7034 74.4979,-34.3643 55.2795,-24.3855"/>
<polygon fill="midnightblue" stroke="midnightblue" points="56.6558,-21.1565 46.1679,-19.6545 53.43,-27.3689 56.6558,-21.1565"/>
</g>
<!-- Node2 -->
<g id="node3" class="node"><title>Node2</title>
<polygon fill="white" stroke="#bfbfbf" points="77.5,-0.5 77.5,-19.5 121.5,-19.5 121.5,-0.5 77.5,-0.5"/>
<text text-anchor="middle" x="99.5" y="-7.5" font-family="FreeSans" font-size="10.00">string</text>
</g>
<!-- Node0&#45;&gt;Node2 -->
<g id="edge2" class="edge"><title>Node0&#45;&gt;Node2</title>
<path fill="none" stroke="midnightblue" d="M127.886,-56.083C123.133,-48.5341 116.182,-37.4948 110.348,-28.2298"/>
<polygon fill="midnightblue" stroke="midnightblue" points="113.3,-26.3486 105.01,-19.7511 107.376,-30.0783 113.3,-26.3486"/>
</g>
<!-- Node3 -->
<g id="node4" class="node"><title>Node3</title>
<polygon fill="white" stroke="#bfbfbf" points="139.5,-0.5 139.5,-19.5 195.5,-19.5 195.5,-0.5 139.5,-0.5"/>
<text text-anchor="middle" x="167.5" y="-7.5" font-family="FreeSans" font-size="10.00">sstream</text>
</g>
<!-- Node0&#45;&gt;Node3 -->
<g id="edge3" class="edge"><title>Node0&#45;&gt;Node3</title>
<path fill="none" stroke="midnightblue" d="M139.114,-56.083C143.867,-48.5341 150.818,-37.4948 156.652,-28.2298"/>
<polygon fill="midnightblue" stroke="midnightblue" points="159.624,-30.0783 161.99,-19.7511 153.7,-26.3486 159.624,-30.0783"/>
</g>
<!-- Node4 -->
<g id="node5" class="node"><title>Node4</title>
<polygon fill="white" stroke="#bfbfbf" points="214,-0.5 214,-19.5 351,-19.5 351,-0.5 214,-0.5"/>
<text text-anchor="middle" x="282.5" y="-7.5" font-family="FreeSans" font-size="10.00">benchmark/benchmark.h</text>
</g>
<!-- Node0&#45;&gt;Node4 -->
<g id="edge4" class="edge"><title>Node0&#45;&gt;Node4</title>
<path fill="none" stroke="midnightblue" d="M157.109,-56.4435C181.958,-47.4381 221.274,-33.1891 249.254,-23.049"/>
<polygon fill="midnightblue" stroke="midnightblue" points="250.792,-26.2144 259.001,-19.5164 248.407,-19.6332 250.792,-26.2144"/>
</g>
</g>
</svg>
