<?xml version="1.0" encoding="UTF-8" standalone="no"?>
<!DOCTYPE svg PUBLIC "-//W3C//DTD SVG 1.1//EN"
 "http://www.w3.org/Graphics/SVG/1.1/DTD/svg11.dtd">
<!-- Generated by graphviz version 2.38.0 (20140413.2041)
 -->
<!-- Title: testIntegralInvariantShortcuts.cpp Pages: 1 -->
<svg width="3348pt" height="654pt"
 viewBox="0.00 0.00 3348.14 654.00" xmlns="http://www.w3.org/2000/svg" xmlns:xlink="http://www.w3.org/1999/xlink">
<g id="graph0" class="graph" transform="scale(1 1) rotate(0) translate(4 650)">
<title>testIntegralInvariantShortcuts.cpp</title>
<polygon fill="white" stroke="none" points="-4,4 -4,-650 3344.14,-650 3344.14,4 -4,4"/>
<!-- Node0 -->
<g id="node1" class="node"><title>Node0</title>
<polygon fill="#bfbfbf" stroke="black" points="2631.64,-626.5 2631.64,-645.5 2810.64,-645.5 2810.64,-626.5 2631.64,-626.5"/>
<text text-anchor="middle" x="2721.14" y="-633.5" font-family="FreeSans" font-size="10.00">testIntegralInvariantShortcuts.cpp</text>
</g>
<!-- Node1 -->
<g id="node2" class="node"><title>Node1</title>
<polygon fill="white" stroke="#bfbfbf" points="1157.64,-0.5 1157.64,-19.5 1216.64,-19.5 1216.64,-0.5 1157.64,-0.5"/>
<text text-anchor="middle" x="1187.14" y="-7.5" font-family="FreeSans" font-size="10.00">iostream</text>
</g>
<!-- Node0&#45;&gt;Node1 -->
<g id="edge1" class="edge"><title>Node0&#45;&gt;Node1</title>
<path fill="none" stroke="midnightblue" d="M2810.77,-628.389C2933.86,-616.8 3140.14,-587.269 3140.14,-519.5 3140.14,-519.5 3140.14,-519.5 3140.14,-121 3140.14,-70.9354 3095.67,-71.7312 3048.14,-56 2958.73,-26.4052 1488.66,-13.3922 1226.86,-11.3044"/>
<polygon fill="midnightblue" stroke="midnightblue" points="1226.71,-7.80311 1216.68,-11.2238 1226.65,-14.8029 1226.71,-7.80311"/>
</g>
<!-- Node2 -->
<g id="node3" class="node"><title>Node2</title>
<polygon fill="white" stroke="#bfbfbf" points="2978.64,-235.5 2978.64,-254.5 3025.64,-254.5 3025.64,-235.5 2978.64,-235.5"/>
<text text-anchor="middle" x="3002.14" y="-242.5" font-family="FreeSans" font-size="10.00">vector</text>
</g>
<!-- Node0&#45;&gt;Node2 -->
<g id="edge2" class="edge"><title>Node0&#45;&gt;Node2</title>
<path fill="none" stroke="midnightblue" d="M2805.7,-626.499C2917.95,-612.826 3102.14,-581.015 3102.14,-519.5 3102.14,-519.5 3102.14,-519.5 3102.14,-450.5 3102.14,-373.589 3044.36,-295.433 3016.64,-262.371"/>
<polygon fill="midnightblue" stroke="midnightblue" points="3019.16,-259.933 3009.99,-254.622 3013.85,-264.491 3019.16,-259.933"/>
</g>
<!-- Node3 -->
<g id="node4" class="node"><title>Node3</title>
<g id="a_node4"><a xlink:href="Common_8h_source.html" target="_top" xlink:title="DGtal/base/Common.h">
<polygon fill="white" stroke="black" points="1668.14,-235.5 1668.14,-254.5 1794.14,-254.5 1794.14,-235.5 1668.14,-235.5"/>
<text text-anchor="middle" x="1731.14" y="-242.5" font-family="FreeSans" font-size="10.00">DGtal/base/Common.h</text>
</a>
</g>
</g>
<!-- Node0&#45;&gt;Node3 -->
<g id="edge3" class="edge"><title>Node0&#45;&gt;Node3</title>
<path fill="none" stroke="midnightblue" d="M2631.43,-634.188C2382.29,-630.751 1700.14,-612.819 1700.14,-519.5 1700.14,-519.5 1700.14,-519.5 1700.14,-383.5 1700.14,-339.82 1715.22,-290.203 1724.34,-264.165"/>
<polygon fill="midnightblue" stroke="midnightblue" points="1727.71,-265.13 1727.83,-254.536 1721.13,-262.748 1727.71,-265.13"/>
</g>
<!-- Node43 -->
<g id="node28" class="node"><title>Node43</title>
<polygon fill="white" stroke="#bfbfbf" points="3168.14,-570.5 3168.14,-589.5 3242.14,-589.5 3242.14,-570.5 3168.14,-570.5"/>
<text text-anchor="middle" x="3205.14" y="-577.5" font-family="FreeSans" font-size="10.00">ConfigTest.h</text>
</g>
<!-- Node0&#45;&gt;Node43 -->
<g id="edge48" class="edge"><title>Node0&#45;&gt;Node43</title>
<path fill="none" stroke="midnightblue" d="M2810.93,-627.545C2898.66,-619.819 3035.88,-606.559 3154.14,-590 3155.4,-589.825 3156.67,-589.641 3157.94,-589.452"/>
<polygon fill="midnightblue" stroke="midnightblue" points="3158.53,-592.902 3167.87,-587.893 3157.45,-585.987 3158.53,-592.902"/>
</g>
<!-- Node44 -->
<g id="node29" class="node"><title>Node44</title>
<polygon fill="white" stroke="#bfbfbf" points="3260.14,-570.5 3260.14,-589.5 3340.14,-589.5 3340.14,-570.5 3260.14,-570.5"/>
<text text-anchor="middle" x="3300.14" y="-577.5" font-family="FreeSans" font-size="10.00">DGtalCatch.h</text>
</g>
<!-- Node0&#45;&gt;Node44 -->
<g id="edge49" class="edge"><title>Node0&#45;&gt;Node44</title>
<path fill="none" stroke="midnightblue" d="M2810.99,-630.035C2914.48,-623.713 3089.78,-611.159 3250.04,-590.024"/>
<polygon fill="midnightblue" stroke="midnightblue" points="3250.63,-593.475 3260.08,-588.685 3249.71,-586.537 3250.63,-593.475"/>
</g>
<!-- Node45 -->
<g id="node30" class="node"><title>Node45</title>
<g id="a_node30"><a xlink:href="StdDefs_8h_source.html" target="_top" xlink:title="DGtal/helpers/StdDefs.h">
<polygon fill="white" stroke="black" points="2275.14,-570.5 2275.14,-589.5 2407.14,-589.5 2407.14,-570.5 2275.14,-570.5"/>
<text text-anchor="middle" x="2341.14" y="-577.5" font-family="FreeSans" font-size="10.00">DGtal/helpers/StdDefs.h</text>
</a>
</g>
</g>
<!-- Node0&#45;&gt;Node45 -->
<g id="edge50" class="edge"><title>Node0&#45;&gt;Node45</title>
<path fill="none" stroke="midnightblue" d="M2660.93,-626.444C2593.11,-616.806 2483.04,-601.163 2411.36,-590.978"/>
<polygon fill="midnightblue" stroke="midnightblue" points="2411.47,-587.458 2401.08,-589.516 2410.48,-594.389 2411.47,-587.458"/>
</g>
<!-- Node161 -->
<g id="node45" class="node"><title>Node161</title>
<g id="a_node45"><a xlink:href="Shortcuts_8h_source.html" target="_top" xlink:title="DGtal/helpers/Shortcuts.h">
<polygon fill="white" stroke="red" points="783.145,-375 783.145,-394 923.145,-394 923.145,-375 783.145,-375"/>
<text text-anchor="middle" x="853.145" y="-382" font-family="FreeSans" font-size="10.00">DGtal/helpers/Shortcuts.h</text>
</a>
</g>
</g>
<!-- Node0&#45;&gt;Node161 -->
<g id="edge103" class="edge"><title>Node0&#45;&gt;Node161</title>
<path fill="none" stroke="midnightblue" d="M2631.55,-633.707C2408.38,-630.092 1832,-618.236 1642.14,-590 1344.56,-545.741 997.053,-433.942 887.809,-397.317"/>
<polygon fill="midnightblue" stroke="midnightblue" points="888.877,-393.984 878.283,-394.111 886.644,-400.618 888.877,-393.984"/>
</g>
<!-- Node336 -->
<g id="node50" class="node"><title>Node336</title>
<g id="a_node50"><a xlink:href="ShortcutsGeometry_8h_source.html" target="_top" xlink:title="DGtal/helpers/ShortcutsGeometry.h">
<polygon fill="white" stroke="red" points="1407.64,-442 1407.64,-461 1594.64,-461 1594.64,-442 1407.64,-442"/>
<text text-anchor="middle" x="1501.14" y="-449" font-family="FreeSans" font-size="10.00">DGtal/helpers/ShortcutsGeometry.h</text>
</a>
</g>
</g>
<!-- Node0&#45;&gt;Node336 -->
<g id="edge121" class="edge"><title>Node0&#45;&gt;Node336</title>
<path fill="none" stroke="midnightblue" d="M2631.54,-634.109C2396.43,-631.348 1773.85,-621.154 1686.14,-590 1613.42,-564.166 1545.27,-499.214 1516.08,-468.749"/>
<polygon fill="midnightblue" stroke="midnightblue" points="1518.31,-466.014 1508.91,-461.132 1513.21,-470.812 1518.31,-466.014"/>
</g>
<!-- Node3&#45;&gt;Node1 -->
<g id="edge4" class="edge"><title>Node3&#45;&gt;Node1</title>
<path fill="none" stroke="midnightblue" d="M1668.02,-243.618C1511.09,-242.128 1112.52,-234.819 1065.14,-199 1012.1,-158.897 980.742,-108.814 1021.14,-56 1036.39,-36.0753 1103.14,-22.9197 1147.21,-16.231"/>
<polygon fill="midnightblue" stroke="midnightblue" points="1147.95,-19.6603 1157.33,-14.7469 1146.93,-12.7343 1147.95,-19.6603"/>
</g>
<!-- Node4 -->
<g id="node5" class="node"><title>Node4</title>
<polygon fill="white" stroke="#bfbfbf" points="2312.64,-174 2312.64,-193 2375.64,-193 2375.64,-174 2312.64,-174"/>
<text text-anchor="middle" x="2344.14" y="-181" font-family="FreeSans" font-size="10.00">exception</text>
</g>
<!-- Node3&#45;&gt;Node4 -->
<g id="edge5" class="edge"><title>Node3&#45;&gt;Node4</title>
<path fill="none" stroke="midnightblue" d="M1794.33,-240.79C1921.25,-234.047 2203.16,-217.493 2298.14,-199 2302.31,-198.19 2306.62,-197.133 2310.86,-195.959"/>
<polygon fill="midnightblue" stroke="midnightblue" points="2311.96,-199.286 2320.53,-193.067 2309.95,-192.579 2311.96,-199.286"/>
</g>
<!-- Node5 -->
<g id="node6" class="node"><title>Node5</title>
<polygon fill="white" stroke="#bfbfbf" points="2382.14,-112.5 2382.14,-131.5 2444.14,-131.5 2444.14,-112.5 2382.14,-112.5"/>
<text text-anchor="middle" x="2413.14" y="-119.5" font-family="FreeSans" font-size="10.00">algorithm</text>
</g>
<!-- Node3&#45;&gt;Node5 -->
<g id="edge6" class="edge"><title>Node3&#45;&gt;Node5</title>
<path fill="none" stroke="midnightblue" d="M1794.45,-242.825C1915.74,-239.885 2176.3,-230.056 2260.14,-199 2282.24,-190.816 2282.54,-179.429 2303.14,-168 2327.08,-154.72 2355.76,-143.118 2377.83,-135.021"/>
<polygon fill="midnightblue" stroke="midnightblue" points="2379.24,-138.234 2387.46,-131.555 2376.87,-131.647 2379.24,-138.234"/>
</g>
<!-- Node6 -->
<g id="node7" class="node"><title>Node6</title>
<polygon fill="white" stroke="#bfbfbf" points="1106.14,-174 1106.14,-193 1208.14,-193 1208.14,-174 1106.14,-174"/>
<text text-anchor="middle" x="1157.14" y="-181" font-family="FreeSans" font-size="10.00">boost/version.hpp</text>
</g>
<!-- Node3&#45;&gt;Node6 -->
<g id="edge7" class="edge"><title>Node3&#45;&gt;Node6</title>
<path fill="none" stroke="midnightblue" d="M1667.86,-241.513C1570.48,-236.999 1378.26,-225.368 1217.14,-199 1211.18,-198.024 1204.94,-196.775 1198.82,-195.42"/>
<polygon fill="midnightblue" stroke="midnightblue" points="1199.26,-191.928 1188.73,-193.07 1197.67,-198.746 1199.26,-191.928"/>
</g>
<!-- Node7 -->
<g id="node8" class="node"><title>Node7</title>
<polygon fill="white" stroke="#bfbfbf" points="1226.64,-174 1226.64,-193 1365.64,-193 1365.64,-174 1226.64,-174"/>
<text text-anchor="middle" x="1296.14" y="-181" font-family="FreeSans" font-size="10.00">boost/concept_check.hpp</text>
</g>
<!-- Node3&#45;&gt;Node7 -->
<g id="edge8" class="edge"><title>Node3&#45;&gt;Node7</title>
<path fill="none" stroke="midnightblue" d="M1668.11,-237.182C1596.66,-229.191 1476.76,-214.992 1374.14,-199 1366.11,-197.749 1357.64,-196.304 1349.36,-194.821"/>
<polygon fill="midnightblue" stroke="midnightblue" points="1349.85,-191.354 1339.39,-193.004 1348.6,-198.24 1349.85,-191.354"/>
</g>
<!-- Node8 -->
<g id="node9" class="node"><title>Node8</title>
<polygon fill="white" stroke="#bfbfbf" points="1383.64,-174 1383.64,-193 1512.64,-193 1512.64,-174 1383.64,-174"/>
<text text-anchor="middle" x="1448.14" y="-181" font-family="FreeSans" font-size="10.00">boost/static_assert.hpp</text>
</g>
<!-- Node3&#45;&gt;Node8 -->
<g id="edge9" class="edge"><title>Node3&#45;&gt;Node8</title>
<path fill="none" stroke="midnightblue" d="M1690.6,-235.475C1639.95,-224.827 1553.3,-206.609 1498.47,-195.081"/>
<polygon fill="midnightblue" stroke="midnightblue" points="1499.12,-191.642 1488.62,-193.009 1497.68,-198.492 1499.12,-191.642"/>
</g>
<!-- Node9 -->
<g id="node10" class="node"><title>Node9</title>
<polygon fill="white" stroke="#bfbfbf" points="1530.64,-174 1530.64,-193 1669.64,-193 1669.64,-174 1530.64,-174"/>
<text text-anchor="middle" x="1600.14" y="-181" font-family="FreeSans" font-size="10.00">boost/concept/assert.hpp</text>
</g>
<!-- Node3&#45;&gt;Node9 -->
<g id="edge10" class="edge"><title>Node3&#45;&gt;Node9</title>
<path fill="none" stroke="midnightblue" d="M1712.38,-235.475C1690.29,-225.445 1653.43,-208.7 1628.01,-197.155"/>
<polygon fill="midnightblue" stroke="midnightblue" points="1629.43,-193.958 1618.88,-193.009 1626.54,-200.331 1629.43,-193.958"/>
</g>
<!-- Node10 -->
<g id="node11" class="node"><title>Node10</title>
<polygon fill="white" stroke="#bfbfbf" points="1688.14,-174 1688.14,-193 1836.14,-193 1836.14,-174 1688.14,-174"/>
<text text-anchor="middle" x="1762.14" y="-181" font-family="FreeSans" font-size="10.00">boost/concept/requires.hpp</text>
</g>
<!-- Node3&#45;&gt;Node10 -->
<g id="edge11" class="edge"><title>Node3&#45;&gt;Node10</title>
<path fill="none" stroke="midnightblue" d="M1735.59,-235.475C1740.1,-226.815 1747.22,-213.149 1752.95,-202.145"/>
<polygon fill="midnightblue" stroke="midnightblue" points="1756.19,-203.495 1757.71,-193.009 1749.99,-200.26 1756.19,-203.495"/>
</g>
<!-- Node11 -->
<g id="node12" class="node"><title>Node11</title>
<polygon fill="white" stroke="#bfbfbf" points="1854.14,-168.5 1854.14,-198.5 1974.14,-198.5 1974.14,-168.5 1854.14,-168.5"/>
<text text-anchor="start" x="1862.14" y="-186.5" font-family="FreeSans" font-size="10.00">boost/iterator/iterator</text>
<text text-anchor="middle" x="1914.14" y="-175.5" font-family="FreeSans" font-size="10.00">_concepts.hpp</text>
</g>
<!-- Node3&#45;&gt;Node11 -->
<g id="edge12" class="edge"><title>Node3&#45;&gt;Node11</title>
<path fill="none" stroke="midnightblue" d="M1757.36,-235.475C1784.35,-226.701 1827.14,-212.788 1861.21,-201.712"/>
<polygon fill="midnightblue" stroke="midnightblue" points="1862.59,-204.944 1871.02,-198.523 1860.42,-198.287 1862.59,-204.944"/>
</g>
<!-- Node12 -->
<g id="node13" class="node"><title>Node12</title>
<polygon fill="white" stroke="#bfbfbf" points="1991.64,-174 1991.64,-193 2150.64,-193 2150.64,-174 1991.64,-174"/>
<text text-anchor="middle" x="2071.14" y="-181" font-family="FreeSans" font-size="10.00">boost/concept_archetype.hpp</text>
</g>
<!-- Node3&#45;&gt;Node12 -->
<g id="edge13" class="edge"><title>Node3&#45;&gt;Node12</title>
<path fill="none" stroke="midnightblue" d="M1779.86,-235.475C1841.21,-224.739 1946.54,-206.306 2012.32,-194.795"/>
<polygon fill="midnightblue" stroke="midnightblue" points="2013.27,-198.181 2022.52,-193.009 2012.07,-191.285 2013.27,-198.181"/>
</g>
<!-- Node13 -->
<g id="node14" class="node"><title>Node13</title>
<polygon fill="white" stroke="#bfbfbf" points="2526.64,-112.5 2526.64,-131.5 2573.64,-131.5 2573.64,-112.5 2526.64,-112.5"/>
<text text-anchor="middle" x="2550.14" y="-119.5" font-family="FreeSans" font-size="10.00">cmath</text>
</g>
<!-- Node3&#45;&gt;Node13 -->
<g id="edge14" class="edge"><title>Node3&#45;&gt;Node13</title>
<path fill="none" stroke="midnightblue" d="M1794.34,-241.78C1947.53,-236.094 2330.12,-219.968 2384.14,-199 2404.79,-190.989 2403.78,-178.733 2423.14,-168 2452.95,-151.483 2489.95,-139.193 2516.31,-131.668"/>
<polygon fill="midnightblue" stroke="midnightblue" points="2517.51,-134.969 2526.21,-128.924 2515.64,-128.223 2517.51,-134.969"/>
</g>
<!-- Node14 -->
<g id="node15" class="node"><title>Node14</title>
<polygon fill="white" stroke="#bfbfbf" points="2168.64,-174 2168.64,-193 2217.64,-193 2217.64,-174 2168.64,-174"/>
<text text-anchor="middle" x="2193.14" y="-181" font-family="FreeSans" font-size="10.00">stdio.h</text>
</g>
<!-- Node3&#45;&gt;Node14 -->
<g id="edge15" class="edge"><title>Node3&#45;&gt;Node14</title>
<path fill="none" stroke="midnightblue" d="M1794.2,-243.211C1878.61,-240.84 2032.41,-231.894 2159.14,-199 2161.5,-198.388 2163.91,-197.638 2166.3,-196.806"/>
<polygon fill="midnightblue" stroke="midnightblue" points="2167.82,-199.968 2175.85,-193.054 2165.26,-193.453 2167.82,-199.968"/>
</g>
<!-- Node15 -->
<g id="node16" class="node"><title>Node15</title>
<g id="a_node16"><a xlink:href="Config_8h_source.html" target="_top" xlink:title="DGtal/base/Config.h">
<polygon fill="white" stroke="black" points="293.145,-56.5 293.145,-75.5 405.145,-75.5 405.145,-56.5 293.145,-56.5"/>
<text text-anchor="middle" x="349.145" y="-63.5" font-family="FreeSans" font-size="10.00">DGtal/base/Config.h</text>
</a>
</g>
</g>
<!-- Node3&#45;&gt;Node15 -->
<g id="edge16" class="edge"><title>Node3&#45;&gt;Node15</title>
<path fill="none" stroke="midnightblue" d="M1667.84,-242.949C1485.61,-239.61 962.008,-227.718 793.145,-199 634.137,-171.958 451.749,-106.265 380.217,-79.0835"/>
<polygon fill="midnightblue" stroke="midnightblue" points="381.464,-75.8132 370.873,-75.5117 378.964,-82.3517 381.464,-75.8132"/>
</g>
<!-- Node17 -->
<g id="node18" class="node"><title>Node17</title>
<g id="a_node18"><a xlink:href="Trace_8h_source.html" target="_top" xlink:title="DGtal/base/Trace.h">
<polygon fill="white" stroke="red" points="188.645,-174 188.645,-193 295.645,-193 295.645,-174 188.645,-174"/>
<text text-anchor="middle" x="242.145" y="-181" font-family="FreeSans" font-size="10.00">DGtal/base/Trace.h</text>
</a>
</g>
</g>
<!-- Node3&#45;&gt;Node17 -->
<g id="edge19" class="edge"><title>Node3&#45;&gt;Node17</title>
<path fill="none" stroke="midnightblue" d="M1668.08,-241.91C1489.75,-235.94 966.568,-218.012 532.145,-199 454.348,-195.595 364.846,-191.02 306.092,-187.926"/>
<polygon fill="midnightblue" stroke="midnightblue" points="306.022,-184.418 295.851,-187.386 305.653,-191.408 306.022,-184.418"/>
</g>
<!-- Node24 -->
<g id="node19" class="node"><title>Node24</title>
<g id="a_node19"><a xlink:href="TraceWriterTerm_8h_source.html" target="_top" xlink:title="DGtal/base/TraceWriterTerm.h">
<polygon fill="white" stroke="red" points="270.645,-112.5 270.645,-131.5 427.645,-131.5 427.645,-112.5 270.645,-112.5"/>
<text text-anchor="middle" x="349.145" y="-119.5" font-family="FreeSans" font-size="10.00">DGtal/base/TraceWriterTerm.h</text>
</a>
</g>
</g>
<!-- Node3&#45;&gt;Node24 -->
<g id="edge30" class="edge"><title>Node3&#45;&gt;Node24</title>
<path fill="none" stroke="midnightblue" d="M1668.02,-242.779C1472.07,-238.753 875.972,-224.669 684.145,-199 575.517,-184.464 450.218,-151.634 388.159,-134.265"/>
<polygon fill="midnightblue" stroke="midnightblue" points="388.971,-130.858 378.396,-131.514 387.072,-137.595 388.971,-130.858"/>
</g>
<!-- Node25 -->
<g id="node20" class="node"><title>Node25</title>
<g id="a_node20"><a xlink:href="Assert_8h_source.html" target="_top" xlink:title="DGtal/base/Assert.h">
<polygon fill="white" stroke="red" points="62.6447,-112.5 62.6447,-131.5 175.645,-131.5 175.645,-112.5 62.6447,-112.5"/>
<text text-anchor="middle" x="119.145" y="-119.5" font-family="FreeSans" font-size="10.00">DGtal/base/Assert.h</text>
</a>
</g>
</g>
<!-- Node3&#45;&gt;Node25 -->
<g id="edge34" class="edge"><title>Node3&#45;&gt;Node25</title>
<path fill="none" stroke="midnightblue" d="M1668.09,-243.658C1385.52,-241.937 246.619,-232.915 179.145,-199 154.559,-186.642 136.883,-159.016 127.333,-140.699"/>
<polygon fill="midnightblue" stroke="midnightblue" points="130.428,-139.062 122.87,-131.637 124.148,-142.154 130.428,-139.062"/>
</g>
<!-- Node28 -->
<g id="node21" class="node"><title>Node28</title>
<g id="a_node21"><a xlink:href="TraceWriterFile_8h_source.html" target="_top" xlink:title="DGtal/base/TraceWriterFile.h">
<polygon fill="white" stroke="red" points="635.645,-56.5 635.645,-75.5 784.645,-75.5 784.645,-56.5 635.645,-56.5"/>
<text text-anchor="middle" x="710.145" y="-63.5" font-family="FreeSans" font-size="10.00">DGtal/base/TraceWriterFile.h</text>
</a>
</g>
</g>
<!-- Node3&#45;&gt;Node28 -->
<g id="edge31" class="edge"><title>Node3&#45;&gt;Node28</title>
<path fill="none" stroke="midnightblue" d="M1667.98,-242.372C1499.97,-237.733 1050.66,-223.198 988.145,-199 959.404,-187.876 907.643,-125.915 880.145,-112 847.434,-95.4479 808.007,-84.5229 775.362,-77.5879"/>
<polygon fill="midnightblue" stroke="midnightblue" points="775.962,-74.1382 765.463,-75.5619 774.558,-80.996 775.962,-74.1382"/>
</g>
<!-- Node29 -->
<g id="node22" class="node"><title>Node29</title>
<g id="a_node22"><a xlink:href="ConceptUtils_8h_source.html" target="_top" xlink:title="DGtal/base/ConceptUtils.h">
<polygon fill="white" stroke="black" points="1030.64,-56.5 1030.64,-75.5 1173.64,-75.5 1173.64,-56.5 1030.64,-56.5"/>
<text text-anchor="middle" x="1102.14" y="-63.5" font-family="FreeSans" font-size="10.00">DGtal/base/ConceptUtils.h</text>
</a>
</g>
</g>
<!-- Node3&#45;&gt;Node29 -->
<g id="edge35" class="edge"><title>Node3&#45;&gt;Node29</title>
<path fill="none" stroke="midnightblue" d="M1667.98,-244.394C1512.62,-244.706 1121.56,-241.245 1082.14,-199 1052.87,-167.62 1076.41,-112.575 1091.67,-84.5171"/>
<polygon fill="midnightblue" stroke="midnightblue" points="1094.73,-86.2242 1096.63,-75.8011 1088.64,-82.7644 1094.73,-86.2242"/>
</g>
<!-- Node30 -->
<g id="node23" class="node"><title>Node30</title>
<g id="a_node23"><a xlink:href="BasicTypes_8h_source.html" target="_top" xlink:title="DGtal/base/BasicTypes.h">
<polygon fill="white" stroke="red" points="802.145,-174 802.145,-193 936.145,-193 936.145,-174 802.145,-174"/>
<text text-anchor="middle" x="869.145" y="-181" font-family="FreeSans" font-size="10.00">DGtal/base/BasicTypes.h</text>
</a>
</g>
</g>
<!-- Node3&#45;&gt;Node30 -->
<g id="edge37" class="edge"><title>Node3&#45;&gt;Node30</title>
<path fill="none" stroke="midnightblue" d="M1667.9,-242.917C1534.71,-240.074 1215.69,-230.305 950.145,-199 940.872,-197.907 931.054,-196.427 921.574,-194.828"/>
<polygon fill="midnightblue" stroke="midnightblue" points="921.914,-191.335 911.461,-193.061 920.709,-198.23 921.914,-191.335"/>
</g>
<!-- Node33 -->
<g id="node25" class="node"><title>Node33</title>
<g id="a_node25"><a xlink:href="BasicFunctors_8h_source.html" target="_top" xlink:title="DGtal/base/BasicFunctors.h">
<polygon fill="white" stroke="red" points="2432.14,-174 2432.14,-193 2580.14,-193 2580.14,-174 2432.14,-174"/>
<text text-anchor="middle" x="2506.14" y="-181" font-family="FreeSans" font-size="10.00">DGtal/base/BasicFunctors.h</text>
</a>
</g>
</g>
<!-- Node3&#45;&gt;Node33 -->
<g id="edge40" class="edge"><title>Node3&#45;&gt;Node33</title>
<path fill="none" stroke="midnightblue" d="M1794.28,-241.736C1914.38,-237.15 2183.53,-224.914 2409.14,-199 2419.4,-197.822 2430.29,-196.273 2440.94,-194.628"/>
<polygon fill="midnightblue" stroke="midnightblue" points="2441.72,-198.048 2451.05,-193.029 2440.62,-191.134 2441.72,-198.048"/>
</g>
<!-- Node41 -->
<g id="node26" class="node"><title>Node41</title>
<g id="a_node26"><a xlink:href="BasicArchetypes_8h_source.html" target="_top" xlink:title="DGtal/base/BasicArchetypes.h">
<polygon fill="white" stroke="black" points="1191.64,-56.5 1191.64,-75.5 1352.64,-75.5 1352.64,-56.5 1191.64,-56.5"/>
<text text-anchor="middle" x="1272.14" y="-63.5" font-family="FreeSans" font-size="10.00">DGtal/base/BasicArchetypes.h</text>
</a>
</g>
</g>
<!-- Node3&#45;&gt;Node41 -->
<g id="edge44" class="edge"><title>Node3&#45;&gt;Node41</title>
<path fill="none" stroke="midnightblue" d="M1668.04,-244.281C1515.32,-244.304 1135.5,-240.178 1097.14,-199 1048.17,-146.425 1166.63,-99.5999 1232.18,-78.6414"/>
<polygon fill="midnightblue" stroke="midnightblue" points="1233.33,-81.9488 1241.83,-75.6209 1231.24,-75.2685 1233.33,-81.9488"/>
</g>
<!-- Node42 -->
<g id="node27" class="node"><title>Node42</title>
<g id="a_node27"><a xlink:href="Exceptions_8h_source.html" target="_top" xlink:title="DGtal/base/Exceptions.h">
<polygon fill="white" stroke="black" points="1775.14,-56.5 1775.14,-75.5 1909.14,-75.5 1909.14,-56.5 1775.14,-56.5"/>
<text text-anchor="middle" x="1842.14" y="-63.5" font-family="FreeSans" font-size="10.00">DGtal/base/Exceptions.h</text>
</a>
</g>
</g>
<!-- Node3&#45;&gt;Node42 -->
<g id="edge46" class="edge"><title>Node3&#45;&gt;Node42</title>
<path fill="none" stroke="midnightblue" d="M1794.63,-240.489C1924.96,-232.973 2211.78,-214.731 2226.14,-199 2317.39,-99.0813 2055.93,-74.7903 1919.37,-68.89"/>
<polygon fill="midnightblue" stroke="midnightblue" points="1919.5,-65.3922 1909.36,-68.4806 1919.21,-72.3864 1919.5,-65.3922"/>
</g>
<!-- Node15&#45;&gt;Node1 -->
<g id="edge17" class="edge"><title>Node15&#45;&gt;Node1</title>
<path fill="none" stroke="midnightblue" d="M405.571,-58.433C414.132,-57.545 422.868,-56.7001 431.145,-56 704.658,-32.8644 1034.84,-17.5364 1147.37,-12.6677"/>
<polygon fill="midnightblue" stroke="midnightblue" points="1147.73,-16.1555 1157.57,-12.2293 1147.43,-9.16198 1147.73,-16.1555"/>
</g>
<!-- Node16 -->
<g id="node17" class="node"><title>Node16</title>
<polygon fill="white" stroke="#bfbfbf" points="182.145,-0.5 182.145,-19.5 226.145,-19.5 226.145,-0.5 182.145,-0.5"/>
<text text-anchor="middle" x="204.145" y="-7.5" font-family="FreeSans" font-size="10.00">string</text>
</g>
<!-- Node15&#45;&gt;Node16 -->
<g id="edge18" class="edge"><title>Node15&#45;&gt;Node16</title>
<path fill="none" stroke="midnightblue" d="M326.169,-56.4435C301.845,-47.3851 263.276,-33.0213 236.019,-22.8705"/>
<polygon fill="midnightblue" stroke="midnightblue" points="237.129,-19.5491 226.536,-19.339 234.686,-26.109 237.129,-19.5491"/>
</g>
<!-- Node17&#45;&gt;Node1 -->
<g id="edge20" class="edge"><title>Node17&#45;&gt;Node1</title>
<path fill="none" stroke="midnightblue" d="M295.812,-175.783C336.3,-169.043 392.189,-156.073 436.145,-132 479.727,-108.131 472.519,-75.6841 518.145,-56 575.837,-31.11 1012.06,-16.1956 1147.3,-12.1342"/>
<polygon fill="midnightblue" stroke="midnightblue" points="1147.71,-15.6234 1157.61,-11.8282 1147.51,-8.62649 1147.71,-15.6234"/>
</g>
<!-- Node17&#45;&gt;Node15 -->
<g id="edge22" class="edge"><title>Node17&#45;&gt;Node15</title>
<path fill="none" stroke="midnightblue" d="M242.301,-173.679C243,-159.237 246.307,-130.324 261.145,-112 273.331,-96.9508 291.874,-86.425 308.801,-79.359"/>
<polygon fill="midnightblue" stroke="midnightblue" points="310.463,-82.4689 318.521,-75.5904 307.932,-75.9423 310.463,-82.4689"/>
</g>
<!-- Node17&#45;&gt;Node16 -->
<g id="edge21" class="edge"><title>Node17&#45;&gt;Node16</title>
<path fill="none" stroke="midnightblue" d="M240.208,-173.76C234.287,-147.036 216.335,-66.0174 208.213,-29.3618"/>
<polygon fill="midnightblue" stroke="midnightblue" points="211.613,-28.5254 206.032,-19.5194 204.779,-30.0397 211.613,-28.5254"/>
</g>
<!-- Node17&#45;&gt;Node24 -->
<g id="edge23" class="edge"><title>Node17&#45;&gt;Node24</title>
<path fill="none" stroke="midnightblue" d="M257.475,-173.975C275.114,-164.166 304.304,-147.935 325.002,-136.425"/>
<polygon fill="midnightblue" stroke="midnightblue" points="326.804,-139.428 333.843,-131.509 323.402,-133.31 326.804,-139.428"/>
</g>
<!-- Node17&#45;&gt;Node25 -->
<g id="edge27" class="edge"><title>Node17&#45;&gt;Node25</title>
<path fill="none" stroke="midnightblue" d="M219.621,-173.975C197.104,-164.122 163.062,-147.788 140.847,-136.27"/>
<polygon fill="midnightblue" stroke="midnightblue" points="142.314,-133.087 131.838,-131.509 139.044,-139.276 142.314,-133.087"/>
</g>
<!-- Node24&#45;&gt;Node1 -->
<g id="edge24" class="edge"><title>Node24&#45;&gt;Node1</title>
<path fill="none" stroke="midnightblue" d="M362.205,-112.295C385.004,-97.6246 434.044,-68.3665 480.145,-56 607.387,-21.8677 1016.77,-13.3485 1146.98,-11.4771"/>
<polygon fill="midnightblue" stroke="midnightblue" points="1147.34,-14.9726 1157.29,-11.3346 1147.24,-7.97323 1147.34,-14.9726"/>
</g>
<!-- Node24&#45;&gt;Node15 -->
<g id="edge26" class="edge"><title>Node24&#45;&gt;Node15</title>
<path fill="none" stroke="midnightblue" d="M349.145,-112.083C349.145,-105.006 349.145,-94.8611 349.145,-85.9865"/>
<polygon fill="midnightblue" stroke="midnightblue" points="352.645,-85.751 349.145,-75.7511 345.645,-85.7511 352.645,-85.751"/>
</g>
<!-- Node24&#45;&gt;Node16 -->
<g id="edge25" class="edge"><title>Node24&#45;&gt;Node16</title>
<path fill="none" stroke="midnightblue" d="M335.987,-112.324C322.707,-103.466 301.707,-89.1837 284.145,-76 262.409,-59.6835 238.306,-39.8495 222.295,-26.4144"/>
<polygon fill="midnightblue" stroke="midnightblue" points="224.2,-23.4425 214.299,-19.6717 219.688,-28.7939 224.2,-23.4425"/>
</g>
<!-- Node25&#45;&gt;Node16 -->
<g id="edge29" class="edge"><title>Node25&#45;&gt;Node16</title>
<path fill="none" stroke="midnightblue" d="M125.814,-112.368C139.904,-94.135 172.907,-51.4257 191.259,-27.6752"/>
<polygon fill="midnightblue" stroke="midnightblue" points="194.161,-29.6444 197.506,-19.5914 188.622,-25.3642 194.161,-29.6444"/>
</g>
<!-- Node25&#45;&gt;Node17 -->
<g id="edge28" class="edge"><title>Node25&#45;&gt;Node17</title>
<path fill="none" stroke="midnightblue" d="M141.632,-131.509C164.137,-141.355 198.179,-157.688 220.406,-169.212"/>
<polygon fill="midnightblue" stroke="midnightblue" points="218.945,-172.398 229.422,-173.975 222.215,-166.209 218.945,-172.398"/>
</g>
<!-- Node28&#45;&gt;Node1 -->
<g id="edge32" class="edge"><title>Node28&#45;&gt;Node1</title>
<path fill="none" stroke="midnightblue" d="M784.676,-56.5625C887.113,-44.9658 1067.77,-24.5142 1147.47,-15.4917"/>
<polygon fill="midnightblue" stroke="midnightblue" points="1148.03,-18.9501 1157.58,-14.3474 1147.25,-11.9945 1148.03,-18.9501"/>
</g>
<!-- Node28&#45;&gt;Node16 -->
<g id="edge33" class="edge"><title>Node28&#45;&gt;Node16</title>
<path fill="none" stroke="midnightblue" d="M635.483,-57.0321C523.37,-45.0676 316.198,-22.9582 236.528,-14.456"/>
<polygon fill="midnightblue" stroke="midnightblue" points="236.471,-10.9301 226.156,-13.3491 235.728,-17.8905 236.471,-10.9301"/>
</g>
<!-- Node29&#45;&gt;Node1 -->
<g id="edge36" class="edge"><title>Node29&#45;&gt;Node1</title>
<path fill="none" stroke="midnightblue" d="M1115.8,-56.324C1129.06,-47.9002 1149.41,-34.9709 1164.99,-25.0741"/>
<polygon fill="midnightblue" stroke="midnightblue" points="1166.96,-27.9711 1173.52,-19.6545 1163.2,-22.0626 1166.96,-27.9711"/>
</g>
<!-- Node30&#45;&gt;Node1 -->
<g id="edge39" class="edge"><title>Node30&#45;&gt;Node1</title>
<path fill="none" stroke="midnightblue" d="M874.599,-173.774C889.595,-150.563 933.954,-86.9674 988.145,-56 1038.33,-27.3237 1105.38,-16.9214 1147.42,-13.148"/>
<polygon fill="midnightblue" stroke="midnightblue" points="1147.86,-16.624 1157.54,-12.3244 1147.29,-9.64702 1147.86,-16.624"/>
</g>
<!-- Node21 -->
<g id="node24" class="node"><title>Node21</title>
<polygon fill="white" stroke="#bfbfbf" points="824.645,-112.5 824.645,-131.5 871.645,-131.5 871.645,-112.5 824.645,-112.5"/>
<text text-anchor="middle" x="848.145" y="-119.5" font-family="FreeSans" font-size="10.00">cstdlib</text>
</g>
<!-- Node30&#45;&gt;Node21 -->
<g id="edge38" class="edge"><title>Node30&#45;&gt;Node21</title>
<path fill="none" stroke="midnightblue" d="M866.136,-173.975C863.111,-165.404 858.354,-151.927 854.492,-140.983"/>
<polygon fill="midnightblue" stroke="midnightblue" points="857.777,-139.774 851.148,-131.509 851.176,-142.104 857.777,-139.774"/>
</g>
<!-- Node33&#45;&gt;Node3 -->
<g id="edge43" class="edge"><title>Node33&#45;&gt;Node3</title>
<path fill="none" stroke="midnightblue" d="M2468.31,-193.029C2455.31,-195.246 2440.68,-197.445 2427.14,-199 2201.12,-224.961 1931.4,-237.194 1804.23,-241.761"/>
<polygon fill="midnightblue" stroke="midnightblue" points="1804.08,-238.264 1794.21,-242.116 1804.33,-245.26 1804.08,-238.264"/>
</g>
<!-- Node33&#45;&gt;Node5 -->
<g id="edge41" class="edge"><title>Node33&#45;&gt;Node5</title>
<path fill="none" stroke="midnightblue" d="M2492.82,-173.975C2477.77,-164.343 2453.03,-148.517 2435.11,-137.052"/>
<polygon fill="midnightblue" stroke="midnightblue" points="2436.75,-133.95 2426.44,-131.509 2432.98,-139.847 2436.75,-133.95"/>
</g>
<!-- Node33&#45;&gt;Node13 -->
<g id="edge42" class="edge"><title>Node33&#45;&gt;Node13</title>
<path fill="none" stroke="midnightblue" d="M2512.45,-173.975C2519.05,-165.05 2529.58,-150.807 2537.84,-139.643"/>
<polygon fill="midnightblue" stroke="midnightblue" points="2540.72,-141.631 2543.85,-131.509 2535.09,-137.468 2540.72,-141.631"/>
</g>
<!-- Node41&#45;&gt;Node1 -->
<g id="edge45" class="edge"><title>Node41&#45;&gt;Node1</title>
<path fill="none" stroke="midnightblue" d="M1258.49,-56.324C1245.23,-47.9002 1224.88,-34.9709 1209.3,-25.0741"/>
<polygon fill="midnightblue" stroke="midnightblue" points="1211.09,-22.0626 1200.77,-19.6545 1207.33,-27.9711 1211.09,-22.0626"/>
</g>
<!-- Node42&#45;&gt;Node1 -->
<g id="edge47" class="edge"><title>Node42&#45;&gt;Node1</title>
<path fill="none" stroke="midnightblue" d="M1775.13,-59.4748C1639.44,-48.2887 1335.89,-23.2634 1226.99,-14.2849"/>
<polygon fill="midnightblue" stroke="midnightblue" points="1227.02,-10.776 1216.77,-13.4424 1226.45,-17.7523 1227.02,-10.776"/>
</g>
<!-- Node45&#45;&gt;Node1 -->
<g id="edge51" class="edge"><title>Node45&#45;&gt;Node1</title>
<path fill="none" stroke="midnightblue" d="M2407.35,-579.935C2592.49,-578.771 3102.14,-548.127 3102.14,-246 3102.14,-246 3102.14,-246 3102.14,-121 3102.14,-64.9771 3047.93,-71.6619 2994.14,-56 2819.36,-5.10714 1476.82,-9.5029 1227.07,-10.7714"/>
<polygon fill="midnightblue" stroke="midnightblue" points="1226.97,-7.27176 1216.99,-10.8239 1227.01,-14.2717 1226.97,-7.27176"/>
</g>
<!-- Node45&#45;&gt;Node3 -->
<g id="edge52" class="edge"><title>Node45&#45;&gt;Node3</title>
<path fill="none" stroke="midnightblue" d="M2274.95,-578.004C2125.75,-573.967 1776.14,-553.71 1776.14,-452.5 1776.14,-452.5 1776.14,-452.5 1776.14,-383.5 1776.14,-338.487 1754.09,-289.113 1740.86,-263.543"/>
<polygon fill="midnightblue" stroke="midnightblue" points="1743.93,-261.857 1736.13,-254.684 1737.75,-265.154 1743.93,-261.857"/>
</g>
<!-- Node46 -->
<g id="node31" class="node"><title>Node46</title>
<g id="a_node31"><a xlink:href="SpaceND_8h_source.html" target="_top" xlink:title="DGtal/kernel/SpaceND.h">
<polygon fill="white" stroke="red" points="2750.64,-302.5 2750.64,-321.5 2883.64,-321.5 2883.64,-302.5 2750.64,-302.5"/>
<text text-anchor="middle" x="2817.14" y="-309.5" font-family="FreeSans" font-size="10.00">DGtal/kernel/SpaceND.h</text>
</a>
</g>
</g>
<!-- Node45&#45;&gt;Node46 -->
<g id="edge53" class="edge"><title>Node45&#45;&gt;Node46</title>
<path fill="none" stroke="midnightblue" d="M2361.62,-570.375C2382.33,-561.558 2415.18,-547.306 2443.14,-534 2502.2,-505.902 2517.39,-499.479 2574.14,-467 2644.56,-426.707 2659.59,-412.381 2728.14,-369 2750.87,-354.619 2776.91,-338.244 2794.93,-326.933"/>
<polygon fill="midnightblue" stroke="midnightblue" points="2796.95,-329.798 2803.56,-321.517 2793.23,-323.869 2796.95,-329.798"/>
</g>
<!-- Node67 -->
<g id="node32" class="node"><title>Node67</title>
<g id="a_node32"><a xlink:href="HyperRectDomain_8h_source.html" target="_top" xlink:title="DGtal/kernel/domains\l/HyperRectDomain.h">
<polygon fill="white" stroke="red" points="428.145,-297 428.145,-327 548.145,-327 548.145,-297 428.145,-297"/>
<text text-anchor="start" x="436.145" y="-315" font-family="FreeSans" font-size="10.00">DGtal/kernel/domains</text>
<text text-anchor="middle" x="488.145" y="-304" font-family="FreeSans" font-size="10.00">/HyperRectDomain.h</text>
</a>
</g>
</g>
<!-- Node45&#45;&gt;Node67 -->
<g id="edge56" class="edge"><title>Node45&#45;&gt;Node67</title>
<path fill="none" stroke="midnightblue" d="M2275.01,-576.45C2057.64,-567.011 1346.38,-527.712 774.145,-400 689.567,-381.124 593.649,-349.86 537.165,-330.398"/>
<polygon fill="midnightblue" stroke="midnightblue" points="538.023,-326.991 527.429,-327.025 535.732,-333.605 538.023,-326.991"/>
</g>
<!-- Node90 -->
<g id="node34" class="node"><title>Node90</title>
<g id="a_node34"><a xlink:href="DigitalSetSelector_8h_source.html" target="_top" xlink:title="DGtal/kernel/sets/Digital\lSetSelector.h">
<polygon fill="white" stroke="red" points="2256.14,-297 2256.14,-327 2388.14,-327 2388.14,-297 2256.14,-297"/>
<text text-anchor="start" x="2264.14" y="-315" font-family="FreeSans" font-size="10.00">DGtal/kernel/sets/Digital</text>
<text text-anchor="middle" x="2322.14" y="-304" font-family="FreeSans" font-size="10.00">SetSelector.h</text>
</a>
</g>
</g>
<!-- Node45&#45;&gt;Node90 -->
<g id="edge60" class="edge"><title>Node45&#45;&gt;Node90</title>
<path fill="none" stroke="midnightblue" d="M2340.53,-570.451C2337.96,-534.436 2327.95,-394.309 2323.88,-337.314"/>
<polygon fill="midnightblue" stroke="midnightblue" points="2327.35,-336.804 2323.15,-327.078 2320.37,-337.302 2327.35,-336.804"/>
</g>
<!-- Node103 -->
<g id="node35" class="node"><title>Node103</title>
<g id="a_node35"><a xlink:href="DigitalTopology_8h_source.html" target="_top" xlink:title="DGtal/topology/DigitalTopology.h">
<polygon fill="white" stroke="red" points="2030.14,-302.5 2030.14,-321.5 2200.14,-321.5 2200.14,-302.5 2030.14,-302.5"/>
<text text-anchor="middle" x="2115.14" y="-309.5" font-family="FreeSans" font-size="10.00">DGtal/topology/DigitalTopology.h</text>
</a>
</g>
</g>
<!-- Node45&#45;&gt;Node103 -->
<g id="edge63" class="edge"><title>Node45&#45;&gt;Node103</title>
<path fill="none" stroke="midnightblue" d="M2333.88,-570.451C2301.74,-532.623 2172.01,-379.935 2129.05,-329.361"/>
<polygon fill="midnightblue" stroke="midnightblue" points="2131.64,-327.006 2122.49,-321.651 2126.3,-331.538 2131.64,-327.006"/>
</g>
<!-- Node110 -->
<g id="node36" class="node"><title>Node110</title>
<g id="a_node36"><a xlink:href="MetricAdjacency_8h_source.html" target="_top" xlink:title="DGtal/topology/MetricAdjacency.h">
<polygon fill="white" stroke="red" points="2737.14,-375 2737.14,-394 2913.14,-394 2913.14,-375 2737.14,-375"/>
<text text-anchor="middle" x="2825.14" y="-382" font-family="FreeSans" font-size="10.00">DGtal/topology/MetricAdjacency.h</text>
</a>
</g>
</g>
<!-- Node45&#45;&gt;Node110 -->
<g id="edge66" class="edge"><title>Node45&#45;&gt;Node110</title>
<path fill="none" stroke="midnightblue" d="M2407.18,-576.776C2498.12,-572.72 2656.31,-561.805 2706.14,-534 2761.33,-503.205 2800.49,-435.513 2816.76,-403.262"/>
<polygon fill="midnightblue" stroke="midnightblue" points="2819.98,-404.649 2821.23,-394.128 2813.69,-401.572 2819.98,-404.649"/>
</g>
<!-- Node113 -->
<g id="node37" class="node"><title>Node113</title>
<g id="a_node37"><a xlink:href="Object_8h_source.html" target="_top" xlink:title="DGtal/topology/Object.h">
<polygon fill="white" stroke="red" points="1804.64,-375 1804.64,-394 1935.64,-394 1935.64,-375 1804.64,-375"/>
<text text-anchor="middle" x="1870.14" y="-382" font-family="FreeSans" font-size="10.00">DGtal/topology/Object.h</text>
</a>
</g>
</g>
<!-- Node45&#45;&gt;Node113 -->
<g id="edge70" class="edge"><title>Node45&#45;&gt;Node113</title>
<path fill="none" stroke="midnightblue" d="M2275.08,-579.326C2174.85,-578.565 1990.48,-571.86 1938.14,-534 1894.77,-502.618 1878.39,-436.747 1872.77,-404.332"/>
<polygon fill="midnightblue" stroke="midnightblue" points="1876.17,-403.37 1871.16,-394.03 1869.25,-404.45 1876.17,-403.37"/>
</g>
<!-- Node122 -->
<g id="node39" class="node"><title>Node122</title>
<g id="a_node39"><a xlink:href="KhalimskySpaceND_8h_source.html" target="_top" xlink:title="DGtal/topology/Khalimsky\lSpaceND.h">
<polygon fill="white" stroke="red" points="2426.64,-436.5 2426.64,-466.5 2565.64,-466.5 2565.64,-436.5 2426.64,-436.5"/>
<text text-anchor="start" x="2434.64" y="-454.5" font-family="FreeSans" font-size="10.00">DGtal/topology/Khalimsky</text>
<text text-anchor="middle" x="2496.14" y="-443.5" font-family="FreeSans" font-size="10.00">SpaceND.h</text>
</a>
</g>
</g>
<!-- Node45&#45;&gt;Node122 -->
<g id="edge78" class="edge"><title>Node45&#45;&gt;Node122</title>
<path fill="none" stroke="midnightblue" d="M2356.71,-570.38C2371.52,-561.896 2394.15,-548.185 2412.14,-534 2435.67,-515.455 2459.96,-491.241 2476.33,-474.038"/>
<polygon fill="midnightblue" stroke="midnightblue" points="2478.95,-476.353 2483.26,-466.673 2473.86,-471.555 2478.95,-476.353"/>
</g>
<!-- Node123 -->
<g id="node40" class="node"><title>Node123</title>
<g id="a_node40"><a xlink:href="KhalimskyPreSpaceND_8h_source.html" target="_top" xlink:title="DGtal/topology/Khalimsky\lPreSpaceND.h">
<polygon fill="white" stroke="red" points="2426.64,-369.5 2426.64,-399.5 2565.64,-399.5 2565.64,-369.5 2426.64,-369.5"/>
<text text-anchor="start" x="2434.64" y="-387.5" font-family="FreeSans" font-size="10.00">DGtal/topology/Khalimsky</text>
<text text-anchor="middle" x="2496.14" y="-376.5" font-family="FreeSans" font-size="10.00">PreSpaceND.h</text>
</a>
</g>
</g>
<!-- Node45&#45;&gt;Node123 -->
<g id="edge86" class="edge"><title>Node45&#45;&gt;Node123</title>
<path fill="none" stroke="midnightblue" d="M2348.32,-570.427C2355.45,-561.649 2366.4,-547.428 2374.14,-534 2397.91,-492.797 2386.22,-472.14 2417.14,-436 2427.91,-423.419 2442.59,-412.863 2456.38,-404.709"/>
<polygon fill="midnightblue" stroke="midnightblue" points="2458.27,-407.661 2465.26,-399.7 2454.83,-401.564 2458.27,-407.661"/>
</g>
<!-- Node126 -->
<g id="node41" class="node"><title>Node126</title>
<g id="a_node41"><a xlink:href="GridCurve_8h_source.html" target="_top" xlink:title="Header file for module GridCurve.cpp. ">
<polygon fill="white" stroke="red" points="1947.14,-503.5 1947.14,-533.5 2075.14,-533.5 2075.14,-503.5 1947.14,-503.5"/>
<text text-anchor="start" x="1955.14" y="-521.5" font-family="FreeSans" font-size="10.00">DGtal/geometry/curves</text>
<text text-anchor="middle" x="2011.14" y="-510.5" font-family="FreeSans" font-size="10.00">/GridCurve.h</text>
</a>
</g>
</g>
<!-- Node45&#45;&gt;Node126 -->
<g id="edge87" class="edge"><title>Node45&#45;&gt;Node126</title>
<path fill="none" stroke="midnightblue" d="M2293.86,-570.475C2239.39,-560.654 2149.2,-544.392 2085.35,-532.88"/>
<polygon fill="midnightblue" stroke="midnightblue" points="2085.8,-529.405 2075.34,-531.075 2084.56,-536.294 2085.8,-529.405"/>
</g>
<!-- Node154 -->
<g id="node43" class="node"><title>Node154</title>
<g id="a_node43"><a xlink:href="ExactPredicateLpSeparableMetric_8h_source.html" target="_top" xlink:title="DGtal/geometry/volumes\l/distance/ExactPredicateLpSeparable\lMetric.h">
<polygon fill="white" stroke="red" points="1404.14,-291.5 1404.14,-332.5 1598.14,-332.5 1598.14,-291.5 1404.14,-291.5"/>
<text text-anchor="start" x="1412.14" y="-320.5" font-family="FreeSans" font-size="10.00">DGtal/geometry/volumes</text>
<text text-anchor="start" x="1412.14" y="-309.5" font-family="FreeSans" font-size="10.00">/distance/ExactPredicateLpSeparable</text>
<text text-anchor="middle" x="1501.14" y="-298.5" font-family="FreeSans" font-size="10.00">Metric.h</text>
</a>
</g>
</g>
<!-- Node45&#45;&gt;Node154 -->
<g id="edge95" class="edge"><title>Node45&#45;&gt;Node154</title>
<path fill="none" stroke="midnightblue" d="M2274.94,-578.929C2143.27,-577.966 1853.35,-571.501 1762.14,-534 1657.54,-490.993 1564.1,-389.633 1523.13,-340.567"/>
<polygon fill="midnightblue" stroke="midnightblue" points="1525.62,-338.083 1516.55,-332.598 1520.22,-342.539 1525.62,-338.083"/>
</g>
<!-- Node159 -->
<g id="node44" class="node"><title>Node159</title>
<g id="a_node44"><a xlink:href="ExactPredicateLpPowerSeparableMetric_8h_source.html" target="_top" xlink:title="DGtal/geometry/volumes\l/distance/ExactPredicateLpPower\lSeparableMetric.h">
<polygon fill="white" stroke="red" points="2482.14,-291.5 2482.14,-332.5 2656.14,-332.5 2656.14,-291.5 2482.14,-291.5"/>
<text text-anchor="start" x="2490.14" y="-320.5" font-family="FreeSans" font-size="10.00">DGtal/geometry/volumes</text>
<text text-anchor="start" x="2490.14" y="-309.5" font-family="FreeSans" font-size="10.00">/distance/ExactPredicateLpPower</text>
<text text-anchor="middle" x="2569.14" y="-298.5" font-family="FreeSans" font-size="10.00">SeparableMetric.h</text>
</a>
</g>
</g>
<!-- Node45&#45;&gt;Node159 -->
<g id="edge99" class="edge"><title>Node45&#45;&gt;Node159</title>
<path fill="none" stroke="midnightblue" d="M2341.73,-570.454C2344.34,-539.078 2357.55,-428.939 2417.14,-369 2432.38,-353.677 2452.16,-342.508 2472.39,-334.379"/>
<polygon fill="midnightblue" stroke="midnightblue" points="2473.9,-337.55 2482.01,-330.741 2471.42,-331.002 2473.9,-337.55"/>
</g>
<!-- Node46&#45;&gt;Node1 -->
<g id="edge54" class="edge"><title>Node46&#45;&gt;Node1</title>
<path fill="none" stroke="midnightblue" d="M2824.13,-302.405C2839.35,-282.787 2874.14,-232.677 2874.14,-184.5 2874.14,-184.5 2874.14,-184.5 2874.14,-121 2874.14,-90.2048 2875.17,-73.945 2850.14,-56 2782.13,-7.23364 1473.79,-9.88604 1227.08,-10.8231"/>
<polygon fill="midnightblue" stroke="midnightblue" points="1226.78,-7.32415 1216.79,-10.8636 1226.8,-14.3241 1226.78,-7.32415"/>
</g>
<!-- Node46&#45;&gt;Node3 -->
<g id="edge55" class="edge"><title>Node46&#45;&gt;Node3</title>
<path fill="none" stroke="midnightblue" d="M2760.96,-302.48C2732.34,-298.427 2696.96,-293.854 2665.14,-291 2345.35,-262.306 1962.2,-251.089 1804.47,-247.471"/>
<polygon fill="midnightblue" stroke="midnightblue" points="1804.48,-243.971 1794.41,-247.244 1804.33,-250.969 1804.48,-243.971"/>
</g>
<!-- Node67&#45;&gt;Node1 -->
<g id="edge57" class="edge"><title>Node67&#45;&gt;Node1</title>
<path fill="none" stroke="midnightblue" d="M492.777,-296.808C509.119,-247.659 565.447,-86.0704 609.145,-56 653.306,-25.6109 1024.25,-14.6365 1147.51,-11.809"/>
<polygon fill="midnightblue" stroke="midnightblue" points="1147.72,-15.3053 1157.64,-11.5823 1147.56,-8.30701 1147.72,-15.3053"/>
</g>
<!-- Node67&#45;&gt;Node3 -->
<g id="edge59" class="edge"><title>Node67&#45;&gt;Node3</title>
<path fill="none" stroke="midnightblue" d="M530.47,-296.975C539.202,-294.58 548.403,-292.413 557.145,-291 770.469,-256.526 1434.92,-248.291 1657.58,-246.477"/>
<polygon fill="midnightblue" stroke="midnightblue" points="1657.88,-249.975 1667.85,-246.396 1657.82,-242.975 1657.88,-249.975"/>
</g>
<!-- Node68 -->
<g id="node33" class="node"><title>Node68</title>
<polygon fill="white" stroke="#bfbfbf" points="390.145,-235.5 390.145,-254.5 442.145,-254.5 442.145,-235.5 390.145,-235.5"/>
<text text-anchor="middle" x="416.145" y="-242.5" font-family="FreeSans" font-size="10.00">iterator</text>
</g>
<!-- Node67&#45;&gt;Node68 -->
<g id="edge58" class="edge"><title>Node67&#45;&gt;Node68</title>
<path fill="none" stroke="midnightblue" d="M472.522,-296.896C460.962,-286.46 445.222,-272.251 433.311,-261.498"/>
<polygon fill="midnightblue" stroke="midnightblue" points="435.544,-258.798 425.776,-254.695 430.853,-263.994 435.544,-258.798"/>
</g>
<!-- Node90&#45;&gt;Node1 -->
<g id="edge61" class="edge"><title>Node90&#45;&gt;Node1</title>
<path fill="none" stroke="midnightblue" d="M2388.52,-299.318C2508.79,-275.337 2742.95,-214.056 2660.14,-112 2584.02,-18.184 2514.05,-70.7484 2394.14,-56 2160.62,-27.2778 1409.05,-14.3325 1227.09,-11.5746"/>
<polygon fill="midnightblue" stroke="midnightblue" points="1226.96,-8.07231 1216.9,-11.4219 1226.85,-15.0715 1226.96,-8.07231"/>
</g>
<!-- Node90&#45;&gt;Node3 -->
<g id="edge62" class="edge"><title>Node90&#45;&gt;Node3</title>
<path fill="none" stroke="midnightblue" d="M2271.18,-296.991C2261.59,-294.716 2251.6,-292.589 2242.14,-291 2087.76,-265.07 1904.47,-253.533 1804.75,-248.848"/>
<polygon fill="midnightblue" stroke="midnightblue" points="1804.63,-245.339 1794.48,-248.376 1804.31,-252.332 1804.63,-245.339"/>
</g>
<!-- Node103&#45;&gt;Node1 -->
<g id="edge64" class="edge"><title>Node103&#45;&gt;Node1</title>
<path fill="none" stroke="midnightblue" d="M2172.51,-302.486C2234.31,-292.854 2335.32,-275.772 2421.14,-255 2504.64,-234.791 2524.62,-226.093 2606.14,-199 2624.09,-193.036 2646.14,-203.41 2646.14,-184.5 2646.14,-184.5 2646.14,-184.5 2646.14,-121 2646.14,-47.7464 1461.23,-17.1879 1227.07,-11.8641"/>
<polygon fill="midnightblue" stroke="midnightblue" points="1227.03,-8.36242 1216.95,-11.6364 1226.87,-15.3607 1227.03,-8.36242"/>
</g>
<!-- Node103&#45;&gt;Node3 -->
<g id="edge65" class="edge"><title>Node103&#45;&gt;Node3</title>
<path fill="none" stroke="midnightblue" d="M2064.55,-302.436C1994.23,-290.533 1867.14,-269.02 1791.82,-256.271"/>
<polygon fill="midnightblue" stroke="midnightblue" points="1791.99,-252.75 1781.55,-254.532 1790.82,-259.652 1791.99,-252.75"/>
</g>
<!-- Node110&#45;&gt;Node1 -->
<g id="edge67" class="edge"><title>Node110&#45;&gt;Node1</title>
<path fill="none" stroke="midnightblue" d="M2842.46,-374.966C2857.89,-366.459 2879.86,-351.941 2892.14,-333 2913.74,-299.714 2912.14,-285.675 2912.14,-246 2912.14,-246 2912.14,-246 2912.14,-121 2912.14,-87.5366 2902.95,-73.0385 2874.14,-56 2801.04,-12.7517 1475.75,-10.9315 1227.15,-10.9716"/>
<polygon fill="midnightblue" stroke="midnightblue" points="1226.79,-7.47164 1216.79,-10.9745 1226.79,-14.4716 1226.79,-7.47164"/>
</g>
<!-- Node110&#45;&gt;Node3 -->
<g id="edge68" class="edge"><title>Node110&#45;&gt;Node3</title>
<path fill="none" stroke="midnightblue" d="M2736.83,-377.446C2647.94,-370.186 2517.8,-356.027 2473.14,-333 2450.23,-321.185 2456.5,-301.907 2433.14,-291 2377.26,-264.904 1972.5,-251.973 1804.22,-247.679"/>
<polygon fill="midnightblue" stroke="midnightblue" points="1804.29,-244.18 1794.21,-247.426 1804.11,-251.177 1804.29,-244.18"/>
</g>
<!-- Node110&#45;&gt;Node46 -->
<g id="edge69" class="edge"><title>Node110&#45;&gt;Node46</title>
<path fill="none" stroke="midnightblue" d="M2824.16,-374.855C2822.95,-364.179 2820.86,-345.717 2819.27,-331.734"/>
<polygon fill="midnightblue" stroke="midnightblue" points="2822.74,-331.257 2818.13,-321.715 2815.78,-332.046 2822.74,-331.257"/>
</g>
<!-- Node113&#45;&gt;Node1 -->
<g id="edge71" class="edge"><title>Node113&#45;&gt;Node1</title>
<path fill="none" stroke="midnightblue" d="M1935.94,-381.939C2114.52,-377.335 2599.36,-362.263 2665.14,-333 2689.55,-322.143 2688.89,-309.52 2708.14,-291 2752.81,-248.038 2798.14,-246.471 2798.14,-184.5 2798.14,-184.5 2798.14,-184.5 2798.14,-121 2798.14,-48.3432 2719.05,-71.8452 2648.14,-56 2506.21,-24.2827 1446.9,-13.2848 1227.03,-11.3325"/>
<polygon fill="midnightblue" stroke="midnightblue" points="1226.94,-7.83168 1216.91,-11.2438 1226.88,-14.8314 1226.94,-7.83168"/>
</g>
<!-- Node113&#45;&gt;Node3 -->
<g id="edge73" class="edge"><title>Node113&#45;&gt;Node3</title>
<path fill="none" stroke="midnightblue" d="M1863.62,-374.816C1850.62,-357.788 1820.15,-319.217 1790.14,-291 1778.33,-279.889 1763.86,-268.822 1752.21,-260.444"/>
<polygon fill="midnightblue" stroke="midnightblue" points="1754.13,-257.514 1743.94,-254.605 1750.09,-263.232 1754.13,-257.514"/>
</g>
<!-- Node113&#45;&gt;Node16 -->
<g id="edge72" class="edge"><title>Node113&#45;&gt;Node16</title>
<path fill="none" stroke="midnightblue" d="M1804.27,-383.489C1575.61,-383.053 824.775,-378.164 727.145,-333 704.025,-322.305 710.159,-303.817 688.145,-291 594.608,-236.544 557.744,-253.739 451.145,-235 314.97,-211.063 270.511,-250.366 142.145,-199 96.1771,-180.606 75.247,-176.304 53.1447,-132 24.8855,-75.3547 120.043,-36.5406 172.239,-19.9987"/>
<polygon fill="midnightblue" stroke="midnightblue" points="173.521,-23.2664 182.056,-16.9886 171.469,-16.574 173.521,-23.2664"/>
</g>
<!-- Node113&#45;&gt;Node90 -->
<g id="edge77" class="edge"><title>Node113&#45;&gt;Node90</title>
<path fill="none" stroke="midnightblue" d="M1930.85,-374.967C1998.74,-365.304 2111.95,-348.838 2209.14,-333 2220.97,-331.073 2233.48,-328.947 2245.7,-326.822"/>
<polygon fill="midnightblue" stroke="midnightblue" points="2246.62,-330.213 2255.87,-325.042 2245.42,-323.318 2246.62,-330.213"/>
</g>
<!-- Node75 -->
<g id="node38" class="node"><title>Node75</title>
<g id="a_node38"><a xlink:href="CountedPtr_8h_source.html" target="_top" xlink:title="DGtal/base/CountedPtr.h">
<polygon fill="white" stroke="red" points="945.645,-302.5 945.645,-321.5 1080.64,-321.5 1080.64,-302.5 945.645,-302.5"/>
<text text-anchor="middle" x="1013.14" y="-309.5" font-family="FreeSans" font-size="10.00">DGtal/base/CountedPtr.h</text>
</a>
</g>
</g>
<!-- Node113&#45;&gt;Node75 -->
<g id="edge74" class="edge"><title>Node113&#45;&gt;Node75</title>
<path fill="none" stroke="midnightblue" d="M1804.48,-380.544C1677.72,-374.473 1390.59,-358.946 1150.14,-333 1125.58,-330.349 1098.65,-326.603 1075.23,-323.068"/>
<polygon fill="midnightblue" stroke="midnightblue" points="1075.49,-319.567 1065.07,-321.517 1074.43,-326.487 1075.49,-319.567"/>
</g>
<!-- Node75&#45;&gt;Node1 -->
<g id="edge75" class="edge"><title>Node75&#45;&gt;Node1</title>
<path fill="none" stroke="midnightblue" d="M954.275,-302.499C889.42,-292.375 789.949,-274.382 757.145,-255 700.811,-221.716 681.346,-163.154 722.145,-112 744.205,-84.3399 762.216,-93.1811 793.145,-76 808.137,-67.6717 809.945,-61.6293 826.145,-56 937.705,-17.2336 1078.9,-11.091 1146.91,-10.5961"/>
<polygon fill="midnightblue" stroke="midnightblue" points="1147.2,-14.0953 1157.19,-10.5611 1147.17,-7.09533 1147.2,-14.0953"/>
</g>
<!-- Node75&#45;&gt;Node3 -->
<g id="edge76" class="edge"><title>Node75&#45;&gt;Node3</title>
<path fill="none" stroke="midnightblue" d="M1065.73,-302.473C1091.18,-298.564 1122.2,-294.119 1150.14,-291 1332.23,-270.681 1547.45,-256.591 1657.8,-250.084"/>
<polygon fill="midnightblue" stroke="midnightblue" points="1658.04,-253.576 1667.82,-249.497 1657.63,-246.588 1658.04,-253.576"/>
</g>
<!-- Node122&#45;&gt;Node1 -->
<g id="edge79" class="edge"><title>Node122&#45;&gt;Node1</title>
<path fill="none" stroke="midnightblue" d="M2566.07,-443.182C2685.18,-430.584 2915.33,-405.606 2922.14,-400 2953.51,-374.184 2950.14,-353.62 2950.14,-313 2950.14,-313 2950.14,-313 2950.14,-121 2950.14,-84.8221 2933.31,-72.563 2901.14,-56 2824.34,-16.4505 1477.15,-11.6248 1226.95,-11.0691"/>
<polygon fill="midnightblue" stroke="midnightblue" points="1226.87,-7.56901 1216.86,-11.0477 1226.85,-14.569 1226.87,-7.56901"/>
</g>
<!-- Node122&#45;&gt;Node3 -->
<g id="edge80" class="edge"><title>Node122&#45;&gt;Node3</title>
<path fill="none" stroke="midnightblue" d="M2453.73,-436.345C2401.84,-417.761 2312.8,-381.692 2247.14,-333 2226.93,-318.005 2231.65,-302.279 2209.14,-291 2140.07,-256.377 1920.33,-248.301 1804.39,-246.48"/>
<polygon fill="midnightblue" stroke="midnightblue" points="1804.23,-242.978 1794.18,-246.332 1804.13,-249.977 1804.23,-242.978"/>
</g>
<!-- Node122&#45;&gt;Node46 -->
<g id="edge81" class="edge"><title>Node122&#45;&gt;Node46</title>
<path fill="none" stroke="midnightblue" d="M2526.58,-436.444C2562.6,-419.911 2624.46,-391.825 2678.14,-369 2714.77,-353.429 2757.25,-336.472 2785.52,-325.345"/>
<polygon fill="midnightblue" stroke="midnightblue" points="2786.86,-328.578 2794.89,-321.664 2784.3,-322.062 2786.86,-328.578"/>
</g>
<!-- Node122&#45;&gt;Node123 -->
<g id="edge82" class="edge"><title>Node122&#45;&gt;Node123</title>
<path fill="none" stroke="midnightblue" d="M2496.14,-436.396C2496.14,-428.645 2496.14,-418.812 2496.14,-409.86"/>
<polygon fill="midnightblue" stroke="midnightblue" points="2499.64,-409.576 2496.14,-399.577 2492.64,-409.577 2499.64,-409.576"/>
</g>
<!-- Node123&#45;&gt;Node1 -->
<g id="edge83" class="edge"><title>Node123&#45;&gt;Node1</title>
<path fill="none" stroke="midnightblue" d="M2565.81,-376.295C2607.31,-369.656 2659.77,-357.002 2701.14,-333 2723.44,-320.065 2722.45,-308.744 2741.14,-291 2787.15,-247.339 2836.14,-247.928 2836.14,-184.5 2836.14,-184.5 2836.14,-184.5 2836.14,-121 2836.14,-64.2136 2780.7,-71.7734 2726.14,-56 2578.51,-13.3122 1454.14,-11.005 1227.05,-10.9771"/>
<polygon fill="midnightblue" stroke="midnightblue" points="1226.92,-7.47703 1216.92,-10.9774 1226.92,-14.477 1226.92,-7.47703"/>
</g>
<!-- Node123&#45;&gt;Node3 -->
<g id="edge84" class="edge"><title>Node123&#45;&gt;Node3</title>
<path fill="none" stroke="midnightblue" d="M2479.82,-369.084C2468.56,-359.073 2453.32,-345.364 2440.14,-333 2420.67,-314.718 2421.53,-301.907 2397.14,-291 2344.19,-267.316 1966.65,-253.152 1804.66,-248.105"/>
<polygon fill="midnightblue" stroke="midnightblue" points="1804.41,-244.595 1794.31,-247.785 1804.19,-251.592 1804.41,-244.595"/>
</g>
<!-- Node123&#45;&gt;Node46 -->
<g id="edge85" class="edge"><title>Node123&#45;&gt;Node46</title>
<path fill="none" stroke="midnightblue" d="M2565.86,-369.496C2613.83,-359.696 2678.97,-346.07 2736.14,-333 2748.39,-330.201 2761.63,-327.003 2773.79,-323.998"/>
<polygon fill="midnightblue" stroke="midnightblue" points="2774.85,-327.342 2783.71,-321.532 2773.16,-320.549 2774.85,-327.342"/>
</g>
<!-- Node126&#45;&gt;Node1 -->
<g id="edge88" class="edge"><title>Node126&#45;&gt;Node1</title>
<path fill="none" stroke="midnightblue" d="M2075.39,-518.151C2206.81,-518.405 2515.36,-513.463 2769.14,-467 2869.69,-448.593 2915.61,-470.997 2989.14,-400 3012.44,-377.504 3054.14,-243.145 3054.14,-184.5 3054.14,-184.5 3054.14,-184.5 3054.14,-121 3054.14,-59.1695 2990.96,-71.6548 2931.14,-56 2761.52,-11.6073 1471.88,-10.7058 1227.17,-10.9383"/>
<polygon fill="midnightblue" stroke="midnightblue" points="1226.95,-7.43841 1216.95,-10.9493 1226.95,-14.4384 1226.95,-7.43841"/>
</g>
<!-- Node126&#45;&gt;Node2 -->
<g id="edge90" class="edge"><title>Node126&#45;&gt;Node2</title>
<path fill="none" stroke="midnightblue" d="M2075.48,-513.893C2278.95,-501.9 2898.97,-460.654 2964.14,-400 3002.21,-364.577 3004.79,-297.634 3003.53,-264.935"/>
<polygon fill="midnightblue" stroke="midnightblue" points="3007,-264.348 3002.95,-254.559 3000.02,-264.739 3007,-264.348"/>
</g>
<!-- Node126&#45;&gt;Node3 -->
<g id="edge92" class="edge"><title>Node126&#45;&gt;Node3</title>
<path fill="none" stroke="midnightblue" d="M2004.68,-503.36C2000.06,-493.24 1993.7,-479.289 1988.14,-467 1968.47,-423.497 1975.2,-405.263 1944.14,-369 1895.39,-312.075 1813.37,-275.389 1766.61,-257.948"/>
<polygon fill="midnightblue" stroke="midnightblue" points="1767.79,-254.652 1757.19,-254.518 1765.39,-261.229 1767.79,-254.652"/>
</g>
<!-- Node126&#45;&gt;Node33 -->
<g id="edge93" class="edge"><title>Node126&#45;&gt;Node33</title>
<path fill="none" stroke="midnightblue" d="M2009.54,-503.262C2006.95,-479.088 2002.14,-428.454 2002.14,-385.5 2002.14,-385.5 2002.14,-385.5 2002.14,-311 2002.14,-298.739 2010.47,-297.024 2021.14,-291 2058.44,-269.959 2330.05,-217.417 2449.75,-194.953"/>
<polygon fill="midnightblue" stroke="midnightblue" points="2450.63,-198.348 2459.82,-193.067 2449.35,-191.468 2450.63,-198.348"/>
</g>
<!-- Node126&#45;&gt;Node68 -->
<g id="edge91" class="edge"><title>Node126&#45;&gt;Node68</title>
<path fill="none" stroke="midnightblue" d="M1947.12,-512.75C1835.54,-504.356 1598.27,-485.984 1398.14,-467 953.924,-424.86 689.259,-675.412 403.145,-333 386.884,-313.54 397.188,-282.72 406.436,-263.466"/>
<polygon fill="midnightblue" stroke="midnightblue" points="409.55,-265.063 411.03,-254.572 403.331,-261.851 409.55,-265.063"/>
</g>
<!-- Node126&#45;&gt;Node122 -->
<g id="edge94" class="edge"><title>Node126&#45;&gt;Node122</title>
<path fill="none" stroke="midnightblue" d="M2075.3,-508.902C2163.11,-497.134 2320.68,-476.015 2416.11,-463.226"/>
<polygon fill="midnightblue" stroke="midnightblue" points="2416.84,-466.66 2426.29,-461.862 2415.91,-459.722 2416.84,-466.66"/>
</g>
<!-- Node127 -->
<g id="node42" class="node"><title>Node127</title>
<polygon fill="white" stroke="#bfbfbf" points="1616.14,-302.5 1616.14,-321.5 1672.14,-321.5 1672.14,-302.5 1616.14,-302.5"/>
<text text-anchor="middle" x="1644.14" y="-309.5" font-family="FreeSans" font-size="10.00">sstream</text>
</g>
<!-- Node126&#45;&gt;Node127 -->
<g id="edge89" class="edge"><title>Node126&#45;&gt;Node127</title>
<path fill="none" stroke="midnightblue" d="M1984.76,-503.418C1943.95,-481.572 1863.12,-438.064 1795.14,-400 1749.65,-374.524 1696.97,-343.918 1667.4,-326.637"/>
<polygon fill="midnightblue" stroke="midnightblue" points="1669.05,-323.547 1658.65,-321.518 1665.52,-329.589 1669.05,-323.547"/>
</g>
<!-- Node154&#45;&gt;Node1 -->
<g id="edge96" class="edge"><title>Node154&#45;&gt;Node1</title>
<path fill="none" stroke="midnightblue" d="M1403.79,-298.974C1214.35,-275.111 812.872,-222.093 793.145,-199 774.393,-177.048 813.121,-114.026 815.145,-112 862.291,-64.7919 1061.67,-29.8503 1147.54,-16.7062"/>
<polygon fill="midnightblue" stroke="midnightblue" points="1148.07,-20.1665 1157.43,-15.2119 1147.02,-13.2451 1148.07,-20.1665"/>
</g>
<!-- Node154&#45;&gt;Node3 -->
<g id="edge98" class="edge"><title>Node154&#45;&gt;Node3</title>
<path fill="none" stroke="midnightblue" d="M1570.15,-291.498C1609.6,-280.348 1657.7,-266.755 1691,-257.346"/>
<polygon fill="midnightblue" stroke="midnightblue" points="1692.16,-260.655 1700.83,-254.567 1690.26,-253.919 1692.16,-260.655"/>
</g>
<!-- Node154&#45;&gt;Node13 -->
<g id="edge97" class="edge"><title>Node154&#45;&gt;Node13</title>
<path fill="none" stroke="midnightblue" d="M1598.42,-292.283C1601.36,-291.834 1604.27,-291.405 1607.14,-291 1715.66,-275.713 2515.36,-280.025 2589.14,-199 2605.51,-181.029 2584.94,-154.917 2568.01,-138.455"/>
<polygon fill="midnightblue" stroke="midnightblue" points="2570.36,-135.856 2560.64,-131.634 2565.6,-140.994 2570.36,-135.856"/>
</g>
<!-- Node159&#45;&gt;Node1 -->
<g id="edge100" class="edge"><title>Node159&#45;&gt;Node1</title>
<path fill="none" stroke="midnightblue" d="M2649.59,-291.494C2701.79,-273.491 2760.14,-240.779 2760.14,-184.5 2760.14,-184.5 2760.14,-184.5 2760.14,-121 2760.14,-11.3483 2630.56,-72.4026 2522.14,-56 2262.93,-16.7831 1420.23,-11.737 1226.92,-11.0933"/>
<polygon fill="midnightblue" stroke="midnightblue" points="1226.67,-7.59258 1216.66,-11.0613 1226.65,-14.5925 1226.67,-7.59258"/>
</g>
<!-- Node159&#45;&gt;Node3 -->
<g id="edge102" class="edge"><title>Node159&#45;&gt;Node3</title>
<path fill="none" stroke="midnightblue" d="M2481.95,-292.974C2477.29,-292.248 2472.67,-291.583 2468.14,-291 2226.52,-259.844 1937.47,-250.147 1804.58,-247.218"/>
<polygon fill="midnightblue" stroke="midnightblue" points="1804.58,-243.717 1794.51,-247.002 1804.43,-250.715 1804.58,-243.717"/>
</g>
<!-- Node159&#45;&gt;Node13 -->
<g id="edge101" class="edge"><title>Node159&#45;&gt;Node13</title>
<path fill="none" stroke="midnightblue" d="M2595.04,-291.256C2605.57,-281.611 2616.55,-269.053 2622.14,-255 2636.45,-219.076 2640.89,-201.82 2622.14,-168 2613.76,-152.876 2597.94,-142.164 2583.26,-134.996"/>
<polygon fill="midnightblue" stroke="midnightblue" points="2584.43,-131.682 2573.87,-130.786 2581.57,-138.07 2584.43,-131.682"/>
</g>
<!-- Node161&#45;&gt;Node1 -->
<g id="edge105" class="edge"><title>Node161&#45;&gt;Node1</title>
<path fill="none" stroke="midnightblue" d="M783.101,-379.9C663.858,-373.151 431.501,-357.07 403.145,-333 369.113,-304.112 362.629,-275.618 381.145,-235 406.3,-179.817 531.172,-79.3437 587.145,-56 688.817,-13.597 1030.23,-10.5191 1147.33,-10.7501"/>
<polygon fill="midnightblue" stroke="midnightblue" points="1147.62,-14.2508 1157.63,-10.7803 1147.64,-7.25084 1147.62,-14.2508"/>
</g>
<!-- Node161&#45;&gt;Node3 -->
<g id="edge111" class="edge"><title>Node161&#45;&gt;Node3</title>
<path fill="none" stroke="midnightblue" d="M923.495,-383.505C1014.91,-381.773 1178.63,-372.7 1312.14,-333 1351.77,-321.217 1355.66,-303.249 1395.14,-291 1482.83,-263.799 1588.41,-253.039 1657.52,-248.783"/>
<polygon fill="midnightblue" stroke="midnightblue" points="1658.09,-252.256 1667.87,-248.178 1657.68,-245.268 1658.09,-252.256"/>
</g>
<!-- Node161&#45;&gt;Node16 -->
<g id="edge110" class="edge"><title>Node161&#45;&gt;Node16</title>
<path fill="none" stroke="midnightblue" d="M782.815,-382.618C687.754,-379.97 513.64,-369.954 370.145,-333 222.019,-294.853 164.38,-303.992 53.1447,-199 5.71111,-154.229 -20.1277,-107.308 20.1447,-56 38.6441,-32.431 124.031,-19.6153 171.713,-14.1858"/>
<polygon fill="midnightblue" stroke="midnightblue" points="172.279,-17.645 181.839,-13.0792 171.518,-10.6864 172.279,-17.645"/>
</g>
<!-- Node161&#45;&gt;Node21 -->
<g id="edge104" class="edge"><title>Node161&#45;&gt;Node21</title>
<path fill="none" stroke="midnightblue" d="M860.267,-374.87C867.649,-365.317 878.716,-349.127 883.145,-333 888.088,-315 890.193,-308.285 883.145,-291 861.546,-238.034 814.744,-251.966 793.145,-199 787.942,-186.242 787.245,-180.451 793.145,-168 799.273,-155.068 811.139,-144.617 822.285,-137.053"/>
<polygon fill="midnightblue" stroke="midnightblue" points="824.339,-139.896 830.947,-131.614 820.617,-133.968 824.339,-139.896"/>
</g>
<!-- Node161&#45;&gt;Node67 -->
<g id="edge113" class="edge"><title>Node161&#45;&gt;Node67</title>
<path fill="none" stroke="midnightblue" d="M790.946,-374.98C730.768,-366.246 637.172,-351.363 557.145,-333 552.787,-332 548.298,-330.888 543.798,-329.715"/>
<polygon fill="midnightblue" stroke="midnightblue" points="544.545,-326.292 533.979,-327.069 542.724,-333.051 544.545,-326.292"/>
</g>
<!-- Node161&#45;&gt;Node68 -->
<g id="edge109" class="edge"><title>Node161&#45;&gt;Node68</title>
<path fill="none" stroke="midnightblue" d="M783.127,-380.277C666.633,-374.201 443.34,-359.249 419.145,-333 402.284,-314.708 405.866,-283.969 410.572,-264.353"/>
<polygon fill="midnightblue" stroke="midnightblue" points="414.003,-265.076 413.253,-254.508 407.249,-263.237 414.003,-265.076"/>
</g>
<!-- Node161&#45;&gt;Node75 -->
<g id="edge112" class="edge"><title>Node161&#45;&gt;Node75</title>
<path fill="none" stroke="midnightblue" d="M872.444,-374.996C900.314,-362.716 952.026,-339.93 984.399,-325.666"/>
<polygon fill="midnightblue" stroke="midnightblue" points="986.037,-328.769 993.776,-321.534 983.214,-322.363 986.037,-328.769"/>
</g>
<!-- Node161&#45;&gt;Node127 -->
<g id="edge107" class="edge"><title>Node161&#45;&gt;Node127</title>
<path fill="none" stroke="midnightblue" d="M923.245,-382.606C1084.96,-379.931 1480,-369.728 1607.14,-333 1612.36,-331.493 1617.67,-329.175 1622.57,-326.644"/>
<polygon fill="midnightblue" stroke="midnightblue" points="1624.39,-329.635 1631.38,-321.67 1620.95,-323.54 1624.39,-329.635"/>
</g>
<!-- Node162 -->
<g id="node46" class="node"><title>Node162</title>
<polygon fill="white" stroke="#bfbfbf" points="566.145,-302.5 566.145,-321.5 620.145,-321.5 620.145,-302.5 566.145,-302.5"/>
<text text-anchor="middle" x="593.145" y="-309.5" font-family="FreeSans" font-size="10.00">fstream</text>
</g>
<!-- Node161&#45;&gt;Node162 -->
<g id="edge106" class="edge"><title>Node161&#45;&gt;Node162</title>
<path fill="none" stroke="midnightblue" d="M794.262,-374.951C748.289,-367.16 683.339,-353.673 629.145,-333 624.464,-331.215 619.649,-328.909 615.124,-326.5"/>
<polygon fill="midnightblue" stroke="midnightblue" points="616.804,-323.43 606.378,-321.548 613.355,-329.521 616.804,-323.43"/>
</g>
<!-- Node163 -->
<g id="node47" class="node"><title>Node163</title>
<polygon fill="white" stroke="#bfbfbf" points="638.645,-302.5 638.645,-321.5 679.645,-321.5 679.645,-302.5 638.645,-302.5"/>
<text text-anchor="middle" x="659.145" y="-309.5" font-family="FreeSans" font-size="10.00">tuple</text>
</g>
<!-- Node161&#45;&gt;Node163 -->
<g id="edge108" class="edge"><title>Node161&#45;&gt;Node163</title>
<path fill="none" stroke="midnightblue" d="M819.195,-374.962C786.476,-366.215 735.92,-351.323 694.145,-333 690.035,-331.197 685.788,-329.043 681.73,-326.826"/>
<polygon fill="midnightblue" stroke="midnightblue" points="683.175,-323.62 672.76,-321.676 679.69,-329.69 683.175,-323.62"/>
</g>
<!-- Node164 -->
<g id="node48" class="node"><title>Node164</title>
<g id="a_node48"><a xlink:href="RegularPointEmbedder_8h_source.html" target="_top" xlink:title="Computes the Gauss digitization of some Euclidean shape. ">
<polygon fill="white" stroke="red" points="736.145,-297 736.145,-327 874.145,-327 874.145,-297 736.145,-297"/>
<text text-anchor="start" x="744.145" y="-315" font-family="FreeSans" font-size="10.00">DGtal/kernel/RegularPoint</text>
<text text-anchor="middle" x="805.145" y="-304" font-family="FreeSans" font-size="10.00">Embedder.h</text>
</a>
</g>
</g>
<!-- Node161&#45;&gt;Node164 -->
<g id="edge114" class="edge"><title>Node161&#45;&gt;Node164</title>
<path fill="none" stroke="midnightblue" d="M847.259,-374.855C840.605,-365.083 829.511,-348.788 820.379,-335.376"/>
<polygon fill="midnightblue" stroke="midnightblue" points="823.249,-333.372 814.728,-327.076 817.463,-337.312 823.249,-333.372"/>
</g>
<!-- Node166 -->
<g id="node49" class="node"><title>Node166</title>
<g id="a_node49"><a xlink:href="MPolynomial_8h_source.html" target="_top" xlink:title="DGtal/math/MPolynomial.h">
<polygon fill="white" stroke="red" points="1159.14,-302.5 1159.14,-321.5 1303.14,-321.5 1303.14,-302.5 1159.14,-302.5"/>
<text text-anchor="middle" x="1231.14" y="-309.5" font-family="FreeSans" font-size="10.00">DGtal/math/MPolynomial.h</text>
</a>
</g>
</g>
<!-- Node161&#45;&gt;Node166 -->
<g id="edge117" class="edge"><title>Node161&#45;&gt;Node166</title>
<path fill="none" stroke="midnightblue" d="M898.74,-374.996C968.13,-362.054 1100.08,-337.444 1175.18,-323.438"/>
<polygon fill="midnightblue" stroke="midnightblue" points="1176.2,-326.808 1185.39,-321.534 1174.92,-319.927 1176.2,-326.808"/>
</g>
<!-- Node164&#45;&gt;Node1 -->
<g id="edge115" class="edge"><title>Node164&#45;&gt;Node1</title>
<path fill="none" stroke="midnightblue" d="M781.506,-296.771C717.298,-256.465 549.471,-139.07 626.145,-56 661.36,-17.8467 1024.84,-12.0278 1147.2,-11.1517"/>
<polygon fill="midnightblue" stroke="midnightblue" points="1147.29,-14.6512 1157.27,-11.087 1147.25,-7.65139 1147.29,-14.6512"/>
</g>
<!-- Node164&#45;&gt;Node3 -->
<g id="edge116" class="edge"><title>Node164&#45;&gt;Node3</title>
<path fill="none" stroke="midnightblue" d="M874.332,-299.181C894.236,-296.122 916.008,-293.102 936.145,-291 1201.07,-263.342 1517.55,-251.826 1657.91,-247.821"/>
<polygon fill="midnightblue" stroke="midnightblue" points="1658.22,-251.314 1668.12,-247.534 1658.02,-244.317 1658.22,-251.314"/>
</g>
<!-- Node166&#45;&gt;Node1 -->
<g id="edge118" class="edge"><title>Node166&#45;&gt;Node1</title>
<path fill="none" stroke="midnightblue" d="M1170.66,-302.486C1060.48,-286.968 838.136,-255.613 836.145,-255 782.195,-238.387 751.991,-246.914 722.145,-199 701.167,-165.324 714.918,-140.859 742.145,-112 743.511,-110.551 872.226,-56.5351 874.145,-56 969.925,-29.2848 1086.85,-17.8463 1147.06,-13.4407"/>
<polygon fill="midnightblue" stroke="midnightblue" points="1147.55,-16.9153 1157.28,-12.7214 1147.05,-9.93259 1147.55,-16.9153"/>
</g>
<!-- Node166&#45;&gt;Node2 -->
<g id="edge119" class="edge"><title>Node166&#45;&gt;Node2</title>
<path fill="none" stroke="midnightblue" d="M1289.84,-302.494C1321.05,-298.314 1360.11,-293.621 1395.14,-291 2025.94,-243.809 2799.36,-244.905 2968.47,-245.778"/>
<polygon fill="midnightblue" stroke="midnightblue" points="2968.49,-249.278 2978.51,-245.833 2968.53,-242.278 2968.49,-249.278"/>
</g>
<!-- Node166&#45;&gt;Node3 -->
<g id="edge120" class="edge"><title>Node166&#45;&gt;Node3</title>
<path fill="none" stroke="midnightblue" d="M1277.06,-302.495C1298.34,-298.705 1323.99,-294.351 1347.14,-291 1454.91,-275.408 1580.29,-261.507 1657.69,-253.415"/>
<polygon fill="midnightblue" stroke="midnightblue" points="1658.23,-256.877 1667.81,-252.361 1657.51,-249.915 1658.23,-256.877"/>
</g>
<!-- Node336&#45;&gt;Node154 -->
<g id="edge123" class="edge"><title>Node336&#45;&gt;Node154</title>
<path fill="none" stroke="midnightblue" d="M1501.14,-441.899C1501.14,-422.46 1501.14,-374.376 1501.14,-342.749"/>
<polygon fill="midnightblue" stroke="midnightblue" points="1504.64,-342.719 1501.14,-332.719 1497.64,-342.719 1504.64,-342.719"/>
</g>
<!-- Node336&#45;&gt;Node161 -->
<g id="edge122" class="edge"><title>Node336&#45;&gt;Node161</title>
<path fill="none" stroke="midnightblue" d="M1416.1,-441.969C1290.35,-429.356 1056.49,-405.898 933.502,-393.561"/>
<polygon fill="midnightblue" stroke="midnightblue" points="933.697,-390.063 923.397,-392.547 932.998,-397.028 933.697,-390.063"/>
</g>
</g>
</svg>
