<?xml version="1.0" encoding="UTF-8" standalone="no"?>
<!DOCTYPE svg PUBLIC "-//W3C//DTD SVG 1.1//EN"
 "http://www.w3.org/Graphics/SVG/1.1/DTD/svg11.dtd">
<!-- Generated by graphviz version 2.38.0 (20140413.2041)
 -->
<!-- Title: testProgressBar.cpp Pages: 1 -->
<!--zoomable 319 -->
<svg id="main" version="1.1" xmlns="http://www.w3.org/2000/svg" xmlns:xlink="http://www.w3.org/1999/xlink" xml:space="preserve" onload="init(evt)">
<style type="text/css"><![CDATA[
.edge:hover path { stroke: red; }
.edge:hover polygon { stroke: red; fill: red; }
]]></style>
<script type="text/javascript"><![CDATA[
var edges = document.getElementsByTagName('g');
if (edges && edges.length) {
  for (var i=0;i<edges.length;i++) {
    if (edges[i].id.substr(0,4)=='edge') {
      edges[i].setAttribute('class','edge');
    }
  }
}
]]></script>
        <defs>
                <circle id="rim" cx="0" cy="0" r="7"/>
                <circle id="rim2" cx="0" cy="0" r="3.5"/>
                <g id="zoomPlus">
                        <use xlink:href="#rim" fill="#404040">
                                <set attributeName="fill" to="#808080" begin="zoomplus.mouseover" end="zoomplus.mouseout"/>
                        </use>
                        <path d="M-4,0h8M0,-4v8" fill="none" stroke="white" stroke-width="1.5" pointer-events="none"/>
                </g>
                <g id="zoomMin">
                        <use xlink:href="#rim" fill="#404040">
                                <set attributeName="fill" to="#808080" begin="zoomminus.mouseover" end="zoomminus.mouseout"/>
                        </use>
                        <path d="M-4,0h8" fill="none" stroke="white" stroke-width="1.5" pointer-events="none"/>
                </g>
                <g id="dirArrow">
                        <path fill="none" stroke="white" stroke-width="1.5" d="M0,-3.0v7 M-2.5,-0.5L0,-3.0L2.5,-0.5"/>
                </g>
               <g id="resetDef">
                       <use xlink:href="#rim2" fill="#404040">
                               <set attributeName="fill" to="#808080" begin="reset.mouseover" end="reset.mouseout"/>
                       </use>
               </g>
        </defs>

<script type="text/javascript">
var viewWidth = 2768;
var viewHeight = 319;
var sectionId = 'dynsection-0';
</script>
<script xlink:href="svgpan.js"/>
<svg id="graph" class="graph">
<g id="viewport">
<title>testProgressBar.cpp</title>
<polygon fill="white" stroke="none" points="-4,4 -4,-315 2763.5,-315 2763.5,4 -4,4"/>
<!-- Node0 -->
<g id="node1" class="node"><title>Node0</title>
<polygon fill="#bfbfbf" stroke="black" points="2034,-291.5 2034,-310.5 2147,-310.5 2147,-291.5 2034,-291.5"/>
<text text-anchor="middle" x="2090.5" y="-298.5" font-family="FreeSans" font-size="10.00">testProgressBar.cpp</text>
</g>
<!-- Node1 -->
<g id="node2" class="node"><title>Node1</title>
<polygon fill="white" stroke="#bfbfbf" points="1610,-0.5 1610,-19.5 1669,-19.5 1669,-0.5 1610,-0.5"/>
<text text-anchor="middle" x="1639.5" y="-7.5" font-family="FreeSans" font-size="10.00">iostream</text>
</g>
<!-- Node0&#45;&gt;Node1 -->
<g id="edge1" class="edge"><title>Node0&#45;&gt;Node1</title>
<path fill="none" stroke="midnightblue" d="M2147.25,-296.167C2308.79,-284.504 2759.5,-246.415 2759.5,-184.5 2759.5,-184.5 2759.5,-184.5 2759.5,-121 2759.5,-80.7686 2733.21,-72.4703 2696.5,-56 2602.44,-13.7923 1860.29,-11.0064 1679.23,-10.9594"/>
<polygon fill="midnightblue" stroke="midnightblue" points="1679.09,-7.45928 1669.09,-10.9595 1679.09,-14.4593 1679.09,-7.45928"/>
</g>
<!-- Node2 -->
<g id="node3" class="node"><title>Node2</title>
<g id="a_node3"><a xlink:href="Common_8h_source.html" target="_top" xlink:title="DGtal/base/Common.h">
<polygon fill="white" stroke="black" points="1359.5,-235.5 1359.5,-254.5 1485.5,-254.5 1485.5,-235.5 1359.5,-235.5"/>
<text text-anchor="middle" x="1422.5" y="-242.5" font-family="FreeSans" font-size="10.00">DGtal/base/Common.h</text>
</a>
</g>
</g>
<!-- Node0&#45;&gt;Node2 -->
<g id="edge2" class="edge"><title>Node0&#45;&gt;Node2</title>
<path fill="none" stroke="midnightblue" d="M2033.83,-295.419C1913.02,-285.653 1630.2,-262.79 1495.85,-251.93"/>
<polygon fill="midnightblue" stroke="midnightblue" points="1495.91,-248.423 1485.66,-251.106 1495.35,-255.4 1495.91,-248.423"/>
</g>
<!-- Node2&#45;&gt;Node1 -->
<g id="edge3" class="edge"><title>Node2&#45;&gt;Node1</title>
<path fill="none" stroke="midnightblue" d="M1485.69,-239.525C1545.33,-233.944 1628.9,-222.168 1651.5,-199 1696.35,-153.015 1692.49,-117.049 1672.5,-56 1669.01,-45.3397 1661.93,-35.1174 1655.21,-27.1175"/>
<polygon fill="midnightblue" stroke="midnightblue" points="1657.8,-24.7633 1648.52,-19.66 1652.6,-29.4395 1657.8,-24.7633"/>
</g>
<!-- Node3 -->
<g id="node4" class="node"><title>Node3</title>
<polygon fill="white" stroke="#bfbfbf" points="0,-174 0,-193 63,-193 63,-174 0,-174"/>
<text text-anchor="middle" x="31.5" y="-181" font-family="FreeSans" font-size="10.00">exception</text>
</g>
<!-- Node2&#45;&gt;Node3 -->
<g id="edge4" class="edge"><title>Node2&#45;&gt;Node3</title>
<path fill="none" stroke="midnightblue" d="M1359.38,-244.157C1128.28,-244.381 328.664,-241.959 77.5,-199 73.2288,-198.269 68.8046,-197.242 64.4639,-196.067"/>
<polygon fill="midnightblue" stroke="midnightblue" points="65.1814,-192.629 54.5984,-193.129 63.1835,-199.337 65.1814,-192.629"/>
</g>
<!-- Node4 -->
<g id="node5" class="node"><title>Node4</title>
<polygon fill="white" stroke="#bfbfbf" points="2303.5,-56.5 2303.5,-75.5 2365.5,-75.5 2365.5,-56.5 2303.5,-56.5"/>
<text text-anchor="middle" x="2334.5" y="-63.5" font-family="FreeSans" font-size="10.00">algorithm</text>
</g>
<!-- Node2&#45;&gt;Node4 -->
<g id="edge5" class="edge"><title>Node2&#45;&gt;Node4</title>
<path fill="none" stroke="midnightblue" d="M1485.57,-242.642C1656.77,-238.623 2121.65,-225.389 2185.5,-199 2201.39,-192.431 2282.65,-116.28 2318.02,-82.7194"/>
<polygon fill="midnightblue" stroke="midnightblue" points="2320.74,-84.954 2325.58,-75.5269 2315.92,-79.8811 2320.74,-84.954"/>
</g>
<!-- Node5 -->
<g id="node6" class="node"><title>Node5</title>
<polygon fill="white" stroke="#bfbfbf" points="119.5,-174 119.5,-193 221.5,-193 221.5,-174 119.5,-174"/>
<text text-anchor="middle" x="170.5" y="-181" font-family="FreeSans" font-size="10.00">boost/version.hpp</text>
</g>
<!-- Node2&#45;&gt;Node5 -->
<g id="edge6" class="edge"><title>Node2&#45;&gt;Node5</title>
<path fill="none" stroke="midnightblue" d="M1359.41,-243.278C1145.92,-240.573 451.666,-229.587 230.5,-199 224.091,-198.114 217.368,-196.839 210.835,-195.408"/>
<polygon fill="midnightblue" stroke="midnightblue" points="211.332,-191.93 200.798,-193.065 209.741,-198.747 211.332,-191.93"/>
</g>
<!-- Node6 -->
<g id="node7" class="node"><title>Node6</title>
<polygon fill="white" stroke="#bfbfbf" points="240,-174 240,-193 379,-193 379,-174 240,-174"/>
<text text-anchor="middle" x="309.5" y="-181" font-family="FreeSans" font-size="10.00">boost/concept_check.hpp</text>
</g>
<!-- Node2&#45;&gt;Node6 -->
<g id="edge7" class="edge"><title>Node2&#45;&gt;Node6</title>
<path fill="none" stroke="midnightblue" d="M1359.25,-244.331C1197.15,-244.513 753.83,-240.804 387.5,-199 378.355,-197.956 368.669,-196.469 359.348,-194.842"/>
<polygon fill="midnightblue" stroke="midnightblue" points="359.884,-191.382 349.419,-193.035 358.631,-198.269 359.884,-191.382"/>
</g>
<!-- Node7 -->
<g id="node8" class="node"><title>Node7</title>
<polygon fill="white" stroke="#bfbfbf" points="397,-174 397,-193 526,-193 526,-174 397,-174"/>
<text text-anchor="middle" x="461.5" y="-181" font-family="FreeSans" font-size="10.00">boost/static_assert.hpp</text>
</g>
<!-- Node2&#45;&gt;Node7 -->
<g id="edge8" class="edge"><title>Node2&#45;&gt;Node7</title>
<path fill="none" stroke="midnightblue" d="M1359.24,-243.945C1213.31,-243.13 842.032,-237.129 534.5,-199 526.113,-197.96 517.246,-196.505 508.693,-194.915"/>
<polygon fill="midnightblue" stroke="midnightblue" points="509.327,-191.473 498.843,-193.003 507.993,-198.344 509.327,-191.473"/>
</g>
<!-- Node8 -->
<g id="node9" class="node"><title>Node8</title>
<polygon fill="white" stroke="#bfbfbf" points="544,-174 544,-193 683,-193 683,-174 544,-174"/>
<text text-anchor="middle" x="613.5" y="-181" font-family="FreeSans" font-size="10.00">boost/concept/assert.hpp</text>
</g>
<!-- Node2&#45;&gt;Node8 -->
<g id="edge9" class="edge"><title>Node2&#45;&gt;Node8</title>
<path fill="none" stroke="midnightblue" d="M1359.29,-242.654C1232.43,-239.39 937.963,-228.983 692.5,-199 683.453,-197.895 673.877,-196.409 664.63,-194.809"/>
<polygon fill="midnightblue" stroke="midnightblue" points="665.228,-191.36 654.767,-193.04 663.992,-198.25 665.228,-191.36"/>
</g>
<!-- Node9 -->
<g id="node10" class="node"><title>Node9</title>
<polygon fill="white" stroke="#bfbfbf" points="701.5,-174 701.5,-193 849.5,-193 849.5,-174 701.5,-174"/>
<text text-anchor="middle" x="775.5" y="-181" font-family="FreeSans" font-size="10.00">boost/concept/requires.hpp</text>
</g>
<!-- Node2&#45;&gt;Node9 -->
<g id="edge10" class="edge"><title>Node2&#45;&gt;Node9</title>
<path fill="none" stroke="midnightblue" d="M1359.29,-240.885C1254.77,-235.304 1039.51,-221.981 858.5,-199 849.229,-197.823 839.415,-196.33 829.908,-194.753"/>
<polygon fill="midnightblue" stroke="midnightblue" points="830.198,-191.252 819.751,-193.019 829.02,-198.152 830.198,-191.252"/>
</g>
<!-- Node10 -->
<g id="node11" class="node"><title>Node10</title>
<polygon fill="white" stroke="#bfbfbf" points="867.5,-168.5 867.5,-198.5 987.5,-198.5 987.5,-168.5 867.5,-168.5"/>
<text text-anchor="start" x="875.5" y="-186.5" font-family="FreeSans" font-size="10.00">boost/iterator/iterator</text>
<text text-anchor="middle" x="927.5" y="-175.5" font-family="FreeSans" font-size="10.00">_concepts.hpp</text>
</g>
<!-- Node2&#45;&gt;Node10 -->
<g id="edge11" class="edge"><title>Node2&#45;&gt;Node10</title>
<path fill="none" stroke="midnightblue" d="M1359.28,-239.427C1277.74,-233.062 1131.33,-220.063 997.526,-199.231"/>
<polygon fill="midnightblue" stroke="midnightblue" points="997.929,-195.752 987.506,-197.653 996.839,-202.666 997.929,-195.752"/>
</g>
<!-- Node11 -->
<g id="node12" class="node"><title>Node11</title>
<polygon fill="white" stroke="#bfbfbf" points="1005,-174 1005,-193 1164,-193 1164,-174 1005,-174"/>
<text text-anchor="middle" x="1084.5" y="-181" font-family="FreeSans" font-size="10.00">boost/concept_archetype.hpp</text>
</g>
<!-- Node2&#45;&gt;Node11 -->
<g id="edge12" class="edge"><title>Node2&#45;&gt;Node11</title>
<path fill="none" stroke="midnightblue" d="M1374.07,-235.475C1313.08,-224.739 1208.37,-206.306 1142.98,-194.795"/>
<polygon fill="midnightblue" stroke="midnightblue" points="1143.29,-191.296 1132.84,-193.009 1142.08,-198.19 1143.29,-191.296"/>
</g>
<!-- Node12 -->
<g id="node13" class="node"><title>Node12</title>
<polygon fill="white" stroke="#bfbfbf" points="2184,-112.5 2184,-131.5 2231,-131.5 2231,-112.5 2184,-112.5"/>
<text text-anchor="middle" x="2207.5" y="-119.5" font-family="FreeSans" font-size="10.00">cmath</text>
</g>
<!-- Node2&#45;&gt;Node12 -->
<g id="edge13" class="edge"><title>Node2&#45;&gt;Node12</title>
<path fill="none" stroke="midnightblue" d="M1485.77,-243.342C1653.41,-241.149 2100.15,-232.221 2157.5,-199 2179.66,-186.162 2193.81,-159.09 2201.21,-140.971"/>
<polygon fill="midnightblue" stroke="midnightblue" points="2204.52,-142.103 2204.79,-131.512 2197.97,-139.624 2204.52,-142.103"/>
</g>
<!-- Node13 -->
<g id="node14" class="node"><title>Node13</title>
<polygon fill="white" stroke="#bfbfbf" points="1220,-174 1220,-193 1269,-193 1269,-174 1220,-174"/>
<text text-anchor="middle" x="1244.5" y="-181" font-family="FreeSans" font-size="10.00">stdio.h</text>
</g>
<!-- Node2&#45;&gt;Node13 -->
<g id="edge14" class="edge"><title>Node2&#45;&gt;Node13</title>
<path fill="none" stroke="midnightblue" d="M1391.33,-235.432C1361.73,-227.037 1316.14,-213.433 1277.5,-199 1275.85,-198.383 1274.16,-197.726 1272.46,-197.045"/>
<polygon fill="midnightblue" stroke="midnightblue" points="1273.42,-193.653 1262.85,-193.002 1270.71,-200.105 1273.42,-193.653"/>
</g>
<!-- Node14 -->
<g id="node15" class="node"><title>Node14</title>
<g id="a_node15"><a xlink:href="Config_8h_source.html" target="_top" xlink:title="DGtal/base/Config.h">
<polygon fill="white" stroke="black" points="1041.5,-56.5 1041.5,-75.5 1153.5,-75.5 1153.5,-56.5 1041.5,-56.5"/>
<text text-anchor="middle" x="1097.5" y="-63.5" font-family="FreeSans" font-size="10.00">DGtal/base/Config.h</text>
</a>
</g>
</g>
<!-- Node2&#45;&gt;Node14 -->
<g id="edge15" class="edge"><title>Node2&#45;&gt;Node14</title>
<path fill="none" stroke="midnightblue" d="M1424.72,-235.441C1430.37,-211.437 1442.36,-143.2 1405.5,-112 1387.37,-96.6507 1248.81,-81.1552 1163.83,-72.9571"/>
<polygon fill="midnightblue" stroke="midnightblue" points="1164.04,-69.4605 1153.75,-71.994 1163.37,-76.4288 1164.04,-69.4605"/>
</g>
<!-- Node16 -->
<g id="node17" class="node"><title>Node16</title>
<g id="a_node17"><a xlink:href="Trace_8h_source.html" target="_top" xlink:title="DGtal/base/Trace.h">
<polygon fill="white" stroke="black" points="1287,-174 1287,-193 1394,-193 1394,-174 1287,-174"/>
<text text-anchor="middle" x="1340.5" y="-181" font-family="FreeSans" font-size="10.00">DGtal/base/Trace.h</text>
</a>
</g>
</g>
<!-- Node2&#45;&gt;Node16 -->
<g id="edge18" class="edge"><title>Node2&#45;&gt;Node16</title>
<path fill="none" stroke="midnightblue" d="M1410.75,-235.475C1397.72,-226.02 1376.46,-210.596 1360.74,-199.187"/>
<polygon fill="midnightblue" stroke="midnightblue" points="1362.38,-196.049 1352.23,-193.009 1358.27,-201.715 1362.38,-196.049"/>
</g>
<!-- Node23 -->
<g id="node24" class="node"><title>Node23</title>
<g id="a_node24"><a xlink:href="TraceWriterTerm_8h_source.html" target="_top" xlink:title="DGtal/base/TraceWriterTerm.h">
<polygon fill="white" stroke="black" points="845,-112.5 845,-131.5 1002,-131.5 1002,-112.5 845,-112.5"/>
<text text-anchor="middle" x="923.5" y="-119.5" font-family="FreeSans" font-size="10.00">DGtal/base/TraceWriterTerm.h</text>
</a>
</g>
</g>
<!-- Node2&#45;&gt;Node23 -->
<g id="edge41" class="edge"><title>Node2&#45;&gt;Node23</title>
<path fill="none" stroke="midnightblue" d="M1359.22,-238.491C1315.69,-232.838 1257.5,-221.513 1210.5,-199 1190.84,-189.584 1192.3,-177.117 1172.5,-168 1142.83,-154.337 1063.6,-141.361 1002.4,-132.886"/>
<polygon fill="midnightblue" stroke="midnightblue" points="1002.74,-129.4 992.36,-131.513 1001.79,-136.336 1002.74,-129.4"/>
</g>
<!-- Node24 -->
<g id="node25" class="node"><title>Node24</title>
<g id="a_node25"><a xlink:href="Assert_8h_source.html" target="_top" xlink:title="DGtal/base/Assert.h">
<polygon fill="white" stroke="black" points="1284,-112.5 1284,-131.5 1397,-131.5 1397,-112.5 1284,-112.5"/>
<text text-anchor="middle" x="1340.5" y="-119.5" font-family="FreeSans" font-size="10.00">DGtal/base/Assert.h</text>
</a>
</g>
</g>
<!-- Node2&#45;&gt;Node24 -->
<g id="edge46" class="edge"><title>Node2&#45;&gt;Node24</title>
<path fill="none" stroke="midnightblue" d="M1422.08,-235.242C1420.98,-220.233 1416.99,-189.168 1402.5,-168 1393.55,-154.928 1379.51,-144.28 1367.05,-136.629"/>
<polygon fill="midnightblue" stroke="midnightblue" points="1368.77,-133.575 1358.36,-131.596 1365.26,-139.634 1368.77,-133.575"/>
</g>
<!-- Node27 -->
<g id="node28" class="node"><title>Node27</title>
<g id="a_node28"><a xlink:href="TraceWriterFile_8h_source.html" target="_top" xlink:title="DGtal/base/TraceWriterFile.h">
<polygon fill="white" stroke="black" points="640,-112.5 640,-131.5 789,-131.5 789,-112.5 640,-112.5"/>
<text text-anchor="middle" x="714.5" y="-119.5" font-family="FreeSans" font-size="10.00">DGtal/base/TraceWriterFile.h</text>
</a>
</g>
</g>
<!-- Node2&#45;&gt;Node27 -->
<g id="edge42" class="edge"><title>Node2&#45;&gt;Node27</title>
<path fill="none" stroke="midnightblue" d="M1359.39,-244.242C1103.45,-244.919 154.324,-244.353 110.5,-199 100.926,-189.092 101.127,-178.098 110.5,-168 145.063,-130.766 471.655,-124.104 629.668,-123.074"/>
<polygon fill="midnightblue" stroke="midnightblue" points="629.848,-126.574 639.827,-123.015 629.806,-119.574 629.848,-126.574"/>
</g>
<!-- Node28 -->
<g id="node29" class="node"><title>Node28</title>
<g id="a_node29"><a xlink:href="ConceptUtils_8h_source.html" target="_top" xlink:title="DGtal/base/ConceptUtils.h">
<polygon fill="white" stroke="black" points="2408,-112.5 2408,-131.5 2551,-131.5 2551,-112.5 2408,-112.5"/>
<text text-anchor="middle" x="2479.5" y="-119.5" font-family="FreeSans" font-size="10.00">DGtal/base/ConceptUtils.h</text>
</a>
</g>
</g>
<!-- Node2&#45;&gt;Node28 -->
<g id="edge47" class="edge"><title>Node2&#45;&gt;Node28</title>
<path fill="none" stroke="midnightblue" d="M1485.76,-243.829C1661.64,-242.871 2153.78,-236.792 2310.5,-199 2365.48,-185.741 2424.65,-154.849 2456.33,-136.796"/>
<polygon fill="midnightblue" stroke="midnightblue" points="2458.34,-139.677 2465.24,-131.64 2454.83,-133.618 2458.34,-139.677"/>
</g>
<!-- Node29 -->
<g id="node30" class="node"><title>Node29</title>
<g id="a_node30"><a xlink:href="BasicTypes_8h_source.html" target="_top" xlink:title="DGtal/base/BasicTypes.h">
<polygon fill="white" stroke="black" points="1719.5,-112.5 1719.5,-131.5 1853.5,-131.5 1853.5,-112.5 1719.5,-112.5"/>
<text text-anchor="middle" x="1786.5" y="-119.5" font-family="FreeSans" font-size="10.00">DGtal/base/BasicTypes.h</text>
</a>
</g>
</g>
<!-- Node2&#45;&gt;Node29 -->
<g id="edge49" class="edge"><title>Node2&#45;&gt;Node29</title>
<path fill="none" stroke="midnightblue" d="M1485.55,-244.426C1545.1,-242.478 1635.47,-233.314 1705.5,-199 1733.81,-185.127 1759,-157.974 1773.51,-140.163"/>
<polygon fill="midnightblue" stroke="midnightblue" points="1776.64,-141.842 1780.08,-131.82 1771.14,-137.51 1776.64,-141.842"/>
</g>
<!-- Node32 -->
<g id="node33" class="node"><title>Node32</title>
<g id="a_node33"><a xlink:href="BasicFunctors_8h_source.html" target="_top" xlink:title="DGtal/base/BasicFunctors.h">
<polygon fill="white" stroke="black" points="2000.5,-174 2000.5,-193 2148.5,-193 2148.5,-174 2000.5,-174"/>
<text text-anchor="middle" x="2074.5" y="-181" font-family="FreeSans" font-size="10.00">DGtal/base/BasicFunctors.h</text>
</a>
</g>
</g>
<!-- Node2&#45;&gt;Node32 -->
<g id="edge54" class="edge"><title>Node2&#45;&gt;Node32</title>
<path fill="none" stroke="midnightblue" d="M1485.51,-237.857C1603.57,-226.795 1857.84,-203.582 1990.37,-191.757"/>
<polygon fill="midnightblue" stroke="midnightblue" points="1990.83,-195.23 2000.48,-190.856 1990.21,-188.258 1990.83,-195.23"/>
</g>
<!-- Node40 -->
<g id="node41" class="node"><title>Node40</title>
<g id="a_node41"><a xlink:href="BasicArchetypes_8h_source.html" target="_top" xlink:title="DGtal/base/BasicArchetypes.h">
<polygon fill="white" stroke="black" points="2570,-112.5 2570,-131.5 2731,-131.5 2731,-112.5 2570,-112.5"/>
<text text-anchor="middle" x="2650.5" y="-119.5" font-family="FreeSans" font-size="10.00">DGtal/base/BasicArchetypes.h</text>
</a>
</g>
</g>
<!-- Node2&#45;&gt;Node40 -->
<g id="edge69" class="edge"><title>Node2&#45;&gt;Node40</title>
<path fill="none" stroke="midnightblue" d="M1485.52,-242.753C1668.22,-238.859 2195.97,-225.568 2366.5,-199 2458.41,-184.68 2563.4,-152.229 2616.26,-134.722"/>
<polygon fill="midnightblue" stroke="midnightblue" points="2617.43,-138.019 2625.81,-131.532 2615.22,-131.379 2617.43,-138.019"/>
</g>
<!-- Node41 -->
<g id="node42" class="node"><title>Node41</title>
<g id="a_node42"><a xlink:href="Exceptions_8h_source.html" target="_top" xlink:title="DGtal/base/Exceptions.h">
<polygon fill="white" stroke="black" points="1508.5,-174 1508.5,-193 1642.5,-193 1642.5,-174 1508.5,-174"/>
<text text-anchor="middle" x="1575.5" y="-181" font-family="FreeSans" font-size="10.00">DGtal/base/Exceptions.h</text>
</a>
</g>
</g>
<!-- Node2&#45;&gt;Node41 -->
<g id="edge71" class="edge"><title>Node2&#45;&gt;Node41</title>
<path fill="none" stroke="midnightblue" d="M1444.42,-235.475C1470.55,-225.313 1514.41,-208.256 1544.13,-196.7"/>
<polygon fill="midnightblue" stroke="midnightblue" points="1545.57,-199.896 1553.62,-193.009 1543.03,-193.372 1545.57,-199.896"/>
</g>
<!-- Node14&#45;&gt;Node1 -->
<g id="edge16" class="edge"><title>Node14&#45;&gt;Node1</title>
<path fill="none" stroke="midnightblue" d="M1153.72,-59.3992C1263.6,-48.4509 1504.45,-24.4552 1599.64,-14.9708"/>
<polygon fill="midnightblue" stroke="midnightblue" points="1600.12,-18.441 1609.72,-13.9668 1599.42,-11.4755 1600.12,-18.441"/>
</g>
<!-- Node15 -->
<g id="node16" class="node"><title>Node15</title>
<polygon fill="white" stroke="#bfbfbf" points="953.5,-0.5 953.5,-19.5 997.5,-19.5 997.5,-0.5 953.5,-0.5"/>
<text text-anchor="middle" x="975.5" y="-7.5" font-family="FreeSans" font-size="10.00">string</text>
</g>
<!-- Node14&#45;&gt;Node15 -->
<g id="edge17" class="edge"><title>Node14&#45;&gt;Node15</title>
<path fill="none" stroke="midnightblue" d="M1078.17,-56.4435C1058.18,-47.5961 1026.76,-33.6875 1003.94,-23.5865"/>
<polygon fill="midnightblue" stroke="midnightblue" points="1005.3,-20.3635 994.741,-19.5164 1002.47,-26.7645 1005.3,-20.3635"/>
</g>
<!-- Node16&#45;&gt;Node1 -->
<g id="edge19" class="edge"><title>Node16&#45;&gt;Node1</title>
<path fill="none" stroke="midnightblue" d="M1394.11,-176.532C1453.26,-168.957 1543.51,-154.153 1569.5,-132 1597.14,-108.441 1580.48,-86.934 1599.5,-56 1605.99,-45.4486 1615.04,-35.0235 1622.89,-26.8685"/>
<polygon fill="midnightblue" stroke="midnightblue" points="1625.61,-29.0975 1630.21,-19.5497 1620.66,-24.1497 1625.61,-29.0975"/>
</g>
<!-- Node16&#45;&gt;Node14 -->
<g id="edge23" class="edge"><title>Node16&#45;&gt;Node14</title>
<path fill="none" stroke="midnightblue" d="M1329.89,-173.798C1311.75,-159.269 1273.15,-129.904 1236.5,-112 1206.56,-97.3742 1170.75,-85.9092 1142.97,-78.2125"/>
<polygon fill="midnightblue" stroke="midnightblue" points="1143.69,-74.7824 1133.13,-75.5485 1141.86,-81.5393 1143.69,-74.7824"/>
</g>
<!-- Node16&#45;&gt;Node15 -->
<g id="edge21" class="edge"><title>Node16&#45;&gt;Node15</title>
<path fill="none" stroke="midnightblue" d="M1306.61,-173.93C1273.02,-165.005 1220.38,-149.846 1176.5,-132 1158.46,-124.661 1155.43,-119.623 1137.5,-112 1092.1,-92.6945 1073.48,-103.471 1032.5,-76 1013.68,-63.385 997.24,-43.0498 986.913,-28.4833"/>
<polygon fill="midnightblue" stroke="midnightblue" points="989.573,-26.1719 981.047,-19.8833 983.791,-30.1166 989.573,-26.1719"/>
</g>
<!-- Node17 -->
<g id="node18" class="node"><title>Node17</title>
<polygon fill="white" stroke="#bfbfbf" points="697,-0.5 697,-19.5 754,-19.5 754,-0.5 697,-0.5"/>
<text text-anchor="middle" x="725.5" y="-7.5" font-family="FreeSans" font-size="10.00">ostream</text>
</g>
<!-- Node16&#45;&gt;Node17 -->
<g id="edge20" class="edge"><title>Node16&#45;&gt;Node17</title>
<path fill="none" stroke="midnightblue" d="M1308.32,-173.982C1298.5,-171.681 1287.61,-169.434 1277.5,-168 1206.21,-157.889 679.977,-184.307 630.5,-132 596.323,-95.8683 662.136,-48.2768 700.554,-25.0162"/>
<polygon fill="midnightblue" stroke="midnightblue" points="702.819,-27.7439 709.654,-19.6485 699.262,-21.7147 702.819,-27.7439"/>
</g>
<!-- Node18 -->
<g id="node19" class="node"><title>Node18</title>
<polygon fill="white" stroke="#bfbfbf" points="1185.5,-112.5 1185.5,-131.5 1227.5,-131.5 1227.5,-112.5 1185.5,-112.5"/>
<text text-anchor="middle" x="1206.5" y="-119.5" font-family="FreeSans" font-size="10.00">stack</text>
</g>
<!-- Node16&#45;&gt;Node18 -->
<g id="edge22" class="edge"><title>Node16&#45;&gt;Node18</title>
<path fill="none" stroke="midnightblue" d="M1321.3,-173.975C1298.71,-163.945 1261,-147.2 1235,-135.655"/>
<polygon fill="midnightblue" stroke="midnightblue" points="1236.22,-132.369 1225.66,-131.509 1233.38,-138.766 1236.22,-132.369"/>
</g>
<!-- Node19 -->
<g id="node20" class="node"><title>Node19</title>
<g id="a_node20"><a xlink:href="Clock_8h_source.html" target="_top" xlink:title="DGtal/base/Clock.h">
<polygon fill="white" stroke="black" points="1454,-112.5 1454,-131.5 1561,-131.5 1561,-112.5 1454,-112.5"/>
<text text-anchor="middle" x="1507.5" y="-119.5" font-family="FreeSans" font-size="10.00">DGtal/base/Clock.h</text>
</a>
</g>
</g>
<!-- Node16&#45;&gt;Node19 -->
<g id="edge24" class="edge"><title>Node16&#45;&gt;Node19</title>
<path fill="none" stroke="midnightblue" d="M1364.43,-173.975C1393.2,-163.725 1441.66,-146.459 1474.1,-134.899"/>
<polygon fill="midnightblue" stroke="midnightblue" points="1475.37,-138.162 1483.62,-131.509 1473.02,-131.568 1475.37,-138.162"/>
</g>
<!-- Node22 -->
<g id="node23" class="node"><title>Node22</title>
<g id="a_node23"><a xlink:href="TraceWriter_8h_source.html" target="_top" xlink:title="DGtal/base/TraceWriter.h">
<polygon fill="white" stroke="black" points="776,-56.5 776,-75.5 909,-75.5 909,-56.5 776,-56.5"/>
<text text-anchor="middle" x="842.5" y="-63.5" font-family="FreeSans" font-size="10.00">DGtal/base/TraceWriter.h</text>
</a>
</g>
</g>
<!-- Node16&#45;&gt;Node22 -->
<g id="edge28" class="edge"><title>Node16&#45;&gt;Node22</title>
<path fill="none" stroke="midnightblue" d="M1307.65,-173.992C1297.99,-171.748 1287.37,-169.53 1277.5,-168 1228.81,-160.454 868.898,-168.228 835.5,-132 824.11,-119.644 828.236,-99.8376 833.741,-85.332"/>
<polygon fill="midnightblue" stroke="midnightblue" points="837.066,-86.4589 837.791,-75.8889 830.633,-83.6998 837.066,-86.4589"/>
</g>
<!-- Node16&#45;&gt;Node23 -->
<g id="edge31" class="edge"><title>Node16&#45;&gt;Node23</title>
<path fill="none" stroke="midnightblue" d="M1306.3,-173.974C1296.99,-171.834 1286.89,-169.673 1277.5,-168 1227.29,-159.053 1095.22,-142.999 1007.37,-132.682"/>
<polygon fill="midnightblue" stroke="midnightblue" points="1007.76,-129.203 997.417,-131.515 1006.94,-136.156 1007.76,-129.203"/>
</g>
<!-- Node16&#45;&gt;Node24 -->
<g id="edge36" class="edge"><title>Node16&#45;&gt;Node24</title>
<path fill="none" stroke="midnightblue" d="M1335.6,-173.975C1333.77,-165.58 1333.3,-152.481 1334.19,-141.663"/>
<polygon fill="midnightblue" stroke="midnightblue" points="1337.69,-141.897 1335.6,-131.509 1330.75,-140.929 1337.69,-141.897"/>
</g>
<!-- Node26 -->
<g id="node27" class="node"><title>Node26</title>
<g id="a_node27"><a xlink:href="Trace_8ih_source.html" target="_top" xlink:title="DGtal/base/Trace.ih">
<polygon fill="white" stroke="black" points="1020,-112.5 1020,-131.5 1129,-131.5 1129,-112.5 1020,-112.5"/>
<text text-anchor="middle" x="1074.5" y="-119.5" font-family="FreeSans" font-size="10.00">DGtal/base/Trace.ih</text>
</a>
</g>
</g>
<!-- Node16&#45;&gt;Node26 -->
<g id="edge40" class="edge"><title>Node16&#45;&gt;Node26</title>
<path fill="none" stroke="midnightblue" d="M1303.53,-173.939C1294.99,-171.975 1285.93,-169.904 1277.5,-168 1224.91,-156.12 1164.6,-142.786 1123.46,-133.738"/>
<polygon fill="midnightblue" stroke="midnightblue" points="1123.96,-130.263 1113.44,-131.534 1122.45,-137.099 1123.96,-130.263"/>
</g>
<!-- Node19&#45;&gt;Node1 -->
<g id="edge25" class="edge"><title>Node19&#45;&gt;Node1</title>
<path fill="none" stroke="midnightblue" d="M1509.11,-112.264C1512.05,-98.5788 1519.53,-71.9995 1535.5,-56 1553.02,-38.4524 1578.5,-27.2756 1599.85,-20.4499"/>
<polygon fill="midnightblue" stroke="midnightblue" points="1601.06,-23.7423 1609.64,-17.5264 1599.05,-17.0351 1601.06,-23.7423"/>
</g>
<!-- Node20 -->
<g id="node21" class="node"><title>Node20</title>
<polygon fill="white" stroke="#bfbfbf" points="1616,-56.5 1616,-75.5 1663,-75.5 1663,-56.5 1616,-56.5"/>
<text text-anchor="middle" x="1639.5" y="-63.5" font-family="FreeSans" font-size="10.00">cstdlib</text>
</g>
<!-- Node19&#45;&gt;Node20 -->
<g id="edge26" class="edge"><title>Node19&#45;&gt;Node20</title>
<path fill="none" stroke="midnightblue" d="M1528.42,-112.444C1550.24,-103.517 1584.65,-89.4387 1609.39,-79.3168"/>
<polygon fill="midnightblue" stroke="midnightblue" points="1610.75,-82.5422 1618.68,-75.5164 1608.1,-76.0634 1610.75,-82.5422"/>
</g>
<!-- Node21 -->
<g id="node22" class="node"><title>Node21</title>
<g id="a_node22"><a xlink:href="Clock_8ih_source.html" target="_top" xlink:title="DGtal/base/Clock.ih">
<polygon fill="white" stroke="black" points="1373.5,-56.5 1373.5,-75.5 1483.5,-75.5 1483.5,-56.5 1373.5,-56.5"/>
<text text-anchor="middle" x="1428.5" y="-63.5" font-family="FreeSans" font-size="10.00">DGtal/base/Clock.ih</text>
</a>
</g>
</g>
<!-- Node19&#45;&gt;Node21 -->
<g id="edge27" class="edge"><title>Node19&#45;&gt;Node21</title>
<path fill="none" stroke="midnightblue" d="M1494.81,-112.324C1482.6,-103.979 1463.92,-91.2122 1449.5,-81.3524"/>
<polygon fill="midnightblue" stroke="midnightblue" points="1451.39,-78.4082 1441.16,-75.6545 1447.44,-84.1871 1451.39,-78.4082"/>
</g>
<!-- Node22&#45;&gt;Node1 -->
<g id="edge29" class="edge"><title>Node22&#45;&gt;Node1</title>
<path fill="none" stroke="midnightblue" d="M909.081,-60.4889C1069.19,-49.6406 1471.97,-22.3506 1599.87,-13.685"/>
<polygon fill="midnightblue" stroke="midnightblue" points="1600.25,-17.1671 1610,-12.9991 1599.78,-10.1831 1600.25,-17.1671"/>
</g>
<!-- Node22&#45;&gt;Node17 -->
<g id="edge30" class="edge"><title>Node22&#45;&gt;Node17</title>
<path fill="none" stroke="midnightblue" d="M823.961,-56.4435C804.877,-47.6356 774.925,-33.8116 753.064,-23.722"/>
<polygon fill="midnightblue" stroke="midnightblue" points="754.499,-20.5292 743.952,-19.5164 751.565,-26.8849 754.499,-20.5292"/>
</g>
<!-- Node23&#45;&gt;Node1 -->
<g id="edge32" class="edge"><title>Node23&#45;&gt;Node1</title>
<path fill="none" stroke="midnightblue" d="M934.126,-112.318C952.732,-97.681 993.001,-68.4726 1032.5,-56 1138.77,-22.4446 1481.96,-13.6354 1599.54,-11.5733"/>
<polygon fill="midnightblue" stroke="midnightblue" points="1599.94,-15.0672 1609.88,-11.3993 1599.82,-8.06815 1599.94,-15.0672"/>
</g>
<!-- Node23&#45;&gt;Node14 -->
<g id="edge35" class="edge"><title>Node23&#45;&gt;Node14</title>
<path fill="none" stroke="midnightblue" d="M951.071,-112.444C980.597,-103.28 1027.62,-88.6876 1060.38,-78.5192"/>
<polygon fill="midnightblue" stroke="midnightblue" points="1061.54,-81.8232 1070.06,-75.5164 1059.47,-75.1378 1061.54,-81.8232"/>
</g>
<!-- Node23&#45;&gt;Node15 -->
<g id="edge33" class="edge"><title>Node23&#45;&gt;Node15</title>
<path fill="none" stroke="midnightblue" d="M927.58,-112.368C936.048,-94.4563 955.682,-52.9233 967.015,-28.9482"/>
<polygon fill="midnightblue" stroke="midnightblue" points="970.329,-30.128 971.439,-19.5914 964,-27.1363 970.329,-30.128"/>
</g>
<!-- Node23&#45;&gt;Node22 -->
<g id="edge34" class="edge"><title>Node23&#45;&gt;Node22</title>
<path fill="none" stroke="midnightblue" d="M910.486,-112.324C897.968,-103.979 878.818,-91.2122 864.029,-81.3524"/>
<polygon fill="midnightblue" stroke="midnightblue" points="865.744,-78.2894 855.482,-75.6545 861.861,-84.1137 865.744,-78.2894"/>
</g>
<!-- Node24&#45;&gt;Node15 -->
<g id="edge39" class="edge"><title>Node24&#45;&gt;Node15</title>
<path fill="none" stroke="midnightblue" d="M1308.52,-112.435C1279.77,-104.334 1236.63,-91.1792 1200.5,-76 1182.9,-68.6076 1180.36,-62.7289 1162.5,-56 1109.8,-36.1455 1045.38,-22.9211 1007.55,-16.2078"/>
<polygon fill="midnightblue" stroke="midnightblue" points="1008.07,-12.7455 997.622,-14.4869 1006.88,-19.6428 1008.07,-12.7455"/>
</g>
<!-- Node24&#45;&gt;Node16 -->
<g id="edge37" class="edge"><title>Node24&#45;&gt;Node16</title>
<path fill="none" stroke="midnightblue" d="M1345.4,-131.509C1347.23,-139.898 1347.7,-152.996 1346.82,-163.817"/>
<polygon fill="midnightblue" stroke="midnightblue" points="1343.31,-163.588 1345.4,-173.975 1350.25,-164.554 1343.31,-163.588"/>
</g>
<!-- Node25 -->
<g id="node26" class="node"><title>Node25</title>
<polygon fill="white" stroke="#bfbfbf" points="1209.5,-56.5 1209.5,-75.5 1355.5,-75.5 1355.5,-56.5 1209.5,-56.5"/>
<text text-anchor="middle" x="1282.5" y="-63.5" font-family="FreeSans" font-size="10.00">boost/current_function.hpp</text>
</g>
<!-- Node24&#45;&gt;Node25 -->
<g id="edge38" class="edge"><title>Node24&#45;&gt;Node25</title>
<path fill="none" stroke="midnightblue" d="M1331.18,-112.324C1322.61,-104.341 1309.69,-92.3128 1299.31,-82.6529"/>
<polygon fill="midnightblue" stroke="midnightblue" points="1301.69,-80.0865 1291.99,-75.8339 1296.92,-85.2098 1301.69,-80.0865"/>
</g>
<!-- Node27&#45;&gt;Node1 -->
<g id="edge43" class="edge"><title>Node27&#45;&gt;Node1</title>
<path fill="none" stroke="midnightblue" d="M718.44,-112.302C725.612,-97.6402 742.324,-68.3958 766.5,-56 841.17,-17.7144 1438.42,-11.9941 1599.56,-11.1462"/>
<polygon fill="midnightblue" stroke="midnightblue" points="1599.98,-14.6443 1609.97,-11.0951 1599.95,-7.64436 1599.98,-14.6443"/>
</g>
<!-- Node27&#45;&gt;Node15 -->
<g id="edge44" class="edge"><title>Node27&#45;&gt;Node15</title>
<path fill="none" stroke="midnightblue" d="M714.347,-112.368C714.6,-98.3338 717.28,-70.6665 733.5,-56 763.863,-28.5461 884.307,-16.9813 943.004,-12.8992"/>
<polygon fill="midnightblue" stroke="midnightblue" points="943.464,-16.3765 953.21,-12.222 943.001,-9.39188 943.464,-16.3765"/>
</g>
<!-- Node27&#45;&gt;Node22 -->
<g id="edge45" class="edge"><title>Node27&#45;&gt;Node22</title>
<path fill="none" stroke="midnightblue" d="M734.782,-112.444C755.847,-103.557 789.017,-89.5632 812.986,-79.4514"/>
<polygon fill="midnightblue" stroke="midnightblue" points="814.46,-82.6283 822.313,-75.5164 811.739,-76.1787 814.46,-82.6283"/>
</g>
<!-- Node28&#45;&gt;Node1 -->
<g id="edge48" class="edge"><title>Node28&#45;&gt;Node1</title>
<path fill="none" stroke="midnightblue" d="M2551.21,-112.712C2596.98,-105.777 2650.3,-94.0623 2664.5,-76 2669.99,-69.0112 2670.65,-62.4218 2664.5,-56 2629.84,-19.7867 1863.44,-12.4648 1679.11,-11.2255"/>
<polygon fill="midnightblue" stroke="midnightblue" points="1679.06,-7.72523 1669.04,-11.16 1679.02,-14.7251 1679.06,-7.72523"/>
</g>
<!-- Node29&#45;&gt;Node1 -->
<g id="edge51" class="edge"><title>Node29&#45;&gt;Node1</title>
<path fill="none" stroke="midnightblue" d="M1776.22,-112.321C1761.03,-99.6017 1731.58,-75.3124 1705.5,-56 1691.15,-45.3751 1674.54,-34.0551 1661.57,-25.4267"/>
<polygon fill="midnightblue" stroke="midnightblue" points="1663.13,-22.2616 1652.86,-19.6679 1659.27,-28.1015 1663.13,-22.2616"/>
</g>
<!-- Node29&#45;&gt;Node20 -->
<g id="edge50" class="edge"><title>Node29&#45;&gt;Node20</title>
<path fill="none" stroke="midnightblue" d="M1763.21,-112.444C1738.69,-103.438 1699.9,-89.1891 1672.3,-79.049"/>
<polygon fill="midnightblue" stroke="midnightblue" points="1673.28,-75.6793 1662.68,-75.5164 1670.86,-82.25 1673.28,-75.6793"/>
</g>
<!-- Node30 -->
<g id="node31" class="node"><title>Node30</title>
<polygon fill="white" stroke="#bfbfbf" points="1757.5,-56.5 1757.5,-75.5 1857.5,-75.5 1857.5,-56.5 1757.5,-56.5"/>
<text text-anchor="middle" x="1807.5" y="-63.5" font-family="FreeSans" font-size="10.00">boost/cstdint.hpp</text>
</g>
<!-- Node29&#45;&gt;Node30 -->
<g id="edge52" class="edge"><title>Node29&#45;&gt;Node30</title>
<path fill="none" stroke="midnightblue" d="M1789.97,-112.083C1792.81,-104.77 1796.93,-94.1814 1800.46,-85.1034"/>
<polygon fill="midnightblue" stroke="midnightblue" points="1803.73,-86.3397 1804.1,-75.7511 1797.21,-83.8025 1803.73,-86.3397"/>
</g>
<!-- Node31 -->
<g id="node32" class="node"><title>Node31</title>
<polygon fill="white" stroke="#bfbfbf" points="1875.5,-56.5 1875.5,-75.5 1933.5,-75.5 1933.5,-56.5 1875.5,-56.5"/>
<text text-anchor="middle" x="1904.5" y="-63.5" font-family="FreeSans" font-size="10.00">gmpxx.h</text>
</g>
<!-- Node29&#45;&gt;Node31 -->
<g id="edge53" class="edge"><title>Node29&#45;&gt;Node31</title>
<path fill="none" stroke="midnightblue" d="M1805.2,-112.444C1824.44,-103.636 1854.65,-89.8116 1876.7,-79.722"/>
<polygon fill="midnightblue" stroke="midnightblue" points="1878.25,-82.8603 1885.89,-75.5164 1875.34,-76.4951 1878.25,-82.8603"/>
</g>
<!-- Node32&#45;&gt;Node2 -->
<g id="edge64" class="edge"><title>Node32&#45;&gt;Node2</title>
<path fill="none" stroke="midnightblue" d="M2000.48,-191.673C1874.74,-203.418 1621.12,-226.556 1495.85,-237.704"/>
<polygon fill="midnightblue" stroke="midnightblue" points="1495.24,-234.243 1485.59,-238.615 1495.86,-241.216 1495.24,-234.243"/>
</g>
<!-- Node32&#45;&gt;Node4 -->
<g id="edge55" class="edge"><title>Node32&#45;&gt;Node4</title>
<path fill="none" stroke="midnightblue" d="M2074.23,-173.62C2074.3,-158.554 2076.78,-128.061 2094.5,-112 2159.07,-53.484 2202.82,-91.0518 2293.03,-76.0586"/>
<polygon fill="midnightblue" stroke="midnightblue" points="2293.89,-79.4606 2303.08,-74.2032 2292.62,-72.5769 2293.89,-79.4606"/>
</g>
<!-- Node32&#45;&gt;Node12 -->
<g id="edge57" class="edge"><title>Node32&#45;&gt;Node12</title>
<path fill="none" stroke="midnightblue" d="M2093.56,-173.975C2115.97,-163.945 2153.41,-147.2 2179.21,-135.655"/>
<polygon fill="midnightblue" stroke="midnightblue" points="2180.78,-138.788 2188.48,-131.509 2177.92,-132.398 2180.78,-138.788"/>
</g>
<!-- Node33 -->
<g id="node34" class="node"><title>Node33</title>
<polygon fill="white" stroke="#bfbfbf" points="2103,-112.5 2103,-131.5 2166,-131.5 2166,-112.5 2103,-112.5"/>
<text text-anchor="middle" x="2134.5" y="-119.5" font-family="FreeSans" font-size="10.00">functional</text>
</g>
<!-- Node32&#45;&gt;Node33 -->
<g id="edge56" class="edge"><title>Node32&#45;&gt;Node33</title>
<path fill="none" stroke="midnightblue" d="M2083.1,-173.975C2092.36,-164.785 2107.32,-149.956 2118.71,-138.656"/>
<polygon fill="midnightblue" stroke="midnightblue" points="2121.28,-141.036 2125.92,-131.509 2116.35,-136.065 2121.28,-141.036"/>
</g>
<!-- Node34 -->
<g id="node35" class="node"><title>Node34</title>
<g id="a_node35"><a xlink:href="Color_8h_source.html" target="_top" xlink:title="DGtal/io/Color.h">
<polygon fill="white" stroke="black" points="2297,-112.5 2297,-131.5 2388,-131.5 2388,-112.5 2297,-112.5"/>
<text text-anchor="middle" x="2342.5" y="-119.5" font-family="FreeSans" font-size="10.00">DGtal/io/Color.h</text>
</a>
</g>
</g>
<!-- Node32&#45;&gt;Node34 -->
<g id="edge58" class="edge"><title>Node32&#45;&gt;Node34</title>
<path fill="none" stroke="midnightblue" d="M2112.9,-173.975C2160.66,-163.371 2242.24,-145.26 2294.2,-133.724"/>
<polygon fill="midnightblue" stroke="midnightblue" points="2295.17,-137.093 2304.17,-131.509 2293.65,-130.26 2295.17,-137.093"/>
</g>
<!-- Node37 -->
<g id="node38" class="node"><title>Node37</title>
<g id="a_node38"><a xlink:href="BasicBoolFunctors_8h_source.html" target="_top" xlink:title="DGtal/base/BasicBoolFunctors.h">
<polygon fill="white" stroke="black" points="1878,-112.5 1878,-131.5 2047,-131.5 2047,-112.5 1878,-112.5"/>
<text text-anchor="middle" x="1962.5" y="-119.5" font-family="FreeSans" font-size="10.00">DGtal/base/BasicBoolFunctors.h</text>
</a>
</g>
</g>
<!-- Node32&#45;&gt;Node37 -->
<g id="edge65" class="edge"><title>Node32&#45;&gt;Node37</title>
<path fill="none" stroke="midnightblue" d="M2058.45,-173.975C2039.91,-164.122 2009.16,-147.788 1987.48,-136.27"/>
<polygon fill="midnightblue" stroke="midnightblue" points="1988.99,-133.11 1978.52,-131.509 1985.71,-139.292 1988.99,-133.11"/>
</g>
<!-- Node34&#45;&gt;Node1 -->
<g id="edge59" class="edge"><title>Node34&#45;&gt;Node1</title>
<path fill="none" stroke="midnightblue" d="M2352.43,-112.468C2366.89,-99.0616 2390.36,-72.8577 2374.5,-56 2350.5,-30.4807 1828.54,-15.6669 1679.13,-11.9386"/>
<polygon fill="midnightblue" stroke="midnightblue" points="1679.11,-8.43721 1669.03,-11.6894 1678.94,-15.4351 1679.11,-8.43721"/>
</g>
<!-- Node34&#45;&gt;Node2 -->
<g id="edge60" class="edge"><title>Node34&#45;&gt;Node2</title>
<path fill="none" stroke="midnightblue" d="M2338.43,-131.588C2330.07,-148.125 2309.21,-184.074 2279.5,-199 2210.47,-233.682 1690.73,-241.704 1495.93,-243.5"/>
<polygon fill="midnightblue" stroke="midnightblue" points="1495.76,-240.002 1485.79,-243.591 1495.82,-247.001 1495.76,-240.002"/>
</g>
<!-- Node34&#45;&gt;Node4 -->
<g id="edge62" class="edge"><title>Node34&#45;&gt;Node4</title>
<path fill="none" stroke="midnightblue" d="M2341.18,-112.083C2340.12,-104.927 2338.59,-94.6353 2337.27,-85.6911"/>
<polygon fill="midnightblue" stroke="midnightblue" points="2340.72,-85.1302 2335.8,-75.7511 2333.8,-86.1561 2340.72,-85.1302"/>
</g>
<!-- Node35 -->
<g id="node36" class="node"><title>Node35</title>
<polygon fill="white" stroke="#bfbfbf" points="2421.5,-56.5 2421.5,-75.5 2543.5,-75.5 2543.5,-56.5 2421.5,-56.5"/>
<text text-anchor="middle" x="2482.5" y="-63.5" font-family="FreeSans" font-size="10.00">boost/lexical_cast.hpp</text>
</g>
<!-- Node34&#45;&gt;Node35 -->
<g id="edge61" class="edge"><title>Node34&#45;&gt;Node35</title>
<path fill="none" stroke="midnightblue" d="M2364.68,-112.444C2387.93,-103.478 2424.65,-89.314 2450.92,-79.1827"/>
<polygon fill="midnightblue" stroke="midnightblue" points="2452.35,-82.3807 2460.42,-75.5164 2449.83,-75.8497 2452.35,-82.3807"/>
</g>
<!-- Node36 -->
<g id="node37" class="node"><title>Node36</title>
<g id="a_node37"><a xlink:href="Color_8ih_source.html" target="_top" xlink:title="DGtal/io/Color.ih">
<polygon fill="white" stroke="black" points="2562,-56.5 2562,-75.5 2655,-75.5 2655,-56.5 2562,-56.5"/>
<text text-anchor="middle" x="2608.5" y="-63.5" font-family="FreeSans" font-size="10.00">DGtal/io/Color.ih</text>
</a>
</g>
</g>
<!-- Node34&#45;&gt;Node36 -->
<g id="edge63" class="edge"><title>Node34&#45;&gt;Node36</title>
<path fill="none" stroke="midnightblue" d="M2384.65,-112.444C2431.25,-102.984 2506.34,-87.7384 2556.55,-77.5472"/>
<polygon fill="midnightblue" stroke="midnightblue" points="2557.44,-80.936 2566.55,-75.5164 2556.05,-74.076 2557.44,-80.936"/>
</g>
<!-- Node37&#45;&gt;Node1 -->
<g id="edge66" class="edge"><title>Node37&#45;&gt;Node1</title>
<path fill="none" stroke="midnightblue" d="M1962.57,-112.288C1962.17,-98.1402 1959.16,-70.3125 1942.5,-56 1903.72,-22.6757 1752.24,-14.0243 1679.25,-11.7822"/>
<polygon fill="midnightblue" stroke="midnightblue" points="1679.17,-8.27856 1669.07,-11.4957 1678.97,-15.2758 1679.17,-8.27856"/>
</g>
<!-- Node38 -->
<g id="node39" class="node"><title>Node38</title>
<polygon fill="white" stroke="#bfbfbf" points="2179.5,-56.5 2179.5,-75.5 2285.5,-75.5 2285.5,-56.5 2179.5,-56.5"/>
<text text-anchor="middle" x="2232.5" y="-63.5" font-family="FreeSans" font-size="10.00">boost/function.hpp</text>
</g>
<!-- Node37&#45;&gt;Node38 -->
<g id="edge67" class="edge"><title>Node37&#45;&gt;Node38</title>
<path fill="none" stroke="midnightblue" d="M2005.28,-112.444C2052.68,-102.964 2129.13,-87.6747 2180.08,-77.4835"/>
<polygon fill="midnightblue" stroke="midnightblue" points="2180.8,-80.9097 2189.92,-75.5164 2179.43,-74.0456 2180.8,-80.9097"/>
</g>
<!-- Node39 -->
<g id="node40" class="node"><title>Node39</title>
<g id="a_node40"><a xlink:href="BasicBoolFunctors_8ih_source.html" target="_top" xlink:title="DGtal/base/BasicBoolFunctors.ih">
<polygon fill="white" stroke="black" points="1990,-56.5 1990,-75.5 2161,-75.5 2161,-56.5 1990,-56.5"/>
<text text-anchor="middle" x="2075.5" y="-63.5" font-family="FreeSans" font-size="10.00">DGtal/base/BasicBoolFunctors.ih</text>
</a>
</g>
</g>
<!-- Node37&#45;&gt;Node39 -->
<g id="edge68" class="edge"><title>Node37&#45;&gt;Node39</title>
<path fill="none" stroke="midnightblue" d="M1980.41,-112.444C1998.75,-103.675 2027.51,-89.9355 2048.59,-79.8579"/>
<polygon fill="midnightblue" stroke="midnightblue" points="2050.17,-82.9862 2057.68,-75.5164 2047.15,-76.6703 2050.17,-82.9862"/>
</g>
<!-- Node40&#45;&gt;Node1 -->
<g id="edge70" class="edge"><title>Node40&#45;&gt;Node1</title>
<path fill="none" stroke="midnightblue" d="M2660.04,-112.387C2673.9,-98.8694 2696.32,-72.5161 2680.5,-56 2645.27,-19.2143 1866.09,-12.324 1679.42,-11.1996"/>
<polygon fill="midnightblue" stroke="midnightblue" points="1679.25,-7.6986 1669.23,-11.1404 1679.21,-14.6985 1679.25,-7.6986"/>
</g>
<!-- Node41&#45;&gt;Node1 -->
<g id="edge72" class="edge"><title>Node41&#45;&gt;Node1</title>
<path fill="none" stroke="midnightblue" d="M1581.99,-173.744C1588.75,-164.084 1598.97,-147.803 1603.5,-132 1612.83,-99.4873 1596.37,-87.9402 1607.5,-56 1611.11,-45.6294 1617.9,-35.5288 1624.3,-27.5333"/>
<polygon fill="midnightblue" stroke="midnightblue" points="1627.09,-29.6507 1630.92,-19.7706 1621.77,-25.1086 1627.09,-29.6507"/>
</g>
</g>
</svg>
        <g id="navigator" transform="translate(0 0)" fill="#404254">
                <rect fill="#f2f5e9" fill-opacity="0.5" stroke="#606060" stroke-width=".5" x="0" y="0" width="60" height="60"/>
                <use id="zoomplus" xlink:href="#zoomPlus" x="17" y="9" onmousedown="handleZoom(evt,'in')"/>
                <use id="zoomminus" xlink:href="#zoomMin" x="42" y="9" onmousedown="handleZoom(evt,'out')"/>
                <use id="reset" xlink:href="#resetDef" x="30" y="36" onmousedown="handleReset()"/>
                <g id="arrowUp" xlink:href="#dirArrow" transform="translate(30 24)" onmousedown="handlePan(0,-1)">
                  <use xlink:href="#rim" fill="#404040">
                        <set attributeName="fill" to="#808080" begin="arrowUp.mouseover" end="arrowUp.mouseout"/>
                  </use>
                  <path fill="none" stroke="white" stroke-width="1.5" d="M0,-3.0v7 M-2.5,-0.5L0,-3.0L2.5,-0.5"/>
                </g>
                <g id="arrowRight" xlink:href="#dirArrow" transform="rotate(90) translate(36 -43)" onmousedown="handlePan(1,0)">
                  <use xlink:href="#rim" fill="#404040">
                        <set attributeName="fill" to="#808080" begin="arrowRight.mouseover" end="arrowRight.mouseout"/>
                  </use>
                  <path fill="none" stroke="white" stroke-width="1.5" d="M0,-3.0v7 M-2.5,-0.5L0,-3.0L2.5,-0.5"/>
                </g>
                <g id="arrowDown" xlink:href="#dirArrow" transform="rotate(180) translate(-30 -48)" onmousedown="handlePan(0,1)">
                  <use xlink:href="#rim" fill="#404040">
                        <set attributeName="fill" to="#808080" begin="arrowDown.mouseover" end="arrowDown.mouseout"/>
                  </use>
                  <path fill="none" stroke="white" stroke-width="1.5" d="M0,-3.0v7 M-2.5,-0.5L0,-3.0L2.5,-0.5"/>
                </g>
                <g id="arrowLeft" xlink:href="#dirArrow" transform="rotate(270) translate(-36 17)" onmousedown="handlePan(-1,0)">
                  <use xlink:href="#rim" fill="#404040">
                        <set attributeName="fill" to="#808080" begin="arrowLeft.mouseover" end="arrowLeft.mouseout"/>
                  </use>
                  <path fill="none" stroke="white" stroke-width="1.5" d="M0,-3.0v7 M-2.5,-0.5L0,-3.0L2.5,-0.5"/>
                </g>
        </g>
        <svg viewBox="0 0 15 15" width="100%" height="30px" preserveAspectRatio="xMaxYMin meet">
         <g id="arrow_out" transform="scale(0.3 0.3)">
          <a xlink:href="testProgressBar_8cpp__incl_org.svg" target="_base">
           <rect id="button" ry="5" rx="5" y="6" x="6" height="38" width="38"
                fill="#f2f5e9" fill-opacity="0.5" stroke="#606060" stroke-width="1.0"/>
           <path id="arrow"
             d="M 11.500037,31.436501 C 11.940474,20.09759 22.043105,11.32322 32.158766,21.979434 L 37.068811,17.246167 C 37.068811,17.246167 37.088388,32 37.088388,32 L 22.160133,31.978069 C 22.160133,31.978069 26.997745,27.140456 26.997745,27.140456 C 18.528582,18.264221 13.291696,25.230495 11.500037,31.436501 z"
             style="fill:#404040;"/>
          </a>
         </g>
        </svg>
</svg>
