<?xml version="1.0" encoding="UTF-8" standalone="no"?>
<!DOCTYPE svg PUBLIC "-//W3C//DTD SVG 1.1//EN"
 "http://www.w3.org/Graphics/SVG/1.1/DTD/svg11.dtd">
<!-- Generated by graphviz version 2.38.0 (20140413.2041)
 -->
<!-- Title: DGtal::LabelledMap&lt; TData, L, TWord, N, M &gt;::BlockPointer Pages: 1 -->
<!--zoomable 109 -->
<svg id="main" version="1.1" xmlns="http://www.w3.org/2000/svg" xmlns:xlink="http://www.w3.org/1999/xlink" xml:space="preserve" onload="init(evt)">
<style type="text/css"><![CDATA[
.edge:hover path { stroke: red; }
.edge:hover polygon { stroke: red; fill: red; }
]]></style>
<script type="text/javascript"><![CDATA[
var edges = document.getElementsByTagName('g');
if (edges && edges.length) {
  for (var i=0;i<edges.length;i++) {
    if (edges[i].id.substr(0,4)=='edge') {
      edges[i].setAttribute('class','edge');
    }
  }
}
]]></script>
        <defs>
                <circle id="rim" cx="0" cy="0" r="7"/>
                <circle id="rim2" cx="0" cy="0" r="3.5"/>
                <g id="zoomPlus">
                        <use xlink:href="#rim" fill="#404040">
                                <set attributeName="fill" to="#808080" begin="zoomplus.mouseover" end="zoomplus.mouseout"/>
                        </use>
                        <path d="M-4,0h8M0,-4v8" fill="none" stroke="white" stroke-width="1.5" pointer-events="none"/>
                </g>
                <g id="zoomMin">
                        <use xlink:href="#rim" fill="#404040">
                                <set attributeName="fill" to="#808080" begin="zoomminus.mouseover" end="zoomminus.mouseout"/>
                        </use>
                        <path d="M-4,0h8" fill="none" stroke="white" stroke-width="1.5" pointer-events="none"/>
                </g>
                <g id="dirArrow">
                        <path fill="none" stroke="white" stroke-width="1.5" d="M0,-3.0v7 M-2.5,-0.5L0,-3.0L2.5,-0.5"/>
                </g>
               <g id="resetDef">
                       <use xlink:href="#rim2" fill="#404040">
                               <set attributeName="fill" to="#808080" begin="reset.mouseover" end="reset.mouseout"/>
                       </use>
               </g>
        </defs>

<script type="text/javascript">
var viewWidth = 709;
var viewHeight = 109;
var sectionId = 'dynsection-0';
</script>
<script xlink:href="svgpan.js"/>
<svg id="graph" class="graph">
<g id="viewport">
<title>DGtal::LabelledMap&lt; TData, L, TWord, N, M &gt;::BlockPointer</title>
<polygon fill="white" stroke="none" points="-4,4 -4,-105 705,-105 705,4 -4,4"/>
<!-- Node1 -->
<g id="node1" class="node"><title>Node1</title>
<polygon fill="#bfbfbf" stroke="black" points="582,-30.5 582,-71.5 701,-71.5 701,-30.5 582,-30.5"/>
<text text-anchor="start" x="590" y="-59.5" font-family="FreeSans" font-size="10.00">DGtal::LabelledMap</text>
<text text-anchor="start" x="590" y="-48.5" font-family="FreeSans" font-size="10.00">&lt; TData, L, TWord, N,</text>
<text text-anchor="middle" x="641.5" y="-37.5" font-family="FreeSans" font-size="10.00"> M &gt;::BlockPointer</text>
</g>
<!-- Node2 -->
<g id="node2" class="node"><title>Node2</title>
<g id="a_node2"><a xlink:href="structDGtal_1_1LabelledMap_1_1____AnyBlock.html" target="_top" xlink:title="DGtal::LabelledMap\l\&lt; TData, L, TWord, N,\l M \&gt;::__AnyBlock">
<polygon fill="white" stroke="black" points="0,-30.5 0,-71.5 119,-71.5 119,-30.5 0,-30.5"/>
<text text-anchor="start" x="8" y="-59.5" font-family="FreeSans" font-size="10.00">DGtal::LabelledMap</text>
<text text-anchor="start" x="8" y="-48.5" font-family="FreeSans" font-size="10.00">&lt; TData, L, TWord, N,</text>
<text text-anchor="middle" x="59.5" y="-37.5" font-family="FreeSans" font-size="10.00"> M &gt;::__AnyBlock</text>
</a>
</g>
</g>
<!-- Node2&#45;&gt;Node1 -->
<g id="edge1" class="edge"><title>Node2&#45;&gt;Node1</title>
<path fill="none" stroke="#9a32cd" stroke-dasharray="5,2" d="M129.383,-53.8276C131.954,-53.893 134.5,-53.951 137,-54 159.218,-54.4355 164.778,-54.0589 187,-54 354.557,-53.5556 396.449,-53.5395 564,-52 569.711,-51.9475 575.662,-51.8845 581.611,-51.8159"/>
<polygon fill="#9a32cd" stroke="#9a32cd" points="129.478,-50.329 119.383,-53.5419 129.279,-57.3261 129.478,-50.329"/>
<text text-anchor="middle" x="374.5" y="-56" font-family="FreeSans" font-size="10.00"> any</text>
</g>
<!-- Node2&#45;&gt;Node2 -->
<g id="edge2" class="edge"><title>Node2&#45;&gt;Node2</title>
<path fill="none" stroke="#9a32cd" stroke-dasharray="5,2" d="M41.9515,-81.8561C44.5611,-86.6966 50.4106,-90 59.5,-90 74.043,-90 80.2919,-81.5433 78.2468,-71.8644"/>
<polygon fill="#9a32cd" stroke="#9a32cd" points="45.4192,-81.3765 40.7532,-71.8644 38.469,-82.2101 45.4192,-81.3765"/>
<text text-anchor="middle" x="59.5" y="-93" font-family="FreeSans" font-size="10.00"> next</text>
</g>
<!-- Node4 -->
<g id="node4" class="node"><title>Node4</title>
<g id="a_node4"><a xlink:href="unionDGtal_1_1LabelledMap_1_1DataOrBlockPointer.html" target="_top" xlink:title="Used in first block to finish it or to point to the next block. ">
<polygon fill="white" stroke="black" points="205,-0.5 205,-41.5 344,-41.5 344,-0.5 205,-0.5"/>
<text text-anchor="start" x="213" y="-29.5" font-family="FreeSans" font-size="10.00">DGtal::LabelledMap</text>
<text text-anchor="start" x="213" y="-18.5" font-family="FreeSans" font-size="10.00">&lt; TData, L, TWord, N,</text>
<text text-anchor="middle" x="274.5" y="-7.5" font-family="FreeSans" font-size="10.00"> M &gt;::DataOrBlockPointer</text>
</a>
</g>
</g>
<!-- Node2&#45;&gt;Node4 -->
<g id="edge5" class="edge"><title>Node2&#45;&gt;Node4</title>
<path fill="none" stroke="#9a32cd" stroke-dasharray="5,2" d="M129.41,-41.2943C153.54,-37.8957 180.624,-34.0812 204.741,-30.6843"/>
<polygon fill="#9a32cd" stroke="#9a32cd" points="128.681,-37.8624 119.267,-42.723 129.657,-44.794 128.681,-37.8624"/>
<text text-anchor="middle" x="162" y="-42" font-family="FreeSans" font-size="10.00"> nextBlock</text>
</g>
<!-- Node3 -->
<g id="node3" class="node"><title>Node3</title>
<g id="a_node3"><a xlink:href="structDGtal_1_1LabelledMap_1_1____FirstBlock.html" target="_top" xlink:title="DGtal::LabelledMap\l\&lt; TData, L, TWord, N,\l M \&gt;::__FirstBlock">
<polygon fill="white" stroke="black" points="405,-0.5 405,-41.5 524,-41.5 524,-0.5 405,-0.5"/>
<text text-anchor="start" x="413" y="-29.5" font-family="FreeSans" font-size="10.00">DGtal::LabelledMap</text>
<text text-anchor="start" x="413" y="-18.5" font-family="FreeSans" font-size="10.00">&lt; TData, L, TWord, N,</text>
<text text-anchor="middle" x="464.5" y="-7.5" font-family="FreeSans" font-size="10.00"> M &gt;::__FirstBlock</text>
</a>
</g>
</g>
<!-- Node3&#45;&gt;Node1 -->
<g id="edge3" class="edge"><title>Node3&#45;&gt;Node1</title>
<path fill="none" stroke="#9a32cd" stroke-dasharray="5,2" d="M534.434,-32.8173C550.136,-35.509 566.673,-38.3439 581.896,-40.9536"/>
<polygon fill="#9a32cd" stroke="#9a32cd" points="534.707,-29.3131 524.259,-31.073 533.524,-36.2124 534.707,-29.3131"/>
<text text-anchor="middle" x="553" y="-40" font-family="FreeSans" font-size="10.00"> first</text>
</g>
<!-- Node4&#45;&gt;Node3 -->
<g id="edge4" class="edge"><title>Node4&#45;&gt;Node3</title>
<path fill="none" stroke="#9a32cd" stroke-dasharray="5,2" d="M354.572,-21C371.446,-21 388.979,-21 404.921,-21"/>
<polygon fill="#9a32cd" stroke="#9a32cd" points="354.17,-17.5001 344.17,-21 354.17,-24.5001 354.17,-17.5001"/>
<text text-anchor="middle" x="374.5" y="-24" font-family="FreeSans" font-size="10.00"> data</text>
</g>
</g>
</svg>
        <g id="navigator" transform="translate(0 0)" fill="#404254">
                <rect fill="#f2f5e9" fill-opacity="0.5" stroke="#606060" stroke-width=".5" x="0" y="0" width="60" height="60"/>
                <use id="zoomplus" xlink:href="#zoomPlus" x="17" y="9" onmousedown="handleZoom(evt,'in')"/>
                <use id="zoomminus" xlink:href="#zoomMin" x="42" y="9" onmousedown="handleZoom(evt,'out')"/>
                <use id="reset" xlink:href="#resetDef" x="30" y="36" onmousedown="handleReset()"/>
                <g id="arrowUp" xlink:href="#dirArrow" transform="translate(30 24)" onmousedown="handlePan(0,-1)">
                  <use xlink:href="#rim" fill="#404040">
                        <set attributeName="fill" to="#808080" begin="arrowUp.mouseover" end="arrowUp.mouseout"/>
                  </use>
                  <path fill="none" stroke="white" stroke-width="1.5" d="M0,-3.0v7 M-2.5,-0.5L0,-3.0L2.5,-0.5"/>
                </g>
                <g id="arrowRight" xlink:href="#dirArrow" transform="rotate(90) translate(36 -43)" onmousedown="handlePan(1,0)">
                  <use xlink:href="#rim" fill="#404040">
                        <set attributeName="fill" to="#808080" begin="arrowRight.mouseover" end="arrowRight.mouseout"/>
                  </use>
                  <path fill="none" stroke="white" stroke-width="1.5" d="M0,-3.0v7 M-2.5,-0.5L0,-3.0L2.5,-0.5"/>
                </g>
                <g id="arrowDown" xlink:href="#dirArrow" transform="rotate(180) translate(-30 -48)" onmousedown="handlePan(0,1)">
                  <use xlink:href="#rim" fill="#404040">
                        <set attributeName="fill" to="#808080" begin="arrowDown.mouseover" end="arrowDown.mouseout"/>
                  </use>
                  <path fill="none" stroke="white" stroke-width="1.5" d="M0,-3.0v7 M-2.5,-0.5L0,-3.0L2.5,-0.5"/>
                </g>
                <g id="arrowLeft" xlink:href="#dirArrow" transform="rotate(270) translate(-36 17)" onmousedown="handlePan(-1,0)">
                  <use xlink:href="#rim" fill="#404040">
                        <set attributeName="fill" to="#808080" begin="arrowLeft.mouseover" end="arrowLeft.mouseout"/>
                  </use>
                  <path fill="none" stroke="white" stroke-width="1.5" d="M0,-3.0v7 M-2.5,-0.5L0,-3.0L2.5,-0.5"/>
                </g>
        </g>
        <svg viewBox="0 0 15 15" width="100%" height="30px" preserveAspectRatio="xMaxYMin meet">
         <g id="arrow_out" transform="scale(0.3 0.3)">
          <a xlink:href="unionDGtal_1_1LabelledMap_1_1BlockPointer__coll__graph_org.svg" target="_base">
           <rect id="button" ry="5" rx="5" y="6" x="6" height="38" width="38"
                fill="#f2f5e9" fill-opacity="0.5" stroke="#606060" stroke-width="1.0"/>
           <path id="arrow"
             d="M 11.500037,31.436501 C 11.940474,20.09759 22.043105,11.32322 32.158766,21.979434 L 37.068811,17.246167 C 37.068811,17.246167 37.088388,32 37.088388,32 L 22.160133,31.978069 C 22.160133,31.978069 26.997745,27.140456 26.997745,27.140456 C 18.528582,18.264221 13.291696,25.230495 11.500037,31.436501 z"
             style="fill:#404040;"/>
          </a>
         </g>
        </svg>
</svg>
