<?xml version="1.0" encoding="UTF-8" standalone="no"?>
<!DOCTYPE svg PUBLIC "-//W3C//DTD SVG 1.1//EN"
 "http://www.w3.org/Graphics/SVG/1.1/DTD/svg11.dtd">
<!-- Generated by graphviz version 2.38.0 (20140413.2041)
 -->
<!-- Title: DGtal::IndexedListWithBlocks&lt; TValue, N, M &gt;::BlockPointer Pages: 1 -->
<!--zoomable 94 -->
<svg id="main" version="1.1" xmlns="http://www.w3.org/2000/svg" xmlns:xlink="http://www.w3.org/1999/xlink" xml:space="preserve" onload="init(evt)">
<style type="text/css"><![CDATA[
.edge:hover path { stroke: red; }
.edge:hover polygon { stroke: red; fill: red; }
]]></style>
<script type="text/javascript"><![CDATA[
var edges = document.getElementsByTagName('g');
if (edges && edges.length) {
  for (var i=0;i<edges.length;i++) {
    if (edges[i].id.substr(0,4)=='edge') {
      edges[i].setAttribute('class','edge');
    }
  }
}
]]></script>
        <defs>
                <circle id="rim" cx="0" cy="0" r="7"/>
                <circle id="rim2" cx="0" cy="0" r="3.5"/>
                <g id="zoomPlus">
                        <use xlink:href="#rim" fill="#404040">
                                <set attributeName="fill" to="#808080" begin="zoomplus.mouseover" end="zoomplus.mouseout"/>
                        </use>
                        <path d="M-4,0h8M0,-4v8" fill="none" stroke="white" stroke-width="1.5" pointer-events="none"/>
                </g>
                <g id="zoomMin">
                        <use xlink:href="#rim" fill="#404040">
                                <set attributeName="fill" to="#808080" begin="zoomminus.mouseover" end="zoomminus.mouseout"/>
                        </use>
                        <path d="M-4,0h8" fill="none" stroke="white" stroke-width="1.5" pointer-events="none"/>
                </g>
                <g id="dirArrow">
                        <path fill="none" stroke="white" stroke-width="1.5" d="M0,-3.0v7 M-2.5,-0.5L0,-3.0L2.5,-0.5"/>
                </g>
               <g id="resetDef">
                       <use xlink:href="#rim2" fill="#404040">
                               <set attributeName="fill" to="#808080" begin="reset.mouseover" end="reset.mouseout"/>
                       </use>
               </g>
        </defs>

<script type="text/javascript">
var viewWidth = 888;
var viewHeight = 94;
var sectionId = 'dynsection-0';
</script>
<script xlink:href="svgpan.js"/>
<svg id="graph" class="graph">
<g id="viewport">
<title>DGtal::IndexedListWithBlocks&lt; TValue, N, M &gt;::BlockPointer</title>
<polygon fill="white" stroke="none" points="-4,4 -4,-90 884,-90 884,4 -4,4"/>
<!-- Node1 -->
<g id="node1" class="node"><title>Node1</title>
<polygon fill="#bfbfbf" stroke="black" points="716,-31.5 716,-61.5 880,-61.5 880,-31.5 716,-31.5"/>
<text text-anchor="start" x="724" y="-49.5" font-family="FreeSans" font-size="10.00">DGtal::IndexedListWithBlocks</text>
<text text-anchor="middle" x="798" y="-38.5" font-family="FreeSans" font-size="10.00">&lt; TValue, N, M &gt;::BlockPointer</text>
</g>
<!-- Node2 -->
<g id="node2" class="node"><title>Node2</title>
<g id="a_node2"><a xlink:href="structDGtal_1_1IndexedListWithBlocks_1_1FirstBlock.html" target="_top" xlink:title="DGtal::IndexedListWithBlocks\l\&lt; TValue, N, M \&gt;::FirstBlock">
<polygon fill="white" stroke="black" points="503,-0.5 503,-30.5 658,-30.5 658,-0.5 503,-0.5"/>
<text text-anchor="start" x="511" y="-18.5" font-family="FreeSans" font-size="10.00">DGtal::IndexedListWithBlocks</text>
<text text-anchor="middle" x="580.5" y="-7.5" font-family="FreeSans" font-size="10.00">&lt; TValue, N, M &gt;::FirstBlock</text>
</a>
</g>
</g>
<!-- Node2&#45;&gt;Node1 -->
<g id="edge1" class="edge"><title>Node2&#45;&gt;Node1</title>
<path fill="none" stroke="#9a32cd" stroke-dasharray="5,2" d="M668.311,-27.9879C684.032,-30.2493 700.371,-32.5998 715.92,-34.8365"/>
<polygon fill="#9a32cd" stroke="#9a32cd" points="668.481,-24.4763 658.084,-26.5167 667.484,-31.405 668.481,-24.4763"/>
<text text-anchor="middle" x="687" y="-35.5" font-family="FreeSans" font-size="10.00"> first</text>
</g>
<!-- Node3 -->
<g id="node3" class="node"><title>Node3</title>
<g id="a_node3"><a xlink:href="unionDGtal_1_1IndexedListWithBlocks_1_1ValueOrBlockPointer.html" target="_top" xlink:title="Used in blocks to finish it or to point to the next block. ">
<polygon fill="white" stroke="black" points="241,-0.5 241,-30.5 442,-30.5 442,-0.5 241,-0.5"/>
<text text-anchor="start" x="249" y="-18.5" font-family="FreeSans" font-size="10.00">DGtal::IndexedListWithBlocks</text>
<text text-anchor="middle" x="341.5" y="-7.5" font-family="FreeSans" font-size="10.00">&lt; TValue, N, M &gt;::ValueOrBlockPointer</text>
</a>
</g>
</g>
<!-- Node3&#45;&gt;Node2 -->
<g id="edge2" class="edge"><title>Node3&#45;&gt;Node2</title>
<path fill="none" stroke="#9a32cd" stroke-dasharray="5,2" d="M452.334,-15.5C469.404,-15.5 486.714,-15.5 502.839,-15.5"/>
<polygon fill="#9a32cd" stroke="#9a32cd" points="452.322,-12.0001 442.322,-15.5 452.322,-19.0001 452.322,-12.0001"/>
<text text-anchor="middle" x="472.5" y="-18.5" font-family="FreeSans" font-size="10.00"> data</text>
</g>
<!-- Node4 -->
<g id="node4" class="node"><title>Node4</title>
<g id="a_node4"><a xlink:href="structDGtal_1_1IndexedListWithBlocks_1_1AnyBlock.html" target="_top" xlink:title="DGtal::IndexedListWithBlocks\l\&lt; TValue, N, M \&gt;::AnyBlock">
<polygon fill="white" stroke="black" points="0,-26.5 0,-56.5 155,-56.5 155,-26.5 0,-26.5"/>
<text text-anchor="start" x="8" y="-44.5" font-family="FreeSans" font-size="10.00">DGtal::IndexedListWithBlocks</text>
<text text-anchor="middle" x="77.5" y="-33.5" font-family="FreeSans" font-size="10.00">&lt; TValue, N, M &gt;::AnyBlock</text>
</a>
</g>
</g>
<!-- Node4&#45;&gt;Node1 -->
<g id="edge5" class="edge"><title>Node4&#45;&gt;Node1</title>
<path fill="none" stroke="#9a32cd" stroke-dasharray="5,2" d="M165.249,-45.3094C167.862,-45.3801 170.45,-45.444 173,-45.5 367.682,-49.7745 596.613,-48.5393 715.716,-47.4243"/>
<polygon fill="#9a32cd" stroke="#9a32cd" points="165.181,-41.8059 155.081,-45.0058 164.972,-48.8028 165.181,-41.8059"/>
<text text-anchor="middle" x="472.5" y="-51.5" font-family="FreeSans" font-size="10.00"> any</text>
</g>
<!-- Node4&#45;&gt;Node3 -->
<g id="edge3" class="edge"><title>Node4&#45;&gt;Node3</title>
<path fill="none" stroke="#9a32cd" stroke-dasharray="5,2" d="M165.52,-32.8644C189.626,-30.4722 215.979,-27.857 240.749,-25.3989"/>
<polygon fill="#9a32cd" stroke="#9a32cd" points="164.944,-29.4043 155.338,-33.8748 165.635,-36.3701 164.944,-29.4043"/>
<text text-anchor="middle" x="198" y="-35.5" font-family="FreeSans" font-size="10.00"> nextBlock</text>
</g>
<!-- Node4&#45;&gt;Node4 -->
<g id="edge4" class="edge"><title>Node4&#45;&gt;Node4</title>
<path fill="none" stroke="#9a32cd" stroke-dasharray="5,2" d="M56.1774,-66.9579C58.8239,-71.679 65.9314,-75 77.5,-75 96.4844,-75 103.455,-66.0566 98.4125,-56.659"/>
<polygon fill="#9a32cd" stroke="#9a32cd" points="59.6868,-66.7904 56.5875,-56.659 52.6923,-66.5118 59.6868,-66.7904"/>
<text text-anchor="middle" x="77.5" y="-78" font-family="FreeSans" font-size="10.00"> next</text>
</g>
</g>
</svg>
        <g id="navigator" transform="translate(0 0)" fill="#404254">
                <rect fill="#f2f5e9" fill-opacity="0.5" stroke="#606060" stroke-width=".5" x="0" y="0" width="60" height="60"/>
                <use id="zoomplus" xlink:href="#zoomPlus" x="17" y="9" onmousedown="handleZoom(evt,'in')"/>
                <use id="zoomminus" xlink:href="#zoomMin" x="42" y="9" onmousedown="handleZoom(evt,'out')"/>
                <use id="reset" xlink:href="#resetDef" x="30" y="36" onmousedown="handleReset()"/>
                <g id="arrowUp" xlink:href="#dirArrow" transform="translate(30 24)" onmousedown="handlePan(0,-1)">
                  <use xlink:href="#rim" fill="#404040">
                        <set attributeName="fill" to="#808080" begin="arrowUp.mouseover" end="arrowUp.mouseout"/>
                  </use>
                  <path fill="none" stroke="white" stroke-width="1.5" d="M0,-3.0v7 M-2.5,-0.5L0,-3.0L2.5,-0.5"/>
                </g>
                <g id="arrowRight" xlink:href="#dirArrow" transform="rotate(90) translate(36 -43)" onmousedown="handlePan(1,0)">
                  <use xlink:href="#rim" fill="#404040">
                        <set attributeName="fill" to="#808080" begin="arrowRight.mouseover" end="arrowRight.mouseout"/>
                  </use>
                  <path fill="none" stroke="white" stroke-width="1.5" d="M0,-3.0v7 M-2.5,-0.5L0,-3.0L2.5,-0.5"/>
                </g>
                <g id="arrowDown" xlink:href="#dirArrow" transform="rotate(180) translate(-30 -48)" onmousedown="handlePan(0,1)">
                  <use xlink:href="#rim" fill="#404040">
                        <set attributeName="fill" to="#808080" begin="arrowDown.mouseover" end="arrowDown.mouseout"/>
                  </use>
                  <path fill="none" stroke="white" stroke-width="1.5" d="M0,-3.0v7 M-2.5,-0.5L0,-3.0L2.5,-0.5"/>
                </g>
                <g id="arrowLeft" xlink:href="#dirArrow" transform="rotate(270) translate(-36 17)" onmousedown="handlePan(-1,0)">
                  <use xlink:href="#rim" fill="#404040">
                        <set attributeName="fill" to="#808080" begin="arrowLeft.mouseover" end="arrowLeft.mouseout"/>
                  </use>
                  <path fill="none" stroke="white" stroke-width="1.5" d="M0,-3.0v7 M-2.5,-0.5L0,-3.0L2.5,-0.5"/>
                </g>
        </g>
        <svg viewBox="0 0 15 15" width="100%" height="30px" preserveAspectRatio="xMaxYMin meet">
         <g id="arrow_out" transform="scale(0.3 0.3)">
          <a xlink:href="unionDGtal_1_1IndexedListWithBlocks_1_1BlockPointer__coll__graph_org.svg" target="_base">
           <rect id="button" ry="5" rx="5" y="6" x="6" height="38" width="38"
                fill="#f2f5e9" fill-opacity="0.5" stroke="#606060" stroke-width="1.0"/>
           <path id="arrow"
             d="M 11.500037,31.436501 C 11.940474,20.09759 22.043105,11.32322 32.158766,21.979434 L 37.068811,17.246167 C 37.068811,17.246167 37.088388,32 37.088388,32 L 22.160133,31.978069 C 22.160133,31.978069 26.997745,27.140456 26.997745,27.140456 C 18.528582,18.264221 13.291696,25.230495 11.500037,31.436501 z"
             style="fill:#404040;"/>
          </a>
         </g>
        </svg>
</svg>
