<?xml version="1.0" encoding="UTF-8" standalone="no"?>
<!DOCTYPE svg PUBLIC "-//W3C//DTD SVG 1.1//EN"
 "http://www.w3.org/Graphics/SVG/1.1/DTD/svg11.dtd">
<!-- Generated by graphviz version 2.38.0 (20140413.2041)
 -->
<!-- Title: viewer3D&#45;8bis&#45;2Dimages.cpp Pages: 1 -->
<svg width="3382pt" height="699pt"
 viewBox="0.00 0.00 3381.61 699.00" xmlns="http://www.w3.org/2000/svg" xmlns:xlink="http://www.w3.org/1999/xlink">
<g id="graph0" class="graph" transform="scale(1 1) rotate(0) translate(4 695)">
<title>viewer3D&#45;8bis&#45;2Dimages.cpp</title>
<polygon fill="white" stroke="none" points="-4,4 -4,-695 3377.61,-695 3377.61,4 -4,4"/>
<!-- Node0 -->
<g id="node1" class="node"><title>Node0</title>
<polygon fill="#bfbfbf" stroke="black" points="856.595,-671.5 856.595,-690.5 1012.59,-690.5 1012.59,-671.5 856.595,-671.5"/>
<text text-anchor="middle" x="934.595" y="-678.5" font-family="FreeSans" font-size="10.00">viewer3D&#45;8bis&#45;2Dimages.cpp</text>
</g>
<!-- Node1 -->
<g id="node2" class="node"><title>Node1</title>
<polygon fill="white" stroke="#bfbfbf" points="1986.09,-0.5 1986.09,-19.5 2045.09,-19.5 2045.09,-0.5 1986.09,-0.5"/>
<text text-anchor="middle" x="2015.59" y="-7.5" font-family="FreeSans" font-size="10.00">iostream</text>
</g>
<!-- Node0&#45;&gt;Node1 -->
<g id="edge1" class="edge"><title>Node0&#45;&gt;Node1</title>
<path fill="none" stroke="midnightblue" d="M1012.89,-678.416C1420.12,-669.924 3277.59,-628.013 3277.59,-570 3277.59,-570 3277.59,-570 3277.59,-121 3277.59,-103.064 3632.02,-136.573 2970.59,-56 2617.67,-13.0074 2186.75,-10.4558 2055.44,-10.7688"/>
<polygon fill="midnightblue" stroke="midnightblue" points="2055.42,-7.26868 2045.44,-10.7997 2055.45,-14.2686 2055.42,-7.26868"/>
</g>
<!-- Node2 -->
<g id="node3" class="node"><title>Node2</title>
<g id="a_node3"><a xlink:href="Common_8h_source.html" target="_top" xlink:title="DGtal/base/Common.h">
<polygon fill="white" stroke="black" points="1408.59,-235.5 1408.59,-254.5 1534.59,-254.5 1534.59,-235.5 1408.59,-235.5"/>
<text text-anchor="middle" x="1471.59" y="-242.5" font-family="FreeSans" font-size="10.00">DGtal/base/Common.h</text>
</a>
</g>
</g>
<!-- Node0&#45;&gt;Node2 -->
<g id="edge2" class="edge"><title>Node0&#45;&gt;Node2</title>
<path fill="none" stroke="midnightblue" d="M932.288,-671.37C922.19,-631.618 885.355,-463.588 953.595,-358 988.448,-304.071 1020.22,-309.887 1081.59,-291 1188.36,-258.144 1318.27,-248.913 1397.93,-246.524"/>
<polygon fill="midnightblue" stroke="midnightblue" points="1398.44,-250.012 1408.35,-246.242 1398.25,-243.014 1398.44,-250.012"/>
</g>
<!-- Node42 -->
<g id="node27" class="node"><title>Node42</title>
<g id="a_node27"><a xlink:href="VolReader_8h_source.html" target="_top" xlink:title="DGtal/io/readers/VolReader.h">
<polygon fill="white" stroke="black" points="218.095,-364 218.095,-383 371.095,-383 371.095,-364 218.095,-364"/>
<text text-anchor="middle" x="294.595" y="-371" font-family="FreeSans" font-size="10.00">DGtal/io/readers/VolReader.h</text>
</a>
</g>
</g>
<!-- Node0&#45;&gt;Node42 -->
<g id="edge47" class="edge"><title>Node0&#45;&gt;Node42</title>
<path fill="none" stroke="midnightblue" d="M856.487,-680.717C725.019,-680.755 465.997,-675.471 385.595,-635 351.274,-617.724 328.595,-608.423 328.595,-570 328.595,-570 328.595,-570 328.595,-506.5 328.595,-464.673 312.387,-417.68 302.353,-392.593"/>
<polygon fill="midnightblue" stroke="midnightblue" points="305.55,-391.166 298.495,-383.261 299.081,-393.84 305.55,-391.166"/>
</g>
<!-- Node47 -->
<g id="node32" class="node"><title>Node47</title>
<g id="a_node32"><a xlink:href="ImageHelper_8h_source.html" target="_top" xlink:title="DGtal/images/ImageHelper.h">
<polygon fill="white" stroke="red" points="1657.09,-615.5 1657.09,-634.5 1812.09,-634.5 1812.09,-615.5 1657.09,-615.5"/>
<text text-anchor="middle" x="1734.59" y="-622.5" font-family="FreeSans" font-size="10.00">DGtal/images/ImageHelper.h</text>
</a>
</g>
</g>
<!-- Node0&#45;&gt;Node47 -->
<g id="edge58" class="edge"><title>Node0&#45;&gt;Node47</title>
<path fill="none" stroke="midnightblue" d="M1012.76,-674.724C1162.7,-664.603 1489.77,-642.526 1646.9,-631.92"/>
<polygon fill="midnightblue" stroke="midnightblue" points="1647.26,-635.403 1657,-631.238 1646.78,-628.419 1647.26,-635.403"/>
</g>
<!-- Node101 -->
<g id="node48" class="node"><title>Node101</title>
<polygon fill="white" stroke="#bfbfbf" points="962.595,-615.5 962.595,-634.5 1064.59,-634.5 1064.59,-615.5 962.595,-615.5"/>
<text text-anchor="middle" x="1013.59" y="-622.5" font-family="FreeSans" font-size="10.00">ConfigExamples.h</text>
</g>
<!-- Node0&#45;&gt;Node101 -->
<g id="edge135" class="edge"><title>Node0&#45;&gt;Node101</title>
<path fill="none" stroke="midnightblue" d="M947.288,-671.324C959.496,-662.979 978.173,-650.212 992.598,-640.352"/>
<polygon fill="midnightblue" stroke="midnightblue" points="994.653,-643.187 1000.93,-634.655 990.703,-637.408 994.653,-643.187"/>
</g>
<!-- Node102 -->
<g id="node49" class="node"><title>Node102</title>
<g id="a_node49"><a xlink:href="Viewer3D_8h_source.html" target="_top" xlink:title="DGtal/io/viewers/Viewer3D.h">
<polygon fill="white" stroke="red" points="416.595,-297 416.595,-316 566.595,-316 566.595,-297 416.595,-297"/>
<text text-anchor="middle" x="491.595" y="-304" font-family="FreeSans" font-size="10.00">DGtal/io/viewers/Viewer3D.h</text>
</a>
</g>
</g>
<!-- Node0&#45;&gt;Node102 -->
<g id="edge136" class="edge"><title>Node0&#45;&gt;Node102</title>
<path fill="none" stroke="midnightblue" d="M856.515,-679.967C708.023,-677.784 399.595,-662.158 399.595,-570 399.595,-570 399.595,-570 399.595,-439.5 399.595,-389.593 444.406,-345.053 471.48,-322.697"/>
<polygon fill="midnightblue" stroke="midnightblue" points="473.937,-325.214 479.567,-316.24 469.569,-319.744 473.937,-325.214"/>
</g>
<!-- Node202 -->
<g id="node50" class="node"><title>Node202</title>
<g id="a_node50"><a xlink:href="BasicPointFunctors_8h_source.html" target="_top" xlink:title="DGtal/kernel/BasicPointFunctors.h">
<polygon fill="white" stroke="red" points="1046.59,-431 1046.59,-450 1224.59,-450 1224.59,-431 1046.59,-431"/>
<text text-anchor="middle" x="1135.59" y="-438" font-family="FreeSans" font-size="10.00">DGtal/kernel/BasicPointFunctors.h</text>
</a>
</g>
</g>
<!-- Node0&#45;&gt;Node202 -->
<g id="edge140" class="edge"><title>Node0&#45;&gt;Node202</title>
<path fill="none" stroke="midnightblue" d="M935.651,-671.428C937.559,-658.42 942.468,-633.277 953.595,-615 996.676,-544.233 1075.91,-483.037 1114.01,-456.114"/>
<polygon fill="midnightblue" stroke="midnightblue" points="1116.14,-458.899 1122.34,-450.313 1112.14,-453.155 1116.14,-458.899"/>
</g>
<!-- Node2&#45;&gt;Node1 -->
<g id="edge3" class="edge"><title>Node2&#45;&gt;Node1</title>
<path fill="none" stroke="midnightblue" d="M1408.41,-236.693C1351.46,-227.432 1280.89,-207.639 1310.59,-168 1344.75,-122.416 1380.55,-152.75 1433.59,-132 1504.3,-104.34 1513.68,-77.1851 1586.59,-56 1725.51,-15.6382 1899.04,-10.5658 1975.85,-10.5074"/>
<polygon fill="midnightblue" stroke="midnightblue" points="1976.03,-14.0077 1986.04,-10.5293 1976.04,-7.00773 1976.03,-14.0077"/>
</g>
<!-- Node3 -->
<g id="node4" class="node"><title>Node3</title>
<polygon fill="white" stroke="#bfbfbf" points="2019.09,-174 2019.09,-193 2082.09,-193 2082.09,-174 2019.09,-174"/>
<text text-anchor="middle" x="2050.59" y="-181" font-family="FreeSans" font-size="10.00">exception</text>
</g>
<!-- Node2&#45;&gt;Node3 -->
<g id="edge4" class="edge"><title>Node2&#45;&gt;Node3</title>
<path fill="none" stroke="midnightblue" d="M1534.99,-243.163C1635.5,-240.827 1837.18,-232.029 2004.59,-199 2008.75,-198.179 2013.07,-197.116 2017.31,-195.939"/>
<polygon fill="midnightblue" stroke="midnightblue" points="2018.4,-199.265 2026.98,-193.044 2016.4,-192.559 2018.4,-199.265"/>
</g>
<!-- Node4 -->
<g id="node5" class="node"><title>Node4</title>
<polygon fill="white" stroke="#bfbfbf" points="734.595,-112.5 734.595,-131.5 796.595,-131.5 796.595,-112.5 734.595,-112.5"/>
<text text-anchor="middle" x="765.595" y="-119.5" font-family="FreeSans" font-size="10.00">algorithm</text>
</g>
<!-- Node2&#45;&gt;Node4 -->
<g id="edge5" class="edge"><title>Node2&#45;&gt;Node4</title>
<path fill="none" stroke="midnightblue" d="M1408.17,-243.982C1283.13,-243.103 1009.6,-236.771 924.595,-199 906.205,-190.829 908.765,-178.494 891.595,-168 865.174,-151.853 832.104,-140.32 806.474,-132.975"/>
<polygon fill="midnightblue" stroke="midnightblue" points="807.264,-129.562 796.693,-130.27 805.398,-136.309 807.264,-129.562"/>
</g>
<!-- Node5 -->
<g id="node6" class="node"><title>Node5</title>
<polygon fill="white" stroke="#bfbfbf" points="1330.59,-174 1330.59,-193 1432.59,-193 1432.59,-174 1330.59,-174"/>
<text text-anchor="middle" x="1381.59" y="-181" font-family="FreeSans" font-size="10.00">boost/version.hpp</text>
</g>
<!-- Node2&#45;&gt;Node5 -->
<g id="edge6" class="edge"><title>Node2&#45;&gt;Node5</title>
<path fill="none" stroke="midnightblue" d="M1458.7,-235.475C1444.13,-225.843 1420.19,-210.017 1402.85,-198.552"/>
<polygon fill="midnightblue" stroke="midnightblue" points="1404.74,-195.604 1394.47,-193.009 1400.88,-201.444 1404.74,-195.604"/>
</g>
<!-- Node6 -->
<g id="node7" class="node"><title>Node6</title>
<polygon fill="white" stroke="#bfbfbf" points="2528.09,-174 2528.09,-193 2667.09,-193 2667.09,-174 2528.09,-174"/>
<text text-anchor="middle" x="2597.59" y="-181" font-family="FreeSans" font-size="10.00">boost/concept_check.hpp</text>
</g>
<!-- Node2&#45;&gt;Node6 -->
<g id="edge7" class="edge"><title>Node2&#45;&gt;Node6</title>
<path fill="none" stroke="midnightblue" d="M1534.67,-244.327C1697.89,-244.514 2147.29,-240.851 2518.59,-199 2527.85,-197.956 2537.66,-196.469 2547.1,-194.842"/>
<polygon fill="midnightblue" stroke="midnightblue" points="2547.94,-198.248 2557.16,-193.035 2546.7,-191.359 2547.94,-198.248"/>
</g>
<!-- Node7 -->
<g id="node8" class="node"><title>Node7</title>
<polygon fill="white" stroke="#bfbfbf" points="1451.09,-174 1451.09,-193 1580.09,-193 1580.09,-174 1451.09,-174"/>
<text text-anchor="middle" x="1515.59" y="-181" font-family="FreeSans" font-size="10.00">boost/static_assert.hpp</text>
</g>
<!-- Node2&#45;&gt;Node7 -->
<g id="edge8" class="edge"><title>Node2&#45;&gt;Node7</title>
<path fill="none" stroke="midnightblue" d="M1477.9,-235.475C1484.5,-226.55 1495.03,-212.307 1503.29,-201.143"/>
<polygon fill="midnightblue" stroke="midnightblue" points="1506.17,-203.131 1509.3,-193.009 1500.54,-198.968 1506.17,-203.131"/>
</g>
<!-- Node8 -->
<g id="node9" class="node"><title>Node8</title>
<polygon fill="white" stroke="#bfbfbf" points="2906.09,-174 2906.09,-193 3045.09,-193 3045.09,-174 2906.09,-174"/>
<text text-anchor="middle" x="2975.59" y="-181" font-family="FreeSans" font-size="10.00">boost/concept/assert.hpp</text>
</g>
<!-- Node2&#45;&gt;Node8 -->
<g id="edge9" class="edge"><title>Node2&#45;&gt;Node8</title>
<path fill="none" stroke="midnightblue" d="M1534.6,-241.888C1713.36,-235.844 2239.08,-217.706 2675.59,-199 2750.2,-195.803 2835.23,-191.645 2895.66,-188.602"/>
<polygon fill="midnightblue" stroke="midnightblue" points="2896.08,-192.085 2905.89,-188.085 2895.73,-185.094 2896.08,-192.085"/>
</g>
<!-- Node9 -->
<g id="node10" class="node"><title>Node9</title>
<polygon fill="white" stroke="#bfbfbf" points="3063.59,-174 3063.59,-193 3211.59,-193 3211.59,-174 3063.59,-174"/>
<text text-anchor="middle" x="3137.59" y="-181" font-family="FreeSans" font-size="10.00">boost/concept/requires.hpp</text>
</g>
<!-- Node2&#45;&gt;Node9 -->
<g id="edge10" class="edge"><title>Node2&#45;&gt;Node9</title>
<path fill="none" stroke="midnightblue" d="M1534.89,-243.423C1791.12,-240.899 2752.16,-229.555 3054.59,-199 3064.64,-197.985 3075.3,-196.464 3085.51,-194.784"/>
<polygon fill="midnightblue" stroke="midnightblue" points="3086.27,-198.204 3095.53,-193.062 3085.09,-191.305 3086.27,-198.204"/>
</g>
<!-- Node10 -->
<g id="node11" class="node"><title>Node10</title>
<polygon fill="white" stroke="#bfbfbf" points="1598.59,-168.5 1598.59,-198.5 1718.59,-198.5 1718.59,-168.5 1598.59,-168.5"/>
<text text-anchor="start" x="1606.59" y="-186.5" font-family="FreeSans" font-size="10.00">boost/iterator/iterator</text>
<text text-anchor="middle" x="1658.59" y="-175.5" font-family="FreeSans" font-size="10.00">_concepts.hpp</text>
</g>
<!-- Node2&#45;&gt;Node10 -->
<g id="edge11" class="edge"><title>Node2&#45;&gt;Node10</title>
<path fill="none" stroke="midnightblue" d="M1498.39,-235.475C1526.08,-226.664 1570.07,-212.668 1604.95,-201.57"/>
<polygon fill="midnightblue" stroke="midnightblue" points="1606.05,-204.89 1614.52,-198.523 1603.93,-198.22 1606.05,-204.89"/>
</g>
<!-- Node11 -->
<g id="node12" class="node"><title>Node11</title>
<polygon fill="white" stroke="#bfbfbf" points="1736.09,-174 1736.09,-193 1895.09,-193 1895.09,-174 1736.09,-174"/>
<text text-anchor="middle" x="1815.59" y="-181" font-family="FreeSans" font-size="10.00">boost/concept_archetype.hpp</text>
</g>
<!-- Node2&#45;&gt;Node11 -->
<g id="edge12" class="edge"><title>Node2&#45;&gt;Node11</title>
<path fill="none" stroke="midnightblue" d="M1520.88,-235.475C1583.08,-224.716 1689.96,-206.23 1756.48,-194.724"/>
<polygon fill="midnightblue" stroke="midnightblue" points="1757.14,-198.162 1766.4,-193.009 1755.95,-191.265 1757.14,-198.162"/>
</g>
<!-- Node12 -->
<g id="node13" class="node"><title>Node12</title>
<polygon fill="white" stroke="#bfbfbf" points="815.095,-112.5 815.095,-131.5 862.095,-131.5 862.095,-112.5 815.095,-112.5"/>
<text text-anchor="middle" x="838.595" y="-119.5" font-family="FreeSans" font-size="10.00">cmath</text>
</g>
<!-- Node2&#45;&gt;Node12 -->
<g id="edge13" class="edge"><title>Node2&#45;&gt;Node12</title>
<path fill="none" stroke="midnightblue" d="M1408.43,-242.067C1292.76,-237.909 1051.55,-226.192 972.595,-199 948.583,-190.73 946.535,-180.789 924.595,-168 905.123,-156.65 882.523,-144.876 865.378,-136.22"/>
<polygon fill="midnightblue" stroke="midnightblue" points="866.487,-132.861 855.979,-131.51 863.351,-139.119 866.487,-132.861"/>
</g>
<!-- Node13 -->
<g id="node14" class="node"><title>Node13</title>
<polygon fill="white" stroke="#bfbfbf" points="1913.09,-174 1913.09,-193 1962.09,-193 1962.09,-174 1913.09,-174"/>
<text text-anchor="middle" x="1937.59" y="-181" font-family="FreeSans" font-size="10.00">stdio.h</text>
</g>
<!-- Node2&#45;&gt;Node13 -->
<g id="edge14" class="edge"><title>Node2&#45;&gt;Node13</title>
<path fill="none" stroke="midnightblue" d="M1534.88,-243.293C1620,-241.018 1775.49,-232.183 1903.59,-199 1905.95,-198.389 1908.36,-197.64 1910.75,-196.808"/>
<polygon fill="midnightblue" stroke="midnightblue" points="1912.27,-199.971 1920.3,-193.057 1909.71,-193.455 1912.27,-199.971"/>
</g>
<!-- Node14 -->
<g id="node15" class="node"><title>Node14</title>
<g id="a_node15"><a xlink:href="Config_8h_source.html" target="_top" xlink:title="DGtal/base/Config.h">
<polygon fill="white" stroke="black" points="1192.59,-56.5 1192.59,-75.5 1304.59,-75.5 1304.59,-56.5 1192.59,-56.5"/>
<text text-anchor="middle" x="1248.59" y="-63.5" font-family="FreeSans" font-size="10.00">DGtal/base/Config.h</text>
</a>
</g>
</g>
<!-- Node2&#45;&gt;Node14 -->
<g id="edge15" class="edge"><title>Node2&#45;&gt;Node14</title>
<path fill="none" stroke="midnightblue" d="M1408.58,-244.358C1328.27,-243.147 1186.02,-235.372 1070.59,-199 1055.75,-194.323 955.543,-145.38 947.595,-132 943.055,-124.358 941.793,-118.734 947.595,-112 977.219,-77.6178 1102.63,-69.116 1181.93,-67.2432"/>
<polygon fill="midnightblue" stroke="midnightblue" points="1182.39,-70.7345 1192.32,-67.0293 1182.25,-63.736 1182.39,-70.7345"/>
</g>
<!-- Node16 -->
<g id="node17" class="node"><title>Node16</title>
<g id="a_node17"><a xlink:href="Trace_8h_source.html" target="_top" xlink:title="DGtal/base/Trace.h">
<polygon fill="white" stroke="red" points="1091.09,-174 1091.09,-193 1198.09,-193 1198.09,-174 1091.09,-174"/>
<text text-anchor="middle" x="1144.59" y="-181" font-family="FreeSans" font-size="10.00">DGtal/base/Trace.h</text>
</a>
</g>
</g>
<!-- Node2&#45;&gt;Node16 -->
<g id="edge18" class="edge"><title>Node2&#45;&gt;Node16</title>
<path fill="none" stroke="midnightblue" d="M1418.91,-235.449C1366.5,-226.802 1283.84,-212.78 1212.59,-199 1206.37,-197.797 1199.84,-196.477 1193.39,-195.139"/>
<polygon fill="midnightblue" stroke="midnightblue" points="1193.89,-191.666 1183.38,-193.037 1192.45,-198.517 1193.89,-191.666"/>
</g>
<!-- Node23 -->
<g id="node18" class="node"><title>Node23</title>
<g id="a_node18"><a xlink:href="TraceWriterTerm_8h_source.html" target="_top" xlink:title="DGtal/base/TraceWriterTerm.h">
<polygon fill="white" stroke="red" points="1246.09,-112.5 1246.09,-131.5 1403.09,-131.5 1403.09,-112.5 1246.09,-112.5"/>
<text text-anchor="middle" x="1324.59" y="-119.5" font-family="FreeSans" font-size="10.00">DGtal/base/TraceWriterTerm.h</text>
</a>
</g>
</g>
<!-- Node2&#45;&gt;Node23 -->
<g id="edge29" class="edge"><title>Node2&#45;&gt;Node23</title>
<path fill="none" stroke="midnightblue" d="M1408.39,-239.847C1350.27,-234.555 1270.23,-223.031 1250.59,-199 1241.88,-188.33 1243.84,-180.01 1250.59,-168 1258.82,-153.378 1273.93,-142.954 1288.36,-135.846"/>
<polygon fill="midnightblue" stroke="midnightblue" points="1289.99,-138.949 1297.67,-131.644 1287.11,-132.569 1289.99,-138.949"/>
</g>
<!-- Node24 -->
<g id="node19" class="node"><title>Node24</title>
<g id="a_node19"><a xlink:href="Assert_8h_source.html" target="_top" xlink:title="DGtal/base/Assert.h">
<polygon fill="white" stroke="red" points="1038.09,-112.5 1038.09,-131.5 1151.09,-131.5 1151.09,-112.5 1038.09,-112.5"/>
<text text-anchor="middle" x="1094.59" y="-119.5" font-family="FreeSans" font-size="10.00">DGtal/base/Assert.h</text>
</a>
</g>
</g>
<!-- Node2&#45;&gt;Node24 -->
<g id="edge33" class="edge"><title>Node2&#45;&gt;Node24</title>
<path fill="none" stroke="midnightblue" d="M1408.59,-241.244C1303.78,-236.008 1102.94,-222.946 1081.59,-199 1067.45,-183.128 1075.86,-157.697 1084.28,-140.677"/>
<polygon fill="midnightblue" stroke="midnightblue" points="1087.42,-142.229 1089.07,-131.764 1081.26,-138.915 1087.42,-142.229"/>
</g>
<!-- Node27 -->
<g id="node20" class="node"><title>Node27</title>
<g id="a_node20"><a xlink:href="TraceWriterFile_8h_source.html" target="_top" xlink:title="DGtal/base/TraceWriterFile.h">
<polygon fill="white" stroke="red" points="416.095,-56.5 416.095,-75.5 565.095,-75.5 565.095,-56.5 416.095,-56.5"/>
<text text-anchor="middle" x="490.595" y="-63.5" font-family="FreeSans" font-size="10.00">DGtal/base/TraceWriterFile.h</text>
</a>
</g>
</g>
<!-- Node2&#45;&gt;Node27 -->
<g id="edge30" class="edge"><title>Node2&#45;&gt;Node27</title>
<path fill="none" stroke="midnightblue" d="M1408.55,-242.28C1298.19,-238.556 1074.83,-227.642 1002.59,-199 981.687,-190.71 981.119,-180.756 962.595,-168 923.17,-140.851 915.844,-127.617 870.595,-112 773.083,-78.3456 654.058,-68.9618 575.493,-66.7874"/>
<polygon fill="midnightblue" stroke="midnightblue" points="575.244,-63.2804 565.161,-66.5366 575.074,-70.2784 575.244,-63.2804"/>
</g>
<!-- Node28 -->
<g id="node21" class="node"><title>Node28</title>
<g id="a_node21"><a xlink:href="ConceptUtils_8h_source.html" target="_top" xlink:title="DGtal/base/ConceptUtils.h">
<polygon fill="white" stroke="black" points="2367.09,-174 2367.09,-193 2510.09,-193 2510.09,-174 2367.09,-174"/>
<text text-anchor="middle" x="2438.59" y="-181" font-family="FreeSans" font-size="10.00">DGtal/base/ConceptUtils.h</text>
</a>
</g>
</g>
<!-- Node2&#45;&gt;Node28 -->
<g id="edge34" class="edge"><title>Node2&#45;&gt;Node28</title>
<path fill="none" stroke="midnightblue" d="M1534.67,-240.119C1703.91,-229.706 2167.97,-201.152 2356.92,-189.525"/>
<polygon fill="midnightblue" stroke="midnightblue" points="2357.3,-193.009 2367.07,-188.901 2356.87,-186.022 2357.3,-193.009"/>
</g>
<!-- Node29 -->
<g id="node22" class="node"><title>Node29</title>
<g id="a_node22"><a xlink:href="BasicTypes_8h_source.html" target="_top" xlink:title="DGtal/base/BasicTypes.h">
<polygon fill="white" stroke="red" points="2024.59,-56.5 2024.59,-75.5 2158.59,-75.5 2158.59,-56.5 2024.59,-56.5"/>
<text text-anchor="middle" x="2091.59" y="-63.5" font-family="FreeSans" font-size="10.00">DGtal/base/BasicTypes.h</text>
</a>
</g>
</g>
<!-- Node2&#45;&gt;Node29 -->
<g id="edge36" class="edge"><title>Node2&#45;&gt;Node29</title>
<path fill="none" stroke="midnightblue" d="M1534.84,-244.144C1684.98,-243.83 2053.16,-238.951 2090.59,-199 2119.37,-168.292 2107.38,-113.723 2098.3,-85.3227"/>
<polygon fill="midnightblue" stroke="midnightblue" points="2101.49,-83.8396 2094.94,-75.513 2094.87,-86.1076 2101.49,-83.8396"/>
</g>
<!-- Node32 -->
<g id="node23" class="node"><title>Node32</title>
<g id="a_node23"><a xlink:href="BasicFunctors_8h_source.html" target="_top" xlink:title="DGtal/base/BasicFunctors.h">
<polygon fill="white" stroke="red" points="734.595,-174 734.595,-193 882.595,-193 882.595,-174 734.595,-174"/>
<text text-anchor="middle" x="808.595" y="-181" font-family="FreeSans" font-size="10.00">DGtal/base/BasicFunctors.h</text>
</a>
</g>
</g>
<!-- Node2&#45;&gt;Node32 -->
<g id="edge38" class="edge"><title>Node2&#45;&gt;Node32</title>
<path fill="none" stroke="midnightblue" d="M1408.56,-241.115C1301.12,-235.564 1076.21,-221.878 887.595,-199 877.784,-197.81 867.395,-196.312 857.465,-194.734"/>
<polygon fill="midnightblue" stroke="midnightblue" points="857.762,-191.236 847.327,-193.069 856.628,-198.143 857.762,-191.236"/>
</g>
<!-- Node40 -->
<g id="node25" class="node"><title>Node40</title>
<g id="a_node25"><a xlink:href="BasicArchetypes_8h_source.html" target="_top" xlink:title="DGtal/base/BasicArchetypes.h">
<polygon fill="white" stroke="black" points="1596.09,-56.5 1596.09,-75.5 1757.09,-75.5 1757.09,-56.5 1596.09,-56.5"/>
<text text-anchor="middle" x="1676.59" y="-63.5" font-family="FreeSans" font-size="10.00">DGtal/base/BasicArchetypes.h</text>
</a>
</g>
</g>
<!-- Node2&#45;&gt;Node40 -->
<g id="edge43" class="edge"><title>Node2&#45;&gt;Node40</title>
<path fill="none" stroke="midnightblue" d="M1412.56,-235.469C1358.89,-225.207 1292.23,-204.606 1321.59,-168 1367.75,-110.467 1412.55,-151.798 1483.59,-132 1540.81,-116.057 1606.04,-93.0483 1644.13,-79.1123"/>
<polygon fill="midnightblue" stroke="midnightblue" points="1645.49,-82.3418 1653.67,-75.6051 1643.07,-75.772 1645.49,-82.3418"/>
</g>
<!-- Node41 -->
<g id="node26" class="node"><title>Node41</title>
<g id="a_node26"><a xlink:href="Exceptions_8h_source.html" target="_top" xlink:title="DGtal/base/Exceptions.h">
<polygon fill="white" stroke="black" points="1872.59,-56.5 1872.59,-75.5 2006.59,-75.5 2006.59,-56.5 1872.59,-56.5"/>
<text text-anchor="middle" x="1939.59" y="-63.5" font-family="FreeSans" font-size="10.00">DGtal/base/Exceptions.h</text>
</a>
</g>
</g>
<!-- Node2&#45;&gt;Node41 -->
<g id="edge45" class="edge"><title>Node2&#45;&gt;Node41</title>
<path fill="none" stroke="midnightblue" d="M1534.77,-242.96C1662.49,-240.2 1941.73,-230.583 1970.59,-199 2000.13,-166.683 1970.39,-111.656 1951.91,-83.9716"/>
<polygon fill="midnightblue" stroke="midnightblue" points="1954.75,-81.9269 1946.18,-75.7033 1949,-85.9155 1954.75,-81.9269"/>
</g>
<!-- Node14&#45;&gt;Node1 -->
<g id="edge16" class="edge"><title>Node14&#45;&gt;Node1</title>
<path fill="none" stroke="midnightblue" d="M1304.64,-60.556C1323.67,-59.0727 1345.05,-57.4334 1364.59,-56 1596.21,-39.0099 1874.32,-20.3749 1975.95,-13.6238"/>
<polygon fill="midnightblue" stroke="midnightblue" points="1976.32,-17.107 1986.07,-12.9523 1975.86,-10.1224 1976.32,-17.107"/>
</g>
<!-- Node15 -->
<g id="node16" class="node"><title>Node15</title>
<polygon fill="white" stroke="#bfbfbf" points="1072.59,-0.5 1072.59,-19.5 1116.59,-19.5 1116.59,-0.5 1072.59,-0.5"/>
<text text-anchor="middle" x="1094.59" y="-7.5" font-family="FreeSans" font-size="10.00">string</text>
</g>
<!-- Node14&#45;&gt;Node15 -->
<g id="edge17" class="edge"><title>Node14&#45;&gt;Node15</title>
<path fill="none" stroke="midnightblue" d="M1224.19,-56.4435C1197.79,-47.1858 1155.59,-32.3866 1126.55,-22.2066"/>
<polygon fill="midnightblue" stroke="midnightblue" points="1127.48,-18.8213 1116.88,-18.8151 1125.16,-25.427 1127.48,-18.8213"/>
</g>
<!-- Node16&#45;&gt;Node1 -->
<g id="edge19" class="edge"><title>Node16&#45;&gt;Node1</title>
<path fill="none" stroke="midnightblue" d="M1198.16,-174.81C1271.04,-163.977 1394.39,-144.189 1411.59,-132 1443.44,-109.434 1422.59,-76.8345 1455.59,-56 1499.33,-28.3928 1854.99,-15.642 1975.7,-12.0806"/>
<polygon fill="midnightblue" stroke="midnightblue" points="1976.07,-15.5712 1985.97,-11.7831 1975.87,-8.57418 1976.07,-15.5712"/>
</g>
<!-- Node16&#45;&gt;Node14 -->
<g id="edge21" class="edge"><title>Node16&#45;&gt;Node14</title>
<path fill="none" stroke="midnightblue" d="M1153.46,-173.735C1163.42,-163.799 1179.98,-147.026 1193.59,-132 1208.25,-115.827 1224.3,-96.6864 1235.26,-83.3821"/>
<polygon fill="midnightblue" stroke="midnightblue" points="1238.02,-85.5252 1241.66,-75.5719 1232.61,-81.0887 1238.02,-85.5252"/>
</g>
<!-- Node16&#45;&gt;Node15 -->
<g id="edge20" class="edge"><title>Node16&#45;&gt;Node15</title>
<path fill="none" stroke="midnightblue" d="M1149.24,-173.71C1155.73,-160.265 1166.02,-133.85 1159.59,-112 1149.8,-78.6907 1125.25,-45.9857 1109.28,-27.189"/>
<polygon fill="midnightblue" stroke="midnightblue" points="1111.85,-24.8065 1102.63,-19.5792 1106.58,-29.4125 1111.85,-24.8065"/>
</g>
<!-- Node16&#45;&gt;Node23 -->
<g id="edge22" class="edge"><title>Node16&#45;&gt;Node23</title>
<path fill="none" stroke="midnightblue" d="M1170.38,-173.975C1201.53,-163.68 1254.08,-146.31 1289.05,-134.75"/>
<polygon fill="midnightblue" stroke="midnightblue" points="1290.46,-137.971 1298.85,-131.509 1288.26,-131.325 1290.46,-137.971"/>
</g>
<!-- Node16&#45;&gt;Node24 -->
<g id="edge26" class="edge"><title>Node16&#45;&gt;Node24</title>
<path fill="none" stroke="midnightblue" d="M1132.53,-173.975C1123.18,-165.138 1110.95,-151.089 1102.7,-139.975"/>
<polygon fill="midnightblue" stroke="midnightblue" points="1105.41,-137.748 1096.85,-131.509 1099.65,-141.726 1105.41,-137.748"/>
</g>
<!-- Node23&#45;&gt;Node1 -->
<g id="edge23" class="edge"><title>Node23&#45;&gt;Node1</title>
<path fill="none" stroke="midnightblue" d="M1333.41,-112.311C1348.91,-97.6633 1382.71,-68.4393 1417.59,-56 1520.89,-19.1626 1859.16,-12.4798 1975.71,-11.2681"/>
<polygon fill="midnightblue" stroke="midnightblue" points="1975.99,-14.7656 1985.96,-11.1699 1975.93,-7.76595 1975.99,-14.7656"/>
</g>
<!-- Node23&#45;&gt;Node14 -->
<g id="edge25" class="edge"><title>Node23&#45;&gt;Node14</title>
<path fill="none" stroke="midnightblue" d="M1312.38,-112.324C1300.82,-104.107 1283.22,-91.6017 1269.43,-81.8069"/>
<polygon fill="midnightblue" stroke="midnightblue" points="1271.21,-78.7729 1261.03,-75.8339 1267.15,-84.4791 1271.21,-78.7729"/>
</g>
<!-- Node23&#45;&gt;Node15 -->
<g id="edge24" class="edge"><title>Node23&#45;&gt;Node15</title>
<path fill="none" stroke="midnightblue" d="M1325.95,-112.062C1327.51,-98.1007 1328.22,-71.1495 1313.59,-56 1288.19,-29.6915 1181.53,-17.7316 1127,-13.2513"/>
<polygon fill="midnightblue" stroke="midnightblue" points="1127.07,-9.74623 1116.82,-12.4529 1126.52,-16.7248 1127.07,-9.74623"/>
</g>
<!-- Node24&#45;&gt;Node15 -->
<g id="edge28" class="edge"><title>Node24&#45;&gt;Node15</title>
<path fill="none" stroke="midnightblue" d="M1094.59,-112.368C1094.59,-94.617 1094.59,-53.6664 1094.59,-29.5974"/>
<polygon fill="midnightblue" stroke="midnightblue" points="1098.09,-29.5914 1094.59,-19.5914 1091.09,-29.5915 1098.09,-29.5914"/>
</g>
<!-- Node24&#45;&gt;Node16 -->
<g id="edge27" class="edge"><title>Node24&#45;&gt;Node16</title>
<path fill="none" stroke="midnightblue" d="M1106.64,-131.509C1115.99,-140.34 1128.22,-154.388 1136.48,-165.505"/>
<polygon fill="midnightblue" stroke="midnightblue" points="1133.77,-167.738 1142.33,-173.975 1139.53,-163.758 1133.77,-167.738"/>
</g>
<!-- Node27&#45;&gt;Node1 -->
<g id="edge31" class="edge"><title>Node27&#45;&gt;Node1</title>
<path fill="none" stroke="midnightblue" d="M565.457,-56.9806C569.9,-56.6175 574.304,-56.2862 578.595,-56 1131.76,-19.0982 1806.78,-12.3555 1975.8,-11.217"/>
<polygon fill="midnightblue" stroke="midnightblue" points="1975.99,-14.7159 1985.97,-11.1512 1975.95,-7.71602 1975.99,-14.7159"/>
</g>
<!-- Node27&#45;&gt;Node15 -->
<g id="edge32" class="edge"><title>Node27&#45;&gt;Node15</title>
<path fill="none" stroke="midnightblue" d="M565.48,-57.2645C569.917,-56.8301 574.314,-56.4056 578.595,-56 761.513,-38.6711 981.153,-20.3374 1062.37,-13.6421"/>
<polygon fill="midnightblue" stroke="midnightblue" points="1062.78,-17.1205 1072.46,-12.8118 1062.2,-10.1441 1062.78,-17.1205"/>
</g>
<!-- Node28&#45;&gt;Node1 -->
<g id="edge35" class="edge"><title>Node28&#45;&gt;Node1</title>
<path fill="none" stroke="midnightblue" d="M2435.62,-173.887C2426.99,-150.394 2399.59,-85.0241 2352.59,-56 2303.67,-25.7858 2134.01,-15.4966 2055.74,-12.3046"/>
<polygon fill="midnightblue" stroke="midnightblue" points="2055.45,-8.79087 2045.32,-11.9 2055.18,-15.7856 2055.45,-8.79087"/>
</g>
<!-- Node29&#45;&gt;Node1 -->
<g id="edge37" class="edge"><title>Node29&#45;&gt;Node1</title>
<path fill="none" stroke="midnightblue" d="M2079.38,-56.324C2067.82,-48.1066 2050.22,-35.6017 2036.43,-25.8069"/>
<polygon fill="midnightblue" stroke="midnightblue" points="2038.21,-22.7729 2028.03,-19.8339 2034.15,-28.4791 2038.21,-22.7729"/>
</g>
<!-- Node32&#45;&gt;Node2 -->
<g id="edge42" class="edge"><title>Node32&#45;&gt;Node2</title>
<path fill="none" stroke="midnightblue" d="M864.645,-193.069C878.107,-195.234 892.376,-197.397 905.595,-199 1082.06,-220.404 1290.29,-233.762 1398.37,-239.94"/>
<polygon fill="midnightblue" stroke="midnightblue" points="1398.33,-243.444 1408.51,-240.516 1398.72,-236.455 1398.33,-243.444"/>
</g>
<!-- Node32&#45;&gt;Node4 -->
<g id="edge39" class="edge"><title>Node32&#45;&gt;Node4</title>
<path fill="none" stroke="midnightblue" d="M802.434,-173.975C795.984,-165.05 785.691,-150.807 777.622,-139.643"/>
<polygon fill="midnightblue" stroke="midnightblue" points="780.438,-137.564 771.744,-131.509 774.765,-141.664 780.438,-137.564"/>
</g>
<!-- Node32&#45;&gt;Node12 -->
<g id="edge41" class="edge"><title>Node32&#45;&gt;Node12</title>
<path fill="none" stroke="midnightblue" d="M812.893,-173.975C817.259,-165.315 824.15,-151.649 829.698,-140.645"/>
<polygon fill="midnightblue" stroke="midnightblue" points="832.928,-142.014 834.305,-131.509 826.677,-138.863 832.928,-142.014"/>
</g>
<!-- Node33 -->
<g id="node24" class="node"><title>Node33</title>
<polygon fill="white" stroke="#bfbfbf" points="957.095,-112.5 957.095,-131.5 1020.09,-131.5 1020.09,-112.5 957.095,-112.5"/>
<text text-anchor="middle" x="988.595" y="-119.5" font-family="FreeSans" font-size="10.00">functional</text>
</g>
<!-- Node32&#45;&gt;Node33 -->
<g id="edge40" class="edge"><title>Node32&#45;&gt;Node33</title>
<path fill="none" stroke="midnightblue" d="M834.384,-173.975C865.528,-163.68 918.076,-146.31 953.048,-134.75"/>
<polygon fill="midnightblue" stroke="midnightblue" points="954.457,-137.971 962.853,-131.509 952.26,-131.325 954.457,-137.971"/>
</g>
<!-- Node40&#45;&gt;Node1 -->
<g id="edge44" class="edge"><title>Node40&#45;&gt;Node1</title>
<path fill="none" stroke="midnightblue" d="M1730.31,-56.4435C1798.61,-45.5638 1914.96,-27.0308 1975.82,-17.336"/>
<polygon fill="midnightblue" stroke="midnightblue" points="1976.48,-20.775 1985.8,-15.7454 1975.38,-13.8621 1976.48,-20.775"/>
</g>
<!-- Node41&#45;&gt;Node1 -->
<g id="edge46" class="edge"><title>Node41&#45;&gt;Node1</title>
<path fill="none" stroke="midnightblue" d="M1951.81,-56.324C1963.37,-48.1066 1980.97,-35.6017 1994.76,-25.8069"/>
<polygon fill="midnightblue" stroke="midnightblue" points="1997.04,-28.4791 2003.16,-19.8339 1992.98,-22.7729 1997.04,-28.4791"/>
</g>
<!-- Node42&#45;&gt;Node1 -->
<g id="edge48" class="edge"><title>Node42&#45;&gt;Node1</title>
<path fill="none" stroke="midnightblue" d="M302.563,-363.874C310.969,-354.324 324.024,-338.137 331.595,-322 346.382,-290.479 350.595,-280.817 350.595,-246 350.595,-246 350.595,-246 350.595,-121 350.595,-90.2048 349.572,-73.9496 374.595,-56 408.164,-31.9203 1727.8,-14.5366 1975.68,-11.4801"/>
<polygon fill="midnightblue" stroke="midnightblue" points="1976.06,-14.9758 1986.02,-11.3533 1975.98,-7.97634 1976.06,-14.9758"/>
</g>
<!-- Node42&#45;&gt;Node2 -->
<g id="edge52" class="edge"><title>Node42&#45;&gt;Node2</title>
<path fill="none" stroke="midnightblue" d="M371.455,-367.719C464.766,-361.112 626.65,-347.069 763.595,-322 817.356,-312.159 828.688,-300.007 882.595,-291 1066.51,-260.271 1286.3,-250.492 1398.22,-247.405"/>
<polygon fill="midnightblue" stroke="midnightblue" points="1398.48,-250.9 1408.39,-247.135 1398.3,-243.902 1398.48,-250.9"/>
</g>
<!-- Node42&#45;&gt;Node15 -->
<g id="edge50" class="edge"><title>Node42&#45;&gt;Node15</title>
<path fill="none" stroke="midnightblue" d="M217.794,-367.524C146.913,-361.348 48.5374,-348.243 20.5948,-322 -4.78454,-298.164 1.59485,-280.817 1.59485,-246 1.59485,-246 1.59485,-246 1.59485,-121 1.59485,-11.5482 880.484,-9.9399 1062.03,-10.7752"/>
<polygon fill="midnightblue" stroke="midnightblue" points="1062.25,-14.2763 1072.27,-10.8285 1062.28,-7.27638 1062.25,-14.2763"/>
</g>
<!-- Node43 -->
<g id="node28" class="node"><title>Node43</title>
<polygon fill="white" stroke="#bfbfbf" points="266.595,-297 266.595,-316 322.595,-316 322.595,-297 266.595,-297"/>
<text text-anchor="middle" x="294.595" y="-304" font-family="FreeSans" font-size="10.00">sstream</text>
</g>
<!-- Node42&#45;&gt;Node43 -->
<g id="edge49" class="edge"><title>Node42&#45;&gt;Node43</title>
<path fill="none" stroke="midnightblue" d="M294.595,-363.734C294.595,-354.183 294.595,-338.618 294.595,-326.283"/>
<polygon fill="midnightblue" stroke="midnightblue" points="298.095,-326.127 294.595,-316.127 291.095,-326.127 298.095,-326.127"/>
</g>
<!-- Node44 -->
<g id="node29" class="node"><title>Node44</title>
<polygon fill="white" stroke="#bfbfbf" points="30.0948,-297 30.0948,-316 75.0948,-316 75.0948,-297 30.0948,-297"/>
<text text-anchor="middle" x="52.5948" y="-304" font-family="FreeSans" font-size="10.00">cstdio</text>
</g>
<!-- Node42&#45;&gt;Node44 -->
<g id="edge51" class="edge"><title>Node42&#45;&gt;Node44</title>
<path fill="none" stroke="midnightblue" d="M246.877,-363.952C203.587,-355.525 138.354,-341.137 83.5948,-322 81.9753,-321.434 80.3267,-320.811 78.6762,-320.152"/>
<polygon fill="midnightblue" stroke="midnightblue" points="79.9577,-316.892 69.3917,-316.111 77.1644,-323.311 79.9577,-316.892"/>
</g>
<!-- Node45 -->
<g id="node30" class="node"><title>Node45</title>
<g id="a_node30"><a xlink:href="CUnaryFunctor_8h_source.html" target="_top" xlink:title="DGtal/base/CUnaryFunctor.h">
<polygon fill="white" stroke="black" points="2065.59,-297 2065.59,-316 2217.59,-316 2217.59,-297 2065.59,-297"/>
<text text-anchor="middle" x="2141.59" y="-304" font-family="FreeSans" font-size="10.00">DGtal/base/CUnaryFunctor.h</text>
</a>
</g>
</g>
<!-- Node42&#45;&gt;Node45 -->
<g id="edge53" class="edge"><title>Node42&#45;&gt;Node45</title>
<path fill="none" stroke="midnightblue" d="M371.315,-369.8C668.34,-359.347 1741.7,-321.573 2055.11,-310.544"/>
<polygon fill="midnightblue" stroke="midnightblue" points="2055.62,-314.028 2065.49,-310.178 2055.37,-307.032 2055.62,-314.028"/>
</g>
<!-- Node46 -->
<g id="node31" class="node"><title>Node46</title>
<g id="a_node31"><a xlink:href="VolReader_8ih_source.html" target="_top" xlink:title="DGtal/io/readers/VolReader.ih">
<polygon fill="white" stroke="black" points="93.0948,-297 93.0948,-316 248.095,-316 248.095,-297 93.0948,-297"/>
<text text-anchor="middle" x="170.595" y="-304" font-family="FreeSans" font-size="10.00">DGtal/io/readers/VolReader.ih</text>
</a>
</g>
</g>
<!-- Node42&#45;&gt;Node46 -->
<g id="edge57" class="edge"><title>Node42&#45;&gt;Node46</title>
<path fill="none" stroke="midnightblue" d="M278.129,-363.869C257.191,-352.893 220.814,-333.824 196.231,-320.938"/>
<polygon fill="midnightblue" stroke="midnightblue" points="197.611,-317.71 187.129,-316.167 194.361,-323.91 197.611,-317.71"/>
</g>
<!-- Node45&#45;&gt;Node1 -->
<g id="edge54" class="edge"><title>Node45&#45;&gt;Node1</title>
<path fill="none" stroke="midnightblue" d="M2148.36,-296.653C2174.04,-261.916 2261.1,-132.991 2200.59,-56 2182.86,-33.4354 2104.06,-20.7776 2055.21,-14.969"/>
<polygon fill="midnightblue" stroke="midnightblue" points="2055.6,-11.4913 2045.27,-13.8323 2054.8,-18.446 2055.6,-11.4913"/>
</g>
<!-- Node45&#45;&gt;Node2 -->
<g id="edge55" class="edge"><title>Node45&#45;&gt;Node2</title>
<path fill="none" stroke="midnightblue" d="M2093.12,-296.94C2079.7,-294.775 2065.11,-292.61 2051.59,-291 1869.98,-269.361 1655.07,-255.818 1544.85,-249.746"/>
<polygon fill="midnightblue" stroke="midnightblue" points="1545.02,-246.249 1534.84,-249.199 1544.64,-253.239 1545.02,-246.249"/>
</g>
<!-- Node45&#45;&gt;Node28 -->
<g id="edge56" class="edge"><title>Node45&#45;&gt;Node28</title>
<path fill="none" stroke="midnightblue" d="M2162.48,-296.992C2214.01,-275.997 2347.41,-221.648 2407.93,-196.992"/>
<polygon fill="midnightblue" stroke="midnightblue" points="2409.4,-200.175 2417.34,-193.161 2406.75,-193.693 2409.4,-200.175"/>
</g>
<!-- Node47&#45;&gt;Node1 -->
<g id="edge59" class="edge"><title>Node47&#45;&gt;Node1</title>
<path fill="none" stroke="midnightblue" d="M1812.34,-622.146C2120.52,-614.296 3239.59,-580.81 3239.59,-508.5 3239.59,-508.5 3239.59,-508.5 3239.59,-121 3239.59,-60.1185 2266.31,-20.3472 2055.54,-12.4483"/>
<polygon fill="midnightblue" stroke="midnightblue" points="2055.37,-8.93967 2045.24,-12.0653 2055.11,-15.9348 2055.37,-8.93967"/>
</g>
<!-- Node47&#45;&gt;Node2 -->
<g id="edge62" class="edge"><title>Node47&#45;&gt;Node2</title>
<path fill="none" stroke="midnightblue" d="M1684.1,-615.435C1642.82,-607.795 1583.21,-595.302 1532.59,-579 1472.32,-559.589 1457.32,-553.07 1401.59,-523 1377.89,-510.209 1212.33,-412.732 1199.59,-389 1154.75,-305.431 1303.35,-268.968 1398.36,-254.488"/>
<polygon fill="midnightblue" stroke="midnightblue" points="1399.14,-257.911 1408.52,-252.991 1398.12,-250.986 1399.14,-257.911"/>
</g>
<!-- Node47&#45;&gt;Node4 -->
<g id="edge60" class="edge"><title>Node47&#45;&gt;Node4</title>
<path fill="none" stroke="midnightblue" d="M1656.69,-624.289C1399.61,-624.226 594.595,-615.487 594.595,-508.5 594.595,-508.5 594.595,-508.5 594.595,-305.5 594.595,-222.461 690.032,-161.638 738.31,-136.183"/>
<polygon fill="midnightblue" stroke="midnightblue" points="739.999,-139.25 747.295,-131.567 736.801,-133.023 739.999,-139.25"/>
</g>
<!-- Node47&#45;&gt;Node32 -->
<g id="edge63" class="edge"><title>Node47&#45;&gt;Node32</title>
<path fill="none" stroke="midnightblue" d="M1657.03,-621.474C1524.46,-616.547 1259.96,-603.889 1170.59,-579 1116.98,-564.068 1106.01,-552.145 1058.59,-523 964.277,-465.022 858.595,-485.212 858.595,-374.5 858.595,-374.5 858.595,-374.5 858.595,-305.5 858.595,-265.922 835.463,-224.204 820.667,-201.568"/>
<polygon fill="midnightblue" stroke="midnightblue" points="823.434,-199.413 814.927,-193.097 817.639,-203.339 823.434,-199.413"/>
</g>
<!-- Node47&#45;&gt;Node33 -->
<g id="edge61" class="edge"><title>Node47&#45;&gt;Node33</title>
<path fill="none" stroke="midnightblue" d="M1738.23,-615.47C1750.68,-586.793 1793.79,-491.907 1846.59,-425 1944.17,-301.366 2200.06,-281.242 2090.59,-168 2051.01,-127.048 1153.68,-138.601 1030.66,-131.562"/>
<polygon fill="midnightblue" stroke="midnightblue" points="1030.63,-128.048 1020.38,-130.715 1030.05,-135.024 1030.63,-128.048"/>
</g>
<!-- Node48 -->
<g id="node33" class="node"><title>Node48</title>
<g id="a_node33"><a xlink:href="CConstSinglePassRange_8h_source.html" target="_top" xlink:title="DGtal/base/CConstSinglePass\lRange.h">
<polygon fill="white" stroke="black" points="2425.59,-291.5 2425.59,-321.5 2583.59,-321.5 2583.59,-291.5 2425.59,-291.5"/>
<text text-anchor="start" x="2433.59" y="-309.5" font-family="FreeSans" font-size="10.00">DGtal/base/CConstSinglePass</text>
<text text-anchor="middle" x="2504.59" y="-298.5" font-family="FreeSans" font-size="10.00">Range.h</text>
</a>
</g>
</g>
<!-- Node47&#45;&gt;Node48 -->
<g id="edge64" class="edge"><title>Node47&#45;&gt;Node48</title>
<path fill="none" stroke="midnightblue" d="M1812.17,-622.906C2007.07,-619.724 2506.66,-608.74 2575.59,-579 2617.3,-561.005 2649.59,-553.925 2649.59,-508.5 2649.59,-508.5 2649.59,-508.5 2649.59,-439.5 2649.59,-384.633 2592.12,-346.531 2549.54,-325.832"/>
<polygon fill="midnightblue" stroke="midnightblue" points="2550.98,-322.64 2540.44,-321.557 2548,-328.976 2550.98,-322.64"/>
</g>
<!-- Node49 -->
<g id="node34" class="node"><title>Node49</title>
<g id="a_node34"><a xlink:href="BasicPointPredicates_8h_source.html" target="_top" xlink:title="DGtal/kernel/BasicPointPredicates.h">
<polygon fill="white" stroke="red" points="1366.59,-431 1366.59,-450 1554.59,-450 1554.59,-431 1366.59,-431"/>
<text text-anchor="middle" x="1460.59" y="-438" font-family="FreeSans" font-size="10.00">DGtal/kernel/BasicPointPredicates.h</text>
</a>
</g>
</g>
<!-- Node47&#45;&gt;Node49 -->
<g id="edge68" class="edge"><title>Node47&#45;&gt;Node49</title>
<path fill="none" stroke="midnightblue" d="M1701.76,-615.444C1676.53,-608.024 1641.4,-595.822 1613.59,-579 1556,-544.154 1500.27,-486.075 1474.88,-457.869"/>
<polygon fill="midnightblue" stroke="midnightblue" points="1477.27,-455.285 1468.01,-450.134 1472.04,-459.934 1477.27,-455.285"/>
</g>
<!-- Node51 -->
<g id="node35" class="node"><title>Node51</title>
<g id="a_node35"><a xlink:href="ConstAlias_8h_source.html" target="_top" xlink:title="DGtal/base/ConstAlias.h">
<polygon fill="white" stroke="red" points="1466.59,-364 1466.59,-383 1598.59,-383 1598.59,-364 1466.59,-364"/>
<text text-anchor="middle" x="1532.59" y="-371" font-family="FreeSans" font-size="10.00">DGtal/base/ConstAlias.h</text>
</a>
</g>
</g>
<!-- Node47&#45;&gt;Node51 -->
<g id="edge134" class="edge"><title>Node47&#45;&gt;Node51</title>
<path fill="none" stroke="midnightblue" d="M1727.64,-615.412C1698.38,-579.273 1584.98,-439.205 1545.91,-390.949"/>
<polygon fill="midnightblue" stroke="midnightblue" points="1548.53,-388.622 1539.52,-383.052 1543.09,-393.027 1548.53,-388.622"/>
</g>
<!-- Node61 -->
<g id="node36" class="node"><title>Node61</title>
<g id="a_node36"><a xlink:href="CPointFunctor_8h_source.html" target="_top" xlink:title="DGtal/kernel/CPointFunctor.h">
<polygon fill="white" stroke="black" points="2430.09,-364 2430.09,-383 2583.09,-383 2583.09,-364 2430.09,-364"/>
<text text-anchor="middle" x="2506.59" y="-371" font-family="FreeSans" font-size="10.00">DGtal/kernel/CPointFunctor.h</text>
</a>
</g>
</g>
<!-- Node47&#45;&gt;Node61 -->
<g id="edge81" class="edge"><title>Node47&#45;&gt;Node61</title>
<path fill="none" stroke="midnightblue" d="M1808.18,-615.47C1864.4,-608.131 1943.53,-596.021 2011.59,-579 2199.84,-531.925 2410.11,-425.707 2481.41,-388.051"/>
<polygon fill="midnightblue" stroke="midnightblue" points="2483.34,-390.988 2490.53,-383.206 2480.06,-384.806 2483.34,-390.988"/>
</g>
<!-- Node62 -->
<g id="node37" class="node"><title>Node62</title>
<g id="a_node37"><a xlink:href="CPointPredicate_8h_source.html" target="_top" xlink:title="DGtal/kernel/CPointPredicate.h">
<polygon fill="white" stroke="red" points="1208.59,-364 1208.59,-383 1372.59,-383 1372.59,-364 1208.59,-364"/>
<text text-anchor="middle" x="1290.59" y="-371" font-family="FreeSans" font-size="10.00">DGtal/kernel/CPointPredicate.h</text>
</a>
</g>
</g>
<!-- Node47&#45;&gt;Node62 -->
<g id="edge82" class="edge"><title>Node47&#45;&gt;Node62</title>
<path fill="none" stroke="midnightblue" d="M1698.17,-615.424C1667.11,-607.579 1621.61,-594.805 1583.59,-579 1478,-535.097 1445.75,-528.843 1357.59,-456 1334.72,-437.099 1313.97,-409.483 1301.81,-391.75"/>
<polygon fill="midnightblue" stroke="midnightblue" points="1304.45,-389.401 1295.98,-383.034 1298.63,-393.292 1304.45,-389.401"/>
</g>
<!-- Node64 -->
<g id="node38" class="node"><title>Node64</title>
<g id="a_node38"><a xlink:href="CDomain_8h_source.html" target="_top" xlink:title="DGtal/kernel/domains\l/CDomain.h">
<polygon fill="white" stroke="black" points="2253.59,-358.5 2253.59,-388.5 2373.59,-388.5 2373.59,-358.5 2253.59,-358.5"/>
<text text-anchor="start" x="2261.59" y="-376.5" font-family="FreeSans" font-size="10.00">DGtal/kernel/domains</text>
<text text-anchor="middle" x="2313.59" y="-365.5" font-family="FreeSans" font-size="10.00">/CDomain.h</text>
</a>
</g>
</g>
<!-- Node47&#45;&gt;Node64 -->
<g id="edge83" class="edge"><title>Node47&#45;&gt;Node64</title>
<path fill="none" stroke="midnightblue" d="M1794.92,-615.49C1843.01,-607.992 1911.81,-595.663 1970.59,-579 1991.83,-572.981 2289.9,-457.879 2291.59,-456 2305.65,-440.402 2310.86,-416.738 2312.73,-398.92"/>
<polygon fill="midnightblue" stroke="midnightblue" points="2316.24,-398.943 2313.51,-388.706 2309.26,-398.411 2316.24,-398.943"/>
</g>
<!-- Node65 -->
<g id="node39" class="node"><title>Node65</title>
<g id="a_node39"><a xlink:href="CConstImage_8h_source.html" target="_top" xlink:title="DGtal/images/CConstImage.h">
<polygon fill="white" stroke="red" points="2791.59,-431 2791.59,-450 2949.59,-450 2949.59,-431 2791.59,-431"/>
<text text-anchor="middle" x="2870.59" y="-438" font-family="FreeSans" font-size="10.00">DGtal/images/CConstImage.h</text>
</a>
</g>
</g>
<!-- Node47&#45;&gt;Node65 -->
<g id="edge89" class="edge"><title>Node47&#45;&gt;Node65</title>
<path fill="none" stroke="midnightblue" d="M1812.25,-623.093C2010.77,-620.341 2533.19,-610.263 2703.59,-579 2782.25,-564.569 2827.66,-587.753 2874.59,-523 2887.88,-504.676 2883.02,-477.485 2877.5,-459.628"/>
<polygon fill="midnightblue" stroke="midnightblue" points="2880.78,-458.417 2874.21,-450.105 2874.17,-460.7 2880.78,-458.417"/>
</g>
<!-- Node70 -->
<g id="node40" class="node"><title>Node70</title>
<g id="a_node40"><a xlink:href="ConstImageAdapter_8h_source.html" target="_top" xlink:title="DGtal/images/ConstImageAdapter.h">
<polygon fill="white" stroke="red" points="2378.09,-559.5 2378.09,-578.5 2567.09,-578.5 2567.09,-559.5 2378.09,-559.5"/>
<text text-anchor="middle" x="2472.59" y="-566.5" font-family="FreeSans" font-size="10.00">DGtal/images/ConstImageAdapter.h</text>
</a>
</g>
</g>
<!-- Node47&#45;&gt;Node70 -->
<g id="edge95" class="edge"><title>Node47&#45;&gt;Node70</title>
<path fill="none" stroke="midnightblue" d="M1812.57,-618.697C1931.47,-610.55 2165.2,-594.287 2363.59,-579 2365.07,-578.886 2366.56,-578.771 2368.06,-578.654"/>
<polygon fill="midnightblue" stroke="midnightblue" points="2368.38,-582.14 2378.07,-577.868 2367.83,-575.162 2368.38,-582.14"/>
</g>
<!-- Node71 -->
<g id="node41" class="node"><title>Node71</title>
<g id="a_node41"><a xlink:href="CImage_8h_source.html" target="_top" xlink:title="DGtal/images/CImage.h">
<polygon fill="white" stroke="red" points="2735.09,-498 2735.09,-517 2866.09,-517 2866.09,-498 2735.09,-498"/>
<text text-anchor="middle" x="2800.59" y="-505" font-family="FreeSans" font-size="10.00">DGtal/images/CImage.h</text>
</a>
</g>
</g>
<!-- Node47&#45;&gt;Node71 -->
<g id="edge107" class="edge"><title>Node47&#45;&gt;Node71</title>
<path fill="none" stroke="midnightblue" d="M1812.19,-624.456C2005.39,-624.919 2503.92,-621.79 2663.59,-579 2707.78,-567.16 2754.06,-539.682 2779.93,-522.74"/>
<polygon fill="midnightblue" stroke="midnightblue" points="2782.12,-525.486 2788.49,-517.023 2778.23,-519.664 2782.12,-525.486"/>
</g>
<!-- Node86 -->
<g id="node42" class="node"><title>Node86</title>
<g id="a_node42"><a xlink:href="CQuantity_8h_source.html" target="_top" xlink:title="DGtal/base/CQuantity.h">
<polygon fill="white" stroke="red" points="1616.59,-364 1616.59,-383 1744.59,-383 1744.59,-364 1616.59,-364"/>
<text text-anchor="middle" x="1680.59" y="-371" font-family="FreeSans" font-size="10.00">DGtal/base/CQuantity.h</text>
</a>
</g>
</g>
<!-- Node47&#45;&gt;Node86 -->
<g id="edge108" class="edge"><title>Node47&#45;&gt;Node86</title>
<path fill="none" stroke="midnightblue" d="M1731.63,-615.452C1728.58,-606.458 1723.84,-591.851 1720.59,-579 1703.49,-511.27 1689.43,-429.363 1683.55,-393.203"/>
<polygon fill="midnightblue" stroke="midnightblue" points="1686.98,-392.465 1681.94,-383.146 1680.07,-393.574 1686.98,-392.465"/>
</g>
<!-- Node87 -->
<g id="node43" class="node"><title>Node87</title>
<g id="a_node43"><a xlink:href="ImageContainerBySTLMap_8h_source.html" target="_top" xlink:title="DGtal/images/ImageContainer\lBySTLMap.h">
<polygon fill="white" stroke="red" points="1907.09,-492.5 1907.09,-522.5 2068.09,-522.5 2068.09,-492.5 1907.09,-492.5"/>
<text text-anchor="start" x="1915.09" y="-510.5" font-family="FreeSans" font-size="10.00">DGtal/images/ImageContainer</text>
<text text-anchor="middle" x="1987.59" y="-499.5" font-family="FreeSans" font-size="10.00">BySTLMap.h</text>
</a>
</g>
</g>
<!-- Node47&#45;&gt;Node87 -->
<g id="edge111" class="edge"><title>Node47&#45;&gt;Node87</title>
<path fill="none" stroke="midnightblue" d="M1753.61,-615.319C1794.67,-596.572 1892.39,-551.964 1947.68,-526.723"/>
<polygon fill="midnightblue" stroke="midnightblue" points="1949.19,-529.882 1956.83,-522.545 1946.28,-523.514 1949.19,-529.882"/>
</g>
<!-- Node84 -->
<g id="node44" class="node"><title>Node84</title>
<g id="a_node44"><a xlink:href="SetValueIterator_8h_source.html" target="_top" xlink:title="DGtal/images/SetValueIterator.h">
<polygon fill="white" stroke="red" points="2112.09,-431 2112.09,-450 2283.09,-450 2283.09,-431 2112.09,-431"/>
<text text-anchor="middle" x="2197.59" y="-438" font-family="FreeSans" font-size="10.00">DGtal/images/SetValueIterator.h</text>
</a>
</g>
</g>
<!-- Node47&#45;&gt;Node84 -->
<g id="edge120" class="edge"><title>Node47&#45;&gt;Node84</title>
<path fill="none" stroke="midnightblue" d="M1778.8,-615.476C1845.51,-601.623 1974.93,-570.857 2076.59,-523 2115.64,-504.621 2156.31,-474.604 2179.15,-456.583"/>
<polygon fill="midnightblue" stroke="midnightblue" points="2181.63,-459.077 2187.25,-450.096 2177.26,-453.611 2181.63,-459.077"/>
</g>
<!-- Node92 -->
<g id="node45" class="node"><title>Node92</title>
<g id="a_node45"><a xlink:href="DigitalSetFromMap_8h_source.html" target="_top" xlink:title="DGtal/kernel/sets/Digital\lSetFromMap.h">
<polygon fill="white" stroke="red" points="622.595,-291.5 622.595,-321.5 754.595,-321.5 754.595,-291.5 622.595,-291.5"/>
<text text-anchor="start" x="630.595" y="-309.5" font-family="FreeSans" font-size="10.00">DGtal/kernel/sets/Digital</text>
<text text-anchor="middle" x="688.595" y="-298.5" font-family="FreeSans" font-size="10.00">SetFromMap.h</text>
</a>
</g>
</g>
<!-- Node47&#45;&gt;Node92 -->
<g id="edge121" class="edge"><title>Node47&#45;&gt;Node92</title>
<path fill="none" stroke="midnightblue" d="M1656.87,-622.003C1473.22,-616.926 1023.01,-602.257 958.595,-579 830.926,-532.906 735.148,-387.62 701.609,-330.698"/>
<polygon fill="midnightblue" stroke="midnightblue" points="704.461,-328.64 696.419,-321.743 698.405,-332.15 704.461,-328.64"/>
</g>
<!-- Node96 -->
<g id="node46" class="node"><title>Node96</title>
<g id="a_node46"><a xlink:href="CDigitalSet_8h_source.html" target="_top" xlink:title="DGtal/kernel/sets/CDigital\lSet.h">
<polygon fill="white" stroke="red" points="1877.09,-425.5 1877.09,-455.5 2016.09,-455.5 2016.09,-425.5 1877.09,-425.5"/>
<text text-anchor="start" x="1885.09" y="-443.5" font-family="FreeSans" font-size="10.00">DGtal/kernel/sets/CDigital</text>
<text text-anchor="middle" x="1946.59" y="-432.5" font-family="FreeSans" font-size="10.00">Set.h</text>
</a>
</g>
</g>
<!-- Node47&#45;&gt;Node96 -->
<g id="edge126" class="edge"><title>Node47&#45;&gt;Node96</title>
<path fill="none" stroke="midnightblue" d="M1744.54,-615.442C1776.28,-588.12 1875.82,-502.43 1922.27,-462.441"/>
<polygon fill="midnightblue" stroke="midnightblue" points="1924.74,-464.931 1930.04,-455.755 1920.17,-459.626 1924.74,-464.931"/>
</g>
<!-- Node97 -->
<g id="node47" class="node"><title>Node97</title>
<g id="a_node47"><a xlink:href="NumberTraits_8h_source.html" target="_top" xlink:title="DGtal/kernel/NumberTraits.h">
<polygon fill="white" stroke="red" points="962.595,-364 962.595,-383 1114.59,-383 1114.59,-364 962.595,-364"/>
<text text-anchor="middle" x="1038.59" y="-371" font-family="FreeSans" font-size="10.00">DGtal/kernel/NumberTraits.h</text>
</a>
</g>
</g>
<!-- Node47&#45;&gt;Node97 -->
<g id="edge132" class="edge"><title>Node47&#45;&gt;Node97</title>
<path fill="none" stroke="midnightblue" d="M1656.88,-621.258C1537.31,-616.315 1314.11,-604.009 1238.59,-579 1139.17,-546.073 1088.8,-547.363 1037.59,-456 1026.76,-436.659 1029.56,-410.465 1033.37,-393.05"/>
<polygon fill="midnightblue" stroke="midnightblue" points="1036.84,-393.586 1035.88,-383.034 1030.05,-391.882 1036.84,-393.586"/>
</g>
<!-- Node48&#45;&gt;Node2 -->
<g id="edge65" class="edge"><title>Node48&#45;&gt;Node2</title>
<path fill="none" stroke="midnightblue" d="M2425.25,-300.93C2230.76,-289.727 1732.49,-261.027 1544.69,-250.21"/>
<polygon fill="midnightblue" stroke="midnightblue" points="1544.83,-246.712 1534.64,-249.632 1544.42,-253.701 1544.83,-246.712"/>
</g>
<!-- Node48&#45;&gt;Node6 -->
<g id="edge66" class="edge"><title>Node48&#45;&gt;Node6</title>
<path fill="none" stroke="midnightblue" d="M2515.63,-291.145C2532.95,-268.608 2566.44,-225.038 2584.79,-201.156"/>
<polygon fill="midnightblue" stroke="midnightblue" points="2587.7,-203.114 2591.02,-193.052 2582.15,-198.848 2587.7,-203.114"/>
</g>
<!-- Node48&#45;&gt;Node28 -->
<g id="edge67" class="edge"><title>Node48&#45;&gt;Node28</title>
<path fill="none" stroke="midnightblue" d="M2496.76,-291.145C2484.63,-268.906 2461.33,-226.186 2448.2,-202.113"/>
<polygon fill="midnightblue" stroke="midnightblue" points="2451.12,-200.155 2443.26,-193.052 2444.98,-203.507 2451.12,-200.155"/>
</g>
<!-- Node49&#45;&gt;Node1 -->
<g id="edge69" class="edge"><title>Node49&#45;&gt;Node1</title>
<path fill="none" stroke="midnightblue" d="M1454.78,-430.813C1443.04,-413.995 1414.78,-376.975 1381.59,-358 1251.38,-283.549 818.33,-316.897 725.595,-199 701.69,-168.608 699.966,-140.953 725.595,-112 810.479,-16.1052 1767.7,-10.9101 1975.82,-10.9194"/>
<polygon fill="midnightblue" stroke="midnightblue" points="1975.98,-14.4194 1985.98,-10.9242 1975.99,-7.41943 1975.98,-14.4194"/>
</g>
<!-- Node49&#45;&gt;Node2 -->
<g id="edge70" class="edge"><title>Node49&#45;&gt;Node2</title>
<path fill="none" stroke="midnightblue" d="M1459.93,-430.929C1459.19,-420.888 1458.03,-403.749 1457.59,-389 1457.19,-375.228 1456.74,-371.751 1457.59,-358 1459.65,-325.024 1465.07,-286.901 1468.53,-264.716"/>
<polygon fill="midnightblue" stroke="midnightblue" points="1472.01,-265.106 1470.14,-254.679 1465.1,-264.001 1472.01,-265.106"/>
</g>
<!-- Node49&#45;&gt;Node51 -->
<g id="edge71" class="edge"><title>Node49&#45;&gt;Node51</title>
<path fill="none" stroke="midnightblue" d="M1470.31,-430.734C1481.86,-420.305 1501.35,-402.709 1515.46,-389.973"/>
<polygon fill="midnightblue" stroke="midnightblue" points="1517.96,-392.426 1523.04,-383.127 1513.27,-387.23 1517.96,-392.426"/>
</g>
<!-- Node49&#45;&gt;Node61 -->
<g id="edge74" class="edge"><title>Node49&#45;&gt;Node61</title>
<path fill="none" stroke="midnightblue" d="M1554.64,-436.266C1721.56,-430.099 2080.52,-414.91 2382.59,-389 2398.01,-387.678 2414.46,-385.966 2430.18,-384.185"/>
<polygon fill="midnightblue" stroke="midnightblue" points="2430.86,-387.631 2440.39,-383.007 2430.05,-380.677 2430.86,-387.631"/>
</g>
<!-- Node49&#45;&gt;Node62 -->
<g id="edge78" class="edge"><title>Node49&#45;&gt;Node62</title>
<path fill="none" stroke="midnightblue" d="M1438.02,-430.869C1408.34,-419.522 1356.04,-399.525 1322.38,-386.652"/>
<polygon fill="midnightblue" stroke="midnightblue" points="1323.58,-383.366 1312.99,-383.064 1321.08,-389.904 1323.58,-383.366"/>
</g>
<!-- Node51&#45;&gt;Node1 -->
<g id="edge72" class="edge"><title>Node51&#45;&gt;Node1</title>
<path fill="none" stroke="midnightblue" d="M1574.38,-363.958C1709,-336.042 2124.8,-246.578 2162.59,-199 2202.15,-149.206 2205.65,-106.952 2167.59,-56 2141.89,-21.5815 2091.02,-12.4054 2055.23,-10.4853"/>
<polygon fill="midnightblue" stroke="midnightblue" points="2055.24,-6.98313 2045.11,-10.1115 2054.98,-13.9784 2055.24,-6.98313"/>
</g>
<!-- Node51&#45;&gt;Node2 -->
<g id="edge73" class="edge"><title>Node51&#45;&gt;Node2</title>
<path fill="none" stroke="midnightblue" d="M1528.4,-363.805C1518.52,-343.313 1493.61,-291.645 1480.29,-264.042"/>
<polygon fill="midnightblue" stroke="midnightblue" points="1483.31,-262.243 1475.82,-254.756 1477.01,-265.283 1483.31,-262.243"/>
</g>
<!-- Node61&#45;&gt;Node1 -->
<g id="edge75" class="edge"><title>Node61&#45;&gt;Node1</title>
<path fill="none" stroke="midnightblue" d="M2547.3,-363.98C2628.23,-345.866 2801.59,-300.681 2801.59,-246 2801.59,-246 2801.59,-246 2801.59,-121 2801.59,-44.8983 2216.23,-18.2242 2055.82,-12.3433"/>
<polygon fill="midnightblue" stroke="midnightblue" points="2055.57,-8.83202 2045.45,-11.9705 2055.31,-15.8275 2055.57,-8.83202"/>
</g>
<!-- Node61&#45;&gt;Node2 -->
<g id="edge76" class="edge"><title>Node61&#45;&gt;Node2</title>
<path fill="none" stroke="midnightblue" d="M2456.61,-364C2443.3,-361.884 2428.92,-359.728 2415.59,-358 2256.57,-337.375 2206.54,-378.833 2056.59,-322 2034.56,-313.65 2035.7,-299.161 2013.59,-291 1929.62,-259.99 1672.69,-250.23 1545.09,-247.253"/>
<polygon fill="midnightblue" stroke="midnightblue" points="1545.09,-243.752 1535.02,-247.026 1544.93,-250.75 1545.09,-243.752"/>
</g>
<!-- Node61&#45;&gt;Node45 -->
<g id="edge77" class="edge"><title>Node61&#45;&gt;Node45</title>
<path fill="none" stroke="midnightblue" d="M2458.5,-363.936C2391.8,-352.058 2271.36,-330.608 2199.71,-317.849"/>
<polygon fill="midnightblue" stroke="midnightblue" points="2199.96,-314.339 2189.5,-316.032 2198.74,-321.231 2199.96,-314.339"/>
</g>
<!-- Node62&#45;&gt;Node1 -->
<g id="edge79" class="edge"><title>Node62&#45;&gt;Node1</title>
<path fill="none" stroke="midnightblue" d="M1208.49,-364.085C1146.66,-356.497 1060.24,-343.211 986.595,-322 850.487,-282.799 771.078,-316.909 692.595,-199 657.379,-146.093 648.425,-101.698 692.595,-56 715.48,-32.3237 1758.3,-14.9656 1976.01,-11.596"/>
<polygon fill="midnightblue" stroke="midnightblue" points="1976.09,-15.0953 1986.04,-11.4417 1975.99,-8.09609 1976.09,-15.0953"/>
</g>
<!-- Node62&#45;&gt;Node2 -->
<g id="edge80" class="edge"><title>Node62&#45;&gt;Node2</title>
<path fill="none" stroke="midnightblue" d="M1303.04,-363.805C1333.65,-342.411 1412.88,-287.032 1450.79,-260.538"/>
<polygon fill="midnightblue" stroke="midnightblue" points="1452.88,-263.353 1459.07,-254.756 1448.87,-257.615 1452.88,-263.353"/>
</g>
<!-- Node64&#45;&gt;Node1 -->
<g id="edge84" class="edge"><title>Node64&#45;&gt;Node1</title>
<path fill="none" stroke="midnightblue" d="M2373.77,-363.733C2458.74,-351.162 2604.73,-328.783 2614.59,-322 2673.04,-281.816 2695.59,-255.426 2695.59,-184.5 2695.59,-184.5 2695.59,-184.5 2695.59,-121 2695.59,-55.7374 2201.19,-21.7938 2055.52,-13.2093"/>
<polygon fill="midnightblue" stroke="midnightblue" points="2055.44,-9.69875 2045.25,-12.6124 2055.03,-16.687 2055.44,-9.69875"/>
</g>
<!-- Node64&#45;&gt;Node2 -->
<g id="edge86" class="edge"><title>Node64&#45;&gt;Node2</title>
<path fill="none" stroke="midnightblue" d="M2253.47,-360.443C2248.78,-359.587 2244.11,-358.762 2239.59,-358 2127.17,-339.031 2092.42,-361.858 1985.59,-322 1961.8,-313.122 1961.58,-299.346 1937.59,-291 1867.06,-266.458 1657.67,-253.962 1545.12,-248.865"/>
<polygon fill="midnightblue" stroke="midnightblue" points="1545.01,-245.357 1534.87,-248.409 1544.7,-252.35 1545.01,-245.357"/>
</g>
<!-- Node64&#45;&gt;Node6 -->
<g id="edge85" class="edge"><title>Node64&#45;&gt;Node6</title>
<path fill="none" stroke="midnightblue" d="M2373.85,-363.546C2453.71,-351.399 2585.43,-330.265 2592.59,-322 2621.45,-288.705 2611.32,-232.014 2603.41,-202.922"/>
<polygon fill="midnightblue" stroke="midnightblue" points="2606.74,-201.841 2600.57,-193.229 2600.02,-203.81 2606.74,-201.841"/>
</g>
<!-- Node64&#45;&gt;Node28 -->
<g id="edge87" class="edge"><title>Node64&#45;&gt;Node28</title>
<path fill="none" stroke="midnightblue" d="M2322.99,-358.369C2345.51,-324.506 2402.5,-238.794 2427.05,-201.866"/>
<polygon fill="midnightblue" stroke="midnightblue" points="2430.18,-203.471 2432.81,-193.206 2424.35,-199.596 2430.18,-203.471"/>
</g>
<!-- Node64&#45;&gt;Node48 -->
<g id="edge88" class="edge"><title>Node64&#45;&gt;Node48</title>
<path fill="none" stroke="midnightblue" d="M2355.04,-358.396C2383.95,-348.558 2422.71,-335.367 2453.53,-324.879"/>
<polygon fill="midnightblue" stroke="midnightblue" points="2454.89,-328.112 2463.23,-321.577 2452.64,-321.485 2454.89,-328.112"/>
</g>
<!-- Node65&#45;&gt;Node6 -->
<g id="edge90" class="edge"><title>Node65&#45;&gt;Node6</title>
<path fill="none" stroke="midnightblue" d="M2863.66,-430.697C2844.83,-407.027 2790.76,-340.46 2739.59,-291 2711.44,-263.79 2702.91,-258.503 2671.59,-235 2654.49,-222.165 2634.42,-208.552 2619.5,-198.698"/>
<polygon fill="midnightblue" stroke="midnightblue" points="2621.23,-195.646 2610.95,-193.089 2617.39,-201.5 2621.23,-195.646"/>
</g>
<!-- Node65&#45;&gt;Node8 -->
<g id="edge91" class="edge"><title>Node65&#45;&gt;Node8</title>
<path fill="none" stroke="midnightblue" d="M2874.21,-430.722C2889.29,-394.093 2947.39,-253 2968.16,-202.558"/>
<polygon fill="midnightblue" stroke="midnightblue" points="2971.42,-203.82 2972,-193.241 2964.95,-201.155 2971.42,-203.82"/>
</g>
<!-- Node65&#45;&gt;Node9 -->
<g id="edge92" class="edge"><title>Node65&#45;&gt;Node9</title>
<path fill="none" stroke="midnightblue" d="M2879.56,-430.923C2908.95,-402.814 3005.03,-310.92 3084.59,-235 3096.9,-223.254 3110.83,-209.982 3121.32,-199.993"/>
<polygon fill="midnightblue" stroke="midnightblue" points="3123.76,-202.505 3128.59,-193.074 3118.93,-197.436 3123.76,-202.505"/>
</g>
<!-- Node65&#45;&gt;Node61 -->
<g id="edge93" class="edge"><title>Node65&#45;&gt;Node61</title>
<path fill="none" stroke="midnightblue" d="M2822.63,-430.936C2756.12,-419.058 2636,-397.608 2564.55,-384.849"/>
<polygon fill="midnightblue" stroke="midnightblue" points="2564.83,-381.344 2554.37,-383.032 2563.6,-388.235 2564.83,-381.344"/>
</g>
<!-- Node65&#45;&gt;Node64 -->
<g id="edge94" class="edge"><title>Node65&#45;&gt;Node64</title>
<path fill="none" stroke="midnightblue" d="M2791.27,-431.155C2701.32,-421.562 2550.3,-405.064 2420.59,-389 2408.75,-387.533 2396.18,-385.899 2383.97,-384.271"/>
<polygon fill="midnightblue" stroke="midnightblue" points="2384.21,-380.771 2373.83,-382.909 2383.28,-387.709 2384.21,-380.771"/>
</g>
<!-- Node70&#45;&gt;Node1 -->
<g id="edge96" class="edge"><title>Node70&#45;&gt;Node1</title>
<path fill="none" stroke="midnightblue" d="M2505.05,-559.416C2601.16,-531.834 2877.59,-435.985 2877.59,-246 2877.59,-246 2877.59,-246 2877.59,-121 2877.59,-64.2136 2821.9,-72.6045 2767.59,-56 2632.73,-14.7625 2191.42,-11.0684 2055.68,-10.9281"/>
<polygon fill="midnightblue" stroke="midnightblue" points="2055.34,-7.42808 2045.34,-10.9239 2055.34,-14.4281 2055.34,-7.42808"/>
</g>
<!-- Node70&#45;&gt;Node2 -->
<g id="edge97" class="edge"><title>Node70&#45;&gt;Node2</title>
<path fill="none" stroke="midnightblue" d="M2471.89,-559.322C2468.73,-526.509 2452.71,-409.288 2382.59,-358 2316.1,-309.356 2089.77,-353.382 2013.59,-322 1993.44,-313.698 1995.78,-299.219 1975.59,-291 1899.5,-260.017 1665.54,-250.286 1545.03,-247.292"/>
<polygon fill="midnightblue" stroke="midnightblue" points="1544.87,-243.787 1534.79,-247.047 1544.7,-250.785 1544.87,-243.787"/>
</g>
<!-- Node70&#45;&gt;Node28 -->
<g id="edge99" class="edge"><title>Node70&#45;&gt;Node28</title>
<path fill="none" stroke="midnightblue" d="M2482.22,-559.165C2519.03,-524.292 2646.13,-393.117 2592.59,-291 2567.45,-243.033 2509.8,-212.391 2472.61,-196.842"/>
<polygon fill="midnightblue" stroke="midnightblue" points="2473.75,-193.528 2463.17,-193.033 2471.13,-200.02 2473.75,-193.528"/>
</g>
<!-- Node70&#45;&gt;Node51 -->
<g id="edge98" class="edge"><title>Node70&#45;&gt;Node51</title>
<path fill="none" stroke="midnightblue" d="M2377.89,-564.125C2238.79,-557.831 1986.15,-543.944 1897.59,-523 1829.08,-506.796 1634.8,-420.659 1561.27,-387.513"/>
<polygon fill="midnightblue" stroke="midnightblue" points="1562.28,-384.127 1551.72,-383.2 1559.4,-390.506 1562.28,-384.127"/>
</g>
<!-- Node70&#45;&gt;Node64 -->
<g id="edge106" class="edge"><title>Node70&#45;&gt;Node64</title>
<path fill="none" stroke="midnightblue" d="M2465.56,-559.436C2442.17,-530.98 2366.58,-438.983 2331.63,-396.445"/>
<polygon fill="midnightblue" stroke="midnightblue" points="2334.26,-394.134 2325.21,-388.63 2328.85,-398.578 2334.26,-394.134"/>
</g>
<!-- Node70&#45;&gt;Node71 -->
<g id="edge100" class="edge"><title>Node70&#45;&gt;Node71</title>
<path fill="none" stroke="midnightblue" d="M2519.59,-559.475C2578.78,-548.739 2680.39,-530.306 2743.84,-518.795"/>
<polygon fill="midnightblue" stroke="midnightblue" points="2744.47,-522.238 2753.69,-517.009 2743.22,-515.35 2744.47,-522.238"/>
</g>
<!-- Node71&#45;&gt;Node6 -->
<g id="edge101" class="edge"><title>Node71&#45;&gt;Node6</title>
<path fill="none" stroke="midnightblue" d="M2796.99,-497.62C2782.42,-461.855 2727.36,-328.495 2701.59,-291 2688.12,-271.397 2640.25,-224.92 2614.42,-200.353"/>
<polygon fill="midnightblue" stroke="midnightblue" points="2616.54,-197.545 2606.88,-193.208 2611.73,-202.626 2616.54,-197.545"/>
</g>
<!-- Node71&#45;&gt;Node8 -->
<g id="edge102" class="edge"><title>Node71&#45;&gt;Node8</title>
<path fill="none" stroke="midnightblue" d="M2866.19,-502.464C2899.19,-496.792 2936.73,-484.053 2958.59,-456 3018.26,-379.438 2993.08,-250.818 2980.83,-203.074"/>
<polygon fill="midnightblue" stroke="midnightblue" points="2984.16,-201.969 2978.19,-193.219 2977.4,-203.784 2984.16,-201.969"/>
</g>
<!-- Node71&#45;&gt;Node9 -->
<g id="edge103" class="edge"><title>Node71&#45;&gt;Node9</title>
<path fill="none" stroke="midnightblue" d="M2866.36,-505.279C2954.12,-499.762 3098.59,-475.362 3098.59,-374.5 3098.59,-374.5 3098.59,-374.5 3098.59,-305.5 3098.59,-267.048 3116.66,-224.893 3128.2,-201.883"/>
<polygon fill="midnightblue" stroke="midnightblue" points="3131.31,-203.488 3132.81,-193 3125.1,-200.26 3131.31,-203.488"/>
</g>
<!-- Node71&#45;&gt;Node64 -->
<g id="edge104" class="edge"><title>Node71&#45;&gt;Node64</title>
<path fill="none" stroke="midnightblue" d="M2769.02,-497.941C2689.59,-476.412 2480.37,-419.703 2375.44,-391.263"/>
<polygon fill="midnightblue" stroke="midnightblue" points="2376.19,-387.84 2365.62,-388.602 2374.36,-394.596 2376.19,-387.84"/>
</g>
<!-- Node71&#45;&gt;Node65 -->
<g id="edge105" class="edge"><title>Node71&#45;&gt;Node65</title>
<path fill="none" stroke="midnightblue" d="M2810.04,-497.734C2821.27,-487.305 2840.22,-469.709 2853.93,-456.973"/>
<polygon fill="midnightblue" stroke="midnightblue" points="2856.36,-459.497 2861.3,-450.127 2851.59,-454.367 2856.36,-459.497"/>
</g>
<!-- Node86&#45;&gt;Node1 -->
<g id="edge109" class="edge"><title>Node86&#45;&gt;Node1</title>
<path fill="none" stroke="midnightblue" d="M1744.62,-371.202C1881.7,-367.774 2193.85,-356.253 2226.59,-322 2267.45,-279.264 2263.35,-96.8439 2220.59,-56 2197.25,-33.7002 2108.02,-20.712 2055.28,-14.8284"/>
<polygon fill="midnightblue" stroke="midnightblue" points="2055.57,-11.3393 2045.25,-13.7458 2054.82,-18.2989 2055.57,-11.3393"/>
</g>
<!-- Node86&#45;&gt;Node2 -->
<g id="edge110" class="edge"><title>Node86&#45;&gt;Node2</title>
<path fill="none" stroke="midnightblue" d="M1666.23,-363.805C1630.57,-342.223 1537.78,-286.06 1494.48,-259.849"/>
<polygon fill="midnightblue" stroke="midnightblue" points="1496.15,-256.772 1485.78,-254.588 1492.53,-262.761 1496.15,-256.772"/>
</g>
<!-- Node87&#45;&gt;Node1 -->
<g id="edge112" class="edge"><title>Node87&#45;&gt;Node1</title>
<path fill="none" stroke="midnightblue" d="M1997.41,-492.28C2010.12,-474.683 2033.74,-444.646 2059.59,-425 2143,-361.626 2208.06,-405.285 2271.59,-322 2323.25,-254.283 2295.32,-217.163 2296.59,-132 2296.73,-123.112 2298.82,-120.606 2296.59,-112 2289.48,-84.4562 2288.72,-72.5675 2265.59,-56 2232.55,-32.3284 2117.47,-19.4148 2055.63,-14.0398"/>
<polygon fill="midnightblue" stroke="midnightblue" points="2055.72,-10.5348 2045.46,-13.1821 2055.13,-17.5101 2055.72,-10.5348"/>
</g>
<!-- Node87&#45;&gt;Node2 -->
<g id="edge113" class="edge"><title>Node87&#45;&gt;Node2</title>
<path fill="none" stroke="midnightblue" d="M1930.78,-492.448C1908.84,-484.687 1884.91,-473.051 1867.59,-456 1833.71,-422.623 1859.97,-389.799 1824.59,-358 1746.12,-287.447 1623.17,-261.324 1545.03,-251.661"/>
<polygon fill="midnightblue" stroke="midnightblue" points="1545.12,-248.148 1534.78,-250.456 1544.31,-255.1 1545.12,-248.148"/>
</g>
<!-- Node87&#45;&gt;Node32 -->
<g id="edge114" class="edge"><title>Node87&#45;&gt;Node32</title>
<path fill="none" stroke="midnightblue" d="M1929.88,-492.489C1903.18,-484.386 1871.86,-472.473 1846.59,-456 1796.29,-423.207 1806.39,-386.607 1753.59,-358 1753.59,-358 1068.66,-232.248 865.031,-194.862"/>
<polygon fill="midnightblue" stroke="midnightblue" points="865.603,-191.408 855.135,-193.045 864.339,-198.293 865.603,-191.408"/>
</g>
<!-- Node87&#45;&gt;Node64 -->
<g id="edge119" class="edge"><title>Node87&#45;&gt;Node64</title>
<path fill="none" stroke="midnightblue" d="M2007.82,-492.421C2022.27,-482.329 2042.17,-468.388 2059.59,-456 2078.79,-442.347 2081.18,-434.817 2102.59,-425 2147.29,-404.513 2201.27,-391.789 2243.44,-384.238"/>
<polygon fill="midnightblue" stroke="midnightblue" points="2244.09,-387.677 2253.34,-382.52 2242.89,-380.78 2244.09,-387.677"/>
</g>
<!-- Node87&#45;&gt;Node84 -->
<g id="edge115" class="edge"><title>Node87&#45;&gt;Node84</title>
<path fill="none" stroke="midnightblue" d="M2032.9,-492.476C2070.87,-480.723 2124.44,-464.143 2160.05,-453.12"/>
<polygon fill="midnightblue" stroke="midnightblue" points="2161.52,-456.329 2170.04,-450.029 2159.45,-449.642 2161.52,-456.329"/>
</g>
<!-- Node84&#45;&gt;Node1 -->
<g id="edge118" class="edge"><title>Node84&#45;&gt;Node1</title>
<path fill="none" stroke="midnightblue" d="M2283.17,-435.685C2363.95,-430.416 2487.82,-418.005 2591.59,-389 2662.31,-369.236 2679.66,-359.818 2742.59,-322 2789.54,-293.79 2839.59,-300.768 2839.59,-246 2839.59,-246 2839.59,-246 2839.59,-121 2839.59,-48.7508 2760.79,-73.1009 2690.59,-56 2568.91,-26.3546 2181.45,-14.8712 2055.54,-11.8644"/>
<polygon fill="midnightblue" stroke="midnightblue" points="2055.29,-8.35768 2045.21,-11.6229 2055.13,-15.3558 2055.29,-8.35768"/>
</g>
<!-- Node84&#45;&gt;Node2 -->
<g id="edge116" class="edge"><title>Node84&#45;&gt;Node2</title>
<path fill="none" stroke="midnightblue" d="M2178.68,-430.845C2112.17,-400.478 1891.33,-300.116 1857.59,-291 1751.32,-262.281 1623.7,-251.89 1545.12,-248.131"/>
<polygon fill="midnightblue" stroke="midnightblue" points="1544.99,-244.622 1534.84,-247.664 1544.67,-251.614 1544.99,-244.622"/>
</g>
<!-- Node84&#45;&gt;Node64 -->
<g id="edge117" class="edge"><title>Node84&#45;&gt;Node64</title>
<path fill="none" stroke="midnightblue" d="M2213.24,-430.734C2230.12,-421.274 2257.53,-405.914 2279.44,-393.636"/>
<polygon fill="midnightblue" stroke="midnightblue" points="2281.44,-396.531 2288.45,-388.589 2278.02,-390.424 2281.44,-396.531"/>
</g>
<!-- Node92&#45;&gt;Node1 -->
<g id="edge122" class="edge"><title>Node92&#45;&gt;Node1</title>
<path fill="none" stroke="midnightblue" d="M665.189,-291.291C638.446,-273.527 596.121,-240.363 578.595,-199 551.65,-135.407 646.017,-60.7289 654.595,-56 713.923,-23.2937 1758.39,-13.0781 1976.05,-11.3001"/>
<polygon fill="midnightblue" stroke="midnightblue" points="1976.1,-14.7999 1986.07,-11.2195 1976.04,-7.80013 1976.1,-14.7999"/>
</g>
<!-- Node92&#45;&gt;Node2 -->
<g id="edge124" class="edge"><title>Node92&#45;&gt;Node2</title>
<path fill="none" stroke="midnightblue" d="M754.859,-292.882C759.499,-292.185 764.111,-291.548 768.595,-291 997.301,-263.048 1270.12,-251.866 1398.26,-247.909"/>
<polygon fill="midnightblue" stroke="midnightblue" points="1398.46,-251.405 1408.35,-247.603 1398.25,-244.408 1398.46,-251.405"/>
</g>
<!-- Node92&#45;&gt;Node15 -->
<g id="edge123" class="edge"><title>Node92&#45;&gt;Node15</title>
<path fill="none" stroke="midnightblue" d="M648.57,-291.383C550.925,-254.96 314.982,-153.801 406.595,-56 451.814,-7.7263 931.85,-9.26637 1062.13,-10.5875"/>
<polygon fill="midnightblue" stroke="midnightblue" points="1062.23,-14.0887 1072.27,-10.6973 1062.31,-7.08915 1062.23,-14.0887"/>
</g>
<!-- Node92&#45;&gt;Node32 -->
<g id="edge125" class="edge"><title>Node92&#45;&gt;Node32</title>
<path fill="none" stroke="midnightblue" d="M702.832,-291.145C725.478,-268.31 769.537,-223.883 793.005,-200.22"/>
<polygon fill="midnightblue" stroke="midnightblue" points="795.557,-202.617 800.113,-193.052 790.587,-197.688 795.557,-202.617"/>
</g>
<!-- Node96&#45;&gt;Node1 -->
<g id="edge127" class="edge"><title>Node96&#45;&gt;Node1</title>
<path fill="none" stroke="midnightblue" d="M1974.28,-425.375C2009.01,-408.011 2070.68,-378.35 2125.59,-358 2179.41,-338.058 2209.71,-363.264 2249.59,-322 2270.94,-299.91 2261.97,-285.372 2266.59,-255 2280,-166.875 2309.53,-113.717 2241.59,-56 2214.04,-32.5896 2112.73,-19.8041 2055.55,-14.3104"/>
<polygon fill="midnightblue" stroke="midnightblue" points="2055.7,-10.809 2045.42,-13.3686 2055.05,-17.779 2055.7,-10.809"/>
</g>
<!-- Node96&#45;&gt;Node2 -->
<g id="edge129" class="edge"><title>Node96&#45;&gt;Node2</title>
<path fill="none" stroke="midnightblue" d="M1939.7,-425.469C1923.91,-395.036 1881.96,-323.119 1823.59,-291 1777.08,-265.401 1633.64,-253.874 1544.87,-249.074"/>
<polygon fill="midnightblue" stroke="midnightblue" points="1545.03,-245.578 1534.86,-248.549 1544.67,-252.568 1545.03,-245.578"/>
</g>
<!-- Node96&#45;&gt;Node6 -->
<g id="edge128" class="edge"><title>Node96&#45;&gt;Node6</title>
<path fill="none" stroke="midnightblue" d="M2001.46,-425.493C2037.1,-416.033 2084.41,-402.794 2125.59,-389 2301.1,-330.214 2501.79,-232.579 2571.86,-197.527"/>
<polygon fill="midnightblue" stroke="midnightblue" points="2573.5,-200.621 2580.86,-193.007 2570.36,-194.365 2573.5,-200.621"/>
</g>
<!-- Node96&#45;&gt;Node62 -->
<g id="edge130" class="edge"><title>Node96&#45;&gt;Node62</title>
<path fill="none" stroke="midnightblue" d="M1877.01,-432.605C1758.1,-420.823 1515.8,-396.815 1382.9,-383.646"/>
<polygon fill="midnightblue" stroke="midnightblue" points="1383.04,-380.143 1372.74,-382.64 1382.35,-387.109 1383.04,-380.143"/>
</g>
<!-- Node96&#45;&gt;Node64 -->
<g id="edge131" class="edge"><title>Node96&#45;&gt;Node64</title>
<path fill="none" stroke="midnightblue" d="M2016.49,-427.121C2081.54,-415.6 2177.98,-398.519 2243.19,-386.969"/>
<polygon fill="midnightblue" stroke="midnightblue" points="2244.14,-390.355 2253.38,-385.165 2242.92,-383.462 2244.14,-390.355"/>
</g>
<!-- Node97&#45;&gt;Node2 -->
<g id="edge133" class="edge"><title>Node97&#45;&gt;Node2</title>
<path fill="none" stroke="midnightblue" d="M1045.13,-363.762C1058.6,-346.51 1091.29,-308.254 1128.59,-291 1175.13,-269.479 1312.17,-256.648 1398.29,-250.488"/>
<polygon fill="midnightblue" stroke="midnightblue" points="1398.54,-253.979 1408.27,-249.788 1398.05,-246.996 1398.54,-253.979"/>
</g>
<!-- Node102&#45;&gt;Node1 -->
<g id="edge138" class="edge"><title>Node102&#45;&gt;Node1</title>
<path fill="none" stroke="midnightblue" d="M492.821,-296.861C498.761,-258.794 528.387,-105.714 626.595,-56 688.313,-24.7574 1754.48,-13.3753 1975.63,-11.3453"/>
<polygon fill="midnightblue" stroke="midnightblue" points="1975.84,-14.8437 1985.81,-11.2531 1975.78,-7.84395 1975.84,-14.8437"/>
</g>
<!-- Node102&#45;&gt;Node2 -->
<g id="edge137" class="edge"><title>Node102&#45;&gt;Node2</title>
<path fill="none" stroke="midnightblue" d="M556.411,-296.992C574.863,-294.788 594.999,-292.591 613.595,-291 903.506,-266.196 1249.77,-253.065 1398.18,-248.219"/>
<polygon fill="midnightblue" stroke="midnightblue" points="1398.64,-251.706 1408.52,-247.884 1398.42,-244.71 1398.64,-251.706"/>
</g>
<!-- Node102&#45;&gt;Node4 -->
<g id="edge139" class="edge"><title>Node102&#45;&gt;Node4</title>
<path fill="none" stroke="midnightblue" d="M496.922,-296.938C512.345,-272.863 559.58,-203.995 616.595,-168 649.646,-147.134 692.917,-135.481 724.307,-129.291"/>
<polygon fill="midnightblue" stroke="midnightblue" points="725.277,-132.671 734.465,-127.397 723.993,-125.79 725.277,-132.671"/>
</g>
<!-- Node202&#45;&gt;Node1 -->
<g id="edge141" class="edge"><title>Node202&#45;&gt;Node1</title>
<path fill="none" stroke="midnightblue" d="M1046.28,-437.022C872.844,-430.353 499.409,-406.328 407.595,-322 381.952,-298.448 388.595,-280.817 388.595,-246 388.595,-246 388.595,-246 388.595,-121 388.595,-91.0239 382.993,-74.4806 406.595,-56 438.454,-31.0533 1730.47,-14.4039 1975.66,-11.4658"/>
<polygon fill="midnightblue" stroke="midnightblue" points="1975.93,-14.9628 1985.89,-11.3438 1975.85,-7.96331 1975.93,-14.9628"/>
</g>
<!-- Node202&#45;&gt;Node2 -->
<g id="edge143" class="edge"><title>Node202&#45;&gt;Node2</title>
<path fill="none" stroke="midnightblue" d="M1134.38,-430.881C1131.32,-405.28 1126.15,-329.112 1166.59,-291 1199.07,-260.392 1318.66,-250.566 1398.09,-247.434"/>
<polygon fill="midnightblue" stroke="midnightblue" points="1398.67,-250.915 1408.53,-247.052 1398.41,-243.92 1398.67,-250.915"/>
</g>
<!-- Node202&#45;&gt;Node12 -->
<g id="edge142" class="edge"><title>Node202&#45;&gt;Node12</title>
<path fill="none" stroke="midnightblue" d="M1082.8,-430.996C1045.24,-423.508 994.402,-410.385 953.595,-389 836.759,-327.773 781.544,-318.453 725.595,-199 719.751,-186.523 717.862,-179.403 725.595,-168 730.354,-160.982 773.623,-145.057 805.206,-134.163"/>
<polygon fill="midnightblue" stroke="midnightblue" points="806.655,-137.367 814.985,-130.821 804.391,-130.743 806.655,-137.367"/>
</g>
<!-- Node202&#45;&gt;Node51 -->
<g id="edge148" class="edge"><title>Node202&#45;&gt;Node51</title>
<path fill="none" stroke="midnightblue" d="M1187.9,-430.936C1260.75,-419.009 1392.53,-397.432 1470.34,-384.693"/>
<polygon fill="midnightblue" stroke="midnightblue" points="1471.18,-388.102 1480.49,-383.032 1470.05,-381.194 1471.18,-388.102"/>
</g>
<!-- Node202&#45;&gt;Node62 -->
<g id="edge145" class="edge"><title>Node202&#45;&gt;Node62</title>
<path fill="none" stroke="midnightblue" d="M1156.18,-430.869C1182.93,-419.65 1229.84,-399.977 1260.57,-387.092"/>
<polygon fill="midnightblue" stroke="midnightblue" points="1262.06,-390.262 1269.93,-383.167 1259.35,-383.807 1262.06,-390.262"/>
</g>
<!-- Node202&#45;&gt;Node64 -->
<g id="edge147" class="edge"><title>Node202&#45;&gt;Node64</title>
<path fill="none" stroke="midnightblue" d="M1224.7,-433.426C1265.24,-430.728 1313.83,-427.585 1357.59,-425 1688.99,-405.425 2085.23,-385.654 2243.39,-377.909"/>
<polygon fill="midnightblue" stroke="midnightblue" points="2243.64,-381.401 2253.46,-377.416 2243.3,-374.409 2243.64,-381.401"/>
</g>
<!-- Node202&#45;&gt;Node86 -->
<g id="edge146" class="edge"><title>Node202&#45;&gt;Node86</title>
<path fill="none" stroke="midnightblue" d="M1224.63,-432.366C1319.76,-424.187 1474.8,-409.251 1607.59,-389 1615.14,-387.849 1623.1,-386.456 1630.87,-384.995"/>
<polygon fill="midnightblue" stroke="midnightblue" points="1631.77,-388.385 1640.93,-383.05 1630.44,-381.512 1631.77,-388.385"/>
</g>
<!-- Node202&#45;&gt;Node97 -->
<g id="edge144" class="edge"><title>Node202&#45;&gt;Node97</title>
<path fill="none" stroke="midnightblue" d="M1122.51,-430.734C1106.44,-419.964 1078.96,-401.55 1059.84,-388.739"/>
<polygon fill="midnightblue" stroke="midnightblue" points="1061.73,-385.787 1051.47,-383.127 1057.83,-391.602 1061.73,-385.787"/>
</g>
</g>
</svg>
